<?xml version="1.0" encoding="UTF-8" standalone="no"?>
<!DOCTYPE svg PUBLIC "-//W3C//DTD SVG 1.1//EN"
 "http://www.w3.org/Graphics/SVG/1.1/DTD/svg11.dtd">
<!-- Generated by graphviz version 12.1.2 (20240928.0832)
 -->
<!-- Title: ap.datasetkeywords Pages: 1 -->
<svg width="331pt" height="198pt"
 viewBox="0.00 0.00 330.53 197.60" xmlns="http://www.w3.org/2000/svg" xmlns:xlink="http://www.w3.org/1999/xlink">
<g id="graph0" class="graph" transform="scale(1 1) rotate(0) translate(4 193.6)">
<title>ap.datasetkeywords</title>
<polygon fill="white" stroke="none" points="-4,4 -4,-193.6 326.53,-193.6 326.53,4 -4,4"/>
<!-- ap.datasetkeywords -->
<g id="node1" class="node">
<title>ap.datasetkeywords</title>
<polygon fill="#efefef" stroke="none" points="46.2,-107.8 46.2,-143.4 276.33,-143.4 276.33,-107.8 46.2,-107.8"/>
<polygon fill="none" stroke="black" points="46.2,-107.8 46.2,-143.4 276.33,-143.4 276.33,-107.8 46.2,-107.8"/>
<text text-anchor="start" x="53.2" y="-121.2" font-family="Arial Bold" font-size="18.00">ap.datasetkeywords</text>
<text text-anchor="start" x="194.65" y="-121.2" font-family="Arial" font-size="14.00">    </text>
<text text-anchor="start" x="225.77" y="-121.2" font-family="Arial" font-size="14.00" fill="#666666">[VIEW]</text>
<polygon fill="none" stroke="black" points="46.2,-77 46.2,-107.8 276.33,-107.8 276.33,-77 46.2,-77"/>
<text text-anchor="start" x="53.2" y="-89.2" font-family="Arial" font-size="14.00">datasetid </text>
<text text-anchor="start" x="113.91" y="-89.2" font-family="Arial" font-size="14.00" fill="#666666">[integer]</text>
<polygon fill="none" stroke="black" points="46.2,-46.2 46.2,-77 276.33,-77 276.33,-46.2 46.2,-46.2"/>
<text text-anchor="start" x="53.2" y="-58.4" font-family="Arial" font-size="14.00">keywordid </text>
<text text-anchor="start" x="120.12" y="-58.4" font-family="Arial" font-size="14.00" fill="#666666">[integer]</text>
<polygon fill="none" stroke="black" stroke-width="3" points="44.7,-44.7 44.7,-144.9 277.83,-144.9 277.83,-44.7 44.7,-44.7"/>
</g>
</g>
</svg>
