<?xml version="1.0" encoding="UTF-8" standalone="no"?>
<!DOCTYPE svg PUBLIC "-//W3C//DTD SVG 1.1//EN"
 "http://www.w3.org/Graphics/SVG/1.1/DTD/svg11.dtd">
<!-- Generated by graphviz version 12.1.2 (20240928.0832)
 -->
<!-- Title: ap.faunranges Pages: 1 -->
<svg width="371pt" height="259pt"
 viewBox="0.00 0.00 371.21 259.20" xmlns="http://www.w3.org/2000/svg" xmlns:xlink="http://www.w3.org/1999/xlink">
<g id="graph0" class="graph" transform="scale(1 1) rotate(0) translate(4 255.2)">
<title>ap.faunranges</title>
<polygon fill="white" stroke="none" points="-4,4 -4,-255.2 367.21,-255.2 367.21,4 -4,4"/>
<!-- ap.faunranges -->
<g id="node1" class="node">
<title>ap.faunranges</title>
<polygon fill="#efefef" stroke="none" points="46.2,-169.4 46.2,-205 317.01,-205 317.01,-169.4 46.2,-169.4"/>
<polygon fill="none" stroke="black" points="46.2,-169.4 46.2,-205 317.01,-205 317.01,-169.4 46.2,-169.4"/>
<text text-anchor="start" x="69.13" y="-182.8" font-family="Arial Bold" font-size="18.00">ap.faunranges</text>
<text text-anchor="start" x="169.58" y="-182.8" font-family="Arial" font-size="14.00">    </text>
<text text-anchor="start" x="200.7" y="-182.8" font-family="Arial" font-size="14.00" fill="#666666">[BASE TABLE]</text>
<polygon fill="none" stroke="black" points="46.2,-138.6 46.2,-169.4 317.01,-169.4 317.01,-138.6 46.2,-138.6"/>
<text text-anchor="start" x="53.2" y="-150.8" font-family="Arial" font-size="14.00">gid </text>
<text text-anchor="start" x="75.77" y="-150.8" font-family="Arial" font-size="14.00" fill="#666666">[integer]</text>
<polygon fill="none" stroke="black" points="46.2,-107.8 46.2,-138.6 317.01,-138.6 317.01,-107.8 46.2,-107.8"/>
<text text-anchor="start" x="53.2" y="-120" font-family="Arial" font-size="14.00">sciname </text>
<text text-anchor="start" x="109.22" y="-120" font-family="Arial" font-size="14.00" fill="#666666">[varchar(254)]</text>
<polygon fill="none" stroke="black" points="46.2,-77 46.2,-107.8 317.01,-107.8 317.01,-77 46.2,-77"/>
<text text-anchor="start" x="53.2" y="-89.2" font-family="Arial" font-size="14.00">spid </text>
<text text-anchor="start" x="82.77" y="-89.2" font-family="Arial" font-size="14.00" fill="#666666">[varchar(10)]</text>
<polygon fill="none" stroke="black" points="46.2,-46.2 46.2,-77 317.01,-77 317.01,-46.2 46.2,-46.2"/>
<text text-anchor="start" x="53.2" y="-58.4" font-family="Arial" font-size="14.00">the_geom </text>
<text text-anchor="start" x="119.36" y="-58.4" font-family="Arial" font-size="14.00" fill="#666666">[geometry(MultiPolygon,4326)]</text>
<polygon fill="none" stroke="black" stroke-width="3" points="44.7,-44.7 44.7,-206.5 318.51,-206.5 318.51,-44.7 44.7,-44.7"/>
</g>
</g>
</svg>
