<?xml version="1.0" encoding="UTF-8" standalone="no"?>
<!DOCTYPE svg PUBLIC "-//W3C//DTD SVG 1.1//EN"
 "http://www.w3.org/Graphics/SVG/1.1/DTD/svg11.dtd">
<!-- Generated by graphviz version 12.1.2 (20240928.0832)
 -->
<!-- Title: ap.globalmammals Pages: 1 -->
<svg width="375pt" height="413pt"
 viewBox="0.00 0.00 375.36 413.20" xmlns="http://www.w3.org/2000/svg" xmlns:xlink="http://www.w3.org/1999/xlink">
<g id="graph0" class="graph" transform="scale(1 1) rotate(0) translate(4 409.2)">
<title>ap.globalmammals</title>
<polygon fill="white" stroke="none" points="-4,4 -4,-409.2 371.36,-409.2 371.36,4 -4,4"/>
<!-- ap.globalmammals -->
<g id="node1" class="node">
<title>ap.globalmammals</title>
<polygon fill="#efefef" stroke="none" points="46.2,-323.4 46.2,-359 321.16,-359 321.16,-323.4 46.2,-323.4"/>
<polygon fill="none" stroke="black" points="46.2,-323.4 46.2,-359 321.16,-359 321.16,-323.4 46.2,-323.4"/>
<text text-anchor="start" x="53.2" y="-336.8" font-family="Arial Bold" font-size="18.00">ap.globalmammals</text>
<text text-anchor="start" x="189.67" y="-336.8" font-family="Arial" font-size="14.00">    </text>
<text text-anchor="start" x="220.78" y="-336.8" font-family="Arial" font-size="14.00" fill="#666666">[BASE TABLE]</text>
<polygon fill="none" stroke="black" points="46.2,-292.6 46.2,-323.4 321.16,-323.4 321.16,-292.6 46.2,-292.6"/>
<text text-anchor="start" x="53.2" y="-304.8" font-family="Arial" font-size="14.00">fid </text>
<text text-anchor="start" x="71.88" y="-304.8" font-family="Arial" font-size="14.00" fill="#666666">[integer]</text>
<polygon fill="none" stroke="black" points="46.2,-261.8 46.2,-292.6 321.16,-292.6 321.16,-261.8 46.2,-261.8"/>
<text text-anchor="start" x="53.2" y="-274" font-family="Arial" font-size="14.00">sciname </text>
<text text-anchor="start" x="109.22" y="-274" font-family="Arial" font-size="14.00" fill="#666666">[varchar]</text>
<polygon fill="none" stroke="black" points="46.2,-231 46.2,-261.8 321.16,-261.8 321.16,-231 46.2,-231"/>
<text text-anchor="start" x="53.2" y="-243.2" font-family="Arial" font-size="14.00">order </text>
<text text-anchor="start" x="89.77" y="-243.2" font-family="Arial" font-size="14.00" fill="#666666">[varchar]</text>
<polygon fill="none" stroke="black" points="46.2,-200.2 46.2,-231 321.16,-231 321.16,-200.2 46.2,-200.2"/>
<text text-anchor="start" x="53.2" y="-212.4" font-family="Arial" font-size="14.00">family </text>
<text text-anchor="start" x="93.65" y="-212.4" font-family="Arial" font-size="14.00" fill="#666666">[varchar]</text>
<polygon fill="none" stroke="black" points="46.2,-169.4 46.2,-200.2 321.16,-200.2 321.16,-169.4 46.2,-169.4"/>
<text text-anchor="start" x="53.2" y="-181.6" font-family="Arial" font-size="14.00">author </text>
<text text-anchor="start" x="96.79" y="-181.6" font-family="Arial" font-size="14.00" fill="#666666">[varchar]</text>
<polygon fill="none" stroke="black" points="46.2,-138.6 46.2,-169.4 321.16,-169.4 321.16,-138.6 46.2,-138.6"/>
<text text-anchor="start" x="53.2" y="-150.8" font-family="Arial" font-size="14.00">year </text>
<text text-anchor="start" x="84.32" y="-150.8" font-family="Arial" font-size="14.00" fill="#666666">[double precision]</text>
<polygon fill="none" stroke="black" points="46.2,-107.8 46.2,-138.6 321.16,-138.6 321.16,-107.8 46.2,-107.8"/>
<text text-anchor="start" x="53.2" y="-120" font-family="Arial" font-size="14.00">citation </text>
<text text-anchor="start" x="101.45" y="-120" font-family="Arial" font-size="14.00" fill="#666666">[varchar]</text>
<polygon fill="none" stroke="black" points="46.2,-77 46.2,-107.8 321.16,-107.8 321.16,-77 46.2,-77"/>
<text text-anchor="start" x="53.2" y="-89.2" font-family="Arial" font-size="14.00">rec_source </text>
<text text-anchor="start" x="126.34" y="-89.2" font-family="Arial" font-size="14.00" fill="#666666">[varchar]</text>
<polygon fill="none" stroke="black" points="46.2,-46.2 46.2,-77 321.16,-77 321.16,-46.2 46.2,-46.2"/>
<text text-anchor="start" x="53.2" y="-58.4" font-family="Arial" font-size="14.00">geom </text>
<text text-anchor="start" x="92.11" y="-58.4" font-family="Arial" font-size="14.00" fill="#666666">[geometry(MultiPolygon,4326)]</text>
<polygon fill="none" stroke="black" stroke-width="3" points="44.7,-44.7 44.7,-360.5 322.66,-360.5 322.66,-44.7 44.7,-44.7"/>
</g>
</g>
</svg>
