<?xml version="1.0" encoding="UTF-8" standalone="no"?>
<!DOCTYPE svg PUBLIC "-//W3C//DTD SVG 1.1//EN"
 "http://www.w3.org/Graphics/SVG/1.1/DTD/svg11.dtd">
<!-- Generated by graphviz version 12.1.2 (20240928.0832)
 -->
<!-- Title: ap.gadm Pages: 1 -->
<svg width="1211pt" height="2204pt"
 viewBox="0.00 0.00 1211.32 2203.60" xmlns="http://www.w3.org/2000/svg" xmlns:xlink="http://www.w3.org/1999/xlink">
<g id="graph0" class="graph" transform="scale(1 1) rotate(0) translate(4 2199.6)">
<title>ap.gadm</title>
<polygon fill="white" stroke="none" points="-4,4 -4,-2199.6 1207.32,-2199.6 1207.32,4 -4,4"/>
<!-- ap.gadm -->
<g id="node1" class="node">
<title>ap.gadm</title>
<polygon fill="#efefef" stroke="none" points="46.2,-1771 46.2,-1806.6 292.88,-1806.6 292.88,-1771 46.2,-1771"/>
<polygon fill="none" stroke="black" points="46.2,-1771 46.2,-1806.6 292.88,-1806.6 292.88,-1771 46.2,-1771"/>
<text text-anchor="start" x="76.56" y="-1784.4" font-family="Arial Bold" font-size="18.00">ap.gadm</text>
<text text-anchor="start" x="138.04" y="-1784.4" font-family="Arial" font-size="14.00">    </text>
<text text-anchor="start" x="169.15" y="-1784.4" font-family="Arial" font-size="14.00" fill="#666666">[BASE TABLE]</text>
<polygon fill="none" stroke="black" points="46.2,-1740.2 46.2,-1771 292.88,-1771 292.88,-1740.2 46.2,-1740.2"/>
<text text-anchor="start" x="53.2" y="-1752.4" font-family="Arial" font-size="14.00">objectid </text>
<text text-anchor="start" x="105.34" y="-1752.4" font-family="Arial" font-size="14.00" fill="#666666">[integer]</text>
<polygon fill="none" stroke="black" points="46.2,-1709.4 46.2,-1740.2 292.88,-1740.2 292.88,-1709.4 46.2,-1709.4"/>
<text text-anchor="start" x="53.2" y="-1721.6" font-family="Arial" font-size="14.00">uid </text>
<text text-anchor="start" x="75.77" y="-1721.6" font-family="Arial" font-size="14.00" fill="#666666">[integer]</text>
<polygon fill="none" stroke="black" points="46.2,-1678.6 46.2,-1709.4 292.88,-1709.4 292.88,-1678.6 46.2,-1678.6"/>
<text text-anchor="start" x="53.2" y="-1690.8" font-family="Arial" font-size="14.00">gid_0 </text>
<text text-anchor="start" x="91.34" y="-1690.8" font-family="Arial" font-size="14.00" fill="#666666">[varchar(3)]</text>
<polygon fill="none" stroke="black" points="46.2,-1647.8 46.2,-1678.6 292.88,-1678.6 292.88,-1647.8 46.2,-1647.8"/>
<text text-anchor="start" x="53.2" y="-1660" font-family="Arial" font-size="14.00">name_0 </text>
<text text-anchor="start" x="107.68" y="-1660" font-family="Arial" font-size="14.00" fill="#666666">[varchar(44)]</text>
<polygon fill="none" stroke="black" points="46.2,-1617 46.2,-1647.8 292.88,-1647.8 292.88,-1617 46.2,-1617"/>
<text text-anchor="start" x="53.2" y="-1629.2" font-family="Arial" font-size="14.00">varname_0 </text>
<text text-anchor="start" x="127.13" y="-1629.2" font-family="Arial" font-size="14.00" fill="#666666">[varchar(29)]</text>
<polygon fill="none" stroke="black" points="46.2,-1586.2 46.2,-1617 292.88,-1617 292.88,-1586.2 46.2,-1586.2"/>
<text text-anchor="start" x="53.2" y="-1598.4" font-family="Arial" font-size="14.00">gid_1 </text>
<text text-anchor="start" x="91.34" y="-1598.4" font-family="Arial" font-size="14.00" fill="#666666">[varchar(8)]</text>
<polygon fill="none" stroke="black" points="46.2,-1555.4 46.2,-1586.2 292.88,-1586.2 292.88,-1555.4 46.2,-1555.4"/>
<text text-anchor="start" x="53.2" y="-1567.6" font-family="Arial" font-size="14.00">name_1 </text>
<text text-anchor="start" x="107.68" y="-1567.6" font-family="Arial" font-size="14.00" fill="#666666">[varchar(50)]</text>
<polygon fill="none" stroke="black" points="46.2,-1524.6 46.2,-1555.4 292.88,-1555.4 292.88,-1524.6 46.2,-1524.6"/>
<text text-anchor="start" x="53.2" y="-1536.8" font-family="Arial" font-size="14.00">varname_1 </text>
<text text-anchor="start" x="127.13" y="-1536.8" font-family="Arial" font-size="14.00" fill="#666666">[varchar(129)]</text>
<polygon fill="none" stroke="black" points="46.2,-1493.8 46.2,-1524.6 292.88,-1524.6 292.88,-1493.8 46.2,-1493.8"/>
<text text-anchor="start" x="53.2" y="-1506" font-family="Arial" font-size="14.00">nl_name_1 </text>
<text text-anchor="start" x="126.37" y="-1506" font-family="Arial" font-size="14.00" fill="#666666">[varchar(87)]</text>
<polygon fill="none" stroke="black" points="46.2,-1463 46.2,-1493.8 292.88,-1493.8 292.88,-1463 46.2,-1463"/>
<text text-anchor="start" x="53.2" y="-1475.2" font-family="Arial" font-size="14.00">iso_1 </text>
<text text-anchor="start" x="90.56" y="-1475.2" font-family="Arial" font-size="14.00" fill="#666666">[varchar(8)]</text>
<polygon fill="none" stroke="black" points="46.2,-1432.2 46.2,-1463 292.88,-1463 292.88,-1432.2 46.2,-1432.2"/>
<text text-anchor="start" x="53.2" y="-1444.4" font-family="Arial" font-size="14.00">hasc_1 </text>
<text text-anchor="start" x="102.23" y="-1444.4" font-family="Arial" font-size="14.00" fill="#666666">[varchar(10)]</text>
<polygon fill="none" stroke="black" points="46.2,-1401.4 46.2,-1432.2 292.88,-1432.2 292.88,-1401.4 46.2,-1401.4"/>
<text text-anchor="start" x="53.2" y="-1413.6" font-family="Arial" font-size="14.00">cc_1 </text>
<text text-anchor="start" x="86.66" y="-1413.6" font-family="Arial" font-size="14.00" fill="#666666">[varchar(9)]</text>
<polygon fill="none" stroke="black" points="46.2,-1370.6 46.2,-1401.4 292.88,-1401.4 292.88,-1370.6 46.2,-1370.6"/>
<text text-anchor="start" x="53.2" y="-1382.8" font-family="Arial" font-size="14.00">type_1 </text>
<text text-anchor="start" x="99.12" y="-1382.8" font-family="Arial" font-size="14.00" fill="#666666">[varchar(37)]</text>
<polygon fill="none" stroke="black" points="46.2,-1339.8 46.2,-1370.6 292.88,-1370.6 292.88,-1339.8 46.2,-1339.8"/>
<text text-anchor="start" x="53.2" y="-1352" font-family="Arial" font-size="14.00">engtype_1 </text>
<text text-anchor="start" x="122.48" y="-1352" font-family="Arial" font-size="14.00" fill="#666666">[varchar(37)]</text>
<polygon fill="none" stroke="black" points="46.2,-1309 46.2,-1339.8 292.88,-1339.8 292.88,-1309 46.2,-1309"/>
<text text-anchor="start" x="53.2" y="-1321.2" font-family="Arial" font-size="14.00">validfr_1 </text>
<text text-anchor="start" x="110.01" y="-1321.2" font-family="Arial" font-size="14.00" fill="#666666">[varchar(15)]</text>
<polygon fill="none" stroke="black" points="46.2,-1278.2 46.2,-1309 292.88,-1309 292.88,-1278.2 46.2,-1278.2"/>
<text text-anchor="start" x="53.2" y="-1290.4" font-family="Arial" font-size="14.00">gid_2 </text>
<text text-anchor="start" x="91.34" y="-1290.4" font-family="Arial" font-size="14.00" fill="#666666">[varchar(12)]</text>
<polygon fill="none" stroke="black" points="46.2,-1247.4 46.2,-1278.2 292.88,-1278.2 292.88,-1247.4 46.2,-1247.4"/>
<text text-anchor="start" x="53.2" y="-1259.6" font-family="Arial" font-size="14.00">name_2 </text>
<text text-anchor="start" x="107.68" y="-1259.6" font-family="Arial" font-size="14.00" fill="#666666">[varchar(51)]</text>
<polygon fill="none" stroke="black" points="46.2,-1216.6 46.2,-1247.4 292.88,-1247.4 292.88,-1216.6 46.2,-1216.6"/>
<text text-anchor="start" x="53.2" y="-1228.8" font-family="Arial" font-size="14.00">varname_2 </text>
<text text-anchor="start" x="127.13" y="-1228.8" font-family="Arial" font-size="14.00" fill="#666666">[varchar(116)]</text>
<polygon fill="none" stroke="black" points="46.2,-1185.8 46.2,-1216.6 292.88,-1216.6 292.88,-1185.8 46.2,-1185.8"/>
<text text-anchor="start" x="53.2" y="-1198" font-family="Arial" font-size="14.00">nl_name_2 </text>
<text text-anchor="start" x="126.37" y="-1198" font-family="Arial" font-size="14.00" fill="#666666">[varchar(75)]</text>
<polygon fill="none" stroke="black" points="46.2,-1155 46.2,-1185.8 292.88,-1185.8 292.88,-1155 46.2,-1155"/>
<text text-anchor="start" x="53.2" y="-1167.2" font-family="Arial" font-size="14.00">hasc_2 </text>
<text text-anchor="start" x="102.23" y="-1167.2" font-family="Arial" font-size="14.00" fill="#666666">[varchar(15)]</text>
<polygon fill="none" stroke="black" points="46.2,-1124.2 46.2,-1155 292.88,-1155 292.88,-1124.2 46.2,-1124.2"/>
<text text-anchor="start" x="53.2" y="-1136.4" font-family="Arial" font-size="14.00">cc_2 </text>
<text text-anchor="start" x="86.66" y="-1136.4" font-family="Arial" font-size="14.00" fill="#666666">[varchar(12)]</text>
<polygon fill="none" stroke="black" points="46.2,-1093.4 46.2,-1124.2 292.88,-1124.2 292.88,-1093.4 46.2,-1093.4"/>
<text text-anchor="start" x="53.2" y="-1105.6" font-family="Arial" font-size="14.00">type_2 </text>
<text text-anchor="start" x="99.12" y="-1105.6" font-family="Arial" font-size="14.00" fill="#666666">[varchar(43)]</text>
<polygon fill="none" stroke="black" points="46.2,-1062.6 46.2,-1093.4 292.88,-1093.4 292.88,-1062.6 46.2,-1062.6"/>
<text text-anchor="start" x="53.2" y="-1074.8" font-family="Arial" font-size="14.00">engtype_2 </text>
<text text-anchor="start" x="122.48" y="-1074.8" font-family="Arial" font-size="14.00" fill="#666666">[varchar(34)]</text>
<polygon fill="none" stroke="black" points="46.2,-1031.8 46.2,-1062.6 292.88,-1062.6 292.88,-1031.8 46.2,-1031.8"/>
<text text-anchor="start" x="53.2" y="-1044" font-family="Arial" font-size="14.00">validfr_2 </text>
<text text-anchor="start" x="110.01" y="-1044" font-family="Arial" font-size="14.00" fill="#666666">[varchar(15)]</text>
<polygon fill="none" stroke="black" points="46.2,-1001 46.2,-1031.8 292.88,-1031.8 292.88,-1001 46.2,-1001"/>
<text text-anchor="start" x="53.2" y="-1013.2" font-family="Arial" font-size="14.00">gid_3 </text>
<text text-anchor="start" x="91.34" y="-1013.2" font-family="Arial" font-size="14.00" fill="#666666">[varchar(15)]</text>
<polygon fill="none" stroke="black" points="46.2,-970.2 46.2,-1001 292.88,-1001 292.88,-970.2 46.2,-970.2"/>
<text text-anchor="start" x="53.2" y="-982.4" font-family="Arial" font-size="14.00">name_3 </text>
<text text-anchor="start" x="107.68" y="-982.4" font-family="Arial" font-size="14.00" fill="#666666">[varchar(64)]</text>
<polygon fill="none" stroke="black" points="46.2,-939.4 46.2,-970.2 292.88,-970.2 292.88,-939.4 46.2,-939.4"/>
<text text-anchor="start" x="53.2" y="-951.6" font-family="Arial" font-size="14.00">varname_3 </text>
<text text-anchor="start" x="127.13" y="-951.6" font-family="Arial" font-size="14.00" fill="#666666">[varchar(54)]</text>
<polygon fill="none" stroke="black" points="46.2,-908.6 46.2,-939.4 292.88,-939.4 292.88,-908.6 46.2,-908.6"/>
<text text-anchor="start" x="53.2" y="-920.8" font-family="Arial" font-size="14.00">nl_name_3 </text>
<text text-anchor="start" x="126.37" y="-920.8" font-family="Arial" font-size="14.00" fill="#666666">[varchar(56)]</text>
<polygon fill="none" stroke="black" points="46.2,-877.8 46.2,-908.6 292.88,-908.6 292.88,-877.8 46.2,-877.8"/>
<text text-anchor="start" x="53.2" y="-890" font-family="Arial" font-size="14.00">hasc_3 </text>
<text text-anchor="start" x="102.23" y="-890" font-family="Arial" font-size="14.00" fill="#666666">[varchar(27)]</text>
<polygon fill="none" stroke="black" points="46.2,-847 46.2,-877.8 292.88,-877.8 292.88,-847 46.2,-847"/>
<text text-anchor="start" x="53.2" y="-859.2" font-family="Arial" font-size="14.00">cc_3 </text>
<text text-anchor="start" x="86.66" y="-859.2" font-family="Arial" font-size="14.00" fill="#666666">[varchar(9)]</text>
<polygon fill="none" stroke="black" points="46.2,-816.2 46.2,-847 292.88,-847 292.88,-816.2 46.2,-816.2"/>
<text text-anchor="start" x="53.2" y="-828.4" font-family="Arial" font-size="14.00">type_3 </text>
<text text-anchor="start" x="99.12" y="-828.4" font-family="Arial" font-size="14.00" fill="#666666">[varchar(34)]</text>
<polygon fill="none" stroke="black" points="46.2,-785.4 46.2,-816.2 292.88,-816.2 292.88,-785.4 46.2,-785.4"/>
<text text-anchor="start" x="53.2" y="-797.6" font-family="Arial" font-size="14.00">engtype_3 </text>
<text text-anchor="start" x="122.48" y="-797.6" font-family="Arial" font-size="14.00" fill="#666666">[varchar(34)]</text>
<polygon fill="none" stroke="black" points="46.2,-754.6 46.2,-785.4 292.88,-785.4 292.88,-754.6 46.2,-754.6"/>
<text text-anchor="start" x="53.2" y="-766.8" font-family="Arial" font-size="14.00">validfr_3 </text>
<text text-anchor="start" x="110.01" y="-766.8" font-family="Arial" font-size="14.00" fill="#666666">[varchar(10)]</text>
<polygon fill="none" stroke="black" points="46.2,-723.8 46.2,-754.6 292.88,-754.6 292.88,-723.8 46.2,-723.8"/>
<text text-anchor="start" x="53.2" y="-736" font-family="Arial" font-size="14.00">gid_4 </text>
<text text-anchor="start" x="91.34" y="-736" font-family="Arial" font-size="14.00" fill="#666666">[varchar(18)]</text>
<polygon fill="none" stroke="black" points="46.2,-693 46.2,-723.8 292.88,-723.8 292.88,-693 46.2,-693"/>
<text text-anchor="start" x="53.2" y="-705.2" font-family="Arial" font-size="14.00">name_4 </text>
<text text-anchor="start" x="107.68" y="-705.2" font-family="Arial" font-size="14.00" fill="#666666">[varchar(98)]</text>
<polygon fill="none" stroke="black" points="46.2,-662.2 46.2,-693 292.88,-693 292.88,-662.2 46.2,-662.2"/>
<text text-anchor="start" x="53.2" y="-674.4" font-family="Arial" font-size="14.00">varname_4 </text>
<text text-anchor="start" x="127.13" y="-674.4" font-family="Arial" font-size="14.00" fill="#666666">[varchar(54)]</text>
<polygon fill="none" stroke="black" points="46.2,-631.4 46.2,-662.2 292.88,-662.2 292.88,-631.4 46.2,-631.4"/>
<text text-anchor="start" x="53.2" y="-643.6" font-family="Arial" font-size="14.00">cc_4 </text>
<text text-anchor="start" x="86.66" y="-643.6" font-family="Arial" font-size="14.00" fill="#666666">[varchar(12)]</text>
<polygon fill="none" stroke="black" points="46.2,-600.6 46.2,-631.4 292.88,-631.4 292.88,-600.6 46.2,-600.6"/>
<text text-anchor="start" x="53.2" y="-612.8" font-family="Arial" font-size="14.00">type_4 </text>
<text text-anchor="start" x="99.12" y="-612.8" font-family="Arial" font-size="14.00" fill="#666666">[varchar(29)]</text>
<polygon fill="none" stroke="black" points="46.2,-569.8 46.2,-600.6 292.88,-600.6 292.88,-569.8 46.2,-569.8"/>
<text text-anchor="start" x="53.2" y="-582" font-family="Arial" font-size="14.00">engtype_4 </text>
<text text-anchor="start" x="122.48" y="-582" font-family="Arial" font-size="14.00" fill="#666666">[varchar(29)]</text>
<polygon fill="none" stroke="black" points="46.2,-539 46.2,-569.8 292.88,-569.8 292.88,-539 46.2,-539"/>
<text text-anchor="start" x="53.2" y="-551.2" font-family="Arial" font-size="14.00">validfr_4 </text>
<text text-anchor="start" x="110.01" y="-551.2" font-family="Arial" font-size="14.00" fill="#666666">[varchar(7)]</text>
<polygon fill="none" stroke="black" points="46.2,-508.2 46.2,-539 292.88,-539 292.88,-508.2 46.2,-508.2"/>
<text text-anchor="start" x="53.2" y="-520.4" font-family="Arial" font-size="14.00">gid_5 </text>
<text text-anchor="start" x="91.34" y="-520.4" font-family="Arial" font-size="14.00" fill="#666666">[varchar(19)]</text>
<polygon fill="none" stroke="black" points="46.2,-477.4 46.2,-508.2 292.88,-508.2 292.88,-477.4 46.2,-477.4"/>
<text text-anchor="start" x="53.2" y="-489.6" font-family="Arial" font-size="14.00">name_5 </text>
<text text-anchor="start" x="107.68" y="-489.6" font-family="Arial" font-size="14.00" fill="#666666">[varchar(45)]</text>
<polygon fill="none" stroke="black" points="46.2,-446.6 46.2,-477.4 292.88,-477.4 292.88,-446.6 46.2,-446.6"/>
<text text-anchor="start" x="53.2" y="-458.8" font-family="Arial" font-size="14.00">cc_5 </text>
<text text-anchor="start" x="86.66" y="-458.8" font-family="Arial" font-size="14.00" fill="#666666">[varchar(15)]</text>
<polygon fill="none" stroke="black" points="46.2,-415.8 46.2,-446.6 292.88,-446.6 292.88,-415.8 46.2,-415.8"/>
<text text-anchor="start" x="53.2" y="-428" font-family="Arial" font-size="14.00">type_5 </text>
<text text-anchor="start" x="99.12" y="-428" font-family="Arial" font-size="14.00" fill="#666666">[varchar(22)]</text>
<polygon fill="none" stroke="black" points="46.2,-385 46.2,-415.8 292.88,-415.8 292.88,-385 46.2,-385"/>
<text text-anchor="start" x="53.2" y="-397.2" font-family="Arial" font-size="14.00">engtype_5 </text>
<text text-anchor="start" x="122.48" y="-397.2" font-family="Arial" font-size="14.00" fill="#666666">[varchar(255)]</text>
<polygon fill="none" stroke="black" points="46.2,-354.2 46.2,-385 292.88,-385 292.88,-354.2 46.2,-354.2"/>
<text text-anchor="start" x="53.2" y="-366.4" font-family="Arial" font-size="14.00">governedby </text>
<text text-anchor="start" x="130.25" y="-366.4" font-family="Arial" font-size="14.00" fill="#666666">[varchar(17)]</text>
<polygon fill="none" stroke="black" points="46.2,-323.4 46.2,-354.2 292.88,-354.2 292.88,-323.4 46.2,-323.4"/>
<text text-anchor="start" x="53.2" y="-335.6" font-family="Arial" font-size="14.00">sovereign </text>
<text text-anchor="start" x="117.79" y="-335.6" font-family="Arial" font-size="14.00" fill="#666666">[varchar(32)]</text>
<polygon fill="none" stroke="black" points="46.2,-292.6 46.2,-323.4 292.88,-323.4 292.88,-292.6 46.2,-292.6"/>
<text text-anchor="start" x="53.2" y="-304.8" font-family="Arial" font-size="14.00">disputedby </text>
<text text-anchor="start" x="124.81" y="-304.8" font-family="Arial" font-size="14.00" fill="#666666">[varchar(57)]</text>
<polygon fill="none" stroke="black" points="46.2,-261.8 46.2,-292.6 292.88,-292.6 292.88,-261.8 46.2,-261.8"/>
<text text-anchor="start" x="53.2" y="-274" font-family="Arial" font-size="14.00">region </text>
<text text-anchor="start" x="96.01" y="-274" font-family="Arial" font-size="14.00" fill="#666666">[varchar(36)]</text>
<polygon fill="none" stroke="black" points="46.2,-231 46.2,-261.8 292.88,-261.8 292.88,-231 46.2,-231"/>
<text text-anchor="start" x="53.2" y="-243.2" font-family="Arial" font-size="14.00">varregion </text>
<text text-anchor="start" x="115.45" y="-243.2" font-family="Arial" font-size="14.00" fill="#666666">[varchar(56)]</text>
<polygon fill="none" stroke="black" points="46.2,-200.2 46.2,-231 292.88,-231 292.88,-200.2 46.2,-200.2"/>
<text text-anchor="start" x="53.2" y="-212.4" font-family="Arial" font-size="14.00">country </text>
<text text-anchor="start" x="103" y="-212.4" font-family="Arial" font-size="14.00" fill="#666666">[varchar(60)]</text>
<polygon fill="none" stroke="black" points="46.2,-169.4 46.2,-200.2 292.88,-200.2 292.88,-169.4 46.2,-169.4"/>
<text text-anchor="start" x="53.2" y="-181.6" font-family="Arial" font-size="14.00">continent </text>
<text text-anchor="start" x="113.91" y="-181.6" font-family="Arial" font-size="14.00" fill="#666666">[varchar(15)]</text>
<polygon fill="none" stroke="black" points="46.2,-138.6 46.2,-169.4 292.88,-169.4 292.88,-138.6 46.2,-138.6"/>
<text text-anchor="start" x="53.2" y="-150.8" font-family="Arial" font-size="14.00">subcont </text>
<text text-anchor="start" x="106.12" y="-150.8" font-family="Arial" font-size="14.00" fill="#666666">[varchar(25)]</text>
<polygon fill="none" stroke="black" points="46.2,-107.8 46.2,-138.6 292.88,-138.6 292.88,-107.8 46.2,-107.8"/>
<text text-anchor="start" x="53.2" y="-120" font-family="Arial" font-size="14.00">shape_length </text>
<text text-anchor="start" x="141.16" y="-120" font-family="Arial" font-size="14.00" fill="#666666">[double precision]</text>
<polygon fill="none" stroke="black" points="46.2,-77 46.2,-107.8 292.88,-107.8 292.88,-77 46.2,-77"/>
<text text-anchor="start" x="53.2" y="-89.2" font-family="Arial" font-size="14.00">shape_area </text>
<text text-anchor="start" x="131.04" y="-89.2" font-family="Arial" font-size="14.00" fill="#666666">[double precision]</text>
<polygon fill="none" stroke="black" points="46.2,-46.2 46.2,-77 292.88,-77 292.88,-46.2 46.2,-46.2"/>
<text text-anchor="start" x="53.2" y="-58.4" font-family="Arial" font-size="14.00">shape </text>
<text text-anchor="start" x="95.23" y="-58.4" font-family="Arial" font-size="14.00" fill="#666666">[geometry(MultiPolygon,4326)]</text>
<polygon fill="none" stroke="black" stroke-width="3" points="44.7,-44.7 44.7,-1808.1 294.38,-1808.1 294.38,-44.7 44.7,-44.7"/>
</g>
<!-- ndb.sitegeopolitical -->
<g id="node2" class="node">
<title>ndb.sitegeopolitical</title>
<polygon fill="#efefef" stroke="none" points="400.64,-2116.8 400.64,-2152.4 720.44,-2152.4 720.44,-2116.8 400.64,-2116.8"/>
<polygon fill="none" stroke="black" points="400.64,-2116.8 400.64,-2152.4 720.44,-2152.4 720.44,-2116.8 400.64,-2116.8"/>
<text text-anchor="start" x="427.56" y="-2130.2" font-family="Arial Bold" font-size="18.00">ndb.sitegeopolitical</text>
<text text-anchor="start" x="569.03" y="-2130.2" font-family="Arial" font-size="14.00">    </text>
<text text-anchor="start" x="600.15" y="-2130.2" font-family="Arial" font-size="14.00" fill="#666666">[BASE TABLE]</text>
<polygon fill="none" stroke="black" points="400.64,-2086 400.64,-2116.8 720.44,-2116.8 720.44,-2086 400.64,-2086"/>
<text text-anchor="start" x="407.64" y="-2098.2" font-family="Arial" font-size="14.00">sitegeopoliticalid </text>
<text text-anchor="start" x="514.26" y="-2098.2" font-family="Arial" font-size="14.00" fill="#666666">[integer]</text>
<polygon fill="none" stroke="black" points="400.64,-2055.2 400.64,-2086 720.44,-2086 720.44,-2055.2 400.64,-2055.2"/>
<text text-anchor="start" x="407.64" y="-2067.4" font-family="Arial" font-size="14.00">siteid </text>
<text text-anchor="start" x="444.21" y="-2067.4" font-family="Arial" font-size="14.00" fill="#666666">[integer]</text>
<polygon fill="none" stroke="black" points="400.64,-2024.4 400.64,-2055.2 720.44,-2055.2 720.44,-2024.4 400.64,-2024.4"/>
<text text-anchor="start" x="407.64" y="-2036.6" font-family="Arial" font-size="14.00">geopoliticalid </text>
<text text-anchor="start" x="492.48" y="-2036.6" font-family="Arial" font-size="14.00" fill="#666666">[integer]</text>
<polygon fill="none" stroke="black" points="400.64,-1993.6 400.64,-2024.4 720.44,-2024.4 720.44,-1993.6 400.64,-1993.6"/>
<text text-anchor="start" x="407.64" y="-2005.8" font-family="Arial" font-size="14.00">recdatecreated </text>
<text text-anchor="start" x="504.92" y="-2005.8" font-family="Arial" font-size="14.00" fill="#666666">[timestamp(0) without time zone]</text>
<polygon fill="none" stroke="black" points="400.64,-1962.8 400.64,-1993.6 720.44,-1993.6 720.44,-1962.8 400.64,-1962.8"/>
<text text-anchor="start" x="407.64" y="-1975" font-family="Arial" font-size="14.00">recdatemodified </text>
<text text-anchor="start" x="511.14" y="-1975" font-family="Arial" font-size="14.00" fill="#666666">[timestamp(0) without time zone]</text>
<polygon fill="none" stroke="black" points="400.64,-1932 400.64,-1962.8 720.44,-1962.8 720.44,-1932 400.64,-1932"/>
<text text-anchor="start" x="407.64" y="-1944.2" font-family="Arial" font-size="14.00">objectid </text>
<text text-anchor="start" x="459.79" y="-1944.2" font-family="Arial" font-size="14.00" fill="#666666">[integer]</text>
</g>
<!-- ndb.sitegeopolitical&#45;&gt;ap.gadm -->
<g id="edge1" class="edge">
<title>ndb.sitegeopolitical:objectid&#45;&gt;ap.gadm:objectid</title>
<path fill="none" stroke="black" d="M389.55,-1946.63C308.64,-1933.43 387.61,-1755.6 293.88,-1755.6"/>
<polygon fill="black" stroke="black" points="389.34,-1946.61 398.96,-1951.86 394.66,-1947.02 398.97,-1947.35 398.97,-1947.35 398.97,-1947.35 394.66,-1947.02 399.65,-1942.89 389.34,-1946.61"/>
<text text-anchor="start" x="126.45" y="-1957.4" font-family="Arial" font-size="10.00">FOREIGN KEY (objectid) REFERENCES ap.gadm(objectid)</text>
</g>
<!-- ndb.sites -->
<g id="node3" class="node">
<title>ndb.sites</title>
<polygon fill="#efefef" stroke="none" points="400.64,-1108.8 400.64,-1144.4 720.44,-1144.4 720.44,-1108.8 400.64,-1108.8"/>
<polygon fill="none" stroke="black" points="400.64,-1108.8 400.64,-1144.4 720.44,-1144.4 720.44,-1108.8 400.64,-1108.8"/>
<text text-anchor="start" x="466.55" y="-1122.2" font-family="Arial Bold" font-size="18.00">ndb.sites</text>
<text text-anchor="start" x="530.05" y="-1122.2" font-family="Arial" font-size="14.00">    </text>
<text text-anchor="start" x="561.16" y="-1122.2" font-family="Arial" font-size="14.00" fill="#666666">[BASE TABLE]</text>
<polygon fill="none" stroke="black" points="400.64,-1078 400.64,-1108.8 720.44,-1108.8 720.44,-1078 400.64,-1078"/>
<text text-anchor="start" x="407.64" y="-1090.2" font-family="Arial" font-size="14.00">siteid </text>
<text text-anchor="start" x="444.21" y="-1090.2" font-family="Arial" font-size="14.00" fill="#666666">[integer]</text>
<polygon fill="none" stroke="black" points="400.64,-1047.2 400.64,-1078 720.44,-1078 720.44,-1047.2 400.64,-1047.2"/>
<text text-anchor="start" x="407.64" y="-1059.4" font-family="Arial" font-size="14.00">sitename </text>
<text text-anchor="start" x="468.34" y="-1059.4" font-family="Arial" font-size="14.00" fill="#666666">[varchar(128)]</text>
<polygon fill="none" stroke="black" points="400.64,-1016.4 400.64,-1047.2 720.44,-1047.2 720.44,-1016.4 400.64,-1016.4"/>
<text text-anchor="start" x="407.64" y="-1028.6" font-family="Arial" font-size="14.00">longitudeeast </text>
<text text-anchor="start" x="494.82" y="-1028.6" font-family="Arial" font-size="14.00" fill="#666666">[double precision]</text>
<polygon fill="none" stroke="black" points="400.64,-985.6 400.64,-1016.4 720.44,-1016.4 720.44,-985.6 400.64,-985.6"/>
<text text-anchor="start" x="407.64" y="-997.8" font-family="Arial" font-size="14.00">latitudenorth </text>
<text text-anchor="start" x="488.59" y="-997.8" font-family="Arial" font-size="14.00" fill="#666666">[double precision]</text>
<polygon fill="none" stroke="black" points="400.64,-954.8 400.64,-985.6 720.44,-985.6 720.44,-954.8 400.64,-954.8"/>
<text text-anchor="start" x="407.64" y="-967" font-family="Arial" font-size="14.00">longitudewest </text>
<text text-anchor="start" x="497.14" y="-967" font-family="Arial" font-size="14.00" fill="#666666">[double precision]</text>
<polygon fill="none" stroke="black" points="400.64,-924 400.64,-954.8 720.44,-954.8 720.44,-924 400.64,-924"/>
<text text-anchor="start" x="407.64" y="-936.2" font-family="Arial" font-size="14.00">latitudesouth </text>
<text text-anchor="start" x="490.92" y="-936.2" font-family="Arial" font-size="14.00" fill="#666666">[double precision]</text>
<polygon fill="none" stroke="black" points="400.64,-893.2 400.64,-924 720.44,-924 720.44,-893.2 400.64,-893.2"/>
<text text-anchor="start" x="407.64" y="-905.4" font-family="Arial" font-size="14.00">altitude </text>
<text text-anchor="start" x="456.68" y="-905.4" font-family="Arial" font-size="14.00" fill="#666666">[double precision]</text>
<polygon fill="none" stroke="black" points="400.64,-862.4 400.64,-893.2 720.44,-893.2 720.44,-862.4 400.64,-862.4"/>
<text text-anchor="start" x="407.64" y="-874.6" font-family="Arial" font-size="14.00">area </text>
<text text-anchor="start" x="439.55" y="-874.6" font-family="Arial" font-size="14.00" fill="#666666">[double precision]</text>
<polygon fill="none" stroke="black" points="400.64,-831.6 400.64,-862.4 720.44,-862.4 720.44,-831.6 400.64,-831.6"/>
<text text-anchor="start" x="407.64" y="-843.8" font-family="Arial" font-size="14.00">sitedescription </text>
<text text-anchor="start" x="501.02" y="-843.8" font-family="Arial" font-size="14.00" fill="#666666">[text]</text>
<polygon fill="none" stroke="black" points="400.64,-800.8 400.64,-831.6 720.44,-831.6 720.44,-800.8 400.64,-800.8"/>
<text text-anchor="start" x="407.64" y="-813" font-family="Arial" font-size="14.00">notes </text>
<text text-anchor="start" x="445.78" y="-813" font-family="Arial" font-size="14.00" fill="#666666">[text]</text>
<polygon fill="none" stroke="black" points="400.64,-770 400.64,-800.8 720.44,-800.8 720.44,-770 400.64,-770"/>
<text text-anchor="start" x="407.64" y="-782.2" font-family="Arial" font-size="14.00">recdatecreated </text>
<text text-anchor="start" x="504.92" y="-782.2" font-family="Arial" font-size="14.00" fill="#666666">[timestamp(0) without time zone]</text>
<polygon fill="none" stroke="black" points="400.64,-739.2 400.64,-770 720.44,-770 720.44,-739.2 400.64,-739.2"/>
<text text-anchor="start" x="407.64" y="-751.4" font-family="Arial" font-size="14.00">recdatemodified </text>
<text text-anchor="start" x="511.14" y="-751.4" font-family="Arial" font-size="14.00" fill="#666666">[timestamp(0) without time zone]</text>
<polygon fill="none" stroke="black" points="400.64,-708.4 400.64,-739.2 720.44,-739.2 720.44,-708.4 400.64,-708.4"/>
<text text-anchor="start" x="407.64" y="-720.6" font-family="Arial" font-size="14.00">geog </text>
<text text-anchor="start" x="442.68" y="-720.6" font-family="Arial" font-size="14.00" fill="#666666">[geography]</text>
</g>
<!-- ndb.sitegeopolitical&#45;&gt;ndb.sites -->
<g id="edge2" class="edge">
<title>ndb.sitegeopolitical:siteid&#45;&gt;ndb.sites:siteid</title>
<path fill="none" stroke="black" d="M729.15,-2063.57C775.59,-1975.69 773.03,-1093.4 721.44,-1093.4"/>
<polygon fill="black" stroke="black" points="729.08,-2063.64 718.65,-2067.05 725.13,-2067.23 721.93,-2070.15 721.93,-2070.15 721.93,-2070.15 725.13,-2067.23 724.72,-2073.7 729.08,-2063.64"/>
<text text-anchor="start" x="728.44" y="-2080.6" font-family="Arial" font-size="10.00">FOREIGN KEY (siteid) REFERENCES ndb.sites(siteid) ON UPDATE CASCADE ON DELETE CASCADE</text>
</g>
<!-- ndb.geopoliticalunits -->
<g id="node4" class="node">
<title>ndb.geopoliticalunits</title>
<polygon fill="#efefef" stroke="none" points="824.64,-1016.4 824.64,-1052 1144.44,-1052 1144.44,-1016.4 824.64,-1016.4"/>
<polygon fill="none" stroke="black" points="824.64,-1016.4 824.64,-1052 1144.44,-1052 1144.44,-1016.4 824.64,-1016.4"/>
<text text-anchor="start" x="846.56" y="-1029.8" font-family="Arial Bold" font-size="18.00">ndb.geopoliticalunits</text>
<text text-anchor="start" x="998.04" y="-1029.8" font-family="Arial" font-size="14.00">    </text>
<text text-anchor="start" x="1029.15" y="-1029.8" font-family="Arial" font-size="14.00" fill="#666666">[BASE TABLE]</text>
<polygon fill="none" stroke="black" points="824.64,-985.6 824.64,-1016.4 1144.44,-1016.4 1144.44,-985.6 824.64,-985.6"/>
<text text-anchor="start" x="831.64" y="-997.8" font-family="Arial" font-size="14.00">geopoliticalid </text>
<text text-anchor="start" x="916.48" y="-997.8" font-family="Arial" font-size="14.00" fill="#666666">[integer]</text>
<polygon fill="none" stroke="black" points="824.64,-954.8 824.64,-985.6 1144.44,-985.6 1144.44,-954.8 824.64,-954.8"/>
<text text-anchor="start" x="831.64" y="-967" font-family="Arial" font-size="14.00">geopoliticalname </text>
<text text-anchor="start" x="940.6" y="-967" font-family="Arial" font-size="14.00" fill="#666666">[varchar(255)]</text>
<polygon fill="none" stroke="black" points="824.64,-924 824.64,-954.8 1144.44,-954.8 1144.44,-924 824.64,-924"/>
<text text-anchor="start" x="831.64" y="-936.2" font-family="Arial" font-size="14.00">geopoliticalunit </text>
<text text-anchor="start" x="928.15" y="-936.2" font-family="Arial" font-size="14.00" fill="#666666">[varchar(255)]</text>
<polygon fill="none" stroke="black" points="824.64,-893.2 824.64,-924 1144.44,-924 1144.44,-893.2 824.64,-893.2"/>
<text text-anchor="start" x="831.64" y="-905.4" font-family="Arial" font-size="14.00">rank </text>
<text text-anchor="start" x="862.77" y="-905.4" font-family="Arial" font-size="14.00" fill="#666666">[integer]</text>
<polygon fill="none" stroke="black" points="824.64,-862.4 824.64,-893.2 1144.44,-893.2 1144.44,-862.4 824.64,-862.4"/>
<text text-anchor="start" x="831.64" y="-874.6" font-family="Arial" font-size="14.00">highergeopoliticalid </text>
<text text-anchor="start" x="955.39" y="-874.6" font-family="Arial" font-size="14.00" fill="#666666">[integer]</text>
<polygon fill="none" stroke="black" points="824.64,-831.6 824.64,-862.4 1144.44,-862.4 1144.44,-831.6 824.64,-831.6"/>
<text text-anchor="start" x="831.64" y="-843.8" font-family="Arial" font-size="14.00">recdatecreated </text>
<text text-anchor="start" x="928.92" y="-843.8" font-family="Arial" font-size="14.00" fill="#666666">[timestamp(0) without time zone]</text>
<polygon fill="none" stroke="black" points="824.64,-800.8 824.64,-831.6 1144.44,-831.6 1144.44,-800.8 824.64,-800.8"/>
<text text-anchor="start" x="831.64" y="-813" font-family="Arial" font-size="14.00">recdatemodified </text>
<text text-anchor="start" x="935.14" y="-813" font-family="Arial" font-size="14.00" fill="#666666">[timestamp(0) without time zone]</text>
</g>
<!-- ndb.sitegeopolitical&#45;&gt;ndb.geopoliticalunits -->
<g id="edge3" class="edge">
<title>ndb.sitegeopolitical:geopoliticalid&#45;&gt;ndb.geopoliticalunits:geopoliticalid</title>
<path fill="none" stroke="black" d="M731.81,-2039.24C803.5,-2031.07 759.13,-1934.16 772.54,-1852.8 780.25,-1806.02 776.23,-1001 823.64,-1001"/>
<polygon fill="black" stroke="black" points="731.76,-2039.25 721.53,-2035.29 726.43,-2039.53 722.11,-2039.76 722.11,-2039.76 722.11,-2039.76 726.43,-2039.53 722.01,-2044.28 731.76,-2039.25"/>
<text text-anchor="start" x="728.44" y="-2049.8" font-family="Arial" font-size="10.00">FOREIGN KEY (geopoliticalid) REFERENCES ndb.geopoliticalunits(geopoliticalid)</text>
</g>
</g>
</svg>
