<?xml version="1.0" encoding="UTF-8" standalone="no"?>
<!DOCTYPE svg PUBLIC "-//W3C//DTD SVG 1.1//EN"
 "http://www.w3.org/Graphics/SVG/1.1/DTD/svg11.dtd">
<!-- Generated by graphviz version 12.1.2 (20240928.0832)
 -->
<!-- Title: ap.geopolnames Pages: 1 -->
<svg width="411pt" height="198pt"
 viewBox="0.00 0.00 411.33 197.60" xmlns="http://www.w3.org/2000/svg" xmlns:xlink="http://www.w3.org/1999/xlink">
<g id="graph0" class="graph" transform="scale(1 1) rotate(0) translate(4 193.6)">
<title>ap.geopolnames</title>
<polygon fill="white" stroke="none" points="-4,4 -4,-193.6 407.33,-193.6 407.33,4 -4,4"/>
<!-- ap.geopolnames -->
<g id="node1" class="node">
<title>ap.geopolnames</title>
<polygon fill="#efefef" stroke="none" points="46.2,-107.8 46.2,-143.4 357.13,-143.4 357.13,-107.8 46.2,-107.8"/>
<polygon fill="none" stroke="black" points="46.2,-107.8 46.2,-143.4 357.13,-143.4 357.13,-107.8 46.2,-107.8"/>
<text text-anchor="start" x="53.2" y="-121.2" font-family="Arial Bold" font-size="18.00">ap.geopolnames</text>
<text text-anchor="start" x="169.66" y="-121.2" font-family="Arial" font-size="14.00">    </text>
<text text-anchor="start" x="200.78" y="-121.2" font-family="Arial" font-size="14.00" fill="#666666">[MATERIALIZED VIEW]</text>
<polygon fill="none" stroke="black" points="46.2,-77 46.2,-107.8 357.13,-107.8 357.13,-77 46.2,-77"/>
<text text-anchor="start" x="53.2" y="-89.2" font-family="Arial" font-size="14.00">names </text>
<text text-anchor="start" x="99.11" y="-89.2" font-family="Arial" font-size="14.00" fill="#666666">[varchar[]]</text>
<polygon fill="none" stroke="black" points="46.2,-46.2 46.2,-77 357.13,-77 357.13,-46.2 46.2,-46.2"/>
<text text-anchor="start" x="53.2" y="-58.4" font-family="Arial" font-size="14.00">siteid </text>
<text text-anchor="start" x="89.77" y="-58.4" font-family="Arial" font-size="14.00" fill="#666666">[integer]</text>
<polygon fill="none" stroke="black" stroke-width="3" points="44.7,-44.7 44.7,-144.9 358.63,-144.9 358.63,-44.7 44.7,-44.7"/>
</g>
</g>
</svg>
