<?xml version="1.0" encoding="UTF-8" standalone="no"?>
<!DOCTYPE svg PUBLIC "-//W3C//DTD SVG 1.1//EN"
 "http://www.w3.org/Graphics/SVG/1.1/DTD/svg11.dtd">
<!-- Generated by graphviz version 12.1.2 (20240928.0832)
 -->
<!-- Title: ap.orcidlogins Pages: 1 -->
<svg width="384pt" height="321pt"
 viewBox="0.00 0.00 383.63 320.80" xmlns="http://www.w3.org/2000/svg" xmlns:xlink="http://www.w3.org/1999/xlink">
<g id="graph0" class="graph" transform="scale(1 1) rotate(0) translate(4 316.8)">
<title>ap.orcidlogins</title>
<polygon fill="white" stroke="none" points="-4,4 -4,-316.8 379.63,-316.8 379.63,4 -4,4"/>
<!-- ap.orcidlogins -->
<g id="node1" class="node">
<title>ap.orcidlogins</title>
<polygon fill="#efefef" stroke="none" points="46.2,-231 46.2,-266.6 329.43,-266.6 329.43,-231 46.2,-231"/>
<polygon fill="none" stroke="black" points="46.2,-231 46.2,-266.6 329.43,-266.6 329.43,-231 46.2,-231"/>
<text text-anchor="start" x="74.33" y="-244.4" font-family="Arial Bold" font-size="18.00">ap.orcidlogins</text>
<text text-anchor="start" x="176.81" y="-244.4" font-family="Arial" font-size="14.00">    </text>
<text text-anchor="start" x="207.93" y="-244.4" font-family="Arial" font-size="14.00" fill="#666666">[BASE TABLE]</text>
<polygon fill="none" stroke="black" points="46.2,-200.2 46.2,-231 329.43,-231 329.43,-200.2 46.2,-200.2"/>
<text text-anchor="start" x="53.2" y="-212.4" font-family="Arial" font-size="14.00">expiresat </text>
<text text-anchor="start" x="113.9" y="-212.4" font-family="Arial" font-size="14.00" fill="#666666">[timestamp with time zone]</text>
<polygon fill="none" stroke="black" points="46.2,-169.4 46.2,-200.2 329.43,-200.2 329.43,-169.4 46.2,-169.4"/>
<text text-anchor="start" x="53.2" y="-181.6" font-family="Arial" font-size="14.00">orcidid </text>
<text text-anchor="start" x="98.33" y="-181.6" font-family="Arial" font-size="14.00" fill="#666666">[text]</text>
<polygon fill="none" stroke="black" points="46.2,-138.6 46.2,-169.4 329.43,-169.4 329.43,-138.6 46.2,-138.6"/>
<text text-anchor="start" x="53.2" y="-150.8" font-family="Arial" font-size="14.00">recdatecreated </text>
<text text-anchor="start" x="150.48" y="-150.8" font-family="Arial" font-size="14.00" fill="#666666">[timestamp with time zone]</text>
<polygon fill="none" stroke="black" points="46.2,-107.8 46.2,-138.6 329.43,-138.6 329.43,-107.8 46.2,-107.8"/>
<text text-anchor="start" x="53.2" y="-120" font-family="Arial" font-size="14.00">recdatemodified </text>
<text text-anchor="start" x="156.7" y="-120" font-family="Arial" font-size="14.00" fill="#666666">[timestamp with time zone]</text>
<polygon fill="none" stroke="black" points="46.2,-77 46.2,-107.8 329.43,-107.8 329.43,-77 46.2,-77"/>
<text text-anchor="start" x="53.2" y="-89.2" font-family="Arial" font-size="14.00">sessionuuid </text>
<text text-anchor="start" x="131.03" y="-89.2" font-family="Arial" font-size="14.00" fill="#666666">[uuid]</text>
<polygon fill="none" stroke="black" points="46.2,-46.2 46.2,-77 329.43,-77 329.43,-46.2 46.2,-46.2"/>
<text text-anchor="start" x="53.2" y="-58.4" font-family="Arial" font-size="14.00">userip </text>
<text text-anchor="start" x="95.22" y="-58.4" font-family="Arial" font-size="14.00" fill="#666666">[cidr]</text>
<polygon fill="none" stroke="black" stroke-width="3" points="44.7,-44.7 44.7,-268.1 330.93,-268.1 330.93,-44.7 44.7,-44.7"/>
</g>
</g>
</svg>
