<?xml version="1.0" encoding="UTF-8" standalone="no"?>
<!DOCTYPE svg PUBLIC "-//W3C//DTD SVG 1.1//EN"
 "http://www.w3.org/Graphics/SVG/1.1/DTD/svg11.dtd">
<!-- Generated by graphviz version 12.1.2 (20240928.0832)
 -->
<!-- Title: ap.pollensums Pages: 1 -->
<svg width="342pt" height="598pt"
 viewBox="0.00 0.00 342.38 598.00" xmlns="http://www.w3.org/2000/svg" xmlns:xlink="http://www.w3.org/1999/xlink">
<g id="graph0" class="graph" transform="scale(1 1) rotate(0) translate(4 594)">
<title>ap.pollensums</title>
<polygon fill="white" stroke="none" points="-4,4 -4,-594 338.38,-594 338.38,4 -4,4"/>
<!-- ap.pollensums -->
<g id="node1" class="node">
<title>ap.pollensums</title>
<polygon fill="#efefef" stroke="none" points="46.2,-508.2 46.2,-543.8 288.18,-543.8 288.18,-508.2 46.2,-508.2"/>
<polygon fill="none" stroke="black" points="46.2,-508.2 46.2,-543.8 288.18,-543.8 288.18,-508.2 46.2,-508.2"/>
<text text-anchor="start" x="53.2" y="-521.6" font-family="Arial Bold" font-size="18.00">ap.pollensums</text>
<text text-anchor="start" x="156.69" y="-521.6" font-family="Arial" font-size="14.00">    </text>
<text text-anchor="start" x="187.81" y="-521.6" font-family="Arial" font-size="14.00" fill="#666666">[BASE TABLE]</text>
<polygon fill="none" stroke="black" points="46.2,-477.4 46.2,-508.2 288.18,-508.2 288.18,-477.4 46.2,-477.4"/>
<text text-anchor="start" x="53.2" y="-489.6" font-family="Arial" font-size="14.00">sampleid </text>
<text text-anchor="start" x="113.12" y="-489.6" font-family="Arial" font-size="14.00" fill="#666666">[integer]</text>
<polygon fill="none" stroke="black" points="46.2,-446.6 46.2,-477.4 288.18,-477.4 288.18,-446.6 46.2,-446.6"/>
<text text-anchor="start" x="53.2" y="-458.8" font-family="Arial" font-size="14.00">trsh </text>
<text text-anchor="start" x="80.43" y="-458.8" font-family="Arial" font-size="14.00" fill="#666666">[double precision]</text>
<polygon fill="none" stroke="black" points="46.2,-415.8 46.2,-446.6 288.18,-446.6 288.18,-415.8 46.2,-415.8"/>
<text text-anchor="start" x="53.2" y="-428" font-family="Arial" font-size="14.00">palm </text>
<text text-anchor="start" x="87.43" y="-428" font-family="Arial" font-size="14.00" fill="#666666">[double precision]</text>
<polygon fill="none" stroke="black" points="46.2,-385 46.2,-415.8 288.18,-415.8 288.18,-385 46.2,-385"/>
<text text-anchor="start" x="53.2" y="-397.2" font-family="Arial" font-size="14.00">uphe </text>
<text text-anchor="start" x="88.23" y="-397.2" font-family="Arial" font-size="14.00" fill="#666666">[double precision]</text>
<polygon fill="none" stroke="black" points="46.2,-354.2 46.2,-385 288.18,-385 288.18,-354.2 46.2,-354.2"/>
<text text-anchor="start" x="53.2" y="-366.4" font-family="Arial" font-size="14.00">succ </text>
<text text-anchor="start" x="85.88" y="-366.4" font-family="Arial" font-size="14.00" fill="#666666">[double precision]</text>
<polygon fill="none" stroke="black" points="46.2,-323.4 46.2,-354.2 288.18,-354.2 288.18,-323.4 46.2,-323.4"/>
<text text-anchor="start" x="53.2" y="-335.6" font-family="Arial" font-size="14.00">vacr </text>
<text text-anchor="start" x="83.54" y="-335.6" font-family="Arial" font-size="14.00" fill="#666666">[double precision]</text>
<polygon fill="none" stroke="black" points="46.2,-292.6 46.2,-323.4 288.18,-323.4 288.18,-292.6 46.2,-292.6"/>
<text text-anchor="start" x="53.2" y="-304.8" font-family="Arial" font-size="14.00">upbr </text>
<text text-anchor="start" x="85.11" y="-304.8" font-family="Arial" font-size="14.00" fill="#666666">[double precision]</text>
<polygon fill="none" stroke="black" points="46.2,-261.8 46.2,-292.6 288.18,-292.6 288.18,-261.8 46.2,-261.8"/>
<text text-anchor="start" x="53.2" y="-274" font-family="Arial" font-size="14.00">fung </text>
<text text-anchor="start" x="84.34" y="-274" font-family="Arial" font-size="14.00" fill="#666666">[double precision]</text>
<polygon fill="none" stroke="black" points="46.2,-231 46.2,-261.8 288.18,-261.8 288.18,-231 46.2,-231"/>
<text text-anchor="start" x="53.2" y="-243.2" font-family="Arial" font-size="14.00">aqvp </text>
<text text-anchor="start" x="87.45" y="-243.2" font-family="Arial" font-size="14.00" fill="#666666">[double precision]</text>
<polygon fill="none" stroke="black" points="46.2,-200.2 46.2,-231 288.18,-231 288.18,-200.2 46.2,-200.2"/>
<text text-anchor="start" x="53.2" y="-212.4" font-family="Arial" font-size="14.00">aqbr </text>
<text text-anchor="start" x="85.11" y="-212.4" font-family="Arial" font-size="14.00" fill="#666666">[double precision]</text>
<polygon fill="none" stroke="black" points="46.2,-169.4 46.2,-200.2 288.18,-200.2 288.18,-169.4 46.2,-169.4"/>
<text text-anchor="start" x="53.2" y="-181.6" font-family="Arial" font-size="14.00">mang </text>
<text text-anchor="start" x="92.11" y="-181.6" font-family="Arial" font-size="14.00" fill="#666666">[double precision]</text>
<polygon fill="none" stroke="black" points="46.2,-138.6 46.2,-169.4 288.18,-169.4 288.18,-138.6 46.2,-138.6"/>
<text text-anchor="start" x="53.2" y="-150.8" font-family="Arial" font-size="14.00">unid </text>
<text text-anchor="start" x="83.56" y="-150.8" font-family="Arial" font-size="14.00" fill="#666666">[double precision]</text>
<polygon fill="none" stroke="black" points="46.2,-107.8 46.2,-138.6 288.18,-138.6 288.18,-107.8 46.2,-107.8"/>
<text text-anchor="start" x="53.2" y="-120" font-family="Arial" font-size="14.00">anac </text>
<text text-anchor="start" x="87.45" y="-120" font-family="Arial" font-size="14.00" fill="#666666">[double precision]</text>
<polygon fill="none" stroke="black" points="46.2,-77 46.2,-107.8 288.18,-107.8 288.18,-77 46.2,-77"/>
<text text-anchor="start" x="53.2" y="-89.2" font-family="Arial" font-size="14.00">seed </text>
<text text-anchor="start" x="87.45" y="-89.2" font-family="Arial" font-size="14.00" fill="#666666">[double precision]</text>
<polygon fill="none" stroke="black" points="46.2,-46.2 46.2,-77 288.18,-77 288.18,-46.2 46.2,-46.2"/>
<text text-anchor="start" x="53.2" y="-58.4" font-family="Arial" font-size="14.00">total </text>
<text text-anchor="start" x="83.55" y="-58.4" font-family="Arial" font-size="14.00" fill="#666666">[double precision]</text>
<polygon fill="none" stroke="black" stroke-width="3" points="44.7,-44.7 44.7,-545.3 289.68,-545.3 289.68,-44.7 44.7,-44.7"/>
</g>
</g>
</svg>
