<?xml version="1.0" encoding="UTF-8" standalone="no"?>
<!DOCTYPE svg PUBLIC "-//W3C//DTD SVG 1.1//EN"
 "http://www.w3.org/Graphics/SVG/1.1/DTD/svg11.dtd">
<!-- Generated by graphviz version 12.1.2 (20240928.0832)
 -->
<!-- Title: ap.pollensumgroups Pages: 1 -->
<svg width="384pt" height="228pt"
 viewBox="0.00 0.00 384.37 228.40" xmlns="http://www.w3.org/2000/svg" xmlns:xlink="http://www.w3.org/1999/xlink">
<g id="graph0" class="graph" transform="scale(1 1) rotate(0) translate(4 224.4)">
<title>ap.pollensumgroups</title>
<polygon fill="white" stroke="none" points="-4,4 -4,-224.4 380.37,-224.4 380.37,4 -4,4"/>
<!-- ap.pollensumgroups -->
<g id="node1" class="node">
<title>ap.pollensumgroups</title>
<polygon fill="#efefef" stroke="none" points="46.2,-138.6 46.2,-174.2 330.17,-174.2 330.17,-138.6 46.2,-138.6"/>
<polygon fill="none" stroke="black" points="46.2,-138.6 46.2,-174.2 330.17,-174.2 330.17,-138.6 46.2,-138.6"/>
<text text-anchor="start" x="53.2" y="-152" font-family="Arial Bold" font-size="18.00">ap.pollensumgroups</text>
<text text-anchor="start" x="198.69" y="-152" font-family="Arial" font-size="14.00">    </text>
<text text-anchor="start" x="229.8" y="-152" font-family="Arial" font-size="14.00" fill="#666666">[BASE TABLE]</text>
<polygon fill="none" stroke="black" points="46.2,-107.8 46.2,-138.6 330.17,-138.6 330.17,-107.8 46.2,-107.8"/>
<text text-anchor="start" x="53.2" y="-120" font-family="Arial" font-size="14.00">recid </text>
<text text-anchor="start" x="87.43" y="-120" font-family="Arial" font-size="14.00" fill="#666666">[integer]</text>
<polygon fill="none" stroke="black" points="46.2,-77 46.2,-107.8 330.17,-107.8 330.17,-77 46.2,-77"/>
<text text-anchor="start" x="53.2" y="-89.2" font-family="Arial" font-size="14.00">ecolgroupid </text>
<text text-anchor="start" x="129.48" y="-89.2" font-family="Arial" font-size="14.00" fill="#666666">[varchar(4)]</text>
<polygon fill="none" stroke="black" points="46.2,-46.2 46.2,-77 330.17,-77 330.17,-46.2 46.2,-46.2"/>
<text text-anchor="start" x="53.2" y="-58.4" font-family="Arial" font-size="14.00">sumgroupid </text>
<text text-anchor="start" x="130.24" y="-58.4" font-family="Arial" font-size="14.00" fill="#666666">[integer]</text>
<polygon fill="none" stroke="black" stroke-width="3" points="44.7,-44.7 44.7,-175.7 331.67,-175.7 331.67,-44.7 44.7,-44.7"/>
</g>
</g>
</svg>
