<?xml version="1.0" encoding="UTF-8" standalone="no"?>
<!DOCTYPE svg PUBLIC "-//W3C//DTD SVG 1.1//EN"
 "http://www.w3.org/Graphics/SVG/1.1/DTD/svg11.dtd">
<!-- Generated by graphviz version 12.1.2 (20240928.0832)
 -->
<!-- Title: ap.querytable Pages: 1 -->
<svg width="336pt" height="752pt"
 viewBox="0.00 0.00 336.34 752.00" xmlns="http://www.w3.org/2000/svg" xmlns:xlink="http://www.w3.org/1999/xlink">
<g id="graph0" class="graph" transform="scale(1 1) rotate(0) translate(4 748)">
<title>ap.querytable</title>
<polygon fill="white" stroke="none" points="-4,4 -4,-748 332.34,-748 332.34,4 -4,4"/>
<!-- ap.querytable -->
<g id="node1" class="node">
<title>ap.querytable</title>
<polygon fill="#efefef" stroke="none" points="46.2,-662.2 46.2,-697.8 282.14,-697.8 282.14,-662.2 46.2,-662.2"/>
<polygon fill="none" stroke="black" points="46.2,-662.2 46.2,-697.8 282.14,-697.8 282.14,-662.2 46.2,-662.2"/>
<text text-anchor="start" x="53.2" y="-675.6" font-family="Arial Bold" font-size="18.00">ap.querytable</text>
<text text-anchor="start" x="150.65" y="-675.6" font-family="Arial" font-size="14.00">    </text>
<text text-anchor="start" x="181.77" y="-675.6" font-family="Arial" font-size="14.00" fill="#666666">[BASE TABLE]</text>
<polygon fill="none" stroke="black" points="46.2,-631.4 46.2,-662.2 282.14,-662.2 282.14,-631.4 46.2,-631.4"/>
<text text-anchor="start" x="53.2" y="-643.6" font-family="Arial" font-size="14.00">agetype </text>
<text text-anchor="start" x="106.91" y="-643.6" font-family="Arial" font-size="14.00" fill="#666666">[varchar(64)]</text>
<polygon fill="none" stroke="black" points="46.2,-600.6 46.2,-631.4 282.14,-631.4 282.14,-600.6 46.2,-600.6"/>
<text text-anchor="start" x="53.2" y="-612.8" font-family="Arial" font-size="14.00">altitude </text>
<text text-anchor="start" x="102.23" y="-612.8" font-family="Arial" font-size="14.00" fill="#666666">[double precision]</text>
<polygon fill="none" stroke="black" points="46.2,-569.8 46.2,-600.6 282.14,-600.6 282.14,-569.8 46.2,-569.8"/>
<text text-anchor="start" x="53.2" y="-582" font-family="Arial" font-size="14.00">chronologyid </text>
<text text-anchor="start" x="136.48" y="-582" font-family="Arial" font-size="14.00" fill="#666666">[integer]</text>
<polygon fill="none" stroke="black" points="46.2,-539 46.2,-569.8 282.14,-569.8 282.14,-539 46.2,-539"/>
<text text-anchor="start" x="53.2" y="-551.2" font-family="Arial" font-size="14.00">collectionunit </text>
<text text-anchor="start" x="138.03" y="-551.2" font-family="Arial" font-size="14.00" fill="#666666">[jsonb]</text>
<polygon fill="none" stroke="black" points="46.2,-508.2 46.2,-539 282.14,-539 282.14,-508.2 46.2,-508.2"/>
<text text-anchor="start" x="53.2" y="-520.4" font-family="Arial" font-size="14.00">collectionunitid </text>
<text text-anchor="start" x="148.92" y="-520.4" font-family="Arial" font-size="14.00" fill="#666666">[integer]</text>
<polygon fill="none" stroke="black" points="46.2,-477.4 46.2,-508.2 282.14,-508.2 282.14,-477.4 46.2,-477.4"/>
<text text-anchor="start" x="53.2" y="-489.6" font-family="Arial" font-size="14.00">colltype </text>
<text text-anchor="start" x="104.56" y="-489.6" font-family="Arial" font-size="14.00" fill="#666666">[varchar(64)]</text>
<polygon fill="none" stroke="black" points="46.2,-446.6 46.2,-477.4 282.14,-477.4 282.14,-446.6 46.2,-446.6"/>
<text text-anchor="start" x="53.2" y="-458.8" font-family="Arial" font-size="14.00">contacts </text>
<text text-anchor="start" x="109.23" y="-458.8" font-family="Arial" font-size="14.00" fill="#666666">[integer[]]</text>
<polygon fill="none" stroke="black" points="46.2,-415.8 46.2,-446.6 282.14,-446.6 282.14,-415.8 46.2,-415.8"/>
<text text-anchor="start" x="53.2" y="-428" font-family="Arial" font-size="14.00">databaseid </text>
<text text-anchor="start" x="125.59" y="-428" font-family="Arial" font-size="14.00" fill="#666666">[integer]</text>
<polygon fill="none" stroke="black" points="46.2,-385 46.2,-415.8 282.14,-415.8 282.14,-385 46.2,-385"/>
<text text-anchor="start" x="53.2" y="-397.2" font-family="Arial" font-size="14.00">datasetid </text>
<text text-anchor="start" x="113.91" y="-397.2" font-family="Arial" font-size="14.00" fill="#666666">[integer]</text>
<polygon fill="none" stroke="black" points="46.2,-354.2 46.2,-385 282.14,-385 282.14,-354.2 46.2,-354.2"/>
<text text-anchor="start" x="53.2" y="-366.4" font-family="Arial" font-size="14.00">datasettype </text>
<text text-anchor="start" x="129.48" y="-366.4" font-family="Arial" font-size="14.00" fill="#666666">[varchar(64)]</text>
<polygon fill="none" stroke="black" points="46.2,-323.4 46.2,-354.2 282.14,-354.2 282.14,-323.4 46.2,-323.4"/>
<text text-anchor="start" x="53.2" y="-335.6" font-family="Arial" font-size="14.00">depenvt </text>
<text text-anchor="start" x="106.91" y="-335.6" font-family="Arial" font-size="14.00" fill="#666666">[varchar(255)]</text>
<polygon fill="none" stroke="black" points="46.2,-292.6 46.2,-323.4 282.14,-323.4 282.14,-292.6 46.2,-292.6"/>
<text text-anchor="start" x="53.2" y="-304.8" font-family="Arial" font-size="14.00">geog </text>
<text text-anchor="start" x="88.23" y="-304.8" font-family="Arial" font-size="14.00" fill="#666666">[geography]</text>
<polygon fill="none" stroke="black" points="46.2,-261.8 46.2,-292.6 282.14,-292.6 282.14,-261.8 46.2,-261.8"/>
<text text-anchor="start" x="53.2" y="-274" font-family="Arial" font-size="14.00">geopol </text>
<text text-anchor="start" x="99.13" y="-274" font-family="Arial" font-size="14.00" fill="#666666">[integer[]]</text>
<polygon fill="none" stroke="black" points="46.2,-231 46.2,-261.8 282.14,-261.8 282.14,-231 46.2,-231"/>
<text text-anchor="start" x="53.2" y="-243.2" font-family="Arial" font-size="14.00">keywords </text>
<text text-anchor="start" x="116.22" y="-243.2" font-family="Arial" font-size="14.00" fill="#666666">[integer[]]</text>
<polygon fill="none" stroke="black" points="46.2,-200.2 46.2,-231 282.14,-231 282.14,-200.2 46.2,-200.2"/>
<text text-anchor="start" x="53.2" y="-212.4" font-family="Arial" font-size="14.00">older </text>
<text text-anchor="start" x="88.22" y="-212.4" font-family="Arial" font-size="14.00" fill="#666666">[double precision]</text>
<polygon fill="none" stroke="black" points="46.2,-169.4 46.2,-200.2 282.14,-200.2 282.14,-169.4 46.2,-169.4"/>
<text text-anchor="start" x="53.2" y="-181.6" font-family="Arial" font-size="14.00">publications </text>
<text text-anchor="start" x="131.03" y="-181.6" font-family="Arial" font-size="14.00" fill="#666666">[integer[]]</text>
<polygon fill="none" stroke="black" points="46.2,-138.6 46.2,-169.4 282.14,-169.4 282.14,-138.6 46.2,-138.6"/>
<text text-anchor="start" x="53.2" y="-150.8" font-family="Arial" font-size="14.00">siteid </text>
<text text-anchor="start" x="89.77" y="-150.8" font-family="Arial" font-size="14.00" fill="#666666">[integer]</text>
<polygon fill="none" stroke="black" points="46.2,-107.8 46.2,-138.6 282.14,-138.6 282.14,-107.8 46.2,-107.8"/>
<text text-anchor="start" x="53.2" y="-120" font-family="Arial" font-size="14.00">sitename </text>
<text text-anchor="start" x="113.9" y="-120" font-family="Arial" font-size="14.00" fill="#666666">[varchar(128)]</text>
<polygon fill="none" stroke="black" points="46.2,-77 46.2,-107.8 282.14,-107.8 282.14,-77 46.2,-77"/>
<text text-anchor="start" x="53.2" y="-89.2" font-family="Arial" font-size="14.00">taxa </text>
<text text-anchor="start" x="83.55" y="-89.2" font-family="Arial" font-size="14.00" fill="#666666">[integer[]]</text>
<polygon fill="none" stroke="black" points="46.2,-46.2 46.2,-77 282.14,-77 282.14,-46.2 46.2,-46.2"/>
<text text-anchor="start" x="53.2" y="-58.4" font-family="Arial" font-size="14.00">younger </text>
<text text-anchor="start" x="107.68" y="-58.4" font-family="Arial" font-size="14.00" fill="#666666">[double precision]</text>
<polygon fill="none" stroke="black" stroke-width="3" points="44.7,-44.7 44.7,-699.3 283.64,-699.3 283.64,-44.7 44.7,-44.7"/>
</g>
</g>
</svg>
