<?xml version="1.0" encoding="UTF-8" standalone="no"?>
<!DOCTYPE svg PUBLIC "-//W3C//DTD SVG 1.1//EN"
 "http://www.w3.org/Graphics/SVG/1.1/DTD/svg11.dtd">
<!-- Generated by graphviz version 12.1.2 (20240928.0832)
 -->
<!-- Title: ap.sitegadm Pages: 1 -->
<svg width="325pt" height="198pt"
 viewBox="0.00 0.00 325.36 197.60" xmlns="http://www.w3.org/2000/svg" xmlns:xlink="http://www.w3.org/1999/xlink">
<g id="graph0" class="graph" transform="scale(1 1) rotate(0) translate(4 193.6)">
<title>ap.sitegadm</title>
<polygon fill="white" stroke="none" points="-4,4 -4,-193.6 321.36,-193.6 321.36,4 -4,4"/>
<!-- ap.sitegadm -->
<g id="node1" class="node">
<title>ap.sitegadm</title>
<polygon fill="#efefef" stroke="none" points="46.2,-107.8 46.2,-143.4 271.16,-143.4 271.16,-107.8 46.2,-107.8"/>
<polygon fill="none" stroke="black" points="46.2,-107.8 46.2,-143.4 271.16,-143.4 271.16,-107.8 46.2,-107.8"/>
<text text-anchor="start" x="53.2" y="-121.2" font-family="Arial Bold" font-size="18.00">ap.sitegadm</text>
<text text-anchor="start" x="139.68" y="-121.2" font-family="Arial" font-size="14.00">    </text>
<text text-anchor="start" x="170.79" y="-121.2" font-family="Arial" font-size="14.00" fill="#666666">[BASE TABLE]</text>
<polygon fill="none" stroke="black" points="46.2,-77 46.2,-107.8 271.16,-107.8 271.16,-77 46.2,-77"/>
<text text-anchor="start" x="53.2" y="-89.2" font-family="Arial" font-size="14.00">fid </text>
<text text-anchor="start" x="71.88" y="-89.2" font-family="Arial" font-size="14.00" fill="#666666">[integer]</text>
<polygon fill="none" stroke="black" points="46.2,-46.2 46.2,-77 271.16,-77 271.16,-46.2 46.2,-46.2"/>
<text text-anchor="start" x="53.2" y="-58.4" font-family="Arial" font-size="14.00">siteid </text>
<text text-anchor="start" x="89.77" y="-58.4" font-family="Arial" font-size="14.00" fill="#666666">[integer]</text>
<polygon fill="none" stroke="black" stroke-width="3" points="44.7,-44.7 44.7,-144.9 272.66,-144.9 272.66,-44.7 44.7,-44.7"/>
</g>
</g>
</svg>
