<?xml version="1.0" encoding="UTF-8" standalone="no"?>
<!DOCTYPE svg PUBLIC "-//W3C//DTD SVG 1.1//EN"
 "http://www.w3.org/Graphics/SVG/1.1/DTD/svg11.dtd">
<!-- Generated by graphviz version 12.1.2 (20240928.0832)
 -->
<!-- Title: ap.summaries Pages: 1 -->
<svg width="338pt" height="290pt"
 viewBox="0.00 0.00 338.36 290.00" xmlns="http://www.w3.org/2000/svg" xmlns:xlink="http://www.w3.org/1999/xlink">
<g id="graph0" class="graph" transform="scale(1 1) rotate(0) translate(4 286)">
<title>ap.summaries</title>
<polygon fill="white" stroke="none" points="-4,4 -4,-286 334.36,-286 334.36,4 -4,4"/>
<!-- ap.summaries -->
<g id="node1" class="node">
<title>ap.summaries</title>
<polygon fill="#efefef" stroke="none" points="46.2,-200.2 46.2,-235.8 284.16,-235.8 284.16,-200.2 46.2,-200.2"/>
<polygon fill="none" stroke="black" points="46.2,-200.2 46.2,-235.8 284.16,-235.8 284.16,-200.2 46.2,-200.2"/>
<text text-anchor="start" x="53.2" y="-213.6" font-family="Arial Bold" font-size="18.00">ap.summaries</text>
<text text-anchor="start" x="152.67" y="-213.6" font-family="Arial" font-size="14.00">    </text>
<text text-anchor="start" x="183.79" y="-213.6" font-family="Arial" font-size="14.00" fill="#666666">[BASE TABLE]</text>
<polygon fill="none" stroke="black" points="46.2,-169.4 46.2,-200.2 284.16,-200.2 284.16,-169.4 46.2,-169.4"/>
<text text-anchor="start" x="53.2" y="-181.6" font-family="Arial" font-size="14.00">datasets </text>
<text text-anchor="start" x="110.01" y="-181.6" font-family="Arial" font-size="14.00" fill="#666666">[bigint]</text>
<polygon fill="none" stroke="black" points="46.2,-138.6 46.2,-169.4 284.16,-169.4 284.16,-138.6 46.2,-138.6"/>
<text text-anchor="start" x="53.2" y="-150.8" font-family="Arial" font-size="14.00">dbdate </text>
<text text-anchor="start" x="99.91" y="-150.8" font-family="Arial" font-size="14.00" fill="#666666">[date]</text>
<polygon fill="none" stroke="black" points="46.2,-107.8 46.2,-138.6 284.16,-138.6 284.16,-107.8 46.2,-107.8"/>
<text text-anchor="start" x="53.2" y="-120" font-family="Arial" font-size="14.00">observations </text>
<text text-anchor="start" x="136.47" y="-120" font-family="Arial" font-size="14.00" fill="#666666">[bigint]</text>
<polygon fill="none" stroke="black" points="46.2,-77 46.2,-107.8 284.16,-107.8 284.16,-77 46.2,-77"/>
<text text-anchor="start" x="53.2" y="-89.2" font-family="Arial" font-size="14.00">publications </text>
<text text-anchor="start" x="131.03" y="-89.2" font-family="Arial" font-size="14.00" fill="#666666">[bigint]</text>
<polygon fill="none" stroke="black" points="46.2,-46.2 46.2,-77 284.16,-77 284.16,-46.2 46.2,-46.2"/>
<text text-anchor="start" x="53.2" y="-58.4" font-family="Arial" font-size="14.00">sites </text>
<text text-anchor="start" x="85.88" y="-58.4" font-family="Arial" font-size="14.00" fill="#666666">[bigint]</text>
<polygon fill="none" stroke="black" stroke-width="3" points="44.7,-44.7 44.7,-237.3 285.66,-237.3 285.66,-44.7 44.7,-44.7"/>
</g>
</g>
</svg>
