<?xml version="1.0" encoding="UTF-8" standalone="no"?>
<!DOCTYPE svg PUBLIC "-//W3C//DTD SVG 1.1//EN"
 "http://www.w3.org/Graphics/SVG/1.1/DTD/svg11.dtd">
<!-- Generated by graphviz version 12.1.2 (20240928.0832)
 -->
<!-- Title: ap.taxaindatasetview Pages: 1 -->
<svg width="340pt" height="259pt"
 viewBox="0.00 0.00 339.51 259.20" xmlns="http://www.w3.org/2000/svg" xmlns:xlink="http://www.w3.org/1999/xlink">
<g id="graph0" class="graph" transform="scale(1 1) rotate(0) translate(4 255.2)">
<title>ap.taxaindatasetview</title>
<polygon fill="white" stroke="none" points="-4,4 -4,-255.2 335.51,-255.2 335.51,4 -4,4"/>
<!-- ap.taxaindatasetview -->
<g id="node1" class="node">
<title>ap.taxaindatasetview</title>
<polygon fill="#efefef" stroke="none" points="46.2,-169.4 46.2,-205 285.31,-205 285.31,-169.4 46.2,-169.4"/>
<polygon fill="none" stroke="black" points="46.2,-169.4 46.2,-205 285.31,-205 285.31,-169.4 46.2,-169.4"/>
<text text-anchor="start" x="53.2" y="-182.8" font-family="Arial Bold" font-size="18.00">ap.taxaindatasetview</text>
<text text-anchor="start" x="203.63" y="-182.8" font-family="Arial" font-size="14.00">    </text>
<text text-anchor="start" x="234.75" y="-182.8" font-family="Arial" font-size="14.00" fill="#666666">[VIEW]</text>
<polygon fill="none" stroke="black" points="46.2,-138.6 46.2,-169.4 285.31,-169.4 285.31,-138.6 46.2,-138.6"/>
<text text-anchor="start" x="53.2" y="-150.8" font-family="Arial" font-size="14.00">datasettypeids </text>
<text text-anchor="start" x="147.37" y="-150.8" font-family="Arial" font-size="14.00" fill="#666666">[jsonb]</text>
<polygon fill="none" stroke="black" points="46.2,-107.8 46.2,-138.6 285.31,-138.6 285.31,-107.8 46.2,-107.8"/>
<text text-anchor="start" x="53.2" y="-120" font-family="Arial" font-size="14.00">taxagroupid </text>
<text text-anchor="start" x="130.25" y="-120" font-family="Arial" font-size="14.00" fill="#666666">[varchar(3)]</text>
<polygon fill="none" stroke="black" points="46.2,-77 46.2,-107.8 285.31,-107.8 285.31,-77 46.2,-77"/>
<text text-anchor="start" x="53.2" y="-89.2" font-family="Arial" font-size="14.00">taxonid </text>
<text text-anchor="start" x="102.23" y="-89.2" font-family="Arial" font-size="14.00" fill="#666666">[integer]</text>
<polygon fill="none" stroke="black" points="46.2,-46.2 46.2,-77 285.31,-77 285.31,-46.2 46.2,-46.2"/>
<text text-anchor="start" x="53.2" y="-58.4" font-family="Arial" font-size="14.00">taxonname </text>
<text text-anchor="start" x="126.36" y="-58.4" font-family="Arial" font-size="14.00" fill="#666666">[text]</text>
<polygon fill="none" stroke="black" stroke-width="3" points="44.7,-44.7 44.7,-206.5 286.81,-206.5 286.81,-44.7 44.7,-44.7"/>
</g>
</g>
</svg>
