<?xml version="1.0" encoding="UTF-8" standalone="no"?>
<!DOCTYPE svg PUBLIC "-//W3C//DTD SVG 1.1//EN"
 "http://www.w3.org/Graphics/SVG/1.1/DTD/svg11.dtd">
<!-- Generated by graphviz version 12.1.2 (20240928.0832)
 -->
<!-- Title: doi.doimeta Pages: 1 -->
<svg width="384pt" height="290pt"
 viewBox="0.00 0.00 383.63 290.00" xmlns="http://www.w3.org/2000/svg" xmlns:xlink="http://www.w3.org/1999/xlink">
<g id="graph0" class="graph" transform="scale(1 1) rotate(0) translate(4 286)">
<title>doi.doimeta</title>
<polygon fill="white" stroke="none" points="-4,4 -4,-286 379.63,-286 379.63,4 -4,4"/>
<!-- doi.doimeta -->
<g id="node1" class="node">
<title>doi.doimeta</title>
<polygon fill="#efefef" stroke="none" points="46.2,-200.2 46.2,-235.8 329.43,-235.8 329.43,-200.2 46.2,-200.2"/>
<polygon fill="none" stroke="black" points="46.2,-200.2 46.2,-235.8 329.43,-235.8 329.43,-200.2 46.2,-200.2"/>
<text text-anchor="start" x="82.83" y="-213.6" font-family="Arial Bold" font-size="18.00">doi.doimeta</text>
<text text-anchor="start" x="168.31" y="-213.6" font-family="Arial" font-size="14.00">    </text>
<text text-anchor="start" x="199.43" y="-213.6" font-family="Arial" font-size="14.00" fill="#666666">[BASE TABLE]</text>
<polygon fill="none" stroke="black" points="46.2,-169.4 46.2,-200.2 329.43,-200.2 329.43,-169.4 46.2,-169.4"/>
<text text-anchor="start" x="53.2" y="-181.6" font-family="Arial" font-size="14.00">datasetid </text>
<text text-anchor="start" x="113.91" y="-181.6" font-family="Arial" font-size="14.00" fill="#666666">[integer]</text>
<polygon fill="none" stroke="black" points="46.2,-138.6 46.2,-169.4 329.43,-169.4 329.43,-138.6 46.2,-138.6"/>
<text text-anchor="start" x="53.2" y="-150.8" font-family="Arial" font-size="14.00">doi </text>
<text text-anchor="start" x="75.77" y="-150.8" font-family="Arial" font-size="14.00" fill="#666666">[varchar]</text>
<polygon fill="none" stroke="black" points="46.2,-107.8 46.2,-138.6 329.43,-138.6 329.43,-107.8 46.2,-107.8"/>
<text text-anchor="start" x="53.2" y="-120" font-family="Arial" font-size="14.00">meta </text>
<text text-anchor="start" x="88.21" y="-120" font-family="Arial" font-size="14.00" fill="#666666">[jsonb]</text>
<polygon fill="none" stroke="black" points="46.2,-77 46.2,-107.8 329.43,-107.8 329.43,-77 46.2,-77"/>
<text text-anchor="start" x="53.2" y="-89.2" font-family="Arial" font-size="14.00">recdatecreated </text>
<text text-anchor="start" x="150.48" y="-89.2" font-family="Arial" font-size="14.00" fill="#666666">[timestamp with time zone]</text>
<polygon fill="none" stroke="black" points="46.2,-46.2 46.2,-77 329.43,-77 329.43,-46.2 46.2,-46.2"/>
<text text-anchor="start" x="53.2" y="-58.4" font-family="Arial" font-size="14.00">recdatemodified </text>
<text text-anchor="start" x="156.7" y="-58.4" font-family="Arial" font-size="14.00" fill="#666666">[timestamp with time zone]</text>
<polygon fill="none" stroke="black" stroke-width="3" points="44.7,-44.7 44.7,-237.3 330.93,-237.3 330.93,-44.7 44.7,-44.7"/>
</g>
</g>
</svg>
