<?xml version="1.0" encoding="UTF-8" standalone="no"?>
<!DOCTYPE svg PUBLIC "-//W3C//DTD SVG 1.1//EN"
 "http://www.w3.org/Graphics/SVG/1.1/DTD/svg11.dtd">
<!-- Generated by graphviz version 12.1.2 (20240928.0832)
 -->
<!-- Title: ndb.specimengenbank Pages: 1 -->
<svg width="3448pt" height="1462pt"
 viewBox="0.00 0.00 3448.20 1462.40" xmlns="http://www.w3.org/2000/svg" xmlns:xlink="http://www.w3.org/1999/xlink">
<g id="graph0" class="graph" transform="scale(1 1) rotate(0) translate(4 1458.4)">
<title>ndb.specimengenbank</title>
<polygon fill="white" stroke="none" points="-4,4 -4,-1458.4 3444.2,-1458.4 3444.2,4 -4,4"/>
<!-- ndb.specimengenbank -->
<g id="node1" class="node">
<title>ndb.specimengenbank</title>
<polygon fill="#efefef" stroke="none" points="970.63,-1252.4 970.63,-1288 1269.57,-1288 1269.57,-1252.4 970.63,-1252.4"/>
<polygon fill="none" stroke="black" points="970.63,-1252.4 970.63,-1288 1269.57,-1288 1269.57,-1252.4 970.63,-1252.4"/>
<text text-anchor="start" x="977.63" y="-1265.8" font-family="Arial Bold" font-size="18.00">ndb.specimengenbank</text>
<text text-anchor="start" x="1138.08" y="-1265.8" font-family="Arial" font-size="14.00">    </text>
<text text-anchor="start" x="1169.2" y="-1265.8" font-family="Arial" font-size="14.00" fill="#666666">[BASE TABLE]</text>
<polygon fill="none" stroke="black" points="970.63,-1221.6 970.63,-1252.4 1269.57,-1252.4 1269.57,-1221.6 970.63,-1221.6"/>
<text text-anchor="start" x="977.63" y="-1233.8" font-family="Arial" font-size="14.00">genbanknr </text>
<text text-anchor="start" x="1047.68" y="-1233.8" font-family="Arial" font-size="14.00" fill="#666666">[varchar(50)]</text>
<polygon fill="none" stroke="black" points="970.63,-1190.8 970.63,-1221.6 1269.57,-1221.6 1269.57,-1190.8 970.63,-1190.8"/>
<text text-anchor="start" x="977.63" y="-1203" font-family="Arial" font-size="14.00">specimenid </text>
<text text-anchor="start" x="1052.33" y="-1203" font-family="Arial" font-size="14.00" fill="#666666">[integer]</text>
<polygon fill="none" stroke="black" stroke-width="3" points="969.13,-1189.3 969.13,-1289.5 1271.07,-1289.5 1271.07,-1189.3 969.13,-1189.3"/>
</g>
<!-- ndb.specimens -->
<g id="node2" class="node">
<title>ndb.specimens</title>
<polygon fill="#efefef" stroke="none" points="1589.2,-909.6 1589.2,-945.2 1909,-945.2 1909,-909.6 1589.2,-909.6"/>
<polygon fill="none" stroke="black" points="1589.2,-909.6 1589.2,-945.2 1909,-945.2 1909,-909.6 1589.2,-909.6"/>
<text text-anchor="start" x="1633.62" y="-923" font-family="Arial Bold" font-size="18.00">ndb.specimens</text>
<text text-anchor="start" x="1740.09" y="-923" font-family="Arial" font-size="14.00">    </text>
<text text-anchor="start" x="1771.21" y="-923" font-family="Arial" font-size="14.00" fill="#666666">[BASE TABLE]</text>
<polygon fill="none" stroke="black" points="1589.2,-878.8 1589.2,-909.6 1909,-909.6 1909,-878.8 1589.2,-878.8"/>
<text text-anchor="start" x="1596.2" y="-891" font-family="Arial" font-size="14.00">arctosnr </text>
<text text-anchor="start" x="1650.66" y="-891" font-family="Arial" font-size="14.00" fill="#666666">[varchar(50)]</text>
<polygon fill="none" stroke="black" points="1589.2,-848 1589.2,-878.8 1909,-878.8 1909,-848 1589.2,-848"/>
<text text-anchor="start" x="1596.2" y="-860.2" font-family="Arial" font-size="14.00">dataid </text>
<text text-anchor="start" x="1638.23" y="-860.2" font-family="Arial" font-size="14.00" fill="#666666">[integer]</text>
<polygon fill="none" stroke="black" points="1589.2,-817.2 1589.2,-848 1909,-848 1909,-817.2 1589.2,-817.2"/>
<text text-anchor="start" x="1596.2" y="-829.4" font-family="Arial" font-size="14.00">domesticstatusid </text>
<text text-anchor="start" x="1704.36" y="-829.4" font-family="Arial" font-size="14.00" fill="#666666">[integer]</text>
<polygon fill="none" stroke="black" points="1589.2,-786.4 1589.2,-817.2 1909,-817.2 1909,-786.4 1589.2,-786.4"/>
<text text-anchor="start" x="1596.2" y="-798.6" font-family="Arial" font-size="14.00">elementtypeid </text>
<text text-anchor="start" x="1687.25" y="-798.6" font-family="Arial" font-size="14.00" fill="#666666">[integer]</text>
<polygon fill="none" stroke="black" points="1589.2,-755.6 1589.2,-786.4 1909,-786.4 1909,-755.6 1589.2,-755.6"/>
<text text-anchor="start" x="1596.2" y="-767.8" font-family="Arial" font-size="14.00">fieldnr </text>
<text text-anchor="start" x="1638.22" y="-767.8" font-family="Arial" font-size="14.00" fill="#666666">[varchar(50)]</text>
<polygon fill="none" stroke="black" points="1589.2,-724.8 1589.2,-755.6 1909,-755.6 1909,-724.8 1589.2,-724.8"/>
<text text-anchor="start" x="1596.2" y="-737" font-family="Arial" font-size="14.00">maturityid </text>
<text text-anchor="start" x="1660.77" y="-737" font-family="Arial" font-size="14.00" fill="#666666">[integer]</text>
<polygon fill="none" stroke="black" points="1589.2,-694 1589.2,-724.8 1909,-724.8 1909,-694 1589.2,-694"/>
<text text-anchor="start" x="1596.2" y="-706.2" font-family="Arial" font-size="14.00">nisp </text>
<text text-anchor="start" x="1625.77" y="-706.2" font-family="Arial" font-size="14.00" fill="#666666">[double precision]</text>
<polygon fill="none" stroke="black" points="1589.2,-663.2 1589.2,-694 1909,-694 1909,-663.2 1589.2,-663.2"/>
<text text-anchor="start" x="1596.2" y="-675.4" font-family="Arial" font-size="14.00">notes </text>
<text text-anchor="start" x="1634.34" y="-675.4" font-family="Arial" font-size="14.00" fill="#666666">[text]</text>
<polygon fill="none" stroke="black" points="1589.2,-632.4 1589.2,-663.2 1909,-663.2 1909,-632.4 1589.2,-632.4"/>
<text text-anchor="start" x="1596.2" y="-644.6" font-family="Arial" font-size="14.00">portionid </text>
<text text-anchor="start" x="1653.79" y="-644.6" font-family="Arial" font-size="14.00" fill="#666666">[integer]</text>
<polygon fill="none" stroke="black" points="1589.2,-601.6 1589.2,-632.4 1909,-632.4 1909,-601.6 1589.2,-601.6"/>
<text text-anchor="start" x="1596.2" y="-613.8" font-family="Arial" font-size="14.00">preservative </text>
<text text-anchor="start" x="1676.34" y="-613.8" font-family="Arial" font-size="14.00" fill="#666666">[varchar(256)]</text>
<polygon fill="none" stroke="black" points="1589.2,-570.8 1589.2,-601.6 1909,-601.6 1909,-570.8 1589.2,-570.8"/>
<text text-anchor="start" x="1596.2" y="-583" font-family="Arial" font-size="14.00">recdatecreated </text>
<text text-anchor="start" x="1693.48" y="-583" font-family="Arial" font-size="14.00" fill="#666666">[timestamp(0) without time zone]</text>
<polygon fill="none" stroke="black" points="1589.2,-540 1589.2,-570.8 1909,-570.8 1909,-540 1589.2,-540"/>
<text text-anchor="start" x="1596.2" y="-552.2" font-family="Arial" font-size="14.00">recdatemodified </text>
<text text-anchor="start" x="1699.7" y="-552.2" font-family="Arial" font-size="14.00" fill="#666666">[timestamp(0) without time zone]</text>
<polygon fill="none" stroke="black" points="1589.2,-509.2 1589.2,-540 1909,-540 1909,-509.2 1589.2,-509.2"/>
<text text-anchor="start" x="1596.2" y="-521.4" font-family="Arial" font-size="14.00">repositoryid </text>
<text text-anchor="start" x="1672.45" y="-521.4" font-family="Arial" font-size="14.00" fill="#666666">[integer]</text>
<polygon fill="none" stroke="black" points="1589.2,-478.4 1589.2,-509.2 1909,-509.2 1909,-478.4 1589.2,-478.4"/>
<text text-anchor="start" x="1596.2" y="-490.6" font-family="Arial" font-size="14.00">sexid </text>
<text text-anchor="start" x="1632.77" y="-490.6" font-family="Arial" font-size="14.00" fill="#666666">[integer]</text>
<polygon fill="none" stroke="black" points="1589.2,-447.6 1589.2,-478.4 1909,-478.4 1909,-447.6 1589.2,-447.6"/>
<text text-anchor="start" x="1596.2" y="-459.8" font-family="Arial" font-size="14.00">specimenid </text>
<text text-anchor="start" x="1670.9" y="-459.8" font-family="Arial" font-size="14.00" fill="#666666">[integer]</text>
<polygon fill="none" stroke="black" points="1589.2,-416.8 1589.2,-447.6 1909,-447.6 1909,-416.8 1589.2,-416.8"/>
<text text-anchor="start" x="1596.2" y="-429" font-family="Arial" font-size="14.00">specimennr </text>
<text text-anchor="start" x="1672.45" y="-429" font-family="Arial" font-size="14.00" fill="#666666">[varchar(50)]</text>
<polygon fill="none" stroke="black" points="1589.2,-386 1589.2,-416.8 1909,-416.8 1909,-386 1589.2,-386"/>
<text text-anchor="start" x="1596.2" y="-398.2" font-family="Arial" font-size="14.00">symmetryid </text>
<text text-anchor="start" x="1671.65" y="-398.2" font-family="Arial" font-size="14.00" fill="#666666">[integer]</text>
</g>
<!-- ndb.specimengenbank&#45;&gt;ndb.specimens -->
<g id="edge1" class="edge">
<title>ndb.specimengenbank:specimenid&#45;&gt;ndb.specimens:specimenid</title>
<path fill="none" stroke="black" d="M1280.66,-1205.64C1349.94,-1197.39 1296.3,-1099.82 1325.1,-1024.4 1423.41,-766.98 1312.65,-463 1588.2,-463"/>
<polygon fill="black" stroke="black" points="1280.89,-1205.63 1270.66,-1201.69 1275.56,-1205.92 1271.24,-1206.16 1271.24,-1206.16 1271.24,-1206.16 1275.56,-1205.92 1271.15,-1210.67 1280.89,-1205.63"/>
<text text-anchor="start" x="713.98" y="-1216.2" font-family="Arial" font-size="10.00">FOREIGN KEY (specimenid) REFERENCES ndb.specimens(specimenid) ON UPDATE CASCADE ON DELETE CASCADE</text>
</g>
<!-- ndb.data -->
<g id="node3" class="node">
<title>ndb.data</title>
<polygon fill="#efefef" stroke="none" points="43.2,-228 43.2,-263.6 363,-263.6 363,-228 43.2,-228"/>
<polygon fill="none" stroke="black" points="43.2,-228 43.2,-263.6 363,-263.6 363,-228 43.2,-228"/>
<text text-anchor="start" x="110.12" y="-241.4" font-family="Arial Bold" font-size="18.00">ndb.data</text>
<text text-anchor="start" x="171.59" y="-241.4" font-family="Arial" font-size="14.00">    </text>
<text text-anchor="start" x="202.71" y="-241.4" font-family="Arial" font-size="14.00" fill="#666666">[BASE TABLE]</text>
<polygon fill="none" stroke="black" points="43.2,-197.2 43.2,-228 363,-228 363,-197.2 43.2,-197.2"/>
<text text-anchor="start" x="50.2" y="-209.4" font-family="Arial" font-size="14.00">dataid </text>
<text text-anchor="start" x="92.23" y="-209.4" font-family="Arial" font-size="14.00" fill="#666666">[integer]</text>
<polygon fill="none" stroke="black" points="43.2,-166.4 43.2,-197.2 363,-197.2 363,-166.4 43.2,-166.4"/>
<text text-anchor="start" x="50.2" y="-178.6" font-family="Arial" font-size="14.00">recdatecreated </text>
<text text-anchor="start" x="147.48" y="-178.6" font-family="Arial" font-size="14.00" fill="#666666">[timestamp(0) without time zone]</text>
<polygon fill="none" stroke="black" points="43.2,-135.6 43.2,-166.4 363,-166.4 363,-135.6 43.2,-135.6"/>
<text text-anchor="start" x="50.2" y="-147.8" font-family="Arial" font-size="14.00">recdatemodified </text>
<text text-anchor="start" x="153.7" y="-147.8" font-family="Arial" font-size="14.00" fill="#666666">[timestamp(0) without time zone]</text>
<polygon fill="none" stroke="black" points="43.2,-104.8 43.2,-135.6 363,-135.6 363,-104.8 43.2,-104.8"/>
<text text-anchor="start" x="50.2" y="-117" font-family="Arial" font-size="14.00">sampleid </text>
<text text-anchor="start" x="110.12" y="-117" font-family="Arial" font-size="14.00" fill="#666666">[integer]</text>
<polygon fill="none" stroke="black" points="43.2,-74 43.2,-104.8 363,-104.8 363,-74 43.2,-74"/>
<text text-anchor="start" x="50.2" y="-86.2" font-family="Arial" font-size="14.00">value </text>
<text text-anchor="start" x="87.56" y="-86.2" font-family="Arial" font-size="14.00" fill="#666666">[double precision]</text>
<polygon fill="none" stroke="black" points="43.2,-43.2 43.2,-74 363,-74 363,-43.2 43.2,-43.2"/>
<text text-anchor="start" x="50.2" y="-55.4" font-family="Arial" font-size="14.00">variableid </text>
<text text-anchor="start" x="114.01" y="-55.4" font-family="Arial" font-size="14.00" fill="#666666">[integer]</text>
</g>
<!-- ndb.specimens&#45;&gt;ndb.data -->
<g id="edge2" class="edge">
<title>ndb.specimens:dataid&#45;&gt;ndb.data:dataid</title>
<path fill="none" stroke="black" d="M1578.1,-863.38C1009.03,-861.52 831.58,-701.37 415.1,-306.8 380.52,-274.04 411.63,-212.6 364,-212.6"/>
<polygon fill="black" stroke="black" points="1577.87,-863.38 1587.86,-867.9 1583.2,-863.39 1587.53,-863.4 1587.53,-863.4 1587.53,-863.4 1583.2,-863.39 1587.87,-858.9 1577.87,-863.38"/>
<text text-anchor="start" x="1106.62" y="-873.4" font-family="Arial" font-size="10.00">FOREIGN KEY (dataid) REFERENCES ndb.data(dataid) ON UPDATE CASCADE ON DELETE CASCADE</text>
</g>
<!-- ndb.specimendomesticstatustypes -->
<g id="node4" class="node">
<title>ndb.specimendomesticstatustypes</title>
<polygon fill="#efefef" stroke="none" points="467.13,-197.2 467.13,-232.8 849.07,-232.8 849.07,-197.2 467.13,-197.2"/>
<polygon fill="none" stroke="black" points="467.13,-197.2 467.13,-232.8 849.07,-232.8 849.07,-197.2 467.13,-197.2"/>
<text text-anchor="start" x="474.13" y="-210.6" font-family="Arial Bold" font-size="18.00">ndb.specimendomesticstatustypes</text>
<text text-anchor="start" x="717.58" y="-210.6" font-family="Arial" font-size="14.00">    </text>
<text text-anchor="start" x="748.7" y="-210.6" font-family="Arial" font-size="14.00" fill="#666666">[BASE TABLE]</text>
<polygon fill="none" stroke="black" points="467.13,-166.4 467.13,-197.2 849.07,-197.2 849.07,-166.4 467.13,-166.4"/>
<text text-anchor="start" x="474.13" y="-178.6" font-family="Arial" font-size="14.00">domesticstatus </text>
<text text-anchor="start" x="571.39" y="-178.6" font-family="Arial" font-size="14.00" fill="#666666">[varchar(24)]</text>
<polygon fill="none" stroke="black" points="467.13,-135.6 467.13,-166.4 849.07,-166.4 849.07,-135.6 467.13,-135.6"/>
<text text-anchor="start" x="474.13" y="-147.8" font-family="Arial" font-size="14.00">domesticstatusid </text>
<text text-anchor="start" x="582.28" y="-147.8" font-family="Arial" font-size="14.00" fill="#666666">[integer]</text>
<polygon fill="none" stroke="black" points="467.13,-104.8 467.13,-135.6 849.07,-135.6 849.07,-104.8 467.13,-104.8"/>
<text text-anchor="start" x="474.13" y="-117" font-family="Arial" font-size="14.00">recdatecreated </text>
<text text-anchor="start" x="571.41" y="-117" font-family="Arial" font-size="14.00" fill="#666666">[timestamp(0) without time zone]</text>
<polygon fill="none" stroke="black" points="467.13,-74 467.13,-104.8 849.07,-104.8 849.07,-74 467.13,-74"/>
<text text-anchor="start" x="474.13" y="-86.2" font-family="Arial" font-size="14.00">recdatemodified </text>
<text text-anchor="start" x="577.63" y="-86.2" font-family="Arial" font-size="14.00" fill="#666666">[timestamp(0) without time zone]</text>
</g>
<!-- ndb.specimens&#45;&gt;ndb.specimendomesticstatustypes -->
<g id="edge3" class="edge">
<title>ndb.specimens:domesticstatusid&#45;&gt;ndb.specimendomesticstatustypes:domesticstatusid</title>
<path fill="none" stroke="black" d="M1577.85,-832.55C1202.21,-828.76 1121.6,-617.59 901.1,-306.8 858.94,-247.37 922.94,-151 850.07,-151"/>
<polygon fill="black" stroke="black" points="1577.87,-832.55 1587.84,-837.1 1583.2,-832.57 1587.53,-832.6 1587.53,-832.6 1587.53,-832.6 1583.2,-832.57 1587.89,-828.1 1577.87,-832.55"/>
<text text-anchor="start" x="898.22" y="-842.6" font-family="Arial" font-size="10.00">FOREIGN KEY (domesticstatusid) REFERENCES ndb.specimendomesticstatustypes(domesticstatusid) ON UPDATE CASCADE ON DELETE CASCADE</text>
</g>
<!-- ndb.elementtypes -->
<g id="node5" class="node">
<title>ndb.elementtypes</title>
<polygon fill="#efefef" stroke="none" points="953.2,-197.2 953.2,-232.8 1273,-232.8 1273,-197.2 953.2,-197.2"/>
<polygon fill="none" stroke="black" points="953.2,-197.2 953.2,-232.8 1273,-232.8 1273,-197.2 953.2,-197.2"/>
<text text-anchor="start" x="987.62" y="-210.6" font-family="Arial Bold" font-size="18.00">ndb.elementtypes</text>
<text text-anchor="start" x="1114.09" y="-210.6" font-family="Arial" font-size="14.00">    </text>
<text text-anchor="start" x="1145.2" y="-210.6" font-family="Arial" font-size="14.00" fill="#666666">[BASE TABLE]</text>
<polygon fill="none" stroke="black" points="953.2,-166.4 953.2,-197.2 1273,-197.2 1273,-166.4 953.2,-166.4"/>
<text text-anchor="start" x="960.2" y="-178.6" font-family="Arial" font-size="14.00">elementtype </text>
<text text-anchor="start" x="1040.36" y="-178.6" font-family="Arial" font-size="14.00" fill="#666666">[varchar(64)]</text>
<polygon fill="none" stroke="black" points="953.2,-135.6 953.2,-166.4 1273,-166.4 1273,-135.6 953.2,-135.6"/>
<text text-anchor="start" x="960.2" y="-147.8" font-family="Arial" font-size="14.00">elementtypeid </text>
<text text-anchor="start" x="1051.25" y="-147.8" font-family="Arial" font-size="14.00" fill="#666666">[integer]</text>
<polygon fill="none" stroke="black" points="953.2,-104.8 953.2,-135.6 1273,-135.6 1273,-104.8 953.2,-104.8"/>
<text text-anchor="start" x="960.2" y="-117" font-family="Arial" font-size="14.00">recdatecreated </text>
<text text-anchor="start" x="1057.48" y="-117" font-family="Arial" font-size="14.00" fill="#666666">[timestamp(0) without time zone]</text>
<polygon fill="none" stroke="black" points="953.2,-74 953.2,-104.8 1273,-104.8 1273,-74 953.2,-74"/>
<text text-anchor="start" x="960.2" y="-86.2" font-family="Arial" font-size="14.00">recdatemodified </text>
<text text-anchor="start" x="1063.7" y="-86.2" font-family="Arial" font-size="14.00" fill="#666666">[timestamp(0) without time zone]</text>
</g>
<!-- ndb.specimens&#45;&gt;ndb.elementtypes -->
<g id="edge4" class="edge">
<title>ndb.specimens:elementtypeid&#45;&gt;ndb.elementtypes:elementtypeid</title>
<path fill="none" stroke="black" d="M1577.81,-801.64C1341.39,-794.28 1421.37,-532.77 1325.1,-306.8 1296.54,-239.76 1346.87,-151 1274,-151"/>
<polygon fill="black" stroke="black" points="1577.87,-801.64 1587.8,-806.29 1583.2,-801.72 1587.53,-801.79 1587.53,-801.79 1587.53,-801.79 1583.2,-801.72 1587.93,-797.3 1577.87,-801.64"/>
<text text-anchor="start" x="996.57" y="-811.8" font-family="Arial" font-size="10.00">FOREIGN KEY (elementtypeid) REFERENCES ndb.elementtypes(elementtypeid) ON UPDATE CASCADE ON DELETE CASCADE</text>
</g>
<!-- ndb.elementmaturities -->
<g id="node6" class="node">
<title>ndb.elementmaturities</title>
<polygon fill="#efefef" stroke="none" points="1377.2,-197.2 1377.2,-232.8 1697,-232.8 1697,-197.2 1377.2,-197.2"/>
<polygon fill="none" stroke="black" points="1377.2,-197.2 1377.2,-232.8 1697,-232.8 1697,-197.2 1377.2,-197.2"/>
<text text-anchor="start" x="1394.63" y="-210.6" font-family="Arial Bold" font-size="18.00">ndb.elementmaturities</text>
<text text-anchor="start" x="1555.08" y="-210.6" font-family="Arial" font-size="14.00">    </text>
<text text-anchor="start" x="1586.2" y="-210.6" font-family="Arial" font-size="14.00" fill="#666666">[BASE TABLE]</text>
<polygon fill="none" stroke="black" points="1377.2,-166.4 1377.2,-197.2 1697,-197.2 1697,-166.4 1377.2,-166.4"/>
<text text-anchor="start" x="1384.2" y="-178.6" font-family="Arial" font-size="14.00">maturity </text>
<text text-anchor="start" x="1437.88" y="-178.6" font-family="Arial" font-size="14.00" fill="#666666">[varchar(36)]</text>
<polygon fill="none" stroke="black" points="1377.2,-135.6 1377.2,-166.4 1697,-166.4 1697,-135.6 1377.2,-135.6"/>
<text text-anchor="start" x="1384.2" y="-147.8" font-family="Arial" font-size="14.00">maturityid </text>
<text text-anchor="start" x="1448.77" y="-147.8" font-family="Arial" font-size="14.00" fill="#666666">[integer]</text>
<polygon fill="none" stroke="black" points="1377.2,-104.8 1377.2,-135.6 1697,-135.6 1697,-104.8 1377.2,-104.8"/>
<text text-anchor="start" x="1384.2" y="-117" font-family="Arial" font-size="14.00">recdatecreated </text>
<text text-anchor="start" x="1481.48" y="-117" font-family="Arial" font-size="14.00" fill="#666666">[timestamp(0) without time zone]</text>
<polygon fill="none" stroke="black" points="1377.2,-74 1377.2,-104.8 1697,-104.8 1697,-74 1377.2,-74"/>
<text text-anchor="start" x="1384.2" y="-86.2" font-family="Arial" font-size="14.00">recdatemodified </text>
<text text-anchor="start" x="1487.7" y="-86.2" font-family="Arial" font-size="14.00" fill="#666666">[timestamp(0) without time zone]</text>
</g>
<!-- ndb.specimens&#45;&gt;ndb.elementmaturities -->
<g id="edge5" class="edge">
<title>ndb.specimens:maturityid&#45;&gt;ndb.elementmaturities:maturityid</title>
<path fill="none" stroke="black" d="M1578.16,-739.92C1415.15,-730.73 1504.77,-494 1589.2,-342.8 1616.68,-293.59 1669.38,-325.14 1697,-276 1724.22,-227.57 1753.56,-151 1698,-151"/>
<polygon fill="black" stroke="black" points="1577.87,-739.92 1587.74,-744.69 1583.2,-740.06 1587.53,-740.18 1587.53,-740.18 1587.53,-740.18 1583.2,-740.06 1587.99,-735.69 1577.87,-739.92"/>
<text text-anchor="start" x="1237.78" y="-750.2" font-family="Arial" font-size="10.00">FOREIGN KEY (maturityid) REFERENCES ndb.elementmaturities(maturityid)</text>
</g>
<!-- ndb.elementportions -->
<g id="node7" class="node">
<title>ndb.elementportions</title>
<polygon fill="#efefef" stroke="none" points="1801.2,-197.2 1801.2,-232.8 2121,-232.8 2121,-197.2 1801.2,-197.2"/>
<polygon fill="none" stroke="black" points="1801.2,-197.2 1801.2,-232.8 2121,-232.8 2121,-197.2 1801.2,-197.2"/>
<text text-anchor="start" x="1825.12" y="-210.6" font-family="Arial Bold" font-size="18.00">ndb.elementportions</text>
<text text-anchor="start" x="1972.59" y="-210.6" font-family="Arial" font-size="14.00">    </text>
<text text-anchor="start" x="2003.71" y="-210.6" font-family="Arial" font-size="14.00" fill="#666666">[BASE TABLE]</text>
<polygon fill="none" stroke="black" points="1801.2,-166.4 1801.2,-197.2 2121,-197.2 2121,-166.4 1801.2,-166.4"/>
<text text-anchor="start" x="1808.2" y="-178.6" font-family="Arial" font-size="14.00">portion </text>
<text text-anchor="start" x="1854.9" y="-178.6" font-family="Arial" font-size="14.00" fill="#666666">[varchar(48)]</text>
<polygon fill="none" stroke="black" points="1801.2,-135.6 1801.2,-166.4 2121,-166.4 2121,-135.6 1801.2,-135.6"/>
<text text-anchor="start" x="1808.2" y="-147.8" font-family="Arial" font-size="14.00">portionid </text>
<text text-anchor="start" x="1865.79" y="-147.8" font-family="Arial" font-size="14.00" fill="#666666">[integer]</text>
<polygon fill="none" stroke="black" points="1801.2,-104.8 1801.2,-135.6 2121,-135.6 2121,-104.8 1801.2,-104.8"/>
<text text-anchor="start" x="1808.2" y="-117" font-family="Arial" font-size="14.00">recdatecreated </text>
<text text-anchor="start" x="1905.48" y="-117" font-family="Arial" font-size="14.00" fill="#666666">[timestamp(0) without time zone]</text>
<polygon fill="none" stroke="black" points="1801.2,-74 1801.2,-104.8 2121,-104.8 2121,-74 1801.2,-74"/>
<text text-anchor="start" x="1808.2" y="-86.2" font-family="Arial" font-size="14.00">recdatemodified </text>
<text text-anchor="start" x="1911.7" y="-86.2" font-family="Arial" font-size="14.00" fill="#666666">[timestamp(0) without time zone]</text>
</g>
<!-- ndb.specimens&#45;&gt;ndb.elementportions -->
<g id="edge6" class="edge">
<title>ndb.specimens:portionid&#45;&gt;ndb.elementportions:portionid</title>
<path fill="none" stroke="black" d="M1920.3,-647.42C2041.84,-638 1973.39,-458.01 1909,-342.8 1881.5,-293.6 1828.81,-325.14 1801.2,-276 1773.98,-227.57 1744.64,-151 1800.2,-151"/>
<polygon fill="black" stroke="black" points="1920.33,-647.41 1910.17,-643.29 1915,-647.61 1910.67,-647.78 1910.67,-647.78 1910.67,-647.78 1915,-647.61 1910.5,-652.28 1920.33,-647.41"/>
<text text-anchor="start" x="1917" y="-657.8" font-family="Arial" font-size="10.00">FOREIGN KEY (portionid) REFERENCES ndb.elementportions(portionid)</text>
</g>
<!-- ndb.repositoryinstitutions -->
<g id="node8" class="node">
<title>ndb.repositoryinstitutions</title>
<polygon fill="#efefef" stroke="none" points="2225.6,-228 2225.6,-263.6 2548.59,-263.6 2548.59,-228 2225.6,-228"/>
<polygon fill="none" stroke="black" points="2225.6,-228 2225.6,-263.6 2548.59,-263.6 2548.59,-228 2225.6,-228"/>
<text text-anchor="start" x="2232.6" y="-241.4" font-family="Arial Bold" font-size="18.00">ndb.repositoryinstitutions</text>
<text text-anchor="start" x="2417.1" y="-241.4" font-family="Arial" font-size="14.00">    </text>
<text text-anchor="start" x="2448.22" y="-241.4" font-family="Arial" font-size="14.00" fill="#666666">[BASE TABLE]</text>
<polygon fill="none" stroke="black" points="2225.6,-197.2 2225.6,-228 2548.59,-228 2548.59,-197.2 2225.6,-197.2"/>
<text text-anchor="start" x="2232.6" y="-209.4" font-family="Arial" font-size="14.00">acronym </text>
<text text-anchor="start" x="2290.18" y="-209.4" font-family="Arial" font-size="14.00" fill="#666666">[varchar(64)]</text>
<polygon fill="none" stroke="black" points="2225.6,-166.4 2225.6,-197.2 2548.59,-197.2 2548.59,-166.4 2225.6,-166.4"/>
<text text-anchor="start" x="2232.6" y="-178.6" font-family="Arial" font-size="14.00">notes </text>
<text text-anchor="start" x="2270.74" y="-178.6" font-family="Arial" font-size="14.00" fill="#666666">[text]</text>
<polygon fill="none" stroke="black" points="2225.6,-135.6 2225.6,-166.4 2548.59,-166.4 2548.59,-135.6 2225.6,-135.6"/>
<text text-anchor="start" x="2232.6" y="-147.8" font-family="Arial" font-size="14.00">recdatecreated </text>
<text text-anchor="start" x="2329.89" y="-147.8" font-family="Arial" font-size="14.00" fill="#666666">[timestamp(0) without time zone]</text>
<polygon fill="none" stroke="black" points="2225.6,-104.8 2225.6,-135.6 2548.59,-135.6 2548.59,-104.8 2225.6,-104.8"/>
<text text-anchor="start" x="2232.6" y="-117" font-family="Arial" font-size="14.00">recdatemodified </text>
<text text-anchor="start" x="2336.11" y="-117" font-family="Arial" font-size="14.00" fill="#666666">[timestamp(0) without time zone]</text>
<polygon fill="none" stroke="black" points="2225.6,-74 2225.6,-104.8 2548.59,-104.8 2548.59,-74 2225.6,-74"/>
<text text-anchor="start" x="2232.6" y="-86.2" font-family="Arial" font-size="14.00">repository </text>
<text text-anchor="start" x="2297.96" y="-86.2" font-family="Arial" font-size="14.00" fill="#666666">[varchar(128)]</text>
<polygon fill="none" stroke="black" points="2225.6,-43.2 2225.6,-74 2548.59,-74 2548.59,-43.2 2225.6,-43.2"/>
<text text-anchor="start" x="2232.6" y="-55.4" font-family="Arial" font-size="14.00">repositoryid </text>
<text text-anchor="start" x="2308.86" y="-55.4" font-family="Arial" font-size="14.00" fill="#666666">[integer]</text>
</g>
<!-- ndb.specimens&#45;&gt;ndb.repositoryinstitutions -->
<g id="edge7" class="edge">
<title>ndb.specimens:repositoryid&#45;&gt;ndb.repositoryinstitutions:repositoryid</title>
<path fill="none" stroke="black" d="M1920.05,-524.47C2063.31,-520.64 2096.56,-433.93 2173.1,-306.8 2231.21,-210.28 2111.94,-58.6 2224.6,-58.6"/>
<polygon fill="black" stroke="black" points="1920.33,-524.46 1910.27,-520.1 1915,-524.53 1910.67,-524.59 1910.67,-524.59 1910.67,-524.59 1915,-524.53 1910.39,-529.1 1920.33,-524.46"/>
<text text-anchor="start" x="1917" y="-534.6" font-family="Arial" font-size="10.00">FOREIGN KEY (repositoryid) REFERENCES ndb.repositoryinstitutions(repositoryid) ON UPDATE CASCADE ON DELETE CASCADE</text>
</g>
<!-- ndb.specimensextypes -->
<g id="node9" class="node">
<title>ndb.specimensextypes</title>
<polygon fill="#efefef" stroke="none" points="2653.2,-197.2 2653.2,-232.8 2973,-232.8 2973,-197.2 2653.2,-197.2"/>
<polygon fill="none" stroke="black" points="2653.2,-197.2 2653.2,-232.8 2973,-232.8 2973,-197.2 2653.2,-197.2"/>
<text text-anchor="start" x="2670.12" y="-210.6" font-family="Arial Bold" font-size="18.00">ndb.specimensextypes</text>
<text text-anchor="start" x="2831.59" y="-210.6" font-family="Arial" font-size="14.00">    </text>
<text text-anchor="start" x="2862.7" y="-210.6" font-family="Arial" font-size="14.00" fill="#666666">[BASE TABLE]</text>
<polygon fill="none" stroke="black" points="2653.2,-166.4 2653.2,-197.2 2973,-197.2 2973,-166.4 2653.2,-166.4"/>
<text text-anchor="start" x="2660.2" y="-178.6" font-family="Arial" font-size="14.00">recdatecreated </text>
<text text-anchor="start" x="2757.48" y="-178.6" font-family="Arial" font-size="14.00" fill="#666666">[timestamp(0) without time zone]</text>
<polygon fill="none" stroke="black" points="2653.2,-135.6 2653.2,-166.4 2973,-166.4 2973,-135.6 2653.2,-135.6"/>
<text text-anchor="start" x="2660.2" y="-147.8" font-family="Arial" font-size="14.00">recdatemodified </text>
<text text-anchor="start" x="2763.7" y="-147.8" font-family="Arial" font-size="14.00" fill="#666666">[timestamp(0) without time zone]</text>
<polygon fill="none" stroke="black" points="2653.2,-104.8 2653.2,-135.6 2973,-135.6 2973,-104.8 2653.2,-104.8"/>
<text text-anchor="start" x="2660.2" y="-117" font-family="Arial" font-size="14.00">sex </text>
<text text-anchor="start" x="2685.88" y="-117" font-family="Arial" font-size="14.00" fill="#666666">[varchar(24)]</text>
<polygon fill="none" stroke="black" points="2653.2,-74 2653.2,-104.8 2973,-104.8 2973,-74 2653.2,-74"/>
<text text-anchor="start" x="2660.2" y="-86.2" font-family="Arial" font-size="14.00">sexid </text>
<text text-anchor="start" x="2696.77" y="-86.2" font-family="Arial" font-size="14.00" fill="#666666">[integer]</text>
</g>
<!-- ndb.specimens&#45;&gt;ndb.specimensextypes -->
<g id="edge8" class="edge">
<title>ndb.specimens:sexid&#45;&gt;ndb.specimensextypes:sexid</title>
<path fill="none" stroke="black" d="M1920.11,-493.71C2086.25,-490.8 2492.76,-418.82 2601.1,-306.8 2670.1,-235.45 2552.94,-89.4 2652.2,-89.4"/>
<polygon fill="black" stroke="black" points="1920.33,-493.71 1910.29,-489.3 1915,-493.75 1910.67,-493.79 1910.67,-493.79 1910.67,-493.79 1915,-493.75 1910.37,-498.3 1920.33,-493.71"/>
<text text-anchor="start" x="1917" y="-503.8" font-family="Arial" font-size="10.00">FOREIGN KEY (sexid) REFERENCES ndb.specimensextypes(sexid) ON UPDATE CASCADE ON DELETE CASCADE</text>
</g>
<!-- ndb.elementsymmetries -->
<g id="node13" class="node">
<title>ndb.elementsymmetries</title>
<polygon fill="#efefef" stroke="none" points="3077.2,-197.2 3077.2,-232.8 3397,-232.8 3397,-197.2 3077.2,-197.2"/>
<polygon fill="none" stroke="black" points="3077.2,-197.2 3077.2,-232.8 3397,-232.8 3397,-197.2 3077.2,-197.2"/>
<text text-anchor="start" x="3089.13" y="-210.6" font-family="Arial Bold" font-size="18.00">ndb.elementsymmetries</text>
<text text-anchor="start" x="3260.58" y="-210.6" font-family="Arial" font-size="14.00">    </text>
<text text-anchor="start" x="3291.7" y="-210.6" font-family="Arial" font-size="14.00" fill="#666666">[BASE TABLE]</text>
<polygon fill="none" stroke="black" points="3077.2,-166.4 3077.2,-197.2 3397,-197.2 3397,-166.4 3077.2,-166.4"/>
<text text-anchor="start" x="3084.2" y="-178.6" font-family="Arial" font-size="14.00">recdatecreated </text>
<text text-anchor="start" x="3181.48" y="-178.6" font-family="Arial" font-size="14.00" fill="#666666">[timestamp(0) without time zone]</text>
<polygon fill="none" stroke="black" points="3077.2,-135.6 3077.2,-166.4 3397,-166.4 3397,-135.6 3077.2,-135.6"/>
<text text-anchor="start" x="3084.2" y="-147.8" font-family="Arial" font-size="14.00">recdatemodified </text>
<text text-anchor="start" x="3187.7" y="-147.8" font-family="Arial" font-size="14.00" fill="#666666">[timestamp(0) without time zone]</text>
<polygon fill="none" stroke="black" points="3077.2,-104.8 3077.2,-135.6 3397,-135.6 3397,-104.8 3077.2,-104.8"/>
<text text-anchor="start" x="3084.2" y="-117" font-family="Arial" font-size="14.00">symmetry </text>
<text text-anchor="start" x="3148.75" y="-117" font-family="Arial" font-size="14.00" fill="#666666">[varchar(24)]</text>
<polygon fill="none" stroke="black" points="3077.2,-74 3077.2,-104.8 3397,-104.8 3397,-74 3077.2,-74"/>
<text text-anchor="start" x="3084.2" y="-86.2" font-family="Arial" font-size="14.00">symmetryid </text>
<text text-anchor="start" x="3159.65" y="-86.2" font-family="Arial" font-size="14.00" fill="#666666">[integer]</text>
</g>
<!-- ndb.specimens&#45;&gt;ndb.elementsymmetries -->
<g id="edge12" class="edge">
<title>ndb.specimens:symmetryid&#45;&gt;ndb.elementsymmetries:symmetryid</title>
<path fill="none" stroke="black" d="M1919.99,-401.38C2075.93,-400.74 2933.19,-386.16 3025.1,-306.8 3100.22,-241.93 2976.94,-89.4 3076.2,-89.4"/>
<polygon fill="black" stroke="black" points="1920.33,-401.38 1910.32,-396.9 1915,-401.39 1910.67,-401.4 1910.67,-401.4 1910.67,-401.4 1915,-401.39 1910.34,-405.9 1920.33,-401.38"/>
<text text-anchor="start" x="1917" y="-411.4" font-family="Arial" font-size="10.00">FOREIGN KEY (symmetryid) REFERENCES ndb.elementsymmetries(symmetryid)</text>
</g>
<!-- ndb.isospecimendata -->
<g id="node10" class="node">
<title>ndb.isospecimendata</title>
<polygon fill="#efefef" stroke="none" points="1377.2,-1314 1377.2,-1349.6 1697,-1349.6 1697,-1314 1377.2,-1314"/>
<polygon fill="none" stroke="black" points="1377.2,-1314 1377.2,-1349.6 1697,-1349.6 1697,-1314 1377.2,-1314"/>
<text text-anchor="start" x="1399.62" y="-1327.4" font-family="Arial Bold" font-size="18.00">ndb.isospecimendata</text>
<text text-anchor="start" x="1550.08" y="-1327.4" font-family="Arial" font-size="14.00">    </text>
<text text-anchor="start" x="1581.2" y="-1327.4" font-family="Arial" font-size="14.00" fill="#666666">[BASE TABLE]</text>
<polygon fill="none" stroke="black" points="1377.2,-1283.2 1377.2,-1314 1697,-1314 1697,-1283.2 1377.2,-1283.2"/>
<text text-anchor="start" x="1384.2" y="-1295.4" font-family="Arial" font-size="14.00">dataid </text>
<text text-anchor="start" x="1426.23" y="-1295.4" font-family="Arial" font-size="14.00" fill="#666666">[integer]</text>
<polygon fill="none" stroke="black" points="1377.2,-1252.4 1377.2,-1283.2 1697,-1283.2 1697,-1252.4 1377.2,-1252.4"/>
<text text-anchor="start" x="1384.2" y="-1264.6" font-family="Arial" font-size="14.00">isospecimendataid </text>
<text text-anchor="start" x="1504.05" y="-1264.6" font-family="Arial" font-size="14.00" fill="#666666">[integer]</text>
<polygon fill="none" stroke="black" points="1377.2,-1221.6 1377.2,-1252.4 1697,-1252.4 1697,-1221.6 1377.2,-1221.6"/>
<text text-anchor="start" x="1384.2" y="-1233.8" font-family="Arial" font-size="14.00">recdatecreated </text>
<text text-anchor="start" x="1481.48" y="-1233.8" font-family="Arial" font-size="14.00" fill="#666666">[timestamp(0) without time zone]</text>
<polygon fill="none" stroke="black" points="1377.2,-1190.8 1377.2,-1221.6 1697,-1221.6 1697,-1190.8 1377.2,-1190.8"/>
<text text-anchor="start" x="1384.2" y="-1203" font-family="Arial" font-size="14.00">recdatemodified </text>
<text text-anchor="start" x="1487.7" y="-1203" font-family="Arial" font-size="14.00" fill="#666666">[timestamp(0) without time zone]</text>
<polygon fill="none" stroke="black" points="1377.2,-1160 1377.2,-1190.8 1697,-1190.8 1697,-1160 1377.2,-1160"/>
<text text-anchor="start" x="1384.2" y="-1172.2" font-family="Arial" font-size="14.00">sd </text>
<text text-anchor="start" x="1402.88" y="-1172.2" font-family="Arial" font-size="14.00" fill="#666666">[double precision]</text>
<polygon fill="none" stroke="black" points="1377.2,-1129.2 1377.2,-1160 1697,-1160 1697,-1129.2 1377.2,-1129.2"/>
<text text-anchor="start" x="1384.2" y="-1141.4" font-family="Arial" font-size="14.00">specimenid </text>
<text text-anchor="start" x="1458.9" y="-1141.4" font-family="Arial" font-size="14.00" fill="#666666">[integer]</text>
</g>
<!-- ndb.isospecimendata&#45;&gt;ndb.specimens -->
<g id="edge9" class="edge">
<title>ndb.isospecimendata:specimenid&#45;&gt;ndb.specimens:specimenid</title>
<path fill="none" stroke="black" d="M1707.92,-1141.74C1718.61,-1132.94 1705.91,-1105.64 1697,-1086 1670.29,-1027.15 1615.46,-1047.45 1589.2,-988.4 1494.31,-775.04 1354.69,-463 1588.2,-463"/>
<polygon fill="black" stroke="black" points="1707.93,-1141.74 1697.07,-1140.18 1702.8,-1143.22 1698.64,-1144.41 1698.64,-1144.41 1698.64,-1144.41 1702.8,-1143.22 1699.57,-1148.83 1707.93,-1141.74"/>
<text text-anchor="start" x="1253.65" y="-1128.6" font-family="Arial" font-size="10.00">FOREIGN KEY (specimenid) REFERENCES ndb.specimens(specimenid) ON DELETE CASCADE</text>
</g>
<!-- ndb.specimendates -->
<g id="node11" class="node">
<title>ndb.specimendates</title>
<polygon fill="#efefef" stroke="none" points="1801.2,-1375.6 1801.2,-1411.2 2121,-1411.2 2121,-1375.6 1801.2,-1375.6"/>
<polygon fill="none" stroke="black" points="1801.2,-1375.6 1801.2,-1411.2 2121,-1411.2 2121,-1375.6 1801.2,-1375.6"/>
<text text-anchor="start" x="1830.63" y="-1389" font-family="Arial Bold" font-size="18.00">ndb.specimendates</text>
<text text-anchor="start" x="1967.08" y="-1389" font-family="Arial" font-size="14.00">    </text>
<text text-anchor="start" x="1998.2" y="-1389" font-family="Arial" font-size="14.00" fill="#666666">[BASE TABLE]</text>
<polygon fill="none" stroke="black" points="1801.2,-1344.8 1801.2,-1375.6 2121,-1375.6 2121,-1344.8 1801.2,-1344.8"/>
<text text-anchor="start" x="1808.2" y="-1357" font-family="Arial" font-size="14.00">elementtypeid </text>
<text text-anchor="start" x="1899.25" y="-1357" font-family="Arial" font-size="14.00" fill="#666666">[integer]</text>
<polygon fill="none" stroke="black" points="1801.2,-1314 1801.2,-1344.8 2121,-1344.8 2121,-1314 1801.2,-1314"/>
<text text-anchor="start" x="1808.2" y="-1326.2" font-family="Arial" font-size="14.00">fractionid </text>
<text text-anchor="start" x="1868.9" y="-1326.2" font-family="Arial" font-size="14.00" fill="#666666">[integer]</text>
<polygon fill="none" stroke="black" points="1801.2,-1283.2 1801.2,-1314 2121,-1314 2121,-1283.2 1801.2,-1283.2"/>
<text text-anchor="start" x="1808.2" y="-1295.4" font-family="Arial" font-size="14.00">geochronid </text>
<text text-anchor="start" x="1881.37" y="-1295.4" font-family="Arial" font-size="14.00" fill="#666666">[integer]</text>
<polygon fill="none" stroke="black" points="1801.2,-1252.4 1801.2,-1283.2 2121,-1283.2 2121,-1252.4 1801.2,-1252.4"/>
<text text-anchor="start" x="1808.2" y="-1264.6" font-family="Arial" font-size="14.00">notes </text>
<text text-anchor="start" x="1846.34" y="-1264.6" font-family="Arial" font-size="14.00" fill="#666666">[text]</text>
<polygon fill="none" stroke="black" points="1801.2,-1221.6 1801.2,-1252.4 2121,-1252.4 2121,-1221.6 1801.2,-1221.6"/>
<text text-anchor="start" x="1808.2" y="-1233.8" font-family="Arial" font-size="14.00">recdatecreated </text>
<text text-anchor="start" x="1905.48" y="-1233.8" font-family="Arial" font-size="14.00" fill="#666666">[timestamp(0) without time zone]</text>
<polygon fill="none" stroke="black" points="1801.2,-1190.8 1801.2,-1221.6 2121,-1221.6 2121,-1190.8 1801.2,-1190.8"/>
<text text-anchor="start" x="1808.2" y="-1203" font-family="Arial" font-size="14.00">recdatemodified </text>
<text text-anchor="start" x="1911.7" y="-1203" font-family="Arial" font-size="14.00" fill="#666666">[timestamp(0) without time zone]</text>
<polygon fill="none" stroke="black" points="1801.2,-1160 1801.2,-1190.8 2121,-1190.8 2121,-1160 1801.2,-1160"/>
<text text-anchor="start" x="1808.2" y="-1172.2" font-family="Arial" font-size="14.00">sampleid </text>
<text text-anchor="start" x="1868.12" y="-1172.2" font-family="Arial" font-size="14.00" fill="#666666">[integer]</text>
<polygon fill="none" stroke="black" points="1801.2,-1129.2 1801.2,-1160 2121,-1160 2121,-1129.2 1801.2,-1129.2"/>
<text text-anchor="start" x="1808.2" y="-1141.4" font-family="Arial" font-size="14.00">specimendateid </text>
<text text-anchor="start" x="1910.15" y="-1141.4" font-family="Arial" font-size="14.00" fill="#666666">[integer]</text>
<polygon fill="none" stroke="black" points="1801.2,-1098.4 1801.2,-1129.2 2121,-1129.2 2121,-1098.4 1801.2,-1098.4"/>
<text text-anchor="start" x="1808.2" y="-1110.6" font-family="Arial" font-size="14.00">specimenid </text>
<text text-anchor="start" x="1882.9" y="-1110.6" font-family="Arial" font-size="14.00" fill="#666666">[integer]</text>
<polygon fill="none" stroke="black" points="1801.2,-1067.6 1801.2,-1098.4 2121,-1098.4 2121,-1067.6 1801.2,-1067.6"/>
<text text-anchor="start" x="1808.2" y="-1079.8" font-family="Arial" font-size="14.00">taxonid </text>
<text text-anchor="start" x="1857.23" y="-1079.8" font-family="Arial" font-size="14.00" fill="#666666">[integer]</text>
</g>
<!-- ndb.specimendates&#45;&gt;ndb.specimens -->
<g id="edge10" class="edge">
<title>ndb.specimendates:specimenid&#45;&gt;ndb.specimens:specimenid</title>
<path fill="none" stroke="black" d="M1790.14,-1112.24C1763.91,-1102.85 1780.08,-1053.38 1801.2,-1024.4 1830.95,-983.58 1879.44,-1029.36 1909,-988.4 2045.66,-799.06 2143.51,-463 1910,-463"/>
<polygon fill="black" stroke="black" points="1789.99,-1112.21 1799.18,-1118.2 1795.26,-1113.03 1799.54,-1113.7 1799.54,-1113.7 1799.54,-1113.7 1795.26,-1113.03 1800.56,-1109.3 1789.99,-1112.21"/>
<text text-anchor="start" x="1807.2" y="-1097.8" font-family="Arial" font-size="10.00">FOREIGN KEY (specimenid) REFERENCES ndb.specimens(specimenid) ON UPDATE CASCADE ON DELETE CASCADE</text>
</g>
<!-- ndb.specimentaphonomy -->
<g id="node12" class="node">
<title>ndb.specimentaphonomy</title>
<polygon fill="#efefef" stroke="none" points="2225.2,-1283.2 2225.2,-1318.8 2545,-1318.8 2545,-1283.2 2225.2,-1283.2"/>
<polygon fill="none" stroke="black" points="2225.2,-1283.2 2225.2,-1318.8 2545,-1318.8 2545,-1283.2 2225.2,-1283.2"/>
<text text-anchor="start" x="2232.62" y="-1296.6" font-family="Arial Bold" font-size="18.00">ndb.specimentaphonomy</text>
<text text-anchor="start" x="2413.09" y="-1296.6" font-family="Arial" font-size="14.00">    </text>
<text text-anchor="start" x="2444.2" y="-1296.6" font-family="Arial" font-size="14.00" fill="#666666">[BASE TABLE]</text>
<polygon fill="none" stroke="black" points="2225.2,-1252.4 2225.2,-1283.2 2545,-1283.2 2545,-1252.4 2225.2,-1252.4"/>
<text text-anchor="start" x="2232.2" y="-1264.6" font-family="Arial" font-size="14.00">recdatecreated </text>
<text text-anchor="start" x="2329.48" y="-1264.6" font-family="Arial" font-size="14.00" fill="#666666">[timestamp(0) without time zone]</text>
<polygon fill="none" stroke="black" points="2225.2,-1221.6 2225.2,-1252.4 2545,-1252.4 2545,-1221.6 2225.2,-1221.6"/>
<text text-anchor="start" x="2232.2" y="-1233.8" font-family="Arial" font-size="14.00">recdatemodified </text>
<text text-anchor="start" x="2335.7" y="-1233.8" font-family="Arial" font-size="14.00" fill="#666666">[timestamp(0) without time zone]</text>
<polygon fill="none" stroke="black" points="2225.2,-1190.8 2225.2,-1221.6 2545,-1221.6 2545,-1190.8 2225.2,-1190.8"/>
<text text-anchor="start" x="2232.2" y="-1203" font-family="Arial" font-size="14.00">specimenid </text>
<text text-anchor="start" x="2306.9" y="-1203" font-family="Arial" font-size="14.00" fill="#666666">[integer]</text>
<polygon fill="none" stroke="black" points="2225.2,-1160 2225.2,-1190.8 2545,-1190.8 2545,-1160 2225.2,-1160"/>
<text text-anchor="start" x="2232.2" y="-1172.2" font-family="Arial" font-size="14.00">taphonomictypeid </text>
<text text-anchor="start" x="2345.83" y="-1172.2" font-family="Arial" font-size="14.00" fill="#666666">[integer]</text>
</g>
<!-- ndb.specimentaphonomy&#45;&gt;ndb.specimens -->
<g id="edge11" class="edge">
<title>ndb.specimentaphonomy:specimenid&#45;&gt;ndb.specimens:specimenid</title>
<path fill="none" stroke="black" d="M2214.17,-1205.64C2145.44,-1197.38 2201.1,-1099.68 2173.1,-1024.4 2077.03,-766.14 2185.55,-463 1910,-463"/>
<polygon fill="black" stroke="black" points="2213.88,-1205.62 2223.61,-1210.67 2219.21,-1205.92 2223.53,-1206.16 2223.53,-1206.16 2223.53,-1206.16 2219.21,-1205.92 2224.12,-1201.69 2213.88,-1205.62"/>
<text text-anchor="start" x="2231.2" y="-1216.2" font-family="Arial" font-size="10.00">FOREIGN KEY (specimenid) REFERENCES ndb.specimens(specimenid) ON UPDATE CASCADE ON DELETE CASCADE</text>
</g>
</g>
</svg>
