<?xml version="1.0" encoding="UTF-8" standalone="no"?>
<!DOCTYPE svg PUBLIC "-//W3C//DTD SVG 1.1//EN"
 "http://www.w3.org/Graphics/SVG/1.1/DTD/svg11.dtd">
<!-- Generated by graphviz version 12.1.2 (20240928.0832)
 -->
<!-- Title: ndb.dsageranges Pages: 1 -->
<svg width="309pt" height="259pt"
 viewBox="0.00 0.00 308.54 259.20" xmlns="http://www.w3.org/2000/svg" xmlns:xlink="http://www.w3.org/1999/xlink">
<g id="graph0" class="graph" transform="scale(1 1) rotate(0) translate(4 255.2)">
<title>ndb.dsageranges</title>
<polygon fill="white" stroke="none" points="-4,4 -4,-255.2 304.54,-255.2 304.54,4 -4,4"/>
<!-- ndb.dsageranges -->
<g id="node1" class="node">
<title>ndb.dsageranges</title>
<polygon fill="#efefef" stroke="none" points="46.2,-169.4 46.2,-205 254.34,-205 254.34,-169.4 46.2,-169.4"/>
<polygon fill="none" stroke="black" points="46.2,-169.4 46.2,-205 254.34,-205 254.34,-169.4 46.2,-169.4"/>
<text text-anchor="start" x="53.2" y="-182.8" font-family="Arial Bold" font-size="18.00">ndb.dsageranges</text>
<text text-anchor="start" x="172.66" y="-182.8" font-family="Arial" font-size="14.00">    </text>
<text text-anchor="start" x="203.78" y="-182.8" font-family="Arial" font-size="14.00" fill="#666666">[VIEW]</text>
<polygon fill="none" stroke="black" points="46.2,-138.6 46.2,-169.4 254.34,-169.4 254.34,-138.6 46.2,-138.6"/>
<text text-anchor="start" x="53.2" y="-150.8" font-family="Arial" font-size="14.00">datasetid </text>
<text text-anchor="start" x="113.91" y="-150.8" font-family="Arial" font-size="14.00" fill="#666666">[integer]</text>
<polygon fill="none" stroke="black" points="46.2,-107.8 46.2,-138.6 254.34,-138.6 254.34,-107.8 46.2,-107.8"/>
<text text-anchor="start" x="53.2" y="-120" font-family="Arial" font-size="14.00">younger </text>
<text text-anchor="start" x="107.68" y="-120" font-family="Arial" font-size="14.00" fill="#666666">[double precision]</text>
<polygon fill="none" stroke="black" points="46.2,-77 46.2,-107.8 254.34,-107.8 254.34,-77 46.2,-77"/>
<text text-anchor="start" x="53.2" y="-89.2" font-family="Arial" font-size="14.00">older </text>
<text text-anchor="start" x="88.22" y="-89.2" font-family="Arial" font-size="14.00" fill="#666666">[double precision]</text>
<polygon fill="none" stroke="black" points="46.2,-46.2 46.2,-77 254.34,-77 254.34,-46.2 46.2,-46.2"/>
<text text-anchor="start" x="53.2" y="-58.4" font-family="Arial" font-size="14.00">agetypeid </text>
<text text-anchor="start" x="117.81" y="-58.4" font-family="Arial" font-size="14.00" fill="#666666">[integer]</text>
<polygon fill="none" stroke="black" stroke-width="3" points="44.7,-44.7 44.7,-206.5 255.84,-206.5 255.84,-44.7 44.7,-44.7"/>
</g>
</g>
</svg>
