<?xml version="1.0" encoding="UTF-8" standalone="no"?>
<!DOCTYPE svg PUBLIC "-//W3C//DTD SVG 1.1//EN"
 "http://www.w3.org/Graphics/SVG/1.1/DTD/svg11.dtd">
<!-- Generated by graphviz version 12.1.2 (20240928.0832)
 -->
<!-- Title: ndb.ecolgrouptypes Pages: 1 -->
<svg width="1465pt" height="873pt"
 viewBox="0.00 0.00 1464.81 873.20" xmlns="http://www.w3.org/2000/svg" xmlns:xlink="http://www.w3.org/1999/xlink">
<g id="graph0" class="graph" transform="scale(1 1) rotate(0) translate(4 869.2)">
<title>ndb.ecolgrouptypes</title>
<polygon fill="white" stroke="none" points="-4,4 -4,-869.2 1460.81,-869.2 1460.81,4 -4,4"/>
<!-- ndb.ecolgrouptypes -->
<g id="node1" class="node">
<title>ndb.ecolgrouptypes</title>
<polygon fill="#efefef" stroke="none" points="159.86,-320.4 159.86,-356 479.66,-356 479.66,-320.4 159.86,-320.4"/>
<polygon fill="none" stroke="black" points="159.86,-320.4 159.86,-356 479.66,-356 479.66,-320.4 159.86,-320.4"/>
<text text-anchor="start" x="186.78" y="-333.8" font-family="Arial Bold" font-size="18.00">ndb.ecolgrouptypes</text>
<text text-anchor="start" x="328.25" y="-333.8" font-family="Arial" font-size="14.00">    </text>
<text text-anchor="start" x="359.37" y="-333.8" font-family="Arial" font-size="14.00" fill="#666666">[BASE TABLE]</text>
<polygon fill="none" stroke="black" points="159.86,-289.6 159.86,-320.4 479.66,-320.4 479.66,-289.6 159.86,-289.6"/>
<text text-anchor="start" x="166.86" y="-301.8" font-family="Arial" font-size="14.00">ecolgroupid </text>
<text text-anchor="start" x="243.14" y="-301.8" font-family="Arial" font-size="14.00" fill="#666666">[varchar(4)]</text>
<polygon fill="none" stroke="black" points="159.86,-258.8 159.86,-289.6 479.66,-289.6 479.66,-258.8 159.86,-258.8"/>
<text text-anchor="start" x="166.86" y="-271" font-family="Arial" font-size="14.00">ecolgroup </text>
<text text-anchor="start" x="232.24" y="-271" font-family="Arial" font-size="14.00" fill="#666666">[varchar(64)]</text>
<polygon fill="none" stroke="black" points="159.86,-228 159.86,-258.8 479.66,-258.8 479.66,-228 159.86,-228"/>
<text text-anchor="start" x="166.86" y="-240.2" font-family="Arial" font-size="14.00">recdatecreated </text>
<text text-anchor="start" x="264.14" y="-240.2" font-family="Arial" font-size="14.00" fill="#666666">[timestamp(0) without time zone]</text>
<polygon fill="none" stroke="black" points="159.86,-197.2 159.86,-228 479.66,-228 479.66,-197.2 159.86,-197.2"/>
<text text-anchor="start" x="166.86" y="-209.4" font-family="Arial" font-size="14.00">recdatemodified </text>
<text text-anchor="start" x="270.36" y="-209.4" font-family="Arial" font-size="14.00" fill="#666666">[timestamp(0) without time zone]</text>
<polygon fill="none" stroke="black" stroke-width="3" points="158.36,-195.7 158.36,-357.5 481.16,-357.5 481.16,-195.7 158.36,-195.7"/>
</g>
<!-- ndb.ecolgroups -->
<g id="node2" class="node">
<title>ndb.ecolgroups</title>
<polygon fill="#efefef" stroke="none" points="586.86,-786.4 586.86,-822 906.66,-822 906.66,-786.4 586.86,-786.4"/>
<polygon fill="none" stroke="black" points="586.86,-786.4 586.86,-822 906.66,-822 906.66,-786.4 586.86,-786.4"/>
<text text-anchor="start" x="629.28" y="-799.8" font-family="Arial Bold" font-size="18.00">ndb.ecolgroups</text>
<text text-anchor="start" x="739.75" y="-799.8" font-family="Arial" font-size="14.00">    </text>
<text text-anchor="start" x="770.87" y="-799.8" font-family="Arial" font-size="14.00" fill="#666666">[BASE TABLE]</text>
<polygon fill="none" stroke="black" points="586.86,-755.6 586.86,-786.4 906.66,-786.4 906.66,-755.6 586.86,-755.6"/>
<text text-anchor="start" x="593.86" y="-767.8" font-family="Arial" font-size="14.00">taxonid </text>
<text text-anchor="start" x="642.89" y="-767.8" font-family="Arial" font-size="14.00" fill="#666666">[integer]</text>
<polygon fill="none" stroke="black" points="586.86,-724.8 586.86,-755.6 906.66,-755.6 906.66,-724.8 586.86,-724.8"/>
<text text-anchor="start" x="593.86" y="-737" font-family="Arial" font-size="14.00">ecolsetid </text>
<text text-anchor="start" x="653" y="-737" font-family="Arial" font-size="14.00" fill="#666666">[integer]</text>
<polygon fill="none" stroke="black" points="586.86,-694 586.86,-724.8 906.66,-724.8 906.66,-694 586.86,-694"/>
<text text-anchor="start" x="593.86" y="-706.2" font-family="Arial" font-size="14.00">ecolgroupid </text>
<text text-anchor="start" x="670.14" y="-706.2" font-family="Arial" font-size="14.00" fill="#666666">[varchar(4)]</text>
<polygon fill="none" stroke="black" points="586.86,-663.2 586.86,-694 906.66,-694 906.66,-663.2 586.86,-663.2"/>
<text text-anchor="start" x="593.86" y="-675.4" font-family="Arial" font-size="14.00">recdatecreated </text>
<text text-anchor="start" x="691.14" y="-675.4" font-family="Arial" font-size="14.00" fill="#666666">[timestamp(0) without time zone]</text>
<polygon fill="none" stroke="black" points="586.86,-632.4 586.86,-663.2 906.66,-663.2 906.66,-632.4 586.86,-632.4"/>
<text text-anchor="start" x="593.86" y="-644.6" font-family="Arial" font-size="14.00">recdatemodified </text>
<text text-anchor="start" x="697.36" y="-644.6" font-family="Arial" font-size="14.00" fill="#666666">[timestamp(0) without time zone]</text>
</g>
<!-- ndb.ecolgroups&#45;&gt;ndb.ecolgrouptypes -->
<g id="edge1" class="edge">
<title>ndb.ecolgroups:ecolgroupid&#45;&gt;ndb.ecolgrouptypes:ecolgroupid</title>
<path fill="none" stroke="black" d="M575.59,-708.75C516.84,-700.73 552.95,-620.11 534.76,-553.2 519.95,-498.73 537.11,-305 480.66,-305"/>
<polygon fill="black" stroke="black" points="575.55,-708.75 585.24,-713.87 580.87,-709.08 585.19,-709.36 585.19,-709.36 585.19,-709.36 580.87,-709.08 585.81,-704.89 575.55,-708.75"/>
<text text-anchor="start" x="7" y="-719.4" font-family="Arial" font-size="10.00">FOREIGN KEY (ecolgroupid) REFERENCES ndb.ecolgrouptypes(ecolgroupid) ON UPDATE CASCADE ON DELETE CASCADE</text>
</g>
<!-- ndb.taxa -->
<g id="node3" class="node">
<title>ndb.taxa</title>
<polygon fill="#efefef" stroke="none" points="586.86,-474.4 586.86,-510 906.66,-510 906.66,-474.4 586.86,-474.4"/>
<polygon fill="none" stroke="black" points="586.86,-474.4 586.86,-510 906.66,-510 906.66,-474.4 586.86,-474.4"/>
<text text-anchor="start" x="653.78" y="-487.8" font-family="Arial Bold" font-size="18.00">ndb.taxa</text>
<text text-anchor="start" x="715.25" y="-487.8" font-family="Arial" font-size="14.00">    </text>
<text text-anchor="start" x="746.37" y="-487.8" font-family="Arial" font-size="14.00" fill="#666666">[BASE TABLE]</text>
<polygon fill="none" stroke="black" points="586.86,-443.6 586.86,-474.4 906.66,-474.4 906.66,-443.6 586.86,-443.6"/>
<text text-anchor="start" x="593.86" y="-455.8" font-family="Arial" font-size="14.00">taxonid </text>
<text text-anchor="start" x="642.89" y="-455.8" font-family="Arial" font-size="14.00" fill="#666666">[integer]</text>
<polygon fill="none" stroke="black" points="586.86,-412.8 586.86,-443.6 906.66,-443.6 906.66,-412.8 586.86,-412.8"/>
<text text-anchor="start" x="593.86" y="-425" font-family="Arial" font-size="14.00">taxoncode </text>
<text text-anchor="start" x="662.36" y="-425" font-family="Arial" font-size="14.00" fill="#666666">[varchar(64)]</text>
<polygon fill="none" stroke="black" points="586.86,-382 586.86,-412.8 906.66,-412.8 906.66,-382 586.86,-382"/>
<text text-anchor="start" x="593.86" y="-394.2" font-family="Arial" font-size="14.00">taxonname </text>
<text text-anchor="start" x="667.02" y="-394.2" font-family="Arial" font-size="14.00" fill="#666666">[text]</text>
<polygon fill="none" stroke="black" points="586.86,-351.2 586.86,-382 906.66,-382 906.66,-351.2 586.86,-351.2"/>
<text text-anchor="start" x="593.86" y="-363.4" font-family="Arial" font-size="14.00">author </text>
<text text-anchor="start" x="637.45" y="-363.4" font-family="Arial" font-size="14.00" fill="#666666">[varchar(128)]</text>
<polygon fill="none" stroke="black" points="586.86,-320.4 586.86,-351.2 906.66,-351.2 906.66,-320.4 586.86,-320.4"/>
<text text-anchor="start" x="593.86" y="-332.6" font-family="Arial" font-size="14.00">valid </text>
<text text-anchor="start" x="626.54" y="-332.6" font-family="Arial" font-size="14.00" fill="#666666">[boolean]</text>
<polygon fill="none" stroke="black" points="586.86,-289.6 586.86,-320.4 906.66,-320.4 906.66,-289.6 586.86,-289.6"/>
<text text-anchor="start" x="593.86" y="-301.8" font-family="Arial" font-size="14.00">highertaxonid </text>
<text text-anchor="start" x="681.81" y="-301.8" font-family="Arial" font-size="14.00" fill="#666666">[integer]</text>
<polygon fill="none" stroke="black" points="586.86,-258.8 586.86,-289.6 906.66,-289.6 906.66,-258.8 586.86,-258.8"/>
<text text-anchor="start" x="593.86" y="-271" font-family="Arial" font-size="14.00">extinct </text>
<text text-anchor="start" x="638.21" y="-271" font-family="Arial" font-size="14.00" fill="#666666">[boolean]</text>
<polygon fill="none" stroke="black" points="586.86,-228 586.86,-258.8 906.66,-258.8 906.66,-228 586.86,-228"/>
<text text-anchor="start" x="593.86" y="-240.2" font-family="Arial" font-size="14.00">taxagroupid </text>
<text text-anchor="start" x="670.92" y="-240.2" font-family="Arial" font-size="14.00" fill="#666666">[varchar(3)]</text>
<polygon fill="none" stroke="black" points="586.86,-197.2 586.86,-228 906.66,-228 906.66,-197.2 586.86,-197.2"/>
<text text-anchor="start" x="593.86" y="-209.4" font-family="Arial" font-size="14.00">publicationid </text>
<text text-anchor="start" x="675.58" y="-209.4" font-family="Arial" font-size="14.00" fill="#666666">[integer]</text>
<polygon fill="none" stroke="black" points="586.86,-166.4 586.86,-197.2 906.66,-197.2 906.66,-166.4 586.86,-166.4"/>
<text text-anchor="start" x="593.86" y="-178.6" font-family="Arial" font-size="14.00">validatorid </text>
<text text-anchor="start" x="661.56" y="-178.6" font-family="Arial" font-size="14.00" fill="#666666">[integer]</text>
<polygon fill="none" stroke="black" points="586.86,-135.6 586.86,-166.4 906.66,-166.4 906.66,-135.6 586.86,-135.6"/>
<text text-anchor="start" x="593.86" y="-147.8" font-family="Arial" font-size="14.00">validatedate </text>
<text text-anchor="start" x="673.25" y="-147.8" font-family="Arial" font-size="14.00" fill="#666666">[date]</text>
<polygon fill="none" stroke="black" points="586.86,-104.8 586.86,-135.6 906.66,-135.6 906.66,-104.8 586.86,-104.8"/>
<text text-anchor="start" x="593.86" y="-117" font-family="Arial" font-size="14.00">notes </text>
<text text-anchor="start" x="632" y="-117" font-family="Arial" font-size="14.00" fill="#666666">[text]</text>
<polygon fill="none" stroke="black" points="586.86,-74 586.86,-104.8 906.66,-104.8 906.66,-74 586.86,-74"/>
<text text-anchor="start" x="593.86" y="-86.2" font-family="Arial" font-size="14.00">recdatecreated </text>
<text text-anchor="start" x="691.14" y="-86.2" font-family="Arial" font-size="14.00" fill="#666666">[timestamp(0) without time zone]</text>
<polygon fill="none" stroke="black" points="586.86,-43.2 586.86,-74 906.66,-74 906.66,-43.2 586.86,-43.2"/>
<text text-anchor="start" x="593.86" y="-55.4" font-family="Arial" font-size="14.00">recdatemodified </text>
<text text-anchor="start" x="697.36" y="-55.4" font-family="Arial" font-size="14.00" fill="#666666">[timestamp(0) without time zone]</text>
</g>
<!-- ndb.ecolgroups&#45;&gt;ndb.taxa -->
<g id="edge2" class="edge">
<title>ndb.ecolgroups:taxonid&#45;&gt;ndb.taxa:taxonid</title>
<path fill="none" stroke="black" d="M917.69,-768.67C976.81,-740.12 973.47,-459 907.66,-459"/>
<polygon fill="black" stroke="black" points="917.72,-768.66 906.97,-766.54 912.53,-769.87 908.31,-770.85 908.31,-770.85 908.31,-770.85 912.53,-769.87 909,-775.31 917.72,-768.66"/>
<text text-anchor="start" x="914.66" y="-781" font-family="Arial" font-size="10.00">FOREIGN KEY (taxonid) REFERENCES ndb.taxa(taxonid) ON UPDATE CASCADE ON DELETE CASCADE</text>
</g>
<!-- ndb.ecolsettypes -->
<g id="node4" class="node">
<title>ndb.ecolsettypes</title>
<polygon fill="#efefef" stroke="none" points="1010.86,-320.4 1010.86,-356 1330.66,-356 1330.66,-320.4 1010.86,-320.4"/>
<polygon fill="none" stroke="black" points="1010.86,-320.4 1010.86,-356 1330.66,-356 1330.66,-320.4 1010.86,-320.4"/>
<text text-anchor="start" x="1048.78" y="-333.8" font-family="Arial Bold" font-size="18.00">ndb.ecolsettypes</text>
<text text-anchor="start" x="1168.25" y="-333.8" font-family="Arial" font-size="14.00">    </text>
<text text-anchor="start" x="1199.37" y="-333.8" font-family="Arial" font-size="14.00" fill="#666666">[BASE TABLE]</text>
<polygon fill="none" stroke="black" points="1010.86,-289.6 1010.86,-320.4 1330.66,-320.4 1330.66,-289.6 1010.86,-289.6"/>
<text text-anchor="start" x="1017.86" y="-301.8" font-family="Arial" font-size="14.00">ecolsetid </text>
<text text-anchor="start" x="1077" y="-301.8" font-family="Arial" font-size="14.00" fill="#666666">[integer]</text>
<polygon fill="none" stroke="black" points="1010.86,-258.8 1010.86,-289.6 1330.66,-289.6 1330.66,-258.8 1010.86,-258.8"/>
<text text-anchor="start" x="1017.86" y="-271" font-family="Arial" font-size="14.00">ecolsetname </text>
<text text-anchor="start" x="1101.13" y="-271" font-family="Arial" font-size="14.00" fill="#666666">[varchar(64)]</text>
<polygon fill="none" stroke="black" points="1010.86,-228 1010.86,-258.8 1330.66,-258.8 1330.66,-228 1010.86,-228"/>
<text text-anchor="start" x="1017.86" y="-240.2" font-family="Arial" font-size="14.00">recdatecreated </text>
<text text-anchor="start" x="1115.14" y="-240.2" font-family="Arial" font-size="14.00" fill="#666666">[timestamp(0) without time zone]</text>
<polygon fill="none" stroke="black" points="1010.86,-197.2 1010.86,-228 1330.66,-228 1330.66,-197.2 1010.86,-197.2"/>
<text text-anchor="start" x="1017.86" y="-209.4" font-family="Arial" font-size="14.00">recdatemodified </text>
<text text-anchor="start" x="1121.36" y="-209.4" font-family="Arial" font-size="14.00" fill="#666666">[timestamp(0) without time zone]</text>
</g>
<!-- ndb.ecolgroups&#45;&gt;ndb.ecolsettypes -->
<g id="edge3" class="edge">
<title>ndb.ecolgroups:ecolsetid&#45;&gt;ndb.ecolsettypes:ecolsetid</title>
<path fill="none" stroke="black" d="M918,-739.64C989.22,-731.37 939.57,-633.39 958.76,-553.2 971.87,-498.43 953.55,-305 1009.86,-305"/>
<polygon fill="black" stroke="black" points="917.98,-739.64 907.75,-735.69 912.65,-739.93 908.33,-740.16 908.33,-740.16 908.33,-740.16 912.65,-739.93 908.24,-744.68 917.98,-739.64"/>
<text text-anchor="start" x="914.66" y="-750.2" font-family="Arial" font-size="10.00">FOREIGN KEY (ecolsetid) REFERENCES ndb.ecolsettypes(ecolsetid) ON UPDATE CASCADE ON DELETE CASCADE</text>
</g>
</g>
</svg>
