<?xml version="1.0" encoding="UTF-8" standalone="no"?>
<!DOCTYPE svg PUBLIC "-//W3C//DTD SVG 1.1//EN"
 "http://www.w3.org/Graphics/SVG/1.1/DTD/svg11.dtd">
<!-- Generated by graphviz version 12.1.2 (20240928.0832)
 -->
<!-- Title: ndb.entitysamples Pages: 1 -->
<svg width="3661pt" height="1345pt"
 viewBox="0.00 0.00 3661.17 1345.20" xmlns="http://www.w3.org/2000/svg" xmlns:xlink="http://www.w3.org/1999/xlink">
<g id="graph0" class="graph" transform="scale(1 1) rotate(0) translate(4 1341.2)">
<title>ndb.entitysamples</title>
<polygon fill="white" stroke="none" points="-4,4 -4,-1341.2 3657.17,-1341.2 3657.17,4 -4,4"/>
<!-- ndb.entitysamples -->
<g id="node1" class="node">
<title>ndb.entitysamples</title>
<polygon fill="#efefef" stroke="none" points="46.2,-1255.4 46.2,-1291 315.17,-1291 315.17,-1255.4 46.2,-1255.4"/>
<polygon fill="none" stroke="black" points="46.2,-1255.4 46.2,-1291 315.17,-1291 315.17,-1255.4 46.2,-1255.4"/>
<text text-anchor="start" x="53.2" y="-1268.8" font-family="Arial Bold" font-size="18.00">ndb.entitysamples</text>
<text text-anchor="start" x="183.68" y="-1268.8" font-family="Arial" font-size="14.00">    </text>
<text text-anchor="start" x="214.8" y="-1268.8" font-family="Arial" font-size="14.00" fill="#666666">[BASE TABLE]</text>
<polygon fill="none" stroke="black" points="46.2,-1224.6 46.2,-1255.4 315.17,-1255.4 315.17,-1224.6 46.2,-1224.6"/>
<text text-anchor="start" x="53.2" y="-1236.8" font-family="Arial" font-size="14.00">c14 </text>
<text text-anchor="start" x="79.66" y="-1236.8" font-family="Arial" font-size="14.00" fill="#666666">[boolean]</text>
<polygon fill="none" stroke="black" points="46.2,-1193.8 46.2,-1224.6 315.17,-1224.6 315.17,-1193.8 46.2,-1193.8"/>
<text text-anchor="start" x="53.2" y="-1206" font-family="Arial" font-size="14.00">clumped_isotopes </text>
<text text-anchor="start" x="169.94" y="-1206" font-family="Arial" font-size="14.00" fill="#666666">[boolean]</text>
<polygon fill="none" stroke="black" points="46.2,-1163 46.2,-1193.8 315.17,-1193.8 315.17,-1163 46.2,-1163"/>
<text text-anchor="start" x="53.2" y="-1175.2" font-family="Arial" font-size="14.00">entityid </text>
<text text-anchor="start" x="101.45" y="-1175.2" font-family="Arial" font-size="14.00" fill="#666666">[integer]</text>
<polygon fill="none" stroke="black" points="46.2,-1132.2 46.2,-1163 315.17,-1163 315.17,-1132.2 46.2,-1132.2"/>
<text text-anchor="start" x="53.2" y="-1144.4" font-family="Arial" font-size="14.00">fluid_inclusions </text>
<text text-anchor="start" x="152.03" y="-1144.4" font-family="Arial" font-size="14.00" fill="#666666">[boolean]</text>
<polygon fill="none" stroke="black" points="46.2,-1101.4 46.2,-1132.2 315.17,-1132.2 315.17,-1101.4 46.2,-1101.4"/>
<text text-anchor="start" x="53.2" y="-1113.6" font-family="Arial" font-size="14.00">mineralogy_petrology_fabric </text>
<text text-anchor="start" x="232.96" y="-1113.6" font-family="Arial" font-size="14.00" fill="#666666">[boolean]</text>
<polygon fill="none" stroke="black" points="46.2,-1070.6 46.2,-1101.4 315.17,-1101.4 315.17,-1070.6 46.2,-1070.6"/>
<text text-anchor="start" x="53.2" y="-1082.8" font-family="Arial" font-size="14.00">noble_gas_temperatures </text>
<text text-anchor="start" x="211.97" y="-1082.8" font-family="Arial" font-size="14.00" fill="#666666">[boolean]</text>
<polygon fill="none" stroke="black" points="46.2,-1039.8 46.2,-1070.6 315.17,-1070.6 315.17,-1039.8 46.2,-1039.8"/>
<text text-anchor="start" x="53.2" y="-1052" font-family="Arial" font-size="14.00">odl </text>
<text text-anchor="start" x="75.77" y="-1052" font-family="Arial" font-size="14.00" fill="#666666">[boolean]</text>
<polygon fill="none" stroke="black" points="46.2,-1009 46.2,-1039.8 315.17,-1039.8 315.17,-1009 46.2,-1009"/>
<text text-anchor="start" x="53.2" y="-1021.2" font-family="Arial" font-size="14.00">organics </text>
<text text-anchor="start" x="110.01" y="-1021.2" font-family="Arial" font-size="14.00" fill="#666666">[boolean]</text>
<polygon fill="none" stroke="black" stroke-width="3" points="44.7,-1007.5 44.7,-1292.5 316.67,-1292.5 316.67,-1007.5 44.7,-1007.5"/>
</g>
<!-- ndb.speleothems -->
<g id="node2" class="node">
<title>ndb.speleothems</title>
<polygon fill="#efefef" stroke="none" points="1773.2,-848 1773.2,-883.6 2032.17,-883.6 2032.17,-848 1773.2,-848"/>
<polygon fill="none" stroke="black" points="1773.2,-848 1773.2,-883.6 2032.17,-883.6 2032.17,-848 1773.2,-848"/>
<text text-anchor="start" x="1780.2" y="-861.4" font-family="Arial Bold" font-size="18.00">ndb.speleothems</text>
<text text-anchor="start" x="1900.68" y="-861.4" font-family="Arial" font-size="14.00">    </text>
<text text-anchor="start" x="1931.8" y="-861.4" font-family="Arial" font-size="14.00" fill="#666666">[BASE TABLE]</text>
<polygon fill="none" stroke="black" points="1773.2,-817.2 1773.2,-848 2032.17,-848 2032.17,-817.2 1773.2,-817.2"/>
<text text-anchor="start" x="1780.2" y="-829.4" font-family="Arial" font-size="14.00">entityid </text>
<text text-anchor="start" x="1828.45" y="-829.4" font-family="Arial" font-size="14.00" fill="#666666">[integer]</text>
<polygon fill="none" stroke="black" points="1773.2,-786.4 1773.2,-817.2 2032.17,-817.2 2032.17,-786.4 1773.2,-786.4"/>
<text text-anchor="start" x="1780.2" y="-798.6" font-family="Arial" font-size="14.00">entityname </text>
<text text-anchor="start" x="1852.57" y="-798.6" font-family="Arial" font-size="14.00" fill="#666666">[text]</text>
<polygon fill="none" stroke="black" points="1773.2,-755.6 1773.2,-786.4 2032.17,-786.4 2032.17,-755.6 1773.2,-755.6"/>
<text text-anchor="start" x="1780.2" y="-767.8" font-family="Arial" font-size="14.00">entrancedistance </text>
<text text-anchor="start" x="1890.72" y="-767.8" font-family="Arial" font-size="14.00" fill="#666666">[real]</text>
<polygon fill="none" stroke="black" points="1773.2,-724.8 1773.2,-755.6 2032.17,-755.6 2032.17,-724.8 1773.2,-724.8"/>
<text text-anchor="start" x="1780.2" y="-737" font-family="Arial" font-size="14.00">entrancedistanceunits </text>
<text text-anchor="start" x="1920.29" y="-737" font-family="Arial" font-size="14.00" fill="#666666">[integer]</text>
<polygon fill="none" stroke="black" points="1773.2,-694 1773.2,-724.8 2032.17,-724.8 2032.17,-694 1773.2,-694"/>
<text text-anchor="start" x="1780.2" y="-706.2" font-family="Arial" font-size="14.00">monitoring </text>
<text text-anchor="start" x="1849.46" y="-706.2" font-family="Arial" font-size="14.00" fill="#666666">[boolean]</text>
<polygon fill="none" stroke="black" points="1773.2,-663.2 1773.2,-694 2032.17,-694 2032.17,-663.2 1773.2,-663.2"/>
<text text-anchor="start" x="1780.2" y="-675.4" font-family="Arial" font-size="14.00">rockageid </text>
<text text-anchor="start" x="1844.79" y="-675.4" font-family="Arial" font-size="14.00" fill="#666666">[integer]</text>
<polygon fill="none" stroke="black" points="1773.2,-632.4 1773.2,-663.2 2032.17,-663.2 2032.17,-632.4 1773.2,-632.4"/>
<text text-anchor="start" x="1780.2" y="-644.6" font-family="Arial" font-size="14.00">siteid </text>
<text text-anchor="start" x="1816.77" y="-644.6" font-family="Arial" font-size="14.00" fill="#666666">[integer]</text>
<polygon fill="none" stroke="black" points="1773.2,-601.6 1773.2,-632.4 2032.17,-632.4 2032.17,-601.6 1773.2,-601.6"/>
<text text-anchor="start" x="1780.2" y="-613.8" font-family="Arial" font-size="14.00">speleothemtypeid </text>
<text text-anchor="start" x="1893.83" y="-613.8" font-family="Arial" font-size="14.00" fill="#666666">[integer]</text>
</g>
<!-- ndb.entitysamples&#45;&gt;ndb.speleothems -->
<g id="edge1" class="edge">
<title>ndb.entitysamples:entityid&#45;&gt;ndb.speleothems:entityid</title>
<path fill="none" stroke="black" d="M326.29,-1177.79C406.41,-1167.29 298.38,-1024.68 370.69,-962.8 489.5,-861.11 1615.81,-832.6 1772.2,-832.6"/>
<polygon fill="black" stroke="black" points="326.49,-1177.78 316.23,-1173.89 321.16,-1178.1 316.84,-1178.36 316.84,-1178.36 316.84,-1178.36 321.16,-1178.1 316.78,-1182.87 326.49,-1177.78"/>
<text text-anchor="start" x="167.23" y="-1162.4" font-family="Arial" font-size="10.00">FOREIGN KEY (entityid) REFERENCES ndb.speleothems(entityid)</text>
</g>
<!-- ndb.variableunits -->
<g id="node11" class="node">
<title>ndb.variableunits</title>
<polygon fill="#efefef" stroke="none" points="1106.79,-305 1106.79,-340.6 1426.59,-340.6 1426.59,-305 1106.79,-305"/>
<polygon fill="none" stroke="black" points="1106.79,-305 1106.79,-340.6 1426.59,-340.6 1426.59,-305 1106.79,-305"/>
<text text-anchor="start" x="1142.21" y="-318.4" font-family="Arial Bold" font-size="18.00">ndb.variableunits</text>
<text text-anchor="start" x="1266.68" y="-318.4" font-family="Arial" font-size="14.00">    </text>
<text text-anchor="start" x="1297.79" y="-318.4" font-family="Arial" font-size="14.00" fill="#666666">[BASE TABLE]</text>
<polygon fill="none" stroke="black" points="1106.79,-274.2 1106.79,-305 1426.59,-305 1426.59,-274.2 1106.79,-274.2"/>
<text text-anchor="start" x="1113.79" y="-286.4" font-family="Arial" font-size="14.00">recdatecreated </text>
<text text-anchor="start" x="1211.07" y="-286.4" font-family="Arial" font-size="14.00" fill="#666666">[timestamp(0) without time zone]</text>
<polygon fill="none" stroke="black" points="1106.79,-243.4 1106.79,-274.2 1426.59,-274.2 1426.59,-243.4 1106.79,-243.4"/>
<text text-anchor="start" x="1113.79" y="-255.6" font-family="Arial" font-size="14.00">recdatemodified </text>
<text text-anchor="start" x="1217.29" y="-255.6" font-family="Arial" font-size="14.00" fill="#666666">[timestamp(0) without time zone]</text>
<polygon fill="none" stroke="black" points="1106.79,-212.6 1106.79,-243.4 1426.59,-243.4 1426.59,-212.6 1106.79,-212.6"/>
<text text-anchor="start" x="1113.79" y="-224.8" font-family="Arial" font-size="14.00">variableunits </text>
<text text-anchor="start" x="1196.28" y="-224.8" font-family="Arial" font-size="14.00" fill="#666666">[varchar(64)]</text>
<polygon fill="none" stroke="black" points="1106.79,-181.8 1106.79,-212.6 1426.59,-212.6 1426.59,-181.8 1106.79,-181.8"/>
<text text-anchor="start" x="1113.79" y="-194" font-family="Arial" font-size="14.00">variableunitsid </text>
<text text-anchor="start" x="1207.17" y="-194" font-family="Arial" font-size="14.00" fill="#666666">[integer]</text>
</g>
<!-- ndb.speleothems&#45;&gt;ndb.variableunits -->
<g id="edge11" class="edge">
<title>ndb.speleothems:entrancedistanceunits&#45;&gt;ndb.variableunits:variableunitsid</title>
<path fill="none" stroke="black" d="M1761.89,-740.09C1607.72,-736.79 1560.97,-658.4 1478.69,-522.4 1440.82,-459.81 1500.74,-197.2 1427.59,-197.2"/>
<polygon fill="black" stroke="black" points="1761.87,-740.09 1771.82,-744.7 1767.2,-740.15 1771.53,-740.19 1771.53,-740.19 1771.53,-740.19 1767.2,-740.15 1771.91,-735.7 1761.87,-740.09"/>
<text text-anchor="start" x="1370.04" y="-750.2" font-family="Arial" font-size="10.00">FOREIGN KEY (entrancedistanceunits) REFERENCES ndb.variableunits(variableunitsid)</text>
</g>
<!-- ndb.relativeages -->
<g id="node12" class="node">
<title>ndb.relativeages</title>
<polygon fill="#efefef" stroke="none" points="1530.79,-412.8 1530.79,-448.4 1850.59,-448.4 1850.59,-412.8 1530.79,-412.8"/>
<polygon fill="none" stroke="black" points="1530.79,-412.8 1530.79,-448.4 1850.59,-448.4 1850.59,-412.8 1530.79,-412.8"/>
<text text-anchor="start" x="1569.72" y="-426.2" font-family="Arial Bold" font-size="18.00">ndb.relativeages</text>
<text text-anchor="start" x="1687.17" y="-426.2" font-family="Arial" font-size="14.00">    </text>
<text text-anchor="start" x="1718.28" y="-426.2" font-family="Arial" font-size="14.00" fill="#666666">[BASE TABLE]</text>
<polygon fill="none" stroke="black" points="1530.79,-382 1530.79,-412.8 1850.59,-412.8 1850.59,-382 1530.79,-382"/>
<text text-anchor="start" x="1537.79" y="-394.2" font-family="Arial" font-size="14.00">c14ageolder </text>
<text text-anchor="start" x="1618.74" y="-394.2" font-family="Arial" font-size="14.00" fill="#666666">[double precision]</text>
<polygon fill="none" stroke="black" points="1530.79,-351.2 1530.79,-382 1850.59,-382 1850.59,-351.2 1530.79,-351.2"/>
<text text-anchor="start" x="1537.79" y="-363.4" font-family="Arial" font-size="14.00">c14ageyounger </text>
<text text-anchor="start" x="1638.2" y="-363.4" font-family="Arial" font-size="14.00" fill="#666666">[double precision]</text>
<polygon fill="none" stroke="black" points="1530.79,-320.4 1530.79,-351.2 1850.59,-351.2 1850.59,-320.4 1530.79,-320.4"/>
<text text-anchor="start" x="1537.79" y="-332.6" font-family="Arial" font-size="14.00">calageolder </text>
<text text-anchor="start" x="1614.06" y="-332.6" font-family="Arial" font-size="14.00" fill="#666666">[double precision]</text>
<polygon fill="none" stroke="black" points="1530.79,-289.6 1530.79,-320.4 1850.59,-320.4 1850.59,-289.6 1530.79,-289.6"/>
<text text-anchor="start" x="1537.79" y="-301.8" font-family="Arial" font-size="14.00">calageyounger </text>
<text text-anchor="start" x="1633.52" y="-301.8" font-family="Arial" font-size="14.00" fill="#666666">[double precision]</text>
<polygon fill="none" stroke="black" points="1530.79,-258.8 1530.79,-289.6 1850.59,-289.6 1850.59,-258.8 1530.79,-258.8"/>
<text text-anchor="start" x="1537.79" y="-271" font-family="Arial" font-size="14.00">notes </text>
<text text-anchor="start" x="1575.92" y="-271" font-family="Arial" font-size="14.00" fill="#666666">[text]</text>
<polygon fill="none" stroke="black" points="1530.79,-228 1530.79,-258.8 1850.59,-258.8 1850.59,-228 1530.79,-228"/>
<text text-anchor="start" x="1537.79" y="-240.2" font-family="Arial" font-size="14.00">recdatecreated </text>
<text text-anchor="start" x="1635.07" y="-240.2" font-family="Arial" font-size="14.00" fill="#666666">[timestamp(0) without time zone]</text>
<polygon fill="none" stroke="black" points="1530.79,-197.2 1530.79,-228 1850.59,-228 1850.59,-197.2 1530.79,-197.2"/>
<text text-anchor="start" x="1537.79" y="-209.4" font-family="Arial" font-size="14.00">recdatemodified </text>
<text text-anchor="start" x="1641.29" y="-209.4" font-family="Arial" font-size="14.00" fill="#666666">[timestamp(0) without time zone]</text>
<polygon fill="none" stroke="black" points="1530.79,-166.4 1530.79,-197.2 1850.59,-197.2 1850.59,-166.4 1530.79,-166.4"/>
<text text-anchor="start" x="1537.79" y="-178.6" font-family="Arial" font-size="14.00">relativeage </text>
<text text-anchor="start" x="1610.17" y="-178.6" font-family="Arial" font-size="14.00" fill="#666666">[varchar(64)]</text>
<polygon fill="none" stroke="black" points="1530.79,-135.6 1530.79,-166.4 1850.59,-166.4 1850.59,-135.6 1530.79,-135.6"/>
<text text-anchor="start" x="1537.79" y="-147.8" font-family="Arial" font-size="14.00">relativeageid </text>
<text text-anchor="start" x="1621.06" y="-147.8" font-family="Arial" font-size="14.00" fill="#666666">[integer]</text>
<polygon fill="none" stroke="black" points="1530.79,-104.8 1530.79,-135.6 1850.59,-135.6 1850.59,-104.8 1530.79,-104.8"/>
<text text-anchor="start" x="1537.79" y="-117" font-family="Arial" font-size="14.00">relativeagescaleid </text>
<text text-anchor="start" x="1653.74" y="-117" font-family="Arial" font-size="14.00" fill="#666666">[integer]</text>
<polygon fill="none" stroke="black" points="1530.79,-74 1530.79,-104.8 1850.59,-104.8 1850.59,-74 1530.79,-74"/>
<text text-anchor="start" x="1537.79" y="-86.2" font-family="Arial" font-size="14.00">relativeageunitid </text>
<text text-anchor="start" x="1643.63" y="-86.2" font-family="Arial" font-size="14.00" fill="#666666">[integer]</text>
</g>
<!-- ndb.speleothems&#45;&gt;ndb.relativeages -->
<g id="edge12" class="edge">
<title>ndb.speleothems:rockageid&#45;&gt;ndb.relativeages:relativeageid</title>
<path fill="none" stroke="black" d="M1762.17,-677.57C1723.23,-668.63 1752.34,-603.47 1773.2,-558.4 1792.29,-517.17 1831.61,-532.88 1850.59,-491.6 1882.19,-422.83 1927.27,-151 1851.59,-151"/>
<polygon fill="black" stroke="black" points="1761.92,-677.54 1771.41,-683.04 1767.23,-678.09 1771.54,-678.53 1771.54,-678.53 1771.54,-678.53 1767.23,-678.09 1772.33,-674.09 1761.92,-677.54"/>
<text text-anchor="start" x="1433.41" y="-688.6" font-family="Arial" font-size="10.00">FOREIGN KEY (rockageid) REFERENCES ndb.relativeages(relativeageid)</text>
</g>
<!-- ndb.sites -->
<g id="node13" class="node">
<title>ndb.sites</title>
<polygon fill="#efefef" stroke="none" points="1954.79,-443.6 1954.79,-479.2 2274.59,-479.2 2274.59,-443.6 1954.79,-443.6"/>
<polygon fill="none" stroke="black" points="1954.79,-443.6 1954.79,-479.2 2274.59,-479.2 2274.59,-443.6 1954.79,-443.6"/>
<text text-anchor="start" x="2020.69" y="-457" font-family="Arial Bold" font-size="18.00">ndb.sites</text>
<text text-anchor="start" x="2084.19" y="-457" font-family="Arial" font-size="14.00">    </text>
<text text-anchor="start" x="2115.31" y="-457" font-family="Arial" font-size="14.00" fill="#666666">[BASE TABLE]</text>
<polygon fill="none" stroke="black" points="1954.79,-412.8 1954.79,-443.6 2274.59,-443.6 2274.59,-412.8 1954.79,-412.8"/>
<text text-anchor="start" x="1961.79" y="-425" font-family="Arial" font-size="14.00">altitude </text>
<text text-anchor="start" x="2010.82" y="-425" font-family="Arial" font-size="14.00" fill="#666666">[double precision]</text>
<polygon fill="none" stroke="black" points="1954.79,-382 1954.79,-412.8 2274.59,-412.8 2274.59,-382 1954.79,-382"/>
<text text-anchor="start" x="1961.79" y="-394.2" font-family="Arial" font-size="14.00">area </text>
<text text-anchor="start" x="1993.7" y="-394.2" font-family="Arial" font-size="14.00" fill="#666666">[double precision]</text>
<polygon fill="none" stroke="black" points="1954.79,-351.2 1954.79,-382 2274.59,-382 2274.59,-351.2 1954.79,-351.2"/>
<text text-anchor="start" x="1961.79" y="-363.4" font-family="Arial" font-size="14.00">geog </text>
<text text-anchor="start" x="1996.82" y="-363.4" font-family="Arial" font-size="14.00" fill="#666666">[geography]</text>
<polygon fill="none" stroke="black" points="1954.79,-320.4 1954.79,-351.2 2274.59,-351.2 2274.59,-320.4 1954.79,-320.4"/>
<text text-anchor="start" x="1961.79" y="-332.6" font-family="Arial" font-size="14.00">latitudenorth </text>
<text text-anchor="start" x="2042.73" y="-332.6" font-family="Arial" font-size="14.00" fill="#666666">[double precision]</text>
<polygon fill="none" stroke="black" points="1954.79,-289.6 1954.79,-320.4 2274.59,-320.4 2274.59,-289.6 1954.79,-289.6"/>
<text text-anchor="start" x="1961.79" y="-301.8" font-family="Arial" font-size="14.00">latitudesouth </text>
<text text-anchor="start" x="2045.07" y="-301.8" font-family="Arial" font-size="14.00" fill="#666666">[double precision]</text>
<polygon fill="none" stroke="black" points="1954.79,-258.8 1954.79,-289.6 2274.59,-289.6 2274.59,-258.8 1954.79,-258.8"/>
<text text-anchor="start" x="1961.79" y="-271" font-family="Arial" font-size="14.00">longitudeeast </text>
<text text-anchor="start" x="2048.97" y="-271" font-family="Arial" font-size="14.00" fill="#666666">[double precision]</text>
<polygon fill="none" stroke="black" points="1954.79,-228 1954.79,-258.8 2274.59,-258.8 2274.59,-228 1954.79,-228"/>
<text text-anchor="start" x="1961.79" y="-240.2" font-family="Arial" font-size="14.00">longitudewest </text>
<text text-anchor="start" x="2051.29" y="-240.2" font-family="Arial" font-size="14.00" fill="#666666">[double precision]</text>
<polygon fill="none" stroke="black" points="1954.79,-197.2 1954.79,-228 2274.59,-228 2274.59,-197.2 1954.79,-197.2"/>
<text text-anchor="start" x="1961.79" y="-209.4" font-family="Arial" font-size="14.00">notes </text>
<text text-anchor="start" x="1999.92" y="-209.4" font-family="Arial" font-size="14.00" fill="#666666">[text]</text>
<polygon fill="none" stroke="black" points="1954.79,-166.4 1954.79,-197.2 2274.59,-197.2 2274.59,-166.4 1954.79,-166.4"/>
<text text-anchor="start" x="1961.79" y="-178.6" font-family="Arial" font-size="14.00">recdatecreated </text>
<text text-anchor="start" x="2059.07" y="-178.6" font-family="Arial" font-size="14.00" fill="#666666">[timestamp(0) without time zone]</text>
<polygon fill="none" stroke="black" points="1954.79,-135.6 1954.79,-166.4 2274.59,-166.4 2274.59,-135.6 1954.79,-135.6"/>
<text text-anchor="start" x="1961.79" y="-147.8" font-family="Arial" font-size="14.00">recdatemodified </text>
<text text-anchor="start" x="2065.29" y="-147.8" font-family="Arial" font-size="14.00" fill="#666666">[timestamp(0) without time zone]</text>
<polygon fill="none" stroke="black" points="1954.79,-104.8 1954.79,-135.6 2274.59,-135.6 2274.59,-104.8 1954.79,-104.8"/>
<text text-anchor="start" x="1961.79" y="-117" font-family="Arial" font-size="14.00">sitedescription </text>
<text text-anchor="start" x="2055.17" y="-117" font-family="Arial" font-size="14.00" fill="#666666">[text]</text>
<polygon fill="none" stroke="black" points="1954.79,-74 1954.79,-104.8 2274.59,-104.8 2274.59,-74 1954.79,-74"/>
<text text-anchor="start" x="1961.79" y="-86.2" font-family="Arial" font-size="14.00">siteid </text>
<text text-anchor="start" x="1998.36" y="-86.2" font-family="Arial" font-size="14.00" fill="#666666">[integer]</text>
<polygon fill="none" stroke="black" points="1954.79,-43.2 1954.79,-74 2274.59,-74 2274.59,-43.2 1954.79,-43.2"/>
<text text-anchor="start" x="1961.79" y="-55.4" font-family="Arial" font-size="14.00">sitename </text>
<text text-anchor="start" x="2022.48" y="-55.4" font-family="Arial" font-size="14.00" fill="#666666">[varchar(128)]</text>
</g>
<!-- ndb.speleothems&#45;&gt;ndb.sites -->
<g id="edge13" class="edge">
<title>ndb.speleothems:siteid&#45;&gt;ndb.sites:siteid</title>
<path fill="none" stroke="black" d="M2043.18,-646.27C2069.14,-637.08 2051.62,-588.52 2032.17,-558.4 2011.6,-526.53 1975.22,-554.36 1954.79,-522.4 1928.87,-481.86 1905.68,-89.4 1953.79,-89.4"/>
<polygon fill="black" stroke="black" points="2043.39,-646.24 2032.82,-643.3 2038.11,-647.04 2033.83,-647.7 2033.83,-647.7 2033.83,-647.7 2038.11,-647.04 2034.18,-652.2 2043.39,-646.24"/>
<text text-anchor="start" x="2040.17" y="-657.8" font-family="Arial" font-size="10.00">FOREIGN KEY (siteid) REFERENCES ndb.sites(siteid) ON DELETE CASCADE</text>
</g>
<!-- ndb.speleothemtypes -->
<g id="node14" class="node">
<title>ndb.speleothemtypes</title>
<polygon fill="#efefef" stroke="none" points="2378.71,-305 2378.71,-340.6 2668.67,-340.6 2668.67,-305 2378.71,-305"/>
<polygon fill="none" stroke="black" points="2378.71,-305 2378.71,-340.6 2668.67,-340.6 2668.67,-305 2378.71,-305"/>
<text text-anchor="start" x="2385.71" y="-318.4" font-family="Arial Bold" font-size="18.00">ndb.speleothemtypes</text>
<text text-anchor="start" x="2537.18" y="-318.4" font-family="Arial" font-size="14.00">    </text>
<text text-anchor="start" x="2568.29" y="-318.4" font-family="Arial" font-size="14.00" fill="#666666">[BASE TABLE]</text>
<polygon fill="none" stroke="black" points="2378.71,-274.2 2378.71,-305 2668.67,-305 2668.67,-274.2 2378.71,-274.2"/>
<text text-anchor="start" x="2385.71" y="-286.4" font-family="Arial" font-size="14.00">speleothemtype </text>
<text text-anchor="start" x="2488.44" y="-286.4" font-family="Arial" font-size="14.00" fill="#666666">[varchar(50)]</text>
<polygon fill="none" stroke="black" points="2378.71,-243.4 2378.71,-274.2 2668.67,-274.2 2668.67,-243.4 2378.71,-243.4"/>
<text text-anchor="start" x="2385.71" y="-255.6" font-family="Arial" font-size="14.00">speleothemtypeid </text>
<text text-anchor="start" x="2499.33" y="-255.6" font-family="Arial" font-size="14.00" fill="#666666">[integer]</text>
<polygon fill="none" stroke="black" points="2378.71,-212.6 2378.71,-243.4 2668.67,-243.4 2668.67,-212.6 2378.71,-212.6"/>
<text text-anchor="start" x="2385.71" y="-224.8" font-family="Arial" font-size="14.00">speleothemtypenotes </text>
<text text-anchor="start" x="2522.68" y="-224.8" font-family="Arial" font-size="14.00" fill="#666666">[text]</text>
<polygon fill="none" stroke="black" points="2378.71,-181.8 2378.71,-212.6 2668.67,-212.6 2668.67,-181.8 2378.71,-181.8"/>
<text text-anchor="start" x="2385.71" y="-194" font-family="Arial" font-size="14.00">speleothemtypepublicationid </text>
<text text-anchor="start" x="2566.27" y="-194" font-family="Arial" font-size="14.00" fill="#666666">[integer]</text>
</g>
<!-- ndb.speleothems&#45;&gt;ndb.speleothemtypes -->
<g id="edge14" class="edge">
<title>ndb.speleothems:speleothemtypeid&#45;&gt;ndb.speleothemtypes:speleothemtypeid</title>
<path fill="none" stroke="black" d="M2043.51,-616.72C2118.24,-612.92 2283.37,-571.29 2326.69,-522.4 2405.83,-433.09 2258.38,-258.8 2377.71,-258.8"/>
<polygon fill="black" stroke="black" points="2043.5,-616.72 2033.38,-612.49 2038.17,-616.86 2033.84,-616.98 2033.84,-616.98 2033.84,-616.98 2038.17,-616.86 2033.63,-621.49 2043.5,-616.72"/>
<text text-anchor="start" x="2040.17" y="-627" font-family="Arial" font-size="10.00">FOREIGN KEY (speleothemtypeid) REFERENCES ndb.speleothemtypes(speleothemtypeid)</text>
</g>
<!-- ndb.entitycovers -->
<g id="node3" class="node">
<title>ndb.entitycovers</title>
<polygon fill="#efefef" stroke="none" points="422.71,-1193.8 422.71,-1229.4 680.67,-1229.4 680.67,-1193.8 422.71,-1193.8"/>
<polygon fill="none" stroke="black" points="422.71,-1193.8 422.71,-1229.4 680.67,-1229.4 680.67,-1193.8 422.71,-1193.8"/>
<text text-anchor="start" x="429.71" y="-1207.2" font-family="Arial Bold" font-size="18.00">ndb.entitycovers</text>
<text text-anchor="start" x="549.18" y="-1207.2" font-family="Arial" font-size="14.00">    </text>
<text text-anchor="start" x="580.29" y="-1207.2" font-family="Arial" font-size="14.00" fill="#666666">[BASE TABLE]</text>
<polygon fill="none" stroke="black" points="422.71,-1163 422.71,-1193.8 680.67,-1193.8 680.67,-1163 422.71,-1163"/>
<text text-anchor="start" x="429.71" y="-1175.2" font-family="Arial" font-size="14.00">entitycoverid </text>
<text text-anchor="start" x="512.19" y="-1175.2" font-family="Arial" font-size="14.00" fill="#666666">[integer]</text>
<polygon fill="none" stroke="black" points="422.71,-1132.2 422.71,-1163 680.67,-1163 680.67,-1132.2 422.71,-1132.2"/>
<text text-anchor="start" x="429.71" y="-1144.4" font-family="Arial" font-size="14.00">entitycoverthickness </text>
<text text-anchor="start" x="559.65" y="-1144.4" font-family="Arial" font-size="14.00" fill="#666666">[real]</text>
<polygon fill="none" stroke="black" points="422.71,-1101.4 422.71,-1132.2 680.67,-1132.2 680.67,-1101.4 422.71,-1101.4"/>
<text text-anchor="start" x="429.71" y="-1113.6" font-family="Arial" font-size="14.00">entitycoverunits </text>
<text text-anchor="start" x="530.86" y="-1113.6" font-family="Arial" font-size="14.00" fill="#666666">[integer]</text>
<polygon fill="none" stroke="black" points="422.71,-1070.6 422.71,-1101.4 680.67,-1101.4 680.67,-1070.6 422.71,-1070.6"/>
<text text-anchor="start" x="429.71" y="-1082.8" font-family="Arial" font-size="14.00">entityid </text>
<text text-anchor="start" x="477.95" y="-1082.8" font-family="Arial" font-size="14.00" fill="#666666">[integer]</text>
</g>
<!-- ndb.entitycovers&#45;&gt;ndb.speleothems -->
<g id="edge2" class="edge">
<title>ndb.entitycovers:entityid&#45;&gt;ndb.speleothems:entityid</title>
<path fill="none" stroke="black" d="M692.02,-1084.89C734.03,-1074.64 688.69,-996.35 732.69,-962.8 825.26,-892.23 1655.8,-832.6 1772.2,-832.6"/>
<polygon fill="black" stroke="black" points="691.94,-1084.89 681.52,-1081.49 686.64,-1085.47 682.33,-1085.93 682.33,-1085.93 682.33,-1085.93 686.64,-1085.47 682.48,-1090.44 691.94,-1084.89"/>
<text text-anchor="start" x="477.44" y="-1070" font-family="Arial" font-size="10.00">FOREIGN KEY (entityid) REFERENCES ndb.speleothems(entityid) ON DELETE CASCADE</text>
</g>
<!-- ndb.entitydripheight -->
<g id="node4" class="node">
<title>ndb.entitydripheight</title>
<polygon fill="#efefef" stroke="none" points="785.2,-1193.8 785.2,-1229.4 1070.17,-1229.4 1070.17,-1193.8 785.2,-1193.8"/>
<polygon fill="none" stroke="black" points="785.2,-1193.8 785.2,-1229.4 1070.17,-1229.4 1070.17,-1193.8 785.2,-1193.8"/>
<text text-anchor="start" x="792.2" y="-1207.2" font-family="Arial Bold" font-size="18.00">ndb.entitydripheight</text>
<text text-anchor="start" x="938.68" y="-1207.2" font-family="Arial" font-size="14.00">    </text>
<text text-anchor="start" x="969.8" y="-1207.2" font-family="Arial" font-size="14.00" fill="#666666">[BASE TABLE]</text>
<polygon fill="none" stroke="black" points="785.2,-1163 785.2,-1193.8 1070.17,-1193.8 1070.17,-1163 785.2,-1163"/>
<text text-anchor="start" x="792.2" y="-1175.2" font-family="Arial" font-size="14.00">entitydripheight </text>
<text text-anchor="start" x="891.04" y="-1175.2" font-family="Arial" font-size="14.00" fill="#666666">[real]</text>
<polygon fill="none" stroke="black" points="785.2,-1132.2 785.2,-1163 1070.17,-1163 1070.17,-1132.2 785.2,-1132.2"/>
<text text-anchor="start" x="792.2" y="-1144.4" font-family="Arial" font-size="14.00">entitydripheightunit </text>
<text text-anchor="start" x="913.62" y="-1144.4" font-family="Arial" font-size="14.00" fill="#666666">[integer]</text>
<polygon fill="none" stroke="black" points="785.2,-1101.4 785.2,-1132.2 1070.17,-1132.2 1070.17,-1101.4 785.2,-1101.4"/>
<text text-anchor="start" x="792.2" y="-1113.6" font-family="Arial" font-size="14.00">entityid </text>
<text text-anchor="start" x="840.45" y="-1113.6" font-family="Arial" font-size="14.00" fill="#666666">[integer]</text>
<polygon fill="none" stroke="black" points="785.2,-1070.6 785.2,-1101.4 1070.17,-1101.4 1070.17,-1070.6 785.2,-1070.6"/>
<text text-anchor="start" x="792.2" y="-1082.8" font-family="Arial" font-size="14.00">speleothemdriptypeid </text>
<text text-anchor="start" x="929.17" y="-1082.8" font-family="Arial" font-size="14.00" fill="#666666">[integer]</text>
</g>
<!-- ndb.entitydripheight&#45;&gt;ndb.speleothems -->
<g id="edge3" class="edge">
<title>ndb.entitydripheight:entityid&#45;&gt;ndb.speleothems:entityid</title>
<path fill="none" stroke="black" d="M1081.38,-1115.94C1135.61,-1105.76 1070.64,-1008.08 1121.69,-962.8 1231.97,-864.96 1624.77,-832.6 1772.2,-832.6"/>
<polygon fill="black" stroke="black" points="1081.47,-1115.93 1071.12,-1112.29 1076.15,-1116.38 1071.84,-1116.74 1071.84,-1116.74 1071.84,-1116.74 1076.15,-1116.38 1071.88,-1121.26 1081.47,-1115.93"/>
<text text-anchor="start" x="866.94" y="-1100.8" font-family="Arial" font-size="10.00">FOREIGN KEY (entityid) REFERENCES ndb.speleothems(entityid) ON DELETE CASCADE</text>
</g>
<!-- ndb.entitygeology -->
<g id="node5" class="node">
<title>ndb.entitygeology</title>
<polygon fill="#efefef" stroke="none" points="1174.2,-1178.4 1174.2,-1214 1443.17,-1214 1443.17,-1178.4 1174.2,-1178.4"/>
<polygon fill="none" stroke="black" points="1174.2,-1178.4 1174.2,-1214 1443.17,-1214 1443.17,-1178.4 1174.2,-1178.4"/>
<text text-anchor="start" x="1181.2" y="-1191.8" font-family="Arial Bold" font-size="18.00">ndb.entitygeology</text>
<text text-anchor="start" x="1311.68" y="-1191.8" font-family="Arial" font-size="14.00">    </text>
<text text-anchor="start" x="1342.8" y="-1191.8" font-family="Arial" font-size="14.00" fill="#666666">[BASE TABLE]</text>
<polygon fill="none" stroke="black" points="1174.2,-1147.6 1174.2,-1178.4 1443.17,-1178.4 1443.17,-1147.6 1174.2,-1147.6"/>
<text text-anchor="start" x="1181.2" y="-1159.8" font-family="Arial" font-size="14.00">entityid </text>
<text text-anchor="start" x="1229.45" y="-1159.8" font-family="Arial" font-size="14.00" fill="#666666">[integer]</text>
<polygon fill="none" stroke="black" points="1174.2,-1116.8 1174.2,-1147.6 1443.17,-1147.6 1443.17,-1116.8 1174.2,-1116.8"/>
<text text-anchor="start" x="1181.2" y="-1129" font-family="Arial" font-size="14.00">notes </text>
<text text-anchor="start" x="1219.34" y="-1129" font-family="Arial" font-size="14.00" fill="#666666">[text]</text>
<polygon fill="none" stroke="black" points="1174.2,-1086 1174.2,-1116.8 1443.17,-1116.8 1443.17,-1086 1174.2,-1086"/>
<text text-anchor="start" x="1181.2" y="-1098.2" font-family="Arial" font-size="14.00">speleothemgeologyid </text>
<text text-anchor="start" x="1317.41" y="-1098.2" font-family="Arial" font-size="14.00" fill="#666666">[integer]</text>
</g>
<!-- ndb.entitygeology&#45;&gt;ndb.speleothems -->
<g id="edge4" class="edge">
<title>ndb.entitygeology:entityid&#45;&gt;ndb.speleothems:entityid</title>
<path fill="none" stroke="black" d="M1454.54,-1162.36C1528.2,-1152.48 1439.51,-1030.68 1495.69,-962.8 1582.29,-858.15 1636.36,-832.6 1772.2,-832.6"/>
<polygon fill="black" stroke="black" points="1454.49,-1162.36 1444.23,-1158.49 1449.16,-1162.69 1444.84,-1162.96 1444.84,-1162.96 1444.84,-1162.96 1449.16,-1162.69 1444.78,-1167.47 1454.49,-1162.36"/>
<text text-anchor="start" x="1239.94" y="-1147" font-family="Arial" font-size="10.00">FOREIGN KEY (entityid) REFERENCES ndb.speleothems(entityid) ON DELETE CASCADE</text>
</g>
<!-- ndb.entitylandusecover -->
<g id="node6" class="node">
<title>ndb.entitylandusecover</title>
<polygon fill="#efefef" stroke="none" points="1547.72,-1193.8 1547.72,-1229.4 1853.66,-1229.4 1853.66,-1193.8 1547.72,-1193.8"/>
<polygon fill="none" stroke="black" points="1547.72,-1193.8 1547.72,-1229.4 1853.66,-1229.4 1853.66,-1193.8 1547.72,-1193.8"/>
<text text-anchor="start" x="1554.72" y="-1207.2" font-family="Arial Bold" font-size="18.00">ndb.entitylandusecover</text>
<text text-anchor="start" x="1722.17" y="-1207.2" font-family="Arial" font-size="14.00">    </text>
<text text-anchor="start" x="1753.28" y="-1207.2" font-family="Arial" font-size="14.00" fill="#666666">[BASE TABLE]</text>
<polygon fill="none" stroke="black" points="1547.72,-1163 1547.72,-1193.8 1853.66,-1193.8 1853.66,-1163 1547.72,-1163"/>
<text text-anchor="start" x="1554.72" y="-1175.2" font-family="Arial" font-size="14.00">entityid </text>
<text text-anchor="start" x="1602.96" y="-1175.2" font-family="Arial" font-size="14.00" fill="#666666">[integer]</text>
<polygon fill="none" stroke="black" points="1547.72,-1132.2 1547.72,-1163 1853.66,-1163 1853.66,-1132.2 1547.72,-1132.2"/>
<text text-anchor="start" x="1554.72" y="-1144.4" font-family="Arial" font-size="14.00">landusecovernotes </text>
<text text-anchor="start" x="1676.13" y="-1144.4" font-family="Arial" font-size="14.00" fill="#666666">[text]</text>
<polygon fill="none" stroke="black" points="1547.72,-1101.4 1547.72,-1132.2 1853.66,-1132.2 1853.66,-1101.4 1547.72,-1101.4"/>
<text text-anchor="start" x="1554.72" y="-1113.6" font-family="Arial" font-size="14.00">landusecoverpercent </text>
<text text-anchor="start" x="1688.58" y="-1113.6" font-family="Arial" font-size="14.00" fill="#666666">[integer]</text>
<polygon fill="none" stroke="black" points="1547.72,-1070.6 1547.72,-1101.4 1853.66,-1101.4 1853.66,-1070.6 1547.72,-1070.6"/>
<text text-anchor="start" x="1554.72" y="-1082.8" font-family="Arial" font-size="14.00">landusecovertypeid </text>
<text text-anchor="start" x="1679.24" y="-1082.8" font-family="Arial" font-size="14.00" fill="#666666">[integer]</text>
</g>
<!-- ndb.entitylandusecover&#45;&gt;ndb.speleothems -->
<g id="edge5" class="edge">
<title>ndb.entitylandusecover:entityid&#45;&gt;ndb.speleothems:entityid</title>
<path fill="none" stroke="black" d="M1865,-1177.58C1916.67,-1168.54 1874.8,-1087.07 1853.66,-1027.4 1834.53,-973.44 1792.43,-980.72 1773.2,-926.8 1759.14,-887.36 1730.33,-832.6 1772.2,-832.6"/>
<polygon fill="black" stroke="black" points="1864.96,-1177.58 1854.63,-1173.89 1859.64,-1178 1855.32,-1178.35 1855.32,-1178.35 1855.32,-1178.35 1859.64,-1178 1855.35,-1182.86 1864.96,-1177.58"/>
<text text-anchor="start" x="1861.66" y="-1188.4" font-family="Arial" font-size="10.00">FOREIGN KEY (entityid) REFERENCES ndb.speleothems(entityid) ON DELETE CASCADE</text>
</g>
<!-- ndb.entityrelationship -->
<g id="node7" class="node">
<title>ndb.entityrelationship</title>
<polygon fill="#efefef" stroke="none" points="1957.7,-1193.8 1957.7,-1229.4 2253.67,-1229.4 2253.67,-1193.8 1957.7,-1193.8"/>
<polygon fill="none" stroke="black" points="1957.7,-1193.8 1957.7,-1229.4 2253.67,-1229.4 2253.67,-1193.8 1957.7,-1193.8"/>
<text text-anchor="start" x="1964.7" y="-1207.2" font-family="Arial Bold" font-size="18.00">ndb.entityrelationship</text>
<text text-anchor="start" x="2122.18" y="-1207.2" font-family="Arial" font-size="14.00">    </text>
<text text-anchor="start" x="2153.3" y="-1207.2" font-family="Arial" font-size="14.00" fill="#666666">[BASE TABLE]</text>
<polygon fill="none" stroke="black" points="1957.7,-1163 1957.7,-1193.8 2253.67,-1193.8 2253.67,-1163 1957.7,-1163"/>
<text text-anchor="start" x="1964.7" y="-1175.2" font-family="Arial" font-size="14.00">entityid </text>
<text text-anchor="start" x="2012.95" y="-1175.2" font-family="Arial" font-size="14.00" fill="#666666">[integer]</text>
<polygon fill="none" stroke="black" points="1957.7,-1132.2 1957.7,-1163 2253.67,-1163 2253.67,-1132.2 1957.7,-1132.2"/>
<text text-anchor="start" x="1964.7" y="-1144.4" font-family="Arial" font-size="14.00">entitystatusid </text>
<text text-anchor="start" x="2050.3" y="-1144.4" font-family="Arial" font-size="14.00" fill="#666666">[integer]</text>
<polygon fill="none" stroke="black" points="1957.7,-1101.4 1957.7,-1132.2 2253.67,-1132.2 2253.67,-1101.4 1957.7,-1101.4"/>
<text text-anchor="start" x="1964.7" y="-1113.6" font-family="Arial" font-size="14.00">notes </text>
<text text-anchor="start" x="2002.84" y="-1113.6" font-family="Arial" font-size="14.00" fill="#666666">[text]</text>
<polygon fill="none" stroke="black" points="1957.7,-1070.6 1957.7,-1101.4 2253.67,-1101.4 2253.67,-1070.6 1957.7,-1070.6"/>
<text text-anchor="start" x="1964.7" y="-1082.8" font-family="Arial" font-size="14.00">referenceentityid </text>
<text text-anchor="start" x="2072.1" y="-1082.8" font-family="Arial" font-size="14.00" fill="#666666">[integer]</text>
</g>
<!-- ndb.entityrelationship&#45;&gt;ndb.speleothems -->
<g id="edge6" class="edge">
<title>ndb.entityrelationship:entityid&#45;&gt;ndb.speleothems:entityid</title>
<path fill="none" stroke="black" d="M1946.37,-1177.58C1894.82,-1168.58 1937.67,-1087.46 1957.7,-1027.4 1975.3,-974.63 2014.47,-979.53 2032.17,-926.8 2045.5,-887.11 2075.04,-832.6 2033.17,-832.6"/>
<polygon fill="black" stroke="black" points="1946.4,-1177.58 1956.01,-1182.86 1951.72,-1178 1956.04,-1178.35 1956.04,-1178.35 1956.04,-1178.35 1951.72,-1178 1956.73,-1173.89 1946.4,-1177.58"/>
<text text-anchor="start" x="1963.7" y="-1162.4" font-family="Arial" font-size="10.00">FOREIGN KEY (entityid) REFERENCES ndb.speleothems(entityid)</text>
</g>
<!-- ndb.entityrelationship&#45;&gt;ndb.speleothems -->
<g id="edge7" class="edge">
<title>ndb.entityrelationship:referenceentityid&#45;&gt;ndb.speleothems:entityid</title>
<path fill="none" stroke="black" d="M1946.96,-1083.21C1936.77,-1074.61 1950.77,-1047.83 1957.7,-1027.4 1975.58,-974.72 2014.47,-979.53 2032.17,-926.8 2045.5,-887.11 2075.04,-832.6 2033.17,-832.6"/>
<polygon fill="black" stroke="black" points="1946.77,-1083.16 1955.15,-1090.23 1951.9,-1084.62 1956.06,-1085.82 1956.06,-1085.82 1956.06,-1085.82 1951.9,-1084.62 1957.62,-1081.58 1946.77,-1083.16"/>
<text text-anchor="start" x="1963.7" y="-1096" font-family="Arial" font-size="10.00">FOREIGN KEY (referenceentityid) REFERENCES ndb.speleothems(entityid)</text>
</g>
<!-- ndb.entityvegetationcover -->
<g id="node8" class="node">
<title>ndb.entityvegetationcover</title>
<polygon fill="#efefef" stroke="none" points="2357.72,-1193.8 2357.72,-1229.4 2683.65,-1229.4 2683.65,-1193.8 2357.72,-1193.8"/>
<polygon fill="none" stroke="black" points="2357.72,-1193.8 2357.72,-1229.4 2683.65,-1229.4 2683.65,-1193.8 2357.72,-1193.8"/>
<text text-anchor="start" x="2364.72" y="-1207.2" font-family="Arial Bold" font-size="18.00">ndb.entityvegetationcover</text>
<text text-anchor="start" x="2552.16" y="-1207.2" font-family="Arial" font-size="14.00">    </text>
<text text-anchor="start" x="2583.28" y="-1207.2" font-family="Arial" font-size="14.00" fill="#666666">[BASE TABLE]</text>
<polygon fill="none" stroke="black" points="2357.72,-1163 2357.72,-1193.8 2683.65,-1193.8 2683.65,-1163 2357.72,-1163"/>
<text text-anchor="start" x="2364.72" y="-1175.2" font-family="Arial" font-size="14.00">entityid </text>
<text text-anchor="start" x="2412.97" y="-1175.2" font-family="Arial" font-size="14.00" fill="#666666">[integer]</text>
<polygon fill="none" stroke="black" points="2357.72,-1132.2 2357.72,-1163 2683.65,-1163 2683.65,-1132.2 2357.72,-1132.2"/>
<text text-anchor="start" x="2364.72" y="-1144.4" font-family="Arial" font-size="14.00">vegetationcovernotes </text>
<text text-anchor="start" x="2501.7" y="-1144.4" font-family="Arial" font-size="14.00" fill="#666666">[text]</text>
<polygon fill="none" stroke="black" points="2357.72,-1101.4 2357.72,-1132.2 2683.65,-1132.2 2683.65,-1101.4 2357.72,-1101.4"/>
<text text-anchor="start" x="2364.72" y="-1113.6" font-family="Arial" font-size="14.00">vegetationcoverpercent </text>
<text text-anchor="start" x="2514.15" y="-1113.6" font-family="Arial" font-size="14.00" fill="#666666">[integer]</text>
<polygon fill="none" stroke="black" points="2357.72,-1070.6 2357.72,-1101.4 2683.65,-1101.4 2683.65,-1070.6 2357.72,-1070.6"/>
<text text-anchor="start" x="2364.72" y="-1082.8" font-family="Arial" font-size="14.00">vegetationcovertypeid </text>
<text text-anchor="start" x="2504.81" y="-1082.8" font-family="Arial" font-size="14.00" fill="#666666">[integer]</text>
</g>
<!-- ndb.entityvegetationcover&#45;&gt;ndb.speleothems -->
<g id="edge8" class="edge">
<title>ndb.entityvegetationcover:entityid&#45;&gt;ndb.speleothems:entityid</title>
<path fill="none" stroke="black" d="M2346.6,-1177.84C2266.13,-1168.17 2365.21,-1036.6 2305.69,-962.8 2221.41,-858.32 2167.4,-832.6 2033.17,-832.6"/>
<polygon fill="black" stroke="black" points="2346.4,-1177.83 2356.14,-1182.87 2351.73,-1178.12 2356.06,-1178.36 2356.06,-1178.36 2356.06,-1178.36 2351.73,-1178.12 2356.64,-1173.89 2346.4,-1177.83"/>
<text text-anchor="start" x="2363.72" y="-1188.4" font-family="Arial" font-size="10.00">FOREIGN KEY (entityid) REFERENCES ndb.speleothems(entityid) ON DELETE CASCADE</text>
</g>
<!-- ndb.externalspeleothemdata -->
<g id="node9" class="node">
<title>ndb.externalspeleothemdata</title>
<polygon fill="#efefef" stroke="none" points="2787.73,-1193.8 2787.73,-1229.4 3127.64,-1229.4 3127.64,-1193.8 2787.73,-1193.8"/>
<polygon fill="none" stroke="black" points="2787.73,-1193.8 2787.73,-1229.4 3127.64,-1229.4 3127.64,-1193.8 2787.73,-1193.8"/>
<text text-anchor="start" x="2794.73" y="-1207.2" font-family="Arial Bold" font-size="18.00">ndb.externalspeleothemdata</text>
<text text-anchor="start" x="2996.15" y="-1207.2" font-family="Arial" font-size="14.00">    </text>
<text text-anchor="start" x="3027.27" y="-1207.2" font-family="Arial" font-size="14.00" fill="#666666">[BASE TABLE]</text>
<polygon fill="none" stroke="black" points="2787.73,-1163 2787.73,-1193.8 3127.64,-1193.8 3127.64,-1163 2787.73,-1163"/>
<text text-anchor="start" x="2794.73" y="-1175.2" font-family="Arial" font-size="14.00">entityid </text>
<text text-anchor="start" x="2842.98" y="-1175.2" font-family="Arial" font-size="14.00" fill="#666666">[integer]</text>
<polygon fill="none" stroke="black" points="2787.73,-1132.2 2787.73,-1163 3127.64,-1163 3127.64,-1132.2 2787.73,-1132.2"/>
<text text-anchor="start" x="2794.73" y="-1144.4" font-family="Arial" font-size="14.00">extdatabaseid </text>
<text text-anchor="start" x="2885.8" y="-1144.4" font-family="Arial" font-size="14.00" fill="#666666">[integer]</text>
<polygon fill="none" stroke="black" points="2787.73,-1101.4 2787.73,-1132.2 3127.64,-1132.2 3127.64,-1101.4 2787.73,-1101.4"/>
<text text-anchor="start" x="2794.73" y="-1113.6" font-family="Arial" font-size="14.00">externaldescription </text>
<text text-anchor="start" x="2916.13" y="-1113.6" font-family="Arial" font-size="14.00" fill="#666666">[text]</text>
<polygon fill="none" stroke="black" points="2787.73,-1070.6 2787.73,-1101.4 3127.64,-1101.4 3127.64,-1070.6 2787.73,-1070.6"/>
<text text-anchor="start" x="2794.73" y="-1082.8" font-family="Arial" font-size="14.00">externalid </text>
<text text-anchor="start" x="2859.32" y="-1082.8" font-family="Arial" font-size="14.00" fill="#666666">[text]</text>
</g>
<!-- ndb.externalspeleothemdata&#45;&gt;ndb.speleothems -->
<g id="edge9" class="edge">
<title>ndb.externalspeleothemdata:entityid&#45;&gt;ndb.speleothems:entityid</title>
<path fill="none" stroke="black" d="M2776.65,-1177.8C2696.81,-1167.55 2804.36,-1028.18 2735.69,-962.8 2620.69,-853.33 2191.94,-832.6 2033.17,-832.6"/>
<polygon fill="black" stroke="black" points="2776.42,-1177.79 2786.13,-1182.87 2781.74,-1178.1 2786.06,-1178.36 2786.06,-1178.36 2786.06,-1178.36 2781.74,-1178.1 2786.66,-1173.89 2776.42,-1177.79"/>
<text text-anchor="start" x="2793.73" y="-1188.4" font-family="Arial" font-size="10.00">FOREIGN KEY (entityid) REFERENCES ndb.speleothems(entityid) ON DELETE CASCADE</text>
</g>
<!-- ndb.speleothemcollectionunits -->
<g id="node10" class="node">
<title>ndb.speleothemcollectionunits</title>
<polygon fill="#efefef" stroke="none" points="3231.71,-1178.4 3231.71,-1214 3589.66,-1214 3589.66,-1178.4 3231.71,-1178.4"/>
<polygon fill="none" stroke="black" points="3231.71,-1178.4 3231.71,-1214 3589.66,-1214 3589.66,-1178.4 3231.71,-1178.4"/>
<text text-anchor="start" x="3238.71" y="-1191.8" font-family="Arial Bold" font-size="18.00">ndb.speleothemcollectionunits</text>
<text text-anchor="start" x="3458.17" y="-1191.8" font-family="Arial" font-size="14.00">    </text>
<text text-anchor="start" x="3489.29" y="-1191.8" font-family="Arial" font-size="14.00" fill="#666666">[BASE TABLE]</text>
<polygon fill="none" stroke="black" points="3231.71,-1147.6 3231.71,-1178.4 3589.66,-1178.4 3589.66,-1147.6 3231.71,-1147.6"/>
<text text-anchor="start" x="3238.71" y="-1159.8" font-family="Arial" font-size="14.00">collectionunitid </text>
<text text-anchor="start" x="3334.44" y="-1159.8" font-family="Arial" font-size="14.00" fill="#666666">[integer]</text>
<polygon fill="none" stroke="black" points="3231.71,-1116.8 3231.71,-1147.6 3589.66,-1147.6 3589.66,-1116.8 3231.71,-1116.8"/>
<text text-anchor="start" x="3238.71" y="-1129" font-family="Arial" font-size="14.00">entityid </text>
<text text-anchor="start" x="3286.96" y="-1129" font-family="Arial" font-size="14.00" fill="#666666">[integer]</text>
<polygon fill="none" stroke="black" points="3231.71,-1086 3231.71,-1116.8 3589.66,-1116.8 3589.66,-1086 3231.71,-1086"/>
<text text-anchor="start" x="3238.71" y="-1098.2" font-family="Arial" font-size="14.00">persistid </text>
<text text-anchor="start" x="3294.73" y="-1098.2" font-family="Arial" font-size="14.00" fill="#666666">[text]</text>
</g>
<!-- ndb.speleothemcollectionunits&#45;&gt;ndb.speleothems -->
<g id="edge10" class="edge">
<title>ndb.speleothemcollectionunits:entityid&#45;&gt;ndb.speleothems:entityid</title>
<path fill="none" stroke="black" d="M3220.35,-1131.37C3160.32,-1120.74 3237.1,-1010.73 3179.69,-962.8 3081.27,-880.63 2161.38,-832.6 2033.17,-832.6"/>
<polygon fill="black" stroke="black" points="3220.41,-1131.38 3230.02,-1136.66 3225.73,-1131.8 3230.05,-1132.15 3230.05,-1132.15 3230.05,-1132.15 3225.73,-1131.8 3230.74,-1127.69 3220.41,-1131.38"/>
<text text-anchor="start" x="3237.71" y="-1142.2" font-family="Arial" font-size="10.00">FOREIGN KEY (entityid) REFERENCES ndb.speleothems(entityid) ON DELETE CASCADE</text>
</g>
</g>
</svg>
