<?xml version="1.0" encoding="UTF-8" standalone="no"?>
<!DOCTYPE svg PUBLIC "-//W3C//DTD SVG 1.1//EN"
 "http://www.w3.org/Graphics/SVG/1.1/DTD/svg11.dtd">
<!-- Generated by graphviz version 12.1.2 (20240928.0832)
 -->
<!-- Title: ndb.aggregatechronologies Pages: 1 -->
<svg width="3037pt" height="1528pt"
 viewBox="0.00 0.00 3036.88 1528.00" xmlns="http://www.w3.org/2000/svg" xmlns:xlink="http://www.w3.org/1999/xlink">
<g id="graph0" class="graph" transform="scale(1 1) rotate(0) translate(4 1524)">
<title>ndb.aggregatechronologies</title>
<polygon fill="white" stroke="none" points="-4,4 -4,-1524 3032.88,-1524 3032.88,4 -4,4"/>
<!-- ndb.aggregatechronologies -->
<g id="node1" class="node">
<title>ndb.aggregatechronologies</title>
<polygon fill="#efefef" stroke="none" points="1199.36,-1067.6 1199.36,-1103.2 1532.28,-1103.2 1532.28,-1067.6 1199.36,-1067.6"/>
<polygon fill="none" stroke="black" points="1199.36,-1067.6 1199.36,-1103.2 1532.28,-1103.2 1532.28,-1067.6 1199.36,-1067.6"/>
<text text-anchor="start" x="1206.36" y="-1081" font-family="Arial Bold" font-size="18.00">ndb.aggregatechronologies</text>
<text text-anchor="start" x="1400.79" y="-1081" font-family="Arial" font-size="14.00">    </text>
<text text-anchor="start" x="1431.91" y="-1081" font-family="Arial" font-size="14.00" fill="#666666">[BASE TABLE]</text>
<polygon fill="none" stroke="black" points="1199.36,-1036.8 1199.36,-1067.6 1532.28,-1067.6 1532.28,-1036.8 1199.36,-1036.8"/>
<text text-anchor="start" x="1206.36" y="-1049" font-family="Arial" font-size="14.00">aggregatechronid </text>
<text text-anchor="start" x="1319.22" y="-1049" font-family="Arial" font-size="14.00" fill="#666666">[integer]</text>
<polygon fill="none" stroke="black" points="1199.36,-1006 1199.36,-1036.8 1532.28,-1036.8 1532.28,-1006 1199.36,-1006"/>
<text text-anchor="start" x="1206.36" y="-1018.2" font-family="Arial" font-size="14.00">aggregatedatasetid </text>
<text text-anchor="start" x="1330.13" y="-1018.2" font-family="Arial" font-size="14.00" fill="#666666">[integer]</text>
<polygon fill="none" stroke="black" points="1199.36,-975.2 1199.36,-1006 1532.28,-1006 1532.28,-975.2 1199.36,-975.2"/>
<text text-anchor="start" x="1206.36" y="-987.4" font-family="Arial" font-size="14.00">agetypeid </text>
<text text-anchor="start" x="1270.97" y="-987.4" font-family="Arial" font-size="14.00" fill="#666666">[integer]</text>
<polygon fill="none" stroke="black" points="1199.36,-944.4 1199.36,-975.2 1532.28,-975.2 1532.28,-944.4 1199.36,-944.4"/>
<text text-anchor="start" x="1206.36" y="-956.6" font-family="Arial" font-size="14.00">isdefault </text>
<text text-anchor="start" x="1262.4" y="-956.6" font-family="Arial" font-size="14.00" fill="#666666">[boolean]</text>
<polygon fill="none" stroke="black" points="1199.36,-913.6 1199.36,-944.4 1532.28,-944.4 1532.28,-913.6 1199.36,-913.6"/>
<text text-anchor="start" x="1206.36" y="-925.8" font-family="Arial" font-size="14.00">chronologyname </text>
<text text-anchor="start" x="1313.76" y="-925.8" font-family="Arial" font-size="14.00" fill="#666666">[varchar(80)]</text>
<polygon fill="none" stroke="black" points="1199.36,-882.8 1199.36,-913.6 1532.28,-913.6 1532.28,-882.8 1199.36,-882.8"/>
<text text-anchor="start" x="1206.36" y="-895" font-family="Arial" font-size="14.00">ageboundyounger </text>
<text text-anchor="start" x="1323.13" y="-895" font-family="Arial" font-size="14.00" fill="#666666">[integer]</text>
<polygon fill="none" stroke="black" points="1199.36,-852 1199.36,-882.8 1532.28,-882.8 1532.28,-852 1199.36,-852"/>
<text text-anchor="start" x="1206.36" y="-864.2" font-family="Arial" font-size="14.00">ageboundolder </text>
<text text-anchor="start" x="1303.67" y="-864.2" font-family="Arial" font-size="14.00" fill="#666666">[integer]</text>
<polygon fill="none" stroke="black" points="1199.36,-821.2 1199.36,-852 1532.28,-852 1532.28,-821.2 1199.36,-821.2"/>
<text text-anchor="start" x="1206.36" y="-833.4" font-family="Arial" font-size="14.00">notes </text>
<text text-anchor="start" x="1244.5" y="-833.4" font-family="Arial" font-size="14.00" fill="#666666">[text]</text>
<polygon fill="none" stroke="black" points="1199.36,-790.4 1199.36,-821.2 1532.28,-821.2 1532.28,-790.4 1199.36,-790.4"/>
<text text-anchor="start" x="1206.36" y="-802.6" font-family="Arial" font-size="14.00">recdatecreated </text>
<text text-anchor="start" x="1303.64" y="-802.6" font-family="Arial" font-size="14.00" fill="#666666">[timestamp(0) without time zone]</text>
<polygon fill="none" stroke="black" points="1199.36,-759.6 1199.36,-790.4 1532.28,-790.4 1532.28,-759.6 1199.36,-759.6"/>
<text text-anchor="start" x="1206.36" y="-771.8" font-family="Arial" font-size="14.00">recdatemodified </text>
<text text-anchor="start" x="1309.86" y="-771.8" font-family="Arial" font-size="14.00" fill="#666666">[timestamp(0) without time zone]</text>
<polygon fill="none" stroke="black" stroke-width="3" points="1197.86,-758.1 1197.86,-1104.7 1533.78,-1104.7 1533.78,-758.1 1197.86,-758.1"/>
</g>
<!-- ndb.aggregatedatasets -->
<g id="node3" class="node">
<title>ndb.aggregatedatasets</title>
<polygon fill="#efefef" stroke="none" points="347.92,-540 347.92,-575.6 667.72,-575.6 667.72,-540 347.92,-540"/>
<polygon fill="none" stroke="black" points="347.92,-540 347.92,-575.6 667.72,-575.6 667.72,-540 347.92,-540"/>
<text text-anchor="start" x="366.36" y="-553.4" font-family="Arial Bold" font-size="18.00">ndb.aggregatedatasets</text>
<text text-anchor="start" x="524.79" y="-553.4" font-family="Arial" font-size="14.00">    </text>
<text text-anchor="start" x="555.91" y="-553.4" font-family="Arial" font-size="14.00" fill="#666666">[BASE TABLE]</text>
<polygon fill="none" stroke="black" points="347.92,-509.2 347.92,-540 667.72,-540 667.72,-509.2 347.92,-509.2"/>
<text text-anchor="start" x="354.92" y="-521.4" font-family="Arial" font-size="14.00">aggregatedatasetid </text>
<text text-anchor="start" x="478.69" y="-521.4" font-family="Arial" font-size="14.00" fill="#666666">[integer]</text>
<polygon fill="none" stroke="black" points="347.92,-478.4 347.92,-509.2 667.72,-509.2 667.72,-478.4 347.92,-478.4"/>
<text text-anchor="start" x="354.92" y="-490.6" font-family="Arial" font-size="14.00">aggregatedatasetname </text>
<text text-anchor="start" x="502.81" y="-490.6" font-family="Arial" font-size="14.00" fill="#666666">[varchar(255)]</text>
<polygon fill="none" stroke="black" points="347.92,-447.6 347.92,-478.4 667.72,-478.4 667.72,-447.6 347.92,-447.6"/>
<text text-anchor="start" x="354.92" y="-459.8" font-family="Arial" font-size="14.00">aggregateordertypeid </text>
<text text-anchor="start" x="491.91" y="-459.8" font-family="Arial" font-size="14.00" fill="#666666">[integer]</text>
<polygon fill="none" stroke="black" points="347.92,-416.8 347.92,-447.6 667.72,-447.6 667.72,-416.8 347.92,-416.8"/>
<text text-anchor="start" x="354.92" y="-429" font-family="Arial" font-size="14.00">notes </text>
<text text-anchor="start" x="393.06" y="-429" font-family="Arial" font-size="14.00" fill="#666666">[text]</text>
<polygon fill="none" stroke="black" points="347.92,-386 347.92,-416.8 667.72,-416.8 667.72,-386 347.92,-386"/>
<text text-anchor="start" x="354.92" y="-398.2" font-family="Arial" font-size="14.00">recdatecreated </text>
<text text-anchor="start" x="452.21" y="-398.2" font-family="Arial" font-size="14.00" fill="#666666">[timestamp(0) without time zone]</text>
<polygon fill="none" stroke="black" points="347.92,-355.2 347.92,-386 667.72,-386 667.72,-355.2 347.92,-355.2"/>
<text text-anchor="start" x="354.92" y="-367.4" font-family="Arial" font-size="14.00">recdatemodified </text>
<text text-anchor="start" x="458.43" y="-367.4" font-family="Arial" font-size="14.00" fill="#666666">[timestamp(0) without time zone]</text>
</g>
<!-- ndb.aggregatechronologies&#45;&gt;ndb.aggregatedatasets -->
<g id="edge4" class="edge">
<title>ndb.aggregatechronologies:aggregatedatasetid&#45;&gt;ndb.aggregatedatasets:aggregatedatasetid</title>
<path fill="none" stroke="black" d="M1188.23,-1019.6C1123.13,-994.49 1196.02,-713.65 1143.82,-654.8 1071.19,-572.9 778.19,-524.6 668.72,-524.6"/>
<polygon fill="black" stroke="black" points="1188.19,-1019.6 1197.25,-1025.77 1193.44,-1020.53 1197.7,-1021.28 1197.7,-1021.28 1197.7,-1021.28 1193.44,-1020.53 1198.82,-1016.91 1188.19,-1019.6"/>
<text text-anchor="start" x="871" y="-1005.4" font-family="Arial" font-size="10.00">FOREIGN KEY (aggregatedatasetid) REFERENCES ndb.aggregatedatasets(aggregatedatasetid) ON UPDATE CASCADE ON DELETE CASCADE</text>
</g>
<!-- ndb.agetypes -->
<g id="node7" class="node">
<title>ndb.agetypes</title>
<polygon fill="#efefef" stroke="none" points="1851.92,-540 1851.92,-575.6 2171.72,-575.6 2171.72,-540 1851.92,-540"/>
<polygon fill="none" stroke="black" points="1851.92,-540 1851.92,-575.6 2171.72,-575.6 2171.72,-540 1851.92,-540"/>
<text text-anchor="start" x="1902.34" y="-553.4" font-family="Arial Bold" font-size="18.00">ndb.agetypes</text>
<text text-anchor="start" x="1996.81" y="-553.4" font-family="Arial" font-size="14.00">    </text>
<text text-anchor="start" x="2027.93" y="-553.4" font-family="Arial" font-size="14.00" fill="#666666">[BASE TABLE]</text>
<polygon fill="none" stroke="black" points="1851.92,-509.2 1851.92,-540 2171.72,-540 2171.72,-509.2 1851.92,-509.2"/>
<text text-anchor="start" x="1858.92" y="-521.4" font-family="Arial" font-size="14.00">agetypeid </text>
<text text-anchor="start" x="1923.53" y="-521.4" font-family="Arial" font-size="14.00" fill="#666666">[integer]</text>
<polygon fill="none" stroke="black" points="1851.92,-478.4 1851.92,-509.2 2171.72,-509.2 2171.72,-478.4 1851.92,-478.4"/>
<text text-anchor="start" x="1858.92" y="-490.6" font-family="Arial" font-size="14.00">agetype </text>
<text text-anchor="start" x="1912.63" y="-490.6" font-family="Arial" font-size="14.00" fill="#666666">[varchar(64)]</text>
<polygon fill="none" stroke="black" points="1851.92,-447.6 1851.92,-478.4 2171.72,-478.4 2171.72,-447.6 1851.92,-447.6"/>
<text text-anchor="start" x="1858.92" y="-459.8" font-family="Arial" font-size="14.00">precedence </text>
<text text-anchor="start" x="1935.98" y="-459.8" font-family="Arial" font-size="14.00" fill="#666666">[integer]</text>
<polygon fill="none" stroke="black" points="1851.92,-416.8 1851.92,-447.6 2171.72,-447.6 2171.72,-416.8 1851.92,-416.8"/>
<text text-anchor="start" x="1858.92" y="-429" font-family="Arial" font-size="14.00">shortagetype </text>
<text text-anchor="start" x="1943.76" y="-429" font-family="Arial" font-size="14.00" fill="#666666">[varchar(32)]</text>
<polygon fill="none" stroke="black" points="1851.92,-386 1851.92,-416.8 2171.72,-416.8 2171.72,-386 1851.92,-386"/>
<text text-anchor="start" x="1858.92" y="-398.2" font-family="Arial" font-size="14.00">recdatecreated </text>
<text text-anchor="start" x="1956.21" y="-398.2" font-family="Arial" font-size="14.00" fill="#666666">[timestamp(0) without time zone]</text>
<polygon fill="none" stroke="black" points="1851.92,-355.2 1851.92,-386 2171.72,-386 2171.72,-355.2 1851.92,-355.2"/>
<text text-anchor="start" x="1858.92" y="-367.4" font-family="Arial" font-size="14.00">recdatemodified </text>
<text text-anchor="start" x="1962.43" y="-367.4" font-family="Arial" font-size="14.00" fill="#666666">[timestamp(0) without time zone]</text>
</g>
<!-- ndb.aggregatechronologies&#45;&gt;ndb.agetypes -->
<g id="edge7" class="edge">
<title>ndb.aggregatechronologies:agetypeid&#45;&gt;ndb.agetypes:agetypeid</title>
<path fill="none" stroke="black" d="M1543.37,-988.69C1602.7,-964.26 1545.1,-712.64 1587.82,-654.8 1665.33,-549.85 1720.45,-524.6 1850.92,-524.6"/>
<polygon fill="black" stroke="black" points="1543.44,-988.68 1532.77,-986.12 1538.2,-989.67 1533.94,-990.48 1533.94,-990.48 1533.94,-990.48 1538.2,-989.67 1534.45,-994.96 1543.44,-988.68"/>
<text text-anchor="start" x="998.33" y="-974.6" font-family="Arial" font-size="10.00">FOREIGN KEY (agetypeid) REFERENCES ndb.agetypes(agetypeid) ON UPDATE CASCADE ON DELETE CASCADE</text>
</g>
<!-- ndb.aggregatesampleages -->
<g id="node2" class="node">
<title>ndb.aggregatesampleages</title>
<polygon fill="#efefef" stroke="none" points="770.37,-1441.2 770.37,-1476.8 1093.28,-1476.8 1093.28,-1441.2 770.37,-1441.2"/>
<polygon fill="none" stroke="black" points="770.37,-1441.2 770.37,-1476.8 1093.28,-1476.8 1093.28,-1441.2 770.37,-1441.2"/>
<text text-anchor="start" x="777.37" y="-1454.6" font-family="Arial Bold" font-size="18.00">ndb.aggregatesampleages</text>
<text text-anchor="start" x="961.79" y="-1454.6" font-family="Arial" font-size="14.00">    </text>
<text text-anchor="start" x="992.91" y="-1454.6" font-family="Arial" font-size="14.00" fill="#666666">[BASE TABLE]</text>
<polygon fill="none" stroke="black" points="770.37,-1410.4 770.37,-1441.2 1093.28,-1441.2 1093.28,-1410.4 770.37,-1410.4"/>
<text text-anchor="start" x="777.37" y="-1422.6" font-family="Arial" font-size="14.00">aggregatedatasetid </text>
<text text-anchor="start" x="901.13" y="-1422.6" font-family="Arial" font-size="14.00" fill="#666666">[integer]</text>
<polygon fill="none" stroke="black" points="770.37,-1379.6 770.37,-1410.4 1093.28,-1410.4 1093.28,-1379.6 770.37,-1379.6"/>
<text text-anchor="start" x="777.37" y="-1391.8" font-family="Arial" font-size="14.00">aggregatechronid </text>
<text text-anchor="start" x="890.23" y="-1391.8" font-family="Arial" font-size="14.00" fill="#666666">[integer]</text>
<polygon fill="none" stroke="black" points="770.37,-1348.8 770.37,-1379.6 1093.28,-1379.6 1093.28,-1348.8 770.37,-1348.8"/>
<text text-anchor="start" x="777.37" y="-1361" font-family="Arial" font-size="14.00">sampleageid </text>
<text text-anchor="start" x="860.64" y="-1361" font-family="Arial" font-size="14.00" fill="#666666">[integer]</text>
<polygon fill="none" stroke="black" points="770.37,-1318 770.37,-1348.8 1093.28,-1348.8 1093.28,-1318 770.37,-1318"/>
<text text-anchor="start" x="777.37" y="-1330.2" font-family="Arial" font-size="14.00">recdatecreated </text>
<text text-anchor="start" x="874.65" y="-1330.2" font-family="Arial" font-size="14.00" fill="#666666">[timestamp(0) without time zone]</text>
<polygon fill="none" stroke="black" points="770.37,-1287.2 770.37,-1318 1093.28,-1318 1093.28,-1287.2 770.37,-1287.2"/>
<text text-anchor="start" x="777.37" y="-1299.4" font-family="Arial" font-size="14.00">recdatemodified </text>
<text text-anchor="start" x="880.87" y="-1299.4" font-family="Arial" font-size="14.00" fill="#666666">[timestamp(0) without time zone]</text>
</g>
<!-- ndb.aggregatesampleages&#45;&gt;ndb.aggregatechronologies -->
<g id="edge1" class="edge">
<title>ndb.aggregatesampleages:aggregatechronid&#45;&gt;ndb.aggregatechronologies:aggregatechronid</title>
<path fill="none" stroke="black" d="M1104.21,-1392.99C1169.21,-1364.89 1122.33,-1052.2 1198.36,-1052.2"/>
<polygon fill="black" stroke="black" points="1104.41,-1392.95 1093.71,-1390.52 1099.18,-1394.01 1094.93,-1394.87 1094.93,-1394.87 1094.93,-1394.87 1099.18,-1394.01 1095.5,-1399.34 1104.41,-1392.95"/>
<text text-anchor="start" x="1101.28" y="-1405" font-family="Arial" font-size="10.00">FOREIGN KEY (aggregatechronid) REFERENCES ndb.aggregatechronologies(aggregatechronid)</text>
</g>
<!-- ndb.aggregatesampleages&#45;&gt;ndb.aggregatedatasets -->
<g id="edge2" class="edge">
<title>ndb.aggregatesampleages:aggregatedatasetid&#45;&gt;ndb.aggregatedatasets:aggregatedatasetid</title>
<path fill="none" stroke="black" d="M758.93,-1425.78C534.17,-1425.07 418.91,-1400.1 295.82,-1208 213.66,-1079.77 194.63,-524.6 346.92,-524.6"/>
<polygon fill="black" stroke="black" points="759.03,-1425.78 769.03,-1430.3 764.37,-1425.79 768.7,-1425.8 768.7,-1425.8 768.7,-1425.8 764.37,-1425.79 769.04,-1421.3 759.03,-1425.78"/>
<text text-anchor="start" x="107.65" y="-1435.8" font-family="Arial" font-size="10.00">FOREIGN KEY (aggregatedatasetid) REFERENCES ndb.aggregatedatasets(aggregatedatasetid) ON UPDATE CASCADE ON DELETE CASCADE</text>
</g>
<!-- ndb.sampleages -->
<g id="node4" class="node">
<title>ndb.sampleages</title>
<polygon fill="#efefef" stroke="none" points="771.92,-1036.8 771.92,-1072.4 1091.72,-1072.4 1091.72,-1036.8 771.92,-1036.8"/>
<polygon fill="none" stroke="black" points="771.92,-1036.8 771.92,-1072.4 1091.72,-1072.4 1091.72,-1036.8 771.92,-1036.8"/>
<text text-anchor="start" x="812.34" y="-1050.2" font-family="Arial Bold" font-size="18.00">ndb.sampleages</text>
<text text-anchor="start" x="926.81" y="-1050.2" font-family="Arial" font-size="14.00">    </text>
<text text-anchor="start" x="957.93" y="-1050.2" font-family="Arial" font-size="14.00" fill="#666666">[BASE TABLE]</text>
<polygon fill="none" stroke="black" points="771.92,-1006 771.92,-1036.8 1091.72,-1036.8 1091.72,-1006 771.92,-1006"/>
<text text-anchor="start" x="778.92" y="-1018.2" font-family="Arial" font-size="14.00">sampleageid </text>
<text text-anchor="start" x="862.2" y="-1018.2" font-family="Arial" font-size="14.00" fill="#666666">[integer]</text>
<polygon fill="none" stroke="black" points="771.92,-975.2 771.92,-1006 1091.72,-1006 1091.72,-975.2 771.92,-975.2"/>
<text text-anchor="start" x="778.92" y="-987.4" font-family="Arial" font-size="14.00">sampleid </text>
<text text-anchor="start" x="838.84" y="-987.4" font-family="Arial" font-size="14.00" fill="#666666">[integer]</text>
<polygon fill="none" stroke="black" points="771.92,-944.4 771.92,-975.2 1091.72,-975.2 1091.72,-944.4 771.92,-944.4"/>
<text text-anchor="start" x="778.92" y="-956.6" font-family="Arial" font-size="14.00">chronologyid </text>
<text text-anchor="start" x="862.2" y="-956.6" font-family="Arial" font-size="14.00" fill="#666666">[integer]</text>
<polygon fill="none" stroke="black" points="771.92,-913.6 771.92,-944.4 1091.72,-944.4 1091.72,-913.6 771.92,-913.6"/>
<text text-anchor="start" x="778.92" y="-925.8" font-family="Arial" font-size="14.00">age </text>
<text text-anchor="start" x="806.17" y="-925.8" font-family="Arial" font-size="14.00" fill="#666666">[double precision]</text>
<polygon fill="none" stroke="black" points="771.92,-882.8 771.92,-913.6 1091.72,-913.6 1091.72,-882.8 771.92,-882.8"/>
<text text-anchor="start" x="778.92" y="-895" font-family="Arial" font-size="14.00">ageyounger </text>
<text text-anchor="start" x="856.76" y="-895" font-family="Arial" font-size="14.00" fill="#666666">[double precision]</text>
<polygon fill="none" stroke="black" points="771.92,-852 771.92,-882.8 1091.72,-882.8 1091.72,-852 771.92,-852"/>
<text text-anchor="start" x="778.92" y="-864.2" font-family="Arial" font-size="14.00">ageolder </text>
<text text-anchor="start" x="837.3" y="-864.2" font-family="Arial" font-size="14.00" fill="#666666">[double precision]</text>
<polygon fill="none" stroke="black" points="771.92,-821.2 771.92,-852 1091.72,-852 1091.72,-821.2 771.92,-821.2"/>
<text text-anchor="start" x="778.92" y="-833.4" font-family="Arial" font-size="14.00">recdatecreated </text>
<text text-anchor="start" x="876.21" y="-833.4" font-family="Arial" font-size="14.00" fill="#666666">[timestamp(0) without time zone]</text>
<polygon fill="none" stroke="black" points="771.92,-790.4 771.92,-821.2 1091.72,-821.2 1091.72,-790.4 771.92,-790.4"/>
<text text-anchor="start" x="778.92" y="-802.6" font-family="Arial" font-size="14.00">recdatemodified </text>
<text text-anchor="start" x="882.43" y="-802.6" font-family="Arial" font-size="14.00" fill="#666666">[timestamp(0) without time zone]</text>
</g>
<!-- ndb.aggregatesampleages&#45;&gt;ndb.sampleages -->
<g id="edge3" class="edge">
<title>ndb.aggregatesampleages:sampleageid&#45;&gt;ndb.sampleages:sampleageid</title>
<path fill="none" stroke="black" d="M1102.48,-1358.25C1131.9,-1312.73 1127.84,-1021.4 1092.72,-1021.4"/>
<polygon fill="black" stroke="black" points="1102.64,-1358.13 1091.91,-1360.36 1098.32,-1361.26 1094.82,-1363.81 1094.82,-1363.81 1094.82,-1363.81 1098.32,-1361.26 1097.19,-1367.65 1102.64,-1358.13"/>
<text text-anchor="start" x="1101.28" y="-1374.2" font-family="Arial" font-size="10.00">FOREIGN KEY (sampleageid) REFERENCES ndb.sampleages(sampleageid) ON UPDATE CASCADE ON DELETE CASCADE</text>
</g>
<!-- ndb.aggregateordertypes -->
<g id="node6" class="node">
<title>ndb.aggregateordertypes</title>
<polygon fill="#efefef" stroke="none" points="347.92,-197.2 347.92,-232.8 667.72,-232.8 667.72,-197.2 347.92,-197.2"/>
<polygon fill="none" stroke="black" points="347.92,-197.2 347.92,-232.8 667.72,-232.8 667.72,-197.2 347.92,-197.2"/>
<text text-anchor="start" x="356.87" y="-210.6" font-family="Arial Bold" font-size="18.00">ndb.aggregateordertypes</text>
<text text-anchor="start" x="534.29" y="-210.6" font-family="Arial" font-size="14.00">    </text>
<text text-anchor="start" x="565.41" y="-210.6" font-family="Arial" font-size="14.00" fill="#666666">[BASE TABLE]</text>
<polygon fill="none" stroke="black" points="347.92,-166.4 347.92,-197.2 667.72,-197.2 667.72,-166.4 347.92,-166.4"/>
<text text-anchor="start" x="354.92" y="-178.6" font-family="Arial" font-size="14.00">aggregateordertypeid </text>
<text text-anchor="start" x="491.91" y="-178.6" font-family="Arial" font-size="14.00" fill="#666666">[integer]</text>
<polygon fill="none" stroke="black" points="347.92,-135.6 347.92,-166.4 667.72,-166.4 667.72,-135.6 347.92,-135.6"/>
<text text-anchor="start" x="354.92" y="-147.8" font-family="Arial" font-size="14.00">aggregateordertype </text>
<text text-anchor="start" x="481.01" y="-147.8" font-family="Arial" font-size="14.00" fill="#666666">[varchar(64)]</text>
<polygon fill="none" stroke="black" points="347.92,-104.8 347.92,-135.6 667.72,-135.6 667.72,-104.8 347.92,-104.8"/>
<text text-anchor="start" x="354.92" y="-117" font-family="Arial" font-size="14.00">notes </text>
<text text-anchor="start" x="393.06" y="-117" font-family="Arial" font-size="14.00" fill="#666666">[text]</text>
<polygon fill="none" stroke="black" points="347.92,-74 347.92,-104.8 667.72,-104.8 667.72,-74 347.92,-74"/>
<text text-anchor="start" x="354.92" y="-86.2" font-family="Arial" font-size="14.00">recdatecreated </text>
<text text-anchor="start" x="452.21" y="-86.2" font-family="Arial" font-size="14.00" fill="#666666">[timestamp(0) without time zone]</text>
<polygon fill="none" stroke="black" points="347.92,-43.2 347.92,-74 667.72,-74 667.72,-43.2 347.92,-43.2"/>
<text text-anchor="start" x="354.92" y="-55.4" font-family="Arial" font-size="14.00">recdatemodified </text>
<text text-anchor="start" x="458.43" y="-55.4" font-family="Arial" font-size="14.00" fill="#666666">[timestamp(0) without time zone]</text>
</g>
<!-- ndb.aggregatedatasets&#45;&gt;ndb.aggregateordertypes -->
<g id="edge6" class="edge">
<title>ndb.aggregatedatasets:aggregateordertypeid&#45;&gt;ndb.aggregateordertypes:aggregateordertypeid</title>
<path fill="none" stroke="black" d="M679.04,-462.34C793.6,-447.3 790.16,-181.8 668.72,-181.8"/>
<polygon fill="black" stroke="black" points="679.03,-462.34 668.77,-458.49 673.71,-462.68 669.39,-462.96 669.39,-462.96 669.39,-462.96 673.71,-462.68 669.34,-467.47 679.03,-462.34"/>
<text text-anchor="start" x="675.72" y="-473" font-family="Arial" font-size="10.00">FOREIGN KEY (aggregateordertypeid) REFERENCES ndb.aggregateordertypes(aggregateordertypeid) ON UPDATE CASCADE ON DELETE CASCADE</text>
</g>
<!-- ndb.aggregatesamples -->
<g id="node5" class="node">
<title>ndb.aggregatesamples</title>
<polygon fill="#efefef" stroke="none" points="347.92,-975.2 347.92,-1010.8 667.72,-1010.8 667.72,-975.2 347.92,-975.2"/>
<polygon fill="none" stroke="black" points="347.92,-975.2 347.92,-1010.8 667.72,-1010.8 667.72,-975.2 347.92,-975.2"/>
<text text-anchor="start" x="365.86" y="-988.6" font-family="Arial Bold" font-size="18.00">ndb.aggregatesamples</text>
<text text-anchor="start" x="525.3" y="-988.6" font-family="Arial" font-size="14.00">    </text>
<text text-anchor="start" x="556.42" y="-988.6" font-family="Arial" font-size="14.00" fill="#666666">[BASE TABLE]</text>
<polygon fill="none" stroke="black" points="347.92,-944.4 347.92,-975.2 667.72,-975.2 667.72,-944.4 347.92,-944.4"/>
<text text-anchor="start" x="354.92" y="-956.6" font-family="Arial" font-size="14.00">aggregatedatasetid </text>
<text text-anchor="start" x="478.69" y="-956.6" font-family="Arial" font-size="14.00" fill="#666666">[integer]</text>
<polygon fill="none" stroke="black" points="347.92,-913.6 347.92,-944.4 667.72,-944.4 667.72,-913.6 347.92,-913.6"/>
<text text-anchor="start" x="354.92" y="-925.8" font-family="Arial" font-size="14.00">sampleid </text>
<text text-anchor="start" x="414.84" y="-925.8" font-family="Arial" font-size="14.00" fill="#666666">[integer]</text>
<polygon fill="none" stroke="black" points="347.92,-882.8 347.92,-913.6 667.72,-913.6 667.72,-882.8 347.92,-882.8"/>
<text text-anchor="start" x="354.92" y="-895" font-family="Arial" font-size="14.00">recdatecreated </text>
<text text-anchor="start" x="452.21" y="-895" font-family="Arial" font-size="14.00" fill="#666666">[timestamp(0) without time zone]</text>
<polygon fill="none" stroke="black" points="347.92,-852 347.92,-882.8 667.72,-882.8 667.72,-852 347.92,-852"/>
<text text-anchor="start" x="354.92" y="-864.2" font-family="Arial" font-size="14.00">recdatemodified </text>
<text text-anchor="start" x="458.43" y="-864.2" font-family="Arial" font-size="14.00" fill="#666666">[timestamp(0) without time zone]</text>
</g>
<!-- ndb.aggregatesamples&#45;&gt;ndb.aggregatedatasets -->
<g id="edge5" class="edge">
<title>ndb.aggregatesamples:aggregatedatasetid&#45;&gt;ndb.aggregatedatasets:aggregatedatasetid</title>
<path fill="none" stroke="black" d="M677.47,-954.61C716.88,-905.51 713.96,-524.6 668.72,-524.6"/>
<polygon fill="black" stroke="black" points="677.61,-954.53 666.71,-955.76 673.02,-957.25 669.3,-959.46 669.3,-959.46 669.3,-959.46 673.02,-957.25 671.31,-963.5 677.61,-954.53"/>
<text text-anchor="start" x="7" y="-969.8" font-family="Arial" font-size="10.00">FOREIGN KEY (aggregatedatasetid) REFERENCES ndb.aggregatedatasets(aggregatedatasetid) ON UPDATE CASCADE ON DELETE CASCADE</text>
</g>
<!-- ndb.chronologies -->
<g id="node8" class="node">
<title>ndb.chronologies</title>
<polygon fill="#efefef" stroke="none" points="2487.92,-1113.8 2487.92,-1149.4 2807.72,-1149.4 2807.72,-1113.8 2487.92,-1113.8"/>
<polygon fill="none" stroke="black" points="2487.92,-1113.8 2487.92,-1149.4 2807.72,-1149.4 2807.72,-1113.8 2487.92,-1113.8"/>
<text text-anchor="start" x="2523.34" y="-1127.2" font-family="Arial Bold" font-size="18.00">ndb.chronologies</text>
<text text-anchor="start" x="2647.82" y="-1127.2" font-family="Arial" font-size="14.00">    </text>
<text text-anchor="start" x="2678.93" y="-1127.2" font-family="Arial" font-size="14.00" fill="#666666">[BASE TABLE]</text>
<polygon fill="none" stroke="black" points="2487.92,-1083 2487.92,-1113.8 2807.72,-1113.8 2807.72,-1083 2487.92,-1083"/>
<text text-anchor="start" x="2494.92" y="-1095.2" font-family="Arial" font-size="14.00">chronologyid </text>
<text text-anchor="start" x="2578.2" y="-1095.2" font-family="Arial" font-size="14.00" fill="#666666">[integer]</text>
<polygon fill="none" stroke="black" points="2487.92,-1052.2 2487.92,-1083 2807.72,-1083 2807.72,-1052.2 2487.92,-1052.2"/>
<text text-anchor="start" x="2494.92" y="-1064.4" font-family="Arial" font-size="14.00">collectionunitid </text>
<text text-anchor="start" x="2590.65" y="-1064.4" font-family="Arial" font-size="14.00" fill="#666666">[integer]</text>
<polygon fill="none" stroke="black" points="2487.92,-1021.4 2487.92,-1052.2 2807.72,-1052.2 2807.72,-1021.4 2487.92,-1021.4"/>
<text text-anchor="start" x="2494.92" y="-1033.6" font-family="Arial" font-size="14.00">agetypeid </text>
<text text-anchor="start" x="2559.53" y="-1033.6" font-family="Arial" font-size="14.00" fill="#666666">[integer]</text>
<polygon fill="none" stroke="black" points="2487.92,-990.6 2487.92,-1021.4 2807.72,-1021.4 2807.72,-990.6 2487.92,-990.6"/>
<text text-anchor="start" x="2494.92" y="-1002.8" font-family="Arial" font-size="14.00">contactid </text>
<text text-anchor="start" x="2554.85" y="-1002.8" font-family="Arial" font-size="14.00" fill="#666666">[integer]</text>
<polygon fill="none" stroke="black" points="2487.92,-959.8 2487.92,-990.6 2807.72,-990.6 2807.72,-959.8 2487.92,-959.8"/>
<text text-anchor="start" x="2494.92" y="-972" font-family="Arial" font-size="14.00">isdefault </text>
<text text-anchor="start" x="2550.96" y="-972" font-family="Arial" font-size="14.00" fill="#666666">[boolean]</text>
<polygon fill="none" stroke="black" points="2487.92,-929 2487.92,-959.8 2807.72,-959.8 2807.72,-929 2487.92,-929"/>
<text text-anchor="start" x="2494.92" y="-941.2" font-family="Arial" font-size="14.00">chronologyname </text>
<text text-anchor="start" x="2602.32" y="-941.2" font-family="Arial" font-size="14.00" fill="#666666">[varchar(80)]</text>
<polygon fill="none" stroke="black" points="2487.92,-898.2 2487.92,-929 2807.72,-929 2807.72,-898.2 2487.92,-898.2"/>
<text text-anchor="start" x="2494.92" y="-910.4" font-family="Arial" font-size="14.00">dateprepared </text>
<text text-anchor="start" x="2582.1" y="-910.4" font-family="Arial" font-size="14.00" fill="#666666">[date]</text>
<polygon fill="none" stroke="black" points="2487.92,-867.4 2487.92,-898.2 2807.72,-898.2 2807.72,-867.4 2487.92,-867.4"/>
<text text-anchor="start" x="2494.92" y="-879.6" font-family="Arial" font-size="14.00">agemodel </text>
<text text-anchor="start" x="2560.3" y="-879.6" font-family="Arial" font-size="14.00" fill="#666666">[varchar(80)]</text>
<polygon fill="none" stroke="black" points="2487.92,-836.6 2487.92,-867.4 2807.72,-867.4 2807.72,-836.6 2487.92,-836.6"/>
<text text-anchor="start" x="2494.92" y="-848.8" font-family="Arial" font-size="14.00">ageboundyounger </text>
<text text-anchor="start" x="2611.69" y="-848.8" font-family="Arial" font-size="14.00" fill="#666666">[integer]</text>
<polygon fill="none" stroke="black" points="2487.92,-805.8 2487.92,-836.6 2807.72,-836.6 2807.72,-805.8 2487.92,-805.8"/>
<text text-anchor="start" x="2494.92" y="-818" font-family="Arial" font-size="14.00">ageboundolder </text>
<text text-anchor="start" x="2592.23" y="-818" font-family="Arial" font-size="14.00" fill="#666666">[integer]</text>
<polygon fill="none" stroke="black" points="2487.92,-775 2487.92,-805.8 2807.72,-805.8 2807.72,-775 2487.92,-775"/>
<text text-anchor="start" x="2494.92" y="-787.2" font-family="Arial" font-size="14.00">notes </text>
<text text-anchor="start" x="2533.06" y="-787.2" font-family="Arial" font-size="14.00" fill="#666666">[text]</text>
<polygon fill="none" stroke="black" points="2487.92,-744.2 2487.92,-775 2807.72,-775 2807.72,-744.2 2487.92,-744.2"/>
<text text-anchor="start" x="2494.92" y="-756.4" font-family="Arial" font-size="14.00">recdatecreated </text>
<text text-anchor="start" x="2592.21" y="-756.4" font-family="Arial" font-size="14.00" fill="#666666">[timestamp(0) without time zone]</text>
<polygon fill="none" stroke="black" points="2487.92,-713.4 2487.92,-744.2 2807.72,-744.2 2807.72,-713.4 2487.92,-713.4"/>
<text text-anchor="start" x="2494.92" y="-725.6" font-family="Arial" font-size="14.00">recdatemodified </text>
<text text-anchor="start" x="2598.43" y="-725.6" font-family="Arial" font-size="14.00" fill="#666666">[timestamp(0) without time zone]</text>
</g>
<!-- ndb.chronologies&#45;&gt;ndb.agetypes -->
<g id="edge8" class="edge">
<title>ndb.chronologies:agetypeid&#45;&gt;ndb.agetypes:agetypeid</title>
<path fill="none" stroke="black" d="M2476.8,-1035.11C2408.29,-1010.4 2483.59,-721.41 2435.82,-654.8 2359.79,-548.78 2303.19,-524.6 2172.72,-524.6"/>
<polygon fill="black" stroke="black" points="2476.73,-1035.1 2485.85,-1041.18 2481.99,-1035.98 2486.26,-1036.69 2486.26,-1036.69 2486.26,-1036.69 2481.99,-1035.98 2487.33,-1032.31 2476.73,-1035.1"/>
<text text-anchor="start" x="2493.92" y="-1046.8" font-family="Arial" font-size="10.00">FOREIGN KEY (agetypeid) REFERENCES ndb.agetypes(agetypeid) ON UPDATE CASCADE ON DELETE CASCADE</text>
</g>
<!-- ndb.chroncontrols -->
<g id="node9" class="node">
<title>ndb.chroncontrols</title>
<polygon fill="#efefef" stroke="none" points="1639.92,-1113.8 1639.92,-1149.4 1959.72,-1149.4 1959.72,-1113.8 1639.92,-1113.8"/>
<polygon fill="none" stroke="black" points="1639.92,-1113.8 1639.92,-1149.4 1959.72,-1149.4 1959.72,-1113.8 1639.92,-1113.8"/>
<text text-anchor="start" x="1672.34" y="-1127.2" font-family="Arial Bold" font-size="18.00">ndb.chroncontrols</text>
<text text-anchor="start" x="1802.81" y="-1127.2" font-family="Arial" font-size="14.00">    </text>
<text text-anchor="start" x="1833.93" y="-1127.2" font-family="Arial" font-size="14.00" fill="#666666">[BASE TABLE]</text>
<polygon fill="none" stroke="black" points="1639.92,-1083 1639.92,-1113.8 1959.72,-1113.8 1959.72,-1083 1639.92,-1083"/>
<text text-anchor="start" x="1646.92" y="-1095.2" font-family="Arial" font-size="14.00">chroncontrolid </text>
<text text-anchor="start" x="1738.75" y="-1095.2" font-family="Arial" font-size="14.00" fill="#666666">[integer]</text>
<polygon fill="none" stroke="black" points="1639.92,-1052.2 1639.92,-1083 1959.72,-1083 1959.72,-1052.2 1639.92,-1052.2"/>
<text text-anchor="start" x="1646.92" y="-1064.4" font-family="Arial" font-size="14.00">chronologyid </text>
<text text-anchor="start" x="1730.2" y="-1064.4" font-family="Arial" font-size="14.00" fill="#666666">[integer]</text>
<polygon fill="none" stroke="black" points="1639.92,-1021.4 1639.92,-1052.2 1959.72,-1052.2 1959.72,-1021.4 1639.92,-1021.4"/>
<text text-anchor="start" x="1646.92" y="-1033.6" font-family="Arial" font-size="14.00">chroncontroltypeid </text>
<text text-anchor="start" x="1765.21" y="-1033.6" font-family="Arial" font-size="14.00" fill="#666666">[integer]</text>
<polygon fill="none" stroke="black" points="1639.92,-990.6 1639.92,-1021.4 1959.72,-1021.4 1959.72,-990.6 1639.92,-990.6"/>
<text text-anchor="start" x="1646.92" y="-1002.8" font-family="Arial" font-size="14.00">depth </text>
<text text-anchor="start" x="1685.85" y="-1002.8" font-family="Arial" font-size="14.00" fill="#666666">[double precision]</text>
<polygon fill="none" stroke="black" points="1639.92,-959.8 1639.92,-990.6 1959.72,-990.6 1959.72,-959.8 1639.92,-959.8"/>
<text text-anchor="start" x="1646.92" y="-972" font-family="Arial" font-size="14.00">thickness </text>
<text text-anchor="start" x="1709.17" y="-972" font-family="Arial" font-size="14.00" fill="#666666">[double precision]</text>
<polygon fill="none" stroke="black" points="1639.92,-929 1639.92,-959.8 1959.72,-959.8 1959.72,-929 1639.92,-929"/>
<text text-anchor="start" x="1646.92" y="-941.2" font-family="Arial" font-size="14.00">age </text>
<text text-anchor="start" x="1674.17" y="-941.2" font-family="Arial" font-size="14.00" fill="#666666">[double precision]</text>
<polygon fill="none" stroke="black" points="1639.92,-898.2 1639.92,-929 1959.72,-929 1959.72,-898.2 1639.92,-898.2"/>
<text text-anchor="start" x="1646.92" y="-910.4" font-family="Arial" font-size="14.00">agelimityounger </text>
<text text-anchor="start" x="1749.65" y="-910.4" font-family="Arial" font-size="14.00" fill="#666666">[double precision]</text>
<polygon fill="none" stroke="black" points="1639.92,-867.4 1639.92,-898.2 1959.72,-898.2 1959.72,-867.4 1639.92,-867.4"/>
<text text-anchor="start" x="1646.92" y="-879.6" font-family="Arial" font-size="14.00">agelimitolder </text>
<text text-anchor="start" x="1730.18" y="-879.6" font-family="Arial" font-size="14.00" fill="#666666">[double precision]</text>
<polygon fill="none" stroke="black" points="1639.92,-836.6 1639.92,-867.4 1959.72,-867.4 1959.72,-836.6 1639.92,-836.6"/>
<text text-anchor="start" x="1646.92" y="-848.8" font-family="Arial" font-size="14.00">notes </text>
<text text-anchor="start" x="1685.06" y="-848.8" font-family="Arial" font-size="14.00" fill="#666666">[text]</text>
<polygon fill="none" stroke="black" points="1639.92,-805.8 1639.92,-836.6 1959.72,-836.6 1959.72,-805.8 1639.92,-805.8"/>
<text text-anchor="start" x="1646.92" y="-818" font-family="Arial" font-size="14.00">recdatecreated </text>
<text text-anchor="start" x="1744.21" y="-818" font-family="Arial" font-size="14.00" fill="#666666">[timestamp(0) without time zone]</text>
<polygon fill="none" stroke="black" points="1639.92,-775 1639.92,-805.8 1959.72,-805.8 1959.72,-775 1639.92,-775"/>
<text text-anchor="start" x="1646.92" y="-787.2" font-family="Arial" font-size="14.00">recdatemodified </text>
<text text-anchor="start" x="1750.43" y="-787.2" font-family="Arial" font-size="14.00" fill="#666666">[timestamp(0) without time zone]</text>
<polygon fill="none" stroke="black" points="1639.92,-744.2 1639.92,-775 1959.72,-775 1959.72,-744.2 1639.92,-744.2"/>
<text text-anchor="start" x="1646.92" y="-756.4" font-family="Arial" font-size="14.00">analysisunitid </text>
<text text-anchor="start" x="1734.86" y="-756.4" font-family="Arial" font-size="14.00" fill="#666666">[integer]</text>
<polygon fill="none" stroke="black" points="1639.92,-713.4 1639.92,-744.2 1959.72,-744.2 1959.72,-713.4 1639.92,-713.4"/>
<text text-anchor="start" x="1646.92" y="-725.6" font-family="Arial" font-size="14.00">agetypeid </text>
<text text-anchor="start" x="1711.53" y="-725.6" font-family="Arial" font-size="14.00" fill="#666666">[integer]</text>
</g>
<!-- ndb.chroncontrols&#45;&gt;ndb.agetypes -->
<g id="edge9" class="edge">
<title>ndb.chroncontrols:agetypeid&#45;&gt;ndb.agetypes:agetypeid</title>
<path fill="none" stroke="black" d="M1970.56,-726.06C1982.49,-717.16 1971.5,-688.51 1959.72,-670.2 1931.01,-625.56 1880.49,-663.54 1851.92,-618.8 1829.39,-583.51 1809.05,-524.6 1850.92,-524.6"/>
<polygon fill="black" stroke="black" points="1970.68,-726.03 1959.84,-724.37 1965.54,-727.46 1961.37,-728.62 1961.37,-728.62 1961.37,-728.62 1965.54,-727.46 1962.25,-733.05 1970.68,-726.03"/>
<text text-anchor="start" x="1967.72" y="-738.8" font-family="Arial" font-size="10.00">FOREIGN KEY (agetypeid) REFERENCES ndb.agetypes(agetypeid)</text>
</g>
<!-- ndb.geochronology -->
<g id="node10" class="node">
<title>ndb.geochronology</title>
<polygon fill="#efefef" stroke="none" points="2063.92,-1129.2 2063.92,-1164.8 2383.72,-1164.8 2383.72,-1129.2 2063.92,-1129.2"/>
<polygon fill="none" stroke="black" points="2063.92,-1129.2 2063.92,-1164.8 2383.72,-1164.8 2383.72,-1129.2 2063.92,-1129.2"/>
<text text-anchor="start" x="2091.84" y="-1142.6" font-family="Arial Bold" font-size="18.00">ndb.geochronology</text>
<text text-anchor="start" x="2231.31" y="-1142.6" font-family="Arial" font-size="14.00">    </text>
<text text-anchor="start" x="2262.43" y="-1142.6" font-family="Arial" font-size="14.00" fill="#666666">[BASE TABLE]</text>
<polygon fill="none" stroke="black" points="2063.92,-1098.4 2063.92,-1129.2 2383.72,-1129.2 2383.72,-1098.4 2063.92,-1098.4"/>
<text text-anchor="start" x="2070.92" y="-1110.6" font-family="Arial" font-size="14.00">geochronid </text>
<text text-anchor="start" x="2144.09" y="-1110.6" font-family="Arial" font-size="14.00" fill="#666666">[integer]</text>
<polygon fill="none" stroke="black" points="2063.92,-1067.6 2063.92,-1098.4 2383.72,-1098.4 2383.72,-1067.6 2063.92,-1067.6"/>
<text text-anchor="start" x="2070.92" y="-1079.8" font-family="Arial" font-size="14.00">sampleid </text>
<text text-anchor="start" x="2130.84" y="-1079.8" font-family="Arial" font-size="14.00" fill="#666666">[integer]</text>
<polygon fill="none" stroke="black" points="2063.92,-1036.8 2063.92,-1067.6 2383.72,-1067.6 2383.72,-1036.8 2063.92,-1036.8"/>
<text text-anchor="start" x="2070.92" y="-1049" font-family="Arial" font-size="14.00">geochrontypeid </text>
<text text-anchor="start" x="2170.55" y="-1049" font-family="Arial" font-size="14.00" fill="#666666">[integer]</text>
<polygon fill="none" stroke="black" points="2063.92,-1006 2063.92,-1036.8 2383.72,-1036.8 2383.72,-1006 2063.92,-1006"/>
<text text-anchor="start" x="2070.92" y="-1018.2" font-family="Arial" font-size="14.00">agetypeid </text>
<text text-anchor="start" x="2135.53" y="-1018.2" font-family="Arial" font-size="14.00" fill="#666666">[integer]</text>
<polygon fill="none" stroke="black" points="2063.92,-975.2 2063.92,-1006 2383.72,-1006 2383.72,-975.2 2063.92,-975.2"/>
<text text-anchor="start" x="2070.92" y="-987.4" font-family="Arial" font-size="14.00">age </text>
<text text-anchor="start" x="2098.17" y="-987.4" font-family="Arial" font-size="14.00" fill="#666666">[double precision]</text>
<polygon fill="none" stroke="black" points="2063.92,-944.4 2063.92,-975.2 2383.72,-975.2 2383.72,-944.4 2063.92,-944.4"/>
<text text-anchor="start" x="2070.92" y="-956.6" font-family="Arial" font-size="14.00">errorolder </text>
<text text-anchor="start" x="2135.5" y="-956.6" font-family="Arial" font-size="14.00" fill="#666666">[double precision]</text>
<polygon fill="none" stroke="black" points="2063.92,-913.6 2063.92,-944.4 2383.72,-944.4 2383.72,-913.6 2063.92,-913.6"/>
<text text-anchor="start" x="2070.92" y="-925.8" font-family="Arial" font-size="14.00">erroryounger </text>
<text text-anchor="start" x="2154.96" y="-925.8" font-family="Arial" font-size="14.00" fill="#666666">[double precision]</text>
<polygon fill="none" stroke="black" points="2063.92,-882.8 2063.92,-913.6 2383.72,-913.6 2383.72,-882.8 2063.92,-882.8"/>
<text text-anchor="start" x="2070.92" y="-895" font-family="Arial" font-size="14.00">infinite </text>
<text text-anchor="start" x="2115.28" y="-895" font-family="Arial" font-size="14.00" fill="#666666">[boolean]</text>
<polygon fill="none" stroke="black" points="2063.92,-852 2063.92,-882.8 2383.72,-882.8 2383.72,-852 2063.92,-852"/>
<text text-anchor="start" x="2070.92" y="-864.2" font-family="Arial" font-size="14.00">delta13c </text>
<text text-anchor="start" x="2127.74" y="-864.2" font-family="Arial" font-size="14.00" fill="#666666">[double precision]</text>
<polygon fill="none" stroke="black" points="2063.92,-821.2 2063.92,-852 2383.72,-852 2383.72,-821.2 2063.92,-821.2"/>
<text text-anchor="start" x="2070.92" y="-833.4" font-family="Arial" font-size="14.00">labnumber </text>
<text text-anchor="start" x="2140.96" y="-833.4" font-family="Arial" font-size="14.00" fill="#666666">[varchar(40)]</text>
<polygon fill="none" stroke="black" points="2063.92,-790.4 2063.92,-821.2 2383.72,-821.2 2383.72,-790.4 2063.92,-790.4"/>
<text text-anchor="start" x="2070.92" y="-802.6" font-family="Arial" font-size="14.00">materialdated </text>
<text text-anchor="start" x="2159.64" y="-802.6" font-family="Arial" font-size="14.00" fill="#666666">[varchar(255)]</text>
<polygon fill="none" stroke="black" points="2063.92,-759.6 2063.92,-790.4 2383.72,-790.4 2383.72,-759.6 2063.92,-759.6"/>
<text text-anchor="start" x="2070.92" y="-771.8" font-family="Arial" font-size="14.00">notes </text>
<text text-anchor="start" x="2109.06" y="-771.8" font-family="Arial" font-size="14.00" fill="#666666">[text]</text>
<polygon fill="none" stroke="black" points="2063.92,-728.8 2063.92,-759.6 2383.72,-759.6 2383.72,-728.8 2063.92,-728.8"/>
<text text-anchor="start" x="2070.92" y="-741" font-family="Arial" font-size="14.00">recdatecreated </text>
<text text-anchor="start" x="2168.21" y="-741" font-family="Arial" font-size="14.00" fill="#666666">[timestamp(0) without time zone]</text>
<polygon fill="none" stroke="black" points="2063.92,-698 2063.92,-728.8 2383.72,-728.8 2383.72,-698 2063.92,-698"/>
<text text-anchor="start" x="2070.92" y="-710.2" font-family="Arial" font-size="14.00">recdatemodified </text>
<text text-anchor="start" x="2174.43" y="-710.2" font-family="Arial" font-size="14.00" fill="#666666">[timestamp(0) without time zone]</text>
</g>
<!-- ndb.geochronology&#45;&gt;ndb.agetypes -->
<g id="edge10" class="edge">
<title>ndb.geochronology:agetypeid&#45;&gt;ndb.agetypes:agetypeid</title>
<path fill="none" stroke="black" d="M2052.64,-1019.63C1984.61,-994.87 2018.36,-717.87 2063.92,-654.8 2093.5,-613.85 2141.98,-659.63 2171.72,-618.8 2196.37,-584.96 2214.59,-524.6 2172.72,-524.6"/>
<polygon fill="black" stroke="black" points="2052.74,-1019.65 2061.83,-1025.78 2058,-1020.55 2062.26,-1021.29 2062.26,-1021.29 2062.26,-1021.29 2058,-1020.55 2063.36,-1016.91 2052.74,-1019.65"/>
<text text-anchor="start" x="2069.92" y="-1031.4" font-family="Arial" font-size="10.00">FOREIGN KEY (agetypeid) REFERENCES ndb.agetypes(agetypeid)</text>
</g>
</g>
</svg>
