<?xml version="1.0" encoding="UTF-8" standalone="no"?>
<!DOCTYPE svg PUBLIC "-//W3C//DTD SVG 1.1//EN"
 "http://www.w3.org/Graphics/SVG/1.1/DTD/svg11.dtd">
<!-- Generated by graphviz version 12.1.2 (20240928.0832)
 -->
<!-- Title: ndb.calibrationprograms Pages: 1 -->
<svg width="2041pt" height="996pt"
 viewBox="0.00 0.00 2040.73 996.40" xmlns="http://www.w3.org/2000/svg" xmlns:xlink="http://www.w3.org/1999/xlink">
<g id="graph0" class="graph" transform="scale(1 1) rotate(0) translate(4 992.4)">
<title>ndb.calibrationprograms</title>
<polygon fill="white" stroke="none" points="-4,4 -4,-992.4 2036.73,-992.4 2036.73,4 -4,4"/>
<!-- ndb.calibrationprograms -->
<g id="node1" class="node">
<title>ndb.calibrationprograms</title>
<polygon fill="#efefef" stroke="none" points="1028.28,-320.4 1028.28,-356 1348.08,-356 1348.08,-320.4 1028.28,-320.4"/>
<polygon fill="none" stroke="black" points="1028.28,-320.4 1028.28,-356 1348.08,-356 1348.08,-320.4 1028.28,-320.4"/>
<text text-anchor="start" x="1037.71" y="-333.8" font-family="Arial Bold" font-size="18.00">ndb.calibrationprograms</text>
<text text-anchor="start" x="1214.16" y="-333.8" font-family="Arial" font-size="14.00">    </text>
<text text-anchor="start" x="1245.28" y="-333.8" font-family="Arial" font-size="14.00" fill="#666666">[BASE TABLE]</text>
<polygon fill="none" stroke="black" points="1028.28,-289.6 1028.28,-320.4 1348.08,-320.4 1348.08,-289.6 1028.28,-289.6"/>
<text text-anchor="start" x="1035.28" y="-301.8" font-family="Arial" font-size="14.00">calibrationprogramid </text>
<text text-anchor="start" x="1166.01" y="-301.8" font-family="Arial" font-size="14.00" fill="#666666">[integer]</text>
<polygon fill="none" stroke="black" points="1028.28,-258.8 1028.28,-289.6 1348.08,-289.6 1348.08,-258.8 1028.28,-258.8"/>
<text text-anchor="start" x="1035.28" y="-271" font-family="Arial" font-size="14.00">calibrationprogram </text>
<text text-anchor="start" x="1155.12" y="-271" font-family="Arial" font-size="14.00" fill="#666666">[varchar(24)]</text>
<polygon fill="none" stroke="black" points="1028.28,-228 1028.28,-258.8 1348.08,-258.8 1348.08,-228 1028.28,-228"/>
<text text-anchor="start" x="1035.28" y="-240.2" font-family="Arial" font-size="14.00">version </text>
<text text-anchor="start" x="1084.3" y="-240.2" font-family="Arial" font-size="14.00" fill="#666666">[varchar(24)]</text>
<polygon fill="none" stroke="black" points="1028.28,-197.2 1028.28,-228 1348.08,-228 1348.08,-197.2 1028.28,-197.2"/>
<text text-anchor="start" x="1035.28" y="-209.4" font-family="Arial" font-size="14.00">recdatecreated </text>
<text text-anchor="start" x="1132.57" y="-209.4" font-family="Arial" font-size="14.00" fill="#666666">[timestamp(0) without time zone]</text>
<polygon fill="none" stroke="black" points="1028.28,-166.4 1028.28,-197.2 1348.08,-197.2 1348.08,-166.4 1028.28,-166.4"/>
<text text-anchor="start" x="1035.28" y="-178.6" font-family="Arial" font-size="14.00">recdatemodified </text>
<text text-anchor="start" x="1138.79" y="-178.6" font-family="Arial" font-size="14.00" fill="#666666">[timestamp(0) without time zone]</text>
<polygon fill="none" stroke="black" stroke-width="3" points="1026.78,-164.9 1026.78,-357.5 1349.58,-357.5 1349.58,-164.9 1026.78,-164.9"/>
</g>
<!-- ndb.chroncontrolscal14c -->
<g id="node2" class="node">
<title>ndb.chroncontrolscal14c</title>
<polygon fill="#efefef" stroke="none" points="601.28,-832.6 601.28,-868.2 921.08,-868.2 921.08,-832.6 601.28,-832.6"/>
<polygon fill="none" stroke="black" points="601.28,-832.6 601.28,-868.2 921.08,-868.2 921.08,-832.6 601.28,-832.6"/>
<text text-anchor="start" x="610.22" y="-846" font-family="Arial Bold" font-size="18.00">ndb.chroncontrolscal14c</text>
<text text-anchor="start" x="787.66" y="-846" font-family="Arial" font-size="14.00">    </text>
<text text-anchor="start" x="818.78" y="-846" font-family="Arial" font-size="14.00" fill="#666666">[BASE TABLE]</text>
<polygon fill="none" stroke="black" points="601.28,-801.8 601.28,-832.6 921.08,-832.6 921.08,-801.8 601.28,-801.8"/>
<text text-anchor="start" x="608.28" y="-814" font-family="Arial" font-size="14.00">chroncontrolid </text>
<text text-anchor="start" x="700.11" y="-814" font-family="Arial" font-size="14.00" fill="#666666">[integer]</text>
<polygon fill="none" stroke="black" points="601.28,-771 601.28,-801.8 921.08,-801.8 921.08,-771 601.28,-771"/>
<text text-anchor="start" x="608.28" y="-783.2" font-family="Arial" font-size="14.00">calibrationcurveid </text>
<text text-anchor="start" x="721.12" y="-783.2" font-family="Arial" font-size="14.00" fill="#666666">[integer]</text>
<polygon fill="none" stroke="black" points="601.28,-740.2 601.28,-771 921.08,-771 921.08,-740.2 601.28,-740.2"/>
<text text-anchor="start" x="608.28" y="-752.4" font-family="Arial" font-size="14.00">calibrationprogramid </text>
<text text-anchor="start" x="739.01" y="-752.4" font-family="Arial" font-size="14.00" fill="#666666">[integer]</text>
<polygon fill="none" stroke="black" points="601.28,-709.4 601.28,-740.2 921.08,-740.2 921.08,-709.4 601.28,-709.4"/>
<text text-anchor="start" x="608.28" y="-721.6" font-family="Arial" font-size="14.00">recdatecreated </text>
<text text-anchor="start" x="705.57" y="-721.6" font-family="Arial" font-size="14.00" fill="#666666">[timestamp(0) without time zone]</text>
<polygon fill="none" stroke="black" points="601.28,-678.6 601.28,-709.4 921.08,-709.4 921.08,-678.6 601.28,-678.6"/>
<text text-anchor="start" x="608.28" y="-690.8" font-family="Arial" font-size="14.00">recdatemodified </text>
<text text-anchor="start" x="711.79" y="-690.8" font-family="Arial" font-size="14.00" fill="#666666">[timestamp(0) without time zone]</text>
</g>
<!-- ndb.chroncontrolscal14c&#45;&gt;ndb.calibrationprograms -->
<g id="edge1" class="edge">
<title>ndb.chroncontrolscal14c:calibrationprogramid&#45;&gt;ndb.calibrationprograms:calibrationprogramid</title>
<path fill="none" stroke="black" d="M932.19,-753.97C1018.1,-724.47 928.07,-305 1027.28,-305"/>
<polygon fill="black" stroke="black" points="932.29,-753.95 921.7,-751.1 927.02,-754.8 922.74,-755.49 922.74,-755.49 922.74,-755.49 927.02,-754.8 923.13,-759.99 932.29,-753.95"/>
<text text-anchor="start" x="245.43" y="-765.6" font-family="Arial" font-size="10.00">FOREIGN KEY (calibrationprogramid) REFERENCES ndb.calibrationprograms(calibrationprogramid) ON UPDATE CASCADE ON DELETE CASCADE</text>
</g>
<!-- ndb.chroncontrols -->
<g id="node3" class="node">
<title>ndb.chroncontrols</title>
<polygon fill="#efefef" stroke="none" points="177.28,-443.6 177.28,-479.2 497.08,-479.2 497.08,-443.6 177.28,-443.6"/>
<polygon fill="none" stroke="black" points="177.28,-443.6 177.28,-479.2 497.08,-479.2 497.08,-443.6 177.28,-443.6"/>
<text text-anchor="start" x="209.7" y="-457" font-family="Arial Bold" font-size="18.00">ndb.chroncontrols</text>
<text text-anchor="start" x="340.18" y="-457" font-family="Arial" font-size="14.00">    </text>
<text text-anchor="start" x="371.29" y="-457" font-family="Arial" font-size="14.00" fill="#666666">[BASE TABLE]</text>
<polygon fill="none" stroke="black" points="177.28,-412.8 177.28,-443.6 497.08,-443.6 497.08,-412.8 177.28,-412.8"/>
<text text-anchor="start" x="184.28" y="-425" font-family="Arial" font-size="14.00">chroncontrolid </text>
<text text-anchor="start" x="276.11" y="-425" font-family="Arial" font-size="14.00" fill="#666666">[integer]</text>
<polygon fill="none" stroke="black" points="177.28,-382 177.28,-412.8 497.08,-412.8 497.08,-382 177.28,-382"/>
<text text-anchor="start" x="184.28" y="-394.2" font-family="Arial" font-size="14.00">chronologyid </text>
<text text-anchor="start" x="267.56" y="-394.2" font-family="Arial" font-size="14.00" fill="#666666">[integer]</text>
<polygon fill="none" stroke="black" points="177.28,-351.2 177.28,-382 497.08,-382 497.08,-351.2 177.28,-351.2"/>
<text text-anchor="start" x="184.28" y="-363.4" font-family="Arial" font-size="14.00">chroncontroltypeid </text>
<text text-anchor="start" x="302.57" y="-363.4" font-family="Arial" font-size="14.00" fill="#666666">[integer]</text>
<polygon fill="none" stroke="black" points="177.28,-320.4 177.28,-351.2 497.08,-351.2 497.08,-320.4 177.28,-320.4"/>
<text text-anchor="start" x="184.28" y="-332.6" font-family="Arial" font-size="14.00">depth </text>
<text text-anchor="start" x="223.21" y="-332.6" font-family="Arial" font-size="14.00" fill="#666666">[double precision]</text>
<polygon fill="none" stroke="black" points="177.28,-289.6 177.28,-320.4 497.08,-320.4 497.08,-289.6 177.28,-289.6"/>
<text text-anchor="start" x="184.28" y="-301.8" font-family="Arial" font-size="14.00">thickness </text>
<text text-anchor="start" x="246.53" y="-301.8" font-family="Arial" font-size="14.00" fill="#666666">[double precision]</text>
<polygon fill="none" stroke="black" points="177.28,-258.8 177.28,-289.6 497.08,-289.6 497.08,-258.8 177.28,-258.8"/>
<text text-anchor="start" x="184.28" y="-271" font-family="Arial" font-size="14.00">age </text>
<text text-anchor="start" x="211.53" y="-271" font-family="Arial" font-size="14.00" fill="#666666">[double precision]</text>
<polygon fill="none" stroke="black" points="177.28,-228 177.28,-258.8 497.08,-258.8 497.08,-228 177.28,-228"/>
<text text-anchor="start" x="184.28" y="-240.2" font-family="Arial" font-size="14.00">agelimityounger </text>
<text text-anchor="start" x="287.01" y="-240.2" font-family="Arial" font-size="14.00" fill="#666666">[double precision]</text>
<polygon fill="none" stroke="black" points="177.28,-197.2 177.28,-228 497.08,-228 497.08,-197.2 177.28,-197.2"/>
<text text-anchor="start" x="184.28" y="-209.4" font-family="Arial" font-size="14.00">agelimitolder </text>
<text text-anchor="start" x="267.55" y="-209.4" font-family="Arial" font-size="14.00" fill="#666666">[double precision]</text>
<polygon fill="none" stroke="black" points="177.28,-166.4 177.28,-197.2 497.08,-197.2 497.08,-166.4 177.28,-166.4"/>
<text text-anchor="start" x="184.28" y="-178.6" font-family="Arial" font-size="14.00">notes </text>
<text text-anchor="start" x="222.42" y="-178.6" font-family="Arial" font-size="14.00" fill="#666666">[text]</text>
<polygon fill="none" stroke="black" points="177.28,-135.6 177.28,-166.4 497.08,-166.4 497.08,-135.6 177.28,-135.6"/>
<text text-anchor="start" x="184.28" y="-147.8" font-family="Arial" font-size="14.00">recdatecreated </text>
<text text-anchor="start" x="281.57" y="-147.8" font-family="Arial" font-size="14.00" fill="#666666">[timestamp(0) without time zone]</text>
<polygon fill="none" stroke="black" points="177.28,-104.8 177.28,-135.6 497.08,-135.6 497.08,-104.8 177.28,-104.8"/>
<text text-anchor="start" x="184.28" y="-117" font-family="Arial" font-size="14.00">recdatemodified </text>
<text text-anchor="start" x="287.79" y="-117" font-family="Arial" font-size="14.00" fill="#666666">[timestamp(0) without time zone]</text>
<polygon fill="none" stroke="black" points="177.28,-74 177.28,-104.8 497.08,-104.8 497.08,-74 177.28,-74"/>
<text text-anchor="start" x="184.28" y="-86.2" font-family="Arial" font-size="14.00">analysisunitid </text>
<text text-anchor="start" x="272.22" y="-86.2" font-family="Arial" font-size="14.00" fill="#666666">[integer]</text>
<polygon fill="none" stroke="black" points="177.28,-43.2 177.28,-74 497.08,-74 497.08,-43.2 177.28,-43.2"/>
<text text-anchor="start" x="184.28" y="-55.4" font-family="Arial" font-size="14.00">agetypeid </text>
<text text-anchor="start" x="248.89" y="-55.4" font-family="Arial" font-size="14.00" fill="#666666">[integer]</text>
</g>
<!-- ndb.chroncontrolscal14c&#45;&gt;ndb.chroncontrols -->
<g id="edge2" class="edge">
<title>ndb.chroncontrolscal14c:chroncontrolid&#45;&gt;ndb.chroncontrols:chroncontrolid</title>
<path fill="none" stroke="black" d="M590.1,-815.29C516.91,-785.94 583.8,-428.2 498.08,-428.2"/>
<polygon fill="black" stroke="black" points="590.13,-815.3 599.13,-821.56 595.37,-816.28 599.63,-817.08 599.63,-817.08 599.63,-817.08 595.37,-816.28 600.78,-812.72 590.13,-815.3"/>
<text text-anchor="start" x="7" y="-827.2" font-family="Arial" font-size="10.00">FOREIGN KEY (chroncontrolid) REFERENCES ndb.chroncontrols(chroncontrolid) ON UPDATE CASCADE ON DELETE CASCADE</text>
</g>
<!-- ndb.calibrationcurves -->
<g id="node4" class="node">
<title>ndb.calibrationcurves</title>
<polygon fill="#efefef" stroke="none" points="601.28,-320.4 601.28,-356 921.08,-356 921.08,-320.4 601.28,-320.4"/>
<polygon fill="none" stroke="black" points="601.28,-320.4 601.28,-356 921.08,-356 921.08,-320.4 601.28,-320.4"/>
<text text-anchor="start" x="621.22" y="-333.8" font-family="Arial Bold" font-size="18.00">ndb.calibrationcurves</text>
<text text-anchor="start" x="776.66" y="-333.8" font-family="Arial" font-size="14.00">    </text>
<text text-anchor="start" x="807.78" y="-333.8" font-family="Arial" font-size="14.00" fill="#666666">[BASE TABLE]</text>
<polygon fill="none" stroke="black" points="601.28,-289.6 601.28,-320.4 921.08,-320.4 921.08,-289.6 601.28,-289.6"/>
<text text-anchor="start" x="608.28" y="-301.8" font-family="Arial" font-size="14.00">calibrationcurveid </text>
<text text-anchor="start" x="721.12" y="-301.8" font-family="Arial" font-size="14.00" fill="#666666">[integer]</text>
<polygon fill="none" stroke="black" points="601.28,-258.8 601.28,-289.6 921.08,-289.6 921.08,-258.8 601.28,-258.8"/>
<text text-anchor="start" x="608.28" y="-271" font-family="Arial" font-size="14.00">calibrationcurve </text>
<text text-anchor="start" x="710.22" y="-271" font-family="Arial" font-size="14.00" fill="#666666">[varchar(24)]</text>
<polygon fill="none" stroke="black" points="601.28,-228 601.28,-258.8 921.08,-258.8 921.08,-228 601.28,-228"/>
<text text-anchor="start" x="608.28" y="-240.2" font-family="Arial" font-size="14.00">publicationid </text>
<text text-anchor="start" x="690.01" y="-240.2" font-family="Arial" font-size="14.00" fill="#666666">[integer]</text>
<polygon fill="none" stroke="black" points="601.28,-197.2 601.28,-228 921.08,-228 921.08,-197.2 601.28,-197.2"/>
<text text-anchor="start" x="608.28" y="-209.4" font-family="Arial" font-size="14.00">recdatecreated </text>
<text text-anchor="start" x="705.57" y="-209.4" font-family="Arial" font-size="14.00" fill="#666666">[timestamp(0) without time zone]</text>
<polygon fill="none" stroke="black" points="601.28,-166.4 601.28,-197.2 921.08,-197.2 921.08,-166.4 601.28,-166.4"/>
<text text-anchor="start" x="608.28" y="-178.6" font-family="Arial" font-size="14.00">recdatemodified </text>
<text text-anchor="start" x="711.79" y="-178.6" font-family="Arial" font-size="14.00" fill="#666666">[timestamp(0) without time zone]</text>
</g>
<!-- ndb.chroncontrolscal14c&#45;&gt;ndb.calibrationcurves -->
<g id="edge3" class="edge">
<title>ndb.chroncontrolscal14c:calibrationcurveid&#45;&gt;ndb.calibrationcurves:calibrationcurveid</title>
<path fill="none" stroke="black" d="M930.93,-781.64C975.39,-731.64 972.44,-305 922.08,-305"/>
<polygon fill="black" stroke="black" points="931.18,-781.5 920.24,-782.28 926.49,-784.03 922.67,-786.08 922.67,-786.08 922.67,-786.08 926.49,-784.03 924.51,-790.2 931.18,-781.5"/>
<text text-anchor="start" x="283.78" y="-796.4" font-family="Arial" font-size="10.00">FOREIGN KEY (calibrationcurveid) REFERENCES ndb.calibrationcurves(calibrationcurveid) ON UPDATE CASCADE ON DELETE CASCADE</text>
</g>
<!-- ndb.specimendatescal -->
<g id="node5" class="node">
<title>ndb.specimendatescal</title>
<polygon fill="#efefef" stroke="none" points="1028.28,-909.6 1028.28,-945.2 1348.08,-945.2 1348.08,-909.6 1028.28,-909.6"/>
<polygon fill="none" stroke="black" points="1028.28,-909.6 1028.28,-945.2 1348.08,-945.2 1348.08,-909.6 1028.28,-909.6"/>
<text text-anchor="start" x="1047.22" y="-923" font-family="Arial Bold" font-size="18.00">ndb.specimendatescal</text>
<text text-anchor="start" x="1204.66" y="-923" font-family="Arial" font-size="14.00">    </text>
<text text-anchor="start" x="1235.78" y="-923" font-family="Arial" font-size="14.00" fill="#666666">[BASE TABLE]</text>
<polygon fill="none" stroke="black" points="1028.28,-878.8 1028.28,-909.6 1348.08,-909.6 1348.08,-878.8 1028.28,-878.8"/>
<text text-anchor="start" x="1035.28" y="-891" font-family="Arial" font-size="14.00">specimendatecalid </text>
<text text-anchor="start" x="1155.13" y="-891" font-family="Arial" font-size="14.00" fill="#666666">[integer]</text>
<polygon fill="none" stroke="black" points="1028.28,-848 1028.28,-878.8 1348.08,-878.8 1348.08,-848 1028.28,-848"/>
<text text-anchor="start" x="1035.28" y="-860.2" font-family="Arial" font-size="14.00">specimendateid </text>
<text text-anchor="start" x="1137.24" y="-860.2" font-family="Arial" font-size="14.00" fill="#666666">[integer]</text>
<polygon fill="none" stroke="black" points="1028.28,-817.2 1028.28,-848 1348.08,-848 1348.08,-817.2 1028.28,-817.2"/>
<text text-anchor="start" x="1035.28" y="-829.4" font-family="Arial" font-size="14.00">calage </text>
<text text-anchor="start" x="1080.43" y="-829.4" font-family="Arial" font-size="14.00" fill="#666666">[double precision]</text>
<polygon fill="none" stroke="black" points="1028.28,-786.4 1028.28,-817.2 1348.08,-817.2 1348.08,-786.4 1028.28,-786.4"/>
<text text-anchor="start" x="1035.28" y="-798.6" font-family="Arial" font-size="14.00">calageolder </text>
<text text-anchor="start" x="1111.56" y="-798.6" font-family="Arial" font-size="14.00" fill="#666666">[double precision]</text>
<polygon fill="none" stroke="black" points="1028.28,-755.6 1028.28,-786.4 1348.08,-786.4 1348.08,-755.6 1028.28,-755.6"/>
<text text-anchor="start" x="1035.28" y="-767.8" font-family="Arial" font-size="14.00">calageyounger </text>
<text text-anchor="start" x="1131.02" y="-767.8" font-family="Arial" font-size="14.00" fill="#666666">[double precision]</text>
<polygon fill="none" stroke="black" points="1028.28,-724.8 1028.28,-755.6 1348.08,-755.6 1348.08,-724.8 1028.28,-724.8"/>
<text text-anchor="start" x="1035.28" y="-737" font-family="Arial" font-size="14.00">calibrationcurveid </text>
<text text-anchor="start" x="1148.12" y="-737" font-family="Arial" font-size="14.00" fill="#666666">[integer]</text>
<polygon fill="none" stroke="black" points="1028.28,-694 1028.28,-724.8 1348.08,-724.8 1348.08,-694 1028.28,-694"/>
<text text-anchor="start" x="1035.28" y="-706.2" font-family="Arial" font-size="14.00">calibrationprogramid </text>
<text text-anchor="start" x="1166.01" y="-706.2" font-family="Arial" font-size="14.00" fill="#666666">[integer]</text>
<polygon fill="none" stroke="black" points="1028.28,-663.2 1028.28,-694 1348.08,-694 1348.08,-663.2 1028.28,-663.2"/>
<text text-anchor="start" x="1035.28" y="-675.4" font-family="Arial" font-size="14.00">datecalibrated </text>
<text text-anchor="start" x="1127.12" y="-675.4" font-family="Arial" font-size="14.00" fill="#666666">[date]</text>
<polygon fill="none" stroke="black" points="1028.28,-632.4 1028.28,-663.2 1348.08,-663.2 1348.08,-632.4 1028.28,-632.4"/>
<text text-anchor="start" x="1035.28" y="-644.6" font-family="Arial" font-size="14.00">recdatecreated </text>
<text text-anchor="start" x="1132.57" y="-644.6" font-family="Arial" font-size="14.00" fill="#666666">[timestamp(0) without time zone]</text>
<polygon fill="none" stroke="black" points="1028.28,-601.6 1028.28,-632.4 1348.08,-632.4 1348.08,-601.6 1028.28,-601.6"/>
<text text-anchor="start" x="1035.28" y="-613.8" font-family="Arial" font-size="14.00">recdatemodified </text>
<text text-anchor="start" x="1138.79" y="-613.8" font-family="Arial" font-size="14.00" fill="#666666">[timestamp(0) without time zone]</text>
</g>
<!-- ndb.specimendatescal&#45;&gt;ndb.calibrationprograms -->
<g id="edge4" class="edge">
<title>ndb.specimendatescal:calibrationprogramid&#45;&gt;ndb.calibrationprograms:calibrationprogramid</title>
<path fill="none" stroke="black" d="M1357.67,-703.99C1393.81,-656 1390.94,-305 1349.08,-305"/>
<polygon fill="black" stroke="black" points="1357.83,-703.89 1346.97,-705.41 1353.31,-706.73 1349.65,-709.04 1349.65,-709.04 1349.65,-709.04 1353.31,-706.73 1351.77,-713.03 1357.83,-703.89"/>
<text text-anchor="start" x="1356.08" y="-719.4" font-family="Arial" font-size="10.00">FOREIGN KEY (calibrationprogramid) REFERENCES ndb.calibrationprograms(calibrationprogramid) ON UPDATE CASCADE ON DELETE CASCADE</text>
</g>
<!-- ndb.specimendatescal&#45;&gt;ndb.calibrationcurves -->
<g id="edge6" class="edge">
<title>ndb.specimendatescal:calibrationcurveid&#45;&gt;ndb.calibrationcurves:calibrationcurveid</title>
<path fill="none" stroke="black" d="M1017.59,-737.79C978.37,-716.99 984.08,-567.47 973.18,-522.4 961.52,-474.16 971.71,-305 922.08,-305"/>
<polygon fill="black" stroke="black" points="1017.26,-737.71 1025.87,-744.49 1022.43,-738.99 1026.63,-740.04 1026.63,-740.04 1026.63,-740.04 1022.43,-738.99 1028.05,-735.75 1017.26,-737.71"/>
<text text-anchor="start" x="1034.28" y="-750.2" font-family="Arial" font-size="10.00">FOREIGN KEY (calibrationcurveid) REFERENCES ndb.calibrationcurves(calibrationcurveid) ON UPDATE CASCADE ON DELETE CASCADE</text>
</g>
<!-- ndb.specimendates -->
<g id="node6" class="node">
<title>ndb.specimendates</title>
<polygon fill="#efefef" stroke="none" points="1455.28,-397.4 1455.28,-433 1775.08,-433 1775.08,-397.4 1455.28,-397.4"/>
<polygon fill="none" stroke="black" points="1455.28,-397.4 1455.28,-433 1775.08,-433 1775.08,-397.4 1455.28,-397.4"/>
<text text-anchor="start" x="1484.71" y="-410.8" font-family="Arial Bold" font-size="18.00">ndb.specimendates</text>
<text text-anchor="start" x="1621.17" y="-410.8" font-family="Arial" font-size="14.00">    </text>
<text text-anchor="start" x="1652.29" y="-410.8" font-family="Arial" font-size="14.00" fill="#666666">[BASE TABLE]</text>
<polygon fill="none" stroke="black" points="1455.28,-366.6 1455.28,-397.4 1775.08,-397.4 1775.08,-366.6 1455.28,-366.6"/>
<text text-anchor="start" x="1462.28" y="-378.8" font-family="Arial" font-size="14.00">specimendateid </text>
<text text-anchor="start" x="1564.24" y="-378.8" font-family="Arial" font-size="14.00" fill="#666666">[integer]</text>
<polygon fill="none" stroke="black" points="1455.28,-335.8 1455.28,-366.6 1775.08,-366.6 1775.08,-335.8 1455.28,-335.8"/>
<text text-anchor="start" x="1462.28" y="-348" font-family="Arial" font-size="14.00">geochronid </text>
<text text-anchor="start" x="1535.45" y="-348" font-family="Arial" font-size="14.00" fill="#666666">[integer]</text>
<polygon fill="none" stroke="black" points="1455.28,-305 1455.28,-335.8 1775.08,-335.8 1775.08,-305 1455.28,-305"/>
<text text-anchor="start" x="1462.28" y="-317.2" font-family="Arial" font-size="14.00">taxonid </text>
<text text-anchor="start" x="1511.32" y="-317.2" font-family="Arial" font-size="14.00" fill="#666666">[integer]</text>
<polygon fill="none" stroke="black" points="1455.28,-274.2 1455.28,-305 1775.08,-305 1775.08,-274.2 1455.28,-274.2"/>
<text text-anchor="start" x="1462.28" y="-286.4" font-family="Arial" font-size="14.00">fractionid </text>
<text text-anchor="start" x="1522.98" y="-286.4" font-family="Arial" font-size="14.00" fill="#666666">[integer]</text>
<polygon fill="none" stroke="black" points="1455.28,-243.4 1455.28,-274.2 1775.08,-274.2 1775.08,-243.4 1455.28,-243.4"/>
<text text-anchor="start" x="1462.28" y="-255.6" font-family="Arial" font-size="14.00">sampleid </text>
<text text-anchor="start" x="1522.2" y="-255.6" font-family="Arial" font-size="14.00" fill="#666666">[integer]</text>
<polygon fill="none" stroke="black" points="1455.28,-212.6 1455.28,-243.4 1775.08,-243.4 1775.08,-212.6 1455.28,-212.6"/>
<text text-anchor="start" x="1462.28" y="-224.8" font-family="Arial" font-size="14.00">notes </text>
<text text-anchor="start" x="1500.42" y="-224.8" font-family="Arial" font-size="14.00" fill="#666666">[text]</text>
<polygon fill="none" stroke="black" points="1455.28,-181.8 1455.28,-212.6 1775.08,-212.6 1775.08,-181.8 1455.28,-181.8"/>
<text text-anchor="start" x="1462.28" y="-194" font-family="Arial" font-size="14.00">elementtypeid </text>
<text text-anchor="start" x="1553.34" y="-194" font-family="Arial" font-size="14.00" fill="#666666">[integer]</text>
<polygon fill="none" stroke="black" points="1455.28,-151 1455.28,-181.8 1775.08,-181.8 1775.08,-151 1455.28,-151"/>
<text text-anchor="start" x="1462.28" y="-163.2" font-family="Arial" font-size="14.00">recdatecreated </text>
<text text-anchor="start" x="1559.57" y="-163.2" font-family="Arial" font-size="14.00" fill="#666666">[timestamp(0) without time zone]</text>
<polygon fill="none" stroke="black" points="1455.28,-120.2 1455.28,-151 1775.08,-151 1775.08,-120.2 1455.28,-120.2"/>
<text text-anchor="start" x="1462.28" y="-132.4" font-family="Arial" font-size="14.00">recdatemodified </text>
<text text-anchor="start" x="1565.79" y="-132.4" font-family="Arial" font-size="14.00" fill="#666666">[timestamp(0) without time zone]</text>
<polygon fill="none" stroke="black" points="1455.28,-89.4 1455.28,-120.2 1775.08,-120.2 1775.08,-89.4 1455.28,-89.4"/>
<text text-anchor="start" x="1462.28" y="-101.6" font-family="Arial" font-size="14.00">specimenid </text>
<text text-anchor="start" x="1536.99" y="-101.6" font-family="Arial" font-size="14.00" fill="#666666">[integer]</text>
</g>
<!-- ndb.specimendatescal&#45;&gt;ndb.specimendates -->
<g id="edge5" class="edge">
<title>ndb.specimendatescal:specimendateid&#45;&gt;ndb.specimendates:specimendateid</title>
<path fill="none" stroke="black" d="M1358.12,-858.64C1403.53,-808.64 1402.74,-382 1454.28,-382"/>
<polygon fill="black" stroke="black" points="1358.23,-858.58 1347.28,-859.26 1353.51,-861.07 1349.67,-863.09 1349.67,-863.09 1349.67,-863.09 1353.51,-861.07 1351.48,-867.22 1358.23,-858.58"/>
<text text-anchor="start" x="1356.08" y="-873.4" font-family="Arial" font-size="10.00">FOREIGN KEY (specimendateid) REFERENCES ndb.specimendates(specimendateid) ON UPDATE CASCADE ON DELETE CASCADE</text>
</g>
</g>
</svg>
