<?xml version="1.0" encoding="UTF-8" standalone="no"?>
<!DOCTYPE svg PUBLIC "-//W3C//DTD SVG 1.1//EN"
 "http://www.w3.org/Graphics/SVG/1.1/DTD/svg11.dtd">
<!-- Generated by graphviz version 12.1.2 (20240928.0832)
 -->
<!-- Title: ndb.isosubstratetypes Pages: 1 -->
<svg width="2334pt" height="1212pt"
 viewBox="0.00 0.00 2334.00 1212.00" xmlns="http://www.w3.org/2000/svg" xmlns:xlink="http://www.w3.org/1999/xlink">
<g id="graph0" class="graph" transform="scale(1 1) rotate(0) translate(4 1208)">
<title>ndb.isosubstratetypes</title>
<polygon fill="white" stroke="none" points="-4,4 -4,-1208 2330,-1208 2330,4 -4,4"/>
<!-- ndb.isosubstratetypes -->
<g id="node1" class="node">
<title>ndb.isosubstratetypes</title>
<polygon fill="#efefef" stroke="none" points="1112,-366.6 1112,-402.2 1431.8,-402.2 1431.8,-366.6 1112,-366.6"/>
<polygon fill="none" stroke="black" points="1112,-366.6 1112,-402.2 1431.8,-402.2 1431.8,-366.6 1112,-366.6"/>
<text text-anchor="start" x="1132.41" y="-380" font-family="Arial Bold" font-size="18.00">ndb.isosubstratetypes</text>
<text text-anchor="start" x="1286.9" y="-380" font-family="Arial" font-size="14.00">    </text>
<text text-anchor="start" x="1318.01" y="-380" font-family="Arial" font-size="14.00" fill="#666666">[BASE TABLE]</text>
<polygon fill="none" stroke="black" points="1112,-335.8 1112,-366.6 1431.8,-366.6 1431.8,-335.8 1112,-335.8"/>
<text text-anchor="start" x="1119" y="-348" font-family="Arial" font-size="14.00">isosubstratetypeid </text>
<text text-anchor="start" x="1235.73" y="-348" font-family="Arial" font-size="14.00" fill="#666666">[integer]</text>
<polygon fill="none" stroke="black" points="1112,-305 1112,-335.8 1431.8,-335.8 1431.8,-305 1112,-305"/>
<text text-anchor="start" x="1119" y="-317.2" font-family="Arial" font-size="14.00">isosubstratetype </text>
<text text-anchor="start" x="1224.83" y="-317.2" font-family="Arial" font-size="14.00" fill="#666666">[varchar(50)]</text>
<polygon fill="none" stroke="black" points="1112,-274.2 1112,-305 1431.8,-305 1431.8,-274.2 1112,-274.2"/>
<text text-anchor="start" x="1119" y="-286.4" font-family="Arial" font-size="14.00">recdatecreated </text>
<text text-anchor="start" x="1216.28" y="-286.4" font-family="Arial" font-size="14.00" fill="#666666">[timestamp(0) without time zone]</text>
<polygon fill="none" stroke="black" points="1112,-243.4 1112,-274.2 1431.8,-274.2 1431.8,-243.4 1112,-243.4"/>
<text text-anchor="start" x="1119" y="-255.6" font-family="Arial" font-size="14.00">recdatemodified </text>
<text text-anchor="start" x="1222.5" y="-255.6" font-family="Arial" font-size="14.00" fill="#666666">[timestamp(0) without time zone]</text>
<polygon fill="none" stroke="black" stroke-width="3" points="1110.5,-241.9 1110.5,-403.7 1433.3,-403.7 1433.3,-241.9 1110.5,-241.9"/>
</g>
<!-- ndb.isomatanalsubstrate -->
<g id="node2" class="node">
<title>ndb.isomatanalsubstrate</title>
<polygon fill="#efefef" stroke="none" points="678,-986.6 678,-1022.2 997.8,-1022.2 997.8,-986.6 678,-986.6"/>
<polygon fill="none" stroke="black" points="678,-986.6 678,-1022.2 997.8,-1022.2 997.8,-986.6 678,-986.6"/>
<text text-anchor="start" x="688.92" y="-1000" font-family="Arial Bold" font-size="18.00">ndb.isomatanalsubstrate</text>
<text text-anchor="start" x="862.38" y="-1000" font-family="Arial" font-size="14.00">    </text>
<text text-anchor="start" x="893.5" y="-1000" font-family="Arial" font-size="14.00" fill="#666666">[BASE TABLE]</text>
<polygon fill="none" stroke="black" points="678,-955.8 678,-986.6 997.8,-986.6 997.8,-955.8 678,-955.8"/>
<text text-anchor="start" x="685" y="-968" font-family="Arial" font-size="14.00">isomatanaltypeid </text>
<text text-anchor="start" x="793.95" y="-968" font-family="Arial" font-size="14.00" fill="#666666">[integer]</text>
<polygon fill="none" stroke="black" points="678,-925 678,-955.8 997.8,-955.8 997.8,-925 678,-925"/>
<text text-anchor="start" x="685" y="-937.2" font-family="Arial" font-size="14.00">isosubstratetypeid </text>
<text text-anchor="start" x="801.73" y="-937.2" font-family="Arial" font-size="14.00" fill="#666666">[integer]</text>
<polygon fill="none" stroke="black" points="678,-894.2 678,-925 997.8,-925 997.8,-894.2 678,-894.2"/>
<text text-anchor="start" x="685" y="-906.4" font-family="Arial" font-size="14.00">recdatecreated </text>
<text text-anchor="start" x="782.28" y="-906.4" font-family="Arial" font-size="14.00" fill="#666666">[timestamp(0) without time zone]</text>
<polygon fill="none" stroke="black" points="678,-863.4 678,-894.2 997.8,-894.2 997.8,-863.4 678,-863.4"/>
<text text-anchor="start" x="685" y="-875.6" font-family="Arial" font-size="14.00">recdatemodified </text>
<text text-anchor="start" x="788.5" y="-875.6" font-family="Arial" font-size="14.00" fill="#666666">[timestamp(0) without time zone]</text>
</g>
<!-- ndb.isomatanalsubstrate&#45;&gt;ndb.isosubstratetypes -->
<g id="edge1" class="edge">
<title>ndb.isomatanalsubstrate:isosubstratetypeid&#45;&gt;ndb.isosubstratetypes:isosubstratetypeid</title>
<path fill="none" stroke="black" d="M1008.88,-940.06C1127.13,-931.79 1032.58,-773.33 1056.9,-645.6 1069.34,-580.26 1044.48,-351.2 1111,-351.2"/>
<polygon fill="black" stroke="black" points="1009.13,-940.05 998.98,-935.89 1003.79,-940.23 999.47,-940.38 999.47,-940.38 999.47,-940.38 1003.79,-940.23 999.28,-944.89 1009.13,-940.05"/>
<text text-anchor="start" x="352.15" y="-950.4" font-family="Arial" font-size="10.00">FOREIGN KEY (isosubstratetypeid) REFERENCES ndb.isosubstratetypes(isosubstratetypeid) ON UPDATE CASCADE ON DELETE CASCADE</text>
</g>
<!-- ndb.isomaterialanalyzedtypes -->
<g id="node3" class="node">
<title>ndb.isomaterialanalyzedtypes</title>
<polygon fill="#efefef" stroke="none" points="652.94,-366.6 652.94,-402.2 1004.85,-402.2 1004.85,-366.6 652.94,-366.6"/>
<polygon fill="none" stroke="black" points="652.94,-366.6 652.94,-402.2 1004.85,-402.2 1004.85,-366.6 652.94,-366.6"/>
<text text-anchor="start" x="659.94" y="-380" font-family="Arial Bold" font-size="18.00">ndb.isomaterialanalyzedtypes</text>
<text text-anchor="start" x="873.37" y="-380" font-family="Arial" font-size="14.00">    </text>
<text text-anchor="start" x="904.48" y="-380" font-family="Arial" font-size="14.00" fill="#666666">[BASE TABLE]</text>
<polygon fill="none" stroke="black" points="652.94,-335.8 652.94,-366.6 1004.85,-366.6 1004.85,-335.8 652.94,-335.8"/>
<text text-anchor="start" x="659.94" y="-348" font-family="Arial" font-size="14.00">isomatanaltypeid </text>
<text text-anchor="start" x="768.89" y="-348" font-family="Arial" font-size="14.00" fill="#666666">[integer]</text>
<polygon fill="none" stroke="black" points="652.94,-305 652.94,-335.8 1004.85,-335.8 1004.85,-305 652.94,-305"/>
<text text-anchor="start" x="659.94" y="-317.2" font-family="Arial" font-size="14.00">isomaterialanalyzedtype </text>
<text text-anchor="start" x="814.02" y="-317.2" font-family="Arial" font-size="14.00" fill="#666666">[varchar(50)]</text>
<polygon fill="none" stroke="black" points="652.94,-274.2 652.94,-305 1004.85,-305 1004.85,-274.2 652.94,-274.2"/>
<text text-anchor="start" x="659.94" y="-286.4" font-family="Arial" font-size="14.00">recdatecreated </text>
<text text-anchor="start" x="757.22" y="-286.4" font-family="Arial" font-size="14.00" fill="#666666">[timestamp(0) without time zone]</text>
<polygon fill="none" stroke="black" points="652.94,-243.4 652.94,-274.2 1004.85,-274.2 1004.85,-243.4 652.94,-243.4"/>
<text text-anchor="start" x="659.94" y="-255.6" font-family="Arial" font-size="14.00">recdatemodified </text>
<text text-anchor="start" x="763.44" y="-255.6" font-family="Arial" font-size="14.00" fill="#666666">[timestamp(0) without time zone]</text>
</g>
<!-- ndb.isomatanalsubstrate&#45;&gt;ndb.isomaterialanalyzedtypes -->
<g id="edge2" class="edge">
<title>ndb.isomatanalsubstrate:isomatanaltypeid&#45;&gt;ndb.isomaterialanalyzedtypes:isomatanaltypeid</title>
<path fill="none" stroke="black" d="M666.64,-970.37C614.84,-961.29 655.58,-879.41 678,-820.2 756.25,-613.49 926.19,-651.95 1004.85,-445.4 1019.76,-406.27 1047.72,-351.2 1005.85,-351.2"/>
<polygon fill="black" stroke="black" points="666.7,-970.38 676.31,-975.66 672.01,-970.8 676.33,-971.15 676.33,-971.15 676.33,-971.15 672.01,-970.8 677.02,-966.69 666.7,-970.38"/>
<text text-anchor="start" x="7" y="-981.2" font-family="Arial" font-size="10.00">FOREIGN KEY (isomatanaltypeid) REFERENCES ndb.isomaterialanalyzedtypes(isomatanaltypeid) ON UPDATE CASCADE ON DELETE CASCADE</text>
</g>
<!-- ndb.isometadata -->
<g id="node4" class="node">
<title>ndb.isometadata</title>
<polygon fill="#efefef" stroke="none" points="1325,-1125.2 1325,-1160.8 1644.8,-1160.8 1644.8,-1125.2 1325,-1125.2"/>
<polygon fill="none" stroke="black" points="1325,-1125.2 1325,-1160.8 1644.8,-1160.8 1644.8,-1125.2 1325,-1125.2"/>
<text text-anchor="start" x="1363.92" y="-1138.6" font-family="Arial Bold" font-size="18.00">ndb.isometadata</text>
<text text-anchor="start" x="1481.39" y="-1138.6" font-family="Arial" font-size="14.00">    </text>
<text text-anchor="start" x="1512.5" y="-1138.6" font-family="Arial" font-size="14.00" fill="#666666">[BASE TABLE]</text>
<polygon fill="none" stroke="black" points="1325,-1094.4 1325,-1125.2 1644.8,-1125.2 1644.8,-1094.4 1325,-1094.4"/>
<text text-anchor="start" x="1332" y="-1106.6" font-family="Arial" font-size="14.00">isometadataid </text>
<text text-anchor="start" x="1423.05" y="-1106.6" font-family="Arial" font-size="14.00" fill="#666666">[integer]</text>
<polygon fill="none" stroke="black" points="1325,-1063.6 1325,-1094.4 1644.8,-1094.4 1644.8,-1063.6 1325,-1063.6"/>
<text text-anchor="start" x="1332" y="-1075.8" font-family="Arial" font-size="14.00">dataid </text>
<text text-anchor="start" x="1374.03" y="-1075.8" font-family="Arial" font-size="14.00" fill="#666666">[integer]</text>
<polygon fill="none" stroke="black" points="1325,-1032.8 1325,-1063.6 1644.8,-1063.6 1644.8,-1032.8 1325,-1032.8"/>
<text text-anchor="start" x="1332" y="-1045" font-family="Arial" font-size="14.00">isomatanaltypeid </text>
<text text-anchor="start" x="1440.95" y="-1045" font-family="Arial" font-size="14.00" fill="#666666">[integer]</text>
<polygon fill="none" stroke="black" points="1325,-1002 1325,-1032.8 1644.8,-1032.8 1644.8,-1002 1325,-1002"/>
<text text-anchor="start" x="1332" y="-1014.2" font-family="Arial" font-size="14.00">isosubstratetypeid </text>
<text text-anchor="start" x="1448.73" y="-1014.2" font-family="Arial" font-size="14.00" fill="#666666">[integer]</text>
<polygon fill="none" stroke="black" points="1325,-971.2 1325,-1002 1644.8,-1002 1644.8,-971.2 1325,-971.2"/>
<text text-anchor="start" x="1332" y="-983.4" font-family="Arial" font-size="14.00">analystid </text>
<text text-anchor="start" x="1391.14" y="-983.4" font-family="Arial" font-size="14.00" fill="#666666">[integer]</text>
<polygon fill="none" stroke="black" points="1325,-940.4 1325,-971.2 1644.8,-971.2 1644.8,-940.4 1325,-940.4"/>
<text text-anchor="start" x="1332" y="-952.6" font-family="Arial" font-size="14.00">lab </text>
<text text-anchor="start" x="1354.57" y="-952.6" font-family="Arial" font-size="14.00" fill="#666666">[varchar(255)]</text>
<polygon fill="none" stroke="black" points="1325,-909.6 1325,-940.4 1644.8,-940.4 1644.8,-909.6 1325,-909.6"/>
<text text-anchor="start" x="1332" y="-921.8" font-family="Arial" font-size="14.00">labnumber </text>
<text text-anchor="start" x="1402.04" y="-921.8" font-family="Arial" font-size="14.00" fill="#666666">[varchar(64)]</text>
<polygon fill="none" stroke="black" points="1325,-878.8 1325,-909.6 1644.8,-909.6 1644.8,-878.8 1325,-878.8"/>
<text text-anchor="start" x="1332" y="-891" font-family="Arial" font-size="14.00">mass_mg </text>
<text text-anchor="start" x="1396.57" y="-891" font-family="Arial" font-size="14.00" fill="#666666">[double precision]</text>
<polygon fill="none" stroke="black" points="1325,-848 1325,-878.8 1644.8,-878.8 1644.8,-848 1325,-848"/>
<text text-anchor="start" x="1332" y="-860.2" font-family="Arial" font-size="14.00">weightpercent </text>
<text text-anchor="start" x="1423.05" y="-860.2" font-family="Arial" font-size="14.00" fill="#666666">[double precision]</text>
<polygon fill="none" stroke="black" points="1325,-817.2 1325,-848 1644.8,-848 1644.8,-817.2 1325,-817.2"/>
<text text-anchor="start" x="1332" y="-829.4" font-family="Arial" font-size="14.00">atomicpercent </text>
<text text-anchor="start" x="1423.82" y="-829.4" font-family="Arial" font-size="14.00" fill="#666666">[double precision]</text>
<polygon fill="none" stroke="black" points="1325,-786.4 1325,-817.2 1644.8,-817.2 1644.8,-786.4 1325,-786.4"/>
<text text-anchor="start" x="1332" y="-798.6" font-family="Arial" font-size="14.00">reps </text>
<text text-anchor="start" x="1363.12" y="-798.6" font-family="Arial" font-size="14.00" fill="#666666">[integer]</text>
<polygon fill="none" stroke="black" points="1325,-755.6 1325,-786.4 1644.8,-786.4 1644.8,-755.6 1325,-755.6"/>
<text text-anchor="start" x="1332" y="-767.8" font-family="Arial" font-size="14.00">recdatecreated </text>
<text text-anchor="start" x="1429.28" y="-767.8" font-family="Arial" font-size="14.00" fill="#666666">[timestamp(0) without time zone]</text>
<polygon fill="none" stroke="black" points="1325,-724.8 1325,-755.6 1644.8,-755.6 1644.8,-724.8 1325,-724.8"/>
<text text-anchor="start" x="1332" y="-737" font-family="Arial" font-size="14.00">recdatemodified </text>
<text text-anchor="start" x="1435.5" y="-737" font-family="Arial" font-size="14.00" fill="#666666">[timestamp(0) without time zone]</text>
</g>
<!-- ndb.isometadata&#45;&gt;ndb.isosubstratetypes -->
<g id="edge3" class="edge">
<title>ndb.isometadata:isosubstratetypeid&#45;&gt;ndb.isosubstratetypes:isosubstratetypeid</title>
<path fill="none" stroke="black" d="M1313.94,-1017.09C1180.25,-1008.52 1293.73,-823.95 1325,-681.6 1349.45,-570.26 1406.93,-559.65 1431.8,-448.4 1441.22,-406.24 1476,-351.2 1432.8,-351.2"/>
<polygon fill="black" stroke="black" points="1313.67,-1017.08 1323.52,-1021.89 1319,-1017.25 1323.33,-1017.38 1323.33,-1017.38 1323.33,-1017.38 1319,-1017.25 1323.8,-1012.89 1313.67,-1017.08"/>
<text text-anchor="start" x="1331" y="-1027.4" font-family="Arial" font-size="10.00">FOREIGN KEY (isosubstratetypeid) REFERENCES ndb.isosubstratetypes(isosubstratetypeid) ON UPDATE CASCADE ON DELETE SET NULL</text>
</g>
<!-- ndb.isometadata&#45;&gt;ndb.isomaterialanalyzedtypes -->
<g id="edge5" class="edge">
<title>ndb.isometadata:isomatanaltypeid&#45;&gt;ndb.isomaterialanalyzedtypes:isomatanaltypeid</title>
<path fill="none" stroke="black" d="M1313.8,-1048.04C1110.11,-1041.66 1135.01,-841.9 1056.9,-645.6 1032.35,-583.91 1072.25,-351.2 1005.85,-351.2"/>
<polygon fill="black" stroke="black" points="1313.66,-1048.04 1323.59,-1052.69 1319,-1048.12 1323.33,-1048.19 1323.33,-1048.19 1323.33,-1048.19 1319,-1048.12 1323.73,-1043.7 1313.66,-1048.04"/>
<text text-anchor="start" x="1331" y="-1058.2" font-family="Arial" font-size="10.00">FOREIGN KEY (isomatanaltypeid) REFERENCES ndb.isomaterialanalyzedtypes(isomatanaltypeid) ON DELETE SET NULL</text>
</g>
<!-- ndb.data -->
<g id="node5" class="node">
<title>ndb.data</title>
<polygon fill="#efefef" stroke="none" points="1539,-397.4 1539,-433 1858.8,-433 1858.8,-397.4 1539,-397.4"/>
<polygon fill="none" stroke="black" points="1539,-397.4 1539,-433 1858.8,-433 1858.8,-397.4 1539,-397.4"/>
<text text-anchor="start" x="1605.91" y="-410.8" font-family="Arial Bold" font-size="18.00">ndb.data</text>
<text text-anchor="start" x="1667.39" y="-410.8" font-family="Arial" font-size="14.00">    </text>
<text text-anchor="start" x="1698.51" y="-410.8" font-family="Arial" font-size="14.00" fill="#666666">[BASE TABLE]</text>
<polygon fill="none" stroke="black" points="1539,-366.6 1539,-397.4 1858.8,-397.4 1858.8,-366.6 1539,-366.6"/>
<text text-anchor="start" x="1546" y="-378.8" font-family="Arial" font-size="14.00">dataid </text>
<text text-anchor="start" x="1588.03" y="-378.8" font-family="Arial" font-size="14.00" fill="#666666">[integer]</text>
<polygon fill="none" stroke="black" points="1539,-335.8 1539,-366.6 1858.8,-366.6 1858.8,-335.8 1539,-335.8"/>
<text text-anchor="start" x="1546" y="-348" font-family="Arial" font-size="14.00">sampleid </text>
<text text-anchor="start" x="1605.92" y="-348" font-family="Arial" font-size="14.00" fill="#666666">[integer]</text>
<polygon fill="none" stroke="black" points="1539,-305 1539,-335.8 1858.8,-335.8 1858.8,-305 1539,-305"/>
<text text-anchor="start" x="1546" y="-317.2" font-family="Arial" font-size="14.00">variableid </text>
<text text-anchor="start" x="1609.81" y="-317.2" font-family="Arial" font-size="14.00" fill="#666666">[integer]</text>
<polygon fill="none" stroke="black" points="1539,-274.2 1539,-305 1858.8,-305 1858.8,-274.2 1539,-274.2"/>
<text text-anchor="start" x="1546" y="-286.4" font-family="Arial" font-size="14.00">value </text>
<text text-anchor="start" x="1583.36" y="-286.4" font-family="Arial" font-size="14.00" fill="#666666">[double precision]</text>
<polygon fill="none" stroke="black" points="1539,-243.4 1539,-274.2 1858.8,-274.2 1858.8,-243.4 1539,-243.4"/>
<text text-anchor="start" x="1546" y="-255.6" font-family="Arial" font-size="14.00">recdatecreated </text>
<text text-anchor="start" x="1643.28" y="-255.6" font-family="Arial" font-size="14.00" fill="#666666">[timestamp(0) without time zone]</text>
<polygon fill="none" stroke="black" points="1539,-212.6 1539,-243.4 1858.8,-243.4 1858.8,-212.6 1539,-212.6"/>
<text text-anchor="start" x="1546" y="-224.8" font-family="Arial" font-size="14.00">recdatemodified </text>
<text text-anchor="start" x="1649.5" y="-224.8" font-family="Arial" font-size="14.00" fill="#666666">[timestamp(0) without time zone]</text>
</g>
<!-- ndb.isometadata&#45;&gt;ndb.data -->
<g id="edge4" class="edge">
<title>ndb.isometadata:dataid&#45;&gt;ndb.data:dataid</title>
<path fill="none" stroke="black" d="M1655.79,-1078.74C1817.15,-1070.2 1685.81,-849.85 1644.8,-681.6 1611.32,-544.26 1396.64,-382 1538,-382"/>
<polygon fill="black" stroke="black" points="1656.13,-1078.73 1646.02,-1074.49 1650.8,-1078.87 1646.47,-1078.98 1646.47,-1078.98 1646.47,-1078.98 1650.8,-1078.87 1646.25,-1083.49 1656.13,-1078.73"/>
<text text-anchor="start" x="1652.8" y="-1089" font-family="Arial" font-size="10.00">FOREIGN KEY (dataid) REFERENCES ndb.data(dataid) ON UPDATE CASCADE ON DELETE CASCADE</text>
</g>
<!-- ndb.contacts -->
<g id="node6" class="node">
<title>ndb.contacts</title>
<polygon fill="#efefef" stroke="none" points="1963,-566.8 1963,-602.4 2282.8,-602.4 2282.8,-566.8 1963,-566.8"/>
<polygon fill="none" stroke="black" points="1963,-566.8 1963,-602.4 2282.8,-602.4 2282.8,-566.8 1963,-566.8"/>
<text text-anchor="start" x="2015.42" y="-580.2" font-family="Arial Bold" font-size="18.00">ndb.contacts</text>
<text text-anchor="start" x="2105.89" y="-580.2" font-family="Arial" font-size="14.00">    </text>
<text text-anchor="start" x="2137.01" y="-580.2" font-family="Arial" font-size="14.00" fill="#666666">[BASE TABLE]</text>
<polygon fill="none" stroke="black" points="1963,-536 1963,-566.8 2282.8,-566.8 2282.8,-536 1963,-536"/>
<text text-anchor="start" x="1970" y="-548.2" font-family="Arial" font-size="14.00">contactid </text>
<text text-anchor="start" x="2029.92" y="-548.2" font-family="Arial" font-size="14.00" fill="#666666">[integer]</text>
<polygon fill="none" stroke="black" points="1963,-505.2 1963,-536 2282.8,-536 2282.8,-505.2 1963,-505.2"/>
<text text-anchor="start" x="1970" y="-517.4" font-family="Arial" font-size="14.00">aliasid </text>
<text text-anchor="start" x="2013.58" y="-517.4" font-family="Arial" font-size="14.00" fill="#666666">[integer]</text>
<polygon fill="none" stroke="black" points="1963,-474.4 1963,-505.2 2282.8,-505.2 2282.8,-474.4 1963,-474.4"/>
<text text-anchor="start" x="1970" y="-486.6" font-family="Arial" font-size="14.00">contactname </text>
<text text-anchor="start" x="2054.05" y="-486.6" font-family="Arial" font-size="14.00" fill="#666666">[varchar(80)]</text>
<polygon fill="none" stroke="black" points="1963,-443.6 1963,-474.4 2282.8,-474.4 2282.8,-443.6 1963,-443.6"/>
<text text-anchor="start" x="1970" y="-455.8" font-family="Arial" font-size="14.00">contactstatusid </text>
<text text-anchor="start" x="2067.27" y="-455.8" font-family="Arial" font-size="14.00" fill="#666666">[integer]</text>
<polygon fill="none" stroke="black" points="1963,-412.8 1963,-443.6 2282.8,-443.6 2282.8,-412.8 1963,-412.8"/>
<text text-anchor="start" x="1970" y="-425" font-family="Arial" font-size="14.00">familyname </text>
<text text-anchor="start" x="2045.47" y="-425" font-family="Arial" font-size="14.00" fill="#666666">[varchar(80)]</text>
<polygon fill="none" stroke="black" points="1963,-382 1963,-412.8 2282.8,-412.8 2282.8,-382 1963,-382"/>
<text text-anchor="start" x="1970" y="-394.2" font-family="Arial" font-size="14.00">leadinginitials </text>
<text text-anchor="start" x="2057.94" y="-394.2" font-family="Arial" font-size="14.00" fill="#666666">[varchar(16)]</text>
<polygon fill="none" stroke="black" points="1963,-351.2 1963,-382 2282.8,-382 2282.8,-351.2 1963,-351.2"/>
<text text-anchor="start" x="1970" y="-363.4" font-family="Arial" font-size="14.00">givennames </text>
<text text-anchor="start" x="2049.38" y="-363.4" font-family="Arial" font-size="14.00" fill="#666666">[varchar(80)]</text>
<polygon fill="none" stroke="black" points="1963,-320.4 1963,-351.2 2282.8,-351.2 2282.8,-320.4 1963,-320.4"/>
<text text-anchor="start" x="1970" y="-332.6" font-family="Arial" font-size="14.00">suffix </text>
<text text-anchor="start" x="2006.56" y="-332.6" font-family="Arial" font-size="14.00" fill="#666666">[varchar(16)]</text>
<polygon fill="none" stroke="black" points="1963,-289.6 1963,-320.4 2282.8,-320.4 2282.8,-289.6 1963,-289.6"/>
<text text-anchor="start" x="1970" y="-301.8" font-family="Arial" font-size="14.00">title </text>
<text text-anchor="start" x="1995.67" y="-301.8" font-family="Arial" font-size="14.00" fill="#666666">[varchar(16)]</text>
<polygon fill="none" stroke="black" points="1963,-258.8 1963,-289.6 2282.8,-289.6 2282.8,-258.8 1963,-258.8"/>
<text text-anchor="start" x="1970" y="-271" font-family="Arial" font-size="14.00">phone </text>
<text text-anchor="start" x="2012.82" y="-271" font-family="Arial" font-size="14.00" fill="#666666">[varchar(64)]</text>
<polygon fill="none" stroke="black" points="1963,-228 1963,-258.8 2282.8,-258.8 2282.8,-228 1963,-228"/>
<text text-anchor="start" x="1970" y="-240.2" font-family="Arial" font-size="14.00">fax </text>
<text text-anchor="start" x="1992.56" y="-240.2" font-family="Arial" font-size="14.00" fill="#666666">[varchar(64)]</text>
<polygon fill="none" stroke="black" points="1963,-197.2 1963,-228 2282.8,-228 2282.8,-197.2 1963,-197.2"/>
<text text-anchor="start" x="1970" y="-209.4" font-family="Arial" font-size="14.00">email </text>
<text text-anchor="start" x="2007.34" y="-209.4" font-family="Arial" font-size="14.00" fill="#666666">[varchar(64)]</text>
<polygon fill="none" stroke="black" points="1963,-166.4 1963,-197.2 2282.8,-197.2 2282.8,-166.4 1963,-166.4"/>
<text text-anchor="start" x="1970" y="-178.6" font-family="Arial" font-size="14.00">url </text>
<text text-anchor="start" x="1989.45" y="-178.6" font-family="Arial" font-size="14.00" fill="#666666">[varchar(255)]</text>
<polygon fill="none" stroke="black" points="1963,-135.6 1963,-166.4 2282.8,-166.4 2282.8,-135.6 1963,-135.6"/>
<text text-anchor="start" x="1970" y="-147.8" font-family="Arial" font-size="14.00">address </text>
<text text-anchor="start" x="2023.69" y="-147.8" font-family="Arial" font-size="14.00" fill="#666666">[text]</text>
<polygon fill="none" stroke="black" points="1963,-104.8 1963,-135.6 2282.8,-135.6 2282.8,-104.8 1963,-104.8"/>
<text text-anchor="start" x="1970" y="-117" font-family="Arial" font-size="14.00">notes </text>
<text text-anchor="start" x="2008.14" y="-117" font-family="Arial" font-size="14.00" fill="#666666">[text]</text>
<polygon fill="none" stroke="black" points="1963,-74 1963,-104.8 2282.8,-104.8 2282.8,-74 1963,-74"/>
<text text-anchor="start" x="1970" y="-86.2" font-family="Arial" font-size="14.00">recdatecreated </text>
<text text-anchor="start" x="2067.28" y="-86.2" font-family="Arial" font-size="14.00" fill="#666666">[timestamp(0) without time zone]</text>
<polygon fill="none" stroke="black" points="1963,-43.2 1963,-74 2282.8,-74 2282.8,-43.2 1963,-43.2"/>
<text text-anchor="start" x="1970" y="-55.4" font-family="Arial" font-size="14.00">recdatemodified </text>
<text text-anchor="start" x="2073.5" y="-55.4" font-family="Arial" font-size="14.00" fill="#666666">[timestamp(0) without time zone]</text>
</g>
<!-- ndb.isometadata&#45;&gt;ndb.contacts -->
<g id="edge6" class="edge">
<title>ndb.isometadata:analystid&#45;&gt;ndb.contacts:contactid</title>
<path fill="none" stroke="black" d="M1655.98,-986.42C1836.66,-980.09 1807.76,-803.38 1910.9,-645.6 1936.96,-605.73 1914.37,-551.4 1962,-551.4"/>
<polygon fill="black" stroke="black" points="1656.13,-986.42 1646.05,-982.09 1650.8,-986.51 1646.47,-986.59 1646.47,-986.59 1646.47,-986.59 1650.8,-986.51 1646.21,-991.09 1656.13,-986.42"/>
<text text-anchor="start" x="1652.8" y="-996.6" font-family="Arial" font-size="10.00">FOREIGN KEY (analystid) REFERENCES ndb.contacts(contactid)</text>
</g>
</g>
</svg>
