<?xml version="1.0" encoding="UTF-8" standalone="no"?>
<!DOCTYPE svg PUBLIC "-//W3C//DTD SVG 1.1//EN"
 "http://www.w3.org/Graphics/SVG/1.1/DTD/svg11.dtd">
<!-- Generated by graphviz version 12.1.2 (20240928.0832)
 -->
<!-- Title: ndb.specimensextypes Pages: 1 -->
<svg width="3454pt" height="1462pt"
 viewBox="0.00 0.00 3454.20 1462.40" xmlns="http://www.w3.org/2000/svg" xmlns:xlink="http://www.w3.org/1999/xlink">
<g id="graph0" class="graph" transform="scale(1 1) rotate(0) translate(4 1458.4)">
<title>ndb.specimensextypes</title>
<polygon fill="white" stroke="none" points="-4,4 -4,-1458.4 3450.2,-1458.4 3450.2,4 -4,4"/>
<!-- ndb.specimensextypes -->
<g id="node1" class="node">
<title>ndb.specimensextypes</title>
<polygon fill="#efefef" stroke="none" points="46.2,-197.2 46.2,-232.8 366,-232.8 366,-197.2 46.2,-197.2"/>
<polygon fill="none" stroke="black" points="46.2,-197.2 46.2,-232.8 366,-232.8 366,-197.2 46.2,-197.2"/>
<text text-anchor="start" x="63.12" y="-210.6" font-family="Arial Bold" font-size="18.00">ndb.specimensextypes</text>
<text text-anchor="start" x="224.59" y="-210.6" font-family="Arial" font-size="14.00">    </text>
<text text-anchor="start" x="255.7" y="-210.6" font-family="Arial" font-size="14.00" fill="#666666">[BASE TABLE]</text>
<polygon fill="none" stroke="black" points="46.2,-166.4 46.2,-197.2 366,-197.2 366,-166.4 46.2,-166.4"/>
<text text-anchor="start" x="53.2" y="-178.6" font-family="Arial" font-size="14.00">recdatecreated </text>
<text text-anchor="start" x="150.48" y="-178.6" font-family="Arial" font-size="14.00" fill="#666666">[timestamp(0) without time zone]</text>
<polygon fill="none" stroke="black" points="46.2,-135.6 46.2,-166.4 366,-166.4 366,-135.6 46.2,-135.6"/>
<text text-anchor="start" x="53.2" y="-147.8" font-family="Arial" font-size="14.00">recdatemodified </text>
<text text-anchor="start" x="156.7" y="-147.8" font-family="Arial" font-size="14.00" fill="#666666">[timestamp(0) without time zone]</text>
<polygon fill="none" stroke="black" points="46.2,-104.8 46.2,-135.6 366,-135.6 366,-104.8 46.2,-104.8"/>
<text text-anchor="start" x="53.2" y="-117" font-family="Arial" font-size="14.00">sex </text>
<text text-anchor="start" x="78.88" y="-117" font-family="Arial" font-size="14.00" fill="#666666">[varchar(24)]</text>
<polygon fill="none" stroke="black" points="46.2,-74 46.2,-104.8 366,-104.8 366,-74 46.2,-74"/>
<text text-anchor="start" x="53.2" y="-86.2" font-family="Arial" font-size="14.00">sexid </text>
<text text-anchor="start" x="89.77" y="-86.2" font-family="Arial" font-size="14.00" fill="#666666">[integer]</text>
<polygon fill="none" stroke="black" stroke-width="3" points="44.7,-72.5 44.7,-234.3 367.5,-234.3 367.5,-72.5 44.7,-72.5"/>
</g>
<!-- ndb.specimens -->
<g id="node2" class="node">
<title>ndb.specimens</title>
<polygon fill="#efefef" stroke="none" points="1595.2,-909.6 1595.2,-945.2 1915,-945.2 1915,-909.6 1595.2,-909.6"/>
<polygon fill="none" stroke="black" points="1595.2,-909.6 1595.2,-945.2 1915,-945.2 1915,-909.6 1595.2,-909.6"/>
<text text-anchor="start" x="1639.62" y="-923" font-family="Arial Bold" font-size="18.00">ndb.specimens</text>
<text text-anchor="start" x="1746.09" y="-923" font-family="Arial" font-size="14.00">    </text>
<text text-anchor="start" x="1777.21" y="-923" font-family="Arial" font-size="14.00" fill="#666666">[BASE TABLE]</text>
<polygon fill="none" stroke="black" points="1595.2,-878.8 1595.2,-909.6 1915,-909.6 1915,-878.8 1595.2,-878.8"/>
<text text-anchor="start" x="1602.2" y="-891" font-family="Arial" font-size="14.00">arctosnr </text>
<text text-anchor="start" x="1656.66" y="-891" font-family="Arial" font-size="14.00" fill="#666666">[varchar(50)]</text>
<polygon fill="none" stroke="black" points="1595.2,-848 1595.2,-878.8 1915,-878.8 1915,-848 1595.2,-848"/>
<text text-anchor="start" x="1602.2" y="-860.2" font-family="Arial" font-size="14.00">dataid </text>
<text text-anchor="start" x="1644.23" y="-860.2" font-family="Arial" font-size="14.00" fill="#666666">[integer]</text>
<polygon fill="none" stroke="black" points="1595.2,-817.2 1595.2,-848 1915,-848 1915,-817.2 1595.2,-817.2"/>
<text text-anchor="start" x="1602.2" y="-829.4" font-family="Arial" font-size="14.00">domesticstatusid </text>
<text text-anchor="start" x="1710.36" y="-829.4" font-family="Arial" font-size="14.00" fill="#666666">[integer]</text>
<polygon fill="none" stroke="black" points="1595.2,-786.4 1595.2,-817.2 1915,-817.2 1915,-786.4 1595.2,-786.4"/>
<text text-anchor="start" x="1602.2" y="-798.6" font-family="Arial" font-size="14.00">elementtypeid </text>
<text text-anchor="start" x="1693.25" y="-798.6" font-family="Arial" font-size="14.00" fill="#666666">[integer]</text>
<polygon fill="none" stroke="black" points="1595.2,-755.6 1595.2,-786.4 1915,-786.4 1915,-755.6 1595.2,-755.6"/>
<text text-anchor="start" x="1602.2" y="-767.8" font-family="Arial" font-size="14.00">fieldnr </text>
<text text-anchor="start" x="1644.22" y="-767.8" font-family="Arial" font-size="14.00" fill="#666666">[varchar(50)]</text>
<polygon fill="none" stroke="black" points="1595.2,-724.8 1595.2,-755.6 1915,-755.6 1915,-724.8 1595.2,-724.8"/>
<text text-anchor="start" x="1602.2" y="-737" font-family="Arial" font-size="14.00">maturityid </text>
<text text-anchor="start" x="1666.77" y="-737" font-family="Arial" font-size="14.00" fill="#666666">[integer]</text>
<polygon fill="none" stroke="black" points="1595.2,-694 1595.2,-724.8 1915,-724.8 1915,-694 1595.2,-694"/>
<text text-anchor="start" x="1602.2" y="-706.2" font-family="Arial" font-size="14.00">nisp </text>
<text text-anchor="start" x="1631.77" y="-706.2" font-family="Arial" font-size="14.00" fill="#666666">[double precision]</text>
<polygon fill="none" stroke="black" points="1595.2,-663.2 1595.2,-694 1915,-694 1915,-663.2 1595.2,-663.2"/>
<text text-anchor="start" x="1602.2" y="-675.4" font-family="Arial" font-size="14.00">notes </text>
<text text-anchor="start" x="1640.34" y="-675.4" font-family="Arial" font-size="14.00" fill="#666666">[text]</text>
<polygon fill="none" stroke="black" points="1595.2,-632.4 1595.2,-663.2 1915,-663.2 1915,-632.4 1595.2,-632.4"/>
<text text-anchor="start" x="1602.2" y="-644.6" font-family="Arial" font-size="14.00">portionid </text>
<text text-anchor="start" x="1659.79" y="-644.6" font-family="Arial" font-size="14.00" fill="#666666">[integer]</text>
<polygon fill="none" stroke="black" points="1595.2,-601.6 1595.2,-632.4 1915,-632.4 1915,-601.6 1595.2,-601.6"/>
<text text-anchor="start" x="1602.2" y="-613.8" font-family="Arial" font-size="14.00">preservative </text>
<text text-anchor="start" x="1682.34" y="-613.8" font-family="Arial" font-size="14.00" fill="#666666">[varchar(256)]</text>
<polygon fill="none" stroke="black" points="1595.2,-570.8 1595.2,-601.6 1915,-601.6 1915,-570.8 1595.2,-570.8"/>
<text text-anchor="start" x="1602.2" y="-583" font-family="Arial" font-size="14.00">recdatecreated </text>
<text text-anchor="start" x="1699.48" y="-583" font-family="Arial" font-size="14.00" fill="#666666">[timestamp(0) without time zone]</text>
<polygon fill="none" stroke="black" points="1595.2,-540 1595.2,-570.8 1915,-570.8 1915,-540 1595.2,-540"/>
<text text-anchor="start" x="1602.2" y="-552.2" font-family="Arial" font-size="14.00">recdatemodified </text>
<text text-anchor="start" x="1705.7" y="-552.2" font-family="Arial" font-size="14.00" fill="#666666">[timestamp(0) without time zone]</text>
<polygon fill="none" stroke="black" points="1595.2,-509.2 1595.2,-540 1915,-540 1915,-509.2 1595.2,-509.2"/>
<text text-anchor="start" x="1602.2" y="-521.4" font-family="Arial" font-size="14.00">repositoryid </text>
<text text-anchor="start" x="1678.45" y="-521.4" font-family="Arial" font-size="14.00" fill="#666666">[integer]</text>
<polygon fill="none" stroke="black" points="1595.2,-478.4 1595.2,-509.2 1915,-509.2 1915,-478.4 1595.2,-478.4"/>
<text text-anchor="start" x="1602.2" y="-490.6" font-family="Arial" font-size="14.00">sexid </text>
<text text-anchor="start" x="1638.77" y="-490.6" font-family="Arial" font-size="14.00" fill="#666666">[integer]</text>
<polygon fill="none" stroke="black" points="1595.2,-447.6 1595.2,-478.4 1915,-478.4 1915,-447.6 1595.2,-447.6"/>
<text text-anchor="start" x="1602.2" y="-459.8" font-family="Arial" font-size="14.00">specimenid </text>
<text text-anchor="start" x="1676.9" y="-459.8" font-family="Arial" font-size="14.00" fill="#666666">[integer]</text>
<polygon fill="none" stroke="black" points="1595.2,-416.8 1595.2,-447.6 1915,-447.6 1915,-416.8 1595.2,-416.8"/>
<text text-anchor="start" x="1602.2" y="-429" font-family="Arial" font-size="14.00">specimennr </text>
<text text-anchor="start" x="1678.45" y="-429" font-family="Arial" font-size="14.00" fill="#666666">[varchar(50)]</text>
<polygon fill="none" stroke="black" points="1595.2,-386 1595.2,-416.8 1915,-416.8 1915,-386 1595.2,-386"/>
<text text-anchor="start" x="1602.2" y="-398.2" font-family="Arial" font-size="14.00">symmetryid </text>
<text text-anchor="start" x="1677.65" y="-398.2" font-family="Arial" font-size="14.00" fill="#666666">[integer]</text>
</g>
<!-- ndb.specimens&#45;&gt;ndb.specimensextypes -->
<g id="edge1" class="edge">
<title>ndb.specimens:sexid&#45;&gt;ndb.specimensextypes:sexid</title>
<path fill="none" stroke="black" d="M1583.93,-493.8C1312.16,-493.56 613.13,-483.02 421.1,-306.8 347.74,-239.48 466.57,-89.4 367,-89.4"/>
<polygon fill="black" stroke="black" points="1583.87,-493.8 1593.86,-498.3 1589.2,-493.8 1593.53,-493.8 1593.53,-493.8 1593.53,-493.8 1589.2,-493.8 1593.87,-489.3 1583.87,-493.8"/>
<text text-anchor="start" x="1057.62" y="-503.8" font-family="Arial" font-size="10.00">FOREIGN KEY (sexid) REFERENCES ndb.specimensextypes(sexid) ON UPDATE CASCADE ON DELETE CASCADE</text>
</g>
<!-- ndb.data -->
<g id="node3" class="node">
<title>ndb.data</title>
<polygon fill="#efefef" stroke="none" points="473.2,-228 473.2,-263.6 793,-263.6 793,-228 473.2,-228"/>
<polygon fill="none" stroke="black" points="473.2,-228 473.2,-263.6 793,-263.6 793,-228 473.2,-228"/>
<text text-anchor="start" x="540.12" y="-241.4" font-family="Arial Bold" font-size="18.00">ndb.data</text>
<text text-anchor="start" x="601.59" y="-241.4" font-family="Arial" font-size="14.00">    </text>
<text text-anchor="start" x="632.71" y="-241.4" font-family="Arial" font-size="14.00" fill="#666666">[BASE TABLE]</text>
<polygon fill="none" stroke="black" points="473.2,-197.2 473.2,-228 793,-228 793,-197.2 473.2,-197.2"/>
<text text-anchor="start" x="480.2" y="-209.4" font-family="Arial" font-size="14.00">dataid </text>
<text text-anchor="start" x="522.23" y="-209.4" font-family="Arial" font-size="14.00" fill="#666666">[integer]</text>
<polygon fill="none" stroke="black" points="473.2,-166.4 473.2,-197.2 793,-197.2 793,-166.4 473.2,-166.4"/>
<text text-anchor="start" x="480.2" y="-178.6" font-family="Arial" font-size="14.00">recdatecreated </text>
<text text-anchor="start" x="577.48" y="-178.6" font-family="Arial" font-size="14.00" fill="#666666">[timestamp(0) without time zone]</text>
<polygon fill="none" stroke="black" points="473.2,-135.6 473.2,-166.4 793,-166.4 793,-135.6 473.2,-135.6"/>
<text text-anchor="start" x="480.2" y="-147.8" font-family="Arial" font-size="14.00">recdatemodified </text>
<text text-anchor="start" x="583.7" y="-147.8" font-family="Arial" font-size="14.00" fill="#666666">[timestamp(0) without time zone]</text>
<polygon fill="none" stroke="black" points="473.2,-104.8 473.2,-135.6 793,-135.6 793,-104.8 473.2,-104.8"/>
<text text-anchor="start" x="480.2" y="-117" font-family="Arial" font-size="14.00">sampleid </text>
<text text-anchor="start" x="540.12" y="-117" font-family="Arial" font-size="14.00" fill="#666666">[integer]</text>
<polygon fill="none" stroke="black" points="473.2,-74 473.2,-104.8 793,-104.8 793,-74 473.2,-74"/>
<text text-anchor="start" x="480.2" y="-86.2" font-family="Arial" font-size="14.00">value </text>
<text text-anchor="start" x="517.56" y="-86.2" font-family="Arial" font-size="14.00" fill="#666666">[double precision]</text>
<polygon fill="none" stroke="black" points="473.2,-43.2 473.2,-74 793,-74 793,-43.2 473.2,-43.2"/>
<text text-anchor="start" x="480.2" y="-55.4" font-family="Arial" font-size="14.00">variableid </text>
<text text-anchor="start" x="544.01" y="-55.4" font-family="Arial" font-size="14.00" fill="#666666">[integer]</text>
</g>
<!-- ndb.specimens&#45;&gt;ndb.data -->
<g id="edge2" class="edge">
<title>ndb.specimens:dataid&#45;&gt;ndb.data:dataid</title>
<path fill="none" stroke="black" d="M1583.94,-863.35C1178.37,-859.36 1114.59,-617.56 845.1,-306.8 813.89,-270.82 841.63,-212.6 794,-212.6"/>
<polygon fill="black" stroke="black" points="1583.87,-863.35 1593.84,-867.9 1589.2,-863.38 1593.53,-863.4 1593.53,-863.4 1593.53,-863.4 1589.2,-863.38 1593.89,-858.9 1583.87,-863.35"/>
<text text-anchor="start" x="1112.62" y="-873.4" font-family="Arial" font-size="10.00">FOREIGN KEY (dataid) REFERENCES ndb.data(dataid) ON UPDATE CASCADE ON DELETE CASCADE</text>
</g>
<!-- ndb.specimendomesticstatustypes -->
<g id="node4" class="node">
<title>ndb.specimendomesticstatustypes</title>
<polygon fill="#efefef" stroke="none" points="897.13,-197.2 897.13,-232.8 1279.07,-232.8 1279.07,-197.2 897.13,-197.2"/>
<polygon fill="none" stroke="black" points="897.13,-197.2 897.13,-232.8 1279.07,-232.8 1279.07,-197.2 897.13,-197.2"/>
<text text-anchor="start" x="904.13" y="-210.6" font-family="Arial Bold" font-size="18.00">ndb.specimendomesticstatustypes</text>
<text text-anchor="start" x="1147.58" y="-210.6" font-family="Arial" font-size="14.00">    </text>
<text text-anchor="start" x="1178.7" y="-210.6" font-family="Arial" font-size="14.00" fill="#666666">[BASE TABLE]</text>
<polygon fill="none" stroke="black" points="897.13,-166.4 897.13,-197.2 1279.07,-197.2 1279.07,-166.4 897.13,-166.4"/>
<text text-anchor="start" x="904.13" y="-178.6" font-family="Arial" font-size="14.00">domesticstatus </text>
<text text-anchor="start" x="1001.39" y="-178.6" font-family="Arial" font-size="14.00" fill="#666666">[varchar(24)]</text>
<polygon fill="none" stroke="black" points="897.13,-135.6 897.13,-166.4 1279.07,-166.4 1279.07,-135.6 897.13,-135.6"/>
<text text-anchor="start" x="904.13" y="-147.8" font-family="Arial" font-size="14.00">domesticstatusid </text>
<text text-anchor="start" x="1012.28" y="-147.8" font-family="Arial" font-size="14.00" fill="#666666">[integer]</text>
<polygon fill="none" stroke="black" points="897.13,-104.8 897.13,-135.6 1279.07,-135.6 1279.07,-104.8 897.13,-104.8"/>
<text text-anchor="start" x="904.13" y="-117" font-family="Arial" font-size="14.00">recdatecreated </text>
<text text-anchor="start" x="1001.41" y="-117" font-family="Arial" font-size="14.00" fill="#666666">[timestamp(0) without time zone]</text>
<polygon fill="none" stroke="black" points="897.13,-74 897.13,-104.8 1279.07,-104.8 1279.07,-74 897.13,-74"/>
<text text-anchor="start" x="904.13" y="-86.2" font-family="Arial" font-size="14.00">recdatemodified </text>
<text text-anchor="start" x="1007.63" y="-86.2" font-family="Arial" font-size="14.00" fill="#666666">[timestamp(0) without time zone]</text>
</g>
<!-- ndb.specimens&#45;&gt;ndb.specimendomesticstatustypes -->
<g id="edge3" class="edge">
<title>ndb.specimens:domesticstatusid&#45;&gt;ndb.specimendomesticstatustypes:domesticstatusid</title>
<path fill="none" stroke="black" d="M1584.05,-832.45C1335.43,-825.12 1429.19,-545.28 1331.1,-306.8 1303.38,-239.41 1352.94,-151 1280.07,-151"/>
<polygon fill="black" stroke="black" points="1583.87,-832.45 1593.8,-837.09 1589.2,-832.53 1593.53,-832.59 1593.53,-832.59 1593.53,-832.59 1589.2,-832.53 1593.93,-828.1 1583.87,-832.45"/>
<text text-anchor="start" x="904.22" y="-842.6" font-family="Arial" font-size="10.00">FOREIGN KEY (domesticstatusid) REFERENCES ndb.specimendomesticstatustypes(domesticstatusid) ON UPDATE CASCADE ON DELETE CASCADE</text>
</g>
<!-- ndb.elementtypes -->
<g id="node5" class="node">
<title>ndb.elementtypes</title>
<polygon fill="#efefef" stroke="none" points="1383.2,-197.2 1383.2,-232.8 1703,-232.8 1703,-197.2 1383.2,-197.2"/>
<polygon fill="none" stroke="black" points="1383.2,-197.2 1383.2,-232.8 1703,-232.8 1703,-197.2 1383.2,-197.2"/>
<text text-anchor="start" x="1417.62" y="-210.6" font-family="Arial Bold" font-size="18.00">ndb.elementtypes</text>
<text text-anchor="start" x="1544.09" y="-210.6" font-family="Arial" font-size="14.00">    </text>
<text text-anchor="start" x="1575.2" y="-210.6" font-family="Arial" font-size="14.00" fill="#666666">[BASE TABLE]</text>
<polygon fill="none" stroke="black" points="1383.2,-166.4 1383.2,-197.2 1703,-197.2 1703,-166.4 1383.2,-166.4"/>
<text text-anchor="start" x="1390.2" y="-178.6" font-family="Arial" font-size="14.00">elementtype </text>
<text text-anchor="start" x="1470.36" y="-178.6" font-family="Arial" font-size="14.00" fill="#666666">[varchar(64)]</text>
<polygon fill="none" stroke="black" points="1383.2,-135.6 1383.2,-166.4 1703,-166.4 1703,-135.6 1383.2,-135.6"/>
<text text-anchor="start" x="1390.2" y="-147.8" font-family="Arial" font-size="14.00">elementtypeid </text>
<text text-anchor="start" x="1481.25" y="-147.8" font-family="Arial" font-size="14.00" fill="#666666">[integer]</text>
<polygon fill="none" stroke="black" points="1383.2,-104.8 1383.2,-135.6 1703,-135.6 1703,-104.8 1383.2,-104.8"/>
<text text-anchor="start" x="1390.2" y="-117" font-family="Arial" font-size="14.00">recdatecreated </text>
<text text-anchor="start" x="1487.48" y="-117" font-family="Arial" font-size="14.00" fill="#666666">[timestamp(0) without time zone]</text>
<polygon fill="none" stroke="black" points="1383.2,-74 1383.2,-104.8 1703,-104.8 1703,-74 1383.2,-74"/>
<text text-anchor="start" x="1390.2" y="-86.2" font-family="Arial" font-size="14.00">recdatemodified </text>
<text text-anchor="start" x="1493.7" y="-86.2" font-family="Arial" font-size="14.00" fill="#666666">[timestamp(0) without time zone]</text>
</g>
<!-- ndb.specimens&#45;&gt;ndb.elementtypes -->
<g id="edge4" class="edge">
<title>ndb.specimens:elementtypeid&#45;&gt;ndb.elementtypes:elementtypeid</title>
<path fill="none" stroke="black" d="M1584.01,-801.56C1393.81,-792.23 1497.47,-517.88 1595.2,-342.8 1622.67,-293.58 1675.38,-325.14 1703,-276 1730.22,-227.57 1759.56,-151 1704,-151"/>
<polygon fill="black" stroke="black" points="1583.87,-801.55 1593.76,-806.29 1589.2,-801.68 1593.53,-801.78 1593.53,-801.78 1593.53,-801.78 1589.2,-801.68 1593.97,-797.29 1583.87,-801.55"/>
<text text-anchor="start" x="1002.57" y="-811.8" font-family="Arial" font-size="10.00">FOREIGN KEY (elementtypeid) REFERENCES ndb.elementtypes(elementtypeid) ON UPDATE CASCADE ON DELETE CASCADE</text>
</g>
<!-- ndb.elementmaturities -->
<g id="node6" class="node">
<title>ndb.elementmaturities</title>
<polygon fill="#efefef" stroke="none" points="1807.2,-197.2 1807.2,-232.8 2127,-232.8 2127,-197.2 1807.2,-197.2"/>
<polygon fill="none" stroke="black" points="1807.2,-197.2 1807.2,-232.8 2127,-232.8 2127,-197.2 1807.2,-197.2"/>
<text text-anchor="start" x="1824.63" y="-210.6" font-family="Arial Bold" font-size="18.00">ndb.elementmaturities</text>
<text text-anchor="start" x="1985.08" y="-210.6" font-family="Arial" font-size="14.00">    </text>
<text text-anchor="start" x="2016.2" y="-210.6" font-family="Arial" font-size="14.00" fill="#666666">[BASE TABLE]</text>
<polygon fill="none" stroke="black" points="1807.2,-166.4 1807.2,-197.2 2127,-197.2 2127,-166.4 1807.2,-166.4"/>
<text text-anchor="start" x="1814.2" y="-178.6" font-family="Arial" font-size="14.00">maturity </text>
<text text-anchor="start" x="1867.88" y="-178.6" font-family="Arial" font-size="14.00" fill="#666666">[varchar(36)]</text>
<polygon fill="none" stroke="black" points="1807.2,-135.6 1807.2,-166.4 2127,-166.4 2127,-135.6 1807.2,-135.6"/>
<text text-anchor="start" x="1814.2" y="-147.8" font-family="Arial" font-size="14.00">maturityid </text>
<text text-anchor="start" x="1878.77" y="-147.8" font-family="Arial" font-size="14.00" fill="#666666">[integer]</text>
<polygon fill="none" stroke="black" points="1807.2,-104.8 1807.2,-135.6 2127,-135.6 2127,-104.8 1807.2,-104.8"/>
<text text-anchor="start" x="1814.2" y="-117" font-family="Arial" font-size="14.00">recdatecreated </text>
<text text-anchor="start" x="1911.48" y="-117" font-family="Arial" font-size="14.00" fill="#666666">[timestamp(0) without time zone]</text>
<polygon fill="none" stroke="black" points="1807.2,-74 1807.2,-104.8 2127,-104.8 2127,-74 1807.2,-74"/>
<text text-anchor="start" x="1814.2" y="-86.2" font-family="Arial" font-size="14.00">recdatemodified </text>
<text text-anchor="start" x="1917.7" y="-86.2" font-family="Arial" font-size="14.00" fill="#666666">[timestamp(0) without time zone]</text>
</g>
<!-- ndb.specimens&#45;&gt;ndb.elementmaturities -->
<g id="edge5" class="edge">
<title>ndb.specimens:maturityid&#45;&gt;ndb.elementmaturities:maturityid</title>
<path fill="none" stroke="black" d="M1926.04,-739.92C2089.05,-730.73 1999.43,-494 1915,-342.8 1887.52,-293.59 1834.81,-325.14 1807.2,-276 1779.98,-227.57 1750.64,-151 1806.2,-151"/>
<polygon fill="black" stroke="black" points="1926.33,-739.92 1916.21,-735.69 1921,-740.06 1916.67,-740.18 1916.67,-740.18 1916.67,-740.18 1921,-740.06 1916.46,-744.69 1926.33,-739.92"/>
<text text-anchor="start" x="1923" y="-750.2" font-family="Arial" font-size="10.00">FOREIGN KEY (maturityid) REFERENCES ndb.elementmaturities(maturityid)</text>
</g>
<!-- ndb.elementportions -->
<g id="node7" class="node">
<title>ndb.elementportions</title>
<polygon fill="#efefef" stroke="none" points="2231.2,-197.2 2231.2,-232.8 2551,-232.8 2551,-197.2 2231.2,-197.2"/>
<polygon fill="none" stroke="black" points="2231.2,-197.2 2231.2,-232.8 2551,-232.8 2551,-197.2 2231.2,-197.2"/>
<text text-anchor="start" x="2255.12" y="-210.6" font-family="Arial Bold" font-size="18.00">ndb.elementportions</text>
<text text-anchor="start" x="2402.59" y="-210.6" font-family="Arial" font-size="14.00">    </text>
<text text-anchor="start" x="2433.71" y="-210.6" font-family="Arial" font-size="14.00" fill="#666666">[BASE TABLE]</text>
<polygon fill="none" stroke="black" points="2231.2,-166.4 2231.2,-197.2 2551,-197.2 2551,-166.4 2231.2,-166.4"/>
<text text-anchor="start" x="2238.2" y="-178.6" font-family="Arial" font-size="14.00">portion </text>
<text text-anchor="start" x="2284.9" y="-178.6" font-family="Arial" font-size="14.00" fill="#666666">[varchar(48)]</text>
<polygon fill="none" stroke="black" points="2231.2,-135.6 2231.2,-166.4 2551,-166.4 2551,-135.6 2231.2,-135.6"/>
<text text-anchor="start" x="2238.2" y="-147.8" font-family="Arial" font-size="14.00">portionid </text>
<text text-anchor="start" x="2295.79" y="-147.8" font-family="Arial" font-size="14.00" fill="#666666">[integer]</text>
<polygon fill="none" stroke="black" points="2231.2,-104.8 2231.2,-135.6 2551,-135.6 2551,-104.8 2231.2,-104.8"/>
<text text-anchor="start" x="2238.2" y="-117" font-family="Arial" font-size="14.00">recdatecreated </text>
<text text-anchor="start" x="2335.48" y="-117" font-family="Arial" font-size="14.00" fill="#666666">[timestamp(0) without time zone]</text>
<polygon fill="none" stroke="black" points="2231.2,-74 2231.2,-104.8 2551,-104.8 2551,-74 2231.2,-74"/>
<text text-anchor="start" x="2238.2" y="-86.2" font-family="Arial" font-size="14.00">recdatemodified </text>
<text text-anchor="start" x="2341.7" y="-86.2" font-family="Arial" font-size="14.00" fill="#666666">[timestamp(0) without time zone]</text>
</g>
<!-- ndb.specimens&#45;&gt;ndb.elementportions -->
<g id="edge6" class="edge">
<title>ndb.specimens:portionid&#45;&gt;ndb.elementportions:portionid</title>
<path fill="none" stroke="black" d="M1926.17,-647.63C2106.81,-641.59 2091.13,-472.91 2179.1,-306.8 2213.21,-242.4 2157.33,-151 2230.2,-151"/>
<polygon fill="black" stroke="black" points="1926.33,-647.63 1916.26,-643.3 1921,-647.72 1916.67,-647.79 1916.67,-647.79 1916.67,-647.79 1921,-647.72 1916.41,-652.29 1926.33,-647.63"/>
<text text-anchor="start" x="1923" y="-657.8" font-family="Arial" font-size="10.00">FOREIGN KEY (portionid) REFERENCES ndb.elementportions(portionid)</text>
</g>
<!-- ndb.repositoryinstitutions -->
<g id="node8" class="node">
<title>ndb.repositoryinstitutions</title>
<polygon fill="#efefef" stroke="none" points="2655.6,-228 2655.6,-263.6 2978.59,-263.6 2978.59,-228 2655.6,-228"/>
<polygon fill="none" stroke="black" points="2655.6,-228 2655.6,-263.6 2978.59,-263.6 2978.59,-228 2655.6,-228"/>
<text text-anchor="start" x="2662.6" y="-241.4" font-family="Arial Bold" font-size="18.00">ndb.repositoryinstitutions</text>
<text text-anchor="start" x="2847.1" y="-241.4" font-family="Arial" font-size="14.00">    </text>
<text text-anchor="start" x="2878.22" y="-241.4" font-family="Arial" font-size="14.00" fill="#666666">[BASE TABLE]</text>
<polygon fill="none" stroke="black" points="2655.6,-197.2 2655.6,-228 2978.59,-228 2978.59,-197.2 2655.6,-197.2"/>
<text text-anchor="start" x="2662.6" y="-209.4" font-family="Arial" font-size="14.00">acronym </text>
<text text-anchor="start" x="2720.18" y="-209.4" font-family="Arial" font-size="14.00" fill="#666666">[varchar(64)]</text>
<polygon fill="none" stroke="black" points="2655.6,-166.4 2655.6,-197.2 2978.59,-197.2 2978.59,-166.4 2655.6,-166.4"/>
<text text-anchor="start" x="2662.6" y="-178.6" font-family="Arial" font-size="14.00">notes </text>
<text text-anchor="start" x="2700.74" y="-178.6" font-family="Arial" font-size="14.00" fill="#666666">[text]</text>
<polygon fill="none" stroke="black" points="2655.6,-135.6 2655.6,-166.4 2978.59,-166.4 2978.59,-135.6 2655.6,-135.6"/>
<text text-anchor="start" x="2662.6" y="-147.8" font-family="Arial" font-size="14.00">recdatecreated </text>
<text text-anchor="start" x="2759.89" y="-147.8" font-family="Arial" font-size="14.00" fill="#666666">[timestamp(0) without time zone]</text>
<polygon fill="none" stroke="black" points="2655.6,-104.8 2655.6,-135.6 2978.59,-135.6 2978.59,-104.8 2655.6,-104.8"/>
<text text-anchor="start" x="2662.6" y="-117" font-family="Arial" font-size="14.00">recdatemodified </text>
<text text-anchor="start" x="2766.11" y="-117" font-family="Arial" font-size="14.00" fill="#666666">[timestamp(0) without time zone]</text>
<polygon fill="none" stroke="black" points="2655.6,-74 2655.6,-104.8 2978.59,-104.8 2978.59,-74 2655.6,-74"/>
<text text-anchor="start" x="2662.6" y="-86.2" font-family="Arial" font-size="14.00">repository </text>
<text text-anchor="start" x="2727.96" y="-86.2" font-family="Arial" font-size="14.00" fill="#666666">[varchar(128)]</text>
<polygon fill="none" stroke="black" points="2655.6,-43.2 2655.6,-74 2978.59,-74 2978.59,-43.2 2655.6,-43.2"/>
<text text-anchor="start" x="2662.6" y="-55.4" font-family="Arial" font-size="14.00">repositoryid </text>
<text text-anchor="start" x="2738.86" y="-55.4" font-family="Arial" font-size="14.00" fill="#666666">[integer]</text>
</g>
<!-- ndb.specimens&#45;&gt;ndb.repositoryinstitutions -->
<g id="edge7" class="edge">
<title>ndb.specimens:repositoryid&#45;&gt;ndb.repositoryinstitutions:repositoryid</title>
<path fill="none" stroke="black" d="M1926.43,-524.47C2093.66,-520.44 2498.03,-423.21 2603.1,-306.8 2678.58,-223.17 2541.94,-58.6 2654.6,-58.6"/>
<polygon fill="black" stroke="black" points="1926.33,-524.47 1916.28,-520.1 1921,-524.54 1916.67,-524.59 1916.67,-524.59 1916.67,-524.59 1921,-524.54 1916.39,-529.1 1926.33,-524.47"/>
<text text-anchor="start" x="1923" y="-534.6" font-family="Arial" font-size="10.00">FOREIGN KEY (repositoryid) REFERENCES ndb.repositoryinstitutions(repositoryid) ON UPDATE CASCADE ON DELETE CASCADE</text>
</g>
<!-- ndb.elementsymmetries -->
<g id="node13" class="node">
<title>ndb.elementsymmetries</title>
<polygon fill="#efefef" stroke="none" points="3083.2,-197.2 3083.2,-232.8 3403,-232.8 3403,-197.2 3083.2,-197.2"/>
<polygon fill="none" stroke="black" points="3083.2,-197.2 3083.2,-232.8 3403,-232.8 3403,-197.2 3083.2,-197.2"/>
<text text-anchor="start" x="3095.13" y="-210.6" font-family="Arial Bold" font-size="18.00">ndb.elementsymmetries</text>
<text text-anchor="start" x="3266.58" y="-210.6" font-family="Arial" font-size="14.00">    </text>
<text text-anchor="start" x="3297.7" y="-210.6" font-family="Arial" font-size="14.00" fill="#666666">[BASE TABLE]</text>
<polygon fill="none" stroke="black" points="3083.2,-166.4 3083.2,-197.2 3403,-197.2 3403,-166.4 3083.2,-166.4"/>
<text text-anchor="start" x="3090.2" y="-178.6" font-family="Arial" font-size="14.00">recdatecreated </text>
<text text-anchor="start" x="3187.48" y="-178.6" font-family="Arial" font-size="14.00" fill="#666666">[timestamp(0) without time zone]</text>
<polygon fill="none" stroke="black" points="3083.2,-135.6 3083.2,-166.4 3403,-166.4 3403,-135.6 3083.2,-135.6"/>
<text text-anchor="start" x="3090.2" y="-147.8" font-family="Arial" font-size="14.00">recdatemodified </text>
<text text-anchor="start" x="3193.7" y="-147.8" font-family="Arial" font-size="14.00" fill="#666666">[timestamp(0) without time zone]</text>
<polygon fill="none" stroke="black" points="3083.2,-104.8 3083.2,-135.6 3403,-135.6 3403,-104.8 3083.2,-104.8"/>
<text text-anchor="start" x="3090.2" y="-117" font-family="Arial" font-size="14.00">symmetry </text>
<text text-anchor="start" x="3154.75" y="-117" font-family="Arial" font-size="14.00" fill="#666666">[varchar(24)]</text>
<polygon fill="none" stroke="black" points="3083.2,-74 3083.2,-104.8 3403,-104.8 3403,-74 3083.2,-74"/>
<text text-anchor="start" x="3090.2" y="-86.2" font-family="Arial" font-size="14.00">symmetryid </text>
<text text-anchor="start" x="3165.65" y="-86.2" font-family="Arial" font-size="14.00" fill="#666666">[integer]</text>
</g>
<!-- ndb.specimens&#45;&gt;ndb.elementsymmetries -->
<g id="edge12" class="edge">
<title>ndb.specimens:symmetryid&#45;&gt;ndb.elementsymmetries:symmetryid</title>
<path fill="none" stroke="black" d="M1925.99,-401.38C2081.93,-400.74 2939.19,-386.16 3031.1,-306.8 3106.22,-241.93 2982.94,-89.4 3082.2,-89.4"/>
<polygon fill="black" stroke="black" points="1926.33,-401.38 1916.32,-396.9 1921,-401.39 1916.67,-401.4 1916.67,-401.4 1916.67,-401.4 1921,-401.39 1916.34,-405.9 1926.33,-401.38"/>
<text text-anchor="start" x="1923" y="-411.4" font-family="Arial" font-size="10.00">FOREIGN KEY (symmetryid) REFERENCES ndb.elementsymmetries(symmetryid)</text>
</g>
<!-- ndb.isospecimendata -->
<g id="node9" class="node">
<title>ndb.isospecimendata</title>
<polygon fill="#efefef" stroke="none" points="964.2,-1314 964.2,-1349.6 1284,-1349.6 1284,-1314 964.2,-1314"/>
<polygon fill="none" stroke="black" points="964.2,-1314 964.2,-1349.6 1284,-1349.6 1284,-1314 964.2,-1314"/>
<text text-anchor="start" x="986.62" y="-1327.4" font-family="Arial Bold" font-size="18.00">ndb.isospecimendata</text>
<text text-anchor="start" x="1137.08" y="-1327.4" font-family="Arial" font-size="14.00">    </text>
<text text-anchor="start" x="1168.2" y="-1327.4" font-family="Arial" font-size="14.00" fill="#666666">[BASE TABLE]</text>
<polygon fill="none" stroke="black" points="964.2,-1283.2 964.2,-1314 1284,-1314 1284,-1283.2 964.2,-1283.2"/>
<text text-anchor="start" x="971.2" y="-1295.4" font-family="Arial" font-size="14.00">dataid </text>
<text text-anchor="start" x="1013.23" y="-1295.4" font-family="Arial" font-size="14.00" fill="#666666">[integer]</text>
<polygon fill="none" stroke="black" points="964.2,-1252.4 964.2,-1283.2 1284,-1283.2 1284,-1252.4 964.2,-1252.4"/>
<text text-anchor="start" x="971.2" y="-1264.6" font-family="Arial" font-size="14.00">isospecimendataid </text>
<text text-anchor="start" x="1091.05" y="-1264.6" font-family="Arial" font-size="14.00" fill="#666666">[integer]</text>
<polygon fill="none" stroke="black" points="964.2,-1221.6 964.2,-1252.4 1284,-1252.4 1284,-1221.6 964.2,-1221.6"/>
<text text-anchor="start" x="971.2" y="-1233.8" font-family="Arial" font-size="14.00">recdatecreated </text>
<text text-anchor="start" x="1068.48" y="-1233.8" font-family="Arial" font-size="14.00" fill="#666666">[timestamp(0) without time zone]</text>
<polygon fill="none" stroke="black" points="964.2,-1190.8 964.2,-1221.6 1284,-1221.6 1284,-1190.8 964.2,-1190.8"/>
<text text-anchor="start" x="971.2" y="-1203" font-family="Arial" font-size="14.00">recdatemodified </text>
<text text-anchor="start" x="1074.7" y="-1203" font-family="Arial" font-size="14.00" fill="#666666">[timestamp(0) without time zone]</text>
<polygon fill="none" stroke="black" points="964.2,-1160 964.2,-1190.8 1284,-1190.8 1284,-1160 964.2,-1160"/>
<text text-anchor="start" x="971.2" y="-1172.2" font-family="Arial" font-size="14.00">sd </text>
<text text-anchor="start" x="989.88" y="-1172.2" font-family="Arial" font-size="14.00" fill="#666666">[double precision]</text>
<polygon fill="none" stroke="black" points="964.2,-1129.2 964.2,-1160 1284,-1160 1284,-1129.2 964.2,-1129.2"/>
<text text-anchor="start" x="971.2" y="-1141.4" font-family="Arial" font-size="14.00">specimenid </text>
<text text-anchor="start" x="1045.9" y="-1141.4" font-family="Arial" font-size="14.00" fill="#666666">[integer]</text>
</g>
<!-- ndb.isospecimendata&#45;&gt;ndb.specimens -->
<g id="edge8" class="edge">
<title>ndb.isospecimendata:specimenid&#45;&gt;ndb.specimens:specimenid</title>
<path fill="none" stroke="black" d="M1295.16,-1143.79C1339.35,-1136.01 1314.13,-1074.07 1336.1,-1024.4 1447.19,-773.25 1319.58,-463 1594.2,-463"/>
<polygon fill="black" stroke="black" points="1295.3,-1143.77 1284.97,-1140.09 1289.98,-1144.2 1285.67,-1144.55 1285.67,-1144.55 1285.67,-1144.55 1289.98,-1144.2 1285.69,-1149.06 1295.3,-1143.77"/>
<text text-anchor="start" x="840.65" y="-1154.6" font-family="Arial" font-size="10.00">FOREIGN KEY (specimenid) REFERENCES ndb.specimens(specimenid) ON DELETE CASCADE</text>
</g>
<!-- ndb.specimendates -->
<g id="node10" class="node">
<title>ndb.specimendates</title>
<polygon fill="#efefef" stroke="none" points="1388.2,-1375.6 1388.2,-1411.2 1708,-1411.2 1708,-1375.6 1388.2,-1375.6"/>
<polygon fill="none" stroke="black" points="1388.2,-1375.6 1388.2,-1411.2 1708,-1411.2 1708,-1375.6 1388.2,-1375.6"/>
<text text-anchor="start" x="1417.63" y="-1389" font-family="Arial Bold" font-size="18.00">ndb.specimendates</text>
<text text-anchor="start" x="1554.08" y="-1389" font-family="Arial" font-size="14.00">    </text>
<text text-anchor="start" x="1585.2" y="-1389" font-family="Arial" font-size="14.00" fill="#666666">[BASE TABLE]</text>
<polygon fill="none" stroke="black" points="1388.2,-1344.8 1388.2,-1375.6 1708,-1375.6 1708,-1344.8 1388.2,-1344.8"/>
<text text-anchor="start" x="1395.2" y="-1357" font-family="Arial" font-size="14.00">elementtypeid </text>
<text text-anchor="start" x="1486.25" y="-1357" font-family="Arial" font-size="14.00" fill="#666666">[integer]</text>
<polygon fill="none" stroke="black" points="1388.2,-1314 1388.2,-1344.8 1708,-1344.8 1708,-1314 1388.2,-1314"/>
<text text-anchor="start" x="1395.2" y="-1326.2" font-family="Arial" font-size="14.00">fractionid </text>
<text text-anchor="start" x="1455.9" y="-1326.2" font-family="Arial" font-size="14.00" fill="#666666">[integer]</text>
<polygon fill="none" stroke="black" points="1388.2,-1283.2 1388.2,-1314 1708,-1314 1708,-1283.2 1388.2,-1283.2"/>
<text text-anchor="start" x="1395.2" y="-1295.4" font-family="Arial" font-size="14.00">geochronid </text>
<text text-anchor="start" x="1468.37" y="-1295.4" font-family="Arial" font-size="14.00" fill="#666666">[integer]</text>
<polygon fill="none" stroke="black" points="1388.2,-1252.4 1388.2,-1283.2 1708,-1283.2 1708,-1252.4 1388.2,-1252.4"/>
<text text-anchor="start" x="1395.2" y="-1264.6" font-family="Arial" font-size="14.00">notes </text>
<text text-anchor="start" x="1433.34" y="-1264.6" font-family="Arial" font-size="14.00" fill="#666666">[text]</text>
<polygon fill="none" stroke="black" points="1388.2,-1221.6 1388.2,-1252.4 1708,-1252.4 1708,-1221.6 1388.2,-1221.6"/>
<text text-anchor="start" x="1395.2" y="-1233.8" font-family="Arial" font-size="14.00">recdatecreated </text>
<text text-anchor="start" x="1492.48" y="-1233.8" font-family="Arial" font-size="14.00" fill="#666666">[timestamp(0) without time zone]</text>
<polygon fill="none" stroke="black" points="1388.2,-1190.8 1388.2,-1221.6 1708,-1221.6 1708,-1190.8 1388.2,-1190.8"/>
<text text-anchor="start" x="1395.2" y="-1203" font-family="Arial" font-size="14.00">recdatemodified </text>
<text text-anchor="start" x="1498.7" y="-1203" font-family="Arial" font-size="14.00" fill="#666666">[timestamp(0) without time zone]</text>
<polygon fill="none" stroke="black" points="1388.2,-1160 1388.2,-1190.8 1708,-1190.8 1708,-1160 1388.2,-1160"/>
<text text-anchor="start" x="1395.2" y="-1172.2" font-family="Arial" font-size="14.00">sampleid </text>
<text text-anchor="start" x="1455.12" y="-1172.2" font-family="Arial" font-size="14.00" fill="#666666">[integer]</text>
<polygon fill="none" stroke="black" points="1388.2,-1129.2 1388.2,-1160 1708,-1160 1708,-1129.2 1388.2,-1129.2"/>
<text text-anchor="start" x="1395.2" y="-1141.4" font-family="Arial" font-size="14.00">specimendateid </text>
<text text-anchor="start" x="1497.15" y="-1141.4" font-family="Arial" font-size="14.00" fill="#666666">[integer]</text>
<polygon fill="none" stroke="black" points="1388.2,-1098.4 1388.2,-1129.2 1708,-1129.2 1708,-1098.4 1388.2,-1098.4"/>
<text text-anchor="start" x="1395.2" y="-1110.6" font-family="Arial" font-size="14.00">specimenid </text>
<text text-anchor="start" x="1469.9" y="-1110.6" font-family="Arial" font-size="14.00" fill="#666666">[integer]</text>
<polygon fill="none" stroke="black" points="1388.2,-1067.6 1388.2,-1098.4 1708,-1098.4 1708,-1067.6 1388.2,-1067.6"/>
<text text-anchor="start" x="1395.2" y="-1079.8" font-family="Arial" font-size="14.00">taxonid </text>
<text text-anchor="start" x="1444.23" y="-1079.8" font-family="Arial" font-size="14.00" fill="#666666">[integer]</text>
</g>
<!-- ndb.specimendates&#45;&gt;ndb.specimens -->
<g id="edge9" class="edge">
<title>ndb.specimendates:specimenid&#45;&gt;ndb.specimens:specimenid</title>
<path fill="none" stroke="black" d="M1719.06,-1112.23C1745.33,-1102.82 1729.31,-1053.23 1708,-1024.4 1676.72,-982.08 1626.28,-1030.86 1595.2,-988.4 1457.27,-799.98 1360.69,-463 1594.2,-463"/>
<polygon fill="black" stroke="black" points="1719.21,-1112.21 1708.64,-1109.3 1713.94,-1113.03 1709.66,-1113.7 1709.66,-1113.7 1709.66,-1113.7 1713.94,-1113.03 1710.02,-1118.19 1719.21,-1112.21"/>
<text text-anchor="start" x="1716" y="-1097.8" font-family="Arial" font-size="10.00">FOREIGN KEY (specimenid) REFERENCES ndb.specimens(specimenid) ON UPDATE CASCADE ON DELETE CASCADE</text>
</g>
<!-- ndb.specimengenbank -->
<g id="node11" class="node">
<title>ndb.specimengenbank</title>
<polygon fill="#efefef" stroke="none" points="1812.63,-1252.4 1812.63,-1288 2111.57,-1288 2111.57,-1252.4 1812.63,-1252.4"/>
<polygon fill="none" stroke="black" points="1812.63,-1252.4 1812.63,-1288 2111.57,-1288 2111.57,-1252.4 1812.63,-1252.4"/>
<text text-anchor="start" x="1819.63" y="-1265.8" font-family="Arial Bold" font-size="18.00">ndb.specimengenbank</text>
<text text-anchor="start" x="1980.08" y="-1265.8" font-family="Arial" font-size="14.00">    </text>
<text text-anchor="start" x="2011.2" y="-1265.8" font-family="Arial" font-size="14.00" fill="#666666">[BASE TABLE]</text>
<polygon fill="none" stroke="black" points="1812.63,-1221.6 1812.63,-1252.4 2111.57,-1252.4 2111.57,-1221.6 1812.63,-1221.6"/>
<text text-anchor="start" x="1819.63" y="-1233.8" font-family="Arial" font-size="14.00">genbanknr </text>
<text text-anchor="start" x="1889.68" y="-1233.8" font-family="Arial" font-size="14.00" fill="#666666">[varchar(50)]</text>
<polygon fill="none" stroke="black" points="1812.63,-1190.8 1812.63,-1221.6 2111.57,-1221.6 2111.57,-1190.8 1812.63,-1190.8"/>
<text text-anchor="start" x="1819.63" y="-1203" font-family="Arial" font-size="14.00">specimenid </text>
<text text-anchor="start" x="1894.33" y="-1203" font-family="Arial" font-size="14.00" fill="#666666">[integer]</text>
</g>
<!-- ndb.specimengenbank&#45;&gt;ndb.specimens -->
<g id="edge10" class="edge">
<title>ndb.specimengenbank:specimenid&#45;&gt;ndb.specimens:specimenid</title>
<path fill="none" stroke="black" d="M1801.66,-1203.18C1792.2,-1194.38 1806.43,-1168.05 1812.63,-1147.6 1837.03,-1067.09 1891.21,-1069.09 1915,-988.4 1981.03,-764.42 2149.51,-463 1916,-463"/>
<polygon fill="black" stroke="black" points="1801.74,-1203.21 1810,-1210.41 1806.84,-1204.75 1810.99,-1206.01 1810.99,-1206.01 1810.99,-1206.01 1806.84,-1204.75 1812.61,-1201.8 1801.74,-1203.21"/>
<text text-anchor="start" x="1818.63" y="-1216.2" font-family="Arial" font-size="10.00">FOREIGN KEY (specimenid) REFERENCES ndb.specimens(specimenid) ON UPDATE CASCADE ON DELETE CASCADE</text>
</g>
<!-- ndb.specimentaphonomy -->
<g id="node12" class="node">
<title>ndb.specimentaphonomy</title>
<polygon fill="#efefef" stroke="none" points="2216.2,-1283.2 2216.2,-1318.8 2536,-1318.8 2536,-1283.2 2216.2,-1283.2"/>
<polygon fill="none" stroke="black" points="2216.2,-1283.2 2216.2,-1318.8 2536,-1318.8 2536,-1283.2 2216.2,-1283.2"/>
<text text-anchor="start" x="2223.62" y="-1296.6" font-family="Arial Bold" font-size="18.00">ndb.specimentaphonomy</text>
<text text-anchor="start" x="2404.09" y="-1296.6" font-family="Arial" font-size="14.00">    </text>
<text text-anchor="start" x="2435.2" y="-1296.6" font-family="Arial" font-size="14.00" fill="#666666">[BASE TABLE]</text>
<polygon fill="none" stroke="black" points="2216.2,-1252.4 2216.2,-1283.2 2536,-1283.2 2536,-1252.4 2216.2,-1252.4"/>
<text text-anchor="start" x="2223.2" y="-1264.6" font-family="Arial" font-size="14.00">recdatecreated </text>
<text text-anchor="start" x="2320.48" y="-1264.6" font-family="Arial" font-size="14.00" fill="#666666">[timestamp(0) without time zone]</text>
<polygon fill="none" stroke="black" points="2216.2,-1221.6 2216.2,-1252.4 2536,-1252.4 2536,-1221.6 2216.2,-1221.6"/>
<text text-anchor="start" x="2223.2" y="-1233.8" font-family="Arial" font-size="14.00">recdatemodified </text>
<text text-anchor="start" x="2326.7" y="-1233.8" font-family="Arial" font-size="14.00" fill="#666666">[timestamp(0) without time zone]</text>
<polygon fill="none" stroke="black" points="2216.2,-1190.8 2216.2,-1221.6 2536,-1221.6 2536,-1190.8 2216.2,-1190.8"/>
<text text-anchor="start" x="2223.2" y="-1203" font-family="Arial" font-size="14.00">specimenid </text>
<text text-anchor="start" x="2297.9" y="-1203" font-family="Arial" font-size="14.00" fill="#666666">[integer]</text>
<polygon fill="none" stroke="black" points="2216.2,-1160 2216.2,-1190.8 2536,-1190.8 2536,-1160 2216.2,-1160"/>
<text text-anchor="start" x="2223.2" y="-1172.2" font-family="Arial" font-size="14.00">taphonomictypeid </text>
<text text-anchor="start" x="2336.83" y="-1172.2" font-family="Arial" font-size="14.00" fill="#666666">[integer]</text>
</g>
<!-- ndb.specimentaphonomy&#45;&gt;ndb.specimens -->
<g id="edge11" class="edge">
<title>ndb.specimentaphonomy:specimenid&#45;&gt;ndb.specimens:specimenid</title>
<path fill="none" stroke="black" d="M2205.17,-1205.64C2136.36,-1197.41 2191.27,-1099.99 2164.1,-1024.4 2071.83,-767.69 2188.79,-463 1916,-463"/>
<polygon fill="black" stroke="black" points="2204.88,-1205.62 2214.62,-1210.67 2210.21,-1205.92 2214.53,-1206.16 2214.53,-1206.16 2214.53,-1206.16 2210.21,-1205.92 2215.12,-1201.69 2204.88,-1205.62"/>
<text text-anchor="start" x="2222.2" y="-1190.2" font-family="Arial" font-size="10.00">FOREIGN KEY (specimenid) REFERENCES ndb.specimens(specimenid) ON UPDATE CASCADE ON DELETE CASCADE</text>
</g>
</g>
</svg>
