<?xml version="1.0" encoding="UTF-8" standalone="no"?>
<!DOCTYPE svg PUBLIC "-//W3C//DTD SVG 1.1//EN"
 "http://www.w3.org/Graphics/SVG/1.1/DTD/svg11.dtd">
<!-- Generated by graphviz version 12.1.2 (20240928.0832)
 -->
<!-- Title: ndb.contextsdatasettypes Pages: 1 -->
<svg width="3589pt" height="658pt"
 viewBox="0.00 0.00 3589.49 657.60" xmlns="http://www.w3.org/2000/svg" xmlns:xlink="http://www.w3.org/1999/xlink">
<g id="graph0" class="graph" transform="scale(1 1) rotate(0) translate(4 653.6)">
<title>ndb.contextsdatasettypes</title>
<polygon fill="white" stroke="none" points="-4,4 -4,-653.6 3585.49,-653.6 3585.49,4 -4,4"/>
<!-- ndb.contextsdatasettypes -->
<g id="node1" class="node">
<title>ndb.contextsdatasettypes</title>
<polygon fill="#efefef" stroke="none" points="2518.51,-509.2 2518.51,-544.8 2838.31,-544.8 2838.31,-509.2 2518.51,-509.2"/>
<polygon fill="none" stroke="black" points="2518.51,-509.2 2518.51,-544.8 2838.31,-544.8 2838.31,-509.2 2518.51,-509.2"/>
<text text-anchor="start" x="2526.44" y="-522.6" font-family="Arial Bold" font-size="18.00">ndb.contextsdatasettypes</text>
<text text-anchor="start" x="2705.89" y="-522.6" font-family="Arial" font-size="14.00">    </text>
<text text-anchor="start" x="2737.01" y="-522.6" font-family="Arial" font-size="14.00" fill="#666666">[BASE TABLE]</text>
<polygon fill="none" stroke="black" points="2518.51,-478.4 2518.51,-509.2 2838.31,-509.2 2838.31,-478.4 2518.51,-478.4"/>
<text text-anchor="start" x="2525.51" y="-490.6" font-family="Arial" font-size="14.00">datasettypeid </text>
<text text-anchor="start" x="2612.68" y="-490.6" font-family="Arial" font-size="14.00" fill="#666666">[integer]</text>
<polygon fill="none" stroke="black" points="2518.51,-447.6 2518.51,-478.4 2838.31,-478.4 2838.31,-447.6 2518.51,-447.6"/>
<text text-anchor="start" x="2525.51" y="-459.8" font-family="Arial" font-size="14.00">recdatecreated </text>
<text text-anchor="start" x="2622.79" y="-459.8" font-family="Arial" font-size="14.00" fill="#666666">[timestamp(0) without time zone]</text>
<polygon fill="none" stroke="black" points="2518.51,-416.8 2518.51,-447.6 2838.31,-447.6 2838.31,-416.8 2518.51,-416.8"/>
<text text-anchor="start" x="2525.51" y="-429" font-family="Arial" font-size="14.00">recdatemodified </text>
<text text-anchor="start" x="2629.01" y="-429" font-family="Arial" font-size="14.00" fill="#666666">[timestamp(0) without time zone]</text>
<polygon fill="none" stroke="black" points="2518.51,-386 2518.51,-416.8 2838.31,-416.8 2838.31,-386 2518.51,-386"/>
<text text-anchor="start" x="2525.51" y="-398.2" font-family="Arial" font-size="14.00">variablecontextid </text>
<text text-anchor="start" x="2634.46" y="-398.2" font-family="Arial" font-size="14.00" fill="#666666">[integer]</text>
<polygon fill="none" stroke="black" stroke-width="3" points="2517.01,-384.5 2517.01,-546.3 2839.81,-546.3 2839.81,-384.5 2517.01,-384.5"/>
</g>
<!-- ndb.datasettypes -->
<g id="node2" class="node">
<title>ndb.datasettypes</title>
<polygon fill="#efefef" stroke="none" points="1386.51,-166.4 1386.51,-202 1706.31,-202 1706.31,-166.4 1386.51,-166.4"/>
<polygon fill="none" stroke="black" points="1386.51,-166.4 1386.51,-202 1706.31,-202 1706.31,-166.4 1386.51,-166.4"/>
<text text-anchor="start" x="1424.43" y="-179.8" font-family="Arial Bold" font-size="18.00">ndb.datasettypes</text>
<text text-anchor="start" x="1543.9" y="-179.8" font-family="Arial" font-size="14.00">    </text>
<text text-anchor="start" x="1575.02" y="-179.8" font-family="Arial" font-size="14.00" fill="#666666">[BASE TABLE]</text>
<polygon fill="none" stroke="black" points="1386.51,-135.6 1386.51,-166.4 1706.31,-166.4 1706.31,-135.6 1386.51,-135.6"/>
<text text-anchor="start" x="1393.51" y="-147.8" font-family="Arial" font-size="14.00">datasettype </text>
<text text-anchor="start" x="1469.79" y="-147.8" font-family="Arial" font-size="14.00" fill="#666666">[varchar(64)]</text>
<polygon fill="none" stroke="black" points="1386.51,-104.8 1386.51,-135.6 1706.31,-135.6 1706.31,-104.8 1386.51,-104.8"/>
<text text-anchor="start" x="1393.51" y="-117" font-family="Arial" font-size="14.00">datasettypeid </text>
<text text-anchor="start" x="1480.68" y="-117" font-family="Arial" font-size="14.00" fill="#666666">[integer]</text>
<polygon fill="none" stroke="black" points="1386.51,-74 1386.51,-104.8 1706.31,-104.8 1706.31,-74 1386.51,-74"/>
<text text-anchor="start" x="1393.51" y="-86.2" font-family="Arial" font-size="14.00">recdatecreated </text>
<text text-anchor="start" x="1490.79" y="-86.2" font-family="Arial" font-size="14.00" fill="#666666">[timestamp(0) without time zone]</text>
<polygon fill="none" stroke="black" points="1386.51,-43.2 1386.51,-74 1706.31,-74 1706.31,-43.2 1386.51,-43.2"/>
<text text-anchor="start" x="1393.51" y="-55.4" font-family="Arial" font-size="14.00">recdatemodified </text>
<text text-anchor="start" x="1497.01" y="-55.4" font-family="Arial" font-size="14.00" fill="#666666">[timestamp(0) without time zone]</text>
</g>
<!-- ndb.contextsdatasettypes&#45;&gt;ndb.datasettypes -->
<g id="edge1" class="edge">
<title>ndb.contextsdatasettypes:datasettypeid&#45;&gt;ndb.datasettypes:datasettypeid</title>
<path fill="none" stroke="black" d="M2507.51,-493.21C2428.19,-483.14 2531.09,-346.26 2463.41,-281.2 2339.57,-162.14 1879.1,-120.2 1707.31,-120.2"/>
<polygon fill="black" stroke="black" points="2507.19,-493.19 2516.91,-498.27 2512.52,-493.51 2516.84,-493.76 2516.84,-493.76 2516.84,-493.76 2512.52,-493.51 2517.44,-489.29 2507.19,-493.19"/>
<text text-anchor="start" x="2524.51" y="-503.8" font-family="Arial" font-size="10.00">FOREIGN KEY (datasettypeid) REFERENCES ndb.datasettypes(datasettypeid) ON UPDATE CASCADE ON DELETE CASCADE</text>
</g>
<!-- ndb.variablecontexts -->
<g id="node8" class="node">
<title>ndb.variablecontexts</title>
<polygon fill="#efefef" stroke="none" points="2731.51,-166.4 2731.51,-202 3051.31,-202 3051.31,-166.4 2731.51,-166.4"/>
<polygon fill="none" stroke="black" points="2731.51,-166.4 2731.51,-202 3051.31,-202 3051.31,-166.4 2731.51,-166.4"/>
<text text-anchor="start" x="2754.44" y="-179.8" font-family="Arial Bold" font-size="18.00">ndb.variablecontexts</text>
<text text-anchor="start" x="2903.89" y="-179.8" font-family="Arial" font-size="14.00">    </text>
<text text-anchor="start" x="2935.01" y="-179.8" font-family="Arial" font-size="14.00" fill="#666666">[BASE TABLE]</text>
<polygon fill="none" stroke="black" points="2731.51,-135.6 2731.51,-166.4 3051.31,-166.4 3051.31,-135.6 2731.51,-135.6"/>
<text text-anchor="start" x="2738.51" y="-147.8" font-family="Arial" font-size="14.00">recdatecreated </text>
<text text-anchor="start" x="2835.79" y="-147.8" font-family="Arial" font-size="14.00" fill="#666666">[timestamp(0) without time zone]</text>
<polygon fill="none" stroke="black" points="2731.51,-104.8 2731.51,-135.6 3051.31,-135.6 3051.31,-104.8 2731.51,-104.8"/>
<text text-anchor="start" x="2738.51" y="-117" font-family="Arial" font-size="14.00">recdatemodified </text>
<text text-anchor="start" x="2842.01" y="-117" font-family="Arial" font-size="14.00" fill="#666666">[timestamp(0) without time zone]</text>
<polygon fill="none" stroke="black" points="2731.51,-74 2731.51,-104.8 3051.31,-104.8 3051.31,-74 2731.51,-74"/>
<text text-anchor="start" x="2738.51" y="-86.2" font-family="Arial" font-size="14.00">variablecontext </text>
<text text-anchor="start" x="2836.56" y="-86.2" font-family="Arial" font-size="14.00" fill="#666666">[varchar(64)]</text>
<polygon fill="none" stroke="black" points="2731.51,-43.2 2731.51,-74 3051.31,-74 3051.31,-43.2 2731.51,-43.2"/>
<text text-anchor="start" x="2738.51" y="-55.4" font-family="Arial" font-size="14.00">variablecontextid </text>
<text text-anchor="start" x="2847.46" y="-55.4" font-family="Arial" font-size="14.00" fill="#666666">[integer]</text>
</g>
<!-- ndb.contextsdatasettypes&#45;&gt;ndb.variablecontexts -->
<g id="edge7" class="edge">
<title>ndb.contextsdatasettypes:variablecontextid&#45;&gt;ndb.variablecontexts:variablecontextid</title>
<path fill="none" stroke="black" d="M2849.09,-398.9C2861.53,-390.21 2847.96,-360.79 2838.31,-339.8 2811.81,-282.19 2757.69,-302.95 2731.51,-245.2 2697.27,-169.66 2647.58,-58.6 2730.51,-58.6"/>
<polygon fill="black" stroke="black" points="2849.32,-398.84 2838.52,-396.96 2844.15,-400.16 2839.96,-401.23 2839.96,-401.23 2839.96,-401.23 2844.15,-400.16 2840.75,-405.68 2849.32,-398.84"/>
<text text-anchor="start" x="2209.33" y="-411.4" font-family="Arial" font-size="10.00">FOREIGN KEY (variablecontextid) REFERENCES ndb.variablecontexts(variablecontextid) ON UPDATE CASCADE ON DELETE CASCADE</text>
</g>
<!-- ndb.datasets -->
<g id="node3" class="node">
<title>ndb.datasets</title>
<polygon fill="#efefef" stroke="none" points="269.51,-570.8 269.51,-606.4 589.31,-606.4 589.31,-570.8 269.51,-570.8"/>
<polygon fill="none" stroke="black" points="269.51,-570.8 269.51,-606.4 589.31,-606.4 589.31,-570.8 269.51,-570.8"/>
<text text-anchor="start" x="322.92" y="-584.2" font-family="Arial Bold" font-size="18.00">ndb.datasets</text>
<text text-anchor="start" x="411.4" y="-584.2" font-family="Arial" font-size="14.00">    </text>
<text text-anchor="start" x="442.52" y="-584.2" font-family="Arial" font-size="14.00" fill="#666666">[BASE TABLE]</text>
<polygon fill="none" stroke="black" points="269.51,-540 269.51,-570.8 589.31,-570.8 589.31,-540 269.51,-540"/>
<text text-anchor="start" x="276.51" y="-552.2" font-family="Arial" font-size="14.00">collectionunitid </text>
<text text-anchor="start" x="372.23" y="-552.2" font-family="Arial" font-size="14.00" fill="#666666">[integer]</text>
<polygon fill="none" stroke="black" points="269.51,-509.2 269.51,-540 589.31,-540 589.31,-509.2 269.51,-509.2"/>
<text text-anchor="start" x="276.51" y="-521.4" font-family="Arial" font-size="14.00">datasetid </text>
<text text-anchor="start" x="337.22" y="-521.4" font-family="Arial" font-size="14.00" fill="#666666">[integer]</text>
<polygon fill="none" stroke="black" points="269.51,-478.4 269.51,-509.2 589.31,-509.2 589.31,-478.4 269.51,-478.4"/>
<text text-anchor="start" x="276.51" y="-490.6" font-family="Arial" font-size="14.00">datasetname </text>
<text text-anchor="start" x="361.34" y="-490.6" font-family="Arial" font-size="14.00" fill="#666666">[varchar(80)]</text>
<polygon fill="none" stroke="black" points="269.51,-447.6 269.51,-478.4 589.31,-478.4 589.31,-447.6 269.51,-447.6"/>
<text text-anchor="start" x="276.51" y="-459.8" font-family="Arial" font-size="14.00">datasettypeid </text>
<text text-anchor="start" x="363.68" y="-459.8" font-family="Arial" font-size="14.00" fill="#666666">[integer]</text>
<polygon fill="none" stroke="black" points="269.51,-416.8 269.51,-447.6 589.31,-447.6 589.31,-416.8 269.51,-416.8"/>
<text text-anchor="start" x="276.51" y="-429" font-family="Arial" font-size="14.00">embargoid </text>
<text text-anchor="start" x="346.55" y="-429" font-family="Arial" font-size="14.00" fill="#666666">[integer]</text>
<polygon fill="none" stroke="black" points="269.51,-386 269.51,-416.8 589.31,-416.8 589.31,-386 269.51,-386"/>
<text text-anchor="start" x="276.51" y="-398.2" font-family="Arial" font-size="14.00">notes </text>
<text text-anchor="start" x="314.65" y="-398.2" font-family="Arial" font-size="14.00" fill="#666666">[text]</text>
<polygon fill="none" stroke="black" points="269.51,-355.2 269.51,-386 589.31,-386 589.31,-355.2 269.51,-355.2"/>
<text text-anchor="start" x="276.51" y="-367.4" font-family="Arial" font-size="14.00">recdatecreated </text>
<text text-anchor="start" x="373.79" y="-367.4" font-family="Arial" font-size="14.00" fill="#666666">[timestamp(0) without time zone]</text>
<polygon fill="none" stroke="black" points="269.51,-324.4 269.51,-355.2 589.31,-355.2 589.31,-324.4 269.51,-324.4"/>
<text text-anchor="start" x="276.51" y="-336.6" font-family="Arial" font-size="14.00">recdatemodified </text>
<text text-anchor="start" x="380.01" y="-336.6" font-family="Arial" font-size="14.00" fill="#666666">[timestamp(0) without time zone]</text>
</g>
<!-- ndb.datasets&#45;&gt;ndb.datasettypes -->
<g id="edge2" class="edge">
<title>ndb.datasets:datasettypeid&#45;&gt;ndb.datasettypes:datasettypeid</title>
<path fill="none" stroke="black" d="M600.57,-462.26C666.11,-451.97 583.03,-336.13 641.41,-281.2 764.63,-165.27 1216.33,-120.2 1385.51,-120.2"/>
<polygon fill="black" stroke="black" points="600.62,-462.26 590.32,-458.49 595.3,-462.64 590.98,-462.95 590.98,-462.95 590.98,-462.95 595.3,-462.64 590.96,-467.46 600.62,-462.26"/>
<text text-anchor="start" x="7" y="-473" font-family="Arial" font-size="10.00">FOREIGN KEY (datasettypeid) REFERENCES ndb.datasettypes(datasettypeid) ON UPDATE CASCADE ON DELETE CASCADE</text>
</g>
<!-- ndb.datasettaxagrouptypes -->
<g id="node4" class="node">
<title>ndb.datasettaxagrouptypes</title>
<polygon fill="#efefef" stroke="none" points="693.44,-509.2 693.44,-544.8 1023.38,-544.8 1023.38,-509.2 693.44,-509.2"/>
<polygon fill="none" stroke="black" points="693.44,-509.2 693.44,-544.8 1023.38,-544.8 1023.38,-509.2 693.44,-509.2"/>
<text text-anchor="start" x="700.44" y="-522.6" font-family="Arial Bold" font-size="18.00">ndb.datasettaxagrouptypes</text>
<text text-anchor="start" x="891.89" y="-522.6" font-family="Arial" font-size="14.00">    </text>
<text text-anchor="start" x="923" y="-522.6" font-family="Arial" font-size="14.00" fill="#666666">[BASE TABLE]</text>
<polygon fill="none" stroke="black" points="693.44,-478.4 693.44,-509.2 1023.38,-509.2 1023.38,-478.4 693.44,-478.4"/>
<text text-anchor="start" x="700.44" y="-490.6" font-family="Arial" font-size="14.00">datasettypeid </text>
<text text-anchor="start" x="787.61" y="-490.6" font-family="Arial" font-size="14.00" fill="#666666">[integer]</text>
<polygon fill="none" stroke="black" points="693.44,-447.6 693.44,-478.4 1023.38,-478.4 1023.38,-447.6 693.44,-447.6"/>
<text text-anchor="start" x="700.44" y="-459.8" font-family="Arial" font-size="14.00">recdatecreated </text>
<text text-anchor="start" x="797.73" y="-459.8" font-family="Arial" font-size="14.00" fill="#666666">[timestamp(0) without time zone]</text>
<polygon fill="none" stroke="black" points="693.44,-416.8 693.44,-447.6 1023.38,-447.6 1023.38,-416.8 693.44,-416.8"/>
<text text-anchor="start" x="700.44" y="-429" font-family="Arial" font-size="14.00">recdatemodified </text>
<text text-anchor="start" x="803.95" y="-429" font-family="Arial" font-size="14.00" fill="#666666">[timestamp(0) without time zone]</text>
<polygon fill="none" stroke="black" points="693.44,-386 693.44,-416.8 1023.38,-416.8 1023.38,-386 693.44,-386"/>
<text text-anchor="start" x="700.44" y="-398.2" font-family="Arial" font-size="14.00">taxagroupid </text>
<text text-anchor="start" x="777.5" y="-398.2" font-family="Arial" font-size="14.00" fill="#666666">[varchar(3)]</text>
</g>
<!-- ndb.datasettaxagrouptypes&#45;&gt;ndb.datasettypes -->
<g id="edge3" class="edge">
<title>ndb.datasettaxagrouptypes:datasettypeid&#45;&gt;ndb.datasettypes:datasettypeid</title>
<path fill="none" stroke="black" d="M1034.37,-493.25C1113.91,-483.78 1017.76,-354.9 1075.41,-281.2 1171.08,-158.88 1230.22,-120.2 1385.51,-120.2"/>
<polygon fill="black" stroke="black" points="1034.69,-493.23 1024.46,-489.29 1029.37,-493.52 1025.04,-493.76 1025.04,-493.76 1025.04,-493.76 1029.37,-493.52 1024.96,-498.27 1034.69,-493.23"/>
<text text-anchor="start" x="441.07" y="-503.8" font-family="Arial" font-size="10.00">FOREIGN KEY (datasettypeid) REFERENCES ndb.datasettypes(datasettypeid) ON UPDATE CASCADE ON DELETE CASCADE</text>
</g>
<!-- ndb.elementdatasettaxagroups -->
<g id="node5" class="node">
<title>ndb.elementdatasettaxagroups</title>
<polygon fill="#efefef" stroke="none" points="1127.45,-524.6 1127.45,-560.2 1483.37,-560.2 1483.37,-524.6 1127.45,-524.6"/>
<polygon fill="none" stroke="black" points="1127.45,-524.6 1127.45,-560.2 1483.37,-560.2 1483.37,-524.6 1127.45,-524.6"/>
<text text-anchor="start" x="1134.45" y="-538" font-family="Arial Bold" font-size="18.00">ndb.elementdatasettaxagroups</text>
<text text-anchor="start" x="1351.88" y="-538" font-family="Arial" font-size="14.00">    </text>
<text text-anchor="start" x="1382.99" y="-538" font-family="Arial" font-size="14.00" fill="#666666">[BASE TABLE]</text>
<polygon fill="none" stroke="black" points="1127.45,-493.8 1127.45,-524.6 1483.37,-524.6 1483.37,-493.8 1127.45,-493.8"/>
<text text-anchor="start" x="1134.45" y="-506" font-family="Arial" font-size="14.00">datasettypeid </text>
<text text-anchor="start" x="1221.62" y="-506" font-family="Arial" font-size="14.00" fill="#666666">[integer]</text>
<polygon fill="none" stroke="black" points="1127.45,-463 1127.45,-493.8 1483.37,-493.8 1483.37,-463 1127.45,-463"/>
<text text-anchor="start" x="1134.45" y="-475.2" font-family="Arial" font-size="14.00">elementtypeid </text>
<text text-anchor="start" x="1225.51" y="-475.2" font-family="Arial" font-size="14.00" fill="#666666">[integer]</text>
<polygon fill="none" stroke="black" points="1127.45,-432.2 1127.45,-463 1483.37,-463 1483.37,-432.2 1127.45,-432.2"/>
<text text-anchor="start" x="1134.45" y="-444.4" font-family="Arial" font-size="14.00">recdatecreated </text>
<text text-anchor="start" x="1231.73" y="-444.4" font-family="Arial" font-size="14.00" fill="#666666">[timestamp(0) without time zone]</text>
<polygon fill="none" stroke="black" points="1127.45,-401.4 1127.45,-432.2 1483.37,-432.2 1483.37,-401.4 1127.45,-401.4"/>
<text text-anchor="start" x="1134.45" y="-413.6" font-family="Arial" font-size="14.00">recdatemodified </text>
<text text-anchor="start" x="1237.96" y="-413.6" font-family="Arial" font-size="14.00" fill="#666666">[timestamp(0) without time zone]</text>
<polygon fill="none" stroke="black" points="1127.45,-370.6 1127.45,-401.4 1483.37,-401.4 1483.37,-370.6 1127.45,-370.6"/>
<text text-anchor="start" x="1134.45" y="-382.8" font-family="Arial" font-size="14.00">taxagroupid </text>
<text text-anchor="start" x="1211.51" y="-382.8" font-family="Arial" font-size="14.00" fill="#666666">[varchar(3)]</text>
</g>
<!-- ndb.elementdatasettaxagroups&#45;&gt;ndb.datasettypes -->
<g id="edge4" class="edge">
<title>ndb.elementdatasettaxagroups:datasettypeid&#45;&gt;ndb.datasettypes:datasettypeid</title>
<path fill="none" stroke="black" d="M1494.49,-508.56C1560.91,-499.52 1515.98,-397.34 1483.37,-327.4 1459.51,-276.23 1410.43,-296.34 1386.51,-245.2 1362.97,-194.88 1329.95,-120.2 1385.51,-120.2"/>
<polygon fill="black" stroke="black" points="1494.68,-508.54 1484.41,-504.69 1489.36,-508.88 1485.03,-509.16 1485.03,-509.16 1485.03,-509.16 1489.36,-508.88 1484.99,-513.67 1494.68,-508.54"/>
<text text-anchor="start" x="1491.37" y="-519.2" font-family="Arial" font-size="10.00">FOREIGN KEY (datasettypeid) REFERENCES ndb.datasettypes(datasettypeid)</text>
</g>
<!-- ndb.taphonomicsystemsdatasettypes -->
<g id="node6" class="node">
<title>ndb.taphonomicsystemsdatasettypes</title>
<polygon fill="#efefef" stroke="none" points="1587.44,-509.2 1587.44,-544.8 1987.38,-544.8 1987.38,-509.2 1587.44,-509.2"/>
<polygon fill="none" stroke="black" points="1587.44,-509.2 1587.44,-544.8 1987.38,-544.8 1987.38,-509.2 1587.44,-509.2"/>
<text text-anchor="start" x="1594.44" y="-522.6" font-family="Arial Bold" font-size="18.00">ndb.taphonomicsystemsdatasettypes</text>
<text text-anchor="start" x="1855.89" y="-522.6" font-family="Arial" font-size="14.00">    </text>
<text text-anchor="start" x="1887.01" y="-522.6" font-family="Arial" font-size="14.00" fill="#666666">[BASE TABLE]</text>
<polygon fill="none" stroke="black" points="1587.44,-478.4 1587.44,-509.2 1987.38,-509.2 1987.38,-478.4 1587.44,-478.4"/>
<text text-anchor="start" x="1594.44" y="-490.6" font-family="Arial" font-size="14.00">datasettypeid </text>
<text text-anchor="start" x="1681.61" y="-490.6" font-family="Arial" font-size="14.00" fill="#666666">[integer]</text>
<polygon fill="none" stroke="black" points="1587.44,-447.6 1587.44,-478.4 1987.38,-478.4 1987.38,-447.6 1587.44,-447.6"/>
<text text-anchor="start" x="1594.44" y="-459.8" font-family="Arial" font-size="14.00">recdatecreated </text>
<text text-anchor="start" x="1691.72" y="-459.8" font-family="Arial" font-size="14.00" fill="#666666">[timestamp(0) without time zone]</text>
<polygon fill="none" stroke="black" points="1587.44,-416.8 1587.44,-447.6 1987.38,-447.6 1987.38,-416.8 1587.44,-416.8"/>
<text text-anchor="start" x="1594.44" y="-429" font-family="Arial" font-size="14.00">recdatemodified </text>
<text text-anchor="start" x="1697.94" y="-429" font-family="Arial" font-size="14.00" fill="#666666">[timestamp(0) without time zone]</text>
<polygon fill="none" stroke="black" points="1587.44,-386 1587.44,-416.8 1987.38,-416.8 1987.38,-386 1587.44,-386"/>
<text text-anchor="start" x="1594.44" y="-398.2" font-family="Arial" font-size="14.00">taphonomicsystemid </text>
<text text-anchor="start" x="1725.94" y="-398.2" font-family="Arial" font-size="14.00" fill="#666666">[integer]</text>
</g>
<!-- ndb.taphonomicsystemsdatasettypes&#45;&gt;ndb.datasettypes -->
<g id="edge5" class="edge">
<title>ndb.taphonomicsystemsdatasettypes:datasettypeid&#45;&gt;ndb.datasettypes:datasettypeid</title>
<path fill="none" stroke="black" d="M1576.03,-492.95C1523.73,-483.65 1560.18,-399.95 1587.44,-342.8 1616.86,-281.1 1676.84,-306.88 1706.31,-245.2 1730.26,-195.07 1762.87,-120.2 1707.31,-120.2"/>
<polygon fill="black" stroke="black" points="1576.14,-492.96 1585.74,-498.26 1581.45,-493.39 1585.77,-493.75 1585.77,-493.75 1585.77,-493.75 1581.45,-493.39 1586.47,-489.29 1576.14,-492.96"/>
<text text-anchor="start" x="1298.28" y="-477.8" font-family="Arial" font-size="10.00">FOREIGN KEY (datasettypeid) REFERENCES ndb.datasettypes(datasettypeid) ON UPDATE CASCADE ON DELETE CASCADE</text>
</g>
<!-- ndb.unitsdatasettypes -->
<g id="node7" class="node">
<title>ndb.unitsdatasettypes</title>
<polygon fill="#efefef" stroke="none" points="2091.51,-509.2 2091.51,-544.8 2411.31,-544.8 2411.31,-509.2 2091.51,-509.2"/>
<polygon fill="none" stroke="black" points="2091.51,-509.2 2091.51,-544.8 2411.31,-544.8 2411.31,-509.2 2091.51,-509.2"/>
<text text-anchor="start" x="2111.93" y="-522.6" font-family="Arial Bold" font-size="18.00">ndb.unitsdatasettypes</text>
<text text-anchor="start" x="2266.4" y="-522.6" font-family="Arial" font-size="14.00">    </text>
<text text-anchor="start" x="2297.52" y="-522.6" font-family="Arial" font-size="14.00" fill="#666666">[BASE TABLE]</text>
<polygon fill="none" stroke="black" points="2091.51,-478.4 2091.51,-509.2 2411.31,-509.2 2411.31,-478.4 2091.51,-478.4"/>
<text text-anchor="start" x="2098.51" y="-490.6" font-family="Arial" font-size="14.00">datasettypeid </text>
<text text-anchor="start" x="2185.68" y="-490.6" font-family="Arial" font-size="14.00" fill="#666666">[integer]</text>
<polygon fill="none" stroke="black" points="2091.51,-447.6 2091.51,-478.4 2411.31,-478.4 2411.31,-447.6 2091.51,-447.6"/>
<text text-anchor="start" x="2098.51" y="-459.8" font-family="Arial" font-size="14.00">recdatecreated </text>
<text text-anchor="start" x="2195.79" y="-459.8" font-family="Arial" font-size="14.00" fill="#666666">[timestamp(0) without time zone]</text>
<polygon fill="none" stroke="black" points="2091.51,-416.8 2091.51,-447.6 2411.31,-447.6 2411.31,-416.8 2091.51,-416.8"/>
<text text-anchor="start" x="2098.51" y="-429" font-family="Arial" font-size="14.00">recdatemodified </text>
<text text-anchor="start" x="2202.01" y="-429" font-family="Arial" font-size="14.00" fill="#666666">[timestamp(0) without time zone]</text>
<polygon fill="none" stroke="black" points="2091.51,-386 2091.51,-416.8 2411.31,-416.8 2411.31,-386 2091.51,-386"/>
<text text-anchor="start" x="2098.51" y="-398.2" font-family="Arial" font-size="14.00">variableunitsid </text>
<text text-anchor="start" x="2191.9" y="-398.2" font-family="Arial" font-size="14.00" fill="#666666">[integer]</text>
</g>
<!-- ndb.unitsdatasettypes&#45;&gt;ndb.datasettypes -->
<g id="edge6" class="edge">
<title>ndb.unitsdatasettypes:datasettypeid&#45;&gt;ndb.datasettypes:datasettypeid</title>
<path fill="none" stroke="black" d="M2080.52,-493.24C2001.04,-483.72 2098.08,-354.1 2039.41,-281.2 1936.57,-153.41 1871.34,-120.2 1707.31,-120.2"/>
<polygon fill="black" stroke="black" points="2080.19,-493.23 2089.93,-498.27 2085.52,-493.52 2089.84,-493.76 2089.84,-493.76 2089.84,-493.76 2085.52,-493.52 2090.43,-489.29 2080.19,-493.23"/>
<text text-anchor="start" x="1507.2" y="-503.8" font-family="Arial" font-size="10.00">FOREIGN KEY (datasettypeid) REFERENCES ndb.datasettypes(datasettypeid) ON UPDATE CASCADE ON DELETE CASCADE</text>
</g>
<!-- ndb.variables -->
<g id="node9" class="node">
<title>ndb.variables</title>
<polygon fill="#efefef" stroke="none" points="2945.51,-555.4 2945.51,-591 3265.31,-591 3265.31,-555.4 2945.51,-555.4"/>
<polygon fill="none" stroke="black" points="2945.51,-555.4 2945.51,-591 3265.31,-591 3265.31,-555.4 2945.51,-555.4"/>
<text text-anchor="start" x="2994.93" y="-568.8" font-family="Arial Bold" font-size="18.00">ndb.variables</text>
<text text-anchor="start" x="3091.4" y="-568.8" font-family="Arial" font-size="14.00">    </text>
<text text-anchor="start" x="3122.52" y="-568.8" font-family="Arial" font-size="14.00" fill="#666666">[BASE TABLE]</text>
<polygon fill="none" stroke="black" points="2945.51,-524.6 2945.51,-555.4 3265.31,-555.4 3265.31,-524.6 2945.51,-524.6"/>
<text text-anchor="start" x="2952.51" y="-536.8" font-family="Arial" font-size="14.00">recdatecreated </text>
<text text-anchor="start" x="3049.79" y="-536.8" font-family="Arial" font-size="14.00" fill="#666666">[timestamp(0) without time zone]</text>
<polygon fill="none" stroke="black" points="2945.51,-493.8 2945.51,-524.6 3265.31,-524.6 3265.31,-493.8 2945.51,-493.8"/>
<text text-anchor="start" x="2952.51" y="-506" font-family="Arial" font-size="14.00">recdatemodified </text>
<text text-anchor="start" x="3056.01" y="-506" font-family="Arial" font-size="14.00" fill="#666666">[timestamp(0) without time zone]</text>
<polygon fill="none" stroke="black" points="2945.51,-463 2945.51,-493.8 3265.31,-493.8 3265.31,-463 2945.51,-463"/>
<text text-anchor="start" x="2952.51" y="-475.2" font-family="Arial" font-size="14.00">taxonid </text>
<text text-anchor="start" x="3001.54" y="-475.2" font-family="Arial" font-size="14.00" fill="#666666">[integer]</text>
<polygon fill="none" stroke="black" points="2945.51,-432.2 2945.51,-463 3265.31,-463 3265.31,-432.2 2945.51,-432.2"/>
<text text-anchor="start" x="2952.51" y="-444.4" font-family="Arial" font-size="14.00">variablecontextid </text>
<text text-anchor="start" x="3061.46" y="-444.4" font-family="Arial" font-size="14.00" fill="#666666">[integer]</text>
<polygon fill="none" stroke="black" points="2945.51,-401.4 2945.51,-432.2 3265.31,-432.2 3265.31,-401.4 2945.51,-401.4"/>
<text text-anchor="start" x="2952.51" y="-413.6" font-family="Arial" font-size="14.00">variableelementid </text>
<text text-anchor="start" x="3066.13" y="-413.6" font-family="Arial" font-size="14.00" fill="#666666">[integer]</text>
<polygon fill="none" stroke="black" points="2945.51,-370.6 2945.51,-401.4 3265.31,-401.4 3265.31,-370.6 2945.51,-370.6"/>
<text text-anchor="start" x="2952.51" y="-382.8" font-family="Arial" font-size="14.00">variableid </text>
<text text-anchor="start" x="3016.32" y="-382.8" font-family="Arial" font-size="14.00" fill="#666666">[integer]</text>
<polygon fill="none" stroke="black" points="2945.51,-339.8 2945.51,-370.6 3265.31,-370.6 3265.31,-339.8 2945.51,-339.8"/>
<text text-anchor="start" x="2952.51" y="-352" font-family="Arial" font-size="14.00">variableunitsid </text>
<text text-anchor="start" x="3045.9" y="-352" font-family="Arial" font-size="14.00" fill="#666666">[integer]</text>
</g>
<!-- ndb.variables&#45;&gt;ndb.variablecontexts -->
<g id="edge8" class="edge">
<title>ndb.variables:variablecontextid&#45;&gt;ndb.variablecontexts:variablecontextid</title>
<path fill="none" stroke="black" d="M2934.38,-446.78C2880.94,-437.41 2911.67,-350.26 2945.51,-296.6 2973.39,-252.38 3023.45,-289.44 3051.31,-245.2 3095.5,-175.02 3135.24,-58.6 3052.31,-58.6"/>
<polygon fill="black" stroke="black" points="2934.21,-446.76 2943.81,-452.06 2939.53,-447.19 2943.84,-447.55 2943.84,-447.55 2943.84,-447.55 2939.53,-447.19 2944.54,-443.09 2934.21,-446.76"/>
<text text-anchor="start" x="2951.51" y="-457.6" font-family="Arial" font-size="10.00">FOREIGN KEY (variablecontextid) REFERENCES ndb.variablecontexts(variablecontextid) ON UPDATE CASCADE ON DELETE CASCADE</text>
</g>
</g>
</svg>
