<?xml version="1.0" encoding="UTF-8" standalone="no"?>
<!DOCTYPE svg PUBLIC "-//W3C//DTD SVG 1.1//EN"
 "http://www.w3.org/Graphics/SVG/1.1/DTD/svg11.dtd">
<!-- Generated by graphviz version 12.1.2 (20240928.0832)
 -->
<!-- Title: ndb.hiatuschronology Pages: 1 -->
<svg width="2143pt" height="1863pt"
 viewBox="0.00 0.00 2143.32 1862.80" xmlns="http://www.w3.org/2000/svg" xmlns:xlink="http://www.w3.org/1999/xlink">
<g id="graph0" class="graph" transform="scale(1 1) rotate(0) translate(4 1858.8)">
<title>ndb.hiatuschronology</title>
<polygon fill="white" stroke="none" points="-4,4 -4,-1858.8 2139.32,-1858.8 2139.32,4 -4,4"/>
<!-- ndb.hiatuschronology -->
<g id="node1" class="node">
<title>ndb.hiatuschronology</title>
<polygon fill="#efefef" stroke="none" points="298.99,-1637.4 298.99,-1673 593.96,-1673 593.96,-1637.4 298.99,-1637.4"/>
<polygon fill="none" stroke="black" points="298.99,-1637.4 298.99,-1673 593.96,-1673 593.96,-1637.4 298.99,-1637.4"/>
<text text-anchor="start" x="305.99" y="-1650.8" font-family="Arial Bold" font-size="18.00">ndb.hiatuschronology</text>
<text text-anchor="start" x="462.47" y="-1650.8" font-family="Arial" font-size="14.00">    </text>
<text text-anchor="start" x="493.59" y="-1650.8" font-family="Arial" font-size="14.00" fill="#666666">[BASE TABLE]</text>
<polygon fill="none" stroke="black" points="298.99,-1606.6 298.99,-1637.4 593.96,-1637.4 593.96,-1606.6 298.99,-1606.6"/>
<text text-anchor="start" x="305.99" y="-1618.8" font-family="Arial" font-size="14.00">hiatusid </text>
<text text-anchor="start" x="358.13" y="-1618.8" font-family="Arial" font-size="14.00" fill="#666666">[integer]</text>
<polygon fill="none" stroke="black" points="298.99,-1575.8 298.99,-1606.6 593.96,-1606.6 593.96,-1575.8 298.99,-1575.8"/>
<text text-anchor="start" x="305.99" y="-1588" font-family="Arial" font-size="14.00">chronologyid </text>
<text text-anchor="start" x="389.26" y="-1588" font-family="Arial" font-size="14.00" fill="#666666">[integer]</text>
<polygon fill="none" stroke="black" points="298.99,-1545 298.99,-1575.8 593.96,-1575.8 593.96,-1545 298.99,-1545"/>
<text text-anchor="start" x="305.99" y="-1557.2" font-family="Arial" font-size="14.00">hiatuslength </text>
<text text-anchor="start" x="385.38" y="-1557.2" font-family="Arial" font-size="14.00" fill="#666666">[integer]</text>
<polygon fill="none" stroke="black" points="298.99,-1514.2 298.99,-1545 593.96,-1545 593.96,-1514.2 298.99,-1514.2"/>
<text text-anchor="start" x="305.99" y="-1526.4" font-family="Arial" font-size="14.00">hiatusuncertainty </text>
<text text-anchor="start" x="415.72" y="-1526.4" font-family="Arial" font-size="14.00" fill="#666666">[integer]</text>
<polygon fill="none" stroke="black" stroke-width="3" points="297.49,-1512.7 297.49,-1674.5 595.46,-1674.5 595.46,-1512.7 297.49,-1512.7"/>
</g>
<!-- ndb.hiatuses -->
<g id="node2" class="node">
<title>ndb.hiatuses</title>
<polygon fill="#efefef" stroke="none" points="328.48,-1079 328.48,-1114.6 556.46,-1114.6 556.46,-1079 328.48,-1079"/>
<polygon fill="none" stroke="black" points="328.48,-1079 328.48,-1114.6 556.46,-1114.6 556.46,-1079 328.48,-1079"/>
<text text-anchor="start" x="335.48" y="-1092.4" font-family="Arial Bold" font-size="18.00">ndb.hiatuses</text>
<text text-anchor="start" x="424.97" y="-1092.4" font-family="Arial" font-size="14.00">    </text>
<text text-anchor="start" x="456.09" y="-1092.4" font-family="Arial" font-size="14.00" fill="#666666">[BASE TABLE]</text>
<polygon fill="none" stroke="black" points="328.48,-1048.2 328.48,-1079 556.46,-1079 556.46,-1048.2 328.48,-1048.2"/>
<text text-anchor="start" x="335.48" y="-1060.4" font-family="Arial" font-size="14.00">hiatusid </text>
<text text-anchor="start" x="387.63" y="-1060.4" font-family="Arial" font-size="14.00" fill="#666666">[integer]</text>
<polygon fill="none" stroke="black" points="328.48,-1017.4 328.48,-1048.2 556.46,-1048.2 556.46,-1017.4 328.48,-1017.4"/>
<text text-anchor="start" x="335.48" y="-1029.6" font-family="Arial" font-size="14.00">analysisunitstart </text>
<text text-anchor="start" x="439.75" y="-1029.6" font-family="Arial" font-size="14.00" fill="#666666">[integer]</text>
<polygon fill="none" stroke="black" points="328.48,-986.6 328.48,-1017.4 556.46,-1017.4 556.46,-986.6 328.48,-986.6"/>
<text text-anchor="start" x="335.48" y="-998.8" font-family="Arial" font-size="14.00">analysisunitend </text>
<text text-anchor="start" x="435.88" y="-998.8" font-family="Arial" font-size="14.00" fill="#666666">[integer]</text>
<polygon fill="none" stroke="black" points="328.48,-955.8 328.48,-986.6 556.46,-986.6 556.46,-955.8 328.48,-955.8"/>
<text text-anchor="start" x="335.48" y="-968" font-family="Arial" font-size="14.00">notes </text>
<text text-anchor="start" x="373.62" y="-968" font-family="Arial" font-size="14.00" fill="#666666">[text]</text>
</g>
<!-- ndb.hiatuschronology&#45;&gt;ndb.hiatuses -->
<g id="edge1" class="edge">
<title>ndb.hiatuschronology:hiatusid&#45;&gt;ndb.hiatuses:hiatusid</title>
<path fill="none" stroke="black" d="M287.76,-1621.21C234.51,-1612.27 276.82,-1528.79 298.99,-1468 372.06,-1267.6 770.77,-1063.6 557.46,-1063.6"/>
<polygon fill="black" stroke="black" points="287.69,-1621.21 297.31,-1626.46 293,-1621.62 297.32,-1621.95 297.32,-1621.95 297.32,-1621.95 293,-1621.62 298,-1617.49 287.69,-1621.21"/>
<text text-anchor="start" x="7" y="-1632" font-family="Arial" font-size="10.00">FOREIGN KEY (hiatusid) REFERENCES ndb.hiatuses(hiatusid)</text>
</g>
<!-- ndb.chronologies -->
<g id="node4" class="node">
<title>ndb.chronologies</title>
<polygon fill="#efefef" stroke="none" points="1127.57,-1217.6 1127.57,-1253.2 1447.37,-1253.2 1447.37,-1217.6 1127.57,-1217.6"/>
<polygon fill="none" stroke="black" points="1127.57,-1217.6 1127.57,-1253.2 1447.37,-1253.2 1447.37,-1217.6 1127.57,-1217.6"/>
<text text-anchor="start" x="1162.99" y="-1231" font-family="Arial Bold" font-size="18.00">ndb.chronologies</text>
<text text-anchor="start" x="1287.47" y="-1231" font-family="Arial" font-size="14.00">    </text>
<text text-anchor="start" x="1318.59" y="-1231" font-family="Arial" font-size="14.00" fill="#666666">[BASE TABLE]</text>
<polygon fill="none" stroke="black" points="1127.57,-1186.8 1127.57,-1217.6 1447.37,-1217.6 1447.37,-1186.8 1127.57,-1186.8"/>
<text text-anchor="start" x="1134.57" y="-1199" font-family="Arial" font-size="14.00">chronologyid </text>
<text text-anchor="start" x="1217.85" y="-1199" font-family="Arial" font-size="14.00" fill="#666666">[integer]</text>
<polygon fill="none" stroke="black" points="1127.57,-1156 1127.57,-1186.8 1447.37,-1186.8 1447.37,-1156 1127.57,-1156"/>
<text text-anchor="start" x="1134.57" y="-1168.2" font-family="Arial" font-size="14.00">collectionunitid </text>
<text text-anchor="start" x="1230.3" y="-1168.2" font-family="Arial" font-size="14.00" fill="#666666">[integer]</text>
<polygon fill="none" stroke="black" points="1127.57,-1125.2 1127.57,-1156 1447.37,-1156 1447.37,-1125.2 1127.57,-1125.2"/>
<text text-anchor="start" x="1134.57" y="-1137.4" font-family="Arial" font-size="14.00">agetypeid </text>
<text text-anchor="start" x="1199.18" y="-1137.4" font-family="Arial" font-size="14.00" fill="#666666">[integer]</text>
<polygon fill="none" stroke="black" points="1127.57,-1094.4 1127.57,-1125.2 1447.37,-1125.2 1447.37,-1094.4 1127.57,-1094.4"/>
<text text-anchor="start" x="1134.57" y="-1106.6" font-family="Arial" font-size="14.00">contactid </text>
<text text-anchor="start" x="1194.5" y="-1106.6" font-family="Arial" font-size="14.00" fill="#666666">[integer]</text>
<polygon fill="none" stroke="black" points="1127.57,-1063.6 1127.57,-1094.4 1447.37,-1094.4 1447.37,-1063.6 1127.57,-1063.6"/>
<text text-anchor="start" x="1134.57" y="-1075.8" font-family="Arial" font-size="14.00">isdefault </text>
<text text-anchor="start" x="1190.61" y="-1075.8" font-family="Arial" font-size="14.00" fill="#666666">[boolean]</text>
<polygon fill="none" stroke="black" points="1127.57,-1032.8 1127.57,-1063.6 1447.37,-1063.6 1447.37,-1032.8 1127.57,-1032.8"/>
<text text-anchor="start" x="1134.57" y="-1045" font-family="Arial" font-size="14.00">chronologyname </text>
<text text-anchor="start" x="1241.97" y="-1045" font-family="Arial" font-size="14.00" fill="#666666">[varchar(80)]</text>
<polygon fill="none" stroke="black" points="1127.57,-1002 1127.57,-1032.8 1447.37,-1032.8 1447.37,-1002 1127.57,-1002"/>
<text text-anchor="start" x="1134.57" y="-1014.2" font-family="Arial" font-size="14.00">dateprepared </text>
<text text-anchor="start" x="1221.75" y="-1014.2" font-family="Arial" font-size="14.00" fill="#666666">[date]</text>
<polygon fill="none" stroke="black" points="1127.57,-971.2 1127.57,-1002 1447.37,-1002 1447.37,-971.2 1127.57,-971.2"/>
<text text-anchor="start" x="1134.57" y="-983.4" font-family="Arial" font-size="14.00">agemodel </text>
<text text-anchor="start" x="1199.95" y="-983.4" font-family="Arial" font-size="14.00" fill="#666666">[varchar(80)]</text>
<polygon fill="none" stroke="black" points="1127.57,-940.4 1127.57,-971.2 1447.37,-971.2 1447.37,-940.4 1127.57,-940.4"/>
<text text-anchor="start" x="1134.57" y="-952.6" font-family="Arial" font-size="14.00">ageboundyounger </text>
<text text-anchor="start" x="1251.35" y="-952.6" font-family="Arial" font-size="14.00" fill="#666666">[integer]</text>
<polygon fill="none" stroke="black" points="1127.57,-909.6 1127.57,-940.4 1447.37,-940.4 1447.37,-909.6 1127.57,-909.6"/>
<text text-anchor="start" x="1134.57" y="-921.8" font-family="Arial" font-size="14.00">ageboundolder </text>
<text text-anchor="start" x="1231.88" y="-921.8" font-family="Arial" font-size="14.00" fill="#666666">[integer]</text>
<polygon fill="none" stroke="black" points="1127.57,-878.8 1127.57,-909.6 1447.37,-909.6 1447.37,-878.8 1127.57,-878.8"/>
<text text-anchor="start" x="1134.57" y="-891" font-family="Arial" font-size="14.00">notes </text>
<text text-anchor="start" x="1172.71" y="-891" font-family="Arial" font-size="14.00" fill="#666666">[text]</text>
<polygon fill="none" stroke="black" points="1127.57,-848 1127.57,-878.8 1447.37,-878.8 1447.37,-848 1127.57,-848"/>
<text text-anchor="start" x="1134.57" y="-860.2" font-family="Arial" font-size="14.00">recdatecreated </text>
<text text-anchor="start" x="1231.86" y="-860.2" font-family="Arial" font-size="14.00" fill="#666666">[timestamp(0) without time zone]</text>
<polygon fill="none" stroke="black" points="1127.57,-817.2 1127.57,-848 1447.37,-848 1447.37,-817.2 1127.57,-817.2"/>
<text text-anchor="start" x="1134.57" y="-829.4" font-family="Arial" font-size="14.00">recdatemodified </text>
<text text-anchor="start" x="1238.08" y="-829.4" font-family="Arial" font-size="14.00" fill="#666666">[timestamp(0) without time zone]</text>
</g>
<!-- ndb.hiatuschronology&#45;&gt;ndb.chronologies -->
<g id="edge4" class="edge">
<title>ndb.hiatuschronology:chronologyid&#45;&gt;ndb.chronologies:chronologyid</title>
<path fill="none" stroke="black" d="M605.25,-1590.7C704.02,-1580.45 572.97,-1415.14 651.47,-1332.4 726.82,-1252.99 1017.1,-1202.2 1126.57,-1202.2"/>
<polygon fill="black" stroke="black" points="605.28,-1590.7 595.07,-1586.69 599.95,-1590.96 595.63,-1591.17 595.63,-1591.17 595.63,-1591.17 599.95,-1590.96 595.51,-1595.68 605.28,-1590.7"/>
<text text-anchor="start" x="240.04" y="-1601.2" font-family="Arial" font-size="10.00">FOREIGN KEY (chronologyid) REFERENCES ndb.chronologies(chronologyid)</text>
</g>
<!-- ndb.analysisunits -->
<g id="node3" class="node">
<title>ndb.analysisunits</title>
<polygon fill="#efefef" stroke="none" points="282.57,-520.6 282.57,-556.2 602.37,-556.2 602.37,-520.6 282.57,-520.6"/>
<polygon fill="none" stroke="black" points="282.57,-520.6 282.57,-556.2 602.37,-556.2 602.37,-520.6 282.57,-520.6"/>
<text text-anchor="start" x="317.98" y="-534" font-family="Arial Bold" font-size="18.00">ndb.analysisunits</text>
<text text-anchor="start" x="442.48" y="-534" font-family="Arial" font-size="14.00">    </text>
<text text-anchor="start" x="473.6" y="-534" font-family="Arial" font-size="14.00" fill="#666666">[BASE TABLE]</text>
<polygon fill="none" stroke="black" points="282.57,-489.8 282.57,-520.6 602.37,-520.6 602.37,-489.8 282.57,-489.8"/>
<text text-anchor="start" x="289.57" y="-502" font-family="Arial" font-size="14.00">analysisunitid </text>
<text text-anchor="start" x="377.51" y="-502" font-family="Arial" font-size="14.00" fill="#666666">[integer]</text>
<polygon fill="none" stroke="black" points="282.57,-459 282.57,-489.8 602.37,-489.8 602.37,-459 282.57,-459"/>
<text text-anchor="start" x="289.57" y="-471.2" font-family="Arial" font-size="14.00">collectionunitid </text>
<text text-anchor="start" x="385.3" y="-471.2" font-family="Arial" font-size="14.00" fill="#666666">[integer]</text>
<polygon fill="none" stroke="black" points="282.57,-428.2 282.57,-459 602.37,-459 602.37,-428.2 282.57,-428.2"/>
<text text-anchor="start" x="289.57" y="-440.4" font-family="Arial" font-size="14.00">analysisunitname </text>
<text text-anchor="start" x="401.64" y="-440.4" font-family="Arial" font-size="14.00" fill="#666666">[varchar(80)]</text>
<polygon fill="none" stroke="black" points="282.57,-397.4 282.57,-428.2 602.37,-428.2 602.37,-397.4 282.57,-397.4"/>
<text text-anchor="start" x="289.57" y="-409.6" font-family="Arial" font-size="14.00">depth </text>
<text text-anchor="start" x="328.5" y="-409.6" font-family="Arial" font-size="14.00" fill="#666666">[double precision]</text>
<polygon fill="none" stroke="black" points="282.57,-366.6 282.57,-397.4 602.37,-397.4 602.37,-366.6 282.57,-366.6"/>
<text text-anchor="start" x="289.57" y="-378.8" font-family="Arial" font-size="14.00">thickness </text>
<text text-anchor="start" x="351.82" y="-378.8" font-family="Arial" font-size="14.00" fill="#666666">[double precision]</text>
<polygon fill="none" stroke="black" points="282.57,-335.8 282.57,-366.6 602.37,-366.6 602.37,-335.8 282.57,-335.8"/>
<text text-anchor="start" x="289.57" y="-348" font-family="Arial" font-size="14.00">faciesid </text>
<text text-anchor="start" x="340.93" y="-348" font-family="Arial" font-size="14.00" fill="#666666">[integer]</text>
<polygon fill="none" stroke="black" points="282.57,-305 282.57,-335.8 602.37,-335.8 602.37,-305 282.57,-305"/>
<text text-anchor="start" x="289.57" y="-317.2" font-family="Arial" font-size="14.00">mixed </text>
<text text-anchor="start" x="330.81" y="-317.2" font-family="Arial" font-size="14.00" fill="#666666">[boolean]</text>
<polygon fill="none" stroke="black" points="282.57,-274.2 282.57,-305 602.37,-305 602.37,-274.2 282.57,-274.2"/>
<text text-anchor="start" x="289.57" y="-286.4" font-family="Arial" font-size="14.00">igsn </text>
<text text-anchor="start" x="319.15" y="-286.4" font-family="Arial" font-size="14.00" fill="#666666">[varchar(40)]</text>
<polygon fill="none" stroke="black" points="282.57,-243.4 282.57,-274.2 602.37,-274.2 602.37,-243.4 282.57,-243.4"/>
<text text-anchor="start" x="289.57" y="-255.6" font-family="Arial" font-size="14.00">notes </text>
<text text-anchor="start" x="327.71" y="-255.6" font-family="Arial" font-size="14.00" fill="#666666">[text]</text>
<polygon fill="none" stroke="black" points="282.57,-212.6 282.57,-243.4 602.37,-243.4 602.37,-212.6 282.57,-212.6"/>
<text text-anchor="start" x="289.57" y="-224.8" font-family="Arial" font-size="14.00">recdatecreated </text>
<text text-anchor="start" x="386.86" y="-224.8" font-family="Arial" font-size="14.00" fill="#666666">[timestamp(0) without time zone]</text>
<polygon fill="none" stroke="black" points="282.57,-181.8 282.57,-212.6 602.37,-212.6 602.37,-181.8 282.57,-181.8"/>
<text text-anchor="start" x="289.57" y="-194" font-family="Arial" font-size="14.00">recdatemodified </text>
<text text-anchor="start" x="393.08" y="-194" font-family="Arial" font-size="14.00" fill="#666666">[timestamp(0) without time zone]</text>
</g>
<!-- ndb.hiatuses&#45;&gt;ndb.analysisunits -->
<g id="edge2" class="edge">
<title>ndb.hiatuses:analysisunitstart&#45;&gt;ndb.analysisunits:analysisunitid</title>
<path fill="none" stroke="black" d="M566.65,-1028.55C620.86,-978.62 659.11,-505.2 603.37,-505.2"/>
<polygon fill="black" stroke="black" points="566.84,-1028.46 555.88,-1028.57 562,-1030.7 558.07,-1032.52 558.07,-1032.52 558.07,-1032.52 562,-1030.7 559.66,-1036.74 566.84,-1028.46"/>
<text text-anchor="start" x="564.46" y="-1042.8" font-family="Arial" font-size="10.00">FOREIGN KEY (analysisunitstart) REFERENCES ndb.analysisunits(analysisunitid)</text>
</g>
<!-- ndb.hiatuses&#45;&gt;ndb.analysisunits -->
<g id="edge3" class="edge">
<title>ndb.hiatuses:analysisunitend&#45;&gt;ndb.analysisunits:analysisunitid</title>
<path fill="none" stroke="black" d="M566.78,-997.4C617.77,-947.32 655.67,-505.2 603.37,-505.2"/>
<polygon fill="black" stroke="black" points="566.73,-997.42 555.77,-997.82 561.95,-999.79 558.06,-1001.7 558.06,-1001.7 558.06,-1001.7 561.95,-999.79 559.76,-1005.89 566.73,-997.42"/>
<text text-anchor="start" x="564.46" y="-1012" font-family="Arial" font-size="10.00">FOREIGN KEY (analysisunitend) REFERENCES ndb.analysisunits(analysisunitid)</text>
</g>
<!-- ndb.collectionunits -->
<g id="node8" class="node">
<title>ndb.collectionunits</title>
<polygon fill="#efefef" stroke="none" points="706.57,-659.2 706.57,-694.8 1026.37,-694.8 1026.37,-659.2 706.57,-659.2"/>
<polygon fill="none" stroke="black" points="706.57,-659.2 706.57,-694.8 1026.37,-694.8 1026.37,-659.2 706.57,-659.2"/>
<text text-anchor="start" x="735.49" y="-672.6" font-family="Arial Bold" font-size="18.00">ndb.collectionunits</text>
<text text-anchor="start" x="872.97" y="-672.6" font-family="Arial" font-size="14.00">    </text>
<text text-anchor="start" x="904.09" y="-672.6" font-family="Arial" font-size="14.00" fill="#666666">[BASE TABLE]</text>
<polygon fill="none" stroke="black" points="706.57,-628.4 706.57,-659.2 1026.37,-659.2 1026.37,-628.4 706.57,-628.4"/>
<text text-anchor="start" x="713.57" y="-640.6" font-family="Arial" font-size="14.00">collectionunitid </text>
<text text-anchor="start" x="809.3" y="-640.6" font-family="Arial" font-size="14.00" fill="#666666">[integer]</text>
<polygon fill="none" stroke="black" points="706.57,-597.6 706.57,-628.4 1026.37,-628.4 1026.37,-597.6 706.57,-597.6"/>
<text text-anchor="start" x="713.57" y="-609.8" font-family="Arial" font-size="14.00">handle </text>
<text text-anchor="start" x="759.51" y="-609.8" font-family="Arial" font-size="14.00" fill="#666666">[varchar(10)]</text>
<polygon fill="none" stroke="black" points="706.57,-566.8 706.57,-597.6 1026.37,-597.6 1026.37,-566.8 706.57,-566.8"/>
<text text-anchor="start" x="713.57" y="-579" font-family="Arial" font-size="14.00">siteid </text>
<text text-anchor="start" x="750.15" y="-579" font-family="Arial" font-size="14.00" fill="#666666">[integer]</text>
<polygon fill="none" stroke="black" points="706.57,-536 706.57,-566.8 1026.37,-566.8 1026.37,-536 706.57,-536"/>
<text text-anchor="start" x="713.57" y="-548.2" font-family="Arial" font-size="14.00">colltypeid </text>
<text text-anchor="start" x="775.83" y="-548.2" font-family="Arial" font-size="14.00" fill="#666666">[integer]</text>
<polygon fill="none" stroke="black" points="706.57,-505.2 706.57,-536 1026.37,-536 1026.37,-505.2 706.57,-505.2"/>
<text text-anchor="start" x="713.57" y="-517.4" font-family="Arial" font-size="14.00">depenvtid </text>
<text text-anchor="start" x="778.18" y="-517.4" font-family="Arial" font-size="14.00" fill="#666666">[integer]</text>
<polygon fill="none" stroke="black" points="706.57,-474.4 706.57,-505.2 1026.37,-505.2 1026.37,-474.4 706.57,-474.4"/>
<text text-anchor="start" x="713.57" y="-486.6" font-family="Arial" font-size="14.00">collunitname </text>
<text text-anchor="start" x="796.06" y="-486.6" font-family="Arial" font-size="14.00" fill="#666666">[varchar(255)]</text>
<polygon fill="none" stroke="black" points="706.57,-443.6 706.57,-474.4 1026.37,-474.4 1026.37,-443.6 706.57,-443.6"/>
<text text-anchor="start" x="713.57" y="-455.8" font-family="Arial" font-size="14.00">colldate </text>
<text text-anchor="start" x="765.72" y="-455.8" font-family="Arial" font-size="14.00" fill="#666666">[date]</text>
<polygon fill="none" stroke="black" points="706.57,-412.8 706.57,-443.6 1026.37,-443.6 1026.37,-412.8 706.57,-412.8"/>
<text text-anchor="start" x="713.57" y="-425" font-family="Arial" font-size="14.00">colldevice </text>
<text text-anchor="start" x="778.94" y="-425" font-family="Arial" font-size="14.00" fill="#666666">[varchar(255)]</text>
<polygon fill="none" stroke="black" points="706.57,-382 706.57,-412.8 1026.37,-412.8 1026.37,-382 706.57,-382"/>
<text text-anchor="start" x="713.57" y="-394.2" font-family="Arial" font-size="14.00">gpslatitude </text>
<text text-anchor="start" x="785.18" y="-394.2" font-family="Arial" font-size="14.00" fill="#666666">[double precision]</text>
<polygon fill="none" stroke="black" points="706.57,-351.2 706.57,-382 1026.37,-382 1026.37,-351.2 706.57,-351.2"/>
<text text-anchor="start" x="713.57" y="-363.4" font-family="Arial" font-size="14.00">gpslongitude </text>
<text text-anchor="start" x="796.86" y="-363.4" font-family="Arial" font-size="14.00" fill="#666666">[double precision]</text>
<polygon fill="none" stroke="black" points="706.57,-320.4 706.57,-351.2 1026.37,-351.2 1026.37,-320.4 706.57,-320.4"/>
<text text-anchor="start" x="713.57" y="-332.6" font-family="Arial" font-size="14.00">gpsaltitude </text>
<text text-anchor="start" x="785.18" y="-332.6" font-family="Arial" font-size="14.00" fill="#666666">[double precision]</text>
<polygon fill="none" stroke="black" points="706.57,-289.6 706.57,-320.4 1026.37,-320.4 1026.37,-289.6 706.57,-289.6"/>
<text text-anchor="start" x="713.57" y="-301.8" font-family="Arial" font-size="14.00">gpserror </text>
<text text-anchor="start" x="769.6" y="-301.8" font-family="Arial" font-size="14.00" fill="#666666">[double precision]</text>
<polygon fill="none" stroke="black" points="706.57,-258.8 706.57,-289.6 1026.37,-289.6 1026.37,-258.8 706.57,-258.8"/>
<text text-anchor="start" x="713.57" y="-271" font-family="Arial" font-size="14.00">waterdepth </text>
<text text-anchor="start" x="786.73" y="-271" font-family="Arial" font-size="14.00" fill="#666666">[double precision]</text>
<polygon fill="none" stroke="black" points="706.57,-228 706.57,-258.8 1026.37,-258.8 1026.37,-228 706.57,-228"/>
<text text-anchor="start" x="713.57" y="-240.2" font-family="Arial" font-size="14.00">substrateid </text>
<text text-anchor="start" x="785.95" y="-240.2" font-family="Arial" font-size="14.00" fill="#666666">[integer]</text>
<polygon fill="none" stroke="black" points="706.57,-197.2 706.57,-228 1026.37,-228 1026.37,-197.2 706.57,-197.2"/>
<text text-anchor="start" x="713.57" y="-209.4" font-family="Arial" font-size="14.00">slopeaspect </text>
<text text-anchor="start" x="792.18" y="-209.4" font-family="Arial" font-size="14.00" fill="#666666">[integer]</text>
<polygon fill="none" stroke="black" points="706.57,-166.4 706.57,-197.2 1026.37,-197.2 1026.37,-166.4 706.57,-166.4"/>
<text text-anchor="start" x="713.57" y="-178.6" font-family="Arial" font-size="14.00">slopeangle </text>
<text text-anchor="start" x="785.19" y="-178.6" font-family="Arial" font-size="14.00" fill="#666666">[integer]</text>
<polygon fill="none" stroke="black" points="706.57,-135.6 706.57,-166.4 1026.37,-166.4 1026.37,-135.6 706.57,-135.6"/>
<text text-anchor="start" x="713.57" y="-147.8" font-family="Arial" font-size="14.00">location </text>
<text text-anchor="start" x="765.72" y="-147.8" font-family="Arial" font-size="14.00" fill="#666666">[varchar(255)]</text>
<polygon fill="none" stroke="black" points="706.57,-104.8 706.57,-135.6 1026.37,-135.6 1026.37,-104.8 706.57,-104.8"/>
<text text-anchor="start" x="713.57" y="-117" font-family="Arial" font-size="14.00">notes </text>
<text text-anchor="start" x="751.71" y="-117" font-family="Arial" font-size="14.00" fill="#666666">[text]</text>
<polygon fill="none" stroke="black" points="706.57,-74 706.57,-104.8 1026.37,-104.8 1026.37,-74 706.57,-74"/>
<text text-anchor="start" x="713.57" y="-86.2" font-family="Arial" font-size="14.00">recdatecreated </text>
<text text-anchor="start" x="810.86" y="-86.2" font-family="Arial" font-size="14.00" fill="#666666">[timestamp(0) without time zone]</text>
<polygon fill="none" stroke="black" points="706.57,-43.2 706.57,-74 1026.37,-74 1026.37,-43.2 706.57,-43.2"/>
<text text-anchor="start" x="713.57" y="-55.4" font-family="Arial" font-size="14.00">recdatemodified </text>
<text text-anchor="start" x="817.08" y="-55.4" font-family="Arial" font-size="14.00" fill="#666666">[timestamp(0) without time zone]</text>
</g>
<!-- ndb.chronologies&#45;&gt;ndb.collectionunits -->
<g id="edge8" class="edge">
<title>ndb.chronologies:collectionunitid&#45;&gt;ndb.collectionunits:collectionunitid</title>
<path fill="none" stroke="black" d="M1116.44,-1169.98C1015.48,-1139.94 1143.06,-643.8 1027.37,-643.8"/>
<polygon fill="black" stroke="black" points="1116.34,-1169.97 1125.62,-1175.81 1121.62,-1170.71 1125.91,-1171.31 1125.91,-1171.31 1125.91,-1171.31 1121.62,-1170.71 1126.87,-1166.9 1116.34,-1169.97"/>
<text text-anchor="start" x="524.94" y="-1181.4" font-family="Arial" font-size="10.00">FOREIGN KEY (collectionunitid) REFERENCES ndb.collectionunits(collectionunitid) ON UPDATE CASCADE ON DELETE CASCADE</text>
</g>
<!-- ndb.agetypes -->
<g id="node9" class="node">
<title>ndb.agetypes</title>
<polygon fill="#efefef" stroke="none" points="1130.57,-443.6 1130.57,-479.2 1450.37,-479.2 1450.37,-443.6 1130.57,-443.6"/>
<polygon fill="none" stroke="black" points="1130.57,-443.6 1130.57,-479.2 1450.37,-479.2 1450.37,-443.6 1130.57,-443.6"/>
<text text-anchor="start" x="1180.99" y="-457" font-family="Arial Bold" font-size="18.00">ndb.agetypes</text>
<text text-anchor="start" x="1275.47" y="-457" font-family="Arial" font-size="14.00">    </text>
<text text-anchor="start" x="1306.58" y="-457" font-family="Arial" font-size="14.00" fill="#666666">[BASE TABLE]</text>
<polygon fill="none" stroke="black" points="1130.57,-412.8 1130.57,-443.6 1450.37,-443.6 1450.37,-412.8 1130.57,-412.8"/>
<text text-anchor="start" x="1137.57" y="-425" font-family="Arial" font-size="14.00">agetypeid </text>
<text text-anchor="start" x="1202.18" y="-425" font-family="Arial" font-size="14.00" fill="#666666">[integer]</text>
<polygon fill="none" stroke="black" points="1130.57,-382 1130.57,-412.8 1450.37,-412.8 1450.37,-382 1130.57,-382"/>
<text text-anchor="start" x="1137.57" y="-394.2" font-family="Arial" font-size="14.00">agetype </text>
<text text-anchor="start" x="1191.28" y="-394.2" font-family="Arial" font-size="14.00" fill="#666666">[varchar(64)]</text>
<polygon fill="none" stroke="black" points="1130.57,-351.2 1130.57,-382 1450.37,-382 1450.37,-351.2 1130.57,-351.2"/>
<text text-anchor="start" x="1137.57" y="-363.4" font-family="Arial" font-size="14.00">precedence </text>
<text text-anchor="start" x="1214.63" y="-363.4" font-family="Arial" font-size="14.00" fill="#666666">[integer]</text>
<polygon fill="none" stroke="black" points="1130.57,-320.4 1130.57,-351.2 1450.37,-351.2 1450.37,-320.4 1130.57,-320.4"/>
<text text-anchor="start" x="1137.57" y="-332.6" font-family="Arial" font-size="14.00">shortagetype </text>
<text text-anchor="start" x="1222.41" y="-332.6" font-family="Arial" font-size="14.00" fill="#666666">[varchar(32)]</text>
<polygon fill="none" stroke="black" points="1130.57,-289.6 1130.57,-320.4 1450.37,-320.4 1450.37,-289.6 1130.57,-289.6"/>
<text text-anchor="start" x="1137.57" y="-301.8" font-family="Arial" font-size="14.00">recdatecreated </text>
<text text-anchor="start" x="1234.86" y="-301.8" font-family="Arial" font-size="14.00" fill="#666666">[timestamp(0) without time zone]</text>
<polygon fill="none" stroke="black" points="1130.57,-258.8 1130.57,-289.6 1450.37,-289.6 1450.37,-258.8 1130.57,-258.8"/>
<text text-anchor="start" x="1137.57" y="-271" font-family="Arial" font-size="14.00">recdatemodified </text>
<text text-anchor="start" x="1241.08" y="-271" font-family="Arial" font-size="14.00" fill="#666666">[timestamp(0) without time zone]</text>
</g>
<!-- ndb.chronologies&#45;&gt;ndb.agetypes -->
<g id="edge9" class="edge">
<title>ndb.chronologies:agetypeid&#45;&gt;ndb.agetypes:agetypeid</title>
<path fill="none" stroke="black" d="M1458.52,-1140.3C1607.33,-1131.18 1516.89,-917.48 1447.37,-774 1368.98,-612.19 1209.61,-683.9 1130.57,-522.4 1112.17,-484.79 1087.71,-428.2 1129.57,-428.2"/>
<polygon fill="black" stroke="black" points="1458.7,-1140.29 1448.57,-1136.09 1453.37,-1140.45 1449.04,-1140.58 1449.04,-1140.58 1449.04,-1140.58 1453.37,-1140.45 1448.84,-1145.09 1458.7,-1140.29"/>
<text text-anchor="start" x="1455.37" y="-1150.6" font-family="Arial" font-size="10.00">FOREIGN KEY (agetypeid) REFERENCES ndb.agetypes(agetypeid) ON UPDATE CASCADE ON DELETE CASCADE</text>
</g>
<!-- ndb.contacts -->
<g id="node10" class="node">
<title>ndb.contacts</title>
<polygon fill="#efefef" stroke="none" points="1554.57,-613 1554.57,-648.6 1874.37,-648.6 1874.37,-613 1554.57,-613"/>
<polygon fill="none" stroke="black" points="1554.57,-613 1554.57,-648.6 1874.37,-648.6 1874.37,-613 1554.57,-613"/>
<text text-anchor="start" x="1606.99" y="-626.4" font-family="Arial Bold" font-size="18.00">ndb.contacts</text>
<text text-anchor="start" x="1697.47" y="-626.4" font-family="Arial" font-size="14.00">    </text>
<text text-anchor="start" x="1728.58" y="-626.4" font-family="Arial" font-size="14.00" fill="#666666">[BASE TABLE]</text>
<polygon fill="none" stroke="black" points="1554.57,-582.2 1554.57,-613 1874.37,-613 1874.37,-582.2 1554.57,-582.2"/>
<text text-anchor="start" x="1561.57" y="-594.4" font-family="Arial" font-size="14.00">contactid </text>
<text text-anchor="start" x="1621.5" y="-594.4" font-family="Arial" font-size="14.00" fill="#666666">[integer]</text>
<polygon fill="none" stroke="black" points="1554.57,-551.4 1554.57,-582.2 1874.37,-582.2 1874.37,-551.4 1554.57,-551.4"/>
<text text-anchor="start" x="1561.57" y="-563.6" font-family="Arial" font-size="14.00">aliasid </text>
<text text-anchor="start" x="1605.15" y="-563.6" font-family="Arial" font-size="14.00" fill="#666666">[integer]</text>
<polygon fill="none" stroke="black" points="1554.57,-520.6 1554.57,-551.4 1874.37,-551.4 1874.37,-520.6 1554.57,-520.6"/>
<text text-anchor="start" x="1561.57" y="-532.8" font-family="Arial" font-size="14.00">contactname </text>
<text text-anchor="start" x="1645.62" y="-532.8" font-family="Arial" font-size="14.00" fill="#666666">[varchar(80)]</text>
<polygon fill="none" stroke="black" points="1554.57,-489.8 1554.57,-520.6 1874.37,-520.6 1874.37,-489.8 1554.57,-489.8"/>
<text text-anchor="start" x="1561.57" y="-502" font-family="Arial" font-size="14.00">contactstatusid </text>
<text text-anchor="start" x="1658.85" y="-502" font-family="Arial" font-size="14.00" fill="#666666">[integer]</text>
<polygon fill="none" stroke="black" points="1554.57,-459 1554.57,-489.8 1874.37,-489.8 1874.37,-459 1554.57,-459"/>
<text text-anchor="start" x="1561.57" y="-471.2" font-family="Arial" font-size="14.00">familyname </text>
<text text-anchor="start" x="1637.04" y="-471.2" font-family="Arial" font-size="14.00" fill="#666666">[varchar(80)]</text>
<polygon fill="none" stroke="black" points="1554.57,-428.2 1554.57,-459 1874.37,-459 1874.37,-428.2 1554.57,-428.2"/>
<text text-anchor="start" x="1561.57" y="-440.4" font-family="Arial" font-size="14.00">leadinginitials </text>
<text text-anchor="start" x="1649.52" y="-440.4" font-family="Arial" font-size="14.00" fill="#666666">[varchar(16)]</text>
<polygon fill="none" stroke="black" points="1554.57,-397.4 1554.57,-428.2 1874.37,-428.2 1874.37,-397.4 1554.57,-397.4"/>
<text text-anchor="start" x="1561.57" y="-409.6" font-family="Arial" font-size="14.00">givennames </text>
<text text-anchor="start" x="1640.95" y="-409.6" font-family="Arial" font-size="14.00" fill="#666666">[varchar(80)]</text>
<polygon fill="none" stroke="black" points="1554.57,-366.6 1554.57,-397.4 1874.37,-397.4 1874.37,-366.6 1554.57,-366.6"/>
<text text-anchor="start" x="1561.57" y="-378.8" font-family="Arial" font-size="14.00">suffix </text>
<text text-anchor="start" x="1598.14" y="-378.8" font-family="Arial" font-size="14.00" fill="#666666">[varchar(16)]</text>
<polygon fill="none" stroke="black" points="1554.57,-335.8 1554.57,-366.6 1874.37,-366.6 1874.37,-335.8 1554.57,-335.8"/>
<text text-anchor="start" x="1561.57" y="-348" font-family="Arial" font-size="14.00">title </text>
<text text-anchor="start" x="1587.25" y="-348" font-family="Arial" font-size="14.00" fill="#666666">[varchar(16)]</text>
<polygon fill="none" stroke="black" points="1554.57,-305 1554.57,-335.8 1874.37,-335.8 1874.37,-305 1554.57,-305"/>
<text text-anchor="start" x="1561.57" y="-317.2" font-family="Arial" font-size="14.00">phone </text>
<text text-anchor="start" x="1604.4" y="-317.2" font-family="Arial" font-size="14.00" fill="#666666">[varchar(64)]</text>
<polygon fill="none" stroke="black" points="1554.57,-274.2 1554.57,-305 1874.37,-305 1874.37,-274.2 1554.57,-274.2"/>
<text text-anchor="start" x="1561.57" y="-286.4" font-family="Arial" font-size="14.00">fax </text>
<text text-anchor="start" x="1584.14" y="-286.4" font-family="Arial" font-size="14.00" fill="#666666">[varchar(64)]</text>
<polygon fill="none" stroke="black" points="1554.57,-243.4 1554.57,-274.2 1874.37,-274.2 1874.37,-243.4 1554.57,-243.4"/>
<text text-anchor="start" x="1561.57" y="-255.6" font-family="Arial" font-size="14.00">email </text>
<text text-anchor="start" x="1598.92" y="-255.6" font-family="Arial" font-size="14.00" fill="#666666">[varchar(64)]</text>
<polygon fill="none" stroke="black" points="1554.57,-212.6 1554.57,-243.4 1874.37,-243.4 1874.37,-212.6 1554.57,-212.6"/>
<text text-anchor="start" x="1561.57" y="-224.8" font-family="Arial" font-size="14.00">url </text>
<text text-anchor="start" x="1581.02" y="-224.8" font-family="Arial" font-size="14.00" fill="#666666">[varchar(255)]</text>
<polygon fill="none" stroke="black" points="1554.57,-181.8 1554.57,-212.6 1874.37,-212.6 1874.37,-181.8 1554.57,-181.8"/>
<text text-anchor="start" x="1561.57" y="-194" font-family="Arial" font-size="14.00">address </text>
<text text-anchor="start" x="1615.27" y="-194" font-family="Arial" font-size="14.00" fill="#666666">[text]</text>
<polygon fill="none" stroke="black" points="1554.57,-151 1554.57,-181.8 1874.37,-181.8 1874.37,-151 1554.57,-151"/>
<text text-anchor="start" x="1561.57" y="-163.2" font-family="Arial" font-size="14.00">notes </text>
<text text-anchor="start" x="1599.71" y="-163.2" font-family="Arial" font-size="14.00" fill="#666666">[text]</text>
<polygon fill="none" stroke="black" points="1554.57,-120.2 1554.57,-151 1874.37,-151 1874.37,-120.2 1554.57,-120.2"/>
<text text-anchor="start" x="1561.57" y="-132.4" font-family="Arial" font-size="14.00">recdatecreated </text>
<text text-anchor="start" x="1658.86" y="-132.4" font-family="Arial" font-size="14.00" fill="#666666">[timestamp(0) without time zone]</text>
<polygon fill="none" stroke="black" points="1554.57,-89.4 1554.57,-120.2 1874.37,-120.2 1874.37,-89.4 1554.57,-89.4"/>
<text text-anchor="start" x="1561.57" y="-101.6" font-family="Arial" font-size="14.00">recdatemodified </text>
<text text-anchor="start" x="1665.08" y="-101.6" font-family="Arial" font-size="14.00" fill="#666666">[timestamp(0) without time zone]</text>
</g>
<!-- ndb.chronologies&#45;&gt;ndb.contacts -->
<g id="edge10" class="edge">
<title>ndb.chronologies:contactid&#45;&gt;ndb.contacts:contactid</title>
<path fill="none" stroke="black" d="M1457.61,-1105.06C1505.45,-1053.42 1498.77,-597.6 1553.57,-597.6"/>
<polygon fill="black" stroke="black" points="1457.57,-1105.08 1446.61,-1105.64 1452.82,-1107.51 1448.97,-1109.49 1448.97,-1109.49 1448.97,-1109.49 1452.82,-1107.51 1450.73,-1113.65 1457.57,-1105.08"/>
<text text-anchor="start" x="1455.37" y="-1119.8" font-family="Arial" font-size="10.00">FOREIGN KEY (contactid) REFERENCES ndb.contacts(contactid) ON UPDATE CASCADE</text>
</g>
<!-- ndb.sampleages -->
<g id="node5" class="node">
<title>ndb.sampleages</title>
<polygon fill="#efefef" stroke="none" points="703.57,-1699 703.57,-1734.6 1023.37,-1734.6 1023.37,-1699 703.57,-1699"/>
<polygon fill="none" stroke="black" points="703.57,-1699 703.57,-1734.6 1023.37,-1734.6 1023.37,-1699 703.57,-1699"/>
<text text-anchor="start" x="744" y="-1712.4" font-family="Arial Bold" font-size="18.00">ndb.sampleages</text>
<text text-anchor="start" x="858.46" y="-1712.4" font-family="Arial" font-size="14.00">    </text>
<text text-anchor="start" x="889.58" y="-1712.4" font-family="Arial" font-size="14.00" fill="#666666">[BASE TABLE]</text>
<polygon fill="none" stroke="black" points="703.57,-1668.2 703.57,-1699 1023.37,-1699 1023.37,-1668.2 703.57,-1668.2"/>
<text text-anchor="start" x="710.57" y="-1680.4" font-family="Arial" font-size="14.00">sampleageid </text>
<text text-anchor="start" x="793.85" y="-1680.4" font-family="Arial" font-size="14.00" fill="#666666">[integer]</text>
<polygon fill="none" stroke="black" points="703.57,-1637.4 703.57,-1668.2 1023.37,-1668.2 1023.37,-1637.4 703.57,-1637.4"/>
<text text-anchor="start" x="710.57" y="-1649.6" font-family="Arial" font-size="14.00">sampleid </text>
<text text-anchor="start" x="770.49" y="-1649.6" font-family="Arial" font-size="14.00" fill="#666666">[integer]</text>
<polygon fill="none" stroke="black" points="703.57,-1606.6 703.57,-1637.4 1023.37,-1637.4 1023.37,-1606.6 703.57,-1606.6"/>
<text text-anchor="start" x="710.57" y="-1618.8" font-family="Arial" font-size="14.00">chronologyid </text>
<text text-anchor="start" x="793.85" y="-1618.8" font-family="Arial" font-size="14.00" fill="#666666">[integer]</text>
<polygon fill="none" stroke="black" points="703.57,-1575.8 703.57,-1606.6 1023.37,-1606.6 1023.37,-1575.8 703.57,-1575.8"/>
<text text-anchor="start" x="710.57" y="-1588" font-family="Arial" font-size="14.00">age </text>
<text text-anchor="start" x="737.82" y="-1588" font-family="Arial" font-size="14.00" fill="#666666">[double precision]</text>
<polygon fill="none" stroke="black" points="703.57,-1545 703.57,-1575.8 1023.37,-1575.8 1023.37,-1545 703.57,-1545"/>
<text text-anchor="start" x="710.57" y="-1557.2" font-family="Arial" font-size="14.00">ageyounger </text>
<text text-anchor="start" x="788.42" y="-1557.2" font-family="Arial" font-size="14.00" fill="#666666">[double precision]</text>
<polygon fill="none" stroke="black" points="703.57,-1514.2 703.57,-1545 1023.37,-1545 1023.37,-1514.2 703.57,-1514.2"/>
<text text-anchor="start" x="710.57" y="-1526.4" font-family="Arial" font-size="14.00">ageolder </text>
<text text-anchor="start" x="768.95" y="-1526.4" font-family="Arial" font-size="14.00" fill="#666666">[double precision]</text>
<polygon fill="none" stroke="black" points="703.57,-1483.4 703.57,-1514.2 1023.37,-1514.2 1023.37,-1483.4 703.57,-1483.4"/>
<text text-anchor="start" x="710.57" y="-1495.6" font-family="Arial" font-size="14.00">recdatecreated </text>
<text text-anchor="start" x="807.86" y="-1495.6" font-family="Arial" font-size="14.00" fill="#666666">[timestamp(0) without time zone]</text>
<polygon fill="none" stroke="black" points="703.57,-1452.6 703.57,-1483.4 1023.37,-1483.4 1023.37,-1452.6 703.57,-1452.6"/>
<text text-anchor="start" x="710.57" y="-1464.8" font-family="Arial" font-size="14.00">recdatemodified </text>
<text text-anchor="start" x="814.08" y="-1464.8" font-family="Arial" font-size="14.00" fill="#666666">[timestamp(0) without time zone]</text>
</g>
<!-- ndb.sampleages&#45;&gt;ndb.chronologies -->
<g id="edge5" class="edge">
<title>ndb.sampleages:chronologyid&#45;&gt;ndb.chronologies:chronologyid</title>
<path fill="none" stroke="black" d="M1034.57,-1619.89C1086.26,-1596.85 1058.77,-1391.74 1075.47,-1332.4 1092.31,-1272.56 1064.41,-1202.2 1126.57,-1202.2"/>
<polygon fill="black" stroke="black" points="1034.49,-1619.9 1023.79,-1617.53 1029.27,-1620.99 1025.03,-1621.86 1025.03,-1621.86 1025.03,-1621.86 1029.27,-1620.99 1025.61,-1626.34 1034.49,-1619.9"/>
<text text-anchor="start" x="1031.37" y="-1632" font-family="Arial" font-size="10.00">FOREIGN KEY (chronologyid) REFERENCES ndb.chronologies(chronologyid) ON UPDATE CASCADE ON DELETE CASCADE</text>
</g>
<!-- ndb.accumulationrates -->
<g id="node6" class="node">
<title>ndb.accumulationrates</title>
<polygon fill="#efefef" stroke="none" points="1127.57,-1668.2 1127.57,-1703.8 1447.37,-1703.8 1447.37,-1668.2 1127.57,-1668.2"/>
<polygon fill="none" stroke="black" points="1127.57,-1668.2 1127.57,-1703.8 1447.37,-1703.8 1447.37,-1668.2 1127.57,-1668.2"/>
<text text-anchor="start" x="1144.01" y="-1681.6" font-family="Arial Bold" font-size="18.00">ndb.accumulationrates</text>
<text text-anchor="start" x="1306.45" y="-1681.6" font-family="Arial" font-size="14.00">    </text>
<text text-anchor="start" x="1337.57" y="-1681.6" font-family="Arial" font-size="14.00" fill="#666666">[BASE TABLE]</text>
<polygon fill="none" stroke="black" points="1127.57,-1637.4 1127.57,-1668.2 1447.37,-1668.2 1447.37,-1637.4 1127.57,-1637.4"/>
<text text-anchor="start" x="1134.57" y="-1649.6" font-family="Arial" font-size="14.00">analysisunitid </text>
<text text-anchor="start" x="1222.51" y="-1649.6" font-family="Arial" font-size="14.00" fill="#666666">[integer]</text>
<polygon fill="none" stroke="black" points="1127.57,-1606.6 1127.57,-1637.4 1447.37,-1637.4 1447.37,-1606.6 1127.57,-1606.6"/>
<text text-anchor="start" x="1134.57" y="-1618.8" font-family="Arial" font-size="14.00">chronologyid </text>
<text text-anchor="start" x="1217.85" y="-1618.8" font-family="Arial" font-size="14.00" fill="#666666">[integer]</text>
<polygon fill="none" stroke="black" points="1127.57,-1575.8 1127.57,-1606.6 1447.37,-1606.6 1447.37,-1575.8 1127.57,-1575.8"/>
<text text-anchor="start" x="1134.57" y="-1588" font-family="Arial" font-size="14.00">accumulationrate </text>
<text text-anchor="start" x="1245.08" y="-1588" font-family="Arial" font-size="14.00" fill="#666666">[double precision]</text>
<polygon fill="none" stroke="black" points="1127.57,-1545 1127.57,-1575.8 1447.37,-1575.8 1447.37,-1545 1127.57,-1545"/>
<text text-anchor="start" x="1134.57" y="-1557.2" font-family="Arial" font-size="14.00">variableunitsid </text>
<text text-anchor="start" x="1227.96" y="-1557.2" font-family="Arial" font-size="14.00" fill="#666666">[integer]</text>
<polygon fill="none" stroke="black" points="1127.57,-1514.2 1127.57,-1545 1447.37,-1545 1447.37,-1514.2 1127.57,-1514.2"/>
<text text-anchor="start" x="1134.57" y="-1526.4" font-family="Arial" font-size="14.00">recdatecreated </text>
<text text-anchor="start" x="1231.86" y="-1526.4" font-family="Arial" font-size="14.00" fill="#666666">[timestamp(0) without time zone]</text>
<polygon fill="none" stroke="black" points="1127.57,-1483.4 1127.57,-1514.2 1447.37,-1514.2 1447.37,-1483.4 1127.57,-1483.4"/>
<text text-anchor="start" x="1134.57" y="-1495.6" font-family="Arial" font-size="14.00">recdatemodified </text>
<text text-anchor="start" x="1238.08" y="-1495.6" font-family="Arial" font-size="14.00" fill="#666666">[timestamp(0) without time zone]</text>
</g>
<!-- ndb.accumulationrates&#45;&gt;ndb.chronologies -->
<g id="edge6" class="edge">
<title>ndb.accumulationrates:chronologyid&#45;&gt;ndb.chronologies:chronologyid</title>
<path fill="none" stroke="black" d="M1457.05,-1616.69C1494.81,-1568.1 1491.92,-1202.2 1448.37,-1202.2"/>
<polygon fill="black" stroke="black" points="1457.19,-1616.61 1446.31,-1617.99 1452.64,-1619.39 1448.94,-1621.65 1448.94,-1621.65 1448.94,-1621.65 1452.64,-1619.39 1451.01,-1625.66 1457.19,-1616.61"/>
<text text-anchor="start" x="1274.41" y="-1606" font-family="Arial" font-size="10.00">FOREIGN KEY (chronologyid) REFERENCES ndb.chronologies(chronologyid)</text>
</g>
<!-- ndb.chroncontrols -->
<g id="node7" class="node">
<title>ndb.chroncontrols</title>
<polygon fill="#efefef" stroke="none" points="1551.57,-1776 1551.57,-1811.6 1871.37,-1811.6 1871.37,-1776 1551.57,-1776"/>
<polygon fill="none" stroke="black" points="1551.57,-1776 1551.57,-1811.6 1871.37,-1811.6 1871.37,-1776 1551.57,-1776"/>
<text text-anchor="start" x="1583.99" y="-1789.4" font-family="Arial Bold" font-size="18.00">ndb.chroncontrols</text>
<text text-anchor="start" x="1714.47" y="-1789.4" font-family="Arial" font-size="14.00">    </text>
<text text-anchor="start" x="1745.58" y="-1789.4" font-family="Arial" font-size="14.00" fill="#666666">[BASE TABLE]</text>
<polygon fill="none" stroke="black" points="1551.57,-1745.2 1551.57,-1776 1871.37,-1776 1871.37,-1745.2 1551.57,-1745.2"/>
<text text-anchor="start" x="1558.57" y="-1757.4" font-family="Arial" font-size="14.00">chroncontrolid </text>
<text text-anchor="start" x="1650.4" y="-1757.4" font-family="Arial" font-size="14.00" fill="#666666">[integer]</text>
<polygon fill="none" stroke="black" points="1551.57,-1714.4 1551.57,-1745.2 1871.37,-1745.2 1871.37,-1714.4 1551.57,-1714.4"/>
<text text-anchor="start" x="1558.57" y="-1726.6" font-family="Arial" font-size="14.00">chronologyid </text>
<text text-anchor="start" x="1641.85" y="-1726.6" font-family="Arial" font-size="14.00" fill="#666666">[integer]</text>
<polygon fill="none" stroke="black" points="1551.57,-1683.6 1551.57,-1714.4 1871.37,-1714.4 1871.37,-1683.6 1551.57,-1683.6"/>
<text text-anchor="start" x="1558.57" y="-1695.8" font-family="Arial" font-size="14.00">chroncontroltypeid </text>
<text text-anchor="start" x="1676.86" y="-1695.8" font-family="Arial" font-size="14.00" fill="#666666">[integer]</text>
<polygon fill="none" stroke="black" points="1551.57,-1652.8 1551.57,-1683.6 1871.37,-1683.6 1871.37,-1652.8 1551.57,-1652.8"/>
<text text-anchor="start" x="1558.57" y="-1665" font-family="Arial" font-size="14.00">depth </text>
<text text-anchor="start" x="1597.5" y="-1665" font-family="Arial" font-size="14.00" fill="#666666">[double precision]</text>
<polygon fill="none" stroke="black" points="1551.57,-1622 1551.57,-1652.8 1871.37,-1652.8 1871.37,-1622 1551.57,-1622"/>
<text text-anchor="start" x="1558.57" y="-1634.2" font-family="Arial" font-size="14.00">thickness </text>
<text text-anchor="start" x="1620.82" y="-1634.2" font-family="Arial" font-size="14.00" fill="#666666">[double precision]</text>
<polygon fill="none" stroke="black" points="1551.57,-1591.2 1551.57,-1622 1871.37,-1622 1871.37,-1591.2 1551.57,-1591.2"/>
<text text-anchor="start" x="1558.57" y="-1603.4" font-family="Arial" font-size="14.00">age </text>
<text text-anchor="start" x="1585.82" y="-1603.4" font-family="Arial" font-size="14.00" fill="#666666">[double precision]</text>
<polygon fill="none" stroke="black" points="1551.57,-1560.4 1551.57,-1591.2 1871.37,-1591.2 1871.37,-1560.4 1551.57,-1560.4"/>
<text text-anchor="start" x="1558.57" y="-1572.6" font-family="Arial" font-size="14.00">agelimityounger </text>
<text text-anchor="start" x="1661.3" y="-1572.6" font-family="Arial" font-size="14.00" fill="#666666">[double precision]</text>
<polygon fill="none" stroke="black" points="1551.57,-1529.6 1551.57,-1560.4 1871.37,-1560.4 1871.37,-1529.6 1551.57,-1529.6"/>
<text text-anchor="start" x="1558.57" y="-1541.8" font-family="Arial" font-size="14.00">agelimitolder </text>
<text text-anchor="start" x="1641.84" y="-1541.8" font-family="Arial" font-size="14.00" fill="#666666">[double precision]</text>
<polygon fill="none" stroke="black" points="1551.57,-1498.8 1551.57,-1529.6 1871.37,-1529.6 1871.37,-1498.8 1551.57,-1498.8"/>
<text text-anchor="start" x="1558.57" y="-1511" font-family="Arial" font-size="14.00">notes </text>
<text text-anchor="start" x="1596.71" y="-1511" font-family="Arial" font-size="14.00" fill="#666666">[text]</text>
<polygon fill="none" stroke="black" points="1551.57,-1468 1551.57,-1498.8 1871.37,-1498.8 1871.37,-1468 1551.57,-1468"/>
<text text-anchor="start" x="1558.57" y="-1480.2" font-family="Arial" font-size="14.00">recdatecreated </text>
<text text-anchor="start" x="1655.86" y="-1480.2" font-family="Arial" font-size="14.00" fill="#666666">[timestamp(0) without time zone]</text>
<polygon fill="none" stroke="black" points="1551.57,-1437.2 1551.57,-1468 1871.37,-1468 1871.37,-1437.2 1551.57,-1437.2"/>
<text text-anchor="start" x="1558.57" y="-1449.4" font-family="Arial" font-size="14.00">recdatemodified </text>
<text text-anchor="start" x="1662.08" y="-1449.4" font-family="Arial" font-size="14.00" fill="#666666">[timestamp(0) without time zone]</text>
<polygon fill="none" stroke="black" points="1551.57,-1406.4 1551.57,-1437.2 1871.37,-1437.2 1871.37,-1406.4 1551.57,-1406.4"/>
<text text-anchor="start" x="1558.57" y="-1418.6" font-family="Arial" font-size="14.00">analysisunitid </text>
<text text-anchor="start" x="1646.51" y="-1418.6" font-family="Arial" font-size="14.00" fill="#666666">[integer]</text>
<polygon fill="none" stroke="black" points="1551.57,-1375.6 1551.57,-1406.4 1871.37,-1406.4 1871.37,-1375.6 1551.57,-1375.6"/>
<text text-anchor="start" x="1558.57" y="-1387.8" font-family="Arial" font-size="14.00">agetypeid </text>
<text text-anchor="start" x="1623.18" y="-1387.8" font-family="Arial" font-size="14.00" fill="#666666">[integer]</text>
</g>
<!-- ndb.chroncontrols&#45;&gt;ndb.chronologies -->
<g id="edge7" class="edge">
<title>ndb.chroncontrols:chronologyid&#45;&gt;ndb.chronologies:chronologyid</title>
<path fill="none" stroke="black" d="M1540.36,-1728.27C1466.32,-1704.65 1520.68,-1415.11 1499.47,-1332.4 1484.04,-1272.18 1510.54,-1202.2 1448.37,-1202.2"/>
<polygon fill="black" stroke="black" points="1540.35,-1728.27 1549.58,-1734.2 1545.63,-1729.06 1549.91,-1729.7 1549.91,-1729.7 1549.91,-1729.7 1545.63,-1729.06 1550.91,-1725.3 1540.35,-1728.27"/>
<text text-anchor="start" x="1557.57" y="-1739.8" font-family="Arial" font-size="10.00">FOREIGN KEY (chronologyid) REFERENCES ndb.chronologies(chronologyid) ON UPDATE CASCADE ON DELETE CASCADE</text>
</g>
</g>
</svg>
