<?xml version="1.0" encoding="UTF-8" standalone="no"?>
<!DOCTYPE svg PUBLIC "-//W3C//DTD SVG 1.1//EN"
 "http://www.w3.org/Graphics/SVG/1.1/DTD/svg11.dtd">
<!-- Generated by graphviz version 12.1.2 (20240928.0832)
 -->
<!-- Title: ndb.taphonomicsystemsdatasettypes Pages: 1 -->
<svg width="3638pt" height="688pt"
 viewBox="0.00 0.00 3637.81 688.40" xmlns="http://www.w3.org/2000/svg" xmlns:xlink="http://www.w3.org/1999/xlink">
<g id="graph0" class="graph" transform="scale(1 1) rotate(0) translate(4 684.4)">
<title>ndb.taphonomicsystemsdatasettypes</title>
<polygon fill="white" stroke="none" points="-4,4 -4,-684.4 3633.81,-684.4 3633.81,4 -4,4"/>
<!-- ndb.taphonomicsystemsdatasettypes -->
<g id="node1" class="node">
<title>ndb.taphonomicsystemsdatasettypes</title>
<polygon fill="#efefef" stroke="none" points="2438.44,-540 2438.44,-575.6 2838.38,-575.6 2838.38,-540 2438.44,-540"/>
<polygon fill="none" stroke="black" points="2438.44,-540 2438.44,-575.6 2838.38,-575.6 2838.38,-540 2438.44,-540"/>
<text text-anchor="start" x="2445.44" y="-553.4" font-family="Arial Bold" font-size="18.00">ndb.taphonomicsystemsdatasettypes</text>
<text text-anchor="start" x="2706.89" y="-553.4" font-family="Arial" font-size="14.00">    </text>
<text text-anchor="start" x="2738.01" y="-553.4" font-family="Arial" font-size="14.00" fill="#666666">[BASE TABLE]</text>
<polygon fill="none" stroke="black" points="2438.44,-509.2 2438.44,-540 2838.38,-540 2838.38,-509.2 2438.44,-509.2"/>
<text text-anchor="start" x="2445.44" y="-521.4" font-family="Arial" font-size="14.00">datasettypeid </text>
<text text-anchor="start" x="2532.61" y="-521.4" font-family="Arial" font-size="14.00" fill="#666666">[integer]</text>
<polygon fill="none" stroke="black" points="2438.44,-478.4 2438.44,-509.2 2838.38,-509.2 2838.38,-478.4 2438.44,-478.4"/>
<text text-anchor="start" x="2445.44" y="-490.6" font-family="Arial" font-size="14.00">taphonomicsystemid </text>
<text text-anchor="start" x="2576.94" y="-490.6" font-family="Arial" font-size="14.00" fill="#666666">[integer]</text>
<polygon fill="none" stroke="black" points="2438.44,-447.6 2438.44,-478.4 2838.38,-478.4 2838.38,-447.6 2438.44,-447.6"/>
<text text-anchor="start" x="2445.44" y="-459.8" font-family="Arial" font-size="14.00">recdatecreated </text>
<text text-anchor="start" x="2542.72" y="-459.8" font-family="Arial" font-size="14.00" fill="#666666">[timestamp(0) without time zone]</text>
<polygon fill="none" stroke="black" points="2438.44,-416.8 2438.44,-447.6 2838.38,-447.6 2838.38,-416.8 2438.44,-416.8"/>
<text text-anchor="start" x="2445.44" y="-429" font-family="Arial" font-size="14.00">recdatemodified </text>
<text text-anchor="start" x="2548.94" y="-429" font-family="Arial" font-size="14.00" fill="#666666">[timestamp(0) without time zone]</text>
<polygon fill="none" stroke="black" stroke-width="3" points="2436.94,-415.3 2436.94,-577.1 2839.88,-577.1 2839.88,-415.3 2436.94,-415.3"/>
</g>
<!-- ndb.datasettypes -->
<g id="node2" class="node">
<title>ndb.datasettypes</title>
<polygon fill="#efefef" stroke="none" points="1339.51,-181.8 1339.51,-217.4 1659.31,-217.4 1659.31,-181.8 1339.51,-181.8"/>
<polygon fill="none" stroke="black" points="1339.51,-181.8 1339.51,-217.4 1659.31,-217.4 1659.31,-181.8 1339.51,-181.8"/>
<text text-anchor="start" x="1377.43" y="-195.2" font-family="Arial Bold" font-size="18.00">ndb.datasettypes</text>
<text text-anchor="start" x="1496.9" y="-195.2" font-family="Arial" font-size="14.00">    </text>
<text text-anchor="start" x="1528.02" y="-195.2" font-family="Arial" font-size="14.00" fill="#666666">[BASE TABLE]</text>
<polygon fill="none" stroke="black" points="1339.51,-151 1339.51,-181.8 1659.31,-181.8 1659.31,-151 1339.51,-151"/>
<text text-anchor="start" x="1346.51" y="-163.2" font-family="Arial" font-size="14.00">datasettypeid </text>
<text text-anchor="start" x="1433.68" y="-163.2" font-family="Arial" font-size="14.00" fill="#666666">[integer]</text>
<polygon fill="none" stroke="black" points="1339.51,-120.2 1339.51,-151 1659.31,-151 1659.31,-120.2 1339.51,-120.2"/>
<text text-anchor="start" x="1346.51" y="-132.4" font-family="Arial" font-size="14.00">datasettype </text>
<text text-anchor="start" x="1422.79" y="-132.4" font-family="Arial" font-size="14.00" fill="#666666">[varchar(64)]</text>
<polygon fill="none" stroke="black" points="1339.51,-89.4 1339.51,-120.2 1659.31,-120.2 1659.31,-89.4 1339.51,-89.4"/>
<text text-anchor="start" x="1346.51" y="-101.6" font-family="Arial" font-size="14.00">recdatecreated </text>
<text text-anchor="start" x="1443.79" y="-101.6" font-family="Arial" font-size="14.00" fill="#666666">[timestamp(0) without time zone]</text>
<polygon fill="none" stroke="black" points="1339.51,-58.6 1339.51,-89.4 1659.31,-89.4 1659.31,-58.6 1339.51,-58.6"/>
<text text-anchor="start" x="1346.51" y="-70.8" font-family="Arial" font-size="14.00">recdatemodified </text>
<text text-anchor="start" x="1450.01" y="-70.8" font-family="Arial" font-size="14.00" fill="#666666">[timestamp(0) without time zone]</text>
</g>
<!-- ndb.taphonomicsystemsdatasettypes&#45;&gt;ndb.datasettypes -->
<g id="edge1" class="edge">
<title>ndb.taphonomicsystemsdatasettypes:datasettypeid&#45;&gt;ndb.datasettypes:datasettypeid</title>
<path fill="none" stroke="black" d="M2427.44,-524.01C2348.16,-513.92 2451.43,-376.69 2383.41,-312 2264.63,-199.04 1824.22,-166.4 1660.31,-166.4"/>
<polygon fill="black" stroke="black" points="2427.12,-523.99 2436.84,-529.07 2432.44,-524.31 2436.77,-524.56 2436.77,-524.56 2436.77,-524.56 2432.44,-524.31 2437.37,-520.09 2427.12,-523.99"/>
<text text-anchor="start" x="2444.44" y="-534.6" font-family="Arial" font-size="10.00">FOREIGN KEY (datasettypeid) REFERENCES ndb.datasettypes(datasettypeid) ON UPDATE CASCADE ON DELETE CASCADE</text>
</g>
<!-- ndb.taphonomicsystems -->
<g id="node8" class="node">
<title>ndb.taphonomicsystems</title>
<polygon fill="#efefef" stroke="none" points="2711.51,-197.2 2711.51,-232.8 3031.31,-232.8 3031.31,-197.2 2711.51,-197.2"/>
<polygon fill="none" stroke="black" points="2711.51,-197.2 2711.51,-232.8 3031.31,-232.8 3031.31,-197.2 2711.51,-197.2"/>
<text text-anchor="start" x="2722.42" y="-210.6" font-family="Arial Bold" font-size="18.00">ndb.taphonomicsystems</text>
<text text-anchor="start" x="2895.91" y="-210.6" font-family="Arial" font-size="14.00">    </text>
<text text-anchor="start" x="2927.03" y="-210.6" font-family="Arial" font-size="14.00" fill="#666666">[BASE TABLE]</text>
<polygon fill="none" stroke="black" points="2711.51,-166.4 2711.51,-197.2 3031.31,-197.2 3031.31,-166.4 2711.51,-166.4"/>
<text text-anchor="start" x="2718.51" y="-178.6" font-family="Arial" font-size="14.00">taphonomicsystemid </text>
<text text-anchor="start" x="2850.01" y="-178.6" font-family="Arial" font-size="14.00" fill="#666666">[integer]</text>
<polygon fill="none" stroke="black" points="2711.51,-135.6 2711.51,-166.4 3031.31,-166.4 3031.31,-135.6 2711.51,-135.6"/>
<text text-anchor="start" x="2718.51" y="-147.8" font-family="Arial" font-size="14.00">taphonomicsystem </text>
<text text-anchor="start" x="2839.12" y="-147.8" font-family="Arial" font-size="14.00" fill="#666666">[varchar(64)]</text>
<polygon fill="none" stroke="black" points="2711.51,-104.8 2711.51,-135.6 3031.31,-135.6 3031.31,-104.8 2711.51,-104.8"/>
<text text-anchor="start" x="2718.51" y="-117" font-family="Arial" font-size="14.00">notes </text>
<text text-anchor="start" x="2756.65" y="-117" font-family="Arial" font-size="14.00" fill="#666666">[text]</text>
<polygon fill="none" stroke="black" points="2711.51,-74 2711.51,-104.8 3031.31,-104.8 3031.31,-74 2711.51,-74"/>
<text text-anchor="start" x="2718.51" y="-86.2" font-family="Arial" font-size="14.00">recdatecreated </text>
<text text-anchor="start" x="2815.79" y="-86.2" font-family="Arial" font-size="14.00" fill="#666666">[timestamp(0) without time zone]</text>
<polygon fill="none" stroke="black" points="2711.51,-43.2 2711.51,-74 3031.31,-74 3031.31,-43.2 2711.51,-43.2"/>
<text text-anchor="start" x="2718.51" y="-55.4" font-family="Arial" font-size="14.00">recdatemodified </text>
<text text-anchor="start" x="2822.01" y="-55.4" font-family="Arial" font-size="14.00" fill="#666666">[timestamp(0) without time zone]</text>
</g>
<!-- ndb.taphonomicsystemsdatasettypes&#45;&gt;ndb.taphonomicsystems -->
<g id="edge7" class="edge">
<title>ndb.taphonomicsystemsdatasettypes:taphonomicsystemid&#45;&gt;ndb.taphonomicsystems:taphonomicsystemid</title>
<path fill="none" stroke="black" d="M2849.69,-492.73C2889.81,-483.47 2861.4,-416.01 2838.38,-370.6 2806.58,-307.86 2743.39,-338.7 2711.51,-276 2692.53,-238.68 2668.64,-181.8 2710.51,-181.8"/>
<polygon fill="black" stroke="black" points="2849.66,-492.73 2839.25,-489.29 2844.36,-493.28 2840.05,-493.73 2840.05,-493.73 2840.05,-493.73 2844.36,-493.28 2840.18,-498.24 2849.66,-492.73"/>
<text text-anchor="start" x="2161.08" y="-503.8" font-family="Arial" font-size="10.00">FOREIGN KEY (taphonomicsystemid) REFERENCES ndb.taphonomicsystems(taphonomicsystemid) ON UPDATE CASCADE ON DELETE CASCADE</text>
</g>
<!-- ndb.unitsdatasettypes -->
<g id="node3" class="node">
<title>ndb.unitsdatasettypes</title>
<polygon fill="#efefef" stroke="none" points="269.51,-540 269.51,-575.6 589.31,-575.6 589.31,-540 269.51,-540"/>
<polygon fill="none" stroke="black" points="269.51,-540 269.51,-575.6 589.31,-575.6 589.31,-540 269.51,-540"/>
<text text-anchor="start" x="289.93" y="-553.4" font-family="Arial Bold" font-size="18.00">ndb.unitsdatasettypes</text>
<text text-anchor="start" x="444.4" y="-553.4" font-family="Arial" font-size="14.00">    </text>
<text text-anchor="start" x="475.52" y="-553.4" font-family="Arial" font-size="14.00" fill="#666666">[BASE TABLE]</text>
<polygon fill="none" stroke="black" points="269.51,-509.2 269.51,-540 589.31,-540 589.31,-509.2 269.51,-509.2"/>
<text text-anchor="start" x="276.51" y="-521.4" font-family="Arial" font-size="14.00">datasettypeid </text>
<text text-anchor="start" x="363.68" y="-521.4" font-family="Arial" font-size="14.00" fill="#666666">[integer]</text>
<polygon fill="none" stroke="black" points="269.51,-478.4 269.51,-509.2 589.31,-509.2 589.31,-478.4 269.51,-478.4"/>
<text text-anchor="start" x="276.51" y="-490.6" font-family="Arial" font-size="14.00">variableunitsid </text>
<text text-anchor="start" x="369.9" y="-490.6" font-family="Arial" font-size="14.00" fill="#666666">[integer]</text>
<polygon fill="none" stroke="black" points="269.51,-447.6 269.51,-478.4 589.31,-478.4 589.31,-447.6 269.51,-447.6"/>
<text text-anchor="start" x="276.51" y="-459.8" font-family="Arial" font-size="14.00">recdatecreated </text>
<text text-anchor="start" x="373.79" y="-459.8" font-family="Arial" font-size="14.00" fill="#666666">[timestamp(0) without time zone]</text>
<polygon fill="none" stroke="black" points="269.51,-416.8 269.51,-447.6 589.31,-447.6 589.31,-416.8 269.51,-416.8"/>
<text text-anchor="start" x="276.51" y="-429" font-family="Arial" font-size="14.00">recdatemodified </text>
<text text-anchor="start" x="380.01" y="-429" font-family="Arial" font-size="14.00" fill="#666666">[timestamp(0) without time zone]</text>
</g>
<!-- ndb.unitsdatasettypes&#45;&gt;ndb.datasettypes -->
<g id="edge2" class="edge">
<title>ndb.unitsdatasettypes:datasettypeid&#45;&gt;ndb.datasettypes:datasettypeid</title>
<path fill="none" stroke="black" d="M600.27,-524.01C679.15,-513.95 574.26,-377.17 641.41,-312 754.98,-201.79 1180.26,-166.4 1338.51,-166.4"/>
<polygon fill="black" stroke="black" points="600.63,-523.99 590.38,-520.09 595.3,-524.31 590.98,-524.56 590.98,-524.56 590.98,-524.56 595.3,-524.31 590.91,-529.07 600.63,-523.99"/>
<text text-anchor="start" x="7" y="-534.6" font-family="Arial" font-size="10.00">FOREIGN KEY (datasettypeid) REFERENCES ndb.datasettypes(datasettypeid) ON UPDATE CASCADE ON DELETE CASCADE</text>
</g>
<!-- ndb.datasettaxagrouptypes -->
<g id="node4" class="node">
<title>ndb.datasettaxagrouptypes</title>
<polygon fill="#efefef" stroke="none" points="693.44,-540 693.44,-575.6 1023.38,-575.6 1023.38,-540 693.44,-540"/>
<polygon fill="none" stroke="black" points="693.44,-540 693.44,-575.6 1023.38,-575.6 1023.38,-540 693.44,-540"/>
<text text-anchor="start" x="700.44" y="-553.4" font-family="Arial Bold" font-size="18.00">ndb.datasettaxagrouptypes</text>
<text text-anchor="start" x="891.89" y="-553.4" font-family="Arial" font-size="14.00">    </text>
<text text-anchor="start" x="923" y="-553.4" font-family="Arial" font-size="14.00" fill="#666666">[BASE TABLE]</text>
<polygon fill="none" stroke="black" points="693.44,-509.2 693.44,-540 1023.38,-540 1023.38,-509.2 693.44,-509.2"/>
<text text-anchor="start" x="700.44" y="-521.4" font-family="Arial" font-size="14.00">datasettypeid </text>
<text text-anchor="start" x="787.61" y="-521.4" font-family="Arial" font-size="14.00" fill="#666666">[integer]</text>
<polygon fill="none" stroke="black" points="693.44,-478.4 693.44,-509.2 1023.38,-509.2 1023.38,-478.4 693.44,-478.4"/>
<text text-anchor="start" x="700.44" y="-490.6" font-family="Arial" font-size="14.00">taxagroupid </text>
<text text-anchor="start" x="777.5" y="-490.6" font-family="Arial" font-size="14.00" fill="#666666">[varchar(3)]</text>
<polygon fill="none" stroke="black" points="693.44,-447.6 693.44,-478.4 1023.38,-478.4 1023.38,-447.6 693.44,-447.6"/>
<text text-anchor="start" x="700.44" y="-459.8" font-family="Arial" font-size="14.00">recdatecreated </text>
<text text-anchor="start" x="797.73" y="-459.8" font-family="Arial" font-size="14.00" fill="#666666">[timestamp(0) without time zone]</text>
<polygon fill="none" stroke="black" points="693.44,-416.8 693.44,-447.6 1023.38,-447.6 1023.38,-416.8 693.44,-416.8"/>
<text text-anchor="start" x="700.44" y="-429" font-family="Arial" font-size="14.00">recdatemodified </text>
<text text-anchor="start" x="803.95" y="-429" font-family="Arial" font-size="14.00" fill="#666666">[timestamp(0) without time zone]</text>
</g>
<!-- ndb.datasettaxagrouptypes&#45;&gt;ndb.datasettypes -->
<g id="edge3" class="edge">
<title>ndb.datasettaxagrouptypes:datasettypeid&#45;&gt;ndb.datasettypes:datasettypeid</title>
<path fill="none" stroke="black" d="M1034.38,-524.05C1113.98,-514.64 1018.75,-386.46 1075.41,-312 1156.34,-205.65 1204.86,-166.4 1338.51,-166.4"/>
<polygon fill="black" stroke="black" points="1034.69,-524.03 1024.46,-520.09 1029.37,-524.33 1025.04,-524.56 1025.04,-524.56 1025.04,-524.56 1029.37,-524.33 1024.96,-529.07 1034.69,-524.03"/>
<text text-anchor="start" x="736.22" y="-508.6" font-family="Arial" font-size="10.00">FOREIGN KEY (datasettypeid) REFERENCES ndb.datasettypes(datasettypeid) ON UPDATE CASCADE ON DELETE CASCADE</text>
</g>
<!-- ndb.datasets -->
<g id="node5" class="node">
<title>ndb.datasets</title>
<polygon fill="#efefef" stroke="none" points="1127.51,-601.6 1127.51,-637.2 1447.31,-637.2 1447.31,-601.6 1127.51,-601.6"/>
<polygon fill="none" stroke="black" points="1127.51,-601.6 1127.51,-637.2 1447.31,-637.2 1447.31,-601.6 1127.51,-601.6"/>
<text text-anchor="start" x="1180.92" y="-615" font-family="Arial Bold" font-size="18.00">ndb.datasets</text>
<text text-anchor="start" x="1269.4" y="-615" font-family="Arial" font-size="14.00">    </text>
<text text-anchor="start" x="1300.52" y="-615" font-family="Arial" font-size="14.00" fill="#666666">[BASE TABLE]</text>
<polygon fill="none" stroke="black" points="1127.51,-570.8 1127.51,-601.6 1447.31,-601.6 1447.31,-570.8 1127.51,-570.8"/>
<text text-anchor="start" x="1134.51" y="-583" font-family="Arial" font-size="14.00">datasetid </text>
<text text-anchor="start" x="1195.22" y="-583" font-family="Arial" font-size="14.00" fill="#666666">[integer]</text>
<polygon fill="none" stroke="black" points="1127.51,-540 1127.51,-570.8 1447.31,-570.8 1447.31,-540 1127.51,-540"/>
<text text-anchor="start" x="1134.51" y="-552.2" font-family="Arial" font-size="14.00">collectionunitid </text>
<text text-anchor="start" x="1230.23" y="-552.2" font-family="Arial" font-size="14.00" fill="#666666">[integer]</text>
<polygon fill="none" stroke="black" points="1127.51,-509.2 1127.51,-540 1447.31,-540 1447.31,-509.2 1127.51,-509.2"/>
<text text-anchor="start" x="1134.51" y="-521.4" font-family="Arial" font-size="14.00">datasettypeid </text>
<text text-anchor="start" x="1221.68" y="-521.4" font-family="Arial" font-size="14.00" fill="#666666">[integer]</text>
<polygon fill="none" stroke="black" points="1127.51,-478.4 1127.51,-509.2 1447.31,-509.2 1447.31,-478.4 1127.51,-478.4"/>
<text text-anchor="start" x="1134.51" y="-490.6" font-family="Arial" font-size="14.00">datasetname </text>
<text text-anchor="start" x="1219.34" y="-490.6" font-family="Arial" font-size="14.00" fill="#666666">[varchar(80)]</text>
<polygon fill="none" stroke="black" points="1127.51,-447.6 1127.51,-478.4 1447.31,-478.4 1447.31,-447.6 1127.51,-447.6"/>
<text text-anchor="start" x="1134.51" y="-459.8" font-family="Arial" font-size="14.00">notes </text>
<text text-anchor="start" x="1172.65" y="-459.8" font-family="Arial" font-size="14.00" fill="#666666">[text]</text>
<polygon fill="none" stroke="black" points="1127.51,-416.8 1127.51,-447.6 1447.31,-447.6 1447.31,-416.8 1127.51,-416.8"/>
<text text-anchor="start" x="1134.51" y="-429" font-family="Arial" font-size="14.00">recdatecreated </text>
<text text-anchor="start" x="1231.79" y="-429" font-family="Arial" font-size="14.00" fill="#666666">[timestamp(0) without time zone]</text>
<polygon fill="none" stroke="black" points="1127.51,-386 1127.51,-416.8 1447.31,-416.8 1447.31,-386 1127.51,-386"/>
<text text-anchor="start" x="1134.51" y="-398.2" font-family="Arial" font-size="14.00">recdatemodified </text>
<text text-anchor="start" x="1238.01" y="-398.2" font-family="Arial" font-size="14.00" fill="#666666">[timestamp(0) without time zone]</text>
<polygon fill="none" stroke="black" points="1127.51,-355.2 1127.51,-386 1447.31,-386 1447.31,-355.2 1127.51,-355.2"/>
<text text-anchor="start" x="1134.51" y="-367.4" font-family="Arial" font-size="14.00">embargoid </text>
<text text-anchor="start" x="1204.55" y="-367.4" font-family="Arial" font-size="14.00" fill="#666666">[integer]</text>
</g>
<!-- ndb.datasets&#45;&gt;ndb.datasettypes -->
<g id="edge4" class="edge">
<title>ndb.datasets:datasettypeid&#45;&gt;ndb.datasettypes:datasettypeid</title>
<path fill="none" stroke="black" d="M1458.13,-521.58C1491.96,-498.43 1470.64,-348.78 1447.31,-312 1418.88,-267.18 1368.07,-305.34 1339.51,-260.6 1316.98,-225.31 1296.64,-166.4 1338.51,-166.4"/>
<polygon fill="black" stroke="black" points="1458.19,-521.57 1447.31,-520.2 1453.09,-523.13 1448.95,-524.4 1448.95,-524.4 1448.95,-524.4 1453.09,-523.13 1449.95,-528.8 1458.19,-521.57"/>
<text text-anchor="start" x="1455.31" y="-534.6" font-family="Arial" font-size="10.00">FOREIGN KEY (datasettypeid) REFERENCES ndb.datasettypes(datasettypeid) ON UPDATE CASCADE ON DELETE CASCADE</text>
</g>
<!-- ndb.contextsdatasettypes -->
<g id="node6" class="node">
<title>ndb.contextsdatasettypes</title>
<polygon fill="#efefef" stroke="none" points="1551.51,-540 1551.51,-575.6 1871.31,-575.6 1871.31,-540 1551.51,-540"/>
<polygon fill="none" stroke="black" points="1551.51,-540 1551.51,-575.6 1871.31,-575.6 1871.31,-540 1551.51,-540"/>
<text text-anchor="start" x="1559.44" y="-553.4" font-family="Arial Bold" font-size="18.00">ndb.contextsdatasettypes</text>
<text text-anchor="start" x="1738.89" y="-553.4" font-family="Arial" font-size="14.00">    </text>
<text text-anchor="start" x="1770.01" y="-553.4" font-family="Arial" font-size="14.00" fill="#666666">[BASE TABLE]</text>
<polygon fill="none" stroke="black" points="1551.51,-509.2 1551.51,-540 1871.31,-540 1871.31,-509.2 1551.51,-509.2"/>
<text text-anchor="start" x="1558.51" y="-521.4" font-family="Arial" font-size="14.00">datasettypeid </text>
<text text-anchor="start" x="1645.68" y="-521.4" font-family="Arial" font-size="14.00" fill="#666666">[integer]</text>
<polygon fill="none" stroke="black" points="1551.51,-478.4 1551.51,-509.2 1871.31,-509.2 1871.31,-478.4 1551.51,-478.4"/>
<text text-anchor="start" x="1558.51" y="-490.6" font-family="Arial" font-size="14.00">variablecontextid </text>
<text text-anchor="start" x="1667.46" y="-490.6" font-family="Arial" font-size="14.00" fill="#666666">[integer]</text>
<polygon fill="none" stroke="black" points="1551.51,-447.6 1551.51,-478.4 1871.31,-478.4 1871.31,-447.6 1551.51,-447.6"/>
<text text-anchor="start" x="1558.51" y="-459.8" font-family="Arial" font-size="14.00">recdatecreated </text>
<text text-anchor="start" x="1655.79" y="-459.8" font-family="Arial" font-size="14.00" fill="#666666">[timestamp(0) without time zone]</text>
<polygon fill="none" stroke="black" points="1551.51,-416.8 1551.51,-447.6 1871.31,-447.6 1871.31,-416.8 1551.51,-416.8"/>
<text text-anchor="start" x="1558.51" y="-429" font-family="Arial" font-size="14.00">recdatemodified </text>
<text text-anchor="start" x="1662.01" y="-429" font-family="Arial" font-size="14.00" fill="#666666">[timestamp(0) without time zone]</text>
</g>
<!-- ndb.contextsdatasettypes&#45;&gt;ndb.datasettypes -->
<g id="edge5" class="edge">
<title>ndb.contextsdatasettypes:datasettypeid&#45;&gt;ndb.datasettypes:datasettypeid</title>
<path fill="none" stroke="black" d="M1540.14,-523.77C1488.21,-514.63 1527.78,-432.29 1551.51,-373.6 1577.53,-309.25 1633.16,-324.9 1659.31,-260.6 1675.08,-221.82 1702.18,-166.4 1660.31,-166.4"/>
<polygon fill="black" stroke="black" points="1540.21,-523.77 1549.82,-529.06 1545.53,-524.2 1549.84,-524.55 1549.84,-524.55 1549.84,-524.55 1545.53,-524.2 1550.54,-520.09 1540.21,-523.77"/>
<text text-anchor="start" x="1557.51" y="-508.6" font-family="Arial" font-size="10.00">FOREIGN KEY (datasettypeid) REFERENCES ndb.datasettypes(datasettypeid) ON UPDATE CASCADE ON DELETE CASCADE</text>
</g>
<!-- ndb.elementdatasettaxagroups -->
<g id="node7" class="node">
<title>ndb.elementdatasettaxagroups</title>
<polygon fill="#efefef" stroke="none" points="1975.45,-555.4 1975.45,-591 2331.37,-591 2331.37,-555.4 1975.45,-555.4"/>
<polygon fill="none" stroke="black" points="1975.45,-555.4 1975.45,-591 2331.37,-591 2331.37,-555.4 1975.45,-555.4"/>
<text text-anchor="start" x="1982.45" y="-568.8" font-family="Arial Bold" font-size="18.00">ndb.elementdatasettaxagroups</text>
<text text-anchor="start" x="2199.88" y="-568.8" font-family="Arial" font-size="14.00">    </text>
<text text-anchor="start" x="2230.99" y="-568.8" font-family="Arial" font-size="14.00" fill="#666666">[BASE TABLE]</text>
<polygon fill="none" stroke="black" points="1975.45,-524.6 1975.45,-555.4 2331.37,-555.4 2331.37,-524.6 1975.45,-524.6"/>
<text text-anchor="start" x="1982.45" y="-536.8" font-family="Arial" font-size="14.00">datasettypeid </text>
<text text-anchor="start" x="2069.62" y="-536.8" font-family="Arial" font-size="14.00" fill="#666666">[integer]</text>
<polygon fill="none" stroke="black" points="1975.45,-493.8 1975.45,-524.6 2331.37,-524.6 2331.37,-493.8 1975.45,-493.8"/>
<text text-anchor="start" x="1982.45" y="-506" font-family="Arial" font-size="14.00">taxagroupid </text>
<text text-anchor="start" x="2059.51" y="-506" font-family="Arial" font-size="14.00" fill="#666666">[varchar(3)]</text>
<polygon fill="none" stroke="black" points="1975.45,-463 1975.45,-493.8 2331.37,-493.8 2331.37,-463 1975.45,-463"/>
<text text-anchor="start" x="1982.45" y="-475.2" font-family="Arial" font-size="14.00">elementtypeid </text>
<text text-anchor="start" x="2073.51" y="-475.2" font-family="Arial" font-size="14.00" fill="#666666">[integer]</text>
<polygon fill="none" stroke="black" points="1975.45,-432.2 1975.45,-463 2331.37,-463 2331.37,-432.2 1975.45,-432.2"/>
<text text-anchor="start" x="1982.45" y="-444.4" font-family="Arial" font-size="14.00">recdatecreated </text>
<text text-anchor="start" x="2079.73" y="-444.4" font-family="Arial" font-size="14.00" fill="#666666">[timestamp(0) without time zone]</text>
<polygon fill="none" stroke="black" points="1975.45,-401.4 1975.45,-432.2 2331.37,-432.2 2331.37,-401.4 1975.45,-401.4"/>
<text text-anchor="start" x="1982.45" y="-413.6" font-family="Arial" font-size="14.00">recdatemodified </text>
<text text-anchor="start" x="2085.96" y="-413.6" font-family="Arial" font-size="14.00" fill="#666666">[timestamp(0) without time zone]</text>
</g>
<!-- ndb.elementdatasettaxagroups&#45;&gt;ndb.datasettypes -->
<g id="edge6" class="edge">
<title>ndb.elementdatasettaxagroups:datasettypeid&#45;&gt;ndb.datasettypes:datasettypeid</title>
<path fill="none" stroke="black" d="M1964.03,-539.44C1878.69,-529.61 1983.41,-392.11 1923.41,-312 1843.3,-205.03 1793.95,-166.4 1660.31,-166.4"/>
<polygon fill="black" stroke="black" points="1964.13,-539.45 1973.88,-544.48 1969.46,-539.73 1973.78,-539.96 1973.78,-539.96 1973.78,-539.96 1969.46,-539.73 1974.36,-535.49 1964.13,-539.45"/>
<text text-anchor="start" x="1613.97" y="-550" font-family="Arial" font-size="10.00">FOREIGN KEY (datasettypeid) REFERENCES ndb.datasettypes(datasettypeid)</text>
</g>
<!-- ndb.taphonomictypes -->
<g id="node9" class="node">
<title>ndb.taphonomictypes</title>
<polygon fill="#efefef" stroke="none" points="2945.51,-570.8 2945.51,-606.4 3265.31,-606.4 3265.31,-570.8 2945.51,-570.8"/>
<polygon fill="none" stroke="black" points="2945.51,-570.8 2945.51,-606.4 3265.31,-606.4 3265.31,-570.8 2945.51,-570.8"/>
<text text-anchor="start" x="2965.93" y="-584.2" font-family="Arial Bold" font-size="18.00">ndb.taphonomictypes</text>
<text text-anchor="start" x="3120.4" y="-584.2" font-family="Arial" font-size="14.00">    </text>
<text text-anchor="start" x="3151.52" y="-584.2" font-family="Arial" font-size="14.00" fill="#666666">[BASE TABLE]</text>
<polygon fill="none" stroke="black" points="2945.51,-540 2945.51,-570.8 3265.31,-570.8 3265.31,-540 2945.51,-540"/>
<text text-anchor="start" x="2952.51" y="-552.2" font-family="Arial" font-size="14.00">taphonomictypeid </text>
<text text-anchor="start" x="3066.14" y="-552.2" font-family="Arial" font-size="14.00" fill="#666666">[integer]</text>
<polygon fill="none" stroke="black" points="2945.51,-509.2 2945.51,-540 3265.31,-540 3265.31,-509.2 2945.51,-509.2"/>
<text text-anchor="start" x="2952.51" y="-521.4" font-family="Arial" font-size="14.00">taphonomicsystemid </text>
<text text-anchor="start" x="3084.01" y="-521.4" font-family="Arial" font-size="14.00" fill="#666666">[integer]</text>
<polygon fill="none" stroke="black" points="2945.51,-478.4 2945.51,-509.2 3265.31,-509.2 3265.31,-478.4 2945.51,-478.4"/>
<text text-anchor="start" x="2952.51" y="-490.6" font-family="Arial" font-size="14.00">taphonomictype </text>
<text text-anchor="start" x="3055.24" y="-490.6" font-family="Arial" font-size="14.00" fill="#666666">[varchar(64)]</text>
<polygon fill="none" stroke="black" points="2945.51,-447.6 2945.51,-478.4 3265.31,-478.4 3265.31,-447.6 2945.51,-447.6"/>
<text text-anchor="start" x="2952.51" y="-459.8" font-family="Arial" font-size="14.00">notes </text>
<text text-anchor="start" x="2990.65" y="-459.8" font-family="Arial" font-size="14.00" fill="#666666">[text]</text>
<polygon fill="none" stroke="black" points="2945.51,-416.8 2945.51,-447.6 3265.31,-447.6 3265.31,-416.8 2945.51,-416.8"/>
<text text-anchor="start" x="2952.51" y="-429" font-family="Arial" font-size="14.00">recdatecreated </text>
<text text-anchor="start" x="3049.79" y="-429" font-family="Arial" font-size="14.00" fill="#666666">[timestamp(0) without time zone]</text>
<polygon fill="none" stroke="black" points="2945.51,-386 2945.51,-416.8 3265.31,-416.8 3265.31,-386 2945.51,-386"/>
<text text-anchor="start" x="2952.51" y="-398.2" font-family="Arial" font-size="14.00">recdatemodified </text>
<text text-anchor="start" x="3056.01" y="-398.2" font-family="Arial" font-size="14.00" fill="#666666">[timestamp(0) without time zone]</text>
</g>
<!-- ndb.taphonomictypes&#45;&gt;ndb.taphonomicsystems -->
<g id="edge8" class="edge">
<title>ndb.taphonomictypes:taphonomicsystemid&#45;&gt;ndb.taphonomicsystems:taphonomicsystemid</title>
<path fill="none" stroke="black" d="M2934.38,-523.95C2867.83,-514.85 2911.43,-412.04 2945.51,-342.8 2966.85,-299.44 3009.86,-319.31 3031.31,-276 3049.89,-238.48 3074.18,-181.8 3032.31,-181.8"/>
<polygon fill="black" stroke="black" points="2934.2,-523.94 2943.89,-529.07 2939.52,-524.28 2943.84,-524.56 2943.84,-524.56 2943.84,-524.56 2939.52,-524.28 2944.46,-520.09 2934.2,-523.94"/>
<text text-anchor="start" x="2951.51" y="-508.6" font-family="Arial" font-size="10.00">FOREIGN KEY (taphonomicsystemid) REFERENCES ndb.taphonomicsystems(taphonomicsystemid) ON UPDATE CASCADE ON DELETE CASCADE</text>
</g>
</g>
</svg>
