<?xml version="1.0" encoding="UTF-8" standalone="no"?>
<!DOCTYPE svg PUBLIC "-//W3C//DTD SVG 1.1//EN"
 "http://www.w3.org/Graphics/SVG/1.1/DTD/svg11.dtd">
<!-- Generated by graphviz version 12.1.2 (20240928.0832)
 -->
<!-- Title: ndb.elementtaxagroupportions Pages: 1 -->
<svg width="2727pt" height="1247pt"
 viewBox="0.00 0.00 2726.50 1246.80" xmlns="http://www.w3.org/2000/svg" xmlns:xlink="http://www.w3.org/1999/xlink">
<g id="graph0" class="graph" transform="scale(1 1) rotate(0) translate(4 1242.8)">
<title>ndb.elementtaxagroupportions</title>
<polygon fill="white" stroke="none" points="-4,4 -4,-1242.8 2722.5,-1242.8 2722.5,4 -4,4"/>
<!-- ndb.elementtaxagroupportions -->
<g id="node1" class="node">
<title>ndb.elementtaxagroupportions</title>
<polygon fill="#efefef" stroke="none" points="1267.93,-959.8 1267.93,-995.4 1625.87,-995.4 1625.87,-959.8 1267.93,-959.8"/>
<polygon fill="none" stroke="black" points="1267.93,-959.8 1267.93,-995.4 1625.87,-995.4 1625.87,-959.8 1267.93,-959.8"/>
<text text-anchor="start" x="1274.93" y="-973.2" font-family="Arial Bold" font-size="18.00">ndb.elementtaxagroupportions</text>
<text text-anchor="start" x="1494.38" y="-973.2" font-family="Arial" font-size="14.00">    </text>
<text text-anchor="start" x="1525.49" y="-973.2" font-family="Arial" font-size="14.00" fill="#666666">[BASE TABLE]</text>
<polygon fill="none" stroke="black" points="1267.93,-929 1267.93,-959.8 1625.87,-959.8 1625.87,-929 1267.93,-929"/>
<text text-anchor="start" x="1274.93" y="-941.2" font-family="Arial" font-size="14.00">elementtaxagroupid </text>
<text text-anchor="start" x="1401.79" y="-941.2" font-family="Arial" font-size="14.00" fill="#666666">[integer]</text>
<polygon fill="none" stroke="black" points="1267.93,-898.2 1267.93,-929 1625.87,-929 1625.87,-898.2 1267.93,-898.2"/>
<text text-anchor="start" x="1274.93" y="-910.4" font-family="Arial" font-size="14.00">portionid </text>
<text text-anchor="start" x="1332.52" y="-910.4" font-family="Arial" font-size="14.00" fill="#666666">[integer]</text>
<polygon fill="none" stroke="black" points="1267.93,-867.4 1267.93,-898.2 1625.87,-898.2 1625.87,-867.4 1267.93,-867.4"/>
<text text-anchor="start" x="1274.93" y="-879.6" font-family="Arial" font-size="14.00">recdatecreated </text>
<text text-anchor="start" x="1372.21" y="-879.6" font-family="Arial" font-size="14.00" fill="#666666">[timestamp(0) without time zone]</text>
<polygon fill="none" stroke="black" points="1267.93,-836.6 1267.93,-867.4 1625.87,-867.4 1625.87,-836.6 1267.93,-836.6"/>
<text text-anchor="start" x="1274.93" y="-848.8" font-family="Arial" font-size="14.00">recdatemodified </text>
<text text-anchor="start" x="1378.44" y="-848.8" font-family="Arial" font-size="14.00" fill="#666666">[timestamp(0) without time zone]</text>
<polygon fill="none" stroke="black" stroke-width="3" points="1266.43,-835.1 1266.43,-996.9 1627.37,-996.9 1627.37,-835.1 1266.43,-835.1"/>
</g>
<!-- ndb.elementtaxagroups -->
<g id="node2" class="node">
<title>ndb.elementtaxagroups</title>
<polygon fill="#efefef" stroke="none" points="810,-478.4 810,-514 1129.8,-514 1129.8,-478.4 810,-478.4"/>
<polygon fill="none" stroke="black" points="810,-478.4 810,-514 1129.8,-514 1129.8,-478.4 810,-478.4"/>
<text text-anchor="start" x="823.93" y="-491.8" font-family="Arial Bold" font-size="18.00">ndb.elementtaxagroups</text>
<text text-anchor="start" x="991.38" y="-491.8" font-family="Arial" font-size="14.00">    </text>
<text text-anchor="start" x="1022.5" y="-491.8" font-family="Arial" font-size="14.00" fill="#666666">[BASE TABLE]</text>
<polygon fill="none" stroke="black" points="810,-447.6 810,-478.4 1129.8,-478.4 1129.8,-447.6 810,-447.6"/>
<text text-anchor="start" x="817" y="-459.8" font-family="Arial" font-size="14.00">elementtaxagroupid </text>
<text text-anchor="start" x="943.86" y="-459.8" font-family="Arial" font-size="14.00" fill="#666666">[integer]</text>
<polygon fill="none" stroke="black" points="810,-416.8 810,-447.6 1129.8,-447.6 1129.8,-416.8 810,-416.8"/>
<text text-anchor="start" x="817" y="-429" font-family="Arial" font-size="14.00">taxagroupid </text>
<text text-anchor="start" x="894.05" y="-429" font-family="Arial" font-size="14.00" fill="#666666">[varchar(3)]</text>
<polygon fill="none" stroke="black" points="810,-386 810,-416.8 1129.8,-416.8 1129.8,-386 810,-386"/>
<text text-anchor="start" x="817" y="-398.2" font-family="Arial" font-size="14.00">elementtypeid </text>
<text text-anchor="start" x="908.05" y="-398.2" font-family="Arial" font-size="14.00" fill="#666666">[integer]</text>
<polygon fill="none" stroke="black" points="810,-355.2 810,-386 1129.8,-386 1129.8,-355.2 810,-355.2"/>
<text text-anchor="start" x="817" y="-367.4" font-family="Arial" font-size="14.00">recdatecreated </text>
<text text-anchor="start" x="914.28" y="-367.4" font-family="Arial" font-size="14.00" fill="#666666">[timestamp(0) without time zone]</text>
<polygon fill="none" stroke="black" points="810,-324.4 810,-355.2 1129.8,-355.2 1129.8,-324.4 810,-324.4"/>
<text text-anchor="start" x="817" y="-336.6" font-family="Arial" font-size="14.00">recdatemodified </text>
<text text-anchor="start" x="920.5" y="-336.6" font-family="Arial" font-size="14.00" fill="#666666">[timestamp(0) without time zone]</text>
</g>
<!-- ndb.elementtaxagroupportions&#45;&gt;ndb.elementtaxagroups -->
<g id="edge1" class="edge">
<title>ndb.elementtaxagroupportions:elementtaxagroupid&#45;&gt;ndb.elementtaxagroups:elementtaxagroupid</title>
<path fill="none" stroke="black" d="M1256.67,-942.62C1192.72,-918.86 1239.24,-663.7 1212.9,-593.2 1188.95,-529.12 1199.21,-463 1130.8,-463"/>
<polygon fill="black" stroke="black" points="1256.75,-942.64 1265.83,-948.78 1262.01,-943.55 1266.27,-944.29 1266.27,-944.29 1266.27,-944.29 1262.01,-943.55 1267.37,-939.91 1256.75,-942.64"/>
<text text-anchor="start" x="936.25" y="-928.4" font-family="Arial" font-size="10.00">FOREIGN KEY (elementtaxagroupid) REFERENCES ndb.elementtaxagroups(elementtaxagroupid) ON UPDATE CASCADE ON DELETE CASCADE</text>
</g>
<!-- ndb.elementportions -->
<g id="node7" class="node">
<title>ndb.elementportions</title>
<polygon fill="#efefef" stroke="none" points="1733,-463 1733,-498.6 2052.8,-498.6 2052.8,-463 1733,-463"/>
<polygon fill="none" stroke="black" points="1733,-463 1733,-498.6 2052.8,-498.6 2052.8,-463 1733,-463"/>
<text text-anchor="start" x="1756.92" y="-476.4" font-family="Arial Bold" font-size="18.00">ndb.elementportions</text>
<text text-anchor="start" x="1904.39" y="-476.4" font-family="Arial" font-size="14.00">    </text>
<text text-anchor="start" x="1935.51" y="-476.4" font-family="Arial" font-size="14.00" fill="#666666">[BASE TABLE]</text>
<polygon fill="none" stroke="black" points="1733,-432.2 1733,-463 2052.8,-463 2052.8,-432.2 1733,-432.2"/>
<text text-anchor="start" x="1740" y="-444.4" font-family="Arial" font-size="14.00">portionid </text>
<text text-anchor="start" x="1797.59" y="-444.4" font-family="Arial" font-size="14.00" fill="#666666">[integer]</text>
<polygon fill="none" stroke="black" points="1733,-401.4 1733,-432.2 2052.8,-432.2 2052.8,-401.4 1733,-401.4"/>
<text text-anchor="start" x="1740" y="-413.6" font-family="Arial" font-size="14.00">portion </text>
<text text-anchor="start" x="1786.7" y="-413.6" font-family="Arial" font-size="14.00" fill="#666666">[varchar(48)]</text>
<polygon fill="none" stroke="black" points="1733,-370.6 1733,-401.4 2052.8,-401.4 2052.8,-370.6 1733,-370.6"/>
<text text-anchor="start" x="1740" y="-382.8" font-family="Arial" font-size="14.00">recdatecreated </text>
<text text-anchor="start" x="1837.28" y="-382.8" font-family="Arial" font-size="14.00" fill="#666666">[timestamp(0) without time zone]</text>
<polygon fill="none" stroke="black" points="1733,-339.8 1733,-370.6 2052.8,-370.6 2052.8,-339.8 1733,-339.8"/>
<text text-anchor="start" x="1740" y="-352" font-family="Arial" font-size="14.00">recdatemodified </text>
<text text-anchor="start" x="1843.5" y="-352" font-family="Arial" font-size="14.00" fill="#666666">[timestamp(0) without time zone]</text>
</g>
<!-- ndb.elementtaxagroupportions&#45;&gt;ndb.elementportions -->
<g id="edge6" class="edge">
<title>ndb.elementtaxagroupportions:portionid&#45;&gt;ndb.elementportions:portionid</title>
<path fill="none" stroke="black" d="M1637.02,-912C1725.95,-882.29 1629.47,-447.6 1732,-447.6"/>
<polygon fill="black" stroke="black" points="1637.08,-912 1626.5,-909.1 1631.81,-912.82 1627.53,-913.5 1627.53,-913.5 1627.53,-913.5 1631.81,-912.82 1627.9,-917.99 1637.08,-912"/>
<text text-anchor="start" x="1071.37" y="-897.6" font-family="Arial" font-size="10.00">FOREIGN KEY (portionid) REFERENCES ndb.elementportions(portionid) ON UPDATE CASCADE ON DELETE CASCADE</text>
</g>
<!-- ndb.taxagrouptypes -->
<g id="node5" class="node">
<title>ndb.taxagrouptypes</title>
<polygon fill="#efefef" stroke="none" points="598,-166.4 598,-202 917.8,-202 917.8,-166.4 598,-166.4"/>
<polygon fill="none" stroke="black" points="598,-166.4 598,-202 917.8,-202 917.8,-166.4 598,-166.4"/>
<text text-anchor="start" x="624.92" y="-179.8" font-family="Arial Bold" font-size="18.00">ndb.taxagrouptypes</text>
<text text-anchor="start" x="766.39" y="-179.8" font-family="Arial" font-size="14.00">    </text>
<text text-anchor="start" x="797.51" y="-179.8" font-family="Arial" font-size="14.00" fill="#666666">[BASE TABLE]</text>
<polygon fill="none" stroke="black" points="598,-135.6 598,-166.4 917.8,-166.4 917.8,-135.6 598,-135.6"/>
<text text-anchor="start" x="605" y="-147.8" font-family="Arial" font-size="14.00">taxagroupid </text>
<text text-anchor="start" x="682.05" y="-147.8" font-family="Arial" font-size="14.00" fill="#666666">[varchar(3)]</text>
<polygon fill="none" stroke="black" points="598,-104.8 598,-135.6 917.8,-135.6 917.8,-104.8 598,-104.8"/>
<text text-anchor="start" x="605" y="-117" font-family="Arial" font-size="14.00">taxagroup </text>
<text text-anchor="start" x="671.16" y="-117" font-family="Arial" font-size="14.00" fill="#666666">[varchar(64)]</text>
<polygon fill="none" stroke="black" points="598,-74 598,-104.8 917.8,-104.8 917.8,-74 598,-74"/>
<text text-anchor="start" x="605" y="-86.2" font-family="Arial" font-size="14.00">recdatecreated </text>
<text text-anchor="start" x="702.28" y="-86.2" font-family="Arial" font-size="14.00" fill="#666666">[timestamp(0) without time zone]</text>
<polygon fill="none" stroke="black" points="598,-43.2 598,-74 917.8,-74 917.8,-43.2 598,-43.2"/>
<text text-anchor="start" x="605" y="-55.4" font-family="Arial" font-size="14.00">recdatemodified </text>
<text text-anchor="start" x="708.5" y="-55.4" font-family="Arial" font-size="14.00" fill="#666666">[timestamp(0) without time zone]</text>
</g>
<!-- ndb.elementtaxagroups&#45;&gt;ndb.taxagrouptypes -->
<g id="edge4" class="edge">
<title>ndb.elementtaxagroups:taxagroupid&#45;&gt;ndb.taxagrouptypes:taxagroupid</title>
<path fill="none" stroke="black" d="M798.84,-431.36C745.06,-421.75 772.75,-332.55 810,-281.2 839.66,-240.31 888.06,-286.03 917.8,-245.2 942.45,-211.36 960.67,-151 918.8,-151"/>
<polygon fill="black" stroke="black" points="798.7,-431.34 808.29,-436.66 804.02,-431.79 808.33,-432.14 808.33,-432.14 808.33,-432.14 804.02,-431.79 809.04,-427.69 798.7,-431.34"/>
<text text-anchor="start" x="228.47" y="-442.2" font-family="Arial" font-size="10.00">FOREIGN KEY (taxagroupid) REFERENCES ndb.taxagrouptypes(taxagroupid) ON UPDATE CASCADE ON DELETE CASCADE</text>
</g>
<!-- ndb.elementtypes -->
<g id="node6" class="node">
<title>ndb.elementtypes</title>
<polygon fill="#efefef" stroke="none" points="1022,-166.4 1022,-202 1341.8,-202 1341.8,-166.4 1022,-166.4"/>
<polygon fill="none" stroke="black" points="1022,-166.4 1022,-202 1341.8,-202 1341.8,-166.4 1022,-166.4"/>
<text text-anchor="start" x="1056.42" y="-179.8" font-family="Arial Bold" font-size="18.00">ndb.elementtypes</text>
<text text-anchor="start" x="1182.89" y="-179.8" font-family="Arial" font-size="14.00">    </text>
<text text-anchor="start" x="1214" y="-179.8" font-family="Arial" font-size="14.00" fill="#666666">[BASE TABLE]</text>
<polygon fill="none" stroke="black" points="1022,-135.6 1022,-166.4 1341.8,-166.4 1341.8,-135.6 1022,-135.6"/>
<text text-anchor="start" x="1029" y="-147.8" font-family="Arial" font-size="14.00">elementtypeid </text>
<text text-anchor="start" x="1120.05" y="-147.8" font-family="Arial" font-size="14.00" fill="#666666">[integer]</text>
<polygon fill="none" stroke="black" points="1022,-104.8 1022,-135.6 1341.8,-135.6 1341.8,-104.8 1022,-104.8"/>
<text text-anchor="start" x="1029" y="-117" font-family="Arial" font-size="14.00">elementtype </text>
<text text-anchor="start" x="1109.16" y="-117" font-family="Arial" font-size="14.00" fill="#666666">[varchar(64)]</text>
<polygon fill="none" stroke="black" points="1022,-74 1022,-104.8 1341.8,-104.8 1341.8,-74 1022,-74"/>
<text text-anchor="start" x="1029" y="-86.2" font-family="Arial" font-size="14.00">recdatecreated </text>
<text text-anchor="start" x="1126.28" y="-86.2" font-family="Arial" font-size="14.00" fill="#666666">[timestamp(0) without time zone]</text>
<polygon fill="none" stroke="black" points="1022,-43.2 1022,-74 1341.8,-74 1341.8,-43.2 1022,-43.2"/>
<text text-anchor="start" x="1029" y="-55.4" font-family="Arial" font-size="14.00">recdatemodified </text>
<text text-anchor="start" x="1132.5" y="-55.4" font-family="Arial" font-size="14.00" fill="#666666">[timestamp(0) without time zone]</text>
</g>
<!-- ndb.elementtaxagroups&#45;&gt;ndb.elementtypes -->
<g id="edge5" class="edge">
<title>ndb.elementtaxagroups:elementtypeid&#45;&gt;ndb.elementtypes:elementtypeid</title>
<path fill="none" stroke="black" d="M1140.96,-400.3C1180.94,-390.74 1159,-321.38 1129.8,-281.2 1100.11,-240.34 1051.74,-286.03 1022,-245.2 997.35,-211.36 979.13,-151 1021,-151"/>
<polygon fill="black" stroke="black" points="1141.07,-400.28 1130.65,-396.89 1135.77,-400.86 1131.46,-401.33 1131.46,-401.33 1131.46,-401.33 1135.77,-400.86 1131.62,-405.84 1141.07,-400.28"/>
<text text-anchor="start" x="1137.8" y="-411.4" font-family="Arial" font-size="10.00">FOREIGN KEY (elementtypeid) REFERENCES ndb.elementtypes(elementtypeid) ON UPDATE CASCADE ON DELETE CASCADE</text>
</g>
<!-- ndb.elementtaxagroupmaturities -->
<g id="node3" class="node">
<title>ndb.elementtaxagroupmaturities</title>
<polygon fill="#efefef" stroke="none" points="303.44,-959.8 303.44,-995.4 674.36,-995.4 674.36,-959.8 303.44,-959.8"/>
<polygon fill="none" stroke="black" points="303.44,-959.8 303.44,-995.4 674.36,-995.4 674.36,-959.8 303.44,-959.8"/>
<text text-anchor="start" x="310.44" y="-973.2" font-family="Arial Bold" font-size="18.00">ndb.elementtaxagroupmaturities</text>
<text text-anchor="start" x="542.87" y="-973.2" font-family="Arial" font-size="14.00">    </text>
<text text-anchor="start" x="573.99" y="-973.2" font-family="Arial" font-size="14.00" fill="#666666">[BASE TABLE]</text>
<polygon fill="none" stroke="black" points="303.44,-929 303.44,-959.8 674.36,-959.8 674.36,-929 303.44,-929"/>
<text text-anchor="start" x="310.44" y="-941.2" font-family="Arial" font-size="14.00">elementtaxagroupid </text>
<text text-anchor="start" x="437.3" y="-941.2" font-family="Arial" font-size="14.00" fill="#666666">[integer]</text>
<polygon fill="none" stroke="black" points="303.44,-898.2 303.44,-929 674.36,-929 674.36,-898.2 303.44,-898.2"/>
<text text-anchor="start" x="310.44" y="-910.4" font-family="Arial" font-size="14.00">maturityid </text>
<text text-anchor="start" x="375.01" y="-910.4" font-family="Arial" font-size="14.00" fill="#666666">[integer]</text>
<polygon fill="none" stroke="black" points="303.44,-867.4 303.44,-898.2 674.36,-898.2 674.36,-867.4 303.44,-867.4"/>
<text text-anchor="start" x="310.44" y="-879.6" font-family="Arial" font-size="14.00">recdatecreated </text>
<text text-anchor="start" x="407.72" y="-879.6" font-family="Arial" font-size="14.00" fill="#666666">[timestamp(0) without time zone]</text>
<polygon fill="none" stroke="black" points="303.44,-836.6 303.44,-867.4 674.36,-867.4 674.36,-836.6 303.44,-836.6"/>
<text text-anchor="start" x="310.44" y="-848.8" font-family="Arial" font-size="14.00">recdatemodified </text>
<text text-anchor="start" x="413.94" y="-848.8" font-family="Arial" font-size="14.00" fill="#666666">[timestamp(0) without time zone]</text>
</g>
<!-- ndb.elementtaxagroupmaturities&#45;&gt;ndb.elementtaxagroups -->
<g id="edge2" class="edge">
<title>ndb.elementtaxagroupmaturities:elementtaxagroupid&#45;&gt;ndb.elementtaxagroups:elementtaxagroupid</title>
<path fill="none" stroke="black" d="M685.59,-942.62C749.29,-918.86 700.83,-663.72 726.9,-593.2 750.62,-529.04 740.59,-463 809,-463"/>
<polygon fill="black" stroke="black" points="685.54,-942.63 674.92,-939.91 680.28,-943.54 676.02,-944.29 676.02,-944.29 676.02,-944.29 680.28,-943.54 676.46,-948.78 685.54,-942.63"/>
<text text-anchor="start" x="7" y="-954.4" font-family="Arial" font-size="10.00">FOREIGN KEY (elementtaxagroupid) REFERENCES ndb.elementtaxagroups(elementtaxagroupid) ON UPDATE CASCADE ON DELETE CASCADE</text>
</g>
<!-- ndb.elementtaxagroupsymmetries -->
<g id="node4" class="node">
<title>ndb.elementtaxagroupsymmetries</title>
<polygon fill="#efefef" stroke="none" points="778.94,-959.8 778.94,-995.4 1160.86,-995.4 1160.86,-959.8 778.94,-959.8"/>
<polygon fill="none" stroke="black" points="778.94,-959.8 778.94,-995.4 1160.86,-995.4 1160.86,-959.8 778.94,-959.8"/>
<text text-anchor="start" x="785.94" y="-973.2" font-family="Arial Bold" font-size="18.00">ndb.elementtaxagroupsymmetries</text>
<text text-anchor="start" x="1029.37" y="-973.2" font-family="Arial" font-size="14.00">    </text>
<text text-anchor="start" x="1060.49" y="-973.2" font-family="Arial" font-size="14.00" fill="#666666">[BASE TABLE]</text>
<polygon fill="none" stroke="black" points="778.94,-929 778.94,-959.8 1160.86,-959.8 1160.86,-929 778.94,-929"/>
<text text-anchor="start" x="785.94" y="-941.2" font-family="Arial" font-size="14.00">elementtaxagroupid </text>
<text text-anchor="start" x="912.8" y="-941.2" font-family="Arial" font-size="14.00" fill="#666666">[integer]</text>
<polygon fill="none" stroke="black" points="778.94,-898.2 778.94,-929 1160.86,-929 1160.86,-898.2 778.94,-898.2"/>
<text text-anchor="start" x="785.94" y="-910.4" font-family="Arial" font-size="14.00">symmetryid </text>
<text text-anchor="start" x="861.39" y="-910.4" font-family="Arial" font-size="14.00" fill="#666666">[integer]</text>
<polygon fill="none" stroke="black" points="778.94,-867.4 778.94,-898.2 1160.86,-898.2 1160.86,-867.4 778.94,-867.4"/>
<text text-anchor="start" x="785.94" y="-879.6" font-family="Arial" font-size="14.00">recdatecreated </text>
<text text-anchor="start" x="883.22" y="-879.6" font-family="Arial" font-size="14.00" fill="#666666">[timestamp(0) without time zone]</text>
<polygon fill="none" stroke="black" points="778.94,-836.6 778.94,-867.4 1160.86,-867.4 1160.86,-836.6 778.94,-836.6"/>
<text text-anchor="start" x="785.94" y="-848.8" font-family="Arial" font-size="14.00">recdatemodified </text>
<text text-anchor="start" x="889.44" y="-848.8" font-family="Arial" font-size="14.00" fill="#666666">[timestamp(0) without time zone]</text>
</g>
<!-- ndb.elementtaxagroupsymmetries&#45;&gt;ndb.elementtaxagroups -->
<g id="edge3" class="edge">
<title>ndb.elementtaxagroupsymmetries:elementtaxagroupid&#45;&gt;ndb.elementtaxagroups:elementtaxagroupid</title>
<path fill="none" stroke="black" d="M1170.68,-939.32C1211.62,-887.87 1181.15,-463 1130.8,-463"/>
<polygon fill="black" stroke="black" points="1170.81,-939.24 1159.9,-940.33 1166.19,-941.9 1162.44,-944.07 1162.44,-944.07 1162.44,-944.07 1166.19,-941.9 1164.4,-948.13 1170.81,-939.24"/>
<text text-anchor="start" x="493.5" y="-954.4" font-family="Arial" font-size="10.00">FOREIGN KEY (elementtaxagroupid) REFERENCES ndb.elementtaxagroups(elementtaxagroupid) ON UPDATE CASCADE ON DELETE CASCADE</text>
</g>
<!-- ndb.specimens -->
<g id="node8" class="node">
<title>ndb.specimens</title>
<polygon fill="#efefef" stroke="none" points="1733,-1160 1733,-1195.6 2052.8,-1195.6 2052.8,-1160 1733,-1160"/>
<polygon fill="none" stroke="black" points="1733,-1160 1733,-1195.6 2052.8,-1195.6 2052.8,-1160 1733,-1160"/>
<text text-anchor="start" x="1777.42" y="-1173.4" font-family="Arial Bold" font-size="18.00">ndb.specimens</text>
<text text-anchor="start" x="1883.89" y="-1173.4" font-family="Arial" font-size="14.00">    </text>
<text text-anchor="start" x="1915.01" y="-1173.4" font-family="Arial" font-size="14.00" fill="#666666">[BASE TABLE]</text>
<polygon fill="none" stroke="black" points="1733,-1129.2 1733,-1160 2052.8,-1160 2052.8,-1129.2 1733,-1129.2"/>
<text text-anchor="start" x="1740" y="-1141.4" font-family="Arial" font-size="14.00">specimenid </text>
<text text-anchor="start" x="1814.7" y="-1141.4" font-family="Arial" font-size="14.00" fill="#666666">[integer]</text>
<polygon fill="none" stroke="black" points="1733,-1098.4 1733,-1129.2 2052.8,-1129.2 2052.8,-1098.4 1733,-1098.4"/>
<text text-anchor="start" x="1740" y="-1110.6" font-family="Arial" font-size="14.00">dataid </text>
<text text-anchor="start" x="1782.03" y="-1110.6" font-family="Arial" font-size="14.00" fill="#666666">[integer]</text>
<polygon fill="none" stroke="black" points="1733,-1067.6 1733,-1098.4 2052.8,-1098.4 2052.8,-1067.6 1733,-1067.6"/>
<text text-anchor="start" x="1740" y="-1079.8" font-family="Arial" font-size="14.00">elementtypeid </text>
<text text-anchor="start" x="1831.05" y="-1079.8" font-family="Arial" font-size="14.00" fill="#666666">[integer]</text>
<polygon fill="none" stroke="black" points="1733,-1036.8 1733,-1067.6 2052.8,-1067.6 2052.8,-1036.8 1733,-1036.8"/>
<text text-anchor="start" x="1740" y="-1049" font-family="Arial" font-size="14.00">symmetryid </text>
<text text-anchor="start" x="1815.45" y="-1049" font-family="Arial" font-size="14.00" fill="#666666">[integer]</text>
<polygon fill="none" stroke="black" points="1733,-1006 1733,-1036.8 2052.8,-1036.8 2052.8,-1006 1733,-1006"/>
<text text-anchor="start" x="1740" y="-1018.2" font-family="Arial" font-size="14.00">portionid </text>
<text text-anchor="start" x="1797.59" y="-1018.2" font-family="Arial" font-size="14.00" fill="#666666">[integer]</text>
<polygon fill="none" stroke="black" points="1733,-975.2 1733,-1006 2052.8,-1006 2052.8,-975.2 1733,-975.2"/>
<text text-anchor="start" x="1740" y="-987.4" font-family="Arial" font-size="14.00">maturityid </text>
<text text-anchor="start" x="1804.57" y="-987.4" font-family="Arial" font-size="14.00" fill="#666666">[integer]</text>
<polygon fill="none" stroke="black" points="1733,-944.4 1733,-975.2 2052.8,-975.2 2052.8,-944.4 1733,-944.4"/>
<text text-anchor="start" x="1740" y="-956.6" font-family="Arial" font-size="14.00">sexid </text>
<text text-anchor="start" x="1776.57" y="-956.6" font-family="Arial" font-size="14.00" fill="#666666">[integer]</text>
<polygon fill="none" stroke="black" points="1733,-913.6 1733,-944.4 2052.8,-944.4 2052.8,-913.6 1733,-913.6"/>
<text text-anchor="start" x="1740" y="-925.8" font-family="Arial" font-size="14.00">domesticstatusid </text>
<text text-anchor="start" x="1848.16" y="-925.8" font-family="Arial" font-size="14.00" fill="#666666">[integer]</text>
<polygon fill="none" stroke="black" points="1733,-882.8 1733,-913.6 2052.8,-913.6 2052.8,-882.8 1733,-882.8"/>
<text text-anchor="start" x="1740" y="-895" font-family="Arial" font-size="14.00">preservative </text>
<text text-anchor="start" x="1820.14" y="-895" font-family="Arial" font-size="14.00" fill="#666666">[varchar(256)]</text>
<polygon fill="none" stroke="black" points="1733,-852 1733,-882.8 2052.8,-882.8 2052.8,-852 1733,-852"/>
<text text-anchor="start" x="1740" y="-864.2" font-family="Arial" font-size="14.00">nisp </text>
<text text-anchor="start" x="1769.57" y="-864.2" font-family="Arial" font-size="14.00" fill="#666666">[double precision]</text>
<polygon fill="none" stroke="black" points="1733,-821.2 1733,-852 2052.8,-852 2052.8,-821.2 1733,-821.2"/>
<text text-anchor="start" x="1740" y="-833.4" font-family="Arial" font-size="14.00">repositoryid </text>
<text text-anchor="start" x="1816.25" y="-833.4" font-family="Arial" font-size="14.00" fill="#666666">[integer]</text>
<polygon fill="none" stroke="black" points="1733,-790.4 1733,-821.2 2052.8,-821.2 2052.8,-790.4 1733,-790.4"/>
<text text-anchor="start" x="1740" y="-802.6" font-family="Arial" font-size="14.00">specimennr </text>
<text text-anchor="start" x="1816.25" y="-802.6" font-family="Arial" font-size="14.00" fill="#666666">[varchar(50)]</text>
<polygon fill="none" stroke="black" points="1733,-759.6 1733,-790.4 2052.8,-790.4 2052.8,-759.6 1733,-759.6"/>
<text text-anchor="start" x="1740" y="-771.8" font-family="Arial" font-size="14.00">fieldnr </text>
<text text-anchor="start" x="1782.02" y="-771.8" font-family="Arial" font-size="14.00" fill="#666666">[varchar(50)]</text>
<polygon fill="none" stroke="black" points="1733,-728.8 1733,-759.6 2052.8,-759.6 2052.8,-728.8 1733,-728.8"/>
<text text-anchor="start" x="1740" y="-741" font-family="Arial" font-size="14.00">arctosnr </text>
<text text-anchor="start" x="1794.46" y="-741" font-family="Arial" font-size="14.00" fill="#666666">[varchar(50)]</text>
<polygon fill="none" stroke="black" points="1733,-698 1733,-728.8 2052.8,-728.8 2052.8,-698 1733,-698"/>
<text text-anchor="start" x="1740" y="-710.2" font-family="Arial" font-size="14.00">notes </text>
<text text-anchor="start" x="1778.14" y="-710.2" font-family="Arial" font-size="14.00" fill="#666666">[text]</text>
<polygon fill="none" stroke="black" points="1733,-667.2 1733,-698 2052.8,-698 2052.8,-667.2 1733,-667.2"/>
<text text-anchor="start" x="1740" y="-679.4" font-family="Arial" font-size="14.00">recdatecreated </text>
<text text-anchor="start" x="1837.28" y="-679.4" font-family="Arial" font-size="14.00" fill="#666666">[timestamp(0) without time zone]</text>
<polygon fill="none" stroke="black" points="1733,-636.4 1733,-667.2 2052.8,-667.2 2052.8,-636.4 1733,-636.4"/>
<text text-anchor="start" x="1740" y="-648.6" font-family="Arial" font-size="14.00">recdatemodified </text>
<text text-anchor="start" x="1843.5" y="-648.6" font-family="Arial" font-size="14.00" fill="#666666">[timestamp(0) without time zone]</text>
</g>
<!-- ndb.specimens&#45;&gt;ndb.elementportions -->
<g id="edge7" class="edge">
<title>ndb.specimens:portionid&#45;&gt;ndb.elementportions:portionid</title>
<path fill="none" stroke="black" d="M2063.02,-1017.11C2117.39,-964.6 2114.32,-447.6 2053.8,-447.6"/>
<polygon fill="black" stroke="black" points="2063.17,-1017.04 2052.2,-1017.18 2058.33,-1019.29 2054.41,-1021.12 2054.41,-1021.12 2054.41,-1021.12 2058.33,-1019.29 2056,-1025.34 2063.17,-1017.04"/>
<text text-anchor="start" x="2060.8" y="-1031.4" font-family="Arial" font-size="10.00">FOREIGN KEY (portionid) REFERENCES ndb.elementportions(portionid)</text>
</g>
<!-- ndb.variableelements -->
<g id="node9" class="node">
<title>ndb.variableelements</title>
<polygon fill="#efefef" stroke="none" points="2157,-1021.4 2157,-1057 2476.8,-1057 2476.8,-1021.4 2157,-1021.4"/>
<polygon fill="none" stroke="black" points="2157,-1021.4 2157,-1057 2476.8,-1057 2476.8,-1021.4 2157,-1021.4"/>
<text text-anchor="start" x="2177.94" y="-1034.8" font-family="Arial Bold" font-size="18.00">ndb.variableelements</text>
<text text-anchor="start" x="2331.37" y="-1034.8" font-family="Arial" font-size="14.00">    </text>
<text text-anchor="start" x="2362.49" y="-1034.8" font-family="Arial" font-size="14.00" fill="#666666">[BASE TABLE]</text>
<polygon fill="none" stroke="black" points="2157,-990.6 2157,-1021.4 2476.8,-1021.4 2476.8,-990.6 2157,-990.6"/>
<text text-anchor="start" x="2164" y="-1002.8" font-family="Arial" font-size="14.00">variableelementid </text>
<text text-anchor="start" x="2277.62" y="-1002.8" font-family="Arial" font-size="14.00" fill="#666666">[integer]</text>
<polygon fill="none" stroke="black" points="2157,-959.8 2157,-990.6 2476.8,-990.6 2476.8,-959.8 2157,-959.8"/>
<text text-anchor="start" x="2164" y="-972" font-family="Arial" font-size="14.00">variableelement </text>
<text text-anchor="start" x="2266.72" y="-972" font-family="Arial" font-size="14.00" fill="#666666">[varchar(255)]</text>
<polygon fill="none" stroke="black" points="2157,-929 2157,-959.8 2476.8,-959.8 2476.8,-929 2157,-929"/>
<text text-anchor="start" x="2164" y="-941.2" font-family="Arial" font-size="14.00">elementtypeid </text>
<text text-anchor="start" x="2255.05" y="-941.2" font-family="Arial" font-size="14.00" fill="#666666">[integer]</text>
<polygon fill="none" stroke="black" points="2157,-898.2 2157,-929 2476.8,-929 2476.8,-898.2 2157,-898.2"/>
<text text-anchor="start" x="2164" y="-910.4" font-family="Arial" font-size="14.00">symmetryid </text>
<text text-anchor="start" x="2239.45" y="-910.4" font-family="Arial" font-size="14.00" fill="#666666">[integer]</text>
<polygon fill="none" stroke="black" points="2157,-867.4 2157,-898.2 2476.8,-898.2 2476.8,-867.4 2157,-867.4"/>
<text text-anchor="start" x="2164" y="-879.6" font-family="Arial" font-size="14.00">portionid </text>
<text text-anchor="start" x="2221.59" y="-879.6" font-family="Arial" font-size="14.00" fill="#666666">[integer]</text>
<polygon fill="none" stroke="black" points="2157,-836.6 2157,-867.4 2476.8,-867.4 2476.8,-836.6 2157,-836.6"/>
<text text-anchor="start" x="2164" y="-848.8" font-family="Arial" font-size="14.00">maturityid </text>
<text text-anchor="start" x="2228.57" y="-848.8" font-family="Arial" font-size="14.00" fill="#666666">[integer]</text>
<polygon fill="none" stroke="black" points="2157,-805.8 2157,-836.6 2476.8,-836.6 2476.8,-805.8 2157,-805.8"/>
<text text-anchor="start" x="2164" y="-818" font-family="Arial" font-size="14.00">recdatecreated </text>
<text text-anchor="start" x="2261.28" y="-818" font-family="Arial" font-size="14.00" fill="#666666">[timestamp(0) without time zone]</text>
<polygon fill="none" stroke="black" points="2157,-775 2157,-805.8 2476.8,-805.8 2476.8,-775 2157,-775"/>
<text text-anchor="start" x="2164" y="-787.2" font-family="Arial" font-size="14.00">recdatemodified </text>
<text text-anchor="start" x="2267.5" y="-787.2" font-family="Arial" font-size="14.00" fill="#666666">[timestamp(0) without time zone]</text>
</g>
<!-- ndb.variableelements&#45;&gt;ndb.elementportions -->
<g id="edge8" class="edge">
<title>ndb.variableelements:portionid&#45;&gt;ndb.elementportions:portionid</title>
<path fill="none" stroke="black" d="M2145.79,-880.69C2093.99,-857.68 2120.52,-652.84 2104.9,-593.2 2087.53,-526.86 2122.38,-447.6 2053.8,-447.6"/>
<polygon fill="black" stroke="black" points="2145.88,-880.71 2154.76,-887.14 2151.1,-881.79 2155.34,-882.66 2155.34,-882.66 2155.34,-882.66 2151.1,-881.79 2156.58,-878.33 2145.88,-880.71"/>
<text text-anchor="start" x="2163" y="-892.8" font-family="Arial" font-size="10.00">FOREIGN KEY (portionid) REFERENCES ndb.elementportions(portionid) ON UPDATE CASCADE ON DELETE CASCADE</text>
</g>
</g>
</svg>
