<?xml version="1.0" encoding="UTF-8" standalone="no"?>
<!DOCTYPE svg PUBLIC "-//W3C//DTD SVG 1.1//EN"
 "http://www.w3.org/Graphics/SVG/1.1/DTD/svg11.dtd">
<!-- Generated by graphviz version 12.1.2 (20240928.0832)
 -->
<!-- Title: ndb.isomatanalsubstrate Pages: 1 -->
<svg width="2093pt" height="812pt"
 viewBox="0.00 0.00 2092.89 811.60" xmlns="http://www.w3.org/2000/svg" xmlns:xlink="http://www.w3.org/1999/xlink">
<g id="graph0" class="graph" transform="scale(1 1) rotate(0) translate(4 807.6)">
<title>ndb.isomatanalsubstrate</title>
<polygon fill="white" stroke="none" points="-4,4 -4,-807.6 2088.89,-807.6 2088.89,4 -4,4"/>
<!-- ndb.isomatanalsubstrate -->
<g id="node1" class="node">
<title>ndb.isomatanalsubstrate</title>
<polygon fill="#efefef" stroke="none" points="678,-586.2 678,-621.8 997.8,-621.8 997.8,-586.2 678,-586.2"/>
<polygon fill="none" stroke="black" points="678,-586.2 678,-621.8 997.8,-621.8 997.8,-586.2 678,-586.2"/>
<text text-anchor="start" x="688.92" y="-599.6" font-family="Arial Bold" font-size="18.00">ndb.isomatanalsubstrate</text>
<text text-anchor="start" x="862.38" y="-599.6" font-family="Arial" font-size="14.00">    </text>
<text text-anchor="start" x="893.5" y="-599.6" font-family="Arial" font-size="14.00" fill="#666666">[BASE TABLE]</text>
<polygon fill="none" stroke="black" points="678,-555.4 678,-586.2 997.8,-586.2 997.8,-555.4 678,-555.4"/>
<text text-anchor="start" x="685" y="-567.6" font-family="Arial" font-size="14.00">isomatanaltypeid </text>
<text text-anchor="start" x="793.95" y="-567.6" font-family="Arial" font-size="14.00" fill="#666666">[integer]</text>
<polygon fill="none" stroke="black" points="678,-524.6 678,-555.4 997.8,-555.4 997.8,-524.6 678,-524.6"/>
<text text-anchor="start" x="685" y="-536.8" font-family="Arial" font-size="14.00">isosubstratetypeid </text>
<text text-anchor="start" x="801.73" y="-536.8" font-family="Arial" font-size="14.00" fill="#666666">[integer]</text>
<polygon fill="none" stroke="black" points="678,-493.8 678,-524.6 997.8,-524.6 997.8,-493.8 678,-493.8"/>
<text text-anchor="start" x="685" y="-506" font-family="Arial" font-size="14.00">recdatecreated </text>
<text text-anchor="start" x="782.28" y="-506" font-family="Arial" font-size="14.00" fill="#666666">[timestamp(0) without time zone]</text>
<polygon fill="none" stroke="black" points="678,-463 678,-493.8 997.8,-493.8 997.8,-463 678,-463"/>
<text text-anchor="start" x="685" y="-475.2" font-family="Arial" font-size="14.00">recdatemodified </text>
<text text-anchor="start" x="788.5" y="-475.2" font-family="Arial" font-size="14.00" fill="#666666">[timestamp(0) without time zone]</text>
<polygon fill="none" stroke="black" stroke-width="3" points="676.5,-461.5 676.5,-623.3 999.3,-623.3 999.3,-461.5 676.5,-461.5"/>
</g>
<!-- ndb.isomaterialanalyzedtypes -->
<g id="node2" class="node">
<title>ndb.isomaterialanalyzedtypes</title>
<polygon fill="#efefef" stroke="none" points="658.94,-166.4 658.94,-202 1010.85,-202 1010.85,-166.4 658.94,-166.4"/>
<polygon fill="none" stroke="black" points="658.94,-166.4 658.94,-202 1010.85,-202 1010.85,-166.4 658.94,-166.4"/>
<text text-anchor="start" x="665.94" y="-179.8" font-family="Arial Bold" font-size="18.00">ndb.isomaterialanalyzedtypes</text>
<text text-anchor="start" x="879.37" y="-179.8" font-family="Arial" font-size="14.00">    </text>
<text text-anchor="start" x="910.48" y="-179.8" font-family="Arial" font-size="14.00" fill="#666666">[BASE TABLE]</text>
<polygon fill="none" stroke="black" points="658.94,-135.6 658.94,-166.4 1010.85,-166.4 1010.85,-135.6 658.94,-135.6"/>
<text text-anchor="start" x="665.94" y="-147.8" font-family="Arial" font-size="14.00">isomatanaltypeid </text>
<text text-anchor="start" x="774.89" y="-147.8" font-family="Arial" font-size="14.00" fill="#666666">[integer]</text>
<polygon fill="none" stroke="black" points="658.94,-104.8 658.94,-135.6 1010.85,-135.6 1010.85,-104.8 658.94,-104.8"/>
<text text-anchor="start" x="665.94" y="-117" font-family="Arial" font-size="14.00">isomaterialanalyzedtype </text>
<text text-anchor="start" x="820.02" y="-117" font-family="Arial" font-size="14.00" fill="#666666">[varchar(50)]</text>
<polygon fill="none" stroke="black" points="658.94,-74 658.94,-104.8 1010.85,-104.8 1010.85,-74 658.94,-74"/>
<text text-anchor="start" x="665.94" y="-86.2" font-family="Arial" font-size="14.00">recdatecreated </text>
<text text-anchor="start" x="763.22" y="-86.2" font-family="Arial" font-size="14.00" fill="#666666">[timestamp(0) without time zone]</text>
<polygon fill="none" stroke="black" points="658.94,-43.2 658.94,-74 1010.85,-74 1010.85,-43.2 658.94,-43.2"/>
<text text-anchor="start" x="665.94" y="-55.4" font-family="Arial" font-size="14.00">recdatemodified </text>
<text text-anchor="start" x="769.44" y="-55.4" font-family="Arial" font-size="14.00" fill="#666666">[timestamp(0) without time zone]</text>
</g>
<!-- ndb.isomatanalsubstrate&#45;&gt;ndb.isomaterialanalyzedtypes -->
<g id="edge1" class="edge">
<title>ndb.isomatanalsubstrate:isomatanaltypeid&#45;&gt;ndb.isomaterialanalyzedtypes:isomatanaltypeid</title>
<path fill="none" stroke="black" d="M666.67,-569.96C612.24,-560.45 644.14,-471.94 678,-416.8 765.08,-274.96 923.48,-386.86 1010.85,-245.2 1032.84,-209.56 1053.72,-151 1011.85,-151"/>
<polygon fill="black" stroke="black" points="666.7,-569.97 676.3,-575.26 672.01,-570.4 676.33,-570.75 676.33,-570.75 676.33,-570.75 672.01,-570.4 677.03,-566.29 666.7,-569.97"/>
<text text-anchor="start" x="7" y="-580.8" font-family="Arial" font-size="10.00">FOREIGN KEY (isomatanaltypeid) REFERENCES ndb.isomaterialanalyzedtypes(isomatanaltypeid) ON UPDATE CASCADE ON DELETE CASCADE</text>
</g>
<!-- ndb.isosubstratetypes -->
<g id="node4" class="node">
<title>ndb.isosubstratetypes</title>
<polygon fill="#efefef" stroke="none" points="1115,-166.4 1115,-202 1434.8,-202 1434.8,-166.4 1115,-166.4"/>
<polygon fill="none" stroke="black" points="1115,-166.4 1115,-202 1434.8,-202 1434.8,-166.4 1115,-166.4"/>
<text text-anchor="start" x="1135.41" y="-179.8" font-family="Arial Bold" font-size="18.00">ndb.isosubstratetypes</text>
<text text-anchor="start" x="1289.9" y="-179.8" font-family="Arial" font-size="14.00">    </text>
<text text-anchor="start" x="1321.01" y="-179.8" font-family="Arial" font-size="14.00" fill="#666666">[BASE TABLE]</text>
<polygon fill="none" stroke="black" points="1115,-135.6 1115,-166.4 1434.8,-166.4 1434.8,-135.6 1115,-135.6"/>
<text text-anchor="start" x="1122" y="-147.8" font-family="Arial" font-size="14.00">isosubstratetypeid </text>
<text text-anchor="start" x="1238.73" y="-147.8" font-family="Arial" font-size="14.00" fill="#666666">[integer]</text>
<polygon fill="none" stroke="black" points="1115,-104.8 1115,-135.6 1434.8,-135.6 1434.8,-104.8 1115,-104.8"/>
<text text-anchor="start" x="1122" y="-117" font-family="Arial" font-size="14.00">isosubstratetype </text>
<text text-anchor="start" x="1227.83" y="-117" font-family="Arial" font-size="14.00" fill="#666666">[varchar(50)]</text>
<polygon fill="none" stroke="black" points="1115,-74 1115,-104.8 1434.8,-104.8 1434.8,-74 1115,-74"/>
<text text-anchor="start" x="1122" y="-86.2" font-family="Arial" font-size="14.00">recdatecreated </text>
<text text-anchor="start" x="1219.28" y="-86.2" font-family="Arial" font-size="14.00" fill="#666666">[timestamp(0) without time zone]</text>
<polygon fill="none" stroke="black" points="1115,-43.2 1115,-74 1434.8,-74 1434.8,-43.2 1115,-43.2"/>
<text text-anchor="start" x="1122" y="-55.4" font-family="Arial" font-size="14.00">recdatemodified </text>
<text text-anchor="start" x="1225.5" y="-55.4" font-family="Arial" font-size="14.00" fill="#666666">[timestamp(0) without time zone]</text>
</g>
<!-- ndb.isomatanalsubstrate&#45;&gt;ndb.isosubstratetypes -->
<g id="edge3" class="edge">
<title>ndb.isomatanalsubstrate:isosubstratetypeid&#45;&gt;ndb.isosubstratetypes:isosubstratetypeid</title>
<path fill="none" stroke="black" d="M1008.71,-537.85C1055.89,-516 1041.75,-333.95 1058.9,-281.2 1078.32,-221.44 1051.16,-151 1114,-151"/>
<polygon fill="black" stroke="black" points="1008.9,-537.81 998.17,-535.53 1003.68,-538.94 999.45,-539.86 999.45,-539.86 999.45,-539.86 1003.68,-538.94 1000.08,-544.33 1008.9,-537.81"/>
<text text-anchor="start" x="352.15" y="-550" font-family="Arial" font-size="10.00">FOREIGN KEY (isosubstratetypeid) REFERENCES ndb.isosubstratetypes(isosubstratetypeid) ON UPDATE CASCADE ON DELETE CASCADE</text>
</g>
<!-- ndb.isometadata -->
<g id="node3" class="node">
<title>ndb.isometadata</title>
<polygon fill="#efefef" stroke="none" points="1111,-724.8 1111,-760.4 1430.8,-760.4 1430.8,-724.8 1111,-724.8"/>
<polygon fill="none" stroke="black" points="1111,-724.8 1111,-760.4 1430.8,-760.4 1430.8,-724.8 1111,-724.8"/>
<text text-anchor="start" x="1149.92" y="-738.2" font-family="Arial Bold" font-size="18.00">ndb.isometadata</text>
<text text-anchor="start" x="1267.39" y="-738.2" font-family="Arial" font-size="14.00">    </text>
<text text-anchor="start" x="1298.5" y="-738.2" font-family="Arial" font-size="14.00" fill="#666666">[BASE TABLE]</text>
<polygon fill="none" stroke="black" points="1111,-694 1111,-724.8 1430.8,-724.8 1430.8,-694 1111,-694"/>
<text text-anchor="start" x="1118" y="-706.2" font-family="Arial" font-size="14.00">isometadataid </text>
<text text-anchor="start" x="1209.05" y="-706.2" font-family="Arial" font-size="14.00" fill="#666666">[integer]</text>
<polygon fill="none" stroke="black" points="1111,-663.2 1111,-694 1430.8,-694 1430.8,-663.2 1111,-663.2"/>
<text text-anchor="start" x="1118" y="-675.4" font-family="Arial" font-size="14.00">dataid </text>
<text text-anchor="start" x="1160.03" y="-675.4" font-family="Arial" font-size="14.00" fill="#666666">[integer]</text>
<polygon fill="none" stroke="black" points="1111,-632.4 1111,-663.2 1430.8,-663.2 1430.8,-632.4 1111,-632.4"/>
<text text-anchor="start" x="1118" y="-644.6" font-family="Arial" font-size="14.00">isomatanaltypeid </text>
<text text-anchor="start" x="1226.95" y="-644.6" font-family="Arial" font-size="14.00" fill="#666666">[integer]</text>
<polygon fill="none" stroke="black" points="1111,-601.6 1111,-632.4 1430.8,-632.4 1430.8,-601.6 1111,-601.6"/>
<text text-anchor="start" x="1118" y="-613.8" font-family="Arial" font-size="14.00">isosubstratetypeid </text>
<text text-anchor="start" x="1234.73" y="-613.8" font-family="Arial" font-size="14.00" fill="#666666">[integer]</text>
<polygon fill="none" stroke="black" points="1111,-570.8 1111,-601.6 1430.8,-601.6 1430.8,-570.8 1111,-570.8"/>
<text text-anchor="start" x="1118" y="-583" font-family="Arial" font-size="14.00">analystid </text>
<text text-anchor="start" x="1177.14" y="-583" font-family="Arial" font-size="14.00" fill="#666666">[integer]</text>
<polygon fill="none" stroke="black" points="1111,-540 1111,-570.8 1430.8,-570.8 1430.8,-540 1111,-540"/>
<text text-anchor="start" x="1118" y="-552.2" font-family="Arial" font-size="14.00">lab </text>
<text text-anchor="start" x="1140.57" y="-552.2" font-family="Arial" font-size="14.00" fill="#666666">[varchar(255)]</text>
<polygon fill="none" stroke="black" points="1111,-509.2 1111,-540 1430.8,-540 1430.8,-509.2 1111,-509.2"/>
<text text-anchor="start" x="1118" y="-521.4" font-family="Arial" font-size="14.00">labnumber </text>
<text text-anchor="start" x="1188.04" y="-521.4" font-family="Arial" font-size="14.00" fill="#666666">[varchar(64)]</text>
<polygon fill="none" stroke="black" points="1111,-478.4 1111,-509.2 1430.8,-509.2 1430.8,-478.4 1111,-478.4"/>
<text text-anchor="start" x="1118" y="-490.6" font-family="Arial" font-size="14.00">mass_mg </text>
<text text-anchor="start" x="1182.57" y="-490.6" font-family="Arial" font-size="14.00" fill="#666666">[double precision]</text>
<polygon fill="none" stroke="black" points="1111,-447.6 1111,-478.4 1430.8,-478.4 1430.8,-447.6 1111,-447.6"/>
<text text-anchor="start" x="1118" y="-459.8" font-family="Arial" font-size="14.00">weightpercent </text>
<text text-anchor="start" x="1209.05" y="-459.8" font-family="Arial" font-size="14.00" fill="#666666">[double precision]</text>
<polygon fill="none" stroke="black" points="1111,-416.8 1111,-447.6 1430.8,-447.6 1430.8,-416.8 1111,-416.8"/>
<text text-anchor="start" x="1118" y="-429" font-family="Arial" font-size="14.00">atomicpercent </text>
<text text-anchor="start" x="1209.82" y="-429" font-family="Arial" font-size="14.00" fill="#666666">[double precision]</text>
<polygon fill="none" stroke="black" points="1111,-386 1111,-416.8 1430.8,-416.8 1430.8,-386 1111,-386"/>
<text text-anchor="start" x="1118" y="-398.2" font-family="Arial" font-size="14.00">reps </text>
<text text-anchor="start" x="1149.12" y="-398.2" font-family="Arial" font-size="14.00" fill="#666666">[integer]</text>
<polygon fill="none" stroke="black" points="1111,-355.2 1111,-386 1430.8,-386 1430.8,-355.2 1111,-355.2"/>
<text text-anchor="start" x="1118" y="-367.4" font-family="Arial" font-size="14.00">recdatecreated </text>
<text text-anchor="start" x="1215.28" y="-367.4" font-family="Arial" font-size="14.00" fill="#666666">[timestamp(0) without time zone]</text>
<polygon fill="none" stroke="black" points="1111,-324.4 1111,-355.2 1430.8,-355.2 1430.8,-324.4 1111,-324.4"/>
<text text-anchor="start" x="1118" y="-336.6" font-family="Arial" font-size="14.00">recdatemodified </text>
<text text-anchor="start" x="1221.5" y="-336.6" font-family="Arial" font-size="14.00" fill="#666666">[timestamp(0) without time zone]</text>
</g>
<!-- ndb.isometadata&#45;&gt;ndb.isomaterialanalyzedtypes -->
<g id="edge2" class="edge">
<title>ndb.isometadata:isomatanaltypeid&#45;&gt;ndb.isomaterialanalyzedtypes:isomatanaltypeid</title>
<path fill="none" stroke="black" d="M1099.85,-646.29C1005.4,-616.3 1120.76,-151 1011.85,-151"/>
<polygon fill="black" stroke="black" points="1099.78,-646.27 1109,-652.2 1105.05,-647.06 1109.34,-647.7 1109.34,-647.7 1109.34,-647.7 1105.05,-647.06 1110.33,-643.3 1099.78,-646.27"/>
<text text-anchor="start" x="1117" y="-657.8" font-family="Arial" font-size="10.00">FOREIGN KEY (isomatanaltypeid) REFERENCES ndb.isomaterialanalyzedtypes(isomatanaltypeid) ON DELETE SET NULL</text>
</g>
<!-- ndb.isometadata&#45;&gt;ndb.isosubstratetypes -->
<g id="edge4" class="edge">
<title>ndb.isometadata:isosubstratetypeid&#45;&gt;ndb.isosubstratetypes:isosubstratetypeid</title>
<path fill="none" stroke="black" d="M1442.02,-615.05C1503.84,-590.17 1478.14,-334.09 1430.8,-281.2 1336.58,-175.95 1209.62,-350.09 1115,-245.2 1086.95,-214.11 1072.13,-151 1114,-151"/>
<polygon fill="black" stroke="black" points="1441.95,-615.07 1431.28,-612.52 1436.71,-616.07 1432.45,-616.87 1432.45,-616.87 1432.45,-616.87 1436.71,-616.07 1432.97,-621.36 1441.95,-615.07"/>
<text text-anchor="start" x="1438.8" y="-627" font-family="Arial" font-size="10.00">FOREIGN KEY (isosubstratetypeid) REFERENCES ndb.isosubstratetypes(isosubstratetypeid) ON UPDATE CASCADE ON DELETE SET NULL</text>
</g>
</g>
</svg>
