<?xml version="1.0" encoding="UTF-8" standalone="no"?>
<!DOCTYPE svg PUBLIC "-//W3C//DTD SVG 1.1//EN"
 "http://www.w3.org/Graphics/SVG/1.1/DTD/svg11.dtd">
<!-- Generated by graphviz version 12.1.2 (20240928.0832)
 -->
<!-- Title: ndb.dssampdata Pages: 1 -->
<svg width="305pt" height="228pt"
 viewBox="0.00 0.00 304.56 228.40" xmlns="http://www.w3.org/2000/svg" xmlns:xlink="http://www.w3.org/1999/xlink">
<g id="graph0" class="graph" transform="scale(1 1) rotate(0) translate(4 224.4)">
<title>ndb.dssampdata</title>
<polygon fill="white" stroke="none" points="-4,4 -4,-224.4 300.56,-224.4 300.56,4 -4,4"/>
<!-- ndb.dssampdata -->
<g id="node1" class="node">
<title>ndb.dssampdata</title>
<polygon fill="#efefef" stroke="none" points="46.2,-138.6 46.2,-174.2 250.36,-174.2 250.36,-138.6 46.2,-138.6"/>
<polygon fill="none" stroke="black" points="46.2,-138.6 46.2,-174.2 250.36,-174.2 250.36,-138.6 46.2,-138.6"/>
<text text-anchor="start" x="53.2" y="-152" font-family="Arial Bold" font-size="18.00">ndb.dssampdata</text>
<text text-anchor="start" x="168.68" y="-152" font-family="Arial" font-size="14.00">    </text>
<text text-anchor="start" x="199.8" y="-152" font-family="Arial" font-size="14.00" fill="#666666">[VIEW]</text>
<polygon fill="none" stroke="black" points="46.2,-107.8 46.2,-138.6 250.36,-138.6 250.36,-107.8 46.2,-107.8"/>
<text text-anchor="start" x="53.2" y="-120" font-family="Arial" font-size="14.00">datasetid </text>
<text text-anchor="start" x="113.91" y="-120" font-family="Arial" font-size="14.00" fill="#666666">[integer]</text>
<polygon fill="none" stroke="black" points="46.2,-77 46.2,-107.8 250.36,-107.8 250.36,-77 46.2,-77"/>
<text text-anchor="start" x="53.2" y="-89.2" font-family="Arial" font-size="14.00">samples </text>
<text text-anchor="start" x="109.22" y="-89.2" font-family="Arial" font-size="14.00" fill="#666666">[bigint]</text>
<polygon fill="none" stroke="black" points="46.2,-46.2 46.2,-77 250.36,-77 250.36,-46.2 46.2,-46.2"/>
<text text-anchor="start" x="53.2" y="-58.4" font-family="Arial" font-size="14.00">observations </text>
<text text-anchor="start" x="136.47" y="-58.4" font-family="Arial" font-size="14.00" fill="#666666">[bigint]</text>
<polygon fill="none" stroke="black" stroke-width="3" points="44.7,-44.7 44.7,-175.7 251.86,-175.7 251.86,-44.7 44.7,-44.7"/>
</g>
</g>
</svg>
