<?xml version="1.0" encoding="UTF-8" standalone="no"?>
<!DOCTYPE svg PUBLIC "-//W3C//DTD SVG 1.1//EN"
 "http://www.w3.org/Graphics/SVG/1.1/DTD/svg11.dtd">
<!-- Generated by graphviz version 12.1.2 (20240928.0832)
 -->
<!-- Title: ndb.unitsdatasettypes Pages: 1 -->
<svg width="5783pt" height="658pt"
 viewBox="0.00 0.00 5782.72 657.60" xmlns="http://www.w3.org/2000/svg" xmlns:xlink="http://www.w3.org/1999/xlink">
<g id="graph0" class="graph" transform="scale(1 1) rotate(0) translate(4 653.6)">
<title>ndb.unitsdatasettypes</title>
<polygon fill="white" stroke="none" points="-4,4 -4,-653.6 5778.72,-653.6 5778.72,4 -4,4"/>
<!-- ndb.unitsdatasettypes -->
<g id="node1" class="node">
<title>ndb.unitsdatasettypes</title>
<polygon fill="#efefef" stroke="none" points="2508.44,-509.2 2508.44,-544.8 2828.24,-544.8 2828.24,-509.2 2508.44,-509.2"/>
<polygon fill="none" stroke="black" points="2508.44,-509.2 2508.44,-544.8 2828.24,-544.8 2828.24,-509.2 2508.44,-509.2"/>
<text text-anchor="start" x="2528.86" y="-522.6" font-family="Arial Bold" font-size="18.00">ndb.unitsdatasettypes</text>
<text text-anchor="start" x="2683.34" y="-522.6" font-family="Arial" font-size="14.00">    </text>
<text text-anchor="start" x="2714.45" y="-522.6" font-family="Arial" font-size="14.00" fill="#666666">[BASE TABLE]</text>
<polygon fill="none" stroke="black" points="2508.44,-478.4 2508.44,-509.2 2828.24,-509.2 2828.24,-478.4 2508.44,-478.4"/>
<text text-anchor="start" x="2515.44" y="-490.6" font-family="Arial" font-size="14.00">datasettypeid </text>
<text text-anchor="start" x="2602.61" y="-490.6" font-family="Arial" font-size="14.00" fill="#666666">[integer]</text>
<polygon fill="none" stroke="black" points="2508.44,-447.6 2508.44,-478.4 2828.24,-478.4 2828.24,-447.6 2508.44,-447.6"/>
<text text-anchor="start" x="2515.44" y="-459.8" font-family="Arial" font-size="14.00">variableunitsid </text>
<text text-anchor="start" x="2608.83" y="-459.8" font-family="Arial" font-size="14.00" fill="#666666">[integer]</text>
<polygon fill="none" stroke="black" points="2508.44,-416.8 2508.44,-447.6 2828.24,-447.6 2828.24,-416.8 2508.44,-416.8"/>
<text text-anchor="start" x="2515.44" y="-429" font-family="Arial" font-size="14.00">recdatecreated </text>
<text text-anchor="start" x="2612.73" y="-429" font-family="Arial" font-size="14.00" fill="#666666">[timestamp(0) without time zone]</text>
<polygon fill="none" stroke="black" points="2508.44,-386 2508.44,-416.8 2828.24,-416.8 2828.24,-386 2508.44,-386"/>
<text text-anchor="start" x="2515.44" y="-398.2" font-family="Arial" font-size="14.00">recdatemodified </text>
<text text-anchor="start" x="2618.95" y="-398.2" font-family="Arial" font-size="14.00" fill="#666666">[timestamp(0) without time zone]</text>
<polygon fill="none" stroke="black" stroke-width="3" points="2506.94,-384.5 2506.94,-546.3 2829.74,-546.3 2829.74,-384.5 2506.94,-384.5"/>
</g>
<!-- ndb.datasettypes -->
<g id="node2" class="node">
<title>ndb.datasettypes</title>
<polygon fill="#efefef" stroke="none" points="1338.44,-166.4 1338.44,-202 1658.24,-202 1658.24,-166.4 1338.44,-166.4"/>
<polygon fill="none" stroke="black" points="1338.44,-166.4 1338.44,-202 1658.24,-202 1658.24,-166.4 1338.44,-166.4"/>
<text text-anchor="start" x="1376.36" y="-179.8" font-family="Arial Bold" font-size="18.00">ndb.datasettypes</text>
<text text-anchor="start" x="1495.83" y="-179.8" font-family="Arial" font-size="14.00">    </text>
<text text-anchor="start" x="1526.95" y="-179.8" font-family="Arial" font-size="14.00" fill="#666666">[BASE TABLE]</text>
<polygon fill="none" stroke="black" points="1338.44,-135.6 1338.44,-166.4 1658.24,-166.4 1658.24,-135.6 1338.44,-135.6"/>
<text text-anchor="start" x="1345.44" y="-147.8" font-family="Arial" font-size="14.00">datasettypeid </text>
<text text-anchor="start" x="1432.61" y="-147.8" font-family="Arial" font-size="14.00" fill="#666666">[integer]</text>
<polygon fill="none" stroke="black" points="1338.44,-104.8 1338.44,-135.6 1658.24,-135.6 1658.24,-104.8 1338.44,-104.8"/>
<text text-anchor="start" x="1345.44" y="-117" font-family="Arial" font-size="14.00">datasettype </text>
<text text-anchor="start" x="1421.72" y="-117" font-family="Arial" font-size="14.00" fill="#666666">[varchar(64)]</text>
<polygon fill="none" stroke="black" points="1338.44,-74 1338.44,-104.8 1658.24,-104.8 1658.24,-74 1338.44,-74"/>
<text text-anchor="start" x="1345.44" y="-86.2" font-family="Arial" font-size="14.00">recdatecreated </text>
<text text-anchor="start" x="1442.73" y="-86.2" font-family="Arial" font-size="14.00" fill="#666666">[timestamp(0) without time zone]</text>
<polygon fill="none" stroke="black" points="1338.44,-43.2 1338.44,-74 1658.24,-74 1658.24,-43.2 1338.44,-43.2"/>
<text text-anchor="start" x="1345.44" y="-55.4" font-family="Arial" font-size="14.00">recdatemodified </text>
<text text-anchor="start" x="1448.95" y="-55.4" font-family="Arial" font-size="14.00" fill="#666666">[timestamp(0) without time zone]</text>
</g>
<!-- ndb.unitsdatasettypes&#45;&gt;ndb.datasettypes -->
<g id="edge1" class="edge">
<title>ndb.unitsdatasettypes:datasettypeid&#45;&gt;ndb.datasettypes:datasettypeid</title>
<path fill="none" stroke="black" d="M2497.45,-493.21C2418.24,-483.02 2522.54,-344.65 2453.34,-281.2 2321.54,-160.35 1838.06,-151 1659.24,-151"/>
<polygon fill="black" stroke="black" points="2497.13,-493.19 2506.84,-498.27 2502.45,-493.5 2506.78,-493.76 2506.78,-493.76 2506.78,-493.76 2502.45,-493.5 2507.38,-489.29 2497.13,-493.19"/>
<text text-anchor="start" x="2514.44" y="-503.8" font-family="Arial" font-size="10.00">FOREIGN KEY (datasettypeid) REFERENCES ndb.datasettypes(datasettypeid) ON UPDATE CASCADE ON DELETE CASCADE</text>
</g>
<!-- ndb.variableunits -->
<g id="node8" class="node">
<title>ndb.variableunits</title>
<polygon fill="#efefef" stroke="none" points="4016.44,-166.4 4016.44,-202 4336.24,-202 4336.24,-166.4 4016.44,-166.4"/>
<polygon fill="none" stroke="black" points="4016.44,-166.4 4016.44,-202 4336.24,-202 4336.24,-166.4 4016.44,-166.4"/>
<text text-anchor="start" x="4051.86" y="-179.8" font-family="Arial Bold" font-size="18.00">ndb.variableunits</text>
<text text-anchor="start" x="4176.33" y="-179.8" font-family="Arial" font-size="14.00">    </text>
<text text-anchor="start" x="4207.45" y="-179.8" font-family="Arial" font-size="14.00" fill="#666666">[BASE TABLE]</text>
<polygon fill="none" stroke="black" points="4016.44,-135.6 4016.44,-166.4 4336.24,-166.4 4336.24,-135.6 4016.44,-135.6"/>
<text text-anchor="start" x="4023.44" y="-147.8" font-family="Arial" font-size="14.00">variableunitsid </text>
<text text-anchor="start" x="4116.83" y="-147.8" font-family="Arial" font-size="14.00" fill="#666666">[integer]</text>
<polygon fill="none" stroke="black" points="4016.44,-104.8 4016.44,-135.6 4336.24,-135.6 4336.24,-104.8 4016.44,-104.8"/>
<text text-anchor="start" x="4023.44" y="-117" font-family="Arial" font-size="14.00">variableunits </text>
<text text-anchor="start" x="4105.93" y="-117" font-family="Arial" font-size="14.00" fill="#666666">[varchar(64)]</text>
<polygon fill="none" stroke="black" points="4016.44,-74 4016.44,-104.8 4336.24,-104.8 4336.24,-74 4016.44,-74"/>
<text text-anchor="start" x="4023.44" y="-86.2" font-family="Arial" font-size="14.00">recdatecreated </text>
<text text-anchor="start" x="4120.73" y="-86.2" font-family="Arial" font-size="14.00" fill="#666666">[timestamp(0) without time zone]</text>
<polygon fill="none" stroke="black" points="4016.44,-43.2 4016.44,-74 4336.24,-74 4336.24,-43.2 4016.44,-43.2"/>
<text text-anchor="start" x="4023.44" y="-55.4" font-family="Arial" font-size="14.00">recdatemodified </text>
<text text-anchor="start" x="4126.95" y="-55.4" font-family="Arial" font-size="14.00" fill="#666666">[timestamp(0) without time zone]</text>
</g>
<!-- ndb.unitsdatasettypes&#45;&gt;ndb.variableunits -->
<g id="edge7" class="edge">
<title>ndb.unitsdatasettypes:variableunitsid&#45;&gt;ndb.variableunits:variableunitsid</title>
<path fill="none" stroke="black" d="M2839.55,-462.25C2905.35,-451.68 2821.66,-332.95 2883.34,-281.2 2980.35,-199.82 3888.82,-151 4015.44,-151"/>
<polygon fill="black" stroke="black" points="2839.55,-462.25 2829.25,-458.49 2834.23,-462.63 2829.91,-462.95 2829.91,-462.95 2829.91,-462.95 2834.23,-462.63 2829.9,-467.46 2839.55,-462.25"/>
<text text-anchor="start" x="2536.93" y="-447" font-family="Arial" font-size="10.00">FOREIGN KEY (variableunitsid) REFERENCES ndb.variableunits(variableunitsid) ON UPDATE CASCADE ON DELETE CASCADE</text>
</g>
<!-- ndb.datasettaxagrouptypes -->
<g id="node3" class="node">
<title>ndb.datasettaxagrouptypes</title>
<polygon fill="#efefef" stroke="none" points="259.38,-509.2 259.38,-544.8 589.31,-544.8 589.31,-509.2 259.38,-509.2"/>
<polygon fill="none" stroke="black" points="259.38,-509.2 259.38,-544.8 589.31,-544.8 589.31,-509.2 259.38,-509.2"/>
<text text-anchor="start" x="266.38" y="-522.6" font-family="Arial Bold" font-size="18.00">ndb.datasettaxagrouptypes</text>
<text text-anchor="start" x="457.82" y="-522.6" font-family="Arial" font-size="14.00">    </text>
<text text-anchor="start" x="488.94" y="-522.6" font-family="Arial" font-size="14.00" fill="#666666">[BASE TABLE]</text>
<polygon fill="none" stroke="black" points="259.38,-478.4 259.38,-509.2 589.31,-509.2 589.31,-478.4 259.38,-478.4"/>
<text text-anchor="start" x="266.38" y="-490.6" font-family="Arial" font-size="14.00">datasettypeid </text>
<text text-anchor="start" x="353.55" y="-490.6" font-family="Arial" font-size="14.00" fill="#666666">[integer]</text>
<polygon fill="none" stroke="black" points="259.38,-447.6 259.38,-478.4 589.31,-478.4 589.31,-447.6 259.38,-447.6"/>
<text text-anchor="start" x="266.38" y="-459.8" font-family="Arial" font-size="14.00">taxagroupid </text>
<text text-anchor="start" x="343.43" y="-459.8" font-family="Arial" font-size="14.00" fill="#666666">[varchar(3)]</text>
<polygon fill="none" stroke="black" points="259.38,-416.8 259.38,-447.6 589.31,-447.6 589.31,-416.8 259.38,-416.8"/>
<text text-anchor="start" x="266.38" y="-429" font-family="Arial" font-size="14.00">recdatecreated </text>
<text text-anchor="start" x="363.66" y="-429" font-family="Arial" font-size="14.00" fill="#666666">[timestamp(0) without time zone]</text>
<polygon fill="none" stroke="black" points="259.38,-386 259.38,-416.8 589.31,-416.8 589.31,-386 259.38,-386"/>
<text text-anchor="start" x="266.38" y="-398.2" font-family="Arial" font-size="14.00">recdatemodified </text>
<text text-anchor="start" x="369.88" y="-398.2" font-family="Arial" font-size="14.00" fill="#666666">[timestamp(0) without time zone]</text>
</g>
<!-- ndb.datasettaxagrouptypes&#45;&gt;ndb.datasettypes -->
<g id="edge2" class="edge">
<title>ndb.datasettaxagrouptypes:datasettypeid&#45;&gt;ndb.datasettypes:datasettypeid</title>
<path fill="none" stroke="black" d="M600.26,-493.21C679.09,-483.1 573.53,-345.66 641.34,-281.2 755.4,-172.78 1180.07,-151 1337.44,-151"/>
<polygon fill="black" stroke="black" points="600.62,-493.19 590.38,-489.29 595.3,-493.5 590.98,-493.76 590.98,-493.76 590.98,-493.76 595.3,-493.5 590.91,-498.27 600.62,-493.19"/>
<text text-anchor="start" x="7" y="-503.8" font-family="Arial" font-size="10.00">FOREIGN KEY (datasettypeid) REFERENCES ndb.datasettypes(datasettypeid) ON UPDATE CASCADE ON DELETE CASCADE</text>
</g>
<!-- ndb.datasets -->
<g id="node4" class="node">
<title>ndb.datasets</title>
<polygon fill="#efefef" stroke="none" points="693.44,-570.8 693.44,-606.4 1013.24,-606.4 1013.24,-570.8 693.44,-570.8"/>
<polygon fill="none" stroke="black" points="693.44,-570.8 693.44,-606.4 1013.24,-606.4 1013.24,-570.8 693.44,-570.8"/>
<text text-anchor="start" x="746.86" y="-584.2" font-family="Arial Bold" font-size="18.00">ndb.datasets</text>
<text text-anchor="start" x="835.34" y="-584.2" font-family="Arial" font-size="14.00">    </text>
<text text-anchor="start" x="866.45" y="-584.2" font-family="Arial" font-size="14.00" fill="#666666">[BASE TABLE]</text>
<polygon fill="none" stroke="black" points="693.44,-540 693.44,-570.8 1013.24,-570.8 1013.24,-540 693.44,-540"/>
<text text-anchor="start" x="700.44" y="-552.2" font-family="Arial" font-size="14.00">datasetid </text>
<text text-anchor="start" x="761.15" y="-552.2" font-family="Arial" font-size="14.00" fill="#666666">[integer]</text>
<polygon fill="none" stroke="black" points="693.44,-509.2 693.44,-540 1013.24,-540 1013.24,-509.2 693.44,-509.2"/>
<text text-anchor="start" x="700.44" y="-521.4" font-family="Arial" font-size="14.00">collectionunitid </text>
<text text-anchor="start" x="796.17" y="-521.4" font-family="Arial" font-size="14.00" fill="#666666">[integer]</text>
<polygon fill="none" stroke="black" points="693.44,-478.4 693.44,-509.2 1013.24,-509.2 1013.24,-478.4 693.44,-478.4"/>
<text text-anchor="start" x="700.44" y="-490.6" font-family="Arial" font-size="14.00">datasettypeid </text>
<text text-anchor="start" x="787.61" y="-490.6" font-family="Arial" font-size="14.00" fill="#666666">[integer]</text>
<polygon fill="none" stroke="black" points="693.44,-447.6 693.44,-478.4 1013.24,-478.4 1013.24,-447.6 693.44,-447.6"/>
<text text-anchor="start" x="700.44" y="-459.8" font-family="Arial" font-size="14.00">datasetname </text>
<text text-anchor="start" x="785.28" y="-459.8" font-family="Arial" font-size="14.00" fill="#666666">[varchar(80)]</text>
<polygon fill="none" stroke="black" points="693.44,-416.8 693.44,-447.6 1013.24,-447.6 1013.24,-416.8 693.44,-416.8"/>
<text text-anchor="start" x="700.44" y="-429" font-family="Arial" font-size="14.00">notes </text>
<text text-anchor="start" x="738.58" y="-429" font-family="Arial" font-size="14.00" fill="#666666">[text]</text>
<polygon fill="none" stroke="black" points="693.44,-386 693.44,-416.8 1013.24,-416.8 1013.24,-386 693.44,-386"/>
<text text-anchor="start" x="700.44" y="-398.2" font-family="Arial" font-size="14.00">recdatecreated </text>
<text text-anchor="start" x="797.73" y="-398.2" font-family="Arial" font-size="14.00" fill="#666666">[timestamp(0) without time zone]</text>
<polygon fill="none" stroke="black" points="693.44,-355.2 693.44,-386 1013.24,-386 1013.24,-355.2 693.44,-355.2"/>
<text text-anchor="start" x="700.44" y="-367.4" font-family="Arial" font-size="14.00">recdatemodified </text>
<text text-anchor="start" x="803.95" y="-367.4" font-family="Arial" font-size="14.00" fill="#666666">[timestamp(0) without time zone]</text>
<polygon fill="none" stroke="black" points="693.44,-324.4 693.44,-355.2 1013.24,-355.2 1013.24,-324.4 693.44,-324.4"/>
<text text-anchor="start" x="700.44" y="-336.6" font-family="Arial" font-size="14.00">embargoid </text>
<text text-anchor="start" x="770.48" y="-336.6" font-family="Arial" font-size="14.00" fill="#666666">[integer]</text>
</g>
<!-- ndb.datasets&#45;&gt;ndb.datasettypes -->
<g id="edge3" class="edge">
<title>ndb.datasets:datasettypeid&#45;&gt;ndb.datasettypes:datasettypeid</title>
<path fill="none" stroke="black" d="M1024.24,-493.24C1103.7,-483.71 1006.49,-353.95 1065.34,-281.2 1149.66,-176.97 1203.38,-151 1337.44,-151"/>
<polygon fill="black" stroke="black" points="1024.56,-493.23 1014.33,-489.29 1019.23,-493.52 1014.91,-493.76 1014.91,-493.76 1014.91,-493.76 1019.23,-493.52 1014.83,-498.27 1024.56,-493.23"/>
<text text-anchor="start" x="726.09" y="-477.8" font-family="Arial" font-size="10.00">FOREIGN KEY (datasettypeid) REFERENCES ndb.datasettypes(datasettypeid) ON UPDATE CASCADE ON DELETE CASCADE</text>
</g>
<!-- ndb.contextsdatasettypes -->
<g id="node5" class="node">
<title>ndb.contextsdatasettypes</title>
<polygon fill="#efefef" stroke="none" points="1117.44,-509.2 1117.44,-544.8 1437.24,-544.8 1437.24,-509.2 1117.44,-509.2"/>
<polygon fill="none" stroke="black" points="1117.44,-509.2 1117.44,-544.8 1437.24,-544.8 1437.24,-509.2 1117.44,-509.2"/>
<text text-anchor="start" x="1125.37" y="-522.6" font-family="Arial Bold" font-size="18.00">ndb.contextsdatasettypes</text>
<text text-anchor="start" x="1304.83" y="-522.6" font-family="Arial" font-size="14.00">    </text>
<text text-anchor="start" x="1335.94" y="-522.6" font-family="Arial" font-size="14.00" fill="#666666">[BASE TABLE]</text>
<polygon fill="none" stroke="black" points="1117.44,-478.4 1117.44,-509.2 1437.24,-509.2 1437.24,-478.4 1117.44,-478.4"/>
<text text-anchor="start" x="1124.44" y="-490.6" font-family="Arial" font-size="14.00">datasettypeid </text>
<text text-anchor="start" x="1211.61" y="-490.6" font-family="Arial" font-size="14.00" fill="#666666">[integer]</text>
<polygon fill="none" stroke="black" points="1117.44,-447.6 1117.44,-478.4 1437.24,-478.4 1437.24,-447.6 1117.44,-447.6"/>
<text text-anchor="start" x="1124.44" y="-459.8" font-family="Arial" font-size="14.00">variablecontextid </text>
<text text-anchor="start" x="1233.39" y="-459.8" font-family="Arial" font-size="14.00" fill="#666666">[integer]</text>
<polygon fill="none" stroke="black" points="1117.44,-416.8 1117.44,-447.6 1437.24,-447.6 1437.24,-416.8 1117.44,-416.8"/>
<text text-anchor="start" x="1124.44" y="-429" font-family="Arial" font-size="14.00">recdatecreated </text>
<text text-anchor="start" x="1221.73" y="-429" font-family="Arial" font-size="14.00" fill="#666666">[timestamp(0) without time zone]</text>
<polygon fill="none" stroke="black" points="1117.44,-386 1117.44,-416.8 1437.24,-416.8 1437.24,-386 1117.44,-386"/>
<text text-anchor="start" x="1124.44" y="-398.2" font-family="Arial" font-size="14.00">recdatemodified </text>
<text text-anchor="start" x="1227.95" y="-398.2" font-family="Arial" font-size="14.00" fill="#666666">[timestamp(0) without time zone]</text>
</g>
<!-- ndb.contextsdatasettypes&#45;&gt;ndb.datasettypes -->
<g id="edge4" class="edge">
<title>ndb.contextsdatasettypes:datasettypeid&#45;&gt;ndb.datasettypes:datasettypeid</title>
<path fill="none" stroke="black" d="M1448.62,-492.96C1500.64,-483.79 1461.84,-401.14 1437.24,-342.8 1413.26,-285.93 1362.54,-302.03 1338.44,-245.2 1322.1,-206.65 1295.57,-151 1337.44,-151"/>
<polygon fill="black" stroke="black" points="1448.54,-492.97 1438.21,-489.29 1443.23,-493.4 1438.91,-493.75 1438.91,-493.75 1438.91,-493.75 1443.23,-493.4 1438.94,-498.26 1448.54,-492.97"/>
<text text-anchor="start" x="1445.24" y="-503.8" font-family="Arial" font-size="10.00">FOREIGN KEY (datasettypeid) REFERENCES ndb.datasettypes(datasettypeid) ON UPDATE CASCADE ON DELETE CASCADE</text>
</g>
<!-- ndb.elementdatasettaxagroups -->
<g id="node6" class="node">
<title>ndb.elementdatasettaxagroups</title>
<polygon fill="#efefef" stroke="none" points="1541.39,-524.6 1541.39,-560.2 1897.3,-560.2 1897.3,-524.6 1541.39,-524.6"/>
<polygon fill="none" stroke="black" points="1541.39,-524.6 1541.39,-560.2 1897.3,-560.2 1897.3,-524.6 1541.39,-524.6"/>
<text text-anchor="start" x="1548.39" y="-538" font-family="Arial Bold" font-size="18.00">ndb.elementdatasettaxagroups</text>
<text text-anchor="start" x="1765.81" y="-538" font-family="Arial" font-size="14.00">    </text>
<text text-anchor="start" x="1796.93" y="-538" font-family="Arial" font-size="14.00" fill="#666666">[BASE TABLE]</text>
<polygon fill="none" stroke="black" points="1541.39,-493.8 1541.39,-524.6 1897.3,-524.6 1897.3,-493.8 1541.39,-493.8"/>
<text text-anchor="start" x="1548.39" y="-506" font-family="Arial" font-size="14.00">datasettypeid </text>
<text text-anchor="start" x="1635.56" y="-506" font-family="Arial" font-size="14.00" fill="#666666">[integer]</text>
<polygon fill="none" stroke="black" points="1541.39,-463 1541.39,-493.8 1897.3,-493.8 1897.3,-463 1541.39,-463"/>
<text text-anchor="start" x="1548.39" y="-475.2" font-family="Arial" font-size="14.00">taxagroupid </text>
<text text-anchor="start" x="1625.44" y="-475.2" font-family="Arial" font-size="14.00" fill="#666666">[varchar(3)]</text>
<polygon fill="none" stroke="black" points="1541.39,-432.2 1541.39,-463 1897.3,-463 1897.3,-432.2 1541.39,-432.2"/>
<text text-anchor="start" x="1548.39" y="-444.4" font-family="Arial" font-size="14.00">elementtypeid </text>
<text text-anchor="start" x="1639.44" y="-444.4" font-family="Arial" font-size="14.00" fill="#666666">[integer]</text>
<polygon fill="none" stroke="black" points="1541.39,-401.4 1541.39,-432.2 1897.3,-432.2 1897.3,-401.4 1541.39,-401.4"/>
<text text-anchor="start" x="1548.39" y="-413.6" font-family="Arial" font-size="14.00">recdatecreated </text>
<text text-anchor="start" x="1645.67" y="-413.6" font-family="Arial" font-size="14.00" fill="#666666">[timestamp(0) without time zone]</text>
<polygon fill="none" stroke="black" points="1541.39,-370.6 1541.39,-401.4 1897.3,-401.4 1897.3,-370.6 1541.39,-370.6"/>
<text text-anchor="start" x="1548.39" y="-382.8" font-family="Arial" font-size="14.00">recdatemodified </text>
<text text-anchor="start" x="1651.89" y="-382.8" font-family="Arial" font-size="14.00" fill="#666666">[timestamp(0) without time zone]</text>
</g>
<!-- ndb.elementdatasettaxagroups&#45;&gt;ndb.datasettypes -->
<g id="edge5" class="edge">
<title>ndb.elementdatasettaxagroups:datasettypeid&#45;&gt;ndb.datasettypes:datasettypeid</title>
<path fill="none" stroke="black" d="M1530.24,-508.55C1463.56,-499.38 1505.64,-395.79 1541.39,-327.4 1570.8,-271.13 1628.68,-301.4 1658.24,-245.2 1677.73,-208.14 1701.11,-151 1659.24,-151"/>
<polygon fill="black" stroke="black" points="1530.07,-508.54 1539.76,-513.67 1535.4,-508.88 1539.72,-509.16 1539.72,-509.16 1539.72,-509.16 1535.4,-508.88 1540.34,-504.69 1530.07,-508.54"/>
<text text-anchor="start" x="1547.39" y="-519.2" font-family="Arial" font-size="10.00">FOREIGN KEY (datasettypeid) REFERENCES ndb.datasettypes(datasettypeid)</text>
</g>
<!-- ndb.taphonomicsystemsdatasettypes -->
<g id="node7" class="node">
<title>ndb.taphonomicsystemsdatasettypes</title>
<polygon fill="#efefef" stroke="none" points="2001.37,-509.2 2001.37,-544.8 2401.32,-544.8 2401.32,-509.2 2001.37,-509.2"/>
<polygon fill="none" stroke="black" points="2001.37,-509.2 2001.37,-544.8 2401.32,-544.8 2401.32,-509.2 2001.37,-509.2"/>
<text text-anchor="start" x="2008.37" y="-522.6" font-family="Arial Bold" font-size="18.00">ndb.taphonomicsystemsdatasettypes</text>
<text text-anchor="start" x="2269.83" y="-522.6" font-family="Arial" font-size="14.00">    </text>
<text text-anchor="start" x="2300.94" y="-522.6" font-family="Arial" font-size="14.00" fill="#666666">[BASE TABLE]</text>
<polygon fill="none" stroke="black" points="2001.37,-478.4 2001.37,-509.2 2401.32,-509.2 2401.32,-478.4 2001.37,-478.4"/>
<text text-anchor="start" x="2008.37" y="-490.6" font-family="Arial" font-size="14.00">datasettypeid </text>
<text text-anchor="start" x="2095.54" y="-490.6" font-family="Arial" font-size="14.00" fill="#666666">[integer]</text>
<polygon fill="none" stroke="black" points="2001.37,-447.6 2001.37,-478.4 2401.32,-478.4 2401.32,-447.6 2001.37,-447.6"/>
<text text-anchor="start" x="2008.37" y="-459.8" font-family="Arial" font-size="14.00">taphonomicsystemid </text>
<text text-anchor="start" x="2139.87" y="-459.8" font-family="Arial" font-size="14.00" fill="#666666">[integer]</text>
<polygon fill="none" stroke="black" points="2001.37,-416.8 2001.37,-447.6 2401.32,-447.6 2401.32,-416.8 2001.37,-416.8"/>
<text text-anchor="start" x="2008.37" y="-429" font-family="Arial" font-size="14.00">recdatecreated </text>
<text text-anchor="start" x="2105.65" y="-429" font-family="Arial" font-size="14.00" fill="#666666">[timestamp(0) without time zone]</text>
<polygon fill="none" stroke="black" points="2001.37,-386 2001.37,-416.8 2401.32,-416.8 2401.32,-386 2001.37,-386"/>
<text text-anchor="start" x="2008.37" y="-398.2" font-family="Arial" font-size="14.00">recdatemodified </text>
<text text-anchor="start" x="2111.87" y="-398.2" font-family="Arial" font-size="14.00" fill="#666666">[timestamp(0) without time zone]</text>
</g>
<!-- ndb.taphonomicsystemsdatasettypes&#45;&gt;ndb.datasettypes -->
<g id="edge6" class="edge">
<title>ndb.taphonomicsystemsdatasettypes:datasettypeid&#45;&gt;ndb.datasettypes:datasettypeid</title>
<path fill="none" stroke="black" d="M1990.38,-493.24C1910.99,-483.66 2009.06,-353.23 1949.34,-281.2 1859.14,-172.41 1800.57,-151 1659.24,-151"/>
<polygon fill="black" stroke="black" points="1990.05,-493.22 1999.78,-498.27 1995.38,-493.52 1999.7,-493.76 1999.7,-493.76 1999.7,-493.76 1995.38,-493.52 2000.29,-489.29 1990.05,-493.22"/>
<text text-anchor="start" x="1564.64" y="-477.8" font-family="Arial" font-size="10.00">FOREIGN KEY (datasettypeid) REFERENCES ndb.datasettypes(datasettypeid) ON UPDATE CASCADE ON DELETE CASCADE</text>
</g>
<!-- ndb.variables -->
<g id="node9" class="node">
<title>ndb.variables</title>
<polygon fill="#efefef" stroke="none" points="2935.44,-555.4 2935.44,-591 3255.24,-591 3255.24,-555.4 2935.44,-555.4"/>
<polygon fill="none" stroke="black" points="2935.44,-555.4 2935.44,-591 3255.24,-591 3255.24,-555.4 2935.44,-555.4"/>
<text text-anchor="start" x="2984.86" y="-568.8" font-family="Arial Bold" font-size="18.00">ndb.variables</text>
<text text-anchor="start" x="3081.33" y="-568.8" font-family="Arial" font-size="14.00">    </text>
<text text-anchor="start" x="3112.45" y="-568.8" font-family="Arial" font-size="14.00" fill="#666666">[BASE TABLE]</text>
<polygon fill="none" stroke="black" points="2935.44,-524.6 2935.44,-555.4 3255.24,-555.4 3255.24,-524.6 2935.44,-524.6"/>
<text text-anchor="start" x="2942.44" y="-536.8" font-family="Arial" font-size="14.00">variableid </text>
<text text-anchor="start" x="3006.26" y="-536.8" font-family="Arial" font-size="14.00" fill="#666666">[integer]</text>
<polygon fill="none" stroke="black" points="2935.44,-493.8 2935.44,-524.6 3255.24,-524.6 3255.24,-493.8 2935.44,-493.8"/>
<text text-anchor="start" x="2942.44" y="-506" font-family="Arial" font-size="14.00">taxonid </text>
<text text-anchor="start" x="2991.48" y="-506" font-family="Arial" font-size="14.00" fill="#666666">[integer]</text>
<polygon fill="none" stroke="black" points="2935.44,-463 2935.44,-493.8 3255.24,-493.8 3255.24,-463 2935.44,-463"/>
<text text-anchor="start" x="2942.44" y="-475.2" font-family="Arial" font-size="14.00">variableelementid </text>
<text text-anchor="start" x="3056.06" y="-475.2" font-family="Arial" font-size="14.00" fill="#666666">[integer]</text>
<polygon fill="none" stroke="black" points="2935.44,-432.2 2935.44,-463 3255.24,-463 3255.24,-432.2 2935.44,-432.2"/>
<text text-anchor="start" x="2942.44" y="-444.4" font-family="Arial" font-size="14.00">variableunitsid </text>
<text text-anchor="start" x="3035.83" y="-444.4" font-family="Arial" font-size="14.00" fill="#666666">[integer]</text>
<polygon fill="none" stroke="black" points="2935.44,-401.4 2935.44,-432.2 3255.24,-432.2 3255.24,-401.4 2935.44,-401.4"/>
<text text-anchor="start" x="2942.44" y="-413.6" font-family="Arial" font-size="14.00">variablecontextid </text>
<text text-anchor="start" x="3051.39" y="-413.6" font-family="Arial" font-size="14.00" fill="#666666">[integer]</text>
<polygon fill="none" stroke="black" points="2935.44,-370.6 2935.44,-401.4 3255.24,-401.4 3255.24,-370.6 2935.44,-370.6"/>
<text text-anchor="start" x="2942.44" y="-382.8" font-family="Arial" font-size="14.00">recdatecreated </text>
<text text-anchor="start" x="3039.73" y="-382.8" font-family="Arial" font-size="14.00" fill="#666666">[timestamp(0) without time zone]</text>
<polygon fill="none" stroke="black" points="2935.44,-339.8 2935.44,-370.6 3255.24,-370.6 3255.24,-339.8 2935.44,-339.8"/>
<text text-anchor="start" x="2942.44" y="-352" font-family="Arial" font-size="14.00">recdatemodified </text>
<text text-anchor="start" x="3045.95" y="-352" font-family="Arial" font-size="14.00" fill="#666666">[timestamp(0) without time zone]</text>
</g>
<!-- ndb.variables&#45;&gt;ndb.variableunits -->
<g id="edge8" class="edge">
<title>ndb.variables:variableunitsid&#45;&gt;ndb.variableunits:variableunitsid</title>
<path fill="none" stroke="black" d="M3266.46,-446.8C3325.74,-436.52 3252.38,-330.13 3307.34,-281.2 3426.85,-174.82 3855.45,-151 4015.44,-151"/>
<polygon fill="black" stroke="black" points="3266.54,-446.79 3256.22,-443.09 3261.23,-447.21 3256.91,-447.55 3256.91,-447.55 3256.91,-447.55 3261.23,-447.21 3256.93,-452.06 3266.54,-446.79"/>
<text text-anchor="start" x="2963.93" y="-431.6" font-family="Arial" font-size="10.00">FOREIGN KEY (variableunitsid) REFERENCES ndb.variableunits(variableunitsid) ON UPDATE CASCADE ON DELETE CASCADE</text>
</g>
<!-- ndb.accumulationrates -->
<g id="node10" class="node">
<title>ndb.accumulationrates</title>
<polygon fill="#efefef" stroke="none" points="3359.44,-540 3359.44,-575.6 3679.24,-575.6 3679.24,-540 3359.44,-540"/>
<polygon fill="none" stroke="black" points="3359.44,-540 3359.44,-575.6 3679.24,-575.6 3679.24,-540 3359.44,-540"/>
<text text-anchor="start" x="3375.88" y="-553.4" font-family="Arial Bold" font-size="18.00">ndb.accumulationrates</text>
<text text-anchor="start" x="3538.32" y="-553.4" font-family="Arial" font-size="14.00">    </text>
<text text-anchor="start" x="3569.43" y="-553.4" font-family="Arial" font-size="14.00" fill="#666666">[BASE TABLE]</text>
<polygon fill="none" stroke="black" points="3359.44,-509.2 3359.44,-540 3679.24,-540 3679.24,-509.2 3359.44,-509.2"/>
<text text-anchor="start" x="3366.44" y="-521.4" font-family="Arial" font-size="14.00">analysisunitid </text>
<text text-anchor="start" x="3454.38" y="-521.4" font-family="Arial" font-size="14.00" fill="#666666">[integer]</text>
<polygon fill="none" stroke="black" points="3359.44,-478.4 3359.44,-509.2 3679.24,-509.2 3679.24,-478.4 3359.44,-478.4"/>
<text text-anchor="start" x="3366.44" y="-490.6" font-family="Arial" font-size="14.00">chronologyid </text>
<text text-anchor="start" x="3449.72" y="-490.6" font-family="Arial" font-size="14.00" fill="#666666">[integer]</text>
<polygon fill="none" stroke="black" points="3359.44,-447.6 3359.44,-478.4 3679.24,-478.4 3679.24,-447.6 3359.44,-447.6"/>
<text text-anchor="start" x="3366.44" y="-459.8" font-family="Arial" font-size="14.00">accumulationrate </text>
<text text-anchor="start" x="3476.95" y="-459.8" font-family="Arial" font-size="14.00" fill="#666666">[double precision]</text>
<polygon fill="none" stroke="black" points="3359.44,-416.8 3359.44,-447.6 3679.24,-447.6 3679.24,-416.8 3359.44,-416.8"/>
<text text-anchor="start" x="3366.44" y="-429" font-family="Arial" font-size="14.00">variableunitsid </text>
<text text-anchor="start" x="3459.83" y="-429" font-family="Arial" font-size="14.00" fill="#666666">[integer]</text>
<polygon fill="none" stroke="black" points="3359.44,-386 3359.44,-416.8 3679.24,-416.8 3679.24,-386 3359.44,-386"/>
<text text-anchor="start" x="3366.44" y="-398.2" font-family="Arial" font-size="14.00">recdatecreated </text>
<text text-anchor="start" x="3463.73" y="-398.2" font-family="Arial" font-size="14.00" fill="#666666">[timestamp(0) without time zone]</text>
<polygon fill="none" stroke="black" points="3359.44,-355.2 3359.44,-386 3679.24,-386 3679.24,-355.2 3359.44,-355.2"/>
<text text-anchor="start" x="3366.44" y="-367.4" font-family="Arial" font-size="14.00">recdatemodified </text>
<text text-anchor="start" x="3469.95" y="-367.4" font-family="Arial" font-size="14.00" fill="#666666">[timestamp(0) without time zone]</text>
</g>
<!-- ndb.accumulationrates&#45;&gt;ndb.variableunits -->
<g id="edge9" class="edge">
<title>ndb.accumulationrates:variableunitsid&#45;&gt;ndb.variableunits:variableunitsid</title>
<path fill="none" stroke="black" d="M3690.34,-431.4C3744.32,-421.95 3686.4,-331.05 3731.34,-281.2 3824.35,-178.04 3876.55,-151 4015.44,-151"/>
<polygon fill="black" stroke="black" points="3690.54,-431.38 3680.22,-427.69 3685.23,-431.81 3680.91,-432.15 3680.91,-432.15 3680.91,-432.15 3685.23,-431.81 3680.93,-436.66 3690.54,-431.38"/>
<text text-anchor="start" x="3687.24" y="-442.2" font-family="Arial" font-size="10.00">FOREIGN KEY (variableunitsid) REFERENCES ndb.variableunits(variableunitsid) ON UPDATE CASCADE ON DELETE CASCADE</text>
</g>
<!-- ndb.analysisunitaltdepthscales -->
<g id="node11" class="node">
<title>ndb.analysisunitaltdepthscales</title>
<polygon fill="#efefef" stroke="none" points="3783.87,-555.4 3783.87,-591 4140.81,-591 4140.81,-555.4 3783.87,-555.4"/>
<polygon fill="none" stroke="black" points="3783.87,-555.4 3783.87,-591 4140.81,-591 4140.81,-555.4 3783.87,-555.4"/>
<text text-anchor="start" x="3790.87" y="-568.8" font-family="Arial Bold" font-size="18.00">ndb.analysisunitaltdepthscales</text>
<text text-anchor="start" x="4009.32" y="-568.8" font-family="Arial" font-size="14.00">    </text>
<text text-anchor="start" x="4040.44" y="-568.8" font-family="Arial" font-size="14.00" fill="#666666">[BASE TABLE]</text>
<polygon fill="none" stroke="black" points="3783.87,-524.6 3783.87,-555.4 4140.81,-555.4 4140.81,-524.6 3783.87,-524.6"/>
<text text-anchor="start" x="3790.87" y="-536.8" font-family="Arial" font-size="14.00">altdepthscaleid </text>
<text text-anchor="start" x="3888.16" y="-536.8" font-family="Arial" font-size="14.00" fill="#666666">[integer]</text>
<polygon fill="none" stroke="black" points="3783.87,-493.8 3783.87,-524.6 4140.81,-524.6 4140.81,-493.8 3783.87,-493.8"/>
<text text-anchor="start" x="3790.87" y="-506" font-family="Arial" font-size="14.00">altdepthid </text>
<text text-anchor="start" x="3855.48" y="-506" font-family="Arial" font-size="14.00" fill="#666666">[integer]</text>
<polygon fill="none" stroke="black" points="3783.87,-463 3783.87,-493.8 4140.81,-493.8 4140.81,-463 3783.87,-463"/>
<text text-anchor="start" x="3790.87" y="-475.2" font-family="Arial" font-size="14.00">altdepthname </text>
<text text-anchor="start" x="3879.6" y="-475.2" font-family="Arial" font-size="14.00" fill="#666666">[varchar(80)]</text>
<polygon fill="none" stroke="black" points="3783.87,-432.2 3783.87,-463 4140.81,-463 4140.81,-432.2 3783.87,-432.2"/>
<text text-anchor="start" x="3790.87" y="-444.4" font-family="Arial" font-size="14.00">variableunitsid </text>
<text text-anchor="start" x="3884.26" y="-444.4" font-family="Arial" font-size="14.00" fill="#666666">[integer]</text>
<polygon fill="none" stroke="black" points="3783.87,-401.4 3783.87,-432.2 4140.81,-432.2 4140.81,-401.4 3783.87,-401.4"/>
<text text-anchor="start" x="3790.87" y="-413.6" font-family="Arial" font-size="14.00">notes </text>
<text text-anchor="start" x="3829.01" y="-413.6" font-family="Arial" font-size="14.00" fill="#666666">[text]</text>
<polygon fill="none" stroke="black" points="3783.87,-370.6 3783.87,-401.4 4140.81,-401.4 4140.81,-370.6 3783.87,-370.6"/>
<text text-anchor="start" x="3790.87" y="-382.8" font-family="Arial" font-size="14.00">recdatecreated </text>
<text text-anchor="start" x="3888.15" y="-382.8" font-family="Arial" font-size="14.00" fill="#666666">[timestamp(0) without time zone]</text>
<polygon fill="none" stroke="black" points="3783.87,-339.8 3783.87,-370.6 4140.81,-370.6 4140.81,-339.8 3783.87,-339.8"/>
<text text-anchor="start" x="3790.87" y="-352" font-family="Arial" font-size="14.00">recdatemodified </text>
<text text-anchor="start" x="3894.37" y="-352" font-family="Arial" font-size="14.00" fill="#666666">[timestamp(0) without time zone]</text>
</g>
<!-- ndb.analysisunitaltdepthscales&#45;&gt;ndb.variableunits -->
<g id="edge10" class="edge">
<title>ndb.analysisunitaltdepthscales:variableunitsid&#45;&gt;ndb.variableunits:variableunitsid</title>
<path fill="none" stroke="black" d="M4151.96,-446.77C4205.56,-437.29 4176.26,-349.22 4140.81,-296.6 4107.4,-246.99 4049.95,-294.74 4016.44,-245.2 3992.98,-210.52 3973.57,-151 4015.44,-151"/>
<polygon fill="black" stroke="black" points="4152.11,-446.75 4141.78,-443.09 4146.8,-447.19 4142.48,-447.55 4142.48,-447.55 4142.48,-447.55 4146.8,-447.19 4142.51,-452.06 4152.11,-446.75"/>
<text text-anchor="start" x="3550.19" y="-457.6" font-family="Arial" font-size="10.00">FOREIGN KEY (variableunitsid) REFERENCES ndb.variableunits(variableunitsid) ON UPDATE CASCADE ON DELETE CASCADE</text>
</g>
<!-- ndb.datauncertainties -->
<g id="node12" class="node">
<title>ndb.datauncertainties</title>
<polygon fill="#efefef" stroke="none" points="4245.38,-524.6 4245.38,-560.2 4537.31,-560.2 4537.31,-524.6 4245.38,-524.6"/>
<polygon fill="none" stroke="black" points="4245.38,-524.6 4245.38,-560.2 4537.31,-560.2 4537.31,-524.6 4245.38,-524.6"/>
<text text-anchor="start" x="4252.38" y="-538" font-family="Arial Bold" font-size="18.00">ndb.datauncertainties</text>
<text text-anchor="start" x="4405.82" y="-538" font-family="Arial" font-size="14.00">    </text>
<text text-anchor="start" x="4436.93" y="-538" font-family="Arial" font-size="14.00" fill="#666666">[BASE TABLE]</text>
<polygon fill="none" stroke="black" points="4245.38,-493.8 4245.38,-524.6 4537.31,-524.6 4537.31,-493.8 4245.38,-493.8"/>
<text text-anchor="start" x="4252.38" y="-506" font-family="Arial" font-size="14.00">dataid </text>
<text text-anchor="start" x="4294.41" y="-506" font-family="Arial" font-size="14.00" fill="#666666">[integer]</text>
<polygon fill="none" stroke="black" points="4245.38,-463 4245.38,-493.8 4537.31,-493.8 4537.31,-463 4245.38,-463"/>
<text text-anchor="start" x="4252.38" y="-475.2" font-family="Arial" font-size="14.00">uncertaintyvalue </text>
<text text-anchor="start" x="4358.22" y="-475.2" font-family="Arial" font-size="14.00" fill="#666666">[double precision]</text>
<polygon fill="none" stroke="black" points="4245.38,-432.2 4245.38,-463 4537.31,-463 4537.31,-432.2 4245.38,-432.2"/>
<text text-anchor="start" x="4252.38" y="-444.4" font-family="Arial" font-size="14.00">uncertaintyunitid </text>
<text text-anchor="start" x="4358.22" y="-444.4" font-family="Arial" font-size="14.00" fill="#666666">[integer]</text>
<polygon fill="none" stroke="black" points="4245.38,-401.4 4245.38,-432.2 4537.31,-432.2 4537.31,-401.4 4245.38,-401.4"/>
<text text-anchor="start" x="4252.38" y="-413.6" font-family="Arial" font-size="14.00">uncertaintybasisid </text>
<text text-anchor="start" x="4368.33" y="-413.6" font-family="Arial" font-size="14.00" fill="#666666">[integer]</text>
<polygon fill="none" stroke="black" points="4245.38,-370.6 4245.38,-401.4 4537.31,-401.4 4537.31,-370.6 4245.38,-370.6"/>
<text text-anchor="start" x="4252.38" y="-382.8" font-family="Arial" font-size="14.00">notes </text>
<text text-anchor="start" x="4290.52" y="-382.8" font-family="Arial" font-size="14.00" fill="#666666">[text]</text>
</g>
<!-- ndb.datauncertainties&#45;&gt;ndb.variableunits -->
<g id="edge11" class="edge">
<title>ndb.datauncertainties:uncertaintyunitid&#45;&gt;ndb.variableunits:variableunitsid</title>
<path fill="none" stroke="black" d="M4234.35,-446.57C4195.48,-437.66 4225.04,-372.71 4245.38,-327.4 4267.68,-277.72 4313.89,-294.86 4336.24,-245.2 4353.43,-207.02 4379.11,-151 4337.24,-151"/>
<polygon fill="black" stroke="black" points="4234.1,-446.55 4243.59,-452.04 4239.4,-447.09 4243.71,-447.53 4243.71,-447.53 4243.71,-447.53 4239.4,-447.09 4244.5,-443.09 4234.1,-446.55"/>
<text text-anchor="start" x="3962.85" y="-431.6" font-family="Arial" font-size="10.00">FOREIGN KEY (uncertaintyunitid) REFERENCES ndb.variableunits(variableunitsid)</text>
</g>
<!-- ndb.speleothems -->
<g id="node13" class="node">
<title>ndb.speleothems</title>
<polygon fill="#efefef" stroke="none" points="4641.86,-570.8 4641.86,-606.4 4900.83,-606.4 4900.83,-570.8 4641.86,-570.8"/>
<polygon fill="none" stroke="black" points="4641.86,-570.8 4641.86,-606.4 4900.83,-606.4 4900.83,-570.8 4641.86,-570.8"/>
<text text-anchor="start" x="4648.86" y="-584.2" font-family="Arial Bold" font-size="18.00">ndb.speleothems</text>
<text text-anchor="start" x="4769.34" y="-584.2" font-family="Arial" font-size="14.00">    </text>
<text text-anchor="start" x="4800.46" y="-584.2" font-family="Arial" font-size="14.00" fill="#666666">[BASE TABLE]</text>
<polygon fill="none" stroke="black" points="4641.86,-540 4641.86,-570.8 4900.83,-570.8 4900.83,-540 4641.86,-540"/>
<text text-anchor="start" x="4648.86" y="-552.2" font-family="Arial" font-size="14.00">siteid </text>
<text text-anchor="start" x="4685.43" y="-552.2" font-family="Arial" font-size="14.00" fill="#666666">[integer]</text>
<polygon fill="none" stroke="black" points="4641.86,-509.2 4641.86,-540 4900.83,-540 4900.83,-509.2 4641.86,-509.2"/>
<text text-anchor="start" x="4648.86" y="-521.4" font-family="Arial" font-size="14.00">entityid </text>
<text text-anchor="start" x="4697.11" y="-521.4" font-family="Arial" font-size="14.00" fill="#666666">[integer]</text>
<polygon fill="none" stroke="black" points="4641.86,-478.4 4641.86,-509.2 4900.83,-509.2 4900.83,-478.4 4641.86,-478.4"/>
<text text-anchor="start" x="4648.86" y="-490.6" font-family="Arial" font-size="14.00">entityname </text>
<text text-anchor="start" x="4721.23" y="-490.6" font-family="Arial" font-size="14.00" fill="#666666">[text]</text>
<polygon fill="none" stroke="black" points="4641.86,-447.6 4641.86,-478.4 4900.83,-478.4 4900.83,-447.6 4641.86,-447.6"/>
<text text-anchor="start" x="4648.86" y="-459.8" font-family="Arial" font-size="14.00">monitoring </text>
<text text-anchor="start" x="4718.11" y="-459.8" font-family="Arial" font-size="14.00" fill="#666666">[boolean]</text>
<polygon fill="none" stroke="black" points="4641.86,-416.8 4641.86,-447.6 4900.83,-447.6 4900.83,-416.8 4641.86,-416.8"/>
<text text-anchor="start" x="4648.86" y="-429" font-family="Arial" font-size="14.00">rockageid </text>
<text text-anchor="start" x="4713.45" y="-429" font-family="Arial" font-size="14.00" fill="#666666">[integer]</text>
<polygon fill="none" stroke="black" points="4641.86,-386 4641.86,-416.8 4900.83,-416.8 4900.83,-386 4641.86,-386"/>
<text text-anchor="start" x="4648.86" y="-398.2" font-family="Arial" font-size="14.00">entrancedistance </text>
<text text-anchor="start" x="4759.37" y="-398.2" font-family="Arial" font-size="14.00" fill="#666666">[real]</text>
<polygon fill="none" stroke="black" points="4641.86,-355.2 4641.86,-386 4900.83,-386 4900.83,-355.2 4641.86,-355.2"/>
<text text-anchor="start" x="4648.86" y="-367.4" font-family="Arial" font-size="14.00">entrancedistanceunits </text>
<text text-anchor="start" x="4788.95" y="-367.4" font-family="Arial" font-size="14.00" fill="#666666">[integer]</text>
<polygon fill="none" stroke="black" points="4641.86,-324.4 4641.86,-355.2 4900.83,-355.2 4900.83,-324.4 4641.86,-324.4"/>
<text text-anchor="start" x="4648.86" y="-336.6" font-family="Arial" font-size="14.00">speleothemtypeid </text>
<text text-anchor="start" x="4762.48" y="-336.6" font-family="Arial" font-size="14.00" fill="#666666">[integer]</text>
</g>
<!-- ndb.speleothems&#45;&gt;ndb.variableunits -->
<g id="edge12" class="edge">
<title>ndb.speleothems:entrancedistanceunits&#45;&gt;ndb.variableunits:variableunitsid</title>
<path fill="none" stroke="black" d="M4630.58,-369.37C4599.28,-360.87 4619.66,-310.15 4589.34,-281.2 4498.14,-194.11 4463.35,-151 4337.24,-151"/>
<polygon fill="black" stroke="black" points="4630.6,-369.38 4639.99,-375.03 4635.89,-370.01 4640.19,-370.52 4640.19,-370.52 4640.19,-370.52 4635.89,-370.01 4641.06,-366.09 4630.6,-369.38"/>
<text text-anchor="start" x="4647.86" y="-380.6" font-family="Arial" font-size="10.00">FOREIGN KEY (entrancedistanceunits) REFERENCES ndb.variableunits(variableunitsid)</text>
</g>
<!-- ndb.entitydripheight -->
<g id="node14" class="node">
<title>ndb.entitydripheight</title>
<polygon fill="#efefef" stroke="none" points="5004.86,-509.2 5004.86,-544.8 5289.83,-544.8 5289.83,-509.2 5004.86,-509.2"/>
<polygon fill="none" stroke="black" points="5004.86,-509.2 5004.86,-544.8 5289.83,-544.8 5289.83,-509.2 5004.86,-509.2"/>
<text text-anchor="start" x="5011.86" y="-522.6" font-family="Arial Bold" font-size="18.00">ndb.entitydripheight</text>
<text text-anchor="start" x="5158.34" y="-522.6" font-family="Arial" font-size="14.00">    </text>
<text text-anchor="start" x="5189.45" y="-522.6" font-family="Arial" font-size="14.00" fill="#666666">[BASE TABLE]</text>
<polygon fill="none" stroke="black" points="5004.86,-478.4 5004.86,-509.2 5289.83,-509.2 5289.83,-478.4 5004.86,-478.4"/>
<text text-anchor="start" x="5011.86" y="-490.6" font-family="Arial" font-size="14.00">entityid </text>
<text text-anchor="start" x="5060.11" y="-490.6" font-family="Arial" font-size="14.00" fill="#666666">[integer]</text>
<polygon fill="none" stroke="black" points="5004.86,-447.6 5004.86,-478.4 5289.83,-478.4 5289.83,-447.6 5004.86,-447.6"/>
<text text-anchor="start" x="5011.86" y="-459.8" font-family="Arial" font-size="14.00">speleothemdriptypeid </text>
<text text-anchor="start" x="5148.83" y="-459.8" font-family="Arial" font-size="14.00" fill="#666666">[integer]</text>
<polygon fill="none" stroke="black" points="5004.86,-416.8 5004.86,-447.6 5289.83,-447.6 5289.83,-416.8 5004.86,-416.8"/>
<text text-anchor="start" x="5011.86" y="-429" font-family="Arial" font-size="14.00">entitydripheight </text>
<text text-anchor="start" x="5110.7" y="-429" font-family="Arial" font-size="14.00" fill="#666666">[real]</text>
<polygon fill="none" stroke="black" points="5004.86,-386 5004.86,-416.8 5289.83,-416.8 5289.83,-386 5004.86,-386"/>
<text text-anchor="start" x="5011.86" y="-398.2" font-family="Arial" font-size="14.00">entitydripheightunit </text>
<text text-anchor="start" x="5133.27" y="-398.2" font-family="Arial" font-size="14.00" fill="#666666">[integer]</text>
</g>
<!-- ndb.entitydripheight&#45;&gt;ndb.variableunits -->
<g id="edge13" class="edge">
<title>ndb.entitydripheight:entitydripheightunit&#45;&gt;ndb.variableunits:variableunitsid</title>
<path fill="none" stroke="black" d="M4993.71,-400.34C4952.4,-390.54 4995.05,-315.66 4953.34,-281.2 4845.47,-192.06 4477.18,-151 4337.24,-151"/>
<polygon fill="black" stroke="black" points="4993.58,-400.32 5003.06,-405.84 4998.89,-400.88 5003.19,-401.33 5003.19,-401.33 5003.19,-401.33 4998.89,-400.88 5003.99,-396.89 4993.58,-400.32"/>
<text text-anchor="start" x="4615.04" y="-411.4" font-family="Arial" font-size="10.00">FOREIGN KEY (entitydripheightunit) REFERENCES ndb.variableunits(variableunitsid)</text>
</g>
<!-- ndb.entitycovers -->
<g id="node15" class="node">
<title>ndb.entitycovers</title>
<polygon fill="#efefef" stroke="none" points="5394.36,-509.2 5394.36,-544.8 5652.32,-544.8 5652.32,-509.2 5394.36,-509.2"/>
<polygon fill="none" stroke="black" points="5394.36,-509.2 5394.36,-544.8 5652.32,-544.8 5652.32,-509.2 5394.36,-509.2"/>
<text text-anchor="start" x="5401.36" y="-522.6" font-family="Arial Bold" font-size="18.00">ndb.entitycovers</text>
<text text-anchor="start" x="5520.83" y="-522.6" font-family="Arial" font-size="14.00">    </text>
<text text-anchor="start" x="5551.95" y="-522.6" font-family="Arial" font-size="14.00" fill="#666666">[BASE TABLE]</text>
<polygon fill="none" stroke="black" points="5394.36,-478.4 5394.36,-509.2 5652.32,-509.2 5652.32,-478.4 5394.36,-478.4"/>
<text text-anchor="start" x="5401.36" y="-490.6" font-family="Arial" font-size="14.00">entityid </text>
<text text-anchor="start" x="5449.61" y="-490.6" font-family="Arial" font-size="14.00" fill="#666666">[integer]</text>
<polygon fill="none" stroke="black" points="5394.36,-447.6 5394.36,-478.4 5652.32,-478.4 5652.32,-447.6 5394.36,-447.6"/>
<text text-anchor="start" x="5401.36" y="-459.8" font-family="Arial" font-size="14.00">entitycoverid </text>
<text text-anchor="start" x="5483.85" y="-459.8" font-family="Arial" font-size="14.00" fill="#666666">[integer]</text>
<polygon fill="none" stroke="black" points="5394.36,-416.8 5394.36,-447.6 5652.32,-447.6 5652.32,-416.8 5394.36,-416.8"/>
<text text-anchor="start" x="5401.36" y="-429" font-family="Arial" font-size="14.00">entitycoverthickness </text>
<text text-anchor="start" x="5531.31" y="-429" font-family="Arial" font-size="14.00" fill="#666666">[real]</text>
<polygon fill="none" stroke="black" points="5394.36,-386 5394.36,-416.8 5652.32,-416.8 5652.32,-386 5394.36,-386"/>
<text text-anchor="start" x="5401.36" y="-398.2" font-family="Arial" font-size="14.00">entitycoverunits </text>
<text text-anchor="start" x="5502.52" y="-398.2" font-family="Arial" font-size="14.00" fill="#666666">[integer]</text>
</g>
<!-- ndb.entitycovers&#45;&gt;ndb.variableunits -->
<g id="edge14" class="edge">
<title>ndb.entitycovers:entitycoverunits&#45;&gt;ndb.variableunits:variableunitsid</title>
<path fill="none" stroke="black" d="M5383.21,-400.31C5341.96,-390.32 5385.5,-313.95 5342.34,-281.2 5252.63,-213.13 4449.85,-151 4337.24,-151"/>
<polygon fill="black" stroke="black" points="5383.09,-400.3 5392.55,-405.84 5388.39,-400.87 5392.7,-401.33 5392.7,-401.33 5392.7,-401.33 5388.39,-400.87 5393.51,-396.89 5383.09,-400.3"/>
<text text-anchor="start" x="5400.36" y="-411.4" font-family="Arial" font-size="10.00">FOREIGN KEY (entitycoverunits) REFERENCES ndb.variableunits(variableunitsid)</text>
</g>
</g>
</svg>
