<?xml version="1.0" encoding="UTF-8" standalone="no"?>
<!DOCTYPE svg PUBLIC "-//W3C//DTD SVG 1.1//EN"
 "http://www.w3.org/Graphics/SVG/1.1/DTD/svg11.dtd">
<!-- Generated by graphviz version 12.1.2 (20240928.0832)
 -->
<!-- Title: ndb.isosampleintrosystemtypes Pages: 1 -->
<svg width="1845pt" height="842pt"
 viewBox="0.00 0.00 1845.48 842.40" xmlns="http://www.w3.org/2000/svg" xmlns:xlink="http://www.w3.org/1999/xlink">
<g id="graph0" class="graph" transform="scale(1 1) rotate(0) translate(4 838.4)">
<title>ndb.isosampleintrosystemtypes</title>
<polygon fill="white" stroke="none" points="-4,4 -4,-838.4 1841.48,-838.4 1841.48,4 -4,4"/>
<!-- ndb.isosampleintrosystemtypes -->
<g id="node1" class="node">
<title>ndb.isosampleintrosystemtypes</title>
<polygon fill="#efefef" stroke="none" points="98.24,-228 98.24,-263.6 462.21,-263.6 462.21,-228 98.24,-228"/>
<polygon fill="none" stroke="black" points="98.24,-228 98.24,-263.6 462.21,-263.6 462.21,-228 98.24,-228"/>
<text text-anchor="start" x="105.24" y="-241.4" font-family="Arial Bold" font-size="18.00">ndb.isosampleintrosystemtypes</text>
<text text-anchor="start" x="330.72" y="-241.4" font-family="Arial" font-size="14.00">    </text>
<text text-anchor="start" x="361.84" y="-241.4" font-family="Arial" font-size="14.00" fill="#666666">[BASE TABLE]</text>
<polygon fill="none" stroke="black" points="98.24,-197.2 98.24,-228 462.21,-228 462.21,-197.2 98.24,-197.2"/>
<text text-anchor="start" x="105.24" y="-209.4" font-family="Arial" font-size="14.00">isosampleintrosystemtypeid </text>
<text text-anchor="start" x="281.09" y="-209.4" font-family="Arial" font-size="14.00" fill="#666666">[integer]</text>
<polygon fill="none" stroke="black" points="98.24,-166.4 98.24,-197.2 462.21,-197.2 462.21,-166.4 98.24,-166.4"/>
<text text-anchor="start" x="105.24" y="-178.6" font-family="Arial" font-size="14.00">isosampleintrosystemtype </text>
<text text-anchor="start" x="270.19" y="-178.6" font-family="Arial" font-size="14.00" fill="#666666">[varchar(256)]</text>
<polygon fill="none" stroke="black" points="98.24,-135.6 98.24,-166.4 462.21,-166.4 462.21,-135.6 98.24,-135.6"/>
<text text-anchor="start" x="105.24" y="-147.8" font-family="Arial" font-size="14.00">recdatecreated </text>
<text text-anchor="start" x="202.52" y="-147.8" font-family="Arial" font-size="14.00" fill="#666666">[timestamp(0) without time zone]</text>
<polygon fill="none" stroke="black" points="98.24,-104.8 98.24,-135.6 462.21,-135.6 462.21,-104.8 98.24,-104.8"/>
<text text-anchor="start" x="105.24" y="-117" font-family="Arial" font-size="14.00">recdatemodified </text>
<text text-anchor="start" x="208.74" y="-117" font-family="Arial" font-size="14.00" fill="#666666">[timestamp(0) without time zone]</text>
<polygon fill="none" stroke="black" stroke-width="3" points="96.74,-103.3 96.74,-265.1 463.71,-265.1 463.71,-103.3 96.74,-103.3"/>
</g>
<!-- ndb.isoinstrumentation -->
<g id="node2" class="node">
<title>ndb.isoinstrumentation</title>
<polygon fill="#efefef" stroke="none" points="781.33,-755.6 781.33,-791.2 1101.13,-791.2 1101.13,-755.6 781.33,-755.6"/>
<polygon fill="none" stroke="black" points="781.33,-755.6 781.33,-791.2 1101.13,-791.2 1101.13,-755.6 781.33,-755.6"/>
<text text-anchor="start" x="796.24" y="-769" font-family="Arial Bold" font-size="18.00">ndb.isoinstrumentation</text>
<text text-anchor="start" x="961.73" y="-769" font-family="Arial" font-size="14.00">    </text>
<text text-anchor="start" x="992.84" y="-769" font-family="Arial" font-size="14.00" fill="#666666">[BASE TABLE]</text>
<polygon fill="none" stroke="black" points="781.33,-724.8 781.33,-755.6 1101.13,-755.6 1101.13,-724.8 781.33,-724.8"/>
<text text-anchor="start" x="788.33" y="-737" font-family="Arial" font-size="14.00">datasetid </text>
<text text-anchor="start" x="849.04" y="-737" font-family="Arial" font-size="14.00" fill="#666666">[integer]</text>
<polygon fill="none" stroke="black" points="781.33,-694 781.33,-724.8 1101.13,-724.8 1101.13,-694 781.33,-694"/>
<text text-anchor="start" x="788.33" y="-706.2" font-family="Arial" font-size="14.00">variableid </text>
<text text-anchor="start" x="852.14" y="-706.2" font-family="Arial" font-size="14.00" fill="#666666">[integer]</text>
<polygon fill="none" stroke="black" points="781.33,-663.2 781.33,-694 1101.13,-694 1101.13,-663.2 781.33,-663.2"/>
<text text-anchor="start" x="788.33" y="-675.4" font-family="Arial" font-size="14.00">isoinstrumentationtypeid </text>
<text text-anchor="start" x="943.19" y="-675.4" font-family="Arial" font-size="14.00" fill="#666666">[integer]</text>
<polygon fill="none" stroke="black" points="781.33,-632.4 781.33,-663.2 1101.13,-663.2 1101.13,-632.4 781.33,-632.4"/>
<text text-anchor="start" x="788.33" y="-644.6" font-family="Arial" font-size="14.00">isosampleintrosystemtypeid </text>
<text text-anchor="start" x="964.18" y="-644.6" font-family="Arial" font-size="14.00" fill="#666666">[integer]</text>
<polygon fill="none" stroke="black" points="781.33,-601.6 781.33,-632.4 1101.13,-632.4 1101.13,-601.6 781.33,-601.6"/>
<text text-anchor="start" x="788.33" y="-613.8" font-family="Arial" font-size="14.00">insterrorpercent </text>
<text text-anchor="start" x="890.26" y="-613.8" font-family="Arial" font-size="14.00" fill="#666666">[double precision]</text>
<polygon fill="none" stroke="black" points="781.33,-570.8 781.33,-601.6 1101.13,-601.6 1101.13,-570.8 781.33,-570.8"/>
<text text-anchor="start" x="788.33" y="-583" font-family="Arial" font-size="14.00">insterrorrunsd </text>
<text text-anchor="start" x="878.58" y="-583" font-family="Arial" font-size="14.00" fill="#666666">[double precision]</text>
<polygon fill="none" stroke="black" points="781.33,-540 781.33,-570.8 1101.13,-570.8 1101.13,-540 781.33,-540"/>
<text text-anchor="start" x="788.33" y="-552.2" font-family="Arial" font-size="14.00">insterrorlongtermpercent </text>
<text text-anchor="start" x="944.73" y="-552.2" font-family="Arial" font-size="14.00" fill="#666666">[double precision]</text>
<polygon fill="none" stroke="black" points="781.33,-509.2 781.33,-540 1101.13,-540 1101.13,-509.2 781.33,-509.2"/>
<text text-anchor="start" x="788.33" y="-521.4" font-family="Arial" font-size="14.00">notes </text>
<text text-anchor="start" x="826.47" y="-521.4" font-family="Arial" font-size="14.00" fill="#666666">[text]</text>
<polygon fill="none" stroke="black" points="781.33,-478.4 781.33,-509.2 1101.13,-509.2 1101.13,-478.4 781.33,-478.4"/>
<text text-anchor="start" x="788.33" y="-490.6" font-family="Arial" font-size="14.00">recdatecreated </text>
<text text-anchor="start" x="885.61" y="-490.6" font-family="Arial" font-size="14.00" fill="#666666">[timestamp(0) without time zone]</text>
<polygon fill="none" stroke="black" points="781.33,-447.6 781.33,-478.4 1101.13,-478.4 1101.13,-447.6 781.33,-447.6"/>
<text text-anchor="start" x="788.33" y="-459.8" font-family="Arial" font-size="14.00">recdatemodified </text>
<text text-anchor="start" x="891.83" y="-459.8" font-family="Arial" font-size="14.00" fill="#666666">[timestamp(0) without time zone]</text>
</g>
<!-- ndb.isoinstrumentation&#45;&gt;ndb.isosampleintrosystemtypes -->
<g id="edge1" class="edge">
<title>ndb.isoinstrumentation:isosampleintrosystemtypeid&#45;&gt;ndb.isosampleintrosystemtypes:isosampleintrosystemtypeid</title>
<path fill="none" stroke="black" d="M770.04,-647.63C609.55,-642.32 603.77,-511.31 517.23,-368.4 479.26,-305.71 536.5,-212.6 463.21,-212.6"/>
<polygon fill="black" stroke="black" points="770,-647.63 779.92,-652.29 775.33,-647.72 779.66,-647.79 779.66,-647.79 779.66,-647.79 775.33,-647.72 780.07,-643.3 770,-647.63"/>
<text text-anchor="start" x="7" y="-657.8" font-family="Arial" font-size="10.00">FOREIGN KEY (isosampleintrosystemtypeid) REFERENCES ndb.isosampleintrosystemtypes(isosampleintrosystemtypeid) ON UPDATE CASCADE ON DELETE CASCADE</text>
</g>
<!-- ndb.datasets -->
<g id="node3" class="node">
<title>ndb.datasets</title>
<polygon fill="#efefef" stroke="none" points="569.33,-289.6 569.33,-325.2 889.13,-325.2 889.13,-289.6 569.33,-289.6"/>
<polygon fill="none" stroke="black" points="569.33,-289.6 569.33,-325.2 889.13,-325.2 889.13,-289.6 569.33,-289.6"/>
<text text-anchor="start" x="622.74" y="-303" font-family="Arial Bold" font-size="18.00">ndb.datasets</text>
<text text-anchor="start" x="711.22" y="-303" font-family="Arial" font-size="14.00">    </text>
<text text-anchor="start" x="742.34" y="-303" font-family="Arial" font-size="14.00" fill="#666666">[BASE TABLE]</text>
<polygon fill="none" stroke="black" points="569.33,-258.8 569.33,-289.6 889.13,-289.6 889.13,-258.8 569.33,-258.8"/>
<text text-anchor="start" x="576.33" y="-271" font-family="Arial" font-size="14.00">datasetid </text>
<text text-anchor="start" x="637.04" y="-271" font-family="Arial" font-size="14.00" fill="#666666">[integer]</text>
<polygon fill="none" stroke="black" points="569.33,-228 569.33,-258.8 889.13,-258.8 889.13,-228 569.33,-228"/>
<text text-anchor="start" x="576.33" y="-240.2" font-family="Arial" font-size="14.00">collectionunitid </text>
<text text-anchor="start" x="672.05" y="-240.2" font-family="Arial" font-size="14.00" fill="#666666">[integer]</text>
<polygon fill="none" stroke="black" points="569.33,-197.2 569.33,-228 889.13,-228 889.13,-197.2 569.33,-197.2"/>
<text text-anchor="start" x="576.33" y="-209.4" font-family="Arial" font-size="14.00">datasettypeid </text>
<text text-anchor="start" x="663.5" y="-209.4" font-family="Arial" font-size="14.00" fill="#666666">[integer]</text>
<polygon fill="none" stroke="black" points="569.33,-166.4 569.33,-197.2 889.13,-197.2 889.13,-166.4 569.33,-166.4"/>
<text text-anchor="start" x="576.33" y="-178.6" font-family="Arial" font-size="14.00">datasetname </text>
<text text-anchor="start" x="661.16" y="-178.6" font-family="Arial" font-size="14.00" fill="#666666">[varchar(80)]</text>
<polygon fill="none" stroke="black" points="569.33,-135.6 569.33,-166.4 889.13,-166.4 889.13,-135.6 569.33,-135.6"/>
<text text-anchor="start" x="576.33" y="-147.8" font-family="Arial" font-size="14.00">notes </text>
<text text-anchor="start" x="614.47" y="-147.8" font-family="Arial" font-size="14.00" fill="#666666">[text]</text>
<polygon fill="none" stroke="black" points="569.33,-104.8 569.33,-135.6 889.13,-135.6 889.13,-104.8 569.33,-104.8"/>
<text text-anchor="start" x="576.33" y="-117" font-family="Arial" font-size="14.00">recdatecreated </text>
<text text-anchor="start" x="673.61" y="-117" font-family="Arial" font-size="14.00" fill="#666666">[timestamp(0) without time zone]</text>
<polygon fill="none" stroke="black" points="569.33,-74 569.33,-104.8 889.13,-104.8 889.13,-74 569.33,-74"/>
<text text-anchor="start" x="576.33" y="-86.2" font-family="Arial" font-size="14.00">recdatemodified </text>
<text text-anchor="start" x="679.83" y="-86.2" font-family="Arial" font-size="14.00" fill="#666666">[timestamp(0) without time zone]</text>
<polygon fill="none" stroke="black" points="569.33,-43.2 569.33,-74 889.13,-74 889.13,-43.2 569.33,-43.2"/>
<text text-anchor="start" x="576.33" y="-55.4" font-family="Arial" font-size="14.00">embargoid </text>
<text text-anchor="start" x="646.37" y="-55.4" font-family="Arial" font-size="14.00" fill="#666666">[integer]</text>
</g>
<!-- ndb.isoinstrumentation&#45;&gt;ndb.datasets -->
<g id="edge2" class="edge">
<title>ndb.isoinstrumentation:datasetid&#45;&gt;ndb.datasets:datasetid</title>
<path fill="none" stroke="black" d="M770.18,-739.85C634.04,-730.18 695.97,-522.53 781.33,-404.4 810.91,-363.46 859.39,-409.23 889.13,-368.4 913.78,-334.56 932,-274.2 890.13,-274.2"/>
<polygon fill="black" stroke="black" points="770,-739.84 779.84,-744.69 775.33,-740.03 779.66,-740.18 779.66,-740.18 779.66,-740.18 775.33,-740.03 780.15,-735.69 770,-739.84"/>
<text text-anchor="start" x="253.72" y="-750.2" font-family="Arial" font-size="10.00">FOREIGN KEY (datasetid) REFERENCES ndb.datasets(datasetid) ON UPDATE CASCADE ON DELETE CASCADE</text>
</g>
<!-- ndb.variables -->
<g id="node4" class="node">
<title>ndb.variables</title>
<polygon fill="#efefef" stroke="none" points="993.33,-274.2 993.33,-309.8 1313.13,-309.8 1313.13,-274.2 993.33,-274.2"/>
<polygon fill="none" stroke="black" points="993.33,-274.2 993.33,-309.8 1313.13,-309.8 1313.13,-274.2 993.33,-274.2"/>
<text text-anchor="start" x="1042.75" y="-287.6" font-family="Arial Bold" font-size="18.00">ndb.variables</text>
<text text-anchor="start" x="1139.22" y="-287.6" font-family="Arial" font-size="14.00">    </text>
<text text-anchor="start" x="1170.33" y="-287.6" font-family="Arial" font-size="14.00" fill="#666666">[BASE TABLE]</text>
<polygon fill="none" stroke="black" points="993.33,-243.4 993.33,-274.2 1313.13,-274.2 1313.13,-243.4 993.33,-243.4"/>
<text text-anchor="start" x="1000.33" y="-255.6" font-family="Arial" font-size="14.00">variableid </text>
<text text-anchor="start" x="1064.14" y="-255.6" font-family="Arial" font-size="14.00" fill="#666666">[integer]</text>
<polygon fill="none" stroke="black" points="993.33,-212.6 993.33,-243.4 1313.13,-243.4 1313.13,-212.6 993.33,-212.6"/>
<text text-anchor="start" x="1000.33" y="-224.8" font-family="Arial" font-size="14.00">taxonid </text>
<text text-anchor="start" x="1049.36" y="-224.8" font-family="Arial" font-size="14.00" fill="#666666">[integer]</text>
<polygon fill="none" stroke="black" points="993.33,-181.8 993.33,-212.6 1313.13,-212.6 1313.13,-181.8 993.33,-181.8"/>
<text text-anchor="start" x="1000.33" y="-194" font-family="Arial" font-size="14.00">variableelementid </text>
<text text-anchor="start" x="1113.95" y="-194" font-family="Arial" font-size="14.00" fill="#666666">[integer]</text>
<polygon fill="none" stroke="black" points="993.33,-151 993.33,-181.8 1313.13,-181.8 1313.13,-151 993.33,-151"/>
<text text-anchor="start" x="1000.33" y="-163.2" font-family="Arial" font-size="14.00">variableunitsid </text>
<text text-anchor="start" x="1093.71" y="-163.2" font-family="Arial" font-size="14.00" fill="#666666">[integer]</text>
<polygon fill="none" stroke="black" points="993.33,-120.2 993.33,-151 1313.13,-151 1313.13,-120.2 993.33,-120.2"/>
<text text-anchor="start" x="1000.33" y="-132.4" font-family="Arial" font-size="14.00">variablecontextid </text>
<text text-anchor="start" x="1109.28" y="-132.4" font-family="Arial" font-size="14.00" fill="#666666">[integer]</text>
<polygon fill="none" stroke="black" points="993.33,-89.4 993.33,-120.2 1313.13,-120.2 1313.13,-89.4 993.33,-89.4"/>
<text text-anchor="start" x="1000.33" y="-101.6" font-family="Arial" font-size="14.00">recdatecreated </text>
<text text-anchor="start" x="1097.61" y="-101.6" font-family="Arial" font-size="14.00" fill="#666666">[timestamp(0) without time zone]</text>
<polygon fill="none" stroke="black" points="993.33,-58.6 993.33,-89.4 1313.13,-89.4 1313.13,-58.6 993.33,-58.6"/>
<text text-anchor="start" x="1000.33" y="-70.8" font-family="Arial" font-size="14.00">recdatemodified </text>
<text text-anchor="start" x="1103.83" y="-70.8" font-family="Arial" font-size="14.00" fill="#666666">[timestamp(0) without time zone]</text>
</g>
<!-- ndb.isoinstrumentation&#45;&gt;ndb.variables -->
<g id="edge3" class="edge">
<title>ndb.isoinstrumentation:variableid&#45;&gt;ndb.variables:variableid</title>
<path fill="none" stroke="black" d="M1112.44,-709.01C1234.3,-699.41 1171.74,-515.9 1101.13,-404.4 1072.73,-359.56 1021.89,-397.74 993.33,-353 970.8,-317.71 950.46,-258.8 992.33,-258.8"/>
<polygon fill="black" stroke="black" points="1112.45,-709.01 1102.29,-704.89 1107.12,-709.21 1102.8,-709.37 1102.8,-709.37 1102.8,-709.37 1107.12,-709.21 1102.63,-713.88 1112.45,-709.01"/>
<text text-anchor="start" x="1109.13" y="-719.4" font-family="Arial" font-size="10.00">FOREIGN KEY (variableid) REFERENCES ndb.variables(variableid) ON UPDATE CASCADE ON DELETE CASCADE</text>
</g>
<!-- ndb.isoinstrumentationtypes -->
<g id="node5" class="node">
<title>ndb.isoinstrumentationtypes</title>
<polygon fill="#efefef" stroke="none" points="1417.24,-228 1417.24,-263.6 1759.21,-263.6 1759.21,-228 1417.24,-228"/>
<polygon fill="none" stroke="black" points="1417.24,-228 1417.24,-263.6 1759.21,-263.6 1759.21,-228 1417.24,-228"/>
<text text-anchor="start" x="1424.24" y="-241.4" font-family="Arial Bold" font-size="18.00">ndb.isoinstrumentationtypes</text>
<text text-anchor="start" x="1627.73" y="-241.4" font-family="Arial" font-size="14.00">    </text>
<text text-anchor="start" x="1658.84" y="-241.4" font-family="Arial" font-size="14.00" fill="#666666">[BASE TABLE]</text>
<polygon fill="none" stroke="black" points="1417.24,-197.2 1417.24,-228 1759.21,-228 1759.21,-197.2 1417.24,-197.2"/>
<text text-anchor="start" x="1424.24" y="-209.4" font-family="Arial" font-size="14.00">isoinstrumentationtypeid </text>
<text text-anchor="start" x="1579.1" y="-209.4" font-family="Arial" font-size="14.00" fill="#666666">[integer]</text>
<polygon fill="none" stroke="black" points="1417.24,-166.4 1417.24,-197.2 1759.21,-197.2 1759.21,-166.4 1417.24,-166.4"/>
<text text-anchor="start" x="1424.24" y="-178.6" font-family="Arial" font-size="14.00">isoinstrumentationtype </text>
<text text-anchor="start" x="1568.21" y="-178.6" font-family="Arial" font-size="14.00" fill="#666666">[varchar(256)]</text>
<polygon fill="none" stroke="black" points="1417.24,-135.6 1417.24,-166.4 1759.21,-166.4 1759.21,-135.6 1417.24,-135.6"/>
<text text-anchor="start" x="1424.24" y="-147.8" font-family="Arial" font-size="14.00">recdatecreated </text>
<text text-anchor="start" x="1521.52" y="-147.8" font-family="Arial" font-size="14.00" fill="#666666">[timestamp(0) without time zone]</text>
<polygon fill="none" stroke="black" points="1417.24,-104.8 1417.24,-135.6 1759.21,-135.6 1759.21,-104.8 1417.24,-104.8"/>
<text text-anchor="start" x="1424.24" y="-117" font-family="Arial" font-size="14.00">recdatemodified </text>
<text text-anchor="start" x="1527.74" y="-117" font-family="Arial" font-size="14.00" fill="#666666">[timestamp(0) without time zone]</text>
</g>
<!-- ndb.isoinstrumentation&#45;&gt;ndb.isoinstrumentationtypes -->
<g id="edge4" class="edge">
<title>ndb.isoinstrumentation:isoinstrumentationtypeid&#45;&gt;ndb.isoinstrumentationtypes:isoinstrumentationtypeid</title>
<path fill="none" stroke="black" d="M1112.51,-678.43C1282.71,-672.64 1278.71,-523.1 1365.23,-368.4 1400.79,-304.81 1343.38,-212.6 1416.24,-212.6"/>
<polygon fill="black" stroke="black" points="1112.46,-678.43 1102.39,-674.1 1107.13,-678.52 1102.8,-678.59 1102.8,-678.59 1102.8,-678.59 1107.13,-678.52 1102.54,-683.09 1112.46,-678.43"/>
<text text-anchor="start" x="1109.13" y="-688.6" font-family="Arial" font-size="10.00">FOREIGN KEY (isoinstrumentationtypeid) REFERENCES ndb.isoinstrumentationtypes(isoinstrumentationtypeid) ON UPDATE CASCADE ON DELETE CASCADE</text>
</g>
</g>
</svg>
