<?xml version="1.0" encoding="UTF-8" standalone="no"?>
<!DOCTYPE svg PUBLIC "-//W3C//DTD SVG 1.1//EN"
 "http://www.w3.org/Graphics/SVG/1.1/DTD/svg11.dtd">
<!-- Generated by graphviz version 12.1.2 (20240928.0832)
 -->
<!-- Title: ndb.calibrationprograms Pages: 1 -->
<svg width="2062pt" height="996pt"
 viewBox="0.00 0.00 2062.43 996.40" xmlns="http://www.w3.org/2000/svg" xmlns:xlink="http://www.w3.org/1999/xlink">
<g id="graph0" class="graph" transform="scale(1 1) rotate(0) translate(4 992.4)">
<title>ndb.calibrationprograms</title>
<polygon fill="white" stroke="none" points="-4,4 -4,-992.4 2058.43,-992.4 2058.43,4 -4,4"/>
<!-- ndb.calibrationprograms -->
<g id="node1" class="node">
<title>ndb.calibrationprograms</title>
<polygon fill="#efefef" stroke="none" points="1049.98,-320.4 1049.98,-356 1369.78,-356 1369.78,-320.4 1049.98,-320.4"/>
<polygon fill="none" stroke="black" points="1049.98,-320.4 1049.98,-356 1369.78,-356 1369.78,-320.4 1049.98,-320.4"/>
<text text-anchor="start" x="1059.41" y="-333.8" font-family="Arial Bold" font-size="18.00">ndb.calibrationprograms</text>
<text text-anchor="start" x="1235.86" y="-333.8" font-family="Arial" font-size="14.00">    </text>
<text text-anchor="start" x="1266.98" y="-333.8" font-family="Arial" font-size="14.00" fill="#666666">[BASE TABLE]</text>
<polygon fill="none" stroke="black" points="1049.98,-289.6 1049.98,-320.4 1369.78,-320.4 1369.78,-289.6 1049.98,-289.6"/>
<text text-anchor="start" x="1056.98" y="-301.8" font-family="Arial" font-size="14.00">calibrationprogram </text>
<text text-anchor="start" x="1176.81" y="-301.8" font-family="Arial" font-size="14.00" fill="#666666">[varchar(24)]</text>
<polygon fill="none" stroke="black" points="1049.98,-258.8 1049.98,-289.6 1369.78,-289.6 1369.78,-258.8 1049.98,-258.8"/>
<text text-anchor="start" x="1056.98" y="-271" font-family="Arial" font-size="14.00">calibrationprogramid </text>
<text text-anchor="start" x="1187.71" y="-271" font-family="Arial" font-size="14.00" fill="#666666">[integer]</text>
<polygon fill="none" stroke="black" points="1049.98,-228 1049.98,-258.8 1369.78,-258.8 1369.78,-228 1049.98,-228"/>
<text text-anchor="start" x="1056.98" y="-240.2" font-family="Arial" font-size="14.00">recdatecreated </text>
<text text-anchor="start" x="1154.26" y="-240.2" font-family="Arial" font-size="14.00" fill="#666666">[timestamp(0) without time zone]</text>
<polygon fill="none" stroke="black" points="1049.98,-197.2 1049.98,-228 1369.78,-228 1369.78,-197.2 1049.98,-197.2"/>
<text text-anchor="start" x="1056.98" y="-209.4" font-family="Arial" font-size="14.00">recdatemodified </text>
<text text-anchor="start" x="1160.48" y="-209.4" font-family="Arial" font-size="14.00" fill="#666666">[timestamp(0) without time zone]</text>
<polygon fill="none" stroke="black" points="1049.98,-166.4 1049.98,-197.2 1369.78,-197.2 1369.78,-166.4 1049.98,-166.4"/>
<text text-anchor="start" x="1056.98" y="-178.6" font-family="Arial" font-size="14.00">version </text>
<text text-anchor="start" x="1106" y="-178.6" font-family="Arial" font-size="14.00" fill="#666666">[varchar(24)]</text>
<polygon fill="none" stroke="black" stroke-width="3" points="1048.48,-164.9 1048.48,-357.5 1371.28,-357.5 1371.28,-164.9 1048.48,-164.9"/>
</g>
<!-- ndb.chroncontrolscal14c -->
<g id="node2" class="node">
<title>ndb.chroncontrolscal14c</title>
<polygon fill="#efefef" stroke="none" points="1049.98,-832.6 1049.98,-868.2 1369.78,-868.2 1369.78,-832.6 1049.98,-832.6"/>
<polygon fill="none" stroke="black" points="1049.98,-832.6 1049.98,-868.2 1369.78,-868.2 1369.78,-832.6 1049.98,-832.6"/>
<text text-anchor="start" x="1058.91" y="-846" font-family="Arial Bold" font-size="18.00">ndb.chroncontrolscal14c</text>
<text text-anchor="start" x="1236.35" y="-846" font-family="Arial" font-size="14.00">    </text>
<text text-anchor="start" x="1267.47" y="-846" font-family="Arial" font-size="14.00" fill="#666666">[BASE TABLE]</text>
<polygon fill="none" stroke="black" points="1049.98,-801.8 1049.98,-832.6 1369.78,-832.6 1369.78,-801.8 1049.98,-801.8"/>
<text text-anchor="start" x="1056.98" y="-814" font-family="Arial" font-size="14.00">calibrationcurveid </text>
<text text-anchor="start" x="1169.81" y="-814" font-family="Arial" font-size="14.00" fill="#666666">[integer]</text>
<polygon fill="none" stroke="black" points="1049.98,-771 1049.98,-801.8 1369.78,-801.8 1369.78,-771 1049.98,-771"/>
<text text-anchor="start" x="1056.98" y="-783.2" font-family="Arial" font-size="14.00">calibrationprogramid </text>
<text text-anchor="start" x="1187.71" y="-783.2" font-family="Arial" font-size="14.00" fill="#666666">[integer]</text>
<polygon fill="none" stroke="black" points="1049.98,-740.2 1049.98,-771 1369.78,-771 1369.78,-740.2 1049.98,-740.2"/>
<text text-anchor="start" x="1056.98" y="-752.4" font-family="Arial" font-size="14.00">chroncontrolid </text>
<text text-anchor="start" x="1148.81" y="-752.4" font-family="Arial" font-size="14.00" fill="#666666">[integer]</text>
<polygon fill="none" stroke="black" points="1049.98,-709.4 1049.98,-740.2 1369.78,-740.2 1369.78,-709.4 1049.98,-709.4"/>
<text text-anchor="start" x="1056.98" y="-721.6" font-family="Arial" font-size="14.00">recdatecreated </text>
<text text-anchor="start" x="1154.26" y="-721.6" font-family="Arial" font-size="14.00" fill="#666666">[timestamp(0) without time zone]</text>
<polygon fill="none" stroke="black" points="1049.98,-678.6 1049.98,-709.4 1369.78,-709.4 1369.78,-678.6 1049.98,-678.6"/>
<text text-anchor="start" x="1056.98" y="-690.8" font-family="Arial" font-size="14.00">recdatemodified </text>
<text text-anchor="start" x="1160.48" y="-690.8" font-family="Arial" font-size="14.00" fill="#666666">[timestamp(0) without time zone]</text>
</g>
<!-- ndb.chroncontrolscal14c&#45;&gt;ndb.calibrationprograms -->
<g id="edge1" class="edge">
<title>ndb.chroncontrolscal14c:calibrationprogramid&#45;&gt;ndb.calibrationprograms:calibrationprogramid</title>
<path fill="none" stroke="black" d="M1379.9,-781.66C1427.51,-730.02 1424.46,-274.2 1370.78,-274.2"/>
<polygon fill="black" stroke="black" points="1379.95,-781.63 1369,-782.25 1375.21,-784.09 1371.37,-786.09 1371.37,-786.09 1371.37,-786.09 1375.21,-784.09 1373.15,-790.24 1379.95,-781.63"/>
<text text-anchor="start" x="1377.78" y="-796.4" font-family="Arial" font-size="10.00">FOREIGN KEY (calibrationprogramid) REFERENCES ndb.calibrationprograms(calibrationprogramid) ON UPDATE CASCADE ON DELETE CASCADE</text>
</g>
<!-- ndb.calibrationcurves -->
<g id="node3" class="node">
<title>ndb.calibrationcurves</title>
<polygon fill="#efefef" stroke="none" points="622.98,-320.4 622.98,-356 942.78,-356 942.78,-320.4 622.98,-320.4"/>
<polygon fill="none" stroke="black" points="622.98,-320.4 622.98,-356 942.78,-356 942.78,-320.4 622.98,-320.4"/>
<text text-anchor="start" x="642.91" y="-333.8" font-family="Arial Bold" font-size="18.00">ndb.calibrationcurves</text>
<text text-anchor="start" x="798.35" y="-333.8" font-family="Arial" font-size="14.00">    </text>
<text text-anchor="start" x="829.47" y="-333.8" font-family="Arial" font-size="14.00" fill="#666666">[BASE TABLE]</text>
<polygon fill="none" stroke="black" points="622.98,-289.6 622.98,-320.4 942.78,-320.4 942.78,-289.6 622.98,-289.6"/>
<text text-anchor="start" x="629.98" y="-301.8" font-family="Arial" font-size="14.00">calibrationcurve </text>
<text text-anchor="start" x="731.92" y="-301.8" font-family="Arial" font-size="14.00" fill="#666666">[varchar(24)]</text>
<polygon fill="none" stroke="black" points="622.98,-258.8 622.98,-289.6 942.78,-289.6 942.78,-258.8 622.98,-258.8"/>
<text text-anchor="start" x="629.98" y="-271" font-family="Arial" font-size="14.00">calibrationcurveid </text>
<text text-anchor="start" x="742.81" y="-271" font-family="Arial" font-size="14.00" fill="#666666">[integer]</text>
<polygon fill="none" stroke="black" points="622.98,-228 622.98,-258.8 942.78,-258.8 942.78,-228 622.98,-228"/>
<text text-anchor="start" x="629.98" y="-240.2" font-family="Arial" font-size="14.00">publicationid </text>
<text text-anchor="start" x="711.7" y="-240.2" font-family="Arial" font-size="14.00" fill="#666666">[integer]</text>
<polygon fill="none" stroke="black" points="622.98,-197.2 622.98,-228 942.78,-228 942.78,-197.2 622.98,-197.2"/>
<text text-anchor="start" x="629.98" y="-209.4" font-family="Arial" font-size="14.00">recdatecreated </text>
<text text-anchor="start" x="727.26" y="-209.4" font-family="Arial" font-size="14.00" fill="#666666">[timestamp(0) without time zone]</text>
<polygon fill="none" stroke="black" points="622.98,-166.4 622.98,-197.2 942.78,-197.2 942.78,-166.4 622.98,-166.4"/>
<text text-anchor="start" x="629.98" y="-178.6" font-family="Arial" font-size="14.00">recdatemodified </text>
<text text-anchor="start" x="733.48" y="-178.6" font-family="Arial" font-size="14.00" fill="#666666">[timestamp(0) without time zone]</text>
</g>
<!-- ndb.chroncontrolscal14c&#45;&gt;ndb.calibrationcurves -->
<g id="edge2" class="edge">
<title>ndb.chroncontrolscal14c:calibrationcurveid&#45;&gt;ndb.calibrationcurves:calibrationcurveid</title>
<path fill="none" stroke="black" d="M1039.89,-812.83C989.17,-761.44 1001.99,-274.2 943.78,-274.2"/>
<polygon fill="black" stroke="black" points="1039.67,-812.72 1046.73,-821.11 1044.47,-815.03 1048.38,-816.91 1048.38,-816.91 1048.38,-816.91 1044.47,-815.03 1050.63,-813 1039.67,-812.72"/>
<text text-anchor="start" x="1055.98" y="-827.2" font-family="Arial" font-size="10.00">FOREIGN KEY (calibrationcurveid) REFERENCES ndb.calibrationcurves(calibrationcurveid) ON UPDATE CASCADE ON DELETE CASCADE</text>
</g>
<!-- ndb.chroncontrols -->
<g id="node4" class="node">
<title>ndb.chroncontrols</title>
<polygon fill="#efefef" stroke="none" points="1476.98,-443.6 1476.98,-479.2 1796.78,-479.2 1796.78,-443.6 1476.98,-443.6"/>
<polygon fill="none" stroke="black" points="1476.98,-443.6 1476.98,-479.2 1796.78,-479.2 1796.78,-443.6 1476.98,-443.6"/>
<text text-anchor="start" x="1509.4" y="-457" font-family="Arial Bold" font-size="18.00">ndb.chroncontrols</text>
<text text-anchor="start" x="1639.87" y="-457" font-family="Arial" font-size="14.00">    </text>
<text text-anchor="start" x="1670.99" y="-457" font-family="Arial" font-size="14.00" fill="#666666">[BASE TABLE]</text>
<polygon fill="none" stroke="black" points="1476.98,-412.8 1476.98,-443.6 1796.78,-443.6 1796.78,-412.8 1476.98,-412.8"/>
<text text-anchor="start" x="1483.98" y="-425" font-family="Arial" font-size="14.00">age </text>
<text text-anchor="start" x="1511.23" y="-425" font-family="Arial" font-size="14.00" fill="#666666">[double precision]</text>
<polygon fill="none" stroke="black" points="1476.98,-382 1476.98,-412.8 1796.78,-412.8 1796.78,-382 1476.98,-382"/>
<text text-anchor="start" x="1483.98" y="-394.2" font-family="Arial" font-size="14.00">agelimitolder </text>
<text text-anchor="start" x="1567.24" y="-394.2" font-family="Arial" font-size="14.00" fill="#666666">[double precision]</text>
<polygon fill="none" stroke="black" points="1476.98,-351.2 1476.98,-382 1796.78,-382 1796.78,-351.2 1476.98,-351.2"/>
<text text-anchor="start" x="1483.98" y="-363.4" font-family="Arial" font-size="14.00">agelimityounger </text>
<text text-anchor="start" x="1586.7" y="-363.4" font-family="Arial" font-size="14.00" fill="#666666">[double precision]</text>
<polygon fill="none" stroke="black" points="1476.98,-320.4 1476.98,-351.2 1796.78,-351.2 1796.78,-320.4 1476.98,-320.4"/>
<text text-anchor="start" x="1483.98" y="-332.6" font-family="Arial" font-size="14.00">agetypeid </text>
<text text-anchor="start" x="1548.58" y="-332.6" font-family="Arial" font-size="14.00" fill="#666666">[integer]</text>
<polygon fill="none" stroke="black" points="1476.98,-289.6 1476.98,-320.4 1796.78,-320.4 1796.78,-289.6 1476.98,-289.6"/>
<text text-anchor="start" x="1483.98" y="-301.8" font-family="Arial" font-size="14.00">analysisunitid </text>
<text text-anchor="start" x="1571.92" y="-301.8" font-family="Arial" font-size="14.00" fill="#666666">[integer]</text>
<polygon fill="none" stroke="black" points="1476.98,-258.8 1476.98,-289.6 1796.78,-289.6 1796.78,-258.8 1476.98,-258.8"/>
<text text-anchor="start" x="1483.98" y="-271" font-family="Arial" font-size="14.00">chroncontrolid </text>
<text text-anchor="start" x="1575.81" y="-271" font-family="Arial" font-size="14.00" fill="#666666">[integer]</text>
<polygon fill="none" stroke="black" points="1476.98,-228 1476.98,-258.8 1796.78,-258.8 1796.78,-228 1476.98,-228"/>
<text text-anchor="start" x="1483.98" y="-240.2" font-family="Arial" font-size="14.00">chroncontroltypeid </text>
<text text-anchor="start" x="1602.27" y="-240.2" font-family="Arial" font-size="14.00" fill="#666666">[integer]</text>
<polygon fill="none" stroke="black" points="1476.98,-197.2 1476.98,-228 1796.78,-228 1796.78,-197.2 1476.98,-197.2"/>
<text text-anchor="start" x="1483.98" y="-209.4" font-family="Arial" font-size="14.00">chronologyid </text>
<text text-anchor="start" x="1567.25" y="-209.4" font-family="Arial" font-size="14.00" fill="#666666">[integer]</text>
<polygon fill="none" stroke="black" points="1476.98,-166.4 1476.98,-197.2 1796.78,-197.2 1796.78,-166.4 1476.98,-166.4"/>
<text text-anchor="start" x="1483.98" y="-178.6" font-family="Arial" font-size="14.00">depth </text>
<text text-anchor="start" x="1522.9" y="-178.6" font-family="Arial" font-size="14.00" fill="#666666">[double precision]</text>
<polygon fill="none" stroke="black" points="1476.98,-135.6 1476.98,-166.4 1796.78,-166.4 1796.78,-135.6 1476.98,-135.6"/>
<text text-anchor="start" x="1483.98" y="-147.8" font-family="Arial" font-size="14.00">notes </text>
<text text-anchor="start" x="1522.12" y="-147.8" font-family="Arial" font-size="14.00" fill="#666666">[text]</text>
<polygon fill="none" stroke="black" points="1476.98,-104.8 1476.98,-135.6 1796.78,-135.6 1796.78,-104.8 1476.98,-104.8"/>
<text text-anchor="start" x="1483.98" y="-117" font-family="Arial" font-size="14.00">recdatecreated </text>
<text text-anchor="start" x="1581.26" y="-117" font-family="Arial" font-size="14.00" fill="#666666">[timestamp(0) without time zone]</text>
<polygon fill="none" stroke="black" points="1476.98,-74 1476.98,-104.8 1796.78,-104.8 1796.78,-74 1476.98,-74"/>
<text text-anchor="start" x="1483.98" y="-86.2" font-family="Arial" font-size="14.00">recdatemodified </text>
<text text-anchor="start" x="1587.48" y="-86.2" font-family="Arial" font-size="14.00" fill="#666666">[timestamp(0) without time zone]</text>
<polygon fill="none" stroke="black" points="1476.98,-43.2 1476.98,-74 1796.78,-74 1796.78,-43.2 1476.98,-43.2"/>
<text text-anchor="start" x="1483.98" y="-55.4" font-family="Arial" font-size="14.00">thickness </text>
<text text-anchor="start" x="1546.23" y="-55.4" font-family="Arial" font-size="14.00" fill="#666666">[double precision]</text>
</g>
<!-- ndb.chroncontrolscal14c&#45;&gt;ndb.chroncontrols -->
<g id="edge3" class="edge">
<title>ndb.chroncontrolscal14c:chroncontrolid&#45;&gt;ndb.chroncontrols:chroncontrolid</title>
<path fill="none" stroke="black" d="M1381.06,-755.15C1472.16,-746.79 1402.9,-622.78 1424.88,-522.4 1436.92,-467.39 1419.67,-274.2 1475.98,-274.2"/>
<polygon fill="black" stroke="black" points="1381.1,-755.15 1370.92,-751.09 1375.77,-755.38 1371.45,-755.57 1371.45,-755.57 1371.45,-755.57 1375.77,-755.38 1371.31,-760.08 1381.1,-755.15"/>
<text text-anchor="start" x="1377.78" y="-765.6" font-family="Arial" font-size="10.00">FOREIGN KEY (chroncontrolid) REFERENCES ndb.chroncontrols(chroncontrolid) ON UPDATE CASCADE ON DELETE CASCADE</text>
</g>
<!-- ndb.specimendatescal -->
<g id="node5" class="node">
<title>ndb.specimendatescal</title>
<polygon fill="#efefef" stroke="none" points="622.98,-909.6 622.98,-945.2 942.78,-945.2 942.78,-909.6 622.98,-909.6"/>
<polygon fill="none" stroke="black" points="622.98,-909.6 622.98,-945.2 942.78,-945.2 942.78,-909.6 622.98,-909.6"/>
<text text-anchor="start" x="641.91" y="-923" font-family="Arial Bold" font-size="18.00">ndb.specimendatescal</text>
<text text-anchor="start" x="799.35" y="-923" font-family="Arial" font-size="14.00">    </text>
<text text-anchor="start" x="830.47" y="-923" font-family="Arial" font-size="14.00" fill="#666666">[BASE TABLE]</text>
<polygon fill="none" stroke="black" points="622.98,-878.8 622.98,-909.6 942.78,-909.6 942.78,-878.8 622.98,-878.8"/>
<text text-anchor="start" x="629.98" y="-891" font-family="Arial" font-size="14.00">calage </text>
<text text-anchor="start" x="675.12" y="-891" font-family="Arial" font-size="14.00" fill="#666666">[double precision]</text>
<polygon fill="none" stroke="black" points="622.98,-848 622.98,-878.8 942.78,-878.8 942.78,-848 622.98,-848"/>
<text text-anchor="start" x="629.98" y="-860.2" font-family="Arial" font-size="14.00">calageolder </text>
<text text-anchor="start" x="706.25" y="-860.2" font-family="Arial" font-size="14.00" fill="#666666">[double precision]</text>
<polygon fill="none" stroke="black" points="622.98,-817.2 622.98,-848 942.78,-848 942.78,-817.2 622.98,-817.2"/>
<text text-anchor="start" x="629.98" y="-829.4" font-family="Arial" font-size="14.00">calageyounger </text>
<text text-anchor="start" x="725.72" y="-829.4" font-family="Arial" font-size="14.00" fill="#666666">[double precision]</text>
<polygon fill="none" stroke="black" points="622.98,-786.4 622.98,-817.2 942.78,-817.2 942.78,-786.4 622.98,-786.4"/>
<text text-anchor="start" x="629.98" y="-798.6" font-family="Arial" font-size="14.00">calibrationcurveid </text>
<text text-anchor="start" x="742.81" y="-798.6" font-family="Arial" font-size="14.00" fill="#666666">[integer]</text>
<polygon fill="none" stroke="black" points="622.98,-755.6 622.98,-786.4 942.78,-786.4 942.78,-755.6 622.98,-755.6"/>
<text text-anchor="start" x="629.98" y="-767.8" font-family="Arial" font-size="14.00">calibrationprogramid </text>
<text text-anchor="start" x="760.71" y="-767.8" font-family="Arial" font-size="14.00" fill="#666666">[integer]</text>
<polygon fill="none" stroke="black" points="622.98,-724.8 622.98,-755.6 942.78,-755.6 942.78,-724.8 622.98,-724.8"/>
<text text-anchor="start" x="629.98" y="-737" font-family="Arial" font-size="14.00">datecalibrated </text>
<text text-anchor="start" x="721.82" y="-737" font-family="Arial" font-size="14.00" fill="#666666">[date]</text>
<polygon fill="none" stroke="black" points="622.98,-694 622.98,-724.8 942.78,-724.8 942.78,-694 622.98,-694"/>
<text text-anchor="start" x="629.98" y="-706.2" font-family="Arial" font-size="14.00">recdatecreated </text>
<text text-anchor="start" x="727.26" y="-706.2" font-family="Arial" font-size="14.00" fill="#666666">[timestamp(0) without time zone]</text>
<polygon fill="none" stroke="black" points="622.98,-663.2 622.98,-694 942.78,-694 942.78,-663.2 622.98,-663.2"/>
<text text-anchor="start" x="629.98" y="-675.4" font-family="Arial" font-size="14.00">recdatemodified </text>
<text text-anchor="start" x="733.48" y="-675.4" font-family="Arial" font-size="14.00" fill="#666666">[timestamp(0) without time zone]</text>
<polygon fill="none" stroke="black" points="622.98,-632.4 622.98,-663.2 942.78,-663.2 942.78,-632.4 622.98,-632.4"/>
<text text-anchor="start" x="629.98" y="-644.6" font-family="Arial" font-size="14.00">specimendatecalid </text>
<text text-anchor="start" x="749.83" y="-644.6" font-family="Arial" font-size="14.00" fill="#666666">[integer]</text>
<polygon fill="none" stroke="black" points="622.98,-601.6 622.98,-632.4 942.78,-632.4 942.78,-601.6 622.98,-601.6"/>
<text text-anchor="start" x="629.98" y="-613.8" font-family="Arial" font-size="14.00">specimendateid </text>
<text text-anchor="start" x="731.93" y="-613.8" font-family="Arial" font-size="14.00" fill="#666666">[integer]</text>
</g>
<!-- ndb.specimendatescal&#45;&gt;ndb.calibrationprograms -->
<g id="edge4" class="edge">
<title>ndb.specimendatescal:calibrationprogramid&#45;&gt;ndb.calibrationprograms:calibrationprogramid</title>
<path fill="none" stroke="black" d="M953.98,-769.49C1049.1,-739.5 939.77,-274.2 1048.98,-274.2"/>
<polygon fill="black" stroke="black" points="954,-769.48 943.45,-766.5 948.72,-770.27 944.44,-770.9 944.44,-770.9 944.44,-770.9 948.72,-770.27 944.77,-775.4 954,-769.48"/>
<text text-anchor="start" x="267.13" y="-781" font-family="Arial" font-size="10.00">FOREIGN KEY (calibrationprogramid) REFERENCES ndb.calibrationprograms(calibrationprogramid) ON UPDATE CASCADE ON DELETE CASCADE</text>
</g>
<!-- ndb.specimendatescal&#45;&gt;ndb.calibrationcurves -->
<g id="edge5" class="edge">
<title>ndb.specimendatescal:calibrationcurveid&#45;&gt;ndb.calibrationcurves:calibrationcurveid</title>
<path fill="none" stroke="black" d="M952.87,-797.24C1002.22,-745.67 999.19,-274.2 943.78,-274.2"/>
<polygon fill="black" stroke="black" points="953.01,-797.17 942.06,-797.63 948.25,-799.56 944.38,-801.5 944.38,-801.5 944.38,-801.5 948.25,-799.56 946.09,-805.67 953.01,-797.17"/>
<text text-anchor="start" x="305.48" y="-811.8" font-family="Arial" font-size="10.00">FOREIGN KEY (calibrationcurveid) REFERENCES ndb.calibrationcurves(calibrationcurveid) ON UPDATE CASCADE ON DELETE CASCADE</text>
</g>
<!-- ndb.specimendates -->
<g id="node6" class="node">
<title>ndb.specimendates</title>
<polygon fill="#efefef" stroke="none" points="198.98,-397.4 198.98,-433 518.78,-433 518.78,-397.4 198.98,-397.4"/>
<polygon fill="none" stroke="black" points="198.98,-397.4 198.98,-433 518.78,-433 518.78,-397.4 198.98,-397.4"/>
<text text-anchor="start" x="228.4" y="-410.8" font-family="Arial Bold" font-size="18.00">ndb.specimendates</text>
<text text-anchor="start" x="364.86" y="-410.8" font-family="Arial" font-size="14.00">    </text>
<text text-anchor="start" x="395.98" y="-410.8" font-family="Arial" font-size="14.00" fill="#666666">[BASE TABLE]</text>
<polygon fill="none" stroke="black" points="198.98,-366.6 198.98,-397.4 518.78,-397.4 518.78,-366.6 198.98,-366.6"/>
<text text-anchor="start" x="205.98" y="-378.8" font-family="Arial" font-size="14.00">elementtypeid </text>
<text text-anchor="start" x="297.03" y="-378.8" font-family="Arial" font-size="14.00" fill="#666666">[integer]</text>
<polygon fill="none" stroke="black" points="198.98,-335.8 198.98,-366.6 518.78,-366.6 518.78,-335.8 198.98,-335.8"/>
<text text-anchor="start" x="205.98" y="-348" font-family="Arial" font-size="14.00">fractionid </text>
<text text-anchor="start" x="266.67" y="-348" font-family="Arial" font-size="14.00" fill="#666666">[integer]</text>
<polygon fill="none" stroke="black" points="198.98,-305 198.98,-335.8 518.78,-335.8 518.78,-305 198.98,-305"/>
<text text-anchor="start" x="205.98" y="-317.2" font-family="Arial" font-size="14.00">geochronid </text>
<text text-anchor="start" x="279.14" y="-317.2" font-family="Arial" font-size="14.00" fill="#666666">[integer]</text>
<polygon fill="none" stroke="black" points="198.98,-274.2 198.98,-305 518.78,-305 518.78,-274.2 198.98,-274.2"/>
<text text-anchor="start" x="205.98" y="-286.4" font-family="Arial" font-size="14.00">notes </text>
<text text-anchor="start" x="244.12" y="-286.4" font-family="Arial" font-size="14.00" fill="#666666">[text]</text>
<polygon fill="none" stroke="black" points="198.98,-243.4 198.98,-274.2 518.78,-274.2 518.78,-243.4 198.98,-243.4"/>
<text text-anchor="start" x="205.98" y="-255.6" font-family="Arial" font-size="14.00">recdatecreated </text>
<text text-anchor="start" x="303.26" y="-255.6" font-family="Arial" font-size="14.00" fill="#666666">[timestamp(0) without time zone]</text>
<polygon fill="none" stroke="black" points="198.98,-212.6 198.98,-243.4 518.78,-243.4 518.78,-212.6 198.98,-212.6"/>
<text text-anchor="start" x="205.98" y="-224.8" font-family="Arial" font-size="14.00">recdatemodified </text>
<text text-anchor="start" x="309.48" y="-224.8" font-family="Arial" font-size="14.00" fill="#666666">[timestamp(0) without time zone]</text>
<polygon fill="none" stroke="black" points="198.98,-181.8 198.98,-212.6 518.78,-212.6 518.78,-181.8 198.98,-181.8"/>
<text text-anchor="start" x="205.98" y="-194" font-family="Arial" font-size="14.00">sampleid </text>
<text text-anchor="start" x="265.9" y="-194" font-family="Arial" font-size="14.00" fill="#666666">[integer]</text>
<polygon fill="none" stroke="black" points="198.98,-151 198.98,-181.8 518.78,-181.8 518.78,-151 198.98,-151"/>
<text text-anchor="start" x="205.98" y="-163.2" font-family="Arial" font-size="14.00">specimendateid </text>
<text text-anchor="start" x="307.93" y="-163.2" font-family="Arial" font-size="14.00" fill="#666666">[integer]</text>
<polygon fill="none" stroke="black" points="198.98,-120.2 198.98,-151 518.78,-151 518.78,-120.2 198.98,-120.2"/>
<text text-anchor="start" x="205.98" y="-132.4" font-family="Arial" font-size="14.00">specimenid </text>
<text text-anchor="start" x="280.68" y="-132.4" font-family="Arial" font-size="14.00" fill="#666666">[integer]</text>
<polygon fill="none" stroke="black" points="198.98,-89.4 198.98,-120.2 518.78,-120.2 518.78,-89.4 198.98,-89.4"/>
<text text-anchor="start" x="205.98" y="-101.6" font-family="Arial" font-size="14.00">taxonid </text>
<text text-anchor="start" x="255.01" y="-101.6" font-family="Arial" font-size="14.00" fill="#666666">[integer]</text>
</g>
<!-- ndb.specimendatescal&#45;&gt;ndb.specimendates -->
<g id="edge6" class="edge">
<title>ndb.specimendatescal:specimendateid&#45;&gt;ndb.specimendates:specimendateid</title>
<path fill="none" stroke="black" d="M611.83,-616.12C575.85,-609.33 584.69,-564.23 570.88,-522.4 545.82,-446.51 599.7,-166.4 519.78,-166.4"/>
<polygon fill="black" stroke="black" points="611.68,-616.11 621.26,-621.45 617,-616.57 621.31,-616.94 621.31,-616.94 621.31,-616.94 617,-616.57 622.03,-612.49 611.68,-616.11"/>
<text text-anchor="start" x="7" y="-627" font-family="Arial" font-size="10.00">FOREIGN KEY (specimendateid) REFERENCES ndb.specimendates(specimendateid) ON UPDATE CASCADE ON DELETE CASCADE</text>
</g>
</g>
</svg>
