<?xml version="1.0" encoding="UTF-8" standalone="no"?>
<!DOCTYPE svg PUBLIC "-//W3C//DTD SVG 1.1//EN"
 "http://www.w3.org/Graphics/SVG/1.1/DTD/svg11.dtd">
<!-- Generated by graphviz version 12.1.2 (20240928.0832)
 -->
<!-- Title: ndb.pubtsv Pages: 1 -->
<svg width="269pt" height="198pt"
 viewBox="0.00 0.00 268.58 197.60" xmlns="http://www.w3.org/2000/svg" xmlns:xlink="http://www.w3.org/1999/xlink">
<g id="graph0" class="graph" transform="scale(1 1) rotate(0) translate(4 193.6)">
<title>ndb.pubtsv</title>
<polygon fill="white" stroke="none" points="-4,4 -4,-193.6 264.58,-193.6 264.58,4 -4,4"/>
<!-- ndb.pubtsv -->
<g id="node1" class="node">
<title>ndb.pubtsv</title>
<polygon fill="#efefef" stroke="none" points="46.2,-107.8 46.2,-143.4 214.38,-143.4 214.38,-107.8 46.2,-107.8"/>
<polygon fill="none" stroke="black" points="46.2,-107.8 46.2,-143.4 214.38,-143.4 214.38,-107.8 46.2,-107.8"/>
<text text-anchor="start" x="53.2" y="-121.2" font-family="Arial Bold" font-size="18.00">ndb.pubtsv</text>
<text text-anchor="start" x="132.71" y="-121.2" font-family="Arial" font-size="14.00">    </text>
<text text-anchor="start" x="163.82" y="-121.2" font-family="Arial" font-size="14.00" fill="#666666">[VIEW]</text>
<polygon fill="none" stroke="black" points="46.2,-77 46.2,-107.8 214.38,-107.8 214.38,-77 46.2,-77"/>
<text text-anchor="start" x="53.2" y="-89.2" font-family="Arial" font-size="14.00">publicationid </text>
<text text-anchor="start" x="134.92" y="-89.2" font-family="Arial" font-size="14.00" fill="#666666">[integer]</text>
<polygon fill="none" stroke="black" points="46.2,-46.2 46.2,-77 214.38,-77 214.38,-46.2 46.2,-46.2"/>
<text text-anchor="start" x="53.2" y="-58.4" font-family="Arial" font-size="14.00">pubtsv </text>
<text text-anchor="start" x="98.34" y="-58.4" font-family="Arial" font-size="14.00" fill="#666666">[tsvector]</text>
<polygon fill="none" stroke="black" stroke-width="3" points="44.7,-44.7 44.7,-144.9 215.88,-144.9 215.88,-44.7 44.7,-44.7"/>
</g>
</g>
</svg>
