<?xml version="1.0" encoding="UTF-8" standalone="no"?>
<!DOCTYPE svg PUBLIC "-//W3C//DTD SVG 1.1//EN"
 "http://www.w3.org/Graphics/SVG/1.1/DTD/svg11.dtd">
<!-- Generated by graphviz version 12.1.2 (20240928.0832)
 -->
<!-- Title: ndb.specimendomesticstatustypes Pages: 1 -->
<svg width="3454pt" height="1462pt"
 viewBox="0.00 0.00 3454.27 1462.40" xmlns="http://www.w3.org/2000/svg" xmlns:xlink="http://www.w3.org/1999/xlink">
<g id="graph0" class="graph" transform="scale(1 1) rotate(0) translate(4 1458.4)">
<title>ndb.specimendomesticstatustypes</title>
<polygon fill="white" stroke="none" points="-4,4 -4,-1458.4 3450.27,-1458.4 3450.27,4 -4,4"/>
<!-- ndb.specimendomesticstatustypes -->
<g id="node1" class="node">
<title>ndb.specimendomesticstatustypes</title>
<polygon fill="#efefef" stroke="none" points="46.2,-197.2 46.2,-232.8 428.15,-232.8 428.15,-197.2 46.2,-197.2"/>
<polygon fill="none" stroke="black" points="46.2,-197.2 46.2,-232.8 428.15,-232.8 428.15,-197.2 46.2,-197.2"/>
<text text-anchor="start" x="53.2" y="-210.6" font-family="Arial Bold" font-size="18.00">ndb.specimendomesticstatustypes</text>
<text text-anchor="start" x="296.66" y="-210.6" font-family="Arial" font-size="14.00">    </text>
<text text-anchor="start" x="327.77" y="-210.6" font-family="Arial" font-size="14.00" fill="#666666">[BASE TABLE]</text>
<polygon fill="none" stroke="black" points="46.2,-166.4 46.2,-197.2 428.15,-197.2 428.15,-166.4 46.2,-166.4"/>
<text text-anchor="start" x="53.2" y="-178.6" font-family="Arial" font-size="14.00">domesticstatus </text>
<text text-anchor="start" x="150.46" y="-178.6" font-family="Arial" font-size="14.00" fill="#666666">[varchar(24)]</text>
<polygon fill="none" stroke="black" points="46.2,-135.6 46.2,-166.4 428.15,-166.4 428.15,-135.6 46.2,-135.6"/>
<text text-anchor="start" x="53.2" y="-147.8" font-family="Arial" font-size="14.00">domesticstatusid </text>
<text text-anchor="start" x="161.36" y="-147.8" font-family="Arial" font-size="14.00" fill="#666666">[integer]</text>
<polygon fill="none" stroke="black" points="46.2,-104.8 46.2,-135.6 428.15,-135.6 428.15,-104.8 46.2,-104.8"/>
<text text-anchor="start" x="53.2" y="-117" font-family="Arial" font-size="14.00">recdatecreated </text>
<text text-anchor="start" x="150.48" y="-117" font-family="Arial" font-size="14.00" fill="#666666">[timestamp(0) without time zone]</text>
<polygon fill="none" stroke="black" points="46.2,-74 46.2,-104.8 428.15,-104.8 428.15,-74 46.2,-74"/>
<text text-anchor="start" x="53.2" y="-86.2" font-family="Arial" font-size="14.00">recdatemodified </text>
<text text-anchor="start" x="156.7" y="-86.2" font-family="Arial" font-size="14.00" fill="#666666">[timestamp(0) without time zone]</text>
<polygon fill="none" stroke="black" stroke-width="3" points="44.7,-72.5 44.7,-234.3 429.65,-234.3 429.65,-72.5 44.7,-72.5"/>
</g>
<!-- ndb.specimens -->
<g id="node2" class="node">
<title>ndb.specimens</title>
<polygon fill="#efefef" stroke="none" points="1595.27,-909.6 1595.27,-945.2 1915.07,-945.2 1915.07,-909.6 1595.27,-909.6"/>
<polygon fill="none" stroke="black" points="1595.27,-909.6 1595.27,-945.2 1915.07,-945.2 1915.07,-909.6 1595.27,-909.6"/>
<text text-anchor="start" x="1639.69" y="-923" font-family="Arial Bold" font-size="18.00">ndb.specimens</text>
<text text-anchor="start" x="1746.17" y="-923" font-family="Arial" font-size="14.00">    </text>
<text text-anchor="start" x="1777.29" y="-923" font-family="Arial" font-size="14.00" fill="#666666">[BASE TABLE]</text>
<polygon fill="none" stroke="black" points="1595.27,-878.8 1595.27,-909.6 1915.07,-909.6 1915.07,-878.8 1595.27,-878.8"/>
<text text-anchor="start" x="1602.27" y="-891" font-family="Arial" font-size="14.00">arctosnr </text>
<text text-anchor="start" x="1656.74" y="-891" font-family="Arial" font-size="14.00" fill="#666666">[varchar(50)]</text>
<polygon fill="none" stroke="black" points="1595.27,-848 1595.27,-878.8 1915.07,-878.8 1915.07,-848 1595.27,-848"/>
<text text-anchor="start" x="1602.27" y="-860.2" font-family="Arial" font-size="14.00">dataid </text>
<text text-anchor="start" x="1644.31" y="-860.2" font-family="Arial" font-size="14.00" fill="#666666">[integer]</text>
<polygon fill="none" stroke="black" points="1595.27,-817.2 1595.27,-848 1915.07,-848 1915.07,-817.2 1595.27,-817.2"/>
<text text-anchor="start" x="1602.27" y="-829.4" font-family="Arial" font-size="14.00">domesticstatusid </text>
<text text-anchor="start" x="1710.43" y="-829.4" font-family="Arial" font-size="14.00" fill="#666666">[integer]</text>
<polygon fill="none" stroke="black" points="1595.27,-786.4 1595.27,-817.2 1915.07,-817.2 1915.07,-786.4 1595.27,-786.4"/>
<text text-anchor="start" x="1602.27" y="-798.6" font-family="Arial" font-size="14.00">elementtypeid </text>
<text text-anchor="start" x="1693.33" y="-798.6" font-family="Arial" font-size="14.00" fill="#666666">[integer]</text>
<polygon fill="none" stroke="black" points="1595.27,-755.6 1595.27,-786.4 1915.07,-786.4 1915.07,-755.6 1595.27,-755.6"/>
<text text-anchor="start" x="1602.27" y="-767.8" font-family="Arial" font-size="14.00">fieldnr </text>
<text text-anchor="start" x="1644.29" y="-767.8" font-family="Arial" font-size="14.00" fill="#666666">[varchar(50)]</text>
<polygon fill="none" stroke="black" points="1595.27,-724.8 1595.27,-755.6 1915.07,-755.6 1915.07,-724.8 1595.27,-724.8"/>
<text text-anchor="start" x="1602.27" y="-737" font-family="Arial" font-size="14.00">maturityid </text>
<text text-anchor="start" x="1666.85" y="-737" font-family="Arial" font-size="14.00" fill="#666666">[integer]</text>
<polygon fill="none" stroke="black" points="1595.27,-694 1595.27,-724.8 1915.07,-724.8 1915.07,-694 1595.27,-694"/>
<text text-anchor="start" x="1602.27" y="-706.2" font-family="Arial" font-size="14.00">nisp </text>
<text text-anchor="start" x="1631.85" y="-706.2" font-family="Arial" font-size="14.00" fill="#666666">[double precision]</text>
<polygon fill="none" stroke="black" points="1595.27,-663.2 1595.27,-694 1915.07,-694 1915.07,-663.2 1595.27,-663.2"/>
<text text-anchor="start" x="1602.27" y="-675.4" font-family="Arial" font-size="14.00">notes </text>
<text text-anchor="start" x="1640.41" y="-675.4" font-family="Arial" font-size="14.00" fill="#666666">[text]</text>
<polygon fill="none" stroke="black" points="1595.27,-632.4 1595.27,-663.2 1915.07,-663.2 1915.07,-632.4 1595.27,-632.4"/>
<text text-anchor="start" x="1602.27" y="-644.6" font-family="Arial" font-size="14.00">portionid </text>
<text text-anchor="start" x="1659.87" y="-644.6" font-family="Arial" font-size="14.00" fill="#666666">[integer]</text>
<polygon fill="none" stroke="black" points="1595.27,-601.6 1595.27,-632.4 1915.07,-632.4 1915.07,-601.6 1595.27,-601.6"/>
<text text-anchor="start" x="1602.27" y="-613.8" font-family="Arial" font-size="14.00">preservative </text>
<text text-anchor="start" x="1682.42" y="-613.8" font-family="Arial" font-size="14.00" fill="#666666">[varchar(256)]</text>
<polygon fill="none" stroke="black" points="1595.27,-570.8 1595.27,-601.6 1915.07,-601.6 1915.07,-570.8 1595.27,-570.8"/>
<text text-anchor="start" x="1602.27" y="-583" font-family="Arial" font-size="14.00">recdatecreated </text>
<text text-anchor="start" x="1699.56" y="-583" font-family="Arial" font-size="14.00" fill="#666666">[timestamp(0) without time zone]</text>
<polygon fill="none" stroke="black" points="1595.27,-540 1595.27,-570.8 1915.07,-570.8 1915.07,-540 1595.27,-540"/>
<text text-anchor="start" x="1602.27" y="-552.2" font-family="Arial" font-size="14.00">recdatemodified </text>
<text text-anchor="start" x="1705.78" y="-552.2" font-family="Arial" font-size="14.00" fill="#666666">[timestamp(0) without time zone]</text>
<polygon fill="none" stroke="black" points="1595.27,-509.2 1595.27,-540 1915.07,-540 1915.07,-509.2 1595.27,-509.2"/>
<text text-anchor="start" x="1602.27" y="-521.4" font-family="Arial" font-size="14.00">repositoryid </text>
<text text-anchor="start" x="1678.53" y="-521.4" font-family="Arial" font-size="14.00" fill="#666666">[integer]</text>
<polygon fill="none" stroke="black" points="1595.27,-478.4 1595.27,-509.2 1915.07,-509.2 1915.07,-478.4 1595.27,-478.4"/>
<text text-anchor="start" x="1602.27" y="-490.6" font-family="Arial" font-size="14.00">sexid </text>
<text text-anchor="start" x="1638.85" y="-490.6" font-family="Arial" font-size="14.00" fill="#666666">[integer]</text>
<polygon fill="none" stroke="black" points="1595.27,-447.6 1595.27,-478.4 1915.07,-478.4 1915.07,-447.6 1595.27,-447.6"/>
<text text-anchor="start" x="1602.27" y="-459.8" font-family="Arial" font-size="14.00">specimenid </text>
<text text-anchor="start" x="1676.98" y="-459.8" font-family="Arial" font-size="14.00" fill="#666666">[integer]</text>
<polygon fill="none" stroke="black" points="1595.27,-416.8 1595.27,-447.6 1915.07,-447.6 1915.07,-416.8 1595.27,-416.8"/>
<text text-anchor="start" x="1602.27" y="-429" font-family="Arial" font-size="14.00">specimennr </text>
<text text-anchor="start" x="1678.53" y="-429" font-family="Arial" font-size="14.00" fill="#666666">[varchar(50)]</text>
<polygon fill="none" stroke="black" points="1595.27,-386 1595.27,-416.8 1915.07,-416.8 1915.07,-386 1595.27,-386"/>
<text text-anchor="start" x="1602.27" y="-398.2" font-family="Arial" font-size="14.00">symmetryid </text>
<text text-anchor="start" x="1677.72" y="-398.2" font-family="Arial" font-size="14.00" fill="#666666">[integer]</text>
</g>
<!-- ndb.specimens&#45;&gt;ndb.specimendomesticstatustypes -->
<g id="edge1" class="edge">
<title>ndb.specimens:domesticstatusid&#45;&gt;ndb.specimendomesticstatustypes:domesticstatusid</title>
<path fill="none" stroke="black" d="M1583.91,-832.59C1045.4,-831.08 845.71,-710.85 483.17,-306.8 434.23,-252.25 502.44,-151 429.15,-151"/>
<polygon fill="black" stroke="black" points="1583.94,-832.59 1593.93,-837.1 1589.27,-832.59 1593.6,-832.6 1593.6,-832.6 1593.6,-832.6 1589.27,-832.59 1593.95,-828.1 1583.94,-832.59"/>
<text text-anchor="start" x="904.3" y="-842.6" font-family="Arial" font-size="10.00">FOREIGN KEY (domesticstatusid) REFERENCES ndb.specimendomesticstatustypes(domesticstatusid) ON UPDATE CASCADE ON DELETE CASCADE</text>
</g>
<!-- ndb.data -->
<g id="node3" class="node">
<title>ndb.data</title>
<polygon fill="#efefef" stroke="none" points="535.27,-228 535.27,-263.6 855.07,-263.6 855.07,-228 535.27,-228"/>
<polygon fill="none" stroke="black" points="535.27,-228 535.27,-263.6 855.07,-263.6 855.07,-228 535.27,-228"/>
<text text-anchor="start" x="602.19" y="-241.4" font-family="Arial Bold" font-size="18.00">ndb.data</text>
<text text-anchor="start" x="663.67" y="-241.4" font-family="Arial" font-size="14.00">    </text>
<text text-anchor="start" x="694.79" y="-241.4" font-family="Arial" font-size="14.00" fill="#666666">[BASE TABLE]</text>
<polygon fill="none" stroke="black" points="535.27,-197.2 535.27,-228 855.07,-228 855.07,-197.2 535.27,-197.2"/>
<text text-anchor="start" x="542.27" y="-209.4" font-family="Arial" font-size="14.00">dataid </text>
<text text-anchor="start" x="584.31" y="-209.4" font-family="Arial" font-size="14.00" fill="#666666">[integer]</text>
<polygon fill="none" stroke="black" points="535.27,-166.4 535.27,-197.2 855.07,-197.2 855.07,-166.4 535.27,-166.4"/>
<text text-anchor="start" x="542.27" y="-178.6" font-family="Arial" font-size="14.00">recdatecreated </text>
<text text-anchor="start" x="639.56" y="-178.6" font-family="Arial" font-size="14.00" fill="#666666">[timestamp(0) without time zone]</text>
<polygon fill="none" stroke="black" points="535.27,-135.6 535.27,-166.4 855.07,-166.4 855.07,-135.6 535.27,-135.6"/>
<text text-anchor="start" x="542.27" y="-147.8" font-family="Arial" font-size="14.00">recdatemodified </text>
<text text-anchor="start" x="645.78" y="-147.8" font-family="Arial" font-size="14.00" fill="#666666">[timestamp(0) without time zone]</text>
<polygon fill="none" stroke="black" points="535.27,-104.8 535.27,-135.6 855.07,-135.6 855.07,-104.8 535.27,-104.8"/>
<text text-anchor="start" x="542.27" y="-117" font-family="Arial" font-size="14.00">sampleid </text>
<text text-anchor="start" x="602.19" y="-117" font-family="Arial" font-size="14.00" fill="#666666">[integer]</text>
<polygon fill="none" stroke="black" points="535.27,-74 535.27,-104.8 855.07,-104.8 855.07,-74 535.27,-74"/>
<text text-anchor="start" x="542.27" y="-86.2" font-family="Arial" font-size="14.00">value </text>
<text text-anchor="start" x="579.63" y="-86.2" font-family="Arial" font-size="14.00" fill="#666666">[double precision]</text>
<polygon fill="none" stroke="black" points="535.27,-43.2 535.27,-74 855.07,-74 855.07,-43.2 535.27,-43.2"/>
<text text-anchor="start" x="542.27" y="-55.4" font-family="Arial" font-size="14.00">variableid </text>
<text text-anchor="start" x="606.09" y="-55.4" font-family="Arial" font-size="14.00" fill="#666666">[integer]</text>
</g>
<!-- ndb.specimens&#45;&gt;ndb.data -->
<g id="edge2" class="edge">
<title>ndb.specimens:dataid&#45;&gt;ndb.data:dataid</title>
<path fill="none" stroke="black" d="M1583.99,-863.34C1200.5,-858.92 1156.18,-606.37 907.17,-306.8 876.73,-270.17 903.7,-212.6 856.07,-212.6"/>
<polygon fill="black" stroke="black" points="1583.94,-863.34 1593.91,-867.9 1589.27,-863.37 1593.6,-863.4 1593.6,-863.4 1593.6,-863.4 1589.27,-863.37 1593.97,-858.9 1583.94,-863.34"/>
<text text-anchor="start" x="1112.69" y="-873.4" font-family="Arial" font-size="10.00">FOREIGN KEY (dataid) REFERENCES ndb.data(dataid) ON UPDATE CASCADE ON DELETE CASCADE</text>
</g>
<!-- ndb.elementtypes -->
<g id="node4" class="node">
<title>ndb.elementtypes</title>
<polygon fill="#efefef" stroke="none" points="959.27,-197.2 959.27,-232.8 1279.07,-232.8 1279.07,-197.2 959.27,-197.2"/>
<polygon fill="none" stroke="black" points="959.27,-197.2 959.27,-232.8 1279.07,-232.8 1279.07,-197.2 959.27,-197.2"/>
<text text-anchor="start" x="993.7" y="-210.6" font-family="Arial Bold" font-size="18.00">ndb.elementtypes</text>
<text text-anchor="start" x="1120.16" y="-210.6" font-family="Arial" font-size="14.00">    </text>
<text text-anchor="start" x="1151.28" y="-210.6" font-family="Arial" font-size="14.00" fill="#666666">[BASE TABLE]</text>
<polygon fill="none" stroke="black" points="959.27,-166.4 959.27,-197.2 1279.07,-197.2 1279.07,-166.4 959.27,-166.4"/>
<text text-anchor="start" x="966.27" y="-178.6" font-family="Arial" font-size="14.00">elementtype </text>
<text text-anchor="start" x="1046.43" y="-178.6" font-family="Arial" font-size="14.00" fill="#666666">[varchar(64)]</text>
<polygon fill="none" stroke="black" points="959.27,-135.6 959.27,-166.4 1279.07,-166.4 1279.07,-135.6 959.27,-135.6"/>
<text text-anchor="start" x="966.27" y="-147.8" font-family="Arial" font-size="14.00">elementtypeid </text>
<text text-anchor="start" x="1057.33" y="-147.8" font-family="Arial" font-size="14.00" fill="#666666">[integer]</text>
<polygon fill="none" stroke="black" points="959.27,-104.8 959.27,-135.6 1279.07,-135.6 1279.07,-104.8 959.27,-104.8"/>
<text text-anchor="start" x="966.27" y="-117" font-family="Arial" font-size="14.00">recdatecreated </text>
<text text-anchor="start" x="1063.56" y="-117" font-family="Arial" font-size="14.00" fill="#666666">[timestamp(0) without time zone]</text>
<polygon fill="none" stroke="black" points="959.27,-74 959.27,-104.8 1279.07,-104.8 1279.07,-74 959.27,-74"/>
<text text-anchor="start" x="966.27" y="-86.2" font-family="Arial" font-size="14.00">recdatemodified </text>
<text text-anchor="start" x="1069.78" y="-86.2" font-family="Arial" font-size="14.00" fill="#666666">[timestamp(0) without time zone]</text>
</g>
<!-- ndb.specimens&#45;&gt;ndb.elementtypes -->
<g id="edge3" class="edge">
<title>ndb.specimens:elementtypeid&#45;&gt;ndb.elementtypes:elementtypeid</title>
<path fill="none" stroke="black" d="M1583.89,-801.64C1347.46,-794.28 1427.44,-532.77 1331.17,-306.8 1302.61,-239.76 1352.95,-151 1280.07,-151"/>
<polygon fill="black" stroke="black" points="1583.94,-801.64 1593.87,-806.29 1589.27,-801.72 1593.6,-801.79 1593.6,-801.79 1593.6,-801.79 1589.27,-801.72 1594.01,-797.3 1583.94,-801.64"/>
<text text-anchor="start" x="1002.64" y="-811.8" font-family="Arial" font-size="10.00">FOREIGN KEY (elementtypeid) REFERENCES ndb.elementtypes(elementtypeid) ON UPDATE CASCADE ON DELETE CASCADE</text>
</g>
<!-- ndb.elementmaturities -->
<g id="node5" class="node">
<title>ndb.elementmaturities</title>
<polygon fill="#efefef" stroke="none" points="1383.27,-197.2 1383.27,-232.8 1703.07,-232.8 1703.07,-197.2 1383.27,-197.2"/>
<polygon fill="none" stroke="black" points="1383.27,-197.2 1383.27,-232.8 1703.07,-232.8 1703.07,-197.2 1383.27,-197.2"/>
<text text-anchor="start" x="1400.7" y="-210.6" font-family="Arial Bold" font-size="18.00">ndb.elementmaturities</text>
<text text-anchor="start" x="1561.16" y="-210.6" font-family="Arial" font-size="14.00">    </text>
<text text-anchor="start" x="1592.27" y="-210.6" font-family="Arial" font-size="14.00" fill="#666666">[BASE TABLE]</text>
<polygon fill="none" stroke="black" points="1383.27,-166.4 1383.27,-197.2 1703.07,-197.2 1703.07,-166.4 1383.27,-166.4"/>
<text text-anchor="start" x="1390.27" y="-178.6" font-family="Arial" font-size="14.00">maturity </text>
<text text-anchor="start" x="1443.95" y="-178.6" font-family="Arial" font-size="14.00" fill="#666666">[varchar(36)]</text>
<polygon fill="none" stroke="black" points="1383.27,-135.6 1383.27,-166.4 1703.07,-166.4 1703.07,-135.6 1383.27,-135.6"/>
<text text-anchor="start" x="1390.27" y="-147.8" font-family="Arial" font-size="14.00">maturityid </text>
<text text-anchor="start" x="1454.85" y="-147.8" font-family="Arial" font-size="14.00" fill="#666666">[integer]</text>
<polygon fill="none" stroke="black" points="1383.27,-104.8 1383.27,-135.6 1703.07,-135.6 1703.07,-104.8 1383.27,-104.8"/>
<text text-anchor="start" x="1390.27" y="-117" font-family="Arial" font-size="14.00">recdatecreated </text>
<text text-anchor="start" x="1487.56" y="-117" font-family="Arial" font-size="14.00" fill="#666666">[timestamp(0) without time zone]</text>
<polygon fill="none" stroke="black" points="1383.27,-74 1383.27,-104.8 1703.07,-104.8 1703.07,-74 1383.27,-74"/>
<text text-anchor="start" x="1390.27" y="-86.2" font-family="Arial" font-size="14.00">recdatemodified </text>
<text text-anchor="start" x="1493.78" y="-86.2" font-family="Arial" font-size="14.00" fill="#666666">[timestamp(0) without time zone]</text>
</g>
<!-- ndb.specimens&#45;&gt;ndb.elementmaturities -->
<g id="edge4" class="edge">
<title>ndb.specimens:maturityid&#45;&gt;ndb.elementmaturities:maturityid</title>
<path fill="none" stroke="black" d="M1584.23,-739.92C1421.22,-730.73 1510.84,-494 1595.27,-342.8 1622.75,-293.59 1675.46,-325.14 1703.07,-276 1730.29,-227.57 1759.63,-151 1704.07,-151"/>
<polygon fill="black" stroke="black" points="1583.94,-739.92 1593.82,-744.69 1589.28,-740.06 1593.61,-740.18 1593.61,-740.18 1593.61,-740.18 1589.28,-740.06 1594.06,-735.69 1583.94,-739.92"/>
<text text-anchor="start" x="1243.86" y="-750.2" font-family="Arial" font-size="10.00">FOREIGN KEY (maturityid) REFERENCES ndb.elementmaturities(maturityid)</text>
</g>
<!-- ndb.elementportions -->
<g id="node6" class="node">
<title>ndb.elementportions</title>
<polygon fill="#efefef" stroke="none" points="1807.27,-197.2 1807.27,-232.8 2127.07,-232.8 2127.07,-197.2 1807.27,-197.2"/>
<polygon fill="none" stroke="black" points="1807.27,-197.2 1807.27,-232.8 2127.07,-232.8 2127.07,-197.2 1807.27,-197.2"/>
<text text-anchor="start" x="1831.19" y="-210.6" font-family="Arial Bold" font-size="18.00">ndb.elementportions</text>
<text text-anchor="start" x="1978.66" y="-210.6" font-family="Arial" font-size="14.00">    </text>
<text text-anchor="start" x="2009.78" y="-210.6" font-family="Arial" font-size="14.00" fill="#666666">[BASE TABLE]</text>
<polygon fill="none" stroke="black" points="1807.27,-166.4 1807.27,-197.2 2127.07,-197.2 2127.07,-166.4 1807.27,-166.4"/>
<text text-anchor="start" x="1814.27" y="-178.6" font-family="Arial" font-size="14.00">portion </text>
<text text-anchor="start" x="1860.97" y="-178.6" font-family="Arial" font-size="14.00" fill="#666666">[varchar(48)]</text>
<polygon fill="none" stroke="black" points="1807.27,-135.6 1807.27,-166.4 2127.07,-166.4 2127.07,-135.6 1807.27,-135.6"/>
<text text-anchor="start" x="1814.27" y="-147.8" font-family="Arial" font-size="14.00">portionid </text>
<text text-anchor="start" x="1871.87" y="-147.8" font-family="Arial" font-size="14.00" fill="#666666">[integer]</text>
<polygon fill="none" stroke="black" points="1807.27,-104.8 1807.27,-135.6 2127.07,-135.6 2127.07,-104.8 1807.27,-104.8"/>
<text text-anchor="start" x="1814.27" y="-117" font-family="Arial" font-size="14.00">recdatecreated </text>
<text text-anchor="start" x="1911.56" y="-117" font-family="Arial" font-size="14.00" fill="#666666">[timestamp(0) without time zone]</text>
<polygon fill="none" stroke="black" points="1807.27,-74 1807.27,-104.8 2127.07,-104.8 2127.07,-74 1807.27,-74"/>
<text text-anchor="start" x="1814.27" y="-86.2" font-family="Arial" font-size="14.00">recdatemodified </text>
<text text-anchor="start" x="1917.78" y="-86.2" font-family="Arial" font-size="14.00" fill="#666666">[timestamp(0) without time zone]</text>
</g>
<!-- ndb.specimens&#45;&gt;ndb.elementportions -->
<g id="edge5" class="edge">
<title>ndb.specimens:portionid&#45;&gt;ndb.elementportions:portionid</title>
<path fill="none" stroke="black" d="M1926.37,-647.42C2047.92,-638 1979.46,-458.01 1915.07,-342.8 1887.57,-293.6 1834.89,-325.14 1807.27,-276 1780.05,-227.57 1750.72,-151 1806.27,-151"/>
<polygon fill="black" stroke="black" points="1926.4,-647.41 1916.24,-643.29 1921.07,-647.61 1916.74,-647.78 1916.74,-647.78 1916.74,-647.78 1921.07,-647.61 1916.57,-652.28 1926.4,-647.41"/>
<text text-anchor="start" x="1923.07" y="-657.8" font-family="Arial" font-size="10.00">FOREIGN KEY (portionid) REFERENCES ndb.elementportions(portionid)</text>
</g>
<!-- ndb.repositoryinstitutions -->
<g id="node7" class="node">
<title>ndb.repositoryinstitutions</title>
<polygon fill="#efefef" stroke="none" points="2231.68,-228 2231.68,-263.6 2554.67,-263.6 2554.67,-228 2231.68,-228"/>
<polygon fill="none" stroke="black" points="2231.68,-228 2231.68,-263.6 2554.67,-263.6 2554.67,-228 2231.68,-228"/>
<text text-anchor="start" x="2238.68" y="-241.4" font-family="Arial Bold" font-size="18.00">ndb.repositoryinstitutions</text>
<text text-anchor="start" x="2423.18" y="-241.4" font-family="Arial" font-size="14.00">    </text>
<text text-anchor="start" x="2454.3" y="-241.4" font-family="Arial" font-size="14.00" fill="#666666">[BASE TABLE]</text>
<polygon fill="none" stroke="black" points="2231.68,-197.2 2231.68,-228 2554.67,-228 2554.67,-197.2 2231.68,-197.2"/>
<text text-anchor="start" x="2238.68" y="-209.4" font-family="Arial" font-size="14.00">acronym </text>
<text text-anchor="start" x="2296.25" y="-209.4" font-family="Arial" font-size="14.00" fill="#666666">[varchar(64)]</text>
<polygon fill="none" stroke="black" points="2231.68,-166.4 2231.68,-197.2 2554.67,-197.2 2554.67,-166.4 2231.68,-166.4"/>
<text text-anchor="start" x="2238.68" y="-178.6" font-family="Arial" font-size="14.00">notes </text>
<text text-anchor="start" x="2276.82" y="-178.6" font-family="Arial" font-size="14.00" fill="#666666">[text]</text>
<polygon fill="none" stroke="black" points="2231.68,-135.6 2231.68,-166.4 2554.67,-166.4 2554.67,-135.6 2231.68,-135.6"/>
<text text-anchor="start" x="2238.68" y="-147.8" font-family="Arial" font-size="14.00">recdatecreated </text>
<text text-anchor="start" x="2335.96" y="-147.8" font-family="Arial" font-size="14.00" fill="#666666">[timestamp(0) without time zone]</text>
<polygon fill="none" stroke="black" points="2231.68,-104.8 2231.68,-135.6 2554.67,-135.6 2554.67,-104.8 2231.68,-104.8"/>
<text text-anchor="start" x="2238.68" y="-117" font-family="Arial" font-size="14.00">recdatemodified </text>
<text text-anchor="start" x="2342.18" y="-117" font-family="Arial" font-size="14.00" fill="#666666">[timestamp(0) without time zone]</text>
<polygon fill="none" stroke="black" points="2231.68,-74 2231.68,-104.8 2554.67,-104.8 2554.67,-74 2231.68,-74"/>
<text text-anchor="start" x="2238.68" y="-86.2" font-family="Arial" font-size="14.00">repository </text>
<text text-anchor="start" x="2304.04" y="-86.2" font-family="Arial" font-size="14.00" fill="#666666">[varchar(128)]</text>
<polygon fill="none" stroke="black" points="2231.68,-43.2 2231.68,-74 2554.67,-74 2554.67,-43.2 2231.68,-43.2"/>
<text text-anchor="start" x="2238.68" y="-55.4" font-family="Arial" font-size="14.00">repositoryid </text>
<text text-anchor="start" x="2314.93" y="-55.4" font-family="Arial" font-size="14.00" fill="#666666">[integer]</text>
</g>
<!-- ndb.specimens&#45;&gt;ndb.repositoryinstitutions -->
<g id="edge6" class="edge">
<title>ndb.specimens:repositoryid&#45;&gt;ndb.repositoryinstitutions:repositoryid</title>
<path fill="none" stroke="black" d="M1926.12,-524.47C2069.38,-520.64 2102.63,-433.93 2179.17,-306.8 2237.29,-210.28 2118.02,-58.6 2230.68,-58.6"/>
<polygon fill="black" stroke="black" points="1926.41,-524.46 1916.35,-520.1 1921.07,-524.53 1916.74,-524.59 1916.74,-524.59 1916.74,-524.59 1921.07,-524.53 1916.47,-529.1 1926.41,-524.46"/>
<text text-anchor="start" x="1923.07" y="-534.6" font-family="Arial" font-size="10.00">FOREIGN KEY (repositoryid) REFERENCES ndb.repositoryinstitutions(repositoryid) ON UPDATE CASCADE ON DELETE CASCADE</text>
</g>
<!-- ndb.specimensextypes -->
<g id="node8" class="node">
<title>ndb.specimensextypes</title>
<polygon fill="#efefef" stroke="none" points="2659.27,-197.2 2659.27,-232.8 2979.07,-232.8 2979.07,-197.2 2659.27,-197.2"/>
<polygon fill="none" stroke="black" points="2659.27,-197.2 2659.27,-232.8 2979.07,-232.8 2979.07,-197.2 2659.27,-197.2"/>
<text text-anchor="start" x="2676.2" y="-210.6" font-family="Arial Bold" font-size="18.00">ndb.specimensextypes</text>
<text text-anchor="start" x="2837.66" y="-210.6" font-family="Arial" font-size="14.00">    </text>
<text text-anchor="start" x="2868.78" y="-210.6" font-family="Arial" font-size="14.00" fill="#666666">[BASE TABLE]</text>
<polygon fill="none" stroke="black" points="2659.27,-166.4 2659.27,-197.2 2979.07,-197.2 2979.07,-166.4 2659.27,-166.4"/>
<text text-anchor="start" x="2666.27" y="-178.6" font-family="Arial" font-size="14.00">recdatecreated </text>
<text text-anchor="start" x="2763.56" y="-178.6" font-family="Arial" font-size="14.00" fill="#666666">[timestamp(0) without time zone]</text>
<polygon fill="none" stroke="black" points="2659.27,-135.6 2659.27,-166.4 2979.07,-166.4 2979.07,-135.6 2659.27,-135.6"/>
<text text-anchor="start" x="2666.27" y="-147.8" font-family="Arial" font-size="14.00">recdatemodified </text>
<text text-anchor="start" x="2769.78" y="-147.8" font-family="Arial" font-size="14.00" fill="#666666">[timestamp(0) without time zone]</text>
<polygon fill="none" stroke="black" points="2659.27,-104.8 2659.27,-135.6 2979.07,-135.6 2979.07,-104.8 2659.27,-104.8"/>
<text text-anchor="start" x="2666.27" y="-117" font-family="Arial" font-size="14.00">sex </text>
<text text-anchor="start" x="2691.95" y="-117" font-family="Arial" font-size="14.00" fill="#666666">[varchar(24)]</text>
<polygon fill="none" stroke="black" points="2659.27,-74 2659.27,-104.8 2979.07,-104.8 2979.07,-74 2659.27,-74"/>
<text text-anchor="start" x="2666.27" y="-86.2" font-family="Arial" font-size="14.00">sexid </text>
<text text-anchor="start" x="2702.85" y="-86.2" font-family="Arial" font-size="14.00" fill="#666666">[integer]</text>
</g>
<!-- ndb.specimens&#45;&gt;ndb.specimensextypes -->
<g id="edge7" class="edge">
<title>ndb.specimens:sexid&#45;&gt;ndb.specimensextypes:sexid</title>
<path fill="none" stroke="black" d="M1926.19,-493.71C2092.33,-490.8 2498.83,-418.82 2607.17,-306.8 2676.18,-235.45 2559.02,-89.4 2658.27,-89.4"/>
<polygon fill="black" stroke="black" points="1926.41,-493.71 1916.37,-489.3 1921.07,-493.75 1916.74,-493.79 1916.74,-493.79 1916.74,-493.79 1921.07,-493.75 1916.45,-498.3 1926.41,-493.71"/>
<text text-anchor="start" x="1923.07" y="-503.8" font-family="Arial" font-size="10.00">FOREIGN KEY (sexid) REFERENCES ndb.specimensextypes(sexid) ON UPDATE CASCADE ON DELETE CASCADE</text>
</g>
<!-- ndb.elementsymmetries -->
<g id="node13" class="node">
<title>ndb.elementsymmetries</title>
<polygon fill="#efefef" stroke="none" points="3083.27,-197.2 3083.27,-232.8 3403.07,-232.8 3403.07,-197.2 3083.27,-197.2"/>
<polygon fill="none" stroke="black" points="3083.27,-197.2 3083.27,-232.8 3403.07,-232.8 3403.07,-197.2 3083.27,-197.2"/>
<text text-anchor="start" x="3095.2" y="-210.6" font-family="Arial Bold" font-size="18.00">ndb.elementsymmetries</text>
<text text-anchor="start" x="3266.66" y="-210.6" font-family="Arial" font-size="14.00">    </text>
<text text-anchor="start" x="3297.77" y="-210.6" font-family="Arial" font-size="14.00" fill="#666666">[BASE TABLE]</text>
<polygon fill="none" stroke="black" points="3083.27,-166.4 3083.27,-197.2 3403.07,-197.2 3403.07,-166.4 3083.27,-166.4"/>
<text text-anchor="start" x="3090.27" y="-178.6" font-family="Arial" font-size="14.00">recdatecreated </text>
<text text-anchor="start" x="3187.56" y="-178.6" font-family="Arial" font-size="14.00" fill="#666666">[timestamp(0) without time zone]</text>
<polygon fill="none" stroke="black" points="3083.27,-135.6 3083.27,-166.4 3403.07,-166.4 3403.07,-135.6 3083.27,-135.6"/>
<text text-anchor="start" x="3090.27" y="-147.8" font-family="Arial" font-size="14.00">recdatemodified </text>
<text text-anchor="start" x="3193.78" y="-147.8" font-family="Arial" font-size="14.00" fill="#666666">[timestamp(0) without time zone]</text>
<polygon fill="none" stroke="black" points="3083.27,-104.8 3083.27,-135.6 3403.07,-135.6 3403.07,-104.8 3083.27,-104.8"/>
<text text-anchor="start" x="3090.27" y="-117" font-family="Arial" font-size="14.00">symmetry </text>
<text text-anchor="start" x="3154.83" y="-117" font-family="Arial" font-size="14.00" fill="#666666">[varchar(24)]</text>
<polygon fill="none" stroke="black" points="3083.27,-74 3083.27,-104.8 3403.07,-104.8 3403.07,-74 3083.27,-74"/>
<text text-anchor="start" x="3090.27" y="-86.2" font-family="Arial" font-size="14.00">symmetryid </text>
<text text-anchor="start" x="3165.72" y="-86.2" font-family="Arial" font-size="14.00" fill="#666666">[integer]</text>
</g>
<!-- ndb.specimens&#45;&gt;ndb.elementsymmetries -->
<g id="edge12" class="edge">
<title>ndb.specimens:symmetryid&#45;&gt;ndb.elementsymmetries:symmetryid</title>
<path fill="none" stroke="black" d="M1926.07,-401.38C2082.01,-400.74 2939.27,-386.16 3031.17,-306.8 3106.3,-241.93 2983.02,-89.4 3082.27,-89.4"/>
<polygon fill="black" stroke="black" points="1926.41,-401.38 1916.4,-396.9 1921.07,-401.39 1916.74,-401.4 1916.74,-401.4 1916.74,-401.4 1921.07,-401.39 1916.42,-405.9 1926.41,-401.38"/>
<text text-anchor="start" x="1923.07" y="-411.4" font-family="Arial" font-size="10.00">FOREIGN KEY (symmetryid) REFERENCES ndb.elementsymmetries(symmetryid)</text>
</g>
<!-- ndb.isospecimendata -->
<g id="node9" class="node">
<title>ndb.isospecimendata</title>
<polygon fill="#efefef" stroke="none" points="964.27,-1314 964.27,-1349.6 1284.07,-1349.6 1284.07,-1314 964.27,-1314"/>
<polygon fill="none" stroke="black" points="964.27,-1314 964.27,-1349.6 1284.07,-1349.6 1284.07,-1314 964.27,-1314"/>
<text text-anchor="start" x="986.7" y="-1327.4" font-family="Arial Bold" font-size="18.00">ndb.isospecimendata</text>
<text text-anchor="start" x="1137.16" y="-1327.4" font-family="Arial" font-size="14.00">    </text>
<text text-anchor="start" x="1168.28" y="-1327.4" font-family="Arial" font-size="14.00" fill="#666666">[BASE TABLE]</text>
<polygon fill="none" stroke="black" points="964.27,-1283.2 964.27,-1314 1284.07,-1314 1284.07,-1283.2 964.27,-1283.2"/>
<text text-anchor="start" x="971.27" y="-1295.4" font-family="Arial" font-size="14.00">dataid </text>
<text text-anchor="start" x="1013.31" y="-1295.4" font-family="Arial" font-size="14.00" fill="#666666">[integer]</text>
<polygon fill="none" stroke="black" points="964.27,-1252.4 964.27,-1283.2 1284.07,-1283.2 1284.07,-1252.4 964.27,-1252.4"/>
<text text-anchor="start" x="971.27" y="-1264.6" font-family="Arial" font-size="14.00">isospecimendataid </text>
<text text-anchor="start" x="1091.12" y="-1264.6" font-family="Arial" font-size="14.00" fill="#666666">[integer]</text>
<polygon fill="none" stroke="black" points="964.27,-1221.6 964.27,-1252.4 1284.07,-1252.4 1284.07,-1221.6 964.27,-1221.6"/>
<text text-anchor="start" x="971.27" y="-1233.8" font-family="Arial" font-size="14.00">recdatecreated </text>
<text text-anchor="start" x="1068.56" y="-1233.8" font-family="Arial" font-size="14.00" fill="#666666">[timestamp(0) without time zone]</text>
<polygon fill="none" stroke="black" points="964.27,-1190.8 964.27,-1221.6 1284.07,-1221.6 1284.07,-1190.8 964.27,-1190.8"/>
<text text-anchor="start" x="971.27" y="-1203" font-family="Arial" font-size="14.00">recdatemodified </text>
<text text-anchor="start" x="1074.78" y="-1203" font-family="Arial" font-size="14.00" fill="#666666">[timestamp(0) without time zone]</text>
<polygon fill="none" stroke="black" points="964.27,-1160 964.27,-1190.8 1284.07,-1190.8 1284.07,-1160 964.27,-1160"/>
<text text-anchor="start" x="971.27" y="-1172.2" font-family="Arial" font-size="14.00">sd </text>
<text text-anchor="start" x="989.95" y="-1172.2" font-family="Arial" font-size="14.00" fill="#666666">[double precision]</text>
<polygon fill="none" stroke="black" points="964.27,-1129.2 964.27,-1160 1284.07,-1160 1284.07,-1129.2 964.27,-1129.2"/>
<text text-anchor="start" x="971.27" y="-1141.4" font-family="Arial" font-size="14.00">specimenid </text>
<text text-anchor="start" x="1045.98" y="-1141.4" font-family="Arial" font-size="14.00" fill="#666666">[integer]</text>
</g>
<!-- ndb.isospecimendata&#45;&gt;ndb.specimens -->
<g id="edge8" class="edge">
<title>ndb.isospecimendata:specimenid&#45;&gt;ndb.specimens:specimenid</title>
<path fill="none" stroke="black" d="M1295.23,-1143.79C1339.42,-1136.01 1314.2,-1074.07 1336.17,-1024.4 1447.26,-773.25 1319.66,-463 1594.27,-463"/>
<polygon fill="black" stroke="black" points="1295.37,-1143.77 1285.05,-1140.09 1290.06,-1144.2 1285.74,-1144.55 1285.74,-1144.55 1285.74,-1144.55 1290.06,-1144.2 1285.77,-1149.06 1295.37,-1143.77"/>
<text text-anchor="start" x="840.72" y="-1154.6" font-family="Arial" font-size="10.00">FOREIGN KEY (specimenid) REFERENCES ndb.specimens(specimenid) ON DELETE CASCADE</text>
</g>
<!-- ndb.specimendates -->
<g id="node10" class="node">
<title>ndb.specimendates</title>
<polygon fill="#efefef" stroke="none" points="1388.27,-1375.6 1388.27,-1411.2 1708.07,-1411.2 1708.07,-1375.6 1388.27,-1375.6"/>
<polygon fill="none" stroke="black" points="1388.27,-1375.6 1388.27,-1411.2 1708.07,-1411.2 1708.07,-1375.6 1388.27,-1375.6"/>
<text text-anchor="start" x="1417.7" y="-1389" font-family="Arial Bold" font-size="18.00">ndb.specimendates</text>
<text text-anchor="start" x="1554.16" y="-1389" font-family="Arial" font-size="14.00">    </text>
<text text-anchor="start" x="1585.28" y="-1389" font-family="Arial" font-size="14.00" fill="#666666">[BASE TABLE]</text>
<polygon fill="none" stroke="black" points="1388.27,-1344.8 1388.27,-1375.6 1708.07,-1375.6 1708.07,-1344.8 1388.27,-1344.8"/>
<text text-anchor="start" x="1395.27" y="-1357" font-family="Arial" font-size="14.00">elementtypeid </text>
<text text-anchor="start" x="1486.33" y="-1357" font-family="Arial" font-size="14.00" fill="#666666">[integer]</text>
<polygon fill="none" stroke="black" points="1388.27,-1314 1388.27,-1344.8 1708.07,-1344.8 1708.07,-1314 1388.27,-1314"/>
<text text-anchor="start" x="1395.27" y="-1326.2" font-family="Arial" font-size="14.00">fractionid </text>
<text text-anchor="start" x="1455.97" y="-1326.2" font-family="Arial" font-size="14.00" fill="#666666">[integer]</text>
<polygon fill="none" stroke="black" points="1388.27,-1283.2 1388.27,-1314 1708.07,-1314 1708.07,-1283.2 1388.27,-1283.2"/>
<text text-anchor="start" x="1395.27" y="-1295.4" font-family="Arial" font-size="14.00">geochronid </text>
<text text-anchor="start" x="1468.44" y="-1295.4" font-family="Arial" font-size="14.00" fill="#666666">[integer]</text>
<polygon fill="none" stroke="black" points="1388.27,-1252.4 1388.27,-1283.2 1708.07,-1283.2 1708.07,-1252.4 1388.27,-1252.4"/>
<text text-anchor="start" x="1395.27" y="-1264.6" font-family="Arial" font-size="14.00">notes </text>
<text text-anchor="start" x="1433.41" y="-1264.6" font-family="Arial" font-size="14.00" fill="#666666">[text]</text>
<polygon fill="none" stroke="black" points="1388.27,-1221.6 1388.27,-1252.4 1708.07,-1252.4 1708.07,-1221.6 1388.27,-1221.6"/>
<text text-anchor="start" x="1395.27" y="-1233.8" font-family="Arial" font-size="14.00">recdatecreated </text>
<text text-anchor="start" x="1492.56" y="-1233.8" font-family="Arial" font-size="14.00" fill="#666666">[timestamp(0) without time zone]</text>
<polygon fill="none" stroke="black" points="1388.27,-1190.8 1388.27,-1221.6 1708.07,-1221.6 1708.07,-1190.8 1388.27,-1190.8"/>
<text text-anchor="start" x="1395.27" y="-1203" font-family="Arial" font-size="14.00">recdatemodified </text>
<text text-anchor="start" x="1498.78" y="-1203" font-family="Arial" font-size="14.00" fill="#666666">[timestamp(0) without time zone]</text>
<polygon fill="none" stroke="black" points="1388.27,-1160 1388.27,-1190.8 1708.07,-1190.8 1708.07,-1160 1388.27,-1160"/>
<text text-anchor="start" x="1395.27" y="-1172.2" font-family="Arial" font-size="14.00">sampleid </text>
<text text-anchor="start" x="1455.19" y="-1172.2" font-family="Arial" font-size="14.00" fill="#666666">[integer]</text>
<polygon fill="none" stroke="black" points="1388.27,-1129.2 1388.27,-1160 1708.07,-1160 1708.07,-1129.2 1388.27,-1129.2"/>
<text text-anchor="start" x="1395.27" y="-1141.4" font-family="Arial" font-size="14.00">specimendateid </text>
<text text-anchor="start" x="1497.22" y="-1141.4" font-family="Arial" font-size="14.00" fill="#666666">[integer]</text>
<polygon fill="none" stroke="black" points="1388.27,-1098.4 1388.27,-1129.2 1708.07,-1129.2 1708.07,-1098.4 1388.27,-1098.4"/>
<text text-anchor="start" x="1395.27" y="-1110.6" font-family="Arial" font-size="14.00">specimenid </text>
<text text-anchor="start" x="1469.98" y="-1110.6" font-family="Arial" font-size="14.00" fill="#666666">[integer]</text>
<polygon fill="none" stroke="black" points="1388.27,-1067.6 1388.27,-1098.4 1708.07,-1098.4 1708.07,-1067.6 1388.27,-1067.6"/>
<text text-anchor="start" x="1395.27" y="-1079.8" font-family="Arial" font-size="14.00">taxonid </text>
<text text-anchor="start" x="1444.31" y="-1079.8" font-family="Arial" font-size="14.00" fill="#666666">[integer]</text>
</g>
<!-- ndb.specimendates&#45;&gt;ndb.specimens -->
<g id="edge9" class="edge">
<title>ndb.specimendates:specimenid&#45;&gt;ndb.specimens:specimenid</title>
<path fill="none" stroke="black" d="M1719.13,-1112.23C1745.4,-1102.82 1729.39,-1053.23 1708.07,-1024.4 1676.79,-982.08 1626.36,-1030.86 1595.27,-988.4 1457.35,-799.98 1360.76,-463 1594.27,-463"/>
<polygon fill="black" stroke="black" points="1719.28,-1112.21 1708.71,-1109.3 1714.01,-1113.03 1709.73,-1113.7 1709.73,-1113.7 1709.73,-1113.7 1714.01,-1113.03 1710.1,-1118.19 1719.28,-1112.21"/>
<text text-anchor="start" x="1716.07" y="-1097.8" font-family="Arial" font-size="10.00">FOREIGN KEY (specimenid) REFERENCES ndb.specimens(specimenid) ON UPDATE CASCADE ON DELETE CASCADE</text>
</g>
<!-- ndb.specimengenbank -->
<g id="node11" class="node">
<title>ndb.specimengenbank</title>
<polygon fill="#efefef" stroke="none" points="1812.7,-1252.4 1812.7,-1288 2111.64,-1288 2111.64,-1252.4 1812.7,-1252.4"/>
<polygon fill="none" stroke="black" points="1812.7,-1252.4 1812.7,-1288 2111.64,-1288 2111.64,-1252.4 1812.7,-1252.4"/>
<text text-anchor="start" x="1819.7" y="-1265.8" font-family="Arial Bold" font-size="18.00">ndb.specimengenbank</text>
<text text-anchor="start" x="1980.16" y="-1265.8" font-family="Arial" font-size="14.00">    </text>
<text text-anchor="start" x="2011.27" y="-1265.8" font-family="Arial" font-size="14.00" fill="#666666">[BASE TABLE]</text>
<polygon fill="none" stroke="black" points="1812.7,-1221.6 1812.7,-1252.4 2111.64,-1252.4 2111.64,-1221.6 1812.7,-1221.6"/>
<text text-anchor="start" x="1819.7" y="-1233.8" font-family="Arial" font-size="14.00">genbanknr </text>
<text text-anchor="start" x="1889.76" y="-1233.8" font-family="Arial" font-size="14.00" fill="#666666">[varchar(50)]</text>
<polygon fill="none" stroke="black" points="1812.7,-1190.8 1812.7,-1221.6 2111.64,-1221.6 2111.64,-1190.8 1812.7,-1190.8"/>
<text text-anchor="start" x="1819.7" y="-1203" font-family="Arial" font-size="14.00">specimenid </text>
<text text-anchor="start" x="1894.41" y="-1203" font-family="Arial" font-size="14.00" fill="#666666">[integer]</text>
</g>
<!-- ndb.specimengenbank&#45;&gt;ndb.specimens -->
<g id="edge10" class="edge">
<title>ndb.specimengenbank:specimenid&#45;&gt;ndb.specimens:specimenid</title>
<path fill="none" stroke="black" d="M1801.74,-1203.18C1792.27,-1194.38 1806.5,-1168.05 1812.7,-1147.6 1837.1,-1067.09 1891.29,-1069.09 1915.07,-988.4 1981.1,-764.42 2149.58,-463 1916.07,-463"/>
<polygon fill="black" stroke="black" points="1801.81,-1203.21 1810.08,-1210.41 1806.92,-1204.75 1811.06,-1206.01 1811.06,-1206.01 1811.06,-1206.01 1806.92,-1204.75 1812.69,-1201.8 1801.81,-1203.21"/>
<text text-anchor="start" x="1818.7" y="-1216.2" font-family="Arial" font-size="10.00">FOREIGN KEY (specimenid) REFERENCES ndb.specimens(specimenid) ON UPDATE CASCADE ON DELETE CASCADE</text>
</g>
<!-- ndb.specimentaphonomy -->
<g id="node12" class="node">
<title>ndb.specimentaphonomy</title>
<polygon fill="#efefef" stroke="none" points="2216.27,-1283.2 2216.27,-1318.8 2536.07,-1318.8 2536.07,-1283.2 2216.27,-1283.2"/>
<polygon fill="none" stroke="black" points="2216.27,-1283.2 2216.27,-1318.8 2536.07,-1318.8 2536.07,-1283.2 2216.27,-1283.2"/>
<text text-anchor="start" x="2223.7" y="-1296.6" font-family="Arial Bold" font-size="18.00">ndb.specimentaphonomy</text>
<text text-anchor="start" x="2404.16" y="-1296.6" font-family="Arial" font-size="14.00">    </text>
<text text-anchor="start" x="2435.28" y="-1296.6" font-family="Arial" font-size="14.00" fill="#666666">[BASE TABLE]</text>
<polygon fill="none" stroke="black" points="2216.27,-1252.4 2216.27,-1283.2 2536.07,-1283.2 2536.07,-1252.4 2216.27,-1252.4"/>
<text text-anchor="start" x="2223.27" y="-1264.6" font-family="Arial" font-size="14.00">recdatecreated </text>
<text text-anchor="start" x="2320.56" y="-1264.6" font-family="Arial" font-size="14.00" fill="#666666">[timestamp(0) without time zone]</text>
<polygon fill="none" stroke="black" points="2216.27,-1221.6 2216.27,-1252.4 2536.07,-1252.4 2536.07,-1221.6 2216.27,-1221.6"/>
<text text-anchor="start" x="2223.27" y="-1233.8" font-family="Arial" font-size="14.00">recdatemodified </text>
<text text-anchor="start" x="2326.78" y="-1233.8" font-family="Arial" font-size="14.00" fill="#666666">[timestamp(0) without time zone]</text>
<polygon fill="none" stroke="black" points="2216.27,-1190.8 2216.27,-1221.6 2536.07,-1221.6 2536.07,-1190.8 2216.27,-1190.8"/>
<text text-anchor="start" x="2223.27" y="-1203" font-family="Arial" font-size="14.00">specimenid </text>
<text text-anchor="start" x="2297.98" y="-1203" font-family="Arial" font-size="14.00" fill="#666666">[integer]</text>
<polygon fill="none" stroke="black" points="2216.27,-1160 2216.27,-1190.8 2536.07,-1190.8 2536.07,-1160 2216.27,-1160"/>
<text text-anchor="start" x="2223.27" y="-1172.2" font-family="Arial" font-size="14.00">taphonomictypeid </text>
<text text-anchor="start" x="2336.9" y="-1172.2" font-family="Arial" font-size="14.00" fill="#666666">[integer]</text>
</g>
<!-- ndb.specimentaphonomy&#45;&gt;ndb.specimens -->
<g id="edge11" class="edge">
<title>ndb.specimentaphonomy:specimenid&#45;&gt;ndb.specimens:specimenid</title>
<path fill="none" stroke="black" d="M2205.24,-1205.64C2136.44,-1197.41 2191.34,-1099.99 2164.17,-1024.4 2071.9,-767.69 2188.86,-463 1916.07,-463"/>
<polygon fill="black" stroke="black" points="2204.96,-1205.62 2214.69,-1210.67 2210.28,-1205.92 2214.61,-1206.16 2214.61,-1206.16 2214.61,-1206.16 2210.28,-1205.92 2215.19,-1201.69 2204.96,-1205.62"/>
<text text-anchor="start" x="2222.27" y="-1190.2" font-family="Arial" font-size="10.00">FOREIGN KEY (specimenid) REFERENCES ndb.specimens(specimenid) ON UPDATE CASCADE ON DELETE CASCADE</text>
</g>
</g>
</svg>
