<?xml version="1.0" encoding="UTF-8" standalone="no"?>
<!DOCTYPE svg PUBLIC "-//W3C//DTD SVG 1.1//EN"
 "http://www.w3.org/Graphics/SVG/1.1/DTD/svg11.dtd">
<!-- Generated by graphviz version 12.1.2 (20240928.0832)
 -->
<!-- Title: ndb.unitsdatasettypes Pages: 1 -->
<svg width="5948pt" height="658pt"
 viewBox="0.00 0.00 5948.13 657.60" xmlns="http://www.w3.org/2000/svg" xmlns:xlink="http://www.w3.org/1999/xlink">
<g id="graph0" class="graph" transform="scale(1 1) rotate(0) translate(4 653.6)">
<title>ndb.unitsdatasettypes</title>
<polygon fill="white" stroke="none" points="-4,4 -4,-653.6 5944.13,-653.6 5944.13,4 -4,4"/>
<!-- ndb.unitsdatasettypes -->
<g id="node1" class="node">
<title>ndb.unitsdatasettypes</title>
<polygon fill="#efefef" stroke="none" points="2518.51,-509.2 2518.51,-544.8 2838.31,-544.8 2838.31,-509.2 2518.51,-509.2"/>
<polygon fill="none" stroke="black" points="2518.51,-509.2 2518.51,-544.8 2838.31,-544.8 2838.31,-509.2 2518.51,-509.2"/>
<text text-anchor="start" x="2538.93" y="-522.6" font-family="Arial Bold" font-size="18.00">ndb.unitsdatasettypes</text>
<text text-anchor="start" x="2693.4" y="-522.6" font-family="Arial" font-size="14.00">    </text>
<text text-anchor="start" x="2724.52" y="-522.6" font-family="Arial" font-size="14.00" fill="#666666">[BASE TABLE]</text>
<polygon fill="none" stroke="black" points="2518.51,-478.4 2518.51,-509.2 2838.31,-509.2 2838.31,-478.4 2518.51,-478.4"/>
<text text-anchor="start" x="2525.51" y="-490.6" font-family="Arial" font-size="14.00">datasettypeid </text>
<text text-anchor="start" x="2612.68" y="-490.6" font-family="Arial" font-size="14.00" fill="#666666">[integer]</text>
<polygon fill="none" stroke="black" points="2518.51,-447.6 2518.51,-478.4 2838.31,-478.4 2838.31,-447.6 2518.51,-447.6"/>
<text text-anchor="start" x="2525.51" y="-459.8" font-family="Arial" font-size="14.00">recdatecreated </text>
<text text-anchor="start" x="2622.79" y="-459.8" font-family="Arial" font-size="14.00" fill="#666666">[timestamp(0) without time zone]</text>
<polygon fill="none" stroke="black" points="2518.51,-416.8 2518.51,-447.6 2838.31,-447.6 2838.31,-416.8 2518.51,-416.8"/>
<text text-anchor="start" x="2525.51" y="-429" font-family="Arial" font-size="14.00">recdatemodified </text>
<text text-anchor="start" x="2629.01" y="-429" font-family="Arial" font-size="14.00" fill="#666666">[timestamp(0) without time zone]</text>
<polygon fill="none" stroke="black" points="2518.51,-386 2518.51,-416.8 2838.31,-416.8 2838.31,-386 2518.51,-386"/>
<text text-anchor="start" x="2525.51" y="-398.2" font-family="Arial" font-size="14.00">variableunitsid </text>
<text text-anchor="start" x="2618.9" y="-398.2" font-family="Arial" font-size="14.00" fill="#666666">[integer]</text>
<polygon fill="none" stroke="black" stroke-width="3" points="2517.01,-384.5 2517.01,-546.3 2839.81,-546.3 2839.81,-384.5 2517.01,-384.5"/>
</g>
<!-- ndb.datasettypes -->
<g id="node2" class="node">
<title>ndb.datasettypes</title>
<polygon fill="#efefef" stroke="none" points="1346.51,-166.4 1346.51,-202 1666.31,-202 1666.31,-166.4 1346.51,-166.4"/>
<polygon fill="none" stroke="black" points="1346.51,-166.4 1346.51,-202 1666.31,-202 1666.31,-166.4 1346.51,-166.4"/>
<text text-anchor="start" x="1384.43" y="-179.8" font-family="Arial Bold" font-size="18.00">ndb.datasettypes</text>
<text text-anchor="start" x="1503.9" y="-179.8" font-family="Arial" font-size="14.00">    </text>
<text text-anchor="start" x="1535.02" y="-179.8" font-family="Arial" font-size="14.00" fill="#666666">[BASE TABLE]</text>
<polygon fill="none" stroke="black" points="1346.51,-135.6 1346.51,-166.4 1666.31,-166.4 1666.31,-135.6 1346.51,-135.6"/>
<text text-anchor="start" x="1353.51" y="-147.8" font-family="Arial" font-size="14.00">datasettype </text>
<text text-anchor="start" x="1429.79" y="-147.8" font-family="Arial" font-size="14.00" fill="#666666">[varchar(64)]</text>
<polygon fill="none" stroke="black" points="1346.51,-104.8 1346.51,-135.6 1666.31,-135.6 1666.31,-104.8 1346.51,-104.8"/>
<text text-anchor="start" x="1353.51" y="-117" font-family="Arial" font-size="14.00">datasettypeid </text>
<text text-anchor="start" x="1440.68" y="-117" font-family="Arial" font-size="14.00" fill="#666666">[integer]</text>
<polygon fill="none" stroke="black" points="1346.51,-74 1346.51,-104.8 1666.31,-104.8 1666.31,-74 1346.51,-74"/>
<text text-anchor="start" x="1353.51" y="-86.2" font-family="Arial" font-size="14.00">recdatecreated </text>
<text text-anchor="start" x="1450.79" y="-86.2" font-family="Arial" font-size="14.00" fill="#666666">[timestamp(0) without time zone]</text>
<polygon fill="none" stroke="black" points="1346.51,-43.2 1346.51,-74 1666.31,-74 1666.31,-43.2 1346.51,-43.2"/>
<text text-anchor="start" x="1353.51" y="-55.4" font-family="Arial" font-size="14.00">recdatemodified </text>
<text text-anchor="start" x="1457.01" y="-55.4" font-family="Arial" font-size="14.00" fill="#666666">[timestamp(0) without time zone]</text>
</g>
<!-- ndb.unitsdatasettypes&#45;&gt;ndb.datasettypes -->
<g id="edge1" class="edge">
<title>ndb.unitsdatasettypes:datasettypeid&#45;&gt;ndb.datasettypes:datasettypeid</title>
<path fill="none" stroke="black" d="M2507.51,-493.21C2428.22,-483.12 2531.42,-345.92 2463.41,-281.2 2332.65,-156.78 1847.8,-120.2 1667.31,-120.2"/>
<polygon fill="black" stroke="black" points="2507.19,-493.19 2516.91,-498.27 2512.52,-493.51 2516.84,-493.76 2516.84,-493.76 2516.84,-493.76 2512.52,-493.51 2517.44,-489.29 2507.19,-493.19"/>
<text text-anchor="start" x="2524.51" y="-503.8" font-family="Arial" font-size="10.00">FOREIGN KEY (datasettypeid) REFERENCES ndb.datasettypes(datasettypeid) ON UPDATE CASCADE ON DELETE CASCADE</text>
</g>
<!-- ndb.variableunits -->
<g id="node8" class="node">
<title>ndb.variableunits</title>
<polygon fill="#efefef" stroke="none" points="4006.51,-166.4 4006.51,-202 4326.31,-202 4326.31,-166.4 4006.51,-166.4"/>
<polygon fill="none" stroke="black" points="4006.51,-166.4 4006.51,-202 4326.31,-202 4326.31,-166.4 4006.51,-166.4"/>
<text text-anchor="start" x="4041.93" y="-179.8" font-family="Arial Bold" font-size="18.00">ndb.variableunits</text>
<text text-anchor="start" x="4166.4" y="-179.8" font-family="Arial" font-size="14.00">    </text>
<text text-anchor="start" x="4197.52" y="-179.8" font-family="Arial" font-size="14.00" fill="#666666">[BASE TABLE]</text>
<polygon fill="none" stroke="black" points="4006.51,-135.6 4006.51,-166.4 4326.31,-166.4 4326.31,-135.6 4006.51,-135.6"/>
<text text-anchor="start" x="4013.51" y="-147.8" font-family="Arial" font-size="14.00">recdatecreated </text>
<text text-anchor="start" x="4110.79" y="-147.8" font-family="Arial" font-size="14.00" fill="#666666">[timestamp(0) without time zone]</text>
<polygon fill="none" stroke="black" points="4006.51,-104.8 4006.51,-135.6 4326.31,-135.6 4326.31,-104.8 4006.51,-104.8"/>
<text text-anchor="start" x="4013.51" y="-117" font-family="Arial" font-size="14.00">recdatemodified </text>
<text text-anchor="start" x="4117.01" y="-117" font-family="Arial" font-size="14.00" fill="#666666">[timestamp(0) without time zone]</text>
<polygon fill="none" stroke="black" points="4006.51,-74 4006.51,-104.8 4326.31,-104.8 4326.31,-74 4006.51,-74"/>
<text text-anchor="start" x="4013.51" y="-86.2" font-family="Arial" font-size="14.00">variableunits </text>
<text text-anchor="start" x="4096" y="-86.2" font-family="Arial" font-size="14.00" fill="#666666">[varchar(64)]</text>
<polygon fill="none" stroke="black" points="4006.51,-43.2 4006.51,-74 4326.31,-74 4326.31,-43.2 4006.51,-43.2"/>
<text text-anchor="start" x="4013.51" y="-55.4" font-family="Arial" font-size="14.00">variableunitsid </text>
<text text-anchor="start" x="4106.9" y="-55.4" font-family="Arial" font-size="14.00" fill="#666666">[integer]</text>
</g>
<!-- ndb.unitsdatasettypes&#45;&gt;ndb.variableunits -->
<g id="edge7" class="edge">
<title>ndb.unitsdatasettypes:variableunitsid&#45;&gt;ndb.variableunits:variableunitsid</title>
<path fill="none" stroke="black" d="M2849.6,-400.33C2891.64,-390.49 2850.63,-315.28 2893.41,-281.2 3090.54,-124.15 3753.47,-58.6 4005.51,-58.6"/>
<polygon fill="black" stroke="black" points="2849.59,-400.33 2839.18,-396.89 2844.28,-400.88 2839.97,-401.33 2839.97,-401.33 2839.97,-401.33 2844.28,-400.88 2840.11,-405.84 2849.59,-400.33"/>
<text text-anchor="start" x="2247.68" y="-411.4" font-family="Arial" font-size="10.00">FOREIGN KEY (variableunitsid) REFERENCES ndb.variableunits(variableunitsid) ON UPDATE CASCADE ON DELETE CASCADE</text>
</g>
<!-- ndb.contextsdatasettypes -->
<g id="node3" class="node">
<title>ndb.contextsdatasettypes</title>
<polygon fill="#efefef" stroke="none" points="269.51,-509.2 269.51,-544.8 589.31,-544.8 589.31,-509.2 269.51,-509.2"/>
<polygon fill="none" stroke="black" points="269.51,-509.2 269.51,-544.8 589.31,-544.8 589.31,-509.2 269.51,-509.2"/>
<text text-anchor="start" x="277.44" y="-522.6" font-family="Arial Bold" font-size="18.00">ndb.contextsdatasettypes</text>
<text text-anchor="start" x="456.89" y="-522.6" font-family="Arial" font-size="14.00">    </text>
<text text-anchor="start" x="488.01" y="-522.6" font-family="Arial" font-size="14.00" fill="#666666">[BASE TABLE]</text>
<polygon fill="none" stroke="black" points="269.51,-478.4 269.51,-509.2 589.31,-509.2 589.31,-478.4 269.51,-478.4"/>
<text text-anchor="start" x="276.51" y="-490.6" font-family="Arial" font-size="14.00">datasettypeid </text>
<text text-anchor="start" x="363.68" y="-490.6" font-family="Arial" font-size="14.00" fill="#666666">[integer]</text>
<polygon fill="none" stroke="black" points="269.51,-447.6 269.51,-478.4 589.31,-478.4 589.31,-447.6 269.51,-447.6"/>
<text text-anchor="start" x="276.51" y="-459.8" font-family="Arial" font-size="14.00">recdatecreated </text>
<text text-anchor="start" x="373.79" y="-459.8" font-family="Arial" font-size="14.00" fill="#666666">[timestamp(0) without time zone]</text>
<polygon fill="none" stroke="black" points="269.51,-416.8 269.51,-447.6 589.31,-447.6 589.31,-416.8 269.51,-416.8"/>
<text text-anchor="start" x="276.51" y="-429" font-family="Arial" font-size="14.00">recdatemodified </text>
<text text-anchor="start" x="380.01" y="-429" font-family="Arial" font-size="14.00" fill="#666666">[timestamp(0) without time zone]</text>
<polygon fill="none" stroke="black" points="269.51,-386 269.51,-416.8 589.31,-416.8 589.31,-386 269.51,-386"/>
<text text-anchor="start" x="276.51" y="-398.2" font-family="Arial" font-size="14.00">variablecontextid </text>
<text text-anchor="start" x="385.46" y="-398.2" font-family="Arial" font-size="14.00" fill="#666666">[integer]</text>
</g>
<!-- ndb.contextsdatasettypes&#45;&gt;ndb.datasettypes -->
<g id="edge2" class="edge">
<title>ndb.contextsdatasettypes:datasettypeid&#45;&gt;ndb.datasettypes:datasettypeid</title>
<path fill="none" stroke="black" d="M600.27,-493.22C679.19,-483.2 574.88,-347 641.41,-281.2 755.53,-168.34 1185,-120.2 1345.51,-120.2"/>
<polygon fill="black" stroke="black" points="600.63,-493.19 590.38,-489.29 595.3,-493.51 590.98,-493.76 590.98,-493.76 590.98,-493.76 595.3,-493.51 590.91,-498.27 600.63,-493.19"/>
<text text-anchor="start" x="7" y="-503.8" font-family="Arial" font-size="10.00">FOREIGN KEY (datasettypeid) REFERENCES ndb.datasettypes(datasettypeid) ON UPDATE CASCADE ON DELETE CASCADE</text>
</g>
<!-- ndb.datasets -->
<g id="node4" class="node">
<title>ndb.datasets</title>
<polygon fill="#efefef" stroke="none" points="693.51,-570.8 693.51,-606.4 1013.31,-606.4 1013.31,-570.8 693.51,-570.8"/>
<polygon fill="none" stroke="black" points="693.51,-570.8 693.51,-606.4 1013.31,-606.4 1013.31,-570.8 693.51,-570.8"/>
<text text-anchor="start" x="746.92" y="-584.2" font-family="Arial Bold" font-size="18.00">ndb.datasets</text>
<text text-anchor="start" x="835.4" y="-584.2" font-family="Arial" font-size="14.00">    </text>
<text text-anchor="start" x="866.52" y="-584.2" font-family="Arial" font-size="14.00" fill="#666666">[BASE TABLE]</text>
<polygon fill="none" stroke="black" points="693.51,-540 693.51,-570.8 1013.31,-570.8 1013.31,-540 693.51,-540"/>
<text text-anchor="start" x="700.51" y="-552.2" font-family="Arial" font-size="14.00">collectionunitid </text>
<text text-anchor="start" x="796.23" y="-552.2" font-family="Arial" font-size="14.00" fill="#666666">[integer]</text>
<polygon fill="none" stroke="black" points="693.51,-509.2 693.51,-540 1013.31,-540 1013.31,-509.2 693.51,-509.2"/>
<text text-anchor="start" x="700.51" y="-521.4" font-family="Arial" font-size="14.00">datasetid </text>
<text text-anchor="start" x="761.22" y="-521.4" font-family="Arial" font-size="14.00" fill="#666666">[integer]</text>
<polygon fill="none" stroke="black" points="693.51,-478.4 693.51,-509.2 1013.31,-509.2 1013.31,-478.4 693.51,-478.4"/>
<text text-anchor="start" x="700.51" y="-490.6" font-family="Arial" font-size="14.00">datasetname </text>
<text text-anchor="start" x="785.34" y="-490.6" font-family="Arial" font-size="14.00" fill="#666666">[varchar(80)]</text>
<polygon fill="none" stroke="black" points="693.51,-447.6 693.51,-478.4 1013.31,-478.4 1013.31,-447.6 693.51,-447.6"/>
<text text-anchor="start" x="700.51" y="-459.8" font-family="Arial" font-size="14.00">datasettypeid </text>
<text text-anchor="start" x="787.68" y="-459.8" font-family="Arial" font-size="14.00" fill="#666666">[integer]</text>
<polygon fill="none" stroke="black" points="693.51,-416.8 693.51,-447.6 1013.31,-447.6 1013.31,-416.8 693.51,-416.8"/>
<text text-anchor="start" x="700.51" y="-429" font-family="Arial" font-size="14.00">embargoid </text>
<text text-anchor="start" x="770.55" y="-429" font-family="Arial" font-size="14.00" fill="#666666">[integer]</text>
<polygon fill="none" stroke="black" points="693.51,-386 693.51,-416.8 1013.31,-416.8 1013.31,-386 693.51,-386"/>
<text text-anchor="start" x="700.51" y="-398.2" font-family="Arial" font-size="14.00">notes </text>
<text text-anchor="start" x="738.65" y="-398.2" font-family="Arial" font-size="14.00" fill="#666666">[text]</text>
<polygon fill="none" stroke="black" points="693.51,-355.2 693.51,-386 1013.31,-386 1013.31,-355.2 693.51,-355.2"/>
<text text-anchor="start" x="700.51" y="-367.4" font-family="Arial" font-size="14.00">recdatecreated </text>
<text text-anchor="start" x="797.79" y="-367.4" font-family="Arial" font-size="14.00" fill="#666666">[timestamp(0) without time zone]</text>
<polygon fill="none" stroke="black" points="693.51,-324.4 693.51,-355.2 1013.31,-355.2 1013.31,-324.4 693.51,-324.4"/>
<text text-anchor="start" x="700.51" y="-336.6" font-family="Arial" font-size="14.00">recdatemodified </text>
<text text-anchor="start" x="804.01" y="-336.6" font-family="Arial" font-size="14.00" fill="#666666">[timestamp(0) without time zone]</text>
</g>
<!-- ndb.datasets&#45;&gt;ndb.datasettypes -->
<g id="edge3" class="edge">
<title>ndb.datasets:datasettypeid&#45;&gt;ndb.datasettypes:datasettypeid</title>
<path fill="none" stroke="black" d="M1024.63,-462.32C1090.93,-452.72 1016.16,-344.45 1065.41,-281.2 1153.62,-167.9 1201.92,-120.2 1345.51,-120.2"/>
<polygon fill="black" stroke="black" points="1024.62,-462.32 1014.34,-458.49 1019.3,-462.67 1014.98,-462.96 1014.98,-462.96 1014.98,-462.96 1019.3,-462.67 1014.94,-467.47 1024.62,-462.32"/>
<text text-anchor="start" x="726.15" y="-447" font-family="Arial" font-size="10.00">FOREIGN KEY (datasettypeid) REFERENCES ndb.datasettypes(datasettypeid) ON UPDATE CASCADE ON DELETE CASCADE</text>
</g>
<!-- ndb.datasettaxagrouptypes -->
<g id="node5" class="node">
<title>ndb.datasettaxagrouptypes</title>
<polygon fill="#efefef" stroke="none" points="1117.44,-509.2 1117.44,-544.8 1447.38,-544.8 1447.38,-509.2 1117.44,-509.2"/>
<polygon fill="none" stroke="black" points="1117.44,-509.2 1117.44,-544.8 1447.38,-544.8 1447.38,-509.2 1117.44,-509.2"/>
<text text-anchor="start" x="1124.44" y="-522.6" font-family="Arial Bold" font-size="18.00">ndb.datasettaxagrouptypes</text>
<text text-anchor="start" x="1315.89" y="-522.6" font-family="Arial" font-size="14.00">    </text>
<text text-anchor="start" x="1347" y="-522.6" font-family="Arial" font-size="14.00" fill="#666666">[BASE TABLE]</text>
<polygon fill="none" stroke="black" points="1117.44,-478.4 1117.44,-509.2 1447.38,-509.2 1447.38,-478.4 1117.44,-478.4"/>
<text text-anchor="start" x="1124.44" y="-490.6" font-family="Arial" font-size="14.00">datasettypeid </text>
<text text-anchor="start" x="1211.61" y="-490.6" font-family="Arial" font-size="14.00" fill="#666666">[integer]</text>
<polygon fill="none" stroke="black" points="1117.44,-447.6 1117.44,-478.4 1447.38,-478.4 1447.38,-447.6 1117.44,-447.6"/>
<text text-anchor="start" x="1124.44" y="-459.8" font-family="Arial" font-size="14.00">recdatecreated </text>
<text text-anchor="start" x="1221.73" y="-459.8" font-family="Arial" font-size="14.00" fill="#666666">[timestamp(0) without time zone]</text>
<polygon fill="none" stroke="black" points="1117.44,-416.8 1117.44,-447.6 1447.38,-447.6 1447.38,-416.8 1117.44,-416.8"/>
<text text-anchor="start" x="1124.44" y="-429" font-family="Arial" font-size="14.00">recdatemodified </text>
<text text-anchor="start" x="1227.95" y="-429" font-family="Arial" font-size="14.00" fill="#666666">[timestamp(0) without time zone]</text>
<polygon fill="none" stroke="black" points="1117.44,-386 1117.44,-416.8 1447.38,-416.8 1447.38,-386 1117.44,-386"/>
<text text-anchor="start" x="1124.44" y="-398.2" font-family="Arial" font-size="14.00">taxagroupid </text>
<text text-anchor="start" x="1201.5" y="-398.2" font-family="Arial" font-size="14.00" fill="#666666">[varchar(3)]</text>
</g>
<!-- ndb.datasettaxagrouptypes&#45;&gt;ndb.datasettypes -->
<g id="edge4" class="edge">
<title>ndb.datasettaxagrouptypes:datasettypeid&#45;&gt;ndb.datasettypes:datasettypeid</title>
<path fill="none" stroke="black" d="M1458.75,-492.96C1510.81,-483.77 1472.28,-401.01 1447.38,-342.8 1422.84,-285.45 1371.08,-302.54 1346.51,-245.2 1324.62,-194.14 1289.95,-120.2 1345.51,-120.2"/>
<polygon fill="black" stroke="black" points="1458.68,-492.97 1448.35,-489.29 1453.36,-493.4 1449.04,-493.75 1449.04,-493.75 1449.04,-493.75 1453.36,-493.4 1449.07,-498.26 1458.68,-492.97"/>
<text text-anchor="start" x="1455.38" y="-503.8" font-family="Arial" font-size="10.00">FOREIGN KEY (datasettypeid) REFERENCES ndb.datasettypes(datasettypeid) ON UPDATE CASCADE ON DELETE CASCADE</text>
</g>
<!-- ndb.elementdatasettaxagroups -->
<g id="node6" class="node">
<title>ndb.elementdatasettaxagroups</title>
<polygon fill="#efefef" stroke="none" points="1551.45,-524.6 1551.45,-560.2 1907.37,-560.2 1907.37,-524.6 1551.45,-524.6"/>
<polygon fill="none" stroke="black" points="1551.45,-524.6 1551.45,-560.2 1907.37,-560.2 1907.37,-524.6 1551.45,-524.6"/>
<text text-anchor="start" x="1558.45" y="-538" font-family="Arial Bold" font-size="18.00">ndb.elementdatasettaxagroups</text>
<text text-anchor="start" x="1775.88" y="-538" font-family="Arial" font-size="14.00">    </text>
<text text-anchor="start" x="1806.99" y="-538" font-family="Arial" font-size="14.00" fill="#666666">[BASE TABLE]</text>
<polygon fill="none" stroke="black" points="1551.45,-493.8 1551.45,-524.6 1907.37,-524.6 1907.37,-493.8 1551.45,-493.8"/>
<text text-anchor="start" x="1558.45" y="-506" font-family="Arial" font-size="14.00">datasettypeid </text>
<text text-anchor="start" x="1645.62" y="-506" font-family="Arial" font-size="14.00" fill="#666666">[integer]</text>
<polygon fill="none" stroke="black" points="1551.45,-463 1551.45,-493.8 1907.37,-493.8 1907.37,-463 1551.45,-463"/>
<text text-anchor="start" x="1558.45" y="-475.2" font-family="Arial" font-size="14.00">elementtypeid </text>
<text text-anchor="start" x="1649.51" y="-475.2" font-family="Arial" font-size="14.00" fill="#666666">[integer]</text>
<polygon fill="none" stroke="black" points="1551.45,-432.2 1551.45,-463 1907.37,-463 1907.37,-432.2 1551.45,-432.2"/>
<text text-anchor="start" x="1558.45" y="-444.4" font-family="Arial" font-size="14.00">recdatecreated </text>
<text text-anchor="start" x="1655.73" y="-444.4" font-family="Arial" font-size="14.00" fill="#666666">[timestamp(0) without time zone]</text>
<polygon fill="none" stroke="black" points="1551.45,-401.4 1551.45,-432.2 1907.37,-432.2 1907.37,-401.4 1551.45,-401.4"/>
<text text-anchor="start" x="1558.45" y="-413.6" font-family="Arial" font-size="14.00">recdatemodified </text>
<text text-anchor="start" x="1661.96" y="-413.6" font-family="Arial" font-size="14.00" fill="#666666">[timestamp(0) without time zone]</text>
<polygon fill="none" stroke="black" points="1551.45,-370.6 1551.45,-401.4 1907.37,-401.4 1907.37,-370.6 1551.45,-370.6"/>
<text text-anchor="start" x="1558.45" y="-382.8" font-family="Arial" font-size="14.00">taxagroupid </text>
<text text-anchor="start" x="1635.51" y="-382.8" font-family="Arial" font-size="14.00" fill="#666666">[varchar(3)]</text>
</g>
<!-- ndb.elementdatasettaxagroups&#45;&gt;ndb.datasettypes -->
<g id="edge5" class="edge">
<title>ndb.elementdatasettaxagroups:datasettypeid&#45;&gt;ndb.datasettypes:datasettypeid</title>
<path fill="none" stroke="black" d="M1540.31,-508.55C1473.65,-499.39 1515.98,-395.94 1551.45,-327.4 1580.3,-271.65 1637.39,-300.91 1666.31,-245.2 1691.91,-195.89 1722.87,-120.2 1667.31,-120.2"/>
<polygon fill="black" stroke="black" points="1540.14,-508.54 1549.83,-513.67 1545.46,-508.88 1549.79,-509.16 1549.79,-509.16 1549.79,-509.16 1545.46,-508.88 1550.41,-504.69 1540.14,-508.54"/>
<text text-anchor="start" x="1557.45" y="-519.2" font-family="Arial" font-size="10.00">FOREIGN KEY (datasettypeid) REFERENCES ndb.datasettypes(datasettypeid)</text>
</g>
<!-- ndb.taphonomicsystemsdatasettypes -->
<g id="node7" class="node">
<title>ndb.taphonomicsystemsdatasettypes</title>
<polygon fill="#efefef" stroke="none" points="2011.44,-509.2 2011.44,-544.8 2411.38,-544.8 2411.38,-509.2 2011.44,-509.2"/>
<polygon fill="none" stroke="black" points="2011.44,-509.2 2011.44,-544.8 2411.38,-544.8 2411.38,-509.2 2011.44,-509.2"/>
<text text-anchor="start" x="2018.44" y="-522.6" font-family="Arial Bold" font-size="18.00">ndb.taphonomicsystemsdatasettypes</text>
<text text-anchor="start" x="2279.89" y="-522.6" font-family="Arial" font-size="14.00">    </text>
<text text-anchor="start" x="2311.01" y="-522.6" font-family="Arial" font-size="14.00" fill="#666666">[BASE TABLE]</text>
<polygon fill="none" stroke="black" points="2011.44,-478.4 2011.44,-509.2 2411.38,-509.2 2411.38,-478.4 2011.44,-478.4"/>
<text text-anchor="start" x="2018.44" y="-490.6" font-family="Arial" font-size="14.00">datasettypeid </text>
<text text-anchor="start" x="2105.61" y="-490.6" font-family="Arial" font-size="14.00" fill="#666666">[integer]</text>
<polygon fill="none" stroke="black" points="2011.44,-447.6 2011.44,-478.4 2411.38,-478.4 2411.38,-447.6 2011.44,-447.6"/>
<text text-anchor="start" x="2018.44" y="-459.8" font-family="Arial" font-size="14.00">recdatecreated </text>
<text text-anchor="start" x="2115.72" y="-459.8" font-family="Arial" font-size="14.00" fill="#666666">[timestamp(0) without time zone]</text>
<polygon fill="none" stroke="black" points="2011.44,-416.8 2011.44,-447.6 2411.38,-447.6 2411.38,-416.8 2011.44,-416.8"/>
<text text-anchor="start" x="2018.44" y="-429" font-family="Arial" font-size="14.00">recdatemodified </text>
<text text-anchor="start" x="2121.94" y="-429" font-family="Arial" font-size="14.00" fill="#666666">[timestamp(0) without time zone]</text>
<polygon fill="none" stroke="black" points="2011.44,-386 2011.44,-416.8 2411.38,-416.8 2411.38,-386 2011.44,-386"/>
<text text-anchor="start" x="2018.44" y="-398.2" font-family="Arial" font-size="14.00">taphonomicsystemid </text>
<text text-anchor="start" x="2149.94" y="-398.2" font-family="Arial" font-size="14.00" fill="#666666">[integer]</text>
</g>
<!-- ndb.taphonomicsystemsdatasettypes&#45;&gt;ndb.datasettypes -->
<g id="edge6" class="edge">
<title>ndb.taphonomicsystemsdatasettypes:datasettypeid&#45;&gt;ndb.datasettypes:datasettypeid</title>
<path fill="none" stroke="black" d="M2000.43,-493.25C1920.83,-483.84 2016.13,-355.61 1959.41,-281.2 1869.54,-163.31 1815.55,-120.2 1667.31,-120.2"/>
<polygon fill="black" stroke="black" points="2000.12,-493.23 2009.86,-498.27 2005.44,-493.53 2009.77,-493.76 2009.77,-493.76 2009.77,-493.76 2005.44,-493.53 2010.35,-489.29 2000.12,-493.23"/>
<text text-anchor="start" x="1574.7" y="-477.8" font-family="Arial" font-size="10.00">FOREIGN KEY (datasettypeid) REFERENCES ndb.datasettypes(datasettypeid) ON UPDATE CASCADE ON DELETE CASCADE</text>
</g>
<!-- ndb.accumulationrates -->
<g id="node9" class="node">
<title>ndb.accumulationrates</title>
<polygon fill="#efefef" stroke="none" points="2945.51,-540 2945.51,-575.6 3265.31,-575.6 3265.31,-540 2945.51,-540"/>
<polygon fill="none" stroke="black" points="2945.51,-540 2945.51,-575.6 3265.31,-575.6 3265.31,-540 2945.51,-540"/>
<text text-anchor="start" x="2961.94" y="-553.4" font-family="Arial Bold" font-size="18.00">ndb.accumulationrates</text>
<text text-anchor="start" x="3124.38" y="-553.4" font-family="Arial" font-size="14.00">    </text>
<text text-anchor="start" x="3155.5" y="-553.4" font-family="Arial" font-size="14.00" fill="#666666">[BASE TABLE]</text>
<polygon fill="none" stroke="black" points="2945.51,-509.2 2945.51,-540 3265.31,-540 3265.31,-509.2 2945.51,-509.2"/>
<text text-anchor="start" x="2952.51" y="-521.4" font-family="Arial" font-size="14.00">accumulationrate </text>
<text text-anchor="start" x="3063.01" y="-521.4" font-family="Arial" font-size="14.00" fill="#666666">[double precision]</text>
<polygon fill="none" stroke="black" points="2945.51,-478.4 2945.51,-509.2 3265.31,-509.2 3265.31,-478.4 2945.51,-478.4"/>
<text text-anchor="start" x="2952.51" y="-490.6" font-family="Arial" font-size="14.00">analysisunitid </text>
<text text-anchor="start" x="3040.45" y="-490.6" font-family="Arial" font-size="14.00" fill="#666666">[integer]</text>
<polygon fill="none" stroke="black" points="2945.51,-447.6 2945.51,-478.4 3265.31,-478.4 3265.31,-447.6 2945.51,-447.6"/>
<text text-anchor="start" x="2952.51" y="-459.8" font-family="Arial" font-size="14.00">chronologyid </text>
<text text-anchor="start" x="3035.79" y="-459.8" font-family="Arial" font-size="14.00" fill="#666666">[integer]</text>
<polygon fill="none" stroke="black" points="2945.51,-416.8 2945.51,-447.6 3265.31,-447.6 3265.31,-416.8 2945.51,-416.8"/>
<text text-anchor="start" x="2952.51" y="-429" font-family="Arial" font-size="14.00">recdatecreated </text>
<text text-anchor="start" x="3049.79" y="-429" font-family="Arial" font-size="14.00" fill="#666666">[timestamp(0) without time zone]</text>
<polygon fill="none" stroke="black" points="2945.51,-386 2945.51,-416.8 3265.31,-416.8 3265.31,-386 2945.51,-386"/>
<text text-anchor="start" x="2952.51" y="-398.2" font-family="Arial" font-size="14.00">recdatemodified </text>
<text text-anchor="start" x="3056.01" y="-398.2" font-family="Arial" font-size="14.00" fill="#666666">[timestamp(0) without time zone]</text>
<polygon fill="none" stroke="black" points="2945.51,-355.2 2945.51,-386 3265.31,-386 3265.31,-355.2 2945.51,-355.2"/>
<text text-anchor="start" x="2952.51" y="-367.4" font-family="Arial" font-size="14.00">variableunitsid </text>
<text text-anchor="start" x="3045.9" y="-367.4" font-family="Arial" font-size="14.00" fill="#666666">[integer]</text>
</g>
<!-- ndb.accumulationrates&#45;&gt;ndb.variableunits -->
<g id="edge8" class="edge">
<title>ndb.accumulationrates:variableunitsid&#45;&gt;ndb.variableunits:variableunitsid</title>
<path fill="none" stroke="black" d="M3276.51,-369.32C3307.37,-360.43 3284.94,-307.58 3317.41,-281.2 3566.9,-78.54 3684.08,-58.6 4005.51,-58.6"/>
<polygon fill="black" stroke="black" points="3276.56,-369.31 3266.08,-366.09 3271.27,-369.98 3266.97,-370.52 3266.97,-370.52 3266.97,-370.52 3271.27,-369.98 3267.2,-375.02 3276.56,-369.31"/>
<text text-anchor="start" x="2974" y="-354.6" font-family="Arial" font-size="10.00">FOREIGN KEY (variableunitsid) REFERENCES ndb.variableunits(variableunitsid) ON UPDATE CASCADE ON DELETE CASCADE</text>
</g>
<!-- ndb.analysisunitaltdepthscales -->
<g id="node10" class="node">
<title>ndb.analysisunitaltdepthscales</title>
<polygon fill="#efefef" stroke="none" points="3369.94,-555.4 3369.94,-591 3726.88,-591 3726.88,-555.4 3369.94,-555.4"/>
<polygon fill="none" stroke="black" points="3369.94,-555.4 3369.94,-591 3726.88,-591 3726.88,-555.4 3369.94,-555.4"/>
<text text-anchor="start" x="3376.94" y="-568.8" font-family="Arial Bold" font-size="18.00">ndb.analysisunitaltdepthscales</text>
<text text-anchor="start" x="3595.39" y="-568.8" font-family="Arial" font-size="14.00">    </text>
<text text-anchor="start" x="3626.51" y="-568.8" font-family="Arial" font-size="14.00" fill="#666666">[BASE TABLE]</text>
<polygon fill="none" stroke="black" points="3369.94,-524.6 3369.94,-555.4 3726.88,-555.4 3726.88,-524.6 3369.94,-524.6"/>
<text text-anchor="start" x="3376.94" y="-536.8" font-family="Arial" font-size="14.00">altdepthid </text>
<text text-anchor="start" x="3441.54" y="-536.8" font-family="Arial" font-size="14.00" fill="#666666">[integer]</text>
<polygon fill="none" stroke="black" points="3369.94,-493.8 3369.94,-524.6 3726.88,-524.6 3726.88,-493.8 3369.94,-493.8"/>
<text text-anchor="start" x="3376.94" y="-506" font-family="Arial" font-size="14.00">altdepthname </text>
<text text-anchor="start" x="3465.67" y="-506" font-family="Arial" font-size="14.00" fill="#666666">[varchar(80)]</text>
<polygon fill="none" stroke="black" points="3369.94,-463 3369.94,-493.8 3726.88,-493.8 3726.88,-463 3369.94,-463"/>
<text text-anchor="start" x="3376.94" y="-475.2" font-family="Arial" font-size="14.00">altdepthscaleid </text>
<text text-anchor="start" x="3474.23" y="-475.2" font-family="Arial" font-size="14.00" fill="#666666">[integer]</text>
<polygon fill="none" stroke="black" points="3369.94,-432.2 3369.94,-463 3726.88,-463 3726.88,-432.2 3369.94,-432.2"/>
<text text-anchor="start" x="3376.94" y="-444.4" font-family="Arial" font-size="14.00">notes </text>
<text text-anchor="start" x="3415.08" y="-444.4" font-family="Arial" font-size="14.00" fill="#666666">[text]</text>
<polygon fill="none" stroke="black" points="3369.94,-401.4 3369.94,-432.2 3726.88,-432.2 3726.88,-401.4 3369.94,-401.4"/>
<text text-anchor="start" x="3376.94" y="-413.6" font-family="Arial" font-size="14.00">recdatecreated </text>
<text text-anchor="start" x="3474.22" y="-413.6" font-family="Arial" font-size="14.00" fill="#666666">[timestamp(0) without time zone]</text>
<polygon fill="none" stroke="black" points="3369.94,-370.6 3369.94,-401.4 3726.88,-401.4 3726.88,-370.6 3369.94,-370.6"/>
<text text-anchor="start" x="3376.94" y="-382.8" font-family="Arial" font-size="14.00">recdatemodified </text>
<text text-anchor="start" x="3480.44" y="-382.8" font-family="Arial" font-size="14.00" fill="#666666">[timestamp(0) without time zone]</text>
<polygon fill="none" stroke="black" points="3369.94,-339.8 3369.94,-370.6 3726.88,-370.6 3726.88,-339.8 3369.94,-339.8"/>
<text text-anchor="start" x="3376.94" y="-352" font-family="Arial" font-size="14.00">variableunitsid </text>
<text text-anchor="start" x="3470.32" y="-352" font-family="Arial" font-size="14.00" fill="#666666">[integer]</text>
</g>
<!-- ndb.analysisunitaltdepthscales&#45;&gt;ndb.variableunits -->
<g id="edge9" class="edge">
<title>ndb.analysisunitaltdepthscales:variableunitsid&#45;&gt;ndb.variableunits:variableunitsid</title>
<path fill="none" stroke="black" d="M3738.15,-354.01C3765.53,-346.85 3756.09,-308.84 3779.41,-281.2 3870.33,-173.41 3864.49,-58.6 4005.51,-58.6"/>
<polygon fill="black" stroke="black" points="3738.15,-354.01 3727.69,-350.69 3732.85,-354.63 3728.54,-355.12 3728.54,-355.12 3728.54,-355.12 3732.85,-354.63 3728.73,-359.63 3738.15,-354.01"/>
<text text-anchor="start" x="3734.88" y="-365.2" font-family="Arial" font-size="10.00">FOREIGN KEY (variableunitsid) REFERENCES ndb.variableunits(variableunitsid) ON UPDATE CASCADE ON DELETE CASCADE</text>
</g>
<!-- ndb.datauncertainties -->
<g id="node11" class="node">
<title>ndb.datauncertainties</title>
<polygon fill="#efefef" stroke="none" points="3831.44,-524.6 3831.44,-560.2 4123.37,-560.2 4123.37,-524.6 3831.44,-524.6"/>
<polygon fill="none" stroke="black" points="3831.44,-524.6 3831.44,-560.2 4123.37,-560.2 4123.37,-524.6 3831.44,-524.6"/>
<text text-anchor="start" x="3838.44" y="-538" font-family="Arial Bold" font-size="18.00">ndb.datauncertainties</text>
<text text-anchor="start" x="3991.88" y="-538" font-family="Arial" font-size="14.00">    </text>
<text text-anchor="start" x="4023" y="-538" font-family="Arial" font-size="14.00" fill="#666666">[BASE TABLE]</text>
<polygon fill="none" stroke="black" points="3831.44,-493.8 3831.44,-524.6 4123.37,-524.6 4123.37,-493.8 3831.44,-493.8"/>
<text text-anchor="start" x="3838.44" y="-506" font-family="Arial" font-size="14.00">dataid </text>
<text text-anchor="start" x="3880.48" y="-506" font-family="Arial" font-size="14.00" fill="#666666">[integer]</text>
<polygon fill="none" stroke="black" points="3831.44,-463 3831.44,-493.8 4123.37,-493.8 4123.37,-463 3831.44,-463"/>
<text text-anchor="start" x="3838.44" y="-475.2" font-family="Arial" font-size="14.00">notes </text>
<text text-anchor="start" x="3876.58" y="-475.2" font-family="Arial" font-size="14.00" fill="#666666">[text]</text>
<polygon fill="none" stroke="black" points="3831.44,-432.2 3831.44,-463 4123.37,-463 4123.37,-432.2 3831.44,-432.2"/>
<text text-anchor="start" x="3838.44" y="-444.4" font-family="Arial" font-size="14.00">uncertaintybasisid </text>
<text text-anchor="start" x="3954.4" y="-444.4" font-family="Arial" font-size="14.00" fill="#666666">[integer]</text>
<polygon fill="none" stroke="black" points="3831.44,-401.4 3831.44,-432.2 4123.37,-432.2 4123.37,-401.4 3831.44,-401.4"/>
<text text-anchor="start" x="3838.44" y="-413.6" font-family="Arial" font-size="14.00">uncertaintyunitid </text>
<text text-anchor="start" x="3944.29" y="-413.6" font-family="Arial" font-size="14.00" fill="#666666">[integer]</text>
<polygon fill="none" stroke="black" points="3831.44,-370.6 3831.44,-401.4 4123.37,-401.4 4123.37,-370.6 3831.44,-370.6"/>
<text text-anchor="start" x="3838.44" y="-382.8" font-family="Arial" font-size="14.00">uncertaintyvalue </text>
<text text-anchor="start" x="3944.29" y="-382.8" font-family="Arial" font-size="14.00" fill="#666666">[double precision]</text>
</g>
<!-- ndb.datauncertainties&#45;&gt;ndb.variableunits -->
<g id="edge10" class="edge">
<title>ndb.datauncertainties:uncertaintyunitid&#45;&gt;ndb.variableunits:variableunitsid</title>
<path fill="none" stroke="black" d="M4134.63,-415.2C4159.63,-405.98 4140,-358.99 4123.37,-327.4 4093.8,-271.21 4035.92,-301.48 4006.51,-245.2 3968.1,-171.7 3922.58,-58.6 4005.51,-58.6"/>
<polygon fill="black" stroke="black" points="4134.58,-415.21 4124.01,-412.3 4129.31,-416.03 4125.03,-416.7 4125.03,-416.7 4125.03,-416.7 4129.31,-416.03 4125.4,-421.19 4134.58,-415.21"/>
<text text-anchor="start" x="3746.68" y="-426.8" font-family="Arial" font-size="10.00">FOREIGN KEY (uncertaintyunitid) REFERENCES ndb.variableunits(variableunitsid)</text>
</g>
<!-- ndb.entitycovers -->
<g id="node12" class="node">
<title>ndb.entitycovers</title>
<polygon fill="#efefef" stroke="none" points="4227.43,-509.2 4227.43,-544.8 4485.39,-544.8 4485.39,-509.2 4227.43,-509.2"/>
<polygon fill="none" stroke="black" points="4227.43,-509.2 4227.43,-544.8 4485.39,-544.8 4485.39,-509.2 4227.43,-509.2"/>
<text text-anchor="start" x="4234.43" y="-522.6" font-family="Arial Bold" font-size="18.00">ndb.entitycovers</text>
<text text-anchor="start" x="4353.9" y="-522.6" font-family="Arial" font-size="14.00">    </text>
<text text-anchor="start" x="4385.02" y="-522.6" font-family="Arial" font-size="14.00" fill="#666666">[BASE TABLE]</text>
<polygon fill="none" stroke="black" points="4227.43,-478.4 4227.43,-509.2 4485.39,-509.2 4485.39,-478.4 4227.43,-478.4"/>
<text text-anchor="start" x="4234.43" y="-490.6" font-family="Arial" font-size="14.00">entitycoverid </text>
<text text-anchor="start" x="4316.91" y="-490.6" font-family="Arial" font-size="14.00" fill="#666666">[integer]</text>
<polygon fill="none" stroke="black" points="4227.43,-447.6 4227.43,-478.4 4485.39,-478.4 4485.39,-447.6 4227.43,-447.6"/>
<text text-anchor="start" x="4234.43" y="-459.8" font-family="Arial" font-size="14.00">entitycoverthickness </text>
<text text-anchor="start" x="4364.37" y="-459.8" font-family="Arial" font-size="14.00" fill="#666666">[real]</text>
<polygon fill="none" stroke="black" points="4227.43,-416.8 4227.43,-447.6 4485.39,-447.6 4485.39,-416.8 4227.43,-416.8"/>
<text text-anchor="start" x="4234.43" y="-429" font-family="Arial" font-size="14.00">entitycoverunits </text>
<text text-anchor="start" x="4335.59" y="-429" font-family="Arial" font-size="14.00" fill="#666666">[integer]</text>
<polygon fill="none" stroke="black" points="4227.43,-386 4227.43,-416.8 4485.39,-416.8 4485.39,-386 4227.43,-386"/>
<text text-anchor="start" x="4234.43" y="-398.2" font-family="Arial" font-size="14.00">entityid </text>
<text text-anchor="start" x="4282.68" y="-398.2" font-family="Arial" font-size="14.00" fill="#666666">[integer]</text>
</g>
<!-- ndb.entitycovers&#45;&gt;ndb.variableunits -->
<g id="edge11" class="edge">
<title>ndb.entitycovers:entitycoverunits&#45;&gt;ndb.variableunits:variableunitsid</title>
<path fill="none" stroke="black" d="M4216.25,-430.64C4191.71,-421.64 4213.48,-375.66 4227.43,-342.8 4251.56,-285.96 4302.34,-302.11 4326.31,-245.2 4358.5,-168.77 4410.24,-58.6 4327.31,-58.6"/>
<polygon fill="black" stroke="black" points="4216.21,-430.63 4225.42,-436.6 4221.49,-431.44 4225.77,-432.1 4225.77,-432.1 4225.77,-432.1 4221.49,-431.44 4226.78,-427.7 4216.21,-430.63"/>
<text text-anchor="start" x="3852.08" y="-442.2" font-family="Arial" font-size="10.00">FOREIGN KEY (entitycoverunits) REFERENCES ndb.variableunits(variableunitsid)</text>
</g>
<!-- ndb.entitydripheight -->
<g id="node13" class="node">
<title>ndb.entitydripheight</title>
<polygon fill="#efefef" stroke="none" points="4589.93,-509.2 4589.93,-544.8 4874.89,-544.8 4874.89,-509.2 4589.93,-509.2"/>
<polygon fill="none" stroke="black" points="4589.93,-509.2 4589.93,-544.8 4874.89,-544.8 4874.89,-509.2 4589.93,-509.2"/>
<text text-anchor="start" x="4596.93" y="-522.6" font-family="Arial Bold" font-size="18.00">ndb.entitydripheight</text>
<text text-anchor="start" x="4743.4" y="-522.6" font-family="Arial" font-size="14.00">    </text>
<text text-anchor="start" x="4774.52" y="-522.6" font-family="Arial" font-size="14.00" fill="#666666">[BASE TABLE]</text>
<polygon fill="none" stroke="black" points="4589.93,-478.4 4589.93,-509.2 4874.89,-509.2 4874.89,-478.4 4589.93,-478.4"/>
<text text-anchor="start" x="4596.93" y="-490.6" font-family="Arial" font-size="14.00">entitydripheight </text>
<text text-anchor="start" x="4695.77" y="-490.6" font-family="Arial" font-size="14.00" fill="#666666">[real]</text>
<polygon fill="none" stroke="black" points="4589.93,-447.6 4589.93,-478.4 4874.89,-478.4 4874.89,-447.6 4589.93,-447.6"/>
<text text-anchor="start" x="4596.93" y="-459.8" font-family="Arial" font-size="14.00">entitydripheightunit </text>
<text text-anchor="start" x="4718.34" y="-459.8" font-family="Arial" font-size="14.00" fill="#666666">[integer]</text>
<polygon fill="none" stroke="black" points="4589.93,-416.8 4589.93,-447.6 4874.89,-447.6 4874.89,-416.8 4589.93,-416.8"/>
<text text-anchor="start" x="4596.93" y="-429" font-family="Arial" font-size="14.00">entityid </text>
<text text-anchor="start" x="4645.17" y="-429" font-family="Arial" font-size="14.00" fill="#666666">[integer]</text>
<polygon fill="none" stroke="black" points="4589.93,-386 4589.93,-416.8 4874.89,-416.8 4874.89,-386 4589.93,-386"/>
<text text-anchor="start" x="4596.93" y="-398.2" font-family="Arial" font-size="14.00">speleothemdriptypeid </text>
<text text-anchor="start" x="4733.9" y="-398.2" font-family="Arial" font-size="14.00" fill="#666666">[integer]</text>
</g>
<!-- ndb.entitydripheight&#45;&gt;ndb.variableunits -->
<g id="edge12" class="edge">
<title>ndb.entitydripheight:entitydripheightunit&#45;&gt;ndb.variableunits:variableunitsid</title>
<path fill="none" stroke="black" d="M4578.54,-462.35C4511.35,-453.3 4577.01,-350.95 4537.41,-281.2 4470.25,-162.89 4463.35,-58.6 4327.31,-58.6"/>
<polygon fill="black" stroke="black" points="4578.61,-462.36 4588.31,-467.47 4583.93,-462.69 4588.26,-462.96 4588.26,-462.96 4588.26,-462.96 4583.93,-462.69 4588.87,-458.49 4578.61,-462.36"/>
<text text-anchor="start" x="4595.93" y="-473" font-family="Arial" font-size="10.00">FOREIGN KEY (entitydripheightunit) REFERENCES ndb.variableunits(variableunitsid)</text>
</g>
<!-- ndb.speleothems -->
<g id="node14" class="node">
<title>ndb.speleothems</title>
<polygon fill="#efefef" stroke="none" points="4978.92,-570.8 4978.92,-606.4 5237.89,-606.4 5237.89,-570.8 4978.92,-570.8"/>
<polygon fill="none" stroke="black" points="4978.92,-570.8 4978.92,-606.4 5237.89,-606.4 5237.89,-570.8 4978.92,-570.8"/>
<text text-anchor="start" x="4985.92" y="-584.2" font-family="Arial Bold" font-size="18.00">ndb.speleothems</text>
<text text-anchor="start" x="5106.4" y="-584.2" font-family="Arial" font-size="14.00">    </text>
<text text-anchor="start" x="5137.52" y="-584.2" font-family="Arial" font-size="14.00" fill="#666666">[BASE TABLE]</text>
<polygon fill="none" stroke="black" points="4978.92,-540 4978.92,-570.8 5237.89,-570.8 5237.89,-540 4978.92,-540"/>
<text text-anchor="start" x="4985.92" y="-552.2" font-family="Arial" font-size="14.00">entityid </text>
<text text-anchor="start" x="5034.17" y="-552.2" font-family="Arial" font-size="14.00" fill="#666666">[integer]</text>
<polygon fill="none" stroke="black" points="4978.92,-509.2 4978.92,-540 5237.89,-540 5237.89,-509.2 4978.92,-509.2"/>
<text text-anchor="start" x="4985.92" y="-521.4" font-family="Arial" font-size="14.00">entityname </text>
<text text-anchor="start" x="5058.3" y="-521.4" font-family="Arial" font-size="14.00" fill="#666666">[text]</text>
<polygon fill="none" stroke="black" points="4978.92,-478.4 4978.92,-509.2 5237.89,-509.2 5237.89,-478.4 4978.92,-478.4"/>
<text text-anchor="start" x="4985.92" y="-490.6" font-family="Arial" font-size="14.00">entrancedistance </text>
<text text-anchor="start" x="5096.44" y="-490.6" font-family="Arial" font-size="14.00" fill="#666666">[real]</text>
<polygon fill="none" stroke="black" points="4978.92,-447.6 4978.92,-478.4 5237.89,-478.4 5237.89,-447.6 4978.92,-447.6"/>
<text text-anchor="start" x="4985.92" y="-459.8" font-family="Arial" font-size="14.00">entrancedistanceunits </text>
<text text-anchor="start" x="5126.01" y="-459.8" font-family="Arial" font-size="14.00" fill="#666666">[integer]</text>
<polygon fill="none" stroke="black" points="4978.92,-416.8 4978.92,-447.6 5237.89,-447.6 5237.89,-416.8 4978.92,-416.8"/>
<text text-anchor="start" x="4985.92" y="-429" font-family="Arial" font-size="14.00">monitoring </text>
<text text-anchor="start" x="5055.18" y="-429" font-family="Arial" font-size="14.00" fill="#666666">[boolean]</text>
<polygon fill="none" stroke="black" points="4978.92,-386 4978.92,-416.8 5237.89,-416.8 5237.89,-386 4978.92,-386"/>
<text text-anchor="start" x="4985.92" y="-398.2" font-family="Arial" font-size="14.00">rockageid </text>
<text text-anchor="start" x="5050.52" y="-398.2" font-family="Arial" font-size="14.00" fill="#666666">[integer]</text>
<polygon fill="none" stroke="black" points="4978.92,-355.2 4978.92,-386 5237.89,-386 5237.89,-355.2 4978.92,-355.2"/>
<text text-anchor="start" x="4985.92" y="-367.4" font-family="Arial" font-size="14.00">siteid </text>
<text text-anchor="start" x="5022.5" y="-367.4" font-family="Arial" font-size="14.00" fill="#666666">[integer]</text>
<polygon fill="none" stroke="black" points="4978.92,-324.4 4978.92,-355.2 5237.89,-355.2 5237.89,-324.4 4978.92,-324.4"/>
<text text-anchor="start" x="4985.92" y="-336.6" font-family="Arial" font-size="14.00">speleothemtypeid </text>
<text text-anchor="start" x="5099.55" y="-336.6" font-family="Arial" font-size="14.00" fill="#666666">[integer]</text>
</g>
<!-- ndb.speleothems&#45;&gt;ndb.variableunits -->
<g id="edge13" class="edge">
<title>ndb.speleothems:entrancedistanceunits&#45;&gt;ndb.variableunits:variableunitsid</title>
<path fill="none" stroke="black" d="M4967.65,-462.29C4901.86,-452.33 4981.61,-340.17 4927.41,-281.2 4734.9,-71.76 4611.78,-58.6 4327.31,-58.6"/>
<polygon fill="black" stroke="black" points="4967.61,-462.29 4977.28,-467.47 4972.94,-462.66 4977.26,-462.95 4977.26,-462.95 4977.26,-462.95 4972.94,-462.66 4977.9,-458.49 4967.61,-462.29"/>
<text text-anchor="start" x="4575.76" y="-447" font-family="Arial" font-size="10.00">FOREIGN KEY (entrancedistanceunits) REFERENCES ndb.variableunits(variableunitsid)</text>
</g>
<!-- ndb.variables -->
<g id="node15" class="node">
<title>ndb.variables</title>
<polygon fill="#efefef" stroke="none" points="5342.51,-555.4 5342.51,-591 5662.31,-591 5662.31,-555.4 5342.51,-555.4"/>
<polygon fill="none" stroke="black" points="5342.51,-555.4 5342.51,-591 5662.31,-591 5662.31,-555.4 5342.51,-555.4"/>
<text text-anchor="start" x="5391.93" y="-568.8" font-family="Arial Bold" font-size="18.00">ndb.variables</text>
<text text-anchor="start" x="5488.4" y="-568.8" font-family="Arial" font-size="14.00">    </text>
<text text-anchor="start" x="5519.52" y="-568.8" font-family="Arial" font-size="14.00" fill="#666666">[BASE TABLE]</text>
<polygon fill="none" stroke="black" points="5342.51,-524.6 5342.51,-555.4 5662.31,-555.4 5662.31,-524.6 5342.51,-524.6"/>
<text text-anchor="start" x="5349.51" y="-536.8" font-family="Arial" font-size="14.00">recdatecreated </text>
<text text-anchor="start" x="5446.79" y="-536.8" font-family="Arial" font-size="14.00" fill="#666666">[timestamp(0) without time zone]</text>
<polygon fill="none" stroke="black" points="5342.51,-493.8 5342.51,-524.6 5662.31,-524.6 5662.31,-493.8 5342.51,-493.8"/>
<text text-anchor="start" x="5349.51" y="-506" font-family="Arial" font-size="14.00">recdatemodified </text>
<text text-anchor="start" x="5453.01" y="-506" font-family="Arial" font-size="14.00" fill="#666666">[timestamp(0) without time zone]</text>
<polygon fill="none" stroke="black" points="5342.51,-463 5342.51,-493.8 5662.31,-493.8 5662.31,-463 5342.51,-463"/>
<text text-anchor="start" x="5349.51" y="-475.2" font-family="Arial" font-size="14.00">taxonid </text>
<text text-anchor="start" x="5398.54" y="-475.2" font-family="Arial" font-size="14.00" fill="#666666">[integer]</text>
<polygon fill="none" stroke="black" points="5342.51,-432.2 5342.51,-463 5662.31,-463 5662.31,-432.2 5342.51,-432.2"/>
<text text-anchor="start" x="5349.51" y="-444.4" font-family="Arial" font-size="14.00">variablecontextid </text>
<text text-anchor="start" x="5458.46" y="-444.4" font-family="Arial" font-size="14.00" fill="#666666">[integer]</text>
<polygon fill="none" stroke="black" points="5342.51,-401.4 5342.51,-432.2 5662.31,-432.2 5662.31,-401.4 5342.51,-401.4"/>
<text text-anchor="start" x="5349.51" y="-413.6" font-family="Arial" font-size="14.00">variableelementid </text>
<text text-anchor="start" x="5463.13" y="-413.6" font-family="Arial" font-size="14.00" fill="#666666">[integer]</text>
<polygon fill="none" stroke="black" points="5342.51,-370.6 5342.51,-401.4 5662.31,-401.4 5662.31,-370.6 5342.51,-370.6"/>
<text text-anchor="start" x="5349.51" y="-382.8" font-family="Arial" font-size="14.00">variableid </text>
<text text-anchor="start" x="5413.32" y="-382.8" font-family="Arial" font-size="14.00" fill="#666666">[integer]</text>
<polygon fill="none" stroke="black" points="5342.51,-339.8 5342.51,-370.6 5662.31,-370.6 5662.31,-339.8 5342.51,-339.8"/>
<text text-anchor="start" x="5349.51" y="-352" font-family="Arial" font-size="14.00">variableunitsid </text>
<text text-anchor="start" x="5442.9" y="-352" font-family="Arial" font-size="14.00" fill="#666666">[integer]</text>
</g>
<!-- ndb.variables&#45;&gt;ndb.variableunits -->
<g id="edge14" class="edge">
<title>ndb.variables:variableunitsid&#45;&gt;ndb.variableunits:variableunitsid</title>
<path fill="none" stroke="black" d="M5331.46,-353.8C5305.3,-345.41 5320.24,-301.47 5290.41,-281.2 5108.72,-157.75 4546.97,-58.6 4327.31,-58.6"/>
<polygon fill="black" stroke="black" points="5331.27,-353.77 5340.56,-359.61 5336.56,-354.51 5340.85,-355.11 5340.85,-355.11 5340.85,-355.11 5336.56,-354.51 5341.8,-350.7 5331.27,-353.77"/>
<text text-anchor="start" x="5348.51" y="-365.2" font-family="Arial" font-size="10.00">FOREIGN KEY (variableunitsid) REFERENCES ndb.variableunits(variableunitsid) ON UPDATE CASCADE ON DELETE CASCADE</text>
</g>
</g>
</svg>
