<?xml version="1.0" encoding="UTF-8" standalone="no"?>
<!DOCTYPE svg PUBLIC "-//W3C//DTD SVG 1.1//EN"
 "http://www.w3.org/Graphics/SVG/1.1/DTD/svg11.dtd">
<!-- Generated by graphviz version 12.1.2 (20240928.0832)
 -->
<!-- Title: ndb.geopoldepth Pages: 1 -->
<svg width="311pt" height="290pt"
 viewBox="0.00 0.00 310.50 290.00" xmlns="http://www.w3.org/2000/svg" xmlns:xlink="http://www.w3.org/1999/xlink">
<g id="graph0" class="graph" transform="scale(1 1) rotate(0) translate(4 286)">
<title>ndb.geopoldepth</title>
<polygon fill="white" stroke="none" points="-4,4 -4,-286 306.5,-286 306.5,4 -4,4"/>
<!-- ndb.geopoldepth -->
<g id="node1" class="node">
<title>ndb.geopoldepth</title>
<polygon fill="#efefef" stroke="none" points="46.2,-200.2 46.2,-235.8 256.3,-235.8 256.3,-200.2 46.2,-200.2"/>
<polygon fill="none" stroke="black" points="46.2,-200.2 46.2,-235.8 256.3,-235.8 256.3,-200.2 46.2,-200.2"/>
<text text-anchor="start" x="53.67" y="-213.6" font-family="Arial Bold" font-size="18.00">ndb.geopoldepth</text>
<text text-anchor="start" x="174.15" y="-213.6" font-family="Arial" font-size="14.00">    </text>
<text text-anchor="start" x="205.27" y="-213.6" font-family="Arial" font-size="14.00" fill="#666666">[VIEW]</text>
<polygon fill="none" stroke="black" points="46.2,-169.4 46.2,-200.2 256.3,-200.2 256.3,-169.4 46.2,-169.4"/>
<text text-anchor="start" x="53.2" y="-181.6" font-family="Arial" font-size="14.00">geopoliticalid </text>
<text text-anchor="start" x="138.03" y="-181.6" font-family="Arial" font-size="14.00" fill="#666666">[integer]</text>
<polygon fill="none" stroke="black" points="46.2,-138.6 46.2,-169.4 256.3,-169.4 256.3,-138.6 46.2,-138.6"/>
<text text-anchor="start" x="53.2" y="-150.8" font-family="Arial" font-size="14.00">geopoliticalname </text>
<text text-anchor="start" x="162.16" y="-150.8" font-family="Arial" font-size="14.00" fill="#666666">[varchar(255)]</text>
<polygon fill="none" stroke="black" points="46.2,-107.8 46.2,-138.6 256.3,-138.6 256.3,-107.8 46.2,-107.8"/>
<text text-anchor="start" x="53.2" y="-120" font-family="Arial" font-size="14.00">geopoliticalunit </text>
<text text-anchor="start" x="149.71" y="-120" font-family="Arial" font-size="14.00" fill="#666666">[varchar(255)]</text>
<polygon fill="none" stroke="black" points="46.2,-77 46.2,-107.8 256.3,-107.8 256.3,-77 46.2,-77"/>
<text text-anchor="start" x="53.2" y="-89.2" font-family="Arial" font-size="14.00">rank </text>
<text text-anchor="start" x="84.32" y="-89.2" font-family="Arial" font-size="14.00" fill="#666666">[integer]</text>
<polygon fill="none" stroke="black" points="46.2,-46.2 46.2,-77 256.3,-77 256.3,-46.2 46.2,-46.2"/>
<text text-anchor="start" x="53.2" y="-58.4" font-family="Arial" font-size="14.00">path </text>
<text text-anchor="start" x="84.34" y="-58.4" font-family="Arial" font-size="14.00" fill="#666666">[integer[]]</text>
<polygon fill="none" stroke="black" stroke-width="3" points="44.7,-44.7 44.7,-237.3 257.8,-237.3 257.8,-44.7 44.7,-44.7"/>
</g>
</g>
</svg>
