<?xml version="1.0" encoding="UTF-8" standalone="no"?>
<!DOCTYPE svg PUBLIC "-//W3C//DTD SVG 1.1//EN"
 "http://www.w3.org/Graphics/SVG/1.1/DTD/svg11.dtd">
<!-- Generated by graphviz version 12.1.2 (20240928.0832)
 -->
<!-- Title: ndb.taphonomicsystemsdatasettypes Pages: 1 -->
<svg width="3638pt" height="688pt"
 viewBox="0.00 0.00 3637.81 688.40" xmlns="http://www.w3.org/2000/svg" xmlns:xlink="http://www.w3.org/1999/xlink">
<g id="graph0" class="graph" transform="scale(1 1) rotate(0) translate(4 684.4)">
<title>ndb.taphonomicsystemsdatasettypes</title>
<polygon fill="white" stroke="none" points="-4,4 -4,-684.4 3633.81,-684.4 3633.81,4 -4,4"/>
<!-- ndb.taphonomicsystemsdatasettypes -->
<g id="node1" class="node">
<title>ndb.taphonomicsystemsdatasettypes</title>
<polygon fill="#efefef" stroke="none" points="2438.44,-540 2438.44,-575.6 2838.38,-575.6 2838.38,-540 2438.44,-540"/>
<polygon fill="none" stroke="black" points="2438.44,-540 2438.44,-575.6 2838.38,-575.6 2838.38,-540 2438.44,-540"/>
<text text-anchor="start" x="2445.44" y="-553.4" font-family="Arial Bold" font-size="18.00">ndb.taphonomicsystemsdatasettypes</text>
<text text-anchor="start" x="2706.89" y="-553.4" font-family="Arial" font-size="14.00">    </text>
<text text-anchor="start" x="2738.01" y="-553.4" font-family="Arial" font-size="14.00" fill="#666666">[BASE TABLE]</text>
<polygon fill="none" stroke="black" points="2438.44,-509.2 2438.44,-540 2838.38,-540 2838.38,-509.2 2438.44,-509.2"/>
<text text-anchor="start" x="2445.44" y="-521.4" font-family="Arial" font-size="14.00">datasettypeid </text>
<text text-anchor="start" x="2532.61" y="-521.4" font-family="Arial" font-size="14.00" fill="#666666">[integer]</text>
<polygon fill="none" stroke="black" points="2438.44,-478.4 2438.44,-509.2 2838.38,-509.2 2838.38,-478.4 2438.44,-478.4"/>
<text text-anchor="start" x="2445.44" y="-490.6" font-family="Arial" font-size="14.00">recdatecreated </text>
<text text-anchor="start" x="2542.72" y="-490.6" font-family="Arial" font-size="14.00" fill="#666666">[timestamp(0) without time zone]</text>
<polygon fill="none" stroke="black" points="2438.44,-447.6 2438.44,-478.4 2838.38,-478.4 2838.38,-447.6 2438.44,-447.6"/>
<text text-anchor="start" x="2445.44" y="-459.8" font-family="Arial" font-size="14.00">recdatemodified </text>
<text text-anchor="start" x="2548.94" y="-459.8" font-family="Arial" font-size="14.00" fill="#666666">[timestamp(0) without time zone]</text>
<polygon fill="none" stroke="black" points="2438.44,-416.8 2438.44,-447.6 2838.38,-447.6 2838.38,-416.8 2438.44,-416.8"/>
<text text-anchor="start" x="2445.44" y="-429" font-family="Arial" font-size="14.00">taphonomicsystemid </text>
<text text-anchor="start" x="2576.94" y="-429" font-family="Arial" font-size="14.00" fill="#666666">[integer]</text>
<polygon fill="none" stroke="black" stroke-width="3" points="2436.94,-415.3 2436.94,-577.1 2839.88,-577.1 2839.88,-415.3 2436.94,-415.3"/>
</g>
<!-- ndb.datasettypes -->
<g id="node2" class="node">
<title>ndb.datasettypes</title>
<polygon fill="#efefef" stroke="none" points="1345.51,-181.8 1345.51,-217.4 1665.31,-217.4 1665.31,-181.8 1345.51,-181.8"/>
<polygon fill="none" stroke="black" points="1345.51,-181.8 1345.51,-217.4 1665.31,-217.4 1665.31,-181.8 1345.51,-181.8"/>
<text text-anchor="start" x="1383.43" y="-195.2" font-family="Arial Bold" font-size="18.00">ndb.datasettypes</text>
<text text-anchor="start" x="1502.9" y="-195.2" font-family="Arial" font-size="14.00">    </text>
<text text-anchor="start" x="1534.02" y="-195.2" font-family="Arial" font-size="14.00" fill="#666666">[BASE TABLE]</text>
<polygon fill="none" stroke="black" points="1345.51,-151 1345.51,-181.8 1665.31,-181.8 1665.31,-151 1345.51,-151"/>
<text text-anchor="start" x="1352.51" y="-163.2" font-family="Arial" font-size="14.00">datasettype </text>
<text text-anchor="start" x="1428.79" y="-163.2" font-family="Arial" font-size="14.00" fill="#666666">[varchar(64)]</text>
<polygon fill="none" stroke="black" points="1345.51,-120.2 1345.51,-151 1665.31,-151 1665.31,-120.2 1345.51,-120.2"/>
<text text-anchor="start" x="1352.51" y="-132.4" font-family="Arial" font-size="14.00">datasettypeid </text>
<text text-anchor="start" x="1439.68" y="-132.4" font-family="Arial" font-size="14.00" fill="#666666">[integer]</text>
<polygon fill="none" stroke="black" points="1345.51,-89.4 1345.51,-120.2 1665.31,-120.2 1665.31,-89.4 1345.51,-89.4"/>
<text text-anchor="start" x="1352.51" y="-101.6" font-family="Arial" font-size="14.00">recdatecreated </text>
<text text-anchor="start" x="1449.79" y="-101.6" font-family="Arial" font-size="14.00" fill="#666666">[timestamp(0) without time zone]</text>
<polygon fill="none" stroke="black" points="1345.51,-58.6 1345.51,-89.4 1665.31,-89.4 1665.31,-58.6 1345.51,-58.6"/>
<text text-anchor="start" x="1352.51" y="-70.8" font-family="Arial" font-size="14.00">recdatemodified </text>
<text text-anchor="start" x="1456.01" y="-70.8" font-family="Arial" font-size="14.00" fill="#666666">[timestamp(0) without time zone]</text>
</g>
<!-- ndb.taphonomicsystemsdatasettypes&#45;&gt;ndb.datasettypes -->
<g id="edge1" class="edge">
<title>ndb.taphonomicsystemsdatasettypes:datasettypeid&#45;&gt;ndb.datasettypes:datasettypeid</title>
<path fill="none" stroke="black" d="M2427.43,-524.02C2348.06,-514.02 2450.04,-378.12 2383.41,-312 2266.93,-196.4 1830.41,-135.6 1666.31,-135.6"/>
<polygon fill="black" stroke="black" points="2427.12,-524 2436.84,-529.07 2432.44,-524.31 2436.77,-524.56 2436.77,-524.56 2436.77,-524.56 2432.44,-524.31 2437.36,-520.09 2427.12,-524"/>
<text text-anchor="start" x="2444.44" y="-534.6" font-family="Arial" font-size="10.00">FOREIGN KEY (datasettypeid) REFERENCES ndb.datasettypes(datasettypeid) ON UPDATE CASCADE ON DELETE CASCADE</text>
</g>
<!-- ndb.taphonomicsystems -->
<g id="node8" class="node">
<title>ndb.taphonomicsystems</title>
<polygon fill="#efefef" stroke="none" points="2711.51,-197.2 2711.51,-232.8 3031.31,-232.8 3031.31,-197.2 2711.51,-197.2"/>
<polygon fill="none" stroke="black" points="2711.51,-197.2 2711.51,-232.8 3031.31,-232.8 3031.31,-197.2 2711.51,-197.2"/>
<text text-anchor="start" x="2722.42" y="-210.6" font-family="Arial Bold" font-size="18.00">ndb.taphonomicsystems</text>
<text text-anchor="start" x="2895.91" y="-210.6" font-family="Arial" font-size="14.00">    </text>
<text text-anchor="start" x="2927.03" y="-210.6" font-family="Arial" font-size="14.00" fill="#666666">[BASE TABLE]</text>
<polygon fill="none" stroke="black" points="2711.51,-166.4 2711.51,-197.2 3031.31,-197.2 3031.31,-166.4 2711.51,-166.4"/>
<text text-anchor="start" x="2718.51" y="-178.6" font-family="Arial" font-size="14.00">notes </text>
<text text-anchor="start" x="2756.65" y="-178.6" font-family="Arial" font-size="14.00" fill="#666666">[text]</text>
<polygon fill="none" stroke="black" points="2711.51,-135.6 2711.51,-166.4 3031.31,-166.4 3031.31,-135.6 2711.51,-135.6"/>
<text text-anchor="start" x="2718.51" y="-147.8" font-family="Arial" font-size="14.00">recdatecreated </text>
<text text-anchor="start" x="2815.79" y="-147.8" font-family="Arial" font-size="14.00" fill="#666666">[timestamp(0) without time zone]</text>
<polygon fill="none" stroke="black" points="2711.51,-104.8 2711.51,-135.6 3031.31,-135.6 3031.31,-104.8 2711.51,-104.8"/>
<text text-anchor="start" x="2718.51" y="-117" font-family="Arial" font-size="14.00">recdatemodified </text>
<text text-anchor="start" x="2822.01" y="-117" font-family="Arial" font-size="14.00" fill="#666666">[timestamp(0) without time zone]</text>
<polygon fill="none" stroke="black" points="2711.51,-74 2711.51,-104.8 3031.31,-104.8 3031.31,-74 2711.51,-74"/>
<text text-anchor="start" x="2718.51" y="-86.2" font-family="Arial" font-size="14.00">taphonomicsystem </text>
<text text-anchor="start" x="2839.12" y="-86.2" font-family="Arial" font-size="14.00" fill="#666666">[varchar(64)]</text>
<polygon fill="none" stroke="black" points="2711.51,-43.2 2711.51,-74 3031.31,-74 3031.31,-43.2 2711.51,-43.2"/>
<text text-anchor="start" x="2718.51" y="-55.4" font-family="Arial" font-size="14.00">taphonomicsystemid </text>
<text text-anchor="start" x="2850.01" y="-55.4" font-family="Arial" font-size="14.00" fill="#666666">[integer]</text>
</g>
<!-- ndb.taphonomicsystemsdatasettypes&#45;&gt;ndb.taphonomicsystems -->
<g id="edge7" class="edge">
<title>ndb.taphonomicsystemsdatasettypes:taphonomicsystemid&#45;&gt;ndb.taphonomicsystems:taphonomicsystemid</title>
<path fill="none" stroke="black" d="M2849.23,-429.66C2861.88,-420.88 2848.91,-391.16 2838.38,-370.6 2806.33,-307.99 2743.2,-338.79 2711.51,-276 2667.98,-189.74 2613.89,-58.6 2710.51,-58.6"/>
<polygon fill="black" stroke="black" points="2849.39,-429.62 2838.58,-427.76 2844.22,-430.95 2840.03,-432.03 2840.03,-432.03 2840.03,-432.03 2844.22,-430.95 2840.83,-436.47 2849.39,-429.62"/>
<text text-anchor="start" x="2161.08" y="-442.2" font-family="Arial" font-size="10.00">FOREIGN KEY (taphonomicsystemid) REFERENCES ndb.taphonomicsystems(taphonomicsystemid) ON UPDATE CASCADE ON DELETE CASCADE</text>
</g>
<!-- ndb.contextsdatasettypes -->
<g id="node3" class="node">
<title>ndb.contextsdatasettypes</title>
<polygon fill="#efefef" stroke="none" points="269.51,-540 269.51,-575.6 589.31,-575.6 589.31,-540 269.51,-540"/>
<polygon fill="none" stroke="black" points="269.51,-540 269.51,-575.6 589.31,-575.6 589.31,-540 269.51,-540"/>
<text text-anchor="start" x="277.44" y="-553.4" font-family="Arial Bold" font-size="18.00">ndb.contextsdatasettypes</text>
<text text-anchor="start" x="456.89" y="-553.4" font-family="Arial" font-size="14.00">    </text>
<text text-anchor="start" x="488.01" y="-553.4" font-family="Arial" font-size="14.00" fill="#666666">[BASE TABLE]</text>
<polygon fill="none" stroke="black" points="269.51,-509.2 269.51,-540 589.31,-540 589.31,-509.2 269.51,-509.2"/>
<text text-anchor="start" x="276.51" y="-521.4" font-family="Arial" font-size="14.00">datasettypeid </text>
<text text-anchor="start" x="363.68" y="-521.4" font-family="Arial" font-size="14.00" fill="#666666">[integer]</text>
<polygon fill="none" stroke="black" points="269.51,-478.4 269.51,-509.2 589.31,-509.2 589.31,-478.4 269.51,-478.4"/>
<text text-anchor="start" x="276.51" y="-490.6" font-family="Arial" font-size="14.00">recdatecreated </text>
<text text-anchor="start" x="373.79" y="-490.6" font-family="Arial" font-size="14.00" fill="#666666">[timestamp(0) without time zone]</text>
<polygon fill="none" stroke="black" points="269.51,-447.6 269.51,-478.4 589.31,-478.4 589.31,-447.6 269.51,-447.6"/>
<text text-anchor="start" x="276.51" y="-459.8" font-family="Arial" font-size="14.00">recdatemodified </text>
<text text-anchor="start" x="380.01" y="-459.8" font-family="Arial" font-size="14.00" fill="#666666">[timestamp(0) without time zone]</text>
<polygon fill="none" stroke="black" points="269.51,-416.8 269.51,-447.6 589.31,-447.6 589.31,-416.8 269.51,-416.8"/>
<text text-anchor="start" x="276.51" y="-429" font-family="Arial" font-size="14.00">variablecontextid </text>
<text text-anchor="start" x="385.46" y="-429" font-family="Arial" font-size="14.00" fill="#666666">[integer]</text>
</g>
<!-- ndb.contextsdatasettypes&#45;&gt;ndb.datasettypes -->
<g id="edge2" class="edge">
<title>ndb.contextsdatasettypes:datasettypeid&#45;&gt;ndb.datasettypes:datasettypeid</title>
<path fill="none" stroke="black" d="M600.27,-524.02C679.25,-514.05 575.57,-378.49 641.41,-312 754.75,-197.53 1183.42,-135.6 1344.51,-135.6"/>
<polygon fill="black" stroke="black" points="600.63,-524 590.38,-520.09 595.3,-524.31 590.98,-524.56 590.98,-524.56 590.98,-524.56 595.3,-524.31 590.9,-529.07 600.63,-524"/>
<text text-anchor="start" x="7" y="-534.6" font-family="Arial" font-size="10.00">FOREIGN KEY (datasettypeid) REFERENCES ndb.datasettypes(datasettypeid) ON UPDATE CASCADE ON DELETE CASCADE</text>
</g>
<!-- ndb.datasets -->
<g id="node4" class="node">
<title>ndb.datasets</title>
<polygon fill="#efefef" stroke="none" points="693.51,-601.6 693.51,-637.2 1013.31,-637.2 1013.31,-601.6 693.51,-601.6"/>
<polygon fill="none" stroke="black" points="693.51,-601.6 693.51,-637.2 1013.31,-637.2 1013.31,-601.6 693.51,-601.6"/>
<text text-anchor="start" x="746.92" y="-615" font-family="Arial Bold" font-size="18.00">ndb.datasets</text>
<text text-anchor="start" x="835.4" y="-615" font-family="Arial" font-size="14.00">    </text>
<text text-anchor="start" x="866.52" y="-615" font-family="Arial" font-size="14.00" fill="#666666">[BASE TABLE]</text>
<polygon fill="none" stroke="black" points="693.51,-570.8 693.51,-601.6 1013.31,-601.6 1013.31,-570.8 693.51,-570.8"/>
<text text-anchor="start" x="700.51" y="-583" font-family="Arial" font-size="14.00">collectionunitid </text>
<text text-anchor="start" x="796.23" y="-583" font-family="Arial" font-size="14.00" fill="#666666">[integer]</text>
<polygon fill="none" stroke="black" points="693.51,-540 693.51,-570.8 1013.31,-570.8 1013.31,-540 693.51,-540"/>
<text text-anchor="start" x="700.51" y="-552.2" font-family="Arial" font-size="14.00">datasetid </text>
<text text-anchor="start" x="761.22" y="-552.2" font-family="Arial" font-size="14.00" fill="#666666">[integer]</text>
<polygon fill="none" stroke="black" points="693.51,-509.2 693.51,-540 1013.31,-540 1013.31,-509.2 693.51,-509.2"/>
<text text-anchor="start" x="700.51" y="-521.4" font-family="Arial" font-size="14.00">datasetname </text>
<text text-anchor="start" x="785.34" y="-521.4" font-family="Arial" font-size="14.00" fill="#666666">[varchar(80)]</text>
<polygon fill="none" stroke="black" points="693.51,-478.4 693.51,-509.2 1013.31,-509.2 1013.31,-478.4 693.51,-478.4"/>
<text text-anchor="start" x="700.51" y="-490.6" font-family="Arial" font-size="14.00">datasettypeid </text>
<text text-anchor="start" x="787.68" y="-490.6" font-family="Arial" font-size="14.00" fill="#666666">[integer]</text>
<polygon fill="none" stroke="black" points="693.51,-447.6 693.51,-478.4 1013.31,-478.4 1013.31,-447.6 693.51,-447.6"/>
<text text-anchor="start" x="700.51" y="-459.8" font-family="Arial" font-size="14.00">embargoid </text>
<text text-anchor="start" x="770.55" y="-459.8" font-family="Arial" font-size="14.00" fill="#666666">[integer]</text>
<polygon fill="none" stroke="black" points="693.51,-416.8 693.51,-447.6 1013.31,-447.6 1013.31,-416.8 693.51,-416.8"/>
<text text-anchor="start" x="700.51" y="-429" font-family="Arial" font-size="14.00">notes </text>
<text text-anchor="start" x="738.65" y="-429" font-family="Arial" font-size="14.00" fill="#666666">[text]</text>
<polygon fill="none" stroke="black" points="693.51,-386 693.51,-416.8 1013.31,-416.8 1013.31,-386 693.51,-386"/>
<text text-anchor="start" x="700.51" y="-398.2" font-family="Arial" font-size="14.00">recdatecreated </text>
<text text-anchor="start" x="797.79" y="-398.2" font-family="Arial" font-size="14.00" fill="#666666">[timestamp(0) without time zone]</text>
<polygon fill="none" stroke="black" points="693.51,-355.2 693.51,-386 1013.31,-386 1013.31,-355.2 693.51,-355.2"/>
<text text-anchor="start" x="700.51" y="-367.4" font-family="Arial" font-size="14.00">recdatemodified </text>
<text text-anchor="start" x="804.01" y="-367.4" font-family="Arial" font-size="14.00" fill="#666666">[timestamp(0) without time zone]</text>
</g>
<!-- ndb.datasets&#45;&gt;ndb.datasettypes -->
<g id="edge3" class="edge">
<title>ndb.datasets:datasettypeid&#45;&gt;ndb.datasettypes:datasettypeid</title>
<path fill="none" stroke="black" d="M1024.64,-493.12C1091.05,-483.61 1017.5,-376.27 1065.41,-312 1153.11,-194.35 1197.77,-135.6 1344.51,-135.6"/>
<polygon fill="black" stroke="black" points="1024.62,-493.12 1014.35,-489.29 1019.3,-493.47 1014.98,-493.76 1014.98,-493.76 1014.98,-493.76 1019.3,-493.47 1014.94,-498.27 1024.62,-493.12"/>
<text text-anchor="start" x="431" y="-503.8" font-family="Arial" font-size="10.00">FOREIGN KEY (datasettypeid) REFERENCES ndb.datasettypes(datasettypeid) ON UPDATE CASCADE ON DELETE CASCADE</text>
</g>
<!-- ndb.datasettaxagrouptypes -->
<g id="node5" class="node">
<title>ndb.datasettaxagrouptypes</title>
<polygon fill="#efefef" stroke="none" points="1117.44,-540 1117.44,-575.6 1447.38,-575.6 1447.38,-540 1117.44,-540"/>
<polygon fill="none" stroke="black" points="1117.44,-540 1117.44,-575.6 1447.38,-575.6 1447.38,-540 1117.44,-540"/>
<text text-anchor="start" x="1124.44" y="-553.4" font-family="Arial Bold" font-size="18.00">ndb.datasettaxagrouptypes</text>
<text text-anchor="start" x="1315.89" y="-553.4" font-family="Arial" font-size="14.00">    </text>
<text text-anchor="start" x="1347" y="-553.4" font-family="Arial" font-size="14.00" fill="#666666">[BASE TABLE]</text>
<polygon fill="none" stroke="black" points="1117.44,-509.2 1117.44,-540 1447.38,-540 1447.38,-509.2 1117.44,-509.2"/>
<text text-anchor="start" x="1124.44" y="-521.4" font-family="Arial" font-size="14.00">datasettypeid </text>
<text text-anchor="start" x="1211.61" y="-521.4" font-family="Arial" font-size="14.00" fill="#666666">[integer]</text>
<polygon fill="none" stroke="black" points="1117.44,-478.4 1117.44,-509.2 1447.38,-509.2 1447.38,-478.4 1117.44,-478.4"/>
<text text-anchor="start" x="1124.44" y="-490.6" font-family="Arial" font-size="14.00">recdatecreated </text>
<text text-anchor="start" x="1221.73" y="-490.6" font-family="Arial" font-size="14.00" fill="#666666">[timestamp(0) without time zone]</text>
<polygon fill="none" stroke="black" points="1117.44,-447.6 1117.44,-478.4 1447.38,-478.4 1447.38,-447.6 1117.44,-447.6"/>
<text text-anchor="start" x="1124.44" y="-459.8" font-family="Arial" font-size="14.00">recdatemodified </text>
<text text-anchor="start" x="1227.95" y="-459.8" font-family="Arial" font-size="14.00" fill="#666666">[timestamp(0) without time zone]</text>
<polygon fill="none" stroke="black" points="1117.44,-416.8 1117.44,-447.6 1447.38,-447.6 1447.38,-416.8 1117.44,-416.8"/>
<text text-anchor="start" x="1124.44" y="-429" font-family="Arial" font-size="14.00">taxagroupid </text>
<text text-anchor="start" x="1201.5" y="-429" font-family="Arial" font-size="14.00" fill="#666666">[varchar(3)]</text>
</g>
<!-- ndb.datasettaxagrouptypes&#45;&gt;ndb.datasettypes -->
<g id="edge4" class="edge">
<title>ndb.datasettaxagrouptypes:datasettypeid&#45;&gt;ndb.datasettypes:datasettypeid</title>
<path fill="none" stroke="black" d="M1458.74,-523.77C1510.59,-514.67 1470.28,-432.62 1447.38,-373.6 1422.92,-310.56 1370.01,-323.62 1345.51,-260.6 1325.38,-208.82 1288.95,-135.6 1344.51,-135.6"/>
<polygon fill="black" stroke="black" points="1458.68,-523.77 1448.35,-520.09 1453.36,-524.2 1449.04,-524.55 1449.04,-524.55 1449.04,-524.55 1453.36,-524.2 1449.07,-529.06 1458.68,-523.77"/>
<text text-anchor="start" x="1455.38" y="-534.6" font-family="Arial" font-size="10.00">FOREIGN KEY (datasettypeid) REFERENCES ndb.datasettypes(datasettypeid) ON UPDATE CASCADE ON DELETE CASCADE</text>
</g>
<!-- ndb.elementdatasettaxagroups -->
<g id="node6" class="node">
<title>ndb.elementdatasettaxagroups</title>
<polygon fill="#efefef" stroke="none" points="1551.45,-555.4 1551.45,-591 1907.37,-591 1907.37,-555.4 1551.45,-555.4"/>
<polygon fill="none" stroke="black" points="1551.45,-555.4 1551.45,-591 1907.37,-591 1907.37,-555.4 1551.45,-555.4"/>
<text text-anchor="start" x="1558.45" y="-568.8" font-family="Arial Bold" font-size="18.00">ndb.elementdatasettaxagroups</text>
<text text-anchor="start" x="1775.88" y="-568.8" font-family="Arial" font-size="14.00">    </text>
<text text-anchor="start" x="1806.99" y="-568.8" font-family="Arial" font-size="14.00" fill="#666666">[BASE TABLE]</text>
<polygon fill="none" stroke="black" points="1551.45,-524.6 1551.45,-555.4 1907.37,-555.4 1907.37,-524.6 1551.45,-524.6"/>
<text text-anchor="start" x="1558.45" y="-536.8" font-family="Arial" font-size="14.00">datasettypeid </text>
<text text-anchor="start" x="1645.62" y="-536.8" font-family="Arial" font-size="14.00" fill="#666666">[integer]</text>
<polygon fill="none" stroke="black" points="1551.45,-493.8 1551.45,-524.6 1907.37,-524.6 1907.37,-493.8 1551.45,-493.8"/>
<text text-anchor="start" x="1558.45" y="-506" font-family="Arial" font-size="14.00">elementtypeid </text>
<text text-anchor="start" x="1649.51" y="-506" font-family="Arial" font-size="14.00" fill="#666666">[integer]</text>
<polygon fill="none" stroke="black" points="1551.45,-463 1551.45,-493.8 1907.37,-493.8 1907.37,-463 1551.45,-463"/>
<text text-anchor="start" x="1558.45" y="-475.2" font-family="Arial" font-size="14.00">recdatecreated </text>
<text text-anchor="start" x="1655.73" y="-475.2" font-family="Arial" font-size="14.00" fill="#666666">[timestamp(0) without time zone]</text>
<polygon fill="none" stroke="black" points="1551.45,-432.2 1551.45,-463 1907.37,-463 1907.37,-432.2 1551.45,-432.2"/>
<text text-anchor="start" x="1558.45" y="-444.4" font-family="Arial" font-size="14.00">recdatemodified </text>
<text text-anchor="start" x="1661.96" y="-444.4" font-family="Arial" font-size="14.00" fill="#666666">[timestamp(0) without time zone]</text>
<polygon fill="none" stroke="black" points="1551.45,-401.4 1551.45,-432.2 1907.37,-432.2 1907.37,-401.4 1551.45,-401.4"/>
<text text-anchor="start" x="1558.45" y="-413.6" font-family="Arial" font-size="14.00">taxagroupid </text>
<text text-anchor="start" x="1635.51" y="-413.6" font-family="Arial" font-size="14.00" fill="#666666">[varchar(3)]</text>
</g>
<!-- ndb.elementdatasettaxagroups&#45;&gt;ndb.datasettypes -->
<g id="edge5" class="edge">
<title>ndb.elementdatasettaxagroups:datasettypeid&#45;&gt;ndb.datasettypes:datasettypeid</title>
<path fill="none" stroke="black" d="M1540.33,-539.36C1473.92,-530.32 1519.01,-428.22 1551.45,-358.2 1579.47,-297.72 1637.22,-321.04 1665.31,-260.6 1688.72,-210.22 1721.87,-135.6 1666.31,-135.6"/>
<polygon fill="black" stroke="black" points="1540.14,-539.34 1549.83,-544.47 1545.46,-539.68 1549.79,-539.96 1549.79,-539.96 1549.79,-539.96 1545.46,-539.68 1550.4,-535.49 1540.14,-539.34"/>
<text text-anchor="start" x="1557.45" y="-550" font-family="Arial" font-size="10.00">FOREIGN KEY (datasettypeid) REFERENCES ndb.datasettypes(datasettypeid)</text>
</g>
<!-- ndb.unitsdatasettypes -->
<g id="node7" class="node">
<title>ndb.unitsdatasettypes</title>
<polygon fill="#efefef" stroke="none" points="2011.51,-540 2011.51,-575.6 2331.31,-575.6 2331.31,-540 2011.51,-540"/>
<polygon fill="none" stroke="black" points="2011.51,-540 2011.51,-575.6 2331.31,-575.6 2331.31,-540 2011.51,-540"/>
<text text-anchor="start" x="2031.93" y="-553.4" font-family="Arial Bold" font-size="18.00">ndb.unitsdatasettypes</text>
<text text-anchor="start" x="2186.4" y="-553.4" font-family="Arial" font-size="14.00">    </text>
<text text-anchor="start" x="2217.52" y="-553.4" font-family="Arial" font-size="14.00" fill="#666666">[BASE TABLE]</text>
<polygon fill="none" stroke="black" points="2011.51,-509.2 2011.51,-540 2331.31,-540 2331.31,-509.2 2011.51,-509.2"/>
<text text-anchor="start" x="2018.51" y="-521.4" font-family="Arial" font-size="14.00">datasettypeid </text>
<text text-anchor="start" x="2105.68" y="-521.4" font-family="Arial" font-size="14.00" fill="#666666">[integer]</text>
<polygon fill="none" stroke="black" points="2011.51,-478.4 2011.51,-509.2 2331.31,-509.2 2331.31,-478.4 2011.51,-478.4"/>
<text text-anchor="start" x="2018.51" y="-490.6" font-family="Arial" font-size="14.00">recdatecreated </text>
<text text-anchor="start" x="2115.79" y="-490.6" font-family="Arial" font-size="14.00" fill="#666666">[timestamp(0) without time zone]</text>
<polygon fill="none" stroke="black" points="2011.51,-447.6 2011.51,-478.4 2331.31,-478.4 2331.31,-447.6 2011.51,-447.6"/>
<text text-anchor="start" x="2018.51" y="-459.8" font-family="Arial" font-size="14.00">recdatemodified </text>
<text text-anchor="start" x="2122.01" y="-459.8" font-family="Arial" font-size="14.00" fill="#666666">[timestamp(0) without time zone]</text>
<polygon fill="none" stroke="black" points="2011.51,-416.8 2011.51,-447.6 2331.31,-447.6 2331.31,-416.8 2011.51,-416.8"/>
<text text-anchor="start" x="2018.51" y="-429" font-family="Arial" font-size="14.00">variableunitsid </text>
<text text-anchor="start" x="2111.9" y="-429" font-family="Arial" font-size="14.00" fill="#666666">[integer]</text>
</g>
<!-- ndb.unitsdatasettypes&#45;&gt;ndb.datasettypes -->
<g id="edge6" class="edge">
<title>ndb.unitsdatasettypes:datasettypeid&#45;&gt;ndb.datasettypes:datasettypeid</title>
<path fill="none" stroke="black" d="M2000.5,-524.06C1920.79,-514.72 2014.72,-387.47 1959.41,-312 1869.53,-189.37 1818.35,-135.6 1666.31,-135.6"/>
<polygon fill="black" stroke="black" points="2000.19,-524.04 2009.93,-529.08 2005.52,-524.33 2009.84,-524.56 2009.84,-524.56 2009.84,-524.56 2005.52,-524.33 2010.42,-520.09 2000.19,-524.04"/>
<text text-anchor="start" x="1427.2" y="-508.6" font-family="Arial" font-size="10.00">FOREIGN KEY (datasettypeid) REFERENCES ndb.datasettypes(datasettypeid) ON UPDATE CASCADE ON DELETE CASCADE</text>
</g>
<!-- ndb.taphonomictypes -->
<g id="node9" class="node">
<title>ndb.taphonomictypes</title>
<polygon fill="#efefef" stroke="none" points="2945.51,-570.8 2945.51,-606.4 3265.31,-606.4 3265.31,-570.8 2945.51,-570.8"/>
<polygon fill="none" stroke="black" points="2945.51,-570.8 2945.51,-606.4 3265.31,-606.4 3265.31,-570.8 2945.51,-570.8"/>
<text text-anchor="start" x="2965.93" y="-584.2" font-family="Arial Bold" font-size="18.00">ndb.taphonomictypes</text>
<text text-anchor="start" x="3120.4" y="-584.2" font-family="Arial" font-size="14.00">    </text>
<text text-anchor="start" x="3151.52" y="-584.2" font-family="Arial" font-size="14.00" fill="#666666">[BASE TABLE]</text>
<polygon fill="none" stroke="black" points="2945.51,-540 2945.51,-570.8 3265.31,-570.8 3265.31,-540 2945.51,-540"/>
<text text-anchor="start" x="2952.51" y="-552.2" font-family="Arial" font-size="14.00">notes </text>
<text text-anchor="start" x="2990.65" y="-552.2" font-family="Arial" font-size="14.00" fill="#666666">[text]</text>
<polygon fill="none" stroke="black" points="2945.51,-509.2 2945.51,-540 3265.31,-540 3265.31,-509.2 2945.51,-509.2"/>
<text text-anchor="start" x="2952.51" y="-521.4" font-family="Arial" font-size="14.00">recdatecreated </text>
<text text-anchor="start" x="3049.79" y="-521.4" font-family="Arial" font-size="14.00" fill="#666666">[timestamp(0) without time zone]</text>
<polygon fill="none" stroke="black" points="2945.51,-478.4 2945.51,-509.2 3265.31,-509.2 3265.31,-478.4 2945.51,-478.4"/>
<text text-anchor="start" x="2952.51" y="-490.6" font-family="Arial" font-size="14.00">recdatemodified </text>
<text text-anchor="start" x="3056.01" y="-490.6" font-family="Arial" font-size="14.00" fill="#666666">[timestamp(0) without time zone]</text>
<polygon fill="none" stroke="black" points="2945.51,-447.6 2945.51,-478.4 3265.31,-478.4 3265.31,-447.6 2945.51,-447.6"/>
<text text-anchor="start" x="2952.51" y="-459.8" font-family="Arial" font-size="14.00">taphonomicsystemid </text>
<text text-anchor="start" x="3084.01" y="-459.8" font-family="Arial" font-size="14.00" fill="#666666">[integer]</text>
<polygon fill="none" stroke="black" points="2945.51,-416.8 2945.51,-447.6 3265.31,-447.6 3265.31,-416.8 2945.51,-416.8"/>
<text text-anchor="start" x="2952.51" y="-429" font-family="Arial" font-size="14.00">taphonomictype </text>
<text text-anchor="start" x="3055.24" y="-429" font-family="Arial" font-size="14.00" fill="#666666">[varchar(64)]</text>
<polygon fill="none" stroke="black" points="2945.51,-386 2945.51,-416.8 3265.31,-416.8 3265.31,-386 2945.51,-386"/>
<text text-anchor="start" x="2952.51" y="-398.2" font-family="Arial" font-size="14.00">taphonomictypeid </text>
<text text-anchor="start" x="3066.14" y="-398.2" font-family="Arial" font-size="14.00" fill="#666666">[integer]</text>
</g>
<!-- ndb.taphonomictypes&#45;&gt;ndb.taphonomicsystems -->
<g id="edge8" class="edge">
<title>ndb.taphonomictypes:taphonomicsystemid&#45;&gt;ndb.taphonomicsystems:taphonomicsystemid</title>
<path fill="none" stroke="black" d="M2934.46,-461.96C2895.38,-452.95 2923.51,-387.33 2945.51,-342.8 2966.91,-299.47 3009.99,-319.37 3031.31,-276 3073.94,-189.29 3128.93,-58.6 3032.31,-58.6"/>
<polygon fill="black" stroke="black" points="2934.23,-461.94 2943.71,-467.44 2939.54,-462.49 2943.84,-462.93 2943.84,-462.93 2943.84,-462.93 2939.54,-462.49 2944.64,-458.49 2934.23,-461.94"/>
<text text-anchor="start" x="2951.51" y="-473" font-family="Arial" font-size="10.00">FOREIGN KEY (taphonomicsystemid) REFERENCES ndb.taphonomicsystems(taphonomicsystemid) ON UPDATE CASCADE ON DELETE CASCADE</text>
</g>
</g>
</svg>
