<?xml version="1.0" encoding="UTF-8" standalone="no"?>
<!DOCTYPE svg PUBLIC "-//W3C//DTD SVG 1.1//EN"
 "http://www.w3.org/Graphics/SVG/1.1/DTD/svg11.dtd">
<!-- Generated by graphviz version 12.1.2 (20240928.0832)
 -->
<!-- Title: ndb.isoinstrumentationtypes Pages: 1 -->
<svg width="1845pt" height="842pt"
 viewBox="0.00 0.00 1845.48 842.40" xmlns="http://www.w3.org/2000/svg" xmlns:xlink="http://www.w3.org/1999/xlink">
<g id="graph0" class="graph" transform="scale(1 1) rotate(0) translate(4 838.4)">
<title>ndb.isoinstrumentationtypes</title>
<polygon fill="white" stroke="none" points="-4,4 -4,-838.4 1841.48,-838.4 1841.48,4 -4,4"/>
<!-- ndb.isoinstrumentationtypes -->
<g id="node1" class="node">
<title>ndb.isoinstrumentationtypes</title>
<polygon fill="#efefef" stroke="none" points="75.27,-228 75.27,-263.6 417.24,-263.6 417.24,-228 75.27,-228"/>
<polygon fill="none" stroke="black" points="75.27,-228 75.27,-263.6 417.24,-263.6 417.24,-228 75.27,-228"/>
<text text-anchor="start" x="82.27" y="-241.4" font-family="Arial Bold" font-size="18.00">ndb.isoinstrumentationtypes</text>
<text text-anchor="start" x="285.75" y="-241.4" font-family="Arial" font-size="14.00">    </text>
<text text-anchor="start" x="316.87" y="-241.4" font-family="Arial" font-size="14.00" fill="#666666">[BASE TABLE]</text>
<polygon fill="none" stroke="black" points="75.27,-197.2 75.27,-228 417.24,-228 417.24,-197.2 75.27,-197.2"/>
<text text-anchor="start" x="82.27" y="-209.4" font-family="Arial" font-size="14.00">isoinstrumentationtypeid </text>
<text text-anchor="start" x="237.13" y="-209.4" font-family="Arial" font-size="14.00" fill="#666666">[integer]</text>
<polygon fill="none" stroke="black" points="75.27,-166.4 75.27,-197.2 417.24,-197.2 417.24,-166.4 75.27,-166.4"/>
<text text-anchor="start" x="82.27" y="-178.6" font-family="Arial" font-size="14.00">isoinstrumentationtype </text>
<text text-anchor="start" x="226.23" y="-178.6" font-family="Arial" font-size="14.00" fill="#666666">[varchar(256)]</text>
<polygon fill="none" stroke="black" points="75.27,-135.6 75.27,-166.4 417.24,-166.4 417.24,-135.6 75.27,-135.6"/>
<text text-anchor="start" x="82.27" y="-147.8" font-family="Arial" font-size="14.00">recdatecreated </text>
<text text-anchor="start" x="179.55" y="-147.8" font-family="Arial" font-size="14.00" fill="#666666">[timestamp(0) without time zone]</text>
<polygon fill="none" stroke="black" points="75.27,-104.8 75.27,-135.6 417.24,-135.6 417.24,-104.8 75.27,-104.8"/>
<text text-anchor="start" x="82.27" y="-117" font-family="Arial" font-size="14.00">recdatemodified </text>
<text text-anchor="start" x="185.77" y="-117" font-family="Arial" font-size="14.00" fill="#666666">[timestamp(0) without time zone]</text>
<polygon fill="none" stroke="black" stroke-width="3" points="73.77,-103.3 73.77,-265.1 418.74,-265.1 418.74,-103.3 73.77,-103.3"/>
</g>
<!-- ndb.isoinstrumentation -->
<g id="node2" class="node">
<title>ndb.isoinstrumentation</title>
<polygon fill="#efefef" stroke="none" points="736.36,-755.6 736.36,-791.2 1056.16,-791.2 1056.16,-755.6 736.36,-755.6"/>
<polygon fill="none" stroke="black" points="736.36,-755.6 736.36,-791.2 1056.16,-791.2 1056.16,-755.6 736.36,-755.6"/>
<text text-anchor="start" x="751.27" y="-769" font-family="Arial Bold" font-size="18.00">ndb.isoinstrumentation</text>
<text text-anchor="start" x="916.76" y="-769" font-family="Arial" font-size="14.00">    </text>
<text text-anchor="start" x="947.87" y="-769" font-family="Arial" font-size="14.00" fill="#666666">[BASE TABLE]</text>
<polygon fill="none" stroke="black" points="736.36,-724.8 736.36,-755.6 1056.16,-755.6 1056.16,-724.8 736.36,-724.8"/>
<text text-anchor="start" x="743.36" y="-737" font-family="Arial" font-size="14.00">datasetid </text>
<text text-anchor="start" x="804.07" y="-737" font-family="Arial" font-size="14.00" fill="#666666">[integer]</text>
<polygon fill="none" stroke="black" points="736.36,-694 736.36,-724.8 1056.16,-724.8 1056.16,-694 736.36,-694"/>
<text text-anchor="start" x="743.36" y="-706.2" font-family="Arial" font-size="14.00">variableid </text>
<text text-anchor="start" x="807.17" y="-706.2" font-family="Arial" font-size="14.00" fill="#666666">[integer]</text>
<polygon fill="none" stroke="black" points="736.36,-663.2 736.36,-694 1056.16,-694 1056.16,-663.2 736.36,-663.2"/>
<text text-anchor="start" x="743.36" y="-675.4" font-family="Arial" font-size="14.00">isoinstrumentationtypeid </text>
<text text-anchor="start" x="898.22" y="-675.4" font-family="Arial" font-size="14.00" fill="#666666">[integer]</text>
<polygon fill="none" stroke="black" points="736.36,-632.4 736.36,-663.2 1056.16,-663.2 1056.16,-632.4 736.36,-632.4"/>
<text text-anchor="start" x="743.36" y="-644.6" font-family="Arial" font-size="14.00">isosampleintrosystemtypeid </text>
<text text-anchor="start" x="919.21" y="-644.6" font-family="Arial" font-size="14.00" fill="#666666">[integer]</text>
<polygon fill="none" stroke="black" points="736.36,-601.6 736.36,-632.4 1056.16,-632.4 1056.16,-601.6 736.36,-601.6"/>
<text text-anchor="start" x="743.36" y="-613.8" font-family="Arial" font-size="14.00">insterrorpercent </text>
<text text-anchor="start" x="845.29" y="-613.8" font-family="Arial" font-size="14.00" fill="#666666">[double precision]</text>
<polygon fill="none" stroke="black" points="736.36,-570.8 736.36,-601.6 1056.16,-601.6 1056.16,-570.8 736.36,-570.8"/>
<text text-anchor="start" x="743.36" y="-583" font-family="Arial" font-size="14.00">insterrorrunsd </text>
<text text-anchor="start" x="833.61" y="-583" font-family="Arial" font-size="14.00" fill="#666666">[double precision]</text>
<polygon fill="none" stroke="black" points="736.36,-540 736.36,-570.8 1056.16,-570.8 1056.16,-540 736.36,-540"/>
<text text-anchor="start" x="743.36" y="-552.2" font-family="Arial" font-size="14.00">insterrorlongtermpercent </text>
<text text-anchor="start" x="899.76" y="-552.2" font-family="Arial" font-size="14.00" fill="#666666">[double precision]</text>
<polygon fill="none" stroke="black" points="736.36,-509.2 736.36,-540 1056.16,-540 1056.16,-509.2 736.36,-509.2"/>
<text text-anchor="start" x="743.36" y="-521.4" font-family="Arial" font-size="14.00">notes </text>
<text text-anchor="start" x="781.5" y="-521.4" font-family="Arial" font-size="14.00" fill="#666666">[text]</text>
<polygon fill="none" stroke="black" points="736.36,-478.4 736.36,-509.2 1056.16,-509.2 1056.16,-478.4 736.36,-478.4"/>
<text text-anchor="start" x="743.36" y="-490.6" font-family="Arial" font-size="14.00">recdatecreated </text>
<text text-anchor="start" x="840.64" y="-490.6" font-family="Arial" font-size="14.00" fill="#666666">[timestamp(0) without time zone]</text>
<polygon fill="none" stroke="black" points="736.36,-447.6 736.36,-478.4 1056.16,-478.4 1056.16,-447.6 736.36,-447.6"/>
<text text-anchor="start" x="743.36" y="-459.8" font-family="Arial" font-size="14.00">recdatemodified </text>
<text text-anchor="start" x="846.86" y="-459.8" font-family="Arial" font-size="14.00" fill="#666666">[timestamp(0) without time zone]</text>
</g>
<!-- ndb.isoinstrumentation&#45;&gt;ndb.isoinstrumentationtypes -->
<g id="edge1" class="edge">
<title>ndb.isoinstrumentation:isoinstrumentationtypeid&#45;&gt;ndb.isoinstrumentationtypes:isoinstrumentationtypeid</title>
<path fill="none" stroke="black" d="M724.98,-678.43C554.83,-672.61 560.11,-522.34 472.26,-368.4 435.93,-304.75 491.53,-212.6 418.24,-212.6"/>
<polygon fill="black" stroke="black" points="725.02,-678.43 734.95,-683.09 730.36,-678.52 734.69,-678.59 734.69,-678.59 734.69,-678.59 730.36,-678.52 735.1,-674.1 725.02,-678.43"/>
<text text-anchor="start" x="7" y="-688.6" font-family="Arial" font-size="10.00">FOREIGN KEY (isoinstrumentationtypeid) REFERENCES ndb.isoinstrumentationtypes(isoinstrumentationtypeid) ON UPDATE CASCADE ON DELETE CASCADE</text>
</g>
<!-- ndb.datasets -->
<g id="node3" class="node">
<title>ndb.datasets</title>
<polygon fill="#efefef" stroke="none" points="524.36,-289.6 524.36,-325.2 844.16,-325.2 844.16,-289.6 524.36,-289.6"/>
<polygon fill="none" stroke="black" points="524.36,-289.6 524.36,-325.2 844.16,-325.2 844.16,-289.6 524.36,-289.6"/>
<text text-anchor="start" x="577.77" y="-303" font-family="Arial Bold" font-size="18.00">ndb.datasets</text>
<text text-anchor="start" x="666.25" y="-303" font-family="Arial" font-size="14.00">    </text>
<text text-anchor="start" x="697.37" y="-303" font-family="Arial" font-size="14.00" fill="#666666">[BASE TABLE]</text>
<polygon fill="none" stroke="black" points="524.36,-258.8 524.36,-289.6 844.16,-289.6 844.16,-258.8 524.36,-258.8"/>
<text text-anchor="start" x="531.36" y="-271" font-family="Arial" font-size="14.00">datasetid </text>
<text text-anchor="start" x="592.07" y="-271" font-family="Arial" font-size="14.00" fill="#666666">[integer]</text>
<polygon fill="none" stroke="black" points="524.36,-228 524.36,-258.8 844.16,-258.8 844.16,-228 524.36,-228"/>
<text text-anchor="start" x="531.36" y="-240.2" font-family="Arial" font-size="14.00">collectionunitid </text>
<text text-anchor="start" x="627.08" y="-240.2" font-family="Arial" font-size="14.00" fill="#666666">[integer]</text>
<polygon fill="none" stroke="black" points="524.36,-197.2 524.36,-228 844.16,-228 844.16,-197.2 524.36,-197.2"/>
<text text-anchor="start" x="531.36" y="-209.4" font-family="Arial" font-size="14.00">datasettypeid </text>
<text text-anchor="start" x="618.53" y="-209.4" font-family="Arial" font-size="14.00" fill="#666666">[integer]</text>
<polygon fill="none" stroke="black" points="524.36,-166.4 524.36,-197.2 844.16,-197.2 844.16,-166.4 524.36,-166.4"/>
<text text-anchor="start" x="531.36" y="-178.6" font-family="Arial" font-size="14.00">datasetname </text>
<text text-anchor="start" x="616.19" y="-178.6" font-family="Arial" font-size="14.00" fill="#666666">[varchar(80)]</text>
<polygon fill="none" stroke="black" points="524.36,-135.6 524.36,-166.4 844.16,-166.4 844.16,-135.6 524.36,-135.6"/>
<text text-anchor="start" x="531.36" y="-147.8" font-family="Arial" font-size="14.00">notes </text>
<text text-anchor="start" x="569.5" y="-147.8" font-family="Arial" font-size="14.00" fill="#666666">[text]</text>
<polygon fill="none" stroke="black" points="524.36,-104.8 524.36,-135.6 844.16,-135.6 844.16,-104.8 524.36,-104.8"/>
<text text-anchor="start" x="531.36" y="-117" font-family="Arial" font-size="14.00">recdatecreated </text>
<text text-anchor="start" x="628.64" y="-117" font-family="Arial" font-size="14.00" fill="#666666">[timestamp(0) without time zone]</text>
<polygon fill="none" stroke="black" points="524.36,-74 524.36,-104.8 844.16,-104.8 844.16,-74 524.36,-74"/>
<text text-anchor="start" x="531.36" y="-86.2" font-family="Arial" font-size="14.00">recdatemodified </text>
<text text-anchor="start" x="634.86" y="-86.2" font-family="Arial" font-size="14.00" fill="#666666">[timestamp(0) without time zone]</text>
<polygon fill="none" stroke="black" points="524.36,-43.2 524.36,-74 844.16,-74 844.16,-43.2 524.36,-43.2"/>
<text text-anchor="start" x="531.36" y="-55.4" font-family="Arial" font-size="14.00">embargoid </text>
<text text-anchor="start" x="601.4" y="-55.4" font-family="Arial" font-size="14.00" fill="#666666">[integer]</text>
</g>
<!-- ndb.isoinstrumentation&#45;&gt;ndb.datasets -->
<g id="edge2" class="edge">
<title>ndb.isoinstrumentation:datasetid&#45;&gt;ndb.datasets:datasetid</title>
<path fill="none" stroke="black" d="M725.21,-739.85C589.07,-730.18 650.99,-522.53 736.36,-404.4 765.94,-363.46 814.42,-409.23 844.16,-368.4 868.81,-334.56 887.03,-274.2 845.16,-274.2"/>
<polygon fill="black" stroke="black" points="725.03,-739.84 734.87,-744.69 730.36,-740.03 734.69,-740.18 734.69,-740.18 734.69,-740.18 730.36,-740.03 735.18,-735.69 725.03,-739.84"/>
<text text-anchor="start" x="208.75" y="-750.2" font-family="Arial" font-size="10.00">FOREIGN KEY (datasetid) REFERENCES ndb.datasets(datasetid) ON UPDATE CASCADE ON DELETE CASCADE</text>
</g>
<!-- ndb.variables -->
<g id="node4" class="node">
<title>ndb.variables</title>
<polygon fill="#efefef" stroke="none" points="948.36,-274.2 948.36,-309.8 1268.16,-309.8 1268.16,-274.2 948.36,-274.2"/>
<polygon fill="none" stroke="black" points="948.36,-274.2 948.36,-309.8 1268.16,-309.8 1268.16,-274.2 948.36,-274.2"/>
<text text-anchor="start" x="997.78" y="-287.6" font-family="Arial Bold" font-size="18.00">ndb.variables</text>
<text text-anchor="start" x="1094.25" y="-287.6" font-family="Arial" font-size="14.00">    </text>
<text text-anchor="start" x="1125.36" y="-287.6" font-family="Arial" font-size="14.00" fill="#666666">[BASE TABLE]</text>
<polygon fill="none" stroke="black" points="948.36,-243.4 948.36,-274.2 1268.16,-274.2 1268.16,-243.4 948.36,-243.4"/>
<text text-anchor="start" x="955.36" y="-255.6" font-family="Arial" font-size="14.00">variableid </text>
<text text-anchor="start" x="1019.17" y="-255.6" font-family="Arial" font-size="14.00" fill="#666666">[integer]</text>
<polygon fill="none" stroke="black" points="948.36,-212.6 948.36,-243.4 1268.16,-243.4 1268.16,-212.6 948.36,-212.6"/>
<text text-anchor="start" x="955.36" y="-224.8" font-family="Arial" font-size="14.00">taxonid </text>
<text text-anchor="start" x="1004.39" y="-224.8" font-family="Arial" font-size="14.00" fill="#666666">[integer]</text>
<polygon fill="none" stroke="black" points="948.36,-181.8 948.36,-212.6 1268.16,-212.6 1268.16,-181.8 948.36,-181.8"/>
<text text-anchor="start" x="955.36" y="-194" font-family="Arial" font-size="14.00">variableelementid </text>
<text text-anchor="start" x="1068.98" y="-194" font-family="Arial" font-size="14.00" fill="#666666">[integer]</text>
<polygon fill="none" stroke="black" points="948.36,-151 948.36,-181.8 1268.16,-181.8 1268.16,-151 948.36,-151"/>
<text text-anchor="start" x="955.36" y="-163.2" font-family="Arial" font-size="14.00">variableunitsid </text>
<text text-anchor="start" x="1048.74" y="-163.2" font-family="Arial" font-size="14.00" fill="#666666">[integer]</text>
<polygon fill="none" stroke="black" points="948.36,-120.2 948.36,-151 1268.16,-151 1268.16,-120.2 948.36,-120.2"/>
<text text-anchor="start" x="955.36" y="-132.4" font-family="Arial" font-size="14.00">variablecontextid </text>
<text text-anchor="start" x="1064.31" y="-132.4" font-family="Arial" font-size="14.00" fill="#666666">[integer]</text>
<polygon fill="none" stroke="black" points="948.36,-89.4 948.36,-120.2 1268.16,-120.2 1268.16,-89.4 948.36,-89.4"/>
<text text-anchor="start" x="955.36" y="-101.6" font-family="Arial" font-size="14.00">recdatecreated </text>
<text text-anchor="start" x="1052.64" y="-101.6" font-family="Arial" font-size="14.00" fill="#666666">[timestamp(0) without time zone]</text>
<polygon fill="none" stroke="black" points="948.36,-58.6 948.36,-89.4 1268.16,-89.4 1268.16,-58.6 948.36,-58.6"/>
<text text-anchor="start" x="955.36" y="-70.8" font-family="Arial" font-size="14.00">recdatemodified </text>
<text text-anchor="start" x="1058.86" y="-70.8" font-family="Arial" font-size="14.00" fill="#666666">[timestamp(0) without time zone]</text>
</g>
<!-- ndb.isoinstrumentation&#45;&gt;ndb.variables -->
<g id="edge3" class="edge">
<title>ndb.isoinstrumentation:variableid&#45;&gt;ndb.variables:variableid</title>
<path fill="none" stroke="black" d="M1067.47,-709.01C1189.33,-699.41 1126.77,-515.9 1056.16,-404.4 1027.76,-359.56 976.92,-397.74 948.36,-353 925.83,-317.71 905.49,-258.8 947.36,-258.8"/>
<polygon fill="black" stroke="black" points="1067.48,-709.01 1057.32,-704.89 1062.15,-709.21 1057.82,-709.37 1057.82,-709.37 1057.82,-709.37 1062.15,-709.21 1057.66,-713.88 1067.48,-709.01"/>
<text text-anchor="start" x="1064.16" y="-719.4" font-family="Arial" font-size="10.00">FOREIGN KEY (variableid) REFERENCES ndb.variables(variableid) ON UPDATE CASCADE ON DELETE CASCADE</text>
</g>
<!-- ndb.isosampleintrosystemtypes -->
<g id="node5" class="node">
<title>ndb.isosampleintrosystemtypes</title>
<polygon fill="#efefef" stroke="none" points="1372.27,-228 1372.27,-263.6 1736.24,-263.6 1736.24,-228 1372.27,-228"/>
<polygon fill="none" stroke="black" points="1372.27,-228 1372.27,-263.6 1736.24,-263.6 1736.24,-228 1372.27,-228"/>
<text text-anchor="start" x="1379.27" y="-241.4" font-family="Arial Bold" font-size="18.00">ndb.isosampleintrosystemtypes</text>
<text text-anchor="start" x="1604.75" y="-241.4" font-family="Arial" font-size="14.00">    </text>
<text text-anchor="start" x="1635.87" y="-241.4" font-family="Arial" font-size="14.00" fill="#666666">[BASE TABLE]</text>
<polygon fill="none" stroke="black" points="1372.27,-197.2 1372.27,-228 1736.24,-228 1736.24,-197.2 1372.27,-197.2"/>
<text text-anchor="start" x="1379.27" y="-209.4" font-family="Arial" font-size="14.00">isosampleintrosystemtypeid </text>
<text text-anchor="start" x="1555.12" y="-209.4" font-family="Arial" font-size="14.00" fill="#666666">[integer]</text>
<polygon fill="none" stroke="black" points="1372.27,-166.4 1372.27,-197.2 1736.24,-197.2 1736.24,-166.4 1372.27,-166.4"/>
<text text-anchor="start" x="1379.27" y="-178.6" font-family="Arial" font-size="14.00">isosampleintrosystemtype </text>
<text text-anchor="start" x="1544.22" y="-178.6" font-family="Arial" font-size="14.00" fill="#666666">[varchar(256)]</text>
<polygon fill="none" stroke="black" points="1372.27,-135.6 1372.27,-166.4 1736.24,-166.4 1736.24,-135.6 1372.27,-135.6"/>
<text text-anchor="start" x="1379.27" y="-147.8" font-family="Arial" font-size="14.00">recdatecreated </text>
<text text-anchor="start" x="1476.55" y="-147.8" font-family="Arial" font-size="14.00" fill="#666666">[timestamp(0) without time zone]</text>
<polygon fill="none" stroke="black" points="1372.27,-104.8 1372.27,-135.6 1736.24,-135.6 1736.24,-104.8 1372.27,-104.8"/>
<text text-anchor="start" x="1379.27" y="-117" font-family="Arial" font-size="14.00">recdatemodified </text>
<text text-anchor="start" x="1482.77" y="-117" font-family="Arial" font-size="14.00" fill="#666666">[timestamp(0) without time zone]</text>
</g>
<!-- ndb.isoinstrumentation&#45;&gt;ndb.isosampleintrosystemtypes -->
<g id="edge4" class="edge">
<title>ndb.isoinstrumentation:isosampleintrosystemtypeid&#45;&gt;ndb.isosampleintrosystemtypes:isosampleintrosystemtypeid</title>
<path fill="none" stroke="black" d="M1067.44,-647.63C1227.98,-642.35 1234.95,-512.05 1320.26,-368.4 1357.46,-305.75 1298.41,-212.6 1371.27,-212.6"/>
<polygon fill="black" stroke="black" points="1067.49,-647.63 1057.42,-643.3 1062.16,-647.72 1057.83,-647.79 1057.83,-647.79 1057.83,-647.79 1062.16,-647.72 1057.56,-652.29 1067.49,-647.63"/>
<text text-anchor="start" x="1064.16" y="-657.8" font-family="Arial" font-size="10.00">FOREIGN KEY (isosampleintrosystemtypeid) REFERENCES ndb.isosampleintrosystemtypes(isosampleintrosystemtypeid) ON UPDATE CASCADE ON DELETE CASCADE</text>
</g>
</g>
</svg>
