<?xml version="1.0" encoding="UTF-8" standalone="no"?>
<!DOCTYPE svg PUBLIC "-//W3C//DTD SVG 1.1//EN"
 "http://www.w3.org/Graphics/SVG/1.1/DTD/svg11.dtd">
<!-- Generated by graphviz version 12.1.2 (20240928.0832)
 -->
<!-- Title: ndb.fractiondated Pages: 1 -->
<svg width="2540pt" height="1586pt"
 viewBox="0.00 0.00 2540.20 1585.60" xmlns="http://www.w3.org/2000/svg" xmlns:xlink="http://www.w3.org/1999/xlink">
<g id="graph0" class="graph" transform="scale(1 1) rotate(0) translate(4 1581.6)">
<title>ndb.fractiondated</title>
<polygon fill="white" stroke="none" points="-4,4 -4,-1581.6 2536.2,-1581.6 2536.2,4 -4,4"/>
<!-- ndb.fractiondated -->
<g id="node1" class="node">
<title>ndb.fractiondated</title>
<polygon fill="#efefef" stroke="none" points="46.2,-366.6 46.2,-402.2 366,-402.2 366,-366.6 46.2,-366.6"/>
<polygon fill="none" stroke="black" points="46.2,-366.6 46.2,-402.2 366,-402.2 366,-366.6 46.2,-366.6"/>
<text text-anchor="start" x="80.63" y="-380" font-family="Arial Bold" font-size="18.00">ndb.fractiondated</text>
<text text-anchor="start" x="207.08" y="-380" font-family="Arial" font-size="14.00">    </text>
<text text-anchor="start" x="238.2" y="-380" font-family="Arial" font-size="14.00" fill="#666666">[BASE TABLE]</text>
<polygon fill="none" stroke="black" points="46.2,-335.8 46.2,-366.6 366,-366.6 366,-335.8 46.2,-335.8"/>
<text text-anchor="start" x="53.2" y="-348" font-family="Arial" font-size="14.00">fraction </text>
<text text-anchor="start" x="103" y="-348" font-family="Arial" font-size="14.00" fill="#666666">[varchar(80)]</text>
<polygon fill="none" stroke="black" points="46.2,-305 46.2,-335.8 366,-335.8 366,-305 46.2,-305"/>
<text text-anchor="start" x="53.2" y="-317.2" font-family="Arial" font-size="14.00">fractionid </text>
<text text-anchor="start" x="113.9" y="-317.2" font-family="Arial" font-size="14.00" fill="#666666">[integer]</text>
<polygon fill="none" stroke="black" points="46.2,-274.2 46.2,-305 366,-305 366,-274.2 46.2,-274.2"/>
<text text-anchor="start" x="53.2" y="-286.4" font-family="Arial" font-size="14.00">recdatecreated </text>
<text text-anchor="start" x="150.48" y="-286.4" font-family="Arial" font-size="14.00" fill="#666666">[timestamp(0) without time zone]</text>
<polygon fill="none" stroke="black" points="46.2,-243.4 46.2,-274.2 366,-274.2 366,-243.4 46.2,-243.4"/>
<text text-anchor="start" x="53.2" y="-255.6" font-family="Arial" font-size="14.00">recdatemodified </text>
<text text-anchor="start" x="156.7" y="-255.6" font-family="Arial" font-size="14.00" fill="#666666">[timestamp(0) without time zone]</text>
<polygon fill="none" stroke="black" stroke-width="3" points="44.7,-241.9 44.7,-403.7 367.5,-403.7 367.5,-241.9 44.7,-241.9"/>
</g>
<!-- ndb.specimendates -->
<g id="node2" class="node">
<title>ndb.specimendates</title>
<polygon fill="#efefef" stroke="none" points="1109.2,-1032.8 1109.2,-1068.4 1429,-1068.4 1429,-1032.8 1109.2,-1032.8"/>
<polygon fill="none" stroke="black" points="1109.2,-1032.8 1109.2,-1068.4 1429,-1068.4 1429,-1032.8 1109.2,-1032.8"/>
<text text-anchor="start" x="1138.63" y="-1046.2" font-family="Arial Bold" font-size="18.00">ndb.specimendates</text>
<text text-anchor="start" x="1275.08" y="-1046.2" font-family="Arial" font-size="14.00">    </text>
<text text-anchor="start" x="1306.2" y="-1046.2" font-family="Arial" font-size="14.00" fill="#666666">[BASE TABLE]</text>
<polygon fill="none" stroke="black" points="1109.2,-1002 1109.2,-1032.8 1429,-1032.8 1429,-1002 1109.2,-1002"/>
<text text-anchor="start" x="1116.2" y="-1014.2" font-family="Arial" font-size="14.00">elementtypeid </text>
<text text-anchor="start" x="1207.25" y="-1014.2" font-family="Arial" font-size="14.00" fill="#666666">[integer]</text>
<polygon fill="none" stroke="black" points="1109.2,-971.2 1109.2,-1002 1429,-1002 1429,-971.2 1109.2,-971.2"/>
<text text-anchor="start" x="1116.2" y="-983.4" font-family="Arial" font-size="14.00">fractionid </text>
<text text-anchor="start" x="1176.9" y="-983.4" font-family="Arial" font-size="14.00" fill="#666666">[integer]</text>
<polygon fill="none" stroke="black" points="1109.2,-940.4 1109.2,-971.2 1429,-971.2 1429,-940.4 1109.2,-940.4"/>
<text text-anchor="start" x="1116.2" y="-952.6" font-family="Arial" font-size="14.00">geochronid </text>
<text text-anchor="start" x="1189.37" y="-952.6" font-family="Arial" font-size="14.00" fill="#666666">[integer]</text>
<polygon fill="none" stroke="black" points="1109.2,-909.6 1109.2,-940.4 1429,-940.4 1429,-909.6 1109.2,-909.6"/>
<text text-anchor="start" x="1116.2" y="-921.8" font-family="Arial" font-size="14.00">notes </text>
<text text-anchor="start" x="1154.34" y="-921.8" font-family="Arial" font-size="14.00" fill="#666666">[text]</text>
<polygon fill="none" stroke="black" points="1109.2,-878.8 1109.2,-909.6 1429,-909.6 1429,-878.8 1109.2,-878.8"/>
<text text-anchor="start" x="1116.2" y="-891" font-family="Arial" font-size="14.00">recdatecreated </text>
<text text-anchor="start" x="1213.48" y="-891" font-family="Arial" font-size="14.00" fill="#666666">[timestamp(0) without time zone]</text>
<polygon fill="none" stroke="black" points="1109.2,-848 1109.2,-878.8 1429,-878.8 1429,-848 1109.2,-848"/>
<text text-anchor="start" x="1116.2" y="-860.2" font-family="Arial" font-size="14.00">recdatemodified </text>
<text text-anchor="start" x="1219.7" y="-860.2" font-family="Arial" font-size="14.00" fill="#666666">[timestamp(0) without time zone]</text>
<polygon fill="none" stroke="black" points="1109.2,-817.2 1109.2,-848 1429,-848 1429,-817.2 1109.2,-817.2"/>
<text text-anchor="start" x="1116.2" y="-829.4" font-family="Arial" font-size="14.00">sampleid </text>
<text text-anchor="start" x="1176.12" y="-829.4" font-family="Arial" font-size="14.00" fill="#666666">[integer]</text>
<polygon fill="none" stroke="black" points="1109.2,-786.4 1109.2,-817.2 1429,-817.2 1429,-786.4 1109.2,-786.4"/>
<text text-anchor="start" x="1116.2" y="-798.6" font-family="Arial" font-size="14.00">specimendateid </text>
<text text-anchor="start" x="1218.15" y="-798.6" font-family="Arial" font-size="14.00" fill="#666666">[integer]</text>
<polygon fill="none" stroke="black" points="1109.2,-755.6 1109.2,-786.4 1429,-786.4 1429,-755.6 1109.2,-755.6"/>
<text text-anchor="start" x="1116.2" y="-767.8" font-family="Arial" font-size="14.00">specimenid </text>
<text text-anchor="start" x="1190.9" y="-767.8" font-family="Arial" font-size="14.00" fill="#666666">[integer]</text>
<polygon fill="none" stroke="black" points="1109.2,-724.8 1109.2,-755.6 1429,-755.6 1429,-724.8 1109.2,-724.8"/>
<text text-anchor="start" x="1116.2" y="-737" font-family="Arial" font-size="14.00">taxonid </text>
<text text-anchor="start" x="1165.23" y="-737" font-family="Arial" font-size="14.00" fill="#666666">[integer]</text>
</g>
<!-- ndb.specimendates&#45;&gt;ndb.fractiondated -->
<g id="edge1" class="edge">
<title>ndb.specimendates:fractionid&#45;&gt;ndb.fractiondated:fractionid</title>
<path fill="none" stroke="black" d="M1097.77,-986.58C764.34,-985.2 621.93,-916.75 421.1,-645.6 377.5,-586.73 440.26,-320.4 367,-320.4"/>
<polygon fill="black" stroke="black" points="1097.87,-986.58 1107.86,-991.1 1103.2,-986.59 1107.53,-986.6 1107.53,-986.6 1107.53,-986.6 1103.2,-986.59 1107.87,-982.1 1097.87,-986.58"/>
<text text-anchor="start" x="784.42" y="-996.6" font-family="Arial" font-size="10.00">FOREIGN KEY (fractionid) REFERENCES ndb.fractiondated(fractionid)</text>
</g>
<!-- ndb.elementtypes -->
<g id="node3" class="node">
<title>ndb.elementtypes</title>
<polygon fill="#efefef" stroke="none" points="473.2,-366.6 473.2,-402.2 793,-402.2 793,-366.6 473.2,-366.6"/>
<polygon fill="none" stroke="black" points="473.2,-366.6 473.2,-402.2 793,-402.2 793,-366.6 473.2,-366.6"/>
<text text-anchor="start" x="507.62" y="-380" font-family="Arial Bold" font-size="18.00">ndb.elementtypes</text>
<text text-anchor="start" x="634.09" y="-380" font-family="Arial" font-size="14.00">    </text>
<text text-anchor="start" x="665.2" y="-380" font-family="Arial" font-size="14.00" fill="#666666">[BASE TABLE]</text>
<polygon fill="none" stroke="black" points="473.2,-335.8 473.2,-366.6 793,-366.6 793,-335.8 473.2,-335.8"/>
<text text-anchor="start" x="480.2" y="-348" font-family="Arial" font-size="14.00">elementtype </text>
<text text-anchor="start" x="560.36" y="-348" font-family="Arial" font-size="14.00" fill="#666666">[varchar(64)]</text>
<polygon fill="none" stroke="black" points="473.2,-305 473.2,-335.8 793,-335.8 793,-305 473.2,-305"/>
<text text-anchor="start" x="480.2" y="-317.2" font-family="Arial" font-size="14.00">elementtypeid </text>
<text text-anchor="start" x="571.25" y="-317.2" font-family="Arial" font-size="14.00" fill="#666666">[integer]</text>
<polygon fill="none" stroke="black" points="473.2,-274.2 473.2,-305 793,-305 793,-274.2 473.2,-274.2"/>
<text text-anchor="start" x="480.2" y="-286.4" font-family="Arial" font-size="14.00">recdatecreated </text>
<text text-anchor="start" x="577.48" y="-286.4" font-family="Arial" font-size="14.00" fill="#666666">[timestamp(0) without time zone]</text>
<polygon fill="none" stroke="black" points="473.2,-243.4 473.2,-274.2 793,-274.2 793,-243.4 473.2,-243.4"/>
<text text-anchor="start" x="480.2" y="-255.6" font-family="Arial" font-size="14.00">recdatemodified </text>
<text text-anchor="start" x="583.7" y="-255.6" font-family="Arial" font-size="14.00" fill="#666666">[timestamp(0) without time zone]</text>
</g>
<!-- ndb.specimendates&#45;&gt;ndb.elementtypes -->
<g id="edge2" class="edge">
<title>ndb.specimendates:elementtypeid&#45;&gt;ndb.elementtypes:elementtypeid</title>
<path fill="none" stroke="black" d="M1098.01,-1017.24C906.27,-1011.1 919.98,-829.94 845.1,-645.6 817.57,-577.82 867.15,-320.4 794,-320.4"/>
<polygon fill="black" stroke="black" points="1097.87,-1017.24 1107.79,-1021.89 1103.2,-1017.32 1107.53,-1017.39 1107.53,-1017.39 1107.53,-1017.39 1103.2,-1017.32 1107.94,-1012.9 1097.87,-1017.24"/>
<text text-anchor="start" x="739.39" y="-1027.4" font-family="Arial" font-size="10.00">FOREIGN KEY (elementtypeid) REFERENCES ndb.elementtypes(elementtypeid)</text>
</g>
<!-- ndb.geochronology -->
<g id="node4" class="node">
<title>ndb.geochronology</title>
<polygon fill="#efefef" stroke="none" points="897.2,-520.6 897.2,-556.2 1217,-556.2 1217,-520.6 897.2,-520.6"/>
<polygon fill="none" stroke="black" points="897.2,-520.6 897.2,-556.2 1217,-556.2 1217,-520.6 897.2,-520.6"/>
<text text-anchor="start" x="925.12" y="-534" font-family="Arial Bold" font-size="18.00">ndb.geochronology</text>
<text text-anchor="start" x="1064.59" y="-534" font-family="Arial" font-size="14.00">    </text>
<text text-anchor="start" x="1095.71" y="-534" font-family="Arial" font-size="14.00" fill="#666666">[BASE TABLE]</text>
<polygon fill="none" stroke="black" points="897.2,-489.8 897.2,-520.6 1217,-520.6 1217,-489.8 897.2,-489.8"/>
<text text-anchor="start" x="904.2" y="-502" font-family="Arial" font-size="14.00">age </text>
<text text-anchor="start" x="931.45" y="-502" font-family="Arial" font-size="14.00" fill="#666666">[double precision]</text>
<polygon fill="none" stroke="black" points="897.2,-459 897.2,-489.8 1217,-489.8 1217,-459 897.2,-459"/>
<text text-anchor="start" x="904.2" y="-471.2" font-family="Arial" font-size="14.00">agetypeid </text>
<text text-anchor="start" x="968.81" y="-471.2" font-family="Arial" font-size="14.00" fill="#666666">[integer]</text>
<polygon fill="none" stroke="black" points="897.2,-428.2 897.2,-459 1217,-459 1217,-428.2 897.2,-428.2"/>
<text text-anchor="start" x="904.2" y="-440.4" font-family="Arial" font-size="14.00">delta13c </text>
<text text-anchor="start" x="961.02" y="-440.4" font-family="Arial" font-size="14.00" fill="#666666">[double precision]</text>
<polygon fill="none" stroke="black" points="897.2,-397.4 897.2,-428.2 1217,-428.2 1217,-397.4 897.2,-397.4"/>
<text text-anchor="start" x="904.2" y="-409.6" font-family="Arial" font-size="14.00">errorolder </text>
<text text-anchor="start" x="968.78" y="-409.6" font-family="Arial" font-size="14.00" fill="#666666">[double precision]</text>
<polygon fill="none" stroke="black" points="897.2,-366.6 897.2,-397.4 1217,-397.4 1217,-366.6 897.2,-366.6"/>
<text text-anchor="start" x="904.2" y="-378.8" font-family="Arial" font-size="14.00">erroryounger </text>
<text text-anchor="start" x="988.24" y="-378.8" font-family="Arial" font-size="14.00" fill="#666666">[double precision]</text>
<polygon fill="none" stroke="black" points="897.2,-335.8 897.2,-366.6 1217,-366.6 1217,-335.8 897.2,-335.8"/>
<text text-anchor="start" x="904.2" y="-348" font-family="Arial" font-size="14.00">geochronid </text>
<text text-anchor="start" x="977.37" y="-348" font-family="Arial" font-size="14.00" fill="#666666">[integer]</text>
<polygon fill="none" stroke="black" points="897.2,-305 897.2,-335.8 1217,-335.8 1217,-305 897.2,-305"/>
<text text-anchor="start" x="904.2" y="-317.2" font-family="Arial" font-size="14.00">geochrontypeid </text>
<text text-anchor="start" x="1003.83" y="-317.2" font-family="Arial" font-size="14.00" fill="#666666">[integer]</text>
<polygon fill="none" stroke="black" points="897.2,-274.2 897.2,-305 1217,-305 1217,-274.2 897.2,-274.2"/>
<text text-anchor="start" x="904.2" y="-286.4" font-family="Arial" font-size="14.00">infinite </text>
<text text-anchor="start" x="948.56" y="-286.4" font-family="Arial" font-size="14.00" fill="#666666">[boolean]</text>
<polygon fill="none" stroke="black" points="897.2,-243.4 897.2,-274.2 1217,-274.2 1217,-243.4 897.2,-243.4"/>
<text text-anchor="start" x="904.2" y="-255.6" font-family="Arial" font-size="14.00">labnumber </text>
<text text-anchor="start" x="974.24" y="-255.6" font-family="Arial" font-size="14.00" fill="#666666">[varchar(40)]</text>
<polygon fill="none" stroke="black" points="897.2,-212.6 897.2,-243.4 1217,-243.4 1217,-212.6 897.2,-212.6"/>
<text text-anchor="start" x="904.2" y="-224.8" font-family="Arial" font-size="14.00">materialdated </text>
<text text-anchor="start" x="992.92" y="-224.8" font-family="Arial" font-size="14.00" fill="#666666">[varchar(255)]</text>
<polygon fill="none" stroke="black" points="897.2,-181.8 897.2,-212.6 1217,-212.6 1217,-181.8 897.2,-181.8"/>
<text text-anchor="start" x="904.2" y="-194" font-family="Arial" font-size="14.00">notes </text>
<text text-anchor="start" x="942.34" y="-194" font-family="Arial" font-size="14.00" fill="#666666">[text]</text>
<polygon fill="none" stroke="black" points="897.2,-151 897.2,-181.8 1217,-181.8 1217,-151 897.2,-151"/>
<text text-anchor="start" x="904.2" y="-163.2" font-family="Arial" font-size="14.00">recdatecreated </text>
<text text-anchor="start" x="1001.48" y="-163.2" font-family="Arial" font-size="14.00" fill="#666666">[timestamp(0) without time zone]</text>
<polygon fill="none" stroke="black" points="897.2,-120.2 897.2,-151 1217,-151 1217,-120.2 897.2,-120.2"/>
<text text-anchor="start" x="904.2" y="-132.4" font-family="Arial" font-size="14.00">recdatemodified </text>
<text text-anchor="start" x="1007.7" y="-132.4" font-family="Arial" font-size="14.00" fill="#666666">[timestamp(0) without time zone]</text>
<polygon fill="none" stroke="black" points="897.2,-89.4 897.2,-120.2 1217,-120.2 1217,-89.4 897.2,-89.4"/>
<text text-anchor="start" x="904.2" y="-101.6" font-family="Arial" font-size="14.00">sampleid </text>
<text text-anchor="start" x="964.12" y="-101.6" font-family="Arial" font-size="14.00" fill="#666666">[integer]</text>
</g>
<!-- ndb.specimendates&#45;&gt;ndb.geochronology -->
<g id="edge3" class="edge">
<title>ndb.specimendates:geochronid&#45;&gt;ndb.geochronology:geochronid</title>
<path fill="none" stroke="black" d="M1097.85,-955.75C604.08,-951.31 1203.64,-626.26 1217,-599.4 1241.57,-550.02 1273.15,-351.2 1218,-351.2"/>
<polygon fill="black" stroke="black" points="1097.87,-955.75 1107.85,-960.3 1103.2,-955.78 1107.53,-955.8 1107.53,-955.8 1107.53,-955.8 1103.2,-955.78 1107.89,-951.3 1097.87,-955.75"/>
<text text-anchor="start" x="536" y="-965.8" font-family="Arial" font-size="10.00">FOREIGN KEY (geochronid) REFERENCES ndb.geochronology(geochronid) ON UPDATE CASCADE ON DELETE CASCADE</text>
</g>
<!-- ndb.samples -->
<g id="node5" class="node">
<title>ndb.samples</title>
<polygon fill="#efefef" stroke="none" points="1321.2,-489.8 1321.2,-525.4 1641,-525.4 1641,-489.8 1321.2,-489.8"/>
<polygon fill="none" stroke="black" points="1321.2,-489.8 1321.2,-525.4 1641,-525.4 1641,-489.8 1321.2,-489.8"/>
<text text-anchor="start" x="1374.11" y="-503.2" font-family="Arial Bold" font-size="18.00">ndb.samples</text>
<text text-anchor="start" x="1463.6" y="-503.2" font-family="Arial" font-size="14.00">    </text>
<text text-anchor="start" x="1494.72" y="-503.2" font-family="Arial" font-size="14.00" fill="#666666">[BASE TABLE]</text>
<polygon fill="none" stroke="black" points="1321.2,-459 1321.2,-489.8 1641,-489.8 1641,-459 1321.2,-459"/>
<text text-anchor="start" x="1328.2" y="-471.2" font-family="Arial" font-size="14.00">analysisdate </text>
<text text-anchor="start" x="1409.92" y="-471.2" font-family="Arial" font-size="14.00" fill="#666666">[date]</text>
<polygon fill="none" stroke="black" points="1321.2,-428.2 1321.2,-459 1641,-459 1641,-428.2 1321.2,-428.2"/>
<text text-anchor="start" x="1328.2" y="-440.4" font-family="Arial" font-size="14.00">analysisunitid </text>
<text text-anchor="start" x="1416.14" y="-440.4" font-family="Arial" font-size="14.00" fill="#666666">[integer]</text>
<polygon fill="none" stroke="black" points="1321.2,-397.4 1321.2,-428.2 1641,-428.2 1641,-397.4 1321.2,-397.4"/>
<text text-anchor="start" x="1328.2" y="-409.6" font-family="Arial" font-size="14.00">datasetid </text>
<text text-anchor="start" x="1388.91" y="-409.6" font-family="Arial" font-size="14.00" fill="#666666">[integer]</text>
<polygon fill="none" stroke="black" points="1321.2,-366.6 1321.2,-397.4 1641,-397.4 1641,-366.6 1321.2,-366.6"/>
<text text-anchor="start" x="1328.2" y="-378.8" font-family="Arial" font-size="14.00">labnumber </text>
<text text-anchor="start" x="1398.24" y="-378.8" font-family="Arial" font-size="14.00" fill="#666666">[varchar(40)]</text>
<polygon fill="none" stroke="black" points="1321.2,-335.8 1321.2,-366.6 1641,-366.6 1641,-335.8 1321.2,-335.8"/>
<text text-anchor="start" x="1328.2" y="-348" font-family="Arial" font-size="14.00">notes </text>
<text text-anchor="start" x="1366.34" y="-348" font-family="Arial" font-size="14.00" fill="#666666">[text]</text>
<polygon fill="none" stroke="black" points="1321.2,-305 1321.2,-335.8 1641,-335.8 1641,-305 1321.2,-305"/>
<text text-anchor="start" x="1328.2" y="-317.2" font-family="Arial" font-size="14.00">preparationmethod </text>
<text text-anchor="start" x="1449.61" y="-317.2" font-family="Arial" font-size="14.00" fill="#666666">[text]</text>
<polygon fill="none" stroke="black" points="1321.2,-274.2 1321.2,-305 1641,-305 1641,-274.2 1321.2,-274.2"/>
<text text-anchor="start" x="1328.2" y="-286.4" font-family="Arial" font-size="14.00">recdatecreated </text>
<text text-anchor="start" x="1425.48" y="-286.4" font-family="Arial" font-size="14.00" fill="#666666">[timestamp(0) without time zone]</text>
<polygon fill="none" stroke="black" points="1321.2,-243.4 1321.2,-274.2 1641,-274.2 1641,-243.4 1321.2,-243.4"/>
<text text-anchor="start" x="1328.2" y="-255.6" font-family="Arial" font-size="14.00">recdatemodified </text>
<text text-anchor="start" x="1431.7" y="-255.6" font-family="Arial" font-size="14.00" fill="#666666">[timestamp(0) without time zone]</text>
<polygon fill="none" stroke="black" points="1321.2,-212.6 1321.2,-243.4 1641,-243.4 1641,-212.6 1321.2,-212.6"/>
<text text-anchor="start" x="1328.2" y="-224.8" font-family="Arial" font-size="14.00">sampledate </text>
<text text-anchor="start" x="1404.47" y="-224.8" font-family="Arial" font-size="14.00" fill="#666666">[date]</text>
<polygon fill="none" stroke="black" points="1321.2,-181.8 1321.2,-212.6 1641,-212.6 1641,-181.8 1321.2,-181.8"/>
<text text-anchor="start" x="1328.2" y="-194" font-family="Arial" font-size="14.00">sampleid </text>
<text text-anchor="start" x="1388.12" y="-194" font-family="Arial" font-size="14.00" fill="#666666">[integer]</text>
<polygon fill="none" stroke="black" points="1321.2,-151 1321.2,-181.8 1641,-181.8 1641,-151 1321.2,-151"/>
<text text-anchor="start" x="1328.2" y="-163.2" font-family="Arial" font-size="14.00">samplename </text>
<text text-anchor="start" x="1412.24" y="-163.2" font-family="Arial" font-size="14.00" fill="#666666">[varchar(80)]</text>
<polygon fill="none" stroke="black" points="1321.2,-120.2 1321.2,-151 1641,-151 1641,-120.2 1321.2,-120.2"/>
<text text-anchor="start" x="1328.2" y="-132.4" font-family="Arial" font-size="14.00">taxonid </text>
<text text-anchor="start" x="1377.23" y="-132.4" font-family="Arial" font-size="14.00" fill="#666666">[integer]</text>
</g>
<!-- ndb.specimendates&#45;&gt;ndb.samples -->
<g id="edge4" class="edge">
<title>ndb.specimendates:sampleid&#45;&gt;ndb.samples:sampleid</title>
<path fill="none" stroke="black" d="M1440.37,-831.77C1492.3,-822.63 1452.73,-740.29 1429,-681.6 1402.98,-617.25 1347.09,-633 1321.2,-568.6 1290.41,-492.02 1237.67,-197.2 1320.2,-197.2"/>
<polygon fill="black" stroke="black" points="1440.3,-831.77 1429.97,-828.09 1434.98,-832.2 1430.67,-832.55 1430.67,-832.55 1430.67,-832.55 1434.98,-832.2 1430.69,-837.06 1440.3,-831.77"/>
<text text-anchor="start" x="1437" y="-842.6" font-family="Arial" font-size="10.00">FOREIGN KEY (sampleid) REFERENCES ndb.samples(sampleid) ON UPDATE CASCADE ON DELETE CASCADE</text>
</g>
<!-- ndb.specimens -->
<g id="node7" class="node">
<title>ndb.specimens</title>
<polygon fill="#efefef" stroke="none" points="1745.2,-566.8 1745.2,-602.4 2065,-602.4 2065,-566.8 1745.2,-566.8"/>
<polygon fill="none" stroke="black" points="1745.2,-566.8 1745.2,-602.4 2065,-602.4 2065,-566.8 1745.2,-566.8"/>
<text text-anchor="start" x="1789.62" y="-580.2" font-family="Arial Bold" font-size="18.00">ndb.specimens</text>
<text text-anchor="start" x="1896.09" y="-580.2" font-family="Arial" font-size="14.00">    </text>
<text text-anchor="start" x="1927.21" y="-580.2" font-family="Arial" font-size="14.00" fill="#666666">[BASE TABLE]</text>
<polygon fill="none" stroke="black" points="1745.2,-536 1745.2,-566.8 2065,-566.8 2065,-536 1745.2,-536"/>
<text text-anchor="start" x="1752.2" y="-548.2" font-family="Arial" font-size="14.00">arctosnr </text>
<text text-anchor="start" x="1806.66" y="-548.2" font-family="Arial" font-size="14.00" fill="#666666">[varchar(50)]</text>
<polygon fill="none" stroke="black" points="1745.2,-505.2 1745.2,-536 2065,-536 2065,-505.2 1745.2,-505.2"/>
<text text-anchor="start" x="1752.2" y="-517.4" font-family="Arial" font-size="14.00">dataid </text>
<text text-anchor="start" x="1794.23" y="-517.4" font-family="Arial" font-size="14.00" fill="#666666">[integer]</text>
<polygon fill="none" stroke="black" points="1745.2,-474.4 1745.2,-505.2 2065,-505.2 2065,-474.4 1745.2,-474.4"/>
<text text-anchor="start" x="1752.2" y="-486.6" font-family="Arial" font-size="14.00">domesticstatusid </text>
<text text-anchor="start" x="1860.36" y="-486.6" font-family="Arial" font-size="14.00" fill="#666666">[integer]</text>
<polygon fill="none" stroke="black" points="1745.2,-443.6 1745.2,-474.4 2065,-474.4 2065,-443.6 1745.2,-443.6"/>
<text text-anchor="start" x="1752.2" y="-455.8" font-family="Arial" font-size="14.00">elementtypeid </text>
<text text-anchor="start" x="1843.25" y="-455.8" font-family="Arial" font-size="14.00" fill="#666666">[integer]</text>
<polygon fill="none" stroke="black" points="1745.2,-412.8 1745.2,-443.6 2065,-443.6 2065,-412.8 1745.2,-412.8"/>
<text text-anchor="start" x="1752.2" y="-425" font-family="Arial" font-size="14.00">fieldnr </text>
<text text-anchor="start" x="1794.22" y="-425" font-family="Arial" font-size="14.00" fill="#666666">[varchar(50)]</text>
<polygon fill="none" stroke="black" points="1745.2,-382 1745.2,-412.8 2065,-412.8 2065,-382 1745.2,-382"/>
<text text-anchor="start" x="1752.2" y="-394.2" font-family="Arial" font-size="14.00">maturityid </text>
<text text-anchor="start" x="1816.77" y="-394.2" font-family="Arial" font-size="14.00" fill="#666666">[integer]</text>
<polygon fill="none" stroke="black" points="1745.2,-351.2 1745.2,-382 2065,-382 2065,-351.2 1745.2,-351.2"/>
<text text-anchor="start" x="1752.2" y="-363.4" font-family="Arial" font-size="14.00">nisp </text>
<text text-anchor="start" x="1781.77" y="-363.4" font-family="Arial" font-size="14.00" fill="#666666">[double precision]</text>
<polygon fill="none" stroke="black" points="1745.2,-320.4 1745.2,-351.2 2065,-351.2 2065,-320.4 1745.2,-320.4"/>
<text text-anchor="start" x="1752.2" y="-332.6" font-family="Arial" font-size="14.00">notes </text>
<text text-anchor="start" x="1790.34" y="-332.6" font-family="Arial" font-size="14.00" fill="#666666">[text]</text>
<polygon fill="none" stroke="black" points="1745.2,-289.6 1745.2,-320.4 2065,-320.4 2065,-289.6 1745.2,-289.6"/>
<text text-anchor="start" x="1752.2" y="-301.8" font-family="Arial" font-size="14.00">portionid </text>
<text text-anchor="start" x="1809.79" y="-301.8" font-family="Arial" font-size="14.00" fill="#666666">[integer]</text>
<polygon fill="none" stroke="black" points="1745.2,-258.8 1745.2,-289.6 2065,-289.6 2065,-258.8 1745.2,-258.8"/>
<text text-anchor="start" x="1752.2" y="-271" font-family="Arial" font-size="14.00">preservative </text>
<text text-anchor="start" x="1832.34" y="-271" font-family="Arial" font-size="14.00" fill="#666666">[varchar(256)]</text>
<polygon fill="none" stroke="black" points="1745.2,-228 1745.2,-258.8 2065,-258.8 2065,-228 1745.2,-228"/>
<text text-anchor="start" x="1752.2" y="-240.2" font-family="Arial" font-size="14.00">recdatecreated </text>
<text text-anchor="start" x="1849.48" y="-240.2" font-family="Arial" font-size="14.00" fill="#666666">[timestamp(0) without time zone]</text>
<polygon fill="none" stroke="black" points="1745.2,-197.2 1745.2,-228 2065,-228 2065,-197.2 1745.2,-197.2"/>
<text text-anchor="start" x="1752.2" y="-209.4" font-family="Arial" font-size="14.00">recdatemodified </text>
<text text-anchor="start" x="1855.7" y="-209.4" font-family="Arial" font-size="14.00" fill="#666666">[timestamp(0) without time zone]</text>
<polygon fill="none" stroke="black" points="1745.2,-166.4 1745.2,-197.2 2065,-197.2 2065,-166.4 1745.2,-166.4"/>
<text text-anchor="start" x="1752.2" y="-178.6" font-family="Arial" font-size="14.00">repositoryid </text>
<text text-anchor="start" x="1828.45" y="-178.6" font-family="Arial" font-size="14.00" fill="#666666">[integer]</text>
<polygon fill="none" stroke="black" points="1745.2,-135.6 1745.2,-166.4 2065,-166.4 2065,-135.6 1745.2,-135.6"/>
<text text-anchor="start" x="1752.2" y="-147.8" font-family="Arial" font-size="14.00">sexid </text>
<text text-anchor="start" x="1788.77" y="-147.8" font-family="Arial" font-size="14.00" fill="#666666">[integer]</text>
<polygon fill="none" stroke="black" points="1745.2,-104.8 1745.2,-135.6 2065,-135.6 2065,-104.8 1745.2,-104.8"/>
<text text-anchor="start" x="1752.2" y="-117" font-family="Arial" font-size="14.00">specimenid </text>
<text text-anchor="start" x="1826.9" y="-117" font-family="Arial" font-size="14.00" fill="#666666">[integer]</text>
<polygon fill="none" stroke="black" points="1745.2,-74 1745.2,-104.8 2065,-104.8 2065,-74 1745.2,-74"/>
<text text-anchor="start" x="1752.2" y="-86.2" font-family="Arial" font-size="14.00">specimennr </text>
<text text-anchor="start" x="1828.45" y="-86.2" font-family="Arial" font-size="14.00" fill="#666666">[varchar(50)]</text>
<polygon fill="none" stroke="black" points="1745.2,-43.2 1745.2,-74 2065,-74 2065,-43.2 1745.2,-43.2"/>
<text text-anchor="start" x="1752.2" y="-55.4" font-family="Arial" font-size="14.00">symmetryid </text>
<text text-anchor="start" x="1827.65" y="-55.4" font-family="Arial" font-size="14.00" fill="#666666">[integer]</text>
</g>
<!-- ndb.specimendates&#45;&gt;ndb.specimens -->
<g id="edge6" class="edge">
<title>ndb.specimendates:specimenid&#45;&gt;ndb.specimens:specimenid</title>
<path fill="none" stroke="black" d="M1440.1,-770.96C1562.67,-769.92 1620.69,-748.87 1693.1,-645.6 1760.44,-549.55 1626.89,-120.2 1744.2,-120.2"/>
<polygon fill="black" stroke="black" points="1440.33,-770.96 1430.31,-766.5 1435,-770.98 1430.67,-771 1430.67,-771 1430.67,-771 1435,-770.98 1430.35,-775.5 1440.33,-770.96"/>
<text text-anchor="start" x="1437" y="-781" font-family="Arial" font-size="10.00">FOREIGN KEY (specimenid) REFERENCES ndb.specimens(specimenid) ON UPDATE CASCADE ON DELETE CASCADE</text>
</g>
<!-- ndb.taxa -->
<g id="node8" class="node">
<title>ndb.taxa</title>
<polygon fill="#efefef" stroke="none" points="2169.2,-520.6 2169.2,-556.2 2489,-556.2 2489,-520.6 2169.2,-520.6"/>
<polygon fill="none" stroke="black" points="2169.2,-520.6 2169.2,-556.2 2489,-556.2 2489,-520.6 2169.2,-520.6"/>
<text text-anchor="start" x="2236.12" y="-534" font-family="Arial Bold" font-size="18.00">ndb.taxa</text>
<text text-anchor="start" x="2297.59" y="-534" font-family="Arial" font-size="14.00">    </text>
<text text-anchor="start" x="2328.71" y="-534" font-family="Arial" font-size="14.00" fill="#666666">[BASE TABLE]</text>
<polygon fill="none" stroke="black" points="2169.2,-489.8 2169.2,-520.6 2489,-520.6 2489,-489.8 2169.2,-489.8"/>
<text text-anchor="start" x="2176.2" y="-502" font-family="Arial" font-size="14.00">author </text>
<text text-anchor="start" x="2219.79" y="-502" font-family="Arial" font-size="14.00" fill="#666666">[varchar(128)]</text>
<polygon fill="none" stroke="black" points="2169.2,-459 2169.2,-489.8 2489,-489.8 2489,-459 2169.2,-459"/>
<text text-anchor="start" x="2176.2" y="-471.2" font-family="Arial" font-size="14.00">extinct </text>
<text text-anchor="start" x="2220.55" y="-471.2" font-family="Arial" font-size="14.00" fill="#666666">[boolean]</text>
<polygon fill="none" stroke="black" points="2169.2,-428.2 2169.2,-459 2489,-459 2489,-428.2 2169.2,-428.2"/>
<text text-anchor="start" x="2176.2" y="-440.4" font-family="Arial" font-size="14.00">highertaxonid </text>
<text text-anchor="start" x="2264.15" y="-440.4" font-family="Arial" font-size="14.00" fill="#666666">[integer]</text>
<polygon fill="none" stroke="black" points="2169.2,-397.4 2169.2,-428.2 2489,-428.2 2489,-397.4 2169.2,-397.4"/>
<text text-anchor="start" x="2176.2" y="-409.6" font-family="Arial" font-size="14.00">notes </text>
<text text-anchor="start" x="2214.34" y="-409.6" font-family="Arial" font-size="14.00" fill="#666666">[text]</text>
<polygon fill="none" stroke="black" points="2169.2,-366.6 2169.2,-397.4 2489,-397.4 2489,-366.6 2169.2,-366.6"/>
<text text-anchor="start" x="2176.2" y="-378.8" font-family="Arial" font-size="14.00">publicationid </text>
<text text-anchor="start" x="2257.92" y="-378.8" font-family="Arial" font-size="14.00" fill="#666666">[integer]</text>
<polygon fill="none" stroke="black" points="2169.2,-335.8 2169.2,-366.6 2489,-366.6 2489,-335.8 2169.2,-335.8"/>
<text text-anchor="start" x="2176.2" y="-348" font-family="Arial" font-size="14.00">recdatecreated </text>
<text text-anchor="start" x="2273.48" y="-348" font-family="Arial" font-size="14.00" fill="#666666">[timestamp(0) without time zone]</text>
<polygon fill="none" stroke="black" points="2169.2,-305 2169.2,-335.8 2489,-335.8 2489,-305 2169.2,-305"/>
<text text-anchor="start" x="2176.2" y="-317.2" font-family="Arial" font-size="14.00">recdatemodified </text>
<text text-anchor="start" x="2279.7" y="-317.2" font-family="Arial" font-size="14.00" fill="#666666">[timestamp(0) without time zone]</text>
<polygon fill="none" stroke="black" points="2169.2,-274.2 2169.2,-305 2489,-305 2489,-274.2 2169.2,-274.2"/>
<text text-anchor="start" x="2176.2" y="-286.4" font-family="Arial" font-size="14.00">taxagroupid </text>
<text text-anchor="start" x="2253.25" y="-286.4" font-family="Arial" font-size="14.00" fill="#666666">[varchar(3)]</text>
<polygon fill="none" stroke="black" points="2169.2,-243.4 2169.2,-274.2 2489,-274.2 2489,-243.4 2169.2,-243.4"/>
<text text-anchor="start" x="2176.2" y="-255.6" font-family="Arial" font-size="14.00">taxoncode </text>
<text text-anchor="start" x="2244.7" y="-255.6" font-family="Arial" font-size="14.00" fill="#666666">[varchar(64)]</text>
<polygon fill="none" stroke="black" points="2169.2,-212.6 2169.2,-243.4 2489,-243.4 2489,-212.6 2169.2,-212.6"/>
<text text-anchor="start" x="2176.2" y="-224.8" font-family="Arial" font-size="14.00">taxonid </text>
<text text-anchor="start" x="2225.23" y="-224.8" font-family="Arial" font-size="14.00" fill="#666666">[integer]</text>
<polygon fill="none" stroke="black" points="2169.2,-181.8 2169.2,-212.6 2489,-212.6 2489,-181.8 2169.2,-181.8"/>
<text text-anchor="start" x="2176.2" y="-194" font-family="Arial" font-size="14.00">taxonname </text>
<text text-anchor="start" x="2249.36" y="-194" font-family="Arial" font-size="14.00" fill="#666666">[text]</text>
<polygon fill="none" stroke="black" points="2169.2,-151 2169.2,-181.8 2489,-181.8 2489,-151 2169.2,-151"/>
<text text-anchor="start" x="2176.2" y="-163.2" font-family="Arial" font-size="14.00">valid </text>
<text text-anchor="start" x="2208.88" y="-163.2" font-family="Arial" font-size="14.00" fill="#666666">[boolean]</text>
<polygon fill="none" stroke="black" points="2169.2,-120.2 2169.2,-151 2489,-151 2489,-120.2 2169.2,-120.2"/>
<text text-anchor="start" x="2176.2" y="-132.4" font-family="Arial" font-size="14.00">validatedate </text>
<text text-anchor="start" x="2255.59" y="-132.4" font-family="Arial" font-size="14.00" fill="#666666">[date]</text>
<polygon fill="none" stroke="black" points="2169.2,-89.4 2169.2,-120.2 2489,-120.2 2489,-89.4 2169.2,-89.4"/>
<text text-anchor="start" x="2176.2" y="-101.6" font-family="Arial" font-size="14.00">validatorid </text>
<text text-anchor="start" x="2243.9" y="-101.6" font-family="Arial" font-size="14.00" fill="#666666">[integer]</text>
</g>
<!-- ndb.specimendates&#45;&gt;ndb.taxa -->
<g id="edge7" class="edge">
<title>ndb.specimendates:taxonid&#45;&gt;ndb.taxa:taxonid</title>
<path fill="none" stroke="black" d="M1440.18,-740.05C1546.58,-737.31 2064.97,-698.52 2117.1,-645.6 2182.71,-579 2074.71,-228 2168.2,-228"/>
<polygon fill="black" stroke="black" points="1440.33,-740.04 1430.27,-735.7 1435,-740.12 1430.67,-740.19 1430.67,-740.19 1430.67,-740.19 1435,-740.12 1430.4,-744.69 1440.33,-740.04"/>
<text text-anchor="start" x="1437" y="-750.2" font-family="Arial" font-size="10.00">FOREIGN KEY (taxonid) REFERENCES ndb.taxa(taxonid)</text>
</g>
<!-- ndb.specimendatescal -->
<g id="node6" class="node">
<title>ndb.specimendatescal</title>
<polygon fill="#efefef" stroke="none" points="1109.2,-1498.8 1109.2,-1534.4 1429,-1534.4 1429,-1498.8 1109.2,-1498.8"/>
<polygon fill="none" stroke="black" points="1109.2,-1498.8 1109.2,-1534.4 1429,-1534.4 1429,-1498.8 1109.2,-1498.8"/>
<text text-anchor="start" x="1128.14" y="-1512.2" font-family="Arial Bold" font-size="18.00">ndb.specimendatescal</text>
<text text-anchor="start" x="1285.57" y="-1512.2" font-family="Arial" font-size="14.00">    </text>
<text text-anchor="start" x="1316.69" y="-1512.2" font-family="Arial" font-size="14.00" fill="#666666">[BASE TABLE]</text>
<polygon fill="none" stroke="black" points="1109.2,-1468 1109.2,-1498.8 1429,-1498.8 1429,-1468 1109.2,-1468"/>
<text text-anchor="start" x="1116.2" y="-1480.2" font-family="Arial" font-size="14.00">calage </text>
<text text-anchor="start" x="1161.34" y="-1480.2" font-family="Arial" font-size="14.00" fill="#666666">[double precision]</text>
<polygon fill="none" stroke="black" points="1109.2,-1437.2 1109.2,-1468 1429,-1468 1429,-1437.2 1109.2,-1437.2"/>
<text text-anchor="start" x="1116.2" y="-1449.4" font-family="Arial" font-size="14.00">calageolder </text>
<text text-anchor="start" x="1192.48" y="-1449.4" font-family="Arial" font-size="14.00" fill="#666666">[double precision]</text>
<polygon fill="none" stroke="black" points="1109.2,-1406.4 1109.2,-1437.2 1429,-1437.2 1429,-1406.4 1109.2,-1406.4"/>
<text text-anchor="start" x="1116.2" y="-1418.6" font-family="Arial" font-size="14.00">calageyounger </text>
<text text-anchor="start" x="1211.94" y="-1418.6" font-family="Arial" font-size="14.00" fill="#666666">[double precision]</text>
<polygon fill="none" stroke="black" points="1109.2,-1375.6 1109.2,-1406.4 1429,-1406.4 1429,-1375.6 1109.2,-1375.6"/>
<text text-anchor="start" x="1116.2" y="-1387.8" font-family="Arial" font-size="14.00">calibrationcurveid </text>
<text text-anchor="start" x="1229.03" y="-1387.8" font-family="Arial" font-size="14.00" fill="#666666">[integer]</text>
<polygon fill="none" stroke="black" points="1109.2,-1344.8 1109.2,-1375.6 1429,-1375.6 1429,-1344.8 1109.2,-1344.8"/>
<text text-anchor="start" x="1116.2" y="-1357" font-family="Arial" font-size="14.00">calibrationprogramid </text>
<text text-anchor="start" x="1246.93" y="-1357" font-family="Arial" font-size="14.00" fill="#666666">[integer]</text>
<polygon fill="none" stroke="black" points="1109.2,-1314 1109.2,-1344.8 1429,-1344.8 1429,-1314 1109.2,-1314"/>
<text text-anchor="start" x="1116.2" y="-1326.2" font-family="Arial" font-size="14.00">datecalibrated </text>
<text text-anchor="start" x="1208.04" y="-1326.2" font-family="Arial" font-size="14.00" fill="#666666">[date]</text>
<polygon fill="none" stroke="black" points="1109.2,-1283.2 1109.2,-1314 1429,-1314 1429,-1283.2 1109.2,-1283.2"/>
<text text-anchor="start" x="1116.2" y="-1295.4" font-family="Arial" font-size="14.00">recdatecreated </text>
<text text-anchor="start" x="1213.48" y="-1295.4" font-family="Arial" font-size="14.00" fill="#666666">[timestamp(0) without time zone]</text>
<polygon fill="none" stroke="black" points="1109.2,-1252.4 1109.2,-1283.2 1429,-1283.2 1429,-1252.4 1109.2,-1252.4"/>
<text text-anchor="start" x="1116.2" y="-1264.6" font-family="Arial" font-size="14.00">recdatemodified </text>
<text text-anchor="start" x="1219.7" y="-1264.6" font-family="Arial" font-size="14.00" fill="#666666">[timestamp(0) without time zone]</text>
<polygon fill="none" stroke="black" points="1109.2,-1221.6 1109.2,-1252.4 1429,-1252.4 1429,-1221.6 1109.2,-1221.6"/>
<text text-anchor="start" x="1116.2" y="-1233.8" font-family="Arial" font-size="14.00">specimendatecalid </text>
<text text-anchor="start" x="1236.05" y="-1233.8" font-family="Arial" font-size="14.00" fill="#666666">[integer]</text>
<polygon fill="none" stroke="black" points="1109.2,-1190.8 1109.2,-1221.6 1429,-1221.6 1429,-1190.8 1109.2,-1190.8"/>
<text text-anchor="start" x="1116.2" y="-1203" font-family="Arial" font-size="14.00">specimendateid </text>
<text text-anchor="start" x="1218.15" y="-1203" font-family="Arial" font-size="14.00" fill="#666666">[integer]</text>
</g>
<!-- ndb.specimendatescal&#45;&gt;ndb.specimendates -->
<g id="edge5" class="edge">
<title>ndb.specimendatescal:specimendateid&#45;&gt;ndb.specimendates:specimendateid</title>
<path fill="none" stroke="black" d="M1269.86,-1179.62C1279.99,-1116.76 1388.97,-1175.5 1429,-1111.6 1502.09,-994.91 1567.69,-801.8 1430,-801.8"/>
<polygon fill="black" stroke="black" points="1269.87,-1179.49 1264.64,-1189.13 1269.47,-1184.81 1269.15,-1189.13 1269.15,-1189.13 1269.15,-1189.13 1269.47,-1184.81 1273.61,-1189.8 1269.87,-1179.49"/>
<text text-anchor="start" x="654.12" y="-1199.8" font-family="Arial" font-size="10.00">FOREIGN KEY (specimendateid) REFERENCES ndb.specimendates(specimendateid) ON UPDATE CASCADE ON DELETE CASCADE</text>
</g>
</g>
</svg>
