<?xml version="1.0" encoding="UTF-8" standalone="no"?>
<!DOCTYPE svg PUBLIC "-//W3C//DTD SVG 1.1//EN"
 "http://www.w3.org/Graphics/SVG/1.1/DTD/svg11.dtd">
<!-- Generated by graphviz version 12.1.2 (20240928.0832)
 -->
<!-- Title: ndb.isobiomarkertypes Pages: 1 -->
<svg width="1054pt" height="571pt"
 viewBox="0.00 0.00 1053.77 571.20" xmlns="http://www.w3.org/2000/svg" xmlns:xlink="http://www.w3.org/1999/xlink">
<g id="graph0" class="graph" transform="scale(1 1) rotate(0) translate(4 567.2)">
<title>ndb.isobiomarkertypes</title>
<polygon fill="white" stroke="none" points="-4,4 -4,-567.2 1049.77,-567.2 1049.77,4 -4,4"/>
<!-- ndb.isobiomarkertypes -->
<g id="node1" class="node">
<title>ndb.isobiomarkertypes</title>
<polygon fill="#efefef" stroke="none" points="52.27,-169.4 52.27,-205 372.07,-205 372.07,-169.4 52.27,-169.4"/>
<polygon fill="none" stroke="black" points="52.27,-169.4 52.27,-205 372.07,-205 372.07,-169.4 52.27,-169.4"/>
<text text-anchor="start" x="67.69" y="-182.8" font-family="Arial Bold" font-size="18.00">ndb.isobiomarkertypes</text>
<text text-anchor="start" x="232.16" y="-182.8" font-family="Arial" font-size="14.00">    </text>
<text text-anchor="start" x="263.28" y="-182.8" font-family="Arial" font-size="14.00" fill="#666666">[BASE TABLE]</text>
<polygon fill="none" stroke="black" points="52.27,-138.6 52.27,-169.4 372.07,-169.4 372.07,-138.6 52.27,-138.6"/>
<text text-anchor="start" x="59.27" y="-150.8" font-family="Arial" font-size="14.00">isobiomarkertypeid </text>
<text text-anchor="start" x="180.66" y="-150.8" font-family="Arial" font-size="14.00" fill="#666666">[integer]</text>
<polygon fill="none" stroke="black" points="52.27,-107.8 52.27,-138.6 372.07,-138.6 372.07,-107.8 52.27,-107.8"/>
<text text-anchor="start" x="59.27" y="-120" font-family="Arial" font-size="14.00">isobiomarkertype </text>
<text text-anchor="start" x="169.76" y="-120" font-family="Arial" font-size="14.00" fill="#666666">[varchar(50)]</text>
<polygon fill="none" stroke="black" points="52.27,-77 52.27,-107.8 372.07,-107.8 372.07,-77 52.27,-77"/>
<text text-anchor="start" x="59.27" y="-89.2" font-family="Arial" font-size="14.00">recdatecreated </text>
<text text-anchor="start" x="156.56" y="-89.2" font-family="Arial" font-size="14.00" fill="#666666">[timestamp(0) without time zone]</text>
<polygon fill="none" stroke="black" points="52.27,-46.2 52.27,-77 372.07,-77 372.07,-46.2 52.27,-46.2"/>
<text text-anchor="start" x="59.27" y="-58.4" font-family="Arial" font-size="14.00">recdatemodified </text>
<text text-anchor="start" x="162.78" y="-58.4" font-family="Arial" font-size="14.00" fill="#666666">[timestamp(0) without time zone]</text>
<polygon fill="none" stroke="black" stroke-width="3" points="50.77,-44.7 50.77,-206.5 373.57,-206.5 373.57,-44.7 50.77,-44.7"/>
</g>
<!-- ndb.isobiomarkerbandtypes -->
<g id="node2" class="node">
<title>ndb.isobiomarkerbandtypes</title>
<polygon fill="#efefef" stroke="none" points="43.2,-484.4 43.2,-520 381.15,-520 381.15,-484.4 43.2,-484.4"/>
<polygon fill="none" stroke="black" points="43.2,-484.4 43.2,-520 381.15,-520 381.15,-484.4 43.2,-484.4"/>
<text text-anchor="start" x="50.2" y="-497.8" font-family="Arial Bold" font-size="18.00">ndb.isobiomarkerbandtypes</text>
<text text-anchor="start" x="249.66" y="-497.8" font-family="Arial" font-size="14.00">    </text>
<text text-anchor="start" x="280.78" y="-497.8" font-family="Arial" font-size="14.00" fill="#666666">[BASE TABLE]</text>
<polygon fill="none" stroke="black" points="43.2,-453.6 43.2,-484.4 381.15,-484.4 381.15,-453.6 43.2,-453.6"/>
<text text-anchor="start" x="50.2" y="-465.8" font-family="Arial" font-size="14.00">isobiomarkerbandtypeid </text>
<text text-anchor="start" x="202.73" y="-465.8" font-family="Arial" font-size="14.00" fill="#666666">[integer]</text>
<polygon fill="none" stroke="black" points="43.2,-422.8 43.2,-453.6 381.15,-453.6 381.15,-422.8 43.2,-422.8"/>
<text text-anchor="start" x="50.2" y="-435" font-family="Arial" font-size="14.00">isobiomarkertypeid </text>
<text text-anchor="start" x="171.59" y="-435" font-family="Arial" font-size="14.00" fill="#666666">[integer]</text>
<polygon fill="none" stroke="black" points="43.2,-392 43.2,-422.8 381.15,-422.8 381.15,-392 43.2,-392"/>
<text text-anchor="start" x="50.2" y="-404.2" font-family="Arial" font-size="14.00">isobiomarkerbandtype </text>
<text text-anchor="start" x="191.83" y="-404.2" font-family="Arial" font-size="14.00" fill="#666666">[varchar(50)]</text>
<polygon fill="none" stroke="black" points="43.2,-361.2 43.2,-392 381.15,-392 381.15,-361.2 43.2,-361.2"/>
<text text-anchor="start" x="50.2" y="-373.4" font-family="Arial" font-size="14.00">recdatecreated </text>
<text text-anchor="start" x="147.48" y="-373.4" font-family="Arial" font-size="14.00" fill="#666666">[timestamp(0) without time zone]</text>
<polygon fill="none" stroke="black" points="43.2,-330.4 43.2,-361.2 381.15,-361.2 381.15,-330.4 43.2,-330.4"/>
<text text-anchor="start" x="50.2" y="-342.6" font-family="Arial" font-size="14.00">recdatemodified </text>
<text text-anchor="start" x="153.7" y="-342.6" font-family="Arial" font-size="14.00" fill="#666666">[timestamp(0) without time zone]</text>
</g>
<!-- ndb.isobiomarkerbandtypes&#45;&gt;ndb.isobiomarkertypes -->
<g id="edge1" class="edge">
<title>ndb.isobiomarkerbandtypes:isobiomarkertypeid&#45;&gt;ndb.isobiomarkertypes:isobiomarkertypeid</title>
<path fill="none" stroke="black" d="M392.19,-435.57C444.13,-406.92 432.68,-154 373.07,-154"/>
<polygon fill="black" stroke="black" points="392.15,-435.58 381.33,-433.76 386.98,-436.93 382.8,-438.03 382.8,-438.03 382.8,-438.03 386.98,-436.93 383.61,-442.47 392.15,-435.58"/>
<text text-anchor="start" x="389.15" y="-448.2" font-family="Arial" font-size="10.00">FOREIGN KEY (isobiomarkertypeid) REFERENCES ndb.isobiomarkertypes(isobiomarkertypeid) ON UPDATE CASCADE ON DELETE CASCADE</text>
</g>
</g>
</svg>
