<?xml version="1.0" encoding="UTF-8" standalone="no"?>
<!DOCTYPE svg PUBLIC "-//W3C//DTD SVG 1.1//EN"
 "http://www.w3.org/Graphics/SVG/1.1/DTD/svg11.dtd">
<!-- Generated by graphviz version 12.1.2 (20240928.0832)
 -->
<!-- Title: ndb.isopretreatmenttypes Pages: 1 -->
<svg width="1539pt" height="658pt"
 viewBox="0.00 0.00 1538.85 657.60" xmlns="http://www.w3.org/2000/svg" xmlns:xlink="http://www.w3.org/1999/xlink">
<g id="graph0" class="graph" transform="scale(1 1) rotate(0) translate(4 653.6)">
<title>ndb.isopretreatmenttypes</title>
<polygon fill="white" stroke="none" points="-4,4 -4,-653.6 1534.85,-653.6 1534.85,4 -4,4"/>
<!-- ndb.isopretreatmenttypes -->
<g id="node1" class="node">
<title>ndb.isopretreatmenttypes</title>
<polygon fill="#efefef" stroke="none" points="498.33,-212.6 498.33,-248.2 818.27,-248.2 818.27,-212.6 498.33,-212.6"/>
<polygon fill="none" stroke="black" points="498.33,-212.6 498.33,-248.2 818.27,-248.2 818.27,-212.6 498.33,-212.6"/>
<text text-anchor="start" x="505.33" y="-226" font-family="Arial Bold" font-size="18.00">ndb.isopretreatmenttypes</text>
<text text-anchor="start" x="686.78" y="-226" font-family="Arial" font-size="14.00">    </text>
<text text-anchor="start" x="717.9" y="-226" font-family="Arial" font-size="14.00" fill="#666666">[BASE TABLE]</text>
<polygon fill="none" stroke="black" points="498.33,-181.8 498.33,-212.6 818.27,-212.6 818.27,-181.8 498.33,-181.8"/>
<text text-anchor="start" x="505.33" y="-194" font-family="Arial" font-size="14.00">isopretreatmentqualifier </text>
<text text-anchor="start" x="655.52" y="-194" font-family="Arial" font-size="14.00" fill="#666666">[varchar(50)]</text>
<polygon fill="none" stroke="black" points="498.33,-151 498.33,-181.8 818.27,-181.8 818.27,-151 498.33,-151"/>
<text text-anchor="start" x="505.33" y="-163.2" font-family="Arial" font-size="14.00">isopretreatmenttype </text>
<text text-anchor="start" x="632.95" y="-163.2" font-family="Arial" font-size="14.00" fill="#666666">[varchar(50)]</text>
<polygon fill="none" stroke="black" points="498.33,-120.2 498.33,-151 818.27,-151 818.27,-120.2 498.33,-120.2"/>
<text text-anchor="start" x="505.33" y="-132.4" font-family="Arial" font-size="14.00">isopretreatmenttypeid </text>
<text text-anchor="start" x="643.85" y="-132.4" font-family="Arial" font-size="14.00" fill="#666666">[integer]</text>
<polygon fill="none" stroke="black" points="498.33,-89.4 498.33,-120.2 818.27,-120.2 818.27,-89.4 498.33,-89.4"/>
<text text-anchor="start" x="505.33" y="-101.6" font-family="Arial" font-size="14.00">recdatecreated </text>
<text text-anchor="start" x="602.61" y="-101.6" font-family="Arial" font-size="14.00" fill="#666666">[timestamp(0) without time zone]</text>
<polygon fill="none" stroke="black" points="498.33,-58.6 498.33,-89.4 818.27,-89.4 818.27,-58.6 498.33,-58.6"/>
<text text-anchor="start" x="505.33" y="-70.8" font-family="Arial" font-size="14.00">recdatemodified </text>
<text text-anchor="start" x="608.83" y="-70.8" font-family="Arial" font-size="14.00" fill="#666666">[timestamp(0) without time zone]</text>
<polygon fill="none" stroke="black" stroke-width="3" points="496.83,-57.1 496.83,-249.7 819.77,-249.7 819.77,-57.1 496.83,-57.1"/>
</g>
<!-- ndb.isosamplepretreatments -->
<g id="node2" class="node">
<title>ndb.isosamplepretreatments</title>
<polygon fill="#efefef" stroke="none" points="701.33,-570.8 701.33,-606.4 1041.27,-606.4 1041.27,-570.8 701.33,-570.8"/>
<polygon fill="none" stroke="black" points="701.33,-570.8 701.33,-606.4 1041.27,-606.4 1041.27,-570.8 701.33,-570.8"/>
<text text-anchor="start" x="708.33" y="-584.2" font-family="Arial Bold" font-size="18.00">ndb.isosamplepretreatments</text>
<text text-anchor="start" x="909.78" y="-584.2" font-family="Arial" font-size="14.00">    </text>
<text text-anchor="start" x="940.9" y="-584.2" font-family="Arial" font-size="14.00" fill="#666666">[BASE TABLE]</text>
<polygon fill="none" stroke="black" points="701.33,-540 701.33,-570.8 1041.27,-570.8 1041.27,-540 701.33,-540"/>
<text text-anchor="start" x="708.33" y="-552.2" font-family="Arial" font-size="14.00">dataid </text>
<text text-anchor="start" x="750.37" y="-552.2" font-family="Arial" font-size="14.00" fill="#666666">[integer]</text>
<polygon fill="none" stroke="black" points="701.33,-509.2 701.33,-540 1041.27,-540 1041.27,-509.2 701.33,-509.2"/>
<text text-anchor="start" x="708.33" y="-521.4" font-family="Arial" font-size="14.00">isopretreatmenttypeid </text>
<text text-anchor="start" x="846.85" y="-521.4" font-family="Arial" font-size="14.00" fill="#666666">[integer]</text>
<polygon fill="none" stroke="black" points="701.33,-478.4 701.33,-509.2 1041.27,-509.2 1041.27,-478.4 701.33,-478.4"/>
<text text-anchor="start" x="708.33" y="-490.6" font-family="Arial" font-size="14.00">order </text>
<text text-anchor="start" x="744.91" y="-490.6" font-family="Arial" font-size="14.00" fill="#666666">[integer]</text>
<polygon fill="none" stroke="black" points="701.33,-447.6 701.33,-478.4 1041.27,-478.4 1041.27,-447.6 701.33,-447.6"/>
<text text-anchor="start" x="708.33" y="-459.8" font-family="Arial" font-size="14.00">recdatecreated </text>
<text text-anchor="start" x="805.62" y="-459.8" font-family="Arial" font-size="14.00" fill="#666666">[timestamp(0) without time zone]</text>
<polygon fill="none" stroke="black" points="701.33,-416.8 701.33,-447.6 1041.27,-447.6 1041.27,-416.8 701.33,-416.8"/>
<text text-anchor="start" x="708.33" y="-429" font-family="Arial" font-size="14.00">recdatemodified </text>
<text text-anchor="start" x="811.84" y="-429" font-family="Arial" font-size="14.00" fill="#666666">[timestamp(0) without time zone]</text>
<polygon fill="none" stroke="black" points="701.33,-386 701.33,-416.8 1041.27,-416.8 1041.27,-386 701.33,-386"/>
<text text-anchor="start" x="708.33" y="-398.2" font-family="Arial" font-size="14.00">value </text>
<text text-anchor="start" x="745.69" y="-398.2" font-family="Arial" font-size="14.00" fill="#666666">[double precision]</text>
</g>
<!-- ndb.isosamplepretreatments&#45;&gt;ndb.isopretreatmenttypes -->
<g id="edge1" class="edge">
<title>ndb.isosamplepretreatments:isopretreatmenttypeid&#45;&gt;ndb.isopretreatmenttypes:isopretreatmenttypeid</title>
<path fill="none" stroke="black" d="M690.15,-523.92C622.85,-514.39 658.27,-406.84 701.33,-342.8 732.72,-296.12 786.87,-341.07 818.27,-294.4 857.67,-235.84 889.85,-135.6 819.27,-135.6"/>
<polygon fill="black" stroke="black" points="690.02,-523.91 699.7,-529.07 695.34,-524.27 699.67,-524.56 699.67,-524.56 699.67,-524.56 695.34,-524.27 700.3,-520.09 690.02,-523.91"/>
<text text-anchor="start" x="7" y="-534.6" font-family="Arial" font-size="10.00">FOREIGN KEY (isopretreatmenttypeid) REFERENCES ndb.isopretreatmenttypes(isopretreatmenttypeid) ON UPDATE CASCADE ON DELETE CASCADE</text>
</g>
<!-- ndb.data -->
<g id="node3" class="node">
<title>ndb.data</title>
<polygon fill="#efefef" stroke="none" points="925.4,-228 925.4,-263.6 1245.2,-263.6 1245.2,-228 925.4,-228"/>
<polygon fill="none" stroke="black" points="925.4,-228 925.4,-263.6 1245.2,-263.6 1245.2,-228 925.4,-228"/>
<text text-anchor="start" x="992.32" y="-241.4" font-family="Arial Bold" font-size="18.00">ndb.data</text>
<text text-anchor="start" x="1053.8" y="-241.4" font-family="Arial" font-size="14.00">    </text>
<text text-anchor="start" x="1084.91" y="-241.4" font-family="Arial" font-size="14.00" fill="#666666">[BASE TABLE]</text>
<polygon fill="none" stroke="black" points="925.4,-197.2 925.4,-228 1245.2,-228 1245.2,-197.2 925.4,-197.2"/>
<text text-anchor="start" x="932.4" y="-209.4" font-family="Arial" font-size="14.00">dataid </text>
<text text-anchor="start" x="974.44" y="-209.4" font-family="Arial" font-size="14.00" fill="#666666">[integer]</text>
<polygon fill="none" stroke="black" points="925.4,-166.4 925.4,-197.2 1245.2,-197.2 1245.2,-166.4 925.4,-166.4"/>
<text text-anchor="start" x="932.4" y="-178.6" font-family="Arial" font-size="14.00">recdatecreated </text>
<text text-anchor="start" x="1029.68" y="-178.6" font-family="Arial" font-size="14.00" fill="#666666">[timestamp(0) without time zone]</text>
<polygon fill="none" stroke="black" points="925.4,-135.6 925.4,-166.4 1245.2,-166.4 1245.2,-135.6 925.4,-135.6"/>
<text text-anchor="start" x="932.4" y="-147.8" font-family="Arial" font-size="14.00">recdatemodified </text>
<text text-anchor="start" x="1035.9" y="-147.8" font-family="Arial" font-size="14.00" fill="#666666">[timestamp(0) without time zone]</text>
<polygon fill="none" stroke="black" points="925.4,-104.8 925.4,-135.6 1245.2,-135.6 1245.2,-104.8 925.4,-104.8"/>
<text text-anchor="start" x="932.4" y="-117" font-family="Arial" font-size="14.00">sampleid </text>
<text text-anchor="start" x="992.32" y="-117" font-family="Arial" font-size="14.00" fill="#666666">[integer]</text>
<polygon fill="none" stroke="black" points="925.4,-74 925.4,-104.8 1245.2,-104.8 1245.2,-74 925.4,-74"/>
<text text-anchor="start" x="932.4" y="-86.2" font-family="Arial" font-size="14.00">value </text>
<text text-anchor="start" x="969.76" y="-86.2" font-family="Arial" font-size="14.00" fill="#666666">[double precision]</text>
<polygon fill="none" stroke="black" points="925.4,-43.2 925.4,-74 1245.2,-74 1245.2,-43.2 925.4,-43.2"/>
<text text-anchor="start" x="932.4" y="-55.4" font-family="Arial" font-size="14.00">variableid </text>
<text text-anchor="start" x="996.21" y="-55.4" font-family="Arial" font-size="14.00" fill="#666666">[integer]</text>
</g>
<!-- ndb.isosamplepretreatments&#45;&gt;ndb.data -->
<g id="edge2" class="edge">
<title>ndb.isosamplepretreatments:dataid&#45;&gt;ndb.data:dataid</title>
<path fill="none" stroke="black" d="M1052.24,-554.85C1133.82,-545.34 1095.39,-415.93 1041.27,-342.8 1009.19,-299.45 957.61,-350.05 925.4,-306.8 900.39,-273.22 882.53,-212.6 924.4,-212.6"/>
<polygon fill="black" stroke="black" points="1052.59,-554.83 1042.35,-550.89 1047.26,-555.12 1042.94,-555.36 1042.94,-555.36 1042.94,-555.36 1047.26,-555.12 1042.85,-559.87 1052.59,-554.83"/>
<text text-anchor="start" x="1049.27" y="-565.4" font-family="Arial" font-size="10.00">FOREIGN KEY (dataid) REFERENCES ndb.data(dataid) ON UPDATE CASCADE ON DELETE CASCADE</text>
</g>
</g>
</svg>
