<?xml version="1.0" encoding="UTF-8" standalone="no"?>
<!DOCTYPE svg PUBLIC "-//W3C//DTD SVG 1.1//EN"
 "http://www.w3.org/Graphics/SVG/1.1/DTD/svg11.dtd">
<!-- Generated by graphviz version 12.1.2 (20240928.0832)
 -->
<!-- Title: ndb.geopoliticalunits Pages: 1 -->
<svg width="1269pt" height="2198pt"
 viewBox="0.00 0.00 1269.04 2197.60" xmlns="http://www.w3.org/2000/svg" xmlns:xlink="http://www.w3.org/1999/xlink">
<g id="graph0" class="graph" transform="scale(1 1) rotate(0) translate(4 2193.6)">
<title>ndb.geopoliticalunits</title>
<polygon fill="white" stroke="none" points="-4,4 -4,-2193.6 1265.04,-2193.6 1265.04,4 -4,4"/>
<!-- ndb.geopoliticalunits -->
<g id="node1" class="node">
<title>ndb.geopoliticalunits</title>
<polygon fill="#efefef" stroke="none" points="67.36,-1013.4 67.36,-1049 387.16,-1049 387.16,-1013.4 67.36,-1013.4"/>
<polygon fill="none" stroke="black" points="67.36,-1013.4 67.36,-1049 387.16,-1049 387.16,-1013.4 67.36,-1013.4"/>
<text text-anchor="start" x="89.28" y="-1026.8" font-family="Arial Bold" font-size="18.00">ndb.geopoliticalunits</text>
<text text-anchor="start" x="240.76" y="-1026.8" font-family="Arial" font-size="14.00">    </text>
<text text-anchor="start" x="271.88" y="-1026.8" font-family="Arial" font-size="14.00" fill="#666666">[BASE TABLE]</text>
<polygon fill="none" stroke="black" points="67.36,-982.6 67.36,-1013.4 387.16,-1013.4 387.16,-982.6 67.36,-982.6"/>
<text text-anchor="start" x="74.36" y="-994.8" font-family="Arial" font-size="14.00">geopoliticalid </text>
<text text-anchor="start" x="159.2" y="-994.8" font-family="Arial" font-size="14.00" fill="#666666">[integer]</text>
<polygon fill="none" stroke="black" points="67.36,-951.8 67.36,-982.6 387.16,-982.6 387.16,-951.8 67.36,-951.8"/>
<text text-anchor="start" x="74.36" y="-964" font-family="Arial" font-size="14.00">geopoliticalname </text>
<text text-anchor="start" x="183.32" y="-964" font-family="Arial" font-size="14.00" fill="#666666">[varchar(255)]</text>
<polygon fill="none" stroke="black" points="67.36,-921 67.36,-951.8 387.16,-951.8 387.16,-921 67.36,-921"/>
<text text-anchor="start" x="74.36" y="-933.2" font-family="Arial" font-size="14.00">geopoliticalunit </text>
<text text-anchor="start" x="170.87" y="-933.2" font-family="Arial" font-size="14.00" fill="#666666">[varchar(255)]</text>
<polygon fill="none" stroke="black" points="67.36,-890.2 67.36,-921 387.16,-921 387.16,-890.2 67.36,-890.2"/>
<text text-anchor="start" x="74.36" y="-902.4" font-family="Arial" font-size="14.00">highergeopoliticalid </text>
<text text-anchor="start" x="198.11" y="-902.4" font-family="Arial" font-size="14.00" fill="#666666">[integer]</text>
<polygon fill="none" stroke="black" points="67.36,-859.4 67.36,-890.2 387.16,-890.2 387.16,-859.4 67.36,-859.4"/>
<text text-anchor="start" x="74.36" y="-871.6" font-family="Arial" font-size="14.00">rank </text>
<text text-anchor="start" x="105.49" y="-871.6" font-family="Arial" font-size="14.00" fill="#666666">[integer]</text>
<polygon fill="none" stroke="black" points="67.36,-828.6 67.36,-859.4 387.16,-859.4 387.16,-828.6 67.36,-828.6"/>
<text text-anchor="start" x="74.36" y="-840.8" font-family="Arial" font-size="14.00">recdatecreated </text>
<text text-anchor="start" x="171.65" y="-840.8" font-family="Arial" font-size="14.00" fill="#666666">[timestamp(0) without time zone]</text>
<polygon fill="none" stroke="black" points="67.36,-797.8 67.36,-828.6 387.16,-828.6 387.16,-797.8 67.36,-797.8"/>
<text text-anchor="start" x="74.36" y="-810" font-family="Arial" font-size="14.00">recdatemodified </text>
<text text-anchor="start" x="177.87" y="-810" font-family="Arial" font-size="14.00" fill="#666666">[timestamp(0) without time zone]</text>
<polygon fill="none" stroke="black" stroke-width="3" points="65.86,-796.3 65.86,-1050.5 388.66,-1050.5 388.66,-796.3 65.86,-796.3"/>
</g>
<!-- ndb.geopaths -->
<g id="node2" class="node">
<title>ndb.geopaths</title>
<polygon fill="#efefef" stroke="none" points="110.28,-2049.2 110.28,-2084.8 344.25,-2084.8 344.25,-2049.2 110.28,-2049.2"/>
<polygon fill="none" stroke="black" points="110.28,-2049.2 110.28,-2084.8 344.25,-2084.8 344.25,-2049.2 110.28,-2049.2"/>
<text text-anchor="start" x="117.28" y="-2062.6" font-family="Arial Bold" font-size="18.00">ndb.geopaths</text>
<text text-anchor="start" x="212.76" y="-2062.6" font-family="Arial" font-size="14.00">    </text>
<text text-anchor="start" x="243.88" y="-2062.6" font-family="Arial" font-size="14.00" fill="#666666">[BASE TABLE]</text>
<polygon fill="none" stroke="black" points="110.28,-2018.4 110.28,-2049.2 344.25,-2049.2 344.25,-2018.4 110.28,-2018.4"/>
<text text-anchor="start" x="117.28" y="-2030.6" font-family="Arial" font-size="14.00">geoin </text>
<text text-anchor="start" x="155.42" y="-2030.6" font-family="Arial" font-size="14.00" fill="#666666">[bigint]</text>
<polygon fill="none" stroke="black" points="110.28,-1987.6 110.28,-2018.4 344.25,-2018.4 344.25,-1987.6 110.28,-1987.6"/>
<text text-anchor="start" x="117.28" y="-1999.8" font-family="Arial" font-size="14.00">geoout </text>
<text text-anchor="start" x="163.99" y="-1999.8" font-family="Arial" font-size="14.00" fill="#666666">[integer[]]</text>
</g>
<!-- ndb.geopaths&#45;&gt;ndb.geopoliticalunits -->
<g id="edge1" class="edge">
<title>ndb.geopaths:geoin&#45;&gt;ndb.geopoliticalunits:geopoliticalid</title>
<path fill="none" stroke="black" d="M353.24,-2027.19C406.65,-1938.97 443.06,-998 388.16,-998"/>
<polygon fill="black" stroke="black" points="353.21,-2027.21 342.64,-2030.12 349.1,-2030.61 345.77,-2033.37 345.77,-2033.37 345.77,-2033.37 349.1,-2030.61 348.38,-2037.05 353.21,-2027.21"/>
<text text-anchor="start" x="7" y="-2043.8" font-family="Arial" font-size="10.00">FOREIGN KEY (geoin) REFERENCES ndb.geopoliticalunits(geopoliticalid)</text>
</g>
<!-- ndb.sitegeopolitical -->
<g id="node3" class="node">
<title>ndb.sitegeopolitical</title>
<polygon fill="#efefef" stroke="none" points="458.36,-2110.8 458.36,-2146.4 778.16,-2146.4 778.16,-2110.8 458.36,-2110.8"/>
<polygon fill="none" stroke="black" points="458.36,-2110.8 458.36,-2146.4 778.16,-2146.4 778.16,-2110.8 458.36,-2110.8"/>
<text text-anchor="start" x="485.28" y="-2124.2" font-family="Arial Bold" font-size="18.00">ndb.sitegeopolitical</text>
<text text-anchor="start" x="626.75" y="-2124.2" font-family="Arial" font-size="14.00">    </text>
<text text-anchor="start" x="657.87" y="-2124.2" font-family="Arial" font-size="14.00" fill="#666666">[BASE TABLE]</text>
<polygon fill="none" stroke="black" points="458.36,-2080 458.36,-2110.8 778.16,-2110.8 778.16,-2080 458.36,-2080"/>
<text text-anchor="start" x="465.36" y="-2092.2" font-family="Arial" font-size="14.00">geopoliticalid </text>
<text text-anchor="start" x="550.2" y="-2092.2" font-family="Arial" font-size="14.00" fill="#666666">[integer]</text>
<polygon fill="none" stroke="black" points="458.36,-2049.2 458.36,-2080 778.16,-2080 778.16,-2049.2 458.36,-2049.2"/>
<text text-anchor="start" x="465.36" y="-2061.4" font-family="Arial" font-size="14.00">objectid </text>
<text text-anchor="start" x="517.51" y="-2061.4" font-family="Arial" font-size="14.00" fill="#666666">[integer]</text>
<polygon fill="none" stroke="black" points="458.36,-2018.4 458.36,-2049.2 778.16,-2049.2 778.16,-2018.4 458.36,-2018.4"/>
<text text-anchor="start" x="465.36" y="-2030.6" font-family="Arial" font-size="14.00">recdatecreated </text>
<text text-anchor="start" x="562.65" y="-2030.6" font-family="Arial" font-size="14.00" fill="#666666">[timestamp(0) without time zone]</text>
<polygon fill="none" stroke="black" points="458.36,-1987.6 458.36,-2018.4 778.16,-2018.4 778.16,-1987.6 458.36,-1987.6"/>
<text text-anchor="start" x="465.36" y="-1999.8" font-family="Arial" font-size="14.00">recdatemodified </text>
<text text-anchor="start" x="568.87" y="-1999.8" font-family="Arial" font-size="14.00" fill="#666666">[timestamp(0) without time zone]</text>
<polygon fill="none" stroke="black" points="458.36,-1956.8 458.36,-1987.6 778.16,-1987.6 778.16,-1956.8 458.36,-1956.8"/>
<text text-anchor="start" x="465.36" y="-1969" font-family="Arial" font-size="14.00">sitegeopoliticalid </text>
<text text-anchor="start" x="571.98" y="-1969" font-family="Arial" font-size="14.00" fill="#666666">[integer]</text>
<polygon fill="none" stroke="black" points="458.36,-1926 458.36,-1956.8 778.16,-1956.8 778.16,-1926 458.36,-1926"/>
<text text-anchor="start" x="465.36" y="-1938.2" font-family="Arial" font-size="14.00">siteid </text>
<text text-anchor="start" x="501.94" y="-1938.2" font-family="Arial" font-size="14.00" fill="#666666">[integer]</text>
</g>
<!-- ndb.sitegeopolitical&#45;&gt;ndb.geopoliticalunits -->
<g id="edge2" class="edge">
<title>ndb.sitegeopolitical:geopoliticalid&#45;&gt;ndb.geopoliticalunits:geopoliticalid</title>
<path fill="none" stroke="black" d="M447.38,-2092.63C345.2,-2032.04 506.76,-998 388.16,-998"/>
<polygon fill="black" stroke="black" points="447.41,-2092.64 455.84,-2099.65 452.55,-2094.06 456.72,-2095.22 456.72,-2095.22 456.72,-2095.22 452.55,-2094.06 458.24,-2090.97 447.41,-2092.64"/>
<text text-anchor="start" x="464.36" y="-2105.4" font-family="Arial" font-size="10.00">FOREIGN KEY (geopoliticalid) REFERENCES ndb.geopoliticalunits(geopoliticalid)</text>
</g>
<!-- ap.gadm -->
<g id="node4" class="node">
<title>ap.gadm</title>
<polygon fill="#efefef" stroke="none" points="494.92,-1768 494.92,-1803.6 741.6,-1803.6 741.6,-1768 494.92,-1768"/>
<polygon fill="none" stroke="black" points="494.92,-1768 494.92,-1803.6 741.6,-1803.6 741.6,-1768 494.92,-1768"/>
<text text-anchor="start" x="525.28" y="-1781.4" font-family="Arial Bold" font-size="18.00">ap.gadm</text>
<text text-anchor="start" x="586.76" y="-1781.4" font-family="Arial" font-size="14.00">    </text>
<text text-anchor="start" x="617.88" y="-1781.4" font-family="Arial" font-size="14.00" fill="#666666">[BASE TABLE]</text>
<polygon fill="none" stroke="black" points="494.92,-1737.2 494.92,-1768 741.6,-1768 741.6,-1737.2 494.92,-1737.2"/>
<text text-anchor="start" x="501.92" y="-1749.4" font-family="Arial" font-size="14.00">cc_1 </text>
<text text-anchor="start" x="535.38" y="-1749.4" font-family="Arial" font-size="14.00" fill="#666666">[varchar(9)]</text>
<polygon fill="none" stroke="black" points="494.92,-1706.4 494.92,-1737.2 741.6,-1737.2 741.6,-1706.4 494.92,-1706.4"/>
<text text-anchor="start" x="501.92" y="-1718.6" font-family="Arial" font-size="14.00">cc_2 </text>
<text text-anchor="start" x="535.38" y="-1718.6" font-family="Arial" font-size="14.00" fill="#666666">[varchar(12)]</text>
<polygon fill="none" stroke="black" points="494.92,-1675.6 494.92,-1706.4 741.6,-1706.4 741.6,-1675.6 494.92,-1675.6"/>
<text text-anchor="start" x="501.92" y="-1687.8" font-family="Arial" font-size="14.00">cc_3 </text>
<text text-anchor="start" x="535.38" y="-1687.8" font-family="Arial" font-size="14.00" fill="#666666">[varchar(9)]</text>
<polygon fill="none" stroke="black" points="494.92,-1644.8 494.92,-1675.6 741.6,-1675.6 741.6,-1644.8 494.92,-1644.8"/>
<text text-anchor="start" x="501.92" y="-1657" font-family="Arial" font-size="14.00">cc_4 </text>
<text text-anchor="start" x="535.38" y="-1657" font-family="Arial" font-size="14.00" fill="#666666">[varchar(12)]</text>
<polygon fill="none" stroke="black" points="494.92,-1614 494.92,-1644.8 741.6,-1644.8 741.6,-1614 494.92,-1614"/>
<text text-anchor="start" x="501.92" y="-1626.2" font-family="Arial" font-size="14.00">cc_5 </text>
<text text-anchor="start" x="535.38" y="-1626.2" font-family="Arial" font-size="14.00" fill="#666666">[varchar(15)]</text>
<polygon fill="none" stroke="black" points="494.92,-1583.2 494.92,-1614 741.6,-1614 741.6,-1583.2 494.92,-1583.2"/>
<text text-anchor="start" x="501.92" y="-1595.4" font-family="Arial" font-size="14.00">continent </text>
<text text-anchor="start" x="562.63" y="-1595.4" font-family="Arial" font-size="14.00" fill="#666666">[varchar(15)]</text>
<polygon fill="none" stroke="black" points="494.92,-1552.4 494.92,-1583.2 741.6,-1583.2 741.6,-1552.4 494.92,-1552.4"/>
<text text-anchor="start" x="501.92" y="-1564.6" font-family="Arial" font-size="14.00">country </text>
<text text-anchor="start" x="551.72" y="-1564.6" font-family="Arial" font-size="14.00" fill="#666666">[varchar(60)]</text>
<polygon fill="none" stroke="black" points="494.92,-1521.6 494.92,-1552.4 741.6,-1552.4 741.6,-1521.6 494.92,-1521.6"/>
<text text-anchor="start" x="501.92" y="-1533.8" font-family="Arial" font-size="14.00">disputedby </text>
<text text-anchor="start" x="573.53" y="-1533.8" font-family="Arial" font-size="14.00" fill="#666666">[varchar(57)]</text>
<polygon fill="none" stroke="black" points="494.92,-1490.8 494.92,-1521.6 741.6,-1521.6 741.6,-1490.8 494.92,-1490.8"/>
<text text-anchor="start" x="501.92" y="-1503" font-family="Arial" font-size="14.00">engtype_1 </text>
<text text-anchor="start" x="571.2" y="-1503" font-family="Arial" font-size="14.00" fill="#666666">[varchar(37)]</text>
<polygon fill="none" stroke="black" points="494.92,-1460 494.92,-1490.8 741.6,-1490.8 741.6,-1460 494.92,-1460"/>
<text text-anchor="start" x="501.92" y="-1472.2" font-family="Arial" font-size="14.00">engtype_2 </text>
<text text-anchor="start" x="571.2" y="-1472.2" font-family="Arial" font-size="14.00" fill="#666666">[varchar(34)]</text>
<polygon fill="none" stroke="black" points="494.92,-1429.2 494.92,-1460 741.6,-1460 741.6,-1429.2 494.92,-1429.2"/>
<text text-anchor="start" x="501.92" y="-1441.4" font-family="Arial" font-size="14.00">engtype_3 </text>
<text text-anchor="start" x="571.2" y="-1441.4" font-family="Arial" font-size="14.00" fill="#666666">[varchar(34)]</text>
<polygon fill="none" stroke="black" points="494.92,-1398.4 494.92,-1429.2 741.6,-1429.2 741.6,-1398.4 494.92,-1398.4"/>
<text text-anchor="start" x="501.92" y="-1410.6" font-family="Arial" font-size="14.00">engtype_4 </text>
<text text-anchor="start" x="571.2" y="-1410.6" font-family="Arial" font-size="14.00" fill="#666666">[varchar(29)]</text>
<polygon fill="none" stroke="black" points="494.92,-1367.6 494.92,-1398.4 741.6,-1398.4 741.6,-1367.6 494.92,-1367.6"/>
<text text-anchor="start" x="501.92" y="-1379.8" font-family="Arial" font-size="14.00">engtype_5 </text>
<text text-anchor="start" x="571.2" y="-1379.8" font-family="Arial" font-size="14.00" fill="#666666">[varchar(255)]</text>
<polygon fill="none" stroke="black" points="494.92,-1336.8 494.92,-1367.6 741.6,-1367.6 741.6,-1336.8 494.92,-1336.8"/>
<text text-anchor="start" x="501.92" y="-1349" font-family="Arial" font-size="14.00">gid_0 </text>
<text text-anchor="start" x="540.07" y="-1349" font-family="Arial" font-size="14.00" fill="#666666">[varchar(3)]</text>
<polygon fill="none" stroke="black" points="494.92,-1306 494.92,-1336.8 741.6,-1336.8 741.6,-1306 494.92,-1306"/>
<text text-anchor="start" x="501.92" y="-1318.2" font-family="Arial" font-size="14.00">gid_1 </text>
<text text-anchor="start" x="540.07" y="-1318.2" font-family="Arial" font-size="14.00" fill="#666666">[varchar(8)]</text>
<polygon fill="none" stroke="black" points="494.92,-1275.2 494.92,-1306 741.6,-1306 741.6,-1275.2 494.92,-1275.2"/>
<text text-anchor="start" x="501.92" y="-1287.4" font-family="Arial" font-size="14.00">gid_2 </text>
<text text-anchor="start" x="540.07" y="-1287.4" font-family="Arial" font-size="14.00" fill="#666666">[varchar(12)]</text>
<polygon fill="none" stroke="black" points="494.92,-1244.4 494.92,-1275.2 741.6,-1275.2 741.6,-1244.4 494.92,-1244.4"/>
<text text-anchor="start" x="501.92" y="-1256.6" font-family="Arial" font-size="14.00">gid_3 </text>
<text text-anchor="start" x="540.07" y="-1256.6" font-family="Arial" font-size="14.00" fill="#666666">[varchar(15)]</text>
<polygon fill="none" stroke="black" points="494.92,-1213.6 494.92,-1244.4 741.6,-1244.4 741.6,-1213.6 494.92,-1213.6"/>
<text text-anchor="start" x="501.92" y="-1225.8" font-family="Arial" font-size="14.00">gid_4 </text>
<text text-anchor="start" x="540.07" y="-1225.8" font-family="Arial" font-size="14.00" fill="#666666">[varchar(18)]</text>
<polygon fill="none" stroke="black" points="494.92,-1182.8 494.92,-1213.6 741.6,-1213.6 741.6,-1182.8 494.92,-1182.8"/>
<text text-anchor="start" x="501.92" y="-1195" font-family="Arial" font-size="14.00">gid_5 </text>
<text text-anchor="start" x="540.07" y="-1195" font-family="Arial" font-size="14.00" fill="#666666">[varchar(19)]</text>
<polygon fill="none" stroke="black" points="494.92,-1152 494.92,-1182.8 741.6,-1182.8 741.6,-1152 494.92,-1152"/>
<text text-anchor="start" x="501.92" y="-1164.2" font-family="Arial" font-size="14.00">governedby </text>
<text text-anchor="start" x="578.98" y="-1164.2" font-family="Arial" font-size="14.00" fill="#666666">[varchar(17)]</text>
<polygon fill="none" stroke="black" points="494.92,-1121.2 494.92,-1152 741.6,-1152 741.6,-1121.2 494.92,-1121.2"/>
<text text-anchor="start" x="501.92" y="-1133.4" font-family="Arial" font-size="14.00">hasc_1 </text>
<text text-anchor="start" x="550.96" y="-1133.4" font-family="Arial" font-size="14.00" fill="#666666">[varchar(10)]</text>
<polygon fill="none" stroke="black" points="494.92,-1090.4 494.92,-1121.2 741.6,-1121.2 741.6,-1090.4 494.92,-1090.4"/>
<text text-anchor="start" x="501.92" y="-1102.6" font-family="Arial" font-size="14.00">hasc_2 </text>
<text text-anchor="start" x="550.96" y="-1102.6" font-family="Arial" font-size="14.00" fill="#666666">[varchar(15)]</text>
<polygon fill="none" stroke="black" points="494.92,-1059.6 494.92,-1090.4 741.6,-1090.4 741.6,-1059.6 494.92,-1059.6"/>
<text text-anchor="start" x="501.92" y="-1071.8" font-family="Arial" font-size="14.00">hasc_3 </text>
<text text-anchor="start" x="550.96" y="-1071.8" font-family="Arial" font-size="14.00" fill="#666666">[varchar(27)]</text>
<polygon fill="none" stroke="black" points="494.92,-1028.8 494.92,-1059.6 741.6,-1059.6 741.6,-1028.8 494.92,-1028.8"/>
<text text-anchor="start" x="501.92" y="-1041" font-family="Arial" font-size="14.00">iso_1 </text>
<text text-anchor="start" x="539.28" y="-1041" font-family="Arial" font-size="14.00" fill="#666666">[varchar(8)]</text>
<polygon fill="none" stroke="black" points="494.92,-998 494.92,-1028.8 741.6,-1028.8 741.6,-998 494.92,-998"/>
<text text-anchor="start" x="501.92" y="-1010.2" font-family="Arial" font-size="14.00">name_0 </text>
<text text-anchor="start" x="556.4" y="-1010.2" font-family="Arial" font-size="14.00" fill="#666666">[varchar(44)]</text>
<polygon fill="none" stroke="black" points="494.92,-967.2 494.92,-998 741.6,-998 741.6,-967.2 494.92,-967.2"/>
<text text-anchor="start" x="501.92" y="-979.4" font-family="Arial" font-size="14.00">name_1 </text>
<text text-anchor="start" x="556.4" y="-979.4" font-family="Arial" font-size="14.00" fill="#666666">[varchar(50)]</text>
<polygon fill="none" stroke="black" points="494.92,-936.4 494.92,-967.2 741.6,-967.2 741.6,-936.4 494.92,-936.4"/>
<text text-anchor="start" x="501.92" y="-948.6" font-family="Arial" font-size="14.00">name_2 </text>
<text text-anchor="start" x="556.4" y="-948.6" font-family="Arial" font-size="14.00" fill="#666666">[varchar(51)]</text>
<polygon fill="none" stroke="black" points="494.92,-905.6 494.92,-936.4 741.6,-936.4 741.6,-905.6 494.92,-905.6"/>
<text text-anchor="start" x="501.92" y="-917.8" font-family="Arial" font-size="14.00">name_3 </text>
<text text-anchor="start" x="556.4" y="-917.8" font-family="Arial" font-size="14.00" fill="#666666">[varchar(64)]</text>
<polygon fill="none" stroke="black" points="494.92,-874.8 494.92,-905.6 741.6,-905.6 741.6,-874.8 494.92,-874.8"/>
<text text-anchor="start" x="501.92" y="-887" font-family="Arial" font-size="14.00">name_4 </text>
<text text-anchor="start" x="556.4" y="-887" font-family="Arial" font-size="14.00" fill="#666666">[varchar(98)]</text>
<polygon fill="none" stroke="black" points="494.92,-844 494.92,-874.8 741.6,-874.8 741.6,-844 494.92,-844"/>
<text text-anchor="start" x="501.92" y="-856.2" font-family="Arial" font-size="14.00">name_5 </text>
<text text-anchor="start" x="556.4" y="-856.2" font-family="Arial" font-size="14.00" fill="#666666">[varchar(45)]</text>
<polygon fill="none" stroke="black" points="494.92,-813.2 494.92,-844 741.6,-844 741.6,-813.2 494.92,-813.2"/>
<text text-anchor="start" x="501.92" y="-825.4" font-family="Arial" font-size="14.00">nl_name_1 </text>
<text text-anchor="start" x="575.09" y="-825.4" font-family="Arial" font-size="14.00" fill="#666666">[varchar(87)]</text>
<polygon fill="none" stroke="black" points="494.92,-782.4 494.92,-813.2 741.6,-813.2 741.6,-782.4 494.92,-782.4"/>
<text text-anchor="start" x="501.92" y="-794.6" font-family="Arial" font-size="14.00">nl_name_2 </text>
<text text-anchor="start" x="575.09" y="-794.6" font-family="Arial" font-size="14.00" fill="#666666">[varchar(75)]</text>
<polygon fill="none" stroke="black" points="494.92,-751.6 494.92,-782.4 741.6,-782.4 741.6,-751.6 494.92,-751.6"/>
<text text-anchor="start" x="501.92" y="-763.8" font-family="Arial" font-size="14.00">nl_name_3 </text>
<text text-anchor="start" x="575.09" y="-763.8" font-family="Arial" font-size="14.00" fill="#666666">[varchar(56)]</text>
<polygon fill="none" stroke="black" points="494.92,-720.8 494.92,-751.6 741.6,-751.6 741.6,-720.8 494.92,-720.8"/>
<text text-anchor="start" x="501.92" y="-733" font-family="Arial" font-size="14.00">objectid </text>
<text text-anchor="start" x="554.07" y="-733" font-family="Arial" font-size="14.00" fill="#666666">[integer]</text>
<polygon fill="none" stroke="black" points="494.92,-690 494.92,-720.8 741.6,-720.8 741.6,-690 494.92,-690"/>
<text text-anchor="start" x="501.92" y="-702.2" font-family="Arial" font-size="14.00">region </text>
<text text-anchor="start" x="544.73" y="-702.2" font-family="Arial" font-size="14.00" fill="#666666">[varchar(36)]</text>
<polygon fill="none" stroke="black" points="494.92,-659.2 494.92,-690 741.6,-690 741.6,-659.2 494.92,-659.2"/>
<text text-anchor="start" x="501.92" y="-671.4" font-family="Arial" font-size="14.00">shape </text>
<text text-anchor="start" x="543.96" y="-671.4" font-family="Arial" font-size="14.00" fill="#666666">[geometry(MultiPolygon,4326)]</text>
<polygon fill="none" stroke="black" points="494.92,-628.4 494.92,-659.2 741.6,-659.2 741.6,-628.4 494.92,-628.4"/>
<text text-anchor="start" x="501.92" y="-640.6" font-family="Arial" font-size="14.00">shape_area </text>
<text text-anchor="start" x="579.76" y="-640.6" font-family="Arial" font-size="14.00" fill="#666666">[double precision]</text>
<polygon fill="none" stroke="black" points="494.92,-597.6 494.92,-628.4 741.6,-628.4 741.6,-597.6 494.92,-597.6"/>
<text text-anchor="start" x="501.92" y="-609.8" font-family="Arial" font-size="14.00">shape_length </text>
<text text-anchor="start" x="589.89" y="-609.8" font-family="Arial" font-size="14.00" fill="#666666">[double precision]</text>
<polygon fill="none" stroke="black" points="494.92,-566.8 494.92,-597.6 741.6,-597.6 741.6,-566.8 494.92,-566.8"/>
<text text-anchor="start" x="501.92" y="-579" font-family="Arial" font-size="14.00">sovereign </text>
<text text-anchor="start" x="566.52" y="-579" font-family="Arial" font-size="14.00" fill="#666666">[varchar(32)]</text>
<polygon fill="none" stroke="black" points="494.92,-536 494.92,-566.8 741.6,-566.8 741.6,-536 494.92,-536"/>
<text text-anchor="start" x="501.92" y="-548.2" font-family="Arial" font-size="14.00">subcont </text>
<text text-anchor="start" x="554.85" y="-548.2" font-family="Arial" font-size="14.00" fill="#666666">[varchar(25)]</text>
<polygon fill="none" stroke="black" points="494.92,-505.2 494.92,-536 741.6,-536 741.6,-505.2 494.92,-505.2"/>
<text text-anchor="start" x="501.92" y="-517.4" font-family="Arial" font-size="14.00">type_1 </text>
<text text-anchor="start" x="547.85" y="-517.4" font-family="Arial" font-size="14.00" fill="#666666">[varchar(37)]</text>
<polygon fill="none" stroke="black" points="494.92,-474.4 494.92,-505.2 741.6,-505.2 741.6,-474.4 494.92,-474.4"/>
<text text-anchor="start" x="501.92" y="-486.6" font-family="Arial" font-size="14.00">type_2 </text>
<text text-anchor="start" x="547.85" y="-486.6" font-family="Arial" font-size="14.00" fill="#666666">[varchar(43)]</text>
<polygon fill="none" stroke="black" points="494.92,-443.6 494.92,-474.4 741.6,-474.4 741.6,-443.6 494.92,-443.6"/>
<text text-anchor="start" x="501.92" y="-455.8" font-family="Arial" font-size="14.00">type_3 </text>
<text text-anchor="start" x="547.85" y="-455.8" font-family="Arial" font-size="14.00" fill="#666666">[varchar(34)]</text>
<polygon fill="none" stroke="black" points="494.92,-412.8 494.92,-443.6 741.6,-443.6 741.6,-412.8 494.92,-412.8"/>
<text text-anchor="start" x="501.92" y="-425" font-family="Arial" font-size="14.00">type_4 </text>
<text text-anchor="start" x="547.85" y="-425" font-family="Arial" font-size="14.00" fill="#666666">[varchar(29)]</text>
<polygon fill="none" stroke="black" points="494.92,-382 494.92,-412.8 741.6,-412.8 741.6,-382 494.92,-382"/>
<text text-anchor="start" x="501.92" y="-394.2" font-family="Arial" font-size="14.00">type_5 </text>
<text text-anchor="start" x="547.85" y="-394.2" font-family="Arial" font-size="14.00" fill="#666666">[varchar(22)]</text>
<polygon fill="none" stroke="black" points="494.92,-351.2 494.92,-382 741.6,-382 741.6,-351.2 494.92,-351.2"/>
<text text-anchor="start" x="501.92" y="-363.4" font-family="Arial" font-size="14.00">uid </text>
<text text-anchor="start" x="524.49" y="-363.4" font-family="Arial" font-size="14.00" fill="#666666">[integer]</text>
<polygon fill="none" stroke="black" points="494.92,-320.4 494.92,-351.2 741.6,-351.2 741.6,-320.4 494.92,-320.4"/>
<text text-anchor="start" x="501.92" y="-332.6" font-family="Arial" font-size="14.00">validfr_1 </text>
<text text-anchor="start" x="558.73" y="-332.6" font-family="Arial" font-size="14.00" fill="#666666">[varchar(15)]</text>
<polygon fill="none" stroke="black" points="494.92,-289.6 494.92,-320.4 741.6,-320.4 741.6,-289.6 494.92,-289.6"/>
<text text-anchor="start" x="501.92" y="-301.8" font-family="Arial" font-size="14.00">validfr_2 </text>
<text text-anchor="start" x="558.73" y="-301.8" font-family="Arial" font-size="14.00" fill="#666666">[varchar(15)]</text>
<polygon fill="none" stroke="black" points="494.92,-258.8 494.92,-289.6 741.6,-289.6 741.6,-258.8 494.92,-258.8"/>
<text text-anchor="start" x="501.92" y="-271" font-family="Arial" font-size="14.00">validfr_3 </text>
<text text-anchor="start" x="558.73" y="-271" font-family="Arial" font-size="14.00" fill="#666666">[varchar(10)]</text>
<polygon fill="none" stroke="black" points="494.92,-228 494.92,-258.8 741.6,-258.8 741.6,-228 494.92,-228"/>
<text text-anchor="start" x="501.92" y="-240.2" font-family="Arial" font-size="14.00">validfr_4 </text>
<text text-anchor="start" x="558.73" y="-240.2" font-family="Arial" font-size="14.00" fill="#666666">[varchar(7)]</text>
<polygon fill="none" stroke="black" points="494.92,-197.2 494.92,-228 741.6,-228 741.6,-197.2 494.92,-197.2"/>
<text text-anchor="start" x="501.92" y="-209.4" font-family="Arial" font-size="14.00">varname_0 </text>
<text text-anchor="start" x="575.85" y="-209.4" font-family="Arial" font-size="14.00" fill="#666666">[varchar(29)]</text>
<polygon fill="none" stroke="black" points="494.92,-166.4 494.92,-197.2 741.6,-197.2 741.6,-166.4 494.92,-166.4"/>
<text text-anchor="start" x="501.92" y="-178.6" font-family="Arial" font-size="14.00">varname_1 </text>
<text text-anchor="start" x="575.85" y="-178.6" font-family="Arial" font-size="14.00" fill="#666666">[varchar(129)]</text>
<polygon fill="none" stroke="black" points="494.92,-135.6 494.92,-166.4 741.6,-166.4 741.6,-135.6 494.92,-135.6"/>
<text text-anchor="start" x="501.92" y="-147.8" font-family="Arial" font-size="14.00">varname_2 </text>
<text text-anchor="start" x="575.85" y="-147.8" font-family="Arial" font-size="14.00" fill="#666666">[varchar(116)]</text>
<polygon fill="none" stroke="black" points="494.92,-104.8 494.92,-135.6 741.6,-135.6 741.6,-104.8 494.92,-104.8"/>
<text text-anchor="start" x="501.92" y="-117" font-family="Arial" font-size="14.00">varname_3 </text>
<text text-anchor="start" x="575.85" y="-117" font-family="Arial" font-size="14.00" fill="#666666">[varchar(54)]</text>
<polygon fill="none" stroke="black" points="494.92,-74 494.92,-104.8 741.6,-104.8 741.6,-74 494.92,-74"/>
<text text-anchor="start" x="501.92" y="-86.2" font-family="Arial" font-size="14.00">varname_4 </text>
<text text-anchor="start" x="575.85" y="-86.2" font-family="Arial" font-size="14.00" fill="#666666">[varchar(54)]</text>
<polygon fill="none" stroke="black" points="494.92,-43.2 494.92,-74 741.6,-74 741.6,-43.2 494.92,-43.2"/>
<text text-anchor="start" x="501.92" y="-55.4" font-family="Arial" font-size="14.00">varregion </text>
<text text-anchor="start" x="564.18" y="-55.4" font-family="Arial" font-size="14.00" fill="#666666">[varchar(56)]</text>
</g>
<!-- ndb.sitegeopolitical&#45;&gt;ap.gadm -->
<g id="edge3" class="edge">
<title>ndb.sitegeopolitical:objectid&#45;&gt;ap.gadm:objectid</title>
<path fill="none" stroke="black" d="M781.56,-2054.67C793.95,-1933.11 760.12,-736.2 742.6,-736.2"/>
<polygon fill="black" stroke="black" points="781.59,-2054.55 774.87,-2063.22 780.34,-2059.74 779.32,-2063.95 779.32,-2063.95 779.32,-2063.95 780.34,-2059.74 783.62,-2065.33 781.59,-2054.55"/>
<text text-anchor="start" x="786.16" y="-2074.6" font-family="Arial" font-size="10.00">FOREIGN KEY (objectid) REFERENCES ap.gadm(objectid)</text>
</g>
<!-- ndb.sites -->
<g id="node5" class="node">
<title>ndb.sites</title>
<polygon fill="#efefef" stroke="none" points="846.36,-1105.8 846.36,-1141.4 1166.16,-1141.4 1166.16,-1105.8 846.36,-1105.8"/>
<polygon fill="none" stroke="black" points="846.36,-1105.8 846.36,-1141.4 1166.16,-1141.4 1166.16,-1105.8 846.36,-1105.8"/>
<text text-anchor="start" x="912.27" y="-1119.2" font-family="Arial Bold" font-size="18.00">ndb.sites</text>
<text text-anchor="start" x="975.77" y="-1119.2" font-family="Arial" font-size="14.00">    </text>
<text text-anchor="start" x="1006.89" y="-1119.2" font-family="Arial" font-size="14.00" fill="#666666">[BASE TABLE]</text>
<polygon fill="none" stroke="black" points="846.36,-1075 846.36,-1105.8 1166.16,-1105.8 1166.16,-1075 846.36,-1075"/>
<text text-anchor="start" x="853.36" y="-1087.2" font-family="Arial" font-size="14.00">altitude </text>
<text text-anchor="start" x="902.4" y="-1087.2" font-family="Arial" font-size="14.00" fill="#666666">[double precision]</text>
<polygon fill="none" stroke="black" points="846.36,-1044.2 846.36,-1075 1166.16,-1075 1166.16,-1044.2 846.36,-1044.2"/>
<text text-anchor="start" x="853.36" y="-1056.4" font-family="Arial" font-size="14.00">area </text>
<text text-anchor="start" x="885.27" y="-1056.4" font-family="Arial" font-size="14.00" fill="#666666">[double precision]</text>
<polygon fill="none" stroke="black" points="846.36,-1013.4 846.36,-1044.2 1166.16,-1044.2 1166.16,-1013.4 846.36,-1013.4"/>
<text text-anchor="start" x="853.36" y="-1025.6" font-family="Arial" font-size="14.00">geog </text>
<text text-anchor="start" x="888.4" y="-1025.6" font-family="Arial" font-size="14.00" fill="#666666">[geography]</text>
<polygon fill="none" stroke="black" points="846.36,-982.6 846.36,-1013.4 1166.16,-1013.4 1166.16,-982.6 846.36,-982.6"/>
<text text-anchor="start" x="853.36" y="-994.8" font-family="Arial" font-size="14.00">latitudenorth </text>
<text text-anchor="start" x="934.31" y="-994.8" font-family="Arial" font-size="14.00" fill="#666666">[double precision]</text>
<polygon fill="none" stroke="black" points="846.36,-951.8 846.36,-982.6 1166.16,-982.6 1166.16,-951.8 846.36,-951.8"/>
<text text-anchor="start" x="853.36" y="-964" font-family="Arial" font-size="14.00">latitudesouth </text>
<text text-anchor="start" x="936.65" y="-964" font-family="Arial" font-size="14.00" fill="#666666">[double precision]</text>
<polygon fill="none" stroke="black" points="846.36,-921 846.36,-951.8 1166.16,-951.8 1166.16,-921 846.36,-921"/>
<text text-anchor="start" x="853.36" y="-933.2" font-family="Arial" font-size="14.00">longitudeeast </text>
<text text-anchor="start" x="940.54" y="-933.2" font-family="Arial" font-size="14.00" fill="#666666">[double precision]</text>
<polygon fill="none" stroke="black" points="846.36,-890.2 846.36,-921 1166.16,-921 1166.16,-890.2 846.36,-890.2"/>
<text text-anchor="start" x="853.36" y="-902.4" font-family="Arial" font-size="14.00">longitudewest </text>
<text text-anchor="start" x="942.87" y="-902.4" font-family="Arial" font-size="14.00" fill="#666666">[double precision]</text>
<polygon fill="none" stroke="black" points="846.36,-859.4 846.36,-890.2 1166.16,-890.2 1166.16,-859.4 846.36,-859.4"/>
<text text-anchor="start" x="853.36" y="-871.6" font-family="Arial" font-size="14.00">notes </text>
<text text-anchor="start" x="891.5" y="-871.6" font-family="Arial" font-size="14.00" fill="#666666">[text]</text>
<polygon fill="none" stroke="black" points="846.36,-828.6 846.36,-859.4 1166.16,-859.4 1166.16,-828.6 846.36,-828.6"/>
<text text-anchor="start" x="853.36" y="-840.8" font-family="Arial" font-size="14.00">recdatecreated </text>
<text text-anchor="start" x="950.65" y="-840.8" font-family="Arial" font-size="14.00" fill="#666666">[timestamp(0) without time zone]</text>
<polygon fill="none" stroke="black" points="846.36,-797.8 846.36,-828.6 1166.16,-828.6 1166.16,-797.8 846.36,-797.8"/>
<text text-anchor="start" x="853.36" y="-810" font-family="Arial" font-size="14.00">recdatemodified </text>
<text text-anchor="start" x="956.87" y="-810" font-family="Arial" font-size="14.00" fill="#666666">[timestamp(0) without time zone]</text>
<polygon fill="none" stroke="black" points="846.36,-767 846.36,-797.8 1166.16,-797.8 1166.16,-767 846.36,-767"/>
<text text-anchor="start" x="853.36" y="-779.2" font-family="Arial" font-size="14.00">sitedescription </text>
<text text-anchor="start" x="946.74" y="-779.2" font-family="Arial" font-size="14.00" fill="#666666">[text]</text>
<polygon fill="none" stroke="black" points="846.36,-736.2 846.36,-767 1166.16,-767 1166.16,-736.2 846.36,-736.2"/>
<text text-anchor="start" x="853.36" y="-748.4" font-family="Arial" font-size="14.00">siteid </text>
<text text-anchor="start" x="889.94" y="-748.4" font-family="Arial" font-size="14.00" fill="#666666">[integer]</text>
<polygon fill="none" stroke="black" points="846.36,-705.4 846.36,-736.2 1166.16,-736.2 1166.16,-705.4 846.36,-705.4"/>
<text text-anchor="start" x="853.36" y="-717.6" font-family="Arial" font-size="14.00">sitename </text>
<text text-anchor="start" x="914.06" y="-717.6" font-family="Arial" font-size="14.00" fill="#666666">[varchar(128)]</text>
</g>
<!-- ndb.sitegeopolitical&#45;&gt;ndb.sites -->
<g id="edge4" class="edge">
<title>ndb.sitegeopolitical:siteid&#45;&gt;ndb.sites:siteid</title>
<path fill="none" stroke="black" d="M788.96,-1938.96C901.32,-1879.48 716.45,-751.6 845.36,-751.6"/>
<polygon fill="black" stroke="black" points="789.19,-1938.9 778.4,-1936.95 784.01,-1940.19 779.81,-1941.24 779.81,-1941.24 779.81,-1941.24 784.01,-1940.19 780.57,-1945.69 789.19,-1938.9"/>
<text text-anchor="start" x="786.16" y="-1951.4" font-family="Arial" font-size="10.00">FOREIGN KEY (siteid) REFERENCES ndb.sites(siteid) ON UPDATE CASCADE ON DELETE CASCADE</text>
</g>
</g>
</svg>
