<?xml version="1.0" encoding="UTF-8" standalone="no"?>
<!DOCTYPE svg PUBLIC "-//W3C//DTD SVG 1.1//EN"
 "http://www.w3.org/Graphics/SVG/1.1/DTD/svg11.dtd">
<!-- Generated by graphviz version 12.1.2 (20240928.0832)
 -->
<!-- Title: ndb.aggregatechronologies Pages: 1 -->
<svg width="2897pt" height="1528pt"
 viewBox="0.00 0.00 2896.92 1528.00" xmlns="http://www.w3.org/2000/svg" xmlns:xlink="http://www.w3.org/1999/xlink">
<g id="graph0" class="graph" transform="scale(1 1) rotate(0) translate(4 1524)">
<title>ndb.aggregatechronologies</title>
<polygon fill="white" stroke="none" points="-4,4 -4,-1524 2892.92,-1524 2892.92,4 -4,4"/>
<!-- ndb.aggregatechronologies -->
<g id="node1" class="node">
<title>ndb.aggregatechronologies</title>
<polygon fill="#efefef" stroke="none" points="1318.64,-1067.6 1318.64,-1103.2 1651.56,-1103.2 1651.56,-1067.6 1318.64,-1067.6"/>
<polygon fill="none" stroke="black" points="1318.64,-1067.6 1318.64,-1103.2 1651.56,-1103.2 1651.56,-1067.6 1318.64,-1067.6"/>
<text text-anchor="start" x="1325.64" y="-1081" font-family="Arial Bold" font-size="18.00">ndb.aggregatechronologies</text>
<text text-anchor="start" x="1520.07" y="-1081" font-family="Arial" font-size="14.00">    </text>
<text text-anchor="start" x="1551.19" y="-1081" font-family="Arial" font-size="14.00" fill="#666666">[BASE TABLE]</text>
<polygon fill="none" stroke="black" points="1318.64,-1036.8 1318.64,-1067.6 1651.56,-1067.6 1651.56,-1036.8 1318.64,-1036.8"/>
<text text-anchor="start" x="1325.64" y="-1049" font-family="Arial" font-size="14.00">ageboundolder </text>
<text text-anchor="start" x="1422.95" y="-1049" font-family="Arial" font-size="14.00" fill="#666666">[integer]</text>
<polygon fill="none" stroke="black" points="1318.64,-1006 1318.64,-1036.8 1651.56,-1036.8 1651.56,-1006 1318.64,-1006"/>
<text text-anchor="start" x="1325.64" y="-1018.2" font-family="Arial" font-size="14.00">ageboundyounger </text>
<text text-anchor="start" x="1442.41" y="-1018.2" font-family="Arial" font-size="14.00" fill="#666666">[integer]</text>
<polygon fill="none" stroke="black" points="1318.64,-975.2 1318.64,-1006 1651.56,-1006 1651.56,-975.2 1318.64,-975.2"/>
<text text-anchor="start" x="1325.64" y="-987.4" font-family="Arial" font-size="14.00">agetypeid </text>
<text text-anchor="start" x="1390.25" y="-987.4" font-family="Arial" font-size="14.00" fill="#666666">[integer]</text>
<polygon fill="none" stroke="black" points="1318.64,-944.4 1318.64,-975.2 1651.56,-975.2 1651.56,-944.4 1318.64,-944.4"/>
<text text-anchor="start" x="1325.64" y="-956.6" font-family="Arial" font-size="14.00">aggregatechronid </text>
<text text-anchor="start" x="1438.5" y="-956.6" font-family="Arial" font-size="14.00" fill="#666666">[integer]</text>
<polygon fill="none" stroke="black" points="1318.64,-913.6 1318.64,-944.4 1651.56,-944.4 1651.56,-913.6 1318.64,-913.6"/>
<text text-anchor="start" x="1325.64" y="-925.8" font-family="Arial" font-size="14.00">aggregatedatasetid </text>
<text text-anchor="start" x="1449.4" y="-925.8" font-family="Arial" font-size="14.00" fill="#666666">[integer]</text>
<polygon fill="none" stroke="black" points="1318.64,-882.8 1318.64,-913.6 1651.56,-913.6 1651.56,-882.8 1318.64,-882.8"/>
<text text-anchor="start" x="1325.64" y="-895" font-family="Arial" font-size="14.00">chronologyname </text>
<text text-anchor="start" x="1433.04" y="-895" font-family="Arial" font-size="14.00" fill="#666666">[varchar(80)]</text>
<polygon fill="none" stroke="black" points="1318.64,-852 1318.64,-882.8 1651.56,-882.8 1651.56,-852 1318.64,-852"/>
<text text-anchor="start" x="1325.64" y="-864.2" font-family="Arial" font-size="14.00">isdefault </text>
<text text-anchor="start" x="1381.67" y="-864.2" font-family="Arial" font-size="14.00" fill="#666666">[boolean]</text>
<polygon fill="none" stroke="black" points="1318.64,-821.2 1318.64,-852 1651.56,-852 1651.56,-821.2 1318.64,-821.2"/>
<text text-anchor="start" x="1325.64" y="-833.4" font-family="Arial" font-size="14.00">notes </text>
<text text-anchor="start" x="1363.78" y="-833.4" font-family="Arial" font-size="14.00" fill="#666666">[text]</text>
<polygon fill="none" stroke="black" points="1318.64,-790.4 1318.64,-821.2 1651.56,-821.2 1651.56,-790.4 1318.64,-790.4"/>
<text text-anchor="start" x="1325.64" y="-802.6" font-family="Arial" font-size="14.00">recdatecreated </text>
<text text-anchor="start" x="1422.92" y="-802.6" font-family="Arial" font-size="14.00" fill="#666666">[timestamp(0) without time zone]</text>
<polygon fill="none" stroke="black" points="1318.64,-759.6 1318.64,-790.4 1651.56,-790.4 1651.56,-759.6 1318.64,-759.6"/>
<text text-anchor="start" x="1325.64" y="-771.8" font-family="Arial" font-size="14.00">recdatemodified </text>
<text text-anchor="start" x="1429.14" y="-771.8" font-family="Arial" font-size="14.00" fill="#666666">[timestamp(0) without time zone]</text>
<polygon fill="none" stroke="black" stroke-width="3" points="1317.14,-758.1 1317.14,-1104.7 1653.06,-1104.7 1653.06,-758.1 1317.14,-758.1"/>
</g>
<!-- ndb.agetypes -->
<g id="node2" class="node">
<title>ndb.agetypes</title>
<polygon fill="#efefef" stroke="none" points="679.2,-540 679.2,-575.6 999,-575.6 999,-540 679.2,-540"/>
<polygon fill="none" stroke="black" points="679.2,-540 679.2,-575.6 999,-575.6 999,-540 679.2,-540"/>
<text text-anchor="start" x="729.62" y="-553.4" font-family="Arial Bold" font-size="18.00">ndb.agetypes</text>
<text text-anchor="start" x="824.09" y="-553.4" font-family="Arial" font-size="14.00">    </text>
<text text-anchor="start" x="855.21" y="-553.4" font-family="Arial" font-size="14.00" fill="#666666">[BASE TABLE]</text>
<polygon fill="none" stroke="black" points="679.2,-509.2 679.2,-540 999,-540 999,-509.2 679.2,-509.2"/>
<text text-anchor="start" x="686.2" y="-521.4" font-family="Arial" font-size="14.00">agetype </text>
<text text-anchor="start" x="739.91" y="-521.4" font-family="Arial" font-size="14.00" fill="#666666">[varchar(64)]</text>
<polygon fill="none" stroke="black" points="679.2,-478.4 679.2,-509.2 999,-509.2 999,-478.4 679.2,-478.4"/>
<text text-anchor="start" x="686.2" y="-490.6" font-family="Arial" font-size="14.00">agetypeid </text>
<text text-anchor="start" x="750.81" y="-490.6" font-family="Arial" font-size="14.00" fill="#666666">[integer]</text>
<polygon fill="none" stroke="black" points="679.2,-447.6 679.2,-478.4 999,-478.4 999,-447.6 679.2,-447.6"/>
<text text-anchor="start" x="686.2" y="-459.8" font-family="Arial" font-size="14.00">precedence </text>
<text text-anchor="start" x="763.25" y="-459.8" font-family="Arial" font-size="14.00" fill="#666666">[integer]</text>
<polygon fill="none" stroke="black" points="679.2,-416.8 679.2,-447.6 999,-447.6 999,-416.8 679.2,-416.8"/>
<text text-anchor="start" x="686.2" y="-429" font-family="Arial" font-size="14.00">recdatecreated </text>
<text text-anchor="start" x="783.48" y="-429" font-family="Arial" font-size="14.00" fill="#666666">[timestamp(0) without time zone]</text>
<polygon fill="none" stroke="black" points="679.2,-386 679.2,-416.8 999,-416.8 999,-386 679.2,-386"/>
<text text-anchor="start" x="686.2" y="-398.2" font-family="Arial" font-size="14.00">recdatemodified </text>
<text text-anchor="start" x="789.7" y="-398.2" font-family="Arial" font-size="14.00" fill="#666666">[timestamp(0) without time zone]</text>
<polygon fill="none" stroke="black" points="679.2,-355.2 679.2,-386 999,-386 999,-355.2 679.2,-355.2"/>
<text text-anchor="start" x="686.2" y="-367.4" font-family="Arial" font-size="14.00">shortagetype </text>
<text text-anchor="start" x="771.03" y="-367.4" font-family="Arial" font-size="14.00" fill="#666666">[varchar(32)]</text>
</g>
<!-- ndb.aggregatechronologies&#45;&gt;ndb.agetypes -->
<g id="edge1" class="edge">
<title>ndb.aggregatechronologies:agetypeid&#45;&gt;ndb.agetypes:agetypeid</title>
<path fill="none" stroke="black" d="M1307.53,-988.7C1247.96,-964.44 1303.19,-714.5 1263.1,-654.8 1186.68,-540.99 1137.09,-493.8 1000,-493.8"/>
<polygon fill="black" stroke="black" points="1307.48,-988.69 1316.48,-994.96 1312.72,-989.68 1316.98,-990.48 1316.98,-990.48 1316.98,-990.48 1312.72,-989.68 1318.14,-986.12 1307.48,-988.69"/>
<text text-anchor="start" x="1053.66" y="-974.6" font-family="Arial" font-size="10.00">FOREIGN KEY (agetypeid) REFERENCES ndb.agetypes(agetypeid) ON UPDATE CASCADE ON DELETE CASCADE</text>
</g>
<!-- ndb.aggregatedatasets -->
<g id="node7" class="node">
<title>ndb.aggregatedatasets</title>
<polygon fill="#efefef" stroke="none" points="1566.2,-540 1566.2,-575.6 1886,-575.6 1886,-540 1566.2,-540"/>
<polygon fill="none" stroke="black" points="1566.2,-540 1566.2,-575.6 1886,-575.6 1886,-540 1566.2,-540"/>
<text text-anchor="start" x="1584.64" y="-553.4" font-family="Arial Bold" font-size="18.00">ndb.aggregatedatasets</text>
<text text-anchor="start" x="1743.07" y="-553.4" font-family="Arial" font-size="14.00">    </text>
<text text-anchor="start" x="1774.19" y="-553.4" font-family="Arial" font-size="14.00" fill="#666666">[BASE TABLE]</text>
<polygon fill="none" stroke="black" points="1566.2,-509.2 1566.2,-540 1886,-540 1886,-509.2 1566.2,-509.2"/>
<text text-anchor="start" x="1573.2" y="-521.4" font-family="Arial" font-size="14.00">aggregatedatasetid </text>
<text text-anchor="start" x="1696.96" y="-521.4" font-family="Arial" font-size="14.00" fill="#666666">[integer]</text>
<polygon fill="none" stroke="black" points="1566.2,-478.4 1566.2,-509.2 1886,-509.2 1886,-478.4 1566.2,-478.4"/>
<text text-anchor="start" x="1573.2" y="-490.6" font-family="Arial" font-size="14.00">aggregatedatasetname </text>
<text text-anchor="start" x="1721.09" y="-490.6" font-family="Arial" font-size="14.00" fill="#666666">[varchar(255)]</text>
<polygon fill="none" stroke="black" points="1566.2,-447.6 1566.2,-478.4 1886,-478.4 1886,-447.6 1566.2,-447.6"/>
<text text-anchor="start" x="1573.2" y="-459.8" font-family="Arial" font-size="14.00">aggregateordertypeid </text>
<text text-anchor="start" x="1710.19" y="-459.8" font-family="Arial" font-size="14.00" fill="#666666">[integer]</text>
<polygon fill="none" stroke="black" points="1566.2,-416.8 1566.2,-447.6 1886,-447.6 1886,-416.8 1566.2,-416.8"/>
<text text-anchor="start" x="1573.2" y="-429" font-family="Arial" font-size="14.00">notes </text>
<text text-anchor="start" x="1611.34" y="-429" font-family="Arial" font-size="14.00" fill="#666666">[text]</text>
<polygon fill="none" stroke="black" points="1566.2,-386 1566.2,-416.8 1886,-416.8 1886,-386 1566.2,-386"/>
<text text-anchor="start" x="1573.2" y="-398.2" font-family="Arial" font-size="14.00">recdatecreated </text>
<text text-anchor="start" x="1670.48" y="-398.2" font-family="Arial" font-size="14.00" fill="#666666">[timestamp(0) without time zone]</text>
<polygon fill="none" stroke="black" points="1566.2,-355.2 1566.2,-386 1886,-386 1886,-355.2 1566.2,-355.2"/>
<text text-anchor="start" x="1573.2" y="-367.4" font-family="Arial" font-size="14.00">recdatemodified </text>
<text text-anchor="start" x="1676.7" y="-367.4" font-family="Arial" font-size="14.00" fill="#666666">[timestamp(0) without time zone]</text>
</g>
<!-- ndb.aggregatechronologies&#45;&gt;ndb.aggregatedatasets -->
<g id="edge8" class="edge">
<title>ndb.aggregatechronologies:aggregatedatasetid&#45;&gt;ndb.aggregatedatasets:aggregatedatasetid</title>
<path fill="none" stroke="black" d="M1662.58,-928.49C1743.8,-919.68 1684.87,-799.44 1651.56,-713.4 1631.11,-660.59 1586.8,-671.55 1566.2,-618.8 1550.97,-579.8 1523.33,-524.6 1565.2,-524.6"/>
<polygon fill="black" stroke="black" points="1662.88,-928.47 1652.66,-924.49 1657.55,-928.74 1653.23,-928.97 1653.23,-928.97 1653.23,-928.97 1657.55,-928.74 1653.12,-933.48 1662.88,-928.47"/>
<text text-anchor="start" x="990.84" y="-939" font-family="Arial" font-size="10.00">FOREIGN KEY (aggregatedatasetid) REFERENCES ndb.aggregatedatasets(aggregatedatasetid) ON UPDATE CASCADE ON DELETE CASCADE</text>
</g>
<!-- ndb.chroncontrols -->
<g id="node3" class="node">
<title>ndb.chroncontrols</title>
<polygon fill="#efefef" stroke="none" points="43.2,-1113.8 43.2,-1149.4 363,-1149.4 363,-1113.8 43.2,-1113.8"/>
<polygon fill="none" stroke="black" points="43.2,-1113.8 43.2,-1149.4 363,-1149.4 363,-1113.8 43.2,-1113.8"/>
<text text-anchor="start" x="75.62" y="-1127.2" font-family="Arial Bold" font-size="18.00">ndb.chroncontrols</text>
<text text-anchor="start" x="206.09" y="-1127.2" font-family="Arial" font-size="14.00">    </text>
<text text-anchor="start" x="237.21" y="-1127.2" font-family="Arial" font-size="14.00" fill="#666666">[BASE TABLE]</text>
<polygon fill="none" stroke="black" points="43.2,-1083 43.2,-1113.8 363,-1113.8 363,-1083 43.2,-1083"/>
<text text-anchor="start" x="50.2" y="-1095.2" font-family="Arial" font-size="14.00">age </text>
<text text-anchor="start" x="77.45" y="-1095.2" font-family="Arial" font-size="14.00" fill="#666666">[double precision]</text>
<polygon fill="none" stroke="black" points="43.2,-1052.2 43.2,-1083 363,-1083 363,-1052.2 43.2,-1052.2"/>
<text text-anchor="start" x="50.2" y="-1064.4" font-family="Arial" font-size="14.00">agelimitolder </text>
<text text-anchor="start" x="133.46" y="-1064.4" font-family="Arial" font-size="14.00" fill="#666666">[double precision]</text>
<polygon fill="none" stroke="black" points="43.2,-1021.4 43.2,-1052.2 363,-1052.2 363,-1021.4 43.2,-1021.4"/>
<text text-anchor="start" x="50.2" y="-1033.6" font-family="Arial" font-size="14.00">agelimityounger </text>
<text text-anchor="start" x="152.92" y="-1033.6" font-family="Arial" font-size="14.00" fill="#666666">[double precision]</text>
<polygon fill="none" stroke="black" points="43.2,-990.6 43.2,-1021.4 363,-1021.4 363,-990.6 43.2,-990.6"/>
<text text-anchor="start" x="50.2" y="-1002.8" font-family="Arial" font-size="14.00">agetypeid </text>
<text text-anchor="start" x="114.81" y="-1002.8" font-family="Arial" font-size="14.00" fill="#666666">[integer]</text>
<polygon fill="none" stroke="black" points="43.2,-959.8 43.2,-990.6 363,-990.6 363,-959.8 43.2,-959.8"/>
<text text-anchor="start" x="50.2" y="-972" font-family="Arial" font-size="14.00">analysisunitid </text>
<text text-anchor="start" x="138.14" y="-972" font-family="Arial" font-size="14.00" fill="#666666">[integer]</text>
<polygon fill="none" stroke="black" points="43.2,-929 43.2,-959.8 363,-959.8 363,-929 43.2,-929"/>
<text text-anchor="start" x="50.2" y="-941.2" font-family="Arial" font-size="14.00">chroncontrolid </text>
<text text-anchor="start" x="142.03" y="-941.2" font-family="Arial" font-size="14.00" fill="#666666">[integer]</text>
<polygon fill="none" stroke="black" points="43.2,-898.2 43.2,-929 363,-929 363,-898.2 43.2,-898.2"/>
<text text-anchor="start" x="50.2" y="-910.4" font-family="Arial" font-size="14.00">chroncontroltypeid </text>
<text text-anchor="start" x="168.49" y="-910.4" font-family="Arial" font-size="14.00" fill="#666666">[integer]</text>
<polygon fill="none" stroke="black" points="43.2,-867.4 43.2,-898.2 363,-898.2 363,-867.4 43.2,-867.4"/>
<text text-anchor="start" x="50.2" y="-879.6" font-family="Arial" font-size="14.00">chronologyid </text>
<text text-anchor="start" x="133.48" y="-879.6" font-family="Arial" font-size="14.00" fill="#666666">[integer]</text>
<polygon fill="none" stroke="black" points="43.2,-836.6 43.2,-867.4 363,-867.4 363,-836.6 43.2,-836.6"/>
<text text-anchor="start" x="50.2" y="-848.8" font-family="Arial" font-size="14.00">depth </text>
<text text-anchor="start" x="89.12" y="-848.8" font-family="Arial" font-size="14.00" fill="#666666">[double precision]</text>
<polygon fill="none" stroke="black" points="43.2,-805.8 43.2,-836.6 363,-836.6 363,-805.8 43.2,-805.8"/>
<text text-anchor="start" x="50.2" y="-818" font-family="Arial" font-size="14.00">notes </text>
<text text-anchor="start" x="88.34" y="-818" font-family="Arial" font-size="14.00" fill="#666666">[text]</text>
<polygon fill="none" stroke="black" points="43.2,-775 43.2,-805.8 363,-805.8 363,-775 43.2,-775"/>
<text text-anchor="start" x="50.2" y="-787.2" font-family="Arial" font-size="14.00">recdatecreated </text>
<text text-anchor="start" x="147.48" y="-787.2" font-family="Arial" font-size="14.00" fill="#666666">[timestamp(0) without time zone]</text>
<polygon fill="none" stroke="black" points="43.2,-744.2 43.2,-775 363,-775 363,-744.2 43.2,-744.2"/>
<text text-anchor="start" x="50.2" y="-756.4" font-family="Arial" font-size="14.00">recdatemodified </text>
<text text-anchor="start" x="153.7" y="-756.4" font-family="Arial" font-size="14.00" fill="#666666">[timestamp(0) without time zone]</text>
<polygon fill="none" stroke="black" points="43.2,-713.4 43.2,-744.2 363,-744.2 363,-713.4 43.2,-713.4"/>
<text text-anchor="start" x="50.2" y="-725.6" font-family="Arial" font-size="14.00">thickness </text>
<text text-anchor="start" x="112.45" y="-725.6" font-family="Arial" font-size="14.00" fill="#666666">[double precision]</text>
</g>
<!-- ndb.chroncontrols&#45;&gt;ndb.agetypes -->
<g id="edge2" class="edge">
<title>ndb.chroncontrols:agetypeid&#45;&gt;ndb.agetypes:agetypeid</title>
<path fill="none" stroke="black" d="M374.13,-1004.17C436.44,-979.73 373.71,-717.55 415.1,-654.8 490.58,-540.36 541.11,-493.8 678.2,-493.8"/>
<polygon fill="black" stroke="black" points="374.17,-1004.16 363.53,-1001.51 368.92,-1005.11 364.66,-1005.88 364.66,-1005.88 364.66,-1005.88 368.92,-1005.11 365.13,-1010.37 374.17,-1004.16"/>
<text text-anchor="start" x="211.43" y="-990" font-family="Arial" font-size="10.00">FOREIGN KEY (agetypeid) REFERENCES ndb.agetypes(agetypeid)</text>
</g>
<!-- ndb.chronologies -->
<g id="node4" class="node">
<title>ndb.chronologies</title>
<polygon fill="#efefef" stroke="none" points="467.2,-1113.8 467.2,-1149.4 787,-1149.4 787,-1113.8 467.2,-1113.8"/>
<polygon fill="none" stroke="black" points="467.2,-1113.8 467.2,-1149.4 787,-1149.4 787,-1113.8 467.2,-1113.8"/>
<text text-anchor="start" x="502.62" y="-1127.2" font-family="Arial Bold" font-size="18.00">ndb.chronologies</text>
<text text-anchor="start" x="627.09" y="-1127.2" font-family="Arial" font-size="14.00">    </text>
<text text-anchor="start" x="658.21" y="-1127.2" font-family="Arial" font-size="14.00" fill="#666666">[BASE TABLE]</text>
<polygon fill="none" stroke="black" points="467.2,-1083 467.2,-1113.8 787,-1113.8 787,-1083 467.2,-1083"/>
<text text-anchor="start" x="474.2" y="-1095.2" font-family="Arial" font-size="14.00">ageboundolder </text>
<text text-anchor="start" x="571.51" y="-1095.2" font-family="Arial" font-size="14.00" fill="#666666">[integer]</text>
<polygon fill="none" stroke="black" points="467.2,-1052.2 467.2,-1083 787,-1083 787,-1052.2 467.2,-1052.2"/>
<text text-anchor="start" x="474.2" y="-1064.4" font-family="Arial" font-size="14.00">ageboundyounger </text>
<text text-anchor="start" x="590.97" y="-1064.4" font-family="Arial" font-size="14.00" fill="#666666">[integer]</text>
<polygon fill="none" stroke="black" points="467.2,-1021.4 467.2,-1052.2 787,-1052.2 787,-1021.4 467.2,-1021.4"/>
<text text-anchor="start" x="474.2" y="-1033.6" font-family="Arial" font-size="14.00">agemodel </text>
<text text-anchor="start" x="539.58" y="-1033.6" font-family="Arial" font-size="14.00" fill="#666666">[varchar(80)]</text>
<polygon fill="none" stroke="black" points="467.2,-990.6 467.2,-1021.4 787,-1021.4 787,-990.6 467.2,-990.6"/>
<text text-anchor="start" x="474.2" y="-1002.8" font-family="Arial" font-size="14.00">agetypeid </text>
<text text-anchor="start" x="538.81" y="-1002.8" font-family="Arial" font-size="14.00" fill="#666666">[integer]</text>
<polygon fill="none" stroke="black" points="467.2,-959.8 467.2,-990.6 787,-990.6 787,-959.8 467.2,-959.8"/>
<text text-anchor="start" x="474.2" y="-972" font-family="Arial" font-size="14.00">chronologyid </text>
<text text-anchor="start" x="557.48" y="-972" font-family="Arial" font-size="14.00" fill="#666666">[integer]</text>
<polygon fill="none" stroke="black" points="467.2,-929 467.2,-959.8 787,-959.8 787,-929 467.2,-929"/>
<text text-anchor="start" x="474.2" y="-941.2" font-family="Arial" font-size="14.00">chronologyname </text>
<text text-anchor="start" x="581.6" y="-941.2" font-family="Arial" font-size="14.00" fill="#666666">[varchar(80)]</text>
<polygon fill="none" stroke="black" points="467.2,-898.2 467.2,-929 787,-929 787,-898.2 467.2,-898.2"/>
<text text-anchor="start" x="474.2" y="-910.4" font-family="Arial" font-size="14.00">collectionunitid </text>
<text text-anchor="start" x="569.92" y="-910.4" font-family="Arial" font-size="14.00" fill="#666666">[integer]</text>
<polygon fill="none" stroke="black" points="467.2,-867.4 467.2,-898.2 787,-898.2 787,-867.4 467.2,-867.4"/>
<text text-anchor="start" x="474.2" y="-879.6" font-family="Arial" font-size="14.00">contactid </text>
<text text-anchor="start" x="534.12" y="-879.6" font-family="Arial" font-size="14.00" fill="#666666">[integer]</text>
<polygon fill="none" stroke="black" points="467.2,-836.6 467.2,-867.4 787,-867.4 787,-836.6 467.2,-836.6"/>
<text text-anchor="start" x="474.2" y="-848.8" font-family="Arial" font-size="14.00">dateprepared </text>
<text text-anchor="start" x="561.38" y="-848.8" font-family="Arial" font-size="14.00" fill="#666666">[date]</text>
<polygon fill="none" stroke="black" points="467.2,-805.8 467.2,-836.6 787,-836.6 787,-805.8 467.2,-805.8"/>
<text text-anchor="start" x="474.2" y="-818" font-family="Arial" font-size="14.00">isdefault </text>
<text text-anchor="start" x="530.23" y="-818" font-family="Arial" font-size="14.00" fill="#666666">[boolean]</text>
<polygon fill="none" stroke="black" points="467.2,-775 467.2,-805.8 787,-805.8 787,-775 467.2,-775"/>
<text text-anchor="start" x="474.2" y="-787.2" font-family="Arial" font-size="14.00">notes </text>
<text text-anchor="start" x="512.34" y="-787.2" font-family="Arial" font-size="14.00" fill="#666666">[text]</text>
<polygon fill="none" stroke="black" points="467.2,-744.2 467.2,-775 787,-775 787,-744.2 467.2,-744.2"/>
<text text-anchor="start" x="474.2" y="-756.4" font-family="Arial" font-size="14.00">recdatecreated </text>
<text text-anchor="start" x="571.48" y="-756.4" font-family="Arial" font-size="14.00" fill="#666666">[timestamp(0) without time zone]</text>
<polygon fill="none" stroke="black" points="467.2,-713.4 467.2,-744.2 787,-744.2 787,-713.4 467.2,-713.4"/>
<text text-anchor="start" x="474.2" y="-725.6" font-family="Arial" font-size="14.00">recdatemodified </text>
<text text-anchor="start" x="577.7" y="-725.6" font-family="Arial" font-size="14.00" fill="#666666">[timestamp(0) without time zone]</text>
</g>
<!-- ndb.chronologies&#45;&gt;ndb.agetypes -->
<g id="edge3" class="edge">
<title>ndb.chronologies:agetypeid&#45;&gt;ndb.agetypes:agetypeid</title>
<path fill="none" stroke="black" d="M798.15,-1004.11C859.12,-979.86 824.97,-730.17 787,-670.2 758.61,-625.35 707.71,-663.57 679.2,-618.8 649.36,-571.93 622.64,-493.8 678.2,-493.8"/>
<polygon fill="black" stroke="black" points="798.16,-1004.1 787.5,-1001.51 792.91,-1005.08 788.66,-1005.88 788.66,-1005.88 788.66,-1005.88 792.91,-1005.08 789.15,-1010.36 798.16,-1004.1"/>
<text text-anchor="start" x="253.04" y="-1016" font-family="Arial" font-size="10.00">FOREIGN KEY (agetypeid) REFERENCES ndb.agetypes(agetypeid) ON UPDATE CASCADE ON DELETE CASCADE</text>
</g>
<!-- ndb.geochronology -->
<g id="node5" class="node">
<title>ndb.geochronology</title>
<polygon fill="#efefef" stroke="none" points="891.2,-1129.2 891.2,-1164.8 1211,-1164.8 1211,-1129.2 891.2,-1129.2"/>
<polygon fill="none" stroke="black" points="891.2,-1129.2 891.2,-1164.8 1211,-1164.8 1211,-1129.2 891.2,-1129.2"/>
<text text-anchor="start" x="919.12" y="-1142.6" font-family="Arial Bold" font-size="18.00">ndb.geochronology</text>
<text text-anchor="start" x="1058.59" y="-1142.6" font-family="Arial" font-size="14.00">    </text>
<text text-anchor="start" x="1089.71" y="-1142.6" font-family="Arial" font-size="14.00" fill="#666666">[BASE TABLE]</text>
<polygon fill="none" stroke="black" points="891.2,-1098.4 891.2,-1129.2 1211,-1129.2 1211,-1098.4 891.2,-1098.4"/>
<text text-anchor="start" x="898.2" y="-1110.6" font-family="Arial" font-size="14.00">age </text>
<text text-anchor="start" x="925.45" y="-1110.6" font-family="Arial" font-size="14.00" fill="#666666">[double precision]</text>
<polygon fill="none" stroke="black" points="891.2,-1067.6 891.2,-1098.4 1211,-1098.4 1211,-1067.6 891.2,-1067.6"/>
<text text-anchor="start" x="898.2" y="-1079.8" font-family="Arial" font-size="14.00">agetypeid </text>
<text text-anchor="start" x="962.81" y="-1079.8" font-family="Arial" font-size="14.00" fill="#666666">[integer]</text>
<polygon fill="none" stroke="black" points="891.2,-1036.8 891.2,-1067.6 1211,-1067.6 1211,-1036.8 891.2,-1036.8"/>
<text text-anchor="start" x="898.2" y="-1049" font-family="Arial" font-size="14.00">delta13c </text>
<text text-anchor="start" x="955.02" y="-1049" font-family="Arial" font-size="14.00" fill="#666666">[double precision]</text>
<polygon fill="none" stroke="black" points="891.2,-1006 891.2,-1036.8 1211,-1036.8 1211,-1006 891.2,-1006"/>
<text text-anchor="start" x="898.2" y="-1018.2" font-family="Arial" font-size="14.00">errorolder </text>
<text text-anchor="start" x="962.78" y="-1018.2" font-family="Arial" font-size="14.00" fill="#666666">[double precision]</text>
<polygon fill="none" stroke="black" points="891.2,-975.2 891.2,-1006 1211,-1006 1211,-975.2 891.2,-975.2"/>
<text text-anchor="start" x="898.2" y="-987.4" font-family="Arial" font-size="14.00">erroryounger </text>
<text text-anchor="start" x="982.24" y="-987.4" font-family="Arial" font-size="14.00" fill="#666666">[double precision]</text>
<polygon fill="none" stroke="black" points="891.2,-944.4 891.2,-975.2 1211,-975.2 1211,-944.4 891.2,-944.4"/>
<text text-anchor="start" x="898.2" y="-956.6" font-family="Arial" font-size="14.00">geochronid </text>
<text text-anchor="start" x="971.37" y="-956.6" font-family="Arial" font-size="14.00" fill="#666666">[integer]</text>
<polygon fill="none" stroke="black" points="891.2,-913.6 891.2,-944.4 1211,-944.4 1211,-913.6 891.2,-913.6"/>
<text text-anchor="start" x="898.2" y="-925.8" font-family="Arial" font-size="14.00">geochrontypeid </text>
<text text-anchor="start" x="997.83" y="-925.8" font-family="Arial" font-size="14.00" fill="#666666">[integer]</text>
<polygon fill="none" stroke="black" points="891.2,-882.8 891.2,-913.6 1211,-913.6 1211,-882.8 891.2,-882.8"/>
<text text-anchor="start" x="898.2" y="-895" font-family="Arial" font-size="14.00">infinite </text>
<text text-anchor="start" x="942.56" y="-895" font-family="Arial" font-size="14.00" fill="#666666">[boolean]</text>
<polygon fill="none" stroke="black" points="891.2,-852 891.2,-882.8 1211,-882.8 1211,-852 891.2,-852"/>
<text text-anchor="start" x="898.2" y="-864.2" font-family="Arial" font-size="14.00">labnumber </text>
<text text-anchor="start" x="968.24" y="-864.2" font-family="Arial" font-size="14.00" fill="#666666">[varchar(40)]</text>
<polygon fill="none" stroke="black" points="891.2,-821.2 891.2,-852 1211,-852 1211,-821.2 891.2,-821.2"/>
<text text-anchor="start" x="898.2" y="-833.4" font-family="Arial" font-size="14.00">materialdated </text>
<text text-anchor="start" x="986.92" y="-833.4" font-family="Arial" font-size="14.00" fill="#666666">[varchar(255)]</text>
<polygon fill="none" stroke="black" points="891.2,-790.4 891.2,-821.2 1211,-821.2 1211,-790.4 891.2,-790.4"/>
<text text-anchor="start" x="898.2" y="-802.6" font-family="Arial" font-size="14.00">notes </text>
<text text-anchor="start" x="936.34" y="-802.6" font-family="Arial" font-size="14.00" fill="#666666">[text]</text>
<polygon fill="none" stroke="black" points="891.2,-759.6 891.2,-790.4 1211,-790.4 1211,-759.6 891.2,-759.6"/>
<text text-anchor="start" x="898.2" y="-771.8" font-family="Arial" font-size="14.00">recdatecreated </text>
<text text-anchor="start" x="995.48" y="-771.8" font-family="Arial" font-size="14.00" fill="#666666">[timestamp(0) without time zone]</text>
<polygon fill="none" stroke="black" points="891.2,-728.8 891.2,-759.6 1211,-759.6 1211,-728.8 891.2,-728.8"/>
<text text-anchor="start" x="898.2" y="-741" font-family="Arial" font-size="14.00">recdatemodified </text>
<text text-anchor="start" x="1001.7" y="-741" font-family="Arial" font-size="14.00" fill="#666666">[timestamp(0) without time zone]</text>
<polygon fill="none" stroke="black" points="891.2,-698 891.2,-728.8 1211,-728.8 1211,-698 891.2,-698"/>
<text text-anchor="start" x="898.2" y="-710.2" font-family="Arial" font-size="14.00">sampleid </text>
<text text-anchor="start" x="958.12" y="-710.2" font-family="Arial" font-size="14.00" fill="#666666">[integer]</text>
</g>
<!-- ndb.geochronology&#45;&gt;ndb.agetypes -->
<g id="edge4" class="edge">
<title>ndb.geochronology:agetypeid&#45;&gt;ndb.agetypes:agetypeid</title>
<path fill="none" stroke="black" d="M881.38,-1077.77C845.49,-1031.37 865.25,-690.74 891.2,-654.8 920.77,-613.85 969.31,-659.67 999,-618.8 1031.65,-573.85 1055.56,-493.8 1000,-493.8"/>
<polygon fill="black" stroke="black" points="881.31,-1077.73 887.62,-1086.7 885.9,-1080.45 889.62,-1082.66 889.62,-1082.66 889.62,-1082.66 885.9,-1080.45 892.21,-1078.96 881.31,-1077.73"/>
<text text-anchor="start" x="897.2" y="-1093" font-family="Arial" font-size="10.00">FOREIGN KEY (agetypeid) REFERENCES ndb.agetypes(agetypeid)</text>
</g>
<!-- ndb.aggregatesampleages -->
<g id="node6" class="node">
<title>ndb.aggregatesampleages</title>
<polygon fill="#efefef" stroke="none" points="1564.64,-1441.2 1564.64,-1476.8 1887.55,-1476.8 1887.55,-1441.2 1564.64,-1441.2"/>
<polygon fill="none" stroke="black" points="1564.64,-1441.2 1564.64,-1476.8 1887.55,-1476.8 1887.55,-1441.2 1564.64,-1441.2"/>
<text text-anchor="start" x="1571.64" y="-1454.6" font-family="Arial Bold" font-size="18.00">ndb.aggregatesampleages</text>
<text text-anchor="start" x="1756.07" y="-1454.6" font-family="Arial" font-size="14.00">    </text>
<text text-anchor="start" x="1787.18" y="-1454.6" font-family="Arial" font-size="14.00" fill="#666666">[BASE TABLE]</text>
<polygon fill="none" stroke="black" points="1564.64,-1410.4 1564.64,-1441.2 1887.55,-1441.2 1887.55,-1410.4 1564.64,-1410.4"/>
<text text-anchor="start" x="1571.64" y="-1422.6" font-family="Arial" font-size="14.00">aggregatechronid </text>
<text text-anchor="start" x="1684.51" y="-1422.6" font-family="Arial" font-size="14.00" fill="#666666">[integer]</text>
<polygon fill="none" stroke="black" points="1564.64,-1379.6 1564.64,-1410.4 1887.55,-1410.4 1887.55,-1379.6 1564.64,-1379.6"/>
<text text-anchor="start" x="1571.64" y="-1391.8" font-family="Arial" font-size="14.00">aggregatedatasetid </text>
<text text-anchor="start" x="1695.41" y="-1391.8" font-family="Arial" font-size="14.00" fill="#666666">[integer]</text>
<polygon fill="none" stroke="black" points="1564.64,-1348.8 1564.64,-1379.6 1887.55,-1379.6 1887.55,-1348.8 1564.64,-1348.8"/>
<text text-anchor="start" x="1571.64" y="-1361" font-family="Arial" font-size="14.00">recdatecreated </text>
<text text-anchor="start" x="1668.93" y="-1361" font-family="Arial" font-size="14.00" fill="#666666">[timestamp(0) without time zone]</text>
<polygon fill="none" stroke="black" points="1564.64,-1318 1564.64,-1348.8 1887.55,-1348.8 1887.55,-1318 1564.64,-1318"/>
<text text-anchor="start" x="1571.64" y="-1330.2" font-family="Arial" font-size="14.00">recdatemodified </text>
<text text-anchor="start" x="1675.15" y="-1330.2" font-family="Arial" font-size="14.00" fill="#666666">[timestamp(0) without time zone]</text>
<polygon fill="none" stroke="black" points="1564.64,-1287.2 1564.64,-1318 1887.55,-1318 1887.55,-1287.2 1564.64,-1287.2"/>
<text text-anchor="start" x="1571.64" y="-1299.4" font-family="Arial" font-size="14.00">sampleageid </text>
<text text-anchor="start" x="1654.92" y="-1299.4" font-family="Arial" font-size="14.00" fill="#666666">[integer]</text>
</g>
<!-- ndb.aggregatesampleages&#45;&gt;ndb.aggregatechronologies -->
<g id="edge5" class="edge">
<title>ndb.aggregatesampleages:aggregatechronid&#45;&gt;ndb.aggregatechronologies:aggregatechronid</title>
<path fill="none" stroke="black" d="M1553.55,-1425.17C1487.49,-1416.29 1536.43,-1315.83 1564.64,-1244 1585.52,-1190.86 1630.69,-1202.55 1651.56,-1149.4 1682.36,-1070.96 1736.83,-959.8 1652.56,-959.8"/>
<polygon fill="black" stroke="black" points="1553.33,-1425.15 1563.03,-1430.27 1558.65,-1425.49 1562.98,-1425.76 1562.98,-1425.76 1562.98,-1425.76 1558.65,-1425.49 1563.59,-1421.29 1553.33,-1425.15"/>
<text text-anchor="start" x="1121.42" y="-1435.8" font-family="Arial" font-size="10.00">FOREIGN KEY (aggregatechronid) REFERENCES ndb.aggregatechronologies(aggregatechronid)</text>
</g>
<!-- ndb.aggregatesampleages&#45;&gt;ndb.aggregatedatasets -->
<g id="edge6" class="edge">
<title>ndb.aggregatesampleages:aggregatedatasetid&#45;&gt;ndb.aggregatedatasets:aggregatedatasetid</title>
<path fill="none" stroke="black" d="M1898.74,-1394.14C1952.7,-1384.4 1926.7,-1293.93 1887.55,-1244 1847.26,-1192.61 1785.22,-1259.52 1745.1,-1208 1707.33,-1159.5 1707.4,-703.35 1745.1,-654.8 1784.74,-603.75 1846.08,-669.64 1886,-618.8 1911.86,-585.87 1928.87,-524.6 1887,-524.6"/>
<polygon fill="black" stroke="black" points="1898.85,-1394.13 1888.51,-1390.49 1893.54,-1394.58 1889.22,-1394.94 1889.22,-1394.94 1889.22,-1394.94 1893.54,-1394.58 1889.27,-1399.46 1898.85,-1394.13"/>
<text text-anchor="start" x="1895.55" y="-1405" font-family="Arial" font-size="10.00">FOREIGN KEY (aggregatedatasetid) REFERENCES ndb.aggregatedatasets(aggregatedatasetid) ON UPDATE CASCADE ON DELETE CASCADE</text>
</g>
<!-- ndb.sampleages -->
<g id="node8" class="node">
<title>ndb.sampleages</title>
<polygon fill="#efefef" stroke="none" points="1797.2,-1036.8 1797.2,-1072.4 2117,-1072.4 2117,-1036.8 1797.2,-1036.8"/>
<polygon fill="none" stroke="black" points="1797.2,-1036.8 1797.2,-1072.4 2117,-1072.4 2117,-1036.8 1797.2,-1036.8"/>
<text text-anchor="start" x="1837.62" y="-1050.2" font-family="Arial Bold" font-size="18.00">ndb.sampleages</text>
<text text-anchor="start" x="1952.09" y="-1050.2" font-family="Arial" font-size="14.00">    </text>
<text text-anchor="start" x="1983.21" y="-1050.2" font-family="Arial" font-size="14.00" fill="#666666">[BASE TABLE]</text>
<polygon fill="none" stroke="black" points="1797.2,-1006 1797.2,-1036.8 2117,-1036.8 2117,-1006 1797.2,-1006"/>
<text text-anchor="start" x="1804.2" y="-1018.2" font-family="Arial" font-size="14.00">age </text>
<text text-anchor="start" x="1831.45" y="-1018.2" font-family="Arial" font-size="14.00" fill="#666666">[double precision]</text>
<polygon fill="none" stroke="black" points="1797.2,-975.2 1797.2,-1006 2117,-1006 2117,-975.2 1797.2,-975.2"/>
<text text-anchor="start" x="1804.2" y="-987.4" font-family="Arial" font-size="14.00">ageolder </text>
<text text-anchor="start" x="1862.58" y="-987.4" font-family="Arial" font-size="14.00" fill="#666666">[double precision]</text>
<polygon fill="none" stroke="black" points="1797.2,-944.4 1797.2,-975.2 2117,-975.2 2117,-944.4 1797.2,-944.4"/>
<text text-anchor="start" x="1804.2" y="-956.6" font-family="Arial" font-size="14.00">ageyounger </text>
<text text-anchor="start" x="1882.04" y="-956.6" font-family="Arial" font-size="14.00" fill="#666666">[double precision]</text>
<polygon fill="none" stroke="black" points="1797.2,-913.6 1797.2,-944.4 2117,-944.4 2117,-913.6 1797.2,-913.6"/>
<text text-anchor="start" x="1804.2" y="-925.8" font-family="Arial" font-size="14.00">chronologyid </text>
<text text-anchor="start" x="1887.48" y="-925.8" font-family="Arial" font-size="14.00" fill="#666666">[integer]</text>
<polygon fill="none" stroke="black" points="1797.2,-882.8 1797.2,-913.6 2117,-913.6 2117,-882.8 1797.2,-882.8"/>
<text text-anchor="start" x="1804.2" y="-895" font-family="Arial" font-size="14.00">recdatecreated </text>
<text text-anchor="start" x="1901.48" y="-895" font-family="Arial" font-size="14.00" fill="#666666">[timestamp(0) without time zone]</text>
<polygon fill="none" stroke="black" points="1797.2,-852 1797.2,-882.8 2117,-882.8 2117,-852 1797.2,-852"/>
<text text-anchor="start" x="1804.2" y="-864.2" font-family="Arial" font-size="14.00">recdatemodified </text>
<text text-anchor="start" x="1907.7" y="-864.2" font-family="Arial" font-size="14.00" fill="#666666">[timestamp(0) without time zone]</text>
<polygon fill="none" stroke="black" points="1797.2,-821.2 1797.2,-852 2117,-852 2117,-821.2 1797.2,-821.2"/>
<text text-anchor="start" x="1804.2" y="-833.4" font-family="Arial" font-size="14.00">sampleageid </text>
<text text-anchor="start" x="1887.48" y="-833.4" font-family="Arial" font-size="14.00" fill="#666666">[integer]</text>
<polygon fill="none" stroke="black" points="1797.2,-790.4 1797.2,-821.2 2117,-821.2 2117,-790.4 1797.2,-790.4"/>
<text text-anchor="start" x="1804.2" y="-802.6" font-family="Arial" font-size="14.00">sampleid </text>
<text text-anchor="start" x="1864.12" y="-802.6" font-family="Arial" font-size="14.00" fill="#666666">[integer]</text>
</g>
<!-- ndb.aggregatesampleages&#45;&gt;ndb.sampleages -->
<g id="edge7" class="edge">
<title>ndb.aggregatesampleages:sampleageid&#45;&gt;ndb.sampleages:sampleageid</title>
<path fill="none" stroke="black" d="M1898.28,-1299.82C1908.4,-1291.24 1894.24,-1264.51 1887.55,-1244 1865.93,-1177.66 1818.38,-1182.09 1797.2,-1115.6 1778.38,-1056.52 1734.2,-836.6 1796.2,-836.6"/>
<polygon fill="black" stroke="black" points="1898.49,-1299.76 1887.64,-1298.18 1893.36,-1301.23 1889.2,-1302.42 1889.2,-1302.42 1889.2,-1302.42 1893.36,-1301.23 1890.11,-1306.83 1898.49,-1299.76"/>
<text text-anchor="start" x="1895.55" y="-1312.6" font-family="Arial" font-size="10.00">FOREIGN KEY (sampleageid) REFERENCES ndb.sampleages(sampleageid) ON UPDATE CASCADE ON DELETE CASCADE</text>
</g>
<!-- ndb.aggregateordertypes -->
<g id="node10" class="node">
<title>ndb.aggregateordertypes</title>
<polygon fill="#efefef" stroke="none" points="1566.2,-197.2 1566.2,-232.8 1886,-232.8 1886,-197.2 1566.2,-197.2"/>
<polygon fill="none" stroke="black" points="1566.2,-197.2 1566.2,-232.8 1886,-232.8 1886,-197.2 1566.2,-197.2"/>
<text text-anchor="start" x="1575.14" y="-210.6" font-family="Arial Bold" font-size="18.00">ndb.aggregateordertypes</text>
<text text-anchor="start" x="1752.57" y="-210.6" font-family="Arial" font-size="14.00">    </text>
<text text-anchor="start" x="1783.68" y="-210.6" font-family="Arial" font-size="14.00" fill="#666666">[BASE TABLE]</text>
<polygon fill="none" stroke="black" points="1566.2,-166.4 1566.2,-197.2 1886,-197.2 1886,-166.4 1566.2,-166.4"/>
<text text-anchor="start" x="1573.2" y="-178.6" font-family="Arial" font-size="14.00">aggregateordertype </text>
<text text-anchor="start" x="1699.29" y="-178.6" font-family="Arial" font-size="14.00" fill="#666666">[varchar(64)]</text>
<polygon fill="none" stroke="black" points="1566.2,-135.6 1566.2,-166.4 1886,-166.4 1886,-135.6 1566.2,-135.6"/>
<text text-anchor="start" x="1573.2" y="-147.8" font-family="Arial" font-size="14.00">aggregateordertypeid </text>
<text text-anchor="start" x="1710.19" y="-147.8" font-family="Arial" font-size="14.00" fill="#666666">[integer]</text>
<polygon fill="none" stroke="black" points="1566.2,-104.8 1566.2,-135.6 1886,-135.6 1886,-104.8 1566.2,-104.8"/>
<text text-anchor="start" x="1573.2" y="-117" font-family="Arial" font-size="14.00">notes </text>
<text text-anchor="start" x="1611.34" y="-117" font-family="Arial" font-size="14.00" fill="#666666">[text]</text>
<polygon fill="none" stroke="black" points="1566.2,-74 1566.2,-104.8 1886,-104.8 1886,-74 1566.2,-74"/>
<text text-anchor="start" x="1573.2" y="-86.2" font-family="Arial" font-size="14.00">recdatecreated </text>
<text text-anchor="start" x="1670.48" y="-86.2" font-family="Arial" font-size="14.00" fill="#666666">[timestamp(0) without time zone]</text>
<polygon fill="none" stroke="black" points="1566.2,-43.2 1566.2,-74 1886,-74 1886,-43.2 1566.2,-43.2"/>
<text text-anchor="start" x="1573.2" y="-55.4" font-family="Arial" font-size="14.00">recdatemodified </text>
<text text-anchor="start" x="1676.7" y="-55.4" font-family="Arial" font-size="14.00" fill="#666666">[timestamp(0) without time zone]</text>
</g>
<!-- ndb.aggregatedatasets&#45;&gt;ndb.aggregateordertypes -->
<g id="edge10" class="edge">
<title>ndb.aggregatedatasets:aggregateordertypeid&#45;&gt;ndb.aggregateordertypes:aggregateordertypeid</title>
<path fill="none" stroke="black" d="M1897.29,-462.41C2025.58,-447.36 2022.14,-151 1887,-151"/>
<polygon fill="black" stroke="black" points="1897.32,-462.41 1887.07,-458.49 1891.99,-462.71 1887.67,-462.96 1887.67,-462.96 1887.67,-462.96 1891.99,-462.71 1887.59,-467.47 1897.32,-462.41"/>
<text text-anchor="start" x="1894" y="-473" font-family="Arial" font-size="10.00">FOREIGN KEY (aggregateordertypeid) REFERENCES ndb.aggregateordertypes(aggregateordertypeid) ON UPDATE CASCADE ON DELETE CASCADE</text>
</g>
<!-- ndb.aggregatesamples -->
<g id="node9" class="node">
<title>ndb.aggregatesamples</title>
<polygon fill="#efefef" stroke="none" points="2221.2,-975.2 2221.2,-1010.8 2541,-1010.8 2541,-975.2 2221.2,-975.2"/>
<polygon fill="none" stroke="black" points="2221.2,-975.2 2221.2,-1010.8 2541,-1010.8 2541,-975.2 2221.2,-975.2"/>
<text text-anchor="start" x="2239.13" y="-988.6" font-family="Arial Bold" font-size="18.00">ndb.aggregatesamples</text>
<text text-anchor="start" x="2398.58" y="-988.6" font-family="Arial" font-size="14.00">    </text>
<text text-anchor="start" x="2429.69" y="-988.6" font-family="Arial" font-size="14.00" fill="#666666">[BASE TABLE]</text>
<polygon fill="none" stroke="black" points="2221.2,-944.4 2221.2,-975.2 2541,-975.2 2541,-944.4 2221.2,-944.4"/>
<text text-anchor="start" x="2228.2" y="-956.6" font-family="Arial" font-size="14.00">aggregatedatasetid </text>
<text text-anchor="start" x="2351.96" y="-956.6" font-family="Arial" font-size="14.00" fill="#666666">[integer]</text>
<polygon fill="none" stroke="black" points="2221.2,-913.6 2221.2,-944.4 2541,-944.4 2541,-913.6 2221.2,-913.6"/>
<text text-anchor="start" x="2228.2" y="-925.8" font-family="Arial" font-size="14.00">recdatecreated </text>
<text text-anchor="start" x="2325.48" y="-925.8" font-family="Arial" font-size="14.00" fill="#666666">[timestamp(0) without time zone]</text>
<polygon fill="none" stroke="black" points="2221.2,-882.8 2221.2,-913.6 2541,-913.6 2541,-882.8 2221.2,-882.8"/>
<text text-anchor="start" x="2228.2" y="-895" font-family="Arial" font-size="14.00">recdatemodified </text>
<text text-anchor="start" x="2331.7" y="-895" font-family="Arial" font-size="14.00" fill="#666666">[timestamp(0) without time zone]</text>
<polygon fill="none" stroke="black" points="2221.2,-852 2221.2,-882.8 2541,-882.8 2541,-852 2221.2,-852"/>
<text text-anchor="start" x="2228.2" y="-864.2" font-family="Arial" font-size="14.00">sampleid </text>
<text text-anchor="start" x="2288.12" y="-864.2" font-family="Arial" font-size="14.00" fill="#666666">[integer]</text>
</g>
<!-- ndb.aggregatesamples&#45;&gt;ndb.aggregatedatasets -->
<g id="edge9" class="edge">
<title>ndb.aggregatesamples:aggregatedatasetid&#45;&gt;ndb.aggregatedatasets:aggregatedatasetid</title>
<path fill="none" stroke="black" d="M2210.04,-957.63C2157.66,-933 2208.53,-706.43 2169.1,-654.8 2085.29,-545.05 2025.09,-524.6 1887,-524.6"/>
<polygon fill="black" stroke="black" points="2210.09,-957.64 2218.93,-964.13 2215.31,-958.75 2219.55,-959.66 2219.55,-959.66 2219.55,-959.66 2215.31,-958.75 2220.81,-955.33 2210.09,-957.64"/>
<text text-anchor="start" x="2227.2" y="-969.8" font-family="Arial" font-size="10.00">FOREIGN KEY (aggregatedatasetid) REFERENCES ndb.aggregatedatasets(aggregatedatasetid) ON UPDATE CASCADE ON DELETE CASCADE</text>
</g>
</g>
</svg>
