<?xml version="1.0" encoding="UTF-8" standalone="no"?>
<!DOCTYPE svg PUBLIC "-//W3C//DTD SVG 1.1//EN"
 "http://www.w3.org/Graphics/SVG/1.1/DTD/svg11.dtd">
<!-- Generated by graphviz version 12.1.2 (20240928.0832)
 -->
<!-- Title: ndb.chroncontrolaccuracyranks Pages: 1 -->
<svg width="2383pt" height="966pt"
 viewBox="0.00 0.00 2383.31 965.60" xmlns="http://www.w3.org/2000/svg" xmlns:xlink="http://www.w3.org/1999/xlink">
<g id="graph0" class="graph" transform="scale(1 1) rotate(0) translate(4 961.6)">
<title>ndb.chroncontrolaccuracyranks</title>
<polygon fill="white" stroke="none" points="-4,4 -4,-961.6 2379.31,-961.6 2379.31,4 -4,4"/>
<!-- ndb.chroncontrolaccuracyranks -->
<g id="node1" class="node">
<title>ndb.chroncontrolaccuracyranks</title>
<polygon fill="#efefef" stroke="none" points="46.2,-305 46.2,-340.6 411.09,-340.6 411.09,-305 46.2,-305"/>
<polygon fill="none" stroke="black" points="46.2,-305 46.2,-340.6 411.09,-340.6 411.09,-305 46.2,-305"/>
<text text-anchor="start" x="53.2" y="-318.4" font-family="Arial Bold" font-size="18.00">ndb.chroncontrolaccuracyranks</text>
<text text-anchor="start" x="279.6" y="-318.4" font-family="Arial" font-size="14.00">    </text>
<text text-anchor="start" x="310.71" y="-318.4" font-family="Arial" font-size="14.00" fill="#666666">[BASE TABLE]</text>
<polygon fill="none" stroke="black" points="46.2,-274.2 46.2,-305 411.09,-305 411.09,-274.2 46.2,-274.2"/>
<text text-anchor="start" x="53.2" y="-286.4" font-family="Arial" font-size="14.00">accuracyrankid </text>
<text text-anchor="start" x="151.24" y="-286.4" font-family="Arial" font-size="14.00" fill="#666666">[integer]</text>
<polygon fill="none" stroke="black" points="46.2,-243.4 46.2,-274.2 411.09,-274.2 411.09,-243.4 46.2,-243.4"/>
<text text-anchor="start" x="53.2" y="-255.6" font-family="Arial" font-size="14.00">accuracyrank </text>
<text text-anchor="start" x="140.34" y="-255.6" font-family="Arial" font-size="14.00" fill="#666666">[varchar(255)]</text>
<polygon fill="none" stroke="black" points="46.2,-212.6 46.2,-243.4 411.09,-243.4 411.09,-212.6 46.2,-212.6"/>
<text text-anchor="start" x="53.2" y="-224.8" font-family="Arial" font-size="14.00">recdatecreated </text>
<text text-anchor="start" x="150.48" y="-224.8" font-family="Arial" font-size="14.00" fill="#666666">[timestamp(0) without time zone]</text>
<polygon fill="none" stroke="black" points="46.2,-181.8 46.2,-212.6 411.09,-212.6 411.09,-181.8 46.2,-181.8"/>
<text text-anchor="start" x="53.2" y="-194" font-family="Arial" font-size="14.00">recdatemodified </text>
<text text-anchor="start" x="156.7" y="-194" font-family="Arial" font-size="14.00" fill="#666666">[timestamp(0) without time zone]</text>
<polygon fill="none" stroke="black" stroke-width="3" points="44.7,-180.3 44.7,-342.1 412.59,-342.1 412.59,-180.3 44.7,-180.3"/>
</g>
<!-- ndb.chroncontrolranks -->
<g id="node2" class="node">
<title>ndb.chroncontrolranks</title>
<polygon fill="#efefef" stroke="none" points="981.74,-878.8 981.74,-914.4 1301.54,-914.4 1301.54,-878.8 981.74,-878.8"/>
<polygon fill="none" stroke="black" points="981.74,-878.8 981.74,-914.4 1301.54,-914.4 1301.54,-878.8 981.74,-878.8"/>
<text text-anchor="start" x="998.17" y="-892.2" font-family="Arial Bold" font-size="18.00">ndb.chroncontrolranks</text>
<text text-anchor="start" x="1160.63" y="-892.2" font-family="Arial" font-size="14.00">    </text>
<text text-anchor="start" x="1191.74" y="-892.2" font-family="Arial" font-size="14.00" fill="#666666">[BASE TABLE]</text>
<polygon fill="none" stroke="black" points="981.74,-848 981.74,-878.8 1301.54,-878.8 1301.54,-848 981.74,-848"/>
<text text-anchor="start" x="988.74" y="-860.2" font-family="Arial" font-size="14.00">chroncontrolrankid </text>
<text text-anchor="start" x="1107.81" y="-860.2" font-family="Arial" font-size="14.00" fill="#666666">[integer]</text>
<polygon fill="none" stroke="black" points="981.74,-817.2 981.74,-848 1301.54,-848 1301.54,-817.2 981.74,-817.2"/>
<text text-anchor="start" x="988.74" y="-829.4" font-family="Arial" font-size="14.00">chroncontrolid </text>
<text text-anchor="start" x="1080.57" y="-829.4" font-family="Arial" font-size="14.00" fill="#666666">[integer]</text>
<polygon fill="none" stroke="black" points="981.74,-786.4 981.74,-817.2 1301.54,-817.2 1301.54,-786.4 981.74,-786.4"/>
<text text-anchor="start" x="988.74" y="-798.6" font-family="Arial" font-size="14.00">accuracyrankid </text>
<text text-anchor="start" x="1086.78" y="-798.6" font-family="Arial" font-size="14.00" fill="#666666">[integer]</text>
<polygon fill="none" stroke="black" points="981.74,-755.6 981.74,-786.4 1301.54,-786.4 1301.54,-755.6 981.74,-755.6"/>
<text text-anchor="start" x="988.74" y="-767.8" font-family="Arial" font-size="14.00">accuracydirectionid </text>
<text text-anchor="start" x="1112.47" y="-767.8" font-family="Arial" font-size="14.00" fill="#666666">[integer]</text>
<polygon fill="none" stroke="black" points="981.74,-724.8 981.74,-755.6 1301.54,-755.6 1301.54,-724.8 981.74,-724.8"/>
<text text-anchor="start" x="988.74" y="-737" font-family="Arial" font-size="14.00">accuracydistributionid </text>
<text text-anchor="start" x="1127.25" y="-737" font-family="Arial" font-size="14.00" fill="#666666">[integer]</text>
<polygon fill="none" stroke="black" points="981.74,-694 981.74,-724.8 1301.54,-724.8 1301.54,-694 981.74,-694"/>
<text text-anchor="start" x="988.74" y="-706.2" font-family="Arial" font-size="14.00">precisionrankid </text>
<text text-anchor="start" x="1086.79" y="-706.2" font-family="Arial" font-size="14.00" fill="#666666">[integer]</text>
<polygon fill="none" stroke="black" points="981.74,-663.2 981.74,-694 1301.54,-694 1301.54,-663.2 981.74,-663.2"/>
<text text-anchor="start" x="988.74" y="-675.4" font-family="Arial" font-size="14.00">outlier </text>
<text text-anchor="start" x="1030.76" y="-675.4" font-family="Arial" font-size="14.00" fill="#666666">[boolean]</text>
<polygon fill="none" stroke="black" points="981.74,-632.4 981.74,-663.2 1301.54,-663.2 1301.54,-632.4 981.74,-632.4"/>
<text text-anchor="start" x="988.74" y="-644.6" font-family="Arial" font-size="14.00">recdatecreated </text>
<text text-anchor="start" x="1086.03" y="-644.6" font-family="Arial" font-size="14.00" fill="#666666">[timestamp(0) without time zone]</text>
<polygon fill="none" stroke="black" points="981.74,-601.6 981.74,-632.4 1301.54,-632.4 1301.54,-601.6 981.74,-601.6"/>
<text text-anchor="start" x="988.74" y="-613.8" font-family="Arial" font-size="14.00">recdatemodified </text>
<text text-anchor="start" x="1092.25" y="-613.8" font-family="Arial" font-size="14.00" fill="#666666">[timestamp(0) without time zone]</text>
</g>
<!-- ndb.chroncontrolranks&#45;&gt;ndb.chroncontrolaccuracyranks -->
<g id="edge1" class="edge">
<title>ndb.chroncontrolranks:accuracyrankid&#45;&gt;ndb.chroncontrolaccuracyranks:accuracyrankid</title>
<path fill="none" stroke="black" d="M970.54,-801.76C718.14,-799.86 622.27,-726.45 466.64,-522.4 402.2,-437.9 518.36,-289.6 412.09,-289.6"/>
<polygon fill="black" stroke="black" points="970.41,-801.76 980.39,-806.3 975.74,-801.78 980.07,-801.8 980.07,-801.8 980.07,-801.8 975.74,-801.78 980.43,-797.3 970.41,-801.76"/>
<text text-anchor="start" x="319.12" y="-811.8" font-family="Arial" font-size="10.00">FOREIGN KEY (accuracyrankid) REFERENCES ndb.chroncontrolaccuracyranks(accuracyrankid) ON UPDATE CASCADE ON DELETE CASCADE</text>
</g>
<!-- ndb.chroncontrols -->
<g id="node3" class="node">
<title>ndb.chroncontrols</title>
<polygon fill="#efefef" stroke="none" points="518.74,-443.6 518.74,-479.2 838.54,-479.2 838.54,-443.6 518.74,-443.6"/>
<polygon fill="none" stroke="black" points="518.74,-443.6 518.74,-479.2 838.54,-479.2 838.54,-443.6 518.74,-443.6"/>
<text text-anchor="start" x="551.16" y="-457" font-family="Arial Bold" font-size="18.00">ndb.chroncontrols</text>
<text text-anchor="start" x="681.64" y="-457" font-family="Arial" font-size="14.00">    </text>
<text text-anchor="start" x="712.75" y="-457" font-family="Arial" font-size="14.00" fill="#666666">[BASE TABLE]</text>
<polygon fill="none" stroke="black" points="518.74,-412.8 518.74,-443.6 838.54,-443.6 838.54,-412.8 518.74,-412.8"/>
<text text-anchor="start" x="525.74" y="-425" font-family="Arial" font-size="14.00">chroncontrolid </text>
<text text-anchor="start" x="617.57" y="-425" font-family="Arial" font-size="14.00" fill="#666666">[integer]</text>
<polygon fill="none" stroke="black" points="518.74,-382 518.74,-412.8 838.54,-412.8 838.54,-382 518.74,-382"/>
<text text-anchor="start" x="525.74" y="-394.2" font-family="Arial" font-size="14.00">chronologyid </text>
<text text-anchor="start" x="609.02" y="-394.2" font-family="Arial" font-size="14.00" fill="#666666">[integer]</text>
<polygon fill="none" stroke="black" points="518.74,-351.2 518.74,-382 838.54,-382 838.54,-351.2 518.74,-351.2"/>
<text text-anchor="start" x="525.74" y="-363.4" font-family="Arial" font-size="14.00">chroncontroltypeid </text>
<text text-anchor="start" x="644.03" y="-363.4" font-family="Arial" font-size="14.00" fill="#666666">[integer]</text>
<polygon fill="none" stroke="black" points="518.74,-320.4 518.74,-351.2 838.54,-351.2 838.54,-320.4 518.74,-320.4"/>
<text text-anchor="start" x="525.74" y="-332.6" font-family="Arial" font-size="14.00">depth </text>
<text text-anchor="start" x="564.67" y="-332.6" font-family="Arial" font-size="14.00" fill="#666666">[double precision]</text>
<polygon fill="none" stroke="black" points="518.74,-289.6 518.74,-320.4 838.54,-320.4 838.54,-289.6 518.74,-289.6"/>
<text text-anchor="start" x="525.74" y="-301.8" font-family="Arial" font-size="14.00">thickness </text>
<text text-anchor="start" x="587.99" y="-301.8" font-family="Arial" font-size="14.00" fill="#666666">[double precision]</text>
<polygon fill="none" stroke="black" points="518.74,-258.8 518.74,-289.6 838.54,-289.6 838.54,-258.8 518.74,-258.8"/>
<text text-anchor="start" x="525.74" y="-271" font-family="Arial" font-size="14.00">age </text>
<text text-anchor="start" x="552.99" y="-271" font-family="Arial" font-size="14.00" fill="#666666">[double precision]</text>
<polygon fill="none" stroke="black" points="518.74,-228 518.74,-258.8 838.54,-258.8 838.54,-228 518.74,-228"/>
<text text-anchor="start" x="525.74" y="-240.2" font-family="Arial" font-size="14.00">agelimityounger </text>
<text text-anchor="start" x="628.47" y="-240.2" font-family="Arial" font-size="14.00" fill="#666666">[double precision]</text>
<polygon fill="none" stroke="black" points="518.74,-197.2 518.74,-228 838.54,-228 838.54,-197.2 518.74,-197.2"/>
<text text-anchor="start" x="525.74" y="-209.4" font-family="Arial" font-size="14.00">agelimitolder </text>
<text text-anchor="start" x="609.01" y="-209.4" font-family="Arial" font-size="14.00" fill="#666666">[double precision]</text>
<polygon fill="none" stroke="black" points="518.74,-166.4 518.74,-197.2 838.54,-197.2 838.54,-166.4 518.74,-166.4"/>
<text text-anchor="start" x="525.74" y="-178.6" font-family="Arial" font-size="14.00">notes </text>
<text text-anchor="start" x="563.88" y="-178.6" font-family="Arial" font-size="14.00" fill="#666666">[text]</text>
<polygon fill="none" stroke="black" points="518.74,-135.6 518.74,-166.4 838.54,-166.4 838.54,-135.6 518.74,-135.6"/>
<text text-anchor="start" x="525.74" y="-147.8" font-family="Arial" font-size="14.00">recdatecreated </text>
<text text-anchor="start" x="623.03" y="-147.8" font-family="Arial" font-size="14.00" fill="#666666">[timestamp(0) without time zone]</text>
<polygon fill="none" stroke="black" points="518.74,-104.8 518.74,-135.6 838.54,-135.6 838.54,-104.8 518.74,-104.8"/>
<text text-anchor="start" x="525.74" y="-117" font-family="Arial" font-size="14.00">recdatemodified </text>
<text text-anchor="start" x="629.25" y="-117" font-family="Arial" font-size="14.00" fill="#666666">[timestamp(0) without time zone]</text>
<polygon fill="none" stroke="black" points="518.74,-74 518.74,-104.8 838.54,-104.8 838.54,-74 518.74,-74"/>
<text text-anchor="start" x="525.74" y="-86.2" font-family="Arial" font-size="14.00">analysisunitid </text>
<text text-anchor="start" x="613.68" y="-86.2" font-family="Arial" font-size="14.00" fill="#666666">[integer]</text>
<polygon fill="none" stroke="black" points="518.74,-43.2 518.74,-74 838.54,-74 838.54,-43.2 518.74,-43.2"/>
<text text-anchor="start" x="525.74" y="-55.4" font-family="Arial" font-size="14.00">agetypeid </text>
<text text-anchor="start" x="590.35" y="-55.4" font-family="Arial" font-size="14.00" fill="#666666">[integer]</text>
</g>
<!-- ndb.chroncontrolranks&#45;&gt;ndb.chroncontrols -->
<g id="edge2" class="edge">
<title>ndb.chroncontrolranks:chroncontrolid&#45;&gt;ndb.chroncontrols:chroncontrolid</title>
<path fill="none" stroke="black" d="M971.56,-827.78C927.21,-782.15 884.07,-428.2 839.54,-428.2"/>
<polygon fill="black" stroke="black" points="971.59,-827.79 978.36,-836.43 976.32,-830.28 980.15,-832.29 980.15,-832.29 980.15,-832.29 976.32,-830.28 982.54,-828.46 971.59,-827.79"/>
<text text-anchor="start" x="387.46" y="-842.6" font-family="Arial" font-size="10.00">FOREIGN KEY (chroncontrolid) REFERENCES ndb.chroncontrols(chroncontrolid) ON UPDATE CASCADE ON DELETE CASCADE</text>
</g>
<!-- ndb.chroncontrolaccuracydirections -->
<g id="node4" class="node">
<title>ndb.chroncontrolaccuracydirections</title>
<polygon fill="#efefef" stroke="none" points="943.2,-305 943.2,-340.6 1340.08,-340.6 1340.08,-305 943.2,-305"/>
<polygon fill="none" stroke="black" points="943.2,-305 943.2,-340.6 1340.08,-340.6 1340.08,-305 943.2,-305"/>
<text text-anchor="start" x="950.2" y="-318.4" font-family="Arial Bold" font-size="18.00">ndb.chroncontrolaccuracydirections</text>
<text text-anchor="start" x="1208.59" y="-318.4" font-family="Arial" font-size="14.00">    </text>
<text text-anchor="start" x="1239.71" y="-318.4" font-family="Arial" font-size="14.00" fill="#666666">[BASE TABLE]</text>
<polygon fill="none" stroke="black" points="943.2,-274.2 943.2,-305 1340.08,-305 1340.08,-274.2 943.2,-274.2"/>
<text text-anchor="start" x="950.2" y="-286.4" font-family="Arial" font-size="14.00">accuracydirectionid </text>
<text text-anchor="start" x="1073.93" y="-286.4" font-family="Arial" font-size="14.00" fill="#666666">[integer]</text>
<polygon fill="none" stroke="black" points="943.2,-243.4 943.2,-274.2 1340.08,-274.2 1340.08,-243.4 943.2,-243.4"/>
<text text-anchor="start" x="950.2" y="-255.6" font-family="Arial" font-size="14.00">accuracydirection </text>
<text text-anchor="start" x="1063.03" y="-255.6" font-family="Arial" font-size="14.00" fill="#666666">[varchar(80)]</text>
<polygon fill="none" stroke="black" points="943.2,-212.6 943.2,-243.4 1340.08,-243.4 1340.08,-212.6 943.2,-212.6"/>
<text text-anchor="start" x="950.2" y="-224.8" font-family="Arial" font-size="14.00">recdatecreated </text>
<text text-anchor="start" x="1047.49" y="-224.8" font-family="Arial" font-size="14.00" fill="#666666">[timestamp(0) without time zone]</text>
<polygon fill="none" stroke="black" points="943.2,-181.8 943.2,-212.6 1340.08,-212.6 1340.08,-181.8 943.2,-181.8"/>
<text text-anchor="start" x="950.2" y="-194" font-family="Arial" font-size="14.00">recdatemodified </text>
<text text-anchor="start" x="1053.71" y="-194" font-family="Arial" font-size="14.00" fill="#666666">[timestamp(0) without time zone]</text>
</g>
<!-- ndb.chroncontrolranks&#45;&gt;ndb.chroncontrolaccuracydirections -->
<g id="edge3" class="edge">
<title>ndb.chroncontrolranks:accuracydirectionid&#45;&gt;ndb.chroncontrolaccuracydirections:accuracydirectionid</title>
<path fill="none" stroke="black" d="M1311.8,-766.24C1360.4,-716.24 1391.6,-289.6 1341.08,-289.6"/>
<polygon fill="black" stroke="black" points="1311.73,-766.27 1300.78,-766.85 1306.99,-768.71 1303.14,-770.69 1303.14,-770.69 1303.14,-770.69 1306.99,-768.71 1304.9,-774.85 1311.73,-766.27"/>
<text text-anchor="start" x="1309.54" y="-781" font-family="Arial" font-size="10.00">FOREIGN KEY (accuracydirectionid) REFERENCES ndb.chroncontrolaccuracydirections(accuracydirectionid) ON UPDATE CASCADE ON DELETE CASCADE</text>
</g>
<!-- ndb.chroncontrolaccuracydistributions -->
<g id="node5" class="node">
<title>ndb.chroncontrolaccuracydistributions</title>
<polygon fill="#efefef" stroke="none" points="1444.69,-305 1444.69,-340.6 1860.6,-340.6 1860.6,-305 1444.69,-305"/>
<polygon fill="none" stroke="black" points="1444.69,-305 1444.69,-340.6 1860.6,-340.6 1860.6,-305 1444.69,-305"/>
<text text-anchor="start" x="1451.69" y="-318.4" font-family="Arial Bold" font-size="18.00">ndb.chroncontrolaccuracydistributions</text>
<text text-anchor="start" x="1729.11" y="-318.4" font-family="Arial" font-size="14.00">    </text>
<text text-anchor="start" x="1760.22" y="-318.4" font-family="Arial" font-size="14.00" fill="#666666">[BASE TABLE]</text>
<polygon fill="none" stroke="black" points="1444.69,-274.2 1444.69,-305 1860.6,-305 1860.6,-274.2 1444.69,-274.2"/>
<text text-anchor="start" x="1451.69" y="-286.4" font-family="Arial" font-size="14.00">accuracydistributionid </text>
<text text-anchor="start" x="1590.2" y="-286.4" font-family="Arial" font-size="14.00" fill="#666666">[integer]</text>
<polygon fill="none" stroke="black" points="1444.69,-243.4 1444.69,-274.2 1860.6,-274.2 1860.6,-243.4 1444.69,-243.4"/>
<text text-anchor="start" x="1451.69" y="-255.6" font-family="Arial" font-size="14.00">accuracydistribution </text>
<text text-anchor="start" x="1579.3" y="-255.6" font-family="Arial" font-size="14.00" fill="#666666">[varchar(40)]</text>
<polygon fill="none" stroke="black" points="1444.69,-212.6 1444.69,-243.4 1860.6,-243.4 1860.6,-212.6 1444.69,-212.6"/>
<text text-anchor="start" x="1451.69" y="-224.8" font-family="Arial" font-size="14.00">recdatecreated </text>
<text text-anchor="start" x="1548.97" y="-224.8" font-family="Arial" font-size="14.00" fill="#666666">[timestamp(0) without time zone]</text>
<polygon fill="none" stroke="black" points="1444.69,-181.8 1444.69,-212.6 1860.6,-212.6 1860.6,-181.8 1444.69,-181.8"/>
<text text-anchor="start" x="1451.69" y="-194" font-family="Arial" font-size="14.00">recdatemodified </text>
<text text-anchor="start" x="1555.19" y="-194" font-family="Arial" font-size="14.00" fill="#666666">[timestamp(0) without time zone]</text>
</g>
<!-- ndb.chroncontrolranks&#45;&gt;ndb.chroncontrolaccuracydistributions -->
<g id="edge4" class="edge">
<title>ndb.chroncontrolranks:accuracydistributionid&#45;&gt;ndb.chroncontrolaccuracydistributions:accuracydistributionid</title>
<path fill="none" stroke="black" d="M1312.77,-739.79C1404.24,-732.16 1362.35,-618.93 1392.64,-522.4 1408.5,-471.87 1390.73,-289.6 1443.69,-289.6"/>
<polygon fill="black" stroke="black" points="1312.87,-739.79 1302.7,-735.69 1307.54,-740 1303.21,-740.17 1303.21,-740.17 1303.21,-740.17 1307.54,-740 1303.06,-744.68 1312.87,-739.79"/>
<text text-anchor="start" x="1309.54" y="-750.2" font-family="Arial" font-size="10.00">FOREIGN KEY (accuracydistributionid) REFERENCES ndb.chroncontrolaccuracydistributions(accuracydistributionid) ON UPDATE CASCADE ON DELETE CASCADE</text>
</g>
<!-- ndb.chroncontrolprecisionranks -->
<g id="node6" class="node">
<title>ndb.chroncontrolprecisionranks</title>
<polygon fill="#efefef" stroke="none" points="1965.18,-305 1965.18,-340.6 2332.11,-340.6 2332.11,-305 1965.18,-305"/>
<polygon fill="none" stroke="black" points="1965.18,-305 1965.18,-340.6 2332.11,-340.6 2332.11,-305 1965.18,-305"/>
<text text-anchor="start" x="1972.18" y="-318.4" font-family="Arial Bold" font-size="18.00">ndb.chroncontrolprecisionranks</text>
<text text-anchor="start" x="2200.62" y="-318.4" font-family="Arial" font-size="14.00">    </text>
<text text-anchor="start" x="2231.73" y="-318.4" font-family="Arial" font-size="14.00" fill="#666666">[BASE TABLE]</text>
<polygon fill="none" stroke="black" points="1965.18,-274.2 1965.18,-305 2332.11,-305 2332.11,-274.2 1965.18,-274.2"/>
<text text-anchor="start" x="1972.18" y="-286.4" font-family="Arial" font-size="14.00">precisionrankid </text>
<text text-anchor="start" x="2070.23" y="-286.4" font-family="Arial" font-size="14.00" fill="#666666">[integer]</text>
<polygon fill="none" stroke="black" points="1965.18,-243.4 1965.18,-274.2 2332.11,-274.2 2332.11,-243.4 1965.18,-243.4"/>
<text text-anchor="start" x="1972.18" y="-255.6" font-family="Arial" font-size="14.00">precisionrank </text>
<text text-anchor="start" x="2059.33" y="-255.6" font-family="Arial" font-size="14.00" fill="#666666">[varchar(255)]</text>
<polygon fill="none" stroke="black" points="1965.18,-212.6 1965.18,-243.4 2332.11,-243.4 2332.11,-212.6 1965.18,-212.6"/>
<text text-anchor="start" x="1972.18" y="-224.8" font-family="Arial" font-size="14.00">recdatecreated </text>
<text text-anchor="start" x="2069.46" y="-224.8" font-family="Arial" font-size="14.00" fill="#666666">[timestamp(0) without time zone]</text>
<polygon fill="none" stroke="black" points="1965.18,-181.8 1965.18,-212.6 2332.11,-212.6 2332.11,-181.8 1965.18,-181.8"/>
<text text-anchor="start" x="1972.18" y="-194" font-family="Arial" font-size="14.00">recdatemodified </text>
<text text-anchor="start" x="2075.68" y="-194" font-family="Arial" font-size="14.00" fill="#666666">[timestamp(0) without time zone]</text>
</g>
<!-- ndb.chroncontrolranks&#45;&gt;ndb.chroncontrolprecisionranks -->
<g id="edge5" class="edge">
<title>ndb.chroncontrolranks:precisionrankid&#45;&gt;ndb.chroncontrolprecisionranks:precisionrankid</title>
<path fill="none" stroke="black" d="M1312.89,-709.26C1461.64,-705.51 1818.69,-624.14 1912.64,-522.4 1984.54,-444.55 1858.21,-289.6 1964.18,-289.6"/>
<polygon fill="black" stroke="black" points="1312.88,-709.26 1302.82,-704.9 1307.54,-709.33 1303.21,-709.39 1303.21,-709.39 1303.21,-709.39 1307.54,-709.33 1302.94,-713.9 1312.88,-709.26"/>
<text text-anchor="start" x="1309.54" y="-719.4" font-family="Arial" font-size="10.00">FOREIGN KEY (precisionrankid) REFERENCES ndb.chroncontrolprecisionranks(precisionrankid) ON UPDATE CASCADE ON DELETE CASCADE</text>
</g>
</g>
</svg>
