<?xml version="1.0" encoding="UTF-8" standalone="no"?>
<!DOCTYPE svg PUBLIC "-//W3C//DTD SVG 1.1//EN"
 "http://www.w3.org/Graphics/SVG/1.1/DTD/svg11.dtd">
<!-- Generated by graphviz version 12.1.2 (20240928.0832)
 -->
<!-- Title: ndb.isovariablescaletypes Pages: 1 -->
<svg width="3275pt" height="1401pt"
 viewBox="0.00 0.00 3275.10 1400.80" xmlns="http://www.w3.org/2000/svg" xmlns:xlink="http://www.w3.org/1999/xlink">
<g id="graph0" class="graph" transform="scale(1 1) rotate(0) translate(4 1396.8)">
<title>ndb.isovariablescaletypes</title>
<polygon fill="white" stroke="none" points="-4,4 -4,-1396.8 3271.1,-1396.8 3271.1,4 -4,4"/>
<!-- ndb.isovariablescaletypes -->
<g id="node1" class="node">
<title>ndb.isovariablescaletypes</title>
<polygon fill="#efefef" stroke="none" points="2342.89,-1221.6 2342.89,-1257.2 2665.82,-1257.2 2665.82,-1221.6 2342.89,-1221.6"/>
<polygon fill="none" stroke="black" points="2342.89,-1221.6 2342.89,-1257.2 2665.82,-1257.2 2665.82,-1221.6 2342.89,-1221.6"/>
<text text-anchor="start" x="2349.89" y="-1235" font-family="Arial Bold" font-size="18.00">ndb.isovariablescaletypes</text>
<text text-anchor="start" x="2534.33" y="-1235" font-family="Arial" font-size="14.00">    </text>
<text text-anchor="start" x="2565.45" y="-1235" font-family="Arial" font-size="14.00" fill="#666666">[BASE TABLE]</text>
<polygon fill="none" stroke="black" points="2342.89,-1190.8 2342.89,-1221.6 2665.82,-1221.6 2665.82,-1190.8 2342.89,-1190.8"/>
<text text-anchor="start" x="2349.89" y="-1203" font-family="Arial" font-size="14.00">variableid </text>
<text text-anchor="start" x="2413.71" y="-1203" font-family="Arial" font-size="14.00" fill="#666666">[integer]</text>
<polygon fill="none" stroke="black" points="2342.89,-1160 2342.89,-1190.8 2665.82,-1190.8 2665.82,-1160 2342.89,-1160"/>
<text text-anchor="start" x="2349.89" y="-1172.2" font-family="Arial" font-size="14.00">isoscaletypeid </text>
<text text-anchor="start" x="2441.72" y="-1172.2" font-family="Arial" font-size="14.00" fill="#666666">[integer]</text>
<polygon fill="none" stroke="black" points="2342.89,-1129.2 2342.89,-1160 2665.82,-1160 2665.82,-1129.2 2342.89,-1129.2"/>
<text text-anchor="start" x="2349.89" y="-1141.4" font-family="Arial" font-size="14.00">recdatecreated </text>
<text text-anchor="start" x="2447.17" y="-1141.4" font-family="Arial" font-size="14.00" fill="#666666">[timestamp(0) without time zone]</text>
<polygon fill="none" stroke="black" points="2342.89,-1098.4 2342.89,-1129.2 2665.82,-1129.2 2665.82,-1098.4 2342.89,-1098.4"/>
<text text-anchor="start" x="2349.89" y="-1110.6" font-family="Arial" font-size="14.00">recdatemodified </text>
<text text-anchor="start" x="2453.39" y="-1110.6" font-family="Arial" font-size="14.00" fill="#666666">[timestamp(0) without time zone]</text>
<polygon fill="none" stroke="black" stroke-width="3" points="2341.39,-1096.9 2341.39,-1258.7 2667.32,-1258.7 2667.32,-1096.9 2341.39,-1096.9"/>
</g>
<!-- ndb.variables -->
<g id="node2" class="node">
<title>ndb.variables</title>
<polygon fill="#efefef" stroke="none" points="1279.46,-848 1279.46,-883.6 1599.25,-883.6 1599.25,-848 1279.46,-848"/>
<polygon fill="none" stroke="black" points="1279.46,-848 1279.46,-883.6 1599.25,-883.6 1599.25,-848 1279.46,-848"/>
<text text-anchor="start" x="1328.88" y="-861.4" font-family="Arial Bold" font-size="18.00">ndb.variables</text>
<text text-anchor="start" x="1425.35" y="-861.4" font-family="Arial" font-size="14.00">    </text>
<text text-anchor="start" x="1456.46" y="-861.4" font-family="Arial" font-size="14.00" fill="#666666">[BASE TABLE]</text>
<polygon fill="none" stroke="black" points="1279.46,-817.2 1279.46,-848 1599.25,-848 1599.25,-817.2 1279.46,-817.2"/>
<text text-anchor="start" x="1286.46" y="-829.4" font-family="Arial" font-size="14.00">variableid </text>
<text text-anchor="start" x="1350.27" y="-829.4" font-family="Arial" font-size="14.00" fill="#666666">[integer]</text>
<polygon fill="none" stroke="black" points="1279.46,-786.4 1279.46,-817.2 1599.25,-817.2 1599.25,-786.4 1279.46,-786.4"/>
<text text-anchor="start" x="1286.46" y="-798.6" font-family="Arial" font-size="14.00">taxonid </text>
<text text-anchor="start" x="1335.49" y="-798.6" font-family="Arial" font-size="14.00" fill="#666666">[integer]</text>
<polygon fill="none" stroke="black" points="1279.46,-755.6 1279.46,-786.4 1599.25,-786.4 1599.25,-755.6 1279.46,-755.6"/>
<text text-anchor="start" x="1286.46" y="-767.8" font-family="Arial" font-size="14.00">variableelementid </text>
<text text-anchor="start" x="1400.08" y="-767.8" font-family="Arial" font-size="14.00" fill="#666666">[integer]</text>
<polygon fill="none" stroke="black" points="1279.46,-724.8 1279.46,-755.6 1599.25,-755.6 1599.25,-724.8 1279.46,-724.8"/>
<text text-anchor="start" x="1286.46" y="-737" font-family="Arial" font-size="14.00">variableunitsid </text>
<text text-anchor="start" x="1379.84" y="-737" font-family="Arial" font-size="14.00" fill="#666666">[integer]</text>
<polygon fill="none" stroke="black" points="1279.46,-694 1279.46,-724.8 1599.25,-724.8 1599.25,-694 1279.46,-694"/>
<text text-anchor="start" x="1286.46" y="-706.2" font-family="Arial" font-size="14.00">variablecontextid </text>
<text text-anchor="start" x="1395.41" y="-706.2" font-family="Arial" font-size="14.00" fill="#666666">[integer]</text>
<polygon fill="none" stroke="black" points="1279.46,-663.2 1279.46,-694 1599.25,-694 1599.25,-663.2 1279.46,-663.2"/>
<text text-anchor="start" x="1286.46" y="-675.4" font-family="Arial" font-size="14.00">recdatecreated </text>
<text text-anchor="start" x="1383.74" y="-675.4" font-family="Arial" font-size="14.00" fill="#666666">[timestamp(0) without time zone]</text>
<polygon fill="none" stroke="black" points="1279.46,-632.4 1279.46,-663.2 1599.25,-663.2 1599.25,-632.4 1279.46,-632.4"/>
<text text-anchor="start" x="1286.46" y="-644.6" font-family="Arial" font-size="14.00">recdatemodified </text>
<text text-anchor="start" x="1389.96" y="-644.6" font-family="Arial" font-size="14.00" fill="#666666">[timestamp(0) without time zone]</text>
</g>
<!-- ndb.isovariablescaletypes&#45;&gt;ndb.variables -->
<g id="edge1" class="edge">
<title>ndb.isovariablescaletypes:variableid&#45;&gt;ndb.variables:variableid</title>
<path fill="none" stroke="black" d="M2331.65,-1205.66C2239.83,-1195.25 2364.39,-1037.32 2287.36,-962.8 2175.66,-854.75 1755.66,-832.6 1600.25,-832.6"/>
<polygon fill="black" stroke="black" points="2331.57,-1205.66 2341.32,-1210.68 2336.9,-1205.94 2341.22,-1206.16 2341.22,-1206.16 2341.22,-1206.16 2336.9,-1205.94 2341.79,-1201.69 2331.57,-1205.66"/>
<text text-anchor="start" x="2348.89" y="-1216.2" font-family="Arial" font-size="10.00">FOREIGN KEY (variableid) REFERENCES ndb.variables(variableid) ON UPDATE CASCADE ON DELETE CASCADE</text>
</g>
<!-- ndb.isoscaletypes -->
<g id="node12" class="node">
<title>ndb.isoscaletypes</title>
<polygon fill="#efefef" stroke="none" points="2344.46,-817.2 2344.46,-852.8 2664.25,-852.8 2664.25,-817.2 2344.46,-817.2"/>
<polygon fill="none" stroke="black" points="2344.46,-817.2 2344.46,-852.8 2664.25,-852.8 2664.25,-817.2 2344.46,-817.2"/>
<text text-anchor="start" x="2378.87" y="-830.6" font-family="Arial Bold" font-size="18.00">ndb.isoscaletypes</text>
<text text-anchor="start" x="2505.35" y="-830.6" font-family="Arial" font-size="14.00">    </text>
<text text-anchor="start" x="2536.47" y="-830.6" font-family="Arial" font-size="14.00" fill="#666666">[BASE TABLE]</text>
<polygon fill="none" stroke="black" points="2344.46,-786.4 2344.46,-817.2 2664.25,-817.2 2664.25,-786.4 2344.46,-786.4"/>
<text text-anchor="start" x="2351.46" y="-798.6" font-family="Arial" font-size="14.00">isoscaletypeid </text>
<text text-anchor="start" x="2443.28" y="-798.6" font-family="Arial" font-size="14.00" fill="#666666">[integer]</text>
<polygon fill="none" stroke="black" points="2344.46,-755.6 2344.46,-786.4 2664.25,-786.4 2664.25,-755.6 2344.46,-755.6"/>
<text text-anchor="start" x="2351.46" y="-767.8" font-family="Arial" font-size="14.00">isoscaleacronym </text>
<text text-anchor="start" x="2459.61" y="-767.8" font-family="Arial" font-size="14.00" fill="#666666">[varchar(24)]</text>
<polygon fill="none" stroke="black" points="2344.46,-724.8 2344.46,-755.6 2664.25,-755.6 2664.25,-724.8 2344.46,-724.8"/>
<text text-anchor="start" x="2351.46" y="-737" font-family="Arial" font-size="14.00">isoscalename </text>
<text text-anchor="start" x="2440.95" y="-737" font-family="Arial" font-size="14.00" fill="#666666">[varchar(80)]</text>
<polygon fill="none" stroke="black" points="2344.46,-694 2344.46,-724.8 2664.25,-724.8 2664.25,-694 2344.46,-694"/>
<text text-anchor="start" x="2351.46" y="-706.2" font-family="Arial" font-size="14.00">recdatecreated </text>
<text text-anchor="start" x="2448.74" y="-706.2" font-family="Arial" font-size="14.00" fill="#666666">[timestamp(0) without time zone]</text>
<polygon fill="none" stroke="black" points="2344.46,-663.2 2344.46,-694 2664.25,-694 2664.25,-663.2 2344.46,-663.2"/>
<text text-anchor="start" x="2351.46" y="-675.4" font-family="Arial" font-size="14.00">recdatemodified </text>
<text text-anchor="start" x="2454.96" y="-675.4" font-family="Arial" font-size="14.00" fill="#666666">[timestamp(0) without time zone]</text>
</g>
<!-- ndb.isovariablescaletypes&#45;&gt;ndb.isoscaletypes -->
<g id="edge11" class="edge">
<title>ndb.isovariablescaletypes:isoscaletypeid&#45;&gt;ndb.isoscaletypes:isoscaletypeid</title>
<path fill="none" stroke="black" d="M2677.05,-1173.39C2749.56,-1143.98 2744.71,-801.8 2665.25,-801.8"/>
<polygon fill="black" stroke="black" points="2676.96,-1173.41 2666.28,-1170.92 2671.73,-1174.44 2667.48,-1175.27 2667.48,-1175.27 2667.48,-1175.27 2671.73,-1174.44 2668.01,-1179.75 2676.96,-1173.41"/>
<text text-anchor="start" x="2673.82" y="-1185.4" font-family="Arial" font-size="10.00">FOREIGN KEY (isoscaletypeid) REFERENCES ndb.isoscaletypes(isoscaletypeid) ON UPDATE CASCADE ON DELETE CASCADE</text>
</g>
<!-- ndb.taxa -->
<g id="node8" class="node">
<title>ndb.taxa</title>
<polygon fill="#efefef" stroke="none" points="643.46,-474.4 643.46,-510 963.25,-510 963.25,-474.4 643.46,-474.4"/>
<polygon fill="none" stroke="black" points="643.46,-474.4 643.46,-510 963.25,-510 963.25,-474.4 643.46,-474.4"/>
<text text-anchor="start" x="710.37" y="-487.8" font-family="Arial Bold" font-size="18.00">ndb.taxa</text>
<text text-anchor="start" x="771.85" y="-487.8" font-family="Arial" font-size="14.00">    </text>
<text text-anchor="start" x="802.97" y="-487.8" font-family="Arial" font-size="14.00" fill="#666666">[BASE TABLE]</text>
<polygon fill="none" stroke="black" points="643.46,-443.6 643.46,-474.4 963.25,-474.4 963.25,-443.6 643.46,-443.6"/>
<text text-anchor="start" x="650.46" y="-455.8" font-family="Arial" font-size="14.00">taxonid </text>
<text text-anchor="start" x="699.49" y="-455.8" font-family="Arial" font-size="14.00" fill="#666666">[integer]</text>
<polygon fill="none" stroke="black" points="643.46,-412.8 643.46,-443.6 963.25,-443.6 963.25,-412.8 643.46,-412.8"/>
<text text-anchor="start" x="650.46" y="-425" font-family="Arial" font-size="14.00">taxoncode </text>
<text text-anchor="start" x="718.95" y="-425" font-family="Arial" font-size="14.00" fill="#666666">[varchar(64)]</text>
<polygon fill="none" stroke="black" points="643.46,-382 643.46,-412.8 963.25,-412.8 963.25,-382 643.46,-382"/>
<text text-anchor="start" x="650.46" y="-394.2" font-family="Arial" font-size="14.00">taxonname </text>
<text text-anchor="start" x="723.61" y="-394.2" font-family="Arial" font-size="14.00" fill="#666666">[text]</text>
<polygon fill="none" stroke="black" points="643.46,-351.2 643.46,-382 963.25,-382 963.25,-351.2 643.46,-351.2"/>
<text text-anchor="start" x="650.46" y="-363.4" font-family="Arial" font-size="14.00">author </text>
<text text-anchor="start" x="694.04" y="-363.4" font-family="Arial" font-size="14.00" fill="#666666">[varchar(128)]</text>
<polygon fill="none" stroke="black" points="643.46,-320.4 643.46,-351.2 963.25,-351.2 963.25,-320.4 643.46,-320.4"/>
<text text-anchor="start" x="650.46" y="-332.6" font-family="Arial" font-size="14.00">valid </text>
<text text-anchor="start" x="683.14" y="-332.6" font-family="Arial" font-size="14.00" fill="#666666">[boolean]</text>
<polygon fill="none" stroke="black" points="643.46,-289.6 643.46,-320.4 963.25,-320.4 963.25,-289.6 643.46,-289.6"/>
<text text-anchor="start" x="650.46" y="-301.8" font-family="Arial" font-size="14.00">highertaxonid </text>
<text text-anchor="start" x="738.41" y="-301.8" font-family="Arial" font-size="14.00" fill="#666666">[integer]</text>
<polygon fill="none" stroke="black" points="643.46,-258.8 643.46,-289.6 963.25,-289.6 963.25,-258.8 643.46,-258.8"/>
<text text-anchor="start" x="650.46" y="-271" font-family="Arial" font-size="14.00">extinct </text>
<text text-anchor="start" x="694.81" y="-271" font-family="Arial" font-size="14.00" fill="#666666">[boolean]</text>
<polygon fill="none" stroke="black" points="643.46,-228 643.46,-258.8 963.25,-258.8 963.25,-228 643.46,-228"/>
<text text-anchor="start" x="650.46" y="-240.2" font-family="Arial" font-size="14.00">taxagroupid </text>
<text text-anchor="start" x="727.51" y="-240.2" font-family="Arial" font-size="14.00" fill="#666666">[varchar(3)]</text>
<polygon fill="none" stroke="black" points="643.46,-197.2 643.46,-228 963.25,-228 963.25,-197.2 643.46,-197.2"/>
<text text-anchor="start" x="650.46" y="-209.4" font-family="Arial" font-size="14.00">publicationid </text>
<text text-anchor="start" x="732.18" y="-209.4" font-family="Arial" font-size="14.00" fill="#666666">[integer]</text>
<polygon fill="none" stroke="black" points="643.46,-166.4 643.46,-197.2 963.25,-197.2 963.25,-166.4 643.46,-166.4"/>
<text text-anchor="start" x="650.46" y="-178.6" font-family="Arial" font-size="14.00">validatorid </text>
<text text-anchor="start" x="718.16" y="-178.6" font-family="Arial" font-size="14.00" fill="#666666">[integer]</text>
<polygon fill="none" stroke="black" points="643.46,-135.6 643.46,-166.4 963.25,-166.4 963.25,-135.6 643.46,-135.6"/>
<text text-anchor="start" x="650.46" y="-147.8" font-family="Arial" font-size="14.00">validatedate </text>
<text text-anchor="start" x="729.85" y="-147.8" font-family="Arial" font-size="14.00" fill="#666666">[date]</text>
<polygon fill="none" stroke="black" points="643.46,-104.8 643.46,-135.6 963.25,-135.6 963.25,-104.8 643.46,-104.8"/>
<text text-anchor="start" x="650.46" y="-117" font-family="Arial" font-size="14.00">notes </text>
<text text-anchor="start" x="688.59" y="-117" font-family="Arial" font-size="14.00" fill="#666666">[text]</text>
<polygon fill="none" stroke="black" points="643.46,-74 643.46,-104.8 963.25,-104.8 963.25,-74 643.46,-74"/>
<text text-anchor="start" x="650.46" y="-86.2" font-family="Arial" font-size="14.00">recdatecreated </text>
<text text-anchor="start" x="747.74" y="-86.2" font-family="Arial" font-size="14.00" fill="#666666">[timestamp(0) without time zone]</text>
<polygon fill="none" stroke="black" points="643.46,-43.2 643.46,-74 963.25,-74 963.25,-43.2 643.46,-43.2"/>
<text text-anchor="start" x="650.46" y="-55.4" font-family="Arial" font-size="14.00">recdatemodified </text>
<text text-anchor="start" x="753.96" y="-55.4" font-family="Arial" font-size="14.00" fill="#666666">[timestamp(0) without time zone]</text>
</g>
<!-- ndb.variables&#45;&gt;ndb.taxa -->
<g id="edge7" class="edge">
<title>ndb.variables:taxonid&#45;&gt;ndb.taxa:taxonid</title>
<path fill="none" stroke="black" d="M1268.3,-801.63C1117.36,-796.6 1111.3,-678 1015.36,-553.2 986.33,-515.44 1011.88,-459 964.25,-459"/>
<polygon fill="black" stroke="black" points="1268.12,-801.63 1278.05,-806.29 1273.46,-801.72 1277.79,-801.79 1277.79,-801.79 1277.79,-801.79 1273.46,-801.72 1278.2,-797.3 1268.12,-801.63"/>
<text text-anchor="start" x="787.43" y="-811.8" font-family="Arial" font-size="10.00">FOREIGN KEY (taxonid) REFERENCES ndb.taxa(taxonid) ON UPDATE CASCADE ON DELETE CASCADE</text>
</g>
<!-- ndb.variableelements -->
<g id="node9" class="node">
<title>ndb.variableelements</title>
<polygon fill="#efefef" stroke="none" points="1067.46,-382 1067.46,-417.6 1387.25,-417.6 1387.25,-382 1067.46,-382"/>
<polygon fill="none" stroke="black" points="1067.46,-382 1067.46,-417.6 1387.25,-417.6 1387.25,-382 1067.46,-382"/>
<text text-anchor="start" x="1088.39" y="-395.4" font-family="Arial Bold" font-size="18.00">ndb.variableelements</text>
<text text-anchor="start" x="1241.83" y="-395.4" font-family="Arial" font-size="14.00">    </text>
<text text-anchor="start" x="1272.95" y="-395.4" font-family="Arial" font-size="14.00" fill="#666666">[BASE TABLE]</text>
<polygon fill="none" stroke="black" points="1067.46,-351.2 1067.46,-382 1387.25,-382 1387.25,-351.2 1067.46,-351.2"/>
<text text-anchor="start" x="1074.46" y="-363.4" font-family="Arial" font-size="14.00">variableelementid </text>
<text text-anchor="start" x="1188.08" y="-363.4" font-family="Arial" font-size="14.00" fill="#666666">[integer]</text>
<polygon fill="none" stroke="black" points="1067.46,-320.4 1067.46,-351.2 1387.25,-351.2 1387.25,-320.4 1067.46,-320.4"/>
<text text-anchor="start" x="1074.46" y="-332.6" font-family="Arial" font-size="14.00">variableelement </text>
<text text-anchor="start" x="1177.18" y="-332.6" font-family="Arial" font-size="14.00" fill="#666666">[varchar(255)]</text>
<polygon fill="none" stroke="black" points="1067.46,-289.6 1067.46,-320.4 1387.25,-320.4 1387.25,-289.6 1067.46,-289.6"/>
<text text-anchor="start" x="1074.46" y="-301.8" font-family="Arial" font-size="14.00">elementtypeid </text>
<text text-anchor="start" x="1165.51" y="-301.8" font-family="Arial" font-size="14.00" fill="#666666">[integer]</text>
<polygon fill="none" stroke="black" points="1067.46,-258.8 1067.46,-289.6 1387.25,-289.6 1387.25,-258.8 1067.46,-258.8"/>
<text text-anchor="start" x="1074.46" y="-271" font-family="Arial" font-size="14.00">symmetryid </text>
<text text-anchor="start" x="1149.9" y="-271" font-family="Arial" font-size="14.00" fill="#666666">[integer]</text>
<polygon fill="none" stroke="black" points="1067.46,-228 1067.46,-258.8 1387.25,-258.8 1387.25,-228 1067.46,-228"/>
<text text-anchor="start" x="1074.46" y="-240.2" font-family="Arial" font-size="14.00">portionid </text>
<text text-anchor="start" x="1132.05" y="-240.2" font-family="Arial" font-size="14.00" fill="#666666">[integer]</text>
<polygon fill="none" stroke="black" points="1067.46,-197.2 1067.46,-228 1387.25,-228 1387.25,-197.2 1067.46,-197.2"/>
<text text-anchor="start" x="1074.46" y="-209.4" font-family="Arial" font-size="14.00">maturityid </text>
<text text-anchor="start" x="1139.03" y="-209.4" font-family="Arial" font-size="14.00" fill="#666666">[integer]</text>
<polygon fill="none" stroke="black" points="1067.46,-166.4 1067.46,-197.2 1387.25,-197.2 1387.25,-166.4 1067.46,-166.4"/>
<text text-anchor="start" x="1074.46" y="-178.6" font-family="Arial" font-size="14.00">recdatecreated </text>
<text text-anchor="start" x="1171.74" y="-178.6" font-family="Arial" font-size="14.00" fill="#666666">[timestamp(0) without time zone]</text>
<polygon fill="none" stroke="black" points="1067.46,-135.6 1067.46,-166.4 1387.25,-166.4 1387.25,-135.6 1067.46,-135.6"/>
<text text-anchor="start" x="1074.46" y="-147.8" font-family="Arial" font-size="14.00">recdatemodified </text>
<text text-anchor="start" x="1177.96" y="-147.8" font-family="Arial" font-size="14.00" fill="#666666">[timestamp(0) without time zone]</text>
</g>
<!-- ndb.variables&#45;&gt;ndb.variableelements -->
<g id="edge8" class="edge">
<title>ndb.variables:variableelementid&#45;&gt;ndb.variableelements:variableelementid</title>
<path fill="none" stroke="black" d="M1268.2,-770.83C1053.9,-763.44 1365.69,-519.06 1387.25,-460.8 1401.79,-421.53 1430.12,-366.6 1388.25,-366.6"/>
<polygon fill="black" stroke="black" points="1268.12,-770.83 1278.05,-775.49 1273.46,-770.92 1277.79,-770.99 1277.79,-770.99 1277.79,-770.99 1273.46,-770.92 1278.2,-766.5 1268.12,-770.83"/>
<text text-anchor="start" x="638.47" y="-781" font-family="Arial" font-size="10.00">FOREIGN KEY (variableelementid) REFERENCES ndb.variableelements(variableelementid) ON UPDATE CASCADE ON DELETE CASCADE</text>
</g>
<!-- ndb.variableunits -->
<g id="node10" class="node">
<title>ndb.variableunits</title>
<polygon fill="#efefef" stroke="none" points="1491.46,-320.4 1491.46,-356 1811.25,-356 1811.25,-320.4 1491.46,-320.4"/>
<polygon fill="none" stroke="black" points="1491.46,-320.4 1491.46,-356 1811.25,-356 1811.25,-320.4 1491.46,-320.4"/>
<text text-anchor="start" x="1526.88" y="-333.8" font-family="Arial Bold" font-size="18.00">ndb.variableunits</text>
<text text-anchor="start" x="1651.35" y="-333.8" font-family="Arial" font-size="14.00">    </text>
<text text-anchor="start" x="1682.46" y="-333.8" font-family="Arial" font-size="14.00" fill="#666666">[BASE TABLE]</text>
<polygon fill="none" stroke="black" points="1491.46,-289.6 1491.46,-320.4 1811.25,-320.4 1811.25,-289.6 1491.46,-289.6"/>
<text text-anchor="start" x="1498.46" y="-301.8" font-family="Arial" font-size="14.00">variableunitsid </text>
<text text-anchor="start" x="1591.84" y="-301.8" font-family="Arial" font-size="14.00" fill="#666666">[integer]</text>
<polygon fill="none" stroke="black" points="1491.46,-258.8 1491.46,-289.6 1811.25,-289.6 1811.25,-258.8 1491.46,-258.8"/>
<text text-anchor="start" x="1498.46" y="-271" font-family="Arial" font-size="14.00">variableunits </text>
<text text-anchor="start" x="1580.95" y="-271" font-family="Arial" font-size="14.00" fill="#666666">[varchar(64)]</text>
<polygon fill="none" stroke="black" points="1491.46,-228 1491.46,-258.8 1811.25,-258.8 1811.25,-228 1491.46,-228"/>
<text text-anchor="start" x="1498.46" y="-240.2" font-family="Arial" font-size="14.00">recdatecreated </text>
<text text-anchor="start" x="1595.74" y="-240.2" font-family="Arial" font-size="14.00" fill="#666666">[timestamp(0) without time zone]</text>
<polygon fill="none" stroke="black" points="1491.46,-197.2 1491.46,-228 1811.25,-228 1811.25,-197.2 1491.46,-197.2"/>
<text text-anchor="start" x="1498.46" y="-209.4" font-family="Arial" font-size="14.00">recdatemodified </text>
<text text-anchor="start" x="1601.96" y="-209.4" font-family="Arial" font-size="14.00" fill="#666666">[timestamp(0) without time zone]</text>
</g>
<!-- ndb.variables&#45;&gt;ndb.variableunits -->
<g id="edge9" class="edge">
<title>ndb.variables:variableunitsid&#45;&gt;ndb.variableunits:variableunitsid</title>
<path fill="none" stroke="black" d="M1610.55,-739.39C1661.72,-730.51 1615.61,-650.36 1599.25,-589.2 1574.17,-495.41 1516.73,-492.94 1491.46,-399.2 1480.56,-358.77 1448.59,-305 1490.46,-305"/>
<polygon fill="black" stroke="black" points="1610.56,-739.39 1600.24,-735.69 1605.24,-739.81 1600.92,-740.15 1600.92,-740.15 1600.92,-740.15 1605.24,-739.81 1600.94,-744.66 1610.56,-739.39"/>
<text text-anchor="start" x="1607.25" y="-750.2" font-family="Arial" font-size="10.00">FOREIGN KEY (variableunitsid) REFERENCES ndb.variableunits(variableunitsid) ON UPDATE CASCADE ON DELETE CASCADE</text>
</g>
<!-- ndb.variablecontexts -->
<g id="node11" class="node">
<title>ndb.variablecontexts</title>
<polygon fill="#efefef" stroke="none" points="1915.46,-320.4 1915.46,-356 2235.25,-356 2235.25,-320.4 1915.46,-320.4"/>
<polygon fill="none" stroke="black" points="1915.46,-320.4 1915.46,-356 2235.25,-356 2235.25,-320.4 1915.46,-320.4"/>
<text text-anchor="start" x="1938.39" y="-333.8" font-family="Arial Bold" font-size="18.00">ndb.variablecontexts</text>
<text text-anchor="start" x="2087.84" y="-333.8" font-family="Arial" font-size="14.00">    </text>
<text text-anchor="start" x="2118.95" y="-333.8" font-family="Arial" font-size="14.00" fill="#666666">[BASE TABLE]</text>
<polygon fill="none" stroke="black" points="1915.46,-289.6 1915.46,-320.4 2235.25,-320.4 2235.25,-289.6 1915.46,-289.6"/>
<text text-anchor="start" x="1922.46" y="-301.8" font-family="Arial" font-size="14.00">variablecontextid </text>
<text text-anchor="start" x="2031.41" y="-301.8" font-family="Arial" font-size="14.00" fill="#666666">[integer]</text>
<polygon fill="none" stroke="black" points="1915.46,-258.8 1915.46,-289.6 2235.25,-289.6 2235.25,-258.8 1915.46,-258.8"/>
<text text-anchor="start" x="1922.46" y="-271" font-family="Arial" font-size="14.00">variablecontext </text>
<text text-anchor="start" x="2020.51" y="-271" font-family="Arial" font-size="14.00" fill="#666666">[varchar(64)]</text>
<polygon fill="none" stroke="black" points="1915.46,-228 1915.46,-258.8 2235.25,-258.8 2235.25,-228 1915.46,-228"/>
<text text-anchor="start" x="1922.46" y="-240.2" font-family="Arial" font-size="14.00">recdatecreated </text>
<text text-anchor="start" x="2019.74" y="-240.2" font-family="Arial" font-size="14.00" fill="#666666">[timestamp(0) without time zone]</text>
<polygon fill="none" stroke="black" points="1915.46,-197.2 1915.46,-228 2235.25,-228 2235.25,-197.2 1915.46,-197.2"/>
<text text-anchor="start" x="1922.46" y="-209.4" font-family="Arial" font-size="14.00">recdatemodified </text>
<text text-anchor="start" x="2025.96" y="-209.4" font-family="Arial" font-size="14.00" fill="#666666">[timestamp(0) without time zone]</text>
</g>
<!-- ndb.variables&#45;&gt;ndb.variablecontexts -->
<g id="edge10" class="edge">
<title>ndb.variables:variablecontextid&#45;&gt;ndb.variablecontexts:variablecontextid</title>
<path fill="none" stroke="black" d="M1610.45,-709.31C1738.71,-707.05 1786.45,-661.14 1863.36,-553.2 1928.71,-461.47 1801.83,-305 1914.46,-305"/>
<polygon fill="black" stroke="black" points="1610.59,-709.31 1600.55,-704.9 1605.25,-709.36 1600.92,-709.39 1600.92,-709.39 1600.92,-709.39 1605.25,-709.36 1600.63,-713.9 1610.59,-709.31"/>
<text text-anchor="start" x="1607.25" y="-719.4" font-family="Arial" font-size="10.00">FOREIGN KEY (variablecontextid) REFERENCES ndb.variablecontexts(variablecontextid) ON UPDATE CASCADE ON DELETE CASCADE</text>
</g>
<!-- ndb.data -->
<g id="node3" class="node">
<title>ndb.data</title>
<polygon fill="#efefef" stroke="none" points="219.46,-1252.4 219.46,-1288 539.25,-1288 539.25,-1252.4 219.46,-1252.4"/>
<polygon fill="none" stroke="black" points="219.46,-1252.4 219.46,-1288 539.25,-1288 539.25,-1252.4 219.46,-1252.4"/>
<text text-anchor="start" x="286.37" y="-1265.8" font-family="Arial Bold" font-size="18.00">ndb.data</text>
<text text-anchor="start" x="347.85" y="-1265.8" font-family="Arial" font-size="14.00">    </text>
<text text-anchor="start" x="378.97" y="-1265.8" font-family="Arial" font-size="14.00" fill="#666666">[BASE TABLE]</text>
<polygon fill="none" stroke="black" points="219.46,-1221.6 219.46,-1252.4 539.25,-1252.4 539.25,-1221.6 219.46,-1221.6"/>
<text text-anchor="start" x="226.46" y="-1233.8" font-family="Arial" font-size="14.00">dataid </text>
<text text-anchor="start" x="268.49" y="-1233.8" font-family="Arial" font-size="14.00" fill="#666666">[integer]</text>
<polygon fill="none" stroke="black" points="219.46,-1190.8 219.46,-1221.6 539.25,-1221.6 539.25,-1190.8 219.46,-1190.8"/>
<text text-anchor="start" x="226.46" y="-1203" font-family="Arial" font-size="14.00">sampleid </text>
<text text-anchor="start" x="286.37" y="-1203" font-family="Arial" font-size="14.00" fill="#666666">[integer]</text>
<polygon fill="none" stroke="black" points="219.46,-1160 219.46,-1190.8 539.25,-1190.8 539.25,-1160 219.46,-1160"/>
<text text-anchor="start" x="226.46" y="-1172.2" font-family="Arial" font-size="14.00">variableid </text>
<text text-anchor="start" x="290.27" y="-1172.2" font-family="Arial" font-size="14.00" fill="#666666">[integer]</text>
<polygon fill="none" stroke="black" points="219.46,-1129.2 219.46,-1160 539.25,-1160 539.25,-1129.2 219.46,-1129.2"/>
<text text-anchor="start" x="226.46" y="-1141.4" font-family="Arial" font-size="14.00">value </text>
<text text-anchor="start" x="263.81" y="-1141.4" font-family="Arial" font-size="14.00" fill="#666666">[double precision]</text>
<polygon fill="none" stroke="black" points="219.46,-1098.4 219.46,-1129.2 539.25,-1129.2 539.25,-1098.4 219.46,-1098.4"/>
<text text-anchor="start" x="226.46" y="-1110.6" font-family="Arial" font-size="14.00">recdatecreated </text>
<text text-anchor="start" x="323.74" y="-1110.6" font-family="Arial" font-size="14.00" fill="#666666">[timestamp(0) without time zone]</text>
<polygon fill="none" stroke="black" points="219.46,-1067.6 219.46,-1098.4 539.25,-1098.4 539.25,-1067.6 219.46,-1067.6"/>
<text text-anchor="start" x="226.46" y="-1079.8" font-family="Arial" font-size="14.00">recdatemodified </text>
<text text-anchor="start" x="329.96" y="-1079.8" font-family="Arial" font-size="14.00" fill="#666666">[timestamp(0) without time zone]</text>
</g>
<!-- ndb.data&#45;&gt;ndb.variables -->
<g id="edge2" class="edge">
<title>ndb.data:variableid&#45;&gt;ndb.variables:variableid</title>
<path fill="none" stroke="black" d="M550.21,-1174.81C629.05,-1164.7 523.6,-1027.34 591.36,-962.8 703.88,-855.61 1123.05,-832.6 1278.46,-832.6"/>
<polygon fill="black" stroke="black" points="550.57,-1174.79 540.32,-1170.89 545.25,-1175.1 540.92,-1175.36 540.92,-1175.36 540.92,-1175.36 545.25,-1175.1 540.85,-1179.87 550.57,-1174.79"/>
<text text-anchor="start" x="7" y="-1185.4" font-family="Arial" font-size="10.00">FOREIGN KEY (variableid) REFERENCES ndb.variables(variableid) ON UPDATE CASCADE ON DELETE CASCADE</text>
</g>
<!-- ndb.datasetvariables -->
<g id="node4" class="node">
<title>ndb.datasetvariables</title>
<polygon fill="#efefef" stroke="none" points="643.46,-1237 643.46,-1272.6 963.25,-1272.6 963.25,-1237 643.46,-1237"/>
<polygon fill="none" stroke="black" points="643.46,-1237 643.46,-1272.6 963.25,-1272.6 963.25,-1237 643.46,-1237"/>
<text text-anchor="start" x="667.89" y="-1250.4" font-family="Arial Bold" font-size="18.00">ndb.datasetvariables</text>
<text text-anchor="start" x="814.33" y="-1250.4" font-family="Arial" font-size="14.00">    </text>
<text text-anchor="start" x="845.45" y="-1250.4" font-family="Arial" font-size="14.00" fill="#666666">[BASE TABLE]</text>
<polygon fill="none" stroke="black" points="643.46,-1206.2 643.46,-1237 963.25,-1237 963.25,-1206.2 643.46,-1206.2"/>
<text text-anchor="start" x="650.46" y="-1218.4" font-family="Arial" font-size="14.00">datasetvariableid </text>
<text text-anchor="start" x="760.19" y="-1218.4" font-family="Arial" font-size="14.00" fill="#666666">[integer]</text>
<polygon fill="none" stroke="black" points="643.46,-1175.4 643.46,-1206.2 963.25,-1206.2 963.25,-1175.4 643.46,-1175.4"/>
<text text-anchor="start" x="650.46" y="-1187.6" font-family="Arial" font-size="14.00">datasetid </text>
<text text-anchor="start" x="711.17" y="-1187.6" font-family="Arial" font-size="14.00" fill="#666666">[integer]</text>
<polygon fill="none" stroke="black" points="643.46,-1144.6 643.46,-1175.4 963.25,-1175.4 963.25,-1144.6 643.46,-1144.6"/>
<text text-anchor="start" x="650.46" y="-1156.8" font-family="Arial" font-size="14.00">variableid </text>
<text text-anchor="start" x="714.27" y="-1156.8" font-family="Arial" font-size="14.00" fill="#666666">[integer]</text>
<polygon fill="none" stroke="black" points="643.46,-1113.8 643.46,-1144.6 963.25,-1144.6 963.25,-1113.8 643.46,-1113.8"/>
<text text-anchor="start" x="650.46" y="-1126" font-family="Arial" font-size="14.00">recdatecreated </text>
<text text-anchor="start" x="747.74" y="-1126" font-family="Arial" font-size="14.00" fill="#666666">[timestamp(0) without time zone]</text>
<polygon fill="none" stroke="black" points="643.46,-1083 643.46,-1113.8 963.25,-1113.8 963.25,-1083 643.46,-1083"/>
<text text-anchor="start" x="650.46" y="-1095.2" font-family="Arial" font-size="14.00">recdatemodified </text>
<text text-anchor="start" x="753.96" y="-1095.2" font-family="Arial" font-size="14.00" fill="#666666">[timestamp(0) without time zone]</text>
</g>
<!-- ndb.datasetvariables&#45;&gt;ndb.variables -->
<g id="edge3" class="edge">
<title>ndb.datasetvariables:variableid&#45;&gt;ndb.variables:variableid</title>
<path fill="none" stroke="black" d="M974.47,-1159.37C1047.13,-1149.68 960.6,-1030.18 1015.36,-962.8 1097.64,-861.55 1147.99,-832.6 1278.46,-832.6"/>
<polygon fill="black" stroke="black" points="974.57,-1159.37 964.31,-1155.49 969.25,-1159.69 964.92,-1159.96 964.92,-1159.96 964.92,-1159.96 969.25,-1159.69 964.86,-1164.47 974.57,-1159.37"/>
<text text-anchor="start" x="701.13" y="-1144" font-family="Arial" font-size="10.00">FOREIGN KEY (variableid) REFERENCES ndb.variables(variableid) ON UPDATE CASCADE ON DELETE CASCADE</text>
</g>
<!-- ndb.isoinstrumentation -->
<g id="node5" class="node">
<title>ndb.isoinstrumentation</title>
<polygon fill="#efefef" stroke="none" points="1067.46,-1314 1067.46,-1349.6 1387.25,-1349.6 1387.25,-1314 1067.46,-1314"/>
<polygon fill="none" stroke="black" points="1067.46,-1314 1067.46,-1349.6 1387.25,-1349.6 1387.25,-1314 1067.46,-1314"/>
<text text-anchor="start" x="1082.37" y="-1327.4" font-family="Arial Bold" font-size="18.00">ndb.isoinstrumentation</text>
<text text-anchor="start" x="1247.86" y="-1327.4" font-family="Arial" font-size="14.00">    </text>
<text text-anchor="start" x="1278.97" y="-1327.4" font-family="Arial" font-size="14.00" fill="#666666">[BASE TABLE]</text>
<polygon fill="none" stroke="black" points="1067.46,-1283.2 1067.46,-1314 1387.25,-1314 1387.25,-1283.2 1067.46,-1283.2"/>
<text text-anchor="start" x="1074.46" y="-1295.4" font-family="Arial" font-size="14.00">datasetid </text>
<text text-anchor="start" x="1135.17" y="-1295.4" font-family="Arial" font-size="14.00" fill="#666666">[integer]</text>
<polygon fill="none" stroke="black" points="1067.46,-1252.4 1067.46,-1283.2 1387.25,-1283.2 1387.25,-1252.4 1067.46,-1252.4"/>
<text text-anchor="start" x="1074.46" y="-1264.6" font-family="Arial" font-size="14.00">variableid </text>
<text text-anchor="start" x="1138.27" y="-1264.6" font-family="Arial" font-size="14.00" fill="#666666">[integer]</text>
<polygon fill="none" stroke="black" points="1067.46,-1221.6 1067.46,-1252.4 1387.25,-1252.4 1387.25,-1221.6 1067.46,-1221.6"/>
<text text-anchor="start" x="1074.46" y="-1233.8" font-family="Arial" font-size="14.00">isoinstrumentationtypeid </text>
<text text-anchor="start" x="1229.32" y="-1233.8" font-family="Arial" font-size="14.00" fill="#666666">[integer]</text>
<polygon fill="none" stroke="black" points="1067.46,-1190.8 1067.46,-1221.6 1387.25,-1221.6 1387.25,-1190.8 1067.46,-1190.8"/>
<text text-anchor="start" x="1074.46" y="-1203" font-family="Arial" font-size="14.00">isosampleintrosystemtypeid </text>
<text text-anchor="start" x="1250.3" y="-1203" font-family="Arial" font-size="14.00" fill="#666666">[integer]</text>
<polygon fill="none" stroke="black" points="1067.46,-1160 1067.46,-1190.8 1387.25,-1190.8 1387.25,-1160 1067.46,-1160"/>
<text text-anchor="start" x="1074.46" y="-1172.2" font-family="Arial" font-size="14.00">insterrorpercent </text>
<text text-anchor="start" x="1176.39" y="-1172.2" font-family="Arial" font-size="14.00" fill="#666666">[double precision]</text>
<polygon fill="none" stroke="black" points="1067.46,-1129.2 1067.46,-1160 1387.25,-1160 1387.25,-1129.2 1067.46,-1129.2"/>
<text text-anchor="start" x="1074.46" y="-1141.4" font-family="Arial" font-size="14.00">insterrorrunsd </text>
<text text-anchor="start" x="1164.71" y="-1141.4" font-family="Arial" font-size="14.00" fill="#666666">[double precision]</text>
<polygon fill="none" stroke="black" points="1067.46,-1098.4 1067.46,-1129.2 1387.25,-1129.2 1387.25,-1098.4 1067.46,-1098.4"/>
<text text-anchor="start" x="1074.46" y="-1110.6" font-family="Arial" font-size="14.00">insterrorlongtermpercent </text>
<text text-anchor="start" x="1230.86" y="-1110.6" font-family="Arial" font-size="14.00" fill="#666666">[double precision]</text>
<polygon fill="none" stroke="black" points="1067.46,-1067.6 1067.46,-1098.4 1387.25,-1098.4 1387.25,-1067.6 1067.46,-1067.6"/>
<text text-anchor="start" x="1074.46" y="-1079.8" font-family="Arial" font-size="14.00">notes </text>
<text text-anchor="start" x="1112.59" y="-1079.8" font-family="Arial" font-size="14.00" fill="#666666">[text]</text>
<polygon fill="none" stroke="black" points="1067.46,-1036.8 1067.46,-1067.6 1387.25,-1067.6 1387.25,-1036.8 1067.46,-1036.8"/>
<text text-anchor="start" x="1074.46" y="-1049" font-family="Arial" font-size="14.00">recdatecreated </text>
<text text-anchor="start" x="1171.74" y="-1049" font-family="Arial" font-size="14.00" fill="#666666">[timestamp(0) without time zone]</text>
<polygon fill="none" stroke="black" points="1067.46,-1006 1067.46,-1036.8 1387.25,-1036.8 1387.25,-1006 1067.46,-1006"/>
<text text-anchor="start" x="1074.46" y="-1018.2" font-family="Arial" font-size="14.00">recdatemodified </text>
<text text-anchor="start" x="1177.96" y="-1018.2" font-family="Arial" font-size="14.00" fill="#666666">[timestamp(0) without time zone]</text>
</g>
<!-- ndb.isoinstrumentation&#45;&gt;ndb.variables -->
<g id="edge4" class="edge">
<title>ndb.isoinstrumentation:variableid&#45;&gt;ndb.variables:variableid</title>
<path fill="none" stroke="black" d="M1398.18,-1265.78C1452.94,-1241.97 1424.87,-1014.83 1387.25,-962.8 1357.66,-921.86 1309.2,-967.63 1279.46,-926.8 1254.8,-892.96 1236.59,-832.6 1278.46,-832.6"/>
<polygon fill="black" stroke="black" points="1398.38,-1265.74 1387.68,-1263.32 1393.15,-1266.8 1388.91,-1267.67 1388.91,-1267.67 1388.91,-1267.67 1393.15,-1266.8 1389.48,-1272.14 1398.38,-1265.74"/>
<text text-anchor="start" x="1395.25" y="-1277.8" font-family="Arial" font-size="10.00">FOREIGN KEY (variableid) REFERENCES ndb.variables(variableid) ON UPDATE CASCADE ON DELETE CASCADE</text>
</g>
<!-- ndb.isosrmetadata -->
<g id="node6" class="node">
<title>ndb.isosrmetadata</title>
<polygon fill="#efefef" stroke="none" points="1491.46,-1252.4 1491.46,-1288 1811.25,-1288 1811.25,-1252.4 1491.46,-1252.4"/>
<polygon fill="none" stroke="black" points="1491.46,-1252.4 1491.46,-1288 1811.25,-1288 1811.25,-1252.4 1491.46,-1252.4"/>
<text text-anchor="start" x="1523.88" y="-1265.8" font-family="Arial Bold" font-size="18.00">ndb.isosrmetadata</text>
<text text-anchor="start" x="1654.34" y="-1265.8" font-family="Arial" font-size="14.00">    </text>
<text text-anchor="start" x="1685.46" y="-1265.8" font-family="Arial" font-size="14.00" fill="#666666">[BASE TABLE]</text>
<polygon fill="none" stroke="black" points="1491.46,-1221.6 1491.46,-1252.4 1811.25,-1252.4 1811.25,-1221.6 1491.46,-1221.6"/>
<text text-anchor="start" x="1498.46" y="-1233.8" font-family="Arial" font-size="14.00">datasetid </text>
<text text-anchor="start" x="1559.17" y="-1233.8" font-family="Arial" font-size="14.00" fill="#666666">[integer]</text>
<polygon fill="none" stroke="black" points="1491.46,-1190.8 1491.46,-1221.6 1811.25,-1221.6 1811.25,-1190.8 1491.46,-1190.8"/>
<text text-anchor="start" x="1498.46" y="-1203" font-family="Arial" font-size="14.00">variableid </text>
<text text-anchor="start" x="1562.27" y="-1203" font-family="Arial" font-size="14.00" fill="#666666">[integer]</text>
<polygon fill="none" stroke="black" points="1491.46,-1160 1491.46,-1190.8 1811.25,-1190.8 1811.25,-1160 1491.46,-1160"/>
<text text-anchor="start" x="1498.46" y="-1172.2" font-family="Arial" font-size="14.00">srlocalvalue </text>
<text text-anchor="start" x="1576.27" y="-1172.2" font-family="Arial" font-size="14.00" fill="#666666">[double precision]</text>
<polygon fill="none" stroke="black" points="1491.46,-1129.2 1491.46,-1160 1811.25,-1160 1811.25,-1129.2 1491.46,-1129.2"/>
<text text-anchor="start" x="1498.46" y="-1141.4" font-family="Arial" font-size="14.00">srlocalgeolcontext </text>
<text text-anchor="start" x="1614.41" y="-1141.4" font-family="Arial" font-size="14.00" fill="#666666">[text]</text>
<polygon fill="none" stroke="black" points="1491.46,-1098.4 1491.46,-1129.2 1811.25,-1129.2 1811.25,-1098.4 1491.46,-1098.4"/>
<text text-anchor="start" x="1498.46" y="-1110.6" font-family="Arial" font-size="14.00">recdatecreated </text>
<text text-anchor="start" x="1595.74" y="-1110.6" font-family="Arial" font-size="14.00" fill="#666666">[timestamp(0) without time zone]</text>
<polygon fill="none" stroke="black" points="1491.46,-1067.6 1491.46,-1098.4 1811.25,-1098.4 1811.25,-1067.6 1491.46,-1067.6"/>
<text text-anchor="start" x="1498.46" y="-1079.8" font-family="Arial" font-size="14.00">recdatemodified </text>
<text text-anchor="start" x="1601.96" y="-1079.8" font-family="Arial" font-size="14.00" fill="#666666">[timestamp(0) without time zone]</text>
</g>
<!-- ndb.isosrmetadata&#45;&gt;ndb.variables -->
<g id="edge5" class="edge">
<title>ndb.isosrmetadata:variableid&#45;&gt;ndb.variables:variableid</title>
<path fill="none" stroke="black" d="M1480.34,-1205.56C1414.01,-1196.56 1459.97,-1094.86 1491.46,-1024.4 1517.82,-965.39 1572.74,-985.74 1599.25,-926.8 1616.43,-888.62 1642.12,-832.6 1600.25,-832.6"/>
<polygon fill="black" stroke="black" points="1480.14,-1205.55 1489.84,-1210.67 1485.47,-1205.88 1489.79,-1206.16 1489.79,-1206.16 1489.79,-1206.16 1485.47,-1205.88 1490.41,-1201.69 1480.14,-1205.55"/>
<text text-anchor="start" x="1497.46" y="-1216.2" font-family="Arial" font-size="10.00">FOREIGN KEY (variableid) REFERENCES ndb.variables(variableid) ON UPDATE CASCADE ON DELETE CASCADE</text>
</g>
<!-- ndb.isostandards -->
<g id="node7" class="node">
<title>ndb.isostandards</title>
<polygon fill="#efefef" stroke="none" points="1915.46,-1252.4 1915.46,-1288 2235.25,-1288 2235.25,-1252.4 1915.46,-1252.4"/>
<polygon fill="none" stroke="black" points="1915.46,-1252.4 1915.46,-1288 2235.25,-1288 2235.25,-1252.4 1915.46,-1252.4"/>
<text text-anchor="start" x="1952.87" y="-1265.8" font-family="Arial Bold" font-size="18.00">ndb.isostandards</text>
<text text-anchor="start" x="2073.36" y="-1265.8" font-family="Arial" font-size="14.00">    </text>
<text text-anchor="start" x="2104.47" y="-1265.8" font-family="Arial" font-size="14.00" fill="#666666">[BASE TABLE]</text>
<polygon fill="none" stroke="black" points="1915.46,-1221.6 1915.46,-1252.4 2235.25,-1252.4 2235.25,-1221.6 1915.46,-1221.6"/>
<text text-anchor="start" x="1922.46" y="-1233.8" font-family="Arial" font-size="14.00">datasetid </text>
<text text-anchor="start" x="1983.17" y="-1233.8" font-family="Arial" font-size="14.00" fill="#666666">[integer]</text>
<polygon fill="none" stroke="black" points="1915.46,-1190.8 1915.46,-1221.6 2235.25,-1221.6 2235.25,-1190.8 1915.46,-1190.8"/>
<text text-anchor="start" x="1922.46" y="-1203" font-family="Arial" font-size="14.00">variableid </text>
<text text-anchor="start" x="1986.27" y="-1203" font-family="Arial" font-size="14.00" fill="#666666">[integer]</text>
<polygon fill="none" stroke="black" points="1915.46,-1160 1915.46,-1190.8 2235.25,-1190.8 2235.25,-1160 1915.46,-1160"/>
<text text-anchor="start" x="1922.46" y="-1172.2" font-family="Arial" font-size="14.00">isostandardid </text>
<text text-anchor="start" x="2009.62" y="-1172.2" font-family="Arial" font-size="14.00" fill="#666666">[integer]</text>
<polygon fill="none" stroke="black" points="1915.46,-1129.2 1915.46,-1160 2235.25,-1160 2235.25,-1129.2 1915.46,-1129.2"/>
<text text-anchor="start" x="1922.46" y="-1141.4" font-family="Arial" font-size="14.00">value </text>
<text text-anchor="start" x="1959.81" y="-1141.4" font-family="Arial" font-size="14.00" fill="#666666">[double precision]</text>
<polygon fill="none" stroke="black" points="1915.46,-1098.4 1915.46,-1129.2 2235.25,-1129.2 2235.25,-1098.4 1915.46,-1098.4"/>
<text text-anchor="start" x="1922.46" y="-1110.6" font-family="Arial" font-size="14.00">recdatecreated </text>
<text text-anchor="start" x="2019.74" y="-1110.6" font-family="Arial" font-size="14.00" fill="#666666">[timestamp(0) without time zone]</text>
<polygon fill="none" stroke="black" points="1915.46,-1067.6 1915.46,-1098.4 2235.25,-1098.4 2235.25,-1067.6 1915.46,-1067.6"/>
<text text-anchor="start" x="1922.46" y="-1079.8" font-family="Arial" font-size="14.00">recdatemodified </text>
<text text-anchor="start" x="2025.96" y="-1079.8" font-family="Arial" font-size="14.00" fill="#666666">[timestamp(0) without time zone]</text>
</g>
<!-- ndb.isostandards&#45;&gt;ndb.variables -->
<g id="edge6" class="edge">
<title>ndb.isostandards:variableid&#45;&gt;ndb.variables:variableid</title>
<path fill="none" stroke="black" d="M1904.22,-1205.69C1812.15,-1195.92 1928.8,-1047.28 1863.36,-962.8 1783.46,-859.66 1730.72,-832.6 1600.25,-832.6"/>
<polygon fill="black" stroke="black" points="1904.13,-1205.69 1913.9,-1210.68 1909.46,-1205.95 1913.79,-1206.17 1913.79,-1206.17 1913.79,-1206.17 1909.46,-1205.95 1914.34,-1201.69 1904.13,-1205.69"/>
<text text-anchor="start" x="1381.2" y="-1190.2" font-family="Arial" font-size="10.00">FOREIGN KEY (variableid) REFERENCES ndb.variables(variableid) ON UPDATE CASCADE ON DELETE CASCADE</text>
</g>
</g>
</svg>
