<?xml version="1.0" encoding="UTF-8" standalone="no"?>
<!DOCTYPE svg PUBLIC "-//W3C//DTD SVG 1.1//EN"
 "http://www.w3.org/Graphics/SVG/1.1/DTD/svg11.dtd">
<!-- Generated by graphviz version 12.1.2 (20240928.0832)
 -->
<!-- Title: ndb.elementdatasettaxagroups Pages: 1 -->
<svg width="3964pt" height="842pt"
 viewBox="0.00 0.00 3964.04 842.40" xmlns="http://www.w3.org/2000/svg" xmlns:xlink="http://www.w3.org/1999/xlink">
<g id="graph0" class="graph" transform="scale(1 1) rotate(0) translate(4 838.4)">
<title>ndb.elementdatasettaxagroups</title>
<polygon fill="white" stroke="none" points="-4,4 -4,-838.4 3960.04,-838.4 3960.04,4 -4,4"/>
<!-- ndb.elementdatasettaxagroups -->
<g id="node1" class="node">
<title>ndb.elementdatasettaxagroups</title>
<polygon fill="#efefef" stroke="none" points="2048.45,-617 2048.45,-652.6 2404.37,-652.6 2404.37,-617 2048.45,-617"/>
<polygon fill="none" stroke="black" points="2048.45,-617 2048.45,-652.6 2404.37,-652.6 2404.37,-617 2048.45,-617"/>
<text text-anchor="start" x="2055.45" y="-630.4" font-family="Arial Bold" font-size="18.00">ndb.elementdatasettaxagroups</text>
<text text-anchor="start" x="2272.88" y="-630.4" font-family="Arial" font-size="14.00">    </text>
<text text-anchor="start" x="2303.99" y="-630.4" font-family="Arial" font-size="14.00" fill="#666666">[BASE TABLE]</text>
<polygon fill="none" stroke="black" points="2048.45,-586.2 2048.45,-617 2404.37,-617 2404.37,-586.2 2048.45,-586.2"/>
<text text-anchor="start" x="2055.45" y="-598.4" font-family="Arial" font-size="14.00">datasettypeid </text>
<text text-anchor="start" x="2142.62" y="-598.4" font-family="Arial" font-size="14.00" fill="#666666">[integer]</text>
<polygon fill="none" stroke="black" points="2048.45,-555.4 2048.45,-586.2 2404.37,-586.2 2404.37,-555.4 2048.45,-555.4"/>
<text text-anchor="start" x="2055.45" y="-567.6" font-family="Arial" font-size="14.00">taxagroupid </text>
<text text-anchor="start" x="2132.51" y="-567.6" font-family="Arial" font-size="14.00" fill="#666666">[varchar(3)]</text>
<polygon fill="none" stroke="black" points="2048.45,-524.6 2048.45,-555.4 2404.37,-555.4 2404.37,-524.6 2048.45,-524.6"/>
<text text-anchor="start" x="2055.45" y="-536.8" font-family="Arial" font-size="14.00">elementtypeid </text>
<text text-anchor="start" x="2146.51" y="-536.8" font-family="Arial" font-size="14.00" fill="#666666">[integer]</text>
<polygon fill="none" stroke="black" points="2048.45,-493.8 2048.45,-524.6 2404.37,-524.6 2404.37,-493.8 2048.45,-493.8"/>
<text text-anchor="start" x="2055.45" y="-506" font-family="Arial" font-size="14.00">recdatecreated </text>
<text text-anchor="start" x="2152.73" y="-506" font-family="Arial" font-size="14.00" fill="#666666">[timestamp(0) without time zone]</text>
<polygon fill="none" stroke="black" points="2048.45,-463 2048.45,-493.8 2404.37,-493.8 2404.37,-463 2048.45,-463"/>
<text text-anchor="start" x="2055.45" y="-475.2" font-family="Arial" font-size="14.00">recdatemodified </text>
<text text-anchor="start" x="2158.96" y="-475.2" font-family="Arial" font-size="14.00" fill="#666666">[timestamp(0) without time zone]</text>
<polygon fill="none" stroke="black" stroke-width="3" points="2046.95,-461.5 2046.95,-654.1 2405.87,-654.1 2405.87,-461.5 2046.95,-461.5"/>
</g>
<!-- ndb.datasettypes -->
<g id="node2" class="node">
<title>ndb.datasettypes</title>
<polygon fill="#efefef" stroke="none" points="1349.51,-166.4 1349.51,-202 1669.31,-202 1669.31,-166.4 1349.51,-166.4"/>
<polygon fill="none" stroke="black" points="1349.51,-166.4 1349.51,-202 1669.31,-202 1669.31,-166.4 1349.51,-166.4"/>
<text text-anchor="start" x="1387.43" y="-179.8" font-family="Arial Bold" font-size="18.00">ndb.datasettypes</text>
<text text-anchor="start" x="1506.9" y="-179.8" font-family="Arial" font-size="14.00">    </text>
<text text-anchor="start" x="1538.02" y="-179.8" font-family="Arial" font-size="14.00" fill="#666666">[BASE TABLE]</text>
<polygon fill="none" stroke="black" points="1349.51,-135.6 1349.51,-166.4 1669.31,-166.4 1669.31,-135.6 1349.51,-135.6"/>
<text text-anchor="start" x="1356.51" y="-147.8" font-family="Arial" font-size="14.00">datasettypeid </text>
<text text-anchor="start" x="1443.68" y="-147.8" font-family="Arial" font-size="14.00" fill="#666666">[integer]</text>
<polygon fill="none" stroke="black" points="1349.51,-104.8 1349.51,-135.6 1669.31,-135.6 1669.31,-104.8 1349.51,-104.8"/>
<text text-anchor="start" x="1356.51" y="-117" font-family="Arial" font-size="14.00">datasettype </text>
<text text-anchor="start" x="1432.79" y="-117" font-family="Arial" font-size="14.00" fill="#666666">[varchar(64)]</text>
<polygon fill="none" stroke="black" points="1349.51,-74 1349.51,-104.8 1669.31,-104.8 1669.31,-74 1349.51,-74"/>
<text text-anchor="start" x="1356.51" y="-86.2" font-family="Arial" font-size="14.00">recdatecreated </text>
<text text-anchor="start" x="1453.79" y="-86.2" font-family="Arial" font-size="14.00" fill="#666666">[timestamp(0) without time zone]</text>
<polygon fill="none" stroke="black" points="1349.51,-43.2 1349.51,-74 1669.31,-74 1669.31,-43.2 1349.51,-43.2"/>
<text text-anchor="start" x="1356.51" y="-55.4" font-family="Arial" font-size="14.00">recdatemodified </text>
<text text-anchor="start" x="1460.01" y="-55.4" font-family="Arial" font-size="14.00" fill="#666666">[timestamp(0) without time zone]</text>
</g>
<!-- ndb.elementdatasettaxagroups&#45;&gt;ndb.datasettypes -->
<g id="edge1" class="edge">
<title>ndb.elementdatasettaxagroups:datasettypeid&#45;&gt;ndb.datasettypes:datasettypeid</title>
<path fill="none" stroke="black" d="M2037.47,-599.62C1981.41,-575.31 2036.37,-334.61 1993.41,-281.2 1896.37,-160.56 1825.13,-151 1670.31,-151"/>
<polygon fill="black" stroke="black" points="2037.32,-599.59 2046.25,-605.95 2042.55,-600.63 2046.8,-601.47 2046.8,-601.47 2046.8,-601.47 2042.55,-600.63 2048,-597.12 2037.32,-599.59"/>
<text text-anchor="start" x="1778.84" y="-585.6" font-family="Arial" font-size="10.00">FOREIGN KEY (datasettypeid) REFERENCES ndb.datasettypes(datasettypeid)</text>
</g>
<!-- ndb.taxagrouptypes -->
<g id="node8" class="node">
<title>ndb.taxagrouptypes</title>
<polygon fill="#efefef" stroke="none" points="2730.51,-166.4 2730.51,-202 3050.31,-202 3050.31,-166.4 2730.51,-166.4"/>
<polygon fill="none" stroke="black" points="2730.51,-166.4 2730.51,-202 3050.31,-202 3050.31,-166.4 2730.51,-166.4"/>
<text text-anchor="start" x="2757.43" y="-179.8" font-family="Arial Bold" font-size="18.00">ndb.taxagrouptypes</text>
<text text-anchor="start" x="2898.9" y="-179.8" font-family="Arial" font-size="14.00">    </text>
<text text-anchor="start" x="2930.02" y="-179.8" font-family="Arial" font-size="14.00" fill="#666666">[BASE TABLE]</text>
<polygon fill="none" stroke="black" points="2730.51,-135.6 2730.51,-166.4 3050.31,-166.4 3050.31,-135.6 2730.51,-135.6"/>
<text text-anchor="start" x="2737.51" y="-147.8" font-family="Arial" font-size="14.00">taxagroupid </text>
<text text-anchor="start" x="2814.56" y="-147.8" font-family="Arial" font-size="14.00" fill="#666666">[varchar(3)]</text>
<polygon fill="none" stroke="black" points="2730.51,-104.8 2730.51,-135.6 3050.31,-135.6 3050.31,-104.8 2730.51,-104.8"/>
<text text-anchor="start" x="2737.51" y="-117" font-family="Arial" font-size="14.00">taxagroup </text>
<text text-anchor="start" x="2803.67" y="-117" font-family="Arial" font-size="14.00" fill="#666666">[varchar(64)]</text>
<polygon fill="none" stroke="black" points="2730.51,-74 2730.51,-104.8 3050.31,-104.8 3050.31,-74 2730.51,-74"/>
<text text-anchor="start" x="2737.51" y="-86.2" font-family="Arial" font-size="14.00">recdatecreated </text>
<text text-anchor="start" x="2834.79" y="-86.2" font-family="Arial" font-size="14.00" fill="#666666">[timestamp(0) without time zone]</text>
<polygon fill="none" stroke="black" points="2730.51,-43.2 2730.51,-74 3050.31,-74 3050.31,-43.2 2730.51,-43.2"/>
<text text-anchor="start" x="2737.51" y="-55.4" font-family="Arial" font-size="14.00">recdatemodified </text>
<text text-anchor="start" x="2841.01" y="-55.4" font-family="Arial" font-size="14.00" fill="#666666">[timestamp(0) without time zone]</text>
</g>
<!-- ndb.elementdatasettaxagroups&#45;&gt;ndb.taxagrouptypes -->
<g id="edge7" class="edge">
<title>ndb.elementdatasettaxagroups:taxagroupid&#45;&gt;ndb.taxagrouptypes:taxagroupid</title>
<path fill="none" stroke="black" d="M2415.4,-568.59C2465.32,-544.48 2421.88,-330.25 2459.41,-281.2 2540.38,-175.36 2596.25,-151 2729.51,-151"/>
<polygon fill="black" stroke="black" points="2415.46,-568.58 2404.72,-566.33 2410.25,-569.73 2406.02,-570.66 2406.02,-570.66 2406.02,-570.66 2410.25,-569.73 2406.66,-575.12 2415.46,-568.58"/>
<text text-anchor="start" x="2230.01" y="-554.8" font-family="Arial" font-size="10.00">FOREIGN KEY (taxagroupid) REFERENCES ndb.taxagrouptypes(taxagroupid)</text>
</g>
<!-- ndb.unitsdatasettypes -->
<g id="node3" class="node">
<title>ndb.unitsdatasettypes</title>
<polygon fill="#efefef" stroke="none" points="269.51,-601.6 269.51,-637.2 589.31,-637.2 589.31,-601.6 269.51,-601.6"/>
<polygon fill="none" stroke="black" points="269.51,-601.6 269.51,-637.2 589.31,-637.2 589.31,-601.6 269.51,-601.6"/>
<text text-anchor="start" x="289.93" y="-615" font-family="Arial Bold" font-size="18.00">ndb.unitsdatasettypes</text>
<text text-anchor="start" x="444.4" y="-615" font-family="Arial" font-size="14.00">    </text>
<text text-anchor="start" x="475.52" y="-615" font-family="Arial" font-size="14.00" fill="#666666">[BASE TABLE]</text>
<polygon fill="none" stroke="black" points="269.51,-570.8 269.51,-601.6 589.31,-601.6 589.31,-570.8 269.51,-570.8"/>
<text text-anchor="start" x="276.51" y="-583" font-family="Arial" font-size="14.00">datasettypeid </text>
<text text-anchor="start" x="363.68" y="-583" font-family="Arial" font-size="14.00" fill="#666666">[integer]</text>
<polygon fill="none" stroke="black" points="269.51,-540 269.51,-570.8 589.31,-570.8 589.31,-540 269.51,-540"/>
<text text-anchor="start" x="276.51" y="-552.2" font-family="Arial" font-size="14.00">variableunitsid </text>
<text text-anchor="start" x="369.9" y="-552.2" font-family="Arial" font-size="14.00" fill="#666666">[integer]</text>
<polygon fill="none" stroke="black" points="269.51,-509.2 269.51,-540 589.31,-540 589.31,-509.2 269.51,-509.2"/>
<text text-anchor="start" x="276.51" y="-521.4" font-family="Arial" font-size="14.00">recdatecreated </text>
<text text-anchor="start" x="373.79" y="-521.4" font-family="Arial" font-size="14.00" fill="#666666">[timestamp(0) without time zone]</text>
<polygon fill="none" stroke="black" points="269.51,-478.4 269.51,-509.2 589.31,-509.2 589.31,-478.4 269.51,-478.4"/>
<text text-anchor="start" x="276.51" y="-490.6" font-family="Arial" font-size="14.00">recdatemodified </text>
<text text-anchor="start" x="380.01" y="-490.6" font-family="Arial" font-size="14.00" fill="#666666">[timestamp(0) without time zone]</text>
</g>
<!-- ndb.unitsdatasettypes&#45;&gt;ndb.datasettypes -->
<g id="edge2" class="edge">
<title>ndb.unitsdatasettypes:datasettypeid&#45;&gt;ndb.datasettypes:datasettypeid</title>
<path fill="none" stroke="black" d="M600.42,-583.98C652.17,-558.82 595.84,-327.5 641.41,-281.2 753.47,-167.32 1188.73,-151 1348.51,-151"/>
<polygon fill="black" stroke="black" points="600.4,-583.98 589.67,-581.73 595.19,-585.13 590.96,-586.06 590.96,-586.06 590.96,-586.06 595.19,-585.13 591.6,-590.52 600.4,-583.98"/>
<text text-anchor="start" x="7" y="-596.2" font-family="Arial" font-size="10.00">FOREIGN KEY (datasettypeid) REFERENCES ndb.datasettypes(datasettypeid) ON UPDATE CASCADE ON DELETE CASCADE</text>
</g>
<!-- ndb.datasettaxagrouptypes -->
<g id="node4" class="node">
<title>ndb.datasettaxagrouptypes</title>
<polygon fill="#efefef" stroke="none" points="2511.44,-601.6 2511.44,-637.2 2841.38,-637.2 2841.38,-601.6 2511.44,-601.6"/>
<polygon fill="none" stroke="black" points="2511.44,-601.6 2511.44,-637.2 2841.38,-637.2 2841.38,-601.6 2511.44,-601.6"/>
<text text-anchor="start" x="2518.44" y="-615" font-family="Arial Bold" font-size="18.00">ndb.datasettaxagrouptypes</text>
<text text-anchor="start" x="2709.89" y="-615" font-family="Arial" font-size="14.00">    </text>
<text text-anchor="start" x="2741" y="-615" font-family="Arial" font-size="14.00" fill="#666666">[BASE TABLE]</text>
<polygon fill="none" stroke="black" points="2511.44,-570.8 2511.44,-601.6 2841.38,-601.6 2841.38,-570.8 2511.44,-570.8"/>
<text text-anchor="start" x="2518.44" y="-583" font-family="Arial" font-size="14.00">datasettypeid </text>
<text text-anchor="start" x="2605.61" y="-583" font-family="Arial" font-size="14.00" fill="#666666">[integer]</text>
<polygon fill="none" stroke="black" points="2511.44,-540 2511.44,-570.8 2841.38,-570.8 2841.38,-540 2511.44,-540"/>
<text text-anchor="start" x="2518.44" y="-552.2" font-family="Arial" font-size="14.00">taxagroupid </text>
<text text-anchor="start" x="2595.5" y="-552.2" font-family="Arial" font-size="14.00" fill="#666666">[varchar(3)]</text>
<polygon fill="none" stroke="black" points="2511.44,-509.2 2511.44,-540 2841.38,-540 2841.38,-509.2 2511.44,-509.2"/>
<text text-anchor="start" x="2518.44" y="-521.4" font-family="Arial" font-size="14.00">recdatecreated </text>
<text text-anchor="start" x="2615.73" y="-521.4" font-family="Arial" font-size="14.00" fill="#666666">[timestamp(0) without time zone]</text>
<polygon fill="none" stroke="black" points="2511.44,-478.4 2511.44,-509.2 2841.38,-509.2 2841.38,-478.4 2511.44,-478.4"/>
<text text-anchor="start" x="2518.44" y="-490.6" font-family="Arial" font-size="14.00">recdatemodified </text>
<text text-anchor="start" x="2621.95" y="-490.6" font-family="Arial" font-size="14.00" fill="#666666">[timestamp(0) without time zone]</text>
</g>
<!-- ndb.datasettaxagrouptypes&#45;&gt;ndb.datasettypes -->
<g id="edge3" class="edge">
<title>ndb.datasettaxagrouptypes:datasettypeid&#45;&gt;ndb.datasettypes:datasettypeid</title>
<path fill="none" stroke="black" d="M2500.34,-583.97C2448.63,-558.77 2505.4,-327.08 2459.41,-281.2 2333.6,-155.67 1848.04,-151 1670.31,-151"/>
<polygon fill="black" stroke="black" points="2500.35,-583.98 2509.15,-590.52 2505.56,-585.12 2509.79,-586.06 2509.79,-586.06 2509.79,-586.06 2505.56,-585.12 2511.08,-581.73 2500.35,-583.98"/>
<text text-anchor="start" x="2517.44" y="-596.2" font-family="Arial" font-size="10.00">FOREIGN KEY (datasettypeid) REFERENCES ndb.datasettypes(datasettypeid) ON UPDATE CASCADE ON DELETE CASCADE</text>
</g>
<!-- ndb.datasettaxagrouptypes&#45;&gt;ndb.taxagrouptypes -->
<g id="edge8" class="edge">
<title>ndb.datasettaxagrouptypes:taxagroupid&#45;&gt;ndb.taxagrouptypes:taxagroupid</title>
<path fill="none" stroke="black" d="M2852.55,-554.94C3010.25,-539.76 2546.55,-151 2729.51,-151"/>
<polygon fill="black" stroke="black" points="2852.7,-554.94 2842.51,-550.89 2847.37,-555.18 2843.04,-555.37 2843.04,-555.37 2843.04,-555.37 2847.37,-555.18 2842.91,-559.88 2852.7,-554.94"/>
<text text-anchor="start" x="2849.38" y="-565.4" font-family="Arial" font-size="10.00">FOREIGN KEY (taxagroupid) REFERENCES ndb.taxagrouptypes(taxagroupid) ON UPDATE CASCADE ON DELETE CASCADE</text>
</g>
<!-- ndb.datasets -->
<g id="node5" class="node">
<title>ndb.datasets</title>
<polygon fill="#efefef" stroke="none" points="693.51,-663.2 693.51,-698.8 1013.31,-698.8 1013.31,-663.2 693.51,-663.2"/>
<polygon fill="none" stroke="black" points="693.51,-663.2 693.51,-698.8 1013.31,-698.8 1013.31,-663.2 693.51,-663.2"/>
<text text-anchor="start" x="746.92" y="-676.6" font-family="Arial Bold" font-size="18.00">ndb.datasets</text>
<text text-anchor="start" x="835.4" y="-676.6" font-family="Arial" font-size="14.00">    </text>
<text text-anchor="start" x="866.52" y="-676.6" font-family="Arial" font-size="14.00" fill="#666666">[BASE TABLE]</text>
<polygon fill="none" stroke="black" points="693.51,-632.4 693.51,-663.2 1013.31,-663.2 1013.31,-632.4 693.51,-632.4"/>
<text text-anchor="start" x="700.51" y="-644.6" font-family="Arial" font-size="14.00">datasetid </text>
<text text-anchor="start" x="761.22" y="-644.6" font-family="Arial" font-size="14.00" fill="#666666">[integer]</text>
<polygon fill="none" stroke="black" points="693.51,-601.6 693.51,-632.4 1013.31,-632.4 1013.31,-601.6 693.51,-601.6"/>
<text text-anchor="start" x="700.51" y="-613.8" font-family="Arial" font-size="14.00">collectionunitid </text>
<text text-anchor="start" x="796.23" y="-613.8" font-family="Arial" font-size="14.00" fill="#666666">[integer]</text>
<polygon fill="none" stroke="black" points="693.51,-570.8 693.51,-601.6 1013.31,-601.6 1013.31,-570.8 693.51,-570.8"/>
<text text-anchor="start" x="700.51" y="-583" font-family="Arial" font-size="14.00">datasettypeid </text>
<text text-anchor="start" x="787.68" y="-583" font-family="Arial" font-size="14.00" fill="#666666">[integer]</text>
<polygon fill="none" stroke="black" points="693.51,-540 693.51,-570.8 1013.31,-570.8 1013.31,-540 693.51,-540"/>
<text text-anchor="start" x="700.51" y="-552.2" font-family="Arial" font-size="14.00">datasetname </text>
<text text-anchor="start" x="785.34" y="-552.2" font-family="Arial" font-size="14.00" fill="#666666">[varchar(80)]</text>
<polygon fill="none" stroke="black" points="693.51,-509.2 693.51,-540 1013.31,-540 1013.31,-509.2 693.51,-509.2"/>
<text text-anchor="start" x="700.51" y="-521.4" font-family="Arial" font-size="14.00">notes </text>
<text text-anchor="start" x="738.65" y="-521.4" font-family="Arial" font-size="14.00" fill="#666666">[text]</text>
<polygon fill="none" stroke="black" points="693.51,-478.4 693.51,-509.2 1013.31,-509.2 1013.31,-478.4 693.51,-478.4"/>
<text text-anchor="start" x="700.51" y="-490.6" font-family="Arial" font-size="14.00">recdatecreated </text>
<text text-anchor="start" x="797.79" y="-490.6" font-family="Arial" font-size="14.00" fill="#666666">[timestamp(0) without time zone]</text>
<polygon fill="none" stroke="black" points="693.51,-447.6 693.51,-478.4 1013.31,-478.4 1013.31,-447.6 693.51,-447.6"/>
<text text-anchor="start" x="700.51" y="-459.8" font-family="Arial" font-size="14.00">recdatemodified </text>
<text text-anchor="start" x="804.01" y="-459.8" font-family="Arial" font-size="14.00" fill="#666666">[timestamp(0) without time zone]</text>
<polygon fill="none" stroke="black" points="693.51,-416.8 693.51,-447.6 1013.31,-447.6 1013.31,-416.8 693.51,-416.8"/>
<text text-anchor="start" x="700.51" y="-429" font-family="Arial" font-size="14.00">embargoid </text>
<text text-anchor="start" x="770.55" y="-429" font-family="Arial" font-size="14.00" fill="#666666">[integer]</text>
</g>
<!-- ndb.datasets&#45;&gt;ndb.datasettypes -->
<g id="edge4" class="edge">
<title>ndb.datasets:datasettypeid&#45;&gt;ndb.datasettypes:datasettypeid</title>
<path fill="none" stroke="black" d="M1024.47,-584.03C1076.84,-559.4 1025.95,-332.8 1065.41,-281.2 1149.54,-171.19 1210.02,-151 1348.51,-151"/>
<polygon fill="black" stroke="black" points="1024.41,-584.04 1013.69,-581.73 1019.2,-585.15 1014.96,-586.06 1014.96,-586.06 1014.96,-586.06 1019.2,-585.15 1015.58,-590.53 1024.41,-584.04"/>
<text text-anchor="start" x="726.15" y="-570.2" font-family="Arial" font-size="10.00">FOREIGN KEY (datasettypeid) REFERENCES ndb.datasettypes(datasettypeid) ON UPDATE CASCADE ON DELETE CASCADE</text>
</g>
<!-- ndb.contextsdatasettypes -->
<g id="node6" class="node">
<title>ndb.contextsdatasettypes</title>
<polygon fill="#efefef" stroke="none" points="1117.51,-601.6 1117.51,-637.2 1437.31,-637.2 1437.31,-601.6 1117.51,-601.6"/>
<polygon fill="none" stroke="black" points="1117.51,-601.6 1117.51,-637.2 1437.31,-637.2 1437.31,-601.6 1117.51,-601.6"/>
<text text-anchor="start" x="1125.44" y="-615" font-family="Arial Bold" font-size="18.00">ndb.contextsdatasettypes</text>
<text text-anchor="start" x="1304.89" y="-615" font-family="Arial" font-size="14.00">    </text>
<text text-anchor="start" x="1336.01" y="-615" font-family="Arial" font-size="14.00" fill="#666666">[BASE TABLE]</text>
<polygon fill="none" stroke="black" points="1117.51,-570.8 1117.51,-601.6 1437.31,-601.6 1437.31,-570.8 1117.51,-570.8"/>
<text text-anchor="start" x="1124.51" y="-583" font-family="Arial" font-size="14.00">datasettypeid </text>
<text text-anchor="start" x="1211.68" y="-583" font-family="Arial" font-size="14.00" fill="#666666">[integer]</text>
<polygon fill="none" stroke="black" points="1117.51,-540 1117.51,-570.8 1437.31,-570.8 1437.31,-540 1117.51,-540"/>
<text text-anchor="start" x="1124.51" y="-552.2" font-family="Arial" font-size="14.00">variablecontextid </text>
<text text-anchor="start" x="1233.46" y="-552.2" font-family="Arial" font-size="14.00" fill="#666666">[integer]</text>
<polygon fill="none" stroke="black" points="1117.51,-509.2 1117.51,-540 1437.31,-540 1437.31,-509.2 1117.51,-509.2"/>
<text text-anchor="start" x="1124.51" y="-521.4" font-family="Arial" font-size="14.00">recdatecreated </text>
<text text-anchor="start" x="1221.79" y="-521.4" font-family="Arial" font-size="14.00" fill="#666666">[timestamp(0) without time zone]</text>
<polygon fill="none" stroke="black" points="1117.51,-478.4 1117.51,-509.2 1437.31,-509.2 1437.31,-478.4 1117.51,-478.4"/>
<text text-anchor="start" x="1124.51" y="-490.6" font-family="Arial" font-size="14.00">recdatemodified </text>
<text text-anchor="start" x="1228.01" y="-490.6" font-family="Arial" font-size="14.00" fill="#666666">[timestamp(0) without time zone]</text>
</g>
<!-- ndb.contextsdatasettypes&#45;&gt;ndb.datasettypes -->
<g id="edge5" class="edge">
<title>ndb.contextsdatasettypes:datasettypeid&#45;&gt;ndb.datasettypes:datasettypeid</title>
<path fill="none" stroke="black" d="M1448.5,-585.49C1544.93,-570.9 1369.99,-336.02 1349.51,-245.2 1340.3,-204.36 1306.64,-151 1348.51,-151"/>
<polygon fill="black" stroke="black" points="1448.62,-585.48 1438.33,-581.69 1443.3,-585.85 1438.98,-586.15 1438.98,-586.15 1438.98,-586.15 1443.3,-585.85 1438.96,-590.67 1448.62,-585.48"/>
<text text-anchor="start" x="1445.31" y="-596.2" font-family="Arial" font-size="10.00">FOREIGN KEY (datasettypeid) REFERENCES ndb.datasettypes(datasettypeid) ON UPDATE CASCADE ON DELETE CASCADE</text>
</g>
<!-- ndb.taphonomicsystemsdatasettypes -->
<g id="node7" class="node">
<title>ndb.taphonomicsystemsdatasettypes</title>
<polygon fill="#efefef" stroke="none" points="1541.44,-601.6 1541.44,-637.2 1941.38,-637.2 1941.38,-601.6 1541.44,-601.6"/>
<polygon fill="none" stroke="black" points="1541.44,-601.6 1541.44,-637.2 1941.38,-637.2 1941.38,-601.6 1541.44,-601.6"/>
<text text-anchor="start" x="1548.44" y="-615" font-family="Arial Bold" font-size="18.00">ndb.taphonomicsystemsdatasettypes</text>
<text text-anchor="start" x="1809.89" y="-615" font-family="Arial" font-size="14.00">    </text>
<text text-anchor="start" x="1841.01" y="-615" font-family="Arial" font-size="14.00" fill="#666666">[BASE TABLE]</text>
<polygon fill="none" stroke="black" points="1541.44,-570.8 1541.44,-601.6 1941.38,-601.6 1941.38,-570.8 1541.44,-570.8"/>
<text text-anchor="start" x="1548.44" y="-583" font-family="Arial" font-size="14.00">datasettypeid </text>
<text text-anchor="start" x="1635.61" y="-583" font-family="Arial" font-size="14.00" fill="#666666">[integer]</text>
<polygon fill="none" stroke="black" points="1541.44,-540 1541.44,-570.8 1941.38,-570.8 1941.38,-540 1541.44,-540"/>
<text text-anchor="start" x="1548.44" y="-552.2" font-family="Arial" font-size="14.00">taphonomicsystemid </text>
<text text-anchor="start" x="1679.94" y="-552.2" font-family="Arial" font-size="14.00" fill="#666666">[integer]</text>
<polygon fill="none" stroke="black" points="1541.44,-509.2 1541.44,-540 1941.38,-540 1941.38,-509.2 1541.44,-509.2"/>
<text text-anchor="start" x="1548.44" y="-521.4" font-family="Arial" font-size="14.00">recdatecreated </text>
<text text-anchor="start" x="1645.72" y="-521.4" font-family="Arial" font-size="14.00" fill="#666666">[timestamp(0) without time zone]</text>
<polygon fill="none" stroke="black" points="1541.44,-478.4 1541.44,-509.2 1941.38,-509.2 1941.38,-478.4 1541.44,-478.4"/>
<text text-anchor="start" x="1548.44" y="-490.6" font-family="Arial" font-size="14.00">recdatemodified </text>
<text text-anchor="start" x="1651.94" y="-490.6" font-family="Arial" font-size="14.00" fill="#666666">[timestamp(0) without time zone]</text>
</g>
<!-- ndb.taphonomicsystemsdatasettypes&#45;&gt;ndb.datasettypes -->
<g id="edge6" class="edge">
<title>ndb.taphonomicsystemsdatasettypes:datasettypeid&#45;&gt;ndb.datasettypes:datasettypeid</title>
<path fill="none" stroke="black" d="M1530.12,-585.38C1478.7,-576.43 1522.76,-495.69 1541.44,-435.2 1582.36,-302.68 1809,-151 1670.31,-151"/>
<polygon fill="black" stroke="black" points="1530.13,-585.39 1539.75,-590.66 1535.45,-585.81 1539.77,-586.15 1539.77,-586.15 1539.77,-586.15 1535.45,-585.81 1540.46,-581.69 1530.13,-585.39"/>
<text text-anchor="start" x="1547.44" y="-570.2" font-family="Arial" font-size="10.00">FOREIGN KEY (datasettypeid) REFERENCES ndb.datasettypes(datasettypeid) ON UPDATE CASCADE ON DELETE CASCADE</text>
</g>
<!-- ndb.taxa -->
<g id="node9" class="node">
<title>ndb.taxa</title>
<polygon fill="#efefef" stroke="none" points="2945.51,-755.6 2945.51,-791.2 3265.31,-791.2 3265.31,-755.6 2945.51,-755.6"/>
<polygon fill="none" stroke="black" points="2945.51,-755.6 2945.51,-791.2 3265.31,-791.2 3265.31,-755.6 2945.51,-755.6"/>
<text text-anchor="start" x="3012.42" y="-769" font-family="Arial Bold" font-size="18.00">ndb.taxa</text>
<text text-anchor="start" x="3073.9" y="-769" font-family="Arial" font-size="14.00">    </text>
<text text-anchor="start" x="3105.02" y="-769" font-family="Arial" font-size="14.00" fill="#666666">[BASE TABLE]</text>
<polygon fill="none" stroke="black" points="2945.51,-724.8 2945.51,-755.6 3265.31,-755.6 3265.31,-724.8 2945.51,-724.8"/>
<text text-anchor="start" x="2952.51" y="-737" font-family="Arial" font-size="14.00">taxonid </text>
<text text-anchor="start" x="3001.54" y="-737" font-family="Arial" font-size="14.00" fill="#666666">[integer]</text>
<polygon fill="none" stroke="black" points="2945.51,-694 2945.51,-724.8 3265.31,-724.8 3265.31,-694 2945.51,-694"/>
<text text-anchor="start" x="2952.51" y="-706.2" font-family="Arial" font-size="14.00">taxoncode </text>
<text text-anchor="start" x="3021.01" y="-706.2" font-family="Arial" font-size="14.00" fill="#666666">[varchar(64)]</text>
<polygon fill="none" stroke="black" points="2945.51,-663.2 2945.51,-694 3265.31,-694 3265.31,-663.2 2945.51,-663.2"/>
<text text-anchor="start" x="2952.51" y="-675.4" font-family="Arial" font-size="14.00">taxonname </text>
<text text-anchor="start" x="3025.67" y="-675.4" font-family="Arial" font-size="14.00" fill="#666666">[text]</text>
<polygon fill="none" stroke="black" points="2945.51,-632.4 2945.51,-663.2 3265.31,-663.2 3265.31,-632.4 2945.51,-632.4"/>
<text text-anchor="start" x="2952.51" y="-644.6" font-family="Arial" font-size="14.00">author </text>
<text text-anchor="start" x="2996.1" y="-644.6" font-family="Arial" font-size="14.00" fill="#666666">[varchar(128)]</text>
<polygon fill="none" stroke="black" points="2945.51,-601.6 2945.51,-632.4 3265.31,-632.4 3265.31,-601.6 2945.51,-601.6"/>
<text text-anchor="start" x="2952.51" y="-613.8" font-family="Arial" font-size="14.00">valid </text>
<text text-anchor="start" x="2985.19" y="-613.8" font-family="Arial" font-size="14.00" fill="#666666">[boolean]</text>
<polygon fill="none" stroke="black" points="2945.51,-570.8 2945.51,-601.6 3265.31,-601.6 3265.31,-570.8 2945.51,-570.8"/>
<text text-anchor="start" x="2952.51" y="-583" font-family="Arial" font-size="14.00">highertaxonid </text>
<text text-anchor="start" x="3040.46" y="-583" font-family="Arial" font-size="14.00" fill="#666666">[integer]</text>
<polygon fill="none" stroke="black" points="2945.51,-540 2945.51,-570.8 3265.31,-570.8 3265.31,-540 2945.51,-540"/>
<text text-anchor="start" x="2952.51" y="-552.2" font-family="Arial" font-size="14.00">extinct </text>
<text text-anchor="start" x="2996.86" y="-552.2" font-family="Arial" font-size="14.00" fill="#666666">[boolean]</text>
<polygon fill="none" stroke="black" points="2945.51,-509.2 2945.51,-540 3265.31,-540 3265.31,-509.2 2945.51,-509.2"/>
<text text-anchor="start" x="2952.51" y="-521.4" font-family="Arial" font-size="14.00">taxagroupid </text>
<text text-anchor="start" x="3029.56" y="-521.4" font-family="Arial" font-size="14.00" fill="#666666">[varchar(3)]</text>
<polygon fill="none" stroke="black" points="2945.51,-478.4 2945.51,-509.2 3265.31,-509.2 3265.31,-478.4 2945.51,-478.4"/>
<text text-anchor="start" x="2952.51" y="-490.6" font-family="Arial" font-size="14.00">publicationid </text>
<text text-anchor="start" x="3034.23" y="-490.6" font-family="Arial" font-size="14.00" fill="#666666">[integer]</text>
<polygon fill="none" stroke="black" points="2945.51,-447.6 2945.51,-478.4 3265.31,-478.4 3265.31,-447.6 2945.51,-447.6"/>
<text text-anchor="start" x="2952.51" y="-459.8" font-family="Arial" font-size="14.00">validatorid </text>
<text text-anchor="start" x="3020.21" y="-459.8" font-family="Arial" font-size="14.00" fill="#666666">[integer]</text>
<polygon fill="none" stroke="black" points="2945.51,-416.8 2945.51,-447.6 3265.31,-447.6 3265.31,-416.8 2945.51,-416.8"/>
<text text-anchor="start" x="2952.51" y="-429" font-family="Arial" font-size="14.00">validatedate </text>
<text text-anchor="start" x="3031.9" y="-429" font-family="Arial" font-size="14.00" fill="#666666">[date]</text>
<polygon fill="none" stroke="black" points="2945.51,-386 2945.51,-416.8 3265.31,-416.8 3265.31,-386 2945.51,-386"/>
<text text-anchor="start" x="2952.51" y="-398.2" font-family="Arial" font-size="14.00">notes </text>
<text text-anchor="start" x="2990.65" y="-398.2" font-family="Arial" font-size="14.00" fill="#666666">[text]</text>
<polygon fill="none" stroke="black" points="2945.51,-355.2 2945.51,-386 3265.31,-386 3265.31,-355.2 2945.51,-355.2"/>
<text text-anchor="start" x="2952.51" y="-367.4" font-family="Arial" font-size="14.00">recdatecreated </text>
<text text-anchor="start" x="3049.79" y="-367.4" font-family="Arial" font-size="14.00" fill="#666666">[timestamp(0) without time zone]</text>
<polygon fill="none" stroke="black" points="2945.51,-324.4 2945.51,-355.2 3265.31,-355.2 3265.31,-324.4 2945.51,-324.4"/>
<text text-anchor="start" x="2952.51" y="-336.6" font-family="Arial" font-size="14.00">recdatemodified </text>
<text text-anchor="start" x="3056.01" y="-336.6" font-family="Arial" font-size="14.00" fill="#666666">[timestamp(0) without time zone]</text>
</g>
<!-- ndb.taxa&#45;&gt;ndb.taxagrouptypes -->
<g id="edge9" class="edge">
<title>ndb.taxa:taxagroupid&#45;&gt;ndb.taxagrouptypes:taxagroupid</title>
<path fill="none" stroke="black" d="M2934.48,-521.92C2893.68,-498.06 2916.15,-322.15 2945.51,-281.2 2974.21,-241.18 3021.48,-285.13 3050.31,-245.2 3074.81,-211.25 3093.18,-151 3051.31,-151"/>
<polygon fill="black" stroke="black" points="2934.53,-521.93 2943.02,-528.86 2939.68,-523.31 2943.86,-524.43 2943.86,-524.43 2943.86,-524.43 2939.68,-523.31 2945.35,-520.17 2934.53,-521.93"/>
<text text-anchor="start" x="2951.51" y="-534.6" font-family="Arial" font-size="10.00">FOREIGN KEY (taxagroupid) REFERENCES ndb.taxagrouptypes(taxagroupid)</text>
</g>
<!-- ndb.elementtaxagroups -->
<g id="node10" class="node">
<title>ndb.elementtaxagroups</title>
<polygon fill="#efefef" stroke="none" points="3369.51,-617 3369.51,-652.6 3689.31,-652.6 3689.31,-617 3369.51,-617"/>
<polygon fill="none" stroke="black" points="3369.51,-617 3369.51,-652.6 3689.31,-652.6 3689.31,-617 3369.51,-617"/>
<text text-anchor="start" x="3383.44" y="-630.4" font-family="Arial Bold" font-size="18.00">ndb.elementtaxagroups</text>
<text text-anchor="start" x="3550.89" y="-630.4" font-family="Arial" font-size="14.00">    </text>
<text text-anchor="start" x="3582.01" y="-630.4" font-family="Arial" font-size="14.00" fill="#666666">[BASE TABLE]</text>
<polygon fill="none" stroke="black" points="3369.51,-586.2 3369.51,-617 3689.31,-617 3689.31,-586.2 3369.51,-586.2"/>
<text text-anchor="start" x="3376.51" y="-598.4" font-family="Arial" font-size="14.00">elementtaxagroupid </text>
<text text-anchor="start" x="3503.37" y="-598.4" font-family="Arial" font-size="14.00" fill="#666666">[integer]</text>
<polygon fill="none" stroke="black" points="3369.51,-555.4 3369.51,-586.2 3689.31,-586.2 3689.31,-555.4 3369.51,-555.4"/>
<text text-anchor="start" x="3376.51" y="-567.6" font-family="Arial" font-size="14.00">taxagroupid </text>
<text text-anchor="start" x="3453.56" y="-567.6" font-family="Arial" font-size="14.00" fill="#666666">[varchar(3)]</text>
<polygon fill="none" stroke="black" points="3369.51,-524.6 3369.51,-555.4 3689.31,-555.4 3689.31,-524.6 3369.51,-524.6"/>
<text text-anchor="start" x="3376.51" y="-536.8" font-family="Arial" font-size="14.00">elementtypeid </text>
<text text-anchor="start" x="3467.56" y="-536.8" font-family="Arial" font-size="14.00" fill="#666666">[integer]</text>
<polygon fill="none" stroke="black" points="3369.51,-493.8 3369.51,-524.6 3689.31,-524.6 3689.31,-493.8 3369.51,-493.8"/>
<text text-anchor="start" x="3376.51" y="-506" font-family="Arial" font-size="14.00">recdatecreated </text>
<text text-anchor="start" x="3473.79" y="-506" font-family="Arial" font-size="14.00" fill="#666666">[timestamp(0) without time zone]</text>
<polygon fill="none" stroke="black" points="3369.51,-463 3369.51,-493.8 3689.31,-493.8 3689.31,-463 3369.51,-463"/>
<text text-anchor="start" x="3376.51" y="-475.2" font-family="Arial" font-size="14.00">recdatemodified </text>
<text text-anchor="start" x="3480.01" y="-475.2" font-family="Arial" font-size="14.00" fill="#666666">[timestamp(0) without time zone]</text>
</g>
<!-- ndb.elementtaxagroups&#45;&gt;ndb.taxagrouptypes -->
<g id="edge10" class="edge">
<title>ndb.elementtaxagroups:taxagroupid&#45;&gt;ndb.taxagrouptypes:taxagroupid</title>
<path fill="none" stroke="black" d="M3358.51,-568.59C3308.93,-544.5 3354.48,-330.46 3317.41,-281.2 3238.23,-176 3182.97,-151 3051.31,-151"/>
<polygon fill="black" stroke="black" points="3358.42,-568.57 3367.21,-575.12 3363.63,-569.72 3367.86,-570.66 3367.86,-570.66 3367.86,-570.66 3363.63,-569.72 3369.15,-566.33 3358.42,-568.57"/>
<text text-anchor="start" x="3375.51" y="-580.8" font-family="Arial" font-size="10.00">FOREIGN KEY (taxagroupid) REFERENCES ndb.taxagrouptypes(taxagroupid) ON UPDATE CASCADE ON DELETE CASCADE</text>
</g>
</g>
</svg>
