<?xml version="1.0" encoding="UTF-8" standalone="no"?>
<!DOCTYPE svg PUBLIC "-//W3C//DTD SVG 1.1//EN"
 "http://www.w3.org/Graphics/SVG/1.1/DTD/svg11.dtd">
<!-- Generated by graphviz version 12.1.2 (20240928.0832)
 -->
<!-- Title: ndb.specimendomesticstatustypes Pages: 1 -->
<svg width="3454pt" height="1462pt"
 viewBox="0.00 0.00 3453.87 1462.40" xmlns="http://www.w3.org/2000/svg" xmlns:xlink="http://www.w3.org/1999/xlink">
<g id="graph0" class="graph" transform="scale(1 1) rotate(0) translate(4 1458.4)">
<title>ndb.specimendomesticstatustypes</title>
<polygon fill="white" stroke="none" points="-4,4 -4,-1458.4 3449.87,-1458.4 3449.87,4 -4,4"/>
<!-- ndb.specimendomesticstatustypes -->
<g id="node1" class="node">
<title>ndb.specimendomesticstatustypes</title>
<polygon fill="#efefef" stroke="none" points="46.2,-197.2 46.2,-232.8 428.15,-232.8 428.15,-197.2 46.2,-197.2"/>
<polygon fill="none" stroke="black" points="46.2,-197.2 46.2,-232.8 428.15,-232.8 428.15,-197.2 46.2,-197.2"/>
<text text-anchor="start" x="53.2" y="-210.6" font-family="Arial Bold" font-size="18.00">ndb.specimendomesticstatustypes</text>
<text text-anchor="start" x="296.66" y="-210.6" font-family="Arial" font-size="14.00">    </text>
<text text-anchor="start" x="327.77" y="-210.6" font-family="Arial" font-size="14.00" fill="#666666">[BASE TABLE]</text>
<polygon fill="none" stroke="black" points="46.2,-166.4 46.2,-197.2 428.15,-197.2 428.15,-166.4 46.2,-166.4"/>
<text text-anchor="start" x="53.2" y="-178.6" font-family="Arial" font-size="14.00">domesticstatusid </text>
<text text-anchor="start" x="161.36" y="-178.6" font-family="Arial" font-size="14.00" fill="#666666">[integer]</text>
<polygon fill="none" stroke="black" points="46.2,-135.6 46.2,-166.4 428.15,-166.4 428.15,-135.6 46.2,-135.6"/>
<text text-anchor="start" x="53.2" y="-147.8" font-family="Arial" font-size="14.00">domesticstatus </text>
<text text-anchor="start" x="150.46" y="-147.8" font-family="Arial" font-size="14.00" fill="#666666">[varchar(24)]</text>
<polygon fill="none" stroke="black" points="46.2,-104.8 46.2,-135.6 428.15,-135.6 428.15,-104.8 46.2,-104.8"/>
<text text-anchor="start" x="53.2" y="-117" font-family="Arial" font-size="14.00">recdatecreated </text>
<text text-anchor="start" x="150.48" y="-117" font-family="Arial" font-size="14.00" fill="#666666">[timestamp(0) without time zone]</text>
<polygon fill="none" stroke="black" points="46.2,-74 46.2,-104.8 428.15,-104.8 428.15,-74 46.2,-74"/>
<text text-anchor="start" x="53.2" y="-86.2" font-family="Arial" font-size="14.00">recdatemodified </text>
<text text-anchor="start" x="156.7" y="-86.2" font-family="Arial" font-size="14.00" fill="#666666">[timestamp(0) without time zone]</text>
<polygon fill="none" stroke="black" stroke-width="3" points="44.7,-72.5 44.7,-234.3 429.65,-234.3 429.65,-72.5 44.7,-72.5"/>
</g>
<!-- ndb.specimens -->
<g id="node2" class="node">
<title>ndb.specimens</title>
<polygon fill="#efefef" stroke="none" points="1595.27,-909.6 1595.27,-945.2 1915.07,-945.2 1915.07,-909.6 1595.27,-909.6"/>
<polygon fill="none" stroke="black" points="1595.27,-909.6 1595.27,-945.2 1915.07,-945.2 1915.07,-909.6 1595.27,-909.6"/>
<text text-anchor="start" x="1639.69" y="-923" font-family="Arial Bold" font-size="18.00">ndb.specimens</text>
<text text-anchor="start" x="1746.17" y="-923" font-family="Arial" font-size="14.00">    </text>
<text text-anchor="start" x="1777.29" y="-923" font-family="Arial" font-size="14.00" fill="#666666">[BASE TABLE]</text>
<polygon fill="none" stroke="black" points="1595.27,-878.8 1595.27,-909.6 1915.07,-909.6 1915.07,-878.8 1595.27,-878.8"/>
<text text-anchor="start" x="1602.27" y="-891" font-family="Arial" font-size="14.00">specimenid </text>
<text text-anchor="start" x="1676.98" y="-891" font-family="Arial" font-size="14.00" fill="#666666">[integer]</text>
<polygon fill="none" stroke="black" points="1595.27,-848 1595.27,-878.8 1915.07,-878.8 1915.07,-848 1595.27,-848"/>
<text text-anchor="start" x="1602.27" y="-860.2" font-family="Arial" font-size="14.00">dataid </text>
<text text-anchor="start" x="1644.31" y="-860.2" font-family="Arial" font-size="14.00" fill="#666666">[integer]</text>
<polygon fill="none" stroke="black" points="1595.27,-817.2 1595.27,-848 1915.07,-848 1915.07,-817.2 1595.27,-817.2"/>
<text text-anchor="start" x="1602.27" y="-829.4" font-family="Arial" font-size="14.00">elementtypeid </text>
<text text-anchor="start" x="1693.33" y="-829.4" font-family="Arial" font-size="14.00" fill="#666666">[integer]</text>
<polygon fill="none" stroke="black" points="1595.27,-786.4 1595.27,-817.2 1915.07,-817.2 1915.07,-786.4 1595.27,-786.4"/>
<text text-anchor="start" x="1602.27" y="-798.6" font-family="Arial" font-size="14.00">symmetryid </text>
<text text-anchor="start" x="1677.72" y="-798.6" font-family="Arial" font-size="14.00" fill="#666666">[integer]</text>
<polygon fill="none" stroke="black" points="1595.27,-755.6 1595.27,-786.4 1915.07,-786.4 1915.07,-755.6 1595.27,-755.6"/>
<text text-anchor="start" x="1602.27" y="-767.8" font-family="Arial" font-size="14.00">portionid </text>
<text text-anchor="start" x="1659.87" y="-767.8" font-family="Arial" font-size="14.00" fill="#666666">[integer]</text>
<polygon fill="none" stroke="black" points="1595.27,-724.8 1595.27,-755.6 1915.07,-755.6 1915.07,-724.8 1595.27,-724.8"/>
<text text-anchor="start" x="1602.27" y="-737" font-family="Arial" font-size="14.00">maturityid </text>
<text text-anchor="start" x="1666.85" y="-737" font-family="Arial" font-size="14.00" fill="#666666">[integer]</text>
<polygon fill="none" stroke="black" points="1595.27,-694 1595.27,-724.8 1915.07,-724.8 1915.07,-694 1595.27,-694"/>
<text text-anchor="start" x="1602.27" y="-706.2" font-family="Arial" font-size="14.00">sexid </text>
<text text-anchor="start" x="1638.85" y="-706.2" font-family="Arial" font-size="14.00" fill="#666666">[integer]</text>
<polygon fill="none" stroke="black" points="1595.27,-663.2 1595.27,-694 1915.07,-694 1915.07,-663.2 1595.27,-663.2"/>
<text text-anchor="start" x="1602.27" y="-675.4" font-family="Arial" font-size="14.00">domesticstatusid </text>
<text text-anchor="start" x="1710.43" y="-675.4" font-family="Arial" font-size="14.00" fill="#666666">[integer]</text>
<polygon fill="none" stroke="black" points="1595.27,-632.4 1595.27,-663.2 1915.07,-663.2 1915.07,-632.4 1595.27,-632.4"/>
<text text-anchor="start" x="1602.27" y="-644.6" font-family="Arial" font-size="14.00">preservative </text>
<text text-anchor="start" x="1682.42" y="-644.6" font-family="Arial" font-size="14.00" fill="#666666">[varchar(256)]</text>
<polygon fill="none" stroke="black" points="1595.27,-601.6 1595.27,-632.4 1915.07,-632.4 1915.07,-601.6 1595.27,-601.6"/>
<text text-anchor="start" x="1602.27" y="-613.8" font-family="Arial" font-size="14.00">nisp </text>
<text text-anchor="start" x="1631.85" y="-613.8" font-family="Arial" font-size="14.00" fill="#666666">[double precision]</text>
<polygon fill="none" stroke="black" points="1595.27,-570.8 1595.27,-601.6 1915.07,-601.6 1915.07,-570.8 1595.27,-570.8"/>
<text text-anchor="start" x="1602.27" y="-583" font-family="Arial" font-size="14.00">repositoryid </text>
<text text-anchor="start" x="1678.53" y="-583" font-family="Arial" font-size="14.00" fill="#666666">[integer]</text>
<polygon fill="none" stroke="black" points="1595.27,-540 1595.27,-570.8 1915.07,-570.8 1915.07,-540 1595.27,-540"/>
<text text-anchor="start" x="1602.27" y="-552.2" font-family="Arial" font-size="14.00">specimennr </text>
<text text-anchor="start" x="1678.53" y="-552.2" font-family="Arial" font-size="14.00" fill="#666666">[varchar(50)]</text>
<polygon fill="none" stroke="black" points="1595.27,-509.2 1595.27,-540 1915.07,-540 1915.07,-509.2 1595.27,-509.2"/>
<text text-anchor="start" x="1602.27" y="-521.4" font-family="Arial" font-size="14.00">fieldnr </text>
<text text-anchor="start" x="1644.29" y="-521.4" font-family="Arial" font-size="14.00" fill="#666666">[varchar(50)]</text>
<polygon fill="none" stroke="black" points="1595.27,-478.4 1595.27,-509.2 1915.07,-509.2 1915.07,-478.4 1595.27,-478.4"/>
<text text-anchor="start" x="1602.27" y="-490.6" font-family="Arial" font-size="14.00">arctosnr </text>
<text text-anchor="start" x="1656.74" y="-490.6" font-family="Arial" font-size="14.00" fill="#666666">[varchar(50)]</text>
<polygon fill="none" stroke="black" points="1595.27,-447.6 1595.27,-478.4 1915.07,-478.4 1915.07,-447.6 1595.27,-447.6"/>
<text text-anchor="start" x="1602.27" y="-459.8" font-family="Arial" font-size="14.00">notes </text>
<text text-anchor="start" x="1640.41" y="-459.8" font-family="Arial" font-size="14.00" fill="#666666">[text]</text>
<polygon fill="none" stroke="black" points="1595.27,-416.8 1595.27,-447.6 1915.07,-447.6 1915.07,-416.8 1595.27,-416.8"/>
<text text-anchor="start" x="1602.27" y="-429" font-family="Arial" font-size="14.00">recdatecreated </text>
<text text-anchor="start" x="1699.56" y="-429" font-family="Arial" font-size="14.00" fill="#666666">[timestamp(0) without time zone]</text>
<polygon fill="none" stroke="black" points="1595.27,-386 1595.27,-416.8 1915.07,-416.8 1915.07,-386 1595.27,-386"/>
<text text-anchor="start" x="1602.27" y="-398.2" font-family="Arial" font-size="14.00">recdatemodified </text>
<text text-anchor="start" x="1705.78" y="-398.2" font-family="Arial" font-size="14.00" fill="#666666">[timestamp(0) without time zone]</text>
</g>
<!-- ndb.specimens&#45;&gt;ndb.specimendomesticstatustypes -->
<g id="edge1" class="edge">
<title>ndb.specimens:domesticstatusid&#45;&gt;ndb.specimendomesticstatustypes:domesticstatusid</title>
<path fill="none" stroke="black" d="M1584.02,-678.6C1070.8,-678.33 864.18,-656.71 483.17,-306.8 438.6,-265.86 489.67,-181.8 429.15,-181.8"/>
<polygon fill="black" stroke="black" points="1583.94,-678.6 1593.94,-683.1 1589.27,-678.6 1593.6,-678.6 1593.6,-678.6 1593.6,-678.6 1589.27,-678.6 1593.94,-674.1 1583.94,-678.6"/>
<text text-anchor="start" x="904.3" y="-688.6" font-family="Arial" font-size="10.00">FOREIGN KEY (domesticstatusid) REFERENCES ndb.specimendomesticstatustypes(domesticstatusid) ON UPDATE CASCADE ON DELETE CASCADE</text>
</g>
<!-- ndb.data -->
<g id="node7" class="node">
<title>ndb.data</title>
<polygon fill="#efefef" stroke="none" points="535.27,-228 535.27,-263.6 855.07,-263.6 855.07,-228 535.27,-228"/>
<polygon fill="none" stroke="black" points="535.27,-228 535.27,-263.6 855.07,-263.6 855.07,-228 535.27,-228"/>
<text text-anchor="start" x="602.19" y="-241.4" font-family="Arial Bold" font-size="18.00">ndb.data</text>
<text text-anchor="start" x="663.67" y="-241.4" font-family="Arial" font-size="14.00">    </text>
<text text-anchor="start" x="694.79" y="-241.4" font-family="Arial" font-size="14.00" fill="#666666">[BASE TABLE]</text>
<polygon fill="none" stroke="black" points="535.27,-197.2 535.27,-228 855.07,-228 855.07,-197.2 535.27,-197.2"/>
<text text-anchor="start" x="542.27" y="-209.4" font-family="Arial" font-size="14.00">dataid </text>
<text text-anchor="start" x="584.31" y="-209.4" font-family="Arial" font-size="14.00" fill="#666666">[integer]</text>
<polygon fill="none" stroke="black" points="535.27,-166.4 535.27,-197.2 855.07,-197.2 855.07,-166.4 535.27,-166.4"/>
<text text-anchor="start" x="542.27" y="-178.6" font-family="Arial" font-size="14.00">sampleid </text>
<text text-anchor="start" x="602.19" y="-178.6" font-family="Arial" font-size="14.00" fill="#666666">[integer]</text>
<polygon fill="none" stroke="black" points="535.27,-135.6 535.27,-166.4 855.07,-166.4 855.07,-135.6 535.27,-135.6"/>
<text text-anchor="start" x="542.27" y="-147.8" font-family="Arial" font-size="14.00">variableid </text>
<text text-anchor="start" x="606.09" y="-147.8" font-family="Arial" font-size="14.00" fill="#666666">[integer]</text>
<polygon fill="none" stroke="black" points="535.27,-104.8 535.27,-135.6 855.07,-135.6 855.07,-104.8 535.27,-104.8"/>
<text text-anchor="start" x="542.27" y="-117" font-family="Arial" font-size="14.00">value </text>
<text text-anchor="start" x="579.63" y="-117" font-family="Arial" font-size="14.00" fill="#666666">[double precision]</text>
<polygon fill="none" stroke="black" points="535.27,-74 535.27,-104.8 855.07,-104.8 855.07,-74 535.27,-74"/>
<text text-anchor="start" x="542.27" y="-86.2" font-family="Arial" font-size="14.00">recdatecreated </text>
<text text-anchor="start" x="639.56" y="-86.2" font-family="Arial" font-size="14.00" fill="#666666">[timestamp(0) without time zone]</text>
<polygon fill="none" stroke="black" points="535.27,-43.2 535.27,-74 855.07,-74 855.07,-43.2 535.27,-43.2"/>
<text text-anchor="start" x="542.27" y="-55.4" font-family="Arial" font-size="14.00">recdatemodified </text>
<text text-anchor="start" x="645.78" y="-55.4" font-family="Arial" font-size="14.00" fill="#666666">[timestamp(0) without time zone]</text>
</g>
<!-- ndb.specimens&#45;&gt;ndb.data -->
<g id="edge6" class="edge">
<title>ndb.specimens:dataid&#45;&gt;ndb.data:dataid</title>
<path fill="none" stroke="black" d="M1583.99,-863.34C1200.5,-858.92 1156.18,-606.37 907.17,-306.8 876.73,-270.17 903.7,-212.6 856.07,-212.6"/>
<polygon fill="black" stroke="black" points="1583.94,-863.34 1593.91,-867.9 1589.27,-863.37 1593.6,-863.4 1593.6,-863.4 1593.6,-863.4 1589.27,-863.37 1593.97,-858.9 1583.94,-863.34"/>
<text text-anchor="start" x="1112.69" y="-873.4" font-family="Arial" font-size="10.00">FOREIGN KEY (dataid) REFERENCES ndb.data(dataid) ON UPDATE CASCADE ON DELETE CASCADE</text>
</g>
<!-- ndb.elementtypes -->
<g id="node8" class="node">
<title>ndb.elementtypes</title>
<polygon fill="#efefef" stroke="none" points="959.27,-197.2 959.27,-232.8 1279.07,-232.8 1279.07,-197.2 959.27,-197.2"/>
<polygon fill="none" stroke="black" points="959.27,-197.2 959.27,-232.8 1279.07,-232.8 1279.07,-197.2 959.27,-197.2"/>
<text text-anchor="start" x="993.7" y="-210.6" font-family="Arial Bold" font-size="18.00">ndb.elementtypes</text>
<text text-anchor="start" x="1120.16" y="-210.6" font-family="Arial" font-size="14.00">    </text>
<text text-anchor="start" x="1151.28" y="-210.6" font-family="Arial" font-size="14.00" fill="#666666">[BASE TABLE]</text>
<polygon fill="none" stroke="black" points="959.27,-166.4 959.27,-197.2 1279.07,-197.2 1279.07,-166.4 959.27,-166.4"/>
<text text-anchor="start" x="966.27" y="-178.6" font-family="Arial" font-size="14.00">elementtypeid </text>
<text text-anchor="start" x="1057.33" y="-178.6" font-family="Arial" font-size="14.00" fill="#666666">[integer]</text>
<polygon fill="none" stroke="black" points="959.27,-135.6 959.27,-166.4 1279.07,-166.4 1279.07,-135.6 959.27,-135.6"/>
<text text-anchor="start" x="966.27" y="-147.8" font-family="Arial" font-size="14.00">elementtype </text>
<text text-anchor="start" x="1046.43" y="-147.8" font-family="Arial" font-size="14.00" fill="#666666">[varchar(64)]</text>
<polygon fill="none" stroke="black" points="959.27,-104.8 959.27,-135.6 1279.07,-135.6 1279.07,-104.8 959.27,-104.8"/>
<text text-anchor="start" x="966.27" y="-117" font-family="Arial" font-size="14.00">recdatecreated </text>
<text text-anchor="start" x="1063.56" y="-117" font-family="Arial" font-size="14.00" fill="#666666">[timestamp(0) without time zone]</text>
<polygon fill="none" stroke="black" points="959.27,-74 959.27,-104.8 1279.07,-104.8 1279.07,-74 959.27,-74"/>
<text text-anchor="start" x="966.27" y="-86.2" font-family="Arial" font-size="14.00">recdatemodified </text>
<text text-anchor="start" x="1069.78" y="-86.2" font-family="Arial" font-size="14.00" fill="#666666">[timestamp(0) without time zone]</text>
</g>
<!-- ndb.specimens&#45;&gt;ndb.elementtypes -->
<g id="edge7" class="edge">
<title>ndb.specimens:elementtypeid&#45;&gt;ndb.elementtypes:elementtypeid</title>
<path fill="none" stroke="black" d="M1584.13,-832.45C1335.72,-825.02 1437.74,-541.62 1331.17,-306.8 1306.37,-252.15 1340.09,-181.8 1280.07,-181.8"/>
<polygon fill="black" stroke="black" points="1583.94,-832.45 1593.87,-837.09 1589.27,-832.53 1593.6,-832.59 1593.6,-832.59 1593.6,-832.59 1589.27,-832.53 1594.01,-828.1 1583.94,-832.45"/>
<text text-anchor="start" x="1002.64" y="-842.6" font-family="Arial" font-size="10.00">FOREIGN KEY (elementtypeid) REFERENCES ndb.elementtypes(elementtypeid) ON UPDATE CASCADE ON DELETE CASCADE</text>
</g>
<!-- ndb.elementsymmetries -->
<g id="node9" class="node">
<title>ndb.elementsymmetries</title>
<polygon fill="#efefef" stroke="none" points="1383.27,-197.2 1383.27,-232.8 1703.07,-232.8 1703.07,-197.2 1383.27,-197.2"/>
<polygon fill="none" stroke="black" points="1383.27,-197.2 1383.27,-232.8 1703.07,-232.8 1703.07,-197.2 1383.27,-197.2"/>
<text text-anchor="start" x="1395.2" y="-210.6" font-family="Arial Bold" font-size="18.00">ndb.elementsymmetries</text>
<text text-anchor="start" x="1566.66" y="-210.6" font-family="Arial" font-size="14.00">    </text>
<text text-anchor="start" x="1597.77" y="-210.6" font-family="Arial" font-size="14.00" fill="#666666">[BASE TABLE]</text>
<polygon fill="none" stroke="black" points="1383.27,-166.4 1383.27,-197.2 1703.07,-197.2 1703.07,-166.4 1383.27,-166.4"/>
<text text-anchor="start" x="1390.27" y="-178.6" font-family="Arial" font-size="14.00">symmetryid </text>
<text text-anchor="start" x="1465.72" y="-178.6" font-family="Arial" font-size="14.00" fill="#666666">[integer]</text>
<polygon fill="none" stroke="black" points="1383.27,-135.6 1383.27,-166.4 1703.07,-166.4 1703.07,-135.6 1383.27,-135.6"/>
<text text-anchor="start" x="1390.27" y="-147.8" font-family="Arial" font-size="14.00">symmetry </text>
<text text-anchor="start" x="1454.83" y="-147.8" font-family="Arial" font-size="14.00" fill="#666666">[varchar(24)]</text>
<polygon fill="none" stroke="black" points="1383.27,-104.8 1383.27,-135.6 1703.07,-135.6 1703.07,-104.8 1383.27,-104.8"/>
<text text-anchor="start" x="1390.27" y="-117" font-family="Arial" font-size="14.00">recdatecreated </text>
<text text-anchor="start" x="1487.56" y="-117" font-family="Arial" font-size="14.00" fill="#666666">[timestamp(0) without time zone]</text>
<polygon fill="none" stroke="black" points="1383.27,-74 1383.27,-104.8 1703.07,-104.8 1703.07,-74 1383.27,-74"/>
<text text-anchor="start" x="1390.27" y="-86.2" font-family="Arial" font-size="14.00">recdatemodified </text>
<text text-anchor="start" x="1493.78" y="-86.2" font-family="Arial" font-size="14.00" fill="#666666">[timestamp(0) without time zone]</text>
</g>
<!-- ndb.specimens&#45;&gt;ndb.elementsymmetries -->
<g id="edge8" class="edge">
<title>ndb.specimens:symmetryid&#45;&gt;ndb.elementsymmetries:symmetryid</title>
<path fill="none" stroke="black" d="M1584.08,-801.56C1393.88,-792.23 1497.54,-517.88 1595.27,-342.8 1622.75,-293.58 1675.39,-325.1 1703.07,-276 1723.63,-239.53 1745.94,-181.8 1704.07,-181.8"/>
<polygon fill="black" stroke="black" points="1583.94,-801.55 1593.83,-806.29 1589.28,-801.68 1593.6,-801.78 1593.6,-801.78 1593.6,-801.78 1589.28,-801.68 1594.05,-797.29 1583.94,-801.55"/>
<text text-anchor="start" x="1220.55" y="-811.8" font-family="Arial" font-size="10.00">FOREIGN KEY (symmetryid) REFERENCES ndb.elementsymmetries(symmetryid)</text>
</g>
<!-- ndb.elementportions -->
<g id="node10" class="node">
<title>ndb.elementportions</title>
<polygon fill="#efefef" stroke="none" points="1807.27,-197.2 1807.27,-232.8 2127.07,-232.8 2127.07,-197.2 1807.27,-197.2"/>
<polygon fill="none" stroke="black" points="1807.27,-197.2 1807.27,-232.8 2127.07,-232.8 2127.07,-197.2 1807.27,-197.2"/>
<text text-anchor="start" x="1831.19" y="-210.6" font-family="Arial Bold" font-size="18.00">ndb.elementportions</text>
<text text-anchor="start" x="1978.66" y="-210.6" font-family="Arial" font-size="14.00">    </text>
<text text-anchor="start" x="2009.78" y="-210.6" font-family="Arial" font-size="14.00" fill="#666666">[BASE TABLE]</text>
<polygon fill="none" stroke="black" points="1807.27,-166.4 1807.27,-197.2 2127.07,-197.2 2127.07,-166.4 1807.27,-166.4"/>
<text text-anchor="start" x="1814.27" y="-178.6" font-family="Arial" font-size="14.00">portionid </text>
<text text-anchor="start" x="1871.87" y="-178.6" font-family="Arial" font-size="14.00" fill="#666666">[integer]</text>
<polygon fill="none" stroke="black" points="1807.27,-135.6 1807.27,-166.4 2127.07,-166.4 2127.07,-135.6 1807.27,-135.6"/>
<text text-anchor="start" x="1814.27" y="-147.8" font-family="Arial" font-size="14.00">portion </text>
<text text-anchor="start" x="1860.97" y="-147.8" font-family="Arial" font-size="14.00" fill="#666666">[varchar(48)]</text>
<polygon fill="none" stroke="black" points="1807.27,-104.8 1807.27,-135.6 2127.07,-135.6 2127.07,-104.8 1807.27,-104.8"/>
<text text-anchor="start" x="1814.27" y="-117" font-family="Arial" font-size="14.00">recdatecreated </text>
<text text-anchor="start" x="1911.56" y="-117" font-family="Arial" font-size="14.00" fill="#666666">[timestamp(0) without time zone]</text>
<polygon fill="none" stroke="black" points="1807.27,-74 1807.27,-104.8 2127.07,-104.8 2127.07,-74 1807.27,-74"/>
<text text-anchor="start" x="1814.27" y="-86.2" font-family="Arial" font-size="14.00">recdatemodified </text>
<text text-anchor="start" x="1917.78" y="-86.2" font-family="Arial" font-size="14.00" fill="#666666">[timestamp(0) without time zone]</text>
</g>
<!-- ndb.specimens&#45;&gt;ndb.elementportions -->
<g id="edge9" class="edge">
<title>ndb.specimens:portionid&#45;&gt;ndb.elementportions:portionid</title>
<path fill="none" stroke="black" d="M1926.37,-770.73C2102.73,-761.31 2006.12,-505.89 1915.07,-342.8 1887.6,-293.59 1834.95,-325.1 1807.27,-276 1786.71,-239.53 1764.4,-181.8 1806.27,-181.8"/>
<polygon fill="black" stroke="black" points="1926.4,-770.73 1916.29,-766.49 1921.07,-770.87 1916.74,-770.98 1916.74,-770.98 1916.74,-770.98 1921.07,-770.87 1916.52,-775.49 1926.4,-770.73"/>
<text text-anchor="start" x="1923.07" y="-781" font-family="Arial" font-size="10.00">FOREIGN KEY (portionid) REFERENCES ndb.elementportions(portionid)</text>
</g>
<!-- ndb.elementmaturities -->
<g id="node11" class="node">
<title>ndb.elementmaturities</title>
<polygon fill="#efefef" stroke="none" points="2231.27,-197.2 2231.27,-232.8 2551.07,-232.8 2551.07,-197.2 2231.27,-197.2"/>
<polygon fill="none" stroke="black" points="2231.27,-197.2 2231.27,-232.8 2551.07,-232.8 2551.07,-197.2 2231.27,-197.2"/>
<text text-anchor="start" x="2248.7" y="-210.6" font-family="Arial Bold" font-size="18.00">ndb.elementmaturities</text>
<text text-anchor="start" x="2409.16" y="-210.6" font-family="Arial" font-size="14.00">    </text>
<text text-anchor="start" x="2440.27" y="-210.6" font-family="Arial" font-size="14.00" fill="#666666">[BASE TABLE]</text>
<polygon fill="none" stroke="black" points="2231.27,-166.4 2231.27,-197.2 2551.07,-197.2 2551.07,-166.4 2231.27,-166.4"/>
<text text-anchor="start" x="2238.27" y="-178.6" font-family="Arial" font-size="14.00">maturityid </text>
<text text-anchor="start" x="2302.85" y="-178.6" font-family="Arial" font-size="14.00" fill="#666666">[integer]</text>
<polygon fill="none" stroke="black" points="2231.27,-135.6 2231.27,-166.4 2551.07,-166.4 2551.07,-135.6 2231.27,-135.6"/>
<text text-anchor="start" x="2238.27" y="-147.8" font-family="Arial" font-size="14.00">maturity </text>
<text text-anchor="start" x="2291.95" y="-147.8" font-family="Arial" font-size="14.00" fill="#666666">[varchar(36)]</text>
<polygon fill="none" stroke="black" points="2231.27,-104.8 2231.27,-135.6 2551.07,-135.6 2551.07,-104.8 2231.27,-104.8"/>
<text text-anchor="start" x="2238.27" y="-117" font-family="Arial" font-size="14.00">recdatecreated </text>
<text text-anchor="start" x="2335.56" y="-117" font-family="Arial" font-size="14.00" fill="#666666">[timestamp(0) without time zone]</text>
<polygon fill="none" stroke="black" points="2231.27,-74 2231.27,-104.8 2551.07,-104.8 2551.07,-74 2231.27,-74"/>
<text text-anchor="start" x="2238.27" y="-86.2" font-family="Arial" font-size="14.00">recdatemodified </text>
<text text-anchor="start" x="2341.78" y="-86.2" font-family="Arial" font-size="14.00" fill="#666666">[timestamp(0) without time zone]</text>
</g>
<!-- ndb.specimens&#45;&gt;ndb.elementmaturities -->
<g id="edge10" class="edge">
<title>ndb.specimens:maturityid&#45;&gt;ndb.elementmaturities:maturityid</title>
<path fill="none" stroke="black" d="M1926.43,-740.03C2139.46,-732.95 2079.34,-504.88 2179.17,-306.8 2206.19,-253.2 2170.26,-181.8 2230.27,-181.8"/>
<polygon fill="black" stroke="black" points="1926.41,-740.03 1916.33,-735.7 1921.07,-740.12 1916.74,-740.19 1916.74,-740.19 1916.74,-740.19 1921.07,-740.12 1916.48,-744.69 1926.41,-740.03"/>
<text text-anchor="start" x="1923.07" y="-750.2" font-family="Arial" font-size="10.00">FOREIGN KEY (maturityid) REFERENCES ndb.elementmaturities(maturityid)</text>
</g>
<!-- ndb.specimensextypes -->
<g id="node12" class="node">
<title>ndb.specimensextypes</title>
<polygon fill="#efefef" stroke="none" points="2655.27,-197.2 2655.27,-232.8 2975.07,-232.8 2975.07,-197.2 2655.27,-197.2"/>
<polygon fill="none" stroke="black" points="2655.27,-197.2 2655.27,-232.8 2975.07,-232.8 2975.07,-197.2 2655.27,-197.2"/>
<text text-anchor="start" x="2672.2" y="-210.6" font-family="Arial Bold" font-size="18.00">ndb.specimensextypes</text>
<text text-anchor="start" x="2833.66" y="-210.6" font-family="Arial" font-size="14.00">    </text>
<text text-anchor="start" x="2864.78" y="-210.6" font-family="Arial" font-size="14.00" fill="#666666">[BASE TABLE]</text>
<polygon fill="none" stroke="black" points="2655.27,-166.4 2655.27,-197.2 2975.07,-197.2 2975.07,-166.4 2655.27,-166.4"/>
<text text-anchor="start" x="2662.27" y="-178.6" font-family="Arial" font-size="14.00">sexid </text>
<text text-anchor="start" x="2698.85" y="-178.6" font-family="Arial" font-size="14.00" fill="#666666">[integer]</text>
<polygon fill="none" stroke="black" points="2655.27,-135.6 2655.27,-166.4 2975.07,-166.4 2975.07,-135.6 2655.27,-135.6"/>
<text text-anchor="start" x="2662.27" y="-147.8" font-family="Arial" font-size="14.00">sex </text>
<text text-anchor="start" x="2687.95" y="-147.8" font-family="Arial" font-size="14.00" fill="#666666">[varchar(24)]</text>
<polygon fill="none" stroke="black" points="2655.27,-104.8 2655.27,-135.6 2975.07,-135.6 2975.07,-104.8 2655.27,-104.8"/>
<text text-anchor="start" x="2662.27" y="-117" font-family="Arial" font-size="14.00">recdatecreated </text>
<text text-anchor="start" x="2759.56" y="-117" font-family="Arial" font-size="14.00" fill="#666666">[timestamp(0) without time zone]</text>
<polygon fill="none" stroke="black" points="2655.27,-74 2655.27,-104.8 2975.07,-104.8 2975.07,-74 2655.27,-74"/>
<text text-anchor="start" x="2662.27" y="-86.2" font-family="Arial" font-size="14.00">recdatemodified </text>
<text text-anchor="start" x="2765.78" y="-86.2" font-family="Arial" font-size="14.00" fill="#666666">[timestamp(0) without time zone]</text>
</g>
<!-- ndb.specimens&#45;&gt;ndb.specimensextypes -->
<g id="edge11" class="edge">
<title>ndb.specimens:sexid&#45;&gt;ndb.specimensextypes:sexid</title>
<path fill="none" stroke="black" d="M1926.37,-709.36C2272,-706.75 2373.54,-571.58 2603.17,-306.8 2642.5,-261.46 2594.26,-181.8 2654.27,-181.8"/>
<polygon fill="black" stroke="black" points="1926.41,-709.36 1916.39,-704.9 1921.07,-709.38 1916.74,-709.4 1916.74,-709.4 1916.74,-709.4 1921.07,-709.38 1916.42,-713.9 1926.41,-709.36"/>
<text text-anchor="start" x="1923.07" y="-719.4" font-family="Arial" font-size="10.00">FOREIGN KEY (sexid) REFERENCES ndb.specimensextypes(sexid) ON UPDATE CASCADE ON DELETE CASCADE</text>
</g>
<!-- ndb.repositoryinstitutions -->
<g id="node13" class="node">
<title>ndb.repositoryinstitutions</title>
<polygon fill="#efefef" stroke="none" points="3079.68,-228 3079.68,-263.6 3402.67,-263.6 3402.67,-228 3079.68,-228"/>
<polygon fill="none" stroke="black" points="3079.68,-228 3079.68,-263.6 3402.67,-263.6 3402.67,-228 3079.68,-228"/>
<text text-anchor="start" x="3086.68" y="-241.4" font-family="Arial Bold" font-size="18.00">ndb.repositoryinstitutions</text>
<text text-anchor="start" x="3271.18" y="-241.4" font-family="Arial" font-size="14.00">    </text>
<text text-anchor="start" x="3302.3" y="-241.4" font-family="Arial" font-size="14.00" fill="#666666">[BASE TABLE]</text>
<polygon fill="none" stroke="black" points="3079.68,-197.2 3079.68,-228 3402.67,-228 3402.67,-197.2 3079.68,-197.2"/>
<text text-anchor="start" x="3086.68" y="-209.4" font-family="Arial" font-size="14.00">repositoryid </text>
<text text-anchor="start" x="3162.93" y="-209.4" font-family="Arial" font-size="14.00" fill="#666666">[integer]</text>
<polygon fill="none" stroke="black" points="3079.68,-166.4 3079.68,-197.2 3402.67,-197.2 3402.67,-166.4 3079.68,-166.4"/>
<text text-anchor="start" x="3086.68" y="-178.6" font-family="Arial" font-size="14.00">acronym </text>
<text text-anchor="start" x="3144.25" y="-178.6" font-family="Arial" font-size="14.00" fill="#666666">[varchar(64)]</text>
<polygon fill="none" stroke="black" points="3079.68,-135.6 3079.68,-166.4 3402.67,-166.4 3402.67,-135.6 3079.68,-135.6"/>
<text text-anchor="start" x="3086.68" y="-147.8" font-family="Arial" font-size="14.00">repository </text>
<text text-anchor="start" x="3152.04" y="-147.8" font-family="Arial" font-size="14.00" fill="#666666">[varchar(128)]</text>
<polygon fill="none" stroke="black" points="3079.68,-104.8 3079.68,-135.6 3402.67,-135.6 3402.67,-104.8 3079.68,-104.8"/>
<text text-anchor="start" x="3086.68" y="-117" font-family="Arial" font-size="14.00">notes </text>
<text text-anchor="start" x="3124.82" y="-117" font-family="Arial" font-size="14.00" fill="#666666">[text]</text>
<polygon fill="none" stroke="black" points="3079.68,-74 3079.68,-104.8 3402.67,-104.8 3402.67,-74 3079.68,-74"/>
<text text-anchor="start" x="3086.68" y="-86.2" font-family="Arial" font-size="14.00">recdatecreated </text>
<text text-anchor="start" x="3183.96" y="-86.2" font-family="Arial" font-size="14.00" fill="#666666">[timestamp(0) without time zone]</text>
<polygon fill="none" stroke="black" points="3079.68,-43.2 3079.68,-74 3402.67,-74 3402.67,-43.2 3079.68,-43.2"/>
<text text-anchor="start" x="3086.68" y="-55.4" font-family="Arial" font-size="14.00">recdatemodified </text>
<text text-anchor="start" x="3190.18" y="-55.4" font-family="Arial" font-size="14.00" fill="#666666">[timestamp(0) without time zone]</text>
</g>
<!-- ndb.specimens&#45;&gt;ndb.repositoryinstitutions -->
<g id="edge12" class="edge">
<title>ndb.specimens:repositoryid&#45;&gt;ndb.repositoryinstitutions:repositoryid</title>
<path fill="none" stroke="black" d="M1926.35,-586.14C2187.87,-582.93 2828.45,-460.52 3027.17,-306.8 3064.92,-277.6 3030.96,-212.6 3078.68,-212.6"/>
<polygon fill="black" stroke="black" points="1926.41,-586.14 1916.38,-581.7 1921.07,-586.17 1916.74,-586.2 1916.74,-586.2 1916.74,-586.2 1921.07,-586.17 1916.44,-590.7 1926.41,-586.14"/>
<text text-anchor="start" x="1923.07" y="-596.2" font-family="Arial" font-size="10.00">FOREIGN KEY (repositoryid) REFERENCES ndb.repositoryinstitutions(repositoryid) ON UPDATE CASCADE ON DELETE CASCADE</text>
</g>
<!-- ndb.isospecimendata -->
<g id="node3" class="node">
<title>ndb.isospecimendata</title>
<polygon fill="#efefef" stroke="none" points="964.27,-1314 964.27,-1349.6 1284.07,-1349.6 1284.07,-1314 964.27,-1314"/>
<polygon fill="none" stroke="black" points="964.27,-1314 964.27,-1349.6 1284.07,-1349.6 1284.07,-1314 964.27,-1314"/>
<text text-anchor="start" x="986.7" y="-1327.4" font-family="Arial Bold" font-size="18.00">ndb.isospecimendata</text>
<text text-anchor="start" x="1137.16" y="-1327.4" font-family="Arial" font-size="14.00">    </text>
<text text-anchor="start" x="1168.28" y="-1327.4" font-family="Arial" font-size="14.00" fill="#666666">[BASE TABLE]</text>
<polygon fill="none" stroke="black" points="964.27,-1283.2 964.27,-1314 1284.07,-1314 1284.07,-1283.2 964.27,-1283.2"/>
<text text-anchor="start" x="971.27" y="-1295.4" font-family="Arial" font-size="14.00">isospecimendataid </text>
<text text-anchor="start" x="1091.12" y="-1295.4" font-family="Arial" font-size="14.00" fill="#666666">[integer]</text>
<polygon fill="none" stroke="black" points="964.27,-1252.4 964.27,-1283.2 1284.07,-1283.2 1284.07,-1252.4 964.27,-1252.4"/>
<text text-anchor="start" x="971.27" y="-1264.6" font-family="Arial" font-size="14.00">dataid </text>
<text text-anchor="start" x="1013.31" y="-1264.6" font-family="Arial" font-size="14.00" fill="#666666">[integer]</text>
<polygon fill="none" stroke="black" points="964.27,-1221.6 964.27,-1252.4 1284.07,-1252.4 1284.07,-1221.6 964.27,-1221.6"/>
<text text-anchor="start" x="971.27" y="-1233.8" font-family="Arial" font-size="14.00">specimenid </text>
<text text-anchor="start" x="1045.98" y="-1233.8" font-family="Arial" font-size="14.00" fill="#666666">[integer]</text>
<polygon fill="none" stroke="black" points="964.27,-1190.8 964.27,-1221.6 1284.07,-1221.6 1284.07,-1190.8 964.27,-1190.8"/>
<text text-anchor="start" x="971.27" y="-1203" font-family="Arial" font-size="14.00">sd </text>
<text text-anchor="start" x="989.95" y="-1203" font-family="Arial" font-size="14.00" fill="#666666">[double precision]</text>
<polygon fill="none" stroke="black" points="964.27,-1160 964.27,-1190.8 1284.07,-1190.8 1284.07,-1160 964.27,-1160"/>
<text text-anchor="start" x="971.27" y="-1172.2" font-family="Arial" font-size="14.00">recdatecreated </text>
<text text-anchor="start" x="1068.56" y="-1172.2" font-family="Arial" font-size="14.00" fill="#666666">[timestamp(0) without time zone]</text>
<polygon fill="none" stroke="black" points="964.27,-1129.2 964.27,-1160 1284.07,-1160 1284.07,-1129.2 964.27,-1129.2"/>
<text text-anchor="start" x="971.27" y="-1141.4" font-family="Arial" font-size="14.00">recdatemodified </text>
<text text-anchor="start" x="1074.78" y="-1141.4" font-family="Arial" font-size="14.00" fill="#666666">[timestamp(0) without time zone]</text>
</g>
<!-- ndb.isospecimendata&#45;&gt;ndb.specimens -->
<g id="edge2" class="edge">
<title>ndb.isospecimendata:specimenid&#45;&gt;ndb.specimens:specimenid</title>
<path fill="none" stroke="black" d="M1295.07,-1236.45C1374.58,-1226.96 1278.08,-1097.76 1336.17,-1024.4 1415.93,-923.67 1465.79,-894.2 1594.27,-894.2"/>
<polygon fill="black" stroke="black" points="1295.39,-1236.43 1285.16,-1232.49 1290.06,-1236.72 1285.74,-1236.96 1285.74,-1236.96 1285.74,-1236.96 1290.06,-1236.72 1285.66,-1241.47 1295.39,-1236.43"/>
<text text-anchor="start" x="840.72" y="-1247" font-family="Arial" font-size="10.00">FOREIGN KEY (specimenid) REFERENCES ndb.specimens(specimenid) ON DELETE CASCADE</text>
</g>
<!-- ndb.specimendates -->
<g id="node4" class="node">
<title>ndb.specimendates</title>
<polygon fill="#efefef" stroke="none" points="1388.27,-1375.6 1388.27,-1411.2 1708.07,-1411.2 1708.07,-1375.6 1388.27,-1375.6"/>
<polygon fill="none" stroke="black" points="1388.27,-1375.6 1388.27,-1411.2 1708.07,-1411.2 1708.07,-1375.6 1388.27,-1375.6"/>
<text text-anchor="start" x="1417.7" y="-1389" font-family="Arial Bold" font-size="18.00">ndb.specimendates</text>
<text text-anchor="start" x="1554.16" y="-1389" font-family="Arial" font-size="14.00">    </text>
<text text-anchor="start" x="1585.28" y="-1389" font-family="Arial" font-size="14.00" fill="#666666">[BASE TABLE]</text>
<polygon fill="none" stroke="black" points="1388.27,-1344.8 1388.27,-1375.6 1708.07,-1375.6 1708.07,-1344.8 1388.27,-1344.8"/>
<text text-anchor="start" x="1395.27" y="-1357" font-family="Arial" font-size="14.00">specimendateid </text>
<text text-anchor="start" x="1497.22" y="-1357" font-family="Arial" font-size="14.00" fill="#666666">[integer]</text>
<polygon fill="none" stroke="black" points="1388.27,-1314 1388.27,-1344.8 1708.07,-1344.8 1708.07,-1314 1388.27,-1314"/>
<text text-anchor="start" x="1395.27" y="-1326.2" font-family="Arial" font-size="14.00">geochronid </text>
<text text-anchor="start" x="1468.44" y="-1326.2" font-family="Arial" font-size="14.00" fill="#666666">[integer]</text>
<polygon fill="none" stroke="black" points="1388.27,-1283.2 1388.27,-1314 1708.07,-1314 1708.07,-1283.2 1388.27,-1283.2"/>
<text text-anchor="start" x="1395.27" y="-1295.4" font-family="Arial" font-size="14.00">taxonid </text>
<text text-anchor="start" x="1444.31" y="-1295.4" font-family="Arial" font-size="14.00" fill="#666666">[integer]</text>
<polygon fill="none" stroke="black" points="1388.27,-1252.4 1388.27,-1283.2 1708.07,-1283.2 1708.07,-1252.4 1388.27,-1252.4"/>
<text text-anchor="start" x="1395.27" y="-1264.6" font-family="Arial" font-size="14.00">fractionid </text>
<text text-anchor="start" x="1455.97" y="-1264.6" font-family="Arial" font-size="14.00" fill="#666666">[integer]</text>
<polygon fill="none" stroke="black" points="1388.27,-1221.6 1388.27,-1252.4 1708.07,-1252.4 1708.07,-1221.6 1388.27,-1221.6"/>
<text text-anchor="start" x="1395.27" y="-1233.8" font-family="Arial" font-size="14.00">sampleid </text>
<text text-anchor="start" x="1455.19" y="-1233.8" font-family="Arial" font-size="14.00" fill="#666666">[integer]</text>
<polygon fill="none" stroke="black" points="1388.27,-1190.8 1388.27,-1221.6 1708.07,-1221.6 1708.07,-1190.8 1388.27,-1190.8"/>
<text text-anchor="start" x="1395.27" y="-1203" font-family="Arial" font-size="14.00">notes </text>
<text text-anchor="start" x="1433.41" y="-1203" font-family="Arial" font-size="14.00" fill="#666666">[text]</text>
<polygon fill="none" stroke="black" points="1388.27,-1160 1388.27,-1190.8 1708.07,-1190.8 1708.07,-1160 1388.27,-1160"/>
<text text-anchor="start" x="1395.27" y="-1172.2" font-family="Arial" font-size="14.00">elementtypeid </text>
<text text-anchor="start" x="1486.33" y="-1172.2" font-family="Arial" font-size="14.00" fill="#666666">[integer]</text>
<polygon fill="none" stroke="black" points="1388.27,-1129.2 1388.27,-1160 1708.07,-1160 1708.07,-1129.2 1388.27,-1129.2"/>
<text text-anchor="start" x="1395.27" y="-1141.4" font-family="Arial" font-size="14.00">recdatecreated </text>
<text text-anchor="start" x="1492.56" y="-1141.4" font-family="Arial" font-size="14.00" fill="#666666">[timestamp(0) without time zone]</text>
<polygon fill="none" stroke="black" points="1388.27,-1098.4 1388.27,-1129.2 1708.07,-1129.2 1708.07,-1098.4 1388.27,-1098.4"/>
<text text-anchor="start" x="1395.27" y="-1110.6" font-family="Arial" font-size="14.00">recdatemodified </text>
<text text-anchor="start" x="1498.78" y="-1110.6" font-family="Arial" font-size="14.00" fill="#666666">[timestamp(0) without time zone]</text>
<polygon fill="none" stroke="black" points="1388.27,-1067.6 1388.27,-1098.4 1708.07,-1098.4 1708.07,-1067.6 1388.27,-1067.6"/>
<text text-anchor="start" x="1395.27" y="-1079.8" font-family="Arial" font-size="14.00">specimenid </text>
<text text-anchor="start" x="1469.98" y="-1079.8" font-family="Arial" font-size="14.00" fill="#666666">[integer]</text>
</g>
<!-- ndb.specimendates&#45;&gt;ndb.specimens -->
<g id="edge3" class="edge">
<title>ndb.specimendates:specimenid&#45;&gt;ndb.specimens:specimenid</title>
<path fill="none" stroke="black" d="M1719.01,-1080.2C1731.24,-1071.08 1721.07,-1041.87 1708.07,-1024.4 1676.67,-982.17 1626.54,-1030.73 1595.27,-988.4 1570.4,-954.72 1552.4,-894.2 1594.27,-894.2"/>
<polygon fill="black" stroke="black" points="1719.02,-1080.19 1708.17,-1078.58 1713.88,-1081.64 1709.72,-1082.82 1709.72,-1082.82 1709.72,-1082.82 1713.88,-1081.64 1710.62,-1087.24 1719.02,-1080.19"/>
<text text-anchor="start" x="1716.07" y="-1093" font-family="Arial" font-size="10.00">FOREIGN KEY (specimenid) REFERENCES ndb.specimens(specimenid) ON UPDATE CASCADE ON DELETE CASCADE</text>
</g>
<!-- ndb.specimengenbank -->
<g id="node5" class="node">
<title>ndb.specimengenbank</title>
<polygon fill="#efefef" stroke="none" points="1812.7,-1252.4 1812.7,-1288 2111.64,-1288 2111.64,-1252.4 1812.7,-1252.4"/>
<polygon fill="none" stroke="black" points="1812.7,-1252.4 1812.7,-1288 2111.64,-1288 2111.64,-1252.4 1812.7,-1252.4"/>
<text text-anchor="start" x="1819.7" y="-1265.8" font-family="Arial Bold" font-size="18.00">ndb.specimengenbank</text>
<text text-anchor="start" x="1980.16" y="-1265.8" font-family="Arial" font-size="14.00">    </text>
<text text-anchor="start" x="2011.27" y="-1265.8" font-family="Arial" font-size="14.00" fill="#666666">[BASE TABLE]</text>
<polygon fill="none" stroke="black" points="1812.7,-1221.6 1812.7,-1252.4 2111.64,-1252.4 2111.64,-1221.6 1812.7,-1221.6"/>
<text text-anchor="start" x="1819.7" y="-1233.8" font-family="Arial" font-size="14.00">specimenid </text>
<text text-anchor="start" x="1894.41" y="-1233.8" font-family="Arial" font-size="14.00" fill="#666666">[integer]</text>
<polygon fill="none" stroke="black" points="1812.7,-1190.8 1812.7,-1221.6 2111.64,-1221.6 2111.64,-1190.8 1812.7,-1190.8"/>
<text text-anchor="start" x="1819.7" y="-1203" font-family="Arial" font-size="14.00">genbanknr </text>
<text text-anchor="start" x="1889.76" y="-1203" font-family="Arial" font-size="14.00" fill="#666666">[varchar(50)]</text>
</g>
<!-- ndb.specimengenbank&#45;&gt;ndb.specimens -->
<g id="edge4" class="edge">
<title>ndb.specimengenbank:specimenid&#45;&gt;ndb.specimens:specimenid</title>
<path fill="none" stroke="black" d="M1801.45,-1236.44C1671.94,-1221.12 2071.6,-894.2 1916.07,-894.2"/>
<polygon fill="black" stroke="black" points="1801.38,-1236.44 1811.12,-1241.48 1806.71,-1236.73 1811.03,-1236.96 1811.03,-1236.96 1811.03,-1236.96 1806.71,-1236.73 1811.61,-1232.49 1801.38,-1236.44"/>
<text text-anchor="start" x="1818.7" y="-1247" font-family="Arial" font-size="10.00">FOREIGN KEY (specimenid) REFERENCES ndb.specimens(specimenid) ON UPDATE CASCADE ON DELETE CASCADE</text>
</g>
<!-- ndb.specimentaphonomy -->
<g id="node6" class="node">
<title>ndb.specimentaphonomy</title>
<polygon fill="#efefef" stroke="none" points="2216.27,-1283.2 2216.27,-1318.8 2536.07,-1318.8 2536.07,-1283.2 2216.27,-1283.2"/>
<polygon fill="none" stroke="black" points="2216.27,-1283.2 2216.27,-1318.8 2536.07,-1318.8 2536.07,-1283.2 2216.27,-1283.2"/>
<text text-anchor="start" x="2223.7" y="-1296.6" font-family="Arial Bold" font-size="18.00">ndb.specimentaphonomy</text>
<text text-anchor="start" x="2404.16" y="-1296.6" font-family="Arial" font-size="14.00">    </text>
<text text-anchor="start" x="2435.28" y="-1296.6" font-family="Arial" font-size="14.00" fill="#666666">[BASE TABLE]</text>
<polygon fill="none" stroke="black" points="2216.27,-1252.4 2216.27,-1283.2 2536.07,-1283.2 2536.07,-1252.4 2216.27,-1252.4"/>
<text text-anchor="start" x="2223.27" y="-1264.6" font-family="Arial" font-size="14.00">specimenid </text>
<text text-anchor="start" x="2297.98" y="-1264.6" font-family="Arial" font-size="14.00" fill="#666666">[integer]</text>
<polygon fill="none" stroke="black" points="2216.27,-1221.6 2216.27,-1252.4 2536.07,-1252.4 2536.07,-1221.6 2216.27,-1221.6"/>
<text text-anchor="start" x="2223.27" y="-1233.8" font-family="Arial" font-size="14.00">taphonomictypeid </text>
<text text-anchor="start" x="2336.9" y="-1233.8" font-family="Arial" font-size="14.00" fill="#666666">[integer]</text>
<polygon fill="none" stroke="black" points="2216.27,-1190.8 2216.27,-1221.6 2536.07,-1221.6 2536.07,-1190.8 2216.27,-1190.8"/>
<text text-anchor="start" x="2223.27" y="-1203" font-family="Arial" font-size="14.00">recdatecreated </text>
<text text-anchor="start" x="2320.56" y="-1203" font-family="Arial" font-size="14.00" fill="#666666">[timestamp(0) without time zone]</text>
<polygon fill="none" stroke="black" points="2216.27,-1160 2216.27,-1190.8 2536.07,-1190.8 2536.07,-1160 2216.27,-1160"/>
<text text-anchor="start" x="2223.27" y="-1172.2" font-family="Arial" font-size="14.00">recdatemodified </text>
<text text-anchor="start" x="2326.78" y="-1172.2" font-family="Arial" font-size="14.00" fill="#666666">[timestamp(0) without time zone]</text>
</g>
<!-- ndb.specimentaphonomy&#45;&gt;ndb.specimens -->
<g id="edge5" class="edge">
<title>ndb.specimentaphonomy:specimenid&#45;&gt;ndb.specimens:specimenid</title>
<path fill="none" stroke="black" d="M2205.03,-1267.29C2112.9,-1257.57 2228.61,-1109.65 2164.17,-1024.4 2089.09,-925.06 2040.6,-894.2 1916.07,-894.2"/>
<polygon fill="black" stroke="black" points="2204.95,-1267.29 2214.72,-1272.28 2210.28,-1267.55 2214.61,-1267.77 2214.61,-1267.77 2214.61,-1267.77 2210.28,-1267.55 2215.16,-1263.29 2204.95,-1267.29"/>
<text text-anchor="start" x="2222.27" y="-1277.8" font-family="Arial" font-size="10.00">FOREIGN KEY (specimenid) REFERENCES ndb.specimens(specimenid) ON UPDATE CASCADE ON DELETE CASCADE</text>
</g>
</g>
</svg>
