<?xml version="1.0" encoding="UTF-8" standalone="no"?>
<!DOCTYPE svg PUBLIC "-//W3C//DTD SVG 1.1//EN"
 "http://www.w3.org/Graphics/SVG/1.1/DTD/svg11.dtd">
<!-- Generated by graphviz version 12.1.2 (20240928.0832)
 -->
<!-- Title: ndb.collectiontypes Pages: 1 -->
<svg width="2911pt" height="1863pt"
 viewBox="0.00 0.00 2911.16 1862.80" xmlns="http://www.w3.org/2000/svg" xmlns:xlink="http://www.w3.org/1999/xlink">
<g id="graph0" class="graph" transform="scale(1 1) rotate(0) translate(4 1858.8)">
<title>ndb.collectiontypes</title>
<polygon fill="white" stroke="none" points="-4,4 -4,-1858.8 2907.16,-1858.8 2907.16,4 -4,4"/>
<!-- ndb.collectiontypes -->
<g id="node1" class="node">
<title>ndb.collectiontypes</title>
<polygon fill="#efefef" stroke="none" points="708.83,-305 708.83,-340.6 1028.63,-340.6 1028.63,-305 708.83,-305"/>
<polygon fill="none" stroke="black" points="708.83,-305 708.83,-340.6 1028.63,-340.6 1028.63,-305 708.83,-305"/>
<text text-anchor="start" x="736.26" y="-318.4" font-family="Arial Bold" font-size="18.00">ndb.collectiontypes</text>
<text text-anchor="start" x="876.72" y="-318.4" font-family="Arial" font-size="14.00">    </text>
<text text-anchor="start" x="907.84" y="-318.4" font-family="Arial" font-size="14.00" fill="#666666">[BASE TABLE]</text>
<polygon fill="none" stroke="black" points="708.83,-274.2 708.83,-305 1028.63,-305 1028.63,-274.2 708.83,-274.2"/>
<text text-anchor="start" x="715.83" y="-286.4" font-family="Arial" font-size="14.00">colltype </text>
<text text-anchor="start" x="767.19" y="-286.4" font-family="Arial" font-size="14.00" fill="#666666">[varchar(64)]</text>
<polygon fill="none" stroke="black" points="708.83,-243.4 708.83,-274.2 1028.63,-274.2 1028.63,-243.4 708.83,-243.4"/>
<text text-anchor="start" x="715.83" y="-255.6" font-family="Arial" font-size="14.00">colltypeid </text>
<text text-anchor="start" x="778.09" y="-255.6" font-family="Arial" font-size="14.00" fill="#666666">[integer]</text>
<polygon fill="none" stroke="black" points="708.83,-212.6 708.83,-243.4 1028.63,-243.4 1028.63,-212.6 708.83,-212.6"/>
<text text-anchor="start" x="715.83" y="-224.8" font-family="Arial" font-size="14.00">recdatecreated </text>
<text text-anchor="start" x="813.12" y="-224.8" font-family="Arial" font-size="14.00" fill="#666666">[timestamp(0) without time zone]</text>
<polygon fill="none" stroke="black" points="708.83,-181.8 708.83,-212.6 1028.63,-212.6 1028.63,-181.8 708.83,-181.8"/>
<text text-anchor="start" x="715.83" y="-194" font-family="Arial" font-size="14.00">recdatemodified </text>
<text text-anchor="start" x="819.34" y="-194" font-family="Arial" font-size="14.00" fill="#666666">[timestamp(0) without time zone]</text>
<polygon fill="none" stroke="black" stroke-width="3" points="707.33,-180.3 707.33,-342.1 1030.13,-342.1 1030.13,-180.3 707.33,-180.3"/>
</g>
<!-- ndb.collectionunits -->
<g id="node2" class="node">
<title>ndb.collectionunits</title>
<polygon fill="#efefef" stroke="none" points="1347.83,-1217.6 1347.83,-1253.2 1667.63,-1253.2 1667.63,-1217.6 1347.83,-1217.6"/>
<polygon fill="none" stroke="black" points="1347.83,-1217.6 1347.83,-1253.2 1667.63,-1253.2 1667.63,-1217.6 1347.83,-1217.6"/>
<text text-anchor="start" x="1376.75" y="-1231" font-family="Arial Bold" font-size="18.00">ndb.collectionunits</text>
<text text-anchor="start" x="1514.23" y="-1231" font-family="Arial" font-size="14.00">    </text>
<text text-anchor="start" x="1545.35" y="-1231" font-family="Arial" font-size="14.00" fill="#666666">[BASE TABLE]</text>
<polygon fill="none" stroke="black" points="1347.83,-1186.8 1347.83,-1217.6 1667.63,-1217.6 1667.63,-1186.8 1347.83,-1186.8"/>
<text text-anchor="start" x="1354.83" y="-1199" font-family="Arial" font-size="14.00">colldate </text>
<text text-anchor="start" x="1406.98" y="-1199" font-family="Arial" font-size="14.00" fill="#666666">[date]</text>
<polygon fill="none" stroke="black" points="1347.83,-1156 1347.83,-1186.8 1667.63,-1186.8 1667.63,-1156 1347.83,-1156"/>
<text text-anchor="start" x="1354.83" y="-1168.2" font-family="Arial" font-size="14.00">colldevice </text>
<text text-anchor="start" x="1420.2" y="-1168.2" font-family="Arial" font-size="14.00" fill="#666666">[varchar(255)]</text>
<polygon fill="none" stroke="black" points="1347.83,-1125.2 1347.83,-1156 1667.63,-1156 1667.63,-1125.2 1347.83,-1125.2"/>
<text text-anchor="start" x="1354.83" y="-1137.4" font-family="Arial" font-size="14.00">collectionunitid </text>
<text text-anchor="start" x="1450.56" y="-1137.4" font-family="Arial" font-size="14.00" fill="#666666">[integer]</text>
<polygon fill="none" stroke="black" points="1347.83,-1094.4 1347.83,-1125.2 1667.63,-1125.2 1667.63,-1094.4 1347.83,-1094.4"/>
<text text-anchor="start" x="1354.83" y="-1106.6" font-family="Arial" font-size="14.00">colltypeid </text>
<text text-anchor="start" x="1417.09" y="-1106.6" font-family="Arial" font-size="14.00" fill="#666666">[integer]</text>
<polygon fill="none" stroke="black" points="1347.83,-1063.6 1347.83,-1094.4 1667.63,-1094.4 1667.63,-1063.6 1347.83,-1063.6"/>
<text text-anchor="start" x="1354.83" y="-1075.8" font-family="Arial" font-size="14.00">collunitname </text>
<text text-anchor="start" x="1437.32" y="-1075.8" font-family="Arial" font-size="14.00" fill="#666666">[varchar(255)]</text>
<polygon fill="none" stroke="black" points="1347.83,-1032.8 1347.83,-1063.6 1667.63,-1063.6 1667.63,-1032.8 1347.83,-1032.8"/>
<text text-anchor="start" x="1354.83" y="-1045" font-family="Arial" font-size="14.00">depenvtid </text>
<text text-anchor="start" x="1419.44" y="-1045" font-family="Arial" font-size="14.00" fill="#666666">[integer]</text>
<polygon fill="none" stroke="black" points="1347.83,-1002 1347.83,-1032.8 1667.63,-1032.8 1667.63,-1002 1347.83,-1002"/>
<text text-anchor="start" x="1354.83" y="-1014.2" font-family="Arial" font-size="14.00">gpsaltitude </text>
<text text-anchor="start" x="1426.44" y="-1014.2" font-family="Arial" font-size="14.00" fill="#666666">[double precision]</text>
<polygon fill="none" stroke="black" points="1347.83,-971.2 1347.83,-1002 1667.63,-1002 1667.63,-971.2 1347.83,-971.2"/>
<text text-anchor="start" x="1354.83" y="-983.4" font-family="Arial" font-size="14.00">gpserror </text>
<text text-anchor="start" x="1410.86" y="-983.4" font-family="Arial" font-size="14.00" fill="#666666">[double precision]</text>
<polygon fill="none" stroke="black" points="1347.83,-940.4 1347.83,-971.2 1667.63,-971.2 1667.63,-940.4 1347.83,-940.4"/>
<text text-anchor="start" x="1354.83" y="-952.6" font-family="Arial" font-size="14.00">gpslatitude </text>
<text text-anchor="start" x="1426.44" y="-952.6" font-family="Arial" font-size="14.00" fill="#666666">[double precision]</text>
<polygon fill="none" stroke="black" points="1347.83,-909.6 1347.83,-940.4 1667.63,-940.4 1667.63,-909.6 1347.83,-909.6"/>
<text text-anchor="start" x="1354.83" y="-921.8" font-family="Arial" font-size="14.00">gpslongitude </text>
<text text-anchor="start" x="1438.12" y="-921.8" font-family="Arial" font-size="14.00" fill="#666666">[double precision]</text>
<polygon fill="none" stroke="black" points="1347.83,-878.8 1347.83,-909.6 1667.63,-909.6 1667.63,-878.8 1347.83,-878.8"/>
<text text-anchor="start" x="1354.83" y="-891" font-family="Arial" font-size="14.00">handle </text>
<text text-anchor="start" x="1400.77" y="-891" font-family="Arial" font-size="14.00" fill="#666666">[varchar(16)]</text>
<polygon fill="none" stroke="black" points="1347.83,-848 1347.83,-878.8 1667.63,-878.8 1667.63,-848 1347.83,-848"/>
<text text-anchor="start" x="1354.83" y="-860.2" font-family="Arial" font-size="14.00">location </text>
<text text-anchor="start" x="1406.98" y="-860.2" font-family="Arial" font-size="14.00" fill="#666666">[varchar(255)]</text>
<polygon fill="none" stroke="black" points="1347.83,-817.2 1347.83,-848 1667.63,-848 1667.63,-817.2 1347.83,-817.2"/>
<text text-anchor="start" x="1354.83" y="-829.4" font-family="Arial" font-size="14.00">notes </text>
<text text-anchor="start" x="1392.97" y="-829.4" font-family="Arial" font-size="14.00" fill="#666666">[text]</text>
<polygon fill="none" stroke="black" points="1347.83,-786.4 1347.83,-817.2 1667.63,-817.2 1667.63,-786.4 1347.83,-786.4"/>
<text text-anchor="start" x="1354.83" y="-798.6" font-family="Arial" font-size="14.00">recdatecreated </text>
<text text-anchor="start" x="1452.12" y="-798.6" font-family="Arial" font-size="14.00" fill="#666666">[timestamp(0) without time zone]</text>
<polygon fill="none" stroke="black" points="1347.83,-755.6 1347.83,-786.4 1667.63,-786.4 1667.63,-755.6 1347.83,-755.6"/>
<text text-anchor="start" x="1354.83" y="-767.8" font-family="Arial" font-size="14.00">recdatemodified </text>
<text text-anchor="start" x="1458.34" y="-767.8" font-family="Arial" font-size="14.00" fill="#666666">[timestamp(0) without time zone]</text>
<polygon fill="none" stroke="black" points="1347.83,-724.8 1347.83,-755.6 1667.63,-755.6 1667.63,-724.8 1347.83,-724.8"/>
<text text-anchor="start" x="1354.83" y="-737" font-family="Arial" font-size="14.00">siteid </text>
<text text-anchor="start" x="1391.41" y="-737" font-family="Arial" font-size="14.00" fill="#666666">[integer]</text>
<polygon fill="none" stroke="black" points="1347.83,-694 1347.83,-724.8 1667.63,-724.8 1667.63,-694 1347.83,-694"/>
<text text-anchor="start" x="1354.83" y="-706.2" font-family="Arial" font-size="14.00">slopeangle </text>
<text text-anchor="start" x="1426.45" y="-706.2" font-family="Arial" font-size="14.00" fill="#666666">[integer]</text>
<polygon fill="none" stroke="black" points="1347.83,-663.2 1347.83,-694 1667.63,-694 1667.63,-663.2 1347.83,-663.2"/>
<text text-anchor="start" x="1354.83" y="-675.4" font-family="Arial" font-size="14.00">slopeaspect </text>
<text text-anchor="start" x="1433.44" y="-675.4" font-family="Arial" font-size="14.00" fill="#666666">[integer]</text>
<polygon fill="none" stroke="black" points="1347.83,-632.4 1347.83,-663.2 1667.63,-663.2 1667.63,-632.4 1347.83,-632.4"/>
<text text-anchor="start" x="1354.83" y="-644.6" font-family="Arial" font-size="14.00">substrateid </text>
<text text-anchor="start" x="1427.21" y="-644.6" font-family="Arial" font-size="14.00" fill="#666666">[integer]</text>
<polygon fill="none" stroke="black" points="1347.83,-601.6 1347.83,-632.4 1667.63,-632.4 1667.63,-601.6 1347.83,-601.6"/>
<text text-anchor="start" x="1354.83" y="-613.8" font-family="Arial" font-size="14.00">waterdepth </text>
<text text-anchor="start" x="1427.99" y="-613.8" font-family="Arial" font-size="14.00" fill="#666666">[double precision]</text>
</g>
<!-- ndb.collectionunits&#45;&gt;ndb.collectiontypes -->
<g id="edge1" class="edge">
<title>ndb.collectionunits:colltypeid&#45;&gt;ndb.collectiontypes:colltypeid</title>
<path fill="none" stroke="black" d="M1336.54,-1109.66C1063.45,-1102.11 1170.41,-791.34 1083.73,-522.4 1065.39,-465.48 1089.43,-258.8 1029.63,-258.8"/>
<polygon fill="black" stroke="black" points="1336.5,-1109.66 1346.44,-1114.3 1341.84,-1109.73 1346.17,-1109.79 1346.17,-1109.79 1346.17,-1109.79 1341.84,-1109.73 1346.56,-1105.3 1336.5,-1109.66"/>
<text text-anchor="start" x="790.24" y="-1119.8" font-family="Arial" font-size="10.00">FOREIGN KEY (colltypeid) REFERENCES ndb.collectiontypes(colltypeid) ON UPDATE CASCADE ON DELETE CASCADE</text>
</g>
<!-- ndb.depenvttypes -->
<g id="node9" class="node">
<title>ndb.depenvttypes</title>
<polygon fill="#efefef" stroke="none" points="1135.83,-320.4 1135.83,-356 1455.63,-356 1455.63,-320.4 1135.83,-320.4"/>
<polygon fill="none" stroke="black" points="1135.83,-320.4 1135.83,-356 1455.63,-356 1455.63,-320.4 1135.83,-320.4"/>
<text text-anchor="start" x="1170.25" y="-333.8" font-family="Arial Bold" font-size="18.00">ndb.depenvttypes</text>
<text text-anchor="start" x="1296.73" y="-333.8" font-family="Arial" font-size="14.00">    </text>
<text text-anchor="start" x="1327.84" y="-333.8" font-family="Arial" font-size="14.00" fill="#666666">[BASE TABLE]</text>
<polygon fill="none" stroke="black" points="1135.83,-289.6 1135.83,-320.4 1455.63,-320.4 1455.63,-289.6 1135.83,-289.6"/>
<text text-anchor="start" x="1142.83" y="-301.8" font-family="Arial" font-size="14.00">depenvt </text>
<text text-anchor="start" x="1196.54" y="-301.8" font-family="Arial" font-size="14.00" fill="#666666">[varchar(255)]</text>
<polygon fill="none" stroke="black" points="1135.83,-258.8 1135.83,-289.6 1455.63,-289.6 1455.63,-258.8 1135.83,-258.8"/>
<text text-anchor="start" x="1142.83" y="-271" font-family="Arial" font-size="14.00">depenvthigherid </text>
<text text-anchor="start" x="1246.36" y="-271" font-family="Arial" font-size="14.00" fill="#666666">[integer]</text>
<polygon fill="none" stroke="black" points="1135.83,-228 1135.83,-258.8 1455.63,-258.8 1455.63,-228 1135.83,-228"/>
<text text-anchor="start" x="1142.83" y="-240.2" font-family="Arial" font-size="14.00">depenvtid </text>
<text text-anchor="start" x="1207.44" y="-240.2" font-family="Arial" font-size="14.00" fill="#666666">[integer]</text>
<polygon fill="none" stroke="black" points="1135.83,-197.2 1135.83,-228 1455.63,-228 1455.63,-197.2 1135.83,-197.2"/>
<text text-anchor="start" x="1142.83" y="-209.4" font-family="Arial" font-size="14.00">recdatecreated </text>
<text text-anchor="start" x="1240.12" y="-209.4" font-family="Arial" font-size="14.00" fill="#666666">[timestamp(0) without time zone]</text>
<polygon fill="none" stroke="black" points="1135.83,-166.4 1135.83,-197.2 1455.63,-197.2 1455.63,-166.4 1135.83,-166.4"/>
<text text-anchor="start" x="1142.83" y="-178.6" font-family="Arial" font-size="14.00">recdatemodified </text>
<text text-anchor="start" x="1246.34" y="-178.6" font-family="Arial" font-size="14.00" fill="#666666">[timestamp(0) without time zone]</text>
</g>
<!-- ndb.collectionunits&#45;&gt;ndb.depenvttypes -->
<g id="edge8" class="edge">
<title>ndb.collectionunits:depenvtid&#45;&gt;ndb.depenvttypes:depenvtid</title>
<path fill="none" stroke="black" d="M1336.6,-1047.98C1134.11,-1039.14 1284.82,-763.1 1347.83,-558.4 1372.98,-476.73 1430.31,-480.81 1455.63,-399.2 1476.15,-333.06 1525.88,-243.4 1456.63,-243.4"/>
<polygon fill="black" stroke="black" points="1336.5,-1047.98 1346.4,-1052.69 1341.84,-1048.09 1346.17,-1048.19 1346.17,-1048.19 1346.17,-1048.19 1341.84,-1048.09 1346.6,-1043.69 1336.5,-1047.98"/>
<text text-anchor="start" x="792.98" y="-1058.2" font-family="Arial" font-size="10.00">FOREIGN KEY (depenvtid) REFERENCES ndb.depenvttypes(depenvtid) ON UPDATE CASCADE ON DELETE CASCADE</text>
</g>
<!-- ndb.sites -->
<g id="node10" class="node">
<title>ndb.sites</title>
<polygon fill="#efefef" stroke="none" points="1559.83,-443.6 1559.83,-479.2 1879.63,-479.2 1879.63,-443.6 1559.83,-443.6"/>
<polygon fill="none" stroke="black" points="1559.83,-443.6 1559.83,-479.2 1879.63,-479.2 1879.63,-443.6 1559.83,-443.6"/>
<text text-anchor="start" x="1625.74" y="-457" font-family="Arial Bold" font-size="18.00">ndb.sites</text>
<text text-anchor="start" x="1689.24" y="-457" font-family="Arial" font-size="14.00">    </text>
<text text-anchor="start" x="1720.36" y="-457" font-family="Arial" font-size="14.00" fill="#666666">[BASE TABLE]</text>
<polygon fill="none" stroke="black" points="1559.83,-412.8 1559.83,-443.6 1879.63,-443.6 1879.63,-412.8 1559.83,-412.8"/>
<text text-anchor="start" x="1566.83" y="-425" font-family="Arial" font-size="14.00">altitude </text>
<text text-anchor="start" x="1615.87" y="-425" font-family="Arial" font-size="14.00" fill="#666666">[double precision]</text>
<polygon fill="none" stroke="black" points="1559.83,-382 1559.83,-412.8 1879.63,-412.8 1879.63,-382 1559.83,-382"/>
<text text-anchor="start" x="1566.83" y="-394.2" font-family="Arial" font-size="14.00">area </text>
<text text-anchor="start" x="1598.75" y="-394.2" font-family="Arial" font-size="14.00" fill="#666666">[double precision]</text>
<polygon fill="none" stroke="black" points="1559.83,-351.2 1559.83,-382 1879.63,-382 1879.63,-351.2 1559.83,-351.2"/>
<text text-anchor="start" x="1566.83" y="-363.4" font-family="Arial" font-size="14.00">geog </text>
<text text-anchor="start" x="1601.87" y="-363.4" font-family="Arial" font-size="14.00" fill="#666666">[geography]</text>
<polygon fill="none" stroke="black" points="1559.83,-320.4 1559.83,-351.2 1879.63,-351.2 1879.63,-320.4 1559.83,-320.4"/>
<text text-anchor="start" x="1566.83" y="-332.6" font-family="Arial" font-size="14.00">latitudenorth </text>
<text text-anchor="start" x="1647.78" y="-332.6" font-family="Arial" font-size="14.00" fill="#666666">[double precision]</text>
<polygon fill="none" stroke="black" points="1559.83,-289.6 1559.83,-320.4 1879.63,-320.4 1879.63,-289.6 1559.83,-289.6"/>
<text text-anchor="start" x="1566.83" y="-301.8" font-family="Arial" font-size="14.00">latitudesouth </text>
<text text-anchor="start" x="1650.12" y="-301.8" font-family="Arial" font-size="14.00" fill="#666666">[double precision]</text>
<polygon fill="none" stroke="black" points="1559.83,-258.8 1559.83,-289.6 1879.63,-289.6 1879.63,-258.8 1559.83,-258.8"/>
<text text-anchor="start" x="1566.83" y="-271" font-family="Arial" font-size="14.00">longitudeeast </text>
<text text-anchor="start" x="1654.01" y="-271" font-family="Arial" font-size="14.00" fill="#666666">[double precision]</text>
<polygon fill="none" stroke="black" points="1559.83,-228 1559.83,-258.8 1879.63,-258.8 1879.63,-228 1559.83,-228"/>
<text text-anchor="start" x="1566.83" y="-240.2" font-family="Arial" font-size="14.00">longitudewest </text>
<text text-anchor="start" x="1656.34" y="-240.2" font-family="Arial" font-size="14.00" fill="#666666">[double precision]</text>
<polygon fill="none" stroke="black" points="1559.83,-197.2 1559.83,-228 1879.63,-228 1879.63,-197.2 1559.83,-197.2"/>
<text text-anchor="start" x="1566.83" y="-209.4" font-family="Arial" font-size="14.00">notes </text>
<text text-anchor="start" x="1604.97" y="-209.4" font-family="Arial" font-size="14.00" fill="#666666">[text]</text>
<polygon fill="none" stroke="black" points="1559.83,-166.4 1559.83,-197.2 1879.63,-197.2 1879.63,-166.4 1559.83,-166.4"/>
<text text-anchor="start" x="1566.83" y="-178.6" font-family="Arial" font-size="14.00">recdatecreated </text>
<text text-anchor="start" x="1664.12" y="-178.6" font-family="Arial" font-size="14.00" fill="#666666">[timestamp(0) without time zone]</text>
<polygon fill="none" stroke="black" points="1559.83,-135.6 1559.83,-166.4 1879.63,-166.4 1879.63,-135.6 1559.83,-135.6"/>
<text text-anchor="start" x="1566.83" y="-147.8" font-family="Arial" font-size="14.00">recdatemodified </text>
<text text-anchor="start" x="1670.34" y="-147.8" font-family="Arial" font-size="14.00" fill="#666666">[timestamp(0) without time zone]</text>
<polygon fill="none" stroke="black" points="1559.83,-104.8 1559.83,-135.6 1879.63,-135.6 1879.63,-104.8 1559.83,-104.8"/>
<text text-anchor="start" x="1566.83" y="-117" font-family="Arial" font-size="14.00">sitedescription </text>
<text text-anchor="start" x="1660.21" y="-117" font-family="Arial" font-size="14.00" fill="#666666">[text]</text>
<polygon fill="none" stroke="black" points="1559.83,-74 1559.83,-104.8 1879.63,-104.8 1879.63,-74 1559.83,-74"/>
<text text-anchor="start" x="1566.83" y="-86.2" font-family="Arial" font-size="14.00">siteid </text>
<text text-anchor="start" x="1603.41" y="-86.2" font-family="Arial" font-size="14.00" fill="#666666">[integer]</text>
<polygon fill="none" stroke="black" points="1559.83,-43.2 1559.83,-74 1879.63,-74 1879.63,-43.2 1559.83,-43.2"/>
<text text-anchor="start" x="1566.83" y="-55.4" font-family="Arial" font-size="14.00">sitename </text>
<text text-anchor="start" x="1627.53" y="-55.4" font-family="Arial" font-size="14.00" fill="#666666">[varchar(128)]</text>
</g>
<!-- ndb.collectionunits&#45;&gt;ndb.sites -->
<g id="edge9" class="edge">
<title>ndb.collectionunits:siteid&#45;&gt;ndb.sites:siteid</title>
<path fill="none" stroke="black" d="M1678.83,-739.51C1746.32,-729.85 1712.91,-620.89 1667.63,-558.4 1638,-517.5 1589.41,-563.35 1559.83,-522.4 1531.67,-483.39 1510.72,-89.4 1558.83,-89.4"/>
<polygon fill="black" stroke="black" points="1678.94,-739.5 1668.66,-735.69 1673.62,-739.86 1669.3,-740.15 1669.3,-740.15 1669.3,-740.15 1673.62,-739.86 1669.27,-744.67 1678.94,-739.5"/>
<text text-anchor="start" x="1675.63" y="-750.2" font-family="Arial" font-size="10.00">FOREIGN KEY (siteid) REFERENCES ndb.sites(siteid) ON UPDATE CASCADE ON DELETE CASCADE</text>
</g>
<!-- ndb.rocktypes -->
<g id="node11" class="node">
<title>ndb.rocktypes</title>
<polygon fill="#efefef" stroke="none" points="1983.83,-335.8 1983.83,-371.4 2303.63,-371.4 2303.63,-335.8 1983.83,-335.8"/>
<polygon fill="none" stroke="black" points="1983.83,-335.8 1983.83,-371.4 2303.63,-371.4 2303.63,-335.8 1983.83,-335.8"/>
<text text-anchor="start" x="2030.75" y="-349.2" font-family="Arial Bold" font-size="18.00">ndb.rocktypes</text>
<text text-anchor="start" x="2132.23" y="-349.2" font-family="Arial" font-size="14.00">    </text>
<text text-anchor="start" x="2163.35" y="-349.2" font-family="Arial" font-size="14.00" fill="#666666">[BASE TABLE]</text>
<polygon fill="none" stroke="black" points="1983.83,-305 1983.83,-335.8 2303.63,-335.8 2303.63,-305 1983.83,-305"/>
<text text-anchor="start" x="1990.83" y="-317.2" font-family="Arial" font-size="14.00">description </text>
<text text-anchor="start" x="2062.43" y="-317.2" font-family="Arial" font-size="14.00" fill="#666666">[text]</text>
<polygon fill="none" stroke="black" points="1983.83,-274.2 1983.83,-305 2303.63,-305 2303.63,-274.2 1983.83,-274.2"/>
<text text-anchor="start" x="1990.83" y="-286.4" font-family="Arial" font-size="14.00">higherrocktypeid </text>
<text text-anchor="start" x="2097.45" y="-286.4" font-family="Arial" font-size="14.00" fill="#666666">[integer]</text>
<polygon fill="none" stroke="black" points="1983.83,-243.4 1983.83,-274.2 2303.63,-274.2 2303.63,-243.4 1983.83,-243.4"/>
<text text-anchor="start" x="1990.83" y="-255.6" font-family="Arial" font-size="14.00">recdatecreated </text>
<text text-anchor="start" x="2088.12" y="-255.6" font-family="Arial" font-size="14.00" fill="#666666">[timestamp(0) without time zone]</text>
<polygon fill="none" stroke="black" points="1983.83,-212.6 1983.83,-243.4 2303.63,-243.4 2303.63,-212.6 1983.83,-212.6"/>
<text text-anchor="start" x="1990.83" y="-224.8" font-family="Arial" font-size="14.00">recdatemodified </text>
<text text-anchor="start" x="2094.34" y="-224.8" font-family="Arial" font-size="14.00" fill="#666666">[timestamp(0) without time zone]</text>
<polygon fill="none" stroke="black" points="1983.83,-181.8 1983.83,-212.6 2303.63,-212.6 2303.63,-181.8 1983.83,-181.8"/>
<text text-anchor="start" x="1990.83" y="-194" font-family="Arial" font-size="14.00">rocktype </text>
<text text-anchor="start" x="2047.63" y="-194" font-family="Arial" font-size="14.00" fill="#666666">[varchar(64)]</text>
<polygon fill="none" stroke="black" points="1983.83,-151 1983.83,-181.8 2303.63,-181.8 2303.63,-151 1983.83,-151"/>
<text text-anchor="start" x="1990.83" y="-163.2" font-family="Arial" font-size="14.00">rocktypeid </text>
<text text-anchor="start" x="2058.53" y="-163.2" font-family="Arial" font-size="14.00" fill="#666666">[integer]</text>
</g>
<!-- ndb.collectionunits&#45;&gt;ndb.rocktypes -->
<g id="edge10" class="edge">
<title>ndb.collectionunits:substrateid&#45;&gt;ndb.rocktypes:rocktypeid</title>
<path fill="none" stroke="black" d="M1678.73,-647.75C1801.18,-646.63 1856.99,-623.99 1931.73,-522.4 1979.1,-458.02 1902.91,-166.4 1982.83,-166.4"/>
<polygon fill="black" stroke="black" points="1678.97,-647.75 1668.95,-643.3 1673.63,-647.78 1669.3,-647.8 1669.3,-647.8 1669.3,-647.8 1673.63,-647.78 1668.99,-652.3 1678.97,-647.75"/>
<text text-anchor="start" x="1675.63" y="-657.8" font-family="Arial" font-size="10.00">FOREIGN KEY (substrateid) REFERENCES ndb.rocktypes(rocktypeid) ON UPDATE CASCADE ON DELETE CASCADE</text>
</g>
<!-- ndb.analysisunits -->
<g id="node3" class="node">
<title>ndb.analysisunits</title>
<polygon fill="#efefef" stroke="none" points="287.83,-1745.2 287.83,-1780.8 607.63,-1780.8 607.63,-1745.2 287.83,-1745.2"/>
<polygon fill="none" stroke="black" points="287.83,-1745.2 287.83,-1780.8 607.63,-1780.8 607.63,-1745.2 287.83,-1745.2"/>
<text text-anchor="start" x="323.24" y="-1758.6" font-family="Arial Bold" font-size="18.00">ndb.analysisunits</text>
<text text-anchor="start" x="447.74" y="-1758.6" font-family="Arial" font-size="14.00">    </text>
<text text-anchor="start" x="478.86" y="-1758.6" font-family="Arial" font-size="14.00" fill="#666666">[BASE TABLE]</text>
<polygon fill="none" stroke="black" points="287.83,-1714.4 287.83,-1745.2 607.63,-1745.2 607.63,-1714.4 287.83,-1714.4"/>
<text text-anchor="start" x="294.83" y="-1726.6" font-family="Arial" font-size="14.00">analysisunitid </text>
<text text-anchor="start" x="382.77" y="-1726.6" font-family="Arial" font-size="14.00" fill="#666666">[integer]</text>
<polygon fill="none" stroke="black" points="287.83,-1683.6 287.83,-1714.4 607.63,-1714.4 607.63,-1683.6 287.83,-1683.6"/>
<text text-anchor="start" x="294.83" y="-1695.8" font-family="Arial" font-size="14.00">analysisunitname </text>
<text text-anchor="start" x="406.9" y="-1695.8" font-family="Arial" font-size="14.00" fill="#666666">[varchar(80)]</text>
<polygon fill="none" stroke="black" points="287.83,-1652.8 287.83,-1683.6 607.63,-1683.6 607.63,-1652.8 287.83,-1652.8"/>
<text text-anchor="start" x="294.83" y="-1665" font-family="Arial" font-size="14.00">collectionunitid </text>
<text text-anchor="start" x="390.56" y="-1665" font-family="Arial" font-size="14.00" fill="#666666">[integer]</text>
<polygon fill="none" stroke="black" points="287.83,-1622 287.83,-1652.8 607.63,-1652.8 607.63,-1622 287.83,-1622"/>
<text text-anchor="start" x="294.83" y="-1634.2" font-family="Arial" font-size="14.00">depth </text>
<text text-anchor="start" x="333.76" y="-1634.2" font-family="Arial" font-size="14.00" fill="#666666">[double precision]</text>
<polygon fill="none" stroke="black" points="287.83,-1591.2 287.83,-1622 607.63,-1622 607.63,-1591.2 287.83,-1591.2"/>
<text text-anchor="start" x="294.83" y="-1603.4" font-family="Arial" font-size="14.00">faciesid </text>
<text text-anchor="start" x="346.19" y="-1603.4" font-family="Arial" font-size="14.00" fill="#666666">[integer]</text>
<polygon fill="none" stroke="black" points="287.83,-1560.4 287.83,-1591.2 607.63,-1591.2 607.63,-1560.4 287.83,-1560.4"/>
<text text-anchor="start" x="294.83" y="-1572.6" font-family="Arial" font-size="14.00">igsn </text>
<text text-anchor="start" x="324.41" y="-1572.6" font-family="Arial" font-size="14.00" fill="#666666">[varchar(40)]</text>
<polygon fill="none" stroke="black" points="287.83,-1529.6 287.83,-1560.4 607.63,-1560.4 607.63,-1529.6 287.83,-1529.6"/>
<text text-anchor="start" x="294.83" y="-1541.8" font-family="Arial" font-size="14.00">mixed </text>
<text text-anchor="start" x="336.07" y="-1541.8" font-family="Arial" font-size="14.00" fill="#666666">[boolean]</text>
<polygon fill="none" stroke="black" points="287.83,-1498.8 287.83,-1529.6 607.63,-1529.6 607.63,-1498.8 287.83,-1498.8"/>
<text text-anchor="start" x="294.83" y="-1511" font-family="Arial" font-size="14.00">notes </text>
<text text-anchor="start" x="332.97" y="-1511" font-family="Arial" font-size="14.00" fill="#666666">[text]</text>
<polygon fill="none" stroke="black" points="287.83,-1468 287.83,-1498.8 607.63,-1498.8 607.63,-1468 287.83,-1468"/>
<text text-anchor="start" x="294.83" y="-1480.2" font-family="Arial" font-size="14.00">recdatecreated </text>
<text text-anchor="start" x="392.12" y="-1480.2" font-family="Arial" font-size="14.00" fill="#666666">[timestamp(0) without time zone]</text>
<polygon fill="none" stroke="black" points="287.83,-1437.2 287.83,-1468 607.63,-1468 607.63,-1437.2 287.83,-1437.2"/>
<text text-anchor="start" x="294.83" y="-1449.4" font-family="Arial" font-size="14.00">recdatemodified </text>
<text text-anchor="start" x="398.34" y="-1449.4" font-family="Arial" font-size="14.00" fill="#666666">[timestamp(0) without time zone]</text>
<polygon fill="none" stroke="black" points="287.83,-1406.4 287.83,-1437.2 607.63,-1437.2 607.63,-1406.4 287.83,-1406.4"/>
<text text-anchor="start" x="294.83" y="-1418.6" font-family="Arial" font-size="14.00">thickness </text>
<text text-anchor="start" x="357.08" y="-1418.6" font-family="Arial" font-size="14.00" fill="#666666">[double precision]</text>
</g>
<!-- ndb.analysisunits&#45;&gt;ndb.collectionunits -->
<g id="edge2" class="edge">
<title>ndb.analysisunits:collectionunitid&#45;&gt;ndb.collectionunits:collectionunitid</title>
<path fill="none" stroke="black" d="M618.65,-1666.26C677.14,-1641.46 612.13,-1386.15 659.73,-1332.4 764.83,-1213.72 1188.31,-1140.6 1346.83,-1140.6"/>
<polygon fill="black" stroke="black" points="618.78,-1666.24 608.11,-1663.72 613.54,-1667.25 609.29,-1668.07 609.29,-1668.07 609.29,-1668.07 613.54,-1667.25 609.82,-1672.55 618.78,-1666.24"/>
<text text-anchor="start" x="7" y="-1678.2" font-family="Arial" font-size="10.00">FOREIGN KEY (collectionunitid) REFERENCES ndb.collectionunits(collectionunitid) ON UPDATE CASCADE ON DELETE CASCADE</text>
</g>
<!-- ndb.chronologies -->
<g id="node4" class="node">
<title>ndb.chronologies</title>
<polygon fill="#efefef" stroke="none" points="711.83,-1776 711.83,-1811.6 1031.63,-1811.6 1031.63,-1776 711.83,-1776"/>
<polygon fill="none" stroke="black" points="711.83,-1776 711.83,-1811.6 1031.63,-1811.6 1031.63,-1776 711.83,-1776"/>
<text text-anchor="start" x="747.25" y="-1789.4" font-family="Arial Bold" font-size="18.00">ndb.chronologies</text>
<text text-anchor="start" x="871.73" y="-1789.4" font-family="Arial" font-size="14.00">    </text>
<text text-anchor="start" x="902.85" y="-1789.4" font-family="Arial" font-size="14.00" fill="#666666">[BASE TABLE]</text>
<polygon fill="none" stroke="black" points="711.83,-1745.2 711.83,-1776 1031.63,-1776 1031.63,-1745.2 711.83,-1745.2"/>
<text text-anchor="start" x="718.83" y="-1757.4" font-family="Arial" font-size="14.00">ageboundolder </text>
<text text-anchor="start" x="816.14" y="-1757.4" font-family="Arial" font-size="14.00" fill="#666666">[integer]</text>
<polygon fill="none" stroke="black" points="711.83,-1714.4 711.83,-1745.2 1031.63,-1745.2 1031.63,-1714.4 711.83,-1714.4"/>
<text text-anchor="start" x="718.83" y="-1726.6" font-family="Arial" font-size="14.00">ageboundyounger </text>
<text text-anchor="start" x="835.61" y="-1726.6" font-family="Arial" font-size="14.00" fill="#666666">[integer]</text>
<polygon fill="none" stroke="black" points="711.83,-1683.6 711.83,-1714.4 1031.63,-1714.4 1031.63,-1683.6 711.83,-1683.6"/>
<text text-anchor="start" x="718.83" y="-1695.8" font-family="Arial" font-size="14.00">agemodel </text>
<text text-anchor="start" x="784.21" y="-1695.8" font-family="Arial" font-size="14.00" fill="#666666">[varchar(80)]</text>
<polygon fill="none" stroke="black" points="711.83,-1652.8 711.83,-1683.6 1031.63,-1683.6 1031.63,-1652.8 711.83,-1652.8"/>
<text text-anchor="start" x="718.83" y="-1665" font-family="Arial" font-size="14.00">agetypeid </text>
<text text-anchor="start" x="783.44" y="-1665" font-family="Arial" font-size="14.00" fill="#666666">[integer]</text>
<polygon fill="none" stroke="black" points="711.83,-1622 711.83,-1652.8 1031.63,-1652.8 1031.63,-1622 711.83,-1622"/>
<text text-anchor="start" x="718.83" y="-1634.2" font-family="Arial" font-size="14.00">chronologyid </text>
<text text-anchor="start" x="802.11" y="-1634.2" font-family="Arial" font-size="14.00" fill="#666666">[integer]</text>
<polygon fill="none" stroke="black" points="711.83,-1591.2 711.83,-1622 1031.63,-1622 1031.63,-1591.2 711.83,-1591.2"/>
<text text-anchor="start" x="718.83" y="-1603.4" font-family="Arial" font-size="14.00">chronologyname </text>
<text text-anchor="start" x="826.23" y="-1603.4" font-family="Arial" font-size="14.00" fill="#666666">[varchar(80)]</text>
<polygon fill="none" stroke="black" points="711.83,-1560.4 711.83,-1591.2 1031.63,-1591.2 1031.63,-1560.4 711.83,-1560.4"/>
<text text-anchor="start" x="718.83" y="-1572.6" font-family="Arial" font-size="14.00">collectionunitid </text>
<text text-anchor="start" x="814.56" y="-1572.6" font-family="Arial" font-size="14.00" fill="#666666">[integer]</text>
<polygon fill="none" stroke="black" points="711.83,-1529.6 711.83,-1560.4 1031.63,-1560.4 1031.63,-1529.6 711.83,-1529.6"/>
<text text-anchor="start" x="718.83" y="-1541.8" font-family="Arial" font-size="14.00">contactid </text>
<text text-anchor="start" x="778.76" y="-1541.8" font-family="Arial" font-size="14.00" fill="#666666">[integer]</text>
<polygon fill="none" stroke="black" points="711.83,-1498.8 711.83,-1529.6 1031.63,-1529.6 1031.63,-1498.8 711.83,-1498.8"/>
<text text-anchor="start" x="718.83" y="-1511" font-family="Arial" font-size="14.00">dateprepared </text>
<text text-anchor="start" x="806.01" y="-1511" font-family="Arial" font-size="14.00" fill="#666666">[date]</text>
<polygon fill="none" stroke="black" points="711.83,-1468 711.83,-1498.8 1031.63,-1498.8 1031.63,-1468 711.83,-1468"/>
<text text-anchor="start" x="718.83" y="-1480.2" font-family="Arial" font-size="14.00">isdefault </text>
<text text-anchor="start" x="774.87" y="-1480.2" font-family="Arial" font-size="14.00" fill="#666666">[boolean]</text>
<polygon fill="none" stroke="black" points="711.83,-1437.2 711.83,-1468 1031.63,-1468 1031.63,-1437.2 711.83,-1437.2"/>
<text text-anchor="start" x="718.83" y="-1449.4" font-family="Arial" font-size="14.00">notes </text>
<text text-anchor="start" x="756.97" y="-1449.4" font-family="Arial" font-size="14.00" fill="#666666">[text]</text>
<polygon fill="none" stroke="black" points="711.83,-1406.4 711.83,-1437.2 1031.63,-1437.2 1031.63,-1406.4 711.83,-1406.4"/>
<text text-anchor="start" x="718.83" y="-1418.6" font-family="Arial" font-size="14.00">recdatecreated </text>
<text text-anchor="start" x="816.12" y="-1418.6" font-family="Arial" font-size="14.00" fill="#666666">[timestamp(0) without time zone]</text>
<polygon fill="none" stroke="black" points="711.83,-1375.6 711.83,-1406.4 1031.63,-1406.4 1031.63,-1375.6 711.83,-1375.6"/>
<text text-anchor="start" x="718.83" y="-1387.8" font-family="Arial" font-size="14.00">recdatemodified </text>
<text text-anchor="start" x="822.34" y="-1387.8" font-family="Arial" font-size="14.00" fill="#666666">[timestamp(0) without time zone]</text>
</g>
<!-- ndb.chronologies&#45;&gt;ndb.collectionunits -->
<g id="edge3" class="edge">
<title>ndb.chronologies:collectionunitid&#45;&gt;ndb.collectionunits:collectionunitid</title>
<path fill="none" stroke="black" d="M1042.9,-1575.31C1135.44,-1565.86 1025.72,-1422.14 1083.73,-1332.4 1162.3,-1210.88 1202.13,-1140.6 1346.83,-1140.6"/>
<polygon fill="black" stroke="black" points="1042.96,-1575.31 1032.75,-1571.29 1037.63,-1575.56 1033.3,-1575.77 1033.3,-1575.77 1033.3,-1575.77 1037.63,-1575.56 1033.18,-1580.28 1042.96,-1575.31"/>
<text text-anchor="start" x="735.32" y="-1559.8" font-family="Arial" font-size="10.00">FOREIGN KEY (collectionunitid) REFERENCES ndb.collectionunits(collectionunitid) ON UPDATE CASCADE ON DELETE CASCADE</text>
</g>
<!-- ndb.collectors -->
<g id="node5" class="node">
<title>ndb.collectors</title>
<polygon fill="#efefef" stroke="none" points="1135.83,-1668.2 1135.83,-1703.8 1455.63,-1703.8 1455.63,-1668.2 1135.83,-1668.2"/>
<polygon fill="none" stroke="black" points="1135.83,-1668.2 1135.83,-1703.8 1455.63,-1703.8 1455.63,-1668.2 1135.83,-1668.2"/>
<text text-anchor="start" x="1182.75" y="-1681.6" font-family="Arial Bold" font-size="18.00">ndb.collectors</text>
<text text-anchor="start" x="1284.22" y="-1681.6" font-family="Arial" font-size="14.00">    </text>
<text text-anchor="start" x="1315.34" y="-1681.6" font-family="Arial" font-size="14.00" fill="#666666">[BASE TABLE]</text>
<polygon fill="none" stroke="black" points="1135.83,-1637.4 1135.83,-1668.2 1455.63,-1668.2 1455.63,-1637.4 1135.83,-1637.4"/>
<text text-anchor="start" x="1142.83" y="-1649.6" font-family="Arial" font-size="14.00">collectionunitid </text>
<text text-anchor="start" x="1238.56" y="-1649.6" font-family="Arial" font-size="14.00" fill="#666666">[integer]</text>
<polygon fill="none" stroke="black" points="1135.83,-1606.6 1135.83,-1637.4 1455.63,-1637.4 1455.63,-1606.6 1135.83,-1606.6"/>
<text text-anchor="start" x="1142.83" y="-1618.8" font-family="Arial" font-size="14.00">collectorid </text>
<text text-anchor="start" x="1209.75" y="-1618.8" font-family="Arial" font-size="14.00" fill="#666666">[integer]</text>
<polygon fill="none" stroke="black" points="1135.83,-1575.8 1135.83,-1606.6 1455.63,-1606.6 1455.63,-1575.8 1135.83,-1575.8"/>
<text text-anchor="start" x="1142.83" y="-1588" font-family="Arial" font-size="14.00">collectororder </text>
<text text-anchor="start" x="1231.54" y="-1588" font-family="Arial" font-size="14.00" fill="#666666">[integer]</text>
<polygon fill="none" stroke="black" points="1135.83,-1545 1135.83,-1575.8 1455.63,-1575.8 1455.63,-1545 1135.83,-1545"/>
<text text-anchor="start" x="1142.83" y="-1557.2" font-family="Arial" font-size="14.00">contactid </text>
<text text-anchor="start" x="1202.76" y="-1557.2" font-family="Arial" font-size="14.00" fill="#666666">[integer]</text>
<polygon fill="none" stroke="black" points="1135.83,-1514.2 1135.83,-1545 1455.63,-1545 1455.63,-1514.2 1135.83,-1514.2"/>
<text text-anchor="start" x="1142.83" y="-1526.4" font-family="Arial" font-size="14.00">recdatecreated </text>
<text text-anchor="start" x="1240.12" y="-1526.4" font-family="Arial" font-size="14.00" fill="#666666">[timestamp(0) without time zone]</text>
<polygon fill="none" stroke="black" points="1135.83,-1483.4 1135.83,-1514.2 1455.63,-1514.2 1455.63,-1483.4 1135.83,-1483.4"/>
<text text-anchor="start" x="1142.83" y="-1495.6" font-family="Arial" font-size="14.00">recdatemodified </text>
<text text-anchor="start" x="1246.34" y="-1495.6" font-family="Arial" font-size="14.00" fill="#666666">[timestamp(0) without time zone]</text>
</g>
<!-- ndb.collectors&#45;&gt;ndb.collectionunits -->
<g id="edge4" class="edge">
<title>ndb.collectors:collectionunitid&#45;&gt;ndb.collectionunits:collectionunitid</title>
<path fill="none" stroke="black" d="M1466.99,-1652.25C1546.07,-1643.24 1484.54,-1526.27 1455.63,-1440.2 1430.21,-1364.48 1373.33,-1372.1 1347.83,-1296.4 1325.73,-1230.78 1277.59,-1140.6 1346.83,-1140.6"/>
<polygon fill="black" stroke="black" points="1466.95,-1652.25 1456.73,-1648.29 1461.63,-1652.53 1457.3,-1652.76 1457.3,-1652.76 1457.3,-1652.76 1461.63,-1652.53 1457.21,-1657.28 1466.95,-1652.25"/>
<text text-anchor="start" x="1463.63" y="-1662.8" font-family="Arial" font-size="10.00">FOREIGN KEY (collectionunitid) REFERENCES ndb.collectionunits(collectionunitid) ON UPDATE CASCADE ON DELETE CASCADE</text>
</g>
<!-- ndb.datasets -->
<g id="node6" class="node">
<title>ndb.datasets</title>
<polygon fill="#efefef" stroke="none" points="1559.83,-1699 1559.83,-1734.6 1879.63,-1734.6 1879.63,-1699 1559.83,-1699"/>
<polygon fill="none" stroke="black" points="1559.83,-1699 1559.83,-1734.6 1879.63,-1734.6 1879.63,-1699 1559.83,-1699"/>
<text text-anchor="start" x="1613.25" y="-1712.4" font-family="Arial Bold" font-size="18.00">ndb.datasets</text>
<text text-anchor="start" x="1701.73" y="-1712.4" font-family="Arial" font-size="14.00">    </text>
<text text-anchor="start" x="1732.85" y="-1712.4" font-family="Arial" font-size="14.00" fill="#666666">[BASE TABLE]</text>
<polygon fill="none" stroke="black" points="1559.83,-1668.2 1559.83,-1699 1879.63,-1699 1879.63,-1668.2 1559.83,-1668.2"/>
<text text-anchor="start" x="1566.83" y="-1680.4" font-family="Arial" font-size="14.00">collectionunitid </text>
<text text-anchor="start" x="1662.56" y="-1680.4" font-family="Arial" font-size="14.00" fill="#666666">[integer]</text>
<polygon fill="none" stroke="black" points="1559.83,-1637.4 1559.83,-1668.2 1879.63,-1668.2 1879.63,-1637.4 1559.83,-1637.4"/>
<text text-anchor="start" x="1566.83" y="-1649.6" font-family="Arial" font-size="14.00">datasetid </text>
<text text-anchor="start" x="1627.54" y="-1649.6" font-family="Arial" font-size="14.00" fill="#666666">[integer]</text>
<polygon fill="none" stroke="black" points="1559.83,-1606.6 1559.83,-1637.4 1879.63,-1637.4 1879.63,-1606.6 1559.83,-1606.6"/>
<text text-anchor="start" x="1566.83" y="-1618.8" font-family="Arial" font-size="14.00">datasetname </text>
<text text-anchor="start" x="1651.67" y="-1618.8" font-family="Arial" font-size="14.00" fill="#666666">[varchar(80)]</text>
<polygon fill="none" stroke="black" points="1559.83,-1575.8 1559.83,-1606.6 1879.63,-1606.6 1879.63,-1575.8 1559.83,-1575.8"/>
<text text-anchor="start" x="1566.83" y="-1588" font-family="Arial" font-size="14.00">datasettypeid </text>
<text text-anchor="start" x="1654.01" y="-1588" font-family="Arial" font-size="14.00" fill="#666666">[integer]</text>
<polygon fill="none" stroke="black" points="1559.83,-1545 1559.83,-1575.8 1879.63,-1575.8 1879.63,-1545 1559.83,-1545"/>
<text text-anchor="start" x="1566.83" y="-1557.2" font-family="Arial" font-size="14.00">embargoid </text>
<text text-anchor="start" x="1636.88" y="-1557.2" font-family="Arial" font-size="14.00" fill="#666666">[integer]</text>
<polygon fill="none" stroke="black" points="1559.83,-1514.2 1559.83,-1545 1879.63,-1545 1879.63,-1514.2 1559.83,-1514.2"/>
<text text-anchor="start" x="1566.83" y="-1526.4" font-family="Arial" font-size="14.00">notes </text>
<text text-anchor="start" x="1604.97" y="-1526.4" font-family="Arial" font-size="14.00" fill="#666666">[text]</text>
<polygon fill="none" stroke="black" points="1559.83,-1483.4 1559.83,-1514.2 1879.63,-1514.2 1879.63,-1483.4 1559.83,-1483.4"/>
<text text-anchor="start" x="1566.83" y="-1495.6" font-family="Arial" font-size="14.00">recdatecreated </text>
<text text-anchor="start" x="1664.12" y="-1495.6" font-family="Arial" font-size="14.00" fill="#666666">[timestamp(0) without time zone]</text>
<polygon fill="none" stroke="black" points="1559.83,-1452.6 1559.83,-1483.4 1879.63,-1483.4 1879.63,-1452.6 1559.83,-1452.6"/>
<text text-anchor="start" x="1566.83" y="-1464.8" font-family="Arial" font-size="14.00">recdatemodified </text>
<text text-anchor="start" x="1670.34" y="-1464.8" font-family="Arial" font-size="14.00" fill="#666666">[timestamp(0) without time zone]</text>
</g>
<!-- ndb.datasets&#45;&gt;ndb.collectionunits -->
<g id="edge5" class="edge">
<title>ndb.datasets:collectionunitid&#45;&gt;ndb.collectionunits:collectionunitid</title>
<path fill="none" stroke="black" d="M1548.84,-1681.29C1502.59,-1657.83 1538.46,-1462.5 1559.83,-1409.4 1585.76,-1345.01 1641.62,-1360.75 1667.63,-1296.4 1693.58,-1232.2 1737.88,-1140.6 1668.63,-1140.6"/>
<polygon fill="black" stroke="black" points="1548.77,-1681.27 1557.5,-1687.91 1553.96,-1682.47 1558.18,-1683.45 1558.18,-1683.45 1558.18,-1683.45 1553.96,-1682.47 1559.52,-1679.14 1548.77,-1681.27"/>
<text text-anchor="start" x="1565.83" y="-1693.6" font-family="Arial" font-size="10.00">FOREIGN KEY (collectionunitid) REFERENCES ndb.collectionunits(collectionunitid) ON UPDATE CASCADE ON DELETE CASCADE</text>
</g>
<!-- ndb.lithology -->
<g id="node7" class="node">
<title>ndb.lithology</title>
<polygon fill="#efefef" stroke="none" points="1983.83,-1699 1983.83,-1734.6 2303.63,-1734.6 2303.63,-1699 1983.83,-1699"/>
<polygon fill="none" stroke="black" points="1983.83,-1699 1983.83,-1734.6 2303.63,-1734.6 2303.63,-1699 1983.83,-1699"/>
<text text-anchor="start" x="2033.24" y="-1712.4" font-family="Arial Bold" font-size="18.00">ndb.lithology</text>
<text text-anchor="start" x="2129.74" y="-1712.4" font-family="Arial" font-size="14.00">    </text>
<text text-anchor="start" x="2160.86" y="-1712.4" font-family="Arial" font-size="14.00" fill="#666666">[BASE TABLE]</text>
<polygon fill="none" stroke="black" points="1983.83,-1668.2 1983.83,-1699 2303.63,-1699 2303.63,-1668.2 1983.83,-1668.2"/>
<text text-anchor="start" x="1990.83" y="-1680.4" font-family="Arial" font-size="14.00">collectionunitid </text>
<text text-anchor="start" x="2086.56" y="-1680.4" font-family="Arial" font-size="14.00" fill="#666666">[integer]</text>
<polygon fill="none" stroke="black" points="1983.83,-1637.4 1983.83,-1668.2 2303.63,-1668.2 2303.63,-1637.4 1983.83,-1637.4"/>
<text text-anchor="start" x="1990.83" y="-1649.6" font-family="Arial" font-size="14.00">depthbottom </text>
<text text-anchor="start" x="2072.56" y="-1649.6" font-family="Arial" font-size="14.00" fill="#666666">[double precision]</text>
<polygon fill="none" stroke="black" points="1983.83,-1606.6 1983.83,-1637.4 2303.63,-1637.4 2303.63,-1606.6 1983.83,-1606.6"/>
<text text-anchor="start" x="1990.83" y="-1618.8" font-family="Arial" font-size="14.00">depthtop </text>
<text text-anchor="start" x="2049.22" y="-1618.8" font-family="Arial" font-size="14.00" fill="#666666">[double precision]</text>
<polygon fill="none" stroke="black" points="1983.83,-1575.8 1983.83,-1606.6 2303.63,-1606.6 2303.63,-1575.8 1983.83,-1575.8"/>
<text text-anchor="start" x="1990.83" y="-1588" font-family="Arial" font-size="14.00">description </text>
<text text-anchor="start" x="2062.43" y="-1588" font-family="Arial" font-size="14.00" fill="#666666">[text]</text>
<polygon fill="none" stroke="black" points="1983.83,-1545 1983.83,-1575.8 2303.63,-1575.8 2303.63,-1545 1983.83,-1545"/>
<text text-anchor="start" x="1990.83" y="-1557.2" font-family="Arial" font-size="14.00">lithologyid </text>
<text text-anchor="start" x="2056.99" y="-1557.2" font-family="Arial" font-size="14.00" fill="#666666">[integer]</text>
<polygon fill="none" stroke="black" points="1983.83,-1514.2 1983.83,-1545 2303.63,-1545 2303.63,-1514.2 1983.83,-1514.2"/>
<text text-anchor="start" x="1990.83" y="-1526.4" font-family="Arial" font-size="14.00">lowerboundary </text>
<text text-anchor="start" x="2086.56" y="-1526.4" font-family="Arial" font-size="14.00" fill="#666666">[varchar(255)]</text>
<polygon fill="none" stroke="black" points="1983.83,-1483.4 1983.83,-1514.2 2303.63,-1514.2 2303.63,-1483.4 1983.83,-1483.4"/>
<text text-anchor="start" x="1990.83" y="-1495.6" font-family="Arial" font-size="14.00">recdatecreated </text>
<text text-anchor="start" x="2088.12" y="-1495.6" font-family="Arial" font-size="14.00" fill="#666666">[timestamp(0) without time zone]</text>
<polygon fill="none" stroke="black" points="1983.83,-1452.6 1983.83,-1483.4 2303.63,-1483.4 2303.63,-1452.6 1983.83,-1452.6"/>
<text text-anchor="start" x="1990.83" y="-1464.8" font-family="Arial" font-size="14.00">recdatemodified </text>
<text text-anchor="start" x="2094.34" y="-1464.8" font-family="Arial" font-size="14.00" fill="#666666">[timestamp(0) without time zone]</text>
</g>
<!-- ndb.lithology&#45;&gt;ndb.collectionunits -->
<g id="edge6" class="edge">
<title>ndb.lithology:collectionunitid&#45;&gt;ndb.collectionunits:collectionunitid</title>
<path fill="none" stroke="black" d="M1972.69,-1681.78C1910.15,-1657.48 1970.55,-1396.77 1931.73,-1332.4 1857,-1208.48 1813.34,-1140.6 1668.63,-1140.6"/>
<polygon fill="black" stroke="black" points="1972.66,-1681.78 1981.71,-1687.97 1977.91,-1682.72 1982.18,-1683.48 1982.18,-1683.48 1982.18,-1683.48 1977.91,-1682.72 1983.3,-1679.11 1972.66,-1681.78"/>
<text text-anchor="start" x="1989.83" y="-1693.6" font-family="Arial" font-size="10.00">FOREIGN KEY (collectionunitid) REFERENCES ndb.collectionunits(collectionunitid) ON UPDATE CASCADE ON DELETE CASCADE</text>
</g>
<!-- ndb.speleothemcollectionunits -->
<g id="node8" class="node">
<title>ndb.speleothemcollectionunits</title>
<polygon fill="#efefef" stroke="none" points="2407.76,-1622 2407.76,-1657.6 2765.71,-1657.6 2765.71,-1622 2407.76,-1622"/>
<polygon fill="none" stroke="black" points="2407.76,-1622 2407.76,-1657.6 2765.71,-1657.6 2765.71,-1622 2407.76,-1622"/>
<text text-anchor="start" x="2414.76" y="-1635.4" font-family="Arial Bold" font-size="18.00">ndb.speleothemcollectionunits</text>
<text text-anchor="start" x="2634.22" y="-1635.4" font-family="Arial" font-size="14.00">    </text>
<text text-anchor="start" x="2665.33" y="-1635.4" font-family="Arial" font-size="14.00" fill="#666666">[BASE TABLE]</text>
<polygon fill="none" stroke="black" points="2407.76,-1591.2 2407.76,-1622 2765.71,-1622 2765.71,-1591.2 2407.76,-1591.2"/>
<text text-anchor="start" x="2414.76" y="-1603.4" font-family="Arial" font-size="14.00">collectionunitid </text>
<text text-anchor="start" x="2510.49" y="-1603.4" font-family="Arial" font-size="14.00" fill="#666666">[integer]</text>
<polygon fill="none" stroke="black" points="2407.76,-1560.4 2407.76,-1591.2 2765.71,-1591.2 2765.71,-1560.4 2407.76,-1560.4"/>
<text text-anchor="start" x="2414.76" y="-1572.6" font-family="Arial" font-size="14.00">entityid </text>
<text text-anchor="start" x="2463.01" y="-1572.6" font-family="Arial" font-size="14.00" fill="#666666">[integer]</text>
<polygon fill="none" stroke="black" points="2407.76,-1529.6 2407.76,-1560.4 2765.71,-1560.4 2765.71,-1529.6 2407.76,-1529.6"/>
<text text-anchor="start" x="2414.76" y="-1541.8" font-family="Arial" font-size="14.00">persistid </text>
<text text-anchor="start" x="2470.78" y="-1541.8" font-family="Arial" font-size="14.00" fill="#666666">[text]</text>
</g>
<!-- ndb.speleothemcollectionunits&#45;&gt;ndb.collectionunits -->
<g id="edge7" class="edge">
<title>ndb.speleothemcollectionunits:collectionunitid&#45;&gt;ndb.collectionunits:collectionunitid</title>
<path fill="none" stroke="black" d="M2396.58,-1606.14C2291.78,-1595.97 2436.98,-1421.15 2355.73,-1332.4 2248.69,-1215.47 1827.16,-1140.6 1668.63,-1140.6"/>
<polygon fill="black" stroke="black" points="2396.44,-1606.13 2406.22,-1611.08 2401.77,-1606.37 2406.09,-1606.57 2406.09,-1606.57 2406.09,-1606.57 2401.77,-1606.37 2406.63,-1602.09 2396.44,-1606.13"/>
<text text-anchor="start" x="2413.76" y="-1616.6" font-family="Arial" font-size="10.00">FOREIGN KEY (collectionunitid) REFERENCES ndb.collectionunits(collectionunitid) ON DELETE CASCADE</text>
</g>
</g>
</svg>
