<?xml version="1.0" encoding="UTF-8" standalone="no"?>
<!DOCTYPE svg PUBLIC "-//W3C//DTD SVG 1.1//EN"
 "http://www.w3.org/Graphics/SVG/1.1/DTD/svg11.dtd">
<!-- Generated by graphviz version 12.1.2 (20240928.0832)
 -->
<!-- Title: ndb.lithostratunits Pages: 1 -->
<svg width="972pt" height="914pt"
 viewBox="0.00 0.00 971.94 914.00" xmlns="http://www.w3.org/2000/svg" xmlns:xlink="http://www.w3.org/1999/xlink">
<g id="graph0" class="graph" transform="scale(1 1) rotate(0) translate(4 910)">
<title>ndb.lithostratunits</title>
<polygon fill="white" stroke="none" points="-4,4 -4,-910 967.94,-910 967.94,4 -4,4"/>
<!-- ndb.lithostratunits -->
<g id="node1" class="node">
<title>ndb.lithostratunits</title>
<polygon fill="#efefef" stroke="none" points="46.2,-200.2 46.2,-235.8 366,-235.8 366,-200.2 46.2,-200.2"/>
<polygon fill="none" stroke="black" points="46.2,-200.2 46.2,-235.8 366,-235.8 366,-200.2 46.2,-200.2"/>
<text text-anchor="start" x="78.6" y="-213.6" font-family="Arial Bold" font-size="18.00">ndb.lithostratunits</text>
<text text-anchor="start" x="209.1" y="-213.6" font-family="Arial" font-size="14.00">    </text>
<text text-anchor="start" x="240.22" y="-213.6" font-family="Arial" font-size="14.00" fill="#666666">[BASE TABLE]</text>
<polygon fill="none" stroke="black" points="46.2,-169.4 46.2,-200.2 366,-200.2 366,-169.4 46.2,-169.4"/>
<text text-anchor="start" x="53.2" y="-181.6" font-family="Arial" font-size="14.00">lithostratunitid </text>
<text text-anchor="start" x="143.47" y="-181.6" font-family="Arial" font-size="14.00" fill="#666666">[integer]</text>
<polygon fill="none" stroke="black" points="46.2,-138.6 46.2,-169.4 366,-169.4 366,-138.6 46.2,-138.6"/>
<text text-anchor="start" x="53.2" y="-150.8" font-family="Arial" font-size="14.00">lithostratunit </text>
<text text-anchor="start" x="132.57" y="-150.8" font-family="Arial" font-size="14.00" fill="#666666">[varchar(24)]</text>
<polygon fill="none" stroke="black" points="46.2,-107.8 46.2,-138.6 366,-138.6 366,-107.8 46.2,-107.8"/>
<text text-anchor="start" x="53.2" y="-120" font-family="Arial" font-size="14.00">rank </text>
<text text-anchor="start" x="84.32" y="-120" font-family="Arial" font-size="14.00" fill="#666666">[integer]</text>
<polygon fill="none" stroke="black" points="46.2,-77 46.2,-107.8 366,-107.8 366,-77 46.2,-77"/>
<text text-anchor="start" x="53.2" y="-89.2" font-family="Arial" font-size="14.00">recdatecreated </text>
<text text-anchor="start" x="150.48" y="-89.2" font-family="Arial" font-size="14.00" fill="#666666">[timestamp(0) without time zone]</text>
<polygon fill="none" stroke="black" points="46.2,-46.2 46.2,-77 366,-77 366,-46.2 46.2,-46.2"/>
<text text-anchor="start" x="53.2" y="-58.4" font-family="Arial" font-size="14.00">recdatemodified </text>
<text text-anchor="start" x="156.7" y="-58.4" font-family="Arial" font-size="14.00" fill="#666666">[timestamp(0) without time zone]</text>
<polygon fill="none" stroke="black" stroke-width="3" points="44.7,-44.7 44.7,-237.3 367.5,-237.3 367.5,-44.7 44.7,-44.7"/>
</g>
<!-- ndb.lithostrat -->
<g id="node2" class="node">
<title>ndb.lithostrat</title>
<polygon fill="#efefef" stroke="none" points="46.2,-546 46.2,-581.6 366,-581.6 366,-546 46.2,-546"/>
<polygon fill="none" stroke="black" points="46.2,-546 46.2,-581.6 366,-581.6 366,-546 46.2,-546"/>
<text text-anchor="start" x="96.11" y="-559.4" font-family="Arial Bold" font-size="18.00">ndb.lithostrat</text>
<text text-anchor="start" x="191.6" y="-559.4" font-family="Arial" font-size="14.00">    </text>
<text text-anchor="start" x="222.72" y="-559.4" font-family="Arial" font-size="14.00" fill="#666666">[BASE TABLE]</text>
<polygon fill="none" stroke="black" points="46.2,-515.2 46.2,-546 366,-546 366,-515.2 46.2,-515.2"/>
<text text-anchor="start" x="53.2" y="-527.4" font-family="Arial" font-size="14.00">lithostratid </text>
<text text-anchor="start" x="120.9" y="-527.4" font-family="Arial" font-size="14.00" fill="#666666">[integer]</text>
<polygon fill="none" stroke="black" points="46.2,-484.4 46.2,-515.2 366,-515.2 366,-484.4 46.2,-484.4"/>
<text text-anchor="start" x="53.2" y="-496.6" font-family="Arial" font-size="14.00">lithostratunitid </text>
<text text-anchor="start" x="143.47" y="-496.6" font-family="Arial" font-size="14.00" fill="#666666">[integer]</text>
<polygon fill="none" stroke="black" points="46.2,-453.6 46.2,-484.4 366,-484.4 366,-453.6 46.2,-453.6"/>
<text text-anchor="start" x="53.2" y="-465.8" font-family="Arial" font-size="14.00">lithostratname </text>
<text text-anchor="start" x="145.02" y="-465.8" font-family="Arial" font-size="14.00" fill="#666666">[varchar(64)]</text>
<polygon fill="none" stroke="black" points="46.2,-422.8 46.2,-453.6 366,-453.6 366,-422.8 46.2,-422.8"/>
<text text-anchor="start" x="53.2" y="-435" font-family="Arial" font-size="14.00">higherlithostratid </text>
<text text-anchor="start" x="159.81" y="-435" font-family="Arial" font-size="14.00" fill="#666666">[integer]</text>
<polygon fill="none" stroke="black" points="46.2,-392 46.2,-422.8 366,-422.8 366,-392 46.2,-392"/>
<text text-anchor="start" x="53.2" y="-404.2" font-family="Arial" font-size="14.00">recdatecreated </text>
<text text-anchor="start" x="150.48" y="-404.2" font-family="Arial" font-size="14.00" fill="#666666">[timestamp(0) without time zone]</text>
<polygon fill="none" stroke="black" points="46.2,-361.2 46.2,-392 366,-392 366,-361.2 46.2,-361.2"/>
<text text-anchor="start" x="53.2" y="-373.4" font-family="Arial" font-size="14.00">recdatemodified </text>
<text text-anchor="start" x="156.7" y="-373.4" font-family="Arial" font-size="14.00" fill="#666666">[timestamp(0) without time zone]</text>
</g>
<!-- ndb.lithostrat&#45;&gt;ndb.lithostratunits -->
<g id="edge1" class="edge">
<title>ndb.lithostrat:lithostratunitid&#45;&gt;ndb.lithostratunits:lithostratunitid</title>
<path fill="none" stroke="black" d="M377.12,-497.45C436.82,-468.62 433.44,-184.8 367,-184.8"/>
<polygon fill="black" stroke="black" points="377.06,-497.46 366.31,-495.34 371.87,-498.67 367.65,-499.65 367.65,-499.65 367.65,-499.65 371.87,-498.67 368.34,-504.11 377.06,-497.46"/>
<text text-anchor="start" x="374" y="-509.8" font-family="Arial" font-size="10.00">FOREIGN KEY (lithostratunitid) REFERENCES ndb.lithostratunits(lithostratunitid) ON UPDATE CASCADE ON DELETE CASCADE</text>
</g>
<!-- ndb.lithostrat&#45;&gt;ndb.lithostrat -->
<g id="edge3" class="edge">
<title>ndb.lithostrat:higherlithostratid&#45;&gt;ndb.lithostrat:lithostratid</title>
<path fill="none" stroke="black" d="M207.99,-463.81C215.05,-576.23 214.42,-780.8 206.1,-780.8 197.54,-780.8 197.12,-647.74 204.85,-546"/>
<polygon fill="black" stroke="black" points="207.99,-463.87 211.82,-453.6 207.64,-458.55 207.35,-454.23 207.35,-454.23 207.35,-454.23 207.64,-458.55 202.84,-454.2 207.99,-463.87"/>
<text text-anchor="start" x="214.31" y="-463.56" font-family="Arial" font-size="10.00">FOREIGN KEY (higherlithostratid) REFERENCES ndb.lithostrat(lithostratid)</text>
</g>
<!-- ndb.analysisunitlithostrat -->
<g id="node3" class="node">
<title>ndb.analysisunitlithostrat</title>
<polygon fill="#efefef" stroke="none" points="46.11,-827.2 46.11,-862.8 366.09,-862.8 366.09,-827.2 46.11,-827.2"/>
<polygon fill="none" stroke="black" points="46.11,-827.2 46.11,-862.8 366.09,-862.8 366.09,-827.2 46.11,-827.2"/>
<text text-anchor="start" x="53.11" y="-840.6" font-family="Arial Bold" font-size="18.00">ndb.analysisunitlithostrat</text>
<text text-anchor="start" x="234.6" y="-840.6" font-family="Arial" font-size="14.00">    </text>
<text text-anchor="start" x="265.71" y="-840.6" font-family="Arial" font-size="14.00" fill="#666666">[BASE TABLE]</text>
<polygon fill="none" stroke="black" points="46.11,-796.4 46.11,-827.2 366.09,-827.2 366.09,-796.4 46.11,-796.4"/>
<text text-anchor="start" x="53.11" y="-808.6" font-family="Arial" font-size="14.00">analysisunitid </text>
<text text-anchor="start" x="141.05" y="-808.6" font-family="Arial" font-size="14.00" fill="#666666">[integer]</text>
<polygon fill="none" stroke="black" points="46.11,-765.6 46.11,-796.4 366.09,-796.4 366.09,-765.6 46.11,-765.6"/>
<text text-anchor="start" x="53.11" y="-777.8" font-family="Arial" font-size="14.00">lithostratid </text>
<text text-anchor="start" x="120.81" y="-777.8" font-family="Arial" font-size="14.00" fill="#666666">[integer]</text>
<polygon fill="none" stroke="black" points="46.11,-734.8 46.11,-765.6 366.09,-765.6 366.09,-734.8 46.11,-734.8"/>
<text text-anchor="start" x="53.11" y="-747" font-family="Arial" font-size="14.00">recdatecreated </text>
<text text-anchor="start" x="150.39" y="-747" font-family="Arial" font-size="14.00" fill="#666666">[timestamp(0) without time zone]</text>
<polygon fill="none" stroke="black" points="46.11,-704 46.11,-734.8 366.09,-734.8 366.09,-704 46.11,-704"/>
<text text-anchor="start" x="53.11" y="-716.2" font-family="Arial" font-size="14.00">recdatemodified </text>
<text text-anchor="start" x="156.62" y="-716.2" font-family="Arial" font-size="14.00" fill="#666666">[timestamp(0) without time zone]</text>
</g>
<!-- ndb.analysisunitlithostrat&#45;&gt;ndb.lithostrat -->
<g id="edge2" class="edge">
<title>ndb.analysisunitlithostrat:lithostratid&#45;&gt;ndb.lithostrat:lithostratid</title>
<path fill="none" stroke="black" d="M377.5,-780.24C478.25,-765.12 474.7,-530.6 367,-530.6"/>
<polygon fill="black" stroke="black" points="377.39,-780.24 367.09,-776.49 372.07,-780.63 367.75,-780.95 367.75,-780.95 367.75,-780.95 372.07,-780.63 367.75,-785.46 377.39,-780.24"/>
<text text-anchor="start" x="374.09" y="-791" font-family="Arial" font-size="10.00">FOREIGN KEY (lithostratid) REFERENCES ndb.lithostrat(lithostratid) ON UPDATE CASCADE ON DELETE CASCADE</text>
</g>
</g>
</svg>
