<?xml version="1.0" encoding="UTF-8" standalone="no"?>
<!DOCTYPE svg PUBLIC "-//W3C//DTD SVG 1.1//EN"
 "http://www.w3.org/Graphics/SVG/1.1/DTD/svg11.dtd">
<!-- Generated by graphviz version 12.1.2 (20240928.0832)
 -->
<!-- Title: ndb.hiatuschronology Pages: 1 -->
<svg width="2118pt" height="1863pt"
 viewBox="0.00 0.00 2118.31 1862.80" xmlns="http://www.w3.org/2000/svg" xmlns:xlink="http://www.w3.org/1999/xlink">
<g id="graph0" class="graph" transform="scale(1 1) rotate(0) translate(4 1858.8)">
<title>ndb.hiatuschronology</title>
<polygon fill="white" stroke="none" points="-4,4 -4,-1858.8 2114.31,-1858.8 2114.31,4 -4,4"/>
<!-- ndb.hiatuschronology -->
<g id="node1" class="node">
<title>ndb.hiatuschronology</title>
<polygon fill="#efefef" stroke="none" points="1465.05,-1637.4 1465.05,-1673 1760.02,-1673 1760.02,-1637.4 1465.05,-1637.4"/>
<polygon fill="none" stroke="black" points="1465.05,-1637.4 1465.05,-1673 1760.02,-1673 1760.02,-1637.4 1465.05,-1637.4"/>
<text text-anchor="start" x="1472.05" y="-1650.8" font-family="Arial Bold" font-size="18.00">ndb.hiatuschronology</text>
<text text-anchor="start" x="1628.53" y="-1650.8" font-family="Arial" font-size="14.00">    </text>
<text text-anchor="start" x="1659.65" y="-1650.8" font-family="Arial" font-size="14.00" fill="#666666">[BASE TABLE]</text>
<polygon fill="none" stroke="black" points="1465.05,-1606.6 1465.05,-1637.4 1760.02,-1637.4 1760.02,-1606.6 1465.05,-1606.6"/>
<text text-anchor="start" x="1472.05" y="-1618.8" font-family="Arial" font-size="14.00">chronologyid </text>
<text text-anchor="start" x="1555.32" y="-1618.8" font-family="Arial" font-size="14.00" fill="#666666">[integer]</text>
<polygon fill="none" stroke="black" points="1465.05,-1575.8 1465.05,-1606.6 1760.02,-1606.6 1760.02,-1575.8 1465.05,-1575.8"/>
<text text-anchor="start" x="1472.05" y="-1588" font-family="Arial" font-size="14.00">hiatusid </text>
<text text-anchor="start" x="1524.19" y="-1588" font-family="Arial" font-size="14.00" fill="#666666">[integer]</text>
<polygon fill="none" stroke="black" points="1465.05,-1545 1465.05,-1575.8 1760.02,-1575.8 1760.02,-1545 1465.05,-1545"/>
<text text-anchor="start" x="1472.05" y="-1557.2" font-family="Arial" font-size="14.00">hiatuslength </text>
<text text-anchor="start" x="1551.44" y="-1557.2" font-family="Arial" font-size="14.00" fill="#666666">[integer]</text>
<polygon fill="none" stroke="black" points="1465.05,-1514.2 1465.05,-1545 1760.02,-1545 1760.02,-1514.2 1465.05,-1514.2"/>
<text text-anchor="start" x="1472.05" y="-1526.4" font-family="Arial" font-size="14.00">hiatusuncertainty </text>
<text text-anchor="start" x="1581.78" y="-1526.4" font-family="Arial" font-size="14.00" fill="#666666">[integer]</text>
<polygon fill="none" stroke="black" stroke-width="3" points="1463.55,-1512.7 1463.55,-1674.5 1761.52,-1674.5 1761.52,-1512.7 1463.55,-1512.7"/>
</g>
<!-- ndb.chronologies -->
<g id="node2" class="node">
<title>ndb.chronologies</title>
<polygon fill="#efefef" stroke="none" points="609.63,-1217.6 609.63,-1253.2 929.43,-1253.2 929.43,-1217.6 609.63,-1217.6"/>
<polygon fill="none" stroke="black" points="609.63,-1217.6 609.63,-1253.2 929.43,-1253.2 929.43,-1217.6 609.63,-1217.6"/>
<text text-anchor="start" x="645.05" y="-1231" font-family="Arial Bold" font-size="18.00">ndb.chronologies</text>
<text text-anchor="start" x="769.53" y="-1231" font-family="Arial" font-size="14.00">    </text>
<text text-anchor="start" x="800.65" y="-1231" font-family="Arial" font-size="14.00" fill="#666666">[BASE TABLE]</text>
<polygon fill="none" stroke="black" points="609.63,-1186.8 609.63,-1217.6 929.43,-1217.6 929.43,-1186.8 609.63,-1186.8"/>
<text text-anchor="start" x="616.63" y="-1199" font-family="Arial" font-size="14.00">ageboundolder </text>
<text text-anchor="start" x="713.94" y="-1199" font-family="Arial" font-size="14.00" fill="#666666">[integer]</text>
<polygon fill="none" stroke="black" points="609.63,-1156 609.63,-1186.8 929.43,-1186.8 929.43,-1156 609.63,-1156"/>
<text text-anchor="start" x="616.63" y="-1168.2" font-family="Arial" font-size="14.00">ageboundyounger </text>
<text text-anchor="start" x="733.41" y="-1168.2" font-family="Arial" font-size="14.00" fill="#666666">[integer]</text>
<polygon fill="none" stroke="black" points="609.63,-1125.2 609.63,-1156 929.43,-1156 929.43,-1125.2 609.63,-1125.2"/>
<text text-anchor="start" x="616.63" y="-1137.4" font-family="Arial" font-size="14.00">agemodel </text>
<text text-anchor="start" x="682.01" y="-1137.4" font-family="Arial" font-size="14.00" fill="#666666">[varchar(80)]</text>
<polygon fill="none" stroke="black" points="609.63,-1094.4 609.63,-1125.2 929.43,-1125.2 929.43,-1094.4 609.63,-1094.4"/>
<text text-anchor="start" x="616.63" y="-1106.6" font-family="Arial" font-size="14.00">agetypeid </text>
<text text-anchor="start" x="681.24" y="-1106.6" font-family="Arial" font-size="14.00" fill="#666666">[integer]</text>
<polygon fill="none" stroke="black" points="609.63,-1063.6 609.63,-1094.4 929.43,-1094.4 929.43,-1063.6 609.63,-1063.6"/>
<text text-anchor="start" x="616.63" y="-1075.8" font-family="Arial" font-size="14.00">chronologyid </text>
<text text-anchor="start" x="699.91" y="-1075.8" font-family="Arial" font-size="14.00" fill="#666666">[integer]</text>
<polygon fill="none" stroke="black" points="609.63,-1032.8 609.63,-1063.6 929.43,-1063.6 929.43,-1032.8 609.63,-1032.8"/>
<text text-anchor="start" x="616.63" y="-1045" font-family="Arial" font-size="14.00">chronologyname </text>
<text text-anchor="start" x="724.03" y="-1045" font-family="Arial" font-size="14.00" fill="#666666">[varchar(80)]</text>
<polygon fill="none" stroke="black" points="609.63,-1002 609.63,-1032.8 929.43,-1032.8 929.43,-1002 609.63,-1002"/>
<text text-anchor="start" x="616.63" y="-1014.2" font-family="Arial" font-size="14.00">collectionunitid </text>
<text text-anchor="start" x="712.36" y="-1014.2" font-family="Arial" font-size="14.00" fill="#666666">[integer]</text>
<polygon fill="none" stroke="black" points="609.63,-971.2 609.63,-1002 929.43,-1002 929.43,-971.2 609.63,-971.2"/>
<text text-anchor="start" x="616.63" y="-983.4" font-family="Arial" font-size="14.00">contactid </text>
<text text-anchor="start" x="676.56" y="-983.4" font-family="Arial" font-size="14.00" fill="#666666">[integer]</text>
<polygon fill="none" stroke="black" points="609.63,-940.4 609.63,-971.2 929.43,-971.2 929.43,-940.4 609.63,-940.4"/>
<text text-anchor="start" x="616.63" y="-952.6" font-family="Arial" font-size="14.00">dateprepared </text>
<text text-anchor="start" x="703.81" y="-952.6" font-family="Arial" font-size="14.00" fill="#666666">[date]</text>
<polygon fill="none" stroke="black" points="609.63,-909.6 609.63,-940.4 929.43,-940.4 929.43,-909.6 609.63,-909.6"/>
<text text-anchor="start" x="616.63" y="-921.8" font-family="Arial" font-size="14.00">isdefault </text>
<text text-anchor="start" x="672.67" y="-921.8" font-family="Arial" font-size="14.00" fill="#666666">[boolean]</text>
<polygon fill="none" stroke="black" points="609.63,-878.8 609.63,-909.6 929.43,-909.6 929.43,-878.8 609.63,-878.8"/>
<text text-anchor="start" x="616.63" y="-891" font-family="Arial" font-size="14.00">notes </text>
<text text-anchor="start" x="654.77" y="-891" font-family="Arial" font-size="14.00" fill="#666666">[text]</text>
<polygon fill="none" stroke="black" points="609.63,-848 609.63,-878.8 929.43,-878.8 929.43,-848 609.63,-848"/>
<text text-anchor="start" x="616.63" y="-860.2" font-family="Arial" font-size="14.00">recdatecreated </text>
<text text-anchor="start" x="713.92" y="-860.2" font-family="Arial" font-size="14.00" fill="#666666">[timestamp(0) without time zone]</text>
<polygon fill="none" stroke="black" points="609.63,-817.2 609.63,-848 929.43,-848 929.43,-817.2 609.63,-817.2"/>
<text text-anchor="start" x="616.63" y="-829.4" font-family="Arial" font-size="14.00">recdatemodified </text>
<text text-anchor="start" x="720.14" y="-829.4" font-family="Arial" font-size="14.00" fill="#666666">[timestamp(0) without time zone]</text>
</g>
<!-- ndb.hiatuschronology&#45;&gt;ndb.chronologies -->
<g id="edge1" class="edge">
<title>ndb.hiatuschronology:chronologyid&#45;&gt;ndb.chronologies:chronologyid</title>
<path fill="none" stroke="black" d="M1453.9,-1621.59C1340.83,-1611.98 1481.82,-1434.84 1405.53,-1332.4 1262.6,-1140.46 1169.75,-1079 930.43,-1079"/>
<polygon fill="black" stroke="black" points="1453.72,-1621.58 1463.53,-1626.48 1459.05,-1621.8 1463.38,-1621.97 1463.38,-1621.97 1463.38,-1621.97 1459.05,-1621.8 1463.89,-1617.49 1453.72,-1621.58"/>
<text text-anchor="start" x="1471.05" y="-1632" font-family="Arial" font-size="10.00">FOREIGN KEY (chronologyid) REFERENCES ndb.chronologies(chronologyid)</text>
</g>
<!-- ndb.hiatuses -->
<g id="node9" class="node">
<title>ndb.hiatuses</title>
<polygon fill="#efefef" stroke="none" points="1500.54,-1079 1500.54,-1114.6 1728.52,-1114.6 1728.52,-1079 1500.54,-1079"/>
<polygon fill="none" stroke="black" points="1500.54,-1079 1500.54,-1114.6 1728.52,-1114.6 1728.52,-1079 1500.54,-1079"/>
<text text-anchor="start" x="1507.54" y="-1092.4" font-family="Arial Bold" font-size="18.00">ndb.hiatuses</text>
<text text-anchor="start" x="1597.03" y="-1092.4" font-family="Arial" font-size="14.00">    </text>
<text text-anchor="start" x="1628.15" y="-1092.4" font-family="Arial" font-size="14.00" fill="#666666">[BASE TABLE]</text>
<polygon fill="none" stroke="black" points="1500.54,-1048.2 1500.54,-1079 1728.52,-1079 1728.52,-1048.2 1500.54,-1048.2"/>
<text text-anchor="start" x="1507.54" y="-1060.4" font-family="Arial" font-size="14.00">analysisunitend </text>
<text text-anchor="start" x="1607.94" y="-1060.4" font-family="Arial" font-size="14.00" fill="#666666">[integer]</text>
<polygon fill="none" stroke="black" points="1500.54,-1017.4 1500.54,-1048.2 1728.52,-1048.2 1728.52,-1017.4 1500.54,-1017.4"/>
<text text-anchor="start" x="1507.54" y="-1029.6" font-family="Arial" font-size="14.00">analysisunitstart </text>
<text text-anchor="start" x="1611.81" y="-1029.6" font-family="Arial" font-size="14.00" fill="#666666">[integer]</text>
<polygon fill="none" stroke="black" points="1500.54,-986.6 1500.54,-1017.4 1728.52,-1017.4 1728.52,-986.6 1500.54,-986.6"/>
<text text-anchor="start" x="1507.54" y="-998.8" font-family="Arial" font-size="14.00">hiatusid </text>
<text text-anchor="start" x="1559.69" y="-998.8" font-family="Arial" font-size="14.00" fill="#666666">[integer]</text>
<polygon fill="none" stroke="black" points="1500.54,-955.8 1500.54,-986.6 1728.52,-986.6 1728.52,-955.8 1500.54,-955.8"/>
<text text-anchor="start" x="1507.54" y="-968" font-family="Arial" font-size="14.00">notes </text>
<text text-anchor="start" x="1545.68" y="-968" font-family="Arial" font-size="14.00" fill="#666666">[text]</text>
</g>
<!-- ndb.hiatuschronology&#45;&gt;ndb.hiatuses -->
<g id="edge8" class="edge">
<title>ndb.hiatuschronology:hiatusid&#45;&gt;ndb.hiatuses:hiatusid</title>
<path fill="none" stroke="black" d="M1771.25,-1590.17C1810.68,-1581.2 1777.59,-1515.78 1760.02,-1468 1697.99,-1299.3 1562.43,-1326.55 1500.54,-1157.8 1476.7,-1092.79 1430.3,-1002 1499.54,-1002"/>
<polygon fill="black" stroke="black" points="1771.3,-1590.16 1760.9,-1586.69 1765.99,-1590.7 1761.68,-1591.13 1761.68,-1591.13 1761.68,-1591.13 1765.99,-1590.7 1761.8,-1595.64 1771.3,-1590.16"/>
<text text-anchor="start" x="1768.02" y="-1601.2" font-family="Arial" font-size="10.00">FOREIGN KEY (hiatusid) REFERENCES ndb.hiatuses(hiatusid)</text>
</g>
<!-- ndb.agetypes -->
<g id="node3" class="node">
<title>ndb.agetypes</title>
<polygon fill="#efefef" stroke="none" points="182.63,-443.6 182.63,-479.2 502.43,-479.2 502.43,-443.6 182.63,-443.6"/>
<polygon fill="none" stroke="black" points="182.63,-443.6 182.63,-479.2 502.43,-479.2 502.43,-443.6 182.63,-443.6"/>
<text text-anchor="start" x="233.05" y="-457" font-family="Arial Bold" font-size="18.00">ndb.agetypes</text>
<text text-anchor="start" x="327.53" y="-457" font-family="Arial" font-size="14.00">    </text>
<text text-anchor="start" x="358.64" y="-457" font-family="Arial" font-size="14.00" fill="#666666">[BASE TABLE]</text>
<polygon fill="none" stroke="black" points="182.63,-412.8 182.63,-443.6 502.43,-443.6 502.43,-412.8 182.63,-412.8"/>
<text text-anchor="start" x="189.63" y="-425" font-family="Arial" font-size="14.00">agetype </text>
<text text-anchor="start" x="243.34" y="-425" font-family="Arial" font-size="14.00" fill="#666666">[varchar(64)]</text>
<polygon fill="none" stroke="black" points="182.63,-382 182.63,-412.8 502.43,-412.8 502.43,-382 182.63,-382"/>
<text text-anchor="start" x="189.63" y="-394.2" font-family="Arial" font-size="14.00">agetypeid </text>
<text text-anchor="start" x="254.24" y="-394.2" font-family="Arial" font-size="14.00" fill="#666666">[integer]</text>
<polygon fill="none" stroke="black" points="182.63,-351.2 182.63,-382 502.43,-382 502.43,-351.2 182.63,-351.2"/>
<text text-anchor="start" x="189.63" y="-363.4" font-family="Arial" font-size="14.00">precedence </text>
<text text-anchor="start" x="266.69" y="-363.4" font-family="Arial" font-size="14.00" fill="#666666">[integer]</text>
<polygon fill="none" stroke="black" points="182.63,-320.4 182.63,-351.2 502.43,-351.2 502.43,-320.4 182.63,-320.4"/>
<text text-anchor="start" x="189.63" y="-332.6" font-family="Arial" font-size="14.00">recdatecreated </text>
<text text-anchor="start" x="286.92" y="-332.6" font-family="Arial" font-size="14.00" fill="#666666">[timestamp(0) without time zone]</text>
<polygon fill="none" stroke="black" points="182.63,-289.6 182.63,-320.4 502.43,-320.4 502.43,-289.6 182.63,-289.6"/>
<text text-anchor="start" x="189.63" y="-301.8" font-family="Arial" font-size="14.00">recdatemodified </text>
<text text-anchor="start" x="293.14" y="-301.8" font-family="Arial" font-size="14.00" fill="#666666">[timestamp(0) without time zone]</text>
<polygon fill="none" stroke="black" points="182.63,-258.8 182.63,-289.6 502.43,-289.6 502.43,-258.8 182.63,-258.8"/>
<text text-anchor="start" x="189.63" y="-271" font-family="Arial" font-size="14.00">shortagetype </text>
<text text-anchor="start" x="274.47" y="-271" font-family="Arial" font-size="14.00" fill="#666666">[varchar(32)]</text>
</g>
<!-- ndb.chronologies&#45;&gt;ndb.agetypes -->
<g id="edge2" class="edge">
<title>ndb.chronologies:agetypeid&#45;&gt;ndb.agetypes:agetypeid</title>
<path fill="none" stroke="black" d="M604,-1100.53C580.05,-1017.03 522.09,-397.4 503.43,-397.4"/>
<polygon fill="black" stroke="black" points="604.01,-1100.56 604.46,-1111.51 606.4,-1105.33 608.33,-1109.2 608.33,-1109.2 608.33,-1109.2 606.4,-1105.33 612.51,-1107.49 604.01,-1100.56"/>
<text text-anchor="start" x="73.68" y="-1119.8" font-family="Arial" font-size="10.00">FOREIGN KEY (agetypeid) REFERENCES ndb.agetypes(agetypeid) ON UPDATE CASCADE ON DELETE CASCADE</text>
</g>
<!-- ndb.collectionunits -->
<g id="node7" class="node">
<title>ndb.collectionunits</title>
<polygon fill="#efefef" stroke="none" points="606.63,-659.2 606.63,-694.8 926.43,-694.8 926.43,-659.2 606.63,-659.2"/>
<polygon fill="none" stroke="black" points="606.63,-659.2 606.63,-694.8 926.43,-694.8 926.43,-659.2 606.63,-659.2"/>
<text text-anchor="start" x="635.55" y="-672.6" font-family="Arial Bold" font-size="18.00">ndb.collectionunits</text>
<text text-anchor="start" x="773.03" y="-672.6" font-family="Arial" font-size="14.00">    </text>
<text text-anchor="start" x="804.15" y="-672.6" font-family="Arial" font-size="14.00" fill="#666666">[BASE TABLE]</text>
<polygon fill="none" stroke="black" points="606.63,-628.4 606.63,-659.2 926.43,-659.2 926.43,-628.4 606.63,-628.4"/>
<text text-anchor="start" x="613.63" y="-640.6" font-family="Arial" font-size="14.00">colldate </text>
<text text-anchor="start" x="665.78" y="-640.6" font-family="Arial" font-size="14.00" fill="#666666">[date]</text>
<polygon fill="none" stroke="black" points="606.63,-597.6 606.63,-628.4 926.43,-628.4 926.43,-597.6 606.63,-597.6"/>
<text text-anchor="start" x="613.63" y="-609.8" font-family="Arial" font-size="14.00">colldevice </text>
<text text-anchor="start" x="679" y="-609.8" font-family="Arial" font-size="14.00" fill="#666666">[varchar(255)]</text>
<polygon fill="none" stroke="black" points="606.63,-566.8 606.63,-597.6 926.43,-597.6 926.43,-566.8 606.63,-566.8"/>
<text text-anchor="start" x="613.63" y="-579" font-family="Arial" font-size="14.00">collectionunitid </text>
<text text-anchor="start" x="709.36" y="-579" font-family="Arial" font-size="14.00" fill="#666666">[integer]</text>
<polygon fill="none" stroke="black" points="606.63,-536 606.63,-566.8 926.43,-566.8 926.43,-536 606.63,-536"/>
<text text-anchor="start" x="613.63" y="-548.2" font-family="Arial" font-size="14.00">colltypeid </text>
<text text-anchor="start" x="675.89" y="-548.2" font-family="Arial" font-size="14.00" fill="#666666">[integer]</text>
<polygon fill="none" stroke="black" points="606.63,-505.2 606.63,-536 926.43,-536 926.43,-505.2 606.63,-505.2"/>
<text text-anchor="start" x="613.63" y="-517.4" font-family="Arial" font-size="14.00">collunitname </text>
<text text-anchor="start" x="696.12" y="-517.4" font-family="Arial" font-size="14.00" fill="#666666">[varchar(255)]</text>
<polygon fill="none" stroke="black" points="606.63,-474.4 606.63,-505.2 926.43,-505.2 926.43,-474.4 606.63,-474.4"/>
<text text-anchor="start" x="613.63" y="-486.6" font-family="Arial" font-size="14.00">depenvtid </text>
<text text-anchor="start" x="678.24" y="-486.6" font-family="Arial" font-size="14.00" fill="#666666">[integer]</text>
<polygon fill="none" stroke="black" points="606.63,-443.6 606.63,-474.4 926.43,-474.4 926.43,-443.6 606.63,-443.6"/>
<text text-anchor="start" x="613.63" y="-455.8" font-family="Arial" font-size="14.00">gpsaltitude </text>
<text text-anchor="start" x="685.24" y="-455.8" font-family="Arial" font-size="14.00" fill="#666666">[double precision]</text>
<polygon fill="none" stroke="black" points="606.63,-412.8 606.63,-443.6 926.43,-443.6 926.43,-412.8 606.63,-412.8"/>
<text text-anchor="start" x="613.63" y="-425" font-family="Arial" font-size="14.00">gpserror </text>
<text text-anchor="start" x="669.65" y="-425" font-family="Arial" font-size="14.00" fill="#666666">[double precision]</text>
<polygon fill="none" stroke="black" points="606.63,-382 606.63,-412.8 926.43,-412.8 926.43,-382 606.63,-382"/>
<text text-anchor="start" x="613.63" y="-394.2" font-family="Arial" font-size="14.00">gpslatitude </text>
<text text-anchor="start" x="685.24" y="-394.2" font-family="Arial" font-size="14.00" fill="#666666">[double precision]</text>
<polygon fill="none" stroke="black" points="606.63,-351.2 606.63,-382 926.43,-382 926.43,-351.2 606.63,-351.2"/>
<text text-anchor="start" x="613.63" y="-363.4" font-family="Arial" font-size="14.00">gpslongitude </text>
<text text-anchor="start" x="696.92" y="-363.4" font-family="Arial" font-size="14.00" fill="#666666">[double precision]</text>
<polygon fill="none" stroke="black" points="606.63,-320.4 606.63,-351.2 926.43,-351.2 926.43,-320.4 606.63,-320.4"/>
<text text-anchor="start" x="613.63" y="-332.6" font-family="Arial" font-size="14.00">handle </text>
<text text-anchor="start" x="659.56" y="-332.6" font-family="Arial" font-size="14.00" fill="#666666">[varchar(16)]</text>
<polygon fill="none" stroke="black" points="606.63,-289.6 606.63,-320.4 926.43,-320.4 926.43,-289.6 606.63,-289.6"/>
<text text-anchor="start" x="613.63" y="-301.8" font-family="Arial" font-size="14.00">location </text>
<text text-anchor="start" x="665.78" y="-301.8" font-family="Arial" font-size="14.00" fill="#666666">[varchar(255)]</text>
<polygon fill="none" stroke="black" points="606.63,-258.8 606.63,-289.6 926.43,-289.6 926.43,-258.8 606.63,-258.8"/>
<text text-anchor="start" x="613.63" y="-271" font-family="Arial" font-size="14.00">notes </text>
<text text-anchor="start" x="651.77" y="-271" font-family="Arial" font-size="14.00" fill="#666666">[text]</text>
<polygon fill="none" stroke="black" points="606.63,-228 606.63,-258.8 926.43,-258.8 926.43,-228 606.63,-228"/>
<text text-anchor="start" x="613.63" y="-240.2" font-family="Arial" font-size="14.00">recdatecreated </text>
<text text-anchor="start" x="710.92" y="-240.2" font-family="Arial" font-size="14.00" fill="#666666">[timestamp(0) without time zone]</text>
<polygon fill="none" stroke="black" points="606.63,-197.2 606.63,-228 926.43,-228 926.43,-197.2 606.63,-197.2"/>
<text text-anchor="start" x="613.63" y="-209.4" font-family="Arial" font-size="14.00">recdatemodified </text>
<text text-anchor="start" x="717.14" y="-209.4" font-family="Arial" font-size="14.00" fill="#666666">[timestamp(0) without time zone]</text>
<polygon fill="none" stroke="black" points="606.63,-166.4 606.63,-197.2 926.43,-197.2 926.43,-166.4 606.63,-166.4"/>
<text text-anchor="start" x="613.63" y="-178.6" font-family="Arial" font-size="14.00">siteid </text>
<text text-anchor="start" x="650.21" y="-178.6" font-family="Arial" font-size="14.00" fill="#666666">[integer]</text>
<polygon fill="none" stroke="black" points="606.63,-135.6 606.63,-166.4 926.43,-166.4 926.43,-135.6 606.63,-135.6"/>
<text text-anchor="start" x="613.63" y="-147.8" font-family="Arial" font-size="14.00">slopeangle </text>
<text text-anchor="start" x="685.25" y="-147.8" font-family="Arial" font-size="14.00" fill="#666666">[integer]</text>
<polygon fill="none" stroke="black" points="606.63,-104.8 606.63,-135.6 926.43,-135.6 926.43,-104.8 606.63,-104.8"/>
<text text-anchor="start" x="613.63" y="-117" font-family="Arial" font-size="14.00">slopeaspect </text>
<text text-anchor="start" x="692.24" y="-117" font-family="Arial" font-size="14.00" fill="#666666">[integer]</text>
<polygon fill="none" stroke="black" points="606.63,-74 606.63,-104.8 926.43,-104.8 926.43,-74 606.63,-74"/>
<text text-anchor="start" x="613.63" y="-86.2" font-family="Arial" font-size="14.00">substrateid </text>
<text text-anchor="start" x="686.01" y="-86.2" font-family="Arial" font-size="14.00" fill="#666666">[integer]</text>
<polygon fill="none" stroke="black" points="606.63,-43.2 606.63,-74 926.43,-74 926.43,-43.2 606.63,-43.2"/>
<text text-anchor="start" x="613.63" y="-55.4" font-family="Arial" font-size="14.00">waterdepth </text>
<text text-anchor="start" x="686.79" y="-55.4" font-family="Arial" font-size="14.00" fill="#666666">[double precision]</text>
</g>
<!-- ndb.chronologies&#45;&gt;ndb.collectionunits -->
<g id="edge6" class="edge">
<title>ndb.chronologies:collectionunitid&#45;&gt;ndb.collectionunits:collectionunitid</title>
<path fill="none" stroke="black" d="M598.33,-1016.87C502.95,-1006.68 539.82,-851.87 609.63,-774 704.23,-668.49 831.72,-843.4 926.43,-738 972.72,-686.49 996.68,-582.2 927.43,-582.2"/>
<polygon fill="black" stroke="black" points="598.31,-1016.87 608.07,-1021.88 603.64,-1017.14 607.97,-1017.37 607.97,-1017.37 607.97,-1017.37 603.64,-1017.14 608.53,-1012.89 598.31,-1016.87"/>
<text text-anchor="start" x="7" y="-1027.4" font-family="Arial" font-size="10.00">FOREIGN KEY (collectionunitid) REFERENCES ndb.collectionunits(collectionunitid) ON UPDATE CASCADE ON DELETE CASCADE</text>
</g>
<!-- ndb.contacts -->
<g id="node8" class="node">
<title>ndb.contacts</title>
<polygon fill="#efefef" stroke="none" points="1030.63,-613 1030.63,-648.6 1350.43,-648.6 1350.43,-613 1030.63,-613"/>
<polygon fill="none" stroke="black" points="1030.63,-613 1030.63,-648.6 1350.43,-648.6 1350.43,-613 1030.63,-613"/>
<text text-anchor="start" x="1083.05" y="-626.4" font-family="Arial Bold" font-size="18.00">ndb.contacts</text>
<text text-anchor="start" x="1173.53" y="-626.4" font-family="Arial" font-size="14.00">    </text>
<text text-anchor="start" x="1204.64" y="-626.4" font-family="Arial" font-size="14.00" fill="#666666">[BASE TABLE]</text>
<polygon fill="none" stroke="black" points="1030.63,-582.2 1030.63,-613 1350.43,-613 1350.43,-582.2 1030.63,-582.2"/>
<text text-anchor="start" x="1037.63" y="-594.4" font-family="Arial" font-size="14.00">address </text>
<text text-anchor="start" x="1091.33" y="-594.4" font-family="Arial" font-size="14.00" fill="#666666">[text]</text>
<polygon fill="none" stroke="black" points="1030.63,-551.4 1030.63,-582.2 1350.43,-582.2 1350.43,-551.4 1030.63,-551.4"/>
<text text-anchor="start" x="1037.63" y="-563.6" font-family="Arial" font-size="14.00">aliasid </text>
<text text-anchor="start" x="1081.21" y="-563.6" font-family="Arial" font-size="14.00" fill="#666666">[integer]</text>
<polygon fill="none" stroke="black" points="1030.63,-520.6 1030.63,-551.4 1350.43,-551.4 1350.43,-520.6 1030.63,-520.6"/>
<text text-anchor="start" x="1037.63" y="-532.8" font-family="Arial" font-size="14.00">contactid </text>
<text text-anchor="start" x="1097.56" y="-532.8" font-family="Arial" font-size="14.00" fill="#666666">[integer]</text>
<polygon fill="none" stroke="black" points="1030.63,-489.8 1030.63,-520.6 1350.43,-520.6 1350.43,-489.8 1030.63,-489.8"/>
<text text-anchor="start" x="1037.63" y="-502" font-family="Arial" font-size="14.00">contactname </text>
<text text-anchor="start" x="1121.68" y="-502" font-family="Arial" font-size="14.00" fill="#666666">[varchar(80)]</text>
<polygon fill="none" stroke="black" points="1030.63,-459 1030.63,-489.8 1350.43,-489.8 1350.43,-459 1030.63,-459"/>
<text text-anchor="start" x="1037.63" y="-471.2" font-family="Arial" font-size="14.00">contactstatusid </text>
<text text-anchor="start" x="1134.91" y="-471.2" font-family="Arial" font-size="14.00" fill="#666666">[integer]</text>
<polygon fill="none" stroke="black" points="1030.63,-428.2 1030.63,-459 1350.43,-459 1350.43,-428.2 1030.63,-428.2"/>
<text text-anchor="start" x="1037.63" y="-440.4" font-family="Arial" font-size="14.00">email </text>
<text text-anchor="start" x="1074.98" y="-440.4" font-family="Arial" font-size="14.00" fill="#666666">[varchar(64)]</text>
<polygon fill="none" stroke="black" points="1030.63,-397.4 1030.63,-428.2 1350.43,-428.2 1350.43,-397.4 1030.63,-397.4"/>
<text text-anchor="start" x="1037.63" y="-409.6" font-family="Arial" font-size="14.00">familyname </text>
<text text-anchor="start" x="1113.1" y="-409.6" font-family="Arial" font-size="14.00" fill="#666666">[varchar(80)]</text>
<polygon fill="none" stroke="black" points="1030.63,-366.6 1030.63,-397.4 1350.43,-397.4 1350.43,-366.6 1030.63,-366.6"/>
<text text-anchor="start" x="1037.63" y="-378.8" font-family="Arial" font-size="14.00">fax </text>
<text text-anchor="start" x="1060.2" y="-378.8" font-family="Arial" font-size="14.00" fill="#666666">[varchar(64)]</text>
<polygon fill="none" stroke="black" points="1030.63,-335.8 1030.63,-366.6 1350.43,-366.6 1350.43,-335.8 1030.63,-335.8"/>
<text text-anchor="start" x="1037.63" y="-348" font-family="Arial" font-size="14.00">givennames </text>
<text text-anchor="start" x="1117.01" y="-348" font-family="Arial" font-size="14.00" fill="#666666">[varchar(80)]</text>
<polygon fill="none" stroke="black" points="1030.63,-305 1030.63,-335.8 1350.43,-335.8 1350.43,-305 1030.63,-305"/>
<text text-anchor="start" x="1037.63" y="-317.2" font-family="Arial" font-size="14.00">leadinginitials </text>
<text text-anchor="start" x="1125.58" y="-317.2" font-family="Arial" font-size="14.00" fill="#666666">[varchar(16)]</text>
<polygon fill="none" stroke="black" points="1030.63,-274.2 1030.63,-305 1350.43,-305 1350.43,-274.2 1030.63,-274.2"/>
<text text-anchor="start" x="1037.63" y="-286.4" font-family="Arial" font-size="14.00">notes </text>
<text text-anchor="start" x="1075.77" y="-286.4" font-family="Arial" font-size="14.00" fill="#666666">[text]</text>
<polygon fill="none" stroke="black" points="1030.63,-243.4 1030.63,-274.2 1350.43,-274.2 1350.43,-243.4 1030.63,-243.4"/>
<text text-anchor="start" x="1037.63" y="-255.6" font-family="Arial" font-size="14.00">phone </text>
<text text-anchor="start" x="1080.45" y="-255.6" font-family="Arial" font-size="14.00" fill="#666666">[varchar(64)]</text>
<polygon fill="none" stroke="black" points="1030.63,-212.6 1030.63,-243.4 1350.43,-243.4 1350.43,-212.6 1030.63,-212.6"/>
<text text-anchor="start" x="1037.63" y="-224.8" font-family="Arial" font-size="14.00">recdatecreated </text>
<text text-anchor="start" x="1134.92" y="-224.8" font-family="Arial" font-size="14.00" fill="#666666">[timestamp(0) without time zone]</text>
<polygon fill="none" stroke="black" points="1030.63,-181.8 1030.63,-212.6 1350.43,-212.6 1350.43,-181.8 1030.63,-181.8"/>
<text text-anchor="start" x="1037.63" y="-194" font-family="Arial" font-size="14.00">recdatemodified </text>
<text text-anchor="start" x="1141.14" y="-194" font-family="Arial" font-size="14.00" fill="#666666">[timestamp(0) without time zone]</text>
<polygon fill="none" stroke="black" points="1030.63,-151 1030.63,-181.8 1350.43,-181.8 1350.43,-151 1030.63,-151"/>
<text text-anchor="start" x="1037.63" y="-163.2" font-family="Arial" font-size="14.00">suffix </text>
<text text-anchor="start" x="1074.2" y="-163.2" font-family="Arial" font-size="14.00" fill="#666666">[varchar(16)]</text>
<polygon fill="none" stroke="black" points="1030.63,-120.2 1030.63,-151 1350.43,-151 1350.43,-120.2 1030.63,-120.2"/>
<text text-anchor="start" x="1037.63" y="-132.4" font-family="Arial" font-size="14.00">title </text>
<text text-anchor="start" x="1063.31" y="-132.4" font-family="Arial" font-size="14.00" fill="#666666">[varchar(16)]</text>
<polygon fill="none" stroke="black" points="1030.63,-89.4 1030.63,-120.2 1350.43,-120.2 1350.43,-89.4 1030.63,-89.4"/>
<text text-anchor="start" x="1037.63" y="-101.6" font-family="Arial" font-size="14.00">url </text>
<text text-anchor="start" x="1057.08" y="-101.6" font-family="Arial" font-size="14.00" fill="#666666">[varchar(255)]</text>
</g>
<!-- ndb.chronologies&#45;&gt;ndb.contacts -->
<g id="edge7" class="edge">
<title>ndb.chronologies:contactid&#45;&gt;ndb.contacts:contactid</title>
<path fill="none" stroke="black" d="M940.49,-984.97C1025.78,-955.47 930.71,-536 1029.63,-536"/>
<polygon fill="black" stroke="black" points="940.63,-984.95 930.04,-982.1 935.37,-985.8 931.09,-986.49 931.09,-986.49 931.09,-986.49 935.37,-985.8 931.48,-990.99 940.63,-984.95"/>
<text text-anchor="start" x="937.43" y="-996.6" font-family="Arial" font-size="10.00">FOREIGN KEY (contactid) REFERENCES ndb.contacts(contactid) ON UPDATE CASCADE</text>
</g>
<!-- ndb.accumulationrates -->
<g id="node4" class="node">
<title>ndb.accumulationrates</title>
<polygon fill="#efefef" stroke="none" points="185.63,-1668.2 185.63,-1703.8 505.43,-1703.8 505.43,-1668.2 185.63,-1668.2"/>
<polygon fill="none" stroke="black" points="185.63,-1668.2 185.63,-1703.8 505.43,-1703.8 505.43,-1668.2 185.63,-1668.2"/>
<text text-anchor="start" x="202.07" y="-1681.6" font-family="Arial Bold" font-size="18.00">ndb.accumulationrates</text>
<text text-anchor="start" x="364.51" y="-1681.6" font-family="Arial" font-size="14.00">    </text>
<text text-anchor="start" x="395.63" y="-1681.6" font-family="Arial" font-size="14.00" fill="#666666">[BASE TABLE]</text>
<polygon fill="none" stroke="black" points="185.63,-1637.4 185.63,-1668.2 505.43,-1668.2 505.43,-1637.4 185.63,-1637.4"/>
<text text-anchor="start" x="192.63" y="-1649.6" font-family="Arial" font-size="14.00">accumulationrate </text>
<text text-anchor="start" x="303.14" y="-1649.6" font-family="Arial" font-size="14.00" fill="#666666">[double precision]</text>
<polygon fill="none" stroke="black" points="185.63,-1606.6 185.63,-1637.4 505.43,-1637.4 505.43,-1606.6 185.63,-1606.6"/>
<text text-anchor="start" x="192.63" y="-1618.8" font-family="Arial" font-size="14.00">analysisunitid </text>
<text text-anchor="start" x="280.57" y="-1618.8" font-family="Arial" font-size="14.00" fill="#666666">[integer]</text>
<polygon fill="none" stroke="black" points="185.63,-1575.8 185.63,-1606.6 505.43,-1606.6 505.43,-1575.8 185.63,-1575.8"/>
<text text-anchor="start" x="192.63" y="-1588" font-family="Arial" font-size="14.00">chronologyid </text>
<text text-anchor="start" x="275.91" y="-1588" font-family="Arial" font-size="14.00" fill="#666666">[integer]</text>
<polygon fill="none" stroke="black" points="185.63,-1545 185.63,-1575.8 505.43,-1575.8 505.43,-1545 185.63,-1545"/>
<text text-anchor="start" x="192.63" y="-1557.2" font-family="Arial" font-size="14.00">recdatecreated </text>
<text text-anchor="start" x="289.92" y="-1557.2" font-family="Arial" font-size="14.00" fill="#666666">[timestamp(0) without time zone]</text>
<polygon fill="none" stroke="black" points="185.63,-1514.2 185.63,-1545 505.43,-1545 505.43,-1514.2 185.63,-1514.2"/>
<text text-anchor="start" x="192.63" y="-1526.4" font-family="Arial" font-size="14.00">recdatemodified </text>
<text text-anchor="start" x="296.14" y="-1526.4" font-family="Arial" font-size="14.00" fill="#666666">[timestamp(0) without time zone]</text>
<polygon fill="none" stroke="black" points="185.63,-1483.4 185.63,-1514.2 505.43,-1514.2 505.43,-1483.4 185.63,-1483.4"/>
<text text-anchor="start" x="192.63" y="-1495.6" font-family="Arial" font-size="14.00">variableunitsid </text>
<text text-anchor="start" x="286.02" y="-1495.6" font-family="Arial" font-size="14.00" fill="#666666">[integer]</text>
</g>
<!-- ndb.accumulationrates&#45;&gt;ndb.chronologies -->
<g id="edge3" class="edge">
<title>ndb.accumulationrates:chronologyid&#45;&gt;ndb.chronologies:chronologyid</title>
<path fill="none" stroke="black" d="M516.54,-1588.93C562.8,-1566.6 546.78,-1386.3 557.53,-1332.4 580.02,-1219.73 493.74,-1079 608.63,-1079"/>
<polygon fill="black" stroke="black" points="516.51,-1588.93 505.77,-1586.74 511.31,-1590.1 507.09,-1591.05 507.09,-1591.05 507.09,-1591.05 511.31,-1590.1 507.75,-1595.52 516.51,-1588.93"/>
<text text-anchor="start" x="332.47" y="-1575.2" font-family="Arial" font-size="10.00">FOREIGN KEY (chronologyid) REFERENCES ndb.chronologies(chronologyid)</text>
</g>
<!-- ndb.chroncontrols -->
<g id="node5" class="node">
<title>ndb.chroncontrols</title>
<polygon fill="#efefef" stroke="none" points="609.63,-1776 609.63,-1811.6 929.43,-1811.6 929.43,-1776 609.63,-1776"/>
<polygon fill="none" stroke="black" points="609.63,-1776 609.63,-1811.6 929.43,-1811.6 929.43,-1776 609.63,-1776"/>
<text text-anchor="start" x="642.05" y="-1789.4" font-family="Arial Bold" font-size="18.00">ndb.chroncontrols</text>
<text text-anchor="start" x="772.53" y="-1789.4" font-family="Arial" font-size="14.00">    </text>
<text text-anchor="start" x="803.64" y="-1789.4" font-family="Arial" font-size="14.00" fill="#666666">[BASE TABLE]</text>
<polygon fill="none" stroke="black" points="609.63,-1745.2 609.63,-1776 929.43,-1776 929.43,-1745.2 609.63,-1745.2"/>
<text text-anchor="start" x="616.63" y="-1757.4" font-family="Arial" font-size="14.00">age </text>
<text text-anchor="start" x="643.88" y="-1757.4" font-family="Arial" font-size="14.00" fill="#666666">[double precision]</text>
<polygon fill="none" stroke="black" points="609.63,-1714.4 609.63,-1745.2 929.43,-1745.2 929.43,-1714.4 609.63,-1714.4"/>
<text text-anchor="start" x="616.63" y="-1726.6" font-family="Arial" font-size="14.00">agelimitolder </text>
<text text-anchor="start" x="699.9" y="-1726.6" font-family="Arial" font-size="14.00" fill="#666666">[double precision]</text>
<polygon fill="none" stroke="black" points="609.63,-1683.6 609.63,-1714.4 929.43,-1714.4 929.43,-1683.6 609.63,-1683.6"/>
<text text-anchor="start" x="616.63" y="-1695.8" font-family="Arial" font-size="14.00">agelimityounger </text>
<text text-anchor="start" x="719.36" y="-1695.8" font-family="Arial" font-size="14.00" fill="#666666">[double precision]</text>
<polygon fill="none" stroke="black" points="609.63,-1652.8 609.63,-1683.6 929.43,-1683.6 929.43,-1652.8 609.63,-1652.8"/>
<text text-anchor="start" x="616.63" y="-1665" font-family="Arial" font-size="14.00">agetypeid </text>
<text text-anchor="start" x="681.24" y="-1665" font-family="Arial" font-size="14.00" fill="#666666">[integer]</text>
<polygon fill="none" stroke="black" points="609.63,-1622 609.63,-1652.8 929.43,-1652.8 929.43,-1622 609.63,-1622"/>
<text text-anchor="start" x="616.63" y="-1634.2" font-family="Arial" font-size="14.00">analysisunitid </text>
<text text-anchor="start" x="704.57" y="-1634.2" font-family="Arial" font-size="14.00" fill="#666666">[integer]</text>
<polygon fill="none" stroke="black" points="609.63,-1591.2 609.63,-1622 929.43,-1622 929.43,-1591.2 609.63,-1591.2"/>
<text text-anchor="start" x="616.63" y="-1603.4" font-family="Arial" font-size="14.00">chroncontrolid </text>
<text text-anchor="start" x="708.46" y="-1603.4" font-family="Arial" font-size="14.00" fill="#666666">[integer]</text>
<polygon fill="none" stroke="black" points="609.63,-1560.4 609.63,-1591.2 929.43,-1591.2 929.43,-1560.4 609.63,-1560.4"/>
<text text-anchor="start" x="616.63" y="-1572.6" font-family="Arial" font-size="14.00">chroncontroltypeid </text>
<text text-anchor="start" x="734.92" y="-1572.6" font-family="Arial" font-size="14.00" fill="#666666">[integer]</text>
<polygon fill="none" stroke="black" points="609.63,-1529.6 609.63,-1560.4 929.43,-1560.4 929.43,-1529.6 609.63,-1529.6"/>
<text text-anchor="start" x="616.63" y="-1541.8" font-family="Arial" font-size="14.00">chronologyid </text>
<text text-anchor="start" x="699.91" y="-1541.8" font-family="Arial" font-size="14.00" fill="#666666">[integer]</text>
<polygon fill="none" stroke="black" points="609.63,-1498.8 609.63,-1529.6 929.43,-1529.6 929.43,-1498.8 609.63,-1498.8"/>
<text text-anchor="start" x="616.63" y="-1511" font-family="Arial" font-size="14.00">depth </text>
<text text-anchor="start" x="655.56" y="-1511" font-family="Arial" font-size="14.00" fill="#666666">[double precision]</text>
<polygon fill="none" stroke="black" points="609.63,-1468 609.63,-1498.8 929.43,-1498.8 929.43,-1468 609.63,-1468"/>
<text text-anchor="start" x="616.63" y="-1480.2" font-family="Arial" font-size="14.00">notes </text>
<text text-anchor="start" x="654.77" y="-1480.2" font-family="Arial" font-size="14.00" fill="#666666">[text]</text>
<polygon fill="none" stroke="black" points="609.63,-1437.2 609.63,-1468 929.43,-1468 929.43,-1437.2 609.63,-1437.2"/>
<text text-anchor="start" x="616.63" y="-1449.4" font-family="Arial" font-size="14.00">recdatecreated </text>
<text text-anchor="start" x="713.92" y="-1449.4" font-family="Arial" font-size="14.00" fill="#666666">[timestamp(0) without time zone]</text>
<polygon fill="none" stroke="black" points="609.63,-1406.4 609.63,-1437.2 929.43,-1437.2 929.43,-1406.4 609.63,-1406.4"/>
<text text-anchor="start" x="616.63" y="-1418.6" font-family="Arial" font-size="14.00">recdatemodified </text>
<text text-anchor="start" x="720.14" y="-1418.6" font-family="Arial" font-size="14.00" fill="#666666">[timestamp(0) without time zone]</text>
<polygon fill="none" stroke="black" points="609.63,-1375.6 609.63,-1406.4 929.43,-1406.4 929.43,-1375.6 609.63,-1375.6"/>
<text text-anchor="start" x="616.63" y="-1387.8" font-family="Arial" font-size="14.00">thickness </text>
<text text-anchor="start" x="678.88" y="-1387.8" font-family="Arial" font-size="14.00" fill="#666666">[double precision]</text>
</g>
<!-- ndb.chroncontrols&#45;&gt;ndb.chronologies -->
<g id="edge4" class="edge">
<title>ndb.chroncontrols:chronologyid&#45;&gt;ndb.chronologies:chronologyid</title>
<path fill="none" stroke="black" d="M939.27,-1540.08C982.02,-1490.28 979.08,-1079 930.43,-1079"/>
<polygon fill="black" stroke="black" points="939.46,-1539.97 928.54,-1540.91 934.8,-1542.57 931.02,-1544.67 931.02,-1544.67 931.02,-1544.67 934.8,-1542.57 932.91,-1548.77 939.46,-1539.97"/>
<text text-anchor="start" x="645.06" y="-1529" font-family="Arial" font-size="10.00">FOREIGN KEY (chronologyid) REFERENCES ndb.chronologies(chronologyid) ON UPDATE CASCADE ON DELETE CASCADE</text>
</g>
<!-- ndb.sampleages -->
<g id="node6" class="node">
<title>ndb.sampleages</title>
<polygon fill="#efefef" stroke="none" points="1033.63,-1699 1033.63,-1734.6 1353.43,-1734.6 1353.43,-1699 1033.63,-1699"/>
<polygon fill="none" stroke="black" points="1033.63,-1699 1033.63,-1734.6 1353.43,-1734.6 1353.43,-1699 1033.63,-1699"/>
<text text-anchor="start" x="1074.05" y="-1712.4" font-family="Arial Bold" font-size="18.00">ndb.sampleages</text>
<text text-anchor="start" x="1188.52" y="-1712.4" font-family="Arial" font-size="14.00">    </text>
<text text-anchor="start" x="1219.64" y="-1712.4" font-family="Arial" font-size="14.00" fill="#666666">[BASE TABLE]</text>
<polygon fill="none" stroke="black" points="1033.63,-1668.2 1033.63,-1699 1353.43,-1699 1353.43,-1668.2 1033.63,-1668.2"/>
<text text-anchor="start" x="1040.63" y="-1680.4" font-family="Arial" font-size="14.00">age </text>
<text text-anchor="start" x="1067.88" y="-1680.4" font-family="Arial" font-size="14.00" fill="#666666">[double precision]</text>
<polygon fill="none" stroke="black" points="1033.63,-1637.4 1033.63,-1668.2 1353.43,-1668.2 1353.43,-1637.4 1033.63,-1637.4"/>
<text text-anchor="start" x="1040.63" y="-1649.6" font-family="Arial" font-size="14.00">ageolder </text>
<text text-anchor="start" x="1099.01" y="-1649.6" font-family="Arial" font-size="14.00" fill="#666666">[double precision]</text>
<polygon fill="none" stroke="black" points="1033.63,-1606.6 1033.63,-1637.4 1353.43,-1637.4 1353.43,-1606.6 1033.63,-1606.6"/>
<text text-anchor="start" x="1040.63" y="-1618.8" font-family="Arial" font-size="14.00">ageyounger </text>
<text text-anchor="start" x="1118.47" y="-1618.8" font-family="Arial" font-size="14.00" fill="#666666">[double precision]</text>
<polygon fill="none" stroke="black" points="1033.63,-1575.8 1033.63,-1606.6 1353.43,-1606.6 1353.43,-1575.8 1033.63,-1575.8"/>
<text text-anchor="start" x="1040.63" y="-1588" font-family="Arial" font-size="14.00">chronologyid </text>
<text text-anchor="start" x="1123.91" y="-1588" font-family="Arial" font-size="14.00" fill="#666666">[integer]</text>
<polygon fill="none" stroke="black" points="1033.63,-1545 1033.63,-1575.8 1353.43,-1575.8 1353.43,-1545 1033.63,-1545"/>
<text text-anchor="start" x="1040.63" y="-1557.2" font-family="Arial" font-size="14.00">recdatecreated </text>
<text text-anchor="start" x="1137.92" y="-1557.2" font-family="Arial" font-size="14.00" fill="#666666">[timestamp(0) without time zone]</text>
<polygon fill="none" stroke="black" points="1033.63,-1514.2 1033.63,-1545 1353.43,-1545 1353.43,-1514.2 1033.63,-1514.2"/>
<text text-anchor="start" x="1040.63" y="-1526.4" font-family="Arial" font-size="14.00">recdatemodified </text>
<text text-anchor="start" x="1144.14" y="-1526.4" font-family="Arial" font-size="14.00" fill="#666666">[timestamp(0) without time zone]</text>
<polygon fill="none" stroke="black" points="1033.63,-1483.4 1033.63,-1514.2 1353.43,-1514.2 1353.43,-1483.4 1033.63,-1483.4"/>
<text text-anchor="start" x="1040.63" y="-1495.6" font-family="Arial" font-size="14.00">sampleageid </text>
<text text-anchor="start" x="1123.91" y="-1495.6" font-family="Arial" font-size="14.00" fill="#666666">[integer]</text>
<polygon fill="none" stroke="black" points="1033.63,-1452.6 1033.63,-1483.4 1353.43,-1483.4 1353.43,-1452.6 1033.63,-1452.6"/>
<text text-anchor="start" x="1040.63" y="-1464.8" font-family="Arial" font-size="14.00">sampleid </text>
<text text-anchor="start" x="1100.55" y="-1464.8" font-family="Arial" font-size="14.00" fill="#666666">[integer]</text>
</g>
<!-- ndb.sampleages&#45;&gt;ndb.chronologies -->
<g id="edge5" class="edge">
<title>ndb.sampleages:chronologyid&#45;&gt;ndb.chronologies:chronologyid</title>
<path fill="none" stroke="black" d="M1022.53,-1588.93C976.27,-1566.6 992.29,-1386.3 981.53,-1332.4 959.05,-1219.73 1045.32,-1079 930.43,-1079"/>
<polygon fill="black" stroke="black" points="1022.55,-1588.93 1031.32,-1595.52 1027.76,-1590.1 1031.98,-1591.05 1031.98,-1591.05 1031.98,-1591.05 1027.76,-1590.1 1033.3,-1586.74 1022.55,-1588.93"/>
<text text-anchor="start" x="747.26" y="-1575.2" font-family="Arial" font-size="10.00">FOREIGN KEY (chronologyid) REFERENCES ndb.chronologies(chronologyid) ON UPDATE CASCADE ON DELETE CASCADE</text>
</g>
<!-- ndb.analysisunits -->
<g id="node10" class="node">
<title>ndb.analysisunits</title>
<polygon fill="#efefef" stroke="none" points="1454.63,-520.6 1454.63,-556.2 1774.43,-556.2 1774.43,-520.6 1454.63,-520.6"/>
<polygon fill="none" stroke="black" points="1454.63,-520.6 1454.63,-556.2 1774.43,-556.2 1774.43,-520.6 1454.63,-520.6"/>
<text text-anchor="start" x="1490.04" y="-534" font-family="Arial Bold" font-size="18.00">ndb.analysisunits</text>
<text text-anchor="start" x="1614.54" y="-534" font-family="Arial" font-size="14.00">    </text>
<text text-anchor="start" x="1645.65" y="-534" font-family="Arial" font-size="14.00" fill="#666666">[BASE TABLE]</text>
<polygon fill="none" stroke="black" points="1454.63,-489.8 1454.63,-520.6 1774.43,-520.6 1774.43,-489.8 1454.63,-489.8"/>
<text text-anchor="start" x="1461.63" y="-502" font-family="Arial" font-size="14.00">analysisunitid </text>
<text text-anchor="start" x="1549.57" y="-502" font-family="Arial" font-size="14.00" fill="#666666">[integer]</text>
<polygon fill="none" stroke="black" points="1454.63,-459 1454.63,-489.8 1774.43,-489.8 1774.43,-459 1454.63,-459"/>
<text text-anchor="start" x="1461.63" y="-471.2" font-family="Arial" font-size="14.00">analysisunitname </text>
<text text-anchor="start" x="1573.7" y="-471.2" font-family="Arial" font-size="14.00" fill="#666666">[varchar(80)]</text>
<polygon fill="none" stroke="black" points="1454.63,-428.2 1454.63,-459 1774.43,-459 1774.43,-428.2 1454.63,-428.2"/>
<text text-anchor="start" x="1461.63" y="-440.4" font-family="Arial" font-size="14.00">collectionunitid </text>
<text text-anchor="start" x="1557.36" y="-440.4" font-family="Arial" font-size="14.00" fill="#666666">[integer]</text>
<polygon fill="none" stroke="black" points="1454.63,-397.4 1454.63,-428.2 1774.43,-428.2 1774.43,-397.4 1454.63,-397.4"/>
<text text-anchor="start" x="1461.63" y="-409.6" font-family="Arial" font-size="14.00">depth </text>
<text text-anchor="start" x="1500.56" y="-409.6" font-family="Arial" font-size="14.00" fill="#666666">[double precision]</text>
<polygon fill="none" stroke="black" points="1454.63,-366.6 1454.63,-397.4 1774.43,-397.4 1774.43,-366.6 1454.63,-366.6"/>
<text text-anchor="start" x="1461.63" y="-378.8" font-family="Arial" font-size="14.00">faciesid </text>
<text text-anchor="start" x="1512.99" y="-378.8" font-family="Arial" font-size="14.00" fill="#666666">[integer]</text>
<polygon fill="none" stroke="black" points="1454.63,-335.8 1454.63,-366.6 1774.43,-366.6 1774.43,-335.8 1454.63,-335.8"/>
<text text-anchor="start" x="1461.63" y="-348" font-family="Arial" font-size="14.00">igsn </text>
<text text-anchor="start" x="1491.21" y="-348" font-family="Arial" font-size="14.00" fill="#666666">[varchar(40)]</text>
<polygon fill="none" stroke="black" points="1454.63,-305 1454.63,-335.8 1774.43,-335.8 1774.43,-305 1454.63,-305"/>
<text text-anchor="start" x="1461.63" y="-317.2" font-family="Arial" font-size="14.00">mixed </text>
<text text-anchor="start" x="1502.87" y="-317.2" font-family="Arial" font-size="14.00" fill="#666666">[boolean]</text>
<polygon fill="none" stroke="black" points="1454.63,-274.2 1454.63,-305 1774.43,-305 1774.43,-274.2 1454.63,-274.2"/>
<text text-anchor="start" x="1461.63" y="-286.4" font-family="Arial" font-size="14.00">notes </text>
<text text-anchor="start" x="1499.77" y="-286.4" font-family="Arial" font-size="14.00" fill="#666666">[text]</text>
<polygon fill="none" stroke="black" points="1454.63,-243.4 1454.63,-274.2 1774.43,-274.2 1774.43,-243.4 1454.63,-243.4"/>
<text text-anchor="start" x="1461.63" y="-255.6" font-family="Arial" font-size="14.00">recdatecreated </text>
<text text-anchor="start" x="1558.92" y="-255.6" font-family="Arial" font-size="14.00" fill="#666666">[timestamp(0) without time zone]</text>
<polygon fill="none" stroke="black" points="1454.63,-212.6 1454.63,-243.4 1774.43,-243.4 1774.43,-212.6 1454.63,-212.6"/>
<text text-anchor="start" x="1461.63" y="-224.8" font-family="Arial" font-size="14.00">recdatemodified </text>
<text text-anchor="start" x="1565.14" y="-224.8" font-family="Arial" font-size="14.00" fill="#666666">[timestamp(0) without time zone]</text>
<polygon fill="none" stroke="black" points="1454.63,-181.8 1454.63,-212.6 1774.43,-212.6 1774.43,-181.8 1454.63,-181.8"/>
<text text-anchor="start" x="1461.63" y="-194" font-family="Arial" font-size="14.00">thickness </text>
<text text-anchor="start" x="1523.88" y="-194" font-family="Arial" font-size="14.00" fill="#666666">[double precision]</text>
</g>
<!-- ndb.hiatuses&#45;&gt;ndb.analysisunits -->
<g id="edge9" class="edge">
<title>ndb.hiatuses:analysisunitend&#45;&gt;ndb.analysisunits:analysisunitid</title>
<path fill="none" stroke="black" d="M1739.56,-1062.37C1856.41,-1033.48 1896.54,-505.2 1775.43,-505.2"/>
<polygon fill="black" stroke="black" points="1739.78,-1062.34 1729.31,-1059.09 1734.49,-1062.99 1730.19,-1063.52 1730.19,-1063.52 1730.19,-1063.52 1734.49,-1062.99 1730.4,-1068.03 1739.78,-1062.34"/>
<text text-anchor="start" x="1736.52" y="-1073.6" font-family="Arial" font-size="10.00">FOREIGN KEY (analysisunitend) REFERENCES ndb.analysisunits(analysisunitid)</text>
</g>
<!-- ndb.hiatuses&#45;&gt;ndb.analysisunits -->
<g id="edge10" class="edge">
<title>ndb.hiatuses:analysisunitstart&#45;&gt;ndb.analysisunits:analysisunitid</title>
<path fill="none" stroke="black" d="M1739.68,-1031.47C1849.76,-1002.34 1889.67,-505.2 1775.43,-505.2"/>
<polygon fill="black" stroke="black" points="1739.77,-1031.46 1729.27,-1028.29 1734.48,-1032.15 1730.19,-1032.71 1730.19,-1032.71 1730.19,-1032.71 1734.48,-1032.15 1730.44,-1037.22 1739.77,-1031.46"/>
<text text-anchor="start" x="1736.52" y="-1042.8" font-family="Arial" font-size="10.00">FOREIGN KEY (analysisunitstart) REFERENCES ndb.analysisunits(analysisunitid)</text>
</g>
</g>
</svg>
