<?xml version="1.0" encoding="UTF-8" standalone="no"?>
<!DOCTYPE svg PUBLIC "-//W3C//DTD SVG 1.1//EN"
 "http://www.w3.org/Graphics/SVG/1.1/DTD/svg11.dtd">
<!-- Generated by graphviz version 12.1.2 (20240928.0832)
 -->
<!-- Title: ndb.taxaalthierarchytypes Pages: 1 -->
<svg width="1303pt" height="812pt"
 viewBox="0.00 0.00 1302.59 811.60" xmlns="http://www.w3.org/2000/svg" xmlns:xlink="http://www.w3.org/1999/xlink">
<g id="graph0" class="graph" transform="scale(1 1) rotate(0) translate(4 807.6)">
<title>ndb.taxaalthierarchytypes</title>
<polygon fill="white" stroke="none" points="-4,4 -4,-807.6 1298.59,-807.6 1298.59,4 -4,4"/>
<!-- ndb.taxaalthierarchytypes -->
<g id="node1" class="node">
<title>ndb.taxaalthierarchytypes</title>
<polygon fill="#efefef" stroke="none" points="256.68,-305 256.68,-340.6 580.59,-340.6 580.59,-305 256.68,-305"/>
<polygon fill="none" stroke="black" points="256.68,-305 256.68,-340.6 580.59,-340.6 580.59,-305 256.68,-305"/>
<text text-anchor="start" x="263.68" y="-318.4" font-family="Arial Bold" font-size="18.00">ndb.taxaalthierarchytypes</text>
<text text-anchor="start" x="449.1" y="-318.4" font-family="Arial" font-size="14.00">    </text>
<text text-anchor="start" x="480.22" y="-318.4" font-family="Arial" font-size="14.00" fill="#666666">[BASE TABLE]</text>
<polygon fill="none" stroke="black" points="256.68,-274.2 256.68,-305 580.59,-305 580.59,-274.2 256.68,-274.2"/>
<text text-anchor="start" x="263.68" y="-286.4" font-family="Arial" font-size="14.00">taxaalthierarchydescript </text>
<text text-anchor="start" x="415.41" y="-286.4" font-family="Arial" font-size="14.00" fill="#666666">[text]</text>
<polygon fill="none" stroke="black" points="256.68,-243.4 256.68,-274.2 580.59,-274.2 580.59,-243.4 256.68,-243.4"/>
<text text-anchor="start" x="263.68" y="-255.6" font-family="Arial" font-size="14.00">taxaalthierarchyname </text>
<text text-anchor="start" x="401.41" y="-255.6" font-family="Arial" font-size="14.00" fill="#666666">[varchar(50)]</text>
<polygon fill="none" stroke="black" points="256.68,-212.6 256.68,-243.4 580.59,-243.4 580.59,-212.6 256.68,-212.6"/>
<text text-anchor="start" x="263.68" y="-224.8" font-family="Arial" font-size="14.00">taxaalthierarchytypeid </text>
<text text-anchor="start" x="403.75" y="-224.8" font-family="Arial" font-size="14.00" fill="#666666">[integer]</text>
<polygon fill="none" stroke="black" stroke-width="3" points="255.18,-211.1 255.18,-342.1 582.09,-342.1 582.09,-211.1 255.18,-211.1"/>
</g>
<!-- ndb.taxaalthierarchy -->
<g id="node2" class="node">
<title>ndb.taxaalthierarchy</title>
<polygon fill="#efefef" stroke="none" points="704.67,-724.8 704.67,-760.4 990.59,-760.4 990.59,-724.8 704.67,-724.8"/>
<polygon fill="none" stroke="black" points="704.67,-724.8 704.67,-760.4 990.59,-760.4 990.59,-724.8 704.67,-724.8"/>
<text text-anchor="start" x="711.67" y="-738.2" font-family="Arial Bold" font-size="18.00">ndb.taxaalthierarchy</text>
<text text-anchor="start" x="859.1" y="-738.2" font-family="Arial" font-size="14.00">    </text>
<text text-anchor="start" x="890.22" y="-738.2" font-family="Arial" font-size="14.00" fill="#666666">[BASE TABLE]</text>
<polygon fill="none" stroke="black" points="704.67,-694 704.67,-724.8 990.59,-724.8 990.59,-694 704.67,-694"/>
<text text-anchor="start" x="711.67" y="-706.2" font-family="Arial" font-size="14.00">highertaxonid </text>
<text text-anchor="start" x="799.62" y="-706.2" font-family="Arial" font-size="14.00" fill="#666666">[integer]</text>
<polygon fill="none" stroke="black" points="704.67,-663.2 704.67,-694 990.59,-694 990.59,-663.2 704.67,-663.2"/>
<text text-anchor="start" x="711.67" y="-675.4" font-family="Arial" font-size="14.00">taxaalthierarchytypeid </text>
<text text-anchor="start" x="851.75" y="-675.4" font-family="Arial" font-size="14.00" fill="#666666">[integer]</text>
<polygon fill="none" stroke="black" points="704.67,-632.4 704.67,-663.2 990.59,-663.2 990.59,-632.4 704.67,-632.4"/>
<text text-anchor="start" x="711.67" y="-644.6" font-family="Arial" font-size="14.00">taxonid </text>
<text text-anchor="start" x="760.71" y="-644.6" font-family="Arial" font-size="14.00" fill="#666666">[integer]</text>
</g>
<!-- ndb.taxaalthierarchy&#45;&gt;ndb.taxaalthierarchytypes -->
<g id="edge1" class="edge">
<title>ndb.taxaalthierarchy:taxaalthierarchytypeid&#45;&gt;ndb.taxaalthierarchytypes:taxaalthierarchytypeid</title>
<path fill="none" stroke="black" d="M693.32,-677.94C642.01,-670.95 655.03,-609.66 635.63,-553.2 611.83,-483.92 654.85,-228 581.59,-228"/>
<polygon fill="black" stroke="black" points="693.36,-677.94 703.05,-683.07 698.68,-678.28 703.01,-678.56 703.01,-678.56 703.01,-678.56 698.68,-678.28 703.63,-674.09 693.36,-677.94"/>
<text text-anchor="start" x="7" y="-688.6" font-family="Arial" font-size="10.00">FOREIGN KEY (taxaalthierarchytypeid) REFERENCES ndb.taxaalthierarchytypes(taxaalthierarchytypeid) ON UPDATE CASCADE ON DELETE CASCADE</text>
</g>
<!-- ndb.taxa -->
<g id="node3" class="node">
<title>ndb.taxa</title>
<polygon fill="#efefef" stroke="none" points="687.73,-474.4 687.73,-510 1007.53,-510 1007.53,-474.4 687.73,-474.4"/>
<polygon fill="none" stroke="black" points="687.73,-474.4 687.73,-510 1007.53,-510 1007.53,-474.4 687.73,-474.4"/>
<text text-anchor="start" x="754.65" y="-487.8" font-family="Arial Bold" font-size="18.00">ndb.taxa</text>
<text text-anchor="start" x="816.13" y="-487.8" font-family="Arial" font-size="14.00">    </text>
<text text-anchor="start" x="847.24" y="-487.8" font-family="Arial" font-size="14.00" fill="#666666">[BASE TABLE]</text>
<polygon fill="none" stroke="black" points="687.73,-443.6 687.73,-474.4 1007.53,-474.4 1007.53,-443.6 687.73,-443.6"/>
<text text-anchor="start" x="694.73" y="-455.8" font-family="Arial" font-size="14.00">author </text>
<text text-anchor="start" x="738.32" y="-455.8" font-family="Arial" font-size="14.00" fill="#666666">[varchar(128)]</text>
<polygon fill="none" stroke="black" points="687.73,-412.8 687.73,-443.6 1007.53,-443.6 1007.53,-412.8 687.73,-412.8"/>
<text text-anchor="start" x="694.73" y="-425" font-family="Arial" font-size="14.00">extinct </text>
<text text-anchor="start" x="739.08" y="-425" font-family="Arial" font-size="14.00" fill="#666666">[boolean]</text>
<polygon fill="none" stroke="black" points="687.73,-382 687.73,-412.8 1007.53,-412.8 1007.53,-382 687.73,-382"/>
<text text-anchor="start" x="694.73" y="-394.2" font-family="Arial" font-size="14.00">highertaxonid </text>
<text text-anchor="start" x="782.68" y="-394.2" font-family="Arial" font-size="14.00" fill="#666666">[integer]</text>
<polygon fill="none" stroke="black" points="687.73,-351.2 687.73,-382 1007.53,-382 1007.53,-351.2 687.73,-351.2"/>
<text text-anchor="start" x="694.73" y="-363.4" font-family="Arial" font-size="14.00">notes </text>
<text text-anchor="start" x="732.87" y="-363.4" font-family="Arial" font-size="14.00" fill="#666666">[text]</text>
<polygon fill="none" stroke="black" points="687.73,-320.4 687.73,-351.2 1007.53,-351.2 1007.53,-320.4 687.73,-320.4"/>
<text text-anchor="start" x="694.73" y="-332.6" font-family="Arial" font-size="14.00">publicationid </text>
<text text-anchor="start" x="776.46" y="-332.6" font-family="Arial" font-size="14.00" fill="#666666">[integer]</text>
<polygon fill="none" stroke="black" points="687.73,-289.6 687.73,-320.4 1007.53,-320.4 1007.53,-289.6 687.73,-289.6"/>
<text text-anchor="start" x="694.73" y="-301.8" font-family="Arial" font-size="14.00">recdatecreated </text>
<text text-anchor="start" x="792.01" y="-301.8" font-family="Arial" font-size="14.00" fill="#666666">[timestamp(0) without time zone]</text>
<polygon fill="none" stroke="black" points="687.73,-258.8 687.73,-289.6 1007.53,-289.6 1007.53,-258.8 687.73,-258.8"/>
<text text-anchor="start" x="694.73" y="-271" font-family="Arial" font-size="14.00">recdatemodified </text>
<text text-anchor="start" x="798.23" y="-271" font-family="Arial" font-size="14.00" fill="#666666">[timestamp(0) without time zone]</text>
<polygon fill="none" stroke="black" points="687.73,-228 687.73,-258.8 1007.53,-258.8 1007.53,-228 687.73,-228"/>
<text text-anchor="start" x="694.73" y="-240.2" font-family="Arial" font-size="14.00">taxagroupid </text>
<text text-anchor="start" x="771.79" y="-240.2" font-family="Arial" font-size="14.00" fill="#666666">[varchar(3)]</text>
<polygon fill="none" stroke="black" points="687.73,-197.2 687.73,-228 1007.53,-228 1007.53,-197.2 687.73,-197.2"/>
<text text-anchor="start" x="694.73" y="-209.4" font-family="Arial" font-size="14.00">taxoncode </text>
<text text-anchor="start" x="763.23" y="-209.4" font-family="Arial" font-size="14.00" fill="#666666">[varchar(64)]</text>
<polygon fill="none" stroke="black" points="687.73,-166.4 687.73,-197.2 1007.53,-197.2 1007.53,-166.4 687.73,-166.4"/>
<text text-anchor="start" x="694.73" y="-178.6" font-family="Arial" font-size="14.00">taxonid </text>
<text text-anchor="start" x="743.77" y="-178.6" font-family="Arial" font-size="14.00" fill="#666666">[integer]</text>
<polygon fill="none" stroke="black" points="687.73,-135.6 687.73,-166.4 1007.53,-166.4 1007.53,-135.6 687.73,-135.6"/>
<text text-anchor="start" x="694.73" y="-147.8" font-family="Arial" font-size="14.00">taxonname </text>
<text text-anchor="start" x="767.89" y="-147.8" font-family="Arial" font-size="14.00" fill="#666666">[text]</text>
<polygon fill="none" stroke="black" points="687.73,-104.8 687.73,-135.6 1007.53,-135.6 1007.53,-104.8 687.73,-104.8"/>
<text text-anchor="start" x="694.73" y="-117" font-family="Arial" font-size="14.00">valid </text>
<text text-anchor="start" x="727.41" y="-117" font-family="Arial" font-size="14.00" fill="#666666">[boolean]</text>
<polygon fill="none" stroke="black" points="687.73,-74 687.73,-104.8 1007.53,-104.8 1007.53,-74 687.73,-74"/>
<text text-anchor="start" x="694.73" y="-86.2" font-family="Arial" font-size="14.00">validatedate </text>
<text text-anchor="start" x="774.12" y="-86.2" font-family="Arial" font-size="14.00" fill="#666666">[date]</text>
<polygon fill="none" stroke="black" points="687.73,-43.2 687.73,-74 1007.53,-74 1007.53,-43.2 687.73,-43.2"/>
<text text-anchor="start" x="694.73" y="-55.4" font-family="Arial" font-size="14.00">validatorid </text>
<text text-anchor="start" x="762.44" y="-55.4" font-family="Arial" font-size="14.00" fill="#666666">[integer]</text>
</g>
<!-- ndb.taxaalthierarchy&#45;&gt;ndb.taxa -->
<g id="edge2" class="edge">
<title>ndb.taxaalthierarchy:highertaxonid&#45;&gt;ndb.taxa:taxonid</title>
<path fill="none" stroke="black" d="M1000.83,-704.84C1051.87,-653.27 1063.98,-181.8 1008.53,-181.8"/>
<polygon fill="black" stroke="black" points="1000.86,-704.83 989.9,-705.22 996.07,-707.19 992.19,-709.1 992.19,-709.1 992.19,-709.1 996.07,-707.19 993.88,-713.29 1000.86,-704.83"/>
<text text-anchor="start" x="998.59" y="-719.4" font-family="Arial" font-size="10.00">FOREIGN KEY (highertaxonid) REFERENCES ndb.taxa(taxonid)</text>
</g>
<!-- ndb.taxaalthierarchy&#45;&gt;ndb.taxa -->
<g id="edge3" class="edge">
<title>ndb.taxaalthierarchy:taxonid&#45;&gt;ndb.taxa:taxonid</title>
<path fill="none" stroke="black" d="M848.39,-621.22C858.52,-558.37 967.52,-617.11 1007.53,-553.2 1051.32,-483.24 1091.06,-181.8 1008.53,-181.8"/>
<polygon fill="black" stroke="black" points="848.4,-621.09 843.17,-630.73 848,-626.41 847.68,-630.73 847.68,-630.73 847.68,-630.73 848,-626.41 852.14,-631.4 848.4,-621.09"/>
<text text-anchor="start" x="356.61" y="-641.4" font-family="Arial" font-size="10.00">FOREIGN KEY (taxonid) REFERENCES ndb.taxa(taxonid) ON UPDATE CASCADE ON DELETE CASCADE</text>
</g>
</g>
</svg>
