<?xml version="1.0" encoding="UTF-8" standalone="no"?>
<!DOCTYPE svg PUBLIC "-//W3C//DTD SVG 1.1//EN"
 "http://www.w3.org/Graphics/SVG/1.1/DTD/svg11.dtd">
<!-- Generated by graphviz version 12.1.2 (20240928.0832)
 -->
<!-- Title: ndb.entityrelationship Pages: 1 -->
<svg width="4138pt" height="1339pt"
 viewBox="0.00 0.00 4137.84 1339.20" xmlns="http://www.w3.org/2000/svg" xmlns:xlink="http://www.w3.org/1999/xlink">
<g id="graph0" class="graph" transform="scale(1 1) rotate(0) translate(4 1335.2)">
<title>ndb.entityrelationship</title>
<polygon fill="white" stroke="none" points="-4,4 -4,-1335.2 4133.84,-1335.2 4133.84,4 -4,4"/>
<!-- ndb.entityrelationship -->
<g id="node1" class="node">
<title>ndb.entityrelationship</title>
<polygon fill="#efefef" stroke="none" points="3411.5,-1190.8 3411.5,-1226.4 3707.46,-1226.4 3707.46,-1190.8 3411.5,-1190.8"/>
<polygon fill="none" stroke="black" points="3411.5,-1190.8 3411.5,-1226.4 3707.46,-1226.4 3707.46,-1190.8 3411.5,-1190.8"/>
<text text-anchor="start" x="3418.5" y="-1204.2" font-family="Arial Bold" font-size="18.00">ndb.entityrelationship</text>
<text text-anchor="start" x="3575.97" y="-1204.2" font-family="Arial" font-size="14.00">    </text>
<text text-anchor="start" x="3607.09" y="-1204.2" font-family="Arial" font-size="14.00" fill="#666666">[BASE TABLE]</text>
<polygon fill="none" stroke="black" points="3411.5,-1160 3411.5,-1190.8 3707.46,-1190.8 3707.46,-1160 3411.5,-1160"/>
<text text-anchor="start" x="3418.5" y="-1172.2" font-family="Arial" font-size="14.00">entityid </text>
<text text-anchor="start" x="3466.74" y="-1172.2" font-family="Arial" font-size="14.00" fill="#666666">[integer]</text>
<polygon fill="none" stroke="black" points="3411.5,-1129.2 3411.5,-1160 3707.46,-1160 3707.46,-1129.2 3411.5,-1129.2"/>
<text text-anchor="start" x="3418.5" y="-1141.4" font-family="Arial" font-size="14.00">entitystatusid </text>
<text text-anchor="start" x="3504.1" y="-1141.4" font-family="Arial" font-size="14.00" fill="#666666">[integer]</text>
<polygon fill="none" stroke="black" points="3411.5,-1098.4 3411.5,-1129.2 3707.46,-1129.2 3707.46,-1098.4 3411.5,-1098.4"/>
<text text-anchor="start" x="3418.5" y="-1110.6" font-family="Arial" font-size="14.00">notes </text>
<text text-anchor="start" x="3456.63" y="-1110.6" font-family="Arial" font-size="14.00" fill="#666666">[text]</text>
<polygon fill="none" stroke="black" points="3411.5,-1067.6 3411.5,-1098.4 3707.46,-1098.4 3707.46,-1067.6 3411.5,-1067.6"/>
<text text-anchor="start" x="3418.5" y="-1079.8" font-family="Arial" font-size="14.00">referenceentityid </text>
<text text-anchor="start" x="3525.89" y="-1079.8" font-family="Arial" font-size="14.00" fill="#666666">[integer]</text>
<polygon fill="none" stroke="black" stroke-width="3" points="3410,-1066.1 3410,-1227.9 3708.96,-1227.9 3708.96,-1066.1 3410,-1066.1"/>
</g>
<!-- ndb.speleothems -->
<g id="node2" class="node">
<title>ndb.speleothems</title>
<polygon fill="#efefef" stroke="none" points="1904.99,-848 1904.99,-883.6 2163.96,-883.6 2163.96,-848 1904.99,-848"/>
<polygon fill="none" stroke="black" points="1904.99,-848 1904.99,-883.6 2163.96,-883.6 2163.96,-848 1904.99,-848"/>
<text text-anchor="start" x="1911.99" y="-861.4" font-family="Arial Bold" font-size="18.00">ndb.speleothems</text>
<text text-anchor="start" x="2032.47" y="-861.4" font-family="Arial" font-size="14.00">    </text>
<text text-anchor="start" x="2063.59" y="-861.4" font-family="Arial" font-size="14.00" fill="#666666">[BASE TABLE]</text>
<polygon fill="none" stroke="black" points="1904.99,-817.2 1904.99,-848 2163.96,-848 2163.96,-817.2 1904.99,-817.2"/>
<text text-anchor="start" x="1911.99" y="-829.4" font-family="Arial" font-size="14.00">entityid </text>
<text text-anchor="start" x="1960.24" y="-829.4" font-family="Arial" font-size="14.00" fill="#666666">[integer]</text>
<polygon fill="none" stroke="black" points="1904.99,-786.4 1904.99,-817.2 2163.96,-817.2 2163.96,-786.4 1904.99,-786.4"/>
<text text-anchor="start" x="1911.99" y="-798.6" font-family="Arial" font-size="14.00">entityname </text>
<text text-anchor="start" x="1984.36" y="-798.6" font-family="Arial" font-size="14.00" fill="#666666">[text]</text>
<polygon fill="none" stroke="black" points="1904.99,-755.6 1904.99,-786.4 2163.96,-786.4 2163.96,-755.6 1904.99,-755.6"/>
<text text-anchor="start" x="1911.99" y="-767.8" font-family="Arial" font-size="14.00">entrancedistance </text>
<text text-anchor="start" x="2022.51" y="-767.8" font-family="Arial" font-size="14.00" fill="#666666">[real]</text>
<polygon fill="none" stroke="black" points="1904.99,-724.8 1904.99,-755.6 2163.96,-755.6 2163.96,-724.8 1904.99,-724.8"/>
<text text-anchor="start" x="1911.99" y="-737" font-family="Arial" font-size="14.00">entrancedistanceunits </text>
<text text-anchor="start" x="2052.08" y="-737" font-family="Arial" font-size="14.00" fill="#666666">[integer]</text>
<polygon fill="none" stroke="black" points="1904.99,-694 1904.99,-724.8 2163.96,-724.8 2163.96,-694 1904.99,-694"/>
<text text-anchor="start" x="1911.99" y="-706.2" font-family="Arial" font-size="14.00">monitoring </text>
<text text-anchor="start" x="1981.25" y="-706.2" font-family="Arial" font-size="14.00" fill="#666666">[boolean]</text>
<polygon fill="none" stroke="black" points="1904.99,-663.2 1904.99,-694 2163.96,-694 2163.96,-663.2 1904.99,-663.2"/>
<text text-anchor="start" x="1911.99" y="-675.4" font-family="Arial" font-size="14.00">rockageid </text>
<text text-anchor="start" x="1976.59" y="-675.4" font-family="Arial" font-size="14.00" fill="#666666">[integer]</text>
<polygon fill="none" stroke="black" points="1904.99,-632.4 1904.99,-663.2 2163.96,-663.2 2163.96,-632.4 1904.99,-632.4"/>
<text text-anchor="start" x="1911.99" y="-644.6" font-family="Arial" font-size="14.00">siteid </text>
<text text-anchor="start" x="1948.56" y="-644.6" font-family="Arial" font-size="14.00" fill="#666666">[integer]</text>
<polygon fill="none" stroke="black" points="1904.99,-601.6 1904.99,-632.4 2163.96,-632.4 2163.96,-601.6 1904.99,-601.6"/>
<text text-anchor="start" x="1911.99" y="-613.8" font-family="Arial" font-size="14.00">speleothemtypeid </text>
<text text-anchor="start" x="2025.62" y="-613.8" font-family="Arial" font-size="14.00" fill="#666666">[integer]</text>
</g>
<!-- ndb.entityrelationship&#45;&gt;ndb.speleothems -->
<g id="edge1" class="edge">
<title>ndb.entityrelationship:entityid&#45;&gt;ndb.speleothems:entityid</title>
<path fill="none" stroke="black" d="M3400.51,-1174.8C3321.43,-1164.48 3427.34,-1024.37 3356.48,-962.8 3255.95,-875.44 2298.14,-832.6 2164.96,-832.6"/>
<polygon fill="black" stroke="black" points="3400.18,-1174.78 3409.89,-1179.87 3405.51,-1175.1 3409.83,-1175.36 3409.83,-1175.36 3409.83,-1175.36 3405.51,-1175.1 3410.43,-1170.89 3400.18,-1174.78"/>
<text text-anchor="start" x="3183.59" y="-1159.4" font-family="Arial" font-size="10.00">FOREIGN KEY (entityid) REFERENCES ndb.speleothems(entityid)</text>
</g>
<!-- ndb.entityrelationship&#45;&gt;ndb.speleothems -->
<g id="edge6" class="edge">
<title>ndb.entityrelationship:referenceentityid&#45;&gt;ndb.speleothems:entityid</title>
<path fill="none" stroke="black" d="M3400.23,-1081.91C3358.39,-1071.84 3400.7,-994.95 3356.48,-962.8 3248.76,-884.49 2298.14,-832.6 2164.96,-832.6"/>
<polygon fill="black" stroke="black" points="3400.22,-1081.9 3409.69,-1087.44 3405.52,-1082.47 3409.83,-1082.93 3409.83,-1082.93 3409.83,-1082.93 3405.52,-1082.47 3410.64,-1078.49 3400.22,-1081.9"/>
<text text-anchor="start" x="3151.9" y="-1067" font-family="Arial" font-size="10.00">FOREIGN KEY (referenceentityid) REFERENCES ndb.speleothems(entityid)</text>
</g>
<!-- ndb.speleothementitystatuses -->
<g id="node15" class="node">
<title>ndb.speleothementitystatuses</title>
<polygon fill="#efefef" stroke="none" points="3385,-755.6 3385,-791.2 3733.95,-791.2 3733.95,-755.6 3385,-755.6"/>
<polygon fill="none" stroke="black" points="3385,-755.6 3385,-791.2 3733.95,-791.2 3733.95,-755.6 3385,-755.6"/>
<text text-anchor="start" x="3392" y="-769" font-family="Arial Bold" font-size="18.00">ndb.speleothementitystatuses</text>
<text text-anchor="start" x="3602.46" y="-769" font-family="Arial" font-size="14.00">    </text>
<text text-anchor="start" x="3633.58" y="-769" font-family="Arial" font-size="14.00" fill="#666666">[BASE TABLE]</text>
<polygon fill="none" stroke="black" points="3385,-724.8 3385,-755.6 3733.95,-755.6 3733.95,-724.8 3385,-724.8"/>
<text text-anchor="start" x="3392" y="-737" font-family="Arial" font-size="14.00">entitystatus </text>
<text text-anchor="start" x="3466.7" y="-737" font-family="Arial" font-size="14.00" fill="#666666">[text]</text>
<polygon fill="none" stroke="black" points="3385,-694 3385,-724.8 3733.95,-724.8 3733.95,-694 3385,-694"/>
<text text-anchor="start" x="3392" y="-706.2" font-family="Arial" font-size="14.00">entitystatusid </text>
<text text-anchor="start" x="3477.6" y="-706.2" font-family="Arial" font-size="14.00" fill="#666666">[integer]</text>
</g>
<!-- ndb.entityrelationship&#45;&gt;ndb.speleothementitystatuses -->
<g id="edge15" class="edge">
<title>ndb.entityrelationship:entitystatusid&#45;&gt;ndb.speleothementitystatuses:entitystatusid</title>
<path fill="none" stroke="black" d="M3717.67,-1140.22C3765.29,-1095.77 3810.72,-727.72 3777.15,-694 3743.03,-659.72 3559.48,-644.63 3559.48,-693"/>
<polygon fill="black" stroke="black" points="3717.79,-1140.16 3706.83,-1140.39 3712.97,-1142.45 3709.06,-1144.31 3709.06,-1144.31 3709.06,-1144.31 3712.97,-1142.45 3710.69,-1148.52 3717.79,-1140.16"/>
<text text-anchor="start" x="3715.46" y="-1154.6" font-family="Arial" font-size="10.00">FOREIGN KEY (entitystatusid) REFERENCES ndb.speleothementitystatuses(entitystatusid)</text>
</g>
<!-- ndb.variableunits -->
<g id="node11" class="node">
<title>ndb.variableunits</title>
<polygon fill="#efefef" stroke="none" points="1238.58,-305 1238.58,-340.6 1558.38,-340.6 1558.38,-305 1238.58,-305"/>
<polygon fill="none" stroke="black" points="1238.58,-305 1238.58,-340.6 1558.38,-340.6 1558.38,-305 1238.58,-305"/>
<text text-anchor="start" x="1274" y="-318.4" font-family="Arial Bold" font-size="18.00">ndb.variableunits</text>
<text text-anchor="start" x="1398.47" y="-318.4" font-family="Arial" font-size="14.00">    </text>
<text text-anchor="start" x="1429.59" y="-318.4" font-family="Arial" font-size="14.00" fill="#666666">[BASE TABLE]</text>
<polygon fill="none" stroke="black" points="1238.58,-274.2 1238.58,-305 1558.38,-305 1558.38,-274.2 1238.58,-274.2"/>
<text text-anchor="start" x="1245.58" y="-286.4" font-family="Arial" font-size="14.00">recdatecreated </text>
<text text-anchor="start" x="1342.86" y="-286.4" font-family="Arial" font-size="14.00" fill="#666666">[timestamp(0) without time zone]</text>
<polygon fill="none" stroke="black" points="1238.58,-243.4 1238.58,-274.2 1558.38,-274.2 1558.38,-243.4 1238.58,-243.4"/>
<text text-anchor="start" x="1245.58" y="-255.6" font-family="Arial" font-size="14.00">recdatemodified </text>
<text text-anchor="start" x="1349.08" y="-255.6" font-family="Arial" font-size="14.00" fill="#666666">[timestamp(0) without time zone]</text>
<polygon fill="none" stroke="black" points="1238.58,-212.6 1238.58,-243.4 1558.38,-243.4 1558.38,-212.6 1238.58,-212.6"/>
<text text-anchor="start" x="1245.58" y="-224.8" font-family="Arial" font-size="14.00">variableunits </text>
<text text-anchor="start" x="1328.07" y="-224.8" font-family="Arial" font-size="14.00" fill="#666666">[varchar(64)]</text>
<polygon fill="none" stroke="black" points="1238.58,-181.8 1238.58,-212.6 1558.38,-212.6 1558.38,-181.8 1238.58,-181.8"/>
<text text-anchor="start" x="1245.58" y="-194" font-family="Arial" font-size="14.00">variableunitsid </text>
<text text-anchor="start" x="1338.96" y="-194" font-family="Arial" font-size="14.00" fill="#666666">[integer]</text>
</g>
<!-- ndb.speleothems&#45;&gt;ndb.variableunits -->
<g id="edge11" class="edge">
<title>ndb.speleothems:entrancedistanceunits&#45;&gt;ndb.variableunits:variableunitsid</title>
<path fill="none" stroke="black" d="M1893.68,-740.09C1739.51,-736.79 1692.76,-658.4 1610.48,-522.4 1572.61,-459.81 1632.53,-197.2 1559.38,-197.2"/>
<polygon fill="black" stroke="black" points="1893.66,-740.09 1903.61,-744.7 1898.99,-740.15 1903.32,-740.19 1903.32,-740.19 1903.32,-740.19 1898.99,-740.15 1903.71,-735.7 1893.66,-740.09"/>
<text text-anchor="start" x="1501.83" y="-750.2" font-family="Arial" font-size="10.00">FOREIGN KEY (entrancedistanceunits) REFERENCES ndb.variableunits(variableunitsid)</text>
</g>
<!-- ndb.relativeages -->
<g id="node12" class="node">
<title>ndb.relativeages</title>
<polygon fill="#efefef" stroke="none" points="1662.58,-412.8 1662.58,-448.4 1982.38,-448.4 1982.38,-412.8 1662.58,-412.8"/>
<polygon fill="none" stroke="black" points="1662.58,-412.8 1662.58,-448.4 1982.38,-448.4 1982.38,-412.8 1662.58,-412.8"/>
<text text-anchor="start" x="1701.51" y="-426.2" font-family="Arial Bold" font-size="18.00">ndb.relativeages</text>
<text text-anchor="start" x="1818.96" y="-426.2" font-family="Arial" font-size="14.00">    </text>
<text text-anchor="start" x="1850.07" y="-426.2" font-family="Arial" font-size="14.00" fill="#666666">[BASE TABLE]</text>
<polygon fill="none" stroke="black" points="1662.58,-382 1662.58,-412.8 1982.38,-412.8 1982.38,-382 1662.58,-382"/>
<text text-anchor="start" x="1669.58" y="-394.2" font-family="Arial" font-size="14.00">c14ageolder </text>
<text text-anchor="start" x="1750.53" y="-394.2" font-family="Arial" font-size="14.00" fill="#666666">[double precision]</text>
<polygon fill="none" stroke="black" points="1662.58,-351.2 1662.58,-382 1982.38,-382 1982.38,-351.2 1662.58,-351.2"/>
<text text-anchor="start" x="1669.58" y="-363.4" font-family="Arial" font-size="14.00">c14ageyounger </text>
<text text-anchor="start" x="1769.99" y="-363.4" font-family="Arial" font-size="14.00" fill="#666666">[double precision]</text>
<polygon fill="none" stroke="black" points="1662.58,-320.4 1662.58,-351.2 1982.38,-351.2 1982.38,-320.4 1662.58,-320.4"/>
<text text-anchor="start" x="1669.58" y="-332.6" font-family="Arial" font-size="14.00">calageolder </text>
<text text-anchor="start" x="1745.85" y="-332.6" font-family="Arial" font-size="14.00" fill="#666666">[double precision]</text>
<polygon fill="none" stroke="black" points="1662.58,-289.6 1662.58,-320.4 1982.38,-320.4 1982.38,-289.6 1662.58,-289.6"/>
<text text-anchor="start" x="1669.58" y="-301.8" font-family="Arial" font-size="14.00">calageyounger </text>
<text text-anchor="start" x="1765.32" y="-301.8" font-family="Arial" font-size="14.00" fill="#666666">[double precision]</text>
<polygon fill="none" stroke="black" points="1662.58,-258.8 1662.58,-289.6 1982.38,-289.6 1982.38,-258.8 1662.58,-258.8"/>
<text text-anchor="start" x="1669.58" y="-271" font-family="Arial" font-size="14.00">notes </text>
<text text-anchor="start" x="1707.72" y="-271" font-family="Arial" font-size="14.00" fill="#666666">[text]</text>
<polygon fill="none" stroke="black" points="1662.58,-228 1662.58,-258.8 1982.38,-258.8 1982.38,-228 1662.58,-228"/>
<text text-anchor="start" x="1669.58" y="-240.2" font-family="Arial" font-size="14.00">recdatecreated </text>
<text text-anchor="start" x="1766.86" y="-240.2" font-family="Arial" font-size="14.00" fill="#666666">[timestamp(0) without time zone]</text>
<polygon fill="none" stroke="black" points="1662.58,-197.2 1662.58,-228 1982.38,-228 1982.38,-197.2 1662.58,-197.2"/>
<text text-anchor="start" x="1669.58" y="-209.4" font-family="Arial" font-size="14.00">recdatemodified </text>
<text text-anchor="start" x="1773.08" y="-209.4" font-family="Arial" font-size="14.00" fill="#666666">[timestamp(0) without time zone]</text>
<polygon fill="none" stroke="black" points="1662.58,-166.4 1662.58,-197.2 1982.38,-197.2 1982.38,-166.4 1662.58,-166.4"/>
<text text-anchor="start" x="1669.58" y="-178.6" font-family="Arial" font-size="14.00">relativeage </text>
<text text-anchor="start" x="1741.96" y="-178.6" font-family="Arial" font-size="14.00" fill="#666666">[varchar(64)]</text>
<polygon fill="none" stroke="black" points="1662.58,-135.6 1662.58,-166.4 1982.38,-166.4 1982.38,-135.6 1662.58,-135.6"/>
<text text-anchor="start" x="1669.58" y="-147.8" font-family="Arial" font-size="14.00">relativeageid </text>
<text text-anchor="start" x="1752.85" y="-147.8" font-family="Arial" font-size="14.00" fill="#666666">[integer]</text>
<polygon fill="none" stroke="black" points="1662.58,-104.8 1662.58,-135.6 1982.38,-135.6 1982.38,-104.8 1662.58,-104.8"/>
<text text-anchor="start" x="1669.58" y="-117" font-family="Arial" font-size="14.00">relativeagescaleid </text>
<text text-anchor="start" x="1785.54" y="-117" font-family="Arial" font-size="14.00" fill="#666666">[integer]</text>
<polygon fill="none" stroke="black" points="1662.58,-74 1662.58,-104.8 1982.38,-104.8 1982.38,-74 1662.58,-74"/>
<text text-anchor="start" x="1669.58" y="-86.2" font-family="Arial" font-size="14.00">relativeageunitid </text>
<text text-anchor="start" x="1775.43" y="-86.2" font-family="Arial" font-size="14.00" fill="#666666">[integer]</text>
</g>
<!-- ndb.speleothems&#45;&gt;ndb.relativeages -->
<g id="edge12" class="edge">
<title>ndb.speleothems:rockageid&#45;&gt;ndb.relativeages:relativeageid</title>
<path fill="none" stroke="black" d="M1893.96,-677.57C1855.02,-668.63 1884.13,-603.47 1904.99,-558.4 1924.08,-517.17 1963.4,-532.88 1982.38,-491.6 2013.98,-422.83 2059.07,-151 1983.38,-151"/>
<polygon fill="black" stroke="black" points="1893.71,-677.54 1903.2,-683.04 1899.02,-678.09 1903.33,-678.53 1903.33,-678.53 1903.33,-678.53 1899.02,-678.09 1904.12,-674.09 1893.71,-677.54"/>
<text text-anchor="start" x="1565.2" y="-688.6" font-family="Arial" font-size="10.00">FOREIGN KEY (rockageid) REFERENCES ndb.relativeages(relativeageid)</text>
</g>
<!-- ndb.sites -->
<g id="node13" class="node">
<title>ndb.sites</title>
<polygon fill="#efefef" stroke="none" points="2086.58,-443.6 2086.58,-479.2 2406.38,-479.2 2406.38,-443.6 2086.58,-443.6"/>
<polygon fill="none" stroke="black" points="2086.58,-443.6 2086.58,-479.2 2406.38,-479.2 2406.38,-443.6 2086.58,-443.6"/>
<text text-anchor="start" x="2152.48" y="-457" font-family="Arial Bold" font-size="18.00">ndb.sites</text>
<text text-anchor="start" x="2215.98" y="-457" font-family="Arial" font-size="14.00">    </text>
<text text-anchor="start" x="2247.1" y="-457" font-family="Arial" font-size="14.00" fill="#666666">[BASE TABLE]</text>
<polygon fill="none" stroke="black" points="2086.58,-412.8 2086.58,-443.6 2406.38,-443.6 2406.38,-412.8 2086.58,-412.8"/>
<text text-anchor="start" x="2093.58" y="-425" font-family="Arial" font-size="14.00">altitude </text>
<text text-anchor="start" x="2142.61" y="-425" font-family="Arial" font-size="14.00" fill="#666666">[double precision]</text>
<polygon fill="none" stroke="black" points="2086.58,-382 2086.58,-412.8 2406.38,-412.8 2406.38,-382 2086.58,-382"/>
<text text-anchor="start" x="2093.58" y="-394.2" font-family="Arial" font-size="14.00">area </text>
<text text-anchor="start" x="2125.49" y="-394.2" font-family="Arial" font-size="14.00" fill="#666666">[double precision]</text>
<polygon fill="none" stroke="black" points="2086.58,-351.2 2086.58,-382 2406.38,-382 2406.38,-351.2 2086.58,-351.2"/>
<text text-anchor="start" x="2093.58" y="-363.4" font-family="Arial" font-size="14.00">geog </text>
<text text-anchor="start" x="2128.61" y="-363.4" font-family="Arial" font-size="14.00" fill="#666666">[geography]</text>
<polygon fill="none" stroke="black" points="2086.58,-320.4 2086.58,-351.2 2406.38,-351.2 2406.38,-320.4 2086.58,-320.4"/>
<text text-anchor="start" x="2093.58" y="-332.6" font-family="Arial" font-size="14.00">latitudenorth </text>
<text text-anchor="start" x="2174.52" y="-332.6" font-family="Arial" font-size="14.00" fill="#666666">[double precision]</text>
<polygon fill="none" stroke="black" points="2086.58,-289.6 2086.58,-320.4 2406.38,-320.4 2406.38,-289.6 2086.58,-289.6"/>
<text text-anchor="start" x="2093.58" y="-301.8" font-family="Arial" font-size="14.00">latitudesouth </text>
<text text-anchor="start" x="2176.86" y="-301.8" font-family="Arial" font-size="14.00" fill="#666666">[double precision]</text>
<polygon fill="none" stroke="black" points="2086.58,-258.8 2086.58,-289.6 2406.38,-289.6 2406.38,-258.8 2086.58,-258.8"/>
<text text-anchor="start" x="2093.58" y="-271" font-family="Arial" font-size="14.00">longitudeeast </text>
<text text-anchor="start" x="2180.76" y="-271" font-family="Arial" font-size="14.00" fill="#666666">[double precision]</text>
<polygon fill="none" stroke="black" points="2086.58,-228 2086.58,-258.8 2406.38,-258.8 2406.38,-228 2086.58,-228"/>
<text text-anchor="start" x="2093.58" y="-240.2" font-family="Arial" font-size="14.00">longitudewest </text>
<text text-anchor="start" x="2183.08" y="-240.2" font-family="Arial" font-size="14.00" fill="#666666">[double precision]</text>
<polygon fill="none" stroke="black" points="2086.58,-197.2 2086.58,-228 2406.38,-228 2406.38,-197.2 2086.58,-197.2"/>
<text text-anchor="start" x="2093.58" y="-209.4" font-family="Arial" font-size="14.00">notes </text>
<text text-anchor="start" x="2131.72" y="-209.4" font-family="Arial" font-size="14.00" fill="#666666">[text]</text>
<polygon fill="none" stroke="black" points="2086.58,-166.4 2086.58,-197.2 2406.38,-197.2 2406.38,-166.4 2086.58,-166.4"/>
<text text-anchor="start" x="2093.58" y="-178.6" font-family="Arial" font-size="14.00">recdatecreated </text>
<text text-anchor="start" x="2190.86" y="-178.6" font-family="Arial" font-size="14.00" fill="#666666">[timestamp(0) without time zone]</text>
<polygon fill="none" stroke="black" points="2086.58,-135.6 2086.58,-166.4 2406.38,-166.4 2406.38,-135.6 2086.58,-135.6"/>
<text text-anchor="start" x="2093.58" y="-147.8" font-family="Arial" font-size="14.00">recdatemodified </text>
<text text-anchor="start" x="2197.08" y="-147.8" font-family="Arial" font-size="14.00" fill="#666666">[timestamp(0) without time zone]</text>
<polygon fill="none" stroke="black" points="2086.58,-104.8 2086.58,-135.6 2406.38,-135.6 2406.38,-104.8 2086.58,-104.8"/>
<text text-anchor="start" x="2093.58" y="-117" font-family="Arial" font-size="14.00">sitedescription </text>
<text text-anchor="start" x="2186.96" y="-117" font-family="Arial" font-size="14.00" fill="#666666">[text]</text>
<polygon fill="none" stroke="black" points="2086.58,-74 2086.58,-104.8 2406.38,-104.8 2406.38,-74 2086.58,-74"/>
<text text-anchor="start" x="2093.58" y="-86.2" font-family="Arial" font-size="14.00">siteid </text>
<text text-anchor="start" x="2130.15" y="-86.2" font-family="Arial" font-size="14.00" fill="#666666">[integer]</text>
<polygon fill="none" stroke="black" points="2086.58,-43.2 2086.58,-74 2406.38,-74 2406.38,-43.2 2086.58,-43.2"/>
<text text-anchor="start" x="2093.58" y="-55.4" font-family="Arial" font-size="14.00">sitename </text>
<text text-anchor="start" x="2154.27" y="-55.4" font-family="Arial" font-size="14.00" fill="#666666">[varchar(128)]</text>
</g>
<!-- ndb.speleothems&#45;&gt;ndb.sites -->
<g id="edge13" class="edge">
<title>ndb.speleothems:siteid&#45;&gt;ndb.sites:siteid</title>
<path fill="none" stroke="black" d="M2174.97,-646.27C2200.93,-637.08 2183.41,-588.52 2163.96,-558.4 2143.39,-526.53 2107.01,-554.36 2086.58,-522.4 2060.66,-481.86 2037.47,-89.4 2085.58,-89.4"/>
<polygon fill="black" stroke="black" points="2175.18,-646.24 2164.61,-643.3 2169.91,-647.04 2165.62,-647.7 2165.62,-647.7 2165.62,-647.7 2169.91,-647.04 2165.97,-652.2 2175.18,-646.24"/>
<text text-anchor="start" x="2171.96" y="-657.8" font-family="Arial" font-size="10.00">FOREIGN KEY (siteid) REFERENCES ndb.sites(siteid) ON DELETE CASCADE</text>
</g>
<!-- ndb.speleothemtypes -->
<g id="node14" class="node">
<title>ndb.speleothemtypes</title>
<polygon fill="#efefef" stroke="none" points="2510.5,-305 2510.5,-340.6 2800.46,-340.6 2800.46,-305 2510.5,-305"/>
<polygon fill="none" stroke="black" points="2510.5,-305 2510.5,-340.6 2800.46,-340.6 2800.46,-305 2510.5,-305"/>
<text text-anchor="start" x="2517.5" y="-318.4" font-family="Arial Bold" font-size="18.00">ndb.speleothemtypes</text>
<text text-anchor="start" x="2668.97" y="-318.4" font-family="Arial" font-size="14.00">    </text>
<text text-anchor="start" x="2700.09" y="-318.4" font-family="Arial" font-size="14.00" fill="#666666">[BASE TABLE]</text>
<polygon fill="none" stroke="black" points="2510.5,-274.2 2510.5,-305 2800.46,-305 2800.46,-274.2 2510.5,-274.2"/>
<text text-anchor="start" x="2517.5" y="-286.4" font-family="Arial" font-size="14.00">speleothemtype </text>
<text text-anchor="start" x="2620.23" y="-286.4" font-family="Arial" font-size="14.00" fill="#666666">[varchar(50)]</text>
<polygon fill="none" stroke="black" points="2510.5,-243.4 2510.5,-274.2 2800.46,-274.2 2800.46,-243.4 2510.5,-243.4"/>
<text text-anchor="start" x="2517.5" y="-255.6" font-family="Arial" font-size="14.00">speleothemtypeid </text>
<text text-anchor="start" x="2631.12" y="-255.6" font-family="Arial" font-size="14.00" fill="#666666">[integer]</text>
<polygon fill="none" stroke="black" points="2510.5,-212.6 2510.5,-243.4 2800.46,-243.4 2800.46,-212.6 2510.5,-212.6"/>
<text text-anchor="start" x="2517.5" y="-224.8" font-family="Arial" font-size="14.00">speleothemtypenotes </text>
<text text-anchor="start" x="2654.48" y="-224.8" font-family="Arial" font-size="14.00" fill="#666666">[text]</text>
<polygon fill="none" stroke="black" points="2510.5,-181.8 2510.5,-212.6 2800.46,-212.6 2800.46,-181.8 2510.5,-181.8"/>
<text text-anchor="start" x="2517.5" y="-194" font-family="Arial" font-size="14.00">speleothemtypepublicationid </text>
<text text-anchor="start" x="2698.06" y="-194" font-family="Arial" font-size="14.00" fill="#666666">[integer]</text>
</g>
<!-- ndb.speleothems&#45;&gt;ndb.speleothemtypes -->
<g id="edge14" class="edge">
<title>ndb.speleothems:speleothemtypeid&#45;&gt;ndb.speleothemtypes:speleothemtypeid</title>
<path fill="none" stroke="black" d="M2175.31,-616.72C2250.03,-612.92 2415.16,-571.29 2458.48,-522.4 2537.62,-433.09 2390.17,-258.8 2509.5,-258.8"/>
<polygon fill="black" stroke="black" points="2175.29,-616.72 2165.17,-612.49 2169.96,-616.86 2165.63,-616.98 2165.63,-616.98 2165.63,-616.98 2169.96,-616.86 2165.42,-621.49 2175.29,-616.72"/>
<text text-anchor="start" x="2171.96" y="-627" font-family="Arial" font-size="10.00">FOREIGN KEY (speleothemtypeid) REFERENCES ndb.speleothemtypes(speleothemtypeid)</text>
</g>
<!-- ndb.entitycovers -->
<g id="node3" class="node">
<title>ndb.entitycovers</title>
<polygon fill="#efefef" stroke="none" points="163.5,-1190.8 163.5,-1226.4 421.46,-1226.4 421.46,-1190.8 163.5,-1190.8"/>
<polygon fill="none" stroke="black" points="163.5,-1190.8 163.5,-1226.4 421.46,-1226.4 421.46,-1190.8 163.5,-1190.8"/>
<text text-anchor="start" x="170.5" y="-1204.2" font-family="Arial Bold" font-size="18.00">ndb.entitycovers</text>
<text text-anchor="start" x="289.97" y="-1204.2" font-family="Arial" font-size="14.00">    </text>
<text text-anchor="start" x="321.08" y="-1204.2" font-family="Arial" font-size="14.00" fill="#666666">[BASE TABLE]</text>
<polygon fill="none" stroke="black" points="163.5,-1160 163.5,-1190.8 421.46,-1190.8 421.46,-1160 163.5,-1160"/>
<text text-anchor="start" x="170.5" y="-1172.2" font-family="Arial" font-size="14.00">entitycoverid </text>
<text text-anchor="start" x="252.98" y="-1172.2" font-family="Arial" font-size="14.00" fill="#666666">[integer]</text>
<polygon fill="none" stroke="black" points="163.5,-1129.2 163.5,-1160 421.46,-1160 421.46,-1129.2 163.5,-1129.2"/>
<text text-anchor="start" x="170.5" y="-1141.4" font-family="Arial" font-size="14.00">entitycoverthickness </text>
<text text-anchor="start" x="300.44" y="-1141.4" font-family="Arial" font-size="14.00" fill="#666666">[real]</text>
<polygon fill="none" stroke="black" points="163.5,-1098.4 163.5,-1129.2 421.46,-1129.2 421.46,-1098.4 163.5,-1098.4"/>
<text text-anchor="start" x="170.5" y="-1110.6" font-family="Arial" font-size="14.00">entitycoverunits </text>
<text text-anchor="start" x="271.66" y="-1110.6" font-family="Arial" font-size="14.00" fill="#666666">[integer]</text>
<polygon fill="none" stroke="black" points="163.5,-1067.6 163.5,-1098.4 421.46,-1098.4 421.46,-1067.6 163.5,-1067.6"/>
<text text-anchor="start" x="170.5" y="-1079.8" font-family="Arial" font-size="14.00">entityid </text>
<text text-anchor="start" x="218.75" y="-1079.8" font-family="Arial" font-size="14.00" fill="#666666">[integer]</text>
</g>
<!-- ndb.entitycovers&#45;&gt;ndb.speleothems -->
<g id="edge2" class="edge">
<title>ndb.entitycovers:entityid&#45;&gt;ndb.speleothems:entityid</title>
<path fill="none" stroke="black" d="M432.6,-1081.9C473.78,-1071.81 429.7,-994.72 473.48,-962.8 602.43,-868.76 1744.39,-832.6 1903.99,-832.6"/>
<polygon fill="black" stroke="black" points="432.73,-1081.89 422.31,-1078.49 427.43,-1082.46 423.12,-1082.93 423.12,-1082.93 423.12,-1082.93 427.43,-1082.46 423.27,-1087.44 432.73,-1081.89"/>
<text text-anchor="start" x="7" y="-1093" font-family="Arial" font-size="10.00">FOREIGN KEY (entityid) REFERENCES ndb.speleothems(entityid) ON DELETE CASCADE</text>
</g>
<!-- ndb.entitydripheight -->
<g id="node4" class="node">
<title>ndb.entitydripheight</title>
<polygon fill="#efefef" stroke="none" points="525.99,-1190.8 525.99,-1226.4 810.96,-1226.4 810.96,-1190.8 525.99,-1190.8"/>
<polygon fill="none" stroke="black" points="525.99,-1190.8 525.99,-1226.4 810.96,-1226.4 810.96,-1190.8 525.99,-1190.8"/>
<text text-anchor="start" x="532.99" y="-1204.2" font-family="Arial Bold" font-size="18.00">ndb.entitydripheight</text>
<text text-anchor="start" x="679.47" y="-1204.2" font-family="Arial" font-size="14.00">    </text>
<text text-anchor="start" x="710.59" y="-1204.2" font-family="Arial" font-size="14.00" fill="#666666">[BASE TABLE]</text>
<polygon fill="none" stroke="black" points="525.99,-1160 525.99,-1190.8 810.96,-1190.8 810.96,-1160 525.99,-1160"/>
<text text-anchor="start" x="532.99" y="-1172.2" font-family="Arial" font-size="14.00">entitydripheight </text>
<text text-anchor="start" x="631.83" y="-1172.2" font-family="Arial" font-size="14.00" fill="#666666">[real]</text>
<polygon fill="none" stroke="black" points="525.99,-1129.2 525.99,-1160 810.96,-1160 810.96,-1129.2 525.99,-1129.2"/>
<text text-anchor="start" x="532.99" y="-1141.4" font-family="Arial" font-size="14.00">entitydripheightunit </text>
<text text-anchor="start" x="654.41" y="-1141.4" font-family="Arial" font-size="14.00" fill="#666666">[integer]</text>
<polygon fill="none" stroke="black" points="525.99,-1098.4 525.99,-1129.2 810.96,-1129.2 810.96,-1098.4 525.99,-1098.4"/>
<text text-anchor="start" x="532.99" y="-1110.6" font-family="Arial" font-size="14.00">entityid </text>
<text text-anchor="start" x="581.24" y="-1110.6" font-family="Arial" font-size="14.00" fill="#666666">[integer]</text>
<polygon fill="none" stroke="black" points="525.99,-1067.6 525.99,-1098.4 810.96,-1098.4 810.96,-1067.6 525.99,-1067.6"/>
<text text-anchor="start" x="532.99" y="-1079.8" font-family="Arial" font-size="14.00">speleothemdriptypeid </text>
<text text-anchor="start" x="669.97" y="-1079.8" font-family="Arial" font-size="14.00" fill="#666666">[integer]</text>
</g>
<!-- ndb.entitydripheight&#45;&gt;ndb.speleothems -->
<g id="edge3" class="edge">
<title>ndb.entitydripheight:entityid&#45;&gt;ndb.speleothems:entityid</title>
<path fill="none" stroke="black" d="M822.31,-1112.87C874.91,-1102.37 810.72,-1005.18 862.48,-962.8 952.71,-888.91 1787.37,-832.6 1903.99,-832.6"/>
<polygon fill="black" stroke="black" points="822.25,-1112.88 811.89,-1109.29 816.94,-1113.35 812.63,-1113.74 812.63,-1113.74 812.63,-1113.74 816.94,-1113.35 812.7,-1118.25 822.25,-1112.88"/>
<text text-anchor="start" x="607.73" y="-1097.8" font-family="Arial" font-size="10.00">FOREIGN KEY (entityid) REFERENCES ndb.speleothems(entityid) ON DELETE CASCADE</text>
</g>
<!-- ndb.entitygeology -->
<g id="node5" class="node">
<title>ndb.entitygeology</title>
<polygon fill="#efefef" stroke="none" points="914.99,-1175.4 914.99,-1211 1183.96,-1211 1183.96,-1175.4 914.99,-1175.4"/>
<polygon fill="none" stroke="black" points="914.99,-1175.4 914.99,-1211 1183.96,-1211 1183.96,-1175.4 914.99,-1175.4"/>
<text text-anchor="start" x="921.99" y="-1188.8" font-family="Arial Bold" font-size="18.00">ndb.entitygeology</text>
<text text-anchor="start" x="1052.47" y="-1188.8" font-family="Arial" font-size="14.00">    </text>
<text text-anchor="start" x="1083.59" y="-1188.8" font-family="Arial" font-size="14.00" fill="#666666">[BASE TABLE]</text>
<polygon fill="none" stroke="black" points="914.99,-1144.6 914.99,-1175.4 1183.96,-1175.4 1183.96,-1144.6 914.99,-1144.6"/>
<text text-anchor="start" x="921.99" y="-1156.8" font-family="Arial" font-size="14.00">entityid </text>
<text text-anchor="start" x="970.24" y="-1156.8" font-family="Arial" font-size="14.00" fill="#666666">[integer]</text>
<polygon fill="none" stroke="black" points="914.99,-1113.8 914.99,-1144.6 1183.96,-1144.6 1183.96,-1113.8 914.99,-1113.8"/>
<text text-anchor="start" x="921.99" y="-1126" font-family="Arial" font-size="14.00">notes </text>
<text text-anchor="start" x="960.13" y="-1126" font-family="Arial" font-size="14.00" fill="#666666">[text]</text>
<polygon fill="none" stroke="black" points="914.99,-1083 914.99,-1113.8 1183.96,-1113.8 1183.96,-1083 914.99,-1083"/>
<text text-anchor="start" x="921.99" y="-1095.2" font-family="Arial" font-size="14.00">speleothemgeologyid </text>
<text text-anchor="start" x="1058.2" y="-1095.2" font-family="Arial" font-size="14.00" fill="#666666">[integer]</text>
</g>
<!-- ndb.entitygeology&#45;&gt;ndb.speleothems -->
<g id="edge4" class="edge">
<title>ndb.entitygeology:entityid&#45;&gt;ndb.speleothems:entityid</title>
<path fill="none" stroke="black" d="M1195.15,-1159.33C1267.21,-1149.03 1173.15,-1022.27 1236.48,-962.8 1346.65,-859.35 1752.86,-832.6 1903.99,-832.6"/>
<polygon fill="black" stroke="black" points="1195.28,-1159.32 1185,-1155.49 1189.95,-1159.67 1185.63,-1159.96 1185.63,-1159.96 1185.63,-1159.96 1189.95,-1159.67 1185.59,-1164.47 1195.28,-1159.32"/>
<text text-anchor="start" x="980.73" y="-1144" font-family="Arial" font-size="10.00">FOREIGN KEY (entityid) REFERENCES ndb.speleothems(entityid) ON DELETE CASCADE</text>
</g>
<!-- ndb.entitylandusecover -->
<g id="node6" class="node">
<title>ndb.entitylandusecover</title>
<polygon fill="#efefef" stroke="none" points="1288.51,-1190.8 1288.51,-1226.4 1594.45,-1226.4 1594.45,-1190.8 1288.51,-1190.8"/>
<polygon fill="none" stroke="black" points="1288.51,-1190.8 1288.51,-1226.4 1594.45,-1226.4 1594.45,-1190.8 1288.51,-1190.8"/>
<text text-anchor="start" x="1295.51" y="-1204.2" font-family="Arial Bold" font-size="18.00">ndb.entitylandusecover</text>
<text text-anchor="start" x="1462.96" y="-1204.2" font-family="Arial" font-size="14.00">    </text>
<text text-anchor="start" x="1494.07" y="-1204.2" font-family="Arial" font-size="14.00" fill="#666666">[BASE TABLE]</text>
<polygon fill="none" stroke="black" points="1288.51,-1160 1288.51,-1190.8 1594.45,-1190.8 1594.45,-1160 1288.51,-1160"/>
<text text-anchor="start" x="1295.51" y="-1172.2" font-family="Arial" font-size="14.00">entityid </text>
<text text-anchor="start" x="1343.76" y="-1172.2" font-family="Arial" font-size="14.00" fill="#666666">[integer]</text>
<polygon fill="none" stroke="black" points="1288.51,-1129.2 1288.51,-1160 1594.45,-1160 1594.45,-1129.2 1288.51,-1129.2"/>
<text text-anchor="start" x="1295.51" y="-1141.4" font-family="Arial" font-size="14.00">landusecovernotes </text>
<text text-anchor="start" x="1416.92" y="-1141.4" font-family="Arial" font-size="14.00" fill="#666666">[text]</text>
<polygon fill="none" stroke="black" points="1288.51,-1098.4 1288.51,-1129.2 1594.45,-1129.2 1594.45,-1098.4 1288.51,-1098.4"/>
<text text-anchor="start" x="1295.51" y="-1110.6" font-family="Arial" font-size="14.00">landusecoverpercent </text>
<text text-anchor="start" x="1429.37" y="-1110.6" font-family="Arial" font-size="14.00" fill="#666666">[integer]</text>
<polygon fill="none" stroke="black" points="1288.51,-1067.6 1288.51,-1098.4 1594.45,-1098.4 1594.45,-1067.6 1288.51,-1067.6"/>
<text text-anchor="start" x="1295.51" y="-1079.8" font-family="Arial" font-size="14.00">landusecovertypeid </text>
<text text-anchor="start" x="1420.03" y="-1079.8" font-family="Arial" font-size="14.00" fill="#666666">[integer]</text>
</g>
<!-- ndb.entitylandusecover&#45;&gt;ndb.speleothems -->
<g id="edge5" class="edge">
<title>ndb.entitylandusecover:entityid&#45;&gt;ndb.speleothems:entityid</title>
<path fill="none" stroke="black" d="M1605.44,-1174.85C1684.95,-1165.36 1588.44,-1036.19 1646.48,-962.8 1726.03,-862.21 1775.74,-832.6 1903.99,-832.6"/>
<polygon fill="black" stroke="black" points="1605.77,-1174.83 1595.53,-1170.89 1600.44,-1175.12 1596.11,-1175.36 1596.11,-1175.36 1596.11,-1175.36 1600.44,-1175.12 1596.03,-1179.87 1605.77,-1174.83"/>
<text text-anchor="start" x="1496.83" y="-1159.4" font-family="Arial" font-size="10.00">FOREIGN KEY (entityid) REFERENCES ndb.speleothems(entityid) ON DELETE CASCADE</text>
</g>
<!-- ndb.entitysamples -->
<g id="node7" class="node">
<title>ndb.entitysamples</title>
<polygon fill="#efefef" stroke="none" points="1698.99,-1252.4 1698.99,-1288 1967.96,-1288 1967.96,-1252.4 1698.99,-1252.4"/>
<polygon fill="none" stroke="black" points="1698.99,-1252.4 1698.99,-1288 1967.96,-1288 1967.96,-1252.4 1698.99,-1252.4"/>
<text text-anchor="start" x="1705.99" y="-1265.8" font-family="Arial Bold" font-size="18.00">ndb.entitysamples</text>
<text text-anchor="start" x="1836.47" y="-1265.8" font-family="Arial" font-size="14.00">    </text>
<text text-anchor="start" x="1867.59" y="-1265.8" font-family="Arial" font-size="14.00" fill="#666666">[BASE TABLE]</text>
<polygon fill="none" stroke="black" points="1698.99,-1221.6 1698.99,-1252.4 1967.96,-1252.4 1967.96,-1221.6 1698.99,-1221.6"/>
<text text-anchor="start" x="1705.99" y="-1233.8" font-family="Arial" font-size="14.00">c14 </text>
<text text-anchor="start" x="1732.45" y="-1233.8" font-family="Arial" font-size="14.00" fill="#666666">[boolean]</text>
<polygon fill="none" stroke="black" points="1698.99,-1190.8 1698.99,-1221.6 1967.96,-1221.6 1967.96,-1190.8 1698.99,-1190.8"/>
<text text-anchor="start" x="1705.99" y="-1203" font-family="Arial" font-size="14.00">clumped_isotopes </text>
<text text-anchor="start" x="1822.73" y="-1203" font-family="Arial" font-size="14.00" fill="#666666">[boolean]</text>
<polygon fill="none" stroke="black" points="1698.99,-1160 1698.99,-1190.8 1967.96,-1190.8 1967.96,-1160 1698.99,-1160"/>
<text text-anchor="start" x="1705.99" y="-1172.2" font-family="Arial" font-size="14.00">entityid </text>
<text text-anchor="start" x="1754.24" y="-1172.2" font-family="Arial" font-size="14.00" fill="#666666">[integer]</text>
<polygon fill="none" stroke="black" points="1698.99,-1129.2 1698.99,-1160 1967.96,-1160 1967.96,-1129.2 1698.99,-1129.2"/>
<text text-anchor="start" x="1705.99" y="-1141.4" font-family="Arial" font-size="14.00">fluid_inclusions </text>
<text text-anchor="start" x="1804.83" y="-1141.4" font-family="Arial" font-size="14.00" fill="#666666">[boolean]</text>
<polygon fill="none" stroke="black" points="1698.99,-1098.4 1698.99,-1129.2 1967.96,-1129.2 1967.96,-1098.4 1698.99,-1098.4"/>
<text text-anchor="start" x="1705.99" y="-1110.6" font-family="Arial" font-size="14.00">mineralogy_petrology_fabric </text>
<text text-anchor="start" x="1885.76" y="-1110.6" font-family="Arial" font-size="14.00" fill="#666666">[boolean]</text>
<polygon fill="none" stroke="black" points="1698.99,-1067.6 1698.99,-1098.4 1967.96,-1098.4 1967.96,-1067.6 1698.99,-1067.6"/>
<text text-anchor="start" x="1705.99" y="-1079.8" font-family="Arial" font-size="14.00">noble_gas_temperatures </text>
<text text-anchor="start" x="1864.76" y="-1079.8" font-family="Arial" font-size="14.00" fill="#666666">[boolean]</text>
<polygon fill="none" stroke="black" points="1698.99,-1036.8 1698.99,-1067.6 1967.96,-1067.6 1967.96,-1036.8 1698.99,-1036.8"/>
<text text-anchor="start" x="1705.99" y="-1049" font-family="Arial" font-size="14.00">odl </text>
<text text-anchor="start" x="1728.56" y="-1049" font-family="Arial" font-size="14.00" fill="#666666">[boolean]</text>
<polygon fill="none" stroke="black" points="1698.99,-1006 1698.99,-1036.8 1967.96,-1036.8 1967.96,-1006 1698.99,-1006"/>
<text text-anchor="start" x="1705.99" y="-1018.2" font-family="Arial" font-size="14.00">organics </text>
<text text-anchor="start" x="1762.8" y="-1018.2" font-family="Arial" font-size="14.00" fill="#666666">[boolean]</text>
</g>
<!-- ndb.entitysamples&#45;&gt;ndb.speleothems -->
<g id="edge7" class="edge">
<title>ndb.entitysamples:entityid&#45;&gt;ndb.speleothems:entityid</title>
<path fill="none" stroke="black" d="M1978.76,-1172.4C2012.39,-1149.36 1989.91,-1000.42 1967.96,-962.8 1951.72,-934.95 1921.32,-954.6 1904.99,-926.8 1883.79,-890.7 1862.12,-832.6 1903.99,-832.6"/>
<polygon fill="black" stroke="black" points="1978.84,-1172.37 1967.96,-1171 1973.74,-1173.94 1969.6,-1175.2 1969.6,-1175.2 1969.6,-1175.2 1973.74,-1173.94 1970.6,-1179.6 1978.84,-1172.37"/>
<text text-anchor="start" x="1975.96" y="-1185.4" font-family="Arial" font-size="10.00">FOREIGN KEY (entityid) REFERENCES ndb.speleothems(entityid)</text>
</g>
<!-- ndb.entityvegetationcover -->
<g id="node8" class="node">
<title>ndb.entityvegetationcover</title>
<polygon fill="#efefef" stroke="none" points="2072.52,-1190.8 2072.52,-1226.4 2398.44,-1226.4 2398.44,-1190.8 2072.52,-1190.8"/>
<polygon fill="none" stroke="black" points="2072.52,-1190.8 2072.52,-1226.4 2398.44,-1226.4 2398.44,-1190.8 2072.52,-1190.8"/>
<text text-anchor="start" x="2079.52" y="-1204.2" font-family="Arial Bold" font-size="18.00">ndb.entityvegetationcover</text>
<text text-anchor="start" x="2266.95" y="-1204.2" font-family="Arial" font-size="14.00">    </text>
<text text-anchor="start" x="2298.07" y="-1204.2" font-family="Arial" font-size="14.00" fill="#666666">[BASE TABLE]</text>
<polygon fill="none" stroke="black" points="2072.52,-1160 2072.52,-1190.8 2398.44,-1190.8 2398.44,-1160 2072.52,-1160"/>
<text text-anchor="start" x="2079.52" y="-1172.2" font-family="Arial" font-size="14.00">entityid </text>
<text text-anchor="start" x="2127.76" y="-1172.2" font-family="Arial" font-size="14.00" fill="#666666">[integer]</text>
<polygon fill="none" stroke="black" points="2072.52,-1129.2 2072.52,-1160 2398.44,-1160 2398.44,-1129.2 2072.52,-1129.2"/>
<text text-anchor="start" x="2079.52" y="-1141.4" font-family="Arial" font-size="14.00">vegetationcovernotes </text>
<text text-anchor="start" x="2216.49" y="-1141.4" font-family="Arial" font-size="14.00" fill="#666666">[text]</text>
<polygon fill="none" stroke="black" points="2072.52,-1098.4 2072.52,-1129.2 2398.44,-1129.2 2398.44,-1098.4 2072.52,-1098.4"/>
<text text-anchor="start" x="2079.52" y="-1110.6" font-family="Arial" font-size="14.00">vegetationcoverpercent </text>
<text text-anchor="start" x="2228.94" y="-1110.6" font-family="Arial" font-size="14.00" fill="#666666">[integer]</text>
<polygon fill="none" stroke="black" points="2072.52,-1067.6 2072.52,-1098.4 2398.44,-1098.4 2398.44,-1067.6 2072.52,-1067.6"/>
<text text-anchor="start" x="2079.52" y="-1079.8" font-family="Arial" font-size="14.00">vegetationcovertypeid </text>
<text text-anchor="start" x="2219.6" y="-1079.8" font-family="Arial" font-size="14.00" fill="#666666">[integer]</text>
</g>
<!-- ndb.entityvegetationcover&#45;&gt;ndb.speleothems -->
<g id="edge8" class="edge">
<title>ndb.entityvegetationcover:entityid&#45;&gt;ndb.speleothems:entityid</title>
<path fill="none" stroke="black" d="M2061.15,-1174.57C2009.24,-1165.44 2049.05,-1083.2 2072.52,-1024.4 2094.55,-969.19 2141.82,-981.96 2163.96,-926.8 2179.56,-887.94 2206.83,-832.6 2164.96,-832.6"/>
<polygon fill="black" stroke="black" points="2061.21,-1174.57 2070.82,-1179.86 2066.53,-1175 2070.85,-1175.35 2070.85,-1175.35 2070.85,-1175.35 2066.53,-1175 2071.54,-1170.89 2061.21,-1174.57"/>
<text text-anchor="start" x="1972.9" y="-1159.4" font-family="Arial" font-size="10.00">FOREIGN KEY (entityid) REFERENCES ndb.speleothems(entityid) ON DELETE CASCADE</text>
</g>
<!-- ndb.externalspeleothemdata -->
<g id="node9" class="node">
<title>ndb.externalspeleothemdata</title>
<polygon fill="#efefef" stroke="none" points="2502.52,-1190.8 2502.52,-1226.4 2842.43,-1226.4 2842.43,-1190.8 2502.52,-1190.8"/>
<polygon fill="none" stroke="black" points="2502.52,-1190.8 2502.52,-1226.4 2842.43,-1226.4 2842.43,-1190.8 2502.52,-1190.8"/>
<text text-anchor="start" x="2509.52" y="-1204.2" font-family="Arial Bold" font-size="18.00">ndb.externalspeleothemdata</text>
<text text-anchor="start" x="2710.94" y="-1204.2" font-family="Arial" font-size="14.00">    </text>
<text text-anchor="start" x="2742.06" y="-1204.2" font-family="Arial" font-size="14.00" fill="#666666">[BASE TABLE]</text>
<polygon fill="none" stroke="black" points="2502.52,-1160 2502.52,-1190.8 2842.43,-1190.8 2842.43,-1160 2502.52,-1160"/>
<text text-anchor="start" x="2509.52" y="-1172.2" font-family="Arial" font-size="14.00">entityid </text>
<text text-anchor="start" x="2557.77" y="-1172.2" font-family="Arial" font-size="14.00" fill="#666666">[integer]</text>
<polygon fill="none" stroke="black" points="2502.52,-1129.2 2502.52,-1160 2842.43,-1160 2842.43,-1129.2 2502.52,-1129.2"/>
<text text-anchor="start" x="2509.52" y="-1141.4" font-family="Arial" font-size="14.00">extdatabaseid </text>
<text text-anchor="start" x="2600.59" y="-1141.4" font-family="Arial" font-size="14.00" fill="#666666">[integer]</text>
<polygon fill="none" stroke="black" points="2502.52,-1098.4 2502.52,-1129.2 2842.43,-1129.2 2842.43,-1098.4 2502.52,-1098.4"/>
<text text-anchor="start" x="2509.52" y="-1110.6" font-family="Arial" font-size="14.00">externaldescription </text>
<text text-anchor="start" x="2630.92" y="-1110.6" font-family="Arial" font-size="14.00" fill="#666666">[text]</text>
<polygon fill="none" stroke="black" points="2502.52,-1067.6 2502.52,-1098.4 2842.43,-1098.4 2842.43,-1067.6 2502.52,-1067.6"/>
<text text-anchor="start" x="2509.52" y="-1079.8" font-family="Arial" font-size="14.00">externalid </text>
<text text-anchor="start" x="2574.12" y="-1079.8" font-family="Arial" font-size="14.00" fill="#666666">[text]</text>
</g>
<!-- ndb.externalspeleothemdata&#45;&gt;ndb.speleothems -->
<g id="edge9" class="edge">
<title>ndb.externalspeleothemdata:entityid&#45;&gt;ndb.speleothems:entityid</title>
<path fill="none" stroke="black" d="M2491.53,-1174.84C2412.13,-1165.27 2509.99,-1035.01 2450.48,-962.8 2361.78,-855.17 2304.43,-832.6 2164.96,-832.6"/>
<polygon fill="black" stroke="black" points="2491.21,-1174.82 2500.94,-1179.87 2496.53,-1175.12 2500.86,-1175.36 2500.86,-1175.36 2500.86,-1175.36 2496.53,-1175.12 2501.44,-1170.89 2491.21,-1174.82"/>
<text text-anchor="start" x="2508.52" y="-1185.4" font-family="Arial" font-size="10.00">FOREIGN KEY (entityid) REFERENCES ndb.speleothems(entityid) ON DELETE CASCADE</text>
</g>
<!-- ndb.speleothemcollectionunits -->
<g id="node10" class="node">
<title>ndb.speleothemcollectionunits</title>
<polygon fill="#efefef" stroke="none" points="2946.51,-1175.4 2946.51,-1211 3304.45,-1211 3304.45,-1175.4 2946.51,-1175.4"/>
<polygon fill="none" stroke="black" points="2946.51,-1175.4 2946.51,-1211 3304.45,-1211 3304.45,-1175.4 2946.51,-1175.4"/>
<text text-anchor="start" x="2953.51" y="-1188.8" font-family="Arial Bold" font-size="18.00">ndb.speleothemcollectionunits</text>
<text text-anchor="start" x="3172.96" y="-1188.8" font-family="Arial" font-size="14.00">    </text>
<text text-anchor="start" x="3204.08" y="-1188.8" font-family="Arial" font-size="14.00" fill="#666666">[BASE TABLE]</text>
<polygon fill="none" stroke="black" points="2946.51,-1144.6 2946.51,-1175.4 3304.45,-1175.4 3304.45,-1144.6 2946.51,-1144.6"/>
<text text-anchor="start" x="2953.51" y="-1156.8" font-family="Arial" font-size="14.00">collectionunitid </text>
<text text-anchor="start" x="3049.23" y="-1156.8" font-family="Arial" font-size="14.00" fill="#666666">[integer]</text>
<polygon fill="none" stroke="black" points="2946.51,-1113.8 2946.51,-1144.6 3304.45,-1144.6 3304.45,-1113.8 2946.51,-1113.8"/>
<text text-anchor="start" x="2953.51" y="-1126" font-family="Arial" font-size="14.00">entityid </text>
<text text-anchor="start" x="3001.75" y="-1126" font-family="Arial" font-size="14.00" fill="#666666">[integer]</text>
<polygon fill="none" stroke="black" points="2946.51,-1083 2946.51,-1113.8 3304.45,-1113.8 3304.45,-1083 2946.51,-1083"/>
<text text-anchor="start" x="2953.51" y="-1095.2" font-family="Arial" font-size="14.00">persistid </text>
<text text-anchor="start" x="3009.53" y="-1095.2" font-family="Arial" font-size="14.00" fill="#666666">[text]</text>
</g>
<!-- ndb.speleothemcollectionunits&#45;&gt;ndb.speleothems -->
<g id="edge10" class="edge">
<title>ndb.speleothemcollectionunits:entityid&#45;&gt;ndb.speleothems:entityid</title>
<path fill="none" stroke="black" d="M2935.29,-1128.4C2876.04,-1118.11 2949.55,-1011.59 2894.48,-962.8 2771.21,-853.61 2329.64,-832.6 2164.96,-832.6"/>
<polygon fill="black" stroke="black" points="2935.2,-1128.39 2944.82,-1133.66 2940.52,-1128.81 2944.84,-1129.15 2944.84,-1129.15 2944.84,-1129.15 2940.52,-1128.81 2945.53,-1124.69 2935.2,-1128.39"/>
<text text-anchor="start" x="2635.66" y="-1113.2" font-family="Arial" font-size="10.00">FOREIGN KEY (entityid) REFERENCES ndb.speleothems(entityid) ON DELETE CASCADE</text>
</g>
</g>
</svg>
