<?xml version="1.0" encoding="UTF-8" standalone="no"?>
<!DOCTYPE svg PUBLIC "-//W3C//DTD SVG 1.1//EN"
 "http://www.w3.org/Graphics/SVG/1.1/DTD/svg11.dtd">
<!-- Generated by graphviz version 12.1.2 (20240928.0832)
 -->
<!-- Title: ndb.elementdatasettaxagroups Pages: 1 -->
<svg width="3741pt" height="842pt"
 viewBox="0.00 0.00 3740.51 842.40" xmlns="http://www.w3.org/2000/svg" xmlns:xlink="http://www.w3.org/1999/xlink">
<g id="graph0" class="graph" transform="scale(1 1) rotate(0) translate(4 838.4)">
<title>ndb.elementdatasettaxagroups</title>
<polygon fill="white" stroke="none" points="-4,4 -4,-838.4 3736.51,-838.4 3736.51,4 -4,4"/>
<!-- ndb.elementdatasettaxagroups -->
<g id="node1" class="node">
<title>ndb.elementdatasettaxagroups</title>
<polygon fill="#efefef" stroke="none" points="2048.45,-617 2048.45,-652.6 2404.37,-652.6 2404.37,-617 2048.45,-617"/>
<polygon fill="none" stroke="black" points="2048.45,-617 2048.45,-652.6 2404.37,-652.6 2404.37,-617 2048.45,-617"/>
<text text-anchor="start" x="2055.45" y="-630.4" font-family="Arial Bold" font-size="18.00">ndb.elementdatasettaxagroups</text>
<text text-anchor="start" x="2272.88" y="-630.4" font-family="Arial" font-size="14.00">    </text>
<text text-anchor="start" x="2303.99" y="-630.4" font-family="Arial" font-size="14.00" fill="#666666">[BASE TABLE]</text>
<polygon fill="none" stroke="black" points="2048.45,-586.2 2048.45,-617 2404.37,-617 2404.37,-586.2 2048.45,-586.2"/>
<text text-anchor="start" x="2055.45" y="-598.4" font-family="Arial" font-size="14.00">datasettypeid </text>
<text text-anchor="start" x="2142.62" y="-598.4" font-family="Arial" font-size="14.00" fill="#666666">[integer]</text>
<polygon fill="none" stroke="black" points="2048.45,-555.4 2048.45,-586.2 2404.37,-586.2 2404.37,-555.4 2048.45,-555.4"/>
<text text-anchor="start" x="2055.45" y="-567.6" font-family="Arial" font-size="14.00">elementtypeid </text>
<text text-anchor="start" x="2146.51" y="-567.6" font-family="Arial" font-size="14.00" fill="#666666">[integer]</text>
<polygon fill="none" stroke="black" points="2048.45,-524.6 2048.45,-555.4 2404.37,-555.4 2404.37,-524.6 2048.45,-524.6"/>
<text text-anchor="start" x="2055.45" y="-536.8" font-family="Arial" font-size="14.00">recdatecreated </text>
<text text-anchor="start" x="2152.73" y="-536.8" font-family="Arial" font-size="14.00" fill="#666666">[timestamp(0) without time zone]</text>
<polygon fill="none" stroke="black" points="2048.45,-493.8 2048.45,-524.6 2404.37,-524.6 2404.37,-493.8 2048.45,-493.8"/>
<text text-anchor="start" x="2055.45" y="-506" font-family="Arial" font-size="14.00">recdatemodified </text>
<text text-anchor="start" x="2158.96" y="-506" font-family="Arial" font-size="14.00" fill="#666666">[timestamp(0) without time zone]</text>
<polygon fill="none" stroke="black" points="2048.45,-463 2048.45,-493.8 2404.37,-493.8 2404.37,-463 2048.45,-463"/>
<text text-anchor="start" x="2055.45" y="-475.2" font-family="Arial" font-size="14.00">taxagroupid </text>
<text text-anchor="start" x="2132.51" y="-475.2" font-family="Arial" font-size="14.00" fill="#666666">[varchar(3)]</text>
<polygon fill="none" stroke="black" stroke-width="3" points="2046.95,-461.5 2046.95,-654.1 2405.87,-654.1 2405.87,-461.5 2046.95,-461.5"/>
</g>
<!-- ndb.datasettypes -->
<g id="node2" class="node">
<title>ndb.datasettypes</title>
<polygon fill="#efefef" stroke="none" points="1389.51,-166.4 1389.51,-202 1709.31,-202 1709.31,-166.4 1389.51,-166.4"/>
<polygon fill="none" stroke="black" points="1389.51,-166.4 1389.51,-202 1709.31,-202 1709.31,-166.4 1389.51,-166.4"/>
<text text-anchor="start" x="1427.43" y="-179.8" font-family="Arial Bold" font-size="18.00">ndb.datasettypes</text>
<text text-anchor="start" x="1546.9" y="-179.8" font-family="Arial" font-size="14.00">    </text>
<text text-anchor="start" x="1578.02" y="-179.8" font-family="Arial" font-size="14.00" fill="#666666">[BASE TABLE]</text>
<polygon fill="none" stroke="black" points="1389.51,-135.6 1389.51,-166.4 1709.31,-166.4 1709.31,-135.6 1389.51,-135.6"/>
<text text-anchor="start" x="1396.51" y="-147.8" font-family="Arial" font-size="14.00">datasettype </text>
<text text-anchor="start" x="1472.79" y="-147.8" font-family="Arial" font-size="14.00" fill="#666666">[varchar(64)]</text>
<polygon fill="none" stroke="black" points="1389.51,-104.8 1389.51,-135.6 1709.31,-135.6 1709.31,-104.8 1389.51,-104.8"/>
<text text-anchor="start" x="1396.51" y="-117" font-family="Arial" font-size="14.00">datasettypeid </text>
<text text-anchor="start" x="1483.68" y="-117" font-family="Arial" font-size="14.00" fill="#666666">[integer]</text>
<polygon fill="none" stroke="black" points="1389.51,-74 1389.51,-104.8 1709.31,-104.8 1709.31,-74 1389.51,-74"/>
<text text-anchor="start" x="1396.51" y="-86.2" font-family="Arial" font-size="14.00">recdatecreated </text>
<text text-anchor="start" x="1493.79" y="-86.2" font-family="Arial" font-size="14.00" fill="#666666">[timestamp(0) without time zone]</text>
<polygon fill="none" stroke="black" points="1389.51,-43.2 1389.51,-74 1709.31,-74 1709.31,-43.2 1389.51,-43.2"/>
<text text-anchor="start" x="1396.51" y="-55.4" font-family="Arial" font-size="14.00">recdatemodified </text>
<text text-anchor="start" x="1500.01" y="-55.4" font-family="Arial" font-size="14.00" fill="#666666">[timestamp(0) without time zone]</text>
</g>
<!-- ndb.elementdatasettaxagroups&#45;&gt;ndb.datasettypes -->
<g id="edge1" class="edge">
<title>ndb.elementdatasettaxagroups:datasettypeid&#45;&gt;ndb.datasettypes:datasettypeid</title>
<path fill="none" stroke="black" d="M2037.44,-599.64C1981.03,-575.59 2032.7,-337.36 1993.41,-281.2 1910.44,-162.59 1855.05,-120.2 1710.31,-120.2"/>
<polygon fill="black" stroke="black" points="2037.31,-599.61 2046.26,-605.95 2042.55,-600.64 2046.8,-601.47 2046.8,-601.47 2046.8,-601.47 2042.55,-600.64 2047.99,-597.12 2037.31,-599.61"/>
<text text-anchor="start" x="1778.84" y="-585.6" font-family="Arial" font-size="10.00">FOREIGN KEY (datasettypeid) REFERENCES ndb.datasettypes(datasettypeid)</text>
</g>
<!-- ndb.taxagrouptypes -->
<g id="node8" class="node">
<title>ndb.taxagrouptypes</title>
<polygon fill="#efefef" stroke="none" points="2730.51,-166.4 2730.51,-202 3050.31,-202 3050.31,-166.4 2730.51,-166.4"/>
<polygon fill="none" stroke="black" points="2730.51,-166.4 2730.51,-202 3050.31,-202 3050.31,-166.4 2730.51,-166.4"/>
<text text-anchor="start" x="2757.43" y="-179.8" font-family="Arial Bold" font-size="18.00">ndb.taxagrouptypes</text>
<text text-anchor="start" x="2898.9" y="-179.8" font-family="Arial" font-size="14.00">    </text>
<text text-anchor="start" x="2930.02" y="-179.8" font-family="Arial" font-size="14.00" fill="#666666">[BASE TABLE]</text>
<polygon fill="none" stroke="black" points="2730.51,-135.6 2730.51,-166.4 3050.31,-166.4 3050.31,-135.6 2730.51,-135.6"/>
<text text-anchor="start" x="2737.51" y="-147.8" font-family="Arial" font-size="14.00">recdatecreated </text>
<text text-anchor="start" x="2834.79" y="-147.8" font-family="Arial" font-size="14.00" fill="#666666">[timestamp(0) without time zone]</text>
<polygon fill="none" stroke="black" points="2730.51,-104.8 2730.51,-135.6 3050.31,-135.6 3050.31,-104.8 2730.51,-104.8"/>
<text text-anchor="start" x="2737.51" y="-117" font-family="Arial" font-size="14.00">recdatemodified </text>
<text text-anchor="start" x="2841.01" y="-117" font-family="Arial" font-size="14.00" fill="#666666">[timestamp(0) without time zone]</text>
<polygon fill="none" stroke="black" points="2730.51,-74 2730.51,-104.8 3050.31,-104.8 3050.31,-74 2730.51,-74"/>
<text text-anchor="start" x="2737.51" y="-86.2" font-family="Arial" font-size="14.00">taxagroup </text>
<text text-anchor="start" x="2803.67" y="-86.2" font-family="Arial" font-size="14.00" fill="#666666">[varchar(64)]</text>
<polygon fill="none" stroke="black" points="2730.51,-43.2 2730.51,-74 3050.31,-74 3050.31,-43.2 2730.51,-43.2"/>
<text text-anchor="start" x="2737.51" y="-55.4" font-family="Arial" font-size="14.00">taxagroupid </text>
<text text-anchor="start" x="2814.56" y="-55.4" font-family="Arial" font-size="14.00" fill="#666666">[varchar(3)]</text>
</g>
<!-- ndb.elementdatasettaxagroups&#45;&gt;ndb.taxagrouptypes -->
<g id="edge7" class="edge">
<title>ndb.elementdatasettaxagroups:taxagroupid&#45;&gt;ndb.taxagrouptypes:taxagroupid</title>
<path fill="none" stroke="black" d="M2415.68,-477.8C2489.4,-468.56 2412.05,-354.36 2459.41,-281.2 2543.94,-150.61 2573.95,-58.6 2729.51,-58.6"/>
<polygon fill="black" stroke="black" points="2415.68,-477.8 2405.44,-473.89 2410.36,-478.11 2406.03,-478.36 2406.03,-478.36 2406.03,-478.36 2410.36,-478.11 2405.96,-482.87 2415.68,-477.8"/>
<text text-anchor="start" x="2230.01" y="-462.4" font-family="Arial" font-size="10.00">FOREIGN KEY (taxagroupid) REFERENCES ndb.taxagrouptypes(taxagroupid)</text>
</g>
<!-- ndb.contextsdatasettypes -->
<g id="node3" class="node">
<title>ndb.contextsdatasettypes</title>
<polygon fill="#efefef" stroke="none" points="269.51,-601.6 269.51,-637.2 589.31,-637.2 589.31,-601.6 269.51,-601.6"/>
<polygon fill="none" stroke="black" points="269.51,-601.6 269.51,-637.2 589.31,-637.2 589.31,-601.6 269.51,-601.6"/>
<text text-anchor="start" x="277.44" y="-615" font-family="Arial Bold" font-size="18.00">ndb.contextsdatasettypes</text>
<text text-anchor="start" x="456.89" y="-615" font-family="Arial" font-size="14.00">    </text>
<text text-anchor="start" x="488.01" y="-615" font-family="Arial" font-size="14.00" fill="#666666">[BASE TABLE]</text>
<polygon fill="none" stroke="black" points="269.51,-570.8 269.51,-601.6 589.31,-601.6 589.31,-570.8 269.51,-570.8"/>
<text text-anchor="start" x="276.51" y="-583" font-family="Arial" font-size="14.00">datasettypeid </text>
<text text-anchor="start" x="363.68" y="-583" font-family="Arial" font-size="14.00" fill="#666666">[integer]</text>
<polygon fill="none" stroke="black" points="269.51,-540 269.51,-570.8 589.31,-570.8 589.31,-540 269.51,-540"/>
<text text-anchor="start" x="276.51" y="-552.2" font-family="Arial" font-size="14.00">recdatecreated </text>
<text text-anchor="start" x="373.79" y="-552.2" font-family="Arial" font-size="14.00" fill="#666666">[timestamp(0) without time zone]</text>
<polygon fill="none" stroke="black" points="269.51,-509.2 269.51,-540 589.31,-540 589.31,-509.2 269.51,-509.2"/>
<text text-anchor="start" x="276.51" y="-521.4" font-family="Arial" font-size="14.00">recdatemodified </text>
<text text-anchor="start" x="380.01" y="-521.4" font-family="Arial" font-size="14.00" fill="#666666">[timestamp(0) without time zone]</text>
<polygon fill="none" stroke="black" points="269.51,-478.4 269.51,-509.2 589.31,-509.2 589.31,-478.4 269.51,-478.4"/>
<text text-anchor="start" x="276.51" y="-490.6" font-family="Arial" font-size="14.00">variablecontextid </text>
<text text-anchor="start" x="385.46" y="-490.6" font-family="Arial" font-size="14.00" fill="#666666">[integer]</text>
</g>
<!-- ndb.contextsdatasettypes&#45;&gt;ndb.datasettypes -->
<g id="edge2" class="edge">
<title>ndb.contextsdatasettypes:datasettypeid&#45;&gt;ndb.datasettypes:datasettypeid</title>
<path fill="none" stroke="black" d="M600.42,-583.98C652.25,-558.89 596.55,-328.19 641.41,-281.2 758.69,-158.36 1218.68,-120.2 1388.51,-120.2"/>
<polygon fill="black" stroke="black" points="600.4,-583.99 589.67,-581.73 595.19,-585.13 590.96,-586.06 590.96,-586.06 590.96,-586.06 595.19,-585.13 591.6,-590.52 600.4,-583.99"/>
<text text-anchor="start" x="7" y="-596.2" font-family="Arial" font-size="10.00">FOREIGN KEY (datasettypeid) REFERENCES ndb.datasettypes(datasettypeid) ON UPDATE CASCADE ON DELETE CASCADE</text>
</g>
<!-- ndb.datasets -->
<g id="node4" class="node">
<title>ndb.datasets</title>
<polygon fill="#efefef" stroke="none" points="693.51,-663.2 693.51,-698.8 1013.31,-698.8 1013.31,-663.2 693.51,-663.2"/>
<polygon fill="none" stroke="black" points="693.51,-663.2 693.51,-698.8 1013.31,-698.8 1013.31,-663.2 693.51,-663.2"/>
<text text-anchor="start" x="746.92" y="-676.6" font-family="Arial Bold" font-size="18.00">ndb.datasets</text>
<text text-anchor="start" x="835.4" y="-676.6" font-family="Arial" font-size="14.00">    </text>
<text text-anchor="start" x="866.52" y="-676.6" font-family="Arial" font-size="14.00" fill="#666666">[BASE TABLE]</text>
<polygon fill="none" stroke="black" points="693.51,-632.4 693.51,-663.2 1013.31,-663.2 1013.31,-632.4 693.51,-632.4"/>
<text text-anchor="start" x="700.51" y="-644.6" font-family="Arial" font-size="14.00">collectionunitid </text>
<text text-anchor="start" x="796.23" y="-644.6" font-family="Arial" font-size="14.00" fill="#666666">[integer]</text>
<polygon fill="none" stroke="black" points="693.51,-601.6 693.51,-632.4 1013.31,-632.4 1013.31,-601.6 693.51,-601.6"/>
<text text-anchor="start" x="700.51" y="-613.8" font-family="Arial" font-size="14.00">datasetid </text>
<text text-anchor="start" x="761.22" y="-613.8" font-family="Arial" font-size="14.00" fill="#666666">[integer]</text>
<polygon fill="none" stroke="black" points="693.51,-570.8 693.51,-601.6 1013.31,-601.6 1013.31,-570.8 693.51,-570.8"/>
<text text-anchor="start" x="700.51" y="-583" font-family="Arial" font-size="14.00">datasetname </text>
<text text-anchor="start" x="785.34" y="-583" font-family="Arial" font-size="14.00" fill="#666666">[varchar(80)]</text>
<polygon fill="none" stroke="black" points="693.51,-540 693.51,-570.8 1013.31,-570.8 1013.31,-540 693.51,-540"/>
<text text-anchor="start" x="700.51" y="-552.2" font-family="Arial" font-size="14.00">datasettypeid </text>
<text text-anchor="start" x="787.68" y="-552.2" font-family="Arial" font-size="14.00" fill="#666666">[integer]</text>
<polygon fill="none" stroke="black" points="693.51,-509.2 693.51,-540 1013.31,-540 1013.31,-509.2 693.51,-509.2"/>
<text text-anchor="start" x="700.51" y="-521.4" font-family="Arial" font-size="14.00">embargoid </text>
<text text-anchor="start" x="770.55" y="-521.4" font-family="Arial" font-size="14.00" fill="#666666">[integer]</text>
<polygon fill="none" stroke="black" points="693.51,-478.4 693.51,-509.2 1013.31,-509.2 1013.31,-478.4 693.51,-478.4"/>
<text text-anchor="start" x="700.51" y="-490.6" font-family="Arial" font-size="14.00">notes </text>
<text text-anchor="start" x="738.65" y="-490.6" font-family="Arial" font-size="14.00" fill="#666666">[text]</text>
<polygon fill="none" stroke="black" points="693.51,-447.6 693.51,-478.4 1013.31,-478.4 1013.31,-447.6 693.51,-447.6"/>
<text text-anchor="start" x="700.51" y="-459.8" font-family="Arial" font-size="14.00">recdatecreated </text>
<text text-anchor="start" x="797.79" y="-459.8" font-family="Arial" font-size="14.00" fill="#666666">[timestamp(0) without time zone]</text>
<polygon fill="none" stroke="black" points="693.51,-416.8 693.51,-447.6 1013.31,-447.6 1013.31,-416.8 693.51,-416.8"/>
<text text-anchor="start" x="700.51" y="-429" font-family="Arial" font-size="14.00">recdatemodified </text>
<text text-anchor="start" x="804.01" y="-429" font-family="Arial" font-size="14.00" fill="#666666">[timestamp(0) without time zone]</text>
</g>
<!-- ndb.datasets&#45;&gt;ndb.datasettypes -->
<g id="edge3" class="edge">
<title>ndb.datasets:datasettypeid&#45;&gt;ndb.datasettypes:datasettypeid</title>
<path fill="none" stroke="black" d="M1024.4,-553.02C1070.77,-528.83 1030.34,-327.68 1065.41,-281.2 1162.04,-153.13 1228.07,-120.2 1388.51,-120.2"/>
<polygon fill="black" stroke="black" points="1024.37,-553.02 1013.6,-550.94 1019.17,-554.25 1014.96,-555.25 1014.96,-555.25 1014.96,-555.25 1019.17,-554.25 1015.67,-559.7 1024.37,-553.02"/>
<text text-anchor="start" x="726.15" y="-539.4" font-family="Arial" font-size="10.00">FOREIGN KEY (datasettypeid) REFERENCES ndb.datasettypes(datasettypeid) ON UPDATE CASCADE ON DELETE CASCADE</text>
</g>
<!-- ndb.datasettaxagrouptypes -->
<g id="node5" class="node">
<title>ndb.datasettaxagrouptypes</title>
<polygon fill="#efefef" stroke="none" points="2511.44,-601.6 2511.44,-637.2 2841.38,-637.2 2841.38,-601.6 2511.44,-601.6"/>
<polygon fill="none" stroke="black" points="2511.44,-601.6 2511.44,-637.2 2841.38,-637.2 2841.38,-601.6 2511.44,-601.6"/>
<text text-anchor="start" x="2518.44" y="-615" font-family="Arial Bold" font-size="18.00">ndb.datasettaxagrouptypes</text>
<text text-anchor="start" x="2709.89" y="-615" font-family="Arial" font-size="14.00">    </text>
<text text-anchor="start" x="2741" y="-615" font-family="Arial" font-size="14.00" fill="#666666">[BASE TABLE]</text>
<polygon fill="none" stroke="black" points="2511.44,-570.8 2511.44,-601.6 2841.38,-601.6 2841.38,-570.8 2511.44,-570.8"/>
<text text-anchor="start" x="2518.44" y="-583" font-family="Arial" font-size="14.00">datasettypeid </text>
<text text-anchor="start" x="2605.61" y="-583" font-family="Arial" font-size="14.00" fill="#666666">[integer]</text>
<polygon fill="none" stroke="black" points="2511.44,-540 2511.44,-570.8 2841.38,-570.8 2841.38,-540 2511.44,-540"/>
<text text-anchor="start" x="2518.44" y="-552.2" font-family="Arial" font-size="14.00">recdatecreated </text>
<text text-anchor="start" x="2615.73" y="-552.2" font-family="Arial" font-size="14.00" fill="#666666">[timestamp(0) without time zone]</text>
<polygon fill="none" stroke="black" points="2511.44,-509.2 2511.44,-540 2841.38,-540 2841.38,-509.2 2511.44,-509.2"/>
<text text-anchor="start" x="2518.44" y="-521.4" font-family="Arial" font-size="14.00">recdatemodified </text>
<text text-anchor="start" x="2621.95" y="-521.4" font-family="Arial" font-size="14.00" fill="#666666">[timestamp(0) without time zone]</text>
<polygon fill="none" stroke="black" points="2511.44,-478.4 2511.44,-509.2 2841.38,-509.2 2841.38,-478.4 2511.44,-478.4"/>
<text text-anchor="start" x="2518.44" y="-490.6" font-family="Arial" font-size="14.00">taxagroupid </text>
<text text-anchor="start" x="2595.5" y="-490.6" font-family="Arial" font-size="14.00" fill="#666666">[varchar(3)]</text>
</g>
<!-- ndb.datasettaxagrouptypes&#45;&gt;ndb.datasettypes -->
<g id="edge4" class="edge">
<title>ndb.datasettaxagrouptypes:datasettypeid&#45;&gt;ndb.datasettypes:datasettypeid</title>
<path fill="none" stroke="black" d="M2500.33,-583.98C2448.51,-558.89 2504.28,-328.18 2459.41,-281.2 2341.81,-158.07 1880.58,-120.2 1710.31,-120.2"/>
<polygon fill="black" stroke="black" points="2500.35,-583.99 2509.15,-590.52 2505.56,-585.13 2509.79,-586.06 2509.79,-586.06 2509.79,-586.06 2505.56,-585.13 2511.08,-581.73 2500.35,-583.99"/>
<text text-anchor="start" x="2222.29" y="-570.2" font-family="Arial" font-size="10.00">FOREIGN KEY (datasettypeid) REFERENCES ndb.datasettypes(datasettypeid) ON UPDATE CASCADE ON DELETE CASCADE</text>
</g>
<!-- ndb.datasettaxagrouptypes&#45;&gt;ndb.taxagrouptypes -->
<g id="edge8" class="edge">
<title>ndb.datasettaxagrouptypes:taxagroupid&#45;&gt;ndb.taxagrouptypes:taxagroupid</title>
<path fill="none" stroke="black" d="M2852.3,-490.8C2861.64,-482.03 2847.13,-455.78 2841.38,-435.2 2815.05,-341.04 2756.28,-339.51 2730.51,-245.2 2708.65,-165.2 2646.58,-58.6 2729.51,-58.6"/>
<polygon fill="black" stroke="black" points="2852.27,-490.81 2841.39,-489.4 2847.16,-492.35 2843.02,-493.61 2843.02,-493.61 2843.02,-493.61 2847.16,-492.35 2844,-498.01 2852.27,-490.81"/>
<text text-anchor="start" x="2849.38" y="-503.8" font-family="Arial" font-size="10.00">FOREIGN KEY (taxagroupid) REFERENCES ndb.taxagrouptypes(taxagroupid) ON UPDATE CASCADE ON DELETE CASCADE</text>
</g>
<!-- ndb.taphonomicsystemsdatasettypes -->
<g id="node6" class="node">
<title>ndb.taphonomicsystemsdatasettypes</title>
<polygon fill="#efefef" stroke="none" points="1117.44,-601.6 1117.44,-637.2 1517.38,-637.2 1517.38,-601.6 1117.44,-601.6"/>
<polygon fill="none" stroke="black" points="1117.44,-601.6 1117.44,-637.2 1517.38,-637.2 1517.38,-601.6 1117.44,-601.6"/>
<text text-anchor="start" x="1124.44" y="-615" font-family="Arial Bold" font-size="18.00">ndb.taphonomicsystemsdatasettypes</text>
<text text-anchor="start" x="1385.89" y="-615" font-family="Arial" font-size="14.00">    </text>
<text text-anchor="start" x="1417.01" y="-615" font-family="Arial" font-size="14.00" fill="#666666">[BASE TABLE]</text>
<polygon fill="none" stroke="black" points="1117.44,-570.8 1117.44,-601.6 1517.38,-601.6 1517.38,-570.8 1117.44,-570.8"/>
<text text-anchor="start" x="1124.44" y="-583" font-family="Arial" font-size="14.00">datasettypeid </text>
<text text-anchor="start" x="1211.61" y="-583" font-family="Arial" font-size="14.00" fill="#666666">[integer]</text>
<polygon fill="none" stroke="black" points="1117.44,-540 1117.44,-570.8 1517.38,-570.8 1517.38,-540 1117.44,-540"/>
<text text-anchor="start" x="1124.44" y="-552.2" font-family="Arial" font-size="14.00">recdatecreated </text>
<text text-anchor="start" x="1221.72" y="-552.2" font-family="Arial" font-size="14.00" fill="#666666">[timestamp(0) without time zone]</text>
<polygon fill="none" stroke="black" points="1117.44,-509.2 1117.44,-540 1517.38,-540 1517.38,-509.2 1117.44,-509.2"/>
<text text-anchor="start" x="1124.44" y="-521.4" font-family="Arial" font-size="14.00">recdatemodified </text>
<text text-anchor="start" x="1227.94" y="-521.4" font-family="Arial" font-size="14.00" fill="#666666">[timestamp(0) without time zone]</text>
<polygon fill="none" stroke="black" points="1117.44,-478.4 1117.44,-509.2 1517.38,-509.2 1517.38,-478.4 1117.44,-478.4"/>
<text text-anchor="start" x="1124.44" y="-490.6" font-family="Arial" font-size="14.00">taphonomicsystemid </text>
<text text-anchor="start" x="1255.94" y="-490.6" font-family="Arial" font-size="14.00" fill="#666666">[integer]</text>
</g>
<!-- ndb.taphonomicsystemsdatasettypes&#45;&gt;ndb.datasettypes -->
<g id="edge5" class="edge">
<title>ndb.taphonomicsystemsdatasettypes:datasettypeid&#45;&gt;ndb.datasettypes:datasettypeid</title>
<path fill="none" stroke="black" d="M1528.7,-585.38C1580.11,-576.43 1536.06,-495.69 1517.38,-435.2 1487.35,-337.94 1419.61,-342.44 1389.51,-245.2 1373.08,-192.13 1332.95,-120.2 1388.51,-120.2"/>
<polygon fill="black" stroke="black" points="1528.68,-585.39 1518.36,-581.69 1523.37,-585.81 1519.05,-586.15 1519.05,-586.15 1519.05,-586.15 1523.37,-585.81 1519.07,-590.66 1528.68,-585.39"/>
<text text-anchor="start" x="1525.38" y="-596.2" font-family="Arial" font-size="10.00">FOREIGN KEY (datasettypeid) REFERENCES ndb.datasettypes(datasettypeid) ON UPDATE CASCADE ON DELETE CASCADE</text>
</g>
<!-- ndb.unitsdatasettypes -->
<g id="node7" class="node">
<title>ndb.unitsdatasettypes</title>
<polygon fill="#efefef" stroke="none" points="1621.51,-601.6 1621.51,-637.2 1941.31,-637.2 1941.31,-601.6 1621.51,-601.6"/>
<polygon fill="none" stroke="black" points="1621.51,-601.6 1621.51,-637.2 1941.31,-637.2 1941.31,-601.6 1621.51,-601.6"/>
<text text-anchor="start" x="1641.93" y="-615" font-family="Arial Bold" font-size="18.00">ndb.unitsdatasettypes</text>
<text text-anchor="start" x="1796.4" y="-615" font-family="Arial" font-size="14.00">    </text>
<text text-anchor="start" x="1827.52" y="-615" font-family="Arial" font-size="14.00" fill="#666666">[BASE TABLE]</text>
<polygon fill="none" stroke="black" points="1621.51,-570.8 1621.51,-601.6 1941.31,-601.6 1941.31,-570.8 1621.51,-570.8"/>
<text text-anchor="start" x="1628.51" y="-583" font-family="Arial" font-size="14.00">datasettypeid </text>
<text text-anchor="start" x="1715.68" y="-583" font-family="Arial" font-size="14.00" fill="#666666">[integer]</text>
<polygon fill="none" stroke="black" points="1621.51,-540 1621.51,-570.8 1941.31,-570.8 1941.31,-540 1621.51,-540"/>
<text text-anchor="start" x="1628.51" y="-552.2" font-family="Arial" font-size="14.00">recdatecreated </text>
<text text-anchor="start" x="1725.79" y="-552.2" font-family="Arial" font-size="14.00" fill="#666666">[timestamp(0) without time zone]</text>
<polygon fill="none" stroke="black" points="1621.51,-509.2 1621.51,-540 1941.31,-540 1941.31,-509.2 1621.51,-509.2"/>
<text text-anchor="start" x="1628.51" y="-521.4" font-family="Arial" font-size="14.00">recdatemodified </text>
<text text-anchor="start" x="1732.01" y="-521.4" font-family="Arial" font-size="14.00" fill="#666666">[timestamp(0) without time zone]</text>
<polygon fill="none" stroke="black" points="1621.51,-478.4 1621.51,-509.2 1941.31,-509.2 1941.31,-478.4 1621.51,-478.4"/>
<text text-anchor="start" x="1628.51" y="-490.6" font-family="Arial" font-size="14.00">variableunitsid </text>
<text text-anchor="start" x="1721.9" y="-490.6" font-family="Arial" font-size="14.00" fill="#666666">[integer]</text>
</g>
<!-- ndb.unitsdatasettypes&#45;&gt;ndb.datasettypes -->
<g id="edge6" class="edge">
<title>ndb.unitsdatasettypes:datasettypeid&#45;&gt;ndb.datasettypes:datasettypeid</title>
<path fill="none" stroke="black" d="M1610.33,-585.49C1513.99,-570.9 1688.96,-336.02 1709.31,-245.2 1721.46,-190.99 1765.87,-120.2 1710.31,-120.2"/>
<polygon fill="black" stroke="black" points="1610.2,-585.48 1619.86,-590.67 1615.52,-585.85 1619.84,-586.15 1619.84,-586.15 1619.84,-586.15 1615.52,-585.85 1620.49,-581.69 1610.2,-585.48"/>
<text text-anchor="start" x="1184.78" y="-570.2" font-family="Arial" font-size="10.00">FOREIGN KEY (datasettypeid) REFERENCES ndb.datasettypes(datasettypeid) ON UPDATE CASCADE ON DELETE CASCADE</text>
</g>
<!-- ndb.elementtaxagroups -->
<g id="node9" class="node">
<title>ndb.elementtaxagroups</title>
<polygon fill="#efefef" stroke="none" points="2945.51,-617 2945.51,-652.6 3265.31,-652.6 3265.31,-617 2945.51,-617"/>
<polygon fill="none" stroke="black" points="2945.51,-617 2945.51,-652.6 3265.31,-652.6 3265.31,-617 2945.51,-617"/>
<text text-anchor="start" x="2959.44" y="-630.4" font-family="Arial Bold" font-size="18.00">ndb.elementtaxagroups</text>
<text text-anchor="start" x="3126.89" y="-630.4" font-family="Arial" font-size="14.00">    </text>
<text text-anchor="start" x="3158.01" y="-630.4" font-family="Arial" font-size="14.00" fill="#666666">[BASE TABLE]</text>
<polygon fill="none" stroke="black" points="2945.51,-586.2 2945.51,-617 3265.31,-617 3265.31,-586.2 2945.51,-586.2"/>
<text text-anchor="start" x="2952.51" y="-598.4" font-family="Arial" font-size="14.00">elementtaxagroupid </text>
<text text-anchor="start" x="3079.37" y="-598.4" font-family="Arial" font-size="14.00" fill="#666666">[integer]</text>
<polygon fill="none" stroke="black" points="2945.51,-555.4 2945.51,-586.2 3265.31,-586.2 3265.31,-555.4 2945.51,-555.4"/>
<text text-anchor="start" x="2952.51" y="-567.6" font-family="Arial" font-size="14.00">elementtypeid </text>
<text text-anchor="start" x="3043.56" y="-567.6" font-family="Arial" font-size="14.00" fill="#666666">[integer]</text>
<polygon fill="none" stroke="black" points="2945.51,-524.6 2945.51,-555.4 3265.31,-555.4 3265.31,-524.6 2945.51,-524.6"/>
<text text-anchor="start" x="2952.51" y="-536.8" font-family="Arial" font-size="14.00">recdatecreated </text>
<text text-anchor="start" x="3049.79" y="-536.8" font-family="Arial" font-size="14.00" fill="#666666">[timestamp(0) without time zone]</text>
<polygon fill="none" stroke="black" points="2945.51,-493.8 2945.51,-524.6 3265.31,-524.6 3265.31,-493.8 2945.51,-493.8"/>
<text text-anchor="start" x="2952.51" y="-506" font-family="Arial" font-size="14.00">recdatemodified </text>
<text text-anchor="start" x="3056.01" y="-506" font-family="Arial" font-size="14.00" fill="#666666">[timestamp(0) without time zone]</text>
<polygon fill="none" stroke="black" points="2945.51,-463 2945.51,-493.8 3265.31,-493.8 3265.31,-463 2945.51,-463"/>
<text text-anchor="start" x="2952.51" y="-475.2" font-family="Arial" font-size="14.00">taxagroupid </text>
<text text-anchor="start" x="3029.56" y="-475.2" font-family="Arial" font-size="14.00" fill="#666666">[varchar(3)]</text>
</g>
<!-- ndb.elementtaxagroups&#45;&gt;ndb.taxagrouptypes -->
<g id="edge9" class="edge">
<title>ndb.elementtaxagroups:taxagroupid&#45;&gt;ndb.taxagrouptypes:taxagroupid</title>
<path fill="none" stroke="black" d="M2934.58,-475.39C2925.2,-466.62 2939.63,-440.34 2945.51,-419.8 2970.42,-332.79 3025.91,-332.35 3050.31,-245.2 3072.67,-165.34 3134.24,-58.6 3051.31,-58.6"/>
<polygon fill="black" stroke="black" points="2934.62,-475.41 2942.89,-482.61 2939.72,-476.95 2943.87,-478.21 2943.87,-478.21 2943.87,-478.21 2939.72,-476.95 2945.49,-474 2934.62,-475.41"/>
<text text-anchor="start" x="2657.74" y="-462.4" font-family="Arial" font-size="10.00">FOREIGN KEY (taxagroupid) REFERENCES ndb.taxagrouptypes(taxagroupid) ON UPDATE CASCADE ON DELETE CASCADE</text>
</g>
<!-- ndb.taxa -->
<g id="node10" class="node">
<title>ndb.taxa</title>
<polygon fill="#efefef" stroke="none" points="3369.51,-755.6 3369.51,-791.2 3689.31,-791.2 3689.31,-755.6 3369.51,-755.6"/>
<polygon fill="none" stroke="black" points="3369.51,-755.6 3369.51,-791.2 3689.31,-791.2 3689.31,-755.6 3369.51,-755.6"/>
<text text-anchor="start" x="3436.42" y="-769" font-family="Arial Bold" font-size="18.00">ndb.taxa</text>
<text text-anchor="start" x="3497.9" y="-769" font-family="Arial" font-size="14.00">    </text>
<text text-anchor="start" x="3529.02" y="-769" font-family="Arial" font-size="14.00" fill="#666666">[BASE TABLE]</text>
<polygon fill="none" stroke="black" points="3369.51,-724.8 3369.51,-755.6 3689.31,-755.6 3689.31,-724.8 3369.51,-724.8"/>
<text text-anchor="start" x="3376.51" y="-737" font-family="Arial" font-size="14.00">author </text>
<text text-anchor="start" x="3420.1" y="-737" font-family="Arial" font-size="14.00" fill="#666666">[varchar(128)]</text>
<polygon fill="none" stroke="black" points="3369.51,-694 3369.51,-724.8 3689.31,-724.8 3689.31,-694 3369.51,-694"/>
<text text-anchor="start" x="3376.51" y="-706.2" font-family="Arial" font-size="14.00">extinct </text>
<text text-anchor="start" x="3420.86" y="-706.2" font-family="Arial" font-size="14.00" fill="#666666">[boolean]</text>
<polygon fill="none" stroke="black" points="3369.51,-663.2 3369.51,-694 3689.31,-694 3689.31,-663.2 3369.51,-663.2"/>
<text text-anchor="start" x="3376.51" y="-675.4" font-family="Arial" font-size="14.00">highertaxonid </text>
<text text-anchor="start" x="3464.46" y="-675.4" font-family="Arial" font-size="14.00" fill="#666666">[integer]</text>
<polygon fill="none" stroke="black" points="3369.51,-632.4 3369.51,-663.2 3689.31,-663.2 3689.31,-632.4 3369.51,-632.4"/>
<text text-anchor="start" x="3376.51" y="-644.6" font-family="Arial" font-size="14.00">notes </text>
<text text-anchor="start" x="3414.65" y="-644.6" font-family="Arial" font-size="14.00" fill="#666666">[text]</text>
<polygon fill="none" stroke="black" points="3369.51,-601.6 3369.51,-632.4 3689.31,-632.4 3689.31,-601.6 3369.51,-601.6"/>
<text text-anchor="start" x="3376.51" y="-613.8" font-family="Arial" font-size="14.00">publicationid </text>
<text text-anchor="start" x="3458.23" y="-613.8" font-family="Arial" font-size="14.00" fill="#666666">[integer]</text>
<polygon fill="none" stroke="black" points="3369.51,-570.8 3369.51,-601.6 3689.31,-601.6 3689.31,-570.8 3369.51,-570.8"/>
<text text-anchor="start" x="3376.51" y="-583" font-family="Arial" font-size="14.00">recdatecreated </text>
<text text-anchor="start" x="3473.79" y="-583" font-family="Arial" font-size="14.00" fill="#666666">[timestamp(0) without time zone]</text>
<polygon fill="none" stroke="black" points="3369.51,-540 3369.51,-570.8 3689.31,-570.8 3689.31,-540 3369.51,-540"/>
<text text-anchor="start" x="3376.51" y="-552.2" font-family="Arial" font-size="14.00">recdatemodified </text>
<text text-anchor="start" x="3480.01" y="-552.2" font-family="Arial" font-size="14.00" fill="#666666">[timestamp(0) without time zone]</text>
<polygon fill="none" stroke="black" points="3369.51,-509.2 3369.51,-540 3689.31,-540 3689.31,-509.2 3369.51,-509.2"/>
<text text-anchor="start" x="3376.51" y="-521.4" font-family="Arial" font-size="14.00">taxagroupid </text>
<text text-anchor="start" x="3453.56" y="-521.4" font-family="Arial" font-size="14.00" fill="#666666">[varchar(3)]</text>
<polygon fill="none" stroke="black" points="3369.51,-478.4 3369.51,-509.2 3689.31,-509.2 3689.31,-478.4 3369.51,-478.4"/>
<text text-anchor="start" x="3376.51" y="-490.6" font-family="Arial" font-size="14.00">taxoncode </text>
<text text-anchor="start" x="3445.01" y="-490.6" font-family="Arial" font-size="14.00" fill="#666666">[varchar(64)]</text>
<polygon fill="none" stroke="black" points="3369.51,-447.6 3369.51,-478.4 3689.31,-478.4 3689.31,-447.6 3369.51,-447.6"/>
<text text-anchor="start" x="3376.51" y="-459.8" font-family="Arial" font-size="14.00">taxonid </text>
<text text-anchor="start" x="3425.54" y="-459.8" font-family="Arial" font-size="14.00" fill="#666666">[integer]</text>
<polygon fill="none" stroke="black" points="3369.51,-416.8 3369.51,-447.6 3689.31,-447.6 3689.31,-416.8 3369.51,-416.8"/>
<text text-anchor="start" x="3376.51" y="-429" font-family="Arial" font-size="14.00">taxonname </text>
<text text-anchor="start" x="3449.67" y="-429" font-family="Arial" font-size="14.00" fill="#666666">[text]</text>
<polygon fill="none" stroke="black" points="3369.51,-386 3369.51,-416.8 3689.31,-416.8 3689.31,-386 3369.51,-386"/>
<text text-anchor="start" x="3376.51" y="-398.2" font-family="Arial" font-size="14.00">valid </text>
<text text-anchor="start" x="3409.19" y="-398.2" font-family="Arial" font-size="14.00" fill="#666666">[boolean]</text>
<polygon fill="none" stroke="black" points="3369.51,-355.2 3369.51,-386 3689.31,-386 3689.31,-355.2 3369.51,-355.2"/>
<text text-anchor="start" x="3376.51" y="-367.4" font-family="Arial" font-size="14.00">validatedate </text>
<text text-anchor="start" x="3455.9" y="-367.4" font-family="Arial" font-size="14.00" fill="#666666">[date]</text>
<polygon fill="none" stroke="black" points="3369.51,-324.4 3369.51,-355.2 3689.31,-355.2 3689.31,-324.4 3369.51,-324.4"/>
<text text-anchor="start" x="3376.51" y="-336.6" font-family="Arial" font-size="14.00">validatorid </text>
<text text-anchor="start" x="3444.21" y="-336.6" font-family="Arial" font-size="14.00" fill="#666666">[integer]</text>
</g>
<!-- ndb.taxa&#45;&gt;ndb.taxagrouptypes -->
<g id="edge10" class="edge">
<title>ndb.taxa:taxagroupid&#45;&gt;ndb.taxagrouptypes:taxagroupid</title>
<path fill="none" stroke="black" d="M3358.23,-524.12C3265.51,-514.79 3372.4,-372.83 3317.41,-281.2 3238.06,-148.99 3205.5,-58.6 3051.31,-58.6"/>
<polygon fill="black" stroke="black" points="3358.19,-524.11 3367.96,-529.08 3363.52,-524.36 3367.84,-524.57 3367.84,-524.57 3367.84,-524.57 3363.52,-524.36 3368.39,-520.09 3358.19,-524.11"/>
<text text-anchor="start" x="3010.8" y="-534.6" font-family="Arial" font-size="10.00">FOREIGN KEY (taxagroupid) REFERENCES ndb.taxagrouptypes(taxagroupid)</text>
</g>
</g>
</svg>
