<?xml version="1.0" encoding="UTF-8" standalone="no"?>
<!DOCTYPE svg PUBLIC "-//W3C//DTD SVG 1.1//EN"
 "http://www.w3.org/Graphics/SVG/1.1/DTD/svg11.dtd">
<!-- Generated by graphviz version 12.1.2 (20240928.0832)
 -->
<!-- Title: ndb.events Pages: 1 -->
<svg width="2227pt" height="1990pt"
 viewBox="0.00 0.00 2226.63 1990.00" xmlns="http://www.w3.org/2000/svg" xmlns:xlink="http://www.w3.org/1999/xlink">
<g id="graph0" class="graph" transform="scale(1 1) rotate(0) translate(4 1986)">
<title>ndb.events</title>
<polygon fill="white" stroke="none" points="-4,4 -4,-1986 2222.63,-1986 2222.63,4 -4,4"/>
<!-- ndb.events -->
<g id="node1" class="node">
<title>ndb.events</title>
<polygon fill="#efefef" stroke="none" points="894.2,-1283.2 894.2,-1318.8 1214,-1318.8 1214,-1283.2 894.2,-1283.2"/>
<polygon fill="none" stroke="black" points="894.2,-1283.2 894.2,-1318.8 1214,-1318.8 1214,-1283.2 894.2,-1283.2"/>
<text text-anchor="start" x="953.11" y="-1296.6" font-family="Arial Bold" font-size="18.00">ndb.events</text>
<text text-anchor="start" x="1030.6" y="-1296.6" font-family="Arial" font-size="14.00">    </text>
<text text-anchor="start" x="1061.71" y="-1296.6" font-family="Arial" font-size="14.00" fill="#666666">[BASE TABLE]</text>
<polygon fill="none" stroke="black" points="894.2,-1252.4 894.2,-1283.2 1214,-1283.2 1214,-1252.4 894.2,-1252.4"/>
<text text-anchor="start" x="901.2" y="-1264.6" font-family="Arial" font-size="14.00">c14age </text>
<text text-anchor="start" x="951.02" y="-1264.6" font-family="Arial" font-size="14.00" fill="#666666">[double precision]</text>
<polygon fill="none" stroke="black" points="894.2,-1221.6 894.2,-1252.4 1214,-1252.4 1214,-1221.6 894.2,-1221.6"/>
<text text-anchor="start" x="901.2" y="-1233.8" font-family="Arial" font-size="14.00">c14ageolder </text>
<text text-anchor="start" x="982.15" y="-1233.8" font-family="Arial" font-size="14.00" fill="#666666">[double precision]</text>
<polygon fill="none" stroke="black" points="894.2,-1190.8 894.2,-1221.6 1214,-1221.6 1214,-1190.8 894.2,-1190.8"/>
<text text-anchor="start" x="901.2" y="-1203" font-family="Arial" font-size="14.00">c14ageyounger </text>
<text text-anchor="start" x="1001.61" y="-1203" font-family="Arial" font-size="14.00" fill="#666666">[double precision]</text>
<polygon fill="none" stroke="black" points="894.2,-1160 894.2,-1190.8 1214,-1190.8 1214,-1160 894.2,-1160"/>
<text text-anchor="start" x="901.2" y="-1172.2" font-family="Arial" font-size="14.00">calage </text>
<text text-anchor="start" x="946.34" y="-1172.2" font-family="Arial" font-size="14.00" fill="#666666">[double precision]</text>
<polygon fill="none" stroke="black" points="894.2,-1129.2 894.2,-1160 1214,-1160 1214,-1129.2 894.2,-1129.2"/>
<text text-anchor="start" x="901.2" y="-1141.4" font-family="Arial" font-size="14.00">calageolder </text>
<text text-anchor="start" x="977.48" y="-1141.4" font-family="Arial" font-size="14.00" fill="#666666">[double precision]</text>
<polygon fill="none" stroke="black" points="894.2,-1098.4 894.2,-1129.2 1214,-1129.2 1214,-1098.4 894.2,-1098.4"/>
<text text-anchor="start" x="901.2" y="-1110.6" font-family="Arial" font-size="14.00">calageyounger </text>
<text text-anchor="start" x="996.94" y="-1110.6" font-family="Arial" font-size="14.00" fill="#666666">[double precision]</text>
<polygon fill="none" stroke="black" points="894.2,-1067.6 894.2,-1098.4 1214,-1098.4 1214,-1067.6 894.2,-1067.6"/>
<text text-anchor="start" x="901.2" y="-1079.8" font-family="Arial" font-size="14.00">eventid </text>
<text text-anchor="start" x="950.23" y="-1079.8" font-family="Arial" font-size="14.00" fill="#666666">[integer]</text>
<polygon fill="none" stroke="black" points="894.2,-1036.8 894.2,-1067.6 1214,-1067.6 1214,-1036.8 894.2,-1036.8"/>
<text text-anchor="start" x="901.2" y="-1049" font-family="Arial" font-size="14.00">eventname </text>
<text text-anchor="start" x="974.36" y="-1049" font-family="Arial" font-size="14.00" fill="#666666">[varchar(80)]</text>
<polygon fill="none" stroke="black" points="894.2,-1006 894.2,-1036.8 1214,-1036.8 1214,-1006 894.2,-1006"/>
<text text-anchor="start" x="901.2" y="-1018.2" font-family="Arial" font-size="14.00">eventtypeid </text>
<text text-anchor="start" x="976.7" y="-1018.2" font-family="Arial" font-size="14.00" fill="#666666">[integer]</text>
<polygon fill="none" stroke="black" points="894.2,-975.2 894.2,-1006 1214,-1006 1214,-975.2 894.2,-975.2"/>
<text text-anchor="start" x="901.2" y="-987.4" font-family="Arial" font-size="14.00">notes </text>
<text text-anchor="start" x="939.34" y="-987.4" font-family="Arial" font-size="14.00" fill="#666666">[text]</text>
<polygon fill="none" stroke="black" points="894.2,-944.4 894.2,-975.2 1214,-975.2 1214,-944.4 894.2,-944.4"/>
<text text-anchor="start" x="901.2" y="-956.6" font-family="Arial" font-size="14.00">recdatecreated </text>
<text text-anchor="start" x="998.48" y="-956.6" font-family="Arial" font-size="14.00" fill="#666666">[timestamp(0) without time zone]</text>
<polygon fill="none" stroke="black" points="894.2,-913.6 894.2,-944.4 1214,-944.4 1214,-913.6 894.2,-913.6"/>
<text text-anchor="start" x="901.2" y="-925.8" font-family="Arial" font-size="14.00">recdatemodified </text>
<text text-anchor="start" x="1004.7" y="-925.8" font-family="Arial" font-size="14.00" fill="#666666">[timestamp(0) without time zone]</text>
<polygon fill="none" stroke="black" stroke-width="3" points="892.7,-912.1 892.7,-1320.3 1215.5,-1320.3 1215.5,-912.1 892.7,-912.1"/>
</g>
<!-- ndb.eventtypes -->
<g id="node8" class="node">
<title>ndb.eventtypes</title>
<polygon fill="#efefef" stroke="none" points="894.2,-509.2 894.2,-544.8 1214,-544.8 1214,-509.2 894.2,-509.2"/>
<polygon fill="none" stroke="black" points="894.2,-509.2 894.2,-544.8 1214,-544.8 1214,-509.2 894.2,-509.2"/>
<text text-anchor="start" x="937.62" y="-522.6" font-family="Arial Bold" font-size="18.00">ndb.eventtypes</text>
<text text-anchor="start" x="1046.09" y="-522.6" font-family="Arial" font-size="14.00">    </text>
<text text-anchor="start" x="1077.21" y="-522.6" font-family="Arial" font-size="14.00" fill="#666666">[BASE TABLE]</text>
<polygon fill="none" stroke="black" points="894.2,-478.4 894.2,-509.2 1214,-509.2 1214,-478.4 894.2,-478.4"/>
<text text-anchor="start" x="901.2" y="-490.6" font-family="Arial" font-size="14.00">chroncontroltypeid </text>
<text text-anchor="start" x="1019.49" y="-490.6" font-family="Arial" font-size="14.00" fill="#666666">[integer]</text>
<polygon fill="none" stroke="black" points="894.2,-447.6 894.2,-478.4 1214,-478.4 1214,-447.6 894.2,-447.6"/>
<text text-anchor="start" x="901.2" y="-459.8" font-family="Arial" font-size="14.00">eventtype </text>
<text text-anchor="start" x="965.8" y="-459.8" font-family="Arial" font-size="14.00" fill="#666666">[varchar(40)]</text>
<polygon fill="none" stroke="black" points="894.2,-416.8 894.2,-447.6 1214,-447.6 1214,-416.8 894.2,-416.8"/>
<text text-anchor="start" x="901.2" y="-429" font-family="Arial" font-size="14.00">eventtypeid </text>
<text text-anchor="start" x="976.7" y="-429" font-family="Arial" font-size="14.00" fill="#666666">[integer]</text>
<polygon fill="none" stroke="black" points="894.2,-386 894.2,-416.8 1214,-416.8 1214,-386 894.2,-386"/>
<text text-anchor="start" x="901.2" y="-398.2" font-family="Arial" font-size="14.00">recdatecreated </text>
<text text-anchor="start" x="998.48" y="-398.2" font-family="Arial" font-size="14.00" fill="#666666">[timestamp(0) without time zone]</text>
<polygon fill="none" stroke="black" points="894.2,-355.2 894.2,-386 1214,-386 1214,-355.2 894.2,-355.2"/>
<text text-anchor="start" x="901.2" y="-367.4" font-family="Arial" font-size="14.00">recdatemodified </text>
<text text-anchor="start" x="1004.7" y="-367.4" font-family="Arial" font-size="14.00" fill="#666666">[timestamp(0) without time zone]</text>
</g>
<!-- ndb.events&#45;&gt;ndb.eventtypes -->
<g id="edge8" class="edge">
<title>ndb.events:eventtypeid&#45;&gt;ndb.eventtypes:eventtypeid</title>
<path fill="none" stroke="black" d="M1224.47,-1017C1280.3,-963.08 1277.14,-432.2 1215,-432.2"/>
<polygon fill="black" stroke="black" points="1224.37,-1017.04 1213.4,-1017.18 1219.53,-1019.29 1215.61,-1021.12 1215.61,-1021.12 1215.61,-1021.12 1219.53,-1019.29 1217.2,-1025.34 1224.37,-1017.04"/>
<text text-anchor="start" x="656.71" y="-1031.4" font-family="Arial" font-size="10.00">FOREIGN KEY (eventtypeid) REFERENCES ndb.eventtypes(eventtypeid) ON UPDATE CASCADE ON DELETE CASCADE</text>
</g>
<!-- ndb.eventchronology -->
<g id="node2" class="node">
<title>ndb.eventchronology</title>
<polygon fill="#efefef" stroke="none" points="467.2,-1903.2 467.2,-1938.8 787,-1938.8 787,-1903.2 467.2,-1903.2"/>
<polygon fill="none" stroke="black" points="467.2,-1903.2 467.2,-1938.8 787,-1938.8 787,-1903.2 467.2,-1903.2"/>
<text text-anchor="start" x="488.62" y="-1916.6" font-family="Arial Bold" font-size="18.00">ndb.eventchronology</text>
<text text-anchor="start" x="641.09" y="-1916.6" font-family="Arial" font-size="14.00">    </text>
<text text-anchor="start" x="672.2" y="-1916.6" font-family="Arial" font-size="14.00" fill="#666666">[BASE TABLE]</text>
<polygon fill="none" stroke="black" points="467.2,-1872.4 467.2,-1903.2 787,-1903.2 787,-1872.4 467.2,-1872.4"/>
<text text-anchor="start" x="474.2" y="-1884.6" font-family="Arial" font-size="14.00">analysisunitid </text>
<text text-anchor="start" x="562.14" y="-1884.6" font-family="Arial" font-size="14.00" fill="#666666">[integer]</text>
<polygon fill="none" stroke="black" points="467.2,-1841.6 467.2,-1872.4 787,-1872.4 787,-1841.6 467.2,-1841.6"/>
<text text-anchor="start" x="474.2" y="-1853.8" font-family="Arial" font-size="14.00">chroncontrolid </text>
<text text-anchor="start" x="566.03" y="-1853.8" font-family="Arial" font-size="14.00" fill="#666666">[integer]</text>
<polygon fill="none" stroke="black" points="467.2,-1810.8 467.2,-1841.6 787,-1841.6 787,-1810.8 467.2,-1810.8"/>
<text text-anchor="start" x="474.2" y="-1823" font-family="Arial" font-size="14.00">eventchronologyid </text>
<text text-anchor="start" x="591.72" y="-1823" font-family="Arial" font-size="14.00" fill="#666666">[integer]</text>
<polygon fill="none" stroke="black" points="467.2,-1780 467.2,-1810.8 787,-1810.8 787,-1780 467.2,-1780"/>
<text text-anchor="start" x="474.2" y="-1792.2" font-family="Arial" font-size="14.00">eventid </text>
<text text-anchor="start" x="523.23" y="-1792.2" font-family="Arial" font-size="14.00" fill="#666666">[integer]</text>
<polygon fill="none" stroke="black" points="467.2,-1749.2 467.2,-1780 787,-1780 787,-1749.2 467.2,-1749.2"/>
<text text-anchor="start" x="474.2" y="-1761.4" font-family="Arial" font-size="14.00">notes </text>
<text text-anchor="start" x="512.34" y="-1761.4" font-family="Arial" font-size="14.00" fill="#666666">[text]</text>
<polygon fill="none" stroke="black" points="467.2,-1718.4 467.2,-1749.2 787,-1749.2 787,-1718.4 467.2,-1718.4"/>
<text text-anchor="start" x="474.2" y="-1730.6" font-family="Arial" font-size="14.00">recdatecreated </text>
<text text-anchor="start" x="571.48" y="-1730.6" font-family="Arial" font-size="14.00" fill="#666666">[timestamp(0) without time zone]</text>
<polygon fill="none" stroke="black" points="467.2,-1687.6 467.2,-1718.4 787,-1718.4 787,-1687.6 467.2,-1687.6"/>
<text text-anchor="start" x="474.2" y="-1699.8" font-family="Arial" font-size="14.00">recdatemodified </text>
<text text-anchor="start" x="577.7" y="-1699.8" font-family="Arial" font-size="14.00" fill="#666666">[timestamp(0) without time zone]</text>
</g>
<!-- ndb.eventchronology&#45;&gt;ndb.events -->
<g id="edge1" class="edge">
<title>ndb.eventchronology:eventid&#45;&gt;ndb.events:eventid</title>
<path fill="none" stroke="black" d="M798.36,-1794.84C869.91,-1786.64 823.96,-1689.45 839.1,-1608.4 849.88,-1550.71 834.51,-1083 893.2,-1083"/>
<polygon fill="black" stroke="black" points="798.32,-1794.85 788.09,-1790.89 792.99,-1795.13 788.67,-1795.36 788.67,-1795.36 788.67,-1795.36 792.99,-1795.13 788.57,-1799.88 798.32,-1794.85"/>
<text text-anchor="start" x="795" y="-1805.4" font-family="Arial" font-size="10.00">FOREIGN KEY (eventid) REFERENCES ndb.events(eventid)</text>
</g>
<!-- ndb.analysisunits -->
<g id="node3" class="node">
<title>ndb.analysisunits</title>
<polygon fill="#efefef" stroke="none" points="467.2,-1267.8 467.2,-1303.4 787,-1303.4 787,-1267.8 467.2,-1267.8"/>
<polygon fill="none" stroke="black" points="467.2,-1267.8 467.2,-1303.4 787,-1303.4 787,-1267.8 467.2,-1267.8"/>
<text text-anchor="start" x="502.61" y="-1281.2" font-family="Arial Bold" font-size="18.00">ndb.analysisunits</text>
<text text-anchor="start" x="627.1" y="-1281.2" font-family="Arial" font-size="14.00">    </text>
<text text-anchor="start" x="658.22" y="-1281.2" font-family="Arial" font-size="14.00" fill="#666666">[BASE TABLE]</text>
<polygon fill="none" stroke="black" points="467.2,-1237 467.2,-1267.8 787,-1267.8 787,-1237 467.2,-1237"/>
<text text-anchor="start" x="474.2" y="-1249.2" font-family="Arial" font-size="14.00">analysisunitid </text>
<text text-anchor="start" x="562.14" y="-1249.2" font-family="Arial" font-size="14.00" fill="#666666">[integer]</text>
<polygon fill="none" stroke="black" points="467.2,-1206.2 467.2,-1237 787,-1237 787,-1206.2 467.2,-1206.2"/>
<text text-anchor="start" x="474.2" y="-1218.4" font-family="Arial" font-size="14.00">analysisunitname </text>
<text text-anchor="start" x="586.26" y="-1218.4" font-family="Arial" font-size="14.00" fill="#666666">[varchar(80)]</text>
<polygon fill="none" stroke="black" points="467.2,-1175.4 467.2,-1206.2 787,-1206.2 787,-1175.4 467.2,-1175.4"/>
<text text-anchor="start" x="474.2" y="-1187.6" font-family="Arial" font-size="14.00">collectionunitid </text>
<text text-anchor="start" x="569.92" y="-1187.6" font-family="Arial" font-size="14.00" fill="#666666">[integer]</text>
<polygon fill="none" stroke="black" points="467.2,-1144.6 467.2,-1175.4 787,-1175.4 787,-1144.6 467.2,-1144.6"/>
<text text-anchor="start" x="474.2" y="-1156.8" font-family="Arial" font-size="14.00">depth </text>
<text text-anchor="start" x="513.12" y="-1156.8" font-family="Arial" font-size="14.00" fill="#666666">[double precision]</text>
<polygon fill="none" stroke="black" points="467.2,-1113.8 467.2,-1144.6 787,-1144.6 787,-1113.8 467.2,-1113.8"/>
<text text-anchor="start" x="474.2" y="-1126" font-family="Arial" font-size="14.00">faciesid </text>
<text text-anchor="start" x="525.56" y="-1126" font-family="Arial" font-size="14.00" fill="#666666">[integer]</text>
<polygon fill="none" stroke="black" points="467.2,-1083 467.2,-1113.8 787,-1113.8 787,-1083 467.2,-1083"/>
<text text-anchor="start" x="474.2" y="-1095.2" font-family="Arial" font-size="14.00">igsn </text>
<text text-anchor="start" x="503.77" y="-1095.2" font-family="Arial" font-size="14.00" fill="#666666">[varchar(40)]</text>
<polygon fill="none" stroke="black" points="467.2,-1052.2 467.2,-1083 787,-1083 787,-1052.2 467.2,-1052.2"/>
<text text-anchor="start" x="474.2" y="-1064.4" font-family="Arial" font-size="14.00">mixed </text>
<text text-anchor="start" x="515.43" y="-1064.4" font-family="Arial" font-size="14.00" fill="#666666">[boolean]</text>
<polygon fill="none" stroke="black" points="467.2,-1021.4 467.2,-1052.2 787,-1052.2 787,-1021.4 467.2,-1021.4"/>
<text text-anchor="start" x="474.2" y="-1033.6" font-family="Arial" font-size="14.00">notes </text>
<text text-anchor="start" x="512.34" y="-1033.6" font-family="Arial" font-size="14.00" fill="#666666">[text]</text>
<polygon fill="none" stroke="black" points="467.2,-990.6 467.2,-1021.4 787,-1021.4 787,-990.6 467.2,-990.6"/>
<text text-anchor="start" x="474.2" y="-1002.8" font-family="Arial" font-size="14.00">recdatecreated </text>
<text text-anchor="start" x="571.48" y="-1002.8" font-family="Arial" font-size="14.00" fill="#666666">[timestamp(0) without time zone]</text>
<polygon fill="none" stroke="black" points="467.2,-959.8 467.2,-990.6 787,-990.6 787,-959.8 467.2,-959.8"/>
<text text-anchor="start" x="474.2" y="-972" font-family="Arial" font-size="14.00">recdatemodified </text>
<text text-anchor="start" x="577.7" y="-972" font-family="Arial" font-size="14.00" fill="#666666">[timestamp(0) without time zone]</text>
<polygon fill="none" stroke="black" points="467.2,-929 467.2,-959.8 787,-959.8 787,-929 467.2,-929"/>
<text text-anchor="start" x="474.2" y="-941.2" font-family="Arial" font-size="14.00">thickness </text>
<text text-anchor="start" x="536.45" y="-941.2" font-family="Arial" font-size="14.00" fill="#666666">[double precision]</text>
</g>
<!-- ndb.eventchronology&#45;&gt;ndb.analysisunits -->
<g id="edge2" class="edge">
<title>ndb.eventchronology:analysisunitid&#45;&gt;ndb.analysisunits:analysisunitid</title>
<path fill="none" stroke="black" d="M794.56,-1879.77C823.14,-1806.21 820.95,-1252.4 788,-1252.4"/>
<polygon fill="black" stroke="black" points="794.54,-1879.8 784.73,-1884.69 791.16,-1883.93 788.42,-1887.28 788.42,-1887.28 788.42,-1887.28 791.16,-1883.93 791.69,-1890.39 794.54,-1879.8"/>
<text text-anchor="start" x="795" y="-1897.8" font-family="Arial" font-size="10.00">FOREIGN KEY (analysisunitid) REFERENCES ndb.analysisunits(analysisunitid)</text>
</g>
<!-- ndb.chroncontrols -->
<g id="node4" class="node">
<title>ndb.chroncontrols</title>
<polygon fill="#efefef" stroke="none" points="43.2,-1298.6 43.2,-1334.2 363,-1334.2 363,-1298.6 43.2,-1298.6"/>
<polygon fill="none" stroke="black" points="43.2,-1298.6 43.2,-1334.2 363,-1334.2 363,-1298.6 43.2,-1298.6"/>
<text text-anchor="start" x="75.62" y="-1312" font-family="Arial Bold" font-size="18.00">ndb.chroncontrols</text>
<text text-anchor="start" x="206.09" y="-1312" font-family="Arial" font-size="14.00">    </text>
<text text-anchor="start" x="237.21" y="-1312" font-family="Arial" font-size="14.00" fill="#666666">[BASE TABLE]</text>
<polygon fill="none" stroke="black" points="43.2,-1267.8 43.2,-1298.6 363,-1298.6 363,-1267.8 43.2,-1267.8"/>
<text text-anchor="start" x="50.2" y="-1280" font-family="Arial" font-size="14.00">age </text>
<text text-anchor="start" x="77.45" y="-1280" font-family="Arial" font-size="14.00" fill="#666666">[double precision]</text>
<polygon fill="none" stroke="black" points="43.2,-1237 43.2,-1267.8 363,-1267.8 363,-1237 43.2,-1237"/>
<text text-anchor="start" x="50.2" y="-1249.2" font-family="Arial" font-size="14.00">agelimitolder </text>
<text text-anchor="start" x="133.46" y="-1249.2" font-family="Arial" font-size="14.00" fill="#666666">[double precision]</text>
<polygon fill="none" stroke="black" points="43.2,-1206.2 43.2,-1237 363,-1237 363,-1206.2 43.2,-1206.2"/>
<text text-anchor="start" x="50.2" y="-1218.4" font-family="Arial" font-size="14.00">agelimityounger </text>
<text text-anchor="start" x="152.92" y="-1218.4" font-family="Arial" font-size="14.00" fill="#666666">[double precision]</text>
<polygon fill="none" stroke="black" points="43.2,-1175.4 43.2,-1206.2 363,-1206.2 363,-1175.4 43.2,-1175.4"/>
<text text-anchor="start" x="50.2" y="-1187.6" font-family="Arial" font-size="14.00">agetypeid </text>
<text text-anchor="start" x="114.81" y="-1187.6" font-family="Arial" font-size="14.00" fill="#666666">[integer]</text>
<polygon fill="none" stroke="black" points="43.2,-1144.6 43.2,-1175.4 363,-1175.4 363,-1144.6 43.2,-1144.6"/>
<text text-anchor="start" x="50.2" y="-1156.8" font-family="Arial" font-size="14.00">analysisunitid </text>
<text text-anchor="start" x="138.14" y="-1156.8" font-family="Arial" font-size="14.00" fill="#666666">[integer]</text>
<polygon fill="none" stroke="black" points="43.2,-1113.8 43.2,-1144.6 363,-1144.6 363,-1113.8 43.2,-1113.8"/>
<text text-anchor="start" x="50.2" y="-1126" font-family="Arial" font-size="14.00">chroncontrolid </text>
<text text-anchor="start" x="142.03" y="-1126" font-family="Arial" font-size="14.00" fill="#666666">[integer]</text>
<polygon fill="none" stroke="black" points="43.2,-1083 43.2,-1113.8 363,-1113.8 363,-1083 43.2,-1083"/>
<text text-anchor="start" x="50.2" y="-1095.2" font-family="Arial" font-size="14.00">chroncontroltypeid </text>
<text text-anchor="start" x="168.49" y="-1095.2" font-family="Arial" font-size="14.00" fill="#666666">[integer]</text>
<polygon fill="none" stroke="black" points="43.2,-1052.2 43.2,-1083 363,-1083 363,-1052.2 43.2,-1052.2"/>
<text text-anchor="start" x="50.2" y="-1064.4" font-family="Arial" font-size="14.00">chronologyid </text>
<text text-anchor="start" x="133.48" y="-1064.4" font-family="Arial" font-size="14.00" fill="#666666">[integer]</text>
<polygon fill="none" stroke="black" points="43.2,-1021.4 43.2,-1052.2 363,-1052.2 363,-1021.4 43.2,-1021.4"/>
<text text-anchor="start" x="50.2" y="-1033.6" font-family="Arial" font-size="14.00">depth </text>
<text text-anchor="start" x="89.12" y="-1033.6" font-family="Arial" font-size="14.00" fill="#666666">[double precision]</text>
<polygon fill="none" stroke="black" points="43.2,-990.6 43.2,-1021.4 363,-1021.4 363,-990.6 43.2,-990.6"/>
<text text-anchor="start" x="50.2" y="-1002.8" font-family="Arial" font-size="14.00">notes </text>
<text text-anchor="start" x="88.34" y="-1002.8" font-family="Arial" font-size="14.00" fill="#666666">[text]</text>
<polygon fill="none" stroke="black" points="43.2,-959.8 43.2,-990.6 363,-990.6 363,-959.8 43.2,-959.8"/>
<text text-anchor="start" x="50.2" y="-972" font-family="Arial" font-size="14.00">recdatecreated </text>
<text text-anchor="start" x="147.48" y="-972" font-family="Arial" font-size="14.00" fill="#666666">[timestamp(0) without time zone]</text>
<polygon fill="none" stroke="black" points="43.2,-929 43.2,-959.8 363,-959.8 363,-929 43.2,-929"/>
<text text-anchor="start" x="50.2" y="-941.2" font-family="Arial" font-size="14.00">recdatemodified </text>
<text text-anchor="start" x="153.7" y="-941.2" font-family="Arial" font-size="14.00" fill="#666666">[timestamp(0) without time zone]</text>
<polygon fill="none" stroke="black" points="43.2,-898.2 43.2,-929 363,-929 363,-898.2 43.2,-898.2"/>
<text text-anchor="start" x="50.2" y="-910.4" font-family="Arial" font-size="14.00">thickness </text>
<text text-anchor="start" x="112.45" y="-910.4" font-family="Arial" font-size="14.00" fill="#666666">[double precision]</text>
</g>
<!-- ndb.eventchronology&#45;&gt;ndb.chroncontrols -->
<g id="edge3" class="edge">
<title>ndb.eventchronology:chroncontrolid&#45;&gt;ndb.chroncontrols:chroncontrolid</title>
<path fill="none" stroke="black" d="M455.88,-1856.58C358.4,-1848.19 431.9,-1716.26 415.1,-1608.4 406.86,-1555.49 417.55,-1129.2 364,-1129.2"/>
<polygon fill="black" stroke="black" points="455.87,-1856.58 465.68,-1861.48 461.2,-1856.8 465.53,-1856.97 465.53,-1856.97 465.53,-1856.97 461.2,-1856.8 466.05,-1852.49 455.87,-1856.58"/>
<text text-anchor="start" x="95.74" y="-1867" font-family="Arial" font-size="10.00">FOREIGN KEY (chroncontrolid) REFERENCES ndb.chroncontrols(chroncontrolid)</text>
</g>
<!-- ndb.eventpublications -->
<g id="node5" class="node">
<title>ndb.eventpublications</title>
<polygon fill="#efefef" stroke="none" points="1319.2,-1857 1319.2,-1892.6 1639,-1892.6 1639,-1857 1319.2,-1857"/>
<polygon fill="none" stroke="black" points="1319.2,-1857 1319.2,-1892.6 1639,-1892.6 1639,-1857 1319.2,-1857"/>
<text text-anchor="start" x="1337.62" y="-1870.4" font-family="Arial Bold" font-size="18.00">ndb.eventpublications</text>
<text text-anchor="start" x="1496.09" y="-1870.4" font-family="Arial" font-size="14.00">    </text>
<text text-anchor="start" x="1527.21" y="-1870.4" font-family="Arial" font-size="14.00" fill="#666666">[BASE TABLE]</text>
<polygon fill="none" stroke="black" points="1319.2,-1826.2 1319.2,-1857 1639,-1857 1639,-1826.2 1319.2,-1826.2"/>
<text text-anchor="start" x="1326.2" y="-1838.4" font-family="Arial" font-size="14.00">eventid </text>
<text text-anchor="start" x="1375.23" y="-1838.4" font-family="Arial" font-size="14.00" fill="#666666">[integer]</text>
<polygon fill="none" stroke="black" points="1319.2,-1795.4 1319.2,-1826.2 1639,-1826.2 1639,-1795.4 1319.2,-1795.4"/>
<text text-anchor="start" x="1326.2" y="-1807.6" font-family="Arial" font-size="14.00">publicationid </text>
<text text-anchor="start" x="1407.92" y="-1807.6" font-family="Arial" font-size="14.00" fill="#666666">[integer]</text>
<polygon fill="none" stroke="black" points="1319.2,-1764.6 1319.2,-1795.4 1639,-1795.4 1639,-1764.6 1319.2,-1764.6"/>
<text text-anchor="start" x="1326.2" y="-1776.8" font-family="Arial" font-size="14.00">recdatecreated </text>
<text text-anchor="start" x="1423.48" y="-1776.8" font-family="Arial" font-size="14.00" fill="#666666">[timestamp(0) without time zone]</text>
<polygon fill="none" stroke="black" points="1319.2,-1733.8 1319.2,-1764.6 1639,-1764.6 1639,-1733.8 1319.2,-1733.8"/>
<text text-anchor="start" x="1326.2" y="-1746" font-family="Arial" font-size="14.00">recdatemodified </text>
<text text-anchor="start" x="1429.7" y="-1746" font-family="Arial" font-size="14.00" fill="#666666">[timestamp(0) without time zone]</text>
</g>
<!-- ndb.eventpublications&#45;&gt;ndb.events -->
<g id="edge4" class="edge">
<title>ndb.eventpublications:eventid&#45;&gt;ndb.events:eventid</title>
<path fill="none" stroke="black" d="M1308.22,-1839.16C1266.79,-1817.47 1276.72,-1657.15 1269.1,-1608.4 1260.04,-1550.42 1273.69,-1083 1215,-1083"/>
<polygon fill="black" stroke="black" points="1308.16,-1839.15 1316.81,-1845.89 1313.34,-1840.41 1317.55,-1841.44 1317.55,-1841.44 1317.55,-1841.44 1313.34,-1840.41 1318.94,-1837.15 1308.16,-1839.15"/>
<text text-anchor="start" x="1325.2" y="-1851.6" font-family="Arial" font-size="10.00">FOREIGN KEY (eventid) REFERENCES ndb.events(eventid) ON UPDATE CASCADE ON DELETE CASCADE</text>
</g>
<!-- ndb.publications -->
<g id="node6" class="node">
<title>ndb.publications</title>
<polygon fill="#efefef" stroke="none" points="1321.2,-1529.6 1321.2,-1565.2 1641,-1565.2 1641,-1529.6 1321.2,-1529.6"/>
<polygon fill="none" stroke="black" points="1321.2,-1529.6 1321.2,-1565.2 1641,-1565.2 1641,-1529.6 1321.2,-1529.6"/>
<text text-anchor="start" x="1359.11" y="-1543" font-family="Arial Bold" font-size="18.00">ndb.publications</text>
<text text-anchor="start" x="1478.6" y="-1543" font-family="Arial" font-size="14.00">    </text>
<text text-anchor="start" x="1509.72" y="-1543" font-family="Arial" font-size="14.00" fill="#666666">[BASE TABLE]</text>
<polygon fill="none" stroke="black" points="1321.2,-1498.8 1321.2,-1529.6 1641,-1529.6 1641,-1498.8 1321.2,-1498.8"/>
<text text-anchor="start" x="1328.2" y="-1511" font-family="Arial" font-size="14.00">articletitle </text>
<text text-anchor="start" x="1391.22" y="-1511" font-family="Arial" font-size="14.00" fill="#666666">[text]</text>
<polygon fill="none" stroke="black" points="1321.2,-1468 1321.2,-1498.8 1641,-1498.8 1641,-1468 1321.2,-1468"/>
<text text-anchor="start" x="1328.2" y="-1480.2" font-family="Arial" font-size="14.00">bibtex </text>
<text text-anchor="start" x="1369.45" y="-1480.2" font-family="Arial" font-size="14.00" fill="#666666">[varchar]</text>
<polygon fill="none" stroke="black" points="1321.2,-1437.2 1321.2,-1468 1641,-1468 1641,-1437.2 1321.2,-1437.2"/>
<text text-anchor="start" x="1328.2" y="-1449.4" font-family="Arial" font-size="14.00">booktitle </text>
<text text-anchor="start" x="1384.23" y="-1449.4" font-family="Arial" font-size="14.00" fill="#666666">[text]</text>
<polygon fill="none" stroke="black" points="1321.2,-1406.4 1321.2,-1437.2 1641,-1437.2 1641,-1406.4 1321.2,-1406.4"/>
<text text-anchor="start" x="1328.2" y="-1418.6" font-family="Arial" font-size="14.00">citation </text>
<text text-anchor="start" x="1376.45" y="-1418.6" font-family="Arial" font-size="14.00" fill="#666666">[text]</text>
<polygon fill="none" stroke="black" points="1321.2,-1375.6 1321.2,-1406.4 1641,-1406.4 1641,-1375.6 1321.2,-1375.6"/>
<text text-anchor="start" x="1328.2" y="-1387.8" font-family="Arial" font-size="14.00">citationnumber </text>
<text text-anchor="start" x="1423.92" y="-1387.8" font-family="Arial" font-size="14.00" fill="#666666">[varchar(24)]</text>
<polygon fill="none" stroke="black" points="1321.2,-1344.8 1321.2,-1375.6 1641,-1375.6 1641,-1344.8 1321.2,-1344.8"/>
<text text-anchor="start" x="1328.2" y="-1357" font-family="Arial" font-size="14.00">city </text>
<text text-anchor="start" x="1353.09" y="-1357" font-family="Arial" font-size="14.00" fill="#666666">[varchar(64)]</text>
<polygon fill="none" stroke="black" points="1321.2,-1314 1321.2,-1344.8 1641,-1344.8 1641,-1314 1321.2,-1314"/>
<text text-anchor="start" x="1328.2" y="-1326.2" font-family="Arial" font-size="14.00">country </text>
<text text-anchor="start" x="1378" y="-1326.2" font-family="Arial" font-size="14.00" fill="#666666">[varchar(64)]</text>
<polygon fill="none" stroke="black" points="1321.2,-1283.2 1321.2,-1314 1641,-1314 1641,-1283.2 1321.2,-1283.2"/>
<text text-anchor="start" x="1328.2" y="-1295.4" font-family="Arial" font-size="14.00">crossref </text>
<text text-anchor="start" x="1381.88" y="-1295.4" font-family="Arial" font-size="14.00" fill="#666666">[jsonb]</text>
<polygon fill="none" stroke="black" points="1321.2,-1252.4 1321.2,-1283.2 1641,-1283.2 1641,-1252.4 1321.2,-1252.4"/>
<text text-anchor="start" x="1328.2" y="-1264.6" font-family="Arial" font-size="14.00">doi </text>
<text text-anchor="start" x="1350.77" y="-1264.6" font-family="Arial" font-size="14.00" fill="#666666">[varchar(128)]</text>
<polygon fill="none" stroke="black" points="1321.2,-1221.6 1321.2,-1252.4 1641,-1252.4 1641,-1221.6 1321.2,-1221.6"/>
<text text-anchor="start" x="1328.2" y="-1233.8" font-family="Arial" font-size="14.00">edition </text>
<text text-anchor="start" x="1373.34" y="-1233.8" font-family="Arial" font-size="14.00" fill="#666666">[varchar(24)]</text>
<polygon fill="none" stroke="black" points="1321.2,-1190.8 1321.2,-1221.6 1641,-1221.6 1641,-1190.8 1321.2,-1190.8"/>
<text text-anchor="start" x="1328.2" y="-1203" font-family="Arial" font-size="14.00">issue </text>
<text text-anchor="start" x="1364.77" y="-1203" font-family="Arial" font-size="14.00" fill="#666666">[varchar(8)]</text>
<polygon fill="none" stroke="black" points="1321.2,-1160 1321.2,-1190.8 1641,-1190.8 1641,-1160 1321.2,-1160"/>
<text text-anchor="start" x="1328.2" y="-1172.2" font-family="Arial" font-size="14.00">journal </text>
<text text-anchor="start" x="1374.12" y="-1172.2" font-family="Arial" font-size="14.00" fill="#666666">[text]</text>
<polygon fill="none" stroke="black" points="1321.2,-1129.2 1321.2,-1160 1641,-1160 1641,-1129.2 1321.2,-1129.2"/>
<text text-anchor="start" x="1328.2" y="-1141.4" font-family="Arial" font-size="14.00">notes </text>
<text text-anchor="start" x="1366.34" y="-1141.4" font-family="Arial" font-size="14.00" fill="#666666">[text]</text>
<polygon fill="none" stroke="black" points="1321.2,-1098.4 1321.2,-1129.2 1641,-1129.2 1641,-1098.4 1321.2,-1098.4"/>
<text text-anchor="start" x="1328.2" y="-1110.6" font-family="Arial" font-size="14.00">numvolumes </text>
<text text-anchor="start" x="1411.45" y="-1110.6" font-family="Arial" font-size="14.00" fill="#666666">[varchar(8)]</text>
<polygon fill="none" stroke="black" points="1321.2,-1067.6 1321.2,-1098.4 1641,-1098.4 1641,-1067.6 1321.2,-1067.6"/>
<text text-anchor="start" x="1328.2" y="-1079.8" font-family="Arial" font-size="14.00">originallanguage </text>
<text text-anchor="start" x="1434.84" y="-1079.8" font-family="Arial" font-size="14.00" fill="#666666">[varchar(64)]</text>
<polygon fill="none" stroke="black" points="1321.2,-1036.8 1321.2,-1067.6 1641,-1067.6 1641,-1036.8 1321.2,-1036.8"/>
<text text-anchor="start" x="1328.2" y="-1049" font-family="Arial" font-size="14.00">pages </text>
<text text-anchor="start" x="1370.23" y="-1049" font-family="Arial" font-size="14.00" fill="#666666">[varchar(24)]</text>
<polygon fill="none" stroke="black" points="1321.2,-1006 1321.2,-1036.8 1641,-1036.8 1641,-1006 1321.2,-1006"/>
<text text-anchor="start" x="1328.2" y="-1018.2" font-family="Arial" font-size="14.00">publicationid </text>
<text text-anchor="start" x="1409.92" y="-1018.2" font-family="Arial" font-size="14.00" fill="#666666">[integer]</text>
<polygon fill="none" stroke="black" points="1321.2,-975.2 1321.2,-1006 1641,-1006 1641,-975.2 1321.2,-975.2"/>
<text text-anchor="start" x="1328.2" y="-987.4" font-family="Arial" font-size="14.00">publisher </text>
<text text-anchor="start" x="1388.9" y="-987.4" font-family="Arial" font-size="14.00" fill="#666666">[varchar(255)]</text>
<polygon fill="none" stroke="black" points="1321.2,-944.4 1321.2,-975.2 1641,-975.2 1641,-944.4 1321.2,-944.4"/>
<text text-anchor="start" x="1328.2" y="-956.6" font-family="Arial" font-size="14.00">pubtypeid </text>
<text text-anchor="start" x="1392.81" y="-956.6" font-family="Arial" font-size="14.00" fill="#666666">[integer]</text>
<polygon fill="none" stroke="black" points="1321.2,-913.6 1321.2,-944.4 1641,-944.4 1641,-913.6 1321.2,-913.6"/>
<text text-anchor="start" x="1328.2" y="-925.8" font-family="Arial" font-size="14.00">recdatecreated </text>
<text text-anchor="start" x="1425.48" y="-925.8" font-family="Arial" font-size="14.00" fill="#666666">[timestamp(0) without time zone]</text>
<polygon fill="none" stroke="black" points="1321.2,-882.8 1321.2,-913.6 1641,-913.6 1641,-882.8 1321.2,-882.8"/>
<text text-anchor="start" x="1328.2" y="-895" font-family="Arial" font-size="14.00">recdatemodified </text>
<text text-anchor="start" x="1431.7" y="-895" font-family="Arial" font-size="14.00" fill="#666666">[timestamp(0) without time zone]</text>
<polygon fill="none" stroke="black" points="1321.2,-852 1321.2,-882.8 1641,-882.8 1641,-852 1321.2,-852"/>
<text text-anchor="start" x="1328.2" y="-864.2" font-family="Arial" font-size="14.00">seriestitle </text>
<text text-anchor="start" x="1391.22" y="-864.2" font-family="Arial" font-size="14.00" fill="#666666">[text]</text>
<polygon fill="none" stroke="black" points="1321.2,-821.2 1321.2,-852 1641,-852 1641,-821.2 1321.2,-821.2"/>
<text text-anchor="start" x="1328.2" y="-833.4" font-family="Arial" font-size="14.00">seriesvolume </text>
<text text-anchor="start" x="1414.57" y="-833.4" font-family="Arial" font-size="14.00" fill="#666666">[varchar(24)]</text>
<polygon fill="none" stroke="black" points="1321.2,-790.4 1321.2,-821.2 1641,-821.2 1641,-790.4 1321.2,-790.4"/>
<text text-anchor="start" x="1328.2" y="-802.6" font-family="Arial" font-size="14.00">state </text>
<text text-anchor="start" x="1362.44" y="-802.6" font-family="Arial" font-size="14.00" fill="#666666">[varchar(64)]</text>
<polygon fill="none" stroke="black" points="1321.2,-759.6 1321.2,-790.4 1641,-790.4 1641,-759.6 1321.2,-759.6"/>
<text text-anchor="start" x="1328.2" y="-771.8" font-family="Arial" font-size="14.00">url </text>
<text text-anchor="start" x="1347.65" y="-771.8" font-family="Arial" font-size="14.00" fill="#666666">[text]</text>
<polygon fill="none" stroke="black" points="1321.2,-728.8 1321.2,-759.6 1641,-759.6 1641,-728.8 1321.2,-728.8"/>
<text text-anchor="start" x="1328.2" y="-741" font-family="Arial" font-size="14.00">volume </text>
<text text-anchor="start" x="1377.22" y="-741" font-family="Arial" font-size="14.00" fill="#666666">[varchar(16)]</text>
<polygon fill="none" stroke="black" points="1321.2,-698 1321.2,-728.8 1641,-728.8 1641,-698 1321.2,-698"/>
<text text-anchor="start" x="1328.2" y="-710.2" font-family="Arial" font-size="14.00">volumetitle </text>
<text text-anchor="start" x="1399.01" y="-710.2" font-family="Arial" font-size="14.00" fill="#666666">[text]</text>
<polygon fill="none" stroke="black" points="1321.2,-667.2 1321.2,-698 1641,-698 1641,-667.2 1321.2,-667.2"/>
<text text-anchor="start" x="1328.2" y="-679.4" font-family="Arial" font-size="14.00">year </text>
<text text-anchor="start" x="1359.32" y="-679.4" font-family="Arial" font-size="14.00" fill="#666666">[varchar(64)]</text>
</g>
<!-- ndb.eventpublications&#45;&gt;ndb.publications -->
<g id="edge5" class="edge">
<title>ndb.eventpublications:publicationid&#45;&gt;ndb.publications:publicationid</title>
<path fill="none" stroke="black" d="M1650.18,-1809.68C1690.34,-1800 1669.57,-1729.75 1639,-1690.6 1549.2,-1575.62 1410.61,-1723.68 1321.2,-1608.4 1281.23,-1556.86 1254.98,-1021.4 1320.2,-1021.4"/>
<polygon fill="black" stroke="black" points="1650.27,-1809.67 1639.84,-1806.29 1644.97,-1810.25 1640.66,-1810.73 1640.66,-1810.73 1640.66,-1810.73 1644.97,-1810.25 1640.82,-1815.24 1650.27,-1809.67"/>
<text text-anchor="start" x="1647" y="-1820.8" font-family="Arial" font-size="10.00">FOREIGN KEY (publicationid) REFERENCES ndb.publications(publicationid) ON UPDATE CASCADE ON DELETE CASCADE</text>
</g>
<!-- ndb.tephras -->
<g id="node7" class="node">
<title>ndb.tephras</title>
<polygon fill="#efefef" stroke="none" points="892.2,-1887.8 892.2,-1923.4 1212,-1923.4 1212,-1887.8 892.2,-1887.8"/>
<polygon fill="none" stroke="black" points="892.2,-1887.8 892.2,-1923.4 1212,-1923.4 1212,-1887.8 892.2,-1887.8"/>
<text text-anchor="start" x="948.12" y="-1901.2" font-family="Arial Bold" font-size="18.00">ndb.tephras</text>
<text text-anchor="start" x="1031.59" y="-1901.2" font-family="Arial" font-size="14.00">    </text>
<text text-anchor="start" x="1062.71" y="-1901.2" font-family="Arial" font-size="14.00" fill="#666666">[BASE TABLE]</text>
<polygon fill="none" stroke="black" points="892.2,-1857 892.2,-1887.8 1212,-1887.8 1212,-1857 892.2,-1857"/>
<text text-anchor="start" x="899.2" y="-1869.2" font-family="Arial" font-size="14.00">analysisunitid </text>
<text text-anchor="start" x="987.14" y="-1869.2" font-family="Arial" font-size="14.00" fill="#666666">[integer]</text>
<polygon fill="none" stroke="black" points="892.2,-1826.2 892.2,-1857 1212,-1857 1212,-1826.2 892.2,-1826.2"/>
<text text-anchor="start" x="899.2" y="-1838.4" font-family="Arial" font-size="14.00">eventid </text>
<text text-anchor="start" x="948.23" y="-1838.4" font-family="Arial" font-size="14.00" fill="#666666">[integer]</text>
<polygon fill="none" stroke="black" points="892.2,-1795.4 892.2,-1826.2 1212,-1826.2 1212,-1795.4 892.2,-1795.4"/>
<text text-anchor="start" x="899.2" y="-1807.6" font-family="Arial" font-size="14.00">notes </text>
<text text-anchor="start" x="937.34" y="-1807.6" font-family="Arial" font-size="14.00" fill="#666666">[text]</text>
<polygon fill="none" stroke="black" points="892.2,-1764.6 892.2,-1795.4 1212,-1795.4 1212,-1764.6 892.2,-1764.6"/>
<text text-anchor="start" x="899.2" y="-1776.8" font-family="Arial" font-size="14.00">recdatecreated </text>
<text text-anchor="start" x="996.48" y="-1776.8" font-family="Arial" font-size="14.00" fill="#666666">[timestamp(0) without time zone]</text>
<polygon fill="none" stroke="black" points="892.2,-1733.8 892.2,-1764.6 1212,-1764.6 1212,-1733.8 892.2,-1733.8"/>
<text text-anchor="start" x="899.2" y="-1746" font-family="Arial" font-size="14.00">recdatemodified </text>
<text text-anchor="start" x="1002.7" y="-1746" font-family="Arial" font-size="14.00" fill="#666666">[timestamp(0) without time zone]</text>
<polygon fill="none" stroke="black" points="892.2,-1703 892.2,-1733.8 1212,-1733.8 1212,-1703 892.2,-1703"/>
<text text-anchor="start" x="899.2" y="-1715.2" font-family="Arial" font-size="14.00">tephraid </text>
<text text-anchor="start" x="953.68" y="-1715.2" font-family="Arial" font-size="14.00" fill="#666666">[integer]</text>
</g>
<!-- ndb.tephras&#45;&gt;ndb.events -->
<g id="edge6" class="edge">
<title>ndb.tephras:eventid&#45;&gt;ndb.events:eventid</title>
<path fill="none" stroke="black" d="M1223.11,-1840.96C1289.41,-1831.98 1243.06,-1730.45 1212,-1659.8 1134.46,-1483.44 971.57,-1541.44 894.2,-1365 869.03,-1307.61 830.53,-1083 893.2,-1083"/>
<polygon fill="black" stroke="black" points="1223.31,-1840.95 1213.05,-1837.09 1217.99,-1841.28 1213.67,-1841.56 1213.67,-1841.56 1213.67,-1841.56 1217.99,-1841.28 1213.62,-1846.07 1223.31,-1840.95"/>
<text text-anchor="start" x="711.41" y="-1851.6" font-family="Arial" font-size="10.00">FOREIGN KEY (eventid) REFERENCES ndb.events(eventid) ON UPDATE CASCADE ON DELETE CASCADE</text>
</g>
<!-- ndb.tephras&#45;&gt;ndb.analysisunits -->
<g id="edge7" class="edge">
<title>ndb.tephras:analysisunitid&#45;&gt;ndb.analysisunits:analysisunitid</title>
<path fill="none" stroke="black" d="M881.17,-1870.22C833.45,-1848.11 848.53,-1663.78 839.1,-1608.4 825.68,-1529.61 867.92,-1252.4 788,-1252.4"/>
<polygon fill="black" stroke="black" points="881.1,-1870.21 889.92,-1876.73 886.31,-1871.34 890.55,-1872.26 890.55,-1872.26 890.55,-1872.26 886.31,-1871.34 891.83,-1867.93 881.1,-1870.21"/>
<text text-anchor="start" x="898.2" y="-1882.4" font-family="Arial" font-size="10.00">FOREIGN KEY (analysisunitid) REFERENCES ndb.analysisunits(analysisunitid) ON UPDATE CASCADE ON DELETE CASCADE</text>
</g>
<!-- ndb.chroncontroltypes -->
<g id="node9" class="node">
<title>ndb.chroncontroltypes</title>
<polygon fill="#efefef" stroke="none" points="894.2,-197.2 894.2,-232.8 1214,-232.8 1214,-197.2 894.2,-197.2"/>
<polygon fill="none" stroke="black" points="894.2,-197.2 894.2,-232.8 1214,-232.8 1214,-197.2 894.2,-197.2"/>
<text text-anchor="start" x="911.12" y="-210.6" font-family="Arial Bold" font-size="18.00">ndb.chroncontroltypes</text>
<text text-anchor="start" x="1072.59" y="-210.6" font-family="Arial" font-size="14.00">    </text>
<text text-anchor="start" x="1103.7" y="-210.6" font-family="Arial" font-size="14.00" fill="#666666">[BASE TABLE]</text>
<polygon fill="none" stroke="black" points="894.2,-166.4 894.2,-197.2 1214,-197.2 1214,-166.4 894.2,-166.4"/>
<text text-anchor="start" x="901.2" y="-178.6" font-family="Arial" font-size="14.00">chroncontroltype </text>
<text text-anchor="start" x="1008.59" y="-178.6" font-family="Arial" font-size="14.00" fill="#666666">[varchar(64)]</text>
<polygon fill="none" stroke="black" points="894.2,-135.6 894.2,-166.4 1214,-166.4 1214,-135.6 894.2,-135.6"/>
<text text-anchor="start" x="901.2" y="-147.8" font-family="Arial" font-size="14.00">chroncontroltypeid </text>
<text text-anchor="start" x="1019.49" y="-147.8" font-family="Arial" font-size="14.00" fill="#666666">[integer]</text>
<polygon fill="none" stroke="black" points="894.2,-104.8 894.2,-135.6 1214,-135.6 1214,-104.8 894.2,-104.8"/>
<text text-anchor="start" x="901.2" y="-117" font-family="Arial" font-size="14.00">higherchroncontroltypeid </text>
<text text-anchor="start" x="1058.41" y="-117" font-family="Arial" font-size="14.00" fill="#666666">[integer]</text>
<polygon fill="none" stroke="black" points="894.2,-74 894.2,-104.8 1214,-104.8 1214,-74 894.2,-74"/>
<text text-anchor="start" x="901.2" y="-86.2" font-family="Arial" font-size="14.00">recdatecreated </text>
<text text-anchor="start" x="998.48" y="-86.2" font-family="Arial" font-size="14.00" fill="#666666">[timestamp(0) without time zone]</text>
<polygon fill="none" stroke="black" points="894.2,-43.2 894.2,-74 1214,-74 1214,-43.2 894.2,-43.2"/>
<text text-anchor="start" x="901.2" y="-55.4" font-family="Arial" font-size="14.00">recdatemodified </text>
<text text-anchor="start" x="1004.7" y="-55.4" font-family="Arial" font-size="14.00" fill="#666666">[timestamp(0) without time zone]</text>
</g>
<!-- ndb.eventtypes&#45;&gt;ndb.chroncontroltypes -->
<g id="edge9" class="edge">
<title>ndb.eventtypes:chroncontroltypeid&#45;&gt;ndb.chroncontroltypes:chroncontroltypeid</title>
<path fill="none" stroke="black" d="M1225.03,-493.29C1367.28,-478.57 1363.93,-151 1215,-151"/>
<polygon fill="black" stroke="black" points="1225.32,-493.27 1215.1,-489.29 1219.99,-493.55 1215.67,-493.77 1215.67,-493.77 1215.67,-493.77 1219.99,-493.55 1215.56,-498.28 1225.32,-493.27"/>
<text text-anchor="start" x="1222" y="-503.8" font-family="Arial" font-size="10.00">FOREIGN KEY (chroncontroltypeid) REFERENCES ndb.chroncontroltypes(chroncontroltypeid)</text>
</g>
</g>
</svg>
