<?xml version="1.0" encoding="UTF-8" standalone="no"?>
<!DOCTYPE svg PUBLIC "-//W3C//DTD SVG 1.1//EN"
 "http://www.w3.org/Graphics/SVG/1.1/DTD/svg11.dtd">
<!-- Generated by graphviz version 12.1.2 (20240928.0832)
 -->
<!-- Title: ndb.taphonomicsystems Pages: 1 -->
<svg width="1968pt" height="914pt"
 viewBox="0.00 0.00 1968.38 914.00" xmlns="http://www.w3.org/2000/svg" xmlns:xlink="http://www.w3.org/1999/xlink">
<g id="graph0" class="graph" transform="scale(1 1) rotate(0) translate(4 910)">
<title>ndb.taphonomicsystems</title>
<polygon fill="white" stroke="none" points="-4,4 -4,-910 1964.38,-910 1964.38,4 -4,4"/>
<!-- ndb.taphonomicsystems -->
<g id="node1" class="node">
<title>ndb.taphonomicsystems</title>
<polygon fill="#efefef" stroke="none" points="564.2,-200.2 564.2,-235.8 884,-235.8 884,-200.2 564.2,-200.2"/>
<polygon fill="none" stroke="black" points="564.2,-200.2 564.2,-235.8 884,-235.8 884,-200.2 564.2,-200.2"/>
<text text-anchor="start" x="575.11" y="-213.6" font-family="Arial Bold" font-size="18.00">ndb.taphonomicsystems</text>
<text text-anchor="start" x="748.6" y="-213.6" font-family="Arial" font-size="14.00">    </text>
<text text-anchor="start" x="779.71" y="-213.6" font-family="Arial" font-size="14.00" fill="#666666">[BASE TABLE]</text>
<polygon fill="none" stroke="black" points="564.2,-169.4 564.2,-200.2 884,-200.2 884,-169.4 564.2,-169.4"/>
<text text-anchor="start" x="571.2" y="-181.6" font-family="Arial" font-size="14.00">taphonomicsystemid </text>
<text text-anchor="start" x="702.7" y="-181.6" font-family="Arial" font-size="14.00" fill="#666666">[integer]</text>
<polygon fill="none" stroke="black" points="564.2,-138.6 564.2,-169.4 884,-169.4 884,-138.6 564.2,-138.6"/>
<text text-anchor="start" x="571.2" y="-150.8" font-family="Arial" font-size="14.00">taphonomicsystem </text>
<text text-anchor="start" x="691.81" y="-150.8" font-family="Arial" font-size="14.00" fill="#666666">[varchar(64)]</text>
<polygon fill="none" stroke="black" points="564.2,-107.8 564.2,-138.6 884,-138.6 884,-107.8 564.2,-107.8"/>
<text text-anchor="start" x="571.2" y="-120" font-family="Arial" font-size="14.00">notes </text>
<text text-anchor="start" x="609.34" y="-120" font-family="Arial" font-size="14.00" fill="#666666">[text]</text>
<polygon fill="none" stroke="black" points="564.2,-77 564.2,-107.8 884,-107.8 884,-77 564.2,-77"/>
<text text-anchor="start" x="571.2" y="-89.2" font-family="Arial" font-size="14.00">recdatecreated </text>
<text text-anchor="start" x="668.48" y="-89.2" font-family="Arial" font-size="14.00" fill="#666666">[timestamp(0) without time zone]</text>
<polygon fill="none" stroke="black" points="564.2,-46.2 564.2,-77 884,-77 884,-46.2 564.2,-46.2"/>
<text text-anchor="start" x="571.2" y="-58.4" font-family="Arial" font-size="14.00">recdatemodified </text>
<text text-anchor="start" x="674.7" y="-58.4" font-family="Arial" font-size="14.00" fill="#666666">[timestamp(0) without time zone]</text>
<polygon fill="none" stroke="black" stroke-width="3" points="562.7,-44.7 562.7,-237.3 885.5,-237.3 885.5,-44.7 562.7,-44.7"/>
</g>
<!-- ndb.taphonomicsystemsdatasettypes -->
<g id="node2" class="node">
<title>ndb.taphonomicsystemsdatasettypes</title>
<polygon fill="#efefef" stroke="none" points="969.13,-515.2 969.13,-550.8 1369.07,-550.8 1369.07,-515.2 969.13,-515.2"/>
<polygon fill="none" stroke="black" points="969.13,-515.2 969.13,-550.8 1369.07,-550.8 1369.07,-515.2 969.13,-515.2"/>
<text text-anchor="start" x="976.13" y="-528.6" font-family="Arial Bold" font-size="18.00">ndb.taphonomicsystemsdatasettypes</text>
<text text-anchor="start" x="1237.58" y="-528.6" font-family="Arial" font-size="14.00">    </text>
<text text-anchor="start" x="1268.7" y="-528.6" font-family="Arial" font-size="14.00" fill="#666666">[BASE TABLE]</text>
<polygon fill="none" stroke="black" points="969.13,-484.4 969.13,-515.2 1369.07,-515.2 1369.07,-484.4 969.13,-484.4"/>
<text text-anchor="start" x="976.13" y="-496.6" font-family="Arial" font-size="14.00">datasettypeid </text>
<text text-anchor="start" x="1063.3" y="-496.6" font-family="Arial" font-size="14.00" fill="#666666">[integer]</text>
<polygon fill="none" stroke="black" points="969.13,-453.6 969.13,-484.4 1369.07,-484.4 1369.07,-453.6 969.13,-453.6"/>
<text text-anchor="start" x="976.13" y="-465.8" font-family="Arial" font-size="14.00">taphonomicsystemid </text>
<text text-anchor="start" x="1107.63" y="-465.8" font-family="Arial" font-size="14.00" fill="#666666">[integer]</text>
<polygon fill="none" stroke="black" points="969.13,-422.8 969.13,-453.6 1369.07,-453.6 1369.07,-422.8 969.13,-422.8"/>
<text text-anchor="start" x="976.13" y="-435" font-family="Arial" font-size="14.00">recdatecreated </text>
<text text-anchor="start" x="1073.41" y="-435" font-family="Arial" font-size="14.00" fill="#666666">[timestamp(0) without time zone]</text>
<polygon fill="none" stroke="black" points="969.13,-392 969.13,-422.8 1369.07,-422.8 1369.07,-392 969.13,-392"/>
<text text-anchor="start" x="976.13" y="-404.2" font-family="Arial" font-size="14.00">recdatemodified </text>
<text text-anchor="start" x="1079.63" y="-404.2" font-family="Arial" font-size="14.00" fill="#666666">[timestamp(0) without time zone]</text>
</g>
<!-- ndb.taphonomicsystemsdatasettypes&#45;&gt;ndb.taphonomicsystems -->
<g id="edge1" class="edge">
<title>ndb.taphonomicsystemsdatasettypes:taphonomicsystemid&#45;&gt;ndb.taphonomicsystems:taphonomicsystemid</title>
<path fill="none" stroke="black" d="M958.32,-466.54C907.28,-438.77 947.2,-184.8 885,-184.8"/>
<polygon fill="black" stroke="black" points="958.1,-466.49 966.71,-473.28 963.28,-467.78 967.48,-468.84 967.48,-468.84 967.48,-468.84 963.28,-467.78 968.89,-464.55 958.1,-466.49"/>
<text text-anchor="start" x="975.13" y="-479" font-family="Arial" font-size="10.00">FOREIGN KEY (taphonomicsystemid) REFERENCES ndb.taphonomicsystems(taphonomicsystemid) ON UPDATE CASCADE ON DELETE CASCADE</text>
</g>
<!-- ndb.datasettypes -->
<g id="node3" class="node">
<title>ndb.datasettypes</title>
<polygon fill="#efefef" stroke="none" points="1009.2,-184.8 1009.2,-220.4 1329,-220.4 1329,-184.8 1009.2,-184.8"/>
<polygon fill="none" stroke="black" points="1009.2,-184.8 1009.2,-220.4 1329,-220.4 1329,-184.8 1009.2,-184.8"/>
<text text-anchor="start" x="1047.12" y="-198.2" font-family="Arial Bold" font-size="18.00">ndb.datasettypes</text>
<text text-anchor="start" x="1166.59" y="-198.2" font-family="Arial" font-size="14.00">    </text>
<text text-anchor="start" x="1197.71" y="-198.2" font-family="Arial" font-size="14.00" fill="#666666">[BASE TABLE]</text>
<polygon fill="none" stroke="black" points="1009.2,-154 1009.2,-184.8 1329,-184.8 1329,-154 1009.2,-154"/>
<text text-anchor="start" x="1016.2" y="-166.2" font-family="Arial" font-size="14.00">datasettypeid </text>
<text text-anchor="start" x="1103.37" y="-166.2" font-family="Arial" font-size="14.00" fill="#666666">[integer]</text>
<polygon fill="none" stroke="black" points="1009.2,-123.2 1009.2,-154 1329,-154 1329,-123.2 1009.2,-123.2"/>
<text text-anchor="start" x="1016.2" y="-135.4" font-family="Arial" font-size="14.00">datasettype </text>
<text text-anchor="start" x="1092.47" y="-135.4" font-family="Arial" font-size="14.00" fill="#666666">[varchar(64)]</text>
<polygon fill="none" stroke="black" points="1009.2,-92.4 1009.2,-123.2 1329,-123.2 1329,-92.4 1009.2,-92.4"/>
<text text-anchor="start" x="1016.2" y="-104.6" font-family="Arial" font-size="14.00">recdatecreated </text>
<text text-anchor="start" x="1113.48" y="-104.6" font-family="Arial" font-size="14.00" fill="#666666">[timestamp(0) without time zone]</text>
<polygon fill="none" stroke="black" points="1009.2,-61.6 1009.2,-92.4 1329,-92.4 1329,-61.6 1009.2,-61.6"/>
<text text-anchor="start" x="1016.2" y="-73.8" font-family="Arial" font-size="14.00">recdatemodified </text>
<text text-anchor="start" x="1119.7" y="-73.8" font-family="Arial" font-size="14.00" fill="#666666">[timestamp(0) without time zone]</text>
</g>
<!-- ndb.taphonomicsystemsdatasettypes&#45;&gt;ndb.datasettypes -->
<g id="edge2" class="edge">
<title>ndb.taphonomicsystemsdatasettypes:datasettypeid&#45;&gt;ndb.datasettypes:datasettypeid</title>
<path fill="none" stroke="black" d="M1380.1,-497.51C1440.04,-468.32 1400.35,-169.4 1330,-169.4"/>
<polygon fill="black" stroke="black" points="1380.15,-497.5 1369.4,-495.34 1374.95,-498.69 1370.72,-499.65 1370.72,-499.65 1370.72,-499.65 1374.95,-498.69 1371.4,-504.11 1380.15,-497.5"/>
<text text-anchor="start" x="1377.07" y="-509.8" font-family="Arial" font-size="10.00">FOREIGN KEY (datasettypeid) REFERENCES ndb.datasettypes(datasettypeid) ON UPDATE CASCADE ON DELETE CASCADE</text>
</g>
<!-- ndb.taphonomictypes -->
<g id="node4" class="node">
<title>ndb.taphonomictypes</title>
<polygon fill="#efefef" stroke="none" points="545.2,-546 545.2,-581.6 865,-581.6 865,-546 545.2,-546"/>
<polygon fill="none" stroke="black" points="545.2,-546 545.2,-581.6 865,-581.6 865,-546 545.2,-546"/>
<text text-anchor="start" x="565.62" y="-559.4" font-family="Arial Bold" font-size="18.00">ndb.taphonomictypes</text>
<text text-anchor="start" x="720.09" y="-559.4" font-family="Arial" font-size="14.00">    </text>
<text text-anchor="start" x="751.21" y="-559.4" font-family="Arial" font-size="14.00" fill="#666666">[BASE TABLE]</text>
<polygon fill="none" stroke="black" points="545.2,-515.2 545.2,-546 865,-546 865,-515.2 545.2,-515.2"/>
<text text-anchor="start" x="552.2" y="-527.4" font-family="Arial" font-size="14.00">taphonomictypeid </text>
<text text-anchor="start" x="665.83" y="-527.4" font-family="Arial" font-size="14.00" fill="#666666">[integer]</text>
<polygon fill="none" stroke="black" points="545.2,-484.4 545.2,-515.2 865,-515.2 865,-484.4 545.2,-484.4"/>
<text text-anchor="start" x="552.2" y="-496.6" font-family="Arial" font-size="14.00">taphonomicsystemid </text>
<text text-anchor="start" x="683.7" y="-496.6" font-family="Arial" font-size="14.00" fill="#666666">[integer]</text>
<polygon fill="none" stroke="black" points="545.2,-453.6 545.2,-484.4 865,-484.4 865,-453.6 545.2,-453.6"/>
<text text-anchor="start" x="552.2" y="-465.8" font-family="Arial" font-size="14.00">taphonomictype </text>
<text text-anchor="start" x="654.93" y="-465.8" font-family="Arial" font-size="14.00" fill="#666666">[varchar(64)]</text>
<polygon fill="none" stroke="black" points="545.2,-422.8 545.2,-453.6 865,-453.6 865,-422.8 545.2,-422.8"/>
<text text-anchor="start" x="552.2" y="-435" font-family="Arial" font-size="14.00">notes </text>
<text text-anchor="start" x="590.34" y="-435" font-family="Arial" font-size="14.00" fill="#666666">[text]</text>
<polygon fill="none" stroke="black" points="545.2,-392 545.2,-422.8 865,-422.8 865,-392 545.2,-392"/>
<text text-anchor="start" x="552.2" y="-404.2" font-family="Arial" font-size="14.00">recdatecreated </text>
<text text-anchor="start" x="649.48" y="-404.2" font-family="Arial" font-size="14.00" fill="#666666">[timestamp(0) without time zone]</text>
<polygon fill="none" stroke="black" points="545.2,-361.2 545.2,-392 865,-392 865,-361.2 545.2,-361.2"/>
<text text-anchor="start" x="552.2" y="-373.4" font-family="Arial" font-size="14.00">recdatemodified </text>
<text text-anchor="start" x="655.7" y="-373.4" font-family="Arial" font-size="14.00" fill="#666666">[timestamp(0) without time zone]</text>
</g>
<!-- ndb.taphonomictypes&#45;&gt;ndb.taphonomicsystems -->
<g id="edge3" class="edge">
<title>ndb.taphonomictypes:taphonomicsystemid&#45;&gt;ndb.taphonomicsystems:taphonomicsystemid</title>
<path fill="none" stroke="black" d="M876.24,-499.08C944.23,-489.01 916.38,-375.58 865,-318 775.35,-217.54 654.09,-382.24 564.2,-282 535.36,-249.84 520,-184.8 563.2,-184.8"/>
<polygon fill="black" stroke="black" points="876.31,-499.08 866.02,-495.29 870.99,-499.45 866.67,-499.75 866.67,-499.75 866.67,-499.75 870.99,-499.45 866.65,-504.27 876.31,-499.08"/>
<text text-anchor="start" x="187.69" y="-509.8" font-family="Arial" font-size="10.00">FOREIGN KEY (taphonomicsystemid) REFERENCES ndb.taphonomicsystems(taphonomicsystemid) ON UPDATE CASCADE ON DELETE CASCADE</text>
</g>
<!-- ndb.specimentaphonomy -->
<g id="node5" class="node">
<title>ndb.specimentaphonomy</title>
<polygon fill="#efefef" stroke="none" points="326.2,-827.2 326.2,-862.8 646,-862.8 646,-827.2 326.2,-827.2"/>
<polygon fill="none" stroke="black" points="326.2,-827.2 326.2,-862.8 646,-862.8 646,-827.2 326.2,-827.2"/>
<text text-anchor="start" x="333.62" y="-840.6" font-family="Arial Bold" font-size="18.00">ndb.specimentaphonomy</text>
<text text-anchor="start" x="514.09" y="-840.6" font-family="Arial" font-size="14.00">    </text>
<text text-anchor="start" x="545.2" y="-840.6" font-family="Arial" font-size="14.00" fill="#666666">[BASE TABLE]</text>
<polygon fill="none" stroke="black" points="326.2,-796.4 326.2,-827.2 646,-827.2 646,-796.4 326.2,-796.4"/>
<text text-anchor="start" x="333.2" y="-808.6" font-family="Arial" font-size="14.00">specimenid </text>
<text text-anchor="start" x="407.9" y="-808.6" font-family="Arial" font-size="14.00" fill="#666666">[integer]</text>
<polygon fill="none" stroke="black" points="326.2,-765.6 326.2,-796.4 646,-796.4 646,-765.6 326.2,-765.6"/>
<text text-anchor="start" x="333.2" y="-777.8" font-family="Arial" font-size="14.00">taphonomictypeid </text>
<text text-anchor="start" x="446.83" y="-777.8" font-family="Arial" font-size="14.00" fill="#666666">[integer]</text>
<polygon fill="none" stroke="black" points="326.2,-734.8 326.2,-765.6 646,-765.6 646,-734.8 326.2,-734.8"/>
<text text-anchor="start" x="333.2" y="-747" font-family="Arial" font-size="14.00">recdatecreated </text>
<text text-anchor="start" x="430.48" y="-747" font-family="Arial" font-size="14.00" fill="#666666">[timestamp(0) without time zone]</text>
<polygon fill="none" stroke="black" points="326.2,-704 326.2,-734.8 646,-734.8 646,-704 326.2,-704"/>
<text text-anchor="start" x="333.2" y="-716.2" font-family="Arial" font-size="14.00">recdatemodified </text>
<text text-anchor="start" x="436.7" y="-716.2" font-family="Arial" font-size="14.00" fill="#666666">[timestamp(0) without time zone]</text>
</g>
<!-- ndb.specimentaphonomy&#45;&gt;ndb.taphonomictypes -->
<g id="edge4" class="edge">
<title>ndb.specimentaphonomy:taphonomictypeid&#45;&gt;ndb.taphonomictypes:taphonomictypeid</title>
<path fill="none" stroke="black" d="M657.15,-779.9C697.08,-770.38 674.78,-701.28 646,-660.8 618.43,-622.03 572.81,-663.54 545.2,-624.8 520.9,-590.7 502.33,-530.6 544.2,-530.6"/>
<polygon fill="black" stroke="black" points="657.27,-779.89 646.85,-776.49 651.97,-780.46 647.66,-780.93 647.66,-780.93 647.66,-780.93 651.97,-780.46 647.81,-785.44 657.27,-779.89"/>
<text text-anchor="start" x="7" y="-791" font-family="Arial" font-size="10.00">FOREIGN KEY (taphonomictypeid) REFERENCES ndb.taphonomictypes(taphonomictypeid) ON UPDATE CASCADE ON DELETE CASCADE</text>
</g>
<!-- ndb.summarydatataphonomy -->
<g id="node6" class="node">
<title>ndb.summarydatataphonomy</title>
<polygon fill="#efefef" stroke="none" points="750.12,-827.2 750.12,-862.8 1098.07,-862.8 1098.07,-827.2 750.12,-827.2"/>
<polygon fill="none" stroke="black" points="750.12,-827.2 750.12,-862.8 1098.07,-862.8 1098.07,-827.2 750.12,-827.2"/>
<text text-anchor="start" x="757.12" y="-840.6" font-family="Arial Bold" font-size="18.00">ndb.summarydatataphonomy</text>
<text text-anchor="start" x="966.58" y="-840.6" font-family="Arial" font-size="14.00">    </text>
<text text-anchor="start" x="997.7" y="-840.6" font-family="Arial" font-size="14.00" fill="#666666">[BASE TABLE]</text>
<polygon fill="none" stroke="black" points="750.12,-796.4 750.12,-827.2 1098.07,-827.2 1098.07,-796.4 750.12,-796.4"/>
<text text-anchor="start" x="757.12" y="-808.6" font-family="Arial" font-size="14.00">dataid </text>
<text text-anchor="start" x="799.16" y="-808.6" font-family="Arial" font-size="14.00" fill="#666666">[integer]</text>
<polygon fill="none" stroke="black" points="750.12,-765.6 750.12,-796.4 1098.07,-796.4 1098.07,-765.6 750.12,-765.6"/>
<text text-anchor="start" x="757.12" y="-777.8" font-family="Arial" font-size="14.00">taphonomictypeid </text>
<text text-anchor="start" x="870.75" y="-777.8" font-family="Arial" font-size="14.00" fill="#666666">[integer]</text>
<polygon fill="none" stroke="black" points="750.12,-734.8 750.12,-765.6 1098.07,-765.6 1098.07,-734.8 750.12,-734.8"/>
<text text-anchor="start" x="757.12" y="-747" font-family="Arial" font-size="14.00">recdatecreated </text>
<text text-anchor="start" x="854.41" y="-747" font-family="Arial" font-size="14.00" fill="#666666">[timestamp(0) without time zone]</text>
<polygon fill="none" stroke="black" points="750.12,-704 750.12,-734.8 1098.07,-734.8 1098.07,-704 750.12,-704"/>
<text text-anchor="start" x="757.12" y="-716.2" font-family="Arial" font-size="14.00">recdatemodified </text>
<text text-anchor="start" x="860.63" y="-716.2" font-family="Arial" font-size="14.00" fill="#666666">[timestamp(0) without time zone]</text>
</g>
<!-- ndb.summarydatataphonomy&#45;&gt;ndb.taphonomictypes -->
<g id="edge5" class="edge">
<title>ndb.summarydatataphonomy:taphonomictypeid&#45;&gt;ndb.taphonomictypes:taphonomictypeid</title>
<path fill="none" stroke="black" d="M738.96,-779.89C698.93,-770.3 720.55,-700.71 750.12,-660.8 781.98,-617.81 833.09,-667.75 865,-624.8 889.96,-591.19 907.87,-530.6 866,-530.6"/>
<polygon fill="black" stroke="black" points="738.85,-779.88 748.3,-785.44 744.15,-780.46 748.46,-780.93 748.46,-780.93 748.46,-780.93 744.15,-780.46 749.28,-776.49 738.85,-779.88"/>
<text text-anchor="start" x="756.12" y="-791" font-family="Arial" font-size="10.00">FOREIGN KEY (taphonomictypeid) REFERENCES ndb.taphonomictypes(taphonomictypeid) ON UPDATE CASCADE ON DELETE CASCADE</text>
</g>
</g>
</svg>
