<?xml version="1.0" encoding="UTF-8" standalone="no"?>
<!DOCTYPE svg PUBLIC "-//W3C//DTD SVG 1.1//EN"
 "http://www.w3.org/Graphics/SVG/1.1/DTD/svg11.dtd">
<!-- Generated by graphviz version 12.1.2 (20240928.0832)
 -->
<!-- Title: ndb.eventtypes Pages: 1 -->
<svg width="1703pt" height="1744pt"
 viewBox="0.00 0.00 1702.77 1743.60" xmlns="http://www.w3.org/2000/svg" xmlns:xlink="http://www.w3.org/1999/xlink">
<g id="graph0" class="graph" transform="scale(1 1) rotate(0) translate(4 1739.6)">
<title>ndb.eventtypes</title>
<polygon fill="white" stroke="none" points="-4,4 -4,-1739.6 1698.77,-1739.6 1698.77,4 -4,4"/>
<!-- ndb.eventtypes -->
<g id="node1" class="node">
<title>ndb.eventtypes</title>
<polygon fill="#efefef" stroke="none" points="763.19,-632.4 763.19,-668 1082.99,-668 1082.99,-632.4 763.19,-632.4"/>
<polygon fill="none" stroke="black" points="763.19,-632.4 763.19,-668 1082.99,-668 1082.99,-632.4 763.19,-632.4"/>
<text text-anchor="start" x="806.61" y="-645.8" font-family="Arial Bold" font-size="18.00">ndb.eventtypes</text>
<text text-anchor="start" x="915.08" y="-645.8" font-family="Arial" font-size="14.00">    </text>
<text text-anchor="start" x="946.2" y="-645.8" font-family="Arial" font-size="14.00" fill="#666666">[BASE TABLE]</text>
<polygon fill="none" stroke="black" points="763.19,-601.6 763.19,-632.4 1082.99,-632.4 1082.99,-601.6 763.19,-601.6"/>
<text text-anchor="start" x="770.19" y="-613.8" font-family="Arial" font-size="14.00">chroncontroltypeid </text>
<text text-anchor="start" x="888.48" y="-613.8" font-family="Arial" font-size="14.00" fill="#666666">[integer]</text>
<polygon fill="none" stroke="black" points="763.19,-570.8 763.19,-601.6 1082.99,-601.6 1082.99,-570.8 763.19,-570.8"/>
<text text-anchor="start" x="770.19" y="-583" font-family="Arial" font-size="14.00">eventtype </text>
<text text-anchor="start" x="834.79" y="-583" font-family="Arial" font-size="14.00" fill="#666666">[varchar(40)]</text>
<polygon fill="none" stroke="black" points="763.19,-540 763.19,-570.8 1082.99,-570.8 1082.99,-540 763.19,-540"/>
<text text-anchor="start" x="770.19" y="-552.2" font-family="Arial" font-size="14.00">eventtypeid </text>
<text text-anchor="start" x="845.69" y="-552.2" font-family="Arial" font-size="14.00" fill="#666666">[integer]</text>
<polygon fill="none" stroke="black" points="763.19,-509.2 763.19,-540 1082.99,-540 1082.99,-509.2 763.19,-509.2"/>
<text text-anchor="start" x="770.19" y="-521.4" font-family="Arial" font-size="14.00">recdatecreated </text>
<text text-anchor="start" x="867.47" y="-521.4" font-family="Arial" font-size="14.00" fill="#666666">[timestamp(0) without time zone]</text>
<polygon fill="none" stroke="black" points="763.19,-478.4 763.19,-509.2 1082.99,-509.2 1082.99,-478.4 763.19,-478.4"/>
<text text-anchor="start" x="770.19" y="-490.6" font-family="Arial" font-size="14.00">recdatemodified </text>
<text text-anchor="start" x="873.69" y="-490.6" font-family="Arial" font-size="14.00" fill="#666666">[timestamp(0) without time zone]</text>
<polygon fill="none" stroke="black" stroke-width="3" points="761.69,-476.9 761.69,-669.5 1084.49,-669.5 1084.49,-476.9 761.69,-476.9"/>
</g>
<!-- ndb.chroncontroltypes -->
<g id="node2" class="node">
<title>ndb.chroncontroltypes</title>
<polygon fill="#efefef" stroke="none" points="549.19,-197.2 549.19,-232.8 868.99,-232.8 868.99,-197.2 549.19,-197.2"/>
<polygon fill="none" stroke="black" points="549.19,-197.2 549.19,-232.8 868.99,-232.8 868.99,-197.2 549.19,-197.2"/>
<text text-anchor="start" x="566.11" y="-210.6" font-family="Arial Bold" font-size="18.00">ndb.chroncontroltypes</text>
<text text-anchor="start" x="727.58" y="-210.6" font-family="Arial" font-size="14.00">    </text>
<text text-anchor="start" x="758.69" y="-210.6" font-family="Arial" font-size="14.00" fill="#666666">[BASE TABLE]</text>
<polygon fill="none" stroke="black" points="549.19,-166.4 549.19,-197.2 868.99,-197.2 868.99,-166.4 549.19,-166.4"/>
<text text-anchor="start" x="556.19" y="-178.6" font-family="Arial" font-size="14.00">chroncontroltype </text>
<text text-anchor="start" x="663.58" y="-178.6" font-family="Arial" font-size="14.00" fill="#666666">[varchar(64)]</text>
<polygon fill="none" stroke="black" points="549.19,-135.6 549.19,-166.4 868.99,-166.4 868.99,-135.6 549.19,-135.6"/>
<text text-anchor="start" x="556.19" y="-147.8" font-family="Arial" font-size="14.00">chroncontroltypeid </text>
<text text-anchor="start" x="674.48" y="-147.8" font-family="Arial" font-size="14.00" fill="#666666">[integer]</text>
<polygon fill="none" stroke="black" points="549.19,-104.8 549.19,-135.6 868.99,-135.6 868.99,-104.8 549.19,-104.8"/>
<text text-anchor="start" x="556.19" y="-117" font-family="Arial" font-size="14.00">higherchroncontroltypeid </text>
<text text-anchor="start" x="713.4" y="-117" font-family="Arial" font-size="14.00" fill="#666666">[integer]</text>
<polygon fill="none" stroke="black" points="549.19,-74 549.19,-104.8 868.99,-104.8 868.99,-74 549.19,-74"/>
<text text-anchor="start" x="556.19" y="-86.2" font-family="Arial" font-size="14.00">recdatecreated </text>
<text text-anchor="start" x="653.47" y="-86.2" font-family="Arial" font-size="14.00" fill="#666666">[timestamp(0) without time zone]</text>
<polygon fill="none" stroke="black" points="549.19,-43.2 549.19,-74 868.99,-74 868.99,-43.2 549.19,-43.2"/>
<text text-anchor="start" x="556.19" y="-55.4" font-family="Arial" font-size="14.00">recdatemodified </text>
<text text-anchor="start" x="659.69" y="-55.4" font-family="Arial" font-size="14.00" fill="#666666">[timestamp(0) without time zone]</text>
</g>
<!-- ndb.eventtypes&#45;&gt;ndb.chroncontroltypes -->
<g id="edge1" class="edge">
<title>ndb.eventtypes:chroncontroltypeid&#45;&gt;ndb.chroncontroltypes:chroncontroltypeid</title>
<path fill="none" stroke="black" d="M751.96,-616.37C685.27,-607.5 739.98,-507.13 763.19,-432.2 788,-352.11 844.08,-356.06 868.99,-276 885.5,-222.95 925.55,-151 869.99,-151"/>
<polygon fill="black" stroke="black" points="751.87,-616.36 761.58,-621.47 757.2,-616.69 761.52,-616.96 761.52,-616.96 761.52,-616.96 757.2,-616.69 762.13,-612.49 751.87,-616.36"/>
<text text-anchor="start" x="769.19" y="-627" font-family="Arial" font-size="10.00">FOREIGN KEY (chroncontroltypeid) REFERENCES ndb.chroncontroltypes(chroncontroltypeid)</text>
</g>
<!-- ndb.chroncontroltypes&#45;&gt;ndb.chroncontroltypes -->
<g id="edge3" class="edge">
<title>ndb.chroncontroltypes:higherchroncontroltypeid&#45;&gt;ndb.chroncontroltypes:chroncontroltypeid</title>
<path fill="none" stroke="black" d="M710.78,-145.84C718.05,-271.85 717.48,-493.6 709.09,-493.6 700.46,-493.6 700.1,-287.54 708.03,-166.1"/>
<polygon fill="black" stroke="black" points="710.78,-145.76 714.66,-135.51 710.45,-140.44 710.19,-136.11 710.19,-136.11 710.19,-136.11 710.45,-140.44 705.68,-136.05 710.78,-145.76"/>
<text text-anchor="start" x="717.15" y="-145.45" font-family="Arial" font-size="10.00">FOREIGN KEY (higherchroncontroltypeid) REFERENCES ndb.chroncontroltypes(chroncontroltypeid)</text>
</g>
<!-- ndb.chroncontrols -->
<g id="node3" class="node">
<title>ndb.chroncontrols</title>
<polygon fill="#efefef" stroke="none" points="336.19,-755.6 336.19,-791.2 655.99,-791.2 655.99,-755.6 336.19,-755.6"/>
<polygon fill="none" stroke="black" points="336.19,-755.6 336.19,-791.2 655.99,-791.2 655.99,-755.6 336.19,-755.6"/>
<text text-anchor="start" x="368.61" y="-769" font-family="Arial Bold" font-size="18.00">ndb.chroncontrols</text>
<text text-anchor="start" x="499.08" y="-769" font-family="Arial" font-size="14.00">    </text>
<text text-anchor="start" x="530.2" y="-769" font-family="Arial" font-size="14.00" fill="#666666">[BASE TABLE]</text>
<polygon fill="none" stroke="black" points="336.19,-724.8 336.19,-755.6 655.99,-755.6 655.99,-724.8 336.19,-724.8"/>
<text text-anchor="start" x="343.19" y="-737" font-family="Arial" font-size="14.00">age </text>
<text text-anchor="start" x="370.44" y="-737" font-family="Arial" font-size="14.00" fill="#666666">[double precision]</text>
<polygon fill="none" stroke="black" points="336.19,-694 336.19,-724.8 655.99,-724.8 655.99,-694 336.19,-694"/>
<text text-anchor="start" x="343.19" y="-706.2" font-family="Arial" font-size="14.00">agelimitolder </text>
<text text-anchor="start" x="426.45" y="-706.2" font-family="Arial" font-size="14.00" fill="#666666">[double precision]</text>
<polygon fill="none" stroke="black" points="336.19,-663.2 336.19,-694 655.99,-694 655.99,-663.2 336.19,-663.2"/>
<text text-anchor="start" x="343.19" y="-675.4" font-family="Arial" font-size="14.00">agelimityounger </text>
<text text-anchor="start" x="445.91" y="-675.4" font-family="Arial" font-size="14.00" fill="#666666">[double precision]</text>
<polygon fill="none" stroke="black" points="336.19,-632.4 336.19,-663.2 655.99,-663.2 655.99,-632.4 336.19,-632.4"/>
<text text-anchor="start" x="343.19" y="-644.6" font-family="Arial" font-size="14.00">agetypeid </text>
<text text-anchor="start" x="407.8" y="-644.6" font-family="Arial" font-size="14.00" fill="#666666">[integer]</text>
<polygon fill="none" stroke="black" points="336.19,-601.6 336.19,-632.4 655.99,-632.4 655.99,-601.6 336.19,-601.6"/>
<text text-anchor="start" x="343.19" y="-613.8" font-family="Arial" font-size="14.00">analysisunitid </text>
<text text-anchor="start" x="431.13" y="-613.8" font-family="Arial" font-size="14.00" fill="#666666">[integer]</text>
<polygon fill="none" stroke="black" points="336.19,-570.8 336.19,-601.6 655.99,-601.6 655.99,-570.8 336.19,-570.8"/>
<text text-anchor="start" x="343.19" y="-583" font-family="Arial" font-size="14.00">chroncontrolid </text>
<text text-anchor="start" x="435.02" y="-583" font-family="Arial" font-size="14.00" fill="#666666">[integer]</text>
<polygon fill="none" stroke="black" points="336.19,-540 336.19,-570.8 655.99,-570.8 655.99,-540 336.19,-540"/>
<text text-anchor="start" x="343.19" y="-552.2" font-family="Arial" font-size="14.00">chroncontroltypeid </text>
<text text-anchor="start" x="461.48" y="-552.2" font-family="Arial" font-size="14.00" fill="#666666">[integer]</text>
<polygon fill="none" stroke="black" points="336.19,-509.2 336.19,-540 655.99,-540 655.99,-509.2 336.19,-509.2"/>
<text text-anchor="start" x="343.19" y="-521.4" font-family="Arial" font-size="14.00">chronologyid </text>
<text text-anchor="start" x="426.46" y="-521.4" font-family="Arial" font-size="14.00" fill="#666666">[integer]</text>
<polygon fill="none" stroke="black" points="336.19,-478.4 336.19,-509.2 655.99,-509.2 655.99,-478.4 336.19,-478.4"/>
<text text-anchor="start" x="343.19" y="-490.6" font-family="Arial" font-size="14.00">depth </text>
<text text-anchor="start" x="382.11" y="-490.6" font-family="Arial" font-size="14.00" fill="#666666">[double precision]</text>
<polygon fill="none" stroke="black" points="336.19,-447.6 336.19,-478.4 655.99,-478.4 655.99,-447.6 336.19,-447.6"/>
<text text-anchor="start" x="343.19" y="-459.8" font-family="Arial" font-size="14.00">notes </text>
<text text-anchor="start" x="381.33" y="-459.8" font-family="Arial" font-size="14.00" fill="#666666">[text]</text>
<polygon fill="none" stroke="black" points="336.19,-416.8 336.19,-447.6 655.99,-447.6 655.99,-416.8 336.19,-416.8"/>
<text text-anchor="start" x="343.19" y="-429" font-family="Arial" font-size="14.00">recdatecreated </text>
<text text-anchor="start" x="440.47" y="-429" font-family="Arial" font-size="14.00" fill="#666666">[timestamp(0) without time zone]</text>
<polygon fill="none" stroke="black" points="336.19,-386 336.19,-416.8 655.99,-416.8 655.99,-386 336.19,-386"/>
<text text-anchor="start" x="343.19" y="-398.2" font-family="Arial" font-size="14.00">recdatemodified </text>
<text text-anchor="start" x="446.69" y="-398.2" font-family="Arial" font-size="14.00" fill="#666666">[timestamp(0) without time zone]</text>
<polygon fill="none" stroke="black" points="336.19,-355.2 336.19,-386 655.99,-386 655.99,-355.2 336.19,-355.2"/>
<text text-anchor="start" x="343.19" y="-367.4" font-family="Arial" font-size="14.00">thickness </text>
<text text-anchor="start" x="405.44" y="-367.4" font-family="Arial" font-size="14.00" fill="#666666">[double precision]</text>
</g>
<!-- ndb.chroncontrols&#45;&gt;ndb.chroncontroltypes -->
<g id="edge2" class="edge">
<title>ndb.chroncontrols:chroncontroltypeid&#45;&gt;ndb.chroncontroltypes:chroncontroltypeid</title>
<path fill="none" stroke="black" d="M667.02,-552.72C707.83,-528.85 685.47,-352.87 655.99,-312 626.68,-271.38 578.57,-316.57 549.19,-276 516.6,-231 492.63,-151 548.19,-151"/>
<polygon fill="black" stroke="black" points="666.97,-552.73 656.15,-550.97 661.82,-554.11 657.63,-555.23 657.63,-555.23 657.63,-555.23 661.82,-554.11 658.47,-559.66 666.97,-552.73"/>
<text text-anchor="start" x="7" y="-565.4" font-family="Arial" font-size="10.00">FOREIGN KEY (chroncontroltypeid) REFERENCES ndb.chroncontroltypes(chroncontroltypeid) ON UPDATE CASCADE ON DELETE CASCADE</text>
</g>
<!-- ndb.events -->
<g id="node4" class="node">
<title>ndb.events</title>
<polygon fill="#efefef" stroke="none" points="763.19,-1283.2 763.19,-1318.8 1082.99,-1318.8 1082.99,-1283.2 763.19,-1283.2"/>
<polygon fill="none" stroke="black" points="763.19,-1283.2 763.19,-1318.8 1082.99,-1318.8 1082.99,-1283.2 763.19,-1283.2"/>
<text text-anchor="start" x="822.1" y="-1296.6" font-family="Arial Bold" font-size="18.00">ndb.events</text>
<text text-anchor="start" x="899.59" y="-1296.6" font-family="Arial" font-size="14.00">    </text>
<text text-anchor="start" x="930.7" y="-1296.6" font-family="Arial" font-size="14.00" fill="#666666">[BASE TABLE]</text>
<polygon fill="none" stroke="black" points="763.19,-1252.4 763.19,-1283.2 1082.99,-1283.2 1082.99,-1252.4 763.19,-1252.4"/>
<text text-anchor="start" x="770.19" y="-1264.6" font-family="Arial" font-size="14.00">c14age </text>
<text text-anchor="start" x="820.01" y="-1264.6" font-family="Arial" font-size="14.00" fill="#666666">[double precision]</text>
<polygon fill="none" stroke="black" points="763.19,-1221.6 763.19,-1252.4 1082.99,-1252.4 1082.99,-1221.6 763.19,-1221.6"/>
<text text-anchor="start" x="770.19" y="-1233.8" font-family="Arial" font-size="14.00">c14ageolder </text>
<text text-anchor="start" x="851.14" y="-1233.8" font-family="Arial" font-size="14.00" fill="#666666">[double precision]</text>
<polygon fill="none" stroke="black" points="763.19,-1190.8 763.19,-1221.6 1082.99,-1221.6 1082.99,-1190.8 763.19,-1190.8"/>
<text text-anchor="start" x="770.19" y="-1203" font-family="Arial" font-size="14.00">c14ageyounger </text>
<text text-anchor="start" x="870.6" y="-1203" font-family="Arial" font-size="14.00" fill="#666666">[double precision]</text>
<polygon fill="none" stroke="black" points="763.19,-1160 763.19,-1190.8 1082.99,-1190.8 1082.99,-1160 763.19,-1160"/>
<text text-anchor="start" x="770.19" y="-1172.2" font-family="Arial" font-size="14.00">calage </text>
<text text-anchor="start" x="815.33" y="-1172.2" font-family="Arial" font-size="14.00" fill="#666666">[double precision]</text>
<polygon fill="none" stroke="black" points="763.19,-1129.2 763.19,-1160 1082.99,-1160 1082.99,-1129.2 763.19,-1129.2"/>
<text text-anchor="start" x="770.19" y="-1141.4" font-family="Arial" font-size="14.00">calageolder </text>
<text text-anchor="start" x="846.46" y="-1141.4" font-family="Arial" font-size="14.00" fill="#666666">[double precision]</text>
<polygon fill="none" stroke="black" points="763.19,-1098.4 763.19,-1129.2 1082.99,-1129.2 1082.99,-1098.4 763.19,-1098.4"/>
<text text-anchor="start" x="770.19" y="-1110.6" font-family="Arial" font-size="14.00">calageyounger </text>
<text text-anchor="start" x="865.93" y="-1110.6" font-family="Arial" font-size="14.00" fill="#666666">[double precision]</text>
<polygon fill="none" stroke="black" points="763.19,-1067.6 763.19,-1098.4 1082.99,-1098.4 1082.99,-1067.6 763.19,-1067.6"/>
<text text-anchor="start" x="770.19" y="-1079.8" font-family="Arial" font-size="14.00">eventid </text>
<text text-anchor="start" x="819.22" y="-1079.8" font-family="Arial" font-size="14.00" fill="#666666">[integer]</text>
<polygon fill="none" stroke="black" points="763.19,-1036.8 763.19,-1067.6 1082.99,-1067.6 1082.99,-1036.8 763.19,-1036.8"/>
<text text-anchor="start" x="770.19" y="-1049" font-family="Arial" font-size="14.00">eventname </text>
<text text-anchor="start" x="843.35" y="-1049" font-family="Arial" font-size="14.00" fill="#666666">[varchar(80)]</text>
<polygon fill="none" stroke="black" points="763.19,-1006 763.19,-1036.8 1082.99,-1036.8 1082.99,-1006 763.19,-1006"/>
<text text-anchor="start" x="770.19" y="-1018.2" font-family="Arial" font-size="14.00">eventtypeid </text>
<text text-anchor="start" x="845.69" y="-1018.2" font-family="Arial" font-size="14.00" fill="#666666">[integer]</text>
<polygon fill="none" stroke="black" points="763.19,-975.2 763.19,-1006 1082.99,-1006 1082.99,-975.2 763.19,-975.2"/>
<text text-anchor="start" x="770.19" y="-987.4" font-family="Arial" font-size="14.00">notes </text>
<text text-anchor="start" x="808.33" y="-987.4" font-family="Arial" font-size="14.00" fill="#666666">[text]</text>
<polygon fill="none" stroke="black" points="763.19,-944.4 763.19,-975.2 1082.99,-975.2 1082.99,-944.4 763.19,-944.4"/>
<text text-anchor="start" x="770.19" y="-956.6" font-family="Arial" font-size="14.00">recdatecreated </text>
<text text-anchor="start" x="867.47" y="-956.6" font-family="Arial" font-size="14.00" fill="#666666">[timestamp(0) without time zone]</text>
<polygon fill="none" stroke="black" points="763.19,-913.6 763.19,-944.4 1082.99,-944.4 1082.99,-913.6 763.19,-913.6"/>
<text text-anchor="start" x="770.19" y="-925.8" font-family="Arial" font-size="14.00">recdatemodified </text>
<text text-anchor="start" x="873.69" y="-925.8" font-family="Arial" font-size="14.00" fill="#666666">[timestamp(0) without time zone]</text>
</g>
<!-- ndb.events&#45;&gt;ndb.eventtypes -->
<g id="edge4" class="edge">
<title>ndb.events:eventtypeid&#45;&gt;ndb.eventtypes:eventtypeid</title>
<path fill="none" stroke="black" d="M1094.13,-1021.02C1291.04,-1006.06 1287.66,-555.4 1083.99,-555.4"/>
<polygon fill="black" stroke="black" points="1094.32,-1021.01 1084.15,-1016.89 1088.98,-1021.21 1084.66,-1021.37 1084.66,-1021.37 1084.66,-1021.37 1088.98,-1021.21 1084.49,-1025.88 1094.32,-1021.01"/>
<text text-anchor="start" x="1090.99" y="-1031.4" font-family="Arial" font-size="10.00">FOREIGN KEY (eventtypeid) REFERENCES ndb.eventtypes(eventtypeid) ON UPDATE CASCADE ON DELETE CASCADE</text>
</g>
<!-- ndb.eventchronology -->
<g id="node5" class="node">
<title>ndb.eventchronology</title>
<polygon fill="#efefef" stroke="none" points="339.19,-1656.8 339.19,-1692.4 658.99,-1692.4 658.99,-1656.8 339.19,-1656.8"/>
<polygon fill="none" stroke="black" points="339.19,-1656.8 339.19,-1692.4 658.99,-1692.4 658.99,-1656.8 339.19,-1656.8"/>
<text text-anchor="start" x="360.61" y="-1670.2" font-family="Arial Bold" font-size="18.00">ndb.eventchronology</text>
<text text-anchor="start" x="513.08" y="-1670.2" font-family="Arial" font-size="14.00">    </text>
<text text-anchor="start" x="544.19" y="-1670.2" font-family="Arial" font-size="14.00" fill="#666666">[BASE TABLE]</text>
<polygon fill="none" stroke="black" points="339.19,-1626 339.19,-1656.8 658.99,-1656.8 658.99,-1626 339.19,-1626"/>
<text text-anchor="start" x="346.19" y="-1638.2" font-family="Arial" font-size="14.00">analysisunitid </text>
<text text-anchor="start" x="434.13" y="-1638.2" font-family="Arial" font-size="14.00" fill="#666666">[integer]</text>
<polygon fill="none" stroke="black" points="339.19,-1595.2 339.19,-1626 658.99,-1626 658.99,-1595.2 339.19,-1595.2"/>
<text text-anchor="start" x="346.19" y="-1607.4" font-family="Arial" font-size="14.00">chroncontrolid </text>
<text text-anchor="start" x="438.02" y="-1607.4" font-family="Arial" font-size="14.00" fill="#666666">[integer]</text>
<polygon fill="none" stroke="black" points="339.19,-1564.4 339.19,-1595.2 658.99,-1595.2 658.99,-1564.4 339.19,-1564.4"/>
<text text-anchor="start" x="346.19" y="-1576.6" font-family="Arial" font-size="14.00">eventchronologyid </text>
<text text-anchor="start" x="463.71" y="-1576.6" font-family="Arial" font-size="14.00" fill="#666666">[integer]</text>
<polygon fill="none" stroke="black" points="339.19,-1533.6 339.19,-1564.4 658.99,-1564.4 658.99,-1533.6 339.19,-1533.6"/>
<text text-anchor="start" x="346.19" y="-1545.8" font-family="Arial" font-size="14.00">eventid </text>
<text text-anchor="start" x="395.22" y="-1545.8" font-family="Arial" font-size="14.00" fill="#666666">[integer]</text>
<polygon fill="none" stroke="black" points="339.19,-1502.8 339.19,-1533.6 658.99,-1533.6 658.99,-1502.8 339.19,-1502.8"/>
<text text-anchor="start" x="346.19" y="-1515" font-family="Arial" font-size="14.00">notes </text>
<text text-anchor="start" x="384.33" y="-1515" font-family="Arial" font-size="14.00" fill="#666666">[text]</text>
<polygon fill="none" stroke="black" points="339.19,-1472 339.19,-1502.8 658.99,-1502.8 658.99,-1472 339.19,-1472"/>
<text text-anchor="start" x="346.19" y="-1484.2" font-family="Arial" font-size="14.00">recdatecreated </text>
<text text-anchor="start" x="443.47" y="-1484.2" font-family="Arial" font-size="14.00" fill="#666666">[timestamp(0) without time zone]</text>
<polygon fill="none" stroke="black" points="339.19,-1441.2 339.19,-1472 658.99,-1472 658.99,-1441.2 339.19,-1441.2"/>
<text text-anchor="start" x="346.19" y="-1453.4" font-family="Arial" font-size="14.00">recdatemodified </text>
<text text-anchor="start" x="449.69" y="-1453.4" font-family="Arial" font-size="14.00" fill="#666666">[timestamp(0) without time zone]</text>
</g>
<!-- ndb.eventchronology&#45;&gt;ndb.events -->
<g id="edge5" class="edge">
<title>ndb.eventchronology:eventid&#45;&gt;ndb.events:eventid</title>
<path fill="none" stroke="black" d="M670.12,-1547.4C758.75,-1517.69 659.8,-1083 762.19,-1083"/>
<polygon fill="black" stroke="black" points="670.2,-1547.39 659.62,-1544.5 664.93,-1548.22 660.65,-1548.9 660.65,-1548.9 660.65,-1548.9 664.93,-1548.22 661.02,-1553.39 670.2,-1547.39"/>
<text text-anchor="start" x="666.99" y="-1559" font-family="Arial" font-size="10.00">FOREIGN KEY (eventid) REFERENCES ndb.events(eventid)</text>
</g>
<!-- ndb.eventpublications -->
<g id="node6" class="node">
<title>ndb.eventpublications</title>
<polygon fill="#efefef" stroke="none" points="763.19,-1610.6 763.19,-1646.2 1082.99,-1646.2 1082.99,-1610.6 763.19,-1610.6"/>
<polygon fill="none" stroke="black" points="763.19,-1610.6 763.19,-1646.2 1082.99,-1646.2 1082.99,-1610.6 763.19,-1610.6"/>
<text text-anchor="start" x="781.61" y="-1624" font-family="Arial Bold" font-size="18.00">ndb.eventpublications</text>
<text text-anchor="start" x="940.08" y="-1624" font-family="Arial" font-size="14.00">    </text>
<text text-anchor="start" x="971.19" y="-1624" font-family="Arial" font-size="14.00" fill="#666666">[BASE TABLE]</text>
<polygon fill="none" stroke="black" points="763.19,-1579.8 763.19,-1610.6 1082.99,-1610.6 1082.99,-1579.8 763.19,-1579.8"/>
<text text-anchor="start" x="770.19" y="-1592" font-family="Arial" font-size="14.00">eventid </text>
<text text-anchor="start" x="819.22" y="-1592" font-family="Arial" font-size="14.00" fill="#666666">[integer]</text>
<polygon fill="none" stroke="black" points="763.19,-1549 763.19,-1579.8 1082.99,-1579.8 1082.99,-1549 763.19,-1549"/>
<text text-anchor="start" x="770.19" y="-1561.2" font-family="Arial" font-size="14.00">publicationid </text>
<text text-anchor="start" x="851.91" y="-1561.2" font-family="Arial" font-size="14.00" fill="#666666">[integer]</text>
<polygon fill="none" stroke="black" points="763.19,-1518.2 763.19,-1549 1082.99,-1549 1082.99,-1518.2 763.19,-1518.2"/>
<text text-anchor="start" x="770.19" y="-1530.4" font-family="Arial" font-size="14.00">recdatecreated </text>
<text text-anchor="start" x="867.47" y="-1530.4" font-family="Arial" font-size="14.00" fill="#666666">[timestamp(0) without time zone]</text>
<polygon fill="none" stroke="black" points="763.19,-1487.4 763.19,-1518.2 1082.99,-1518.2 1082.99,-1487.4 763.19,-1487.4"/>
<text text-anchor="start" x="770.19" y="-1499.6" font-family="Arial" font-size="14.00">recdatemodified </text>
<text text-anchor="start" x="873.69" y="-1499.6" font-family="Arial" font-size="14.00" fill="#666666">[timestamp(0) without time zone]</text>
</g>
<!-- ndb.eventpublications&#45;&gt;ndb.events -->
<g id="edge6" class="edge">
<title>ndb.eventpublications:eventid&#45;&gt;ndb.events:eventid</title>
<path fill="none" stroke="black" d="M1093.11,-1590.46C1140.72,-1538.82 1137.68,-1083 1083.99,-1083"/>
<polygon fill="black" stroke="black" points="1093.16,-1590.43 1082.21,-1591.05 1088.42,-1592.89 1084.58,-1594.89 1084.58,-1594.89 1084.58,-1594.89 1088.42,-1592.89 1086.36,-1599.04 1093.16,-1590.43"/>
<text text-anchor="start" x="582.4" y="-1605.2" font-family="Arial" font-size="10.00">FOREIGN KEY (eventid) REFERENCES ndb.events(eventid) ON UPDATE CASCADE ON DELETE CASCADE</text>
</g>
<!-- ndb.tephras -->
<g id="node7" class="node">
<title>ndb.tephras</title>
<polygon fill="#efefef" stroke="none" points="1187.19,-1641.4 1187.19,-1677 1506.99,-1677 1506.99,-1641.4 1187.19,-1641.4"/>
<polygon fill="none" stroke="black" points="1187.19,-1641.4 1187.19,-1677 1506.99,-1677 1506.99,-1641.4 1187.19,-1641.4"/>
<text text-anchor="start" x="1243.1" y="-1654.8" font-family="Arial Bold" font-size="18.00">ndb.tephras</text>
<text text-anchor="start" x="1326.58" y="-1654.8" font-family="Arial" font-size="14.00">    </text>
<text text-anchor="start" x="1357.7" y="-1654.8" font-family="Arial" font-size="14.00" fill="#666666">[BASE TABLE]</text>
<polygon fill="none" stroke="black" points="1187.19,-1610.6 1187.19,-1641.4 1506.99,-1641.4 1506.99,-1610.6 1187.19,-1610.6"/>
<text text-anchor="start" x="1194.19" y="-1622.8" font-family="Arial" font-size="14.00">analysisunitid </text>
<text text-anchor="start" x="1282.13" y="-1622.8" font-family="Arial" font-size="14.00" fill="#666666">[integer]</text>
<polygon fill="none" stroke="black" points="1187.19,-1579.8 1187.19,-1610.6 1506.99,-1610.6 1506.99,-1579.8 1187.19,-1579.8"/>
<text text-anchor="start" x="1194.19" y="-1592" font-family="Arial" font-size="14.00">eventid </text>
<text text-anchor="start" x="1243.22" y="-1592" font-family="Arial" font-size="14.00" fill="#666666">[integer]</text>
<polygon fill="none" stroke="black" points="1187.19,-1549 1187.19,-1579.8 1506.99,-1579.8 1506.99,-1549 1187.19,-1549"/>
<text text-anchor="start" x="1194.19" y="-1561.2" font-family="Arial" font-size="14.00">notes </text>
<text text-anchor="start" x="1232.33" y="-1561.2" font-family="Arial" font-size="14.00" fill="#666666">[text]</text>
<polygon fill="none" stroke="black" points="1187.19,-1518.2 1187.19,-1549 1506.99,-1549 1506.99,-1518.2 1187.19,-1518.2"/>
<text text-anchor="start" x="1194.19" y="-1530.4" font-family="Arial" font-size="14.00">recdatecreated </text>
<text text-anchor="start" x="1291.47" y="-1530.4" font-family="Arial" font-size="14.00" fill="#666666">[timestamp(0) without time zone]</text>
<polygon fill="none" stroke="black" points="1187.19,-1487.4 1187.19,-1518.2 1506.99,-1518.2 1506.99,-1487.4 1187.19,-1487.4"/>
<text text-anchor="start" x="1194.19" y="-1499.6" font-family="Arial" font-size="14.00">recdatemodified </text>
<text text-anchor="start" x="1297.69" y="-1499.6" font-family="Arial" font-size="14.00" fill="#666666">[timestamp(0) without time zone]</text>
<polygon fill="none" stroke="black" points="1187.19,-1456.6 1187.19,-1487.4 1506.99,-1487.4 1506.99,-1456.6 1187.19,-1456.6"/>
<text text-anchor="start" x="1194.19" y="-1468.8" font-family="Arial" font-size="14.00">tephraid </text>
<text text-anchor="start" x="1248.67" y="-1468.8" font-family="Arial" font-size="14.00" fill="#666666">[integer]</text>
</g>
<!-- ndb.tephras&#45;&gt;ndb.events -->
<g id="edge7" class="edge">
<title>ndb.tephras:eventid&#45;&gt;ndb.events:eventid</title>
<path fill="none" stroke="black" d="M1176.99,-1590.46C1129.5,-1538.82 1138.73,-1083 1083.99,-1083"/>
<polygon fill="black" stroke="black" points="1177.01,-1590.46 1183.83,-1599.05 1181.75,-1592.91 1185.59,-1594.89 1185.59,-1594.89 1185.59,-1594.89 1181.75,-1592.91 1187.96,-1591.05 1177.01,-1590.46"/>
<text text-anchor="start" x="1193.19" y="-1605.2" font-family="Arial" font-size="10.00">FOREIGN KEY (eventid) REFERENCES ndb.events(eventid) ON UPDATE CASCADE ON DELETE CASCADE</text>
</g>
</g>
</svg>
