<?xml version="1.0" encoding="UTF-8" standalone="no"?>
<!DOCTYPE svg PUBLIC "-//W3C//DTD SVG 1.1//EN"
 "http://www.w3.org/Graphics/SVG/1.1/DTD/svg11.dtd">
<!-- Generated by graphviz version 12.1.2 (20240928.0832)
 -->
<!-- Title: ndb.chroncontrolprecisionranks Pages: 1 -->
<svg width="2383pt" height="966pt"
 viewBox="0.00 0.00 2382.82 965.60" xmlns="http://www.w3.org/2000/svg" xmlns:xlink="http://www.w3.org/1999/xlink">
<g id="graph0" class="graph" transform="scale(1 1) rotate(0) translate(4 961.6)">
<title>ndb.chroncontrolprecisionranks</title>
<polygon fill="white" stroke="none" points="-4,4 -4,-961.6 2378.82,-961.6 2378.82,4 -4,4"/>
<!-- ndb.chroncontrolprecisionranks -->
<g id="node1" class="node">
<title>ndb.chroncontrolprecisionranks</title>
<polygon fill="#efefef" stroke="none" points="46.2,-305 46.2,-340.6 413.13,-340.6 413.13,-305 46.2,-305"/>
<polygon fill="none" stroke="black" points="46.2,-305 46.2,-340.6 413.13,-340.6 413.13,-305 46.2,-305"/>
<text text-anchor="start" x="53.2" y="-318.4" font-family="Arial Bold" font-size="18.00">ndb.chroncontrolprecisionranks</text>
<text text-anchor="start" x="281.64" y="-318.4" font-family="Arial" font-size="14.00">    </text>
<text text-anchor="start" x="312.75" y="-318.4" font-family="Arial" font-size="14.00" fill="#666666">[BASE TABLE]</text>
<polygon fill="none" stroke="black" points="46.2,-274.2 46.2,-305 413.13,-305 413.13,-274.2 46.2,-274.2"/>
<text text-anchor="start" x="53.2" y="-286.4" font-family="Arial" font-size="14.00">precisionrankid </text>
<text text-anchor="start" x="151.25" y="-286.4" font-family="Arial" font-size="14.00" fill="#666666">[integer]</text>
<polygon fill="none" stroke="black" points="46.2,-243.4 46.2,-274.2 413.13,-274.2 413.13,-243.4 46.2,-243.4"/>
<text text-anchor="start" x="53.2" y="-255.6" font-family="Arial" font-size="14.00">precisionrank </text>
<text text-anchor="start" x="140.35" y="-255.6" font-family="Arial" font-size="14.00" fill="#666666">[varchar(255)]</text>
<polygon fill="none" stroke="black" points="46.2,-212.6 46.2,-243.4 413.13,-243.4 413.13,-212.6 46.2,-212.6"/>
<text text-anchor="start" x="53.2" y="-224.8" font-family="Arial" font-size="14.00">recdatecreated </text>
<text text-anchor="start" x="150.48" y="-224.8" font-family="Arial" font-size="14.00" fill="#666666">[timestamp(0) without time zone]</text>
<polygon fill="none" stroke="black" points="46.2,-181.8 46.2,-212.6 413.13,-212.6 413.13,-181.8 46.2,-181.8"/>
<text text-anchor="start" x="53.2" y="-194" font-family="Arial" font-size="14.00">recdatemodified </text>
<text text-anchor="start" x="156.7" y="-194" font-family="Arial" font-size="14.00" fill="#666666">[timestamp(0) without time zone]</text>
<polygon fill="none" stroke="black" stroke-width="3" points="44.7,-180.3 44.7,-342.1 414.63,-342.1 414.63,-180.3 44.7,-180.3"/>
</g>
<!-- ndb.chroncontrolranks -->
<g id="node2" class="node">
<title>ndb.chroncontrolranks</title>
<polygon fill="#efefef" stroke="none" points="967.76,-878.8 967.76,-914.4 1287.56,-914.4 1287.56,-878.8 967.76,-878.8"/>
<polygon fill="none" stroke="black" points="967.76,-878.8 967.76,-914.4 1287.56,-914.4 1287.56,-878.8 967.76,-878.8"/>
<text text-anchor="start" x="984.19" y="-892.2" font-family="Arial Bold" font-size="18.00">ndb.chroncontrolranks</text>
<text text-anchor="start" x="1146.65" y="-892.2" font-family="Arial" font-size="14.00">    </text>
<text text-anchor="start" x="1177.76" y="-892.2" font-family="Arial" font-size="14.00" fill="#666666">[BASE TABLE]</text>
<polygon fill="none" stroke="black" points="967.76,-848 967.76,-878.8 1287.56,-878.8 1287.56,-848 967.76,-848"/>
<text text-anchor="start" x="974.76" y="-860.2" font-family="Arial" font-size="14.00">chroncontrolrankid </text>
<text text-anchor="start" x="1093.83" y="-860.2" font-family="Arial" font-size="14.00" fill="#666666">[integer]</text>
<polygon fill="none" stroke="black" points="967.76,-817.2 967.76,-848 1287.56,-848 1287.56,-817.2 967.76,-817.2"/>
<text text-anchor="start" x="974.76" y="-829.4" font-family="Arial" font-size="14.00">chroncontrolid </text>
<text text-anchor="start" x="1066.59" y="-829.4" font-family="Arial" font-size="14.00" fill="#666666">[integer]</text>
<polygon fill="none" stroke="black" points="967.76,-786.4 967.76,-817.2 1287.56,-817.2 1287.56,-786.4 967.76,-786.4"/>
<text text-anchor="start" x="974.76" y="-798.6" font-family="Arial" font-size="14.00">accuracyrankid </text>
<text text-anchor="start" x="1072.8" y="-798.6" font-family="Arial" font-size="14.00" fill="#666666">[integer]</text>
<polygon fill="none" stroke="black" points="967.76,-755.6 967.76,-786.4 1287.56,-786.4 1287.56,-755.6 967.76,-755.6"/>
<text text-anchor="start" x="974.76" y="-767.8" font-family="Arial" font-size="14.00">accuracydirectionid </text>
<text text-anchor="start" x="1098.49" y="-767.8" font-family="Arial" font-size="14.00" fill="#666666">[integer]</text>
<polygon fill="none" stroke="black" points="967.76,-724.8 967.76,-755.6 1287.56,-755.6 1287.56,-724.8 967.76,-724.8"/>
<text text-anchor="start" x="974.76" y="-737" font-family="Arial" font-size="14.00">accuracydistributionid </text>
<text text-anchor="start" x="1113.27" y="-737" font-family="Arial" font-size="14.00" fill="#666666">[integer]</text>
<polygon fill="none" stroke="black" points="967.76,-694 967.76,-724.8 1287.56,-724.8 1287.56,-694 967.76,-694"/>
<text text-anchor="start" x="974.76" y="-706.2" font-family="Arial" font-size="14.00">precisionrankid </text>
<text text-anchor="start" x="1072.81" y="-706.2" font-family="Arial" font-size="14.00" fill="#666666">[integer]</text>
<polygon fill="none" stroke="black" points="967.76,-663.2 967.76,-694 1287.56,-694 1287.56,-663.2 967.76,-663.2"/>
<text text-anchor="start" x="974.76" y="-675.4" font-family="Arial" font-size="14.00">outlier </text>
<text text-anchor="start" x="1016.78" y="-675.4" font-family="Arial" font-size="14.00" fill="#666666">[boolean]</text>
<polygon fill="none" stroke="black" points="967.76,-632.4 967.76,-663.2 1287.56,-663.2 1287.56,-632.4 967.76,-632.4"/>
<text text-anchor="start" x="974.76" y="-644.6" font-family="Arial" font-size="14.00">recdatecreated </text>
<text text-anchor="start" x="1072.05" y="-644.6" font-family="Arial" font-size="14.00" fill="#666666">[timestamp(0) without time zone]</text>
<polygon fill="none" stroke="black" points="967.76,-601.6 967.76,-632.4 1287.56,-632.4 1287.56,-601.6 967.76,-601.6"/>
<text text-anchor="start" x="974.76" y="-613.8" font-family="Arial" font-size="14.00">recdatemodified </text>
<text text-anchor="start" x="1078.27" y="-613.8" font-family="Arial" font-size="14.00" fill="#666666">[timestamp(0) without time zone]</text>
</g>
<!-- ndb.chroncontrolranks&#45;&gt;ndb.chroncontrolprecisionranks -->
<g id="edge1" class="edge">
<title>ndb.chroncontrolranks:precisionrankid&#45;&gt;ndb.chroncontrolprecisionranks:precisionrankid</title>
<path fill="none" stroke="black" d="M956.46,-709.39C727.2,-709.09 622.46,-697.44 468.66,-522.4 398.52,-442.57 520.39,-289.6 414.13,-289.6"/>
<polygon fill="black" stroke="black" points="956.43,-709.39 966.43,-713.9 961.76,-709.4 966.09,-709.4 966.09,-709.4 966.09,-709.4 961.76,-709.4 966.43,-704.9 956.43,-709.39"/>
<text text-anchor="start" x="305.12" y="-719.4" font-family="Arial" font-size="10.00">FOREIGN KEY (precisionrankid) REFERENCES ndb.chroncontrolprecisionranks(precisionrankid) ON UPDATE CASCADE ON DELETE CASCADE</text>
</g>
<!-- ndb.chroncontrols -->
<g id="node3" class="node">
<title>ndb.chroncontrols</title>
<polygon fill="#efefef" stroke="none" points="520.76,-443.6 520.76,-479.2 840.56,-479.2 840.56,-443.6 520.76,-443.6"/>
<polygon fill="none" stroke="black" points="520.76,-443.6 520.76,-479.2 840.56,-479.2 840.56,-443.6 520.76,-443.6"/>
<text text-anchor="start" x="553.18" y="-457" font-family="Arial Bold" font-size="18.00">ndb.chroncontrols</text>
<text text-anchor="start" x="683.66" y="-457" font-family="Arial" font-size="14.00">    </text>
<text text-anchor="start" x="714.77" y="-457" font-family="Arial" font-size="14.00" fill="#666666">[BASE TABLE]</text>
<polygon fill="none" stroke="black" points="520.76,-412.8 520.76,-443.6 840.56,-443.6 840.56,-412.8 520.76,-412.8"/>
<text text-anchor="start" x="527.76" y="-425" font-family="Arial" font-size="14.00">chroncontrolid </text>
<text text-anchor="start" x="619.59" y="-425" font-family="Arial" font-size="14.00" fill="#666666">[integer]</text>
<polygon fill="none" stroke="black" points="520.76,-382 520.76,-412.8 840.56,-412.8 840.56,-382 520.76,-382"/>
<text text-anchor="start" x="527.76" y="-394.2" font-family="Arial" font-size="14.00">chronologyid </text>
<text text-anchor="start" x="611.04" y="-394.2" font-family="Arial" font-size="14.00" fill="#666666">[integer]</text>
<polygon fill="none" stroke="black" points="520.76,-351.2 520.76,-382 840.56,-382 840.56,-351.2 520.76,-351.2"/>
<text text-anchor="start" x="527.76" y="-363.4" font-family="Arial" font-size="14.00">chroncontroltypeid </text>
<text text-anchor="start" x="646.05" y="-363.4" font-family="Arial" font-size="14.00" fill="#666666">[integer]</text>
<polygon fill="none" stroke="black" points="520.76,-320.4 520.76,-351.2 840.56,-351.2 840.56,-320.4 520.76,-320.4"/>
<text text-anchor="start" x="527.76" y="-332.6" font-family="Arial" font-size="14.00">depth </text>
<text text-anchor="start" x="566.69" y="-332.6" font-family="Arial" font-size="14.00" fill="#666666">[double precision]</text>
<polygon fill="none" stroke="black" points="520.76,-289.6 520.76,-320.4 840.56,-320.4 840.56,-289.6 520.76,-289.6"/>
<text text-anchor="start" x="527.76" y="-301.8" font-family="Arial" font-size="14.00">thickness </text>
<text text-anchor="start" x="590.01" y="-301.8" font-family="Arial" font-size="14.00" fill="#666666">[double precision]</text>
<polygon fill="none" stroke="black" points="520.76,-258.8 520.76,-289.6 840.56,-289.6 840.56,-258.8 520.76,-258.8"/>
<text text-anchor="start" x="527.76" y="-271" font-family="Arial" font-size="14.00">age </text>
<text text-anchor="start" x="555.01" y="-271" font-family="Arial" font-size="14.00" fill="#666666">[double precision]</text>
<polygon fill="none" stroke="black" points="520.76,-228 520.76,-258.8 840.56,-258.8 840.56,-228 520.76,-228"/>
<text text-anchor="start" x="527.76" y="-240.2" font-family="Arial" font-size="14.00">agelimityounger </text>
<text text-anchor="start" x="630.49" y="-240.2" font-family="Arial" font-size="14.00" fill="#666666">[double precision]</text>
<polygon fill="none" stroke="black" points="520.76,-197.2 520.76,-228 840.56,-228 840.56,-197.2 520.76,-197.2"/>
<text text-anchor="start" x="527.76" y="-209.4" font-family="Arial" font-size="14.00">agelimitolder </text>
<text text-anchor="start" x="611.03" y="-209.4" font-family="Arial" font-size="14.00" fill="#666666">[double precision]</text>
<polygon fill="none" stroke="black" points="520.76,-166.4 520.76,-197.2 840.56,-197.2 840.56,-166.4 520.76,-166.4"/>
<text text-anchor="start" x="527.76" y="-178.6" font-family="Arial" font-size="14.00">notes </text>
<text text-anchor="start" x="565.9" y="-178.6" font-family="Arial" font-size="14.00" fill="#666666">[text]</text>
<polygon fill="none" stroke="black" points="520.76,-135.6 520.76,-166.4 840.56,-166.4 840.56,-135.6 520.76,-135.6"/>
<text text-anchor="start" x="527.76" y="-147.8" font-family="Arial" font-size="14.00">recdatecreated </text>
<text text-anchor="start" x="625.05" y="-147.8" font-family="Arial" font-size="14.00" fill="#666666">[timestamp(0) without time zone]</text>
<polygon fill="none" stroke="black" points="520.76,-104.8 520.76,-135.6 840.56,-135.6 840.56,-104.8 520.76,-104.8"/>
<text text-anchor="start" x="527.76" y="-117" font-family="Arial" font-size="14.00">recdatemodified </text>
<text text-anchor="start" x="631.27" y="-117" font-family="Arial" font-size="14.00" fill="#666666">[timestamp(0) without time zone]</text>
<polygon fill="none" stroke="black" points="520.76,-74 520.76,-104.8 840.56,-104.8 840.56,-74 520.76,-74"/>
<text text-anchor="start" x="527.76" y="-86.2" font-family="Arial" font-size="14.00">analysisunitid </text>
<text text-anchor="start" x="615.7" y="-86.2" font-family="Arial" font-size="14.00" fill="#666666">[integer]</text>
<polygon fill="none" stroke="black" points="520.76,-43.2 520.76,-74 840.56,-74 840.56,-43.2 520.76,-43.2"/>
<text text-anchor="start" x="527.76" y="-55.4" font-family="Arial" font-size="14.00">agetypeid </text>
<text text-anchor="start" x="592.37" y="-55.4" font-family="Arial" font-size="14.00" fill="#666666">[integer]</text>
</g>
<!-- ndb.chroncontrolranks&#45;&gt;ndb.chroncontrols -->
<g id="edge2" class="edge">
<title>ndb.chroncontrolranks:chroncontrolid&#45;&gt;ndb.chroncontrols:chroncontrolid</title>
<path fill="none" stroke="black" d="M957.86,-827.78C915.65,-782.15 885.57,-428.2 841.56,-428.2"/>
<polygon fill="black" stroke="black" points="957.68,-827.68 964.33,-836.4 962.37,-830.22 966.18,-832.28 966.18,-832.28 966.18,-832.28 962.37,-830.22 968.61,-828.48 957.68,-827.68"/>
<text text-anchor="start" x="373.48" y="-842.6" font-family="Arial" font-size="10.00">FOREIGN KEY (chroncontrolid) REFERENCES ndb.chroncontrols(chroncontrolid) ON UPDATE CASCADE ON DELETE CASCADE</text>
</g>
<!-- ndb.chroncontrolaccuracyranks -->
<g id="node4" class="node">
<title>ndb.chroncontrolaccuracyranks</title>
<polygon fill="#efefef" stroke="none" points="945.22,-305 945.22,-340.6 1310.11,-340.6 1310.11,-305 945.22,-305"/>
<polygon fill="none" stroke="black" points="945.22,-305 945.22,-340.6 1310.11,-340.6 1310.11,-305 945.22,-305"/>
<text text-anchor="start" x="952.22" y="-318.4" font-family="Arial Bold" font-size="18.00">ndb.chroncontrolaccuracyranks</text>
<text text-anchor="start" x="1178.62" y="-318.4" font-family="Arial" font-size="14.00">    </text>
<text text-anchor="start" x="1209.73" y="-318.4" font-family="Arial" font-size="14.00" fill="#666666">[BASE TABLE]</text>
<polygon fill="none" stroke="black" points="945.22,-274.2 945.22,-305 1310.11,-305 1310.11,-274.2 945.22,-274.2"/>
<text text-anchor="start" x="952.22" y="-286.4" font-family="Arial" font-size="14.00">accuracyrankid </text>
<text text-anchor="start" x="1050.26" y="-286.4" font-family="Arial" font-size="14.00" fill="#666666">[integer]</text>
<polygon fill="none" stroke="black" points="945.22,-243.4 945.22,-274.2 1310.11,-274.2 1310.11,-243.4 945.22,-243.4"/>
<text text-anchor="start" x="952.22" y="-255.6" font-family="Arial" font-size="14.00">accuracyrank </text>
<text text-anchor="start" x="1039.36" y="-255.6" font-family="Arial" font-size="14.00" fill="#666666">[varchar(255)]</text>
<polygon fill="none" stroke="black" points="945.22,-212.6 945.22,-243.4 1310.11,-243.4 1310.11,-212.6 945.22,-212.6"/>
<text text-anchor="start" x="952.22" y="-224.8" font-family="Arial" font-size="14.00">recdatecreated </text>
<text text-anchor="start" x="1049.5" y="-224.8" font-family="Arial" font-size="14.00" fill="#666666">[timestamp(0) without time zone]</text>
<polygon fill="none" stroke="black" points="945.22,-181.8 945.22,-212.6 1310.11,-212.6 1310.11,-181.8 945.22,-181.8"/>
<text text-anchor="start" x="952.22" y="-194" font-family="Arial" font-size="14.00">recdatemodified </text>
<text text-anchor="start" x="1055.72" y="-194" font-family="Arial" font-size="14.00" fill="#666666">[timestamp(0) without time zone]</text>
</g>
<!-- ndb.chroncontrolranks&#45;&gt;ndb.chroncontrolaccuracyranks -->
<g id="edge3" class="edge">
<title>ndb.chroncontrolranks:accuracyrankid&#45;&gt;ndb.chroncontrolaccuracyranks:accuracyrankid</title>
<path fill="none" stroke="black" d="M1297.59,-797.37C1347.76,-747.31 1364.96,-289.6 1311.11,-289.6"/>
<polygon fill="black" stroke="black" points="1297.84,-797.25 1286.88,-797.61 1293.05,-799.6 1289.16,-801.51 1289.16,-801.51 1289.16,-801.51 1293.05,-799.6 1290.84,-805.69 1297.84,-797.25"/>
<text text-anchor="start" x="1295.56" y="-811.8" font-family="Arial" font-size="10.00">FOREIGN KEY (accuracyrankid) REFERENCES ndb.chroncontrolaccuracyranks(accuracyrankid) ON UPDATE CASCADE ON DELETE CASCADE</text>
</g>
<!-- ndb.chroncontrolaccuracydirections -->
<g id="node5" class="node">
<title>ndb.chroncontrolaccuracydirections</title>
<polygon fill="#efefef" stroke="none" points="1414.22,-305 1414.22,-340.6 1811.1,-340.6 1811.1,-305 1414.22,-305"/>
<polygon fill="none" stroke="black" points="1414.22,-305 1414.22,-340.6 1811.1,-340.6 1811.1,-305 1414.22,-305"/>
<text text-anchor="start" x="1421.22" y="-318.4" font-family="Arial Bold" font-size="18.00">ndb.chroncontrolaccuracydirections</text>
<text text-anchor="start" x="1679.61" y="-318.4" font-family="Arial" font-size="14.00">    </text>
<text text-anchor="start" x="1710.73" y="-318.4" font-family="Arial" font-size="14.00" fill="#666666">[BASE TABLE]</text>
<polygon fill="none" stroke="black" points="1414.22,-274.2 1414.22,-305 1811.1,-305 1811.1,-274.2 1414.22,-274.2"/>
<text text-anchor="start" x="1421.22" y="-286.4" font-family="Arial" font-size="14.00">accuracydirectionid </text>
<text text-anchor="start" x="1544.95" y="-286.4" font-family="Arial" font-size="14.00" fill="#666666">[integer]</text>
<polygon fill="none" stroke="black" points="1414.22,-243.4 1414.22,-274.2 1811.1,-274.2 1811.1,-243.4 1414.22,-243.4"/>
<text text-anchor="start" x="1421.22" y="-255.6" font-family="Arial" font-size="14.00">accuracydirection </text>
<text text-anchor="start" x="1534.05" y="-255.6" font-family="Arial" font-size="14.00" fill="#666666">[varchar(80)]</text>
<polygon fill="none" stroke="black" points="1414.22,-212.6 1414.22,-243.4 1811.1,-243.4 1811.1,-212.6 1414.22,-212.6"/>
<text text-anchor="start" x="1421.22" y="-224.8" font-family="Arial" font-size="14.00">recdatecreated </text>
<text text-anchor="start" x="1518.51" y="-224.8" font-family="Arial" font-size="14.00" fill="#666666">[timestamp(0) without time zone]</text>
<polygon fill="none" stroke="black" points="1414.22,-181.8 1414.22,-212.6 1811.1,-212.6 1811.1,-181.8 1414.22,-181.8"/>
<text text-anchor="start" x="1421.22" y="-194" font-family="Arial" font-size="14.00">recdatemodified </text>
<text text-anchor="start" x="1524.73" y="-194" font-family="Arial" font-size="14.00" fill="#666666">[timestamp(0) without time zone]</text>
</g>
<!-- ndb.chroncontrolranks&#45;&gt;ndb.chroncontrolaccuracydirections -->
<g id="edge4" class="edge">
<title>ndb.chroncontrolranks:accuracydirectionid&#45;&gt;ndb.chroncontrolaccuracydirections:accuracydirectionid</title>
<path fill="none" stroke="black" d="M1298.84,-770.6C1399.58,-762.47 1334.84,-630.57 1362.66,-522.4 1375.85,-471.13 1360.28,-289.6 1413.22,-289.6"/>
<polygon fill="black" stroke="black" points="1298.89,-770.6 1288.72,-766.49 1293.56,-770.81 1289.23,-770.97 1289.23,-770.97 1289.23,-770.97 1293.56,-770.81 1289.07,-775.48 1298.89,-770.6"/>
<text text-anchor="start" x="1295.56" y="-781" font-family="Arial" font-size="10.00">FOREIGN KEY (accuracydirectionid) REFERENCES ndb.chroncontrolaccuracydirections(accuracydirectionid) ON UPDATE CASCADE ON DELETE CASCADE</text>
</g>
<!-- ndb.chroncontrolaccuracydistributions -->
<g id="node6" class="node">
<title>ndb.chroncontrolaccuracydistributions</title>
<polygon fill="#efefef" stroke="none" points="1915.71,-305 1915.71,-340.6 2331.62,-340.6 2331.62,-305 1915.71,-305"/>
<polygon fill="none" stroke="black" points="1915.71,-305 1915.71,-340.6 2331.62,-340.6 2331.62,-305 1915.71,-305"/>
<text text-anchor="start" x="1922.71" y="-318.4" font-family="Arial Bold" font-size="18.00">ndb.chroncontrolaccuracydistributions</text>
<text text-anchor="start" x="2200.13" y="-318.4" font-family="Arial" font-size="14.00">    </text>
<text text-anchor="start" x="2231.24" y="-318.4" font-family="Arial" font-size="14.00" fill="#666666">[BASE TABLE]</text>
<polygon fill="none" stroke="black" points="1915.71,-274.2 1915.71,-305 2331.62,-305 2331.62,-274.2 1915.71,-274.2"/>
<text text-anchor="start" x="1922.71" y="-286.4" font-family="Arial" font-size="14.00">accuracydistributionid </text>
<text text-anchor="start" x="2061.22" y="-286.4" font-family="Arial" font-size="14.00" fill="#666666">[integer]</text>
<polygon fill="none" stroke="black" points="1915.71,-243.4 1915.71,-274.2 2331.62,-274.2 2331.62,-243.4 1915.71,-243.4"/>
<text text-anchor="start" x="1922.71" y="-255.6" font-family="Arial" font-size="14.00">accuracydistribution </text>
<text text-anchor="start" x="2050.32" y="-255.6" font-family="Arial" font-size="14.00" fill="#666666">[varchar(40)]</text>
<polygon fill="none" stroke="black" points="1915.71,-212.6 1915.71,-243.4 2331.62,-243.4 2331.62,-212.6 1915.71,-212.6"/>
<text text-anchor="start" x="1922.71" y="-224.8" font-family="Arial" font-size="14.00">recdatecreated </text>
<text text-anchor="start" x="2019.99" y="-224.8" font-family="Arial" font-size="14.00" fill="#666666">[timestamp(0) without time zone]</text>
<polygon fill="none" stroke="black" points="1915.71,-181.8 1915.71,-212.6 2331.62,-212.6 2331.62,-181.8 1915.71,-181.8"/>
<text text-anchor="start" x="1922.71" y="-194" font-family="Arial" font-size="14.00">recdatemodified </text>
<text text-anchor="start" x="2026.21" y="-194" font-family="Arial" font-size="14.00" fill="#666666">[timestamp(0) without time zone]</text>
</g>
<!-- ndb.chroncontrolranks&#45;&gt;ndb.chroncontrolaccuracydistributions -->
<g id="edge5" class="edge">
<title>ndb.chroncontrolranks:accuracydistributionid&#45;&gt;ndb.chroncontrolaccuracydistributions:accuracydistributionid</title>
<path fill="none" stroke="black" d="M1298.9,-740.19C1565.01,-739.89 1687.29,-726.63 1863.66,-522.4 1932.89,-442.23 1808.78,-289.6 1914.71,-289.6"/>
<polygon fill="black" stroke="black" points="1298.9,-740.19 1288.89,-735.7 1293.56,-740.2 1289.23,-740.2 1289.23,-740.2 1289.23,-740.2 1293.56,-740.2 1288.9,-744.7 1298.9,-740.19"/>
<text text-anchor="start" x="1295.56" y="-750.2" font-family="Arial" font-size="10.00">FOREIGN KEY (accuracydistributionid) REFERENCES ndb.chroncontrolaccuracydistributions(accuracydistributionid) ON UPDATE CASCADE ON DELETE CASCADE</text>
</g>
</g>
</svg>
