<?xml version="1.0" encoding="UTF-8" standalone="no"?>
<!DOCTYPE svg PUBLIC "-//W3C//DTD SVG 1.1//EN"
 "http://www.w3.org/Graphics/SVG/1.1/DTD/svg11.dtd">
<!-- Generated by graphviz version 12.1.2 (20240928.0832)
 -->
<!-- Title: ndb.radiocarbon Pages: 1 -->
<svg width="3560pt" height="1622pt"
 viewBox="0.00 0.00 3560.08 1622.40" xmlns="http://www.w3.org/2000/svg" xmlns:xlink="http://www.w3.org/1999/xlink">
<g id="graph0" class="graph" transform="scale(1 1) rotate(0) translate(4 1618.4)">
<title>ndb.radiocarbon</title>
<polygon fill="white" stroke="none" points="-4,4 -4,-1618.4 3556.08,-1618.4 3556.08,4 -4,4"/>
<!-- ndb.radiocarbon -->
<g id="node1" class="node">
<title>ndb.radiocarbon</title>
<polygon fill="#efefef" stroke="none" points="2760.4,-1532.6 2760.4,-1568.2 3080.2,-1568.2 3080.2,-1532.6 2760.4,-1532.6"/>
<polygon fill="none" stroke="black" points="2760.4,-1532.6 2760.4,-1568.2 3080.2,-1568.2 3080.2,-1532.6 2760.4,-1532.6"/>
<text text-anchor="start" x="2799.33" y="-1546" font-family="Arial Bold" font-size="18.00">ndb.radiocarbon</text>
<text text-anchor="start" x="2916.78" y="-1546" font-family="Arial" font-size="14.00">    </text>
<text text-anchor="start" x="2947.9" y="-1546" font-family="Arial" font-size="14.00" fill="#666666">[BASE TABLE]</text>
<polygon fill="none" stroke="black" points="2760.4,-1501.8 2760.4,-1532.6 3080.2,-1532.6 3080.2,-1501.8 2760.4,-1501.8"/>
<text text-anchor="start" x="2767.4" y="-1514" font-family="Arial" font-size="14.00">geochronid </text>
<text text-anchor="start" x="2840.57" y="-1514" font-family="Arial" font-size="14.00" fill="#666666">[integer]</text>
<polygon fill="none" stroke="black" points="2760.4,-1471 2760.4,-1501.8 3080.2,-1501.8 3080.2,-1471 2760.4,-1471"/>
<text text-anchor="start" x="2767.4" y="-1483.2" font-family="Arial" font-size="14.00">radiocarbonmethodid </text>
<text text-anchor="start" x="2902.82" y="-1483.2" font-family="Arial" font-size="14.00" fill="#666666">[integer]</text>
<polygon fill="none" stroke="black" points="2760.4,-1440.2 2760.4,-1471 3080.2,-1471 3080.2,-1440.2 2760.4,-1440.2"/>
<text text-anchor="start" x="2767.4" y="-1452.4" font-family="Arial" font-size="14.00">percentc </text>
<text text-anchor="start" x="2824.99" y="-1452.4" font-family="Arial" font-size="14.00" fill="#666666">[double precision]</text>
<polygon fill="none" stroke="black" points="2760.4,-1409.4 2760.4,-1440.2 3080.2,-1440.2 3080.2,-1409.4 2760.4,-1409.4"/>
<text text-anchor="start" x="2767.4" y="-1421.6" font-family="Arial" font-size="14.00">percentn </text>
<text text-anchor="start" x="2825.77" y="-1421.6" font-family="Arial" font-size="14.00" fill="#666666">[double precision]</text>
<polygon fill="none" stroke="black" points="2760.4,-1378.6 2760.4,-1409.4 3080.2,-1409.4 3080.2,-1378.6 2760.4,-1378.6"/>
<text text-anchor="start" x="2767.4" y="-1390.8" font-family="Arial" font-size="14.00">delta13c </text>
<text text-anchor="start" x="2824.22" y="-1390.8" font-family="Arial" font-size="14.00" fill="#666666">[double precision]</text>
<polygon fill="none" stroke="black" points="2760.4,-1347.8 2760.4,-1378.6 3080.2,-1378.6 3080.2,-1347.8 2760.4,-1347.8"/>
<text text-anchor="start" x="2767.4" y="-1360" font-family="Arial" font-size="14.00">delta15n </text>
<text text-anchor="start" x="2825.01" y="-1360" font-family="Arial" font-size="14.00" fill="#666666">[double precision]</text>
<polygon fill="none" stroke="black" points="2760.4,-1317 2760.4,-1347.8 3080.2,-1347.8 3080.2,-1317 2760.4,-1317"/>
<text text-anchor="start" x="2767.4" y="-1329.2" font-family="Arial" font-size="14.00">percentcollagen </text>
<text text-anchor="start" x="2870.14" y="-1329.2" font-family="Arial" font-size="14.00" fill="#666666">[double precision]</text>
<polygon fill="none" stroke="black" points="2760.4,-1286.2 2760.4,-1317 3080.2,-1317 3080.2,-1286.2 2760.4,-1286.2"/>
<text text-anchor="start" x="2767.4" y="-1298.4" font-family="Arial" font-size="14.00">reservoir </text>
<text text-anchor="start" x="2825.75" y="-1298.4" font-family="Arial" font-size="14.00" fill="#666666">[double precision]</text>
<polygon fill="none" stroke="black" points="2760.4,-1255.4 2760.4,-1286.2 3080.2,-1286.2 3080.2,-1255.4 2760.4,-1255.4"/>
<text text-anchor="start" x="2767.4" y="-1267.6" font-family="Arial" font-size="14.00">recdatecreated </text>
<text text-anchor="start" x="2864.68" y="-1267.6" font-family="Arial" font-size="14.00" fill="#666666">[timestamp(0) without time zone]</text>
<polygon fill="none" stroke="black" points="2760.4,-1224.6 2760.4,-1255.4 3080.2,-1255.4 3080.2,-1224.6 2760.4,-1224.6"/>
<text text-anchor="start" x="2767.4" y="-1236.8" font-family="Arial" font-size="14.00">recdatemodified </text>
<text text-anchor="start" x="2870.9" y="-1236.8" font-family="Arial" font-size="14.00" fill="#666666">[timestamp(0) without time zone]</text>
<polygon fill="none" stroke="black" points="2760.4,-1193.8 2760.4,-1224.6 3080.2,-1224.6 3080.2,-1193.8 2760.4,-1193.8"/>
<text text-anchor="start" x="2767.4" y="-1206" font-family="Arial" font-size="14.00">masscmg </text>
<text text-anchor="start" x="2831.19" y="-1206" font-family="Arial" font-size="14.00" fill="#666666">[double precision]</text>
<polygon fill="none" stroke="black" points="2760.4,-1163 2760.4,-1193.8 3080.2,-1193.8 3080.2,-1163 2760.4,-1163"/>
<text text-anchor="start" x="2767.4" y="-1175.2" font-family="Arial" font-size="14.00">cnratio </text>
<text text-anchor="start" x="2813.31" y="-1175.2" font-family="Arial" font-size="14.00" fill="#666666">[double precision]</text>
<polygon fill="none" stroke="black" stroke-width="3" points="2758.9,-1161.5 2758.9,-1569.7 3081.7,-1569.7 3081.7,-1161.5 2758.9,-1161.5"/>
</g>
<!-- ndb.geochronology -->
<g id="node2" class="node">
<title>ndb.geochronology</title>
<polygon fill="#efefef" stroke="none" points="1544.4,-1002 1544.4,-1037.6 1864.2,-1037.6 1864.2,-1002 1544.4,-1002"/>
<polygon fill="none" stroke="black" points="1544.4,-1002 1544.4,-1037.6 1864.2,-1037.6 1864.2,-1002 1544.4,-1002"/>
<text text-anchor="start" x="1572.32" y="-1015.4" font-family="Arial Bold" font-size="18.00">ndb.geochronology</text>
<text text-anchor="start" x="1711.79" y="-1015.4" font-family="Arial" font-size="14.00">    </text>
<text text-anchor="start" x="1742.91" y="-1015.4" font-family="Arial" font-size="14.00" fill="#666666">[BASE TABLE]</text>
<polygon fill="none" stroke="black" points="1544.4,-971.2 1544.4,-1002 1864.2,-1002 1864.2,-971.2 1544.4,-971.2"/>
<text text-anchor="start" x="1551.4" y="-983.4" font-family="Arial" font-size="14.00">geochronid </text>
<text text-anchor="start" x="1624.57" y="-983.4" font-family="Arial" font-size="14.00" fill="#666666">[integer]</text>
<polygon fill="none" stroke="black" points="1544.4,-940.4 1544.4,-971.2 1864.2,-971.2 1864.2,-940.4 1544.4,-940.4"/>
<text text-anchor="start" x="1551.4" y="-952.6" font-family="Arial" font-size="14.00">sampleid </text>
<text text-anchor="start" x="1611.32" y="-952.6" font-family="Arial" font-size="14.00" fill="#666666">[integer]</text>
<polygon fill="none" stroke="black" points="1544.4,-909.6 1544.4,-940.4 1864.2,-940.4 1864.2,-909.6 1544.4,-909.6"/>
<text text-anchor="start" x="1551.4" y="-921.8" font-family="Arial" font-size="14.00">geochrontypeid </text>
<text text-anchor="start" x="1651.03" y="-921.8" font-family="Arial" font-size="14.00" fill="#666666">[integer]</text>
<polygon fill="none" stroke="black" points="1544.4,-878.8 1544.4,-909.6 1864.2,-909.6 1864.2,-878.8 1544.4,-878.8"/>
<text text-anchor="start" x="1551.4" y="-891" font-family="Arial" font-size="14.00">agetypeid </text>
<text text-anchor="start" x="1616.01" y="-891" font-family="Arial" font-size="14.00" fill="#666666">[integer]</text>
<polygon fill="none" stroke="black" points="1544.4,-848 1544.4,-878.8 1864.2,-878.8 1864.2,-848 1544.4,-848"/>
<text text-anchor="start" x="1551.4" y="-860.2" font-family="Arial" font-size="14.00">age </text>
<text text-anchor="start" x="1578.65" y="-860.2" font-family="Arial" font-size="14.00" fill="#666666">[double precision]</text>
<polygon fill="none" stroke="black" points="1544.4,-817.2 1544.4,-848 1864.2,-848 1864.2,-817.2 1544.4,-817.2"/>
<text text-anchor="start" x="1551.4" y="-829.4" font-family="Arial" font-size="14.00">errorolder </text>
<text text-anchor="start" x="1615.98" y="-829.4" font-family="Arial" font-size="14.00" fill="#666666">[double precision]</text>
<polygon fill="none" stroke="black" points="1544.4,-786.4 1544.4,-817.2 1864.2,-817.2 1864.2,-786.4 1544.4,-786.4"/>
<text text-anchor="start" x="1551.4" y="-798.6" font-family="Arial" font-size="14.00">erroryounger </text>
<text text-anchor="start" x="1635.44" y="-798.6" font-family="Arial" font-size="14.00" fill="#666666">[double precision]</text>
<polygon fill="none" stroke="black" points="1544.4,-755.6 1544.4,-786.4 1864.2,-786.4 1864.2,-755.6 1544.4,-755.6"/>
<text text-anchor="start" x="1551.4" y="-767.8" font-family="Arial" font-size="14.00">infinite </text>
<text text-anchor="start" x="1595.76" y="-767.8" font-family="Arial" font-size="14.00" fill="#666666">[boolean]</text>
<polygon fill="none" stroke="black" points="1544.4,-724.8 1544.4,-755.6 1864.2,-755.6 1864.2,-724.8 1544.4,-724.8"/>
<text text-anchor="start" x="1551.4" y="-737" font-family="Arial" font-size="14.00">delta13c </text>
<text text-anchor="start" x="1608.22" y="-737" font-family="Arial" font-size="14.00" fill="#666666">[double precision]</text>
<polygon fill="none" stroke="black" points="1544.4,-694 1544.4,-724.8 1864.2,-724.8 1864.2,-694 1544.4,-694"/>
<text text-anchor="start" x="1551.4" y="-706.2" font-family="Arial" font-size="14.00">labnumber </text>
<text text-anchor="start" x="1621.44" y="-706.2" font-family="Arial" font-size="14.00" fill="#666666">[varchar(40)]</text>
<polygon fill="none" stroke="black" points="1544.4,-663.2 1544.4,-694 1864.2,-694 1864.2,-663.2 1544.4,-663.2"/>
<text text-anchor="start" x="1551.4" y="-675.4" font-family="Arial" font-size="14.00">materialdated </text>
<text text-anchor="start" x="1640.12" y="-675.4" font-family="Arial" font-size="14.00" fill="#666666">[varchar(255)]</text>
<polygon fill="none" stroke="black" points="1544.4,-632.4 1544.4,-663.2 1864.2,-663.2 1864.2,-632.4 1544.4,-632.4"/>
<text text-anchor="start" x="1551.4" y="-644.6" font-family="Arial" font-size="14.00">notes </text>
<text text-anchor="start" x="1589.54" y="-644.6" font-family="Arial" font-size="14.00" fill="#666666">[text]</text>
<polygon fill="none" stroke="black" points="1544.4,-601.6 1544.4,-632.4 1864.2,-632.4 1864.2,-601.6 1544.4,-601.6"/>
<text text-anchor="start" x="1551.4" y="-613.8" font-family="Arial" font-size="14.00">recdatecreated </text>
<text text-anchor="start" x="1648.68" y="-613.8" font-family="Arial" font-size="14.00" fill="#666666">[timestamp(0) without time zone]</text>
<polygon fill="none" stroke="black" points="1544.4,-570.8 1544.4,-601.6 1864.2,-601.6 1864.2,-570.8 1544.4,-570.8"/>
<text text-anchor="start" x="1551.4" y="-583" font-family="Arial" font-size="14.00">recdatemodified </text>
<text text-anchor="start" x="1654.9" y="-583" font-family="Arial" font-size="14.00" fill="#666666">[timestamp(0) without time zone]</text>
</g>
<!-- ndb.radiocarbon&#45;&gt;ndb.geochronology -->
<g id="edge1" class="edge">
<title>ndb.radiocarbon:geochronid&#45;&gt;ndb.geochronology:geochronid</title>
<path fill="none" stroke="black" d="M2749.28,-1515.54C2677.43,-1490.07 2765.59,-1178.27 2705.3,-1116.8 2639.16,-1049.36 1959.66,-986.6 1865.2,-986.6"/>
<polygon fill="black" stroke="black" points="2749.2,-1515.53 2758.34,-1521.59 2754.47,-1516.39 2758.74,-1517.09 2758.74,-1517.09 2758.74,-1517.09 2754.47,-1516.39 2759.8,-1512.71 2749.2,-1515.53"/>
<text text-anchor="start" x="2299.44" y="-1527.2" font-family="Arial" font-size="10.00">FOREIGN KEY (geochronid) REFERENCES ndb.geochronology(geochronid) ON DELETE CASCADE</text>
</g>
<!-- ndb.radiocarbonmethods -->
<g id="node12" class="node">
<title>ndb.radiocarbonmethods</title>
<polygon fill="#efefef" stroke="none" points="2760.4,-848 2760.4,-883.6 3080.2,-883.6 3080.2,-848 2760.4,-848"/>
<polygon fill="none" stroke="black" points="2760.4,-848 2760.4,-883.6 3080.2,-883.6 3080.2,-848 2760.4,-848"/>
<text text-anchor="start" x="2768.83" y="-861.4" font-family="Arial Bold" font-size="18.00">ndb.radiocarbonmethods</text>
<text text-anchor="start" x="2947.28" y="-861.4" font-family="Arial" font-size="14.00">    </text>
<text text-anchor="start" x="2978.4" y="-861.4" font-family="Arial" font-size="14.00" fill="#666666">[BASE TABLE]</text>
<polygon fill="none" stroke="black" points="2760.4,-817.2 2760.4,-848 3080.2,-848 3080.2,-817.2 2760.4,-817.2"/>
<text text-anchor="start" x="2767.4" y="-829.4" font-family="Arial" font-size="14.00">radiocarbonmethodid </text>
<text text-anchor="start" x="2902.82" y="-829.4" font-family="Arial" font-size="14.00" fill="#666666">[integer]</text>
<polygon fill="none" stroke="black" points="2760.4,-786.4 2760.4,-817.2 3080.2,-817.2 3080.2,-786.4 2760.4,-786.4"/>
<text text-anchor="start" x="2767.4" y="-798.6" font-family="Arial" font-size="14.00">radiocarbonmethod </text>
<text text-anchor="start" x="2891.92" y="-798.6" font-family="Arial" font-size="14.00" fill="#666666">[varchar(64)]</text>
<polygon fill="none" stroke="black" points="2760.4,-755.6 2760.4,-786.4 3080.2,-786.4 3080.2,-755.6 2760.4,-755.6"/>
<text text-anchor="start" x="2767.4" y="-767.8" font-family="Arial" font-size="14.00">recdatecreated </text>
<text text-anchor="start" x="2864.68" y="-767.8" font-family="Arial" font-size="14.00" fill="#666666">[timestamp(0) without time zone]</text>
<polygon fill="none" stroke="black" points="2760.4,-724.8 2760.4,-755.6 3080.2,-755.6 3080.2,-724.8 2760.4,-724.8"/>
<text text-anchor="start" x="2767.4" y="-737" font-family="Arial" font-size="14.00">recdatemodified </text>
<text text-anchor="start" x="2870.9" y="-737" font-family="Arial" font-size="14.00" fill="#666666">[timestamp(0) without time zone]</text>
</g>
<!-- ndb.radiocarbon&#45;&gt;ndb.radiocarbonmethods -->
<g id="edge11" class="edge">
<title>ndb.radiocarbon:radiocarbonmethodid&#45;&gt;ndb.radiocarbonmethods:radiocarbonmethodid</title>
<path fill="none" stroke="black" d="M3090.55,-1482.56C3153.7,-1428.98 3150.58,-832.6 3081.2,-832.6"/>
<polygon fill="black" stroke="black" points="3090.76,-1482.47 3079.8,-1482.11 3085.83,-1484.5 3081.82,-1486.15 3081.82,-1486.15 3081.82,-1486.15 3085.83,-1484.5 3083.22,-1490.44 3090.76,-1482.47"/>
<text text-anchor="start" x="3088.2" y="-1496.4" font-family="Arial" font-size="10.00">FOREIGN KEY (radiocarbonmethodid) REFERENCES ndb.radiocarbonmethods(radiocarbonmethodid)</text>
</g>
<!-- ndb.samples -->
<g id="node9" class="node">
<title>ndb.samples</title>
<polygon fill="#efefef" stroke="none" points="1120.4,-412.8 1120.4,-448.4 1440.2,-448.4 1440.2,-412.8 1120.4,-412.8"/>
<polygon fill="none" stroke="black" points="1120.4,-412.8 1120.4,-448.4 1440.2,-448.4 1440.2,-412.8 1120.4,-412.8"/>
<text text-anchor="start" x="1173.31" y="-426.2" font-family="Arial Bold" font-size="18.00">ndb.samples</text>
<text text-anchor="start" x="1262.8" y="-426.2" font-family="Arial" font-size="14.00">    </text>
<text text-anchor="start" x="1293.92" y="-426.2" font-family="Arial" font-size="14.00" fill="#666666">[BASE TABLE]</text>
<polygon fill="none" stroke="black" points="1120.4,-382 1120.4,-412.8 1440.2,-412.8 1440.2,-382 1120.4,-382"/>
<text text-anchor="start" x="1127.4" y="-394.2" font-family="Arial" font-size="14.00">sampleid </text>
<text text-anchor="start" x="1187.32" y="-394.2" font-family="Arial" font-size="14.00" fill="#666666">[integer]</text>
<polygon fill="none" stroke="black" points="1120.4,-351.2 1120.4,-382 1440.2,-382 1440.2,-351.2 1120.4,-351.2"/>
<text text-anchor="start" x="1127.4" y="-363.4" font-family="Arial" font-size="14.00">analysisunitid </text>
<text text-anchor="start" x="1215.34" y="-363.4" font-family="Arial" font-size="14.00" fill="#666666">[integer]</text>
<polygon fill="none" stroke="black" points="1120.4,-320.4 1120.4,-351.2 1440.2,-351.2 1440.2,-320.4 1120.4,-320.4"/>
<text text-anchor="start" x="1127.4" y="-332.6" font-family="Arial" font-size="14.00">datasetid </text>
<text text-anchor="start" x="1188.11" y="-332.6" font-family="Arial" font-size="14.00" fill="#666666">[integer]</text>
<polygon fill="none" stroke="black" points="1120.4,-289.6 1120.4,-320.4 1440.2,-320.4 1440.2,-289.6 1120.4,-289.6"/>
<text text-anchor="start" x="1127.4" y="-301.8" font-family="Arial" font-size="14.00">samplename </text>
<text text-anchor="start" x="1211.44" y="-301.8" font-family="Arial" font-size="14.00" fill="#666666">[varchar(80)]</text>
<polygon fill="none" stroke="black" points="1120.4,-258.8 1120.4,-289.6 1440.2,-289.6 1440.2,-258.8 1120.4,-258.8"/>
<text text-anchor="start" x="1127.4" y="-271" font-family="Arial" font-size="14.00">analysisdate </text>
<text text-anchor="start" x="1209.12" y="-271" font-family="Arial" font-size="14.00" fill="#666666">[date]</text>
<polygon fill="none" stroke="black" points="1120.4,-228 1120.4,-258.8 1440.2,-258.8 1440.2,-228 1120.4,-228"/>
<text text-anchor="start" x="1127.4" y="-240.2" font-family="Arial" font-size="14.00">labnumber </text>
<text text-anchor="start" x="1197.44" y="-240.2" font-family="Arial" font-size="14.00" fill="#666666">[varchar(40)]</text>
<polygon fill="none" stroke="black" points="1120.4,-197.2 1120.4,-228 1440.2,-228 1440.2,-197.2 1120.4,-197.2"/>
<text text-anchor="start" x="1127.4" y="-209.4" font-family="Arial" font-size="14.00">preparationmethod </text>
<text text-anchor="start" x="1248.81" y="-209.4" font-family="Arial" font-size="14.00" fill="#666666">[text]</text>
<polygon fill="none" stroke="black" points="1120.4,-166.4 1120.4,-197.2 1440.2,-197.2 1440.2,-166.4 1120.4,-166.4"/>
<text text-anchor="start" x="1127.4" y="-178.6" font-family="Arial" font-size="14.00">notes </text>
<text text-anchor="start" x="1165.54" y="-178.6" font-family="Arial" font-size="14.00" fill="#666666">[text]</text>
<polygon fill="none" stroke="black" points="1120.4,-135.6 1120.4,-166.4 1440.2,-166.4 1440.2,-135.6 1120.4,-135.6"/>
<text text-anchor="start" x="1127.4" y="-147.8" font-family="Arial" font-size="14.00">recdatecreated </text>
<text text-anchor="start" x="1224.68" y="-147.8" font-family="Arial" font-size="14.00" fill="#666666">[timestamp(0) without time zone]</text>
<polygon fill="none" stroke="black" points="1120.4,-104.8 1120.4,-135.6 1440.2,-135.6 1440.2,-104.8 1120.4,-104.8"/>
<text text-anchor="start" x="1127.4" y="-117" font-family="Arial" font-size="14.00">recdatemodified </text>
<text text-anchor="start" x="1230.9" y="-117" font-family="Arial" font-size="14.00" fill="#666666">[timestamp(0) without time zone]</text>
<polygon fill="none" stroke="black" points="1120.4,-74 1120.4,-104.8 1440.2,-104.8 1440.2,-74 1120.4,-74"/>
<text text-anchor="start" x="1127.4" y="-86.2" font-family="Arial" font-size="14.00">sampledate </text>
<text text-anchor="start" x="1203.67" y="-86.2" font-family="Arial" font-size="14.00" fill="#666666">[date]</text>
<polygon fill="none" stroke="black" points="1120.4,-43.2 1120.4,-74 1440.2,-74 1440.2,-43.2 1120.4,-43.2"/>
<text text-anchor="start" x="1127.4" y="-55.4" font-family="Arial" font-size="14.00">taxonid </text>
<text text-anchor="start" x="1176.44" y="-55.4" font-family="Arial" font-size="14.00" fill="#666666">[integer]</text>
</g>
<!-- ndb.geochronology&#45;&gt;ndb.samples -->
<g id="edge8" class="edge">
<title>ndb.geochronology:sampleid&#45;&gt;ndb.samples:sampleid</title>
<path fill="none" stroke="black" d="M1534.12,-951.31C1482.61,-898.46 1500.95,-397.4 1441.2,-397.4"/>
<polygon fill="black" stroke="black" points="1534.1,-951.29 1541.14,-959.7 1538.9,-953.62 1542.8,-955.51 1542.8,-955.51 1542.8,-955.51 1538.9,-953.62 1545.06,-951.6 1534.1,-951.29"/>
<text text-anchor="start" x="1018.5" y="-965.8" font-family="Arial" font-size="10.00">FOREIGN KEY (sampleid) REFERENCES ndb.samples(sampleid) ON UPDATE CASCADE ON DELETE CASCADE</text>
</g>
<!-- ndb.geochrontypes -->
<g id="node10" class="node">
<title>ndb.geochrontypes</title>
<polygon fill="#efefef" stroke="none" points="1544.4,-289.6 1544.4,-325.2 1864.2,-325.2 1864.2,-289.6 1544.4,-289.6"/>
<polygon fill="none" stroke="black" points="1544.4,-289.6 1544.4,-325.2 1864.2,-325.2 1864.2,-289.6 1544.4,-289.6"/>
<text text-anchor="start" x="1573.82" y="-303" font-family="Arial Bold" font-size="18.00">ndb.geochrontypes</text>
<text text-anchor="start" x="1710.29" y="-303" font-family="Arial" font-size="14.00">    </text>
<text text-anchor="start" x="1741.41" y="-303" font-family="Arial" font-size="14.00" fill="#666666">[BASE TABLE]</text>
<polygon fill="none" stroke="black" points="1544.4,-258.8 1544.4,-289.6 1864.2,-289.6 1864.2,-258.8 1544.4,-258.8"/>
<text text-anchor="start" x="1551.4" y="-271" font-family="Arial" font-size="14.00">geochrontypeid </text>
<text text-anchor="start" x="1651.03" y="-271" font-family="Arial" font-size="14.00" fill="#666666">[integer]</text>
<polygon fill="none" stroke="black" points="1544.4,-228 1544.4,-258.8 1864.2,-258.8 1864.2,-228 1544.4,-228"/>
<text text-anchor="start" x="1551.4" y="-240.2" font-family="Arial" font-size="14.00">geochrontype </text>
<text text-anchor="start" x="1640.13" y="-240.2" font-family="Arial" font-size="14.00" fill="#666666">[varchar(64)]</text>
<polygon fill="none" stroke="black" points="1544.4,-197.2 1544.4,-228 1864.2,-228 1864.2,-197.2 1544.4,-197.2"/>
<text text-anchor="start" x="1551.4" y="-209.4" font-family="Arial" font-size="14.00">recdatecreated </text>
<text text-anchor="start" x="1648.68" y="-209.4" font-family="Arial" font-size="14.00" fill="#666666">[timestamp(0) without time zone]</text>
<polygon fill="none" stroke="black" points="1544.4,-166.4 1544.4,-197.2 1864.2,-197.2 1864.2,-166.4 1544.4,-166.4"/>
<text text-anchor="start" x="1551.4" y="-178.6" font-family="Arial" font-size="14.00">recdatemodified </text>
<text text-anchor="start" x="1654.9" y="-178.6" font-family="Arial" font-size="14.00" fill="#666666">[timestamp(0) without time zone]</text>
</g>
<!-- ndb.geochronology&#45;&gt;ndb.geochrontypes -->
<g id="edge9" class="edge">
<title>ndb.geochronology:geochrontypeid&#45;&gt;ndb.geochrontypes:geochrontypeid</title>
<path fill="none" stroke="black" d="M1871.74,-917.24C1901.21,-843.81 1899.03,-274.2 1865.2,-274.2"/>
<polygon fill="black" stroke="black" points="1871.86,-917.1 1861.97,-921.84 1868.42,-921.18 1865.63,-924.49 1865.63,-924.49 1865.63,-924.49 1868.42,-921.18 1868.86,-927.64 1871.86,-917.1"/>
<text text-anchor="start" x="1872.2" y="-935" font-family="Arial" font-size="10.00">FOREIGN KEY (geochrontypeid) REFERENCES ndb.geochrontypes(geochrontypeid) ON UPDATE CASCADE ON DELETE CASCADE</text>
</g>
<!-- ndb.agetypes -->
<g id="node11" class="node">
<title>ndb.agetypes</title>
<polygon fill="#efefef" stroke="none" points="1968.4,-320.4 1968.4,-356 2288.2,-356 2288.2,-320.4 1968.4,-320.4"/>
<polygon fill="none" stroke="black" points="1968.4,-320.4 1968.4,-356 2288.2,-356 2288.2,-320.4 1968.4,-320.4"/>
<text text-anchor="start" x="2018.82" y="-333.8" font-family="Arial Bold" font-size="18.00">ndb.agetypes</text>
<text text-anchor="start" x="2113.29" y="-333.8" font-family="Arial" font-size="14.00">    </text>
<text text-anchor="start" x="2144.41" y="-333.8" font-family="Arial" font-size="14.00" fill="#666666">[BASE TABLE]</text>
<polygon fill="none" stroke="black" points="1968.4,-289.6 1968.4,-320.4 2288.2,-320.4 2288.2,-289.6 1968.4,-289.6"/>
<text text-anchor="start" x="1975.4" y="-301.8" font-family="Arial" font-size="14.00">agetypeid </text>
<text text-anchor="start" x="2040.01" y="-301.8" font-family="Arial" font-size="14.00" fill="#666666">[integer]</text>
<polygon fill="none" stroke="black" points="1968.4,-258.8 1968.4,-289.6 2288.2,-289.6 2288.2,-258.8 1968.4,-258.8"/>
<text text-anchor="start" x="1975.4" y="-271" font-family="Arial" font-size="14.00">agetype </text>
<text text-anchor="start" x="2029.11" y="-271" font-family="Arial" font-size="14.00" fill="#666666">[varchar(64)]</text>
<polygon fill="none" stroke="black" points="1968.4,-228 1968.4,-258.8 2288.2,-258.8 2288.2,-228 1968.4,-228"/>
<text text-anchor="start" x="1975.4" y="-240.2" font-family="Arial" font-size="14.00">precedence </text>
<text text-anchor="start" x="2052.46" y="-240.2" font-family="Arial" font-size="14.00" fill="#666666">[integer]</text>
<polygon fill="none" stroke="black" points="1968.4,-197.2 1968.4,-228 2288.2,-228 2288.2,-197.2 1968.4,-197.2"/>
<text text-anchor="start" x="1975.4" y="-209.4" font-family="Arial" font-size="14.00">shortagetype </text>
<text text-anchor="start" x="2060.24" y="-209.4" font-family="Arial" font-size="14.00" fill="#666666">[varchar(32)]</text>
<polygon fill="none" stroke="black" points="1968.4,-166.4 1968.4,-197.2 2288.2,-197.2 2288.2,-166.4 1968.4,-166.4"/>
<text text-anchor="start" x="1975.4" y="-178.6" font-family="Arial" font-size="14.00">recdatecreated </text>
<text text-anchor="start" x="2072.68" y="-178.6" font-family="Arial" font-size="14.00" fill="#666666">[timestamp(0) without time zone]</text>
<polygon fill="none" stroke="black" points="1968.4,-135.6 1968.4,-166.4 2288.2,-166.4 2288.2,-135.6 1968.4,-135.6"/>
<text text-anchor="start" x="1975.4" y="-147.8" font-family="Arial" font-size="14.00">recdatemodified </text>
<text text-anchor="start" x="2078.9" y="-147.8" font-family="Arial" font-size="14.00" fill="#666666">[timestamp(0) without time zone]</text>
</g>
<!-- ndb.geochronology&#45;&gt;ndb.agetypes -->
<g id="edge10" class="edge">
<title>ndb.geochronology:agetypeid&#45;&gt;ndb.agetypes:agetypeid</title>
<path fill="none" stroke="black" d="M1874.6,-889.8C1928.78,-835.88 1904.33,-305 1967.4,-305"/>
<polygon fill="black" stroke="black" points="1874.56,-889.81 1863.59,-889.98 1869.73,-892.08 1865.81,-893.92 1865.81,-893.92 1865.81,-893.92 1869.73,-892.08 1867.41,-898.13 1874.56,-889.81"/>
<text text-anchor="start" x="1872.2" y="-904.2" font-family="Arial" font-size="10.00">FOREIGN KEY (agetypeid) REFERENCES ndb.agetypes(agetypeid)</text>
</g>
<!-- ndb.geochroncontrols -->
<g id="node3" class="node">
<title>ndb.geochroncontrols</title>
<polygon fill="#efefef" stroke="none" points="258.4,-1409.4 258.4,-1445 578.2,-1445 578.2,-1409.4 258.4,-1409.4"/>
<polygon fill="none" stroke="black" points="258.4,-1409.4 258.4,-1445 578.2,-1445 578.2,-1409.4 258.4,-1409.4"/>
<text text-anchor="start" x="277.82" y="-1422.8" font-family="Arial Bold" font-size="18.00">ndb.geochroncontrols</text>
<text text-anchor="start" x="434.29" y="-1422.8" font-family="Arial" font-size="14.00">    </text>
<text text-anchor="start" x="465.4" y="-1422.8" font-family="Arial" font-size="14.00" fill="#666666">[BASE TABLE]</text>
<polygon fill="none" stroke="black" points="258.4,-1378.6 258.4,-1409.4 578.2,-1409.4 578.2,-1378.6 258.4,-1378.6"/>
<text text-anchor="start" x="265.4" y="-1390.8" font-family="Arial" font-size="14.00">chroncontrolid </text>
<text text-anchor="start" x="357.23" y="-1390.8" font-family="Arial" font-size="14.00" fill="#666666">[integer]</text>
<polygon fill="none" stroke="black" points="258.4,-1347.8 258.4,-1378.6 578.2,-1378.6 578.2,-1347.8 258.4,-1347.8"/>
<text text-anchor="start" x="265.4" y="-1360" font-family="Arial" font-size="14.00">geochronid </text>
<text text-anchor="start" x="338.57" y="-1360" font-family="Arial" font-size="14.00" fill="#666666">[integer]</text>
<polygon fill="none" stroke="black" points="258.4,-1317 258.4,-1347.8 578.2,-1347.8 578.2,-1317 258.4,-1317"/>
<text text-anchor="start" x="265.4" y="-1329.2" font-family="Arial" font-size="14.00">recdatecreated </text>
<text text-anchor="start" x="362.68" y="-1329.2" font-family="Arial" font-size="14.00" fill="#666666">[timestamp(0) without time zone]</text>
<polygon fill="none" stroke="black" points="258.4,-1286.2 258.4,-1317 578.2,-1317 578.2,-1286.2 258.4,-1286.2"/>
<text text-anchor="start" x="265.4" y="-1298.4" font-family="Arial" font-size="14.00">recdatemodified </text>
<text text-anchor="start" x="368.9" y="-1298.4" font-family="Arial" font-size="14.00" fill="#666666">[timestamp(0) without time zone]</text>
</g>
<!-- ndb.geochroncontrols&#45;&gt;ndb.geochronology -->
<g id="edge2" class="edge">
<title>ndb.geochroncontrols:geochronid&#45;&gt;ndb.geochronology:geochronid</title>
<path fill="none" stroke="black" d="M589.52,-1362.65C681.84,-1352.02 551.48,-1190.82 630.3,-1116.8 705.01,-1046.65 1440.92,-986.6 1543.4,-986.6"/>
<polygon fill="black" stroke="black" points="589.52,-1362.65 579.29,-1358.69 584.19,-1362.93 579.87,-1363.16 579.87,-1363.16 579.87,-1363.16 584.19,-1362.93 579.77,-1367.68 589.52,-1362.65"/>
<text text-anchor="start" x="7" y="-1373.2" font-family="Arial" font-size="10.00">FOREIGN KEY (geochronid) REFERENCES ndb.geochronology(geochronid) ON UPDATE CASCADE ON DELETE CASCADE</text>
</g>
<!-- ndb.geochronpublications -->
<g id="node4" class="node">
<title>ndb.geochronpublications</title>
<polygon fill="#efefef" stroke="none" points="682.83,-1409.4 682.83,-1445 1007.78,-1445 1007.78,-1409.4 682.83,-1409.4"/>
<polygon fill="none" stroke="black" points="682.83,-1409.4 682.83,-1445 1007.78,-1445 1007.78,-1409.4 682.83,-1409.4"/>
<text text-anchor="start" x="689.83" y="-1422.8" font-family="Arial Bold" font-size="18.00">ndb.geochronpublications</text>
<text text-anchor="start" x="876.29" y="-1422.8" font-family="Arial" font-size="14.00">    </text>
<text text-anchor="start" x="907.4" y="-1422.8" font-family="Arial" font-size="14.00" fill="#666666">[BASE TABLE]</text>
<polygon fill="none" stroke="black" points="682.83,-1378.6 682.83,-1409.4 1007.78,-1409.4 1007.78,-1378.6 682.83,-1378.6"/>
<text text-anchor="start" x="689.83" y="-1390.8" font-family="Arial" font-size="14.00">geochronid </text>
<text text-anchor="start" x="762.99" y="-1390.8" font-family="Arial" font-size="14.00" fill="#666666">[integer]</text>
<polygon fill="none" stroke="black" points="682.83,-1347.8 682.83,-1378.6 1007.78,-1378.6 1007.78,-1347.8 682.83,-1347.8"/>
<text text-anchor="start" x="689.83" y="-1360" font-family="Arial" font-size="14.00">publicationid </text>
<text text-anchor="start" x="771.55" y="-1360" font-family="Arial" font-size="14.00" fill="#666666">[integer]</text>
<polygon fill="none" stroke="black" points="682.83,-1317 682.83,-1347.8 1007.78,-1347.8 1007.78,-1317 682.83,-1317"/>
<text text-anchor="start" x="689.83" y="-1329.2" font-family="Arial" font-size="14.00">recdatecreated </text>
<text text-anchor="start" x="787.11" y="-1329.2" font-family="Arial" font-size="14.00" fill="#666666">[timestamp(0) without time zone]</text>
<polygon fill="none" stroke="black" points="682.83,-1286.2 682.83,-1317 1007.78,-1317 1007.78,-1286.2 682.83,-1286.2"/>
<text text-anchor="start" x="689.83" y="-1298.4" font-family="Arial" font-size="14.00">recdatemodified </text>
<text text-anchor="start" x="793.33" y="-1298.4" font-family="Arial" font-size="14.00" fill="#666666">[timestamp(0) without time zone]</text>
</g>
<!-- ndb.geochronpublications&#45;&gt;ndb.geochronology -->
<g id="edge3" class="edge">
<title>ndb.geochronpublications:geochronid&#45;&gt;ndb.geochronology:geochronid</title>
<path fill="none" stroke="black" d="M1019.07,-1393.53C1124.99,-1383.23 977.77,-1206.16 1060.3,-1116.8 1135.74,-1035.12 1432.22,-986.6 1543.4,-986.6"/>
<polygon fill="black" stroke="black" points="1019.1,-1393.53 1008.9,-1389.49 1013.77,-1393.77 1009.44,-1393.97 1009.44,-1393.97 1009.44,-1393.97 1013.77,-1393.77 1009.31,-1398.48 1019.1,-1393.53"/>
<text text-anchor="start" x="726.18" y="-1378" font-family="Arial" font-size="10.00">FOREIGN KEY (geochronid) REFERENCES ndb.geochronology(geochronid) ON UPDATE CASCADE ON DELETE CASCADE</text>
</g>
<!-- ndb.specimendates -->
<g id="node5" class="node">
<title>ndb.specimendates</title>
<polygon fill="#efefef" stroke="none" points="1112.4,-1501.8 1112.4,-1537.4 1432.2,-1537.4 1432.2,-1501.8 1112.4,-1501.8"/>
<polygon fill="none" stroke="black" points="1112.4,-1501.8 1112.4,-1537.4 1432.2,-1537.4 1432.2,-1501.8 1112.4,-1501.8"/>
<text text-anchor="start" x="1141.83" y="-1515.2" font-family="Arial Bold" font-size="18.00">ndb.specimendates</text>
<text text-anchor="start" x="1278.29" y="-1515.2" font-family="Arial" font-size="14.00">    </text>
<text text-anchor="start" x="1309.4" y="-1515.2" font-family="Arial" font-size="14.00" fill="#666666">[BASE TABLE]</text>
<polygon fill="none" stroke="black" points="1112.4,-1471 1112.4,-1501.8 1432.2,-1501.8 1432.2,-1471 1112.4,-1471"/>
<text text-anchor="start" x="1119.4" y="-1483.2" font-family="Arial" font-size="14.00">specimendateid </text>
<text text-anchor="start" x="1221.35" y="-1483.2" font-family="Arial" font-size="14.00" fill="#666666">[integer]</text>
<polygon fill="none" stroke="black" points="1112.4,-1440.2 1112.4,-1471 1432.2,-1471 1432.2,-1440.2 1112.4,-1440.2"/>
<text text-anchor="start" x="1119.4" y="-1452.4" font-family="Arial" font-size="14.00">geochronid </text>
<text text-anchor="start" x="1192.57" y="-1452.4" font-family="Arial" font-size="14.00" fill="#666666">[integer]</text>
<polygon fill="none" stroke="black" points="1112.4,-1409.4 1112.4,-1440.2 1432.2,-1440.2 1432.2,-1409.4 1112.4,-1409.4"/>
<text text-anchor="start" x="1119.4" y="-1421.6" font-family="Arial" font-size="14.00">taxonid </text>
<text text-anchor="start" x="1168.44" y="-1421.6" font-family="Arial" font-size="14.00" fill="#666666">[integer]</text>
<polygon fill="none" stroke="black" points="1112.4,-1378.6 1112.4,-1409.4 1432.2,-1409.4 1432.2,-1378.6 1112.4,-1378.6"/>
<text text-anchor="start" x="1119.4" y="-1390.8" font-family="Arial" font-size="14.00">fractionid </text>
<text text-anchor="start" x="1180.1" y="-1390.8" font-family="Arial" font-size="14.00" fill="#666666">[integer]</text>
<polygon fill="none" stroke="black" points="1112.4,-1347.8 1112.4,-1378.6 1432.2,-1378.6 1432.2,-1347.8 1112.4,-1347.8"/>
<text text-anchor="start" x="1119.4" y="-1360" font-family="Arial" font-size="14.00">sampleid </text>
<text text-anchor="start" x="1179.32" y="-1360" font-family="Arial" font-size="14.00" fill="#666666">[integer]</text>
<polygon fill="none" stroke="black" points="1112.4,-1317 1112.4,-1347.8 1432.2,-1347.8 1432.2,-1317 1112.4,-1317"/>
<text text-anchor="start" x="1119.4" y="-1329.2" font-family="Arial" font-size="14.00">notes </text>
<text text-anchor="start" x="1157.54" y="-1329.2" font-family="Arial" font-size="14.00" fill="#666666">[text]</text>
<polygon fill="none" stroke="black" points="1112.4,-1286.2 1112.4,-1317 1432.2,-1317 1432.2,-1286.2 1112.4,-1286.2"/>
<text text-anchor="start" x="1119.4" y="-1298.4" font-family="Arial" font-size="14.00">elementtypeid </text>
<text text-anchor="start" x="1210.46" y="-1298.4" font-family="Arial" font-size="14.00" fill="#666666">[integer]</text>
<polygon fill="none" stroke="black" points="1112.4,-1255.4 1112.4,-1286.2 1432.2,-1286.2 1432.2,-1255.4 1112.4,-1255.4"/>
<text text-anchor="start" x="1119.4" y="-1267.6" font-family="Arial" font-size="14.00">recdatecreated </text>
<text text-anchor="start" x="1216.68" y="-1267.6" font-family="Arial" font-size="14.00" fill="#666666">[timestamp(0) without time zone]</text>
<polygon fill="none" stroke="black" points="1112.4,-1224.6 1112.4,-1255.4 1432.2,-1255.4 1432.2,-1224.6 1112.4,-1224.6"/>
<text text-anchor="start" x="1119.4" y="-1236.8" font-family="Arial" font-size="14.00">recdatemodified </text>
<text text-anchor="start" x="1222.9" y="-1236.8" font-family="Arial" font-size="14.00" fill="#666666">[timestamp(0) without time zone]</text>
<polygon fill="none" stroke="black" points="1112.4,-1193.8 1112.4,-1224.6 1432.2,-1224.6 1432.2,-1193.8 1112.4,-1193.8"/>
<text text-anchor="start" x="1119.4" y="-1206" font-family="Arial" font-size="14.00">specimenid </text>
<text text-anchor="start" x="1194.1" y="-1206" font-family="Arial" font-size="14.00" fill="#666666">[integer]</text>
</g>
<!-- ndb.specimendates&#45;&gt;ndb.geochronology -->
<g id="edge4" class="edge">
<title>ndb.specimendates:geochronid&#45;&gt;ndb.geochronology:geochronid</title>
<path fill="none" stroke="black" d="M1443.12,-1453.9C1505.12,-1431.11 1463.69,-1186.38 1484.3,-1116.8 1502.35,-1055.87 1479.85,-986.6 1543.4,-986.6"/>
<polygon fill="black" stroke="black" points="1443.39,-1453.85 1432.77,-1451.11 1438.13,-1454.75 1433.86,-1455.49 1433.86,-1455.49 1433.86,-1455.49 1438.13,-1454.75 1434.29,-1459.98 1443.39,-1453.85"/>
<text text-anchor="start" x="1440.2" y="-1465.6" font-family="Arial" font-size="10.00">FOREIGN KEY (geochronid) REFERENCES ndb.geochronology(geochronid) ON UPDATE CASCADE ON DELETE CASCADE</text>
</g>
<!-- ndb.externalgeochronology -->
<g id="node6" class="node">
<title>ndb.externalgeochronology</title>
<polygon fill="#efefef" stroke="none" points="1536.34,-1394 1536.34,-1429.6 1872.26,-1429.6 1872.26,-1394 1536.34,-1394"/>
<polygon fill="none" stroke="black" points="1536.34,-1394 1536.34,-1429.6 1872.26,-1429.6 1872.26,-1394 1536.34,-1394"/>
<text text-anchor="start" x="1543.34" y="-1407.4" font-family="Arial Bold" font-size="18.00">ndb.externalgeochronology</text>
<text text-anchor="start" x="1740.77" y="-1407.4" font-family="Arial" font-size="14.00">    </text>
<text text-anchor="start" x="1771.89" y="-1407.4" font-family="Arial" font-size="14.00" fill="#666666">[BASE TABLE]</text>
<polygon fill="none" stroke="black" points="1536.34,-1363.2 1536.34,-1394 1872.26,-1394 1872.26,-1363.2 1536.34,-1363.2"/>
<text text-anchor="start" x="1543.34" y="-1375.4" font-family="Arial" font-size="14.00">geochronid </text>
<text text-anchor="start" x="1616.5" y="-1375.4" font-family="Arial" font-size="14.00" fill="#666666">[integer]</text>
<polygon fill="none" stroke="black" points="1536.34,-1332.4 1536.34,-1363.2 1872.26,-1363.2 1872.26,-1332.4 1536.34,-1332.4"/>
<text text-anchor="start" x="1543.34" y="-1344.6" font-family="Arial" font-size="14.00">extdatabaseid </text>
<text text-anchor="start" x="1634.41" y="-1344.6" font-family="Arial" font-size="14.00" fill="#666666">[integer]</text>
<polygon fill="none" stroke="black" points="1536.34,-1301.6 1536.34,-1332.4 1872.26,-1332.4 1872.26,-1301.6 1536.34,-1301.6"/>
<text text-anchor="start" x="1543.34" y="-1313.8" font-family="Arial" font-size="14.00">identifier </text>
<text text-anchor="start" x="1600.14" y="-1313.8" font-family="Arial" font-size="14.00" fill="#666666">[text]</text>
</g>
<!-- ndb.externalgeochronology&#45;&gt;ndb.geochronology -->
<g id="edge5" class="edge">
<title>ndb.externalgeochronology:geochronid&#45;&gt;ndb.geochronology:geochronid</title>
<path fill="none" stroke="black" d="M1881.91,-1372.75C1915.48,-1323.99 1905.62,-986.6 1865.2,-986.6"/>
<polygon fill="black" stroke="black" points="1881.82,-1372.81 1871.02,-1374.69 1877.41,-1375.8 1873.82,-1378.23 1873.82,-1378.23 1873.82,-1378.23 1877.41,-1375.8 1876.06,-1382.14 1881.82,-1372.81"/>
<text text-anchor="start" x="1880.26" y="-1388.6" font-family="Arial" font-size="10.00">FOREIGN KEY (geochronid) REFERENCES ndb.geochronology(geochronid)</text>
</g>
<!-- ndb.uraniumseries -->
<g id="node7" class="node">
<title>ndb.uraniumseries</title>
<polygon fill="#efefef" stroke="none" points="1976.82,-1501.8 1976.82,-1537.4 2247.78,-1537.4 2247.78,-1501.8 1976.82,-1501.8"/>
<polygon fill="none" stroke="black" points="1976.82,-1501.8 1976.82,-1537.4 2247.78,-1537.4 2247.78,-1501.8 1976.82,-1501.8"/>
<text text-anchor="start" x="1983.82" y="-1515.2" font-family="Arial Bold" font-size="18.00">ndb.uraniumseries</text>
<text text-anchor="start" x="2116.29" y="-1515.2" font-family="Arial" font-size="14.00">    </text>
<text text-anchor="start" x="2147.41" y="-1515.2" font-family="Arial" font-size="14.00" fill="#666666">[BASE TABLE]</text>
<polygon fill="none" stroke="black" points="1976.82,-1471 1976.82,-1501.8 2247.78,-1501.8 2247.78,-1471 1976.82,-1471"/>
<text text-anchor="start" x="1983.82" y="-1483.2" font-family="Arial" font-size="14.00">geochronid </text>
<text text-anchor="start" x="2056.99" y="-1483.2" font-family="Arial" font-size="14.00" fill="#666666">[integer]</text>
<polygon fill="none" stroke="black" points="1976.82,-1440.2 1976.82,-1471 2247.78,-1471 2247.78,-1440.2 1976.82,-1440.2"/>
<text text-anchor="start" x="1983.82" y="-1452.4" font-family="Arial" font-size="14.00">decayconstantid </text>
<text text-anchor="start" x="2088.89" y="-1452.4" font-family="Arial" font-size="14.00" fill="#666666">[integer]</text>
<polygon fill="none" stroke="black" points="1976.82,-1409.4 1976.82,-1440.2 2247.78,-1440.2 2247.78,-1409.4 1976.82,-1409.4"/>
<text text-anchor="start" x="1983.82" y="-1421.6" font-family="Arial" font-size="14.00">ratio230th232th </text>
<text text-anchor="start" x="2085.01" y="-1421.6" font-family="Arial" font-size="14.00" fill="#666666">[numeric]</text>
<polygon fill="none" stroke="black" points="1976.82,-1378.6 1976.82,-1409.4 2247.78,-1409.4 2247.78,-1378.6 1976.82,-1378.6"/>
<text text-anchor="start" x="1983.82" y="-1390.8" font-family="Arial" font-size="14.00">ratiouncertainty230th232th </text>
<text text-anchor="start" x="2153.5" y="-1390.8" font-family="Arial" font-size="14.00" fill="#666666">[numeric]</text>
<polygon fill="none" stroke="black" points="1976.82,-1347.8 1976.82,-1378.6 2247.78,-1378.6 2247.78,-1347.8 1976.82,-1347.8"/>
<text text-anchor="start" x="1983.82" y="-1360" font-family="Arial" font-size="14.00">activity230th238u </text>
<text text-anchor="start" x="2096.68" y="-1360" font-family="Arial" font-size="14.00" fill="#666666">[numeric]</text>
<polygon fill="none" stroke="black" points="1976.82,-1317 1976.82,-1347.8 2247.78,-1347.8 2247.78,-1317 1976.82,-1317"/>
<text text-anchor="start" x="1983.82" y="-1329.2" font-family="Arial" font-size="14.00">activityuncertainty230th238u </text>
<text text-anchor="start" x="2165.16" y="-1329.2" font-family="Arial" font-size="14.00" fill="#666666">[numeric]</text>
<polygon fill="none" stroke="black" points="1976.82,-1286.2 1976.82,-1317 2247.78,-1317 2247.78,-1286.2 1976.82,-1286.2"/>
<text text-anchor="start" x="1983.82" y="-1298.4" font-family="Arial" font-size="14.00">activity234u238u </text>
<text text-anchor="start" x="2092.79" y="-1298.4" font-family="Arial" font-size="14.00" fill="#666666">[numeric]</text>
<polygon fill="none" stroke="black" points="1976.82,-1255.4 1976.82,-1286.2 2247.78,-1286.2 2247.78,-1255.4 1976.82,-1255.4"/>
<text text-anchor="start" x="1983.82" y="-1267.6" font-family="Arial" font-size="14.00">activityuncertainty234u238u </text>
<text text-anchor="start" x="2161.27" y="-1267.6" font-family="Arial" font-size="14.00" fill="#666666">[numeric]</text>
<polygon fill="none" stroke="black" points="1976.82,-1224.6 1976.82,-1255.4 2247.78,-1255.4 2247.78,-1224.6 1976.82,-1224.6"/>
<text text-anchor="start" x="1983.82" y="-1236.8" font-family="Arial" font-size="14.00">iniratio230th232th </text>
<text text-anchor="start" x="2099.02" y="-1236.8" font-family="Arial" font-size="14.00" fill="#666666">[numeric]</text>
<polygon fill="none" stroke="black" points="1976.82,-1193.8 1976.82,-1224.6 2247.78,-1224.6 2247.78,-1193.8 1976.82,-1193.8"/>
<text text-anchor="start" x="1983.82" y="-1206" font-family="Arial" font-size="14.00">iniratiouncertainty230th232th </text>
<text text-anchor="start" x="2167.5" y="-1206" font-family="Arial" font-size="14.00" fill="#666666">[numeric]</text>
</g>
<!-- ndb.uraniumseries&#45;&gt;ndb.geochronology -->
<g id="edge6" class="edge">
<title>ndb.uraniumseries:geochronid&#45;&gt;ndb.geochronology:geochronid</title>
<path fill="none" stroke="black" d="M1965.88,-1484.83C1897.44,-1461.87 1946.41,-1193.02 1924.3,-1116.8 1906.6,-1055.77 1928.75,-986.6 1865.2,-986.6"/>
<polygon fill="black" stroke="black" points="1965.61,-1484.79 1974.79,-1490.79 1970.88,-1485.62 1975.16,-1486.3 1975.16,-1486.3 1975.16,-1486.3 1970.88,-1485.62 1976.19,-1481.9 1965.61,-1484.79"/>
<text text-anchor="start" x="1626.44" y="-1496.4" font-family="Arial" font-size="10.00">FOREIGN KEY (geochronid) REFERENCES ndb.geochronology(geochronid)</text>
</g>
<!-- ndb.uraniumseriesdata -->
<g id="node8" class="node">
<title>ndb.uraniumseriesdata</title>
<polygon fill="#efefef" stroke="none" points="2351.83,-1378.6 2351.83,-1414.2 2652.77,-1414.2 2652.77,-1378.6 2351.83,-1378.6"/>
<polygon fill="none" stroke="black" points="2351.83,-1378.6 2351.83,-1414.2 2652.77,-1414.2 2652.77,-1378.6 2351.83,-1378.6"/>
<text text-anchor="start" x="2358.83" y="-1392" font-family="Arial Bold" font-size="18.00">ndb.uraniumseriesdata</text>
<text text-anchor="start" x="2521.28" y="-1392" font-family="Arial" font-size="14.00">    </text>
<text text-anchor="start" x="2552.4" y="-1392" font-family="Arial" font-size="14.00" fill="#666666">[BASE TABLE]</text>
<polygon fill="none" stroke="black" points="2351.83,-1347.8 2351.83,-1378.6 2652.77,-1378.6 2652.77,-1347.8 2351.83,-1347.8"/>
<text text-anchor="start" x="2358.83" y="-1360" font-family="Arial" font-size="14.00">geochronid </text>
<text text-anchor="start" x="2432" y="-1360" font-family="Arial" font-size="14.00" fill="#666666">[integer]</text>
<polygon fill="none" stroke="black" points="2351.83,-1317 2351.83,-1347.8 2652.77,-1347.8 2652.77,-1317 2351.83,-1317"/>
<text text-anchor="start" x="2358.83" y="-1329.2" font-family="Arial" font-size="14.00">dataid </text>
<text text-anchor="start" x="2400.87" y="-1329.2" font-family="Arial" font-size="14.00" fill="#666666">[integer]</text>
</g>
<!-- ndb.uraniumseriesdata&#45;&gt;ndb.geochronology -->
<g id="edge7" class="edge">
<title>ndb.uraniumseriesdata:geochronid&#45;&gt;ndb.geochronology:geochronid</title>
<path fill="none" stroke="black" d="M2340.5,-1362.67C2247.89,-1352.4 2373.27,-1196.53 2300.3,-1116.8 2232.16,-1042.35 1966.13,-986.6 1865.2,-986.6"/>
<polygon fill="black" stroke="black" points="2340.51,-1362.67 2350.27,-1367.68 2345.84,-1362.94 2350.16,-1363.17 2350.16,-1363.17 2350.16,-1363.17 2345.84,-1362.94 2350.73,-1358.69 2340.51,-1362.67"/>
<text text-anchor="start" x="2090.55" y="-1347.2" font-family="Arial" font-size="10.00">FOREIGN KEY (geochronid) REFERENCES ndb.geochronology(geochronid)</text>
</g>
</g>
</svg>
