<?xml version="1.0" encoding="UTF-8" standalone="no"?>
<!DOCTYPE svg PUBLIC "-//W3C//DTD SVG 1.1//EN"
 "http://www.w3.org/Graphics/SVG/1.1/DTD/svg11.dtd">
<!-- Generated by graphviz version 12.1.2 (20240928.0832)
 -->
<!-- Title: ndb.synonymtypes Pages: 1 -->
<svg width="1468pt" height="904pt"
 viewBox="0.00 0.00 1468.12 904.00" xmlns="http://www.w3.org/2000/svg" xmlns:xlink="http://www.w3.org/1999/xlink">
<g id="graph0" class="graph" transform="scale(1 1) rotate(0) translate(4 900)">
<title>ndb.synonymtypes</title>
<polygon fill="white" stroke="none" points="-4,4 -4,-900 1464.12,-900 1464.12,4 -4,4"/>
<!-- ndb.synonymtypes -->
<g id="node1" class="node">
<title>ndb.synonymtypes</title>
<polygon fill="#efefef" stroke="none" points="185.94,-320.4 185.94,-356 505.74,-356 505.74,-320.4 185.94,-320.4"/>
<polygon fill="none" stroke="black" points="185.94,-320.4 185.94,-356 505.74,-356 505.74,-320.4 185.94,-320.4"/>
<text text-anchor="start" x="215.85" y="-333.8" font-family="Arial Bold" font-size="18.00">ndb.synonymtypes</text>
<text text-anchor="start" x="351.35" y="-333.8" font-family="Arial" font-size="14.00">    </text>
<text text-anchor="start" x="382.47" y="-333.8" font-family="Arial" font-size="14.00" fill="#666666">[BASE TABLE]</text>
<polygon fill="none" stroke="black" points="185.94,-289.6 185.94,-320.4 505.74,-320.4 505.74,-289.6 185.94,-289.6"/>
<text text-anchor="start" x="192.94" y="-301.8" font-family="Arial" font-size="14.00">synonymtypeid </text>
<text text-anchor="start" x="290.21" y="-301.8" font-family="Arial" font-size="14.00" fill="#666666">[integer]</text>
<polygon fill="none" stroke="black" points="185.94,-258.8 185.94,-289.6 505.74,-289.6 505.74,-258.8 185.94,-258.8"/>
<text text-anchor="start" x="192.94" y="-271" font-family="Arial" font-size="14.00">synonymtype </text>
<text text-anchor="start" x="279.32" y="-271" font-family="Arial" font-size="14.00" fill="#666666">[varchar(255)]</text>
<polygon fill="none" stroke="black" points="185.94,-228 185.94,-258.8 505.74,-258.8 505.74,-228 185.94,-228"/>
<text text-anchor="start" x="192.94" y="-240.2" font-family="Arial" font-size="14.00">recdatecreated </text>
<text text-anchor="start" x="290.23" y="-240.2" font-family="Arial" font-size="14.00" fill="#666666">[timestamp(0) without time zone]</text>
<polygon fill="none" stroke="black" points="185.94,-197.2 185.94,-228 505.74,-228 505.74,-197.2 185.94,-197.2"/>
<text text-anchor="start" x="192.94" y="-209.4" font-family="Arial" font-size="14.00">recdatemodified </text>
<text text-anchor="start" x="296.45" y="-209.4" font-family="Arial" font-size="14.00" fill="#666666">[timestamp(0) without time zone]</text>
<polygon fill="none" stroke="black" stroke-width="3" points="184.44,-195.7 184.44,-357.5 507.24,-357.5 507.24,-195.7 184.44,-195.7"/>
</g>
<!-- ndb.synonyms -->
<g id="node2" class="node">
<title>ndb.synonyms</title>
<polygon fill="#efefef" stroke="none" points="612.94,-817.2 612.94,-852.8 932.74,-852.8 932.74,-817.2 612.94,-817.2"/>
<polygon fill="none" stroke="black" points="612.94,-817.2 612.94,-852.8 932.74,-852.8 932.74,-817.2 612.94,-817.2"/>
<text text-anchor="start" x="658.34" y="-830.6" font-family="Arial Bold" font-size="18.00">ndb.synonyms</text>
<text text-anchor="start" x="762.85" y="-830.6" font-family="Arial" font-size="14.00">    </text>
<text text-anchor="start" x="793.97" y="-830.6" font-family="Arial" font-size="14.00" fill="#666666">[BASE TABLE]</text>
<polygon fill="none" stroke="black" points="612.94,-786.4 612.94,-817.2 932.74,-817.2 932.74,-786.4 612.94,-786.4"/>
<text text-anchor="start" x="619.94" y="-798.6" font-family="Arial" font-size="14.00">synonymid </text>
<text text-anchor="start" x="690.75" y="-798.6" font-family="Arial" font-size="14.00" fill="#666666">[integer]</text>
<polygon fill="none" stroke="black" points="612.94,-755.6 612.94,-786.4 932.74,-786.4 932.74,-755.6 612.94,-755.6"/>
<text text-anchor="start" x="619.94" y="-767.8" font-family="Arial" font-size="14.00">invalidtaxonid </text>
<text text-anchor="start" x="708.67" y="-767.8" font-family="Arial" font-size="14.00" fill="#666666">[integer]</text>
<polygon fill="none" stroke="black" points="612.94,-724.8 612.94,-755.6 932.74,-755.6 932.74,-724.8 612.94,-724.8"/>
<text text-anchor="start" x="619.94" y="-737" font-family="Arial" font-size="14.00">validtaxonid </text>
<text text-anchor="start" x="697.77" y="-737" font-family="Arial" font-size="14.00" fill="#666666">[integer]</text>
<polygon fill="none" stroke="black" points="612.94,-694 612.94,-724.8 932.74,-724.8 932.74,-694 612.94,-694"/>
<text text-anchor="start" x="619.94" y="-706.2" font-family="Arial" font-size="14.00">synonymtypeid </text>
<text text-anchor="start" x="717.21" y="-706.2" font-family="Arial" font-size="14.00" fill="#666666">[integer]</text>
<polygon fill="none" stroke="black" points="612.94,-663.2 612.94,-694 932.74,-694 932.74,-663.2 612.94,-663.2"/>
<text text-anchor="start" x="619.94" y="-675.4" font-family="Arial" font-size="14.00">recdatecreated </text>
<text text-anchor="start" x="717.23" y="-675.4" font-family="Arial" font-size="14.00" fill="#666666">[timestamp(0) without time zone]</text>
<polygon fill="none" stroke="black" points="612.94,-632.4 612.94,-663.2 932.74,-663.2 932.74,-632.4 612.94,-632.4"/>
<text text-anchor="start" x="619.94" y="-644.6" font-family="Arial" font-size="14.00">recdatemodified </text>
<text text-anchor="start" x="723.45" y="-644.6" font-family="Arial" font-size="14.00" fill="#666666">[timestamp(0) without time zone]</text>
</g>
<!-- ndb.synonyms&#45;&gt;ndb.synonymtypes -->
<g id="edge1" class="edge">
<title>ndb.synonyms:synonymtypeid&#45;&gt;ndb.synonymtypes:synonymtypeid</title>
<path fill="none" stroke="black" d="M601.68,-708.75C542.92,-700.73 579.03,-620.11 560.84,-553.2 546.04,-498.73 563.19,-305 506.74,-305"/>
<polygon fill="black" stroke="black" points="601.63,-708.75 611.33,-713.87 606.95,-709.08 611.28,-709.36 611.28,-709.36 611.28,-709.36 606.95,-709.08 611.89,-704.89 601.63,-708.75"/>
<text text-anchor="start" x="7" y="-719.4" font-family="Arial" font-size="10.00">FOREIGN KEY (synonymtypeid) REFERENCES ndb.synonymtypes(synonymtypeid) ON UPDATE CASCADE ON DELETE CASCADE</text>
</g>
<!-- ndb.taxa -->
<g id="node3" class="node">
<title>ndb.taxa</title>
<polygon fill="#efefef" stroke="none" points="612.94,-474.4 612.94,-510 932.74,-510 932.74,-474.4 612.94,-474.4"/>
<polygon fill="none" stroke="black" points="612.94,-474.4 612.94,-510 932.74,-510 932.74,-474.4 612.94,-474.4"/>
<text text-anchor="start" x="679.86" y="-487.8" font-family="Arial Bold" font-size="18.00">ndb.taxa</text>
<text text-anchor="start" x="741.34" y="-487.8" font-family="Arial" font-size="14.00">    </text>
<text text-anchor="start" x="772.46" y="-487.8" font-family="Arial" font-size="14.00" fill="#666666">[BASE TABLE]</text>
<polygon fill="none" stroke="black" points="612.94,-443.6 612.94,-474.4 932.74,-474.4 932.74,-443.6 612.94,-443.6"/>
<text text-anchor="start" x="619.94" y="-455.8" font-family="Arial" font-size="14.00">taxonid </text>
<text text-anchor="start" x="668.98" y="-455.8" font-family="Arial" font-size="14.00" fill="#666666">[integer]</text>
<polygon fill="none" stroke="black" points="612.94,-412.8 612.94,-443.6 932.74,-443.6 932.74,-412.8 612.94,-412.8"/>
<text text-anchor="start" x="619.94" y="-425" font-family="Arial" font-size="14.00">taxoncode </text>
<text text-anchor="start" x="688.44" y="-425" font-family="Arial" font-size="14.00" fill="#666666">[varchar(64)]</text>
<polygon fill="none" stroke="black" points="612.94,-382 612.94,-412.8 932.74,-412.8 932.74,-382 612.94,-382"/>
<text text-anchor="start" x="619.94" y="-394.2" font-family="Arial" font-size="14.00">taxonname </text>
<text text-anchor="start" x="693.1" y="-394.2" font-family="Arial" font-size="14.00" fill="#666666">[text]</text>
<polygon fill="none" stroke="black" points="612.94,-351.2 612.94,-382 932.74,-382 932.74,-351.2 612.94,-351.2"/>
<text text-anchor="start" x="619.94" y="-363.4" font-family="Arial" font-size="14.00">author </text>
<text text-anchor="start" x="663.53" y="-363.4" font-family="Arial" font-size="14.00" fill="#666666">[varchar(128)]</text>
<polygon fill="none" stroke="black" points="612.94,-320.4 612.94,-351.2 932.74,-351.2 932.74,-320.4 612.94,-320.4"/>
<text text-anchor="start" x="619.94" y="-332.6" font-family="Arial" font-size="14.00">valid </text>
<text text-anchor="start" x="652.63" y="-332.6" font-family="Arial" font-size="14.00" fill="#666666">[boolean]</text>
<polygon fill="none" stroke="black" points="612.94,-289.6 612.94,-320.4 932.74,-320.4 932.74,-289.6 612.94,-289.6"/>
<text text-anchor="start" x="619.94" y="-301.8" font-family="Arial" font-size="14.00">highertaxonid </text>
<text text-anchor="start" x="707.9" y="-301.8" font-family="Arial" font-size="14.00" fill="#666666">[integer]</text>
<polygon fill="none" stroke="black" points="612.94,-258.8 612.94,-289.6 932.74,-289.6 932.74,-258.8 612.94,-258.8"/>
<text text-anchor="start" x="619.94" y="-271" font-family="Arial" font-size="14.00">extinct </text>
<text text-anchor="start" x="664.3" y="-271" font-family="Arial" font-size="14.00" fill="#666666">[boolean]</text>
<polygon fill="none" stroke="black" points="612.94,-228 612.94,-258.8 932.74,-258.8 932.74,-228 612.94,-228"/>
<text text-anchor="start" x="619.94" y="-240.2" font-family="Arial" font-size="14.00">taxagroupid </text>
<text text-anchor="start" x="697" y="-240.2" font-family="Arial" font-size="14.00" fill="#666666">[varchar(3)]</text>
<polygon fill="none" stroke="black" points="612.94,-197.2 612.94,-228 932.74,-228 932.74,-197.2 612.94,-197.2"/>
<text text-anchor="start" x="619.94" y="-209.4" font-family="Arial" font-size="14.00">publicationid </text>
<text text-anchor="start" x="701.67" y="-209.4" font-family="Arial" font-size="14.00" fill="#666666">[integer]</text>
<polygon fill="none" stroke="black" points="612.94,-166.4 612.94,-197.2 932.74,-197.2 932.74,-166.4 612.94,-166.4"/>
<text text-anchor="start" x="619.94" y="-178.6" font-family="Arial" font-size="14.00">validatorid </text>
<text text-anchor="start" x="687.65" y="-178.6" font-family="Arial" font-size="14.00" fill="#666666">[integer]</text>
<polygon fill="none" stroke="black" points="612.94,-135.6 612.94,-166.4 932.74,-166.4 932.74,-135.6 612.94,-135.6"/>
<text text-anchor="start" x="619.94" y="-147.8" font-family="Arial" font-size="14.00">validatedate </text>
<text text-anchor="start" x="699.34" y="-147.8" font-family="Arial" font-size="14.00" fill="#666666">[date]</text>
<polygon fill="none" stroke="black" points="612.94,-104.8 612.94,-135.6 932.74,-135.6 932.74,-104.8 612.94,-104.8"/>
<text text-anchor="start" x="619.94" y="-117" font-family="Arial" font-size="14.00">notes </text>
<text text-anchor="start" x="658.08" y="-117" font-family="Arial" font-size="14.00" fill="#666666">[text]</text>
<polygon fill="none" stroke="black" points="612.94,-74 612.94,-104.8 932.74,-104.8 932.74,-74 612.94,-74"/>
<text text-anchor="start" x="619.94" y="-86.2" font-family="Arial" font-size="14.00">recdatecreated </text>
<text text-anchor="start" x="717.23" y="-86.2" font-family="Arial" font-size="14.00" fill="#666666">[timestamp(0) without time zone]</text>
<polygon fill="none" stroke="black" points="612.94,-43.2 612.94,-74 932.74,-74 932.74,-43.2 612.94,-43.2"/>
<text text-anchor="start" x="619.94" y="-55.4" font-family="Arial" font-size="14.00">recdatemodified </text>
<text text-anchor="start" x="723.45" y="-55.4" font-family="Arial" font-size="14.00" fill="#666666">[timestamp(0) without time zone]</text>
</g>
<!-- ndb.synonyms&#45;&gt;ndb.taxa -->
<g id="edge2" class="edge">
<title>ndb.synonyms:invalidtaxonid&#45;&gt;ndb.taxa:taxonid</title>
<path fill="none" stroke="black" d="M943.77,-768.67C1002.9,-740.12 999.56,-459 933.74,-459"/>
<polygon fill="black" stroke="black" points="943.81,-768.66 933.05,-766.54 938.61,-769.87 934.39,-770.85 934.39,-770.85 934.39,-770.85 938.61,-769.87 935.09,-775.31 943.81,-768.66"/>
<text text-anchor="start" x="940.74" y="-781" font-family="Arial" font-size="10.00">FOREIGN KEY (invalidtaxonid) REFERENCES ndb.taxa(taxonid) ON UPDATE CASCADE ON DELETE CASCADE</text>
</g>
<!-- ndb.synonyms&#45;&gt;ndb.taxa -->
<g id="edge3" class="edge">
<title>ndb.synonyms:validtaxonid&#45;&gt;ndb.taxa:taxonid</title>
<path fill="none" stroke="black" d="M943.76,-737.6C996.03,-709.25 992.69,-459 933.74,-459"/>
<polygon fill="black" stroke="black" points="943.75,-737.6 932.93,-735.76 938.58,-738.94 934.39,-740.03 934.39,-740.03 934.39,-740.03 938.58,-738.94 935.2,-744.47 943.75,-737.6"/>
<text text-anchor="start" x="940.74" y="-750.2" font-family="Arial" font-size="10.00">FOREIGN KEY (validtaxonid) REFERENCES ndb.taxa(taxonid)</text>
</g>
</g>
</svg>
