<?xml version="1.0" encoding="UTF-8" standalone="no"?>
<!DOCTYPE svg PUBLIC "-//W3C//DTD SVG 1.1//EN"
 "http://www.w3.org/Graphics/SVG/1.1/DTD/svg11.dtd">
<!-- Generated by graphviz version 12.1.2 (20240928.0832)
 -->
<!-- Title: ndb.aggregatedatasets Pages: 1 -->
<svg width="2142pt" height="1590pt"
 viewBox="0.00 0.00 2142.32 1589.60" xmlns="http://www.w3.org/2000/svg" xmlns:xlink="http://www.w3.org/1999/xlink">
<g id="graph0" class="graph" transform="scale(1 1) rotate(0) translate(4 1585.6)">
<title>ndb.aggregatedatasets</title>
<polygon fill="white" stroke="none" points="-4,4 -4,-1585.6 2138.32,-1585.6 2138.32,4 -4,4"/>
<!-- ndb.aggregatedatasets -->
<g id="node1" class="node">
<title>ndb.aggregatedatasets</title>
<polygon fill="#efefef" stroke="none" points="882.52,-632.4 882.52,-668 1202.31,-668 1202.31,-632.4 882.52,-632.4"/>
<polygon fill="none" stroke="black" points="882.52,-632.4 882.52,-668 1202.31,-668 1202.31,-632.4 882.52,-632.4"/>
<text text-anchor="start" x="900.95" y="-645.8" font-family="Arial Bold" font-size="18.00">ndb.aggregatedatasets</text>
<text text-anchor="start" x="1059.39" y="-645.8" font-family="Arial" font-size="14.00">    </text>
<text text-anchor="start" x="1090.5" y="-645.8" font-family="Arial" font-size="14.00" fill="#666666">[BASE TABLE]</text>
<polygon fill="none" stroke="black" points="882.52,-601.6 882.52,-632.4 1202.31,-632.4 1202.31,-601.6 882.52,-601.6"/>
<text text-anchor="start" x="889.52" y="-613.8" font-family="Arial" font-size="14.00">aggregatedatasetid </text>
<text text-anchor="start" x="1013.28" y="-613.8" font-family="Arial" font-size="14.00" fill="#666666">[integer]</text>
<polygon fill="none" stroke="black" points="882.52,-570.8 882.52,-601.6 1202.31,-601.6 1202.31,-570.8 882.52,-570.8"/>
<text text-anchor="start" x="889.52" y="-583" font-family="Arial" font-size="14.00">aggregatedatasetname </text>
<text text-anchor="start" x="1037.4" y="-583" font-family="Arial" font-size="14.00" fill="#666666">[varchar(255)]</text>
<polygon fill="none" stroke="black" points="882.52,-540 882.52,-570.8 1202.31,-570.8 1202.31,-540 882.52,-540"/>
<text text-anchor="start" x="889.52" y="-552.2" font-family="Arial" font-size="14.00">aggregateordertypeid </text>
<text text-anchor="start" x="1026.5" y="-552.2" font-family="Arial" font-size="14.00" fill="#666666">[integer]</text>
<polygon fill="none" stroke="black" points="882.52,-509.2 882.52,-540 1202.31,-540 1202.31,-509.2 882.52,-509.2"/>
<text text-anchor="start" x="889.52" y="-521.4" font-family="Arial" font-size="14.00">notes </text>
<text text-anchor="start" x="927.65" y="-521.4" font-family="Arial" font-size="14.00" fill="#666666">[text]</text>
<polygon fill="none" stroke="black" points="882.52,-478.4 882.52,-509.2 1202.31,-509.2 1202.31,-478.4 882.52,-478.4"/>
<text text-anchor="start" x="889.52" y="-490.6" font-family="Arial" font-size="14.00">recdatecreated </text>
<text text-anchor="start" x="986.8" y="-490.6" font-family="Arial" font-size="14.00" fill="#666666">[timestamp(0) without time zone]</text>
<polygon fill="none" stroke="black" points="882.52,-447.6 882.52,-478.4 1202.31,-478.4 1202.31,-447.6 882.52,-447.6"/>
<text text-anchor="start" x="889.52" y="-459.8" font-family="Arial" font-size="14.00">recdatemodified </text>
<text text-anchor="start" x="993.02" y="-459.8" font-family="Arial" font-size="14.00" fill="#666666">[timestamp(0) without time zone]</text>
<polygon fill="none" stroke="black" stroke-width="3" points="881.02,-446.1 881.02,-669.5 1203.81,-669.5 1203.81,-446.1 881.02,-446.1"/>
</g>
<!-- ndb.aggregateordertypes -->
<g id="node8" class="node">
<title>ndb.aggregateordertypes</title>
<polygon fill="#efefef" stroke="none" points="882.52,-197.2 882.52,-232.8 1202.31,-232.8 1202.31,-197.2 882.52,-197.2"/>
<polygon fill="none" stroke="black" points="882.52,-197.2 882.52,-232.8 1202.31,-232.8 1202.31,-197.2 882.52,-197.2"/>
<text text-anchor="start" x="891.46" y="-210.6" font-family="Arial Bold" font-size="18.00">ndb.aggregateordertypes</text>
<text text-anchor="start" x="1068.88" y="-210.6" font-family="Arial" font-size="14.00">    </text>
<text text-anchor="start" x="1100" y="-210.6" font-family="Arial" font-size="14.00" fill="#666666">[BASE TABLE]</text>
<polygon fill="none" stroke="black" points="882.52,-166.4 882.52,-197.2 1202.31,-197.2 1202.31,-166.4 882.52,-166.4"/>
<text text-anchor="start" x="889.52" y="-178.6" font-family="Arial" font-size="14.00">aggregateordertype </text>
<text text-anchor="start" x="1015.6" y="-178.6" font-family="Arial" font-size="14.00" fill="#666666">[varchar(64)]</text>
<polygon fill="none" stroke="black" points="882.52,-135.6 882.52,-166.4 1202.31,-166.4 1202.31,-135.6 882.52,-135.6"/>
<text text-anchor="start" x="889.52" y="-147.8" font-family="Arial" font-size="14.00">aggregateordertypeid </text>
<text text-anchor="start" x="1026.5" y="-147.8" font-family="Arial" font-size="14.00" fill="#666666">[integer]</text>
<polygon fill="none" stroke="black" points="882.52,-104.8 882.52,-135.6 1202.31,-135.6 1202.31,-104.8 882.52,-104.8"/>
<text text-anchor="start" x="889.52" y="-117" font-family="Arial" font-size="14.00">notes </text>
<text text-anchor="start" x="927.65" y="-117" font-family="Arial" font-size="14.00" fill="#666666">[text]</text>
<polygon fill="none" stroke="black" points="882.52,-74 882.52,-104.8 1202.31,-104.8 1202.31,-74 882.52,-74"/>
<text text-anchor="start" x="889.52" y="-86.2" font-family="Arial" font-size="14.00">recdatecreated </text>
<text text-anchor="start" x="986.8" y="-86.2" font-family="Arial" font-size="14.00" fill="#666666">[timestamp(0) without time zone]</text>
<polygon fill="none" stroke="black" points="882.52,-43.2 882.52,-74 1202.31,-74 1202.31,-43.2 882.52,-43.2"/>
<text text-anchor="start" x="889.52" y="-55.4" font-family="Arial" font-size="14.00">recdatemodified </text>
<text text-anchor="start" x="993.02" y="-55.4" font-family="Arial" font-size="14.00" fill="#666666">[timestamp(0) without time zone]</text>
</g>
<!-- ndb.aggregatedatasets&#45;&gt;ndb.aggregateordertypes -->
<g id="edge8" class="edge">
<title>ndb.aggregatedatasets:aggregateordertypeid&#45;&gt;ndb.aggregateordertypes:aggregateordertypeid</title>
<path fill="none" stroke="black" d="M1213.64,-554.94C1382.98,-539.76 1379.54,-151 1203.31,-151"/>
<polygon fill="black" stroke="black" points="1213.64,-554.94 1203.45,-550.89 1208.31,-555.18 1203.98,-555.37 1203.98,-555.37 1203.98,-555.37 1208.31,-555.18 1203.85,-559.88 1213.64,-554.94"/>
<text text-anchor="start" x="1210.31" y="-565.4" font-family="Arial" font-size="10.00">FOREIGN KEY (aggregateordertypeid) REFERENCES ndb.aggregateordertypes(aggregateordertypeid) ON UPDATE CASCADE ON DELETE CASCADE</text>
</g>
<!-- ndb.aggregatechronologies -->
<g id="node2" class="node">
<title>ndb.aggregatechronologies</title>
<polygon fill="#efefef" stroke="none" points="542.95,-1190.8 542.95,-1226.4 875.88,-1226.4 875.88,-1190.8 542.95,-1190.8"/>
<polygon fill="none" stroke="black" points="542.95,-1190.8 542.95,-1226.4 875.88,-1226.4 875.88,-1190.8 542.95,-1190.8"/>
<text text-anchor="start" x="549.95" y="-1204.2" font-family="Arial Bold" font-size="18.00">ndb.aggregatechronologies</text>
<text text-anchor="start" x="744.39" y="-1204.2" font-family="Arial" font-size="14.00">    </text>
<text text-anchor="start" x="775.5" y="-1204.2" font-family="Arial" font-size="14.00" fill="#666666">[BASE TABLE]</text>
<polygon fill="none" stroke="black" points="542.95,-1160 542.95,-1190.8 875.88,-1190.8 875.88,-1160 542.95,-1160"/>
<text text-anchor="start" x="549.95" y="-1172.2" font-family="Arial" font-size="14.00">ageboundolder </text>
<text text-anchor="start" x="647.26" y="-1172.2" font-family="Arial" font-size="14.00" fill="#666666">[integer]</text>
<polygon fill="none" stroke="black" points="542.95,-1129.2 542.95,-1160 875.88,-1160 875.88,-1129.2 542.95,-1129.2"/>
<text text-anchor="start" x="549.95" y="-1141.4" font-family="Arial" font-size="14.00">ageboundyounger </text>
<text text-anchor="start" x="666.73" y="-1141.4" font-family="Arial" font-size="14.00" fill="#666666">[integer]</text>
<polygon fill="none" stroke="black" points="542.95,-1098.4 542.95,-1129.2 875.88,-1129.2 875.88,-1098.4 542.95,-1098.4"/>
<text text-anchor="start" x="549.95" y="-1110.6" font-family="Arial" font-size="14.00">agetypeid </text>
<text text-anchor="start" x="614.56" y="-1110.6" font-family="Arial" font-size="14.00" fill="#666666">[integer]</text>
<polygon fill="none" stroke="black" points="542.95,-1067.6 542.95,-1098.4 875.88,-1098.4 875.88,-1067.6 542.95,-1067.6"/>
<text text-anchor="start" x="549.95" y="-1079.8" font-family="Arial" font-size="14.00">aggregatechronid </text>
<text text-anchor="start" x="662.82" y="-1079.8" font-family="Arial" font-size="14.00" fill="#666666">[integer]</text>
<polygon fill="none" stroke="black" points="542.95,-1036.8 542.95,-1067.6 875.88,-1067.6 875.88,-1036.8 542.95,-1036.8"/>
<text text-anchor="start" x="549.95" y="-1049" font-family="Arial" font-size="14.00">aggregatedatasetid </text>
<text text-anchor="start" x="673.72" y="-1049" font-family="Arial" font-size="14.00" fill="#666666">[integer]</text>
<polygon fill="none" stroke="black" points="542.95,-1006 542.95,-1036.8 875.88,-1036.8 875.88,-1006 542.95,-1006"/>
<text text-anchor="start" x="549.95" y="-1018.2" font-family="Arial" font-size="14.00">chronologyname </text>
<text text-anchor="start" x="657.35" y="-1018.2" font-family="Arial" font-size="14.00" fill="#666666">[varchar(80)]</text>
<polygon fill="none" stroke="black" points="542.95,-975.2 542.95,-1006 875.88,-1006 875.88,-975.2 542.95,-975.2"/>
<text text-anchor="start" x="549.95" y="-987.4" font-family="Arial" font-size="14.00">isdefault </text>
<text text-anchor="start" x="605.99" y="-987.4" font-family="Arial" font-size="14.00" fill="#666666">[boolean]</text>
<polygon fill="none" stroke="black" points="542.95,-944.4 542.95,-975.2 875.88,-975.2 875.88,-944.4 542.95,-944.4"/>
<text text-anchor="start" x="549.95" y="-956.6" font-family="Arial" font-size="14.00">notes </text>
<text text-anchor="start" x="588.09" y="-956.6" font-family="Arial" font-size="14.00" fill="#666666">[text]</text>
<polygon fill="none" stroke="black" points="542.95,-913.6 542.95,-944.4 875.88,-944.4 875.88,-913.6 542.95,-913.6"/>
<text text-anchor="start" x="549.95" y="-925.8" font-family="Arial" font-size="14.00">recdatecreated </text>
<text text-anchor="start" x="647.24" y="-925.8" font-family="Arial" font-size="14.00" fill="#666666">[timestamp(0) without time zone]</text>
<polygon fill="none" stroke="black" points="542.95,-882.8 542.95,-913.6 875.88,-913.6 875.88,-882.8 542.95,-882.8"/>
<text text-anchor="start" x="549.95" y="-895" font-family="Arial" font-size="14.00">recdatemodified </text>
<text text-anchor="start" x="653.46" y="-895" font-family="Arial" font-size="14.00" fill="#666666">[timestamp(0) without time zone]</text>
</g>
<!-- ndb.aggregatechronologies&#45;&gt;ndb.aggregatedatasets -->
<g id="edge1" class="edge">
<title>ndb.aggregatechronologies:aggregatedatasetid&#45;&gt;ndb.aggregatedatasets:aggregatedatasetid</title>
<path fill="none" stroke="black" d="M886.94,-1050.26C959.28,-1018.86 788.58,-617 881.52,-617"/>
<polygon fill="black" stroke="black" points="887.02,-1050.24 876.35,-1047.72 881.78,-1051.25 877.53,-1052.07 877.53,-1052.07 877.53,-1052.07 881.78,-1051.25 878.06,-1056.56 887.02,-1050.24"/>
<text text-anchor="start" x="215.15" y="-1062.2" font-family="Arial" font-size="10.00">FOREIGN KEY (aggregatedatasetid) REFERENCES ndb.aggregatedatasets(aggregatedatasetid) ON UPDATE CASCADE ON DELETE CASCADE</text>
</g>
<!-- ndb.agetypes -->
<g id="node3" class="node">
<title>ndb.agetypes</title>
<polygon fill="#efefef" stroke="none" points="455.52,-632.4 455.52,-668 775.31,-668 775.31,-632.4 455.52,-632.4"/>
<polygon fill="none" stroke="black" points="455.52,-632.4 455.52,-668 775.31,-668 775.31,-632.4 455.52,-632.4"/>
<text text-anchor="start" x="505.93" y="-645.8" font-family="Arial Bold" font-size="18.00">ndb.agetypes</text>
<text text-anchor="start" x="600.41" y="-645.8" font-family="Arial" font-size="14.00">    </text>
<text text-anchor="start" x="631.52" y="-645.8" font-family="Arial" font-size="14.00" fill="#666666">[BASE TABLE]</text>
<polygon fill="none" stroke="black" points="455.52,-601.6 455.52,-632.4 775.31,-632.4 775.31,-601.6 455.52,-601.6"/>
<text text-anchor="start" x="462.52" y="-613.8" font-family="Arial" font-size="14.00">agetype </text>
<text text-anchor="start" x="516.23" y="-613.8" font-family="Arial" font-size="14.00" fill="#666666">[varchar(64)]</text>
<polygon fill="none" stroke="black" points="455.52,-570.8 455.52,-601.6 775.31,-601.6 775.31,-570.8 455.52,-570.8"/>
<text text-anchor="start" x="462.52" y="-583" font-family="Arial" font-size="14.00">agetypeid </text>
<text text-anchor="start" x="527.12" y="-583" font-family="Arial" font-size="14.00" fill="#666666">[integer]</text>
<polygon fill="none" stroke="black" points="455.52,-540 455.52,-570.8 775.31,-570.8 775.31,-540 455.52,-540"/>
<text text-anchor="start" x="462.52" y="-552.2" font-family="Arial" font-size="14.00">precedence </text>
<text text-anchor="start" x="539.57" y="-552.2" font-family="Arial" font-size="14.00" fill="#666666">[integer]</text>
<polygon fill="none" stroke="black" points="455.52,-509.2 455.52,-540 775.31,-540 775.31,-509.2 455.52,-509.2"/>
<text text-anchor="start" x="462.52" y="-521.4" font-family="Arial" font-size="14.00">recdatecreated </text>
<text text-anchor="start" x="559.8" y="-521.4" font-family="Arial" font-size="14.00" fill="#666666">[timestamp(0) without time zone]</text>
<polygon fill="none" stroke="black" points="455.52,-478.4 455.52,-509.2 775.31,-509.2 775.31,-478.4 455.52,-478.4"/>
<text text-anchor="start" x="462.52" y="-490.6" font-family="Arial" font-size="14.00">recdatemodified </text>
<text text-anchor="start" x="566.02" y="-490.6" font-family="Arial" font-size="14.00" fill="#666666">[timestamp(0) without time zone]</text>
<polygon fill="none" stroke="black" points="455.52,-447.6 455.52,-478.4 775.31,-478.4 775.31,-447.6 455.52,-447.6"/>
<text text-anchor="start" x="462.52" y="-459.8" font-family="Arial" font-size="14.00">shortagetype </text>
<text text-anchor="start" x="547.35" y="-459.8" font-family="Arial" font-size="14.00" fill="#666666">[varchar(32)]</text>
</g>
<!-- ndb.aggregatechronologies&#45;&gt;ndb.agetypes -->
<g id="edge2" class="edge">
<title>ndb.aggregatechronologies:agetypeid&#45;&gt;ndb.agetypes:agetypeid</title>
<path fill="none" stroke="black" d="M531.71,-1113.37C423.65,-1103.93 482.66,-941.38 542.95,-839.6 603.09,-738.09 714.96,-812.58 775.31,-711.2 803.73,-663.46 831.87,-586.2 776.31,-586.2"/>
<polygon fill="black" stroke="black" points="531.63,-1113.37 541.43,-1118.28 536.96,-1113.59 541.29,-1113.77 541.29,-1113.77 541.29,-1113.77 536.96,-1113.59 541.81,-1109.29 531.63,-1113.37"/>
<text text-anchor="start" x="7" y="-1123.8" font-family="Arial" font-size="10.00">FOREIGN KEY (agetypeid) REFERENCES ndb.agetypes(agetypeid) ON UPDATE CASCADE ON DELETE CASCADE</text>
</g>
<!-- ndb.aggregatesampleages -->
<g id="node4" class="node">
<title>ndb.aggregatesampleages</title>
<polygon fill="#efefef" stroke="none" points="785.96,-1502.8 785.96,-1538.4 1108.87,-1538.4 1108.87,-1502.8 785.96,-1502.8"/>
<polygon fill="none" stroke="black" points="785.96,-1502.8 785.96,-1538.4 1108.87,-1538.4 1108.87,-1502.8 785.96,-1502.8"/>
<text text-anchor="start" x="792.96" y="-1516.2" font-family="Arial Bold" font-size="18.00">ndb.aggregatesampleages</text>
<text text-anchor="start" x="977.38" y="-1516.2" font-family="Arial" font-size="14.00">    </text>
<text text-anchor="start" x="1008.5" y="-1516.2" font-family="Arial" font-size="14.00" fill="#666666">[BASE TABLE]</text>
<polygon fill="none" stroke="black" points="785.96,-1472 785.96,-1502.8 1108.87,-1502.8 1108.87,-1472 785.96,-1472"/>
<text text-anchor="start" x="792.96" y="-1484.2" font-family="Arial" font-size="14.00">aggregatechronid </text>
<text text-anchor="start" x="905.82" y="-1484.2" font-family="Arial" font-size="14.00" fill="#666666">[integer]</text>
<polygon fill="none" stroke="black" points="785.96,-1441.2 785.96,-1472 1108.87,-1472 1108.87,-1441.2 785.96,-1441.2"/>
<text text-anchor="start" x="792.96" y="-1453.4" font-family="Arial" font-size="14.00">aggregatedatasetid </text>
<text text-anchor="start" x="916.72" y="-1453.4" font-family="Arial" font-size="14.00" fill="#666666">[integer]</text>
<polygon fill="none" stroke="black" points="785.96,-1410.4 785.96,-1441.2 1108.87,-1441.2 1108.87,-1410.4 785.96,-1410.4"/>
<text text-anchor="start" x="792.96" y="-1422.6" font-family="Arial" font-size="14.00">recdatecreated </text>
<text text-anchor="start" x="890.24" y="-1422.6" font-family="Arial" font-size="14.00" fill="#666666">[timestamp(0) without time zone]</text>
<polygon fill="none" stroke="black" points="785.96,-1379.6 785.96,-1410.4 1108.87,-1410.4 1108.87,-1379.6 785.96,-1379.6"/>
<text text-anchor="start" x="792.96" y="-1391.8" font-family="Arial" font-size="14.00">recdatemodified </text>
<text text-anchor="start" x="896.46" y="-1391.8" font-family="Arial" font-size="14.00" fill="#666666">[timestamp(0) without time zone]</text>
<polygon fill="none" stroke="black" points="785.96,-1348.8 785.96,-1379.6 1108.87,-1379.6 1108.87,-1348.8 785.96,-1348.8"/>
<text text-anchor="start" x="792.96" y="-1361" font-family="Arial" font-size="14.00">sampleageid </text>
<text text-anchor="start" x="876.23" y="-1361" font-family="Arial" font-size="14.00" fill="#666666">[integer]</text>
</g>
<!-- ndb.aggregatesampleages&#45;&gt;ndb.aggregatedatasets -->
<g id="edge4" class="edge">
<title>ndb.aggregatesampleages:aggregatedatasetid&#45;&gt;ndb.aggregatedatasets:aggregatedatasetid</title>
<path fill="none" stroke="black" d="M1120.05,-1455.74C1174.02,-1446 1148.01,-1355.53 1108.87,-1305.6 1068.58,-1254.21 1008.77,-1319.31 966.41,-1269.6 904.2,-1196.58 949.3,-933.23 928.41,-839.6 906.4,-740.92 780.41,-617 881.52,-617"/>
<polygon fill="black" stroke="black" points="1120.17,-1455.73 1109.83,-1452.09 1114.85,-1456.18 1110.54,-1456.54 1110.54,-1456.54 1110.54,-1456.54 1114.85,-1456.18 1110.58,-1461.06 1120.17,-1455.73"/>
<text text-anchor="start" x="1116.87" y="-1466.6" font-family="Arial" font-size="10.00">FOREIGN KEY (aggregatedatasetid) REFERENCES ndb.aggregatedatasets(aggregatedatasetid) ON UPDATE CASCADE ON DELETE CASCADE</text>
</g>
<!-- ndb.aggregatesampleages&#45;&gt;ndb.aggregatechronologies -->
<g id="edge3" class="edge">
<title>ndb.aggregatesampleages:aggregatechronid&#45;&gt;ndb.aggregatechronologies:aggregatechronid</title>
<path fill="none" stroke="black" d="M774.77,-1486.72C707.44,-1477.16 742.53,-1369.39 785.96,-1305.6 810.18,-1270.02 851.65,-1305.18 875.88,-1269.6 922.54,-1201.04 959.81,-1083 876.88,-1083"/>
<polygon fill="black" stroke="black" points="774.65,-1486.71 784.33,-1491.87 779.97,-1487.07 784.29,-1487.36 784.29,-1487.36 784.29,-1487.36 779.97,-1487.07 784.93,-1482.89 774.65,-1486.71"/>
<text text-anchor="start" x="342.73" y="-1497.4" font-family="Arial" font-size="10.00">FOREIGN KEY (aggregatechronid) REFERENCES ndb.aggregatechronologies(aggregatechronid)</text>
</g>
<!-- ndb.sampleages -->
<g id="node5" class="node">
<title>ndb.sampleages</title>
<polygon fill="#efefef" stroke="none" points="1018.52,-1160 1018.52,-1195.6 1338.31,-1195.6 1338.31,-1160 1018.52,-1160"/>
<polygon fill="none" stroke="black" points="1018.52,-1160 1018.52,-1195.6 1338.31,-1195.6 1338.31,-1160 1018.52,-1160"/>
<text text-anchor="start" x="1058.94" y="-1173.4" font-family="Arial Bold" font-size="18.00">ndb.sampleages</text>
<text text-anchor="start" x="1173.4" y="-1173.4" font-family="Arial" font-size="14.00">    </text>
<text text-anchor="start" x="1204.52" y="-1173.4" font-family="Arial" font-size="14.00" fill="#666666">[BASE TABLE]</text>
<polygon fill="none" stroke="black" points="1018.52,-1129.2 1018.52,-1160 1338.31,-1160 1338.31,-1129.2 1018.52,-1129.2"/>
<text text-anchor="start" x="1025.52" y="-1141.4" font-family="Arial" font-size="14.00">age </text>
<text text-anchor="start" x="1052.76" y="-1141.4" font-family="Arial" font-size="14.00" fill="#666666">[double precision]</text>
<polygon fill="none" stroke="black" points="1018.52,-1098.4 1018.52,-1129.2 1338.31,-1129.2 1338.31,-1098.4 1018.52,-1098.4"/>
<text text-anchor="start" x="1025.52" y="-1110.6" font-family="Arial" font-size="14.00">ageolder </text>
<text text-anchor="start" x="1083.89" y="-1110.6" font-family="Arial" font-size="14.00" fill="#666666">[double precision]</text>
<polygon fill="none" stroke="black" points="1018.52,-1067.6 1018.52,-1098.4 1338.31,-1098.4 1338.31,-1067.6 1018.52,-1067.6"/>
<text text-anchor="start" x="1025.52" y="-1079.8" font-family="Arial" font-size="14.00">ageyounger </text>
<text text-anchor="start" x="1103.36" y="-1079.8" font-family="Arial" font-size="14.00" fill="#666666">[double precision]</text>
<polygon fill="none" stroke="black" points="1018.52,-1036.8 1018.52,-1067.6 1338.31,-1067.6 1338.31,-1036.8 1018.52,-1036.8"/>
<text text-anchor="start" x="1025.52" y="-1049" font-family="Arial" font-size="14.00">chronologyid </text>
<text text-anchor="start" x="1108.79" y="-1049" font-family="Arial" font-size="14.00" fill="#666666">[integer]</text>
<polygon fill="none" stroke="black" points="1018.52,-1006 1018.52,-1036.8 1338.31,-1036.8 1338.31,-1006 1018.52,-1006"/>
<text text-anchor="start" x="1025.52" y="-1018.2" font-family="Arial" font-size="14.00">recdatecreated </text>
<text text-anchor="start" x="1122.8" y="-1018.2" font-family="Arial" font-size="14.00" fill="#666666">[timestamp(0) without time zone]</text>
<polygon fill="none" stroke="black" points="1018.52,-975.2 1018.52,-1006 1338.31,-1006 1338.31,-975.2 1018.52,-975.2"/>
<text text-anchor="start" x="1025.52" y="-987.4" font-family="Arial" font-size="14.00">recdatemodified </text>
<text text-anchor="start" x="1129.02" y="-987.4" font-family="Arial" font-size="14.00" fill="#666666">[timestamp(0) without time zone]</text>
<polygon fill="none" stroke="black" points="1018.52,-944.4 1018.52,-975.2 1338.31,-975.2 1338.31,-944.4 1018.52,-944.4"/>
<text text-anchor="start" x="1025.52" y="-956.6" font-family="Arial" font-size="14.00">sampleageid </text>
<text text-anchor="start" x="1108.79" y="-956.6" font-family="Arial" font-size="14.00" fill="#666666">[integer]</text>
<polygon fill="none" stroke="black" points="1018.52,-913.6 1018.52,-944.4 1338.31,-944.4 1338.31,-913.6 1018.52,-913.6"/>
<text text-anchor="start" x="1025.52" y="-925.8" font-family="Arial" font-size="14.00">sampleid </text>
<text text-anchor="start" x="1085.43" y="-925.8" font-family="Arial" font-size="14.00" fill="#666666">[integer]</text>
</g>
<!-- ndb.aggregatesampleages&#45;&gt;ndb.sampleages -->
<g id="edge5" class="edge">
<title>ndb.aggregatesampleages:sampleageid&#45;&gt;ndb.sampleages:sampleageid</title>
<path fill="none" stroke="black" d="M1119.88,-1361.3C1130.81,-1352.38 1118.75,-1324.78 1108.87,-1305.6 1086,-1261.2 1041.08,-1283.35 1018.52,-1238.8 990.5,-1183.49 955.51,-959.8 1017.52,-959.8"/>
<polygon fill="black" stroke="black" points="1119.8,-1361.32 1108.94,-1359.78 1114.67,-1362.81 1110.51,-1364.01 1110.51,-1364.01 1110.51,-1364.01 1114.67,-1362.81 1111.44,-1368.43 1119.8,-1361.32"/>
<text text-anchor="start" x="1116.87" y="-1374.2" font-family="Arial" font-size="10.00">FOREIGN KEY (sampleageid) REFERENCES ndb.sampleages(sampleageid) ON UPDATE CASCADE ON DELETE CASCADE</text>
</g>
<!-- ndb.aggregatesamples -->
<g id="node6" class="node">
<title>ndb.aggregatesamples</title>
<polygon fill="#efefef" stroke="none" points="1442.52,-1098.4 1442.52,-1134 1762.31,-1134 1762.31,-1098.4 1442.52,-1098.4"/>
<polygon fill="none" stroke="black" points="1442.52,-1098.4 1442.52,-1134 1762.31,-1134 1762.31,-1098.4 1442.52,-1098.4"/>
<text text-anchor="start" x="1460.45" y="-1111.8" font-family="Arial Bold" font-size="18.00">ndb.aggregatesamples</text>
<text text-anchor="start" x="1619.89" y="-1111.8" font-family="Arial" font-size="14.00">    </text>
<text text-anchor="start" x="1651.01" y="-1111.8" font-family="Arial" font-size="14.00" fill="#666666">[BASE TABLE]</text>
<polygon fill="none" stroke="black" points="1442.52,-1067.6 1442.52,-1098.4 1762.31,-1098.4 1762.31,-1067.6 1442.52,-1067.6"/>
<text text-anchor="start" x="1449.52" y="-1079.8" font-family="Arial" font-size="14.00">aggregatedatasetid </text>
<text text-anchor="start" x="1573.28" y="-1079.8" font-family="Arial" font-size="14.00" fill="#666666">[integer]</text>
<polygon fill="none" stroke="black" points="1442.52,-1036.8 1442.52,-1067.6 1762.31,-1067.6 1762.31,-1036.8 1442.52,-1036.8"/>
<text text-anchor="start" x="1449.52" y="-1049" font-family="Arial" font-size="14.00">recdatecreated </text>
<text text-anchor="start" x="1546.8" y="-1049" font-family="Arial" font-size="14.00" fill="#666666">[timestamp(0) without time zone]</text>
<polygon fill="none" stroke="black" points="1442.52,-1006 1442.52,-1036.8 1762.31,-1036.8 1762.31,-1006 1442.52,-1006"/>
<text text-anchor="start" x="1449.52" y="-1018.2" font-family="Arial" font-size="14.00">recdatemodified </text>
<text text-anchor="start" x="1553.02" y="-1018.2" font-family="Arial" font-size="14.00" fill="#666666">[timestamp(0) without time zone]</text>
<polygon fill="none" stroke="black" points="1442.52,-975.2 1442.52,-1006 1762.31,-1006 1762.31,-975.2 1442.52,-975.2"/>
<text text-anchor="start" x="1449.52" y="-987.4" font-family="Arial" font-size="14.00">sampleid </text>
<text text-anchor="start" x="1509.43" y="-987.4" font-family="Arial" font-size="14.00" fill="#666666">[integer]</text>
</g>
<!-- ndb.aggregatesamples&#45;&gt;ndb.aggregatedatasets -->
<g id="edge6" class="edge">
<title>ndb.aggregatesamples:aggregatedatasetid&#45;&gt;ndb.aggregatedatasets:aggregatedatasetid</title>
<path fill="none" stroke="black" d="M1431.57,-1080.54C1389.78,-1057.91 1412.99,-885.99 1390.41,-839.6 1333.86,-723.39 1332.55,-617 1203.31,-617"/>
<polygon fill="black" stroke="black" points="1431.48,-1080.51 1440.11,-1087.29 1436.66,-1081.8 1440.87,-1082.84 1440.87,-1082.84 1440.87,-1082.84 1436.66,-1081.8 1442.27,-1078.55 1431.48,-1080.51"/>
<text text-anchor="start" x="1448.52" y="-1093" font-family="Arial" font-size="10.00">FOREIGN KEY (aggregatedatasetid) REFERENCES ndb.aggregatedatasets(aggregatedatasetid) ON UPDATE CASCADE ON DELETE CASCADE</text>
</g>
<!-- ndb.samples -->
<g id="node7" class="node">
<title>ndb.samples</title>
<polygon fill="#efefef" stroke="none" points="1442.52,-724.8 1442.52,-760.4 1762.31,-760.4 1762.31,-724.8 1442.52,-724.8"/>
<polygon fill="none" stroke="black" points="1442.52,-724.8 1442.52,-760.4 1762.31,-760.4 1762.31,-724.8 1442.52,-724.8"/>
<text text-anchor="start" x="1495.42" y="-738.2" font-family="Arial Bold" font-size="18.00">ndb.samples</text>
<text text-anchor="start" x="1584.92" y="-738.2" font-family="Arial" font-size="14.00">    </text>
<text text-anchor="start" x="1616.03" y="-738.2" font-family="Arial" font-size="14.00" fill="#666666">[BASE TABLE]</text>
<polygon fill="none" stroke="black" points="1442.52,-694 1442.52,-724.8 1762.31,-724.8 1762.31,-694 1442.52,-694"/>
<text text-anchor="start" x="1449.52" y="-706.2" font-family="Arial" font-size="14.00">analysisdate </text>
<text text-anchor="start" x="1531.23" y="-706.2" font-family="Arial" font-size="14.00" fill="#666666">[date]</text>
<polygon fill="none" stroke="black" points="1442.52,-663.2 1442.52,-694 1762.31,-694 1762.31,-663.2 1442.52,-663.2"/>
<text text-anchor="start" x="1449.52" y="-675.4" font-family="Arial" font-size="14.00">analysisunitid </text>
<text text-anchor="start" x="1537.45" y="-675.4" font-family="Arial" font-size="14.00" fill="#666666">[integer]</text>
<polygon fill="none" stroke="black" points="1442.52,-632.4 1442.52,-663.2 1762.31,-663.2 1762.31,-632.4 1442.52,-632.4"/>
<text text-anchor="start" x="1449.52" y="-644.6" font-family="Arial" font-size="14.00">datasetid </text>
<text text-anchor="start" x="1510.23" y="-644.6" font-family="Arial" font-size="14.00" fill="#666666">[integer]</text>
<polygon fill="none" stroke="black" points="1442.52,-601.6 1442.52,-632.4 1762.31,-632.4 1762.31,-601.6 1442.52,-601.6"/>
<text text-anchor="start" x="1449.52" y="-613.8" font-family="Arial" font-size="14.00">labnumber </text>
<text text-anchor="start" x="1519.56" y="-613.8" font-family="Arial" font-size="14.00" fill="#666666">[varchar(40)]</text>
<polygon fill="none" stroke="black" points="1442.52,-570.8 1442.52,-601.6 1762.31,-601.6 1762.31,-570.8 1442.52,-570.8"/>
<text text-anchor="start" x="1449.52" y="-583" font-family="Arial" font-size="14.00">notes </text>
<text text-anchor="start" x="1487.65" y="-583" font-family="Arial" font-size="14.00" fill="#666666">[text]</text>
<polygon fill="none" stroke="black" points="1442.52,-540 1442.52,-570.8 1762.31,-570.8 1762.31,-540 1442.52,-540"/>
<text text-anchor="start" x="1449.52" y="-552.2" font-family="Arial" font-size="14.00">preparationmethod </text>
<text text-anchor="start" x="1570.93" y="-552.2" font-family="Arial" font-size="14.00" fill="#666666">[text]</text>
<polygon fill="none" stroke="black" points="1442.52,-509.2 1442.52,-540 1762.31,-540 1762.31,-509.2 1442.52,-509.2"/>
<text text-anchor="start" x="1449.52" y="-521.4" font-family="Arial" font-size="14.00">recdatecreated </text>
<text text-anchor="start" x="1546.8" y="-521.4" font-family="Arial" font-size="14.00" fill="#666666">[timestamp(0) without time zone]</text>
<polygon fill="none" stroke="black" points="1442.52,-478.4 1442.52,-509.2 1762.31,-509.2 1762.31,-478.4 1442.52,-478.4"/>
<text text-anchor="start" x="1449.52" y="-490.6" font-family="Arial" font-size="14.00">recdatemodified </text>
<text text-anchor="start" x="1553.02" y="-490.6" font-family="Arial" font-size="14.00" fill="#666666">[timestamp(0) without time zone]</text>
<polygon fill="none" stroke="black" points="1442.52,-447.6 1442.52,-478.4 1762.31,-478.4 1762.31,-447.6 1442.52,-447.6"/>
<text text-anchor="start" x="1449.52" y="-459.8" font-family="Arial" font-size="14.00">sampledate </text>
<text text-anchor="start" x="1525.78" y="-459.8" font-family="Arial" font-size="14.00" fill="#666666">[date]</text>
<polygon fill="none" stroke="black" points="1442.52,-416.8 1442.52,-447.6 1762.31,-447.6 1762.31,-416.8 1442.52,-416.8"/>
<text text-anchor="start" x="1449.52" y="-429" font-family="Arial" font-size="14.00">sampleid </text>
<text text-anchor="start" x="1509.43" y="-429" font-family="Arial" font-size="14.00" fill="#666666">[integer]</text>
<polygon fill="none" stroke="black" points="1442.52,-386 1442.52,-416.8 1762.31,-416.8 1762.31,-386 1442.52,-386"/>
<text text-anchor="start" x="1449.52" y="-398.2" font-family="Arial" font-size="14.00">samplename </text>
<text text-anchor="start" x="1533.56" y="-398.2" font-family="Arial" font-size="14.00" fill="#666666">[varchar(80)]</text>
<polygon fill="none" stroke="black" points="1442.52,-355.2 1442.52,-386 1762.31,-386 1762.31,-355.2 1442.52,-355.2"/>
<text text-anchor="start" x="1449.52" y="-367.4" font-family="Arial" font-size="14.00">taxonid </text>
<text text-anchor="start" x="1498.55" y="-367.4" font-family="Arial" font-size="14.00" fill="#666666">[integer]</text>
</g>
<!-- ndb.aggregatesamples&#45;&gt;ndb.samples -->
<g id="edge7" class="edge">
<title>ndb.aggregatesamples:sampleid&#45;&gt;ndb.samples:sampleid</title>
<path fill="none" stroke="black" d="M1602.83,-964C1610.63,-872.18 1725.28,-896.89 1762.31,-803.6 1823.21,-650.18 1928.38,-432.2 1763.31,-432.2"/>
<polygon fill="black" stroke="black" points="1602.84,-963.87 1597.93,-973.68 1602.62,-969.2 1602.44,-973.53 1602.44,-973.53 1602.44,-973.53 1602.62,-969.2 1606.92,-974.05 1602.84,-963.87"/>
<text text-anchor="start" x="1609.41" y="-984.2" font-family="Arial" font-size="10.00">FOREIGN KEY (sampleid) REFERENCES ndb.samples(sampleid) ON UPDATE CASCADE ON DELETE CASCADE</text>
</g>
</g>
</svg>
