<?xml version="1.0" encoding="UTF-8" standalone="no"?>
<!DOCTYPE svg PUBLIC "-//W3C//DTD SVG 1.1//EN"
 "http://www.w3.org/Graphics/SVG/1.1/DTD/svg11.dtd">
<!-- Generated by graphviz version 12.1.2 (20240928.0832)
 -->
<!-- Title: ndb.taphonomicsystems Pages: 1 -->
<svg width="1968pt" height="928pt"
 viewBox="0.00 0.00 1968.38 927.89" xmlns="http://www.w3.org/2000/svg" xmlns:xlink="http://www.w3.org/1999/xlink">
<g id="graph0" class="graph" transform="scale(1 1) rotate(0) translate(4 923.89)">
<title>ndb.taphonomicsystems</title>
<polygon fill="white" stroke="none" points="-4,4 -4,-923.89 1964.38,-923.89 1964.38,4 -4,4"/>
<!-- ndb.taphonomicsystems -->
<g id="node1" class="node">
<title>ndb.taphonomicsystems</title>
<polygon fill="#efefef" stroke="none" points="564.2,-214.09 564.2,-249.69 884,-249.69 884,-214.09 564.2,-214.09"/>
<polygon fill="none" stroke="black" points="564.2,-214.09 564.2,-249.69 884,-249.69 884,-214.09 564.2,-214.09"/>
<text text-anchor="start" x="575.11" y="-227.49" font-family="Arial Bold" font-size="18.00">ndb.taphonomicsystems</text>
<text text-anchor="start" x="748.6" y="-227.49" font-family="Arial" font-size="14.00">    </text>
<text text-anchor="start" x="779.71" y="-227.49" font-family="Arial" font-size="14.00" fill="#666666">[BASE TABLE]</text>
<polygon fill="none" stroke="black" points="564.2,-183.29 564.2,-214.09 884,-214.09 884,-183.29 564.2,-183.29"/>
<text text-anchor="start" x="571.2" y="-195.49" font-family="Arial" font-size="14.00">notes </text>
<text text-anchor="start" x="609.34" y="-195.49" font-family="Arial" font-size="14.00" fill="#666666">[text]</text>
<polygon fill="none" stroke="black" points="564.2,-152.49 564.2,-183.29 884,-183.29 884,-152.49 564.2,-152.49"/>
<text text-anchor="start" x="571.2" y="-164.69" font-family="Arial" font-size="14.00">recdatecreated </text>
<text text-anchor="start" x="668.48" y="-164.69" font-family="Arial" font-size="14.00" fill="#666666">[timestamp(0) without time zone]</text>
<polygon fill="none" stroke="black" points="564.2,-121.69 564.2,-152.49 884,-152.49 884,-121.69 564.2,-121.69"/>
<text text-anchor="start" x="571.2" y="-133.89" font-family="Arial" font-size="14.00">recdatemodified </text>
<text text-anchor="start" x="674.7" y="-133.89" font-family="Arial" font-size="14.00" fill="#666666">[timestamp(0) without time zone]</text>
<polygon fill="none" stroke="black" points="564.2,-90.89 564.2,-121.69 884,-121.69 884,-90.89 564.2,-90.89"/>
<text text-anchor="start" x="571.2" y="-103.09" font-family="Arial" font-size="14.00">taphonomicsystem </text>
<text text-anchor="start" x="691.81" y="-103.09" font-family="Arial" font-size="14.00" fill="#666666">[varchar(64)]</text>
<polygon fill="none" stroke="black" points="564.2,-60.09 564.2,-90.89 884,-90.89 884,-60.09 564.2,-60.09"/>
<text text-anchor="start" x="571.2" y="-72.29" font-family="Arial" font-size="14.00">taphonomicsystemid </text>
<text text-anchor="start" x="702.7" y="-72.29" font-family="Arial" font-size="14.00" fill="#666666">[integer]</text>
<polygon fill="none" stroke="black" stroke-width="3" points="562.7,-58.59 562.7,-251.19 885.5,-251.19 885.5,-58.59 562.7,-58.59"/>
</g>
<!-- ndb.taphonomicsystemsdatasettypes -->
<g id="node2" class="node">
<title>ndb.taphonomicsystemsdatasettypes</title>
<polygon fill="#efefef" stroke="none" points="969.13,-529.09 969.13,-564.69 1369.07,-564.69 1369.07,-529.09 969.13,-529.09"/>
<polygon fill="none" stroke="black" points="969.13,-529.09 969.13,-564.69 1369.07,-564.69 1369.07,-529.09 969.13,-529.09"/>
<text text-anchor="start" x="976.13" y="-542.49" font-family="Arial Bold" font-size="18.00">ndb.taphonomicsystemsdatasettypes</text>
<text text-anchor="start" x="1237.58" y="-542.49" font-family="Arial" font-size="14.00">    </text>
<text text-anchor="start" x="1268.7" y="-542.49" font-family="Arial" font-size="14.00" fill="#666666">[BASE TABLE]</text>
<polygon fill="none" stroke="black" points="969.13,-498.29 969.13,-529.09 1369.07,-529.09 1369.07,-498.29 969.13,-498.29"/>
<text text-anchor="start" x="976.13" y="-510.49" font-family="Arial" font-size="14.00">datasettypeid </text>
<text text-anchor="start" x="1063.3" y="-510.49" font-family="Arial" font-size="14.00" fill="#666666">[integer]</text>
<polygon fill="none" stroke="black" points="969.13,-467.49 969.13,-498.29 1369.07,-498.29 1369.07,-467.49 969.13,-467.49"/>
<text text-anchor="start" x="976.13" y="-479.69" font-family="Arial" font-size="14.00">recdatecreated </text>
<text text-anchor="start" x="1073.41" y="-479.69" font-family="Arial" font-size="14.00" fill="#666666">[timestamp(0) without time zone]</text>
<polygon fill="none" stroke="black" points="969.13,-436.69 969.13,-467.49 1369.07,-467.49 1369.07,-436.69 969.13,-436.69"/>
<text text-anchor="start" x="976.13" y="-448.89" font-family="Arial" font-size="14.00">recdatemodified </text>
<text text-anchor="start" x="1079.63" y="-448.89" font-family="Arial" font-size="14.00" fill="#666666">[timestamp(0) without time zone]</text>
<polygon fill="none" stroke="black" points="969.13,-405.89 969.13,-436.69 1369.07,-436.69 1369.07,-405.89 969.13,-405.89"/>
<text text-anchor="start" x="976.13" y="-418.09" font-family="Arial" font-size="14.00">taphonomicsystemid </text>
<text text-anchor="start" x="1107.63" y="-418.09" font-family="Arial" font-size="14.00" fill="#666666">[integer]</text>
</g>
<!-- ndb.taphonomicsystemsdatasettypes&#45;&gt;ndb.taphonomicsystems -->
<g id="edge1" class="edge">
<title>ndb.taphonomicsystemsdatasettypes:taphonomicsystemid&#45;&gt;ndb.taphonomicsystems:taphonomicsystemid</title>
<path fill="none" stroke="black" d="M957.99,-419.09C895.78,-389.64 960.33,-75.49 885,-75.49"/>
<polygon fill="black" stroke="black" points="958.03,-419.09 966.84,-425.62 963.24,-420.23 967.47,-421.15 967.47,-421.15 967.47,-421.15 963.24,-420.23 968.76,-416.83 958.03,-419.09"/>
<text text-anchor="start" x="975.13" y="-431.29" font-family="Arial" font-size="10.00">FOREIGN KEY (taphonomicsystemid) REFERENCES ndb.taphonomicsystems(taphonomicsystemid) ON UPDATE CASCADE ON DELETE CASCADE</text>
</g>
<!-- ndb.datasettypes -->
<g id="node3" class="node">
<title>ndb.datasettypes</title>
<polygon fill="#efefef" stroke="none" points="1009.2,-198.69 1009.2,-234.29 1329,-234.29 1329,-198.69 1009.2,-198.69"/>
<polygon fill="none" stroke="black" points="1009.2,-198.69 1009.2,-234.29 1329,-234.29 1329,-198.69 1009.2,-198.69"/>
<text text-anchor="start" x="1047.12" y="-212.09" font-family="Arial Bold" font-size="18.00">ndb.datasettypes</text>
<text text-anchor="start" x="1166.59" y="-212.09" font-family="Arial" font-size="14.00">    </text>
<text text-anchor="start" x="1197.71" y="-212.09" font-family="Arial" font-size="14.00" fill="#666666">[BASE TABLE]</text>
<polygon fill="none" stroke="black" points="1009.2,-167.89 1009.2,-198.69 1329,-198.69 1329,-167.89 1009.2,-167.89"/>
<text text-anchor="start" x="1016.2" y="-180.09" font-family="Arial" font-size="14.00">datasettype </text>
<text text-anchor="start" x="1092.47" y="-180.09" font-family="Arial" font-size="14.00" fill="#666666">[varchar(64)]</text>
<polygon fill="none" stroke="black" points="1009.2,-137.09 1009.2,-167.89 1329,-167.89 1329,-137.09 1009.2,-137.09"/>
<text text-anchor="start" x="1016.2" y="-149.29" font-family="Arial" font-size="14.00">datasettypeid </text>
<text text-anchor="start" x="1103.37" y="-149.29" font-family="Arial" font-size="14.00" fill="#666666">[integer]</text>
<polygon fill="none" stroke="black" points="1009.2,-106.29 1009.2,-137.09 1329,-137.09 1329,-106.29 1009.2,-106.29"/>
<text text-anchor="start" x="1016.2" y="-118.49" font-family="Arial" font-size="14.00">recdatecreated </text>
<text text-anchor="start" x="1113.48" y="-118.49" font-family="Arial" font-size="14.00" fill="#666666">[timestamp(0) without time zone]</text>
<polygon fill="none" stroke="black" points="1009.2,-75.49 1009.2,-106.29 1329,-106.29 1329,-75.49 1009.2,-75.49"/>
<text text-anchor="start" x="1016.2" y="-87.69" font-family="Arial" font-size="14.00">recdatemodified </text>
<text text-anchor="start" x="1119.7" y="-87.69" font-family="Arial" font-size="14.00" fill="#666666">[timestamp(0) without time zone]</text>
</g>
<!-- ndb.taphonomicsystemsdatasettypes&#45;&gt;ndb.datasettypes -->
<g id="edge2" class="edge">
<title>ndb.taphonomicsystemsdatasettypes:datasettypeid&#45;&gt;ndb.datasettypes:datasettypeid</title>
<path fill="none" stroke="black" d="M1380.23,-511.57C1447.15,-481.97 1407.13,-152.49 1330,-152.49"/>
<polygon fill="black" stroke="black" points="1380.19,-511.58 1369.48,-509.22 1374.97,-512.67 1370.73,-513.56 1370.73,-513.56 1370.73,-513.56 1374.97,-512.67 1371.32,-518.03 1380.19,-511.58"/>
<text text-anchor="start" x="1377.07" y="-523.69" font-family="Arial" font-size="10.00">FOREIGN KEY (datasettypeid) REFERENCES ndb.datasettypes(datasettypeid) ON UPDATE CASCADE ON DELETE CASCADE</text>
</g>
<!-- ndb.taphonomictypes -->
<g id="node4" class="node">
<title>ndb.taphonomictypes</title>
<polygon fill="#efefef" stroke="none" points="545.2,-559.89 545.2,-595.49 865,-595.49 865,-559.89 545.2,-559.89"/>
<polygon fill="none" stroke="black" points="545.2,-559.89 545.2,-595.49 865,-595.49 865,-559.89 545.2,-559.89"/>
<text text-anchor="start" x="565.62" y="-573.29" font-family="Arial Bold" font-size="18.00">ndb.taphonomictypes</text>
<text text-anchor="start" x="720.09" y="-573.29" font-family="Arial" font-size="14.00">    </text>
<text text-anchor="start" x="751.21" y="-573.29" font-family="Arial" font-size="14.00" fill="#666666">[BASE TABLE]</text>
<polygon fill="none" stroke="black" points="545.2,-529.09 545.2,-559.89 865,-559.89 865,-529.09 545.2,-529.09"/>
<text text-anchor="start" x="552.2" y="-541.29" font-family="Arial" font-size="14.00">notes </text>
<text text-anchor="start" x="590.34" y="-541.29" font-family="Arial" font-size="14.00" fill="#666666">[text]</text>
<polygon fill="none" stroke="black" points="545.2,-498.29 545.2,-529.09 865,-529.09 865,-498.29 545.2,-498.29"/>
<text text-anchor="start" x="552.2" y="-510.49" font-family="Arial" font-size="14.00">recdatecreated </text>
<text text-anchor="start" x="649.48" y="-510.49" font-family="Arial" font-size="14.00" fill="#666666">[timestamp(0) without time zone]</text>
<polygon fill="none" stroke="black" points="545.2,-467.49 545.2,-498.29 865,-498.29 865,-467.49 545.2,-467.49"/>
<text text-anchor="start" x="552.2" y="-479.69" font-family="Arial" font-size="14.00">recdatemodified </text>
<text text-anchor="start" x="655.7" y="-479.69" font-family="Arial" font-size="14.00" fill="#666666">[timestamp(0) without time zone]</text>
<polygon fill="none" stroke="black" points="545.2,-436.69 545.2,-467.49 865,-467.49 865,-436.69 545.2,-436.69"/>
<text text-anchor="start" x="552.2" y="-448.89" font-family="Arial" font-size="14.00">taphonomicsystemid </text>
<text text-anchor="start" x="683.7" y="-448.89" font-family="Arial" font-size="14.00" fill="#666666">[integer]</text>
<polygon fill="none" stroke="black" points="545.2,-405.89 545.2,-436.69 865,-436.69 865,-405.89 545.2,-405.89"/>
<text text-anchor="start" x="552.2" y="-418.09" font-family="Arial" font-size="14.00">taphonomictype </text>
<text text-anchor="start" x="654.93" y="-418.09" font-family="Arial" font-size="14.00" fill="#666666">[varchar(64)]</text>
<polygon fill="none" stroke="black" points="545.2,-375.09 545.2,-405.89 865,-405.89 865,-375.09 545.2,-375.09"/>
<text text-anchor="start" x="552.2" y="-387.29" font-family="Arial" font-size="14.00">taphonomictypeid </text>
<text text-anchor="start" x="665.83" y="-387.29" font-family="Arial" font-size="14.00" fill="#666666">[integer]</text>
</g>
<!-- ndb.taphonomictypes&#45;&gt;ndb.taphonomicsystems -->
<g id="edge3" class="edge">
<title>ndb.taphonomictypes:taphonomicsystemid&#45;&gt;ndb.taphonomicsystems:taphonomicsystemid</title>
<path fill="none" stroke="black" d="M871.07,-443.5C886.42,-411.34 929.42,-299.83 930.2,-295.89 940.35,-244.49 967.16,-97.24 930.2,-60.09 865.58,4.83 724.1,32.51 724.1,-59.09"/>
<polygon fill="black" stroke="black" points="871.25,-443.19 862.29,-449.52 868.54,-447.79 866.34,-451.52 866.34,-451.52 866.34,-451.52 868.54,-447.79 870.04,-454.09 871.25,-443.19"/>
<text text-anchor="start" x="187.69" y="-462.09" font-family="Arial" font-size="10.00">FOREIGN KEY (taphonomicsystemid) REFERENCES ndb.taphonomicsystems(taphonomicsystemid) ON UPDATE CASCADE ON DELETE CASCADE</text>
</g>
<!-- ndb.specimentaphonomy -->
<g id="node5" class="node">
<title>ndb.specimentaphonomy</title>
<polygon fill="#efefef" stroke="none" points="326.2,-841.09 326.2,-876.69 646,-876.69 646,-841.09 326.2,-841.09"/>
<polygon fill="none" stroke="black" points="326.2,-841.09 326.2,-876.69 646,-876.69 646,-841.09 326.2,-841.09"/>
<text text-anchor="start" x="333.62" y="-854.49" font-family="Arial Bold" font-size="18.00">ndb.specimentaphonomy</text>
<text text-anchor="start" x="514.09" y="-854.49" font-family="Arial" font-size="14.00">    </text>
<text text-anchor="start" x="545.2" y="-854.49" font-family="Arial" font-size="14.00" fill="#666666">[BASE TABLE]</text>
<polygon fill="none" stroke="black" points="326.2,-810.29 326.2,-841.09 646,-841.09 646,-810.29 326.2,-810.29"/>
<text text-anchor="start" x="333.2" y="-822.49" font-family="Arial" font-size="14.00">recdatecreated </text>
<text text-anchor="start" x="430.48" y="-822.49" font-family="Arial" font-size="14.00" fill="#666666">[timestamp(0) without time zone]</text>
<polygon fill="none" stroke="black" points="326.2,-779.49 326.2,-810.29 646,-810.29 646,-779.49 326.2,-779.49"/>
<text text-anchor="start" x="333.2" y="-791.69" font-family="Arial" font-size="14.00">recdatemodified </text>
<text text-anchor="start" x="436.7" y="-791.69" font-family="Arial" font-size="14.00" fill="#666666">[timestamp(0) without time zone]</text>
<polygon fill="none" stroke="black" points="326.2,-748.69 326.2,-779.49 646,-779.49 646,-748.69 326.2,-748.69"/>
<text text-anchor="start" x="333.2" y="-760.89" font-family="Arial" font-size="14.00">specimenid </text>
<text text-anchor="start" x="407.9" y="-760.89" font-family="Arial" font-size="14.00" fill="#666666">[integer]</text>
<polygon fill="none" stroke="black" points="326.2,-717.89 326.2,-748.69 646,-748.69 646,-717.89 326.2,-717.89"/>
<text text-anchor="start" x="333.2" y="-730.09" font-family="Arial" font-size="14.00">taphonomictypeid </text>
<text text-anchor="start" x="446.83" y="-730.09" font-family="Arial" font-size="14.00" fill="#666666">[integer]</text>
</g>
<!-- ndb.specimentaphonomy&#45;&gt;ndb.taphonomictypes -->
<g id="edge4" class="edge">
<title>ndb.specimentaphonomy:taphonomictypeid&#45;&gt;ndb.taphonomictypes:taphonomictypeid</title>
<path fill="none" stroke="black" d="M656.91,-730.51C669.06,-721.45 658.69,-692.39 646,-674.69 618.26,-636.04 572.68,-677.52 545.2,-638.69 481.47,-548.65 433.89,-390.49 544.2,-390.49"/>
<polygon fill="black" stroke="black" points="656.95,-730.5 646.1,-728.87 651.81,-731.94 647.64,-733.11 647.64,-733.11 647.64,-733.11 651.81,-731.94 648.54,-737.54 656.95,-730.5"/>
<text text-anchor="start" x="7" y="-743.29" font-family="Arial" font-size="10.00">FOREIGN KEY (taphonomictypeid) REFERENCES ndb.taphonomictypes(taphonomictypeid) ON UPDATE CASCADE ON DELETE CASCADE</text>
</g>
<!-- ndb.summarydatataphonomy -->
<g id="node6" class="node">
<title>ndb.summarydatataphonomy</title>
<polygon fill="#efefef" stroke="none" points="750.12,-841.09 750.12,-876.69 1098.07,-876.69 1098.07,-841.09 750.12,-841.09"/>
<polygon fill="none" stroke="black" points="750.12,-841.09 750.12,-876.69 1098.07,-876.69 1098.07,-841.09 750.12,-841.09"/>
<text text-anchor="start" x="757.12" y="-854.49" font-family="Arial Bold" font-size="18.00">ndb.summarydatataphonomy</text>
<text text-anchor="start" x="966.58" y="-854.49" font-family="Arial" font-size="14.00">    </text>
<text text-anchor="start" x="997.7" y="-854.49" font-family="Arial" font-size="14.00" fill="#666666">[BASE TABLE]</text>
<polygon fill="none" stroke="black" points="750.12,-810.29 750.12,-841.09 1098.07,-841.09 1098.07,-810.29 750.12,-810.29"/>
<text text-anchor="start" x="757.12" y="-822.49" font-family="Arial" font-size="14.00">dataid </text>
<text text-anchor="start" x="799.16" y="-822.49" font-family="Arial" font-size="14.00" fill="#666666">[integer]</text>
<polygon fill="none" stroke="black" points="750.12,-779.49 750.12,-810.29 1098.07,-810.29 1098.07,-779.49 750.12,-779.49"/>
<text text-anchor="start" x="757.12" y="-791.69" font-family="Arial" font-size="14.00">recdatecreated </text>
<text text-anchor="start" x="854.41" y="-791.69" font-family="Arial" font-size="14.00" fill="#666666">[timestamp(0) without time zone]</text>
<polygon fill="none" stroke="black" points="750.12,-748.69 750.12,-779.49 1098.07,-779.49 1098.07,-748.69 750.12,-748.69"/>
<text text-anchor="start" x="757.12" y="-760.89" font-family="Arial" font-size="14.00">recdatemodified </text>
<text text-anchor="start" x="860.63" y="-760.89" font-family="Arial" font-size="14.00" fill="#666666">[timestamp(0) without time zone]</text>
<polygon fill="none" stroke="black" points="750.12,-717.89 750.12,-748.69 1098.07,-748.69 1098.07,-717.89 750.12,-717.89"/>
<text text-anchor="start" x="757.12" y="-730.09" font-family="Arial" font-size="14.00">taphonomictypeid </text>
<text text-anchor="start" x="870.75" y="-730.09" font-family="Arial" font-size="14.00" fill="#666666">[integer]</text>
</g>
<!-- ndb.summarydatataphonomy&#45;&gt;ndb.taphonomictypes -->
<g id="edge5" class="edge">
<title>ndb.summarydatataphonomy:taphonomictypeid&#45;&gt;ndb.taphonomictypes:taphonomictypeid</title>
<path fill="none" stroke="black" d="M739.18,-730.49C726.94,-721.37 737.08,-692.13 750.12,-674.69 782.17,-631.85 833.24,-681.75 865,-638.69 897.74,-594.31 921.15,-390.49 866,-390.49"/>
<polygon fill="black" stroke="black" points="739.18,-730.49 747.58,-737.53 744.31,-731.94 748.48,-733.11 748.48,-733.11 748.48,-733.11 744.31,-731.94 750.02,-728.87 739.18,-730.49"/>
<text text-anchor="start" x="756.12" y="-743.29" font-family="Arial" font-size="10.00">FOREIGN KEY (taphonomictypeid) REFERENCES ndb.taphonomictypes(taphonomictypeid) ON UPDATE CASCADE ON DELETE CASCADE</text>
</g>
</g>
</svg>
