<?xml version="1.0" encoding="UTF-8" standalone="no"?>
<!DOCTYPE svg PUBLIC "-//W3C//DTD SVG 1.1//EN"
 "http://www.w3.org/Graphics/SVG/1.1/DTD/svg11.dtd">
<!-- Generated by graphviz version 12.1.2 (20240928.0832)
 -->
<!-- Title: ndb.lakeparameters Pages: 1 -->
<svg width="3209pt" height="1304pt"
 viewBox="0.00 0.00 3209.12 1304.40" xmlns="http://www.w3.org/2000/svg" xmlns:xlink="http://www.w3.org/1999/xlink">
<g id="graph0" class="graph" transform="scale(1 1) rotate(0) translate(4 1300.4)">
<title>ndb.lakeparameters</title>
<polygon fill="white" stroke="none" points="-4,4 -4,-1300.4 3205.12,-1300.4 3205.12,4 -4,4"/>
<!-- ndb.lakeparameters -->
<g id="node1" class="node">
<title>ndb.lakeparameters</title>
<polygon fill="#efefef" stroke="none" points="325.06,-986.6 325.06,-1022.2 644.86,-1022.2 644.86,-986.6 325.06,-986.6"/>
<polygon fill="none" stroke="black" points="325.06,-986.6 325.06,-1022.2 644.86,-1022.2 644.86,-986.6 325.06,-986.6"/>
<text text-anchor="start" x="352.5" y="-1000" font-family="Arial Bold" font-size="18.00">ndb.lakeparameters</text>
<text text-anchor="start" x="492.93" y="-1000" font-family="Arial" font-size="14.00">    </text>
<text text-anchor="start" x="524.05" y="-1000" font-family="Arial" font-size="14.00" fill="#666666">[BASE TABLE]</text>
<polygon fill="none" stroke="black" points="325.06,-955.8 325.06,-986.6 644.86,-986.6 644.86,-955.8 325.06,-955.8"/>
<text text-anchor="start" x="332.06" y="-968" font-family="Arial" font-size="14.00">lakeparameterid </text>
<text text-anchor="start" x="436.34" y="-968" font-family="Arial" font-size="14.00" fill="#666666">[integer]</text>
<polygon fill="none" stroke="black" points="325.06,-925 325.06,-955.8 644.86,-955.8 644.86,-925 325.06,-925"/>
<text text-anchor="start" x="332.06" y="-937.2" font-family="Arial" font-size="14.00">recdatecreated </text>
<text text-anchor="start" x="429.34" y="-937.2" font-family="Arial" font-size="14.00" fill="#666666">[timestamp(0) without time zone]</text>
<polygon fill="none" stroke="black" points="325.06,-894.2 325.06,-925 644.86,-925 644.86,-894.2 325.06,-894.2"/>
<text text-anchor="start" x="332.06" y="-906.4" font-family="Arial" font-size="14.00">recdatemodified </text>
<text text-anchor="start" x="435.56" y="-906.4" font-family="Arial" font-size="14.00" fill="#666666">[timestamp(0) without time zone]</text>
<polygon fill="none" stroke="black" points="325.06,-863.4 325.06,-894.2 644.86,-894.2 644.86,-863.4 325.06,-863.4"/>
<text text-anchor="start" x="332.06" y="-875.6" font-family="Arial" font-size="14.00">siteid </text>
<text text-anchor="start" x="368.63" y="-875.6" font-family="Arial" font-size="14.00" fill="#666666">[integer]</text>
<polygon fill="none" stroke="black" points="325.06,-832.6 325.06,-863.4 644.86,-863.4 644.86,-832.6 325.06,-832.6"/>
<text text-anchor="start" x="332.06" y="-844.8" font-family="Arial" font-size="14.00">value </text>
<text text-anchor="start" x="369.42" y="-844.8" font-family="Arial" font-size="14.00" fill="#666666">[double precision]</text>
<polygon fill="none" stroke="black" stroke-width="3" points="323.56,-831.1 323.56,-1023.7 646.36,-1023.7 646.36,-831.1 323.56,-831.1"/>
</g>
<!-- ndb.lakeparametertypes -->
<g id="node2" class="node">
<title>ndb.lakeparametertypes</title>
<polygon fill="#efefef" stroke="none" points="325.06,-335.8 325.06,-371.4 644.86,-371.4 644.86,-335.8 325.06,-335.8"/>
<polygon fill="none" stroke="black" points="325.06,-335.8 325.06,-371.4 644.86,-371.4 644.86,-335.8 325.06,-335.8"/>
<text text-anchor="start" x="337.01" y="-349.2" font-family="Arial Bold" font-size="18.00">ndb.lakeparametertypes</text>
<text text-anchor="start" x="508.43" y="-349.2" font-family="Arial" font-size="14.00">    </text>
<text text-anchor="start" x="539.54" y="-349.2" font-family="Arial" font-size="14.00" fill="#666666">[BASE TABLE]</text>
<polygon fill="none" stroke="black" points="325.06,-305 325.06,-335.8 644.86,-335.8 644.86,-305 325.06,-305"/>
<text text-anchor="start" x="332.06" y="-317.2" font-family="Arial" font-size="14.00">lakeparameter </text>
<text text-anchor="start" x="425.44" y="-317.2" font-family="Arial" font-size="14.00" fill="#666666">[varchar(80)]</text>
<polygon fill="none" stroke="black" points="325.06,-274.2 325.06,-305 644.86,-305 644.86,-274.2 325.06,-274.2"/>
<text text-anchor="start" x="332.06" y="-286.4" font-family="Arial" font-size="14.00">lakeparametercode </text>
<text text-anchor="start" x="455.8" y="-286.4" font-family="Arial" font-size="14.00" fill="#666666">[varchar(20)]</text>
<polygon fill="none" stroke="black" points="325.06,-243.4 325.06,-274.2 644.86,-274.2 644.86,-243.4 325.06,-243.4"/>
<text text-anchor="start" x="332.06" y="-255.6" font-family="Arial" font-size="14.00">lakeparameterid </text>
<text text-anchor="start" x="436.34" y="-255.6" font-family="Arial" font-size="14.00" fill="#666666">[integer]</text>
<polygon fill="none" stroke="black" points="325.06,-212.6 325.06,-243.4 644.86,-243.4 644.86,-212.6 325.06,-212.6"/>
<text text-anchor="start" x="332.06" y="-224.8" font-family="Arial" font-size="14.00">lakeparametershortname </text>
<text text-anchor="start" x="491.58" y="-224.8" font-family="Arial" font-size="14.00" fill="#666666">[varchar(40)]</text>
<polygon fill="none" stroke="black" points="325.06,-181.8 325.06,-212.6 644.86,-212.6 644.86,-181.8 325.06,-181.8"/>
<text text-anchor="start" x="332.06" y="-194" font-family="Arial" font-size="14.00">recdatecreated </text>
<text text-anchor="start" x="429.34" y="-194" font-family="Arial" font-size="14.00" fill="#666666">[timestamp(0) without time zone]</text>
<polygon fill="none" stroke="black" points="325.06,-151 325.06,-181.8 644.86,-181.8 644.86,-151 325.06,-151"/>
<text text-anchor="start" x="332.06" y="-163.2" font-family="Arial" font-size="14.00">recdatemodified </text>
<text text-anchor="start" x="435.56" y="-163.2" font-family="Arial" font-size="14.00" fill="#666666">[timestamp(0) without time zone]</text>
</g>
<!-- ndb.lakeparameters&#45;&gt;ndb.lakeparametertypes -->
<g id="edge1" class="edge">
<title>ndb.lakeparameters:lakeparameterid&#45;&gt;ndb.lakeparametertypes:lakeparameterid</title>
<path fill="none" stroke="black" d="M652.61,-963.68C685.29,-887.54 683.04,-258.8 645.86,-258.8"/>
<polygon fill="black" stroke="black" points="652.77,-963.51 642.74,-967.94 649.2,-967.48 646.31,-970.7 646.31,-970.7 646.31,-970.7 649.2,-967.48 649.43,-973.96 652.77,-963.51"/>
<text text-anchor="start" x="7" y="-981.2" font-family="Arial" font-size="10.00">FOREIGN KEY (lakeparameterid) REFERENCES ndb.lakeparametertypes(lakeparameterid) ON UPDATE CASCADE ON DELETE CASCADE</text>
</g>
<!-- ndb.sites -->
<g id="node3" class="node">
<title>ndb.sites</title>
<polygon fill="#efefef" stroke="none" points="1600.06,-443.6 1600.06,-479.2 1919.86,-479.2 1919.86,-443.6 1600.06,-443.6"/>
<polygon fill="none" stroke="black" points="1600.06,-443.6 1600.06,-479.2 1919.86,-479.2 1919.86,-443.6 1600.06,-443.6"/>
<text text-anchor="start" x="1665.97" y="-457" font-family="Arial Bold" font-size="18.00">ndb.sites</text>
<text text-anchor="start" x="1729.47" y="-457" font-family="Arial" font-size="14.00">    </text>
<text text-anchor="start" x="1760.58" y="-457" font-family="Arial" font-size="14.00" fill="#666666">[BASE TABLE]</text>
<polygon fill="none" stroke="black" points="1600.06,-412.8 1600.06,-443.6 1919.86,-443.6 1919.86,-412.8 1600.06,-412.8"/>
<text text-anchor="start" x="1607.06" y="-425" font-family="Arial" font-size="14.00">altitude </text>
<text text-anchor="start" x="1656.1" y="-425" font-family="Arial" font-size="14.00" fill="#666666">[double precision]</text>
<polygon fill="none" stroke="black" points="1600.06,-382 1600.06,-412.8 1919.86,-412.8 1919.86,-382 1600.06,-382"/>
<text text-anchor="start" x="1607.06" y="-394.2" font-family="Arial" font-size="14.00">area </text>
<text text-anchor="start" x="1638.97" y="-394.2" font-family="Arial" font-size="14.00" fill="#666666">[double precision]</text>
<polygon fill="none" stroke="black" points="1600.06,-351.2 1600.06,-382 1919.86,-382 1919.86,-351.2 1600.06,-351.2"/>
<text text-anchor="start" x="1607.06" y="-363.4" font-family="Arial" font-size="14.00">geog </text>
<text text-anchor="start" x="1642.1" y="-363.4" font-family="Arial" font-size="14.00" fill="#666666">[geography]</text>
<polygon fill="none" stroke="black" points="1600.06,-320.4 1600.06,-351.2 1919.86,-351.2 1919.86,-320.4 1600.06,-320.4"/>
<text text-anchor="start" x="1607.06" y="-332.6" font-family="Arial" font-size="14.00">latitudenorth </text>
<text text-anchor="start" x="1688.01" y="-332.6" font-family="Arial" font-size="14.00" fill="#666666">[double precision]</text>
<polygon fill="none" stroke="black" points="1600.06,-289.6 1600.06,-320.4 1919.86,-320.4 1919.86,-289.6 1600.06,-289.6"/>
<text text-anchor="start" x="1607.06" y="-301.8" font-family="Arial" font-size="14.00">latitudesouth </text>
<text text-anchor="start" x="1690.34" y="-301.8" font-family="Arial" font-size="14.00" fill="#666666">[double precision]</text>
<polygon fill="none" stroke="black" points="1600.06,-258.8 1600.06,-289.6 1919.86,-289.6 1919.86,-258.8 1600.06,-258.8"/>
<text text-anchor="start" x="1607.06" y="-271" font-family="Arial" font-size="14.00">longitudeeast </text>
<text text-anchor="start" x="1694.24" y="-271" font-family="Arial" font-size="14.00" fill="#666666">[double precision]</text>
<polygon fill="none" stroke="black" points="1600.06,-228 1600.06,-258.8 1919.86,-258.8 1919.86,-228 1600.06,-228"/>
<text text-anchor="start" x="1607.06" y="-240.2" font-family="Arial" font-size="14.00">longitudewest </text>
<text text-anchor="start" x="1696.56" y="-240.2" font-family="Arial" font-size="14.00" fill="#666666">[double precision]</text>
<polygon fill="none" stroke="black" points="1600.06,-197.2 1600.06,-228 1919.86,-228 1919.86,-197.2 1600.06,-197.2"/>
<text text-anchor="start" x="1607.06" y="-209.4" font-family="Arial" font-size="14.00">notes </text>
<text text-anchor="start" x="1645.2" y="-209.4" font-family="Arial" font-size="14.00" fill="#666666">[text]</text>
<polygon fill="none" stroke="black" points="1600.06,-166.4 1600.06,-197.2 1919.86,-197.2 1919.86,-166.4 1600.06,-166.4"/>
<text text-anchor="start" x="1607.06" y="-178.6" font-family="Arial" font-size="14.00">recdatecreated </text>
<text text-anchor="start" x="1704.34" y="-178.6" font-family="Arial" font-size="14.00" fill="#666666">[timestamp(0) without time zone]</text>
<polygon fill="none" stroke="black" points="1600.06,-135.6 1600.06,-166.4 1919.86,-166.4 1919.86,-135.6 1600.06,-135.6"/>
<text text-anchor="start" x="1607.06" y="-147.8" font-family="Arial" font-size="14.00">recdatemodified </text>
<text text-anchor="start" x="1710.56" y="-147.8" font-family="Arial" font-size="14.00" fill="#666666">[timestamp(0) without time zone]</text>
<polygon fill="none" stroke="black" points="1600.06,-104.8 1600.06,-135.6 1919.86,-135.6 1919.86,-104.8 1600.06,-104.8"/>
<text text-anchor="start" x="1607.06" y="-117" font-family="Arial" font-size="14.00">sitedescription </text>
<text text-anchor="start" x="1700.44" y="-117" font-family="Arial" font-size="14.00" fill="#666666">[text]</text>
<polygon fill="none" stroke="black" points="1600.06,-74 1600.06,-104.8 1919.86,-104.8 1919.86,-74 1600.06,-74"/>
<text text-anchor="start" x="1607.06" y="-86.2" font-family="Arial" font-size="14.00">siteid </text>
<text text-anchor="start" x="1643.63" y="-86.2" font-family="Arial" font-size="14.00" fill="#666666">[integer]</text>
<polygon fill="none" stroke="black" points="1600.06,-43.2 1600.06,-74 1919.86,-74 1919.86,-43.2 1600.06,-43.2"/>
<text text-anchor="start" x="1607.06" y="-55.4" font-family="Arial" font-size="14.00">sitename </text>
<text text-anchor="start" x="1667.76" y="-55.4" font-family="Arial" font-size="14.00" fill="#666666">[varchar(128)]</text>
</g>
<!-- ndb.lakeparameters&#45;&gt;ndb.sites -->
<g id="edge2" class="edge">
<title>ndb.lakeparameters:siteid&#45;&gt;ndb.sites:siteid</title>
<path fill="none" stroke="black" d="M655.86,-876.83C712.18,-852.72 659.66,-613.84 699.96,-558.4 964.99,-193.86 1148.36,-89.4 1599.06,-89.4"/>
<polygon fill="black" stroke="black" points="656,-876.81 645.32,-874.32 650.77,-877.84 646.52,-878.67 646.52,-878.67 646.52,-878.67 650.77,-877.84 647.06,-883.15 656,-876.81"/>
<text text-anchor="start" x="170.98" y="-888.8" font-family="Arial" font-size="10.00">FOREIGN KEY (siteid) REFERENCES ndb.sites(siteid) ON UPDATE CASCADE ON DELETE CASCADE</text>
</g>
<!-- ndb.collectionunits -->
<g id="node4" class="node">
<title>ndb.collectionunits</title>
<polygon fill="#efefef" stroke="none" points="752.06,-1217.6 752.06,-1253.2 1071.86,-1253.2 1071.86,-1217.6 752.06,-1217.6"/>
<polygon fill="none" stroke="black" points="752.06,-1217.6 752.06,-1253.2 1071.86,-1253.2 1071.86,-1217.6 752.06,-1217.6"/>
<text text-anchor="start" x="780.98" y="-1231" font-family="Arial Bold" font-size="18.00">ndb.collectionunits</text>
<text text-anchor="start" x="918.46" y="-1231" font-family="Arial" font-size="14.00">    </text>
<text text-anchor="start" x="949.57" y="-1231" font-family="Arial" font-size="14.00" fill="#666666">[BASE TABLE]</text>
<polygon fill="none" stroke="black" points="752.06,-1186.8 752.06,-1217.6 1071.86,-1217.6 1071.86,-1186.8 752.06,-1186.8"/>
<text text-anchor="start" x="759.06" y="-1199" font-family="Arial" font-size="14.00">colldate </text>
<text text-anchor="start" x="811.21" y="-1199" font-family="Arial" font-size="14.00" fill="#666666">[date]</text>
<polygon fill="none" stroke="black" points="752.06,-1156 752.06,-1186.8 1071.86,-1186.8 1071.86,-1156 752.06,-1156"/>
<text text-anchor="start" x="759.06" y="-1168.2" font-family="Arial" font-size="14.00">colldevice </text>
<text text-anchor="start" x="824.43" y="-1168.2" font-family="Arial" font-size="14.00" fill="#666666">[varchar(255)]</text>
<polygon fill="none" stroke="black" points="752.06,-1125.2 752.06,-1156 1071.86,-1156 1071.86,-1125.2 752.06,-1125.2"/>
<text text-anchor="start" x="759.06" y="-1137.4" font-family="Arial" font-size="14.00">collectionunitid </text>
<text text-anchor="start" x="854.79" y="-1137.4" font-family="Arial" font-size="14.00" fill="#666666">[integer]</text>
<polygon fill="none" stroke="black" points="752.06,-1094.4 752.06,-1125.2 1071.86,-1125.2 1071.86,-1094.4 752.06,-1094.4"/>
<text text-anchor="start" x="759.06" y="-1106.6" font-family="Arial" font-size="14.00">colltypeid </text>
<text text-anchor="start" x="821.32" y="-1106.6" font-family="Arial" font-size="14.00" fill="#666666">[integer]</text>
<polygon fill="none" stroke="black" points="752.06,-1063.6 752.06,-1094.4 1071.86,-1094.4 1071.86,-1063.6 752.06,-1063.6"/>
<text text-anchor="start" x="759.06" y="-1075.8" font-family="Arial" font-size="14.00">collunitname </text>
<text text-anchor="start" x="841.55" y="-1075.8" font-family="Arial" font-size="14.00" fill="#666666">[varchar(255)]</text>
<polygon fill="none" stroke="black" points="752.06,-1032.8 752.06,-1063.6 1071.86,-1063.6 1071.86,-1032.8 752.06,-1032.8"/>
<text text-anchor="start" x="759.06" y="-1045" font-family="Arial" font-size="14.00">depenvtid </text>
<text text-anchor="start" x="823.67" y="-1045" font-family="Arial" font-size="14.00" fill="#666666">[integer]</text>
<polygon fill="none" stroke="black" points="752.06,-1002 752.06,-1032.8 1071.86,-1032.8 1071.86,-1002 752.06,-1002"/>
<text text-anchor="start" x="759.06" y="-1014.2" font-family="Arial" font-size="14.00">gpsaltitude </text>
<text text-anchor="start" x="830.67" y="-1014.2" font-family="Arial" font-size="14.00" fill="#666666">[double precision]</text>
<polygon fill="none" stroke="black" points="752.06,-971.2 752.06,-1002 1071.86,-1002 1071.86,-971.2 752.06,-971.2"/>
<text text-anchor="start" x="759.06" y="-983.4" font-family="Arial" font-size="14.00">gpserror </text>
<text text-anchor="start" x="815.08" y="-983.4" font-family="Arial" font-size="14.00" fill="#666666">[double precision]</text>
<polygon fill="none" stroke="black" points="752.06,-940.4 752.06,-971.2 1071.86,-971.2 1071.86,-940.4 752.06,-940.4"/>
<text text-anchor="start" x="759.06" y="-952.6" font-family="Arial" font-size="14.00">gpslatitude </text>
<text text-anchor="start" x="830.67" y="-952.6" font-family="Arial" font-size="14.00" fill="#666666">[double precision]</text>
<polygon fill="none" stroke="black" points="752.06,-909.6 752.06,-940.4 1071.86,-940.4 1071.86,-909.6 752.06,-909.6"/>
<text text-anchor="start" x="759.06" y="-921.8" font-family="Arial" font-size="14.00">gpslongitude </text>
<text text-anchor="start" x="842.35" y="-921.8" font-family="Arial" font-size="14.00" fill="#666666">[double precision]</text>
<polygon fill="none" stroke="black" points="752.06,-878.8 752.06,-909.6 1071.86,-909.6 1071.86,-878.8 752.06,-878.8"/>
<text text-anchor="start" x="759.06" y="-891" font-family="Arial" font-size="14.00">handle </text>
<text text-anchor="start" x="804.99" y="-891" font-family="Arial" font-size="14.00" fill="#666666">[varchar(16)]</text>
<polygon fill="none" stroke="black" points="752.06,-848 752.06,-878.8 1071.86,-878.8 1071.86,-848 752.06,-848"/>
<text text-anchor="start" x="759.06" y="-860.2" font-family="Arial" font-size="14.00">location </text>
<text text-anchor="start" x="811.21" y="-860.2" font-family="Arial" font-size="14.00" fill="#666666">[varchar(255)]</text>
<polygon fill="none" stroke="black" points="752.06,-817.2 752.06,-848 1071.86,-848 1071.86,-817.2 752.06,-817.2"/>
<text text-anchor="start" x="759.06" y="-829.4" font-family="Arial" font-size="14.00">notes </text>
<text text-anchor="start" x="797.2" y="-829.4" font-family="Arial" font-size="14.00" fill="#666666">[text]</text>
<polygon fill="none" stroke="black" points="752.06,-786.4 752.06,-817.2 1071.86,-817.2 1071.86,-786.4 752.06,-786.4"/>
<text text-anchor="start" x="759.06" y="-798.6" font-family="Arial" font-size="14.00">recdatecreated </text>
<text text-anchor="start" x="856.34" y="-798.6" font-family="Arial" font-size="14.00" fill="#666666">[timestamp(0) without time zone]</text>
<polygon fill="none" stroke="black" points="752.06,-755.6 752.06,-786.4 1071.86,-786.4 1071.86,-755.6 752.06,-755.6"/>
<text text-anchor="start" x="759.06" y="-767.8" font-family="Arial" font-size="14.00">recdatemodified </text>
<text text-anchor="start" x="862.56" y="-767.8" font-family="Arial" font-size="14.00" fill="#666666">[timestamp(0) without time zone]</text>
<polygon fill="none" stroke="black" points="752.06,-724.8 752.06,-755.6 1071.86,-755.6 1071.86,-724.8 752.06,-724.8"/>
<text text-anchor="start" x="759.06" y="-737" font-family="Arial" font-size="14.00">siteid </text>
<text text-anchor="start" x="795.63" y="-737" font-family="Arial" font-size="14.00" fill="#666666">[integer]</text>
<polygon fill="none" stroke="black" points="752.06,-694 752.06,-724.8 1071.86,-724.8 1071.86,-694 752.06,-694"/>
<text text-anchor="start" x="759.06" y="-706.2" font-family="Arial" font-size="14.00">slopeangle </text>
<text text-anchor="start" x="830.67" y="-706.2" font-family="Arial" font-size="14.00" fill="#666666">[integer]</text>
<polygon fill="none" stroke="black" points="752.06,-663.2 752.06,-694 1071.86,-694 1071.86,-663.2 752.06,-663.2"/>
<text text-anchor="start" x="759.06" y="-675.4" font-family="Arial" font-size="14.00">slopeaspect </text>
<text text-anchor="start" x="837.67" y="-675.4" font-family="Arial" font-size="14.00" fill="#666666">[integer]</text>
<polygon fill="none" stroke="black" points="752.06,-632.4 752.06,-663.2 1071.86,-663.2 1071.86,-632.4 752.06,-632.4"/>
<text text-anchor="start" x="759.06" y="-644.6" font-family="Arial" font-size="14.00">substrateid </text>
<text text-anchor="start" x="831.43" y="-644.6" font-family="Arial" font-size="14.00" fill="#666666">[integer]</text>
<polygon fill="none" stroke="black" points="752.06,-601.6 752.06,-632.4 1071.86,-632.4 1071.86,-601.6 752.06,-601.6"/>
<text text-anchor="start" x="759.06" y="-613.8" font-family="Arial" font-size="14.00">waterdepth </text>
<text text-anchor="start" x="832.22" y="-613.8" font-family="Arial" font-size="14.00" fill="#666666">[double precision]</text>
</g>
<!-- ndb.collectionunits&#45;&gt;ndb.sites -->
<g id="edge3" class="edge">
<title>ndb.collectionunits:siteid&#45;&gt;ndb.sites:siteid</title>
<path fill="none" stroke="black" d="M1083.23,-739.55C1150.25,-730.44 1083.23,-627.44 1123.96,-558.4 1274.71,-302.84 1302.35,-89.4 1599.06,-89.4"/>
<polygon fill="black" stroke="black" points="1083.17,-739.55 1072.91,-735.69 1077.85,-739.89 1073.53,-740.16 1073.53,-740.16 1073.53,-740.16 1077.85,-739.89 1073.48,-744.67 1083.17,-739.55"/>
<text text-anchor="start" x="1079.86" y="-750.2" font-family="Arial" font-size="10.00">FOREIGN KEY (siteid) REFERENCES ndb.sites(siteid) ON UPDATE CASCADE ON DELETE CASCADE</text>
</g>
<!-- ndb.sitegeopolitical -->
<g id="node5" class="node">
<title>ndb.sitegeopolitical</title>
<polygon fill="#efefef" stroke="none" points="1176.06,-1002 1176.06,-1037.6 1495.86,-1037.6 1495.86,-1002 1176.06,-1002"/>
<polygon fill="none" stroke="black" points="1176.06,-1002 1176.06,-1037.6 1495.86,-1037.6 1495.86,-1002 1176.06,-1002"/>
<text text-anchor="start" x="1202.98" y="-1015.4" font-family="Arial Bold" font-size="18.00">ndb.sitegeopolitical</text>
<text text-anchor="start" x="1344.45" y="-1015.4" font-family="Arial" font-size="14.00">    </text>
<text text-anchor="start" x="1375.57" y="-1015.4" font-family="Arial" font-size="14.00" fill="#666666">[BASE TABLE]</text>
<polygon fill="none" stroke="black" points="1176.06,-971.2 1176.06,-1002 1495.86,-1002 1495.86,-971.2 1176.06,-971.2"/>
<text text-anchor="start" x="1183.06" y="-983.4" font-family="Arial" font-size="14.00">geopoliticalid </text>
<text text-anchor="start" x="1267.9" y="-983.4" font-family="Arial" font-size="14.00" fill="#666666">[integer]</text>
<polygon fill="none" stroke="black" points="1176.06,-940.4 1176.06,-971.2 1495.86,-971.2 1495.86,-940.4 1176.06,-940.4"/>
<text text-anchor="start" x="1183.06" y="-952.6" font-family="Arial" font-size="14.00">objectid </text>
<text text-anchor="start" x="1235.21" y="-952.6" font-family="Arial" font-size="14.00" fill="#666666">[integer]</text>
<polygon fill="none" stroke="black" points="1176.06,-909.6 1176.06,-940.4 1495.86,-940.4 1495.86,-909.6 1176.06,-909.6"/>
<text text-anchor="start" x="1183.06" y="-921.8" font-family="Arial" font-size="14.00">recdatecreated </text>
<text text-anchor="start" x="1280.34" y="-921.8" font-family="Arial" font-size="14.00" fill="#666666">[timestamp(0) without time zone]</text>
<polygon fill="none" stroke="black" points="1176.06,-878.8 1176.06,-909.6 1495.86,-909.6 1495.86,-878.8 1176.06,-878.8"/>
<text text-anchor="start" x="1183.06" y="-891" font-family="Arial" font-size="14.00">recdatemodified </text>
<text text-anchor="start" x="1286.56" y="-891" font-family="Arial" font-size="14.00" fill="#666666">[timestamp(0) without time zone]</text>
<polygon fill="none" stroke="black" points="1176.06,-848 1176.06,-878.8 1495.86,-878.8 1495.86,-848 1176.06,-848"/>
<text text-anchor="start" x="1183.06" y="-860.2" font-family="Arial" font-size="14.00">sitegeopoliticalid </text>
<text text-anchor="start" x="1289.68" y="-860.2" font-family="Arial" font-size="14.00" fill="#666666">[integer]</text>
<polygon fill="none" stroke="black" points="1176.06,-817.2 1176.06,-848 1495.86,-848 1495.86,-817.2 1176.06,-817.2"/>
<text text-anchor="start" x="1183.06" y="-829.4" font-family="Arial" font-size="14.00">siteid </text>
<text text-anchor="start" x="1219.63" y="-829.4" font-family="Arial" font-size="14.00" fill="#666666">[integer]</text>
</g>
<!-- ndb.sitegeopolitical&#45;&gt;ndb.sites -->
<g id="edge4" class="edge">
<title>ndb.sitegeopolitical:siteid&#45;&gt;ndb.sites:siteid</title>
<path fill="none" stroke="black" d="M1506.39,-828.95C1575.17,-772.88 1519.13,-89.4 1599.06,-89.4"/>
<polygon fill="black" stroke="black" points="1506.51,-828.91 1495.56,-828.28 1501.53,-830.81 1497.49,-832.36 1497.49,-832.36 1497.49,-832.36 1501.53,-830.81 1498.78,-836.68 1506.51,-828.91"/>
<text text-anchor="start" x="1503.86" y="-842.6" font-family="Arial" font-size="10.00">FOREIGN KEY (siteid) REFERENCES ndb.sites(siteid) ON UPDATE CASCADE ON DELETE CASCADE</text>
</g>
<!-- ndb.siteimages -->
<g id="node6" class="node">
<title>ndb.siteimages</title>
<polygon fill="#efefef" stroke="none" points="1600.06,-1048.2 1600.06,-1083.8 1919.86,-1083.8 1919.86,-1048.2 1600.06,-1048.2"/>
<polygon fill="none" stroke="black" points="1600.06,-1048.2 1600.06,-1083.8 1919.86,-1083.8 1919.86,-1048.2 1600.06,-1048.2"/>
<text text-anchor="start" x="1643.98" y="-1061.6" font-family="Arial Bold" font-size="18.00">ndb.siteimages</text>
<text text-anchor="start" x="1751.46" y="-1061.6" font-family="Arial" font-size="14.00">    </text>
<text text-anchor="start" x="1782.57" y="-1061.6" font-family="Arial" font-size="14.00" fill="#666666">[BASE TABLE]</text>
<polygon fill="none" stroke="black" points="1600.06,-1017.4 1600.06,-1048.2 1919.86,-1048.2 1919.86,-1017.4 1600.06,-1017.4"/>
<text text-anchor="start" x="1607.06" y="-1029.6" font-family="Arial" font-size="14.00">caption </text>
<text text-anchor="start" x="1656.1" y="-1029.6" font-family="Arial" font-size="14.00" fill="#666666">[text]</text>
<polygon fill="none" stroke="black" points="1600.06,-986.6 1600.06,-1017.4 1919.86,-1017.4 1919.86,-986.6 1600.06,-986.6"/>
<text text-anchor="start" x="1607.06" y="-998.8" font-family="Arial" font-size="14.00">contactid </text>
<text text-anchor="start" x="1666.99" y="-998.8" font-family="Arial" font-size="14.00" fill="#666666">[integer]</text>
<polygon fill="none" stroke="black" points="1600.06,-955.8 1600.06,-986.6 1919.86,-986.6 1919.86,-955.8 1600.06,-955.8"/>
<text text-anchor="start" x="1607.06" y="-968" font-family="Arial" font-size="14.00">credit </text>
<text text-anchor="start" x="1645.19" y="-968" font-family="Arial" font-size="14.00" fill="#666666">[varchar(255)]</text>
<polygon fill="none" stroke="black" points="1600.06,-925 1600.06,-955.8 1919.86,-955.8 1919.86,-925 1600.06,-925"/>
<text text-anchor="start" x="1607.06" y="-937.2" font-family="Arial" font-size="14.00">date </text>
<text text-anchor="start" x="1638.2" y="-937.2" font-family="Arial" font-size="14.00" fill="#666666">[date]</text>
<polygon fill="none" stroke="black" points="1600.06,-894.2 1600.06,-925 1919.86,-925 1919.86,-894.2 1600.06,-894.2"/>
<text text-anchor="start" x="1607.06" y="-906.4" font-family="Arial" font-size="14.00">recdatecreated </text>
<text text-anchor="start" x="1704.34" y="-906.4" font-family="Arial" font-size="14.00" fill="#666666">[timestamp(0) without time zone]</text>
<polygon fill="none" stroke="black" points="1600.06,-863.4 1600.06,-894.2 1919.86,-894.2 1919.86,-863.4 1600.06,-863.4"/>
<text text-anchor="start" x="1607.06" y="-875.6" font-family="Arial" font-size="14.00">recdatemodified </text>
<text text-anchor="start" x="1710.56" y="-875.6" font-family="Arial" font-size="14.00" fill="#666666">[timestamp(0) without time zone]</text>
<polygon fill="none" stroke="black" points="1600.06,-832.6 1600.06,-863.4 1919.86,-863.4 1919.86,-832.6 1600.06,-832.6"/>
<text text-anchor="start" x="1607.06" y="-844.8" font-family="Arial" font-size="14.00">siteid </text>
<text text-anchor="start" x="1643.63" y="-844.8" font-family="Arial" font-size="14.00" fill="#666666">[integer]</text>
<polygon fill="none" stroke="black" points="1600.06,-801.8 1600.06,-832.6 1919.86,-832.6 1919.86,-801.8 1600.06,-801.8"/>
<text text-anchor="start" x="1607.06" y="-814" font-family="Arial" font-size="14.00">siteimage </text>
<text text-anchor="start" x="1670.87" y="-814" font-family="Arial" font-size="14.00" fill="#666666">[text]</text>
<polygon fill="none" stroke="black" points="1600.06,-771 1600.06,-801.8 1919.86,-801.8 1919.86,-771 1600.06,-771"/>
<text text-anchor="start" x="1607.06" y="-783.2" font-family="Arial" font-size="14.00">siteimageid </text>
<text text-anchor="start" x="1681.76" y="-783.2" font-family="Arial" font-size="14.00" fill="#666666">[integer]</text>
</g>
<!-- ndb.siteimages&#45;&gt;ndb.sites -->
<g id="edge5" class="edge">
<title>ndb.siteimages:siteid&#45;&gt;ndb.sites:siteid</title>
<path fill="none" stroke="black" d="M1927.83,-840.49C1962.86,-761.71 1960.54,-89.4 1920.86,-89.4"/>
<polygon fill="black" stroke="black" points="1927.89,-840.43 1917.79,-844.69 1924.26,-844.34 1921.32,-847.51 1921.32,-847.51 1921.32,-847.51 1924.26,-844.34 1924.39,-850.82 1927.89,-840.43"/>
<text text-anchor="start" x="1927.86" y="-858" font-family="Arial" font-size="10.00">FOREIGN KEY (siteid) REFERENCES ndb.sites(siteid) ON UPDATE CASCADE ON DELETE CASCADE</text>
</g>
<!-- ndb.sitelandusecover -->
<g id="node7" class="node">
<title>ndb.sitelandusecover</title>
<polygon fill="#efefef" stroke="none" points="2023.99,-971.2 2023.99,-1006.8 2313.93,-1006.8 2313.93,-971.2 2023.99,-971.2"/>
<polygon fill="none" stroke="black" points="2023.99,-971.2 2023.99,-1006.8 2313.93,-1006.8 2313.93,-971.2 2023.99,-971.2"/>
<text text-anchor="start" x="2030.99" y="-984.6" font-family="Arial Bold" font-size="18.00">ndb.sitelandusecover</text>
<text text-anchor="start" x="2182.44" y="-984.6" font-family="Arial" font-size="14.00">    </text>
<text text-anchor="start" x="2213.56" y="-984.6" font-family="Arial" font-size="14.00" fill="#666666">[BASE TABLE]</text>
<polygon fill="none" stroke="black" points="2023.99,-940.4 2023.99,-971.2 2313.93,-971.2 2313.93,-940.4 2023.99,-940.4"/>
<text text-anchor="start" x="2030.99" y="-952.6" font-family="Arial" font-size="14.00">landusecovernotes </text>
<text text-anchor="start" x="2152.4" y="-952.6" font-family="Arial" font-size="14.00" fill="#666666">[text]</text>
<polygon fill="none" stroke="black" points="2023.99,-909.6 2023.99,-940.4 2313.93,-940.4 2313.93,-909.6 2023.99,-909.6"/>
<text text-anchor="start" x="2030.99" y="-921.8" font-family="Arial" font-size="14.00">landusecoverpercent </text>
<text text-anchor="start" x="2164.85" y="-921.8" font-family="Arial" font-size="14.00" fill="#666666">[integer]</text>
<polygon fill="none" stroke="black" points="2023.99,-878.8 2023.99,-909.6 2313.93,-909.6 2313.93,-878.8 2023.99,-878.8"/>
<text text-anchor="start" x="2030.99" y="-891" font-family="Arial" font-size="14.00">landusecovertypeid </text>
<text text-anchor="start" x="2155.51" y="-891" font-family="Arial" font-size="14.00" fill="#666666">[integer]</text>
<polygon fill="none" stroke="black" points="2023.99,-848 2023.99,-878.8 2313.93,-878.8 2313.93,-848 2023.99,-848"/>
<text text-anchor="start" x="2030.99" y="-860.2" font-family="Arial" font-size="14.00">siteid </text>
<text text-anchor="start" x="2067.56" y="-860.2" font-family="Arial" font-size="14.00" fill="#666666">[integer]</text>
</g>
<!-- ndb.sitelandusecover&#45;&gt;ndb.sites -->
<g id="edge6" class="edge">
<title>ndb.sitelandusecover:siteid&#45;&gt;ndb.sites:siteid</title>
<path fill="none" stroke="black" d="M2013.53,-859.95C1941.58,-804.11 2004.22,-89.4 1920.86,-89.4"/>
<polygon fill="black" stroke="black" points="2013.28,-859.86 2021.13,-867.51 2018.29,-861.69 2022.36,-863.17 2022.36,-863.17 2022.36,-863.17 2018.29,-861.69 2024.22,-859.06 2013.28,-859.86"/>
<text text-anchor="start" x="2029.99" y="-873.4" font-family="Arial" font-size="10.00">FOREIGN KEY (siteid) REFERENCES ndb.sites(siteid) ON DELETE CASCADE</text>
</g>
<!-- ndb.sitevegetationcover -->
<g id="node8" class="node">
<title>ndb.sitevegetationcover</title>
<polygon fill="#efefef" stroke="none" points="2418,-971.2 2418,-1006.8 2727.93,-1006.8 2727.93,-971.2 2418,-971.2"/>
<polygon fill="none" stroke="black" points="2418,-971.2 2418,-1006.8 2727.93,-1006.8 2727.93,-971.2 2418,-971.2"/>
<text text-anchor="start" x="2425" y="-984.6" font-family="Arial Bold" font-size="18.00">ndb.sitevegetationcover</text>
<text text-anchor="start" x="2596.44" y="-984.6" font-family="Arial" font-size="14.00">    </text>
<text text-anchor="start" x="2627.55" y="-984.6" font-family="Arial" font-size="14.00" fill="#666666">[BASE TABLE]</text>
<polygon fill="none" stroke="black" points="2418,-940.4 2418,-971.2 2727.93,-971.2 2727.93,-940.4 2418,-940.4"/>
<text text-anchor="start" x="2425" y="-952.6" font-family="Arial" font-size="14.00">siteid </text>
<text text-anchor="start" x="2461.57" y="-952.6" font-family="Arial" font-size="14.00" fill="#666666">[integer]</text>
<polygon fill="none" stroke="black" points="2418,-909.6 2418,-940.4 2727.93,-940.4 2727.93,-909.6 2418,-909.6"/>
<text text-anchor="start" x="2425" y="-921.8" font-family="Arial" font-size="14.00">vegetationcovernotes </text>
<text text-anchor="start" x="2561.98" y="-921.8" font-family="Arial" font-size="14.00" fill="#666666">[text]</text>
<polygon fill="none" stroke="black" points="2418,-878.8 2418,-909.6 2727.93,-909.6 2727.93,-878.8 2418,-878.8"/>
<text text-anchor="start" x="2425" y="-891" font-family="Arial" font-size="14.00">vegetationcoverpercent </text>
<text text-anchor="start" x="2574.42" y="-891" font-family="Arial" font-size="14.00" fill="#666666">[integer]</text>
<polygon fill="none" stroke="black" points="2418,-848 2418,-878.8 2727.93,-878.8 2727.93,-848 2418,-848"/>
<text text-anchor="start" x="2425" y="-860.2" font-family="Arial" font-size="14.00">vegetationcovertypeid </text>
<text text-anchor="start" x="2565.09" y="-860.2" font-family="Arial" font-size="14.00" fill="#666666">[integer]</text>
</g>
<!-- ndb.sitevegetationcover&#45;&gt;ndb.sites -->
<g id="edge7" class="edge">
<title>ndb.sitevegetationcover:siteid&#45;&gt;ndb.sites:siteid</title>
<path fill="none" stroke="black" d="M2406.86,-954.24C2334.02,-930.2 2402.6,-635.52 2365.96,-558.4 2242.65,-298.83 2208.23,-89.4 1920.86,-89.4"/>
<polygon fill="black" stroke="black" points="2406.78,-954.23 2415.98,-960.2 2412.05,-955.04 2416.34,-955.7 2416.34,-955.7 2416.34,-955.7 2412.05,-955.04 2417.35,-951.3 2406.78,-954.23"/>
<text text-anchor="start" x="2054.36" y="-965.8" font-family="Arial" font-size="10.00">FOREIGN KEY (siteid) REFERENCES ndb.sites(siteid) ON DELETE CASCADE</text>
</g>
<!-- ndb.speleothems -->
<g id="node9" class="node">
<title>ndb.speleothems</title>
<polygon fill="#efefef" stroke="none" points="2832.48,-1032.8 2832.48,-1068.4 3091.45,-1068.4 3091.45,-1032.8 2832.48,-1032.8"/>
<polygon fill="none" stroke="black" points="2832.48,-1032.8 2832.48,-1068.4 3091.45,-1068.4 3091.45,-1032.8 2832.48,-1032.8"/>
<text text-anchor="start" x="2839.48" y="-1046.2" font-family="Arial Bold" font-size="18.00">ndb.speleothems</text>
<text text-anchor="start" x="2959.96" y="-1046.2" font-family="Arial" font-size="14.00">    </text>
<text text-anchor="start" x="2991.07" y="-1046.2" font-family="Arial" font-size="14.00" fill="#666666">[BASE TABLE]</text>
<polygon fill="none" stroke="black" points="2832.48,-1002 2832.48,-1032.8 3091.45,-1032.8 3091.45,-1002 2832.48,-1002"/>
<text text-anchor="start" x="2839.48" y="-1014.2" font-family="Arial" font-size="14.00">entityid </text>
<text text-anchor="start" x="2887.72" y="-1014.2" font-family="Arial" font-size="14.00" fill="#666666">[integer]</text>
<polygon fill="none" stroke="black" points="2832.48,-971.2 2832.48,-1002 3091.45,-1002 3091.45,-971.2 2832.48,-971.2"/>
<text text-anchor="start" x="2839.48" y="-983.4" font-family="Arial" font-size="14.00">entityname </text>
<text text-anchor="start" x="2911.85" y="-983.4" font-family="Arial" font-size="14.00" fill="#666666">[text]</text>
<polygon fill="none" stroke="black" points="2832.48,-940.4 2832.48,-971.2 3091.45,-971.2 3091.45,-940.4 2832.48,-940.4"/>
<text text-anchor="start" x="2839.48" y="-952.6" font-family="Arial" font-size="14.00">entrancedistance </text>
<text text-anchor="start" x="2949.99" y="-952.6" font-family="Arial" font-size="14.00" fill="#666666">[real]</text>
<polygon fill="none" stroke="black" points="2832.48,-909.6 2832.48,-940.4 3091.45,-940.4 3091.45,-909.6 2832.48,-909.6"/>
<text text-anchor="start" x="2839.48" y="-921.8" font-family="Arial" font-size="14.00">entrancedistanceunits </text>
<text text-anchor="start" x="2979.56" y="-921.8" font-family="Arial" font-size="14.00" fill="#666666">[integer]</text>
<polygon fill="none" stroke="black" points="2832.48,-878.8 2832.48,-909.6 3091.45,-909.6 3091.45,-878.8 2832.48,-878.8"/>
<text text-anchor="start" x="2839.48" y="-891" font-family="Arial" font-size="14.00">monitoring </text>
<text text-anchor="start" x="2908.73" y="-891" font-family="Arial" font-size="14.00" fill="#666666">[boolean]</text>
<polygon fill="none" stroke="black" points="2832.48,-848 2832.48,-878.8 3091.45,-878.8 3091.45,-848 2832.48,-848"/>
<text text-anchor="start" x="2839.48" y="-860.2" font-family="Arial" font-size="14.00">rockageid </text>
<text text-anchor="start" x="2904.07" y="-860.2" font-family="Arial" font-size="14.00" fill="#666666">[integer]</text>
<polygon fill="none" stroke="black" points="2832.48,-817.2 2832.48,-848 3091.45,-848 3091.45,-817.2 2832.48,-817.2"/>
<text text-anchor="start" x="2839.48" y="-829.4" font-family="Arial" font-size="14.00">siteid </text>
<text text-anchor="start" x="2876.05" y="-829.4" font-family="Arial" font-size="14.00" fill="#666666">[integer]</text>
<polygon fill="none" stroke="black" points="2832.48,-786.4 2832.48,-817.2 3091.45,-817.2 3091.45,-786.4 2832.48,-786.4"/>
<text text-anchor="start" x="2839.48" y="-798.6" font-family="Arial" font-size="14.00">speleothemtypeid </text>
<text text-anchor="start" x="2953.1" y="-798.6" font-family="Arial" font-size="14.00" fill="#666666">[integer]</text>
</g>
<!-- ndb.speleothems&#45;&gt;ndb.sites -->
<g id="edge8" class="edge">
<title>ndb.speleothems:siteid&#45;&gt;ndb.sites:siteid</title>
<path fill="none" stroke="black" d="M2821.37,-830.22C2774.85,-806.11 2814.2,-605.52 2779.96,-558.4 2524.24,-206.49 2355.87,-89.4 1920.86,-89.4"/>
<polygon fill="black" stroke="black" points="2821.42,-830.24 2830.12,-836.9 2826.61,-831.46 2830.82,-832.45 2830.82,-832.45 2830.82,-832.45 2826.61,-831.46 2832.18,-828.14 2821.42,-830.24"/>
<text text-anchor="start" x="2838.48" y="-842.6" font-family="Arial" font-size="10.00">FOREIGN KEY (siteid) REFERENCES ndb.sites(siteid) ON DELETE CASCADE</text>
</g>
</g>
</svg>
