<?xml version="1.0" encoding="UTF-8" standalone="no"?>
<!DOCTYPE svg PUBLIC "-//W3C//DTD SVG 1.1//EN"
 "http://www.w3.org/Graphics/SVG/1.1/DTD/svg11.dtd">
<!-- Generated by graphviz version 12.1.2 (20240928.0832)
 -->
<!-- Title: ndb.chroncontrolaccuracydistributions Pages: 1 -->
<svg width="2383pt" height="966pt"
 viewBox="0.00 0.00 2382.82 965.60" xmlns="http://www.w3.org/2000/svg" xmlns:xlink="http://www.w3.org/1999/xlink">
<g id="graph0" class="graph" transform="scale(1 1) rotate(0) translate(4 961.6)">
<title>ndb.chroncontrolaccuracydistributions</title>
<polygon fill="white" stroke="none" points="-4,4 -4,-961.6 2378.82,-961.6 2378.82,4 -4,4"/>
<!-- ndb.chroncontrolaccuracydistributions -->
<g id="node1" class="node">
<title>ndb.chroncontrolaccuracydistributions</title>
<polygon fill="#efefef" stroke="none" points="46.2,-305 46.2,-340.6 462.11,-340.6 462.11,-305 46.2,-305"/>
<polygon fill="none" stroke="black" points="46.2,-305 46.2,-340.6 462.11,-340.6 462.11,-305 46.2,-305"/>
<text text-anchor="start" x="53.2" y="-318.4" font-family="Arial Bold" font-size="18.00">ndb.chroncontrolaccuracydistributions</text>
<text text-anchor="start" x="330.62" y="-318.4" font-family="Arial" font-size="14.00">    </text>
<text text-anchor="start" x="361.74" y="-318.4" font-family="Arial" font-size="14.00" fill="#666666">[BASE TABLE]</text>
<polygon fill="none" stroke="black" points="46.2,-274.2 46.2,-305 462.11,-305 462.11,-274.2 46.2,-274.2"/>
<text text-anchor="start" x="53.2" y="-286.4" font-family="Arial" font-size="14.00">accuracydistribution </text>
<text text-anchor="start" x="180.81" y="-286.4" font-family="Arial" font-size="14.00" fill="#666666">[varchar(40)]</text>
<polygon fill="none" stroke="black" points="46.2,-243.4 46.2,-274.2 462.11,-274.2 462.11,-243.4 46.2,-243.4"/>
<text text-anchor="start" x="53.2" y="-255.6" font-family="Arial" font-size="14.00">accuracydistributionid </text>
<text text-anchor="start" x="191.71" y="-255.6" font-family="Arial" font-size="14.00" fill="#666666">[integer]</text>
<polygon fill="none" stroke="black" points="46.2,-212.6 46.2,-243.4 462.11,-243.4 462.11,-212.6 46.2,-212.6"/>
<text text-anchor="start" x="53.2" y="-224.8" font-family="Arial" font-size="14.00">recdatecreated </text>
<text text-anchor="start" x="150.48" y="-224.8" font-family="Arial" font-size="14.00" fill="#666666">[timestamp(0) without time zone]</text>
<polygon fill="none" stroke="black" points="46.2,-181.8 46.2,-212.6 462.11,-212.6 462.11,-181.8 46.2,-181.8"/>
<text text-anchor="start" x="53.2" y="-194" font-family="Arial" font-size="14.00">recdatemodified </text>
<text text-anchor="start" x="156.7" y="-194" font-family="Arial" font-size="14.00" fill="#666666">[timestamp(0) without time zone]</text>
<polygon fill="none" stroke="black" stroke-width="3" points="44.7,-180.3 44.7,-342.1 463.61,-342.1 463.61,-180.3 44.7,-180.3"/>
</g>
<!-- ndb.chroncontrolranks -->
<g id="node2" class="node">
<title>ndb.chroncontrolranks</title>
<polygon fill="#efefef" stroke="none" points="1093.25,-878.8 1093.25,-914.4 1413.05,-914.4 1413.05,-878.8 1093.25,-878.8"/>
<polygon fill="none" stroke="black" points="1093.25,-878.8 1093.25,-914.4 1413.05,-914.4 1413.05,-878.8 1093.25,-878.8"/>
<text text-anchor="start" x="1109.68" y="-892.2" font-family="Arial Bold" font-size="18.00">ndb.chroncontrolranks</text>
<text text-anchor="start" x="1272.14" y="-892.2" font-family="Arial" font-size="14.00">    </text>
<text text-anchor="start" x="1303.25" y="-892.2" font-family="Arial" font-size="14.00" fill="#666666">[BASE TABLE]</text>
<polygon fill="none" stroke="black" points="1093.25,-848 1093.25,-878.8 1413.05,-878.8 1413.05,-848 1093.25,-848"/>
<text text-anchor="start" x="1100.25" y="-860.2" font-family="Arial" font-size="14.00">accuracydirectionid </text>
<text text-anchor="start" x="1223.98" y="-860.2" font-family="Arial" font-size="14.00" fill="#666666">[integer]</text>
<polygon fill="none" stroke="black" points="1093.25,-817.2 1093.25,-848 1413.05,-848 1413.05,-817.2 1093.25,-817.2"/>
<text text-anchor="start" x="1100.25" y="-829.4" font-family="Arial" font-size="14.00">accuracydistributionid </text>
<text text-anchor="start" x="1238.76" y="-829.4" font-family="Arial" font-size="14.00" fill="#666666">[integer]</text>
<polygon fill="none" stroke="black" points="1093.25,-786.4 1093.25,-817.2 1413.05,-817.2 1413.05,-786.4 1093.25,-786.4"/>
<text text-anchor="start" x="1100.25" y="-798.6" font-family="Arial" font-size="14.00">accuracyrankid </text>
<text text-anchor="start" x="1198.3" y="-798.6" font-family="Arial" font-size="14.00" fill="#666666">[integer]</text>
<polygon fill="none" stroke="black" points="1093.25,-755.6 1093.25,-786.4 1413.05,-786.4 1413.05,-755.6 1093.25,-755.6"/>
<text text-anchor="start" x="1100.25" y="-767.8" font-family="Arial" font-size="14.00">chroncontrolid </text>
<text text-anchor="start" x="1192.08" y="-767.8" font-family="Arial" font-size="14.00" fill="#666666">[integer]</text>
<polygon fill="none" stroke="black" points="1093.25,-724.8 1093.25,-755.6 1413.05,-755.6 1413.05,-724.8 1093.25,-724.8"/>
<text text-anchor="start" x="1100.25" y="-737" font-family="Arial" font-size="14.00">chroncontrolrankid </text>
<text text-anchor="start" x="1219.32" y="-737" font-family="Arial" font-size="14.00" fill="#666666">[integer]</text>
<polygon fill="none" stroke="black" points="1093.25,-694 1093.25,-724.8 1413.05,-724.8 1413.05,-694 1093.25,-694"/>
<text text-anchor="start" x="1100.25" y="-706.2" font-family="Arial" font-size="14.00">outlier </text>
<text text-anchor="start" x="1142.27" y="-706.2" font-family="Arial" font-size="14.00" fill="#666666">[boolean]</text>
<polygon fill="none" stroke="black" points="1093.25,-663.2 1093.25,-694 1413.05,-694 1413.05,-663.2 1093.25,-663.2"/>
<text text-anchor="start" x="1100.25" y="-675.4" font-family="Arial" font-size="14.00">precisionrankid </text>
<text text-anchor="start" x="1198.3" y="-675.4" font-family="Arial" font-size="14.00" fill="#666666">[integer]</text>
<polygon fill="none" stroke="black" points="1093.25,-632.4 1093.25,-663.2 1413.05,-663.2 1413.05,-632.4 1093.25,-632.4"/>
<text text-anchor="start" x="1100.25" y="-644.6" font-family="Arial" font-size="14.00">recdatecreated </text>
<text text-anchor="start" x="1197.54" y="-644.6" font-family="Arial" font-size="14.00" fill="#666666">[timestamp(0) without time zone]</text>
<polygon fill="none" stroke="black" points="1093.25,-601.6 1093.25,-632.4 1413.05,-632.4 1413.05,-601.6 1093.25,-601.6"/>
<text text-anchor="start" x="1100.25" y="-613.8" font-family="Arial" font-size="14.00">recdatemodified </text>
<text text-anchor="start" x="1203.76" y="-613.8" font-family="Arial" font-size="14.00" fill="#666666">[timestamp(0) without time zone]</text>
</g>
<!-- ndb.chroncontrolranks&#45;&gt;ndb.chroncontrolaccuracydistributions -->
<g id="edge1" class="edge">
<title>ndb.chroncontrolranks:accuracydistributionid&#45;&gt;ndb.chroncontrolaccuracydistributions:accuracydistributionid</title>
<path fill="none" stroke="black" d="M1082.12,-832.57C799.22,-830.77 688.37,-752.75 517.15,-522.4 445.81,-426.42 582.7,-258.8 463.11,-258.8"/>
<polygon fill="black" stroke="black" points="1081.92,-832.57 1091.91,-837.1 1087.25,-832.58 1091.59,-832.6 1091.59,-832.6 1091.59,-832.6 1087.25,-832.58 1091.93,-828.1 1081.92,-832.57"/>
<text text-anchor="start" x="343.91" y="-842.6" font-family="Arial" font-size="10.00">FOREIGN KEY (accuracydistributionid) REFERENCES ndb.chroncontrolaccuracydistributions(accuracydistributionid) ON UPDATE CASCADE ON DELETE CASCADE</text>
</g>
<!-- ndb.chroncontrolaccuracydirections -->
<g id="node3" class="node">
<title>ndb.chroncontrolaccuracydirections</title>
<polygon fill="#efefef" stroke="none" points="569.71,-305 569.71,-340.6 966.59,-340.6 966.59,-305 569.71,-305"/>
<polygon fill="none" stroke="black" points="569.71,-305 569.71,-340.6 966.59,-340.6 966.59,-305 569.71,-305"/>
<text text-anchor="start" x="576.71" y="-318.4" font-family="Arial Bold" font-size="18.00">ndb.chroncontrolaccuracydirections</text>
<text text-anchor="start" x="835.1" y="-318.4" font-family="Arial" font-size="14.00">    </text>
<text text-anchor="start" x="866.22" y="-318.4" font-family="Arial" font-size="14.00" fill="#666666">[BASE TABLE]</text>
<polygon fill="none" stroke="black" points="569.71,-274.2 569.71,-305 966.59,-305 966.59,-274.2 569.71,-274.2"/>
<text text-anchor="start" x="576.71" y="-286.4" font-family="Arial" font-size="14.00">accuracydirection </text>
<text text-anchor="start" x="689.54" y="-286.4" font-family="Arial" font-size="14.00" fill="#666666">[varchar(80)]</text>
<polygon fill="none" stroke="black" points="569.71,-243.4 569.71,-274.2 966.59,-274.2 966.59,-243.4 569.71,-243.4"/>
<text text-anchor="start" x="576.71" y="-255.6" font-family="Arial" font-size="14.00">accuracydirectionid </text>
<text text-anchor="start" x="700.44" y="-255.6" font-family="Arial" font-size="14.00" fill="#666666">[integer]</text>
<polygon fill="none" stroke="black" points="569.71,-212.6 569.71,-243.4 966.59,-243.4 966.59,-212.6 569.71,-212.6"/>
<text text-anchor="start" x="576.71" y="-224.8" font-family="Arial" font-size="14.00">recdatecreated </text>
<text text-anchor="start" x="674" y="-224.8" font-family="Arial" font-size="14.00" fill="#666666">[timestamp(0) without time zone]</text>
<polygon fill="none" stroke="black" points="569.71,-181.8 569.71,-212.6 966.59,-212.6 966.59,-181.8 569.71,-181.8"/>
<text text-anchor="start" x="576.71" y="-194" font-family="Arial" font-size="14.00">recdatemodified </text>
<text text-anchor="start" x="680.22" y="-194" font-family="Arial" font-size="14.00" fill="#666666">[timestamp(0) without time zone]</text>
</g>
<!-- ndb.chroncontrolranks&#45;&gt;ndb.chroncontrolaccuracydirections -->
<g id="edge2" class="edge">
<title>ndb.chroncontrolranks:accuracydirectionid&#45;&gt;ndb.chroncontrolaccuracydirections:accuracydirectionid</title>
<path fill="none" stroke="black" d="M1082.2,-863.12C942.12,-854.93 1048.53,-670.93 1018.15,-522.4 1006.2,-463.96 1027.24,-258.8 967.59,-258.8"/>
<polygon fill="black" stroke="black" points="1081.92,-863.11 1091.79,-867.89 1087.26,-863.26 1091.59,-863.38 1091.59,-863.38 1091.59,-863.38 1087.26,-863.26 1092.05,-858.89 1081.92,-863.11"/>
<text text-anchor="start" x="375.59" y="-873.4" font-family="Arial" font-size="10.00">FOREIGN KEY (accuracydirectionid) REFERENCES ndb.chroncontrolaccuracydirections(accuracydirectionid) ON UPDATE CASCADE ON DELETE CASCADE</text>
</g>
<!-- ndb.chroncontrolaccuracyranks -->
<g id="node4" class="node">
<title>ndb.chroncontrolaccuracyranks</title>
<polygon fill="#efefef" stroke="none" points="1070.71,-305 1070.71,-340.6 1435.6,-340.6 1435.6,-305 1070.71,-305"/>
<polygon fill="none" stroke="black" points="1070.71,-305 1070.71,-340.6 1435.6,-340.6 1435.6,-305 1070.71,-305"/>
<text text-anchor="start" x="1077.71" y="-318.4" font-family="Arial Bold" font-size="18.00">ndb.chroncontrolaccuracyranks</text>
<text text-anchor="start" x="1304.11" y="-318.4" font-family="Arial" font-size="14.00">    </text>
<text text-anchor="start" x="1335.22" y="-318.4" font-family="Arial" font-size="14.00" fill="#666666">[BASE TABLE]</text>
<polygon fill="none" stroke="black" points="1070.71,-274.2 1070.71,-305 1435.6,-305 1435.6,-274.2 1070.71,-274.2"/>
<text text-anchor="start" x="1077.71" y="-286.4" font-family="Arial" font-size="14.00">accuracyrank </text>
<text text-anchor="start" x="1164.85" y="-286.4" font-family="Arial" font-size="14.00" fill="#666666">[varchar(255)]</text>
<polygon fill="none" stroke="black" points="1070.71,-243.4 1070.71,-274.2 1435.6,-274.2 1435.6,-243.4 1070.71,-243.4"/>
<text text-anchor="start" x="1077.71" y="-255.6" font-family="Arial" font-size="14.00">accuracyrankid </text>
<text text-anchor="start" x="1175.75" y="-255.6" font-family="Arial" font-size="14.00" fill="#666666">[integer]</text>
<polygon fill="none" stroke="black" points="1070.71,-212.6 1070.71,-243.4 1435.6,-243.4 1435.6,-212.6 1070.71,-212.6"/>
<text text-anchor="start" x="1077.71" y="-224.8" font-family="Arial" font-size="14.00">recdatecreated </text>
<text text-anchor="start" x="1174.99" y="-224.8" font-family="Arial" font-size="14.00" fill="#666666">[timestamp(0) without time zone]</text>
<polygon fill="none" stroke="black" points="1070.71,-181.8 1070.71,-212.6 1435.6,-212.6 1435.6,-181.8 1070.71,-181.8"/>
<text text-anchor="start" x="1077.71" y="-194" font-family="Arial" font-size="14.00">recdatemodified </text>
<text text-anchor="start" x="1181.21" y="-194" font-family="Arial" font-size="14.00" fill="#666666">[timestamp(0) without time zone]</text>
</g>
<!-- ndb.chroncontrolranks&#45;&gt;ndb.chroncontrolaccuracyranks -->
<g id="edge3" class="edge">
<title>ndb.chroncontrolranks:accuracyrankid&#45;&gt;ndb.chroncontrolaccuracyranks:accuracyrankid</title>
<path fill="none" stroke="black" d="M1423.28,-797.43C1476.59,-746.04 1493.8,-258.8 1436.6,-258.8"/>
<polygon fill="black" stroke="black" points="1423.39,-797.38 1412.43,-797.59 1418.57,-799.66 1414.66,-801.51 1414.66,-801.51 1414.66,-801.51 1418.57,-799.66 1416.28,-805.72 1423.39,-797.38"/>
<text text-anchor="start" x="1421.05" y="-811.8" font-family="Arial" font-size="10.00">FOREIGN KEY (accuracyrankid) REFERENCES ndb.chroncontrolaccuracyranks(accuracyrankid) ON UPDATE CASCADE ON DELETE CASCADE</text>
</g>
<!-- ndb.chroncontrols -->
<g id="node5" class="node">
<title>ndb.chroncontrols</title>
<polygon fill="#efefef" stroke="none" points="1540.25,-443.6 1540.25,-479.2 1860.05,-479.2 1860.05,-443.6 1540.25,-443.6"/>
<polygon fill="none" stroke="black" points="1540.25,-443.6 1540.25,-479.2 1860.05,-479.2 1860.05,-443.6 1540.25,-443.6"/>
<text text-anchor="start" x="1572.67" y="-457" font-family="Arial Bold" font-size="18.00">ndb.chroncontrols</text>
<text text-anchor="start" x="1703.15" y="-457" font-family="Arial" font-size="14.00">    </text>
<text text-anchor="start" x="1734.26" y="-457" font-family="Arial" font-size="14.00" fill="#666666">[BASE TABLE]</text>
<polygon fill="none" stroke="black" points="1540.25,-412.8 1540.25,-443.6 1860.05,-443.6 1860.05,-412.8 1540.25,-412.8"/>
<text text-anchor="start" x="1547.25" y="-425" font-family="Arial" font-size="14.00">age </text>
<text text-anchor="start" x="1574.5" y="-425" font-family="Arial" font-size="14.00" fill="#666666">[double precision]</text>
<polygon fill="none" stroke="black" points="1540.25,-382 1540.25,-412.8 1860.05,-412.8 1860.05,-382 1540.25,-382"/>
<text text-anchor="start" x="1547.25" y="-394.2" font-family="Arial" font-size="14.00">agelimitolder </text>
<text text-anchor="start" x="1630.52" y="-394.2" font-family="Arial" font-size="14.00" fill="#666666">[double precision]</text>
<polygon fill="none" stroke="black" points="1540.25,-351.2 1540.25,-382 1860.05,-382 1860.05,-351.2 1540.25,-351.2"/>
<text text-anchor="start" x="1547.25" y="-363.4" font-family="Arial" font-size="14.00">agelimityounger </text>
<text text-anchor="start" x="1649.98" y="-363.4" font-family="Arial" font-size="14.00" fill="#666666">[double precision]</text>
<polygon fill="none" stroke="black" points="1540.25,-320.4 1540.25,-351.2 1860.05,-351.2 1860.05,-320.4 1540.25,-320.4"/>
<text text-anchor="start" x="1547.25" y="-332.6" font-family="Arial" font-size="14.00">agetypeid </text>
<text text-anchor="start" x="1611.86" y="-332.6" font-family="Arial" font-size="14.00" fill="#666666">[integer]</text>
<polygon fill="none" stroke="black" points="1540.25,-289.6 1540.25,-320.4 1860.05,-320.4 1860.05,-289.6 1540.25,-289.6"/>
<text text-anchor="start" x="1547.25" y="-301.8" font-family="Arial" font-size="14.00">analysisunitid </text>
<text text-anchor="start" x="1635.19" y="-301.8" font-family="Arial" font-size="14.00" fill="#666666">[integer]</text>
<polygon fill="none" stroke="black" points="1540.25,-258.8 1540.25,-289.6 1860.05,-289.6 1860.05,-258.8 1540.25,-258.8"/>
<text text-anchor="start" x="1547.25" y="-271" font-family="Arial" font-size="14.00">chroncontrolid </text>
<text text-anchor="start" x="1639.08" y="-271" font-family="Arial" font-size="14.00" fill="#666666">[integer]</text>
<polygon fill="none" stroke="black" points="1540.25,-228 1540.25,-258.8 1860.05,-258.8 1860.05,-228 1540.25,-228"/>
<text text-anchor="start" x="1547.25" y="-240.2" font-family="Arial" font-size="14.00">chroncontroltypeid </text>
<text text-anchor="start" x="1665.54" y="-240.2" font-family="Arial" font-size="14.00" fill="#666666">[integer]</text>
<polygon fill="none" stroke="black" points="1540.25,-197.2 1540.25,-228 1860.05,-228 1860.05,-197.2 1540.25,-197.2"/>
<text text-anchor="start" x="1547.25" y="-209.4" font-family="Arial" font-size="14.00">chronologyid </text>
<text text-anchor="start" x="1630.53" y="-209.4" font-family="Arial" font-size="14.00" fill="#666666">[integer]</text>
<polygon fill="none" stroke="black" points="1540.25,-166.4 1540.25,-197.2 1860.05,-197.2 1860.05,-166.4 1540.25,-166.4"/>
<text text-anchor="start" x="1547.25" y="-178.6" font-family="Arial" font-size="14.00">depth </text>
<text text-anchor="start" x="1586.18" y="-178.6" font-family="Arial" font-size="14.00" fill="#666666">[double precision]</text>
<polygon fill="none" stroke="black" points="1540.25,-135.6 1540.25,-166.4 1860.05,-166.4 1860.05,-135.6 1540.25,-135.6"/>
<text text-anchor="start" x="1547.25" y="-147.8" font-family="Arial" font-size="14.00">notes </text>
<text text-anchor="start" x="1585.39" y="-147.8" font-family="Arial" font-size="14.00" fill="#666666">[text]</text>
<polygon fill="none" stroke="black" points="1540.25,-104.8 1540.25,-135.6 1860.05,-135.6 1860.05,-104.8 1540.25,-104.8"/>
<text text-anchor="start" x="1547.25" y="-117" font-family="Arial" font-size="14.00">recdatecreated </text>
<text text-anchor="start" x="1644.54" y="-117" font-family="Arial" font-size="14.00" fill="#666666">[timestamp(0) without time zone]</text>
<polygon fill="none" stroke="black" points="1540.25,-74 1540.25,-104.8 1860.05,-104.8 1860.05,-74 1540.25,-74"/>
<text text-anchor="start" x="1547.25" y="-86.2" font-family="Arial" font-size="14.00">recdatemodified </text>
<text text-anchor="start" x="1650.76" y="-86.2" font-family="Arial" font-size="14.00" fill="#666666">[timestamp(0) without time zone]</text>
<polygon fill="none" stroke="black" points="1540.25,-43.2 1540.25,-74 1860.05,-74 1860.05,-43.2 1540.25,-43.2"/>
<text text-anchor="start" x="1547.25" y="-55.4" font-family="Arial" font-size="14.00">thickness </text>
<text text-anchor="start" x="1609.5" y="-55.4" font-family="Arial" font-size="14.00" fill="#666666">[double precision]</text>
</g>
<!-- ndb.chroncontrolranks&#45;&gt;ndb.chroncontrols -->
<g id="edge4" class="edge">
<title>ndb.chroncontrolranks:chroncontrolid&#45;&gt;ndb.chroncontrols:chroncontrolid</title>
<path fill="none" stroke="black" d="M1424.33,-770.6C1525.11,-762.48 1460.91,-630.72 1488.15,-522.4 1501.89,-467.79 1482.94,-274.2 1539.25,-274.2"/>
<polygon fill="black" stroke="black" points="1424.38,-770.6 1414.21,-766.49 1419.05,-770.81 1414.72,-770.97 1414.72,-770.97 1414.72,-770.97 1419.05,-770.81 1414.56,-775.48 1424.38,-770.6"/>
<text text-anchor="start" x="1421.05" y="-781" font-family="Arial" font-size="10.00">FOREIGN KEY (chroncontrolid) REFERENCES ndb.chroncontrols(chroncontrolid) ON UPDATE CASCADE ON DELETE CASCADE</text>
</g>
<!-- ndb.chroncontrolprecisionranks -->
<g id="node6" class="node">
<title>ndb.chroncontrolprecisionranks</title>
<polygon fill="#efefef" stroke="none" points="1964.69,-305 1964.69,-340.6 2331.62,-340.6 2331.62,-305 1964.69,-305"/>
<polygon fill="none" stroke="black" points="1964.69,-305 1964.69,-340.6 2331.62,-340.6 2331.62,-305 1964.69,-305"/>
<text text-anchor="start" x="1971.69" y="-318.4" font-family="Arial Bold" font-size="18.00">ndb.chroncontrolprecisionranks</text>
<text text-anchor="start" x="2200.13" y="-318.4" font-family="Arial" font-size="14.00">    </text>
<text text-anchor="start" x="2231.24" y="-318.4" font-family="Arial" font-size="14.00" fill="#666666">[BASE TABLE]</text>
<polygon fill="none" stroke="black" points="1964.69,-274.2 1964.69,-305 2331.62,-305 2331.62,-274.2 1964.69,-274.2"/>
<text text-anchor="start" x="1971.69" y="-286.4" font-family="Arial" font-size="14.00">precisionrank </text>
<text text-anchor="start" x="2058.84" y="-286.4" font-family="Arial" font-size="14.00" fill="#666666">[varchar(255)]</text>
<polygon fill="none" stroke="black" points="1964.69,-243.4 1964.69,-274.2 2331.62,-274.2 2331.62,-243.4 1964.69,-243.4"/>
<text text-anchor="start" x="1971.69" y="-255.6" font-family="Arial" font-size="14.00">precisionrankid </text>
<text text-anchor="start" x="2069.74" y="-255.6" font-family="Arial" font-size="14.00" fill="#666666">[integer]</text>
<polygon fill="none" stroke="black" points="1964.69,-212.6 1964.69,-243.4 2331.62,-243.4 2331.62,-212.6 1964.69,-212.6"/>
<text text-anchor="start" x="1971.69" y="-224.8" font-family="Arial" font-size="14.00">recdatecreated </text>
<text text-anchor="start" x="2068.97" y="-224.8" font-family="Arial" font-size="14.00" fill="#666666">[timestamp(0) without time zone]</text>
<polygon fill="none" stroke="black" points="1964.69,-181.8 1964.69,-212.6 2331.62,-212.6 2331.62,-181.8 1964.69,-181.8"/>
<text text-anchor="start" x="1971.69" y="-194" font-family="Arial" font-size="14.00">recdatemodified </text>
<text text-anchor="start" x="2075.19" y="-194" font-family="Arial" font-size="14.00" fill="#666666">[timestamp(0) without time zone]</text>
</g>
<!-- ndb.chroncontrolranks&#45;&gt;ndb.chroncontrolprecisionranks -->
<g id="edge5" class="edge">
<title>ndb.chroncontrolranks:precisionrankid&#45;&gt;ndb.chroncontrolprecisionranks:precisionrankid</title>
<path fill="none" stroke="black" d="M1424.35,-678.43C1547.14,-674.64 1836.99,-606.4 1912.15,-522.4 1991.76,-433.45 1844.32,-258.8 1963.69,-258.8"/>
<polygon fill="black" stroke="black" points="1424.39,-678.43 1414.31,-674.1 1419.05,-678.52 1414.72,-678.59 1414.72,-678.59 1414.72,-678.59 1419.05,-678.52 1414.46,-683.09 1424.39,-678.43"/>
<text text-anchor="start" x="1421.05" y="-688.6" font-family="Arial" font-size="10.00">FOREIGN KEY (precisionrankid) REFERENCES ndb.chroncontrolprecisionranks(precisionrankid) ON UPDATE CASCADE ON DELETE CASCADE</text>
</g>
</g>
</svg>
