<?xml version="1.0" encoding="UTF-8" standalone="no"?>
<!DOCTYPE svg PUBLIC "-//W3C//DTD SVG 1.1//EN"
 "http://www.w3.org/Graphics/SVG/1.1/DTD/svg11.dtd">
<!-- Generated by graphviz version 12.1.2 (20240928.0832)
 -->
<!-- Title: ndb.isosubstratetypes Pages: 1 -->
<svg width="2334pt" height="1212pt"
 viewBox="0.00 0.00 2334.00 1212.00" xmlns="http://www.w3.org/2000/svg" xmlns:xlink="http://www.w3.org/1999/xlink">
<g id="graph0" class="graph" transform="scale(1 1) rotate(0) translate(4 1208)">
<title>ndb.isosubstratetypes</title>
<polygon fill="white" stroke="none" points="-4,4 -4,-1208 2330,-1208 2330,4 -4,4"/>
<!-- ndb.isosubstratetypes -->
<g id="node1" class="node">
<title>ndb.isosubstratetypes</title>
<polygon fill="#efefef" stroke="none" points="1112,-366.6 1112,-402.2 1431.8,-402.2 1431.8,-366.6 1112,-366.6"/>
<polygon fill="none" stroke="black" points="1112,-366.6 1112,-402.2 1431.8,-402.2 1431.8,-366.6 1112,-366.6"/>
<text text-anchor="start" x="1132.41" y="-380" font-family="Arial Bold" font-size="18.00">ndb.isosubstratetypes</text>
<text text-anchor="start" x="1286.9" y="-380" font-family="Arial" font-size="14.00">    </text>
<text text-anchor="start" x="1318.01" y="-380" font-family="Arial" font-size="14.00" fill="#666666">[BASE TABLE]</text>
<polygon fill="none" stroke="black" points="1112,-335.8 1112,-366.6 1431.8,-366.6 1431.8,-335.8 1112,-335.8"/>
<text text-anchor="start" x="1119" y="-348" font-family="Arial" font-size="14.00">isosubstratetype </text>
<text text-anchor="start" x="1224.83" y="-348" font-family="Arial" font-size="14.00" fill="#666666">[varchar(50)]</text>
<polygon fill="none" stroke="black" points="1112,-305 1112,-335.8 1431.8,-335.8 1431.8,-305 1112,-305"/>
<text text-anchor="start" x="1119" y="-317.2" font-family="Arial" font-size="14.00">isosubstratetypeid </text>
<text text-anchor="start" x="1235.73" y="-317.2" font-family="Arial" font-size="14.00" fill="#666666">[integer]</text>
<polygon fill="none" stroke="black" points="1112,-274.2 1112,-305 1431.8,-305 1431.8,-274.2 1112,-274.2"/>
<text text-anchor="start" x="1119" y="-286.4" font-family="Arial" font-size="14.00">recdatecreated </text>
<text text-anchor="start" x="1216.28" y="-286.4" font-family="Arial" font-size="14.00" fill="#666666">[timestamp(0) without time zone]</text>
<polygon fill="none" stroke="black" points="1112,-243.4 1112,-274.2 1431.8,-274.2 1431.8,-243.4 1112,-243.4"/>
<text text-anchor="start" x="1119" y="-255.6" font-family="Arial" font-size="14.00">recdatemodified </text>
<text text-anchor="start" x="1222.5" y="-255.6" font-family="Arial" font-size="14.00" fill="#666666">[timestamp(0) without time zone]</text>
<polygon fill="none" stroke="black" stroke-width="3" points="1110.5,-241.9 1110.5,-403.7 1433.3,-403.7 1433.3,-241.9 1110.5,-241.9"/>
</g>
<!-- ndb.isomatanalsubstrate -->
<g id="node2" class="node">
<title>ndb.isomatanalsubstrate</title>
<polygon fill="#efefef" stroke="none" points="678,-986.6 678,-1022.2 997.8,-1022.2 997.8,-986.6 678,-986.6"/>
<polygon fill="none" stroke="black" points="678,-986.6 678,-1022.2 997.8,-1022.2 997.8,-986.6 678,-986.6"/>
<text text-anchor="start" x="688.92" y="-1000" font-family="Arial Bold" font-size="18.00">ndb.isomatanalsubstrate</text>
<text text-anchor="start" x="862.38" y="-1000" font-family="Arial" font-size="14.00">    </text>
<text text-anchor="start" x="893.5" y="-1000" font-family="Arial" font-size="14.00" fill="#666666">[BASE TABLE]</text>
<polygon fill="none" stroke="black" points="678,-955.8 678,-986.6 997.8,-986.6 997.8,-955.8 678,-955.8"/>
<text text-anchor="start" x="685" y="-968" font-family="Arial" font-size="14.00">isomatanaltypeid </text>
<text text-anchor="start" x="793.95" y="-968" font-family="Arial" font-size="14.00" fill="#666666">[integer]</text>
<polygon fill="none" stroke="black" points="678,-925 678,-955.8 997.8,-955.8 997.8,-925 678,-925"/>
<text text-anchor="start" x="685" y="-937.2" font-family="Arial" font-size="14.00">isosubstratetypeid </text>
<text text-anchor="start" x="801.73" y="-937.2" font-family="Arial" font-size="14.00" fill="#666666">[integer]</text>
<polygon fill="none" stroke="black" points="678,-894.2 678,-925 997.8,-925 997.8,-894.2 678,-894.2"/>
<text text-anchor="start" x="685" y="-906.4" font-family="Arial" font-size="14.00">recdatecreated </text>
<text text-anchor="start" x="782.28" y="-906.4" font-family="Arial" font-size="14.00" fill="#666666">[timestamp(0) without time zone]</text>
<polygon fill="none" stroke="black" points="678,-863.4 678,-894.2 997.8,-894.2 997.8,-863.4 678,-863.4"/>
<text text-anchor="start" x="685" y="-875.6" font-family="Arial" font-size="14.00">recdatemodified </text>
<text text-anchor="start" x="788.5" y="-875.6" font-family="Arial" font-size="14.00" fill="#666666">[timestamp(0) without time zone]</text>
</g>
<!-- ndb.isomatanalsubstrate&#45;&gt;ndb.isosubstratetypes -->
<g id="edge1" class="edge">
<title>ndb.isomatanalsubstrate:isosubstratetypeid&#45;&gt;ndb.isosubstratetypes:isosubstratetypeid</title>
<path fill="none" stroke="black" d="M1008.88,-940.06C1127.19,-931.81 1033.66,-773.53 1056.9,-645.6 1069.99,-573.52 1037.74,-320.4 1111,-320.4"/>
<polygon fill="black" stroke="black" points="1009.13,-940.05 998.98,-935.89 1003.79,-940.23 999.47,-940.38 999.47,-940.38 999.47,-940.38 1003.79,-940.23 999.28,-944.89 1009.13,-940.05"/>
<text text-anchor="start" x="352.15" y="-950.4" font-family="Arial" font-size="10.00">FOREIGN KEY (isosubstratetypeid) REFERENCES ndb.isosubstratetypes(isosubstratetypeid) ON UPDATE CASCADE ON DELETE CASCADE</text>
</g>
<!-- ndb.isomaterialanalyzedtypes -->
<g id="node3" class="node">
<title>ndb.isomaterialanalyzedtypes</title>
<polygon fill="#efefef" stroke="none" points="652.94,-366.6 652.94,-402.2 1004.85,-402.2 1004.85,-366.6 652.94,-366.6"/>
<polygon fill="none" stroke="black" points="652.94,-366.6 652.94,-402.2 1004.85,-402.2 1004.85,-366.6 652.94,-366.6"/>
<text text-anchor="start" x="659.94" y="-380" font-family="Arial Bold" font-size="18.00">ndb.isomaterialanalyzedtypes</text>
<text text-anchor="start" x="873.37" y="-380" font-family="Arial" font-size="14.00">    </text>
<text text-anchor="start" x="904.48" y="-380" font-family="Arial" font-size="14.00" fill="#666666">[BASE TABLE]</text>
<polygon fill="none" stroke="black" points="652.94,-335.8 652.94,-366.6 1004.85,-366.6 1004.85,-335.8 652.94,-335.8"/>
<text text-anchor="start" x="659.94" y="-348" font-family="Arial" font-size="14.00">isomatanaltypeid </text>
<text text-anchor="start" x="768.89" y="-348" font-family="Arial" font-size="14.00" fill="#666666">[integer]</text>
<polygon fill="none" stroke="black" points="652.94,-305 652.94,-335.8 1004.85,-335.8 1004.85,-305 652.94,-305"/>
<text text-anchor="start" x="659.94" y="-317.2" font-family="Arial" font-size="14.00">isomaterialanalyzedtype </text>
<text text-anchor="start" x="814.02" y="-317.2" font-family="Arial" font-size="14.00" fill="#666666">[varchar(50)]</text>
<polygon fill="none" stroke="black" points="652.94,-274.2 652.94,-305 1004.85,-305 1004.85,-274.2 652.94,-274.2"/>
<text text-anchor="start" x="659.94" y="-286.4" font-family="Arial" font-size="14.00">recdatecreated </text>
<text text-anchor="start" x="757.22" y="-286.4" font-family="Arial" font-size="14.00" fill="#666666">[timestamp(0) without time zone]</text>
<polygon fill="none" stroke="black" points="652.94,-243.4 652.94,-274.2 1004.85,-274.2 1004.85,-243.4 652.94,-243.4"/>
<text text-anchor="start" x="659.94" y="-255.6" font-family="Arial" font-size="14.00">recdatemodified </text>
<text text-anchor="start" x="763.44" y="-255.6" font-family="Arial" font-size="14.00" fill="#666666">[timestamp(0) without time zone]</text>
</g>
<!-- ndb.isomatanalsubstrate&#45;&gt;ndb.isomaterialanalyzedtypes -->
<g id="edge2" class="edge">
<title>ndb.isomatanalsubstrate:isomatanaltypeid&#45;&gt;ndb.isomaterialanalyzedtypes:isomatanaltypeid</title>
<path fill="none" stroke="black" d="M666.64,-970.37C614.84,-961.29 655.58,-879.41 678,-820.2 756.25,-613.49 926.19,-651.95 1004.85,-445.4 1019.76,-406.27 1047.72,-351.2 1005.85,-351.2"/>
<polygon fill="black" stroke="black" points="666.7,-970.38 676.31,-975.66 672.01,-970.8 676.33,-971.15 676.33,-971.15 676.33,-971.15 672.01,-970.8 677.02,-966.69 666.7,-970.38"/>
<text text-anchor="start" x="7" y="-981.2" font-family="Arial" font-size="10.00">FOREIGN KEY (isomatanaltypeid) REFERENCES ndb.isomaterialanalyzedtypes(isomatanaltypeid) ON UPDATE CASCADE ON DELETE CASCADE</text>
</g>
<!-- ndb.isometadata -->
<g id="node4" class="node">
<title>ndb.isometadata</title>
<polygon fill="#efefef" stroke="none" points="1325,-1125.2 1325,-1160.8 1644.8,-1160.8 1644.8,-1125.2 1325,-1125.2"/>
<polygon fill="none" stroke="black" points="1325,-1125.2 1325,-1160.8 1644.8,-1160.8 1644.8,-1125.2 1325,-1125.2"/>
<text text-anchor="start" x="1363.92" y="-1138.6" font-family="Arial Bold" font-size="18.00">ndb.isometadata</text>
<text text-anchor="start" x="1481.39" y="-1138.6" font-family="Arial" font-size="14.00">    </text>
<text text-anchor="start" x="1512.5" y="-1138.6" font-family="Arial" font-size="14.00" fill="#666666">[BASE TABLE]</text>
<polygon fill="none" stroke="black" points="1325,-1094.4 1325,-1125.2 1644.8,-1125.2 1644.8,-1094.4 1325,-1094.4"/>
<text text-anchor="start" x="1332" y="-1106.6" font-family="Arial" font-size="14.00">analystid </text>
<text text-anchor="start" x="1391.14" y="-1106.6" font-family="Arial" font-size="14.00" fill="#666666">[integer]</text>
<polygon fill="none" stroke="black" points="1325,-1063.6 1325,-1094.4 1644.8,-1094.4 1644.8,-1063.6 1325,-1063.6"/>
<text text-anchor="start" x="1332" y="-1075.8" font-family="Arial" font-size="14.00">atomicpercent </text>
<text text-anchor="start" x="1423.82" y="-1075.8" font-family="Arial" font-size="14.00" fill="#666666">[double precision]</text>
<polygon fill="none" stroke="black" points="1325,-1032.8 1325,-1063.6 1644.8,-1063.6 1644.8,-1032.8 1325,-1032.8"/>
<text text-anchor="start" x="1332" y="-1045" font-family="Arial" font-size="14.00">dataid </text>
<text text-anchor="start" x="1374.03" y="-1045" font-family="Arial" font-size="14.00" fill="#666666">[integer]</text>
<polygon fill="none" stroke="black" points="1325,-1002 1325,-1032.8 1644.8,-1032.8 1644.8,-1002 1325,-1002"/>
<text text-anchor="start" x="1332" y="-1014.2" font-family="Arial" font-size="14.00">isomatanaltypeid </text>
<text text-anchor="start" x="1440.95" y="-1014.2" font-family="Arial" font-size="14.00" fill="#666666">[integer]</text>
<polygon fill="none" stroke="black" points="1325,-971.2 1325,-1002 1644.8,-1002 1644.8,-971.2 1325,-971.2"/>
<text text-anchor="start" x="1332" y="-983.4" font-family="Arial" font-size="14.00">isometadataid </text>
<text text-anchor="start" x="1423.05" y="-983.4" font-family="Arial" font-size="14.00" fill="#666666">[integer]</text>
<polygon fill="none" stroke="black" points="1325,-940.4 1325,-971.2 1644.8,-971.2 1644.8,-940.4 1325,-940.4"/>
<text text-anchor="start" x="1332" y="-952.6" font-family="Arial" font-size="14.00">isosubstratetypeid </text>
<text text-anchor="start" x="1448.73" y="-952.6" font-family="Arial" font-size="14.00" fill="#666666">[integer]</text>
<polygon fill="none" stroke="black" points="1325,-909.6 1325,-940.4 1644.8,-940.4 1644.8,-909.6 1325,-909.6"/>
<text text-anchor="start" x="1332" y="-921.8" font-family="Arial" font-size="14.00">lab </text>
<text text-anchor="start" x="1354.57" y="-921.8" font-family="Arial" font-size="14.00" fill="#666666">[varchar(255)]</text>
<polygon fill="none" stroke="black" points="1325,-878.8 1325,-909.6 1644.8,-909.6 1644.8,-878.8 1325,-878.8"/>
<text text-anchor="start" x="1332" y="-891" font-family="Arial" font-size="14.00">labnumber </text>
<text text-anchor="start" x="1402.04" y="-891" font-family="Arial" font-size="14.00" fill="#666666">[varchar(64)]</text>
<polygon fill="none" stroke="black" points="1325,-848 1325,-878.8 1644.8,-878.8 1644.8,-848 1325,-848"/>
<text text-anchor="start" x="1332" y="-860.2" font-family="Arial" font-size="14.00">mass_mg </text>
<text text-anchor="start" x="1396.57" y="-860.2" font-family="Arial" font-size="14.00" fill="#666666">[double precision]</text>
<polygon fill="none" stroke="black" points="1325,-817.2 1325,-848 1644.8,-848 1644.8,-817.2 1325,-817.2"/>
<text text-anchor="start" x="1332" y="-829.4" font-family="Arial" font-size="14.00">recdatecreated </text>
<text text-anchor="start" x="1429.28" y="-829.4" font-family="Arial" font-size="14.00" fill="#666666">[timestamp(0) without time zone]</text>
<polygon fill="none" stroke="black" points="1325,-786.4 1325,-817.2 1644.8,-817.2 1644.8,-786.4 1325,-786.4"/>
<text text-anchor="start" x="1332" y="-798.6" font-family="Arial" font-size="14.00">recdatemodified </text>
<text text-anchor="start" x="1435.5" y="-798.6" font-family="Arial" font-size="14.00" fill="#666666">[timestamp(0) without time zone]</text>
<polygon fill="none" stroke="black" points="1325,-755.6 1325,-786.4 1644.8,-786.4 1644.8,-755.6 1325,-755.6"/>
<text text-anchor="start" x="1332" y="-767.8" font-family="Arial" font-size="14.00">reps </text>
<text text-anchor="start" x="1363.12" y="-767.8" font-family="Arial" font-size="14.00" fill="#666666">[integer]</text>
<polygon fill="none" stroke="black" points="1325,-724.8 1325,-755.6 1644.8,-755.6 1644.8,-724.8 1325,-724.8"/>
<text text-anchor="start" x="1332" y="-737" font-family="Arial" font-size="14.00">weightpercent </text>
<text text-anchor="start" x="1423.05" y="-737" font-family="Arial" font-size="14.00" fill="#666666">[double precision]</text>
</g>
<!-- ndb.isometadata&#45;&gt;ndb.isosubstratetypes -->
<g id="edge3" class="edge">
<title>ndb.isometadata:isosubstratetypeid&#45;&gt;ndb.isosubstratetypes:isosubstratetypeid</title>
<path fill="none" stroke="black" d="M1313.63,-955.38C1123.49,-939.51 1425.93,-474.83 1431.8,-448.4 1444.14,-392.86 1489.69,-320.4 1432.8,-320.4"/>
<polygon fill="black" stroke="black" points="1313.67,-955.39 1323.48,-960.28 1319,-955.6 1323.33,-955.77 1323.33,-955.77 1323.33,-955.77 1319,-955.6 1323.84,-951.29 1313.67,-955.39"/>
<text text-anchor="start" x="1331" y="-965.8" font-family="Arial" font-size="10.00">FOREIGN KEY (isosubstratetypeid) REFERENCES ndb.isosubstratetypes(isosubstratetypeid) ON UPDATE CASCADE ON DELETE SET NULL</text>
</g>
<!-- ndb.isometadata&#45;&gt;ndb.isomaterialanalyzedtypes -->
<g id="edge6" class="edge">
<title>ndb.isometadata:isomatanaltypeid&#45;&gt;ndb.isomaterialanalyzedtypes:isomatanaltypeid</title>
<path fill="none" stroke="black" d="M1313.76,-1017.24C1121.02,-1011.1 1134.28,-830.01 1056.9,-645.6 1031.2,-584.37 1072.25,-351.2 1005.85,-351.2"/>
<polygon fill="black" stroke="black" points="1313.66,-1017.24 1323.59,-1021.89 1319,-1017.32 1323.33,-1017.39 1323.33,-1017.39 1323.33,-1017.39 1319,-1017.32 1323.73,-1012.9 1313.66,-1017.24"/>
<text text-anchor="start" x="1048.9" y="-1001.4" font-family="Arial" font-size="10.00">FOREIGN KEY (isomatanaltypeid) REFERENCES ndb.isomaterialanalyzedtypes(isomatanaltypeid) ON DELETE SET NULL</text>
</g>
<!-- ndb.contacts -->
<g id="node5" class="node">
<title>ndb.contacts</title>
<polygon fill="#efefef" stroke="none" points="1539,-566.8 1539,-602.4 1858.8,-602.4 1858.8,-566.8 1539,-566.8"/>
<polygon fill="none" stroke="black" points="1539,-566.8 1539,-602.4 1858.8,-602.4 1858.8,-566.8 1539,-566.8"/>
<text text-anchor="start" x="1591.42" y="-580.2" font-family="Arial Bold" font-size="18.00">ndb.contacts</text>
<text text-anchor="start" x="1681.89" y="-580.2" font-family="Arial" font-size="14.00">    </text>
<text text-anchor="start" x="1713.01" y="-580.2" font-family="Arial" font-size="14.00" fill="#666666">[BASE TABLE]</text>
<polygon fill="none" stroke="black" points="1539,-536 1539,-566.8 1858.8,-566.8 1858.8,-536 1539,-536"/>
<text text-anchor="start" x="1546" y="-548.2" font-family="Arial" font-size="14.00">address </text>
<text text-anchor="start" x="1599.69" y="-548.2" font-family="Arial" font-size="14.00" fill="#666666">[text]</text>
<polygon fill="none" stroke="black" points="1539,-505.2 1539,-536 1858.8,-536 1858.8,-505.2 1539,-505.2"/>
<text text-anchor="start" x="1546" y="-517.4" font-family="Arial" font-size="14.00">aliasid </text>
<text text-anchor="start" x="1589.58" y="-517.4" font-family="Arial" font-size="14.00" fill="#666666">[integer]</text>
<polygon fill="none" stroke="black" points="1539,-474.4 1539,-505.2 1858.8,-505.2 1858.8,-474.4 1539,-474.4"/>
<text text-anchor="start" x="1546" y="-486.6" font-family="Arial" font-size="14.00">contactid </text>
<text text-anchor="start" x="1605.92" y="-486.6" font-family="Arial" font-size="14.00" fill="#666666">[integer]</text>
<polygon fill="none" stroke="black" points="1539,-443.6 1539,-474.4 1858.8,-474.4 1858.8,-443.6 1539,-443.6"/>
<text text-anchor="start" x="1546" y="-455.8" font-family="Arial" font-size="14.00">contactname </text>
<text text-anchor="start" x="1630.05" y="-455.8" font-family="Arial" font-size="14.00" fill="#666666">[varchar(80)]</text>
<polygon fill="none" stroke="black" points="1539,-412.8 1539,-443.6 1858.8,-443.6 1858.8,-412.8 1539,-412.8"/>
<text text-anchor="start" x="1546" y="-425" font-family="Arial" font-size="14.00">contactstatusid </text>
<text text-anchor="start" x="1643.27" y="-425" font-family="Arial" font-size="14.00" fill="#666666">[integer]</text>
<polygon fill="none" stroke="black" points="1539,-382 1539,-412.8 1858.8,-412.8 1858.8,-382 1539,-382"/>
<text text-anchor="start" x="1546" y="-394.2" font-family="Arial" font-size="14.00">email </text>
<text text-anchor="start" x="1583.34" y="-394.2" font-family="Arial" font-size="14.00" fill="#666666">[varchar(64)]</text>
<polygon fill="none" stroke="black" points="1539,-351.2 1539,-382 1858.8,-382 1858.8,-351.2 1539,-351.2"/>
<text text-anchor="start" x="1546" y="-363.4" font-family="Arial" font-size="14.00">familyname </text>
<text text-anchor="start" x="1621.47" y="-363.4" font-family="Arial" font-size="14.00" fill="#666666">[varchar(80)]</text>
<polygon fill="none" stroke="black" points="1539,-320.4 1539,-351.2 1858.8,-351.2 1858.8,-320.4 1539,-320.4"/>
<text text-anchor="start" x="1546" y="-332.6" font-family="Arial" font-size="14.00">fax </text>
<text text-anchor="start" x="1568.56" y="-332.6" font-family="Arial" font-size="14.00" fill="#666666">[varchar(64)]</text>
<polygon fill="none" stroke="black" points="1539,-289.6 1539,-320.4 1858.8,-320.4 1858.8,-289.6 1539,-289.6"/>
<text text-anchor="start" x="1546" y="-301.8" font-family="Arial" font-size="14.00">givennames </text>
<text text-anchor="start" x="1625.38" y="-301.8" font-family="Arial" font-size="14.00" fill="#666666">[varchar(80)]</text>
<polygon fill="none" stroke="black" points="1539,-258.8 1539,-289.6 1858.8,-289.6 1858.8,-258.8 1539,-258.8"/>
<text text-anchor="start" x="1546" y="-271" font-family="Arial" font-size="14.00">leadinginitials </text>
<text text-anchor="start" x="1633.94" y="-271" font-family="Arial" font-size="14.00" fill="#666666">[varchar(16)]</text>
<polygon fill="none" stroke="black" points="1539,-228 1539,-258.8 1858.8,-258.8 1858.8,-228 1539,-228"/>
<text text-anchor="start" x="1546" y="-240.2" font-family="Arial" font-size="14.00">notes </text>
<text text-anchor="start" x="1584.14" y="-240.2" font-family="Arial" font-size="14.00" fill="#666666">[text]</text>
<polygon fill="none" stroke="black" points="1539,-197.2 1539,-228 1858.8,-228 1858.8,-197.2 1539,-197.2"/>
<text text-anchor="start" x="1546" y="-209.4" font-family="Arial" font-size="14.00">phone </text>
<text text-anchor="start" x="1588.82" y="-209.4" font-family="Arial" font-size="14.00" fill="#666666">[varchar(64)]</text>
<polygon fill="none" stroke="black" points="1539,-166.4 1539,-197.2 1858.8,-197.2 1858.8,-166.4 1539,-166.4"/>
<text text-anchor="start" x="1546" y="-178.6" font-family="Arial" font-size="14.00">recdatecreated </text>
<text text-anchor="start" x="1643.28" y="-178.6" font-family="Arial" font-size="14.00" fill="#666666">[timestamp(0) without time zone]</text>
<polygon fill="none" stroke="black" points="1539,-135.6 1539,-166.4 1858.8,-166.4 1858.8,-135.6 1539,-135.6"/>
<text text-anchor="start" x="1546" y="-147.8" font-family="Arial" font-size="14.00">recdatemodified </text>
<text text-anchor="start" x="1649.5" y="-147.8" font-family="Arial" font-size="14.00" fill="#666666">[timestamp(0) without time zone]</text>
<polygon fill="none" stroke="black" points="1539,-104.8 1539,-135.6 1858.8,-135.6 1858.8,-104.8 1539,-104.8"/>
<text text-anchor="start" x="1546" y="-117" font-family="Arial" font-size="14.00">suffix </text>
<text text-anchor="start" x="1582.56" y="-117" font-family="Arial" font-size="14.00" fill="#666666">[varchar(16)]</text>
<polygon fill="none" stroke="black" points="1539,-74 1539,-104.8 1858.8,-104.8 1858.8,-74 1539,-74"/>
<text text-anchor="start" x="1546" y="-86.2" font-family="Arial" font-size="14.00">title </text>
<text text-anchor="start" x="1571.67" y="-86.2" font-family="Arial" font-size="14.00" fill="#666666">[varchar(16)]</text>
<polygon fill="none" stroke="black" points="1539,-43.2 1539,-74 1858.8,-74 1858.8,-43.2 1539,-43.2"/>
<text text-anchor="start" x="1546" y="-55.4" font-family="Arial" font-size="14.00">url </text>
<text text-anchor="start" x="1565.45" y="-55.4" font-family="Arial" font-size="14.00" fill="#666666">[varchar(255)]</text>
</g>
<!-- ndb.isometadata&#45;&gt;ndb.contacts -->
<g id="edge4" class="edge">
<title>ndb.isometadata:analystid&#45;&gt;ndb.contacts:contactid</title>
<path fill="none" stroke="black" d="M1656.11,-1109.52C1833.12,-1099.69 1753.71,-833.34 1644.8,-681.6 1615.83,-641.25 1568.04,-685.89 1539,-645.6 1498.5,-589.43 1468.75,-489.8 1538,-489.8"/>
<polygon fill="black" stroke="black" points="1656.13,-1109.52 1646.01,-1105.29 1650.8,-1109.66 1646.47,-1109.78 1646.47,-1109.78 1646.47,-1109.78 1650.8,-1109.66 1646.25,-1114.29 1656.13,-1109.52"/>
<text text-anchor="start" x="1652.8" y="-1119.8" font-family="Arial" font-size="10.00">FOREIGN KEY (analystid) REFERENCES ndb.contacts(contactid)</text>
</g>
<!-- ndb.data -->
<g id="node6" class="node">
<title>ndb.data</title>
<polygon fill="#efefef" stroke="none" points="1963,-397.4 1963,-433 2282.8,-433 2282.8,-397.4 1963,-397.4"/>
<polygon fill="none" stroke="black" points="1963,-397.4 1963,-433 2282.8,-433 2282.8,-397.4 1963,-397.4"/>
<text text-anchor="start" x="2029.91" y="-410.8" font-family="Arial Bold" font-size="18.00">ndb.data</text>
<text text-anchor="start" x="2091.39" y="-410.8" font-family="Arial" font-size="14.00">    </text>
<text text-anchor="start" x="2122.51" y="-410.8" font-family="Arial" font-size="14.00" fill="#666666">[BASE TABLE]</text>
<polygon fill="none" stroke="black" points="1963,-366.6 1963,-397.4 2282.8,-397.4 2282.8,-366.6 1963,-366.6"/>
<text text-anchor="start" x="1970" y="-378.8" font-family="Arial" font-size="14.00">dataid </text>
<text text-anchor="start" x="2012.03" y="-378.8" font-family="Arial" font-size="14.00" fill="#666666">[integer]</text>
<polygon fill="none" stroke="black" points="1963,-335.8 1963,-366.6 2282.8,-366.6 2282.8,-335.8 1963,-335.8"/>
<text text-anchor="start" x="1970" y="-348" font-family="Arial" font-size="14.00">recdatecreated </text>
<text text-anchor="start" x="2067.28" y="-348" font-family="Arial" font-size="14.00" fill="#666666">[timestamp(0) without time zone]</text>
<polygon fill="none" stroke="black" points="1963,-305 1963,-335.8 2282.8,-335.8 2282.8,-305 1963,-305"/>
<text text-anchor="start" x="1970" y="-317.2" font-family="Arial" font-size="14.00">recdatemodified </text>
<text text-anchor="start" x="2073.5" y="-317.2" font-family="Arial" font-size="14.00" fill="#666666">[timestamp(0) without time zone]</text>
<polygon fill="none" stroke="black" points="1963,-274.2 1963,-305 2282.8,-305 2282.8,-274.2 1963,-274.2"/>
<text text-anchor="start" x="1970" y="-286.4" font-family="Arial" font-size="14.00">sampleid </text>
<text text-anchor="start" x="2029.92" y="-286.4" font-family="Arial" font-size="14.00" fill="#666666">[integer]</text>
<polygon fill="none" stroke="black" points="1963,-243.4 1963,-274.2 2282.8,-274.2 2282.8,-243.4 1963,-243.4"/>
<text text-anchor="start" x="1970" y="-255.6" font-family="Arial" font-size="14.00">value </text>
<text text-anchor="start" x="2007.36" y="-255.6" font-family="Arial" font-size="14.00" fill="#666666">[double precision]</text>
<polygon fill="none" stroke="black" points="1963,-212.6 1963,-243.4 2282.8,-243.4 2282.8,-212.6 1963,-212.6"/>
<text text-anchor="start" x="1970" y="-224.8" font-family="Arial" font-size="14.00">variableid </text>
<text text-anchor="start" x="2033.81" y="-224.8" font-family="Arial" font-size="14.00" fill="#666666">[integer]</text>
</g>
<!-- ndb.isometadata&#45;&gt;ndb.data -->
<g id="edge5" class="edge">
<title>ndb.isometadata:dataid&#45;&gt;ndb.data:dataid</title>
<path fill="none" stroke="black" d="M1655.96,-1048.04C1859.1,-1041.62 1831.36,-840.81 1910.9,-645.6 1933.41,-590.34 1902.33,-382 1962,-382"/>
<polygon fill="black" stroke="black" points="1656.13,-1048.04 1646.06,-1043.7 1650.8,-1048.12 1646.47,-1048.19 1646.47,-1048.19 1646.47,-1048.19 1650.8,-1048.12 1646.2,-1052.69 1656.13,-1048.04"/>
<text text-anchor="start" x="1652.8" y="-1058.2" font-family="Arial" font-size="10.00">FOREIGN KEY (dataid) REFERENCES ndb.data(dataid) ON UPDATE CASCADE ON DELETE CASCADE</text>
</g>
</g>
</svg>
