<?xml version="1.0" encoding="UTF-8" standalone="no"?>
<!DOCTYPE svg PUBLIC "-//W3C//DTD SVG 1.1//EN"
 "http://www.w3.org/Graphics/SVG/1.1/DTD/svg11.dtd">
<!-- Generated by graphviz version 12.1.2 (20240928.0832)
 -->
<!-- Title: ndb.chroncontrolaccuracydistributions Pages: 1 -->
<svg width="2382pt" height="966pt"
 viewBox="0.00 0.00 2381.82 965.60" xmlns="http://www.w3.org/2000/svg" xmlns:xlink="http://www.w3.org/1999/xlink">
<g id="graph0" class="graph" transform="scale(1 1) rotate(0) translate(4 961.6)">
<title>ndb.chroncontrolaccuracydistributions</title>
<polygon fill="white" stroke="none" points="-4,4 -4,-961.6 2377.82,-961.6 2377.82,4 -4,4"/>
<!-- ndb.chroncontrolaccuracydistributions -->
<g id="node1" class="node">
<title>ndb.chroncontrolaccuracydistributions</title>
<polygon fill="#efefef" stroke="none" points="46.2,-305 46.2,-340.6 462.11,-340.6 462.11,-305 46.2,-305"/>
<polygon fill="none" stroke="black" points="46.2,-305 46.2,-340.6 462.11,-340.6 462.11,-305 46.2,-305"/>
<text text-anchor="start" x="53.2" y="-318.4" font-family="Arial Bold" font-size="18.00">ndb.chroncontrolaccuracydistributions</text>
<text text-anchor="start" x="330.62" y="-318.4" font-family="Arial" font-size="14.00">    </text>
<text text-anchor="start" x="361.74" y="-318.4" font-family="Arial" font-size="14.00" fill="#666666">[BASE TABLE]</text>
<polygon fill="none" stroke="black" points="46.2,-274.2 46.2,-305 462.11,-305 462.11,-274.2 46.2,-274.2"/>
<text text-anchor="start" x="53.2" y="-286.4" font-family="Arial" font-size="14.00">accuracydistributionid </text>
<text text-anchor="start" x="191.71" y="-286.4" font-family="Arial" font-size="14.00" fill="#666666">[integer]</text>
<polygon fill="none" stroke="black" points="46.2,-243.4 46.2,-274.2 462.11,-274.2 462.11,-243.4 46.2,-243.4"/>
<text text-anchor="start" x="53.2" y="-255.6" font-family="Arial" font-size="14.00">accuracydistribution </text>
<text text-anchor="start" x="180.81" y="-255.6" font-family="Arial" font-size="14.00" fill="#666666">[varchar(40)]</text>
<polygon fill="none" stroke="black" points="46.2,-212.6 46.2,-243.4 462.11,-243.4 462.11,-212.6 46.2,-212.6"/>
<text text-anchor="start" x="53.2" y="-224.8" font-family="Arial" font-size="14.00">recdatecreated </text>
<text text-anchor="start" x="150.48" y="-224.8" font-family="Arial" font-size="14.00" fill="#666666">[timestamp(0) without time zone]</text>
<polygon fill="none" stroke="black" points="46.2,-181.8 46.2,-212.6 462.11,-212.6 462.11,-181.8 46.2,-181.8"/>
<text text-anchor="start" x="53.2" y="-194" font-family="Arial" font-size="14.00">recdatemodified </text>
<text text-anchor="start" x="156.7" y="-194" font-family="Arial" font-size="14.00" fill="#666666">[timestamp(0) without time zone]</text>
<polygon fill="none" stroke="black" stroke-width="3" points="44.7,-180.3 44.7,-342.1 463.61,-342.1 463.61,-180.3 44.7,-180.3"/>
</g>
<!-- ndb.chroncontrolranks -->
<g id="node2" class="node">
<title>ndb.chroncontrolranks</title>
<polygon fill="#efefef" stroke="none" points="1016.25,-878.8 1016.25,-914.4 1336.05,-914.4 1336.05,-878.8 1016.25,-878.8"/>
<polygon fill="none" stroke="black" points="1016.25,-878.8 1016.25,-914.4 1336.05,-914.4 1336.05,-878.8 1016.25,-878.8"/>
<text text-anchor="start" x="1032.68" y="-892.2" font-family="Arial Bold" font-size="18.00">ndb.chroncontrolranks</text>
<text text-anchor="start" x="1195.14" y="-892.2" font-family="Arial" font-size="14.00">    </text>
<text text-anchor="start" x="1226.25" y="-892.2" font-family="Arial" font-size="14.00" fill="#666666">[BASE TABLE]</text>
<polygon fill="none" stroke="black" points="1016.25,-848 1016.25,-878.8 1336.05,-878.8 1336.05,-848 1016.25,-848"/>
<text text-anchor="start" x="1023.25" y="-860.2" font-family="Arial" font-size="14.00">chroncontrolrankid </text>
<text text-anchor="start" x="1142.32" y="-860.2" font-family="Arial" font-size="14.00" fill="#666666">[integer]</text>
<polygon fill="none" stroke="black" points="1016.25,-817.2 1016.25,-848 1336.05,-848 1336.05,-817.2 1016.25,-817.2"/>
<text text-anchor="start" x="1023.25" y="-829.4" font-family="Arial" font-size="14.00">chroncontrolid </text>
<text text-anchor="start" x="1115.08" y="-829.4" font-family="Arial" font-size="14.00" fill="#666666">[integer]</text>
<polygon fill="none" stroke="black" points="1016.25,-786.4 1016.25,-817.2 1336.05,-817.2 1336.05,-786.4 1016.25,-786.4"/>
<text text-anchor="start" x="1023.25" y="-798.6" font-family="Arial" font-size="14.00">accuracyrankid </text>
<text text-anchor="start" x="1121.3" y="-798.6" font-family="Arial" font-size="14.00" fill="#666666">[integer]</text>
<polygon fill="none" stroke="black" points="1016.25,-755.6 1016.25,-786.4 1336.05,-786.4 1336.05,-755.6 1016.25,-755.6"/>
<text text-anchor="start" x="1023.25" y="-767.8" font-family="Arial" font-size="14.00">accuracydirectionid </text>
<text text-anchor="start" x="1146.98" y="-767.8" font-family="Arial" font-size="14.00" fill="#666666">[integer]</text>
<polygon fill="none" stroke="black" points="1016.25,-724.8 1016.25,-755.6 1336.05,-755.6 1336.05,-724.8 1016.25,-724.8"/>
<text text-anchor="start" x="1023.25" y="-737" font-family="Arial" font-size="14.00">accuracydistributionid </text>
<text text-anchor="start" x="1161.76" y="-737" font-family="Arial" font-size="14.00" fill="#666666">[integer]</text>
<polygon fill="none" stroke="black" points="1016.25,-694 1016.25,-724.8 1336.05,-724.8 1336.05,-694 1016.25,-694"/>
<text text-anchor="start" x="1023.25" y="-706.2" font-family="Arial" font-size="14.00">precisionrankid </text>
<text text-anchor="start" x="1121.3" y="-706.2" font-family="Arial" font-size="14.00" fill="#666666">[integer]</text>
<polygon fill="none" stroke="black" points="1016.25,-663.2 1016.25,-694 1336.05,-694 1336.05,-663.2 1016.25,-663.2"/>
<text text-anchor="start" x="1023.25" y="-675.4" font-family="Arial" font-size="14.00">outlier </text>
<text text-anchor="start" x="1065.27" y="-675.4" font-family="Arial" font-size="14.00" fill="#666666">[boolean]</text>
<polygon fill="none" stroke="black" points="1016.25,-632.4 1016.25,-663.2 1336.05,-663.2 1336.05,-632.4 1016.25,-632.4"/>
<text text-anchor="start" x="1023.25" y="-644.6" font-family="Arial" font-size="14.00">recdatecreated </text>
<text text-anchor="start" x="1120.54" y="-644.6" font-family="Arial" font-size="14.00" fill="#666666">[timestamp(0) without time zone]</text>
<polygon fill="none" stroke="black" points="1016.25,-601.6 1016.25,-632.4 1336.05,-632.4 1336.05,-601.6 1016.25,-601.6"/>
<text text-anchor="start" x="1023.25" y="-613.8" font-family="Arial" font-size="14.00">recdatemodified </text>
<text text-anchor="start" x="1126.76" y="-613.8" font-family="Arial" font-size="14.00" fill="#666666">[timestamp(0) without time zone]</text>
</g>
<!-- ndb.chroncontrolranks&#45;&gt;ndb.chroncontrolaccuracydistributions -->
<g id="edge1" class="edge">
<title>ndb.chroncontrolranks:accuracydistributionid&#45;&gt;ndb.chroncontrolaccuracydistributions:accuracydistributionid</title>
<path fill="none" stroke="black" d="M1005.07,-740.18C770.74,-739.26 669.39,-705.6 517.15,-522.4 449.27,-440.71 569.33,-289.6 463.11,-289.6"/>
<polygon fill="black" stroke="black" points="1004.92,-740.18 1014.91,-744.7 1010.25,-740.19 1014.59,-740.2 1014.59,-740.2 1014.59,-740.2 1010.25,-740.19 1014.93,-735.7 1004.92,-740.18"/>
<text text-anchor="start" x="266.91" y="-750.2" font-family="Arial" font-size="10.00">FOREIGN KEY (accuracydistributionid) REFERENCES ndb.chroncontrolaccuracydistributions(accuracydistributionid) ON UPDATE CASCADE ON DELETE CASCADE</text>
</g>
<!-- ndb.chroncontrols -->
<g id="node3" class="node">
<title>ndb.chroncontrols</title>
<polygon fill="#efefef" stroke="none" points="569.25,-443.6 569.25,-479.2 889.05,-479.2 889.05,-443.6 569.25,-443.6"/>
<polygon fill="none" stroke="black" points="569.25,-443.6 569.25,-479.2 889.05,-479.2 889.05,-443.6 569.25,-443.6"/>
<text text-anchor="start" x="601.67" y="-457" font-family="Arial Bold" font-size="18.00">ndb.chroncontrols</text>
<text text-anchor="start" x="732.15" y="-457" font-family="Arial" font-size="14.00">    </text>
<text text-anchor="start" x="763.26" y="-457" font-family="Arial" font-size="14.00" fill="#666666">[BASE TABLE]</text>
<polygon fill="none" stroke="black" points="569.25,-412.8 569.25,-443.6 889.05,-443.6 889.05,-412.8 569.25,-412.8"/>
<text text-anchor="start" x="576.25" y="-425" font-family="Arial" font-size="14.00">chroncontrolid </text>
<text text-anchor="start" x="668.08" y="-425" font-family="Arial" font-size="14.00" fill="#666666">[integer]</text>
<polygon fill="none" stroke="black" points="569.25,-382 569.25,-412.8 889.05,-412.8 889.05,-382 569.25,-382"/>
<text text-anchor="start" x="576.25" y="-394.2" font-family="Arial" font-size="14.00">chronologyid </text>
<text text-anchor="start" x="659.53" y="-394.2" font-family="Arial" font-size="14.00" fill="#666666">[integer]</text>
<polygon fill="none" stroke="black" points="569.25,-351.2 569.25,-382 889.05,-382 889.05,-351.2 569.25,-351.2"/>
<text text-anchor="start" x="576.25" y="-363.4" font-family="Arial" font-size="14.00">chroncontroltypeid </text>
<text text-anchor="start" x="694.54" y="-363.4" font-family="Arial" font-size="14.00" fill="#666666">[integer]</text>
<polygon fill="none" stroke="black" points="569.25,-320.4 569.25,-351.2 889.05,-351.2 889.05,-320.4 569.25,-320.4"/>
<text text-anchor="start" x="576.25" y="-332.6" font-family="Arial" font-size="14.00">depth </text>
<text text-anchor="start" x="615.18" y="-332.6" font-family="Arial" font-size="14.00" fill="#666666">[double precision]</text>
<polygon fill="none" stroke="black" points="569.25,-289.6 569.25,-320.4 889.05,-320.4 889.05,-289.6 569.25,-289.6"/>
<text text-anchor="start" x="576.25" y="-301.8" font-family="Arial" font-size="14.00">thickness </text>
<text text-anchor="start" x="638.5" y="-301.8" font-family="Arial" font-size="14.00" fill="#666666">[double precision]</text>
<polygon fill="none" stroke="black" points="569.25,-258.8 569.25,-289.6 889.05,-289.6 889.05,-258.8 569.25,-258.8"/>
<text text-anchor="start" x="576.25" y="-271" font-family="Arial" font-size="14.00">age </text>
<text text-anchor="start" x="603.5" y="-271" font-family="Arial" font-size="14.00" fill="#666666">[double precision]</text>
<polygon fill="none" stroke="black" points="569.25,-228 569.25,-258.8 889.05,-258.8 889.05,-228 569.25,-228"/>
<text text-anchor="start" x="576.25" y="-240.2" font-family="Arial" font-size="14.00">agelimityounger </text>
<text text-anchor="start" x="678.98" y="-240.2" font-family="Arial" font-size="14.00" fill="#666666">[double precision]</text>
<polygon fill="none" stroke="black" points="569.25,-197.2 569.25,-228 889.05,-228 889.05,-197.2 569.25,-197.2"/>
<text text-anchor="start" x="576.25" y="-209.4" font-family="Arial" font-size="14.00">agelimitolder </text>
<text text-anchor="start" x="659.52" y="-209.4" font-family="Arial" font-size="14.00" fill="#666666">[double precision]</text>
<polygon fill="none" stroke="black" points="569.25,-166.4 569.25,-197.2 889.05,-197.2 889.05,-166.4 569.25,-166.4"/>
<text text-anchor="start" x="576.25" y="-178.6" font-family="Arial" font-size="14.00">notes </text>
<text text-anchor="start" x="614.39" y="-178.6" font-family="Arial" font-size="14.00" fill="#666666">[text]</text>
<polygon fill="none" stroke="black" points="569.25,-135.6 569.25,-166.4 889.05,-166.4 889.05,-135.6 569.25,-135.6"/>
<text text-anchor="start" x="576.25" y="-147.8" font-family="Arial" font-size="14.00">recdatecreated </text>
<text text-anchor="start" x="673.54" y="-147.8" font-family="Arial" font-size="14.00" fill="#666666">[timestamp(0) without time zone]</text>
<polygon fill="none" stroke="black" points="569.25,-104.8 569.25,-135.6 889.05,-135.6 889.05,-104.8 569.25,-104.8"/>
<text text-anchor="start" x="576.25" y="-117" font-family="Arial" font-size="14.00">recdatemodified </text>
<text text-anchor="start" x="679.76" y="-117" font-family="Arial" font-size="14.00" fill="#666666">[timestamp(0) without time zone]</text>
<polygon fill="none" stroke="black" points="569.25,-74 569.25,-104.8 889.05,-104.8 889.05,-74 569.25,-74"/>
<text text-anchor="start" x="576.25" y="-86.2" font-family="Arial" font-size="14.00">analysisunitid </text>
<text text-anchor="start" x="664.19" y="-86.2" font-family="Arial" font-size="14.00" fill="#666666">[integer]</text>
<polygon fill="none" stroke="black" points="569.25,-43.2 569.25,-74 889.05,-74 889.05,-43.2 569.25,-43.2"/>
<text text-anchor="start" x="576.25" y="-55.4" font-family="Arial" font-size="14.00">agetypeid </text>
<text text-anchor="start" x="640.86" y="-55.4" font-family="Arial" font-size="14.00" fill="#666666">[integer]</text>
</g>
<!-- ndb.chroncontrolranks&#45;&gt;ndb.chroncontrols -->
<g id="edge2" class="edge">
<title>ndb.chroncontrolranks:chroncontrolid&#45;&gt;ndb.chroncontrols:chroncontrolid</title>
<path fill="none" stroke="black" d="M1006.35,-827.78C964.14,-782.15 934.06,-428.2 890.05,-428.2"/>
<polygon fill="black" stroke="black" points="1006.17,-827.68 1012.82,-836.4 1010.86,-830.22 1014.67,-832.28 1014.67,-832.28 1014.67,-832.28 1010.86,-830.22 1017.1,-828.48 1006.17,-827.68"/>
<text text-anchor="start" x="421.97" y="-842.6" font-family="Arial" font-size="10.00">FOREIGN KEY (chroncontrolid) REFERENCES ndb.chroncontrols(chroncontrolid) ON UPDATE CASCADE ON DELETE CASCADE</text>
</g>
<!-- ndb.chroncontrolaccuracyranks -->
<g id="node4" class="node">
<title>ndb.chroncontrolaccuracyranks</title>
<polygon fill="#efefef" stroke="none" points="993.71,-305 993.71,-340.6 1358.6,-340.6 1358.6,-305 993.71,-305"/>
<polygon fill="none" stroke="black" points="993.71,-305 993.71,-340.6 1358.6,-340.6 1358.6,-305 993.71,-305"/>
<text text-anchor="start" x="1000.71" y="-318.4" font-family="Arial Bold" font-size="18.00">ndb.chroncontrolaccuracyranks</text>
<text text-anchor="start" x="1227.11" y="-318.4" font-family="Arial" font-size="14.00">    </text>
<text text-anchor="start" x="1258.22" y="-318.4" font-family="Arial" font-size="14.00" fill="#666666">[BASE TABLE]</text>
<polygon fill="none" stroke="black" points="993.71,-274.2 993.71,-305 1358.6,-305 1358.6,-274.2 993.71,-274.2"/>
<text text-anchor="start" x="1000.71" y="-286.4" font-family="Arial" font-size="14.00">accuracyrankid </text>
<text text-anchor="start" x="1098.75" y="-286.4" font-family="Arial" font-size="14.00" fill="#666666">[integer]</text>
<polygon fill="none" stroke="black" points="993.71,-243.4 993.71,-274.2 1358.6,-274.2 1358.6,-243.4 993.71,-243.4"/>
<text text-anchor="start" x="1000.71" y="-255.6" font-family="Arial" font-size="14.00">accuracyrank </text>
<text text-anchor="start" x="1087.85" y="-255.6" font-family="Arial" font-size="14.00" fill="#666666">[varchar(255)]</text>
<polygon fill="none" stroke="black" points="993.71,-212.6 993.71,-243.4 1358.6,-243.4 1358.6,-212.6 993.71,-212.6"/>
<text text-anchor="start" x="1000.71" y="-224.8" font-family="Arial" font-size="14.00">recdatecreated </text>
<text text-anchor="start" x="1097.99" y="-224.8" font-family="Arial" font-size="14.00" fill="#666666">[timestamp(0) without time zone]</text>
<polygon fill="none" stroke="black" points="993.71,-181.8 993.71,-212.6 1358.6,-212.6 1358.6,-181.8 993.71,-181.8"/>
<text text-anchor="start" x="1000.71" y="-194" font-family="Arial" font-size="14.00">recdatemodified </text>
<text text-anchor="start" x="1104.21" y="-194" font-family="Arial" font-size="14.00" fill="#666666">[timestamp(0) without time zone]</text>
</g>
<!-- ndb.chroncontrolranks&#45;&gt;ndb.chroncontrolaccuracyranks -->
<g id="edge3" class="edge">
<title>ndb.chroncontrolranks:accuracyrankid&#45;&gt;ndb.chroncontrolaccuracyranks:accuracyrankid</title>
<path fill="none" stroke="black" d="M1346.08,-797.37C1396.25,-747.31 1413.45,-289.6 1359.6,-289.6"/>
<polygon fill="black" stroke="black" points="1346.33,-797.25 1335.37,-797.61 1341.54,-799.6 1337.65,-801.51 1337.65,-801.51 1337.65,-801.51 1341.54,-799.6 1339.33,-805.69 1346.33,-797.25"/>
<text text-anchor="start" x="1344.05" y="-811.8" font-family="Arial" font-size="10.00">FOREIGN KEY (accuracyrankid) REFERENCES ndb.chroncontrolaccuracyranks(accuracyrankid) ON UPDATE CASCADE ON DELETE CASCADE</text>
</g>
<!-- ndb.chroncontrolaccuracydirections -->
<g id="node5" class="node">
<title>ndb.chroncontrolaccuracydirections</title>
<polygon fill="#efefef" stroke="none" points="1462.71,-305 1462.71,-340.6 1859.59,-340.6 1859.59,-305 1462.71,-305"/>
<polygon fill="none" stroke="black" points="1462.71,-305 1462.71,-340.6 1859.59,-340.6 1859.59,-305 1462.71,-305"/>
<text text-anchor="start" x="1469.71" y="-318.4" font-family="Arial Bold" font-size="18.00">ndb.chroncontrolaccuracydirections</text>
<text text-anchor="start" x="1728.1" y="-318.4" font-family="Arial" font-size="14.00">    </text>
<text text-anchor="start" x="1759.22" y="-318.4" font-family="Arial" font-size="14.00" fill="#666666">[BASE TABLE]</text>
<polygon fill="none" stroke="black" points="1462.71,-274.2 1462.71,-305 1859.59,-305 1859.59,-274.2 1462.71,-274.2"/>
<text text-anchor="start" x="1469.71" y="-286.4" font-family="Arial" font-size="14.00">accuracydirectionid </text>
<text text-anchor="start" x="1593.44" y="-286.4" font-family="Arial" font-size="14.00" fill="#666666">[integer]</text>
<polygon fill="none" stroke="black" points="1462.71,-243.4 1462.71,-274.2 1859.59,-274.2 1859.59,-243.4 1462.71,-243.4"/>
<text text-anchor="start" x="1469.71" y="-255.6" font-family="Arial" font-size="14.00">accuracydirection </text>
<text text-anchor="start" x="1582.54" y="-255.6" font-family="Arial" font-size="14.00" fill="#666666">[varchar(80)]</text>
<polygon fill="none" stroke="black" points="1462.71,-212.6 1462.71,-243.4 1859.59,-243.4 1859.59,-212.6 1462.71,-212.6"/>
<text text-anchor="start" x="1469.71" y="-224.8" font-family="Arial" font-size="14.00">recdatecreated </text>
<text text-anchor="start" x="1567" y="-224.8" font-family="Arial" font-size="14.00" fill="#666666">[timestamp(0) without time zone]</text>
<polygon fill="none" stroke="black" points="1462.71,-181.8 1462.71,-212.6 1859.59,-212.6 1859.59,-181.8 1462.71,-181.8"/>
<text text-anchor="start" x="1469.71" y="-194" font-family="Arial" font-size="14.00">recdatemodified </text>
<text text-anchor="start" x="1573.22" y="-194" font-family="Arial" font-size="14.00" fill="#666666">[timestamp(0) without time zone]</text>
</g>
<!-- ndb.chroncontrolranks&#45;&gt;ndb.chroncontrolaccuracydirections -->
<g id="edge4" class="edge">
<title>ndb.chroncontrolranks:accuracydirectionid&#45;&gt;ndb.chroncontrolaccuracydirections:accuracydirectionid</title>
<path fill="none" stroke="black" d="M1347.33,-770.6C1448.07,-762.47 1383.33,-630.57 1411.15,-522.4 1424.34,-471.13 1408.77,-289.6 1461.71,-289.6"/>
<polygon fill="black" stroke="black" points="1347.38,-770.6 1337.21,-766.49 1342.05,-770.81 1337.72,-770.97 1337.72,-770.97 1337.72,-770.97 1342.05,-770.81 1337.56,-775.48 1347.38,-770.6"/>
<text text-anchor="start" x="1344.05" y="-781" font-family="Arial" font-size="10.00">FOREIGN KEY (accuracydirectionid) REFERENCES ndb.chroncontrolaccuracydirections(accuracydirectionid) ON UPDATE CASCADE ON DELETE CASCADE</text>
</g>
<!-- ndb.chroncontrolprecisionranks -->
<g id="node6" class="node">
<title>ndb.chroncontrolprecisionranks</title>
<polygon fill="#efefef" stroke="none" points="1963.69,-305 1963.69,-340.6 2330.62,-340.6 2330.62,-305 1963.69,-305"/>
<polygon fill="none" stroke="black" points="1963.69,-305 1963.69,-340.6 2330.62,-340.6 2330.62,-305 1963.69,-305"/>
<text text-anchor="start" x="1970.69" y="-318.4" font-family="Arial Bold" font-size="18.00">ndb.chroncontrolprecisionranks</text>
<text text-anchor="start" x="2199.13" y="-318.4" font-family="Arial" font-size="14.00">    </text>
<text text-anchor="start" x="2230.24" y="-318.4" font-family="Arial" font-size="14.00" fill="#666666">[BASE TABLE]</text>
<polygon fill="none" stroke="black" points="1963.69,-274.2 1963.69,-305 2330.62,-305 2330.62,-274.2 1963.69,-274.2"/>
<text text-anchor="start" x="1970.69" y="-286.4" font-family="Arial" font-size="14.00">precisionrankid </text>
<text text-anchor="start" x="2068.74" y="-286.4" font-family="Arial" font-size="14.00" fill="#666666">[integer]</text>
<polygon fill="none" stroke="black" points="1963.69,-243.4 1963.69,-274.2 2330.62,-274.2 2330.62,-243.4 1963.69,-243.4"/>
<text text-anchor="start" x="1970.69" y="-255.6" font-family="Arial" font-size="14.00">precisionrank </text>
<text text-anchor="start" x="2057.84" y="-255.6" font-family="Arial" font-size="14.00" fill="#666666">[varchar(255)]</text>
<polygon fill="none" stroke="black" points="1963.69,-212.6 1963.69,-243.4 2330.62,-243.4 2330.62,-212.6 1963.69,-212.6"/>
<text text-anchor="start" x="1970.69" y="-224.8" font-family="Arial" font-size="14.00">recdatecreated </text>
<text text-anchor="start" x="2067.97" y="-224.8" font-family="Arial" font-size="14.00" fill="#666666">[timestamp(0) without time zone]</text>
<polygon fill="none" stroke="black" points="1963.69,-181.8 1963.69,-212.6 2330.62,-212.6 2330.62,-181.8 1963.69,-181.8"/>
<text text-anchor="start" x="1970.69" y="-194" font-family="Arial" font-size="14.00">recdatemodified </text>
<text text-anchor="start" x="2074.19" y="-194" font-family="Arial" font-size="14.00" fill="#666666">[timestamp(0) without time zone]</text>
</g>
<!-- ndb.chroncontrolranks&#45;&gt;ndb.chroncontrolprecisionranks -->
<g id="edge5" class="edge">
<title>ndb.chroncontrolranks:precisionrankid&#45;&gt;ndb.chroncontrolprecisionranks:precisionrankid</title>
<path fill="none" stroke="black" d="M1347.28,-709.24C1488.4,-705.13 1824.23,-619.65 1912.15,-522.4 1983.16,-443.86 1856.81,-289.6 1962.69,-289.6"/>
<polygon fill="black" stroke="black" points="1347.39,-709.24 1337.32,-704.9 1342.05,-709.32 1337.72,-709.39 1337.72,-709.39 1337.72,-709.39 1342.05,-709.32 1337.46,-713.89 1347.39,-709.24"/>
<text text-anchor="start" x="1344.05" y="-719.4" font-family="Arial" font-size="10.00">FOREIGN KEY (precisionrankid) REFERENCES ndb.chroncontrolprecisionranks(precisionrankid) ON UPDATE CASCADE ON DELETE CASCADE</text>
</g>
</g>
</svg>
