<?xml version="1.0" encoding="UTF-8" standalone="no"?>
<!DOCTYPE svg PUBLIC "-//W3C//DTD SVG 1.1//EN"
 "http://www.w3.org/Graphics/SVG/1.1/DTD/svg11.dtd">
<!-- Generated by graphviz version 12.1.2 (20240928.0832)
 -->
<!-- Title: ndb.ecolsettypes Pages: 1 -->
<svg width="1465pt" height="873pt"
 viewBox="0.00 0.00 1464.81 873.20" xmlns="http://www.w3.org/2000/svg" xmlns:xlink="http://www.w3.org/1999/xlink">
<g id="graph0" class="graph" transform="scale(1 1) rotate(0) translate(4 869.2)">
<title>ndb.ecolsettypes</title>
<polygon fill="white" stroke="none" points="-4,4 -4,-869.2 1460.81,-869.2 1460.81,4 -4,4"/>
<!-- ndb.ecolsettypes -->
<g id="node1" class="node">
<title>ndb.ecolsettypes</title>
<polygon fill="#efefef" stroke="none" points="123.15,-320.4 123.15,-356 442.95,-356 442.95,-320.4 123.15,-320.4"/>
<polygon fill="none" stroke="black" points="123.15,-320.4 123.15,-356 442.95,-356 442.95,-320.4 123.15,-320.4"/>
<text text-anchor="start" x="161.07" y="-333.8" font-family="Arial Bold" font-size="18.00">ndb.ecolsettypes</text>
<text text-anchor="start" x="280.54" y="-333.8" font-family="Arial" font-size="14.00">    </text>
<text text-anchor="start" x="311.66" y="-333.8" font-family="Arial" font-size="14.00" fill="#666666">[BASE TABLE]</text>
<polygon fill="none" stroke="black" points="123.15,-289.6 123.15,-320.4 442.95,-320.4 442.95,-289.6 123.15,-289.6"/>
<text text-anchor="start" x="130.15" y="-301.8" font-family="Arial" font-size="14.00">ecolsetid </text>
<text text-anchor="start" x="189.3" y="-301.8" font-family="Arial" font-size="14.00" fill="#666666">[integer]</text>
<polygon fill="none" stroke="black" points="123.15,-258.8 123.15,-289.6 442.95,-289.6 442.95,-258.8 123.15,-258.8"/>
<text text-anchor="start" x="130.15" y="-271" font-family="Arial" font-size="14.00">ecolsetname </text>
<text text-anchor="start" x="213.42" y="-271" font-family="Arial" font-size="14.00" fill="#666666">[varchar(64)]</text>
<polygon fill="none" stroke="black" points="123.15,-228 123.15,-258.8 442.95,-258.8 442.95,-228 123.15,-228"/>
<text text-anchor="start" x="130.15" y="-240.2" font-family="Arial" font-size="14.00">recdatecreated </text>
<text text-anchor="start" x="227.43" y="-240.2" font-family="Arial" font-size="14.00" fill="#666666">[timestamp(0) without time zone]</text>
<polygon fill="none" stroke="black" points="123.15,-197.2 123.15,-228 442.95,-228 442.95,-197.2 123.15,-197.2"/>
<text text-anchor="start" x="130.15" y="-209.4" font-family="Arial" font-size="14.00">recdatemodified </text>
<text text-anchor="start" x="233.65" y="-209.4" font-family="Arial" font-size="14.00" fill="#666666">[timestamp(0) without time zone]</text>
<polygon fill="none" stroke="black" stroke-width="3" points="121.65,-195.7 121.65,-357.5 444.45,-357.5 444.45,-195.7 121.65,-195.7"/>
</g>
<!-- ndb.ecolgroups -->
<g id="node2" class="node">
<title>ndb.ecolgroups</title>
<polygon fill="#efefef" stroke="none" points="550.15,-786.4 550.15,-822 869.95,-822 869.95,-786.4 550.15,-786.4"/>
<polygon fill="none" stroke="black" points="550.15,-786.4 550.15,-822 869.95,-822 869.95,-786.4 550.15,-786.4"/>
<text text-anchor="start" x="592.57" y="-799.8" font-family="Arial Bold" font-size="18.00">ndb.ecolgroups</text>
<text text-anchor="start" x="703.05" y="-799.8" font-family="Arial" font-size="14.00">    </text>
<text text-anchor="start" x="734.16" y="-799.8" font-family="Arial" font-size="14.00" fill="#666666">[BASE TABLE]</text>
<polygon fill="none" stroke="black" points="550.15,-755.6 550.15,-786.4 869.95,-786.4 869.95,-755.6 550.15,-755.6"/>
<text text-anchor="start" x="557.15" y="-767.8" font-family="Arial" font-size="14.00">taxonid </text>
<text text-anchor="start" x="606.19" y="-767.8" font-family="Arial" font-size="14.00" fill="#666666">[integer]</text>
<polygon fill="none" stroke="black" points="550.15,-724.8 550.15,-755.6 869.95,-755.6 869.95,-724.8 550.15,-724.8"/>
<text text-anchor="start" x="557.15" y="-737" font-family="Arial" font-size="14.00">ecolsetid </text>
<text text-anchor="start" x="616.3" y="-737" font-family="Arial" font-size="14.00" fill="#666666">[integer]</text>
<polygon fill="none" stroke="black" points="550.15,-694 550.15,-724.8 869.95,-724.8 869.95,-694 550.15,-694"/>
<text text-anchor="start" x="557.15" y="-706.2" font-family="Arial" font-size="14.00">ecolgroupid </text>
<text text-anchor="start" x="633.43" y="-706.2" font-family="Arial" font-size="14.00" fill="#666666">[varchar(4)]</text>
<polygon fill="none" stroke="black" points="550.15,-663.2 550.15,-694 869.95,-694 869.95,-663.2 550.15,-663.2"/>
<text text-anchor="start" x="557.15" y="-675.4" font-family="Arial" font-size="14.00">recdatecreated </text>
<text text-anchor="start" x="654.43" y="-675.4" font-family="Arial" font-size="14.00" fill="#666666">[timestamp(0) without time zone]</text>
<polygon fill="none" stroke="black" points="550.15,-632.4 550.15,-663.2 869.95,-663.2 869.95,-632.4 550.15,-632.4"/>
<text text-anchor="start" x="557.15" y="-644.6" font-family="Arial" font-size="14.00">recdatemodified </text>
<text text-anchor="start" x="660.65" y="-644.6" font-family="Arial" font-size="14.00" fill="#666666">[timestamp(0) without time zone]</text>
</g>
<!-- ndb.ecolgroups&#45;&gt;ndb.ecolsettypes -->
<g id="edge1" class="edge">
<title>ndb.ecolgroups:ecolsetid&#45;&gt;ndb.ecolsettypes:ecolsetid</title>
<path fill="none" stroke="black" d="M539.1,-738.54C456.18,-709.32 539.85,-305 443.95,-305"/>
<polygon fill="black" stroke="black" points="538.96,-738.51 548.09,-744.58 544.22,-739.38 548.49,-740.09 548.49,-740.09 548.49,-740.09 544.22,-739.38 549.56,-735.71 538.96,-738.51"/>
<text text-anchor="start" x="7" y="-750.2" font-family="Arial" font-size="10.00">FOREIGN KEY (ecolsetid) REFERENCES ndb.ecolsettypes(ecolsetid) ON UPDATE CASCADE ON DELETE CASCADE</text>
</g>
<!-- ndb.taxa -->
<g id="node3" class="node">
<title>ndb.taxa</title>
<polygon fill="#efefef" stroke="none" points="550.15,-474.4 550.15,-510 869.95,-510 869.95,-474.4 550.15,-474.4"/>
<polygon fill="none" stroke="black" points="550.15,-474.4 550.15,-510 869.95,-510 869.95,-474.4 550.15,-474.4"/>
<text text-anchor="start" x="617.07" y="-487.8" font-family="Arial Bold" font-size="18.00">ndb.taxa</text>
<text text-anchor="start" x="678.55" y="-487.8" font-family="Arial" font-size="14.00">    </text>
<text text-anchor="start" x="709.66" y="-487.8" font-family="Arial" font-size="14.00" fill="#666666">[BASE TABLE]</text>
<polygon fill="none" stroke="black" points="550.15,-443.6 550.15,-474.4 869.95,-474.4 869.95,-443.6 550.15,-443.6"/>
<text text-anchor="start" x="557.15" y="-455.8" font-family="Arial" font-size="14.00">taxonid </text>
<text text-anchor="start" x="606.19" y="-455.8" font-family="Arial" font-size="14.00" fill="#666666">[integer]</text>
<polygon fill="none" stroke="black" points="550.15,-412.8 550.15,-443.6 869.95,-443.6 869.95,-412.8 550.15,-412.8"/>
<text text-anchor="start" x="557.15" y="-425" font-family="Arial" font-size="14.00">taxoncode </text>
<text text-anchor="start" x="625.65" y="-425" font-family="Arial" font-size="14.00" fill="#666666">[varchar(64)]</text>
<polygon fill="none" stroke="black" points="550.15,-382 550.15,-412.8 869.95,-412.8 869.95,-382 550.15,-382"/>
<text text-anchor="start" x="557.15" y="-394.2" font-family="Arial" font-size="14.00">taxonname </text>
<text text-anchor="start" x="630.31" y="-394.2" font-family="Arial" font-size="14.00" fill="#666666">[text]</text>
<polygon fill="none" stroke="black" points="550.15,-351.2 550.15,-382 869.95,-382 869.95,-351.2 550.15,-351.2"/>
<text text-anchor="start" x="557.15" y="-363.4" font-family="Arial" font-size="14.00">author </text>
<text text-anchor="start" x="600.74" y="-363.4" font-family="Arial" font-size="14.00" fill="#666666">[varchar(128)]</text>
<polygon fill="none" stroke="black" points="550.15,-320.4 550.15,-351.2 869.95,-351.2 869.95,-320.4 550.15,-320.4"/>
<text text-anchor="start" x="557.15" y="-332.6" font-family="Arial" font-size="14.00">valid </text>
<text text-anchor="start" x="589.83" y="-332.6" font-family="Arial" font-size="14.00" fill="#666666">[boolean]</text>
<polygon fill="none" stroke="black" points="550.15,-289.6 550.15,-320.4 869.95,-320.4 869.95,-289.6 550.15,-289.6"/>
<text text-anchor="start" x="557.15" y="-301.8" font-family="Arial" font-size="14.00">highertaxonid </text>
<text text-anchor="start" x="645.1" y="-301.8" font-family="Arial" font-size="14.00" fill="#666666">[integer]</text>
<polygon fill="none" stroke="black" points="550.15,-258.8 550.15,-289.6 869.95,-289.6 869.95,-258.8 550.15,-258.8"/>
<text text-anchor="start" x="557.15" y="-271" font-family="Arial" font-size="14.00">extinct </text>
<text text-anchor="start" x="601.5" y="-271" font-family="Arial" font-size="14.00" fill="#666666">[boolean]</text>
<polygon fill="none" stroke="black" points="550.15,-228 550.15,-258.8 869.95,-258.8 869.95,-228 550.15,-228"/>
<text text-anchor="start" x="557.15" y="-240.2" font-family="Arial" font-size="14.00">taxagroupid </text>
<text text-anchor="start" x="634.21" y="-240.2" font-family="Arial" font-size="14.00" fill="#666666">[varchar(3)]</text>
<polygon fill="none" stroke="black" points="550.15,-197.2 550.15,-228 869.95,-228 869.95,-197.2 550.15,-197.2"/>
<text text-anchor="start" x="557.15" y="-209.4" font-family="Arial" font-size="14.00">publicationid </text>
<text text-anchor="start" x="638.88" y="-209.4" font-family="Arial" font-size="14.00" fill="#666666">[integer]</text>
<polygon fill="none" stroke="black" points="550.15,-166.4 550.15,-197.2 869.95,-197.2 869.95,-166.4 550.15,-166.4"/>
<text text-anchor="start" x="557.15" y="-178.6" font-family="Arial" font-size="14.00">validatorid </text>
<text text-anchor="start" x="624.85" y="-178.6" font-family="Arial" font-size="14.00" fill="#666666">[integer]</text>
<polygon fill="none" stroke="black" points="550.15,-135.6 550.15,-166.4 869.95,-166.4 869.95,-135.6 550.15,-135.6"/>
<text text-anchor="start" x="557.15" y="-147.8" font-family="Arial" font-size="14.00">validatedate </text>
<text text-anchor="start" x="636.54" y="-147.8" font-family="Arial" font-size="14.00" fill="#666666">[date]</text>
<polygon fill="none" stroke="black" points="550.15,-104.8 550.15,-135.6 869.95,-135.6 869.95,-104.8 550.15,-104.8"/>
<text text-anchor="start" x="557.15" y="-117" font-family="Arial" font-size="14.00">notes </text>
<text text-anchor="start" x="595.29" y="-117" font-family="Arial" font-size="14.00" fill="#666666">[text]</text>
<polygon fill="none" stroke="black" points="550.15,-74 550.15,-104.8 869.95,-104.8 869.95,-74 550.15,-74"/>
<text text-anchor="start" x="557.15" y="-86.2" font-family="Arial" font-size="14.00">recdatecreated </text>
<text text-anchor="start" x="654.43" y="-86.2" font-family="Arial" font-size="14.00" fill="#666666">[timestamp(0) without time zone]</text>
<polygon fill="none" stroke="black" points="550.15,-43.2 550.15,-74 869.95,-74 869.95,-43.2 550.15,-43.2"/>
<text text-anchor="start" x="557.15" y="-55.4" font-family="Arial" font-size="14.00">recdatemodified </text>
<text text-anchor="start" x="660.65" y="-55.4" font-family="Arial" font-size="14.00" fill="#666666">[timestamp(0) without time zone]</text>
</g>
<!-- ndb.ecolgroups&#45;&gt;ndb.taxa -->
<g id="edge2" class="edge">
<title>ndb.ecolgroups:taxonid&#45;&gt;ndb.taxa:taxonid</title>
<path fill="none" stroke="black" d="M880.98,-768.67C940.1,-740.12 936.76,-459 870.95,-459"/>
<polygon fill="black" stroke="black" points="881.02,-768.66 870.26,-766.54 875.82,-769.87 871.6,-770.85 871.6,-770.85 871.6,-770.85 875.82,-769.87 872.3,-775.31 881.02,-768.66"/>
<text text-anchor="start" x="877.95" y="-781" font-family="Arial" font-size="10.00">FOREIGN KEY (taxonid) REFERENCES ndb.taxa(taxonid) ON UPDATE CASCADE ON DELETE CASCADE</text>
</g>
<!-- ndb.ecolgrouptypes -->
<g id="node4" class="node">
<title>ndb.ecolgrouptypes</title>
<polygon fill="#efefef" stroke="none" points="974.15,-320.4 974.15,-356 1293.95,-356 1293.95,-320.4 974.15,-320.4"/>
<polygon fill="none" stroke="black" points="974.15,-320.4 974.15,-356 1293.95,-356 1293.95,-320.4 974.15,-320.4"/>
<text text-anchor="start" x="1001.07" y="-333.8" font-family="Arial Bold" font-size="18.00">ndb.ecolgrouptypes</text>
<text text-anchor="start" x="1142.54" y="-333.8" font-family="Arial" font-size="14.00">    </text>
<text text-anchor="start" x="1173.66" y="-333.8" font-family="Arial" font-size="14.00" fill="#666666">[BASE TABLE]</text>
<polygon fill="none" stroke="black" points="974.15,-289.6 974.15,-320.4 1293.95,-320.4 1293.95,-289.6 974.15,-289.6"/>
<text text-anchor="start" x="981.15" y="-301.8" font-family="Arial" font-size="14.00">ecolgroupid </text>
<text text-anchor="start" x="1057.43" y="-301.8" font-family="Arial" font-size="14.00" fill="#666666">[varchar(4)]</text>
<polygon fill="none" stroke="black" points="974.15,-258.8 974.15,-289.6 1293.95,-289.6 1293.95,-258.8 974.15,-258.8"/>
<text text-anchor="start" x="981.15" y="-271" font-family="Arial" font-size="14.00">ecolgroup </text>
<text text-anchor="start" x="1046.53" y="-271" font-family="Arial" font-size="14.00" fill="#666666">[varchar(64)]</text>
<polygon fill="none" stroke="black" points="974.15,-228 974.15,-258.8 1293.95,-258.8 1293.95,-228 974.15,-228"/>
<text text-anchor="start" x="981.15" y="-240.2" font-family="Arial" font-size="14.00">recdatecreated </text>
<text text-anchor="start" x="1078.43" y="-240.2" font-family="Arial" font-size="14.00" fill="#666666">[timestamp(0) without time zone]</text>
<polygon fill="none" stroke="black" points="974.15,-197.2 974.15,-228 1293.95,-228 1293.95,-197.2 974.15,-197.2"/>
<text text-anchor="start" x="981.15" y="-209.4" font-family="Arial" font-size="14.00">recdatemodified </text>
<text text-anchor="start" x="1084.65" y="-209.4" font-family="Arial" font-size="14.00" fill="#666666">[timestamp(0) without time zone]</text>
</g>
<!-- ndb.ecolgroups&#45;&gt;ndb.ecolgrouptypes -->
<g id="edge3" class="edge">
<title>ndb.ecolgroups:ecolgroupid&#45;&gt;ndb.ecolgrouptypes:ecolgroupid</title>
<path fill="none" stroke="black" d="M881.22,-708.75C940.01,-700.74 904.25,-620.21 922.05,-553.2 936.51,-498.77 916.84,-305 973.15,-305"/>
<polygon fill="black" stroke="black" points="881.26,-708.75 871,-704.89 875.94,-709.08 871.62,-709.36 871.62,-709.36 871.62,-709.36 875.94,-709.08 871.57,-713.87 881.26,-708.75"/>
<text text-anchor="start" x="877.95" y="-719.4" font-family="Arial" font-size="10.00">FOREIGN KEY (ecolgroupid) REFERENCES ndb.ecolgrouptypes(ecolgroupid) ON UPDATE CASCADE ON DELETE CASCADE</text>
</g>
</g>
</svg>
