<?xml version="1.0" encoding="UTF-8" standalone="no"?>
<!DOCTYPE svg PUBLIC "-//W3C//DTD SVG 1.1//EN"
 "http://www.w3.org/Graphics/SVG/1.1/DTD/svg11.dtd">
<!-- Generated by graphviz version 12.1.2 (20240928.0832)
 -->
<!-- Title: ndb.specimengenbank Pages: 1 -->
<svg width="3448pt" height="1462pt"
 viewBox="0.00 0.00 3447.79 1462.40" xmlns="http://www.w3.org/2000/svg" xmlns:xlink="http://www.w3.org/1999/xlink">
<g id="graph0" class="graph" transform="scale(1 1) rotate(0) translate(4 1458.4)">
<title>ndb.specimengenbank</title>
<polygon fill="white" stroke="none" points="-4,4 -4,-1458.4 3443.79,-1458.4 3443.79,4 -4,4"/>
<!-- ndb.specimengenbank -->
<g id="node1" class="node">
<title>ndb.specimengenbank</title>
<polygon fill="#efefef" stroke="none" points="908.63,-1252.4 908.63,-1288 1207.57,-1288 1207.57,-1252.4 908.63,-1252.4"/>
<polygon fill="none" stroke="black" points="908.63,-1252.4 908.63,-1288 1207.57,-1288 1207.57,-1252.4 908.63,-1252.4"/>
<text text-anchor="start" x="915.63" y="-1265.8" font-family="Arial Bold" font-size="18.00">ndb.specimengenbank</text>
<text text-anchor="start" x="1076.08" y="-1265.8" font-family="Arial" font-size="14.00">    </text>
<text text-anchor="start" x="1107.2" y="-1265.8" font-family="Arial" font-size="14.00" fill="#666666">[BASE TABLE]</text>
<polygon fill="none" stroke="black" points="908.63,-1221.6 908.63,-1252.4 1207.57,-1252.4 1207.57,-1221.6 908.63,-1221.6"/>
<text text-anchor="start" x="915.63" y="-1233.8" font-family="Arial" font-size="14.00">specimenid </text>
<text text-anchor="start" x="990.33" y="-1233.8" font-family="Arial" font-size="14.00" fill="#666666">[integer]</text>
<polygon fill="none" stroke="black" points="908.63,-1190.8 908.63,-1221.6 1207.57,-1221.6 1207.57,-1190.8 908.63,-1190.8"/>
<text text-anchor="start" x="915.63" y="-1203" font-family="Arial" font-size="14.00">genbanknr </text>
<text text-anchor="start" x="985.68" y="-1203" font-family="Arial" font-size="14.00" fill="#666666">[varchar(50)]</text>
<polygon fill="none" stroke="black" stroke-width="3" points="907.13,-1189.3 907.13,-1289.5 1209.07,-1289.5 1209.07,-1189.3 907.13,-1189.3"/>
</g>
<!-- ndb.specimens -->
<g id="node2" class="node">
<title>ndb.specimens</title>
<polygon fill="#efefef" stroke="none" points="1527.2,-909.6 1527.2,-945.2 1847,-945.2 1847,-909.6 1527.2,-909.6"/>
<polygon fill="none" stroke="black" points="1527.2,-909.6 1527.2,-945.2 1847,-945.2 1847,-909.6 1527.2,-909.6"/>
<text text-anchor="start" x="1571.62" y="-923" font-family="Arial Bold" font-size="18.00">ndb.specimens</text>
<text text-anchor="start" x="1678.09" y="-923" font-family="Arial" font-size="14.00">    </text>
<text text-anchor="start" x="1709.21" y="-923" font-family="Arial" font-size="14.00" fill="#666666">[BASE TABLE]</text>
<polygon fill="none" stroke="black" points="1527.2,-878.8 1527.2,-909.6 1847,-909.6 1847,-878.8 1527.2,-878.8"/>
<text text-anchor="start" x="1534.2" y="-891" font-family="Arial" font-size="14.00">specimenid </text>
<text text-anchor="start" x="1608.9" y="-891" font-family="Arial" font-size="14.00" fill="#666666">[integer]</text>
<polygon fill="none" stroke="black" points="1527.2,-848 1527.2,-878.8 1847,-878.8 1847,-848 1527.2,-848"/>
<text text-anchor="start" x="1534.2" y="-860.2" font-family="Arial" font-size="14.00">dataid </text>
<text text-anchor="start" x="1576.23" y="-860.2" font-family="Arial" font-size="14.00" fill="#666666">[integer]</text>
<polygon fill="none" stroke="black" points="1527.2,-817.2 1527.2,-848 1847,-848 1847,-817.2 1527.2,-817.2"/>
<text text-anchor="start" x="1534.2" y="-829.4" font-family="Arial" font-size="14.00">elementtypeid </text>
<text text-anchor="start" x="1625.25" y="-829.4" font-family="Arial" font-size="14.00" fill="#666666">[integer]</text>
<polygon fill="none" stroke="black" points="1527.2,-786.4 1527.2,-817.2 1847,-817.2 1847,-786.4 1527.2,-786.4"/>
<text text-anchor="start" x="1534.2" y="-798.6" font-family="Arial" font-size="14.00">symmetryid </text>
<text text-anchor="start" x="1609.65" y="-798.6" font-family="Arial" font-size="14.00" fill="#666666">[integer]</text>
<polygon fill="none" stroke="black" points="1527.2,-755.6 1527.2,-786.4 1847,-786.4 1847,-755.6 1527.2,-755.6"/>
<text text-anchor="start" x="1534.2" y="-767.8" font-family="Arial" font-size="14.00">portionid </text>
<text text-anchor="start" x="1591.79" y="-767.8" font-family="Arial" font-size="14.00" fill="#666666">[integer]</text>
<polygon fill="none" stroke="black" points="1527.2,-724.8 1527.2,-755.6 1847,-755.6 1847,-724.8 1527.2,-724.8"/>
<text text-anchor="start" x="1534.2" y="-737" font-family="Arial" font-size="14.00">maturityid </text>
<text text-anchor="start" x="1598.77" y="-737" font-family="Arial" font-size="14.00" fill="#666666">[integer]</text>
<polygon fill="none" stroke="black" points="1527.2,-694 1527.2,-724.8 1847,-724.8 1847,-694 1527.2,-694"/>
<text text-anchor="start" x="1534.2" y="-706.2" font-family="Arial" font-size="14.00">sexid </text>
<text text-anchor="start" x="1570.77" y="-706.2" font-family="Arial" font-size="14.00" fill="#666666">[integer]</text>
<polygon fill="none" stroke="black" points="1527.2,-663.2 1527.2,-694 1847,-694 1847,-663.2 1527.2,-663.2"/>
<text text-anchor="start" x="1534.2" y="-675.4" font-family="Arial" font-size="14.00">domesticstatusid </text>
<text text-anchor="start" x="1642.36" y="-675.4" font-family="Arial" font-size="14.00" fill="#666666">[integer]</text>
<polygon fill="none" stroke="black" points="1527.2,-632.4 1527.2,-663.2 1847,-663.2 1847,-632.4 1527.2,-632.4"/>
<text text-anchor="start" x="1534.2" y="-644.6" font-family="Arial" font-size="14.00">preservative </text>
<text text-anchor="start" x="1614.34" y="-644.6" font-family="Arial" font-size="14.00" fill="#666666">[varchar(256)]</text>
<polygon fill="none" stroke="black" points="1527.2,-601.6 1527.2,-632.4 1847,-632.4 1847,-601.6 1527.2,-601.6"/>
<text text-anchor="start" x="1534.2" y="-613.8" font-family="Arial" font-size="14.00">nisp </text>
<text text-anchor="start" x="1563.77" y="-613.8" font-family="Arial" font-size="14.00" fill="#666666">[double precision]</text>
<polygon fill="none" stroke="black" points="1527.2,-570.8 1527.2,-601.6 1847,-601.6 1847,-570.8 1527.2,-570.8"/>
<text text-anchor="start" x="1534.2" y="-583" font-family="Arial" font-size="14.00">repositoryid </text>
<text text-anchor="start" x="1610.45" y="-583" font-family="Arial" font-size="14.00" fill="#666666">[integer]</text>
<polygon fill="none" stroke="black" points="1527.2,-540 1527.2,-570.8 1847,-570.8 1847,-540 1527.2,-540"/>
<text text-anchor="start" x="1534.2" y="-552.2" font-family="Arial" font-size="14.00">specimennr </text>
<text text-anchor="start" x="1610.45" y="-552.2" font-family="Arial" font-size="14.00" fill="#666666">[varchar(50)]</text>
<polygon fill="none" stroke="black" points="1527.2,-509.2 1527.2,-540 1847,-540 1847,-509.2 1527.2,-509.2"/>
<text text-anchor="start" x="1534.2" y="-521.4" font-family="Arial" font-size="14.00">fieldnr </text>
<text text-anchor="start" x="1576.22" y="-521.4" font-family="Arial" font-size="14.00" fill="#666666">[varchar(50)]</text>
<polygon fill="none" stroke="black" points="1527.2,-478.4 1527.2,-509.2 1847,-509.2 1847,-478.4 1527.2,-478.4"/>
<text text-anchor="start" x="1534.2" y="-490.6" font-family="Arial" font-size="14.00">arctosnr </text>
<text text-anchor="start" x="1588.66" y="-490.6" font-family="Arial" font-size="14.00" fill="#666666">[varchar(50)]</text>
<polygon fill="none" stroke="black" points="1527.2,-447.6 1527.2,-478.4 1847,-478.4 1847,-447.6 1527.2,-447.6"/>
<text text-anchor="start" x="1534.2" y="-459.8" font-family="Arial" font-size="14.00">notes </text>
<text text-anchor="start" x="1572.34" y="-459.8" font-family="Arial" font-size="14.00" fill="#666666">[text]</text>
<polygon fill="none" stroke="black" points="1527.2,-416.8 1527.2,-447.6 1847,-447.6 1847,-416.8 1527.2,-416.8"/>
<text text-anchor="start" x="1534.2" y="-429" font-family="Arial" font-size="14.00">recdatecreated </text>
<text text-anchor="start" x="1631.48" y="-429" font-family="Arial" font-size="14.00" fill="#666666">[timestamp(0) without time zone]</text>
<polygon fill="none" stroke="black" points="1527.2,-386 1527.2,-416.8 1847,-416.8 1847,-386 1527.2,-386"/>
<text text-anchor="start" x="1534.2" y="-398.2" font-family="Arial" font-size="14.00">recdatemodified </text>
<text text-anchor="start" x="1637.7" y="-398.2" font-family="Arial" font-size="14.00" fill="#666666">[timestamp(0) without time zone]</text>
</g>
<!-- ndb.specimengenbank&#45;&gt;ndb.specimens -->
<g id="edge1" class="edge">
<title>ndb.specimengenbank:specimenid&#45;&gt;ndb.specimens:specimenid</title>
<path fill="none" stroke="black" d="M1218.61,-1236.44C1298.59,-1226.93 1203.95,-1097.37 1263.1,-1024.4 1345.26,-923.05 1395.73,-894.2 1526.2,-894.2"/>
<polygon fill="black" stroke="black" points="1218.89,-1236.43 1208.66,-1232.49 1213.56,-1236.72 1209.24,-1236.96 1209.24,-1236.96 1209.24,-1236.96 1213.56,-1236.72 1209.15,-1241.47 1218.89,-1236.43"/>
<text text-anchor="start" x="651.98" y="-1247" font-family="Arial" font-size="10.00">FOREIGN KEY (specimenid) REFERENCES ndb.specimens(specimenid) ON UPDATE CASCADE ON DELETE CASCADE</text>
</g>
<!-- ndb.data -->
<g id="node6" class="node">
<title>ndb.data</title>
<polygon fill="#efefef" stroke="none" points="43.2,-228 43.2,-263.6 363,-263.6 363,-228 43.2,-228"/>
<polygon fill="none" stroke="black" points="43.2,-228 43.2,-263.6 363,-263.6 363,-228 43.2,-228"/>
<text text-anchor="start" x="110.12" y="-241.4" font-family="Arial Bold" font-size="18.00">ndb.data</text>
<text text-anchor="start" x="171.59" y="-241.4" font-family="Arial" font-size="14.00">    </text>
<text text-anchor="start" x="202.71" y="-241.4" font-family="Arial" font-size="14.00" fill="#666666">[BASE TABLE]</text>
<polygon fill="none" stroke="black" points="43.2,-197.2 43.2,-228 363,-228 363,-197.2 43.2,-197.2"/>
<text text-anchor="start" x="50.2" y="-209.4" font-family="Arial" font-size="14.00">dataid </text>
<text text-anchor="start" x="92.23" y="-209.4" font-family="Arial" font-size="14.00" fill="#666666">[integer]</text>
<polygon fill="none" stroke="black" points="43.2,-166.4 43.2,-197.2 363,-197.2 363,-166.4 43.2,-166.4"/>
<text text-anchor="start" x="50.2" y="-178.6" font-family="Arial" font-size="14.00">sampleid </text>
<text text-anchor="start" x="110.12" y="-178.6" font-family="Arial" font-size="14.00" fill="#666666">[integer]</text>
<polygon fill="none" stroke="black" points="43.2,-135.6 43.2,-166.4 363,-166.4 363,-135.6 43.2,-135.6"/>
<text text-anchor="start" x="50.2" y="-147.8" font-family="Arial" font-size="14.00">variableid </text>
<text text-anchor="start" x="114.01" y="-147.8" font-family="Arial" font-size="14.00" fill="#666666">[integer]</text>
<polygon fill="none" stroke="black" points="43.2,-104.8 43.2,-135.6 363,-135.6 363,-104.8 43.2,-104.8"/>
<text text-anchor="start" x="50.2" y="-117" font-family="Arial" font-size="14.00">value </text>
<text text-anchor="start" x="87.56" y="-117" font-family="Arial" font-size="14.00" fill="#666666">[double precision]</text>
<polygon fill="none" stroke="black" points="43.2,-74 43.2,-104.8 363,-104.8 363,-74 43.2,-74"/>
<text text-anchor="start" x="50.2" y="-86.2" font-family="Arial" font-size="14.00">recdatecreated </text>
<text text-anchor="start" x="147.48" y="-86.2" font-family="Arial" font-size="14.00" fill="#666666">[timestamp(0) without time zone]</text>
<polygon fill="none" stroke="black" points="43.2,-43.2 43.2,-74 363,-74 363,-43.2 43.2,-43.2"/>
<text text-anchor="start" x="50.2" y="-55.4" font-family="Arial" font-size="14.00">recdatemodified </text>
<text text-anchor="start" x="153.7" y="-55.4" font-family="Arial" font-size="14.00" fill="#666666">[timestamp(0) without time zone]</text>
</g>
<!-- ndb.specimens&#45;&gt;ndb.data -->
<g id="edge5" class="edge">
<title>ndb.specimens:dataid&#45;&gt;ndb.data:dataid</title>
<path fill="none" stroke="black" d="M1516.13,-863.38C971.9,-861.29 809.55,-688.58 415.1,-306.8 380.87,-273.67 411.63,-212.6 364,-212.6"/>
<polygon fill="black" stroke="black" points="1515.87,-863.38 1525.86,-867.9 1521.2,-863.39 1525.53,-863.4 1525.53,-863.4 1525.53,-863.4 1521.2,-863.39 1525.87,-858.9 1515.87,-863.38"/>
<text text-anchor="start" x="1044.62" y="-873.4" font-family="Arial" font-size="10.00">FOREIGN KEY (dataid) REFERENCES ndb.data(dataid) ON UPDATE CASCADE ON DELETE CASCADE</text>
</g>
<!-- ndb.elementtypes -->
<g id="node7" class="node">
<title>ndb.elementtypes</title>
<polygon fill="#efefef" stroke="none" points="467.2,-197.2 467.2,-232.8 787,-232.8 787,-197.2 467.2,-197.2"/>
<polygon fill="none" stroke="black" points="467.2,-197.2 467.2,-232.8 787,-232.8 787,-197.2 467.2,-197.2"/>
<text text-anchor="start" x="501.62" y="-210.6" font-family="Arial Bold" font-size="18.00">ndb.elementtypes</text>
<text text-anchor="start" x="628.09" y="-210.6" font-family="Arial" font-size="14.00">    </text>
<text text-anchor="start" x="659.2" y="-210.6" font-family="Arial" font-size="14.00" fill="#666666">[BASE TABLE]</text>
<polygon fill="none" stroke="black" points="467.2,-166.4 467.2,-197.2 787,-197.2 787,-166.4 467.2,-166.4"/>
<text text-anchor="start" x="474.2" y="-178.6" font-family="Arial" font-size="14.00">elementtypeid </text>
<text text-anchor="start" x="565.25" y="-178.6" font-family="Arial" font-size="14.00" fill="#666666">[integer]</text>
<polygon fill="none" stroke="black" points="467.2,-135.6 467.2,-166.4 787,-166.4 787,-135.6 467.2,-135.6"/>
<text text-anchor="start" x="474.2" y="-147.8" font-family="Arial" font-size="14.00">elementtype </text>
<text text-anchor="start" x="554.36" y="-147.8" font-family="Arial" font-size="14.00" fill="#666666">[varchar(64)]</text>
<polygon fill="none" stroke="black" points="467.2,-104.8 467.2,-135.6 787,-135.6 787,-104.8 467.2,-104.8"/>
<text text-anchor="start" x="474.2" y="-117" font-family="Arial" font-size="14.00">recdatecreated </text>
<text text-anchor="start" x="571.48" y="-117" font-family="Arial" font-size="14.00" fill="#666666">[timestamp(0) without time zone]</text>
<polygon fill="none" stroke="black" points="467.2,-74 467.2,-104.8 787,-104.8 787,-74 467.2,-74"/>
<text text-anchor="start" x="474.2" y="-86.2" font-family="Arial" font-size="14.00">recdatemodified </text>
<text text-anchor="start" x="577.7" y="-86.2" font-family="Arial" font-size="14.00" fill="#666666">[timestamp(0) without time zone]</text>
</g>
<!-- ndb.specimens&#45;&gt;ndb.elementtypes -->
<g id="edge6" class="edge">
<title>ndb.specimens:elementtypeid&#45;&gt;ndb.elementtypes:elementtypeid</title>
<path fill="none" stroke="black" d="M1515.86,-832.55C1140.41,-828.61 1070.57,-609.5 839.1,-306.8 802.64,-259.12 848.02,-181.8 788,-181.8"/>
<polygon fill="black" stroke="black" points="1515.87,-832.55 1525.84,-837.1 1521.2,-832.57 1525.53,-832.6 1525.53,-832.6 1525.53,-832.6 1521.2,-832.57 1525.89,-828.1 1515.87,-832.55"/>
<text text-anchor="start" x="934.57" y="-842.6" font-family="Arial" font-size="10.00">FOREIGN KEY (elementtypeid) REFERENCES ndb.elementtypes(elementtypeid) ON UPDATE CASCADE ON DELETE CASCADE</text>
</g>
<!-- ndb.elementsymmetries -->
<g id="node8" class="node">
<title>ndb.elementsymmetries</title>
<polygon fill="#efefef" stroke="none" points="891.2,-197.2 891.2,-232.8 1211,-232.8 1211,-197.2 891.2,-197.2"/>
<polygon fill="none" stroke="black" points="891.2,-197.2 891.2,-232.8 1211,-232.8 1211,-197.2 891.2,-197.2"/>
<text text-anchor="start" x="903.13" y="-210.6" font-family="Arial Bold" font-size="18.00">ndb.elementsymmetries</text>
<text text-anchor="start" x="1074.58" y="-210.6" font-family="Arial" font-size="14.00">    </text>
<text text-anchor="start" x="1105.7" y="-210.6" font-family="Arial" font-size="14.00" fill="#666666">[BASE TABLE]</text>
<polygon fill="none" stroke="black" points="891.2,-166.4 891.2,-197.2 1211,-197.2 1211,-166.4 891.2,-166.4"/>
<text text-anchor="start" x="898.2" y="-178.6" font-family="Arial" font-size="14.00">symmetryid </text>
<text text-anchor="start" x="973.65" y="-178.6" font-family="Arial" font-size="14.00" fill="#666666">[integer]</text>
<polygon fill="none" stroke="black" points="891.2,-135.6 891.2,-166.4 1211,-166.4 1211,-135.6 891.2,-135.6"/>
<text text-anchor="start" x="898.2" y="-147.8" font-family="Arial" font-size="14.00">symmetry </text>
<text text-anchor="start" x="962.75" y="-147.8" font-family="Arial" font-size="14.00" fill="#666666">[varchar(24)]</text>
<polygon fill="none" stroke="black" points="891.2,-104.8 891.2,-135.6 1211,-135.6 1211,-104.8 891.2,-104.8"/>
<text text-anchor="start" x="898.2" y="-117" font-family="Arial" font-size="14.00">recdatecreated </text>
<text text-anchor="start" x="995.48" y="-117" font-family="Arial" font-size="14.00" fill="#666666">[timestamp(0) without time zone]</text>
<polygon fill="none" stroke="black" points="891.2,-74 891.2,-104.8 1211,-104.8 1211,-74 891.2,-74"/>
<text text-anchor="start" x="898.2" y="-86.2" font-family="Arial" font-size="14.00">recdatemodified </text>
<text text-anchor="start" x="1001.7" y="-86.2" font-family="Arial" font-size="14.00" fill="#666666">[timestamp(0) without time zone]</text>
</g>
<!-- ndb.specimens&#45;&gt;ndb.elementsymmetries -->
<g id="edge7" class="edge">
<title>ndb.specimens:symmetryid&#45;&gt;ndb.elementsymmetries:symmetryid</title>
<path fill="none" stroke="black" d="M1515.82,-801.64C1279.61,-794.18 1367.34,-529.2 1263.1,-306.8 1237.63,-252.45 1272.02,-181.8 1212,-181.8"/>
<polygon fill="black" stroke="black" points="1515.87,-801.64 1525.8,-806.29 1521.2,-801.72 1525.53,-801.79 1525.53,-801.79 1525.53,-801.79 1521.2,-801.72 1525.94,-797.3 1515.87,-801.64"/>
<text text-anchor="start" x="1152.48" y="-811.8" font-family="Arial" font-size="10.00">FOREIGN KEY (symmetryid) REFERENCES ndb.elementsymmetries(symmetryid)</text>
</g>
<!-- ndb.elementportions -->
<g id="node9" class="node">
<title>ndb.elementportions</title>
<polygon fill="#efefef" stroke="none" points="1315.2,-197.2 1315.2,-232.8 1635,-232.8 1635,-197.2 1315.2,-197.2"/>
<polygon fill="none" stroke="black" points="1315.2,-197.2 1315.2,-232.8 1635,-232.8 1635,-197.2 1315.2,-197.2"/>
<text text-anchor="start" x="1339.12" y="-210.6" font-family="Arial Bold" font-size="18.00">ndb.elementportions</text>
<text text-anchor="start" x="1486.59" y="-210.6" font-family="Arial" font-size="14.00">    </text>
<text text-anchor="start" x="1517.71" y="-210.6" font-family="Arial" font-size="14.00" fill="#666666">[BASE TABLE]</text>
<polygon fill="none" stroke="black" points="1315.2,-166.4 1315.2,-197.2 1635,-197.2 1635,-166.4 1315.2,-166.4"/>
<text text-anchor="start" x="1322.2" y="-178.6" font-family="Arial" font-size="14.00">portionid </text>
<text text-anchor="start" x="1379.79" y="-178.6" font-family="Arial" font-size="14.00" fill="#666666">[integer]</text>
<polygon fill="none" stroke="black" points="1315.2,-135.6 1315.2,-166.4 1635,-166.4 1635,-135.6 1315.2,-135.6"/>
<text text-anchor="start" x="1322.2" y="-147.8" font-family="Arial" font-size="14.00">portion </text>
<text text-anchor="start" x="1368.9" y="-147.8" font-family="Arial" font-size="14.00" fill="#666666">[varchar(48)]</text>
<polygon fill="none" stroke="black" points="1315.2,-104.8 1315.2,-135.6 1635,-135.6 1635,-104.8 1315.2,-104.8"/>
<text text-anchor="start" x="1322.2" y="-117" font-family="Arial" font-size="14.00">recdatecreated </text>
<text text-anchor="start" x="1419.48" y="-117" font-family="Arial" font-size="14.00" fill="#666666">[timestamp(0) without time zone]</text>
<polygon fill="none" stroke="black" points="1315.2,-74 1315.2,-104.8 1635,-104.8 1635,-74 1315.2,-74"/>
<text text-anchor="start" x="1322.2" y="-86.2" font-family="Arial" font-size="14.00">recdatemodified </text>
<text text-anchor="start" x="1425.7" y="-86.2" font-family="Arial" font-size="14.00" fill="#666666">[timestamp(0) without time zone]</text>
</g>
<!-- ndb.specimens&#45;&gt;ndb.elementportions -->
<g id="edge8" class="edge">
<title>ndb.specimens:portionid&#45;&gt;ndb.elementportions:portionid</title>
<path fill="none" stroke="black" d="M1515.9,-770.73C1339.54,-761.31 1436.15,-505.89 1527.2,-342.8 1554.68,-293.59 1607.32,-325.1 1635,-276 1655.56,-239.53 1677.87,-181.8 1636,-181.8"/>
<polygon fill="black" stroke="black" points="1515.87,-770.73 1525.75,-775.49 1521.2,-770.87 1525.53,-770.98 1525.53,-770.98 1525.53,-770.98 1521.2,-770.87 1525.98,-766.49 1515.87,-770.73"/>
<text text-anchor="start" x="1193.52" y="-781" font-family="Arial" font-size="10.00">FOREIGN KEY (portionid) REFERENCES ndb.elementportions(portionid)</text>
</g>
<!-- ndb.elementmaturities -->
<g id="node10" class="node">
<title>ndb.elementmaturities</title>
<polygon fill="#efefef" stroke="none" points="1739.2,-197.2 1739.2,-232.8 2059,-232.8 2059,-197.2 1739.2,-197.2"/>
<polygon fill="none" stroke="black" points="1739.2,-197.2 1739.2,-232.8 2059,-232.8 2059,-197.2 1739.2,-197.2"/>
<text text-anchor="start" x="1756.63" y="-210.6" font-family="Arial Bold" font-size="18.00">ndb.elementmaturities</text>
<text text-anchor="start" x="1917.08" y="-210.6" font-family="Arial" font-size="14.00">    </text>
<text text-anchor="start" x="1948.2" y="-210.6" font-family="Arial" font-size="14.00" fill="#666666">[BASE TABLE]</text>
<polygon fill="none" stroke="black" points="1739.2,-166.4 1739.2,-197.2 2059,-197.2 2059,-166.4 1739.2,-166.4"/>
<text text-anchor="start" x="1746.2" y="-178.6" font-family="Arial" font-size="14.00">maturityid </text>
<text text-anchor="start" x="1810.77" y="-178.6" font-family="Arial" font-size="14.00" fill="#666666">[integer]</text>
<polygon fill="none" stroke="black" points="1739.2,-135.6 1739.2,-166.4 2059,-166.4 2059,-135.6 1739.2,-135.6"/>
<text text-anchor="start" x="1746.2" y="-147.8" font-family="Arial" font-size="14.00">maturity </text>
<text text-anchor="start" x="1799.88" y="-147.8" font-family="Arial" font-size="14.00" fill="#666666">[varchar(36)]</text>
<polygon fill="none" stroke="black" points="1739.2,-104.8 1739.2,-135.6 2059,-135.6 2059,-104.8 1739.2,-104.8"/>
<text text-anchor="start" x="1746.2" y="-117" font-family="Arial" font-size="14.00">recdatecreated </text>
<text text-anchor="start" x="1843.48" y="-117" font-family="Arial" font-size="14.00" fill="#666666">[timestamp(0) without time zone]</text>
<polygon fill="none" stroke="black" points="1739.2,-74 1739.2,-104.8 2059,-104.8 2059,-74 1739.2,-74"/>
<text text-anchor="start" x="1746.2" y="-86.2" font-family="Arial" font-size="14.00">recdatemodified </text>
<text text-anchor="start" x="1849.7" y="-86.2" font-family="Arial" font-size="14.00" fill="#666666">[timestamp(0) without time zone]</text>
</g>
<!-- ndb.specimens&#45;&gt;ndb.elementmaturities -->
<g id="edge9" class="edge">
<title>ndb.specimens:maturityid&#45;&gt;ndb.elementmaturities:maturityid</title>
<path fill="none" stroke="black" d="M1858.04,-739.92C2021.05,-730.73 1931.43,-494 1847,-342.8 1819.52,-293.59 1766.88,-325.1 1739.2,-276 1718.64,-239.53 1696.33,-181.8 1738.2,-181.8"/>
<polygon fill="black" stroke="black" points="1858.33,-739.92 1848.21,-735.69 1853,-740.06 1848.67,-740.18 1848.67,-740.18 1848.67,-740.18 1853,-740.06 1848.46,-744.69 1858.33,-739.92"/>
<text text-anchor="start" x="1855" y="-750.2" font-family="Arial" font-size="10.00">FOREIGN KEY (maturityid) REFERENCES ndb.elementmaturities(maturityid)</text>
</g>
<!-- ndb.specimensextypes -->
<g id="node11" class="node">
<title>ndb.specimensextypes</title>
<polygon fill="#efefef" stroke="none" points="2163.2,-197.2 2163.2,-232.8 2483,-232.8 2483,-197.2 2163.2,-197.2"/>
<polygon fill="none" stroke="black" points="2163.2,-197.2 2163.2,-232.8 2483,-232.8 2483,-197.2 2163.2,-197.2"/>
<text text-anchor="start" x="2180.12" y="-210.6" font-family="Arial Bold" font-size="18.00">ndb.specimensextypes</text>
<text text-anchor="start" x="2341.59" y="-210.6" font-family="Arial" font-size="14.00">    </text>
<text text-anchor="start" x="2372.7" y="-210.6" font-family="Arial" font-size="14.00" fill="#666666">[BASE TABLE]</text>
<polygon fill="none" stroke="black" points="2163.2,-166.4 2163.2,-197.2 2483,-197.2 2483,-166.4 2163.2,-166.4"/>
<text text-anchor="start" x="2170.2" y="-178.6" font-family="Arial" font-size="14.00">sexid </text>
<text text-anchor="start" x="2206.77" y="-178.6" font-family="Arial" font-size="14.00" fill="#666666">[integer]</text>
<polygon fill="none" stroke="black" points="2163.2,-135.6 2163.2,-166.4 2483,-166.4 2483,-135.6 2163.2,-135.6"/>
<text text-anchor="start" x="2170.2" y="-147.8" font-family="Arial" font-size="14.00">sex </text>
<text text-anchor="start" x="2195.88" y="-147.8" font-family="Arial" font-size="14.00" fill="#666666">[varchar(24)]</text>
<polygon fill="none" stroke="black" points="2163.2,-104.8 2163.2,-135.6 2483,-135.6 2483,-104.8 2163.2,-104.8"/>
<text text-anchor="start" x="2170.2" y="-117" font-family="Arial" font-size="14.00">recdatecreated </text>
<text text-anchor="start" x="2267.48" y="-117" font-family="Arial" font-size="14.00" fill="#666666">[timestamp(0) without time zone]</text>
<polygon fill="none" stroke="black" points="2163.2,-74 2163.2,-104.8 2483,-104.8 2483,-74 2163.2,-74"/>
<text text-anchor="start" x="2170.2" y="-86.2" font-family="Arial" font-size="14.00">recdatemodified </text>
<text text-anchor="start" x="2273.7" y="-86.2" font-family="Arial" font-size="14.00" fill="#666666">[timestamp(0) without time zone]</text>
</g>
<!-- ndb.specimens&#45;&gt;ndb.specimensextypes -->
<g id="edge10" class="edge">
<title>ndb.specimens:sexid&#45;&gt;ndb.specimensextypes:sexid</title>
<path fill="none" stroke="black" d="M1858.43,-709.22C2060.13,-702.32 2013.39,-492.91 2111.1,-306.8 2139,-253.66 2102.18,-181.8 2162.2,-181.8"/>
<polygon fill="black" stroke="black" points="1858.33,-709.23 1848.26,-704.9 1853,-709.32 1848.67,-709.39 1848.67,-709.39 1848.67,-709.39 1853,-709.32 1848.41,-713.89 1858.33,-709.23"/>
<text text-anchor="start" x="1855" y="-719.4" font-family="Arial" font-size="10.00">FOREIGN KEY (sexid) REFERENCES ndb.specimensextypes(sexid) ON UPDATE CASCADE ON DELETE CASCADE</text>
</g>
<!-- ndb.specimendomesticstatustypes -->
<g id="node12" class="node">
<title>ndb.specimendomesticstatustypes</title>
<polygon fill="#efefef" stroke="none" points="2587.13,-197.2 2587.13,-232.8 2969.07,-232.8 2969.07,-197.2 2587.13,-197.2"/>
<polygon fill="none" stroke="black" points="2587.13,-197.2 2587.13,-232.8 2969.07,-232.8 2969.07,-197.2 2587.13,-197.2"/>
<text text-anchor="start" x="2594.13" y="-210.6" font-family="Arial Bold" font-size="18.00">ndb.specimendomesticstatustypes</text>
<text text-anchor="start" x="2837.58" y="-210.6" font-family="Arial" font-size="14.00">    </text>
<text text-anchor="start" x="2868.7" y="-210.6" font-family="Arial" font-size="14.00" fill="#666666">[BASE TABLE]</text>
<polygon fill="none" stroke="black" points="2587.13,-166.4 2587.13,-197.2 2969.07,-197.2 2969.07,-166.4 2587.13,-166.4"/>
<text text-anchor="start" x="2594.13" y="-178.6" font-family="Arial" font-size="14.00">domesticstatusid </text>
<text text-anchor="start" x="2702.28" y="-178.6" font-family="Arial" font-size="14.00" fill="#666666">[integer]</text>
<polygon fill="none" stroke="black" points="2587.13,-135.6 2587.13,-166.4 2969.07,-166.4 2969.07,-135.6 2587.13,-135.6"/>
<text text-anchor="start" x="2594.13" y="-147.8" font-family="Arial" font-size="14.00">domesticstatus </text>
<text text-anchor="start" x="2691.39" y="-147.8" font-family="Arial" font-size="14.00" fill="#666666">[varchar(24)]</text>
<polygon fill="none" stroke="black" points="2587.13,-104.8 2587.13,-135.6 2969.07,-135.6 2969.07,-104.8 2587.13,-104.8"/>
<text text-anchor="start" x="2594.13" y="-117" font-family="Arial" font-size="14.00">recdatecreated </text>
<text text-anchor="start" x="2691.41" y="-117" font-family="Arial" font-size="14.00" fill="#666666">[timestamp(0) without time zone]</text>
<polygon fill="none" stroke="black" points="2587.13,-74 2587.13,-104.8 2969.07,-104.8 2969.07,-74 2587.13,-74"/>
<text text-anchor="start" x="2594.13" y="-86.2" font-family="Arial" font-size="14.00">recdatemodified </text>
<text text-anchor="start" x="2697.63" y="-86.2" font-family="Arial" font-size="14.00" fill="#666666">[timestamp(0) without time zone]</text>
</g>
<!-- ndb.specimens&#45;&gt;ndb.specimendomesticstatustypes -->
<g id="edge11" class="edge">
<title>ndb.specimens:domesticstatusid&#45;&gt;ndb.specimendomesticstatustypes:domesticstatusid</title>
<path fill="none" stroke="black" d="M1858.35,-678.57C2197.39,-676.32 2305.56,-562.68 2535.1,-306.8 2575.17,-262.13 2526.12,-181.8 2586.13,-181.8"/>
<polygon fill="black" stroke="black" points="1858.33,-678.57 1848.32,-674.1 1853,-678.58 1848.67,-678.6 1848.67,-678.6 1848.67,-678.6 1853,-678.58 1848.35,-683.1 1858.33,-678.57"/>
<text text-anchor="start" x="1855" y="-688.6" font-family="Arial" font-size="10.00">FOREIGN KEY (domesticstatusid) REFERENCES ndb.specimendomesticstatustypes(domesticstatusid) ON UPDATE CASCADE ON DELETE CASCADE</text>
</g>
<!-- ndb.repositoryinstitutions -->
<g id="node13" class="node">
<title>ndb.repositoryinstitutions</title>
<polygon fill="#efefef" stroke="none" points="3073.6,-228 3073.6,-263.6 3396.59,-263.6 3396.59,-228 3073.6,-228"/>
<polygon fill="none" stroke="black" points="3073.6,-228 3073.6,-263.6 3396.59,-263.6 3396.59,-228 3073.6,-228"/>
<text text-anchor="start" x="3080.6" y="-241.4" font-family="Arial Bold" font-size="18.00">ndb.repositoryinstitutions</text>
<text text-anchor="start" x="3265.1" y="-241.4" font-family="Arial" font-size="14.00">    </text>
<text text-anchor="start" x="3296.22" y="-241.4" font-family="Arial" font-size="14.00" fill="#666666">[BASE TABLE]</text>
<polygon fill="none" stroke="black" points="3073.6,-197.2 3073.6,-228 3396.59,-228 3396.59,-197.2 3073.6,-197.2"/>
<text text-anchor="start" x="3080.6" y="-209.4" font-family="Arial" font-size="14.00">repositoryid </text>
<text text-anchor="start" x="3156.86" y="-209.4" font-family="Arial" font-size="14.00" fill="#666666">[integer]</text>
<polygon fill="none" stroke="black" points="3073.6,-166.4 3073.6,-197.2 3396.59,-197.2 3396.59,-166.4 3073.6,-166.4"/>
<text text-anchor="start" x="3080.6" y="-178.6" font-family="Arial" font-size="14.00">acronym </text>
<text text-anchor="start" x="3138.18" y="-178.6" font-family="Arial" font-size="14.00" fill="#666666">[varchar(64)]</text>
<polygon fill="none" stroke="black" points="3073.6,-135.6 3073.6,-166.4 3396.59,-166.4 3396.59,-135.6 3073.6,-135.6"/>
<text text-anchor="start" x="3080.6" y="-147.8" font-family="Arial" font-size="14.00">repository </text>
<text text-anchor="start" x="3145.96" y="-147.8" font-family="Arial" font-size="14.00" fill="#666666">[varchar(128)]</text>
<polygon fill="none" stroke="black" points="3073.6,-104.8 3073.6,-135.6 3396.59,-135.6 3396.59,-104.8 3073.6,-104.8"/>
<text text-anchor="start" x="3080.6" y="-117" font-family="Arial" font-size="14.00">notes </text>
<text text-anchor="start" x="3118.74" y="-117" font-family="Arial" font-size="14.00" fill="#666666">[text]</text>
<polygon fill="none" stroke="black" points="3073.6,-74 3073.6,-104.8 3396.59,-104.8 3396.59,-74 3073.6,-74"/>
<text text-anchor="start" x="3080.6" y="-86.2" font-family="Arial" font-size="14.00">recdatecreated </text>
<text text-anchor="start" x="3177.89" y="-86.2" font-family="Arial" font-size="14.00" fill="#666666">[timestamp(0) without time zone]</text>
<polygon fill="none" stroke="black" points="3073.6,-43.2 3073.6,-74 3396.59,-74 3396.59,-43.2 3073.6,-43.2"/>
<text text-anchor="start" x="3080.6" y="-55.4" font-family="Arial" font-size="14.00">recdatemodified </text>
<text text-anchor="start" x="3184.11" y="-55.4" font-family="Arial" font-size="14.00" fill="#666666">[timestamp(0) without time zone]</text>
</g>
<!-- ndb.specimens&#45;&gt;ndb.repositoryinstitutions -->
<g id="edge12" class="edge">
<title>ndb.specimens:repositoryid&#45;&gt;ndb.repositoryinstitutions:repositoryid</title>
<path fill="none" stroke="black" d="M1858.41,-586.14C2133.48,-583.23 2810.81,-467.37 3021.1,-306.8 3059.02,-277.84 3024.89,-212.6 3072.6,-212.6"/>
<polygon fill="black" stroke="black" points="1858.33,-586.14 1848.31,-581.7 1853,-586.17 1848.67,-586.2 1848.67,-586.2 1848.67,-586.2 1853,-586.17 1848.36,-590.7 1858.33,-586.14"/>
<text text-anchor="start" x="1855" y="-596.2" font-family="Arial" font-size="10.00">FOREIGN KEY (repositoryid) REFERENCES ndb.repositoryinstitutions(repositoryid) ON UPDATE CASCADE ON DELETE CASCADE</text>
</g>
<!-- ndb.isospecimendata -->
<g id="node3" class="node">
<title>ndb.isospecimendata</title>
<polygon fill="#efefef" stroke="none" points="1315.2,-1314 1315.2,-1349.6 1635,-1349.6 1635,-1314 1315.2,-1314"/>
<polygon fill="none" stroke="black" points="1315.2,-1314 1315.2,-1349.6 1635,-1349.6 1635,-1314 1315.2,-1314"/>
<text text-anchor="start" x="1337.62" y="-1327.4" font-family="Arial Bold" font-size="18.00">ndb.isospecimendata</text>
<text text-anchor="start" x="1488.08" y="-1327.4" font-family="Arial" font-size="14.00">    </text>
<text text-anchor="start" x="1519.2" y="-1327.4" font-family="Arial" font-size="14.00" fill="#666666">[BASE TABLE]</text>
<polygon fill="none" stroke="black" points="1315.2,-1283.2 1315.2,-1314 1635,-1314 1635,-1283.2 1315.2,-1283.2"/>
<text text-anchor="start" x="1322.2" y="-1295.4" font-family="Arial" font-size="14.00">isospecimendataid </text>
<text text-anchor="start" x="1442.05" y="-1295.4" font-family="Arial" font-size="14.00" fill="#666666">[integer]</text>
<polygon fill="none" stroke="black" points="1315.2,-1252.4 1315.2,-1283.2 1635,-1283.2 1635,-1252.4 1315.2,-1252.4"/>
<text text-anchor="start" x="1322.2" y="-1264.6" font-family="Arial" font-size="14.00">dataid </text>
<text text-anchor="start" x="1364.23" y="-1264.6" font-family="Arial" font-size="14.00" fill="#666666">[integer]</text>
<polygon fill="none" stroke="black" points="1315.2,-1221.6 1315.2,-1252.4 1635,-1252.4 1635,-1221.6 1315.2,-1221.6"/>
<text text-anchor="start" x="1322.2" y="-1233.8" font-family="Arial" font-size="14.00">specimenid </text>
<text text-anchor="start" x="1396.9" y="-1233.8" font-family="Arial" font-size="14.00" fill="#666666">[integer]</text>
<polygon fill="none" stroke="black" points="1315.2,-1190.8 1315.2,-1221.6 1635,-1221.6 1635,-1190.8 1315.2,-1190.8"/>
<text text-anchor="start" x="1322.2" y="-1203" font-family="Arial" font-size="14.00">sd </text>
<text text-anchor="start" x="1340.88" y="-1203" font-family="Arial" font-size="14.00" fill="#666666">[double precision]</text>
<polygon fill="none" stroke="black" points="1315.2,-1160 1315.2,-1190.8 1635,-1190.8 1635,-1160 1315.2,-1160"/>
<text text-anchor="start" x="1322.2" y="-1172.2" font-family="Arial" font-size="14.00">recdatecreated </text>
<text text-anchor="start" x="1419.48" y="-1172.2" font-family="Arial" font-size="14.00" fill="#666666">[timestamp(0) without time zone]</text>
<polygon fill="none" stroke="black" points="1315.2,-1129.2 1315.2,-1160 1635,-1160 1635,-1129.2 1315.2,-1129.2"/>
<text text-anchor="start" x="1322.2" y="-1141.4" font-family="Arial" font-size="14.00">recdatemodified </text>
<text text-anchor="start" x="1425.7" y="-1141.4" font-family="Arial" font-size="14.00" fill="#666666">[timestamp(0) without time zone]</text>
</g>
<!-- ndb.isospecimendata&#45;&gt;ndb.specimens -->
<g id="edge2" class="edge">
<title>ndb.isospecimendata:specimenid&#45;&gt;ndb.specimens:specimenid</title>
<path fill="none" stroke="black" d="M1646.39,-1236.16C1698.54,-1226.93 1660.86,-1143.79 1635,-1086 1608.6,-1027.01 1553.72,-1047.34 1527.2,-988.4 1510.02,-950.22 1484.33,-894.2 1526.2,-894.2"/>
<polygon fill="black" stroke="black" points="1646.3,-1236.16 1635.97,-1232.49 1640.98,-1236.6 1636.67,-1236.95 1636.67,-1236.95 1636.67,-1236.95 1640.98,-1236.6 1636.7,-1241.46 1646.3,-1236.16"/>
<text text-anchor="start" x="1643" y="-1247" font-family="Arial" font-size="10.00">FOREIGN KEY (specimenid) REFERENCES ndb.specimens(specimenid) ON DELETE CASCADE</text>
</g>
<!-- ndb.specimendates -->
<g id="node4" class="node">
<title>ndb.specimendates</title>
<polygon fill="#efefef" stroke="none" points="1739.2,-1375.6 1739.2,-1411.2 2059,-1411.2 2059,-1375.6 1739.2,-1375.6"/>
<polygon fill="none" stroke="black" points="1739.2,-1375.6 1739.2,-1411.2 2059,-1411.2 2059,-1375.6 1739.2,-1375.6"/>
<text text-anchor="start" x="1768.63" y="-1389" font-family="Arial Bold" font-size="18.00">ndb.specimendates</text>
<text text-anchor="start" x="1905.08" y="-1389" font-family="Arial" font-size="14.00">    </text>
<text text-anchor="start" x="1936.2" y="-1389" font-family="Arial" font-size="14.00" fill="#666666">[BASE TABLE]</text>
<polygon fill="none" stroke="black" points="1739.2,-1344.8 1739.2,-1375.6 2059,-1375.6 2059,-1344.8 1739.2,-1344.8"/>
<text text-anchor="start" x="1746.2" y="-1357" font-family="Arial" font-size="14.00">specimendateid </text>
<text text-anchor="start" x="1848.15" y="-1357" font-family="Arial" font-size="14.00" fill="#666666">[integer]</text>
<polygon fill="none" stroke="black" points="1739.2,-1314 1739.2,-1344.8 2059,-1344.8 2059,-1314 1739.2,-1314"/>
<text text-anchor="start" x="1746.2" y="-1326.2" font-family="Arial" font-size="14.00">geochronid </text>
<text text-anchor="start" x="1819.37" y="-1326.2" font-family="Arial" font-size="14.00" fill="#666666">[integer]</text>
<polygon fill="none" stroke="black" points="1739.2,-1283.2 1739.2,-1314 2059,-1314 2059,-1283.2 1739.2,-1283.2"/>
<text text-anchor="start" x="1746.2" y="-1295.4" font-family="Arial" font-size="14.00">taxonid </text>
<text text-anchor="start" x="1795.23" y="-1295.4" font-family="Arial" font-size="14.00" fill="#666666">[integer]</text>
<polygon fill="none" stroke="black" points="1739.2,-1252.4 1739.2,-1283.2 2059,-1283.2 2059,-1252.4 1739.2,-1252.4"/>
<text text-anchor="start" x="1746.2" y="-1264.6" font-family="Arial" font-size="14.00">fractionid </text>
<text text-anchor="start" x="1806.9" y="-1264.6" font-family="Arial" font-size="14.00" fill="#666666">[integer]</text>
<polygon fill="none" stroke="black" points="1739.2,-1221.6 1739.2,-1252.4 2059,-1252.4 2059,-1221.6 1739.2,-1221.6"/>
<text text-anchor="start" x="1746.2" y="-1233.8" font-family="Arial" font-size="14.00">sampleid </text>
<text text-anchor="start" x="1806.12" y="-1233.8" font-family="Arial" font-size="14.00" fill="#666666">[integer]</text>
<polygon fill="none" stroke="black" points="1739.2,-1190.8 1739.2,-1221.6 2059,-1221.6 2059,-1190.8 1739.2,-1190.8"/>
<text text-anchor="start" x="1746.2" y="-1203" font-family="Arial" font-size="14.00">notes </text>
<text text-anchor="start" x="1784.34" y="-1203" font-family="Arial" font-size="14.00" fill="#666666">[text]</text>
<polygon fill="none" stroke="black" points="1739.2,-1160 1739.2,-1190.8 2059,-1190.8 2059,-1160 1739.2,-1160"/>
<text text-anchor="start" x="1746.2" y="-1172.2" font-family="Arial" font-size="14.00">elementtypeid </text>
<text text-anchor="start" x="1837.25" y="-1172.2" font-family="Arial" font-size="14.00" fill="#666666">[integer]</text>
<polygon fill="none" stroke="black" points="1739.2,-1129.2 1739.2,-1160 2059,-1160 2059,-1129.2 1739.2,-1129.2"/>
<text text-anchor="start" x="1746.2" y="-1141.4" font-family="Arial" font-size="14.00">recdatecreated </text>
<text text-anchor="start" x="1843.48" y="-1141.4" font-family="Arial" font-size="14.00" fill="#666666">[timestamp(0) without time zone]</text>
<polygon fill="none" stroke="black" points="1739.2,-1098.4 1739.2,-1129.2 2059,-1129.2 2059,-1098.4 1739.2,-1098.4"/>
<text text-anchor="start" x="1746.2" y="-1110.6" font-family="Arial" font-size="14.00">recdatemodified </text>
<text text-anchor="start" x="1849.7" y="-1110.6" font-family="Arial" font-size="14.00" fill="#666666">[timestamp(0) without time zone]</text>
<polygon fill="none" stroke="black" points="1739.2,-1067.6 1739.2,-1098.4 2059,-1098.4 2059,-1067.6 1739.2,-1067.6"/>
<text text-anchor="start" x="1746.2" y="-1079.8" font-family="Arial" font-size="14.00">specimenid </text>
<text text-anchor="start" x="1820.9" y="-1079.8" font-family="Arial" font-size="14.00" fill="#666666">[integer]</text>
</g>
<!-- ndb.specimendates&#45;&gt;ndb.specimens -->
<g id="edge3" class="edge">
<title>ndb.specimendates:specimenid&#45;&gt;ndb.specimens:specimenid</title>
<path fill="none" stroke="black" d="M1728.27,-1080.2C1716.07,-1071.11 1726.32,-1041.96 1739.2,-1024.4 1769.07,-983.67 1817.26,-1029.23 1847,-988.4 1871.65,-954.56 1889.87,-894.2 1848,-894.2"/>
<polygon fill="black" stroke="black" points="1728.25,-1080.2 1736.66,-1087.24 1733.39,-1081.64 1737.56,-1082.82 1737.56,-1082.82 1737.56,-1082.82 1733.39,-1081.64 1739.1,-1078.58 1728.25,-1080.2"/>
<text text-anchor="start" x="1181.61" y="-1067" font-family="Arial" font-size="10.00">FOREIGN KEY (specimenid) REFERENCES ndb.specimens(specimenid) ON UPDATE CASCADE ON DELETE CASCADE</text>
</g>
<!-- ndb.specimentaphonomy -->
<g id="node5" class="node">
<title>ndb.specimentaphonomy</title>
<polygon fill="#efefef" stroke="none" points="2163.2,-1283.2 2163.2,-1318.8 2483,-1318.8 2483,-1283.2 2163.2,-1283.2"/>
<polygon fill="none" stroke="black" points="2163.2,-1283.2 2163.2,-1318.8 2483,-1318.8 2483,-1283.2 2163.2,-1283.2"/>
<text text-anchor="start" x="2170.62" y="-1296.6" font-family="Arial Bold" font-size="18.00">ndb.specimentaphonomy</text>
<text text-anchor="start" x="2351.09" y="-1296.6" font-family="Arial" font-size="14.00">    </text>
<text text-anchor="start" x="2382.2" y="-1296.6" font-family="Arial" font-size="14.00" fill="#666666">[BASE TABLE]</text>
<polygon fill="none" stroke="black" points="2163.2,-1252.4 2163.2,-1283.2 2483,-1283.2 2483,-1252.4 2163.2,-1252.4"/>
<text text-anchor="start" x="2170.2" y="-1264.6" font-family="Arial" font-size="14.00">specimenid </text>
<text text-anchor="start" x="2244.9" y="-1264.6" font-family="Arial" font-size="14.00" fill="#666666">[integer]</text>
<polygon fill="none" stroke="black" points="2163.2,-1221.6 2163.2,-1252.4 2483,-1252.4 2483,-1221.6 2163.2,-1221.6"/>
<text text-anchor="start" x="2170.2" y="-1233.8" font-family="Arial" font-size="14.00">taphonomictypeid </text>
<text text-anchor="start" x="2283.83" y="-1233.8" font-family="Arial" font-size="14.00" fill="#666666">[integer]</text>
<polygon fill="none" stroke="black" points="2163.2,-1190.8 2163.2,-1221.6 2483,-1221.6 2483,-1190.8 2163.2,-1190.8"/>
<text text-anchor="start" x="2170.2" y="-1203" font-family="Arial" font-size="14.00">recdatecreated </text>
<text text-anchor="start" x="2267.48" y="-1203" font-family="Arial" font-size="14.00" fill="#666666">[timestamp(0) without time zone]</text>
<polygon fill="none" stroke="black" points="2163.2,-1160 2163.2,-1190.8 2483,-1190.8 2483,-1160 2163.2,-1160"/>
<text text-anchor="start" x="2170.2" y="-1172.2" font-family="Arial" font-size="14.00">recdatemodified </text>
<text text-anchor="start" x="2273.7" y="-1172.2" font-family="Arial" font-size="14.00" fill="#666666">[timestamp(0) without time zone]</text>
</g>
<!-- ndb.specimentaphonomy&#45;&gt;ndb.specimens -->
<g id="edge4" class="edge">
<title>ndb.specimentaphonomy:specimenid&#45;&gt;ndb.specimens:specimenid</title>
<path fill="none" stroke="black" d="M2151.96,-1267.29C2059.89,-1257.52 2176.54,-1108.88 2111.1,-1024.4 2031.2,-921.26 1978.47,-894.2 1848,-894.2"/>
<polygon fill="black" stroke="black" points="2151.88,-1267.29 2161.64,-1272.28 2157.21,-1267.55 2161.53,-1267.77 2161.53,-1267.77 2161.53,-1267.77 2157.21,-1267.55 2162.09,-1263.29 2151.88,-1267.29"/>
<text text-anchor="start" x="2169.2" y="-1277.8" font-family="Arial" font-size="10.00">FOREIGN KEY (specimenid) REFERENCES ndb.specimens(specimenid) ON UPDATE CASCADE ON DELETE CASCADE</text>
</g>
</g>
</svg>
