<?xml version="1.0" encoding="UTF-8" standalone="no"?>
<!DOCTYPE svg PUBLIC "-//W3C//DTD SVG 1.1//EN"
 "http://www.w3.org/Graphics/SVG/1.1/DTD/svg11.dtd">
<!-- Generated by graphviz version 12.1.2 (20240928.0832)
 -->
<!-- Title: ndb.elementtaxagroupsymmetries Pages: 1 -->
<svg width="2768pt" height="1247pt"
 viewBox="0.00 0.00 2767.55 1246.80" xmlns="http://www.w3.org/2000/svg" xmlns:xlink="http://www.w3.org/1999/xlink">
<g id="graph0" class="graph" transform="scale(1 1) rotate(0) translate(4 1242.8)">
<title>ndb.elementtaxagroupsymmetries</title>
<polygon fill="white" stroke="none" points="-4,4 -4,-1242.8 2763.55,-1242.8 2763.55,4 -4,4"/>
<!-- ndb.elementtaxagroupsymmetries -->
<g id="node1" class="node">
<title>ndb.elementtaxagroupsymmetries</title>
<polygon fill="#efefef" stroke="none" points="1243.94,-959.8 1243.94,-995.4 1625.86,-995.4 1625.86,-959.8 1243.94,-959.8"/>
<polygon fill="none" stroke="black" points="1243.94,-959.8 1243.94,-995.4 1625.86,-995.4 1625.86,-959.8 1243.94,-959.8"/>
<text text-anchor="start" x="1250.94" y="-973.2" font-family="Arial Bold" font-size="18.00">ndb.elementtaxagroupsymmetries</text>
<text text-anchor="start" x="1494.37" y="-973.2" font-family="Arial" font-size="14.00">    </text>
<text text-anchor="start" x="1525.49" y="-973.2" font-family="Arial" font-size="14.00" fill="#666666">[BASE TABLE]</text>
<polygon fill="none" stroke="black" points="1243.94,-929 1243.94,-959.8 1625.86,-959.8 1625.86,-929 1243.94,-929"/>
<text text-anchor="start" x="1250.94" y="-941.2" font-family="Arial" font-size="14.00">elementtaxagroupid </text>
<text text-anchor="start" x="1377.8" y="-941.2" font-family="Arial" font-size="14.00" fill="#666666">[integer]</text>
<polygon fill="none" stroke="black" points="1243.94,-898.2 1243.94,-929 1625.86,-929 1625.86,-898.2 1243.94,-898.2"/>
<text text-anchor="start" x="1250.94" y="-910.4" font-family="Arial" font-size="14.00">recdatecreated </text>
<text text-anchor="start" x="1348.22" y="-910.4" font-family="Arial" font-size="14.00" fill="#666666">[timestamp(0) without time zone]</text>
<polygon fill="none" stroke="black" points="1243.94,-867.4 1243.94,-898.2 1625.86,-898.2 1625.86,-867.4 1243.94,-867.4"/>
<text text-anchor="start" x="1250.94" y="-879.6" font-family="Arial" font-size="14.00">recdatemodified </text>
<text text-anchor="start" x="1354.44" y="-879.6" font-family="Arial" font-size="14.00" fill="#666666">[timestamp(0) without time zone]</text>
<polygon fill="none" stroke="black" points="1243.94,-836.6 1243.94,-867.4 1625.86,-867.4 1625.86,-836.6 1243.94,-836.6"/>
<text text-anchor="start" x="1250.94" y="-848.8" font-family="Arial" font-size="14.00">symmetryid </text>
<text text-anchor="start" x="1326.39" y="-848.8" font-family="Arial" font-size="14.00" fill="#666666">[integer]</text>
<polygon fill="none" stroke="black" stroke-width="3" points="1242.44,-835.1 1242.44,-996.9 1627.36,-996.9 1627.36,-835.1 1242.44,-835.1"/>
</g>
<!-- ndb.elementtaxagroups -->
<g id="node2" class="node">
<title>ndb.elementtaxagroups</title>
<polygon fill="#efefef" stroke="none" points="798,-478.4 798,-514 1117.8,-514 1117.8,-478.4 798,-478.4"/>
<polygon fill="none" stroke="black" points="798,-478.4 798,-514 1117.8,-514 1117.8,-478.4 798,-478.4"/>
<text text-anchor="start" x="811.93" y="-491.8" font-family="Arial Bold" font-size="18.00">ndb.elementtaxagroups</text>
<text text-anchor="start" x="979.38" y="-491.8" font-family="Arial" font-size="14.00">    </text>
<text text-anchor="start" x="1010.5" y="-491.8" font-family="Arial" font-size="14.00" fill="#666666">[BASE TABLE]</text>
<polygon fill="none" stroke="black" points="798,-447.6 798,-478.4 1117.8,-478.4 1117.8,-447.6 798,-447.6"/>
<text text-anchor="start" x="805" y="-459.8" font-family="Arial" font-size="14.00">elementtaxagroupid </text>
<text text-anchor="start" x="931.86" y="-459.8" font-family="Arial" font-size="14.00" fill="#666666">[integer]</text>
<polygon fill="none" stroke="black" points="798,-416.8 798,-447.6 1117.8,-447.6 1117.8,-416.8 798,-416.8"/>
<text text-anchor="start" x="805" y="-429" font-family="Arial" font-size="14.00">elementtypeid </text>
<text text-anchor="start" x="896.05" y="-429" font-family="Arial" font-size="14.00" fill="#666666">[integer]</text>
<polygon fill="none" stroke="black" points="798,-386 798,-416.8 1117.8,-416.8 1117.8,-386 798,-386"/>
<text text-anchor="start" x="805" y="-398.2" font-family="Arial" font-size="14.00">recdatecreated </text>
<text text-anchor="start" x="902.28" y="-398.2" font-family="Arial" font-size="14.00" fill="#666666">[timestamp(0) without time zone]</text>
<polygon fill="none" stroke="black" points="798,-355.2 798,-386 1117.8,-386 1117.8,-355.2 798,-355.2"/>
<text text-anchor="start" x="805" y="-367.4" font-family="Arial" font-size="14.00">recdatemodified </text>
<text text-anchor="start" x="908.5" y="-367.4" font-family="Arial" font-size="14.00" fill="#666666">[timestamp(0) without time zone]</text>
<polygon fill="none" stroke="black" points="798,-324.4 798,-355.2 1117.8,-355.2 1117.8,-324.4 798,-324.4"/>
<text text-anchor="start" x="805" y="-336.6" font-family="Arial" font-size="14.00">taxagroupid </text>
<text text-anchor="start" x="882.05" y="-336.6" font-family="Arial" font-size="14.00" fill="#666666">[varchar(3)]</text>
</g>
<!-- ndb.elementtaxagroupsymmetries&#45;&gt;ndb.elementtaxagroups -->
<g id="edge1" class="edge">
<title>ndb.elementtaxagroupsymmetries:elementtaxagroupid&#45;&gt;ndb.elementtaxagroups:elementtaxagroupid</title>
<path fill="none" stroke="black" d="M1232.66,-942.63C1168.5,-918.94 1212.81,-664.56 1188.9,-593.2 1168.02,-530.88 1184.52,-463 1118.8,-463"/>
<polygon fill="black" stroke="black" points="1232.76,-942.64 1241.84,-948.78 1238.01,-943.55 1242.28,-944.29 1242.28,-944.29 1242.28,-944.29 1238.01,-943.55 1243.37,-939.91 1232.76,-942.64"/>
<text text-anchor="start" x="912.26" y="-928.4" font-family="Arial" font-size="10.00">FOREIGN KEY (elementtaxagroupid) REFERENCES ndb.elementtaxagroups(elementtaxagroupid) ON UPDATE CASCADE ON DELETE CASCADE</text>
</g>
<!-- ndb.elementsymmetries -->
<g id="node7" class="node">
<title>ndb.elementsymmetries</title>
<polygon fill="#efefef" stroke="none" points="1733,-463 1733,-498.6 2052.8,-498.6 2052.8,-463 1733,-463"/>
<polygon fill="none" stroke="black" points="1733,-463 1733,-498.6 2052.8,-498.6 2052.8,-463 1733,-463"/>
<text text-anchor="start" x="1744.93" y="-476.4" font-family="Arial Bold" font-size="18.00">ndb.elementsymmetries</text>
<text text-anchor="start" x="1916.38" y="-476.4" font-family="Arial" font-size="14.00">    </text>
<text text-anchor="start" x="1947.5" y="-476.4" font-family="Arial" font-size="14.00" fill="#666666">[BASE TABLE]</text>
<polygon fill="none" stroke="black" points="1733,-432.2 1733,-463 2052.8,-463 2052.8,-432.2 1733,-432.2"/>
<text text-anchor="start" x="1740" y="-444.4" font-family="Arial" font-size="14.00">recdatecreated </text>
<text text-anchor="start" x="1837.28" y="-444.4" font-family="Arial" font-size="14.00" fill="#666666">[timestamp(0) without time zone]</text>
<polygon fill="none" stroke="black" points="1733,-401.4 1733,-432.2 2052.8,-432.2 2052.8,-401.4 1733,-401.4"/>
<text text-anchor="start" x="1740" y="-413.6" font-family="Arial" font-size="14.00">recdatemodified </text>
<text text-anchor="start" x="1843.5" y="-413.6" font-family="Arial" font-size="14.00" fill="#666666">[timestamp(0) without time zone]</text>
<polygon fill="none" stroke="black" points="1733,-370.6 1733,-401.4 2052.8,-401.4 2052.8,-370.6 1733,-370.6"/>
<text text-anchor="start" x="1740" y="-382.8" font-family="Arial" font-size="14.00">symmetry </text>
<text text-anchor="start" x="1804.55" y="-382.8" font-family="Arial" font-size="14.00" fill="#666666">[varchar(24)]</text>
<polygon fill="none" stroke="black" points="1733,-339.8 1733,-370.6 2052.8,-370.6 2052.8,-339.8 1733,-339.8"/>
<text text-anchor="start" x="1740" y="-352" font-family="Arial" font-size="14.00">symmetryid </text>
<text text-anchor="start" x="1815.45" y="-352" font-family="Arial" font-size="14.00" fill="#666666">[integer]</text>
</g>
<!-- ndb.elementtaxagroupsymmetries&#45;&gt;ndb.elementsymmetries -->
<g id="edge6" class="edge">
<title>ndb.elementtaxagroupsymmetries:symmetryid&#45;&gt;ndb.elementsymmetries:symmetryid</title>
<path fill="none" stroke="black" d="M1637.06,-850.49C1732.18,-820.5 1622.79,-355.2 1732,-355.2"/>
<polygon fill="black" stroke="black" points="1637.08,-850.48 1626.53,-847.5 1631.81,-851.27 1627.52,-851.9 1627.52,-851.9 1627.52,-851.9 1631.81,-851.27 1627.85,-856.4 1637.08,-850.48"/>
<text text-anchor="start" x="1030.31" y="-862" font-family="Arial" font-size="10.00">FOREIGN KEY (symmetryid) REFERENCES ndb.elementsymmetries(symmetryid) ON UPDATE CASCADE ON DELETE CASCADE</text>
</g>
<!-- ndb.elementtypes -->
<g id="node5" class="node">
<title>ndb.elementtypes</title>
<polygon fill="#efefef" stroke="none" points="586,-166.4 586,-202 905.8,-202 905.8,-166.4 586,-166.4"/>
<polygon fill="none" stroke="black" points="586,-166.4 586,-202 905.8,-202 905.8,-166.4 586,-166.4"/>
<text text-anchor="start" x="620.42" y="-179.8" font-family="Arial Bold" font-size="18.00">ndb.elementtypes</text>
<text text-anchor="start" x="746.89" y="-179.8" font-family="Arial" font-size="14.00">    </text>
<text text-anchor="start" x="778" y="-179.8" font-family="Arial" font-size="14.00" fill="#666666">[BASE TABLE]</text>
<polygon fill="none" stroke="black" points="586,-135.6 586,-166.4 905.8,-166.4 905.8,-135.6 586,-135.6"/>
<text text-anchor="start" x="593" y="-147.8" font-family="Arial" font-size="14.00">elementtype </text>
<text text-anchor="start" x="673.16" y="-147.8" font-family="Arial" font-size="14.00" fill="#666666">[varchar(64)]</text>
<polygon fill="none" stroke="black" points="586,-104.8 586,-135.6 905.8,-135.6 905.8,-104.8 586,-104.8"/>
<text text-anchor="start" x="593" y="-117" font-family="Arial" font-size="14.00">elementtypeid </text>
<text text-anchor="start" x="684.05" y="-117" font-family="Arial" font-size="14.00" fill="#666666">[integer]</text>
<polygon fill="none" stroke="black" points="586,-74 586,-104.8 905.8,-104.8 905.8,-74 586,-74"/>
<text text-anchor="start" x="593" y="-86.2" font-family="Arial" font-size="14.00">recdatecreated </text>
<text text-anchor="start" x="690.28" y="-86.2" font-family="Arial" font-size="14.00" fill="#666666">[timestamp(0) without time zone]</text>
<polygon fill="none" stroke="black" points="586,-43.2 586,-74 905.8,-74 905.8,-43.2 586,-43.2"/>
<text text-anchor="start" x="593" y="-55.4" font-family="Arial" font-size="14.00">recdatemodified </text>
<text text-anchor="start" x="696.5" y="-55.4" font-family="Arial" font-size="14.00" fill="#666666">[timestamp(0) without time zone]</text>
</g>
<!-- ndb.elementtaxagroups&#45;&gt;ndb.elementtypes -->
<g id="edge4" class="edge">
<title>ndb.elementtaxagroups:elementtypeid&#45;&gt;ndb.elementtypes:elementtypeid</title>
<path fill="none" stroke="black" d="M786.84,-431.36C733.06,-421.75 760.75,-332.55 798,-281.2 827.66,-240.31 876.11,-286.07 905.8,-245.2 938.45,-200.25 962.36,-120.2 906.8,-120.2"/>
<polygon fill="black" stroke="black" points="786.7,-431.34 796.29,-436.66 792.02,-431.79 796.33,-432.14 796.33,-432.14 796.33,-432.14 792.02,-431.79 797.04,-427.69 786.7,-431.34"/>
<text text-anchor="start" x="205.37" y="-442.2" font-family="Arial" font-size="10.00">FOREIGN KEY (elementtypeid) REFERENCES ndb.elementtypes(elementtypeid) ON UPDATE CASCADE ON DELETE CASCADE</text>
</g>
<!-- ndb.taxagrouptypes -->
<g id="node6" class="node">
<title>ndb.taxagrouptypes</title>
<polygon fill="#efefef" stroke="none" points="1010,-166.4 1010,-202 1329.8,-202 1329.8,-166.4 1010,-166.4"/>
<polygon fill="none" stroke="black" points="1010,-166.4 1010,-202 1329.8,-202 1329.8,-166.4 1010,-166.4"/>
<text text-anchor="start" x="1036.92" y="-179.8" font-family="Arial Bold" font-size="18.00">ndb.taxagrouptypes</text>
<text text-anchor="start" x="1178.39" y="-179.8" font-family="Arial" font-size="14.00">    </text>
<text text-anchor="start" x="1209.51" y="-179.8" font-family="Arial" font-size="14.00" fill="#666666">[BASE TABLE]</text>
<polygon fill="none" stroke="black" points="1010,-135.6 1010,-166.4 1329.8,-166.4 1329.8,-135.6 1010,-135.6"/>
<text text-anchor="start" x="1017" y="-147.8" font-family="Arial" font-size="14.00">recdatecreated </text>
<text text-anchor="start" x="1114.28" y="-147.8" font-family="Arial" font-size="14.00" fill="#666666">[timestamp(0) without time zone]</text>
<polygon fill="none" stroke="black" points="1010,-104.8 1010,-135.6 1329.8,-135.6 1329.8,-104.8 1010,-104.8"/>
<text text-anchor="start" x="1017" y="-117" font-family="Arial" font-size="14.00">recdatemodified </text>
<text text-anchor="start" x="1120.5" y="-117" font-family="Arial" font-size="14.00" fill="#666666">[timestamp(0) without time zone]</text>
<polygon fill="none" stroke="black" points="1010,-74 1010,-104.8 1329.8,-104.8 1329.8,-74 1010,-74"/>
<text text-anchor="start" x="1017" y="-86.2" font-family="Arial" font-size="14.00">taxagroup </text>
<text text-anchor="start" x="1083.16" y="-86.2" font-family="Arial" font-size="14.00" fill="#666666">[varchar(64)]</text>
<polygon fill="none" stroke="black" points="1010,-43.2 1010,-74 1329.8,-74 1329.8,-43.2 1010,-43.2"/>
<text text-anchor="start" x="1017" y="-55.4" font-family="Arial" font-size="14.00">taxagroupid </text>
<text text-anchor="start" x="1094.05" y="-55.4" font-family="Arial" font-size="14.00" fill="#666666">[varchar(3)]</text>
</g>
<!-- ndb.elementtaxagroups&#45;&gt;ndb.taxagrouptypes -->
<g id="edge5" class="edge">
<title>ndb.elementtaxagroups:taxagroupid&#45;&gt;ndb.taxagrouptypes:taxagroupid</title>
<path fill="none" stroke="black" d="M1128.73,-337C1140.93,-327.91 1130.68,-298.76 1117.8,-281.2 1087.93,-240.47 1039.63,-286.11 1010,-245.2 961.35,-178.04 926.07,-58.6 1009,-58.6"/>
<polygon fill="black" stroke="black" points="1128.75,-337 1117.9,-335.38 1123.61,-338.44 1119.44,-339.62 1119.44,-339.62 1119.44,-339.62 1123.61,-338.44 1120.34,-344.04 1128.75,-337"/>
<text text-anchor="start" x="1125.8" y="-349.8" font-family="Arial" font-size="10.00">FOREIGN KEY (taxagroupid) REFERENCES ndb.taxagrouptypes(taxagroupid) ON UPDATE CASCADE ON DELETE CASCADE</text>
</g>
<!-- ndb.elementtaxagroupmaturities -->
<g id="node3" class="node">
<title>ndb.elementtaxagroupmaturities</title>
<polygon fill="#efefef" stroke="none" points="303.44,-959.8 303.44,-995.4 674.36,-995.4 674.36,-959.8 303.44,-959.8"/>
<polygon fill="none" stroke="black" points="303.44,-959.8 303.44,-995.4 674.36,-995.4 674.36,-959.8 303.44,-959.8"/>
<text text-anchor="start" x="310.44" y="-973.2" font-family="Arial Bold" font-size="18.00">ndb.elementtaxagroupmaturities</text>
<text text-anchor="start" x="542.87" y="-973.2" font-family="Arial" font-size="14.00">    </text>
<text text-anchor="start" x="573.99" y="-973.2" font-family="Arial" font-size="14.00" fill="#666666">[BASE TABLE]</text>
<polygon fill="none" stroke="black" points="303.44,-929 303.44,-959.8 674.36,-959.8 674.36,-929 303.44,-929"/>
<text text-anchor="start" x="310.44" y="-941.2" font-family="Arial" font-size="14.00">elementtaxagroupid </text>
<text text-anchor="start" x="437.3" y="-941.2" font-family="Arial" font-size="14.00" fill="#666666">[integer]</text>
<polygon fill="none" stroke="black" points="303.44,-898.2 303.44,-929 674.36,-929 674.36,-898.2 303.44,-898.2"/>
<text text-anchor="start" x="310.44" y="-910.4" font-family="Arial" font-size="14.00">maturityid </text>
<text text-anchor="start" x="375.01" y="-910.4" font-family="Arial" font-size="14.00" fill="#666666">[integer]</text>
<polygon fill="none" stroke="black" points="303.44,-867.4 303.44,-898.2 674.36,-898.2 674.36,-867.4 303.44,-867.4"/>
<text text-anchor="start" x="310.44" y="-879.6" font-family="Arial" font-size="14.00">recdatecreated </text>
<text text-anchor="start" x="407.72" y="-879.6" font-family="Arial" font-size="14.00" fill="#666666">[timestamp(0) without time zone]</text>
<polygon fill="none" stroke="black" points="303.44,-836.6 303.44,-867.4 674.36,-867.4 674.36,-836.6 303.44,-836.6"/>
<text text-anchor="start" x="310.44" y="-848.8" font-family="Arial" font-size="14.00">recdatemodified </text>
<text text-anchor="start" x="413.94" y="-848.8" font-family="Arial" font-size="14.00" fill="#666666">[timestamp(0) without time zone]</text>
</g>
<!-- ndb.elementtaxagroupmaturities&#45;&gt;ndb.elementtaxagroups -->
<g id="edge2" class="edge">
<title>ndb.elementtaxagroupmaturities:elementtaxagroupid&#45;&gt;ndb.elementtaxagroups:elementtaxagroupid</title>
<path fill="none" stroke="black" d="M685.61,-942.63C749.52,-918.94 703.26,-664.57 726.9,-593.2 747.56,-530.81 731.28,-463 797,-463"/>
<polygon fill="black" stroke="black" points="685.54,-942.64 674.92,-939.91 680.28,-943.55 676.02,-944.29 676.02,-944.29 676.02,-944.29 680.28,-943.55 676.45,-948.78 685.54,-942.64"/>
<text text-anchor="start" x="7" y="-954.4" font-family="Arial" font-size="10.00">FOREIGN KEY (elementtaxagroupid) REFERENCES ndb.elementtaxagroups(elementtaxagroupid) ON UPDATE CASCADE ON DELETE CASCADE</text>
</g>
<!-- ndb.elementtaxagroupportions -->
<g id="node4" class="node">
<title>ndb.elementtaxagroupportions</title>
<polygon fill="#efefef" stroke="none" points="778.93,-959.8 778.93,-995.4 1136.87,-995.4 1136.87,-959.8 778.93,-959.8"/>
<polygon fill="none" stroke="black" points="778.93,-959.8 778.93,-995.4 1136.87,-995.4 1136.87,-959.8 778.93,-959.8"/>
<text text-anchor="start" x="785.93" y="-973.2" font-family="Arial Bold" font-size="18.00">ndb.elementtaxagroupportions</text>
<text text-anchor="start" x="1005.38" y="-973.2" font-family="Arial" font-size="14.00">    </text>
<text text-anchor="start" x="1036.49" y="-973.2" font-family="Arial" font-size="14.00" fill="#666666">[BASE TABLE]</text>
<polygon fill="none" stroke="black" points="778.93,-929 778.93,-959.8 1136.87,-959.8 1136.87,-929 778.93,-929"/>
<text text-anchor="start" x="785.93" y="-941.2" font-family="Arial" font-size="14.00">elementtaxagroupid </text>
<text text-anchor="start" x="912.79" y="-941.2" font-family="Arial" font-size="14.00" fill="#666666">[integer]</text>
<polygon fill="none" stroke="black" points="778.93,-898.2 778.93,-929 1136.87,-929 1136.87,-898.2 778.93,-898.2"/>
<text text-anchor="start" x="785.93" y="-910.4" font-family="Arial" font-size="14.00">portionid </text>
<text text-anchor="start" x="843.52" y="-910.4" font-family="Arial" font-size="14.00" fill="#666666">[integer]</text>
<polygon fill="none" stroke="black" points="778.93,-867.4 778.93,-898.2 1136.87,-898.2 1136.87,-867.4 778.93,-867.4"/>
<text text-anchor="start" x="785.93" y="-879.6" font-family="Arial" font-size="14.00">recdatecreated </text>
<text text-anchor="start" x="883.21" y="-879.6" font-family="Arial" font-size="14.00" fill="#666666">[timestamp(0) without time zone]</text>
<polygon fill="none" stroke="black" points="778.93,-836.6 778.93,-867.4 1136.87,-867.4 1136.87,-836.6 778.93,-836.6"/>
<text text-anchor="start" x="785.93" y="-848.8" font-family="Arial" font-size="14.00">recdatemodified </text>
<text text-anchor="start" x="889.44" y="-848.8" font-family="Arial" font-size="14.00" fill="#666666">[timestamp(0) without time zone]</text>
</g>
<!-- ndb.elementtaxagroupportions&#45;&gt;ndb.elementtaxagroups -->
<g id="edge3" class="edge">
<title>ndb.elementtaxagroupportions:elementtaxagroupid&#45;&gt;ndb.elementtaxagroups:elementtaxagroupid</title>
<path fill="none" stroke="black" d="M1146.8,-939.32C1188.96,-887.87 1169.09,-463 1118.8,-463"/>
<polygon fill="black" stroke="black" points="1146.85,-939.29 1135.93,-940.32 1142.21,-941.93 1138.45,-944.07 1138.45,-944.07 1138.45,-944.07 1142.21,-941.93 1140.38,-948.15 1146.85,-939.29"/>
<text text-anchor="start" x="469.51" y="-954.4" font-family="Arial" font-size="10.00">FOREIGN KEY (elementtaxagroupid) REFERENCES ndb.elementtaxagroups(elementtaxagroupid) ON UPDATE CASCADE ON DELETE CASCADE</text>
</g>
<!-- ndb.specimens -->
<g id="node8" class="node">
<title>ndb.specimens</title>
<polygon fill="#efefef" stroke="none" points="1733,-1160 1733,-1195.6 2052.8,-1195.6 2052.8,-1160 1733,-1160"/>
<polygon fill="none" stroke="black" points="1733,-1160 1733,-1195.6 2052.8,-1195.6 2052.8,-1160 1733,-1160"/>
<text text-anchor="start" x="1777.42" y="-1173.4" font-family="Arial Bold" font-size="18.00">ndb.specimens</text>
<text text-anchor="start" x="1883.89" y="-1173.4" font-family="Arial" font-size="14.00">    </text>
<text text-anchor="start" x="1915.01" y="-1173.4" font-family="Arial" font-size="14.00" fill="#666666">[BASE TABLE]</text>
<polygon fill="none" stroke="black" points="1733,-1129.2 1733,-1160 2052.8,-1160 2052.8,-1129.2 1733,-1129.2"/>
<text text-anchor="start" x="1740" y="-1141.4" font-family="Arial" font-size="14.00">arctosnr </text>
<text text-anchor="start" x="1794.46" y="-1141.4" font-family="Arial" font-size="14.00" fill="#666666">[varchar(50)]</text>
<polygon fill="none" stroke="black" points="1733,-1098.4 1733,-1129.2 2052.8,-1129.2 2052.8,-1098.4 1733,-1098.4"/>
<text text-anchor="start" x="1740" y="-1110.6" font-family="Arial" font-size="14.00">dataid </text>
<text text-anchor="start" x="1782.03" y="-1110.6" font-family="Arial" font-size="14.00" fill="#666666">[integer]</text>
<polygon fill="none" stroke="black" points="1733,-1067.6 1733,-1098.4 2052.8,-1098.4 2052.8,-1067.6 1733,-1067.6"/>
<text text-anchor="start" x="1740" y="-1079.8" font-family="Arial" font-size="14.00">domesticstatusid </text>
<text text-anchor="start" x="1848.16" y="-1079.8" font-family="Arial" font-size="14.00" fill="#666666">[integer]</text>
<polygon fill="none" stroke="black" points="1733,-1036.8 1733,-1067.6 2052.8,-1067.6 2052.8,-1036.8 1733,-1036.8"/>
<text text-anchor="start" x="1740" y="-1049" font-family="Arial" font-size="14.00">elementtypeid </text>
<text text-anchor="start" x="1831.05" y="-1049" font-family="Arial" font-size="14.00" fill="#666666">[integer]</text>
<polygon fill="none" stroke="black" points="1733,-1006 1733,-1036.8 2052.8,-1036.8 2052.8,-1006 1733,-1006"/>
<text text-anchor="start" x="1740" y="-1018.2" font-family="Arial" font-size="14.00">fieldnr </text>
<text text-anchor="start" x="1782.02" y="-1018.2" font-family="Arial" font-size="14.00" fill="#666666">[varchar(50)]</text>
<polygon fill="none" stroke="black" points="1733,-975.2 1733,-1006 2052.8,-1006 2052.8,-975.2 1733,-975.2"/>
<text text-anchor="start" x="1740" y="-987.4" font-family="Arial" font-size="14.00">maturityid </text>
<text text-anchor="start" x="1804.57" y="-987.4" font-family="Arial" font-size="14.00" fill="#666666">[integer]</text>
<polygon fill="none" stroke="black" points="1733,-944.4 1733,-975.2 2052.8,-975.2 2052.8,-944.4 1733,-944.4"/>
<text text-anchor="start" x="1740" y="-956.6" font-family="Arial" font-size="14.00">nisp </text>
<text text-anchor="start" x="1769.57" y="-956.6" font-family="Arial" font-size="14.00" fill="#666666">[double precision]</text>
<polygon fill="none" stroke="black" points="1733,-913.6 1733,-944.4 2052.8,-944.4 2052.8,-913.6 1733,-913.6"/>
<text text-anchor="start" x="1740" y="-925.8" font-family="Arial" font-size="14.00">notes </text>
<text text-anchor="start" x="1778.14" y="-925.8" font-family="Arial" font-size="14.00" fill="#666666">[text]</text>
<polygon fill="none" stroke="black" points="1733,-882.8 1733,-913.6 2052.8,-913.6 2052.8,-882.8 1733,-882.8"/>
<text text-anchor="start" x="1740" y="-895" font-family="Arial" font-size="14.00">portionid </text>
<text text-anchor="start" x="1797.59" y="-895" font-family="Arial" font-size="14.00" fill="#666666">[integer]</text>
<polygon fill="none" stroke="black" points="1733,-852 1733,-882.8 2052.8,-882.8 2052.8,-852 1733,-852"/>
<text text-anchor="start" x="1740" y="-864.2" font-family="Arial" font-size="14.00">preservative </text>
<text text-anchor="start" x="1820.14" y="-864.2" font-family="Arial" font-size="14.00" fill="#666666">[varchar(256)]</text>
<polygon fill="none" stroke="black" points="1733,-821.2 1733,-852 2052.8,-852 2052.8,-821.2 1733,-821.2"/>
<text text-anchor="start" x="1740" y="-833.4" font-family="Arial" font-size="14.00">recdatecreated </text>
<text text-anchor="start" x="1837.28" y="-833.4" font-family="Arial" font-size="14.00" fill="#666666">[timestamp(0) without time zone]</text>
<polygon fill="none" stroke="black" points="1733,-790.4 1733,-821.2 2052.8,-821.2 2052.8,-790.4 1733,-790.4"/>
<text text-anchor="start" x="1740" y="-802.6" font-family="Arial" font-size="14.00">recdatemodified </text>
<text text-anchor="start" x="1843.5" y="-802.6" font-family="Arial" font-size="14.00" fill="#666666">[timestamp(0) without time zone]</text>
<polygon fill="none" stroke="black" points="1733,-759.6 1733,-790.4 2052.8,-790.4 2052.8,-759.6 1733,-759.6"/>
<text text-anchor="start" x="1740" y="-771.8" font-family="Arial" font-size="14.00">repositoryid </text>
<text text-anchor="start" x="1816.25" y="-771.8" font-family="Arial" font-size="14.00" fill="#666666">[integer]</text>
<polygon fill="none" stroke="black" points="1733,-728.8 1733,-759.6 2052.8,-759.6 2052.8,-728.8 1733,-728.8"/>
<text text-anchor="start" x="1740" y="-741" font-family="Arial" font-size="14.00">sexid </text>
<text text-anchor="start" x="1776.57" y="-741" font-family="Arial" font-size="14.00" fill="#666666">[integer]</text>
<polygon fill="none" stroke="black" points="1733,-698 1733,-728.8 2052.8,-728.8 2052.8,-698 1733,-698"/>
<text text-anchor="start" x="1740" y="-710.2" font-family="Arial" font-size="14.00">specimenid </text>
<text text-anchor="start" x="1814.7" y="-710.2" font-family="Arial" font-size="14.00" fill="#666666">[integer]</text>
<polygon fill="none" stroke="black" points="1733,-667.2 1733,-698 2052.8,-698 2052.8,-667.2 1733,-667.2"/>
<text text-anchor="start" x="1740" y="-679.4" font-family="Arial" font-size="14.00">specimennr </text>
<text text-anchor="start" x="1816.25" y="-679.4" font-family="Arial" font-size="14.00" fill="#666666">[varchar(50)]</text>
<polygon fill="none" stroke="black" points="1733,-636.4 1733,-667.2 2052.8,-667.2 2052.8,-636.4 1733,-636.4"/>
<text text-anchor="start" x="1740" y="-648.6" font-family="Arial" font-size="14.00">symmetryid </text>
<text text-anchor="start" x="1815.45" y="-648.6" font-family="Arial" font-size="14.00" fill="#666666">[integer]</text>
</g>
<!-- ndb.specimens&#45;&gt;ndb.elementsymmetries -->
<g id="edge7" class="edge">
<title>ndb.specimens:symmetryid&#45;&gt;ndb.elementsymmetries:symmetryid</title>
<path fill="none" stroke="black" d="M1893.5,-625.1C1903.86,-542.41 2044.4,-622.4 2096,-541.8 2144.41,-466.19 2159.32,-403.44 2096,-339.8 2032.33,-275.81 1892.9,-248.53 1892.9,-338.8"/>
<polygon fill="black" stroke="black" points="1893.51,-625.08 1888.43,-634.8 1893.19,-630.41 1892.94,-634.73 1892.94,-634.73 1892.94,-634.73 1893.19,-630.41 1897.41,-635.33 1893.51,-625.08"/>
<text text-anchor="start" x="1899.9" y="-645.4" font-family="Arial" font-size="10.00">FOREIGN KEY (symmetryid) REFERENCES ndb.elementsymmetries(symmetryid)</text>
</g>
<!-- ndb.variableelements -->
<g id="node9" class="node">
<title>ndb.variableelements</title>
<polygon fill="#efefef" stroke="none" points="2157,-1021.4 2157,-1057 2476.8,-1057 2476.8,-1021.4 2157,-1021.4"/>
<polygon fill="none" stroke="black" points="2157,-1021.4 2157,-1057 2476.8,-1057 2476.8,-1021.4 2157,-1021.4"/>
<text text-anchor="start" x="2177.94" y="-1034.8" font-family="Arial Bold" font-size="18.00">ndb.variableelements</text>
<text text-anchor="start" x="2331.37" y="-1034.8" font-family="Arial" font-size="14.00">    </text>
<text text-anchor="start" x="2362.49" y="-1034.8" font-family="Arial" font-size="14.00" fill="#666666">[BASE TABLE]</text>
<polygon fill="none" stroke="black" points="2157,-990.6 2157,-1021.4 2476.8,-1021.4 2476.8,-990.6 2157,-990.6"/>
<text text-anchor="start" x="2164" y="-1002.8" font-family="Arial" font-size="14.00">elementtypeid </text>
<text text-anchor="start" x="2255.05" y="-1002.8" font-family="Arial" font-size="14.00" fill="#666666">[integer]</text>
<polygon fill="none" stroke="black" points="2157,-959.8 2157,-990.6 2476.8,-990.6 2476.8,-959.8 2157,-959.8"/>
<text text-anchor="start" x="2164" y="-972" font-family="Arial" font-size="14.00">maturityid </text>
<text text-anchor="start" x="2228.57" y="-972" font-family="Arial" font-size="14.00" fill="#666666">[integer]</text>
<polygon fill="none" stroke="black" points="2157,-929 2157,-959.8 2476.8,-959.8 2476.8,-929 2157,-929"/>
<text text-anchor="start" x="2164" y="-941.2" font-family="Arial" font-size="14.00">portionid </text>
<text text-anchor="start" x="2221.59" y="-941.2" font-family="Arial" font-size="14.00" fill="#666666">[integer]</text>
<polygon fill="none" stroke="black" points="2157,-898.2 2157,-929 2476.8,-929 2476.8,-898.2 2157,-898.2"/>
<text text-anchor="start" x="2164" y="-910.4" font-family="Arial" font-size="14.00">recdatecreated </text>
<text text-anchor="start" x="2261.28" y="-910.4" font-family="Arial" font-size="14.00" fill="#666666">[timestamp(0) without time zone]</text>
<polygon fill="none" stroke="black" points="2157,-867.4 2157,-898.2 2476.8,-898.2 2476.8,-867.4 2157,-867.4"/>
<text text-anchor="start" x="2164" y="-879.6" font-family="Arial" font-size="14.00">recdatemodified </text>
<text text-anchor="start" x="2267.5" y="-879.6" font-family="Arial" font-size="14.00" fill="#666666">[timestamp(0) without time zone]</text>
<polygon fill="none" stroke="black" points="2157,-836.6 2157,-867.4 2476.8,-867.4 2476.8,-836.6 2157,-836.6"/>
<text text-anchor="start" x="2164" y="-848.8" font-family="Arial" font-size="14.00">symmetryid </text>
<text text-anchor="start" x="2239.45" y="-848.8" font-family="Arial" font-size="14.00" fill="#666666">[integer]</text>
<polygon fill="none" stroke="black" points="2157,-805.8 2157,-836.6 2476.8,-836.6 2476.8,-805.8 2157,-805.8"/>
<text text-anchor="start" x="2164" y="-818" font-family="Arial" font-size="14.00">variableelement </text>
<text text-anchor="start" x="2266.72" y="-818" font-family="Arial" font-size="14.00" fill="#666666">[varchar(255)]</text>
<polygon fill="none" stroke="black" points="2157,-775 2157,-805.8 2476.8,-805.8 2476.8,-775 2157,-775"/>
<text text-anchor="start" x="2164" y="-787.2" font-family="Arial" font-size="14.00">variableelementid </text>
<text text-anchor="start" x="2277.62" y="-787.2" font-family="Arial" font-size="14.00" fill="#666666">[integer]</text>
</g>
<!-- ndb.variableelements&#45;&gt;ndb.elementsymmetries -->
<g id="edge8" class="edge">
<title>ndb.variableelements:symmetryid&#45;&gt;ndb.elementsymmetries:symmetryid</title>
<path fill="none" stroke="black" d="M2145.9,-849.72C2099.68,-827.39 2115.99,-647.03 2104.9,-593.2 2083.06,-487.24 2161.99,-355.2 2053.8,-355.2"/>
<polygon fill="black" stroke="black" points="2145.92,-849.73 2154.68,-856.32 2151.12,-850.9 2155.35,-851.85 2155.35,-851.85 2155.35,-851.85 2151.12,-850.9 2156.66,-847.54 2145.92,-849.73"/>
<text text-anchor="start" x="2163" y="-862" font-family="Arial" font-size="10.00">FOREIGN KEY (symmetryid) REFERENCES ndb.elementsymmetries(symmetryid) ON UPDATE CASCADE ON DELETE CASCADE</text>
</g>
</g>
</svg>
