<?xml version="1.0" encoding="UTF-8" standalone="no"?>
<!DOCTYPE svg PUBLIC "-//W3C//DTD SVG 1.1//EN"
 "http://www.w3.org/Graphics/SVG/1.1/DTD/svg11.dtd">
<!-- Generated by graphviz version 12.1.2 (20240928.0832)
 -->
<!-- Title: ndb.contextsdatasettypes Pages: 1 -->
<svg width="3589pt" height="658pt"
 viewBox="0.00 0.00 3589.49 657.60" xmlns="http://www.w3.org/2000/svg" xmlns:xlink="http://www.w3.org/1999/xlink">
<g id="graph0" class="graph" transform="scale(1 1) rotate(0) translate(4 653.6)">
<title>ndb.contextsdatasettypes</title>
<polygon fill="white" stroke="none" points="-4,4 -4,-653.6 3585.49,-653.6 3585.49,4 -4,4"/>
<!-- ndb.contextsdatasettypes -->
<g id="node1" class="node">
<title>ndb.contextsdatasettypes</title>
<polygon fill="#efefef" stroke="none" points="2518.51,-509.2 2518.51,-544.8 2838.31,-544.8 2838.31,-509.2 2518.51,-509.2"/>
<polygon fill="none" stroke="black" points="2518.51,-509.2 2518.51,-544.8 2838.31,-544.8 2838.31,-509.2 2518.51,-509.2"/>
<text text-anchor="start" x="2526.44" y="-522.6" font-family="Arial Bold" font-size="18.00">ndb.contextsdatasettypes</text>
<text text-anchor="start" x="2705.89" y="-522.6" font-family="Arial" font-size="14.00">    </text>
<text text-anchor="start" x="2737.01" y="-522.6" font-family="Arial" font-size="14.00" fill="#666666">[BASE TABLE]</text>
<polygon fill="none" stroke="black" points="2518.51,-478.4 2518.51,-509.2 2838.31,-509.2 2838.31,-478.4 2518.51,-478.4"/>
<text text-anchor="start" x="2525.51" y="-490.6" font-family="Arial" font-size="14.00">datasettypeid </text>
<text text-anchor="start" x="2612.68" y="-490.6" font-family="Arial" font-size="14.00" fill="#666666">[integer]</text>
<polygon fill="none" stroke="black" points="2518.51,-447.6 2518.51,-478.4 2838.31,-478.4 2838.31,-447.6 2518.51,-447.6"/>
<text text-anchor="start" x="2525.51" y="-459.8" font-family="Arial" font-size="14.00">variablecontextid </text>
<text text-anchor="start" x="2634.46" y="-459.8" font-family="Arial" font-size="14.00" fill="#666666">[integer]</text>
<polygon fill="none" stroke="black" points="2518.51,-416.8 2518.51,-447.6 2838.31,-447.6 2838.31,-416.8 2518.51,-416.8"/>
<text text-anchor="start" x="2525.51" y="-429" font-family="Arial" font-size="14.00">recdatecreated </text>
<text text-anchor="start" x="2622.79" y="-429" font-family="Arial" font-size="14.00" fill="#666666">[timestamp(0) without time zone]</text>
<polygon fill="none" stroke="black" points="2518.51,-386 2518.51,-416.8 2838.31,-416.8 2838.31,-386 2518.51,-386"/>
<text text-anchor="start" x="2525.51" y="-398.2" font-family="Arial" font-size="14.00">recdatemodified </text>
<text text-anchor="start" x="2629.01" y="-398.2" font-family="Arial" font-size="14.00" fill="#666666">[timestamp(0) without time zone]</text>
<polygon fill="none" stroke="black" stroke-width="3" points="2517.01,-384.5 2517.01,-546.3 2839.81,-546.3 2839.81,-384.5 2517.01,-384.5"/>
</g>
<!-- ndb.datasettypes -->
<g id="node2" class="node">
<title>ndb.datasettypes</title>
<polygon fill="#efefef" stroke="none" points="1348.51,-166.4 1348.51,-202 1668.31,-202 1668.31,-166.4 1348.51,-166.4"/>
<polygon fill="none" stroke="black" points="1348.51,-166.4 1348.51,-202 1668.31,-202 1668.31,-166.4 1348.51,-166.4"/>
<text text-anchor="start" x="1386.43" y="-179.8" font-family="Arial Bold" font-size="18.00">ndb.datasettypes</text>
<text text-anchor="start" x="1505.9" y="-179.8" font-family="Arial" font-size="14.00">    </text>
<text text-anchor="start" x="1537.02" y="-179.8" font-family="Arial" font-size="14.00" fill="#666666">[BASE TABLE]</text>
<polygon fill="none" stroke="black" points="1348.51,-135.6 1348.51,-166.4 1668.31,-166.4 1668.31,-135.6 1348.51,-135.6"/>
<text text-anchor="start" x="1355.51" y="-147.8" font-family="Arial" font-size="14.00">datasettypeid </text>
<text text-anchor="start" x="1442.68" y="-147.8" font-family="Arial" font-size="14.00" fill="#666666">[integer]</text>
<polygon fill="none" stroke="black" points="1348.51,-104.8 1348.51,-135.6 1668.31,-135.6 1668.31,-104.8 1348.51,-104.8"/>
<text text-anchor="start" x="1355.51" y="-117" font-family="Arial" font-size="14.00">datasettype </text>
<text text-anchor="start" x="1431.79" y="-117" font-family="Arial" font-size="14.00" fill="#666666">[varchar(64)]</text>
<polygon fill="none" stroke="black" points="1348.51,-74 1348.51,-104.8 1668.31,-104.8 1668.31,-74 1348.51,-74"/>
<text text-anchor="start" x="1355.51" y="-86.2" font-family="Arial" font-size="14.00">recdatecreated </text>
<text text-anchor="start" x="1452.79" y="-86.2" font-family="Arial" font-size="14.00" fill="#666666">[timestamp(0) without time zone]</text>
<polygon fill="none" stroke="black" points="1348.51,-43.2 1348.51,-74 1668.31,-74 1668.31,-43.2 1348.51,-43.2"/>
<text text-anchor="start" x="1355.51" y="-55.4" font-family="Arial" font-size="14.00">recdatemodified </text>
<text text-anchor="start" x="1459.01" y="-55.4" font-family="Arial" font-size="14.00" fill="#666666">[timestamp(0) without time zone]</text>
</g>
<!-- ndb.contextsdatasettypes&#45;&gt;ndb.datasettypes -->
<g id="edge1" class="edge">
<title>ndb.contextsdatasettypes:datasettypeid&#45;&gt;ndb.datasettypes:datasettypeid</title>
<path fill="none" stroke="black" d="M2507.51,-493.21C2428.31,-483.02 2532.61,-344.65 2463.41,-281.2 2331.6,-160.35 1848.13,-151 1669.31,-151"/>
<polygon fill="black" stroke="black" points="2507.19,-493.19 2516.91,-498.27 2512.52,-493.5 2516.84,-493.76 2516.84,-493.76 2516.84,-493.76 2512.52,-493.5 2517.44,-489.29 2507.19,-493.19"/>
<text text-anchor="start" x="2524.51" y="-503.8" font-family="Arial" font-size="10.00">FOREIGN KEY (datasettypeid) REFERENCES ndb.datasettypes(datasettypeid) ON UPDATE CASCADE ON DELETE CASCADE</text>
</g>
<!-- ndb.variablecontexts -->
<g id="node8" class="node">
<title>ndb.variablecontexts</title>
<polygon fill="#efefef" stroke="none" points="2731.51,-166.4 2731.51,-202 3051.31,-202 3051.31,-166.4 2731.51,-166.4"/>
<polygon fill="none" stroke="black" points="2731.51,-166.4 2731.51,-202 3051.31,-202 3051.31,-166.4 2731.51,-166.4"/>
<text text-anchor="start" x="2754.44" y="-179.8" font-family="Arial Bold" font-size="18.00">ndb.variablecontexts</text>
<text text-anchor="start" x="2903.89" y="-179.8" font-family="Arial" font-size="14.00">    </text>
<text text-anchor="start" x="2935.01" y="-179.8" font-family="Arial" font-size="14.00" fill="#666666">[BASE TABLE]</text>
<polygon fill="none" stroke="black" points="2731.51,-135.6 2731.51,-166.4 3051.31,-166.4 3051.31,-135.6 2731.51,-135.6"/>
<text text-anchor="start" x="2738.51" y="-147.8" font-family="Arial" font-size="14.00">variablecontextid </text>
<text text-anchor="start" x="2847.46" y="-147.8" font-family="Arial" font-size="14.00" fill="#666666">[integer]</text>
<polygon fill="none" stroke="black" points="2731.51,-104.8 2731.51,-135.6 3051.31,-135.6 3051.31,-104.8 2731.51,-104.8"/>
<text text-anchor="start" x="2738.51" y="-117" font-family="Arial" font-size="14.00">variablecontext </text>
<text text-anchor="start" x="2836.56" y="-117" font-family="Arial" font-size="14.00" fill="#666666">[varchar(64)]</text>
<polygon fill="none" stroke="black" points="2731.51,-74 2731.51,-104.8 3051.31,-104.8 3051.31,-74 2731.51,-74"/>
<text text-anchor="start" x="2738.51" y="-86.2" font-family="Arial" font-size="14.00">recdatecreated </text>
<text text-anchor="start" x="2835.79" y="-86.2" font-family="Arial" font-size="14.00" fill="#666666">[timestamp(0) without time zone]</text>
<polygon fill="none" stroke="black" points="2731.51,-43.2 2731.51,-74 3051.31,-74 3051.31,-43.2 2731.51,-43.2"/>
<text text-anchor="start" x="2738.51" y="-55.4" font-family="Arial" font-size="14.00">recdatemodified </text>
<text text-anchor="start" x="2842.01" y="-55.4" font-family="Arial" font-size="14.00" fill="#666666">[timestamp(0) without time zone]</text>
</g>
<!-- ndb.contextsdatasettypes&#45;&gt;ndb.variablecontexts -->
<g id="edge7" class="edge">
<title>ndb.contextsdatasettypes:variablecontextid&#45;&gt;ndb.variablecontexts:variablecontextid</title>
<path fill="none" stroke="black" d="M2849.59,-461.95C2889.47,-452.8 2859.39,-386.14 2838.31,-339.8 2812.05,-282.08 2757.84,-302.88 2731.51,-245.2 2714.12,-207.11 2688.64,-151 2730.51,-151"/>
<polygon fill="black" stroke="black" points="2849.59,-461.95 2839.18,-458.49 2844.28,-462.49 2839.97,-462.93 2839.97,-462.93 2839.97,-462.93 2844.28,-462.49 2840.1,-467.44 2849.59,-461.95"/>
<text text-anchor="start" x="2209.33" y="-473" font-family="Arial" font-size="10.00">FOREIGN KEY (variablecontextid) REFERENCES ndb.variablecontexts(variablecontextid) ON UPDATE CASCADE ON DELETE CASCADE</text>
</g>
<!-- ndb.unitsdatasettypes -->
<g id="node3" class="node">
<title>ndb.unitsdatasettypes</title>
<polygon fill="#efefef" stroke="none" points="269.51,-509.2 269.51,-544.8 589.31,-544.8 589.31,-509.2 269.51,-509.2"/>
<polygon fill="none" stroke="black" points="269.51,-509.2 269.51,-544.8 589.31,-544.8 589.31,-509.2 269.51,-509.2"/>
<text text-anchor="start" x="289.93" y="-522.6" font-family="Arial Bold" font-size="18.00">ndb.unitsdatasettypes</text>
<text text-anchor="start" x="444.4" y="-522.6" font-family="Arial" font-size="14.00">    </text>
<text text-anchor="start" x="475.52" y="-522.6" font-family="Arial" font-size="14.00" fill="#666666">[BASE TABLE]</text>
<polygon fill="none" stroke="black" points="269.51,-478.4 269.51,-509.2 589.31,-509.2 589.31,-478.4 269.51,-478.4"/>
<text text-anchor="start" x="276.51" y="-490.6" font-family="Arial" font-size="14.00">datasettypeid </text>
<text text-anchor="start" x="363.68" y="-490.6" font-family="Arial" font-size="14.00" fill="#666666">[integer]</text>
<polygon fill="none" stroke="black" points="269.51,-447.6 269.51,-478.4 589.31,-478.4 589.31,-447.6 269.51,-447.6"/>
<text text-anchor="start" x="276.51" y="-459.8" font-family="Arial" font-size="14.00">variableunitsid </text>
<text text-anchor="start" x="369.9" y="-459.8" font-family="Arial" font-size="14.00" fill="#666666">[integer]</text>
<polygon fill="none" stroke="black" points="269.51,-416.8 269.51,-447.6 589.31,-447.6 589.31,-416.8 269.51,-416.8"/>
<text text-anchor="start" x="276.51" y="-429" font-family="Arial" font-size="14.00">recdatecreated </text>
<text text-anchor="start" x="373.79" y="-429" font-family="Arial" font-size="14.00" fill="#666666">[timestamp(0) without time zone]</text>
<polygon fill="none" stroke="black" points="269.51,-386 269.51,-416.8 589.31,-416.8 589.31,-386 269.51,-386"/>
<text text-anchor="start" x="276.51" y="-398.2" font-family="Arial" font-size="14.00">recdatemodified </text>
<text text-anchor="start" x="380.01" y="-398.2" font-family="Arial" font-size="14.00" fill="#666666">[timestamp(0) without time zone]</text>
</g>
<!-- ndb.unitsdatasettypes&#45;&gt;ndb.datasettypes -->
<g id="edge2" class="edge">
<title>ndb.unitsdatasettypes:datasettypeid&#45;&gt;ndb.datasettypes:datasettypeid</title>
<path fill="none" stroke="black" d="M600.26,-493.21C679.09,-483.09 573.5,-345.57 641.41,-281.2 757.21,-171.44 1187.95,-151 1347.51,-151"/>
<polygon fill="black" stroke="black" points="600.62,-493.19 590.38,-489.29 595.3,-493.5 590.98,-493.76 590.98,-493.76 590.98,-493.76 595.3,-493.5 590.91,-498.27 600.62,-493.19"/>
<text text-anchor="start" x="7" y="-503.8" font-family="Arial" font-size="10.00">FOREIGN KEY (datasettypeid) REFERENCES ndb.datasettypes(datasettypeid) ON UPDATE CASCADE ON DELETE CASCADE</text>
</g>
<!-- ndb.datasettaxagrouptypes -->
<g id="node4" class="node">
<title>ndb.datasettaxagrouptypes</title>
<polygon fill="#efefef" stroke="none" points="693.44,-509.2 693.44,-544.8 1023.38,-544.8 1023.38,-509.2 693.44,-509.2"/>
<polygon fill="none" stroke="black" points="693.44,-509.2 693.44,-544.8 1023.38,-544.8 1023.38,-509.2 693.44,-509.2"/>
<text text-anchor="start" x="700.44" y="-522.6" font-family="Arial Bold" font-size="18.00">ndb.datasettaxagrouptypes</text>
<text text-anchor="start" x="891.89" y="-522.6" font-family="Arial" font-size="14.00">    </text>
<text text-anchor="start" x="923" y="-522.6" font-family="Arial" font-size="14.00" fill="#666666">[BASE TABLE]</text>
<polygon fill="none" stroke="black" points="693.44,-478.4 693.44,-509.2 1023.38,-509.2 1023.38,-478.4 693.44,-478.4"/>
<text text-anchor="start" x="700.44" y="-490.6" font-family="Arial" font-size="14.00">datasettypeid </text>
<text text-anchor="start" x="787.61" y="-490.6" font-family="Arial" font-size="14.00" fill="#666666">[integer]</text>
<polygon fill="none" stroke="black" points="693.44,-447.6 693.44,-478.4 1023.38,-478.4 1023.38,-447.6 693.44,-447.6"/>
<text text-anchor="start" x="700.44" y="-459.8" font-family="Arial" font-size="14.00">taxagroupid </text>
<text text-anchor="start" x="777.5" y="-459.8" font-family="Arial" font-size="14.00" fill="#666666">[varchar(3)]</text>
<polygon fill="none" stroke="black" points="693.44,-416.8 693.44,-447.6 1023.38,-447.6 1023.38,-416.8 693.44,-416.8"/>
<text text-anchor="start" x="700.44" y="-429" font-family="Arial" font-size="14.00">recdatecreated </text>
<text text-anchor="start" x="797.73" y="-429" font-family="Arial" font-size="14.00" fill="#666666">[timestamp(0) without time zone]</text>
<polygon fill="none" stroke="black" points="693.44,-386 693.44,-416.8 1023.38,-416.8 1023.38,-386 693.44,-386"/>
<text text-anchor="start" x="700.44" y="-398.2" font-family="Arial" font-size="14.00">recdatemodified </text>
<text text-anchor="start" x="803.95" y="-398.2" font-family="Arial" font-size="14.00" fill="#666666">[timestamp(0) without time zone]</text>
</g>
<!-- ndb.datasettaxagrouptypes&#45;&gt;ndb.datasettypes -->
<g id="edge3" class="edge">
<title>ndb.datasettaxagrouptypes:datasettypeid&#45;&gt;ndb.datasettypes:datasettypeid</title>
<path fill="none" stroke="black" d="M1034.37,-493.24C1113.82,-483.71 1016.57,-353.95 1075.41,-281.2 1159.71,-176.96 1213.44,-151 1347.51,-151"/>
<polygon fill="black" stroke="black" points="1034.69,-493.23 1024.46,-489.29 1029.37,-493.52 1025.04,-493.76 1025.04,-493.76 1025.04,-493.76 1029.37,-493.52 1024.96,-498.27 1034.69,-493.23"/>
<text text-anchor="start" x="736.22" y="-477.8" font-family="Arial" font-size="10.00">FOREIGN KEY (datasettypeid) REFERENCES ndb.datasettypes(datasettypeid) ON UPDATE CASCADE ON DELETE CASCADE</text>
</g>
<!-- ndb.datasets -->
<g id="node5" class="node">
<title>ndb.datasets</title>
<polygon fill="#efefef" stroke="none" points="1127.51,-570.8 1127.51,-606.4 1447.31,-606.4 1447.31,-570.8 1127.51,-570.8"/>
<polygon fill="none" stroke="black" points="1127.51,-570.8 1127.51,-606.4 1447.31,-606.4 1447.31,-570.8 1127.51,-570.8"/>
<text text-anchor="start" x="1180.92" y="-584.2" font-family="Arial Bold" font-size="18.00">ndb.datasets</text>
<text text-anchor="start" x="1269.4" y="-584.2" font-family="Arial" font-size="14.00">    </text>
<text text-anchor="start" x="1300.52" y="-584.2" font-family="Arial" font-size="14.00" fill="#666666">[BASE TABLE]</text>
<polygon fill="none" stroke="black" points="1127.51,-540 1127.51,-570.8 1447.31,-570.8 1447.31,-540 1127.51,-540"/>
<text text-anchor="start" x="1134.51" y="-552.2" font-family="Arial" font-size="14.00">datasetid </text>
<text text-anchor="start" x="1195.22" y="-552.2" font-family="Arial" font-size="14.00" fill="#666666">[integer]</text>
<polygon fill="none" stroke="black" points="1127.51,-509.2 1127.51,-540 1447.31,-540 1447.31,-509.2 1127.51,-509.2"/>
<text text-anchor="start" x="1134.51" y="-521.4" font-family="Arial" font-size="14.00">collectionunitid </text>
<text text-anchor="start" x="1230.23" y="-521.4" font-family="Arial" font-size="14.00" fill="#666666">[integer]</text>
<polygon fill="none" stroke="black" points="1127.51,-478.4 1127.51,-509.2 1447.31,-509.2 1447.31,-478.4 1127.51,-478.4"/>
<text text-anchor="start" x="1134.51" y="-490.6" font-family="Arial" font-size="14.00">datasettypeid </text>
<text text-anchor="start" x="1221.68" y="-490.6" font-family="Arial" font-size="14.00" fill="#666666">[integer]</text>
<polygon fill="none" stroke="black" points="1127.51,-447.6 1127.51,-478.4 1447.31,-478.4 1447.31,-447.6 1127.51,-447.6"/>
<text text-anchor="start" x="1134.51" y="-459.8" font-family="Arial" font-size="14.00">datasetname </text>
<text text-anchor="start" x="1219.34" y="-459.8" font-family="Arial" font-size="14.00" fill="#666666">[varchar(80)]</text>
<polygon fill="none" stroke="black" points="1127.51,-416.8 1127.51,-447.6 1447.31,-447.6 1447.31,-416.8 1127.51,-416.8"/>
<text text-anchor="start" x="1134.51" y="-429" font-family="Arial" font-size="14.00">notes </text>
<text text-anchor="start" x="1172.65" y="-429" font-family="Arial" font-size="14.00" fill="#666666">[text]</text>
<polygon fill="none" stroke="black" points="1127.51,-386 1127.51,-416.8 1447.31,-416.8 1447.31,-386 1127.51,-386"/>
<text text-anchor="start" x="1134.51" y="-398.2" font-family="Arial" font-size="14.00">recdatecreated </text>
<text text-anchor="start" x="1231.79" y="-398.2" font-family="Arial" font-size="14.00" fill="#666666">[timestamp(0) without time zone]</text>
<polygon fill="none" stroke="black" points="1127.51,-355.2 1127.51,-386 1447.31,-386 1447.31,-355.2 1127.51,-355.2"/>
<text text-anchor="start" x="1134.51" y="-367.4" font-family="Arial" font-size="14.00">recdatemodified </text>
<text text-anchor="start" x="1238.01" y="-367.4" font-family="Arial" font-size="14.00" fill="#666666">[timestamp(0) without time zone]</text>
<polygon fill="none" stroke="black" points="1127.51,-324.4 1127.51,-355.2 1447.31,-355.2 1447.31,-324.4 1127.51,-324.4"/>
<text text-anchor="start" x="1134.51" y="-336.6" font-family="Arial" font-size="14.00">embargoid </text>
<text text-anchor="start" x="1204.55" y="-336.6" font-family="Arial" font-size="14.00" fill="#666666">[integer]</text>
</g>
<!-- ndb.datasets&#45;&gt;ndb.datasettypes -->
<g id="edge4" class="edge">
<title>ndb.datasets:datasettypeid&#45;&gt;ndb.datasettypes:datasettypeid</title>
<path fill="none" stroke="black" d="M1458.16,-490.76C1492.23,-467.44 1472.37,-316.82 1447.31,-281.2 1420.42,-242.98 1375.51,-283.34 1348.51,-245.2 1324.32,-211.03 1305.64,-151 1347.51,-151"/>
<polygon fill="black" stroke="black" points="1458.18,-490.75 1447.3,-489.4 1453.09,-492.33 1448.95,-493.6 1448.95,-493.6 1448.95,-493.6 1453.09,-492.33 1449.95,-498 1458.18,-490.75"/>
<text text-anchor="start" x="1455.31" y="-503.8" font-family="Arial" font-size="10.00">FOREIGN KEY (datasettypeid) REFERENCES ndb.datasettypes(datasettypeid) ON UPDATE CASCADE ON DELETE CASCADE</text>
</g>
<!-- ndb.elementdatasettaxagroups -->
<g id="node6" class="node">
<title>ndb.elementdatasettaxagroups</title>
<polygon fill="#efefef" stroke="none" points="1551.45,-524.6 1551.45,-560.2 1907.37,-560.2 1907.37,-524.6 1551.45,-524.6"/>
<polygon fill="none" stroke="black" points="1551.45,-524.6 1551.45,-560.2 1907.37,-560.2 1907.37,-524.6 1551.45,-524.6"/>
<text text-anchor="start" x="1558.45" y="-538" font-family="Arial Bold" font-size="18.00">ndb.elementdatasettaxagroups</text>
<text text-anchor="start" x="1775.88" y="-538" font-family="Arial" font-size="14.00">    </text>
<text text-anchor="start" x="1806.99" y="-538" font-family="Arial" font-size="14.00" fill="#666666">[BASE TABLE]</text>
<polygon fill="none" stroke="black" points="1551.45,-493.8 1551.45,-524.6 1907.37,-524.6 1907.37,-493.8 1551.45,-493.8"/>
<text text-anchor="start" x="1558.45" y="-506" font-family="Arial" font-size="14.00">datasettypeid </text>
<text text-anchor="start" x="1645.62" y="-506" font-family="Arial" font-size="14.00" fill="#666666">[integer]</text>
<polygon fill="none" stroke="black" points="1551.45,-463 1551.45,-493.8 1907.37,-493.8 1907.37,-463 1551.45,-463"/>
<text text-anchor="start" x="1558.45" y="-475.2" font-family="Arial" font-size="14.00">taxagroupid </text>
<text text-anchor="start" x="1635.51" y="-475.2" font-family="Arial" font-size="14.00" fill="#666666">[varchar(3)]</text>
<polygon fill="none" stroke="black" points="1551.45,-432.2 1551.45,-463 1907.37,-463 1907.37,-432.2 1551.45,-432.2"/>
<text text-anchor="start" x="1558.45" y="-444.4" font-family="Arial" font-size="14.00">elementtypeid </text>
<text text-anchor="start" x="1649.51" y="-444.4" font-family="Arial" font-size="14.00" fill="#666666">[integer]</text>
<polygon fill="none" stroke="black" points="1551.45,-401.4 1551.45,-432.2 1907.37,-432.2 1907.37,-401.4 1551.45,-401.4"/>
<text text-anchor="start" x="1558.45" y="-413.6" font-family="Arial" font-size="14.00">recdatecreated </text>
<text text-anchor="start" x="1655.73" y="-413.6" font-family="Arial" font-size="14.00" fill="#666666">[timestamp(0) without time zone]</text>
<polygon fill="none" stroke="black" points="1551.45,-370.6 1551.45,-401.4 1907.37,-401.4 1907.37,-370.6 1551.45,-370.6"/>
<text text-anchor="start" x="1558.45" y="-382.8" font-family="Arial" font-size="14.00">recdatemodified </text>
<text text-anchor="start" x="1661.96" y="-382.8" font-family="Arial" font-size="14.00" fill="#666666">[timestamp(0) without time zone]</text>
</g>
<!-- ndb.elementdatasettaxagroups&#45;&gt;ndb.datasettypes -->
<g id="edge5" class="edge">
<title>ndb.elementdatasettaxagroups:datasettypeid&#45;&gt;ndb.datasettypes:datasettypeid</title>
<path fill="none" stroke="black" d="M1540.31,-508.55C1473.62,-499.38 1515.7,-395.79 1551.45,-327.4 1580.87,-271.13 1638.75,-301.4 1668.31,-245.2 1687.8,-208.14 1711.18,-151 1669.31,-151"/>
<polygon fill="black" stroke="black" points="1540.14,-508.54 1549.83,-513.67 1545.46,-508.88 1549.79,-509.16 1549.79,-509.16 1549.79,-509.16 1545.46,-508.88 1550.41,-504.69 1540.14,-508.54"/>
<text text-anchor="start" x="1557.45" y="-519.2" font-family="Arial" font-size="10.00">FOREIGN KEY (datasettypeid) REFERENCES ndb.datasettypes(datasettypeid)</text>
</g>
<!-- ndb.taphonomicsystemsdatasettypes -->
<g id="node7" class="node">
<title>ndb.taphonomicsystemsdatasettypes</title>
<polygon fill="#efefef" stroke="none" points="2011.44,-509.2 2011.44,-544.8 2411.38,-544.8 2411.38,-509.2 2011.44,-509.2"/>
<polygon fill="none" stroke="black" points="2011.44,-509.2 2011.44,-544.8 2411.38,-544.8 2411.38,-509.2 2011.44,-509.2"/>
<text text-anchor="start" x="2018.44" y="-522.6" font-family="Arial Bold" font-size="18.00">ndb.taphonomicsystemsdatasettypes</text>
<text text-anchor="start" x="2279.89" y="-522.6" font-family="Arial" font-size="14.00">    </text>
<text text-anchor="start" x="2311.01" y="-522.6" font-family="Arial" font-size="14.00" fill="#666666">[BASE TABLE]</text>
<polygon fill="none" stroke="black" points="2011.44,-478.4 2011.44,-509.2 2411.38,-509.2 2411.38,-478.4 2011.44,-478.4"/>
<text text-anchor="start" x="2018.44" y="-490.6" font-family="Arial" font-size="14.00">datasettypeid </text>
<text text-anchor="start" x="2105.61" y="-490.6" font-family="Arial" font-size="14.00" fill="#666666">[integer]</text>
<polygon fill="none" stroke="black" points="2011.44,-447.6 2011.44,-478.4 2411.38,-478.4 2411.38,-447.6 2011.44,-447.6"/>
<text text-anchor="start" x="2018.44" y="-459.8" font-family="Arial" font-size="14.00">taphonomicsystemid </text>
<text text-anchor="start" x="2149.94" y="-459.8" font-family="Arial" font-size="14.00" fill="#666666">[integer]</text>
<polygon fill="none" stroke="black" points="2011.44,-416.8 2011.44,-447.6 2411.38,-447.6 2411.38,-416.8 2011.44,-416.8"/>
<text text-anchor="start" x="2018.44" y="-429" font-family="Arial" font-size="14.00">recdatecreated </text>
<text text-anchor="start" x="2115.72" y="-429" font-family="Arial" font-size="14.00" fill="#666666">[timestamp(0) without time zone]</text>
<polygon fill="none" stroke="black" points="2011.44,-386 2011.44,-416.8 2411.38,-416.8 2411.38,-386 2011.44,-386"/>
<text text-anchor="start" x="2018.44" y="-398.2" font-family="Arial" font-size="14.00">recdatemodified </text>
<text text-anchor="start" x="2121.94" y="-398.2" font-family="Arial" font-size="14.00" fill="#666666">[timestamp(0) without time zone]</text>
</g>
<!-- ndb.taphonomicsystemsdatasettypes&#45;&gt;ndb.datasettypes -->
<g id="edge6" class="edge">
<title>ndb.taphonomicsystemsdatasettypes:datasettypeid&#45;&gt;ndb.datasettypes:datasettypeid</title>
<path fill="none" stroke="black" d="M2000.45,-493.24C1921.06,-483.66 2019.13,-353.23 1959.41,-281.2 1869.21,-172.41 1810.63,-151 1669.31,-151"/>
<polygon fill="black" stroke="black" points="2000.12,-493.22 2009.85,-498.27 2005.44,-493.52 2009.77,-493.76 2009.77,-493.76 2009.77,-493.76 2005.44,-493.52 2010.35,-489.29 2000.12,-493.22"/>
<text text-anchor="start" x="1427.13" y="-477.8" font-family="Arial" font-size="10.00">FOREIGN KEY (datasettypeid) REFERENCES ndb.datasettypes(datasettypeid) ON UPDATE CASCADE ON DELETE CASCADE</text>
</g>
<!-- ndb.variables -->
<g id="node9" class="node">
<title>ndb.variables</title>
<polygon fill="#efefef" stroke="none" points="2945.51,-555.4 2945.51,-591 3265.31,-591 3265.31,-555.4 2945.51,-555.4"/>
<polygon fill="none" stroke="black" points="2945.51,-555.4 2945.51,-591 3265.31,-591 3265.31,-555.4 2945.51,-555.4"/>
<text text-anchor="start" x="2994.93" y="-568.8" font-family="Arial Bold" font-size="18.00">ndb.variables</text>
<text text-anchor="start" x="3091.4" y="-568.8" font-family="Arial" font-size="14.00">    </text>
<text text-anchor="start" x="3122.52" y="-568.8" font-family="Arial" font-size="14.00" fill="#666666">[BASE TABLE]</text>
<polygon fill="none" stroke="black" points="2945.51,-524.6 2945.51,-555.4 3265.31,-555.4 3265.31,-524.6 2945.51,-524.6"/>
<text text-anchor="start" x="2952.51" y="-536.8" font-family="Arial" font-size="14.00">variableid </text>
<text text-anchor="start" x="3016.32" y="-536.8" font-family="Arial" font-size="14.00" fill="#666666">[integer]</text>
<polygon fill="none" stroke="black" points="2945.51,-493.8 2945.51,-524.6 3265.31,-524.6 3265.31,-493.8 2945.51,-493.8"/>
<text text-anchor="start" x="2952.51" y="-506" font-family="Arial" font-size="14.00">taxonid </text>
<text text-anchor="start" x="3001.54" y="-506" font-family="Arial" font-size="14.00" fill="#666666">[integer]</text>
<polygon fill="none" stroke="black" points="2945.51,-463 2945.51,-493.8 3265.31,-493.8 3265.31,-463 2945.51,-463"/>
<text text-anchor="start" x="2952.51" y="-475.2" font-family="Arial" font-size="14.00">variableelementid </text>
<text text-anchor="start" x="3066.13" y="-475.2" font-family="Arial" font-size="14.00" fill="#666666">[integer]</text>
<polygon fill="none" stroke="black" points="2945.51,-432.2 2945.51,-463 3265.31,-463 3265.31,-432.2 2945.51,-432.2"/>
<text text-anchor="start" x="2952.51" y="-444.4" font-family="Arial" font-size="14.00">variableunitsid </text>
<text text-anchor="start" x="3045.9" y="-444.4" font-family="Arial" font-size="14.00" fill="#666666">[integer]</text>
<polygon fill="none" stroke="black" points="2945.51,-401.4 2945.51,-432.2 3265.31,-432.2 3265.31,-401.4 2945.51,-401.4"/>
<text text-anchor="start" x="2952.51" y="-413.6" font-family="Arial" font-size="14.00">variablecontextid </text>
<text text-anchor="start" x="3061.46" y="-413.6" font-family="Arial" font-size="14.00" fill="#666666">[integer]</text>
<polygon fill="none" stroke="black" points="2945.51,-370.6 2945.51,-401.4 3265.31,-401.4 3265.31,-370.6 2945.51,-370.6"/>
<text text-anchor="start" x="2952.51" y="-382.8" font-family="Arial" font-size="14.00">recdatecreated </text>
<text text-anchor="start" x="3049.79" y="-382.8" font-family="Arial" font-size="14.00" fill="#666666">[timestamp(0) without time zone]</text>
<polygon fill="none" stroke="black" points="2945.51,-339.8 2945.51,-370.6 3265.31,-370.6 3265.31,-339.8 2945.51,-339.8"/>
<text text-anchor="start" x="2952.51" y="-352" font-family="Arial" font-size="14.00">recdatemodified </text>
<text text-anchor="start" x="3056.01" y="-352" font-family="Arial" font-size="14.00" fill="#666666">[timestamp(0) without time zone]</text>
</g>
<!-- ndb.variables&#45;&gt;ndb.variablecontexts -->
<g id="edge8" class="edge">
<title>ndb.variables:variablecontextid&#45;&gt;ndb.variablecontexts:variablecontextid</title>
<path fill="none" stroke="black" d="M2934.39,-415.72C2894.74,-406.4 2918.98,-338.59 2945.51,-296.6 2973.43,-252.4 3023.34,-289.36 3051.31,-245.2 3073.71,-209.83 3094.18,-151 3052.31,-151"/>
<polygon fill="black" stroke="black" points="2934.23,-415.71 2943.7,-421.24 2939.54,-416.27 2943.84,-416.73 2943.84,-416.73 2943.84,-416.73 2939.54,-416.27 2944.65,-412.29 2934.23,-415.71"/>
<text text-anchor="start" x="2951.51" y="-426.8" font-family="Arial" font-size="10.00">FOREIGN KEY (variablecontextid) REFERENCES ndb.variablecontexts(variablecontextid) ON UPDATE CASCADE ON DELETE CASCADE</text>
</g>
</g>
</svg>
