<?xml version="1.0" encoding="UTF-8" standalone="no"?>
<!DOCTYPE svg PUBLIC "-//W3C//DTD SVG 1.1//EN"
 "http://www.w3.org/Graphics/SVG/1.1/DTD/svg11.dtd">
<!-- Generated by graphviz version 12.1.2 (20240928.0832)
 -->
<!-- Title: ndb.dsdatasample Pages: 1 -->
<svg width="318pt" height="259pt"
 viewBox="0.00 0.00 317.55 259.20" xmlns="http://www.w3.org/2000/svg" xmlns:xlink="http://www.w3.org/1999/xlink">
<g id="graph0" class="graph" transform="scale(1 1) rotate(0) translate(4 255.2)">
<title>ndb.dsdatasample</title>
<polygon fill="white" stroke="none" points="-4,4 -4,-255.2 313.55,-255.2 313.55,4 -4,4"/>
<!-- ndb.dsdatasample -->
<g id="node1" class="node">
<title>ndb.dsdatasample</title>
<polygon fill="#efefef" stroke="none" points="46.2,-169.4 46.2,-205 263.35,-205 263.35,-169.4 46.2,-169.4"/>
<polygon fill="none" stroke="black" points="46.2,-169.4 46.2,-205 263.35,-205 263.35,-169.4 46.2,-169.4"/>
<text text-anchor="start" x="53.2" y="-182.8" font-family="Arial Bold" font-size="18.00">ndb.dsdatasample</text>
<text text-anchor="start" x="181.67" y="-182.8" font-family="Arial" font-size="14.00">    </text>
<text text-anchor="start" x="212.79" y="-182.8" font-family="Arial" font-size="14.00" fill="#666666">[VIEW]</text>
<polygon fill="none" stroke="black" points="46.2,-138.6 46.2,-169.4 263.35,-169.4 263.35,-138.6 46.2,-138.6"/>
<text text-anchor="start" x="53.2" y="-150.8" font-family="Arial" font-size="14.00">dataid </text>
<text text-anchor="start" x="95.23" y="-150.8" font-family="Arial" font-size="14.00" fill="#666666">[integer]</text>
<polygon fill="none" stroke="black" points="46.2,-107.8 46.2,-138.6 263.35,-138.6 263.35,-107.8 46.2,-107.8"/>
<text text-anchor="start" x="53.2" y="-120" font-family="Arial" font-size="14.00">datasetid </text>
<text text-anchor="start" x="113.91" y="-120" font-family="Arial" font-size="14.00" fill="#666666">[integer]</text>
<polygon fill="none" stroke="black" points="46.2,-77 46.2,-107.8 263.35,-107.8 263.35,-77 46.2,-77"/>
<text text-anchor="start" x="53.2" y="-89.2" font-family="Arial" font-size="14.00">sampleid </text>
<text text-anchor="start" x="113.12" y="-89.2" font-family="Arial" font-size="14.00" fill="#666666">[integer]</text>
<polygon fill="none" stroke="black" points="46.2,-46.2 46.2,-77 263.35,-77 263.35,-46.2 46.2,-46.2"/>
<text text-anchor="start" x="53.2" y="-58.4" font-family="Arial" font-size="14.00">variableid </text>
<text text-anchor="start" x="117.01" y="-58.4" font-family="Arial" font-size="14.00" fill="#666666">[integer]</text>
<polygon fill="none" stroke="black" stroke-width="3" points="44.7,-44.7 44.7,-206.5 264.85,-206.5 264.85,-44.7 44.7,-44.7"/>
</g>
</g>
</svg>
