<?xml version="1.0" encoding="UTF-8" standalone="no"?>
<!DOCTYPE svg PUBLIC "-//W3C//DTD SVG 1.1//EN"
 "http://www.w3.org/Graphics/SVG/1.1/DTD/svg11.dtd">
<!-- Generated by graphviz version 12.1.2 (20240928.0832)
 -->
<!-- Title: ndb.isosampleintrosystemtypes Pages: 1 -->
<svg width="1845pt" height="842pt"
 viewBox="0.00 0.00 1845.48 842.40" xmlns="http://www.w3.org/2000/svg" xmlns:xlink="http://www.w3.org/1999/xlink">
<g id="graph0" class="graph" transform="scale(1 1) rotate(0) translate(4 838.4)">
<title>ndb.isosampleintrosystemtypes</title>
<polygon fill="white" stroke="none" points="-4,4 -4,-838.4 1841.48,-838.4 1841.48,4 -4,4"/>
<!-- ndb.isosampleintrosystemtypes -->
<g id="node1" class="node">
<title>ndb.isosampleintrosystemtypes</title>
<polygon fill="#efefef" stroke="none" points="93.24,-228 93.24,-263.6 457.21,-263.6 457.21,-228 93.24,-228"/>
<polygon fill="none" stroke="black" points="93.24,-228 93.24,-263.6 457.21,-263.6 457.21,-228 93.24,-228"/>
<text text-anchor="start" x="100.24" y="-241.4" font-family="Arial Bold" font-size="18.00">ndb.isosampleintrosystemtypes</text>
<text text-anchor="start" x="325.72" y="-241.4" font-family="Arial" font-size="14.00">    </text>
<text text-anchor="start" x="356.84" y="-241.4" font-family="Arial" font-size="14.00" fill="#666666">[BASE TABLE]</text>
<polygon fill="none" stroke="black" points="93.24,-197.2 93.24,-228 457.21,-228 457.21,-197.2 93.24,-197.2"/>
<text text-anchor="start" x="100.24" y="-209.4" font-family="Arial" font-size="14.00">isosampleintrosystemtype </text>
<text text-anchor="start" x="265.19" y="-209.4" font-family="Arial" font-size="14.00" fill="#666666">[varchar(256)]</text>
<polygon fill="none" stroke="black" points="93.24,-166.4 93.24,-197.2 457.21,-197.2 457.21,-166.4 93.24,-166.4"/>
<text text-anchor="start" x="100.24" y="-178.6" font-family="Arial" font-size="14.00">isosampleintrosystemtypeid </text>
<text text-anchor="start" x="276.09" y="-178.6" font-family="Arial" font-size="14.00" fill="#666666">[integer]</text>
<polygon fill="none" stroke="black" points="93.24,-135.6 93.24,-166.4 457.21,-166.4 457.21,-135.6 93.24,-135.6"/>
<text text-anchor="start" x="100.24" y="-147.8" font-family="Arial" font-size="14.00">recdatecreated </text>
<text text-anchor="start" x="197.52" y="-147.8" font-family="Arial" font-size="14.00" fill="#666666">[timestamp(0) without time zone]</text>
<polygon fill="none" stroke="black" points="93.24,-104.8 93.24,-135.6 457.21,-135.6 457.21,-104.8 93.24,-104.8"/>
<text text-anchor="start" x="100.24" y="-117" font-family="Arial" font-size="14.00">recdatemodified </text>
<text text-anchor="start" x="203.74" y="-117" font-family="Arial" font-size="14.00" fill="#666666">[timestamp(0) without time zone]</text>
<polygon fill="none" stroke="black" stroke-width="3" points="91.74,-103.3 91.74,-265.1 458.71,-265.1 458.71,-103.3 91.74,-103.3"/>
</g>
<!-- ndb.isoinstrumentation -->
<g id="node2" class="node">
<title>ndb.isoinstrumentation</title>
<polygon fill="#efefef" stroke="none" points="781.33,-755.6 781.33,-791.2 1101.13,-791.2 1101.13,-755.6 781.33,-755.6"/>
<polygon fill="none" stroke="black" points="781.33,-755.6 781.33,-791.2 1101.13,-791.2 1101.13,-755.6 781.33,-755.6"/>
<text text-anchor="start" x="796.24" y="-769" font-family="Arial Bold" font-size="18.00">ndb.isoinstrumentation</text>
<text text-anchor="start" x="961.73" y="-769" font-family="Arial" font-size="14.00">    </text>
<text text-anchor="start" x="992.84" y="-769" font-family="Arial" font-size="14.00" fill="#666666">[BASE TABLE]</text>
<polygon fill="none" stroke="black" points="781.33,-724.8 781.33,-755.6 1101.13,-755.6 1101.13,-724.8 781.33,-724.8"/>
<text text-anchor="start" x="788.33" y="-737" font-family="Arial" font-size="14.00">datasetid </text>
<text text-anchor="start" x="849.04" y="-737" font-family="Arial" font-size="14.00" fill="#666666">[integer]</text>
<polygon fill="none" stroke="black" points="781.33,-694 781.33,-724.8 1101.13,-724.8 1101.13,-694 781.33,-694"/>
<text text-anchor="start" x="788.33" y="-706.2" font-family="Arial" font-size="14.00">insterrorlongtermpercent </text>
<text text-anchor="start" x="944.73" y="-706.2" font-family="Arial" font-size="14.00" fill="#666666">[double precision]</text>
<polygon fill="none" stroke="black" points="781.33,-663.2 781.33,-694 1101.13,-694 1101.13,-663.2 781.33,-663.2"/>
<text text-anchor="start" x="788.33" y="-675.4" font-family="Arial" font-size="14.00">insterrorpercent </text>
<text text-anchor="start" x="890.26" y="-675.4" font-family="Arial" font-size="14.00" fill="#666666">[double precision]</text>
<polygon fill="none" stroke="black" points="781.33,-632.4 781.33,-663.2 1101.13,-663.2 1101.13,-632.4 781.33,-632.4"/>
<text text-anchor="start" x="788.33" y="-644.6" font-family="Arial" font-size="14.00">insterrorrunsd </text>
<text text-anchor="start" x="878.58" y="-644.6" font-family="Arial" font-size="14.00" fill="#666666">[double precision]</text>
<polygon fill="none" stroke="black" points="781.33,-601.6 781.33,-632.4 1101.13,-632.4 1101.13,-601.6 781.33,-601.6"/>
<text text-anchor="start" x="788.33" y="-613.8" font-family="Arial" font-size="14.00">isoinstrumentationtypeid </text>
<text text-anchor="start" x="943.19" y="-613.8" font-family="Arial" font-size="14.00" fill="#666666">[integer]</text>
<polygon fill="none" stroke="black" points="781.33,-570.8 781.33,-601.6 1101.13,-601.6 1101.13,-570.8 781.33,-570.8"/>
<text text-anchor="start" x="788.33" y="-583" font-family="Arial" font-size="14.00">isosampleintrosystemtypeid </text>
<text text-anchor="start" x="964.18" y="-583" font-family="Arial" font-size="14.00" fill="#666666">[integer]</text>
<polygon fill="none" stroke="black" points="781.33,-540 781.33,-570.8 1101.13,-570.8 1101.13,-540 781.33,-540"/>
<text text-anchor="start" x="788.33" y="-552.2" font-family="Arial" font-size="14.00">notes </text>
<text text-anchor="start" x="826.47" y="-552.2" font-family="Arial" font-size="14.00" fill="#666666">[text]</text>
<polygon fill="none" stroke="black" points="781.33,-509.2 781.33,-540 1101.13,-540 1101.13,-509.2 781.33,-509.2"/>
<text text-anchor="start" x="788.33" y="-521.4" font-family="Arial" font-size="14.00">recdatecreated </text>
<text text-anchor="start" x="885.61" y="-521.4" font-family="Arial" font-size="14.00" fill="#666666">[timestamp(0) without time zone]</text>
<polygon fill="none" stroke="black" points="781.33,-478.4 781.33,-509.2 1101.13,-509.2 1101.13,-478.4 781.33,-478.4"/>
<text text-anchor="start" x="788.33" y="-490.6" font-family="Arial" font-size="14.00">recdatemodified </text>
<text text-anchor="start" x="891.83" y="-490.6" font-family="Arial" font-size="14.00" fill="#666666">[timestamp(0) without time zone]</text>
<polygon fill="none" stroke="black" points="781.33,-447.6 781.33,-478.4 1101.13,-478.4 1101.13,-447.6 781.33,-447.6"/>
<text text-anchor="start" x="788.33" y="-459.8" font-family="Arial" font-size="14.00">variableid </text>
<text text-anchor="start" x="852.14" y="-459.8" font-family="Arial" font-size="14.00" fill="#666666">[integer]</text>
</g>
<!-- ndb.isoinstrumentation&#45;&gt;ndb.isosampleintrosystemtypes -->
<g id="edge1" class="edge">
<title>ndb.isoinstrumentation:isosampleintrosystemtypeid&#45;&gt;ndb.isosampleintrosystemtypes:isosampleintrosystemtypeid</title>
<path fill="none" stroke="black" d="M770.17,-586.06C625.44,-582.15 595.12,-493.5 512.23,-368.4 464.54,-296.43 544.55,-181.8 458.21,-181.8"/>
<polygon fill="black" stroke="black" points="769.99,-586.06 779.93,-590.7 775.33,-586.13 779.66,-586.19 779.66,-586.19 779.66,-586.19 775.33,-586.13 780.05,-581.7 769.99,-586.06"/>
<text text-anchor="start" x="7" y="-596.2" font-family="Arial" font-size="10.00">FOREIGN KEY (isosampleintrosystemtypeid) REFERENCES ndb.isosampleintrosystemtypes(isosampleintrosystemtypeid) ON UPDATE CASCADE ON DELETE CASCADE</text>
</g>
<!-- ndb.datasets -->
<g id="node3" class="node">
<title>ndb.datasets</title>
<polygon fill="#efefef" stroke="none" points="564.33,-289.6 564.33,-325.2 884.13,-325.2 884.13,-289.6 564.33,-289.6"/>
<polygon fill="none" stroke="black" points="564.33,-289.6 564.33,-325.2 884.13,-325.2 884.13,-289.6 564.33,-289.6"/>
<text text-anchor="start" x="617.74" y="-303" font-family="Arial Bold" font-size="18.00">ndb.datasets</text>
<text text-anchor="start" x="706.22" y="-303" font-family="Arial" font-size="14.00">    </text>
<text text-anchor="start" x="737.34" y="-303" font-family="Arial" font-size="14.00" fill="#666666">[BASE TABLE]</text>
<polygon fill="none" stroke="black" points="564.33,-258.8 564.33,-289.6 884.13,-289.6 884.13,-258.8 564.33,-258.8"/>
<text text-anchor="start" x="571.33" y="-271" font-family="Arial" font-size="14.00">collectionunitid </text>
<text text-anchor="start" x="667.05" y="-271" font-family="Arial" font-size="14.00" fill="#666666">[integer]</text>
<polygon fill="none" stroke="black" points="564.33,-228 564.33,-258.8 884.13,-258.8 884.13,-228 564.33,-228"/>
<text text-anchor="start" x="571.33" y="-240.2" font-family="Arial" font-size="14.00">datasetid </text>
<text text-anchor="start" x="632.04" y="-240.2" font-family="Arial" font-size="14.00" fill="#666666">[integer]</text>
<polygon fill="none" stroke="black" points="564.33,-197.2 564.33,-228 884.13,-228 884.13,-197.2 564.33,-197.2"/>
<text text-anchor="start" x="571.33" y="-209.4" font-family="Arial" font-size="14.00">datasetname </text>
<text text-anchor="start" x="656.16" y="-209.4" font-family="Arial" font-size="14.00" fill="#666666">[varchar(80)]</text>
<polygon fill="none" stroke="black" points="564.33,-166.4 564.33,-197.2 884.13,-197.2 884.13,-166.4 564.33,-166.4"/>
<text text-anchor="start" x="571.33" y="-178.6" font-family="Arial" font-size="14.00">datasettypeid </text>
<text text-anchor="start" x="658.5" y="-178.6" font-family="Arial" font-size="14.00" fill="#666666">[integer]</text>
<polygon fill="none" stroke="black" points="564.33,-135.6 564.33,-166.4 884.13,-166.4 884.13,-135.6 564.33,-135.6"/>
<text text-anchor="start" x="571.33" y="-147.8" font-family="Arial" font-size="14.00">embargoid </text>
<text text-anchor="start" x="641.37" y="-147.8" font-family="Arial" font-size="14.00" fill="#666666">[integer]</text>
<polygon fill="none" stroke="black" points="564.33,-104.8 564.33,-135.6 884.13,-135.6 884.13,-104.8 564.33,-104.8"/>
<text text-anchor="start" x="571.33" y="-117" font-family="Arial" font-size="14.00">notes </text>
<text text-anchor="start" x="609.47" y="-117" font-family="Arial" font-size="14.00" fill="#666666">[text]</text>
<polygon fill="none" stroke="black" points="564.33,-74 564.33,-104.8 884.13,-104.8 884.13,-74 564.33,-74"/>
<text text-anchor="start" x="571.33" y="-86.2" font-family="Arial" font-size="14.00">recdatecreated </text>
<text text-anchor="start" x="668.61" y="-86.2" font-family="Arial" font-size="14.00" fill="#666666">[timestamp(0) without time zone]</text>
<polygon fill="none" stroke="black" points="564.33,-43.2 564.33,-74 884.13,-74 884.13,-43.2 564.33,-43.2"/>
<text text-anchor="start" x="571.33" y="-55.4" font-family="Arial" font-size="14.00">recdatemodified </text>
<text text-anchor="start" x="674.83" y="-55.4" font-family="Arial" font-size="14.00" fill="#666666">[timestamp(0) without time zone]</text>
</g>
<!-- ndb.isoinstrumentation&#45;&gt;ndb.datasets -->
<g id="edge2" class="edge">
<title>ndb.isoinstrumentation:datasetid&#45;&gt;ndb.datasets:datasetid</title>
<path fill="none" stroke="black" d="M770.18,-739.85C634.08,-730.21 696.83,-523.15 781.33,-404.4 809.39,-364.96 855.96,-407.77 884.13,-368.4 916.45,-323.21 940.68,-243.4 885.13,-243.4"/>
<polygon fill="black" stroke="black" points="770,-739.84 779.84,-744.69 775.33,-740.03 779.66,-740.18 779.66,-740.18 779.66,-740.18 775.33,-740.03 780.15,-735.69 770,-739.84"/>
<text text-anchor="start" x="253.72" y="-750.2" font-family="Arial" font-size="10.00">FOREIGN KEY (datasetid) REFERENCES ndb.datasets(datasetid) ON UPDATE CASCADE ON DELETE CASCADE</text>
</g>
<!-- ndb.isoinstrumentationtypes -->
<g id="node4" class="node">
<title>ndb.isoinstrumentationtypes</title>
<polygon fill="#efefef" stroke="none" points="988.24,-228 988.24,-263.6 1330.21,-263.6 1330.21,-228 988.24,-228"/>
<polygon fill="none" stroke="black" points="988.24,-228 988.24,-263.6 1330.21,-263.6 1330.21,-228 988.24,-228"/>
<text text-anchor="start" x="995.24" y="-241.4" font-family="Arial Bold" font-size="18.00">ndb.isoinstrumentationtypes</text>
<text text-anchor="start" x="1198.73" y="-241.4" font-family="Arial" font-size="14.00">    </text>
<text text-anchor="start" x="1229.84" y="-241.4" font-family="Arial" font-size="14.00" fill="#666666">[BASE TABLE]</text>
<polygon fill="none" stroke="black" points="988.24,-197.2 988.24,-228 1330.21,-228 1330.21,-197.2 988.24,-197.2"/>
<text text-anchor="start" x="995.24" y="-209.4" font-family="Arial" font-size="14.00">isoinstrumentationtype </text>
<text text-anchor="start" x="1139.21" y="-209.4" font-family="Arial" font-size="14.00" fill="#666666">[varchar(256)]</text>
<polygon fill="none" stroke="black" points="988.24,-166.4 988.24,-197.2 1330.21,-197.2 1330.21,-166.4 988.24,-166.4"/>
<text text-anchor="start" x="995.24" y="-178.6" font-family="Arial" font-size="14.00">isoinstrumentationtypeid </text>
<text text-anchor="start" x="1150.1" y="-178.6" font-family="Arial" font-size="14.00" fill="#666666">[integer]</text>
<polygon fill="none" stroke="black" points="988.24,-135.6 988.24,-166.4 1330.21,-166.4 1330.21,-135.6 988.24,-135.6"/>
<text text-anchor="start" x="995.24" y="-147.8" font-family="Arial" font-size="14.00">recdatecreated </text>
<text text-anchor="start" x="1092.52" y="-147.8" font-family="Arial" font-size="14.00" fill="#666666">[timestamp(0) without time zone]</text>
<polygon fill="none" stroke="black" points="988.24,-104.8 988.24,-135.6 1330.21,-135.6 1330.21,-104.8 988.24,-104.8"/>
<text text-anchor="start" x="995.24" y="-117" font-family="Arial" font-size="14.00">recdatemodified </text>
<text text-anchor="start" x="1098.74" y="-117" font-family="Arial" font-size="14.00" fill="#666666">[timestamp(0) without time zone]</text>
</g>
<!-- ndb.isoinstrumentation&#45;&gt;ndb.isoinstrumentationtypes -->
<g id="edge3" class="edge">
<title>ndb.isoinstrumentation:isoinstrumentationtypeid&#45;&gt;ndb.isoinstrumentationtypes:isoinstrumentationtypeid</title>
<path fill="none" stroke="black" d="M1112.52,-616.43C1192.27,-607.16 1139.09,-486.88 1101.13,-404.4 1073.4,-344.15 1016.07,-367 988.24,-306.8 964.93,-256.37 931.68,-181.8 987.24,-181.8"/>
<polygon fill="black" stroke="black" points="1112.45,-616.43 1102.21,-612.49 1107.12,-616.73 1102.79,-616.96 1102.79,-616.96 1102.79,-616.96 1107.12,-616.73 1102.71,-621.47 1112.45,-616.43"/>
<text text-anchor="start" x="1109.13" y="-627" font-family="Arial" font-size="10.00">FOREIGN KEY (isoinstrumentationtypeid) REFERENCES ndb.isoinstrumentationtypes(isoinstrumentationtypeid) ON UPDATE CASCADE ON DELETE CASCADE</text>
</g>
<!-- ndb.variables -->
<g id="node5" class="node">
<title>ndb.variables</title>
<polygon fill="#efefef" stroke="none" points="1434.33,-274.2 1434.33,-309.8 1754.13,-309.8 1754.13,-274.2 1434.33,-274.2"/>
<polygon fill="none" stroke="black" points="1434.33,-274.2 1434.33,-309.8 1754.13,-309.8 1754.13,-274.2 1434.33,-274.2"/>
<text text-anchor="start" x="1483.75" y="-287.6" font-family="Arial Bold" font-size="18.00">ndb.variables</text>
<text text-anchor="start" x="1580.22" y="-287.6" font-family="Arial" font-size="14.00">    </text>
<text text-anchor="start" x="1611.33" y="-287.6" font-family="Arial" font-size="14.00" fill="#666666">[BASE TABLE]</text>
<polygon fill="none" stroke="black" points="1434.33,-243.4 1434.33,-274.2 1754.13,-274.2 1754.13,-243.4 1434.33,-243.4"/>
<text text-anchor="start" x="1441.33" y="-255.6" font-family="Arial" font-size="14.00">recdatecreated </text>
<text text-anchor="start" x="1538.61" y="-255.6" font-family="Arial" font-size="14.00" fill="#666666">[timestamp(0) without time zone]</text>
<polygon fill="none" stroke="black" points="1434.33,-212.6 1434.33,-243.4 1754.13,-243.4 1754.13,-212.6 1434.33,-212.6"/>
<text text-anchor="start" x="1441.33" y="-224.8" font-family="Arial" font-size="14.00">recdatemodified </text>
<text text-anchor="start" x="1544.83" y="-224.8" font-family="Arial" font-size="14.00" fill="#666666">[timestamp(0) without time zone]</text>
<polygon fill="none" stroke="black" points="1434.33,-181.8 1434.33,-212.6 1754.13,-212.6 1754.13,-181.8 1434.33,-181.8"/>
<text text-anchor="start" x="1441.33" y="-194" font-family="Arial" font-size="14.00">taxonid </text>
<text text-anchor="start" x="1490.36" y="-194" font-family="Arial" font-size="14.00" fill="#666666">[integer]</text>
<polygon fill="none" stroke="black" points="1434.33,-151 1434.33,-181.8 1754.13,-181.8 1754.13,-151 1434.33,-151"/>
<text text-anchor="start" x="1441.33" y="-163.2" font-family="Arial" font-size="14.00">variablecontextid </text>
<text text-anchor="start" x="1550.28" y="-163.2" font-family="Arial" font-size="14.00" fill="#666666">[integer]</text>
<polygon fill="none" stroke="black" points="1434.33,-120.2 1434.33,-151 1754.13,-151 1754.13,-120.2 1434.33,-120.2"/>
<text text-anchor="start" x="1441.33" y="-132.4" font-family="Arial" font-size="14.00">variableelementid </text>
<text text-anchor="start" x="1554.95" y="-132.4" font-family="Arial" font-size="14.00" fill="#666666">[integer]</text>
<polygon fill="none" stroke="black" points="1434.33,-89.4 1434.33,-120.2 1754.13,-120.2 1754.13,-89.4 1434.33,-89.4"/>
<text text-anchor="start" x="1441.33" y="-101.6" font-family="Arial" font-size="14.00">variableid </text>
<text text-anchor="start" x="1505.14" y="-101.6" font-family="Arial" font-size="14.00" fill="#666666">[integer]</text>
<polygon fill="none" stroke="black" points="1434.33,-58.6 1434.33,-89.4 1754.13,-89.4 1754.13,-58.6 1434.33,-58.6"/>
<text text-anchor="start" x="1441.33" y="-70.8" font-family="Arial" font-size="14.00">variableunitsid </text>
<text text-anchor="start" x="1534.71" y="-70.8" font-family="Arial" font-size="14.00" fill="#666666">[integer]</text>
</g>
<!-- ndb.isoinstrumentation&#45;&gt;ndb.variables -->
<g id="edge4" class="edge">
<title>ndb.isoinstrumentation:variableid&#45;&gt;ndb.variables:variableid</title>
<path fill="none" stroke="black" d="M1112.48,-462.68C1184.24,-458.58 1341.1,-415.45 1382.23,-368.4 1460.76,-278.55 1313.99,-104.8 1433.33,-104.8"/>
<polygon fill="black" stroke="black" points="1112.46,-462.68 1102.32,-458.49 1107.12,-462.85 1102.8,-462.98 1102.8,-462.98 1102.8,-462.98 1107.12,-462.85 1102.6,-467.49 1112.46,-462.68"/>
<text text-anchor="start" x="1109.13" y="-473" font-family="Arial" font-size="10.00">FOREIGN KEY (variableid) REFERENCES ndb.variables(variableid) ON UPDATE CASCADE ON DELETE CASCADE</text>
</g>
</g>
</svg>
