<?xml version="1.0" encoding="UTF-8" standalone="no"?>
<!DOCTYPE svg PUBLIC "-//W3C//DTD SVG 1.1//EN"
 "http://www.w3.org/Graphics/SVG/1.1/DTD/svg11.dtd">
<!-- Generated by graphviz version 12.1.2 (20240928.0832)
 -->
<!-- Title: ndb.geochrontypes Pages: 1 -->
<svg width="3128pt" height="1616pt"
 viewBox="0.00 0.00 3127.97 1616.40" xmlns="http://www.w3.org/2000/svg" xmlns:xlink="http://www.w3.org/1999/xlink">
<g id="graph0" class="graph" transform="scale(1 1) rotate(0) translate(4 1612.4)">
<title>ndb.geochrontypes</title>
<polygon fill="white" stroke="none" points="-4,4 -4,-1612.4 3123.97,-1612.4 3123.97,4 -4,4"/>
<!-- ndb.geochrontypes -->
<g id="node1" class="node">
<title>ndb.geochrontypes</title>
<polygon fill="#efefef" stroke="none" points="1109.4,-289.6 1109.4,-325.2 1429.2,-325.2 1429.2,-289.6 1109.4,-289.6"/>
<polygon fill="none" stroke="black" points="1109.4,-289.6 1109.4,-325.2 1429.2,-325.2 1429.2,-289.6 1109.4,-289.6"/>
<text text-anchor="start" x="1138.82" y="-303" font-family="Arial Bold" font-size="18.00">ndb.geochrontypes</text>
<text text-anchor="start" x="1275.29" y="-303" font-family="Arial" font-size="14.00">    </text>
<text text-anchor="start" x="1306.41" y="-303" font-family="Arial" font-size="14.00" fill="#666666">[BASE TABLE]</text>
<polygon fill="none" stroke="black" points="1109.4,-258.8 1109.4,-289.6 1429.2,-289.6 1429.2,-258.8 1109.4,-258.8"/>
<text text-anchor="start" x="1116.4" y="-271" font-family="Arial" font-size="14.00">geochrontypeid </text>
<text text-anchor="start" x="1216.03" y="-271" font-family="Arial" font-size="14.00" fill="#666666">[integer]</text>
<polygon fill="none" stroke="black" points="1109.4,-228 1109.4,-258.8 1429.2,-258.8 1429.2,-228 1109.4,-228"/>
<text text-anchor="start" x="1116.4" y="-240.2" font-family="Arial" font-size="14.00">geochrontype </text>
<text text-anchor="start" x="1205.13" y="-240.2" font-family="Arial" font-size="14.00" fill="#666666">[varchar(64)]</text>
<polygon fill="none" stroke="black" points="1109.4,-197.2 1109.4,-228 1429.2,-228 1429.2,-197.2 1109.4,-197.2"/>
<text text-anchor="start" x="1116.4" y="-209.4" font-family="Arial" font-size="14.00">recdatecreated </text>
<text text-anchor="start" x="1213.68" y="-209.4" font-family="Arial" font-size="14.00" fill="#666666">[timestamp(0) without time zone]</text>
<polygon fill="none" stroke="black" points="1109.4,-166.4 1109.4,-197.2 1429.2,-197.2 1429.2,-166.4 1109.4,-166.4"/>
<text text-anchor="start" x="1116.4" y="-178.6" font-family="Arial" font-size="14.00">recdatemodified </text>
<text text-anchor="start" x="1219.9" y="-178.6" font-family="Arial" font-size="14.00" fill="#666666">[timestamp(0) without time zone]</text>
<polygon fill="none" stroke="black" stroke-width="3" points="1107.9,-164.9 1107.9,-326.7 1430.7,-326.7 1430.7,-164.9 1107.9,-164.9"/>
</g>
<!-- ndb.geochronology -->
<g id="node2" class="node">
<title>ndb.geochronology</title>
<polygon fill="#efefef" stroke="none" points="1536.4,-1002 1536.4,-1037.6 1856.2,-1037.6 1856.2,-1002 1536.4,-1002"/>
<polygon fill="none" stroke="black" points="1536.4,-1002 1536.4,-1037.6 1856.2,-1037.6 1856.2,-1002 1536.4,-1002"/>
<text text-anchor="start" x="1564.32" y="-1015.4" font-family="Arial Bold" font-size="18.00">ndb.geochronology</text>
<text text-anchor="start" x="1703.79" y="-1015.4" font-family="Arial" font-size="14.00">    </text>
<text text-anchor="start" x="1734.91" y="-1015.4" font-family="Arial" font-size="14.00" fill="#666666">[BASE TABLE]</text>
<polygon fill="none" stroke="black" points="1536.4,-971.2 1536.4,-1002 1856.2,-1002 1856.2,-971.2 1536.4,-971.2"/>
<text text-anchor="start" x="1543.4" y="-983.4" font-family="Arial" font-size="14.00">geochronid </text>
<text text-anchor="start" x="1616.57" y="-983.4" font-family="Arial" font-size="14.00" fill="#666666">[integer]</text>
<polygon fill="none" stroke="black" points="1536.4,-940.4 1536.4,-971.2 1856.2,-971.2 1856.2,-940.4 1536.4,-940.4"/>
<text text-anchor="start" x="1543.4" y="-952.6" font-family="Arial" font-size="14.00">sampleid </text>
<text text-anchor="start" x="1603.32" y="-952.6" font-family="Arial" font-size="14.00" fill="#666666">[integer]</text>
<polygon fill="none" stroke="black" points="1536.4,-909.6 1536.4,-940.4 1856.2,-940.4 1856.2,-909.6 1536.4,-909.6"/>
<text text-anchor="start" x="1543.4" y="-921.8" font-family="Arial" font-size="14.00">geochrontypeid </text>
<text text-anchor="start" x="1643.03" y="-921.8" font-family="Arial" font-size="14.00" fill="#666666">[integer]</text>
<polygon fill="none" stroke="black" points="1536.4,-878.8 1536.4,-909.6 1856.2,-909.6 1856.2,-878.8 1536.4,-878.8"/>
<text text-anchor="start" x="1543.4" y="-891" font-family="Arial" font-size="14.00">agetypeid </text>
<text text-anchor="start" x="1608.01" y="-891" font-family="Arial" font-size="14.00" fill="#666666">[integer]</text>
<polygon fill="none" stroke="black" points="1536.4,-848 1536.4,-878.8 1856.2,-878.8 1856.2,-848 1536.4,-848"/>
<text text-anchor="start" x="1543.4" y="-860.2" font-family="Arial" font-size="14.00">age </text>
<text text-anchor="start" x="1570.65" y="-860.2" font-family="Arial" font-size="14.00" fill="#666666">[double precision]</text>
<polygon fill="none" stroke="black" points="1536.4,-817.2 1536.4,-848 1856.2,-848 1856.2,-817.2 1536.4,-817.2"/>
<text text-anchor="start" x="1543.4" y="-829.4" font-family="Arial" font-size="14.00">errorolder </text>
<text text-anchor="start" x="1607.98" y="-829.4" font-family="Arial" font-size="14.00" fill="#666666">[double precision]</text>
<polygon fill="none" stroke="black" points="1536.4,-786.4 1536.4,-817.2 1856.2,-817.2 1856.2,-786.4 1536.4,-786.4"/>
<text text-anchor="start" x="1543.4" y="-798.6" font-family="Arial" font-size="14.00">erroryounger </text>
<text text-anchor="start" x="1627.44" y="-798.6" font-family="Arial" font-size="14.00" fill="#666666">[double precision]</text>
<polygon fill="none" stroke="black" points="1536.4,-755.6 1536.4,-786.4 1856.2,-786.4 1856.2,-755.6 1536.4,-755.6"/>
<text text-anchor="start" x="1543.4" y="-767.8" font-family="Arial" font-size="14.00">infinite </text>
<text text-anchor="start" x="1587.76" y="-767.8" font-family="Arial" font-size="14.00" fill="#666666">[boolean]</text>
<polygon fill="none" stroke="black" points="1536.4,-724.8 1536.4,-755.6 1856.2,-755.6 1856.2,-724.8 1536.4,-724.8"/>
<text text-anchor="start" x="1543.4" y="-737" font-family="Arial" font-size="14.00">delta13c </text>
<text text-anchor="start" x="1600.22" y="-737" font-family="Arial" font-size="14.00" fill="#666666">[double precision]</text>
<polygon fill="none" stroke="black" points="1536.4,-694 1536.4,-724.8 1856.2,-724.8 1856.2,-694 1536.4,-694"/>
<text text-anchor="start" x="1543.4" y="-706.2" font-family="Arial" font-size="14.00">labnumber </text>
<text text-anchor="start" x="1613.44" y="-706.2" font-family="Arial" font-size="14.00" fill="#666666">[varchar(40)]</text>
<polygon fill="none" stroke="black" points="1536.4,-663.2 1536.4,-694 1856.2,-694 1856.2,-663.2 1536.4,-663.2"/>
<text text-anchor="start" x="1543.4" y="-675.4" font-family="Arial" font-size="14.00">materialdated </text>
<text text-anchor="start" x="1632.12" y="-675.4" font-family="Arial" font-size="14.00" fill="#666666">[varchar(255)]</text>
<polygon fill="none" stroke="black" points="1536.4,-632.4 1536.4,-663.2 1856.2,-663.2 1856.2,-632.4 1536.4,-632.4"/>
<text text-anchor="start" x="1543.4" y="-644.6" font-family="Arial" font-size="14.00">notes </text>
<text text-anchor="start" x="1581.54" y="-644.6" font-family="Arial" font-size="14.00" fill="#666666">[text]</text>
<polygon fill="none" stroke="black" points="1536.4,-601.6 1536.4,-632.4 1856.2,-632.4 1856.2,-601.6 1536.4,-601.6"/>
<text text-anchor="start" x="1543.4" y="-613.8" font-family="Arial" font-size="14.00">recdatecreated </text>
<text text-anchor="start" x="1640.68" y="-613.8" font-family="Arial" font-size="14.00" fill="#666666">[timestamp(0) without time zone]</text>
<polygon fill="none" stroke="black" points="1536.4,-570.8 1536.4,-601.6 1856.2,-601.6 1856.2,-570.8 1536.4,-570.8"/>
<text text-anchor="start" x="1543.4" y="-583" font-family="Arial" font-size="14.00">recdatemodified </text>
<text text-anchor="start" x="1646.9" y="-583" font-family="Arial" font-size="14.00" fill="#666666">[timestamp(0) without time zone]</text>
</g>
<!-- ndb.geochronology&#45;&gt;ndb.geochrontypes -->
<g id="edge1" class="edge">
<title>ndb.geochronology:geochrontypeid&#45;&gt;ndb.geochrontypes:geochrontypeid</title>
<path fill="none" stroke="black" d="M1525.83,-920.84C1465.77,-865.42 1500.02,-274.2 1430.2,-274.2"/>
<polygon fill="black" stroke="black" points="1525.92,-920.88 1533.3,-928.99 1530.82,-923.01 1534.79,-924.73 1534.79,-924.73 1534.79,-924.73 1530.82,-923.01 1536.89,-920.74 1525.92,-920.88"/>
<text text-anchor="start" x="925.4" y="-935" font-family="Arial" font-size="10.00">FOREIGN KEY (geochrontypeid) REFERENCES ndb.geochrontypes(geochrontypeid) ON UPDATE CASCADE ON DELETE CASCADE</text>
</g>
<!-- ndb.samples -->
<g id="node10" class="node">
<title>ndb.samples</title>
<polygon fill="#efefef" stroke="none" points="1536.4,-412.8 1536.4,-448.4 1856.2,-448.4 1856.2,-412.8 1536.4,-412.8"/>
<polygon fill="none" stroke="black" points="1536.4,-412.8 1536.4,-448.4 1856.2,-448.4 1856.2,-412.8 1536.4,-412.8"/>
<text text-anchor="start" x="1589.31" y="-426.2" font-family="Arial Bold" font-size="18.00">ndb.samples</text>
<text text-anchor="start" x="1678.8" y="-426.2" font-family="Arial" font-size="14.00">    </text>
<text text-anchor="start" x="1709.92" y="-426.2" font-family="Arial" font-size="14.00" fill="#666666">[BASE TABLE]</text>
<polygon fill="none" stroke="black" points="1536.4,-382 1536.4,-412.8 1856.2,-412.8 1856.2,-382 1536.4,-382"/>
<text text-anchor="start" x="1543.4" y="-394.2" font-family="Arial" font-size="14.00">sampleid </text>
<text text-anchor="start" x="1603.32" y="-394.2" font-family="Arial" font-size="14.00" fill="#666666">[integer]</text>
<polygon fill="none" stroke="black" points="1536.4,-351.2 1536.4,-382 1856.2,-382 1856.2,-351.2 1536.4,-351.2"/>
<text text-anchor="start" x="1543.4" y="-363.4" font-family="Arial" font-size="14.00">analysisunitid </text>
<text text-anchor="start" x="1631.34" y="-363.4" font-family="Arial" font-size="14.00" fill="#666666">[integer]</text>
<polygon fill="none" stroke="black" points="1536.4,-320.4 1536.4,-351.2 1856.2,-351.2 1856.2,-320.4 1536.4,-320.4"/>
<text text-anchor="start" x="1543.4" y="-332.6" font-family="Arial" font-size="14.00">datasetid </text>
<text text-anchor="start" x="1604.11" y="-332.6" font-family="Arial" font-size="14.00" fill="#666666">[integer]</text>
<polygon fill="none" stroke="black" points="1536.4,-289.6 1536.4,-320.4 1856.2,-320.4 1856.2,-289.6 1536.4,-289.6"/>
<text text-anchor="start" x="1543.4" y="-301.8" font-family="Arial" font-size="14.00">samplename </text>
<text text-anchor="start" x="1627.44" y="-301.8" font-family="Arial" font-size="14.00" fill="#666666">[varchar(80)]</text>
<polygon fill="none" stroke="black" points="1536.4,-258.8 1536.4,-289.6 1856.2,-289.6 1856.2,-258.8 1536.4,-258.8"/>
<text text-anchor="start" x="1543.4" y="-271" font-family="Arial" font-size="14.00">analysisdate </text>
<text text-anchor="start" x="1625.12" y="-271" font-family="Arial" font-size="14.00" fill="#666666">[date]</text>
<polygon fill="none" stroke="black" points="1536.4,-228 1536.4,-258.8 1856.2,-258.8 1856.2,-228 1536.4,-228"/>
<text text-anchor="start" x="1543.4" y="-240.2" font-family="Arial" font-size="14.00">labnumber </text>
<text text-anchor="start" x="1613.44" y="-240.2" font-family="Arial" font-size="14.00" fill="#666666">[varchar(40)]</text>
<polygon fill="none" stroke="black" points="1536.4,-197.2 1536.4,-228 1856.2,-228 1856.2,-197.2 1536.4,-197.2"/>
<text text-anchor="start" x="1543.4" y="-209.4" font-family="Arial" font-size="14.00">preparationmethod </text>
<text text-anchor="start" x="1664.81" y="-209.4" font-family="Arial" font-size="14.00" fill="#666666">[text]</text>
<polygon fill="none" stroke="black" points="1536.4,-166.4 1536.4,-197.2 1856.2,-197.2 1856.2,-166.4 1536.4,-166.4"/>
<text text-anchor="start" x="1543.4" y="-178.6" font-family="Arial" font-size="14.00">notes </text>
<text text-anchor="start" x="1581.54" y="-178.6" font-family="Arial" font-size="14.00" fill="#666666">[text]</text>
<polygon fill="none" stroke="black" points="1536.4,-135.6 1536.4,-166.4 1856.2,-166.4 1856.2,-135.6 1536.4,-135.6"/>
<text text-anchor="start" x="1543.4" y="-147.8" font-family="Arial" font-size="14.00">recdatecreated </text>
<text text-anchor="start" x="1640.68" y="-147.8" font-family="Arial" font-size="14.00" fill="#666666">[timestamp(0) without time zone]</text>
<polygon fill="none" stroke="black" points="1536.4,-104.8 1536.4,-135.6 1856.2,-135.6 1856.2,-104.8 1536.4,-104.8"/>
<text text-anchor="start" x="1543.4" y="-117" font-family="Arial" font-size="14.00">recdatemodified </text>
<text text-anchor="start" x="1646.9" y="-117" font-family="Arial" font-size="14.00" fill="#666666">[timestamp(0) without time zone]</text>
<polygon fill="none" stroke="black" points="1536.4,-74 1536.4,-104.8 1856.2,-104.8 1856.2,-74 1536.4,-74"/>
<text text-anchor="start" x="1543.4" y="-86.2" font-family="Arial" font-size="14.00">sampledate </text>
<text text-anchor="start" x="1619.67" y="-86.2" font-family="Arial" font-size="14.00" fill="#666666">[date]</text>
<polygon fill="none" stroke="black" points="1536.4,-43.2 1536.4,-74 1856.2,-74 1856.2,-43.2 1536.4,-43.2"/>
<text text-anchor="start" x="1543.4" y="-55.4" font-family="Arial" font-size="14.00">taxonid </text>
<text text-anchor="start" x="1592.44" y="-55.4" font-family="Arial" font-size="14.00" fill="#666666">[integer]</text>
</g>
<!-- ndb.geochronology&#45;&gt;ndb.samples -->
<g id="edge9" class="edge">
<title>ndb.geochronology:sampleid&#45;&gt;ndb.samples:sampleid</title>
<path fill="none" stroke="black" d="M1866.5,-951.31C1919.07,-898.46 1915.97,-397.4 1857.2,-397.4"/>
<polygon fill="black" stroke="black" points="1866.5,-951.3 1855.54,-951.6 1861.7,-953.62 1857.8,-955.51 1857.8,-955.51 1857.8,-955.51 1861.7,-953.62 1859.46,-959.71 1866.5,-951.3"/>
<text text-anchor="start" x="1864.2" y="-965.8" font-family="Arial" font-size="10.00">FOREIGN KEY (sampleid) REFERENCES ndb.samples(sampleid) ON UPDATE CASCADE ON DELETE CASCADE</text>
</g>
<!-- ndb.agetypes -->
<g id="node11" class="node">
<title>ndb.agetypes</title>
<polygon fill="#efefef" stroke="none" points="1960.4,-320.4 1960.4,-356 2280.2,-356 2280.2,-320.4 1960.4,-320.4"/>
<polygon fill="none" stroke="black" points="1960.4,-320.4 1960.4,-356 2280.2,-356 2280.2,-320.4 1960.4,-320.4"/>
<text text-anchor="start" x="2010.82" y="-333.8" font-family="Arial Bold" font-size="18.00">ndb.agetypes</text>
<text text-anchor="start" x="2105.29" y="-333.8" font-family="Arial" font-size="14.00">    </text>
<text text-anchor="start" x="2136.41" y="-333.8" font-family="Arial" font-size="14.00" fill="#666666">[BASE TABLE]</text>
<polygon fill="none" stroke="black" points="1960.4,-289.6 1960.4,-320.4 2280.2,-320.4 2280.2,-289.6 1960.4,-289.6"/>
<text text-anchor="start" x="1967.4" y="-301.8" font-family="Arial" font-size="14.00">agetypeid </text>
<text text-anchor="start" x="2032.01" y="-301.8" font-family="Arial" font-size="14.00" fill="#666666">[integer]</text>
<polygon fill="none" stroke="black" points="1960.4,-258.8 1960.4,-289.6 2280.2,-289.6 2280.2,-258.8 1960.4,-258.8"/>
<text text-anchor="start" x="1967.4" y="-271" font-family="Arial" font-size="14.00">agetype </text>
<text text-anchor="start" x="2021.11" y="-271" font-family="Arial" font-size="14.00" fill="#666666">[varchar(64)]</text>
<polygon fill="none" stroke="black" points="1960.4,-228 1960.4,-258.8 2280.2,-258.8 2280.2,-228 1960.4,-228"/>
<text text-anchor="start" x="1967.4" y="-240.2" font-family="Arial" font-size="14.00">precedence </text>
<text text-anchor="start" x="2044.46" y="-240.2" font-family="Arial" font-size="14.00" fill="#666666">[integer]</text>
<polygon fill="none" stroke="black" points="1960.4,-197.2 1960.4,-228 2280.2,-228 2280.2,-197.2 1960.4,-197.2"/>
<text text-anchor="start" x="1967.4" y="-209.4" font-family="Arial" font-size="14.00">shortagetype </text>
<text text-anchor="start" x="2052.24" y="-209.4" font-family="Arial" font-size="14.00" fill="#666666">[varchar(32)]</text>
<polygon fill="none" stroke="black" points="1960.4,-166.4 1960.4,-197.2 2280.2,-197.2 2280.2,-166.4 1960.4,-166.4"/>
<text text-anchor="start" x="1967.4" y="-178.6" font-family="Arial" font-size="14.00">recdatecreated </text>
<text text-anchor="start" x="2064.68" y="-178.6" font-family="Arial" font-size="14.00" fill="#666666">[timestamp(0) without time zone]</text>
<polygon fill="none" stroke="black" points="1960.4,-135.6 1960.4,-166.4 2280.2,-166.4 2280.2,-135.6 1960.4,-135.6"/>
<text text-anchor="start" x="1967.4" y="-147.8" font-family="Arial" font-size="14.00">recdatemodified </text>
<text text-anchor="start" x="2070.9" y="-147.8" font-family="Arial" font-size="14.00" fill="#666666">[timestamp(0) without time zone]</text>
</g>
<!-- ndb.geochronology&#45;&gt;ndb.agetypes -->
<g id="edge10" class="edge">
<title>ndb.geochronology:agetypeid&#45;&gt;ndb.agetypes:agetypeid</title>
<path fill="none" stroke="black" d="M1866.6,-889.8C1920.78,-835.88 1896.33,-305 1959.4,-305"/>
<polygon fill="black" stroke="black" points="1866.56,-889.81 1855.59,-889.98 1861.73,-892.08 1857.81,-893.92 1857.81,-893.92 1857.81,-893.92 1861.73,-892.08 1859.41,-898.13 1866.56,-889.81"/>
<text text-anchor="start" x="1864.2" y="-904.2" font-family="Arial" font-size="10.00">FOREIGN KEY (agetypeid) REFERENCES ndb.agetypes(agetypeid)</text>
</g>
<!-- ndb.geochroncontrols -->
<g id="node3" class="node">
<title>ndb.geochroncontrols</title>
<polygon fill="#efefef" stroke="none" points="258.4,-1406.4 258.4,-1442 578.2,-1442 578.2,-1406.4 258.4,-1406.4"/>
<polygon fill="none" stroke="black" points="258.4,-1406.4 258.4,-1442 578.2,-1442 578.2,-1406.4 258.4,-1406.4"/>
<text text-anchor="start" x="277.82" y="-1419.8" font-family="Arial Bold" font-size="18.00">ndb.geochroncontrols</text>
<text text-anchor="start" x="434.29" y="-1419.8" font-family="Arial" font-size="14.00">    </text>
<text text-anchor="start" x="465.4" y="-1419.8" font-family="Arial" font-size="14.00" fill="#666666">[BASE TABLE]</text>
<polygon fill="none" stroke="black" points="258.4,-1375.6 258.4,-1406.4 578.2,-1406.4 578.2,-1375.6 258.4,-1375.6"/>
<text text-anchor="start" x="265.4" y="-1387.8" font-family="Arial" font-size="14.00">chroncontrolid </text>
<text text-anchor="start" x="357.23" y="-1387.8" font-family="Arial" font-size="14.00" fill="#666666">[integer]</text>
<polygon fill="none" stroke="black" points="258.4,-1344.8 258.4,-1375.6 578.2,-1375.6 578.2,-1344.8 258.4,-1344.8"/>
<text text-anchor="start" x="265.4" y="-1357" font-family="Arial" font-size="14.00">geochronid </text>
<text text-anchor="start" x="338.57" y="-1357" font-family="Arial" font-size="14.00" fill="#666666">[integer]</text>
<polygon fill="none" stroke="black" points="258.4,-1314 258.4,-1344.8 578.2,-1344.8 578.2,-1314 258.4,-1314"/>
<text text-anchor="start" x="265.4" y="-1326.2" font-family="Arial" font-size="14.00">recdatecreated </text>
<text text-anchor="start" x="362.68" y="-1326.2" font-family="Arial" font-size="14.00" fill="#666666">[timestamp(0) without time zone]</text>
<polygon fill="none" stroke="black" points="258.4,-1283.2 258.4,-1314 578.2,-1314 578.2,-1283.2 258.4,-1283.2"/>
<text text-anchor="start" x="265.4" y="-1295.4" font-family="Arial" font-size="14.00">recdatemodified </text>
<text text-anchor="start" x="368.9" y="-1295.4" font-family="Arial" font-size="14.00" fill="#666666">[timestamp(0) without time zone]</text>
</g>
<!-- ndb.geochroncontrols&#45;&gt;ndb.geochronology -->
<g id="edge2" class="edge">
<title>ndb.geochroncontrols:geochronid&#45;&gt;ndb.geochronology:geochronid</title>
<path fill="none" stroke="black" d="M589.4,-1359.65C680.68,-1349.16 552.35,-1189.91 630.3,-1116.8 704.41,-1047.29 1433.8,-986.6 1535.4,-986.6"/>
<polygon fill="black" stroke="black" points="589.52,-1359.65 579.29,-1355.69 584.19,-1359.93 579.87,-1360.16 579.87,-1360.16 579.87,-1360.16 584.19,-1359.93 579.77,-1364.68 589.52,-1359.65"/>
<text text-anchor="start" x="7" y="-1370.2" font-family="Arial" font-size="10.00">FOREIGN KEY (geochronid) REFERENCES ndb.geochronology(geochronid) ON UPDATE CASCADE ON DELETE CASCADE</text>
</g>
<!-- ndb.geochronpublications -->
<g id="node4" class="node">
<title>ndb.geochronpublications</title>
<polygon fill="#efefef" stroke="none" points="682.83,-1406.4 682.83,-1442 1007.78,-1442 1007.78,-1406.4 682.83,-1406.4"/>
<polygon fill="none" stroke="black" points="682.83,-1406.4 682.83,-1442 1007.78,-1442 1007.78,-1406.4 682.83,-1406.4"/>
<text text-anchor="start" x="689.83" y="-1419.8" font-family="Arial Bold" font-size="18.00">ndb.geochronpublications</text>
<text text-anchor="start" x="876.29" y="-1419.8" font-family="Arial" font-size="14.00">    </text>
<text text-anchor="start" x="907.4" y="-1419.8" font-family="Arial" font-size="14.00" fill="#666666">[BASE TABLE]</text>
<polygon fill="none" stroke="black" points="682.83,-1375.6 682.83,-1406.4 1007.78,-1406.4 1007.78,-1375.6 682.83,-1375.6"/>
<text text-anchor="start" x="689.83" y="-1387.8" font-family="Arial" font-size="14.00">geochronid </text>
<text text-anchor="start" x="762.99" y="-1387.8" font-family="Arial" font-size="14.00" fill="#666666">[integer]</text>
<polygon fill="none" stroke="black" points="682.83,-1344.8 682.83,-1375.6 1007.78,-1375.6 1007.78,-1344.8 682.83,-1344.8"/>
<text text-anchor="start" x="689.83" y="-1357" font-family="Arial" font-size="14.00">publicationid </text>
<text text-anchor="start" x="771.55" y="-1357" font-family="Arial" font-size="14.00" fill="#666666">[integer]</text>
<polygon fill="none" stroke="black" points="682.83,-1314 682.83,-1344.8 1007.78,-1344.8 1007.78,-1314 682.83,-1314"/>
<text text-anchor="start" x="689.83" y="-1326.2" font-family="Arial" font-size="14.00">recdatecreated </text>
<text text-anchor="start" x="787.11" y="-1326.2" font-family="Arial" font-size="14.00" fill="#666666">[timestamp(0) without time zone]</text>
<polygon fill="none" stroke="black" points="682.83,-1283.2 682.83,-1314 1007.78,-1314 1007.78,-1283.2 682.83,-1283.2"/>
<text text-anchor="start" x="689.83" y="-1295.4" font-family="Arial" font-size="14.00">recdatemodified </text>
<text text-anchor="start" x="793.33" y="-1295.4" font-family="Arial" font-size="14.00" fill="#666666">[timestamp(0) without time zone]</text>
</g>
<!-- ndb.geochronpublications&#45;&gt;ndb.geochronology -->
<g id="edge3" class="edge">
<title>ndb.geochronpublications:geochronid&#45;&gt;ndb.geochronology:geochronid</title>
<path fill="none" stroke="black" d="M1018.96,-1390.54C1123.81,-1380.36 978.74,-1205.32 1060.3,-1116.8 1134.48,-1036.29 1425.93,-986.6 1535.4,-986.6"/>
<polygon fill="black" stroke="black" points="1019.1,-1390.53 1008.9,-1386.49 1013.77,-1390.77 1009.44,-1390.97 1009.44,-1390.97 1009.44,-1390.97 1013.77,-1390.77 1009.31,-1395.48 1019.1,-1390.53"/>
<text text-anchor="start" x="726.18" y="-1375" font-family="Arial" font-size="10.00">FOREIGN KEY (geochronid) REFERENCES ndb.geochronology(geochronid) ON UPDATE CASCADE ON DELETE CASCADE</text>
</g>
<!-- ndb.radiocarbon -->
<g id="node5" class="node">
<title>ndb.radiocarbon</title>
<polygon fill="#efefef" stroke="none" points="1112.4,-1529.6 1112.4,-1565.2 1432.2,-1565.2 1432.2,-1529.6 1112.4,-1529.6"/>
<polygon fill="none" stroke="black" points="1112.4,-1529.6 1112.4,-1565.2 1432.2,-1565.2 1432.2,-1529.6 1112.4,-1529.6"/>
<text text-anchor="start" x="1151.33" y="-1543" font-family="Arial Bold" font-size="18.00">ndb.radiocarbon</text>
<text text-anchor="start" x="1268.78" y="-1543" font-family="Arial" font-size="14.00">    </text>
<text text-anchor="start" x="1299.9" y="-1543" font-family="Arial" font-size="14.00" fill="#666666">[BASE TABLE]</text>
<polygon fill="none" stroke="black" points="1112.4,-1498.8 1112.4,-1529.6 1432.2,-1529.6 1432.2,-1498.8 1112.4,-1498.8"/>
<text text-anchor="start" x="1119.4" y="-1511" font-family="Arial" font-size="14.00">geochronid </text>
<text text-anchor="start" x="1192.57" y="-1511" font-family="Arial" font-size="14.00" fill="#666666">[integer]</text>
<polygon fill="none" stroke="black" points="1112.4,-1468 1112.4,-1498.8 1432.2,-1498.8 1432.2,-1468 1112.4,-1468"/>
<text text-anchor="start" x="1119.4" y="-1480.2" font-family="Arial" font-size="14.00">radiocarbonmethodid </text>
<text text-anchor="start" x="1254.82" y="-1480.2" font-family="Arial" font-size="14.00" fill="#666666">[integer]</text>
<polygon fill="none" stroke="black" points="1112.4,-1437.2 1112.4,-1468 1432.2,-1468 1432.2,-1437.2 1112.4,-1437.2"/>
<text text-anchor="start" x="1119.4" y="-1449.4" font-family="Arial" font-size="14.00">percentc </text>
<text text-anchor="start" x="1176.99" y="-1449.4" font-family="Arial" font-size="14.00" fill="#666666">[double precision]</text>
<polygon fill="none" stroke="black" points="1112.4,-1406.4 1112.4,-1437.2 1432.2,-1437.2 1432.2,-1406.4 1112.4,-1406.4"/>
<text text-anchor="start" x="1119.4" y="-1418.6" font-family="Arial" font-size="14.00">percentn </text>
<text text-anchor="start" x="1177.77" y="-1418.6" font-family="Arial" font-size="14.00" fill="#666666">[double precision]</text>
<polygon fill="none" stroke="black" points="1112.4,-1375.6 1112.4,-1406.4 1432.2,-1406.4 1432.2,-1375.6 1112.4,-1375.6"/>
<text text-anchor="start" x="1119.4" y="-1387.8" font-family="Arial" font-size="14.00">delta13c </text>
<text text-anchor="start" x="1176.22" y="-1387.8" font-family="Arial" font-size="14.00" fill="#666666">[double precision]</text>
<polygon fill="none" stroke="black" points="1112.4,-1344.8 1112.4,-1375.6 1432.2,-1375.6 1432.2,-1344.8 1112.4,-1344.8"/>
<text text-anchor="start" x="1119.4" y="-1357" font-family="Arial" font-size="14.00">delta15n </text>
<text text-anchor="start" x="1177.01" y="-1357" font-family="Arial" font-size="14.00" fill="#666666">[double precision]</text>
<polygon fill="none" stroke="black" points="1112.4,-1314 1112.4,-1344.8 1432.2,-1344.8 1432.2,-1314 1112.4,-1314"/>
<text text-anchor="start" x="1119.4" y="-1326.2" font-family="Arial" font-size="14.00">percentcollagen </text>
<text text-anchor="start" x="1222.14" y="-1326.2" font-family="Arial" font-size="14.00" fill="#666666">[double precision]</text>
<polygon fill="none" stroke="black" points="1112.4,-1283.2 1112.4,-1314 1432.2,-1314 1432.2,-1283.2 1112.4,-1283.2"/>
<text text-anchor="start" x="1119.4" y="-1295.4" font-family="Arial" font-size="14.00">reservoir </text>
<text text-anchor="start" x="1177.75" y="-1295.4" font-family="Arial" font-size="14.00" fill="#666666">[double precision]</text>
<polygon fill="none" stroke="black" points="1112.4,-1252.4 1112.4,-1283.2 1432.2,-1283.2 1432.2,-1252.4 1112.4,-1252.4"/>
<text text-anchor="start" x="1119.4" y="-1264.6" font-family="Arial" font-size="14.00">recdatecreated </text>
<text text-anchor="start" x="1216.68" y="-1264.6" font-family="Arial" font-size="14.00" fill="#666666">[timestamp(0) without time zone]</text>
<polygon fill="none" stroke="black" points="1112.4,-1221.6 1112.4,-1252.4 1432.2,-1252.4 1432.2,-1221.6 1112.4,-1221.6"/>
<text text-anchor="start" x="1119.4" y="-1233.8" font-family="Arial" font-size="14.00">recdatemodified </text>
<text text-anchor="start" x="1222.9" y="-1233.8" font-family="Arial" font-size="14.00" fill="#666666">[timestamp(0) without time zone]</text>
<polygon fill="none" stroke="black" points="1112.4,-1190.8 1112.4,-1221.6 1432.2,-1221.6 1432.2,-1190.8 1112.4,-1190.8"/>
<text text-anchor="start" x="1119.4" y="-1203" font-family="Arial" font-size="14.00">masscmg </text>
<text text-anchor="start" x="1183.19" y="-1203" font-family="Arial" font-size="14.00" fill="#666666">[double precision]</text>
<polygon fill="none" stroke="black" points="1112.4,-1160 1112.4,-1190.8 1432.2,-1190.8 1432.2,-1160 1112.4,-1160"/>
<text text-anchor="start" x="1119.4" y="-1172.2" font-family="Arial" font-size="14.00">cnratio </text>
<text text-anchor="start" x="1165.31" y="-1172.2" font-family="Arial" font-size="14.00" fill="#666666">[double precision]</text>
</g>
<!-- ndb.radiocarbon&#45;&gt;ndb.geochronology -->
<g id="edge4" class="edge">
<title>ndb.radiocarbon:geochronid&#45;&gt;ndb.geochronology:geochronid</title>
<path fill="none" stroke="black" d="M1443.42,-1512.67C1517.45,-1489.05 1463.1,-1199.51 1484.3,-1116.8 1499.74,-1056.58 1473.24,-986.6 1535.4,-986.6"/>
<polygon fill="black" stroke="black" points="1443.42,-1512.67 1432.86,-1509.7 1438.14,-1513.46 1433.86,-1514.1 1433.86,-1514.1 1433.86,-1514.1 1438.14,-1513.46 1434.2,-1518.6 1443.42,-1512.67"/>
<text text-anchor="start" x="973.24" y="-1524.2" font-family="Arial" font-size="10.00">FOREIGN KEY (geochronid) REFERENCES ndb.geochronology(geochronid) ON DELETE CASCADE</text>
</g>
<!-- ndb.specimendates -->
<g id="node6" class="node">
<title>ndb.specimendates</title>
<polygon fill="#efefef" stroke="none" points="1536.4,-1498.8 1536.4,-1534.4 1856.2,-1534.4 1856.2,-1498.8 1536.4,-1498.8"/>
<polygon fill="none" stroke="black" points="1536.4,-1498.8 1536.4,-1534.4 1856.2,-1534.4 1856.2,-1498.8 1536.4,-1498.8"/>
<text text-anchor="start" x="1565.83" y="-1512.2" font-family="Arial Bold" font-size="18.00">ndb.specimendates</text>
<text text-anchor="start" x="1702.29" y="-1512.2" font-family="Arial" font-size="14.00">    </text>
<text text-anchor="start" x="1733.4" y="-1512.2" font-family="Arial" font-size="14.00" fill="#666666">[BASE TABLE]</text>
<polygon fill="none" stroke="black" points="1536.4,-1468 1536.4,-1498.8 1856.2,-1498.8 1856.2,-1468 1536.4,-1468"/>
<text text-anchor="start" x="1543.4" y="-1480.2" font-family="Arial" font-size="14.00">specimendateid </text>
<text text-anchor="start" x="1645.35" y="-1480.2" font-family="Arial" font-size="14.00" fill="#666666">[integer]</text>
<polygon fill="none" stroke="black" points="1536.4,-1437.2 1536.4,-1468 1856.2,-1468 1856.2,-1437.2 1536.4,-1437.2"/>
<text text-anchor="start" x="1543.4" y="-1449.4" font-family="Arial" font-size="14.00">geochronid </text>
<text text-anchor="start" x="1616.57" y="-1449.4" font-family="Arial" font-size="14.00" fill="#666666">[integer]</text>
<polygon fill="none" stroke="black" points="1536.4,-1406.4 1536.4,-1437.2 1856.2,-1437.2 1856.2,-1406.4 1536.4,-1406.4"/>
<text text-anchor="start" x="1543.4" y="-1418.6" font-family="Arial" font-size="14.00">taxonid </text>
<text text-anchor="start" x="1592.44" y="-1418.6" font-family="Arial" font-size="14.00" fill="#666666">[integer]</text>
<polygon fill="none" stroke="black" points="1536.4,-1375.6 1536.4,-1406.4 1856.2,-1406.4 1856.2,-1375.6 1536.4,-1375.6"/>
<text text-anchor="start" x="1543.4" y="-1387.8" font-family="Arial" font-size="14.00">fractionid </text>
<text text-anchor="start" x="1604.1" y="-1387.8" font-family="Arial" font-size="14.00" fill="#666666">[integer]</text>
<polygon fill="none" stroke="black" points="1536.4,-1344.8 1536.4,-1375.6 1856.2,-1375.6 1856.2,-1344.8 1536.4,-1344.8"/>
<text text-anchor="start" x="1543.4" y="-1357" font-family="Arial" font-size="14.00">sampleid </text>
<text text-anchor="start" x="1603.32" y="-1357" font-family="Arial" font-size="14.00" fill="#666666">[integer]</text>
<polygon fill="none" stroke="black" points="1536.4,-1314 1536.4,-1344.8 1856.2,-1344.8 1856.2,-1314 1536.4,-1314"/>
<text text-anchor="start" x="1543.4" y="-1326.2" font-family="Arial" font-size="14.00">notes </text>
<text text-anchor="start" x="1581.54" y="-1326.2" font-family="Arial" font-size="14.00" fill="#666666">[text]</text>
<polygon fill="none" stroke="black" points="1536.4,-1283.2 1536.4,-1314 1856.2,-1314 1856.2,-1283.2 1536.4,-1283.2"/>
<text text-anchor="start" x="1543.4" y="-1295.4" font-family="Arial" font-size="14.00">elementtypeid </text>
<text text-anchor="start" x="1634.46" y="-1295.4" font-family="Arial" font-size="14.00" fill="#666666">[integer]</text>
<polygon fill="none" stroke="black" points="1536.4,-1252.4 1536.4,-1283.2 1856.2,-1283.2 1856.2,-1252.4 1536.4,-1252.4"/>
<text text-anchor="start" x="1543.4" y="-1264.6" font-family="Arial" font-size="14.00">recdatecreated </text>
<text text-anchor="start" x="1640.68" y="-1264.6" font-family="Arial" font-size="14.00" fill="#666666">[timestamp(0) without time zone]</text>
<polygon fill="none" stroke="black" points="1536.4,-1221.6 1536.4,-1252.4 1856.2,-1252.4 1856.2,-1221.6 1536.4,-1221.6"/>
<text text-anchor="start" x="1543.4" y="-1233.8" font-family="Arial" font-size="14.00">recdatemodified </text>
<text text-anchor="start" x="1646.9" y="-1233.8" font-family="Arial" font-size="14.00" fill="#666666">[timestamp(0) without time zone]</text>
<polygon fill="none" stroke="black" points="1536.4,-1190.8 1536.4,-1221.6 1856.2,-1221.6 1856.2,-1190.8 1536.4,-1190.8"/>
<text text-anchor="start" x="1543.4" y="-1203" font-family="Arial" font-size="14.00">specimenid </text>
<text text-anchor="start" x="1618.1" y="-1203" font-family="Arial" font-size="14.00" fill="#666666">[integer]</text>
</g>
<!-- ndb.specimendates&#45;&gt;ndb.geochronology -->
<g id="edge5" class="edge">
<title>ndb.specimendates:geochronid&#45;&gt;ndb.geochronology:geochronid</title>
<path fill="none" stroke="black" d="M1866.04,-1447.68C1908.79,-1397.88 1905.84,-986.6 1857.2,-986.6"/>
<polygon fill="black" stroke="black" points="1866.23,-1447.57 1855.3,-1448.51 1861.57,-1450.17 1857.78,-1452.27 1857.78,-1452.27 1857.78,-1452.27 1861.57,-1450.17 1859.68,-1456.37 1866.23,-1447.57"/>
<text text-anchor="start" x="1864.2" y="-1462.6" font-family="Arial" font-size="10.00">FOREIGN KEY (geochronid) REFERENCES ndb.geochronology(geochronid) ON UPDATE CASCADE ON DELETE CASCADE</text>
</g>
<!-- ndb.externalgeochronology -->
<g id="node7" class="node">
<title>ndb.externalgeochronology</title>
<polygon fill="#efefef" stroke="none" points="1960.34,-1391 1960.34,-1426.6 2296.26,-1426.6 2296.26,-1391 1960.34,-1391"/>
<polygon fill="none" stroke="black" points="1960.34,-1391 1960.34,-1426.6 2296.26,-1426.6 2296.26,-1391 1960.34,-1391"/>
<text text-anchor="start" x="1967.34" y="-1404.4" font-family="Arial Bold" font-size="18.00">ndb.externalgeochronology</text>
<text text-anchor="start" x="2164.77" y="-1404.4" font-family="Arial" font-size="14.00">    </text>
<text text-anchor="start" x="2195.89" y="-1404.4" font-family="Arial" font-size="14.00" fill="#666666">[BASE TABLE]</text>
<polygon fill="none" stroke="black" points="1960.34,-1360.2 1960.34,-1391 2296.26,-1391 2296.26,-1360.2 1960.34,-1360.2"/>
<text text-anchor="start" x="1967.34" y="-1372.4" font-family="Arial" font-size="14.00">geochronid </text>
<text text-anchor="start" x="2040.5" y="-1372.4" font-family="Arial" font-size="14.00" fill="#666666">[integer]</text>
<polygon fill="none" stroke="black" points="1960.34,-1329.4 1960.34,-1360.2 2296.26,-1360.2 2296.26,-1329.4 1960.34,-1329.4"/>
<text text-anchor="start" x="1967.34" y="-1341.6" font-family="Arial" font-size="14.00">extdatabaseid </text>
<text text-anchor="start" x="2058.41" y="-1341.6" font-family="Arial" font-size="14.00" fill="#666666">[integer]</text>
<polygon fill="none" stroke="black" points="1960.34,-1298.6 1960.34,-1329.4 2296.26,-1329.4 2296.26,-1298.6 1960.34,-1298.6"/>
<text text-anchor="start" x="1967.34" y="-1310.8" font-family="Arial" font-size="14.00">identifier </text>
<text text-anchor="start" x="2024.14" y="-1310.8" font-family="Arial" font-size="14.00" fill="#666666">[text]</text>
</g>
<!-- ndb.externalgeochronology&#45;&gt;ndb.geochronology -->
<g id="edge6" class="edge">
<title>ndb.externalgeochronology:geochronid&#45;&gt;ndb.geochronology:geochronid</title>
<path fill="none" stroke="black" d="M1949.28,-1373.31C1903.56,-1350.85 1923.72,-1169.55 1908.3,-1116.8 1890.86,-1057.13 1919.36,-986.6 1857.2,-986.6"/>
<polygon fill="black" stroke="black" points="1949.26,-1373.31 1958.01,-1379.91 1954.46,-1374.49 1958.69,-1375.45 1958.69,-1375.45 1958.69,-1375.45 1954.46,-1374.49 1960.01,-1371.14 1949.26,-1373.31"/>
<text text-anchor="start" x="1966.34" y="-1385.6" font-family="Arial" font-size="10.00">FOREIGN KEY (geochronid) REFERENCES ndb.geochronology(geochronid)</text>
</g>
<!-- ndb.uraniumseries -->
<g id="node8" class="node">
<title>ndb.uraniumseries</title>
<polygon fill="#efefef" stroke="none" points="2400.82,-1498.8 2400.82,-1534.4 2671.78,-1534.4 2671.78,-1498.8 2400.82,-1498.8"/>
<polygon fill="none" stroke="black" points="2400.82,-1498.8 2400.82,-1534.4 2671.78,-1534.4 2671.78,-1498.8 2400.82,-1498.8"/>
<text text-anchor="start" x="2407.82" y="-1512.2" font-family="Arial Bold" font-size="18.00">ndb.uraniumseries</text>
<text text-anchor="start" x="2540.29" y="-1512.2" font-family="Arial" font-size="14.00">    </text>
<text text-anchor="start" x="2571.41" y="-1512.2" font-family="Arial" font-size="14.00" fill="#666666">[BASE TABLE]</text>
<polygon fill="none" stroke="black" points="2400.82,-1468 2400.82,-1498.8 2671.78,-1498.8 2671.78,-1468 2400.82,-1468"/>
<text text-anchor="start" x="2407.82" y="-1480.2" font-family="Arial" font-size="14.00">geochronid </text>
<text text-anchor="start" x="2480.99" y="-1480.2" font-family="Arial" font-size="14.00" fill="#666666">[integer]</text>
<polygon fill="none" stroke="black" points="2400.82,-1437.2 2400.82,-1468 2671.78,-1468 2671.78,-1437.2 2400.82,-1437.2"/>
<text text-anchor="start" x="2407.82" y="-1449.4" font-family="Arial" font-size="14.00">decayconstantid </text>
<text text-anchor="start" x="2512.89" y="-1449.4" font-family="Arial" font-size="14.00" fill="#666666">[integer]</text>
<polygon fill="none" stroke="black" points="2400.82,-1406.4 2400.82,-1437.2 2671.78,-1437.2 2671.78,-1406.4 2400.82,-1406.4"/>
<text text-anchor="start" x="2407.82" y="-1418.6" font-family="Arial" font-size="14.00">ratio230th232th </text>
<text text-anchor="start" x="2509.01" y="-1418.6" font-family="Arial" font-size="14.00" fill="#666666">[numeric]</text>
<polygon fill="none" stroke="black" points="2400.82,-1375.6 2400.82,-1406.4 2671.78,-1406.4 2671.78,-1375.6 2400.82,-1375.6"/>
<text text-anchor="start" x="2407.82" y="-1387.8" font-family="Arial" font-size="14.00">ratiouncertainty230th232th </text>
<text text-anchor="start" x="2577.5" y="-1387.8" font-family="Arial" font-size="14.00" fill="#666666">[numeric]</text>
<polygon fill="none" stroke="black" points="2400.82,-1344.8 2400.82,-1375.6 2671.78,-1375.6 2671.78,-1344.8 2400.82,-1344.8"/>
<text text-anchor="start" x="2407.82" y="-1357" font-family="Arial" font-size="14.00">activity230th238u </text>
<text text-anchor="start" x="2520.68" y="-1357" font-family="Arial" font-size="14.00" fill="#666666">[numeric]</text>
<polygon fill="none" stroke="black" points="2400.82,-1314 2400.82,-1344.8 2671.78,-1344.8 2671.78,-1314 2400.82,-1314"/>
<text text-anchor="start" x="2407.82" y="-1326.2" font-family="Arial" font-size="14.00">activityuncertainty230th238u </text>
<text text-anchor="start" x="2589.16" y="-1326.2" font-family="Arial" font-size="14.00" fill="#666666">[numeric]</text>
<polygon fill="none" stroke="black" points="2400.82,-1283.2 2400.82,-1314 2671.78,-1314 2671.78,-1283.2 2400.82,-1283.2"/>
<text text-anchor="start" x="2407.82" y="-1295.4" font-family="Arial" font-size="14.00">activity234u238u </text>
<text text-anchor="start" x="2516.79" y="-1295.4" font-family="Arial" font-size="14.00" fill="#666666">[numeric]</text>
<polygon fill="none" stroke="black" points="2400.82,-1252.4 2400.82,-1283.2 2671.78,-1283.2 2671.78,-1252.4 2400.82,-1252.4"/>
<text text-anchor="start" x="2407.82" y="-1264.6" font-family="Arial" font-size="14.00">activityuncertainty234u238u </text>
<text text-anchor="start" x="2585.27" y="-1264.6" font-family="Arial" font-size="14.00" fill="#666666">[numeric]</text>
<polygon fill="none" stroke="black" points="2400.82,-1221.6 2400.82,-1252.4 2671.78,-1252.4 2671.78,-1221.6 2400.82,-1221.6"/>
<text text-anchor="start" x="2407.82" y="-1233.8" font-family="Arial" font-size="14.00">iniratio230th232th </text>
<text text-anchor="start" x="2523.02" y="-1233.8" font-family="Arial" font-size="14.00" fill="#666666">[numeric]</text>
<polygon fill="none" stroke="black" points="2400.82,-1190.8 2400.82,-1221.6 2671.78,-1221.6 2671.78,-1190.8 2400.82,-1190.8"/>
<text text-anchor="start" x="2407.82" y="-1203" font-family="Arial" font-size="14.00">iniratiouncertainty230th232th </text>
<text text-anchor="start" x="2591.5" y="-1203" font-family="Arial" font-size="14.00" fill="#666666">[numeric]</text>
</g>
<!-- ndb.uraniumseries&#45;&gt;ndb.geochronology -->
<g id="edge7" class="edge">
<title>ndb.uraniumseries:geochronid&#45;&gt;ndb.geochronology:geochronid</title>
<path fill="none" stroke="black" d="M2389.72,-1481.6C2324.94,-1456.48 2400.44,-1175.58 2348.3,-1116.8 2273.38,-1032.34 1970.1,-986.6 1857.2,-986.6"/>
<polygon fill="black" stroke="black" points="2389.65,-1481.59 2398.7,-1487.77 2394.9,-1482.52 2399.16,-1483.28 2399.16,-1483.28 2399.16,-1483.28 2394.9,-1482.52 2400.28,-1478.91 2389.65,-1481.59"/>
<text text-anchor="start" x="2050.44" y="-1493.4" font-family="Arial" font-size="10.00">FOREIGN KEY (geochronid) REFERENCES ndb.geochronology(geochronid)</text>
</g>
<!-- ndb.uraniumseriesdata -->
<g id="node9" class="node">
<title>ndb.uraniumseriesdata</title>
<polygon fill="#efefef" stroke="none" points="2775.83,-1375.6 2775.83,-1411.2 3076.77,-1411.2 3076.77,-1375.6 2775.83,-1375.6"/>
<polygon fill="none" stroke="black" points="2775.83,-1375.6 2775.83,-1411.2 3076.77,-1411.2 3076.77,-1375.6 2775.83,-1375.6"/>
<text text-anchor="start" x="2782.83" y="-1389" font-family="Arial Bold" font-size="18.00">ndb.uraniumseriesdata</text>
<text text-anchor="start" x="2945.28" y="-1389" font-family="Arial" font-size="14.00">    </text>
<text text-anchor="start" x="2976.4" y="-1389" font-family="Arial" font-size="14.00" fill="#666666">[BASE TABLE]</text>
<polygon fill="none" stroke="black" points="2775.83,-1344.8 2775.83,-1375.6 3076.77,-1375.6 3076.77,-1344.8 2775.83,-1344.8"/>
<text text-anchor="start" x="2782.83" y="-1357" font-family="Arial" font-size="14.00">geochronid </text>
<text text-anchor="start" x="2856" y="-1357" font-family="Arial" font-size="14.00" fill="#666666">[integer]</text>
<polygon fill="none" stroke="black" points="2775.83,-1314 2775.83,-1344.8 3076.77,-1344.8 3076.77,-1314 2775.83,-1314"/>
<text text-anchor="start" x="2782.83" y="-1326.2" font-family="Arial" font-size="14.00">dataid </text>
<text text-anchor="start" x="2824.87" y="-1326.2" font-family="Arial" font-size="14.00" fill="#666666">[integer]</text>
</g>
<!-- ndb.uraniumseriesdata&#45;&gt;ndb.geochronology -->
<g id="edge8" class="edge">
<title>ndb.uraniumseriesdata:geochronid&#45;&gt;ndb.geochronology:geochronid</title>
<path fill="none" stroke="black" d="M2764.64,-1359.66C2673.42,-1349.18 2801.9,-1190.2 2724.3,-1116.8 2653.52,-1049.85 1954.62,-986.6 1857.2,-986.6"/>
<polygon fill="black" stroke="black" points="2764.51,-1359.65 2774.26,-1364.68 2769.84,-1359.93 2774.16,-1360.16 2774.16,-1360.16 2774.16,-1360.16 2769.84,-1359.93 2774.74,-1355.69 2764.51,-1359.65"/>
<text text-anchor="start" x="2425.45" y="-1370.2" font-family="Arial" font-size="10.00">FOREIGN KEY (geochronid) REFERENCES ndb.geochronology(geochronid)</text>
</g>
</g>
</svg>
