<?xml version="1.0" encoding="UTF-8" standalone="no"?>
<!DOCTYPE svg PUBLIC "-//W3C//DTD SVG 1.1//EN"
 "http://www.w3.org/Graphics/SVG/1.1/DTD/svg11.dtd">
<!-- Generated by graphviz version 12.1.2 (20240928.0832)
 -->
<!-- Title: ndb.chroncontrolprecisionranks Pages: 1 -->
<svg width="2383pt" height="966pt"
 viewBox="0.00 0.00 2382.76 965.60" xmlns="http://www.w3.org/2000/svg" xmlns:xlink="http://www.w3.org/1999/xlink">
<g id="graph0" class="graph" transform="scale(1 1) rotate(0) translate(4 961.6)">
<title>ndb.chroncontrolprecisionranks</title>
<polygon fill="white" stroke="none" points="-4,4 -4,-961.6 2378.76,-961.6 2378.76,4 -4,4"/>
<!-- ndb.chroncontrolprecisionranks -->
<g id="node1" class="node">
<title>ndb.chroncontrolprecisionranks</title>
<polygon fill="#efefef" stroke="none" points="46.2,-305 46.2,-340.6 413.13,-340.6 413.13,-305 46.2,-305"/>
<polygon fill="none" stroke="black" points="46.2,-305 46.2,-340.6 413.13,-340.6 413.13,-305 46.2,-305"/>
<text text-anchor="start" x="53.2" y="-318.4" font-family="Arial Bold" font-size="18.00">ndb.chroncontrolprecisionranks</text>
<text text-anchor="start" x="281.64" y="-318.4" font-family="Arial" font-size="14.00">    </text>
<text text-anchor="start" x="312.75" y="-318.4" font-family="Arial" font-size="14.00" fill="#666666">[BASE TABLE]</text>
<polygon fill="none" stroke="black" points="46.2,-274.2 46.2,-305 413.13,-305 413.13,-274.2 46.2,-274.2"/>
<text text-anchor="start" x="53.2" y="-286.4" font-family="Arial" font-size="14.00">precisionrank </text>
<text text-anchor="start" x="140.35" y="-286.4" font-family="Arial" font-size="14.00" fill="#666666">[varchar(255)]</text>
<polygon fill="none" stroke="black" points="46.2,-243.4 46.2,-274.2 413.13,-274.2 413.13,-243.4 46.2,-243.4"/>
<text text-anchor="start" x="53.2" y="-255.6" font-family="Arial" font-size="14.00">precisionrankid </text>
<text text-anchor="start" x="151.25" y="-255.6" font-family="Arial" font-size="14.00" fill="#666666">[integer]</text>
<polygon fill="none" stroke="black" points="46.2,-212.6 46.2,-243.4 413.13,-243.4 413.13,-212.6 46.2,-212.6"/>
<text text-anchor="start" x="53.2" y="-224.8" font-family="Arial" font-size="14.00">recdatecreated </text>
<text text-anchor="start" x="150.48" y="-224.8" font-family="Arial" font-size="14.00" fill="#666666">[timestamp(0) without time zone]</text>
<polygon fill="none" stroke="black" points="46.2,-181.8 46.2,-212.6 413.13,-212.6 413.13,-181.8 46.2,-181.8"/>
<text text-anchor="start" x="53.2" y="-194" font-family="Arial" font-size="14.00">recdatemodified </text>
<text text-anchor="start" x="156.7" y="-194" font-family="Arial" font-size="14.00" fill="#666666">[timestamp(0) without time zone]</text>
<polygon fill="none" stroke="black" stroke-width="3" points="44.7,-180.3 44.7,-342.1 414.63,-342.1 414.63,-180.3 44.7,-180.3"/>
</g>
<!-- ndb.chroncontrolranks -->
<g id="node2" class="node">
<title>ndb.chroncontrolranks</title>
<polygon fill="#efefef" stroke="none" points="1069.76,-878.8 1069.76,-914.4 1389.56,-914.4 1389.56,-878.8 1069.76,-878.8"/>
<polygon fill="none" stroke="black" points="1069.76,-878.8 1069.76,-914.4 1389.56,-914.4 1389.56,-878.8 1069.76,-878.8"/>
<text text-anchor="start" x="1086.19" y="-892.2" font-family="Arial Bold" font-size="18.00">ndb.chroncontrolranks</text>
<text text-anchor="start" x="1248.65" y="-892.2" font-family="Arial" font-size="14.00">    </text>
<text text-anchor="start" x="1279.76" y="-892.2" font-family="Arial" font-size="14.00" fill="#666666">[BASE TABLE]</text>
<polygon fill="none" stroke="black" points="1069.76,-848 1069.76,-878.8 1389.56,-878.8 1389.56,-848 1069.76,-848"/>
<text text-anchor="start" x="1076.76" y="-860.2" font-family="Arial" font-size="14.00">accuracydirectionid </text>
<text text-anchor="start" x="1200.49" y="-860.2" font-family="Arial" font-size="14.00" fill="#666666">[integer]</text>
<polygon fill="none" stroke="black" points="1069.76,-817.2 1069.76,-848 1389.56,-848 1389.56,-817.2 1069.76,-817.2"/>
<text text-anchor="start" x="1076.76" y="-829.4" font-family="Arial" font-size="14.00">accuracydistributionid </text>
<text text-anchor="start" x="1215.27" y="-829.4" font-family="Arial" font-size="14.00" fill="#666666">[integer]</text>
<polygon fill="none" stroke="black" points="1069.76,-786.4 1069.76,-817.2 1389.56,-817.2 1389.56,-786.4 1069.76,-786.4"/>
<text text-anchor="start" x="1076.76" y="-798.6" font-family="Arial" font-size="14.00">accuracyrankid </text>
<text text-anchor="start" x="1174.8" y="-798.6" font-family="Arial" font-size="14.00" fill="#666666">[integer]</text>
<polygon fill="none" stroke="black" points="1069.76,-755.6 1069.76,-786.4 1389.56,-786.4 1389.56,-755.6 1069.76,-755.6"/>
<text text-anchor="start" x="1076.76" y="-767.8" font-family="Arial" font-size="14.00">chroncontrolid </text>
<text text-anchor="start" x="1168.59" y="-767.8" font-family="Arial" font-size="14.00" fill="#666666">[integer]</text>
<polygon fill="none" stroke="black" points="1069.76,-724.8 1069.76,-755.6 1389.56,-755.6 1389.56,-724.8 1069.76,-724.8"/>
<text text-anchor="start" x="1076.76" y="-737" font-family="Arial" font-size="14.00">chroncontrolrankid </text>
<text text-anchor="start" x="1195.83" y="-737" font-family="Arial" font-size="14.00" fill="#666666">[integer]</text>
<polygon fill="none" stroke="black" points="1069.76,-694 1069.76,-724.8 1389.56,-724.8 1389.56,-694 1069.76,-694"/>
<text text-anchor="start" x="1076.76" y="-706.2" font-family="Arial" font-size="14.00">outlier </text>
<text text-anchor="start" x="1118.78" y="-706.2" font-family="Arial" font-size="14.00" fill="#666666">[boolean]</text>
<polygon fill="none" stroke="black" points="1069.76,-663.2 1069.76,-694 1389.56,-694 1389.56,-663.2 1069.76,-663.2"/>
<text text-anchor="start" x="1076.76" y="-675.4" font-family="Arial" font-size="14.00">precisionrankid </text>
<text text-anchor="start" x="1174.81" y="-675.4" font-family="Arial" font-size="14.00" fill="#666666">[integer]</text>
<polygon fill="none" stroke="black" points="1069.76,-632.4 1069.76,-663.2 1389.56,-663.2 1389.56,-632.4 1069.76,-632.4"/>
<text text-anchor="start" x="1076.76" y="-644.6" font-family="Arial" font-size="14.00">recdatecreated </text>
<text text-anchor="start" x="1174.05" y="-644.6" font-family="Arial" font-size="14.00" fill="#666666">[timestamp(0) without time zone]</text>
<polygon fill="none" stroke="black" points="1069.76,-601.6 1069.76,-632.4 1389.56,-632.4 1389.56,-601.6 1069.76,-601.6"/>
<text text-anchor="start" x="1076.76" y="-613.8" font-family="Arial" font-size="14.00">recdatemodified </text>
<text text-anchor="start" x="1180.27" y="-613.8" font-family="Arial" font-size="14.00" fill="#666666">[timestamp(0) without time zone]</text>
</g>
<!-- ndb.chroncontrolranks&#45;&gt;ndb.chroncontrolprecisionranks -->
<g id="edge1" class="edge">
<title>ndb.chroncontrolranks:precisionrankid&#45;&gt;ndb.chroncontrolprecisionranks:precisionrankid</title>
<path fill="none" stroke="black" d="M1058.69,-678.51C913.64,-675.95 560.37,-620.24 467.66,-522.4 385.44,-435.62 533.67,-258.8 414.13,-258.8"/>
<polygon fill="black" stroke="black" points="1058.43,-678.51 1068.39,-683.1 1063.76,-678.55 1068.09,-678.59 1068.09,-678.59 1068.09,-678.59 1063.76,-678.55 1068.47,-674.1 1058.43,-678.51"/>
<text text-anchor="start" x="407.12" y="-688.6" font-family="Arial" font-size="10.00">FOREIGN KEY (precisionrankid) REFERENCES ndb.chroncontrolprecisionranks(precisionrankid) ON UPDATE CASCADE ON DELETE CASCADE</text>
</g>
<!-- ndb.chroncontrolaccuracydirections -->
<g id="node3" class="node">
<title>ndb.chroncontrolaccuracydirections</title>
<polygon fill="#efefef" stroke="none" points="520.22,-305 520.22,-340.6 917.1,-340.6 917.1,-305 520.22,-305"/>
<polygon fill="none" stroke="black" points="520.22,-305 520.22,-340.6 917.1,-340.6 917.1,-305 520.22,-305"/>
<text text-anchor="start" x="527.22" y="-318.4" font-family="Arial Bold" font-size="18.00">ndb.chroncontrolaccuracydirections</text>
<text text-anchor="start" x="785.61" y="-318.4" font-family="Arial" font-size="14.00">    </text>
<text text-anchor="start" x="816.73" y="-318.4" font-family="Arial" font-size="14.00" fill="#666666">[BASE TABLE]</text>
<polygon fill="none" stroke="black" points="520.22,-274.2 520.22,-305 917.1,-305 917.1,-274.2 520.22,-274.2"/>
<text text-anchor="start" x="527.22" y="-286.4" font-family="Arial" font-size="14.00">accuracydirection </text>
<text text-anchor="start" x="640.05" y="-286.4" font-family="Arial" font-size="14.00" fill="#666666">[varchar(80)]</text>
<polygon fill="none" stroke="black" points="520.22,-243.4 520.22,-274.2 917.1,-274.2 917.1,-243.4 520.22,-243.4"/>
<text text-anchor="start" x="527.22" y="-255.6" font-family="Arial" font-size="14.00">accuracydirectionid </text>
<text text-anchor="start" x="650.95" y="-255.6" font-family="Arial" font-size="14.00" fill="#666666">[integer]</text>
<polygon fill="none" stroke="black" points="520.22,-212.6 520.22,-243.4 917.1,-243.4 917.1,-212.6 520.22,-212.6"/>
<text text-anchor="start" x="527.22" y="-224.8" font-family="Arial" font-size="14.00">recdatecreated </text>
<text text-anchor="start" x="624.51" y="-224.8" font-family="Arial" font-size="14.00" fill="#666666">[timestamp(0) without time zone]</text>
<polygon fill="none" stroke="black" points="520.22,-181.8 520.22,-212.6 917.1,-212.6 917.1,-181.8 520.22,-181.8"/>
<text text-anchor="start" x="527.22" y="-194" font-family="Arial" font-size="14.00">recdatemodified </text>
<text text-anchor="start" x="630.73" y="-194" font-family="Arial" font-size="14.00" fill="#666666">[timestamp(0) without time zone]</text>
</g>
<!-- ndb.chroncontrolranks&#45;&gt;ndb.chroncontrolaccuracydirections -->
<g id="edge2" class="edge">
<title>ndb.chroncontrolranks:accuracydirectionid&#45;&gt;ndb.chroncontrolaccuracydirections:accuracydirectionid</title>
<path fill="none" stroke="black" d="M1058.51,-863.12C915.18,-854.99 1006.04,-672.33 969.66,-522.4 955.59,-464.39 977.79,-258.8 918.1,-258.8"/>
<polygon fill="black" stroke="black" points="1058.43,-863.12 1068.31,-867.89 1063.77,-863.26 1068.09,-863.38 1068.09,-863.38 1068.09,-863.38 1063.77,-863.26 1068.55,-858.89 1058.43,-863.12"/>
<text text-anchor="start" x="352.1" y="-873.4" font-family="Arial" font-size="10.00">FOREIGN KEY (accuracydirectionid) REFERENCES ndb.chroncontrolaccuracydirections(accuracydirectionid) ON UPDATE CASCADE ON DELETE CASCADE</text>
</g>
<!-- ndb.chroncontrolaccuracydistributions -->
<g id="node4" class="node">
<title>ndb.chroncontrolaccuracydistributions</title>
<polygon fill="#efefef" stroke="none" points="1021.71,-305 1021.71,-340.6 1437.62,-340.6 1437.62,-305 1021.71,-305"/>
<polygon fill="none" stroke="black" points="1021.71,-305 1021.71,-340.6 1437.62,-340.6 1437.62,-305 1021.71,-305"/>
<text text-anchor="start" x="1028.71" y="-318.4" font-family="Arial Bold" font-size="18.00">ndb.chroncontrolaccuracydistributions</text>
<text text-anchor="start" x="1306.13" y="-318.4" font-family="Arial" font-size="14.00">    </text>
<text text-anchor="start" x="1337.24" y="-318.4" font-family="Arial" font-size="14.00" fill="#666666">[BASE TABLE]</text>
<polygon fill="none" stroke="black" points="1021.71,-274.2 1021.71,-305 1437.62,-305 1437.62,-274.2 1021.71,-274.2"/>
<text text-anchor="start" x="1028.71" y="-286.4" font-family="Arial" font-size="14.00">accuracydistribution </text>
<text text-anchor="start" x="1156.32" y="-286.4" font-family="Arial" font-size="14.00" fill="#666666">[varchar(40)]</text>
<polygon fill="none" stroke="black" points="1021.71,-243.4 1021.71,-274.2 1437.62,-274.2 1437.62,-243.4 1021.71,-243.4"/>
<text text-anchor="start" x="1028.71" y="-255.6" font-family="Arial" font-size="14.00">accuracydistributionid </text>
<text text-anchor="start" x="1167.22" y="-255.6" font-family="Arial" font-size="14.00" fill="#666666">[integer]</text>
<polygon fill="none" stroke="black" points="1021.71,-212.6 1021.71,-243.4 1437.62,-243.4 1437.62,-212.6 1021.71,-212.6"/>
<text text-anchor="start" x="1028.71" y="-224.8" font-family="Arial" font-size="14.00">recdatecreated </text>
<text text-anchor="start" x="1125.99" y="-224.8" font-family="Arial" font-size="14.00" fill="#666666">[timestamp(0) without time zone]</text>
<polygon fill="none" stroke="black" points="1021.71,-181.8 1021.71,-212.6 1437.62,-212.6 1437.62,-181.8 1021.71,-181.8"/>
<text text-anchor="start" x="1028.71" y="-194" font-family="Arial" font-size="14.00">recdatemodified </text>
<text text-anchor="start" x="1132.21" y="-194" font-family="Arial" font-size="14.00" fill="#666666">[timestamp(0) without time zone]</text>
</g>
<!-- ndb.chroncontrolranks&#45;&gt;ndb.chroncontrolaccuracydistributions -->
<g id="edge3" class="edge">
<title>ndb.chroncontrolranks:accuracydistributionid&#45;&gt;ndb.chroncontrolaccuracydistributions:accuracydistributionid</title>
<path fill="none" stroke="black" d="M1399.81,-828.63C1458.97,-777.93 1499.47,-258.8 1438.62,-258.8"/>
<polygon fill="black" stroke="black" points="1400.06,-828.52 1389.09,-828.33 1395.16,-830.63 1391.18,-832.34 1391.18,-832.34 1391.18,-832.34 1395.16,-830.63 1392.65,-836.6 1400.06,-828.52"/>
<text text-anchor="start" x="1397.56" y="-842.6" font-family="Arial" font-size="10.00">FOREIGN KEY (accuracydistributionid) REFERENCES ndb.chroncontrolaccuracydistributions(accuracydistributionid) ON UPDATE CASCADE ON DELETE CASCADE</text>
</g>
<!-- ndb.chroncontrolaccuracyranks -->
<g id="node5" class="node">
<title>ndb.chroncontrolaccuracyranks</title>
<polygon fill="#efefef" stroke="none" points="1542.22,-305 1542.22,-340.6 1907.11,-340.6 1907.11,-305 1542.22,-305"/>
<polygon fill="none" stroke="black" points="1542.22,-305 1542.22,-340.6 1907.11,-340.6 1907.11,-305 1542.22,-305"/>
<text text-anchor="start" x="1549.22" y="-318.4" font-family="Arial Bold" font-size="18.00">ndb.chroncontrolaccuracyranks</text>
<text text-anchor="start" x="1775.62" y="-318.4" font-family="Arial" font-size="14.00">    </text>
<text text-anchor="start" x="1806.73" y="-318.4" font-family="Arial" font-size="14.00" fill="#666666">[BASE TABLE]</text>
<polygon fill="none" stroke="black" points="1542.22,-274.2 1542.22,-305 1907.11,-305 1907.11,-274.2 1542.22,-274.2"/>
<text text-anchor="start" x="1549.22" y="-286.4" font-family="Arial" font-size="14.00">accuracyrank </text>
<text text-anchor="start" x="1636.36" y="-286.4" font-family="Arial" font-size="14.00" fill="#666666">[varchar(255)]</text>
<polygon fill="none" stroke="black" points="1542.22,-243.4 1542.22,-274.2 1907.11,-274.2 1907.11,-243.4 1542.22,-243.4"/>
<text text-anchor="start" x="1549.22" y="-255.6" font-family="Arial" font-size="14.00">accuracyrankid </text>
<text text-anchor="start" x="1647.26" y="-255.6" font-family="Arial" font-size="14.00" fill="#666666">[integer]</text>
<polygon fill="none" stroke="black" points="1542.22,-212.6 1542.22,-243.4 1907.11,-243.4 1907.11,-212.6 1542.22,-212.6"/>
<text text-anchor="start" x="1549.22" y="-224.8" font-family="Arial" font-size="14.00">recdatecreated </text>
<text text-anchor="start" x="1646.5" y="-224.8" font-family="Arial" font-size="14.00" fill="#666666">[timestamp(0) without time zone]</text>
<polygon fill="none" stroke="black" points="1542.22,-181.8 1542.22,-212.6 1907.11,-212.6 1907.11,-181.8 1542.22,-181.8"/>
<text text-anchor="start" x="1549.22" y="-194" font-family="Arial" font-size="14.00">recdatemodified </text>
<text text-anchor="start" x="1652.72" y="-194" font-family="Arial" font-size="14.00" fill="#666666">[timestamp(0) without time zone]</text>
</g>
<!-- ndb.chroncontrolranks&#45;&gt;ndb.chroncontrolaccuracyranks -->
<g id="edge4" class="edge">
<title>ndb.chroncontrolranks:accuracyrankid&#45;&gt;ndb.chroncontrolaccuracyranks:accuracyrankid</title>
<path fill="none" stroke="black" d="M1400.93,-801.46C1518.71,-793.49 1455.85,-646.01 1489.66,-522.4 1505.41,-464.83 1481.53,-258.8 1541.22,-258.8"/>
<polygon fill="black" stroke="black" points="1400.89,-801.46 1390.75,-797.29 1395.56,-801.64 1391.23,-801.78 1391.23,-801.78 1391.23,-801.78 1395.56,-801.64 1391.04,-806.29 1400.89,-801.46"/>
<text text-anchor="start" x="1397.56" y="-811.8" font-family="Arial" font-size="10.00">FOREIGN KEY (accuracyrankid) REFERENCES ndb.chroncontrolaccuracyranks(accuracyrankid) ON UPDATE CASCADE ON DELETE CASCADE</text>
</g>
<!-- ndb.chroncontrols -->
<g id="node6" class="node">
<title>ndb.chroncontrols</title>
<polygon fill="#efefef" stroke="none" points="2011.76,-443.6 2011.76,-479.2 2331.56,-479.2 2331.56,-443.6 2011.76,-443.6"/>
<polygon fill="none" stroke="black" points="2011.76,-443.6 2011.76,-479.2 2331.56,-479.2 2331.56,-443.6 2011.76,-443.6"/>
<text text-anchor="start" x="2044.18" y="-457" font-family="Arial Bold" font-size="18.00">ndb.chroncontrols</text>
<text text-anchor="start" x="2174.66" y="-457" font-family="Arial" font-size="14.00">    </text>
<text text-anchor="start" x="2205.77" y="-457" font-family="Arial" font-size="14.00" fill="#666666">[BASE TABLE]</text>
<polygon fill="none" stroke="black" points="2011.76,-412.8 2011.76,-443.6 2331.56,-443.6 2331.56,-412.8 2011.76,-412.8"/>
<text text-anchor="start" x="2018.76" y="-425" font-family="Arial" font-size="14.00">age </text>
<text text-anchor="start" x="2046.01" y="-425" font-family="Arial" font-size="14.00" fill="#666666">[double precision]</text>
<polygon fill="none" stroke="black" points="2011.76,-382 2011.76,-412.8 2331.56,-412.8 2331.56,-382 2011.76,-382"/>
<text text-anchor="start" x="2018.76" y="-394.2" font-family="Arial" font-size="14.00">agelimitolder </text>
<text text-anchor="start" x="2102.03" y="-394.2" font-family="Arial" font-size="14.00" fill="#666666">[double precision]</text>
<polygon fill="none" stroke="black" points="2011.76,-351.2 2011.76,-382 2331.56,-382 2331.56,-351.2 2011.76,-351.2"/>
<text text-anchor="start" x="2018.76" y="-363.4" font-family="Arial" font-size="14.00">agelimityounger </text>
<text text-anchor="start" x="2121.49" y="-363.4" font-family="Arial" font-size="14.00" fill="#666666">[double precision]</text>
<polygon fill="none" stroke="black" points="2011.76,-320.4 2011.76,-351.2 2331.56,-351.2 2331.56,-320.4 2011.76,-320.4"/>
<text text-anchor="start" x="2018.76" y="-332.6" font-family="Arial" font-size="14.00">agetypeid </text>
<text text-anchor="start" x="2083.37" y="-332.6" font-family="Arial" font-size="14.00" fill="#666666">[integer]</text>
<polygon fill="none" stroke="black" points="2011.76,-289.6 2011.76,-320.4 2331.56,-320.4 2331.56,-289.6 2011.76,-289.6"/>
<text text-anchor="start" x="2018.76" y="-301.8" font-family="Arial" font-size="14.00">analysisunitid </text>
<text text-anchor="start" x="2106.7" y="-301.8" font-family="Arial" font-size="14.00" fill="#666666">[integer]</text>
<polygon fill="none" stroke="black" points="2011.76,-258.8 2011.76,-289.6 2331.56,-289.6 2331.56,-258.8 2011.76,-258.8"/>
<text text-anchor="start" x="2018.76" y="-271" font-family="Arial" font-size="14.00">chroncontrolid </text>
<text text-anchor="start" x="2110.59" y="-271" font-family="Arial" font-size="14.00" fill="#666666">[integer]</text>
<polygon fill="none" stroke="black" points="2011.76,-228 2011.76,-258.8 2331.56,-258.8 2331.56,-228 2011.76,-228"/>
<text text-anchor="start" x="2018.76" y="-240.2" font-family="Arial" font-size="14.00">chroncontroltypeid </text>
<text text-anchor="start" x="2137.05" y="-240.2" font-family="Arial" font-size="14.00" fill="#666666">[integer]</text>
<polygon fill="none" stroke="black" points="2011.76,-197.2 2011.76,-228 2331.56,-228 2331.56,-197.2 2011.76,-197.2"/>
<text text-anchor="start" x="2018.76" y="-209.4" font-family="Arial" font-size="14.00">chronologyid </text>
<text text-anchor="start" x="2102.04" y="-209.4" font-family="Arial" font-size="14.00" fill="#666666">[integer]</text>
<polygon fill="none" stroke="black" points="2011.76,-166.4 2011.76,-197.2 2331.56,-197.2 2331.56,-166.4 2011.76,-166.4"/>
<text text-anchor="start" x="2018.76" y="-178.6" font-family="Arial" font-size="14.00">depth </text>
<text text-anchor="start" x="2057.69" y="-178.6" font-family="Arial" font-size="14.00" fill="#666666">[double precision]</text>
<polygon fill="none" stroke="black" points="2011.76,-135.6 2011.76,-166.4 2331.56,-166.4 2331.56,-135.6 2011.76,-135.6"/>
<text text-anchor="start" x="2018.76" y="-147.8" font-family="Arial" font-size="14.00">notes </text>
<text text-anchor="start" x="2056.9" y="-147.8" font-family="Arial" font-size="14.00" fill="#666666">[text]</text>
<polygon fill="none" stroke="black" points="2011.76,-104.8 2011.76,-135.6 2331.56,-135.6 2331.56,-104.8 2011.76,-104.8"/>
<text text-anchor="start" x="2018.76" y="-117" font-family="Arial" font-size="14.00">recdatecreated </text>
<text text-anchor="start" x="2116.05" y="-117" font-family="Arial" font-size="14.00" fill="#666666">[timestamp(0) without time zone]</text>
<polygon fill="none" stroke="black" points="2011.76,-74 2011.76,-104.8 2331.56,-104.8 2331.56,-74 2011.76,-74"/>
<text text-anchor="start" x="2018.76" y="-86.2" font-family="Arial" font-size="14.00">recdatemodified </text>
<text text-anchor="start" x="2122.27" y="-86.2" font-family="Arial" font-size="14.00" fill="#666666">[timestamp(0) without time zone]</text>
<polygon fill="none" stroke="black" points="2011.76,-43.2 2011.76,-74 2331.56,-74 2331.56,-43.2 2011.76,-43.2"/>
<text text-anchor="start" x="2018.76" y="-55.4" font-family="Arial" font-size="14.00">thickness </text>
<text text-anchor="start" x="2081.01" y="-55.4" font-family="Arial" font-size="14.00" fill="#666666">[double precision]</text>
</g>
<!-- ndb.chroncontrolranks&#45;&gt;ndb.chroncontrols -->
<g id="edge5" class="edge">
<title>ndb.chroncontrolranks:chroncontrolid&#45;&gt;ndb.chroncontrols:chroncontrolid</title>
<path fill="none" stroke="black" d="M1401,-770.98C1669.61,-770.1 1788.1,-734.12 1959.66,-522.4 2030.57,-434.9 1898.14,-274.2 2010.76,-274.2"/>
<polygon fill="black" stroke="black" points="1400.9,-770.98 1390.89,-766.5 1395.56,-770.99 1391.23,-771 1391.23,-771 1391.23,-771 1395.56,-770.99 1390.9,-775.5 1400.9,-770.98"/>
<text text-anchor="start" x="1397.56" y="-781" font-family="Arial" font-size="10.00">FOREIGN KEY (chroncontrolid) REFERENCES ndb.chroncontrols(chroncontrolid) ON UPDATE CASCADE ON DELETE CASCADE</text>
</g>
</g>
</svg>
