<?xml version="1.0" encoding="UTF-8" standalone="no"?>
<!DOCTYPE svg PUBLIC "-//W3C//DTD SVG 1.1//EN"
 "http://www.w3.org/Graphics/SVG/1.1/DTD/svg11.dtd">
<!-- Generated by graphviz version 12.1.2 (20240928.0832)
 -->
<!-- Title: ndb.isovariablescaletypes Pages: 1 -->
<svg width="2950pt" height="1401pt"
 viewBox="0.00 0.00 2950.18 1400.80" xmlns="http://www.w3.org/2000/svg" xmlns:xlink="http://www.w3.org/1999/xlink">
<g id="graph0" class="graph" transform="scale(1 1) rotate(0) translate(4 1396.8)">
<title>ndb.isovariablescaletypes</title>
<polygon fill="white" stroke="none" points="-4,4 -4,-1396.8 2946.18,-1396.8 2946.18,4 -4,4"/>
<!-- ndb.isovariablescaletypes -->
<g id="node1" class="node">
<title>ndb.isovariablescaletypes</title>
<polygon fill="#efefef" stroke="none" points="276.36,-1221.6 276.36,-1257.2 599.28,-1257.2 599.28,-1221.6 276.36,-1221.6"/>
<polygon fill="none" stroke="black" points="276.36,-1221.6 276.36,-1257.2 599.28,-1257.2 599.28,-1221.6 276.36,-1221.6"/>
<text text-anchor="start" x="283.36" y="-1235" font-family="Arial Bold" font-size="18.00">ndb.isovariablescaletypes</text>
<text text-anchor="start" x="467.79" y="-1235" font-family="Arial" font-size="14.00">    </text>
<text text-anchor="start" x="498.91" y="-1235" font-family="Arial" font-size="14.00" fill="#666666">[BASE TABLE]</text>
<polygon fill="none" stroke="black" points="276.36,-1190.8 276.36,-1221.6 599.28,-1221.6 599.28,-1190.8 276.36,-1190.8"/>
<text text-anchor="start" x="283.36" y="-1203" font-family="Arial" font-size="14.00">isoscaletypeid </text>
<text text-anchor="start" x="375.18" y="-1203" font-family="Arial" font-size="14.00" fill="#666666">[integer]</text>
<polygon fill="none" stroke="black" points="276.36,-1160 276.36,-1190.8 599.28,-1190.8 599.28,-1160 276.36,-1160"/>
<text text-anchor="start" x="283.36" y="-1172.2" font-family="Arial" font-size="14.00">recdatecreated </text>
<text text-anchor="start" x="380.64" y="-1172.2" font-family="Arial" font-size="14.00" fill="#666666">[timestamp(0) without time zone]</text>
<polygon fill="none" stroke="black" points="276.36,-1129.2 276.36,-1160 599.28,-1160 599.28,-1129.2 276.36,-1129.2"/>
<text text-anchor="start" x="283.36" y="-1141.4" font-family="Arial" font-size="14.00">recdatemodified </text>
<text text-anchor="start" x="386.86" y="-1141.4" font-family="Arial" font-size="14.00" fill="#666666">[timestamp(0) without time zone]</text>
<polygon fill="none" stroke="black" points="276.36,-1098.4 276.36,-1129.2 599.28,-1129.2 599.28,-1098.4 276.36,-1098.4"/>
<text text-anchor="start" x="283.36" y="-1110.6" font-family="Arial" font-size="14.00">variableid </text>
<text text-anchor="start" x="347.17" y="-1110.6" font-family="Arial" font-size="14.00" fill="#666666">[integer]</text>
<polygon fill="none" stroke="black" stroke-width="3" points="274.86,-1096.9 274.86,-1258.7 600.78,-1258.7 600.78,-1096.9 274.86,-1096.9"/>
</g>
<!-- ndb.isoscaletypes -->
<g id="node2" class="node">
<title>ndb.isoscaletypes</title>
<polygon fill="#efefef" stroke="none" points="277.92,-817.2 277.92,-852.8 597.72,-852.8 597.72,-817.2 277.92,-817.2"/>
<polygon fill="none" stroke="black" points="277.92,-817.2 277.92,-852.8 597.72,-852.8 597.72,-817.2 277.92,-817.2"/>
<text text-anchor="start" x="312.34" y="-830.6" font-family="Arial Bold" font-size="18.00">ndb.isoscaletypes</text>
<text text-anchor="start" x="438.81" y="-830.6" font-family="Arial" font-size="14.00">    </text>
<text text-anchor="start" x="469.93" y="-830.6" font-family="Arial" font-size="14.00" fill="#666666">[BASE TABLE]</text>
<polygon fill="none" stroke="black" points="277.92,-786.4 277.92,-817.2 597.72,-817.2 597.72,-786.4 277.92,-786.4"/>
<text text-anchor="start" x="284.92" y="-798.6" font-family="Arial" font-size="14.00">isoscaleacronym </text>
<text text-anchor="start" x="393.07" y="-798.6" font-family="Arial" font-size="14.00" fill="#666666">[varchar(24)]</text>
<polygon fill="none" stroke="black" points="277.92,-755.6 277.92,-786.4 597.72,-786.4 597.72,-755.6 277.92,-755.6"/>
<text text-anchor="start" x="284.92" y="-767.8" font-family="Arial" font-size="14.00">isoscalename </text>
<text text-anchor="start" x="374.41" y="-767.8" font-family="Arial" font-size="14.00" fill="#666666">[varchar(80)]</text>
<polygon fill="none" stroke="black" points="277.92,-724.8 277.92,-755.6 597.72,-755.6 597.72,-724.8 277.92,-724.8"/>
<text text-anchor="start" x="284.92" y="-737" font-family="Arial" font-size="14.00">isoscaletypeid </text>
<text text-anchor="start" x="376.75" y="-737" font-family="Arial" font-size="14.00" fill="#666666">[integer]</text>
<polygon fill="none" stroke="black" points="277.92,-694 277.92,-724.8 597.72,-724.8 597.72,-694 277.92,-694"/>
<text text-anchor="start" x="284.92" y="-706.2" font-family="Arial" font-size="14.00">recdatecreated </text>
<text text-anchor="start" x="382.2" y="-706.2" font-family="Arial" font-size="14.00" fill="#666666">[timestamp(0) without time zone]</text>
<polygon fill="none" stroke="black" points="277.92,-663.2 277.92,-694 597.72,-694 597.72,-663.2 277.92,-663.2"/>
<text text-anchor="start" x="284.92" y="-675.4" font-family="Arial" font-size="14.00">recdatemodified </text>
<text text-anchor="start" x="388.42" y="-675.4" font-family="Arial" font-size="14.00" fill="#666666">[timestamp(0) without time zone]</text>
</g>
<!-- ndb.isovariablescaletypes&#45;&gt;ndb.isoscaletypes -->
<g id="edge1" class="edge">
<title>ndb.isovariablescaletypes:isoscaletypeid&#45;&gt;ndb.isoscaletypes:isoscaletypeid</title>
<path fill="none" stroke="black" d="M609.1,-1201.28C651.69,-1151.48 647.36,-740.2 598.72,-740.2"/>
<polygon fill="black" stroke="black" points="609.31,-1201.17 598.38,-1202.11 604.65,-1203.76 600.87,-1205.87 600.87,-1205.87 600.87,-1205.87 604.65,-1203.76 602.77,-1209.97 609.31,-1201.17"/>
<text text-anchor="start" x="7" y="-1216.2" font-family="Arial" font-size="10.00">FOREIGN KEY (isoscaletypeid) REFERENCES ndb.isoscaletypes(isoscaletypeid) ON UPDATE CASCADE ON DELETE CASCADE</text>
</g>
<!-- ndb.variables -->
<g id="node3" class="node">
<title>ndb.variables</title>
<polygon fill="#efefef" stroke="none" points="1342.92,-848 1342.92,-883.6 1662.72,-883.6 1662.72,-848 1342.92,-848"/>
<polygon fill="none" stroke="black" points="1342.92,-848 1342.92,-883.6 1662.72,-883.6 1662.72,-848 1342.92,-848"/>
<text text-anchor="start" x="1392.34" y="-861.4" font-family="Arial Bold" font-size="18.00">ndb.variables</text>
<text text-anchor="start" x="1488.81" y="-861.4" font-family="Arial" font-size="14.00">    </text>
<text text-anchor="start" x="1519.93" y="-861.4" font-family="Arial" font-size="14.00" fill="#666666">[BASE TABLE]</text>
<polygon fill="none" stroke="black" points="1342.92,-817.2 1342.92,-848 1662.72,-848 1662.72,-817.2 1342.92,-817.2"/>
<text text-anchor="start" x="1349.92" y="-829.4" font-family="Arial" font-size="14.00">recdatecreated </text>
<text text-anchor="start" x="1447.2" y="-829.4" font-family="Arial" font-size="14.00" fill="#666666">[timestamp(0) without time zone]</text>
<polygon fill="none" stroke="black" points="1342.92,-786.4 1342.92,-817.2 1662.72,-817.2 1662.72,-786.4 1342.92,-786.4"/>
<text text-anchor="start" x="1349.92" y="-798.6" font-family="Arial" font-size="14.00">recdatemodified </text>
<text text-anchor="start" x="1453.42" y="-798.6" font-family="Arial" font-size="14.00" fill="#666666">[timestamp(0) without time zone]</text>
<polygon fill="none" stroke="black" points="1342.92,-755.6 1342.92,-786.4 1662.72,-786.4 1662.72,-755.6 1342.92,-755.6"/>
<text text-anchor="start" x="1349.92" y="-767.8" font-family="Arial" font-size="14.00">taxonid </text>
<text text-anchor="start" x="1398.96" y="-767.8" font-family="Arial" font-size="14.00" fill="#666666">[integer]</text>
<polygon fill="none" stroke="black" points="1342.92,-724.8 1342.92,-755.6 1662.72,-755.6 1662.72,-724.8 1342.92,-724.8"/>
<text text-anchor="start" x="1349.92" y="-737" font-family="Arial" font-size="14.00">variablecontextid </text>
<text text-anchor="start" x="1458.87" y="-737" font-family="Arial" font-size="14.00" fill="#666666">[integer]</text>
<polygon fill="none" stroke="black" points="1342.92,-694 1342.92,-724.8 1662.72,-724.8 1662.72,-694 1342.92,-694"/>
<text text-anchor="start" x="1349.92" y="-706.2" font-family="Arial" font-size="14.00">variableelementid </text>
<text text-anchor="start" x="1463.54" y="-706.2" font-family="Arial" font-size="14.00" fill="#666666">[integer]</text>
<polygon fill="none" stroke="black" points="1342.92,-663.2 1342.92,-694 1662.72,-694 1662.72,-663.2 1342.92,-663.2"/>
<text text-anchor="start" x="1349.92" y="-675.4" font-family="Arial" font-size="14.00">variableid </text>
<text text-anchor="start" x="1413.73" y="-675.4" font-family="Arial" font-size="14.00" fill="#666666">[integer]</text>
<polygon fill="none" stroke="black" points="1342.92,-632.4 1342.92,-663.2 1662.72,-663.2 1662.72,-632.4 1342.92,-632.4"/>
<text text-anchor="start" x="1349.92" y="-644.6" font-family="Arial" font-size="14.00">variableunitsid </text>
<text text-anchor="start" x="1443.31" y="-644.6" font-family="Arial" font-size="14.00" fill="#666666">[integer]</text>
</g>
<!-- ndb.isovariablescaletypes&#45;&gt;ndb.variables -->
<g id="edge2" class="edge">
<title>ndb.isovariablescaletypes:variableid&#45;&gt;ndb.variables:variableid</title>
<path fill="none" stroke="black" d="M610.46,-1112.99C664.99,-1103.45 608.13,-1011.67 654.82,-962.8 883.11,-723.86 1011.45,-678.6 1341.92,-678.6"/>
<polygon fill="black" stroke="black" points="610.59,-1112.98 600.26,-1109.29 605.27,-1113.4 600.95,-1113.75 600.95,-1113.75 600.95,-1113.75 605.27,-1113.4 600.97,-1118.26 610.59,-1112.98"/>
<text text-anchor="start" x="67.03" y="-1123.8" font-family="Arial" font-size="10.00">FOREIGN KEY (variableid) REFERENCES ndb.variables(variableid) ON UPDATE CASCADE ON DELETE CASCADE</text>
</g>
<!-- ndb.taxa -->
<g id="node4" class="node">
<title>ndb.taxa</title>
<polygon fill="#efefef" stroke="none" points="706.92,-474.4 706.92,-510 1026.72,-510 1026.72,-474.4 706.92,-474.4"/>
<polygon fill="none" stroke="black" points="706.92,-474.4 706.92,-510 1026.72,-510 1026.72,-474.4 706.92,-474.4"/>
<text text-anchor="start" x="773.84" y="-487.8" font-family="Arial Bold" font-size="18.00">ndb.taxa</text>
<text text-anchor="start" x="835.32" y="-487.8" font-family="Arial" font-size="14.00">    </text>
<text text-anchor="start" x="866.43" y="-487.8" font-family="Arial" font-size="14.00" fill="#666666">[BASE TABLE]</text>
<polygon fill="none" stroke="black" points="706.92,-443.6 706.92,-474.4 1026.72,-474.4 1026.72,-443.6 706.92,-443.6"/>
<text text-anchor="start" x="713.92" y="-455.8" font-family="Arial" font-size="14.00">author </text>
<text text-anchor="start" x="757.51" y="-455.8" font-family="Arial" font-size="14.00" fill="#666666">[varchar(128)]</text>
<polygon fill="none" stroke="black" points="706.92,-412.8 706.92,-443.6 1026.72,-443.6 1026.72,-412.8 706.92,-412.8"/>
<text text-anchor="start" x="713.92" y="-425" font-family="Arial" font-size="14.00">extinct </text>
<text text-anchor="start" x="758.27" y="-425" font-family="Arial" font-size="14.00" fill="#666666">[boolean]</text>
<polygon fill="none" stroke="black" points="706.92,-382 706.92,-412.8 1026.72,-412.8 1026.72,-382 706.92,-382"/>
<text text-anchor="start" x="713.92" y="-394.2" font-family="Arial" font-size="14.00">highertaxonid </text>
<text text-anchor="start" x="801.87" y="-394.2" font-family="Arial" font-size="14.00" fill="#666666">[integer]</text>
<polygon fill="none" stroke="black" points="706.92,-351.2 706.92,-382 1026.72,-382 1026.72,-351.2 706.92,-351.2"/>
<text text-anchor="start" x="713.92" y="-363.4" font-family="Arial" font-size="14.00">notes </text>
<text text-anchor="start" x="752.06" y="-363.4" font-family="Arial" font-size="14.00" fill="#666666">[text]</text>
<polygon fill="none" stroke="black" points="706.92,-320.4 706.92,-351.2 1026.72,-351.2 1026.72,-320.4 706.92,-320.4"/>
<text text-anchor="start" x="713.92" y="-332.6" font-family="Arial" font-size="14.00">publicationid </text>
<text text-anchor="start" x="795.64" y="-332.6" font-family="Arial" font-size="14.00" fill="#666666">[integer]</text>
<polygon fill="none" stroke="black" points="706.92,-289.6 706.92,-320.4 1026.72,-320.4 1026.72,-289.6 706.92,-289.6"/>
<text text-anchor="start" x="713.92" y="-301.8" font-family="Arial" font-size="14.00">recdatecreated </text>
<text text-anchor="start" x="811.2" y="-301.8" font-family="Arial" font-size="14.00" fill="#666666">[timestamp(0) without time zone]</text>
<polygon fill="none" stroke="black" points="706.92,-258.8 706.92,-289.6 1026.72,-289.6 1026.72,-258.8 706.92,-258.8"/>
<text text-anchor="start" x="713.92" y="-271" font-family="Arial" font-size="14.00">recdatemodified </text>
<text text-anchor="start" x="817.42" y="-271" font-family="Arial" font-size="14.00" fill="#666666">[timestamp(0) without time zone]</text>
<polygon fill="none" stroke="black" points="706.92,-228 706.92,-258.8 1026.72,-258.8 1026.72,-228 706.92,-228"/>
<text text-anchor="start" x="713.92" y="-240.2" font-family="Arial" font-size="14.00">taxagroupid </text>
<text text-anchor="start" x="790.98" y="-240.2" font-family="Arial" font-size="14.00" fill="#666666">[varchar(3)]</text>
<polygon fill="none" stroke="black" points="706.92,-197.2 706.92,-228 1026.72,-228 1026.72,-197.2 706.92,-197.2"/>
<text text-anchor="start" x="713.92" y="-209.4" font-family="Arial" font-size="14.00">taxoncode </text>
<text text-anchor="start" x="782.42" y="-209.4" font-family="Arial" font-size="14.00" fill="#666666">[varchar(64)]</text>
<polygon fill="none" stroke="black" points="706.92,-166.4 706.92,-197.2 1026.72,-197.2 1026.72,-166.4 706.92,-166.4"/>
<text text-anchor="start" x="713.92" y="-178.6" font-family="Arial" font-size="14.00">taxonid </text>
<text text-anchor="start" x="762.96" y="-178.6" font-family="Arial" font-size="14.00" fill="#666666">[integer]</text>
<polygon fill="none" stroke="black" points="706.92,-135.6 706.92,-166.4 1026.72,-166.4 1026.72,-135.6 706.92,-135.6"/>
<text text-anchor="start" x="713.92" y="-147.8" font-family="Arial" font-size="14.00">taxonname </text>
<text text-anchor="start" x="787.08" y="-147.8" font-family="Arial" font-size="14.00" fill="#666666">[text]</text>
<polygon fill="none" stroke="black" points="706.92,-104.8 706.92,-135.6 1026.72,-135.6 1026.72,-104.8 706.92,-104.8"/>
<text text-anchor="start" x="713.92" y="-117" font-family="Arial" font-size="14.00">valid </text>
<text text-anchor="start" x="746.6" y="-117" font-family="Arial" font-size="14.00" fill="#666666">[boolean]</text>
<polygon fill="none" stroke="black" points="706.92,-74 706.92,-104.8 1026.72,-104.8 1026.72,-74 706.92,-74"/>
<text text-anchor="start" x="713.92" y="-86.2" font-family="Arial" font-size="14.00">validatedate </text>
<text text-anchor="start" x="793.31" y="-86.2" font-family="Arial" font-size="14.00" fill="#666666">[date]</text>
<polygon fill="none" stroke="black" points="706.92,-43.2 706.92,-74 1026.72,-74 1026.72,-43.2 706.92,-43.2"/>
<text text-anchor="start" x="713.92" y="-55.4" font-family="Arial" font-size="14.00">validatorid </text>
<text text-anchor="start" x="781.62" y="-55.4" font-family="Arial" font-size="14.00" fill="#666666">[integer]</text>
</g>
<!-- ndb.variables&#45;&gt;ndb.taxa -->
<g id="edge3" class="edge">
<title>ndb.variables:taxonid&#45;&gt;ndb.taxa:taxonid</title>
<path fill="none" stroke="black" d="M1331.86,-770.87C1188.42,-767.15 1151.01,-682.85 1078.82,-553.2 1038.29,-480.41 1111.03,-181.8 1027.72,-181.8"/>
<polygon fill="black" stroke="black" points="1331.59,-770.87 1341.53,-775.5 1336.92,-770.94 1341.25,-770.99 1341.25,-770.99 1341.25,-770.99 1336.92,-770.94 1341.64,-766.5 1331.59,-770.87"/>
<text text-anchor="start" x="850.9" y="-781" font-family="Arial" font-size="10.00">FOREIGN KEY (taxonid) REFERENCES ndb.taxa(taxonid) ON UPDATE CASCADE ON DELETE CASCADE</text>
</g>
<!-- ndb.variablecontexts -->
<g id="node5" class="node">
<title>ndb.variablecontexts</title>
<polygon fill="#efefef" stroke="none" points="1130.92,-320.4 1130.92,-356 1450.72,-356 1450.72,-320.4 1130.92,-320.4"/>
<polygon fill="none" stroke="black" points="1130.92,-320.4 1130.92,-356 1450.72,-356 1450.72,-320.4 1130.92,-320.4"/>
<text text-anchor="start" x="1153.85" y="-333.8" font-family="Arial Bold" font-size="18.00">ndb.variablecontexts</text>
<text text-anchor="start" x="1303.3" y="-333.8" font-family="Arial" font-size="14.00">    </text>
<text text-anchor="start" x="1334.42" y="-333.8" font-family="Arial" font-size="14.00" fill="#666666">[BASE TABLE]</text>
<polygon fill="none" stroke="black" points="1130.92,-289.6 1130.92,-320.4 1450.72,-320.4 1450.72,-289.6 1130.92,-289.6"/>
<text text-anchor="start" x="1137.92" y="-301.8" font-family="Arial" font-size="14.00">recdatecreated </text>
<text text-anchor="start" x="1235.2" y="-301.8" font-family="Arial" font-size="14.00" fill="#666666">[timestamp(0) without time zone]</text>
<polygon fill="none" stroke="black" points="1130.92,-258.8 1130.92,-289.6 1450.72,-289.6 1450.72,-258.8 1130.92,-258.8"/>
<text text-anchor="start" x="1137.92" y="-271" font-family="Arial" font-size="14.00">recdatemodified </text>
<text text-anchor="start" x="1241.42" y="-271" font-family="Arial" font-size="14.00" fill="#666666">[timestamp(0) without time zone]</text>
<polygon fill="none" stroke="black" points="1130.92,-228 1130.92,-258.8 1450.72,-258.8 1450.72,-228 1130.92,-228"/>
<text text-anchor="start" x="1137.92" y="-240.2" font-family="Arial" font-size="14.00">variablecontext </text>
<text text-anchor="start" x="1235.98" y="-240.2" font-family="Arial" font-size="14.00" fill="#666666">[varchar(64)]</text>
<polygon fill="none" stroke="black" points="1130.92,-197.2 1130.92,-228 1450.72,-228 1450.72,-197.2 1130.92,-197.2"/>
<text text-anchor="start" x="1137.92" y="-209.4" font-family="Arial" font-size="14.00">variablecontextid </text>
<text text-anchor="start" x="1246.87" y="-209.4" font-family="Arial" font-size="14.00" fill="#666666">[integer]</text>
</g>
<!-- ndb.variables&#45;&gt;ndb.variablecontexts -->
<g id="edge4" class="edge">
<title>ndb.variables:variablecontextid&#45;&gt;ndb.variablecontexts:variablecontextid</title>
<path fill="none" stroke="black" d="M1331.62,-739.39C1280.45,-730.51 1326.56,-650.36 1342.92,-589.2 1368.01,-495.41 1425.69,-493.01 1450.72,-399.2 1472.1,-319.07 1534.65,-212.6 1451.72,-212.6"/>
<polygon fill="black" stroke="black" points="1331.62,-739.39 1341.23,-744.66 1336.94,-739.81 1341.25,-740.15 1341.25,-740.15 1341.25,-740.15 1336.94,-739.81 1341.94,-735.69 1331.62,-739.39"/>
<text text-anchor="start" x="711.94" y="-750.2" font-family="Arial" font-size="10.00">FOREIGN KEY (variablecontextid) REFERENCES ndb.variablecontexts(variablecontextid) ON UPDATE CASCADE ON DELETE CASCADE</text>
</g>
<!-- ndb.variableelements -->
<g id="node6" class="node">
<title>ndb.variableelements</title>
<polygon fill="#efefef" stroke="none" points="1554.92,-382 1554.92,-417.6 1874.72,-417.6 1874.72,-382 1554.92,-382"/>
<polygon fill="none" stroke="black" points="1554.92,-382 1554.92,-417.6 1874.72,-417.6 1874.72,-382 1554.92,-382"/>
<text text-anchor="start" x="1575.86" y="-395.4" font-family="Arial Bold" font-size="18.00">ndb.variableelements</text>
<text text-anchor="start" x="1729.3" y="-395.4" font-family="Arial" font-size="14.00">    </text>
<text text-anchor="start" x="1760.41" y="-395.4" font-family="Arial" font-size="14.00" fill="#666666">[BASE TABLE]</text>
<polygon fill="none" stroke="black" points="1554.92,-351.2 1554.92,-382 1874.72,-382 1874.72,-351.2 1554.92,-351.2"/>
<text text-anchor="start" x="1561.92" y="-363.4" font-family="Arial" font-size="14.00">elementtypeid </text>
<text text-anchor="start" x="1652.98" y="-363.4" font-family="Arial" font-size="14.00" fill="#666666">[integer]</text>
<polygon fill="none" stroke="black" points="1554.92,-320.4 1554.92,-351.2 1874.72,-351.2 1874.72,-320.4 1554.92,-320.4"/>
<text text-anchor="start" x="1561.92" y="-332.6" font-family="Arial" font-size="14.00">maturityid </text>
<text text-anchor="start" x="1626.49" y="-332.6" font-family="Arial" font-size="14.00" fill="#666666">[integer]</text>
<polygon fill="none" stroke="black" points="1554.92,-289.6 1554.92,-320.4 1874.72,-320.4 1874.72,-289.6 1554.92,-289.6"/>
<text text-anchor="start" x="1561.92" y="-301.8" font-family="Arial" font-size="14.00">portionid </text>
<text text-anchor="start" x="1619.51" y="-301.8" font-family="Arial" font-size="14.00" fill="#666666">[integer]</text>
<polygon fill="none" stroke="black" points="1554.92,-258.8 1554.92,-289.6 1874.72,-289.6 1874.72,-258.8 1554.92,-258.8"/>
<text text-anchor="start" x="1561.92" y="-271" font-family="Arial" font-size="14.00">recdatecreated </text>
<text text-anchor="start" x="1659.2" y="-271" font-family="Arial" font-size="14.00" fill="#666666">[timestamp(0) without time zone]</text>
<polygon fill="none" stroke="black" points="1554.92,-228 1554.92,-258.8 1874.72,-258.8 1874.72,-228 1554.92,-228"/>
<text text-anchor="start" x="1561.92" y="-240.2" font-family="Arial" font-size="14.00">recdatemodified </text>
<text text-anchor="start" x="1665.42" y="-240.2" font-family="Arial" font-size="14.00" fill="#666666">[timestamp(0) without time zone]</text>
<polygon fill="none" stroke="black" points="1554.92,-197.2 1554.92,-228 1874.72,-228 1874.72,-197.2 1554.92,-197.2"/>
<text text-anchor="start" x="1561.92" y="-209.4" font-family="Arial" font-size="14.00">symmetryid </text>
<text text-anchor="start" x="1637.37" y="-209.4" font-family="Arial" font-size="14.00" fill="#666666">[integer]</text>
<polygon fill="none" stroke="black" points="1554.92,-166.4 1554.92,-197.2 1874.72,-197.2 1874.72,-166.4 1554.92,-166.4"/>
<text text-anchor="start" x="1561.92" y="-178.6" font-family="Arial" font-size="14.00">variableelement </text>
<text text-anchor="start" x="1664.64" y="-178.6" font-family="Arial" font-size="14.00" fill="#666666">[varchar(255)]</text>
<polygon fill="none" stroke="black" points="1554.92,-135.6 1554.92,-166.4 1874.72,-166.4 1874.72,-135.6 1554.92,-135.6"/>
<text text-anchor="start" x="1561.92" y="-147.8" font-family="Arial" font-size="14.00">variableelementid </text>
<text text-anchor="start" x="1675.54" y="-147.8" font-family="Arial" font-size="14.00" fill="#666666">[integer]</text>
</g>
<!-- ndb.variables&#45;&gt;ndb.variableelements -->
<g id="edge5" class="edge">
<title>ndb.variables:variableelementid&#45;&gt;ndb.variableelements:variableelementid</title>
<path fill="none" stroke="black" d="M1673.7,-708.39C1712.18,-699.64 1679.91,-635.8 1662.72,-589.2 1636.93,-519.29 1580.53,-530.77 1554.92,-460.8 1531.26,-396.15 1485.08,-151 1553.92,-151"/>
<polygon fill="black" stroke="black" points="1674,-708.36 1663.6,-704.89 1668.69,-708.9 1664.39,-709.33 1664.39,-709.33 1664.39,-709.33 1668.69,-708.9 1664.5,-713.84 1674,-708.36"/>
<text text-anchor="start" x="1670.72" y="-719.4" font-family="Arial" font-size="10.00">FOREIGN KEY (variableelementid) REFERENCES ndb.variableelements(variableelementid) ON UPDATE CASCADE ON DELETE CASCADE</text>
</g>
<!-- ndb.variableunits -->
<g id="node12" class="node">
<title>ndb.variableunits</title>
<polygon fill="#efefef" stroke="none" points="1978.92,-320.4 1978.92,-356 2298.72,-356 2298.72,-320.4 1978.92,-320.4"/>
<polygon fill="none" stroke="black" points="1978.92,-320.4 1978.92,-356 2298.72,-356 2298.72,-320.4 1978.92,-320.4"/>
<text text-anchor="start" x="2014.34" y="-333.8" font-family="Arial Bold" font-size="18.00">ndb.variableunits</text>
<text text-anchor="start" x="2138.81" y="-333.8" font-family="Arial" font-size="14.00">    </text>
<text text-anchor="start" x="2169.93" y="-333.8" font-family="Arial" font-size="14.00" fill="#666666">[BASE TABLE]</text>
<polygon fill="none" stroke="black" points="1978.92,-289.6 1978.92,-320.4 2298.72,-320.4 2298.72,-289.6 1978.92,-289.6"/>
<text text-anchor="start" x="1985.92" y="-301.8" font-family="Arial" font-size="14.00">recdatecreated </text>
<text text-anchor="start" x="2083.2" y="-301.8" font-family="Arial" font-size="14.00" fill="#666666">[timestamp(0) without time zone]</text>
<polygon fill="none" stroke="black" points="1978.92,-258.8 1978.92,-289.6 2298.72,-289.6 2298.72,-258.8 1978.92,-258.8"/>
<text text-anchor="start" x="1985.92" y="-271" font-family="Arial" font-size="14.00">recdatemodified </text>
<text text-anchor="start" x="2089.42" y="-271" font-family="Arial" font-size="14.00" fill="#666666">[timestamp(0) without time zone]</text>
<polygon fill="none" stroke="black" points="1978.92,-228 1978.92,-258.8 2298.72,-258.8 2298.72,-228 1978.92,-228"/>
<text text-anchor="start" x="1985.92" y="-240.2" font-family="Arial" font-size="14.00">variableunits </text>
<text text-anchor="start" x="2068.41" y="-240.2" font-family="Arial" font-size="14.00" fill="#666666">[varchar(64)]</text>
<polygon fill="none" stroke="black" points="1978.92,-197.2 1978.92,-228 2298.72,-228 2298.72,-197.2 1978.92,-197.2"/>
<text text-anchor="start" x="1985.92" y="-209.4" font-family="Arial" font-size="14.00">variableunitsid </text>
<text text-anchor="start" x="2079.31" y="-209.4" font-family="Arial" font-size="14.00" fill="#666666">[integer]</text>
</g>
<!-- ndb.variables&#45;&gt;ndb.variableunits -->
<g id="edge11" class="edge">
<title>ndb.variables:variableunitsid&#45;&gt;ndb.variableunits:variableunitsid</title>
<path fill="none" stroke="black" d="M1673.93,-647.45C1741.94,-643.07 1889.4,-598.79 1926.82,-553.2 1975.38,-494.04 1901.38,-212.6 1977.92,-212.6"/>
<polygon fill="black" stroke="black" points="1674.05,-647.44 1663.9,-643.29 1668.72,-647.63 1664.39,-647.78 1664.39,-647.78 1664.39,-647.78 1668.72,-647.63 1664.21,-652.29 1674.05,-647.44"/>
<text text-anchor="start" x="1670.72" y="-657.8" font-family="Arial" font-size="10.00">FOREIGN KEY (variableunitsid) REFERENCES ndb.variableunits(variableunitsid) ON UPDATE CASCADE ON DELETE CASCADE</text>
</g>
<!-- ndb.data -->
<g id="node7" class="node">
<title>ndb.data</title>
<polygon fill="#efefef" stroke="none" points="706.92,-1252.4 706.92,-1288 1026.72,-1288 1026.72,-1252.4 706.92,-1252.4"/>
<polygon fill="none" stroke="black" points="706.92,-1252.4 706.92,-1288 1026.72,-1288 1026.72,-1252.4 706.92,-1252.4"/>
<text text-anchor="start" x="773.84" y="-1265.8" font-family="Arial Bold" font-size="18.00">ndb.data</text>
<text text-anchor="start" x="835.32" y="-1265.8" font-family="Arial" font-size="14.00">    </text>
<text text-anchor="start" x="866.43" y="-1265.8" font-family="Arial" font-size="14.00" fill="#666666">[BASE TABLE]</text>
<polygon fill="none" stroke="black" points="706.92,-1221.6 706.92,-1252.4 1026.72,-1252.4 1026.72,-1221.6 706.92,-1221.6"/>
<text text-anchor="start" x="713.92" y="-1233.8" font-family="Arial" font-size="14.00">dataid </text>
<text text-anchor="start" x="755.96" y="-1233.8" font-family="Arial" font-size="14.00" fill="#666666">[integer]</text>
<polygon fill="none" stroke="black" points="706.92,-1190.8 706.92,-1221.6 1026.72,-1221.6 1026.72,-1190.8 706.92,-1190.8"/>
<text text-anchor="start" x="713.92" y="-1203" font-family="Arial" font-size="14.00">recdatecreated </text>
<text text-anchor="start" x="811.2" y="-1203" font-family="Arial" font-size="14.00" fill="#666666">[timestamp(0) without time zone]</text>
<polygon fill="none" stroke="black" points="706.92,-1160 706.92,-1190.8 1026.72,-1190.8 1026.72,-1160 706.92,-1160"/>
<text text-anchor="start" x="713.92" y="-1172.2" font-family="Arial" font-size="14.00">recdatemodified </text>
<text text-anchor="start" x="817.42" y="-1172.2" font-family="Arial" font-size="14.00" fill="#666666">[timestamp(0) without time zone]</text>
<polygon fill="none" stroke="black" points="706.92,-1129.2 706.92,-1160 1026.72,-1160 1026.72,-1129.2 706.92,-1129.2"/>
<text text-anchor="start" x="713.92" y="-1141.4" font-family="Arial" font-size="14.00">sampleid </text>
<text text-anchor="start" x="773.84" y="-1141.4" font-family="Arial" font-size="14.00" fill="#666666">[integer]</text>
<polygon fill="none" stroke="black" points="706.92,-1098.4 706.92,-1129.2 1026.72,-1129.2 1026.72,-1098.4 706.92,-1098.4"/>
<text text-anchor="start" x="713.92" y="-1110.6" font-family="Arial" font-size="14.00">value </text>
<text text-anchor="start" x="751.28" y="-1110.6" font-family="Arial" font-size="14.00" fill="#666666">[double precision]</text>
<polygon fill="none" stroke="black" points="706.92,-1067.6 706.92,-1098.4 1026.72,-1098.4 1026.72,-1067.6 706.92,-1067.6"/>
<text text-anchor="start" x="713.92" y="-1079.8" font-family="Arial" font-size="14.00">variableid </text>
<text text-anchor="start" x="777.73" y="-1079.8" font-family="Arial" font-size="14.00" fill="#666666">[integer]</text>
</g>
<!-- ndb.data&#45;&gt;ndb.variables -->
<g id="edge6" class="edge">
<title>ndb.data:variableid&#45;&gt;ndb.variables:variableid</title>
<path fill="none" stroke="black" d="M1038.06,-1082.08C1080.97,-1073.61 1049.37,-1008.3 1078.82,-962.8 1172.35,-818.3 1169.79,-678.6 1341.92,-678.6"/>
<polygon fill="black" stroke="black" points="1038.01,-1082.09 1027.65,-1078.49 1032.7,-1082.56 1028.39,-1082.94 1028.39,-1082.94 1028.39,-1082.94 1032.7,-1082.56 1028.45,-1087.45 1038.01,-1082.09"/>
<text text-anchor="start" x="1034.72" y="-1093" font-family="Arial" font-size="10.00">FOREIGN KEY (variableid) REFERENCES ndb.variables(variableid) ON UPDATE CASCADE ON DELETE CASCADE</text>
</g>
<!-- ndb.datasetvariables -->
<g id="node8" class="node">
<title>ndb.datasetvariables</title>
<polygon fill="#efefef" stroke="none" points="1130.92,-1237 1130.92,-1272.6 1450.72,-1272.6 1450.72,-1237 1130.92,-1237"/>
<polygon fill="none" stroke="black" points="1130.92,-1237 1130.92,-1272.6 1450.72,-1272.6 1450.72,-1237 1130.92,-1237"/>
<text text-anchor="start" x="1155.35" y="-1250.4" font-family="Arial Bold" font-size="18.00">ndb.datasetvariables</text>
<text text-anchor="start" x="1301.8" y="-1250.4" font-family="Arial" font-size="14.00">    </text>
<text text-anchor="start" x="1332.91" y="-1250.4" font-family="Arial" font-size="14.00" fill="#666666">[BASE TABLE]</text>
<polygon fill="none" stroke="black" points="1130.92,-1206.2 1130.92,-1237 1450.72,-1237 1450.72,-1206.2 1130.92,-1206.2"/>
<text text-anchor="start" x="1137.92" y="-1218.4" font-family="Arial" font-size="14.00">datasetid </text>
<text text-anchor="start" x="1198.63" y="-1218.4" font-family="Arial" font-size="14.00" fill="#666666">[integer]</text>
<polygon fill="none" stroke="black" points="1130.92,-1175.4 1130.92,-1206.2 1450.72,-1206.2 1450.72,-1175.4 1130.92,-1175.4"/>
<text text-anchor="start" x="1137.92" y="-1187.6" font-family="Arial" font-size="14.00">datasetvariableid </text>
<text text-anchor="start" x="1247.66" y="-1187.6" font-family="Arial" font-size="14.00" fill="#666666">[integer]</text>
<polygon fill="none" stroke="black" points="1130.92,-1144.6 1130.92,-1175.4 1450.72,-1175.4 1450.72,-1144.6 1130.92,-1144.6"/>
<text text-anchor="start" x="1137.92" y="-1156.8" font-family="Arial" font-size="14.00">recdatecreated </text>
<text text-anchor="start" x="1235.2" y="-1156.8" font-family="Arial" font-size="14.00" fill="#666666">[timestamp(0) without time zone]</text>
<polygon fill="none" stroke="black" points="1130.92,-1113.8 1130.92,-1144.6 1450.72,-1144.6 1450.72,-1113.8 1130.92,-1113.8"/>
<text text-anchor="start" x="1137.92" y="-1126" font-family="Arial" font-size="14.00">recdatemodified </text>
<text text-anchor="start" x="1241.42" y="-1126" font-family="Arial" font-size="14.00" fill="#666666">[timestamp(0) without time zone]</text>
<polygon fill="none" stroke="black" points="1130.92,-1083 1130.92,-1113.8 1450.72,-1113.8 1450.72,-1083 1130.92,-1083"/>
<text text-anchor="start" x="1137.92" y="-1095.2" font-family="Arial" font-size="14.00">variableid </text>
<text text-anchor="start" x="1201.73" y="-1095.2" font-family="Arial" font-size="14.00" fill="#666666">[integer]</text>
</g>
<!-- ndb.datasetvariables&#45;&gt;ndb.variables -->
<g id="edge7" class="edge">
<title>ndb.datasetvariables:variableid&#45;&gt;ndb.variables:variableid</title>
<path fill="none" stroke="black" d="M1461.58,-1095.57C1472.08,-1086.85 1458.91,-1059.76 1450.72,-1039.8 1424.37,-975.59 1368.86,-991.18 1342.92,-926.8 1301.7,-824.48 1231.61,-678.6 1341.92,-678.6"/>
<polygon fill="black" stroke="black" points="1461.65,-1095.55 1450.8,-1093.98 1456.53,-1097.02 1452.36,-1098.22 1452.36,-1098.22 1452.36,-1098.22 1456.53,-1097.02 1453.28,-1102.63 1461.65,-1095.55"/>
<text text-anchor="start" x="918.46" y="-1108.4" font-family="Arial" font-size="10.00">FOREIGN KEY (variableid) REFERENCES ndb.variables(variableid) ON UPDATE CASCADE ON DELETE CASCADE</text>
</g>
<!-- ndb.isoinstrumentation -->
<g id="node9" class="node">
<title>ndb.isoinstrumentation</title>
<polygon fill="#efefef" stroke="none" points="1554.92,-1314 1554.92,-1349.6 1874.72,-1349.6 1874.72,-1314 1554.92,-1314"/>
<polygon fill="none" stroke="black" points="1554.92,-1314 1554.92,-1349.6 1874.72,-1349.6 1874.72,-1314 1554.92,-1314"/>
<text text-anchor="start" x="1569.83" y="-1327.4" font-family="Arial Bold" font-size="18.00">ndb.isoinstrumentation</text>
<text text-anchor="start" x="1735.32" y="-1327.4" font-family="Arial" font-size="14.00">    </text>
<text text-anchor="start" x="1766.44" y="-1327.4" font-family="Arial" font-size="14.00" fill="#666666">[BASE TABLE]</text>
<polygon fill="none" stroke="black" points="1554.92,-1283.2 1554.92,-1314 1874.72,-1314 1874.72,-1283.2 1554.92,-1283.2"/>
<text text-anchor="start" x="1561.92" y="-1295.4" font-family="Arial" font-size="14.00">datasetid </text>
<text text-anchor="start" x="1622.63" y="-1295.4" font-family="Arial" font-size="14.00" fill="#666666">[integer]</text>
<polygon fill="none" stroke="black" points="1554.92,-1252.4 1554.92,-1283.2 1874.72,-1283.2 1874.72,-1252.4 1554.92,-1252.4"/>
<text text-anchor="start" x="1561.92" y="-1264.6" font-family="Arial" font-size="14.00">insterrorlongtermpercent </text>
<text text-anchor="start" x="1718.32" y="-1264.6" font-family="Arial" font-size="14.00" fill="#666666">[double precision]</text>
<polygon fill="none" stroke="black" points="1554.92,-1221.6 1554.92,-1252.4 1874.72,-1252.4 1874.72,-1221.6 1554.92,-1221.6"/>
<text text-anchor="start" x="1561.92" y="-1233.8" font-family="Arial" font-size="14.00">insterrorpercent </text>
<text text-anchor="start" x="1663.85" y="-1233.8" font-family="Arial" font-size="14.00" fill="#666666">[double precision]</text>
<polygon fill="none" stroke="black" points="1554.92,-1190.8 1554.92,-1221.6 1874.72,-1221.6 1874.72,-1190.8 1554.92,-1190.8"/>
<text text-anchor="start" x="1561.92" y="-1203" font-family="Arial" font-size="14.00">insterrorrunsd </text>
<text text-anchor="start" x="1652.18" y="-1203" font-family="Arial" font-size="14.00" fill="#666666">[double precision]</text>
<polygon fill="none" stroke="black" points="1554.92,-1160 1554.92,-1190.8 1874.72,-1190.8 1874.72,-1160 1554.92,-1160"/>
<text text-anchor="start" x="1561.92" y="-1172.2" font-family="Arial" font-size="14.00">isoinstrumentationtypeid </text>
<text text-anchor="start" x="1716.78" y="-1172.2" font-family="Arial" font-size="14.00" fill="#666666">[integer]</text>
<polygon fill="none" stroke="black" points="1554.92,-1129.2 1554.92,-1160 1874.72,-1160 1874.72,-1129.2 1554.92,-1129.2"/>
<text text-anchor="start" x="1561.92" y="-1141.4" font-family="Arial" font-size="14.00">isosampleintrosystemtypeid </text>
<text text-anchor="start" x="1737.77" y="-1141.4" font-family="Arial" font-size="14.00" fill="#666666">[integer]</text>
<polygon fill="none" stroke="black" points="1554.92,-1098.4 1554.92,-1129.2 1874.72,-1129.2 1874.72,-1098.4 1554.92,-1098.4"/>
<text text-anchor="start" x="1561.92" y="-1110.6" font-family="Arial" font-size="14.00">notes </text>
<text text-anchor="start" x="1600.06" y="-1110.6" font-family="Arial" font-size="14.00" fill="#666666">[text]</text>
<polygon fill="none" stroke="black" points="1554.92,-1067.6 1554.92,-1098.4 1874.72,-1098.4 1874.72,-1067.6 1554.92,-1067.6"/>
<text text-anchor="start" x="1561.92" y="-1079.8" font-family="Arial" font-size="14.00">recdatecreated </text>
<text text-anchor="start" x="1659.2" y="-1079.8" font-family="Arial" font-size="14.00" fill="#666666">[timestamp(0) without time zone]</text>
<polygon fill="none" stroke="black" points="1554.92,-1036.8 1554.92,-1067.6 1874.72,-1067.6 1874.72,-1036.8 1554.92,-1036.8"/>
<text text-anchor="start" x="1561.92" y="-1049" font-family="Arial" font-size="14.00">recdatemodified </text>
<text text-anchor="start" x="1665.42" y="-1049" font-family="Arial" font-size="14.00" fill="#666666">[timestamp(0) without time zone]</text>
<polygon fill="none" stroke="black" points="1554.92,-1006 1554.92,-1036.8 1874.72,-1036.8 1874.72,-1006 1554.92,-1006"/>
<text text-anchor="start" x="1561.92" y="-1018.2" font-family="Arial" font-size="14.00">variableid </text>
<text text-anchor="start" x="1625.73" y="-1018.2" font-family="Arial" font-size="14.00" fill="#666666">[integer]</text>
</g>
<!-- ndb.isoinstrumentation&#45;&gt;ndb.variables -->
<g id="edge8" class="edge">
<title>ndb.isoinstrumentation:variableid&#45;&gt;ndb.variables:variableid</title>
<path fill="none" stroke="black" d="M1543.99,-1018.6C1531.79,-1009.51 1542.04,-980.36 1554.92,-962.8 1584.79,-922.07 1633.11,-967.73 1662.72,-926.8 1727.38,-837.42 1774.03,-678.6 1663.72,-678.6"/>
<polygon fill="black" stroke="black" points="1543.97,-1018.6 1552.38,-1025.64 1549.11,-1020.04 1553.28,-1021.22 1553.28,-1021.22 1553.28,-1021.22 1549.11,-1020.04 1554.82,-1016.98 1543.97,-1018.6"/>
<text text-anchor="start" x="1020.67" y="-1005.4" font-family="Arial" font-size="10.00">FOREIGN KEY (variableid) REFERENCES ndb.variables(variableid) ON UPDATE CASCADE ON DELETE CASCADE</text>
</g>
<!-- ndb.isosrmetadata -->
<g id="node10" class="node">
<title>ndb.isosrmetadata</title>
<polygon fill="#efefef" stroke="none" points="1978.92,-1252.4 1978.92,-1288 2298.72,-1288 2298.72,-1252.4 1978.92,-1252.4"/>
<polygon fill="none" stroke="black" points="1978.92,-1252.4 1978.92,-1288 2298.72,-1288 2298.72,-1252.4 1978.92,-1252.4"/>
<text text-anchor="start" x="2011.34" y="-1265.8" font-family="Arial Bold" font-size="18.00">ndb.isosrmetadata</text>
<text text-anchor="start" x="2141.81" y="-1265.8" font-family="Arial" font-size="14.00">    </text>
<text text-anchor="start" x="2172.93" y="-1265.8" font-family="Arial" font-size="14.00" fill="#666666">[BASE TABLE]</text>
<polygon fill="none" stroke="black" points="1978.92,-1221.6 1978.92,-1252.4 2298.72,-1252.4 2298.72,-1221.6 1978.92,-1221.6"/>
<text text-anchor="start" x="1985.92" y="-1233.8" font-family="Arial" font-size="14.00">datasetid </text>
<text text-anchor="start" x="2046.63" y="-1233.8" font-family="Arial" font-size="14.00" fill="#666666">[integer]</text>
<polygon fill="none" stroke="black" points="1978.92,-1190.8 1978.92,-1221.6 2298.72,-1221.6 2298.72,-1190.8 1978.92,-1190.8"/>
<text text-anchor="start" x="1985.92" y="-1203" font-family="Arial" font-size="14.00">recdatecreated </text>
<text text-anchor="start" x="2083.2" y="-1203" font-family="Arial" font-size="14.00" fill="#666666">[timestamp(0) without time zone]</text>
<polygon fill="none" stroke="black" points="1978.92,-1160 1978.92,-1190.8 2298.72,-1190.8 2298.72,-1160 1978.92,-1160"/>
<text text-anchor="start" x="1985.92" y="-1172.2" font-family="Arial" font-size="14.00">recdatemodified </text>
<text text-anchor="start" x="2089.42" y="-1172.2" font-family="Arial" font-size="14.00" fill="#666666">[timestamp(0) without time zone]</text>
<polygon fill="none" stroke="black" points="1978.92,-1129.2 1978.92,-1160 2298.72,-1160 2298.72,-1129.2 1978.92,-1129.2"/>
<text text-anchor="start" x="1985.92" y="-1141.4" font-family="Arial" font-size="14.00">srlocalgeolcontext </text>
<text text-anchor="start" x="2101.87" y="-1141.4" font-family="Arial" font-size="14.00" fill="#666666">[text]</text>
<polygon fill="none" stroke="black" points="1978.92,-1098.4 1978.92,-1129.2 2298.72,-1129.2 2298.72,-1098.4 1978.92,-1098.4"/>
<text text-anchor="start" x="1985.92" y="-1110.6" font-family="Arial" font-size="14.00">srlocalvalue </text>
<text text-anchor="start" x="2063.73" y="-1110.6" font-family="Arial" font-size="14.00" fill="#666666">[double precision]</text>
<polygon fill="none" stroke="black" points="1978.92,-1067.6 1978.92,-1098.4 2298.72,-1098.4 2298.72,-1067.6 1978.92,-1067.6"/>
<text text-anchor="start" x="1985.92" y="-1079.8" font-family="Arial" font-size="14.00">variableid </text>
<text text-anchor="start" x="2049.73" y="-1079.8" font-family="Arial" font-size="14.00" fill="#666666">[integer]</text>
</g>
<!-- ndb.isosrmetadata&#45;&gt;ndb.variables -->
<g id="edge9" class="edge">
<title>ndb.isosrmetadata:variableid&#45;&gt;ndb.variables:variableid</title>
<path fill="none" stroke="black" d="M1967.58,-1082.08C1924.67,-1073.61 1956.27,-1008.3 1926.82,-962.8 1833.29,-818.3 1835.85,-678.6 1663.72,-678.6"/>
<polygon fill="black" stroke="black" points="1967.63,-1082.09 1977.19,-1087.45 1972.94,-1082.56 1977.25,-1082.94 1977.25,-1082.94 1977.25,-1082.94 1972.94,-1082.56 1977.99,-1078.49 1967.63,-1082.09"/>
<text text-anchor="start" x="1984.92" y="-1093" font-family="Arial" font-size="10.00">FOREIGN KEY (variableid) REFERENCES ndb.variables(variableid) ON UPDATE CASCADE ON DELETE CASCADE</text>
</g>
<!-- ndb.isostandards -->
<g id="node11" class="node">
<title>ndb.isostandards</title>
<polygon fill="#efefef" stroke="none" points="2402.92,-1252.4 2402.92,-1288 2722.72,-1288 2722.72,-1252.4 2402.92,-1252.4"/>
<polygon fill="none" stroke="black" points="2402.92,-1252.4 2402.92,-1288 2722.72,-1288 2722.72,-1252.4 2402.92,-1252.4"/>
<text text-anchor="start" x="2440.33" y="-1265.8" font-family="Arial Bold" font-size="18.00">ndb.isostandards</text>
<text text-anchor="start" x="2560.82" y="-1265.8" font-family="Arial" font-size="14.00">    </text>
<text text-anchor="start" x="2591.94" y="-1265.8" font-family="Arial" font-size="14.00" fill="#666666">[BASE TABLE]</text>
<polygon fill="none" stroke="black" points="2402.92,-1221.6 2402.92,-1252.4 2722.72,-1252.4 2722.72,-1221.6 2402.92,-1221.6"/>
<text text-anchor="start" x="2409.92" y="-1233.8" font-family="Arial" font-size="14.00">datasetid </text>
<text text-anchor="start" x="2470.63" y="-1233.8" font-family="Arial" font-size="14.00" fill="#666666">[integer]</text>
<polygon fill="none" stroke="black" points="2402.92,-1190.8 2402.92,-1221.6 2722.72,-1221.6 2722.72,-1190.8 2402.92,-1190.8"/>
<text text-anchor="start" x="2409.92" y="-1203" font-family="Arial" font-size="14.00">isostandardid </text>
<text text-anchor="start" x="2497.09" y="-1203" font-family="Arial" font-size="14.00" fill="#666666">[integer]</text>
<polygon fill="none" stroke="black" points="2402.92,-1160 2402.92,-1190.8 2722.72,-1190.8 2722.72,-1160 2402.92,-1160"/>
<text text-anchor="start" x="2409.92" y="-1172.2" font-family="Arial" font-size="14.00">recdatecreated </text>
<text text-anchor="start" x="2507.2" y="-1172.2" font-family="Arial" font-size="14.00" fill="#666666">[timestamp(0) without time zone]</text>
<polygon fill="none" stroke="black" points="2402.92,-1129.2 2402.92,-1160 2722.72,-1160 2722.72,-1129.2 2402.92,-1129.2"/>
<text text-anchor="start" x="2409.92" y="-1141.4" font-family="Arial" font-size="14.00">recdatemodified </text>
<text text-anchor="start" x="2513.42" y="-1141.4" font-family="Arial" font-size="14.00" fill="#666666">[timestamp(0) without time zone]</text>
<polygon fill="none" stroke="black" points="2402.92,-1098.4 2402.92,-1129.2 2722.72,-1129.2 2722.72,-1098.4 2402.92,-1098.4"/>
<text text-anchor="start" x="2409.92" y="-1110.6" font-family="Arial" font-size="14.00">value </text>
<text text-anchor="start" x="2447.28" y="-1110.6" font-family="Arial" font-size="14.00" fill="#666666">[double precision]</text>
<polygon fill="none" stroke="black" points="2402.92,-1067.6 2402.92,-1098.4 2722.72,-1098.4 2722.72,-1067.6 2402.92,-1067.6"/>
<text text-anchor="start" x="2409.92" y="-1079.8" font-family="Arial" font-size="14.00">variableid </text>
<text text-anchor="start" x="2473.73" y="-1079.8" font-family="Arial" font-size="14.00" fill="#666666">[integer]</text>
</g>
<!-- ndb.isostandards&#45;&gt;ndb.variables -->
<g id="edge10" class="edge">
<title>ndb.isostandards:variableid&#45;&gt;ndb.variables:variableid</title>
<path fill="none" stroke="black" d="M2391.7,-1081.98C2349.88,-1072.63 2389.33,-1000.93 2350.82,-962.8 2116,-730.27 1994.19,-678.6 1663.72,-678.6"/>
<polygon fill="black" stroke="black" points="2391.64,-1081.98 2401.14,-1087.44 2396.95,-1082.51 2401.26,-1082.93 2401.26,-1082.93 2401.26,-1082.93 2396.95,-1082.51 2402.03,-1078.49 2391.64,-1081.98"/>
<text text-anchor="start" x="2408.92" y="-1067" font-family="Arial" font-size="10.00">FOREIGN KEY (variableid) REFERENCES ndb.variables(variableid) ON UPDATE CASCADE ON DELETE CASCADE</text>
</g>
</g>
</svg>
