<?xml version="1.0" encoding="UTF-8" standalone="no"?>
<!DOCTYPE svg PUBLIC "-//W3C//DTD SVG 1.1//EN"
 "http://www.w3.org/Graphics/SVG/1.1/DTD/svg11.dtd">
<!-- Generated by graphviz version 12.1.2 (20240928.0832)
 -->
<!-- Title: ndb.isoscaletypes Pages: 1 -->
<svg width="1473pt" height="627pt"
 viewBox="0.00 0.00 1473.47 626.80" xmlns="http://www.w3.org/2000/svg" xmlns:xlink="http://www.w3.org/1999/xlink">
<g id="graph0" class="graph" transform="scale(1 1) rotate(0) translate(4 622.8)">
<title>ndb.isoscaletypes</title>
<polygon fill="white" stroke="none" points="-4,4 -4,-622.8 1469.47,-622.8 1469.47,4 -4,4"/>
<!-- ndb.isoscaletypes -->
<g id="node1" class="node">
<title>ndb.isoscaletypes</title>
<polygon fill="#efefef" stroke="none" points="389.85,-228 389.85,-263.6 709.65,-263.6 709.65,-228 389.85,-228"/>
<polygon fill="none" stroke="black" points="389.85,-228 389.85,-263.6 709.65,-263.6 709.65,-228 389.85,-228"/>
<text text-anchor="start" x="424.27" y="-241.4" font-family="Arial Bold" font-size="18.00">ndb.isoscaletypes</text>
<text text-anchor="start" x="550.74" y="-241.4" font-family="Arial" font-size="14.00">    </text>
<text text-anchor="start" x="581.86" y="-241.4" font-family="Arial" font-size="14.00" fill="#666666">[BASE TABLE]</text>
<polygon fill="none" stroke="black" points="389.85,-197.2 389.85,-228 709.65,-228 709.65,-197.2 389.85,-197.2"/>
<text text-anchor="start" x="396.85" y="-209.4" font-family="Arial" font-size="14.00">isoscaletypeid </text>
<text text-anchor="start" x="488.68" y="-209.4" font-family="Arial" font-size="14.00" fill="#666666">[integer]</text>
<polygon fill="none" stroke="black" points="389.85,-166.4 389.85,-197.2 709.65,-197.2 709.65,-166.4 389.85,-166.4"/>
<text text-anchor="start" x="396.85" y="-178.6" font-family="Arial" font-size="14.00">isoscaleacronym </text>
<text text-anchor="start" x="505" y="-178.6" font-family="Arial" font-size="14.00" fill="#666666">[varchar(24)]</text>
<polygon fill="none" stroke="black" points="389.85,-135.6 389.85,-166.4 709.65,-166.4 709.65,-135.6 389.85,-135.6"/>
<text text-anchor="start" x="396.85" y="-147.8" font-family="Arial" font-size="14.00">isoscalename </text>
<text text-anchor="start" x="486.34" y="-147.8" font-family="Arial" font-size="14.00" fill="#666666">[varchar(80)]</text>
<polygon fill="none" stroke="black" points="389.85,-104.8 389.85,-135.6 709.65,-135.6 709.65,-104.8 389.85,-104.8"/>
<text text-anchor="start" x="396.85" y="-117" font-family="Arial" font-size="14.00">recdatecreated </text>
<text text-anchor="start" x="494.13" y="-117" font-family="Arial" font-size="14.00" fill="#666666">[timestamp(0) without time zone]</text>
<polygon fill="none" stroke="black" points="389.85,-74 389.85,-104.8 709.65,-104.8 709.65,-74 389.85,-74"/>
<text text-anchor="start" x="396.85" y="-86.2" font-family="Arial" font-size="14.00">recdatemodified </text>
<text text-anchor="start" x="500.35" y="-86.2" font-family="Arial" font-size="14.00" fill="#666666">[timestamp(0) without time zone]</text>
<polygon fill="none" stroke="black" stroke-width="3" points="388.35,-72.5 388.35,-265.1 711.15,-265.1 711.15,-72.5 388.35,-72.5"/>
</g>
<!-- ndb.isovariablescaletypes -->
<g id="node2" class="node">
<title>ndb.isovariablescaletypes</title>
<polygon fill="#efefef" stroke="none" points="601.28,-540 601.28,-575.6 924.21,-575.6 924.21,-540 601.28,-540"/>
<polygon fill="none" stroke="black" points="601.28,-540 601.28,-575.6 924.21,-575.6 924.21,-540 601.28,-540"/>
<text text-anchor="start" x="608.28" y="-553.4" font-family="Arial Bold" font-size="18.00">ndb.isovariablescaletypes</text>
<text text-anchor="start" x="792.72" y="-553.4" font-family="Arial" font-size="14.00">    </text>
<text text-anchor="start" x="823.84" y="-553.4" font-family="Arial" font-size="14.00" fill="#666666">[BASE TABLE]</text>
<polygon fill="none" stroke="black" points="601.28,-509.2 601.28,-540 924.21,-540 924.21,-509.2 601.28,-509.2"/>
<text text-anchor="start" x="608.28" y="-521.4" font-family="Arial" font-size="14.00">variableid </text>
<text text-anchor="start" x="672.1" y="-521.4" font-family="Arial" font-size="14.00" fill="#666666">[integer]</text>
<polygon fill="none" stroke="black" points="601.28,-478.4 601.28,-509.2 924.21,-509.2 924.21,-478.4 601.28,-478.4"/>
<text text-anchor="start" x="608.28" y="-490.6" font-family="Arial" font-size="14.00">isoscaletypeid </text>
<text text-anchor="start" x="700.11" y="-490.6" font-family="Arial" font-size="14.00" fill="#666666">[integer]</text>
<polygon fill="none" stroke="black" points="601.28,-447.6 601.28,-478.4 924.21,-478.4 924.21,-447.6 601.28,-447.6"/>
<text text-anchor="start" x="608.28" y="-459.8" font-family="Arial" font-size="14.00">recdatecreated </text>
<text text-anchor="start" x="705.57" y="-459.8" font-family="Arial" font-size="14.00" fill="#666666">[timestamp(0) without time zone]</text>
<polygon fill="none" stroke="black" points="601.28,-416.8 601.28,-447.6 924.21,-447.6 924.21,-416.8 601.28,-416.8"/>
<text text-anchor="start" x="608.28" y="-429" font-family="Arial" font-size="14.00">recdatemodified </text>
<text text-anchor="start" x="711.79" y="-429" font-family="Arial" font-size="14.00" fill="#666666">[timestamp(0) without time zone]</text>
</g>
<!-- ndb.isovariablescaletypes&#45;&gt;ndb.isoscaletypes -->
<g id="edge1" class="edge">
<title>ndb.isovariablescaletypes:isoscaletypeid&#45;&gt;ndb.isoscaletypes:isoscaletypeid</title>
<path fill="none" stroke="black" d="M590.19,-492.74C550.75,-483.54 576.45,-416.62 601.28,-373.6 629.22,-325.2 681.66,-358.18 709.65,-309.8 731.28,-272.4 753.85,-212.6 710.65,-212.6"/>
<polygon fill="black" stroke="black" points="590.01,-492.72 599.48,-498.24 595.31,-493.28 599.62,-493.73 599.62,-493.73 599.62,-493.73 595.31,-493.28 600.42,-489.29 590.01,-492.72"/>
<text text-anchor="start" x="7" y="-503.8" font-family="Arial" font-size="10.00">FOREIGN KEY (isoscaletypeid) REFERENCES ndb.isoscaletypes(isoscaletypeid) ON UPDATE CASCADE ON DELETE CASCADE</text>
</g>
<!-- ndb.variables -->
<g id="node3" class="node">
<title>ndb.variables</title>
<polygon fill="#efefef" stroke="none" points="816.85,-258.8 816.85,-294.4 1136.65,-294.4 1136.65,-258.8 816.85,-258.8"/>
<polygon fill="none" stroke="black" points="816.85,-258.8 816.85,-294.4 1136.65,-294.4 1136.65,-258.8 816.85,-258.8"/>
<text text-anchor="start" x="866.27" y="-272.2" font-family="Arial Bold" font-size="18.00">ndb.variables</text>
<text text-anchor="start" x="962.74" y="-272.2" font-family="Arial" font-size="14.00">    </text>
<text text-anchor="start" x="993.85" y="-272.2" font-family="Arial" font-size="14.00" fill="#666666">[BASE TABLE]</text>
<polygon fill="none" stroke="black" points="816.85,-228 816.85,-258.8 1136.65,-258.8 1136.65,-228 816.85,-228"/>
<text text-anchor="start" x="823.85" y="-240.2" font-family="Arial" font-size="14.00">variableid </text>
<text text-anchor="start" x="887.66" y="-240.2" font-family="Arial" font-size="14.00" fill="#666666">[integer]</text>
<polygon fill="none" stroke="black" points="816.85,-197.2 816.85,-228 1136.65,-228 1136.65,-197.2 816.85,-197.2"/>
<text text-anchor="start" x="823.85" y="-209.4" font-family="Arial" font-size="14.00">taxonid </text>
<text text-anchor="start" x="872.88" y="-209.4" font-family="Arial" font-size="14.00" fill="#666666">[integer]</text>
<polygon fill="none" stroke="black" points="816.85,-166.4 816.85,-197.2 1136.65,-197.2 1136.65,-166.4 816.85,-166.4"/>
<text text-anchor="start" x="823.85" y="-178.6" font-family="Arial" font-size="14.00">variableelementid </text>
<text text-anchor="start" x="937.47" y="-178.6" font-family="Arial" font-size="14.00" fill="#666666">[integer]</text>
<polygon fill="none" stroke="black" points="816.85,-135.6 816.85,-166.4 1136.65,-166.4 1136.65,-135.6 816.85,-135.6"/>
<text text-anchor="start" x="823.85" y="-147.8" font-family="Arial" font-size="14.00">variableunitsid </text>
<text text-anchor="start" x="917.23" y="-147.8" font-family="Arial" font-size="14.00" fill="#666666">[integer]</text>
<polygon fill="none" stroke="black" points="816.85,-104.8 816.85,-135.6 1136.65,-135.6 1136.65,-104.8 816.85,-104.8"/>
<text text-anchor="start" x="823.85" y="-117" font-family="Arial" font-size="14.00">variablecontextid </text>
<text text-anchor="start" x="932.8" y="-117" font-family="Arial" font-size="14.00" fill="#666666">[integer]</text>
<polygon fill="none" stroke="black" points="816.85,-74 816.85,-104.8 1136.65,-104.8 1136.65,-74 816.85,-74"/>
<text text-anchor="start" x="823.85" y="-86.2" font-family="Arial" font-size="14.00">recdatecreated </text>
<text text-anchor="start" x="921.13" y="-86.2" font-family="Arial" font-size="14.00" fill="#666666">[timestamp(0) without time zone]</text>
<polygon fill="none" stroke="black" points="816.85,-43.2 816.85,-74 1136.65,-74 1136.65,-43.2 816.85,-43.2"/>
<text text-anchor="start" x="823.85" y="-55.4" font-family="Arial" font-size="14.00">recdatemodified </text>
<text text-anchor="start" x="927.35" y="-55.4" font-family="Arial" font-size="14.00" fill="#666666">[timestamp(0) without time zone]</text>
</g>
<!-- ndb.isovariablescaletypes&#45;&gt;ndb.variables -->
<g id="edge2" class="edge">
<title>ndb.isovariablescaletypes:variableid&#45;&gt;ndb.variables:variableid</title>
<path fill="none" stroke="black" d="M935.38,-523.76C989.15,-514.16 961.43,-424.98 924.21,-373.6 894.69,-332.84 846.46,-378.3 816.85,-337.6 792.22,-303.74 773.98,-243.4 815.85,-243.4"/>
<polygon fill="black" stroke="black" points="935.51,-523.74 925.17,-520.09 930.19,-524.19 925.88,-524.54 925.88,-524.54 925.88,-524.54 930.19,-524.19 925.92,-529.06 935.51,-523.74"/>
<text text-anchor="start" x="932.21" y="-534.6" font-family="Arial" font-size="10.00">FOREIGN KEY (variableid) REFERENCES ndb.variables(variableid) ON UPDATE CASCADE ON DELETE CASCADE</text>
</g>
</g>
</svg>
