<?xml version="1.0" encoding="UTF-8" standalone="no"?>
<!DOCTYPE svg PUBLIC "-//W3C//DTD SVG 1.1//EN"
 "http://www.w3.org/Graphics/SVG/1.1/DTD/svg11.dtd">
<!-- Generated by graphviz version 12.1.2 (20240928.0832)
 -->
<!-- Title: ndb.variablecontexts Pages: 1 -->
<svg width="3051pt" height="1401pt"
 viewBox="0.00 0.00 3051.00 1400.80" xmlns="http://www.w3.org/2000/svg" xmlns:xlink="http://www.w3.org/1999/xlink">
<g id="graph0" class="graph" transform="scale(1 1) rotate(0) translate(4 1396.8)">
<title>ndb.variablecontexts</title>
<polygon fill="white" stroke="none" points="-4,4 -4,-1396.8 3047,-1396.8 3047,4 -4,4"/>
<!-- ndb.variablecontexts -->
<g id="node1" class="node">
<title>ndb.variablecontexts</title>
<polygon fill="#efefef" stroke="none" points="804.31,-320.4 804.31,-356 1124.11,-356 1124.11,-320.4 804.31,-320.4"/>
<polygon fill="none" stroke="black" points="804.31,-320.4 804.31,-356 1124.11,-356 1124.11,-320.4 804.31,-320.4"/>
<text text-anchor="start" x="827.24" y="-333.8" font-family="Arial Bold" font-size="18.00">ndb.variablecontexts</text>
<text text-anchor="start" x="976.69" y="-333.8" font-family="Arial" font-size="14.00">    </text>
<text text-anchor="start" x="1007.81" y="-333.8" font-family="Arial" font-size="14.00" fill="#666666">[BASE TABLE]</text>
<polygon fill="none" stroke="black" points="804.31,-289.6 804.31,-320.4 1124.11,-320.4 1124.11,-289.6 804.31,-289.6"/>
<text text-anchor="start" x="811.31" y="-301.8" font-family="Arial" font-size="14.00">recdatecreated </text>
<text text-anchor="start" x="908.59" y="-301.8" font-family="Arial" font-size="14.00" fill="#666666">[timestamp(0) without time zone]</text>
<polygon fill="none" stroke="black" points="804.31,-258.8 804.31,-289.6 1124.11,-289.6 1124.11,-258.8 804.31,-258.8"/>
<text text-anchor="start" x="811.31" y="-271" font-family="Arial" font-size="14.00">recdatemodified </text>
<text text-anchor="start" x="914.81" y="-271" font-family="Arial" font-size="14.00" fill="#666666">[timestamp(0) without time zone]</text>
<polygon fill="none" stroke="black" points="804.31,-228 804.31,-258.8 1124.11,-258.8 1124.11,-228 804.31,-228"/>
<text text-anchor="start" x="811.31" y="-240.2" font-family="Arial" font-size="14.00">variablecontext </text>
<text text-anchor="start" x="909.36" y="-240.2" font-family="Arial" font-size="14.00" fill="#666666">[varchar(64)]</text>
<polygon fill="none" stroke="black" points="804.31,-197.2 804.31,-228 1124.11,-228 1124.11,-197.2 804.31,-197.2"/>
<text text-anchor="start" x="811.31" y="-209.4" font-family="Arial" font-size="14.00">variablecontextid </text>
<text text-anchor="start" x="920.26" y="-209.4" font-family="Arial" font-size="14.00" fill="#666666">[integer]</text>
<polygon fill="none" stroke="black" stroke-width="3" points="802.81,-195.7 802.81,-357.5 1125.61,-357.5 1125.61,-195.7 802.81,-195.7"/>
</g>
<!-- ndb.contextsdatasettypes -->
<g id="node2" class="node">
<title>ndb.contextsdatasettypes</title>
<polygon fill="#efefef" stroke="none" points="591.31,-801.8 591.31,-837.4 911.11,-837.4 911.11,-801.8 591.31,-801.8"/>
<polygon fill="none" stroke="black" points="591.31,-801.8 591.31,-837.4 911.11,-837.4 911.11,-801.8 591.31,-801.8"/>
<text text-anchor="start" x="599.24" y="-815.2" font-family="Arial Bold" font-size="18.00">ndb.contextsdatasettypes</text>
<text text-anchor="start" x="778.69" y="-815.2" font-family="Arial" font-size="14.00">    </text>
<text text-anchor="start" x="809.81" y="-815.2" font-family="Arial" font-size="14.00" fill="#666666">[BASE TABLE]</text>
<polygon fill="none" stroke="black" points="591.31,-771 591.31,-801.8 911.11,-801.8 911.11,-771 591.31,-771"/>
<text text-anchor="start" x="598.31" y="-783.2" font-family="Arial" font-size="14.00">datasettypeid </text>
<text text-anchor="start" x="685.48" y="-783.2" font-family="Arial" font-size="14.00" fill="#666666">[integer]</text>
<polygon fill="none" stroke="black" points="591.31,-740.2 591.31,-771 911.11,-771 911.11,-740.2 591.31,-740.2"/>
<text text-anchor="start" x="598.31" y="-752.4" font-family="Arial" font-size="14.00">recdatecreated </text>
<text text-anchor="start" x="695.59" y="-752.4" font-family="Arial" font-size="14.00" fill="#666666">[timestamp(0) without time zone]</text>
<polygon fill="none" stroke="black" points="591.31,-709.4 591.31,-740.2 911.11,-740.2 911.11,-709.4 591.31,-709.4"/>
<text text-anchor="start" x="598.31" y="-721.6" font-family="Arial" font-size="14.00">recdatemodified </text>
<text text-anchor="start" x="701.81" y="-721.6" font-family="Arial" font-size="14.00" fill="#666666">[timestamp(0) without time zone]</text>
<polygon fill="none" stroke="black" points="591.31,-678.6 591.31,-709.4 911.11,-709.4 911.11,-678.6 591.31,-678.6"/>
<text text-anchor="start" x="598.31" y="-690.8" font-family="Arial" font-size="14.00">variablecontextid </text>
<text text-anchor="start" x="707.26" y="-690.8" font-family="Arial" font-size="14.00" fill="#666666">[integer]</text>
</g>
<!-- ndb.contextsdatasettypes&#45;&gt;ndb.variablecontexts -->
<g id="edge1" class="edge">
<title>ndb.contextsdatasettypes:variablecontextid&#45;&gt;ndb.variablecontexts:variablecontextid</title>
<path fill="none" stroke="black" d="M921.93,-691.02C931.01,-682.32 915.84,-656.24 911.11,-635.4 885.87,-524.23 828.89,-513.51 804.31,-402.2 786.14,-319.92 719.04,-212.6 803.31,-212.6"/>
<polygon fill="black" stroke="black" points="922,-691 911.12,-689.6 916.89,-692.55 912.75,-693.81 912.75,-693.81 912.75,-693.81 916.89,-692.55 913.73,-698.21 922,-691"/>
<text text-anchor="start" x="919.11" y="-704" font-family="Arial" font-size="10.00">FOREIGN KEY (variablecontextid) REFERENCES ndb.variablecontexts(variablecontextid) ON UPDATE CASCADE ON DELETE CASCADE</text>
</g>
<!-- ndb.datasettypes -->
<g id="node3" class="node">
<title>ndb.datasettypes</title>
<polygon fill="#efefef" stroke="none" points="377.31,-320.4 377.31,-356 697.11,-356 697.11,-320.4 377.31,-320.4"/>
<polygon fill="none" stroke="black" points="377.31,-320.4 377.31,-356 697.11,-356 697.11,-320.4 377.31,-320.4"/>
<text text-anchor="start" x="415.23" y="-333.8" font-family="Arial Bold" font-size="18.00">ndb.datasettypes</text>
<text text-anchor="start" x="534.7" y="-333.8" font-family="Arial" font-size="14.00">    </text>
<text text-anchor="start" x="565.82" y="-333.8" font-family="Arial" font-size="14.00" fill="#666666">[BASE TABLE]</text>
<polygon fill="none" stroke="black" points="377.31,-289.6 377.31,-320.4 697.11,-320.4 697.11,-289.6 377.31,-289.6"/>
<text text-anchor="start" x="384.31" y="-301.8" font-family="Arial" font-size="14.00">datasettype </text>
<text text-anchor="start" x="460.58" y="-301.8" font-family="Arial" font-size="14.00" fill="#666666">[varchar(64)]</text>
<polygon fill="none" stroke="black" points="377.31,-258.8 377.31,-289.6 697.11,-289.6 697.11,-258.8 377.31,-258.8"/>
<text text-anchor="start" x="384.31" y="-271" font-family="Arial" font-size="14.00">datasettypeid </text>
<text text-anchor="start" x="471.48" y="-271" font-family="Arial" font-size="14.00" fill="#666666">[integer]</text>
<polygon fill="none" stroke="black" points="377.31,-228 377.31,-258.8 697.11,-258.8 697.11,-228 377.31,-228"/>
<text text-anchor="start" x="384.31" y="-240.2" font-family="Arial" font-size="14.00">recdatecreated </text>
<text text-anchor="start" x="481.59" y="-240.2" font-family="Arial" font-size="14.00" fill="#666666">[timestamp(0) without time zone]</text>
<polygon fill="none" stroke="black" points="377.31,-197.2 377.31,-228 697.11,-228 697.11,-197.2 377.31,-197.2"/>
<text text-anchor="start" x="384.31" y="-209.4" font-family="Arial" font-size="14.00">recdatemodified </text>
<text text-anchor="start" x="487.81" y="-209.4" font-family="Arial" font-size="14.00" fill="#666666">[timestamp(0) without time zone]</text>
</g>
<!-- ndb.contextsdatasettypes&#45;&gt;ndb.datasettypes -->
<g id="edge2" class="edge">
<title>ndb.contextsdatasettypes:datasettypeid&#45;&gt;ndb.datasettypes:datasettypeid</title>
<path fill="none" stroke="black" d="M580.04,-785.6C529.17,-776.79 577.87,-697.27 591.31,-635.4 615.72,-522.99 672.62,-511.59 697.11,-399.2 708.94,-344.92 753.66,-274.2 698.11,-274.2"/>
<polygon fill="black" stroke="black" points="580.01,-785.59 589.62,-790.86 585.32,-786.01 589.64,-786.35 589.64,-786.35 589.64,-786.35 585.32,-786.01 590.33,-781.89 580.01,-785.59"/>
<text text-anchor="start" x="7" y="-796.4" font-family="Arial" font-size="10.00">FOREIGN KEY (datasettypeid) REFERENCES ndb.datasettypes(datasettypeid) ON UPDATE CASCADE ON DELETE CASCADE</text>
</g>
<!-- ndb.variables -->
<g id="node4" class="node">
<title>ndb.variables</title>
<polygon fill="#efefef" stroke="none" points="1443.31,-848 1443.31,-883.6 1763.11,-883.6 1763.11,-848 1443.31,-848"/>
<polygon fill="none" stroke="black" points="1443.31,-848 1443.31,-883.6 1763.11,-883.6 1763.11,-848 1443.31,-848"/>
<text text-anchor="start" x="1492.73" y="-861.4" font-family="Arial Bold" font-size="18.00">ndb.variables</text>
<text text-anchor="start" x="1589.2" y="-861.4" font-family="Arial" font-size="14.00">    </text>
<text text-anchor="start" x="1620.31" y="-861.4" font-family="Arial" font-size="14.00" fill="#666666">[BASE TABLE]</text>
<polygon fill="none" stroke="black" points="1443.31,-817.2 1443.31,-848 1763.11,-848 1763.11,-817.2 1443.31,-817.2"/>
<text text-anchor="start" x="1450.31" y="-829.4" font-family="Arial" font-size="14.00">recdatecreated </text>
<text text-anchor="start" x="1547.59" y="-829.4" font-family="Arial" font-size="14.00" fill="#666666">[timestamp(0) without time zone]</text>
<polygon fill="none" stroke="black" points="1443.31,-786.4 1443.31,-817.2 1763.11,-817.2 1763.11,-786.4 1443.31,-786.4"/>
<text text-anchor="start" x="1450.31" y="-798.6" font-family="Arial" font-size="14.00">recdatemodified </text>
<text text-anchor="start" x="1553.81" y="-798.6" font-family="Arial" font-size="14.00" fill="#666666">[timestamp(0) without time zone]</text>
<polygon fill="none" stroke="black" points="1443.31,-755.6 1443.31,-786.4 1763.11,-786.4 1763.11,-755.6 1443.31,-755.6"/>
<text text-anchor="start" x="1450.31" y="-767.8" font-family="Arial" font-size="14.00">taxonid </text>
<text text-anchor="start" x="1499.34" y="-767.8" font-family="Arial" font-size="14.00" fill="#666666">[integer]</text>
<polygon fill="none" stroke="black" points="1443.31,-724.8 1443.31,-755.6 1763.11,-755.6 1763.11,-724.8 1443.31,-724.8"/>
<text text-anchor="start" x="1450.31" y="-737" font-family="Arial" font-size="14.00">variablecontextid </text>
<text text-anchor="start" x="1559.26" y="-737" font-family="Arial" font-size="14.00" fill="#666666">[integer]</text>
<polygon fill="none" stroke="black" points="1443.31,-694 1443.31,-724.8 1763.11,-724.8 1763.11,-694 1443.31,-694"/>
<text text-anchor="start" x="1450.31" y="-706.2" font-family="Arial" font-size="14.00">variableelementid </text>
<text text-anchor="start" x="1563.93" y="-706.2" font-family="Arial" font-size="14.00" fill="#666666">[integer]</text>
<polygon fill="none" stroke="black" points="1443.31,-663.2 1443.31,-694 1763.11,-694 1763.11,-663.2 1443.31,-663.2"/>
<text text-anchor="start" x="1450.31" y="-675.4" font-family="Arial" font-size="14.00">variableid </text>
<text text-anchor="start" x="1514.12" y="-675.4" font-family="Arial" font-size="14.00" fill="#666666">[integer]</text>
<polygon fill="none" stroke="black" points="1443.31,-632.4 1443.31,-663.2 1763.11,-663.2 1763.11,-632.4 1443.31,-632.4"/>
<text text-anchor="start" x="1450.31" y="-644.6" font-family="Arial" font-size="14.00">variableunitsid </text>
<text text-anchor="start" x="1543.69" y="-644.6" font-family="Arial" font-size="14.00" fill="#666666">[integer]</text>
</g>
<!-- ndb.variables&#45;&gt;ndb.variablecontexts -->
<g id="edge3" class="edge">
<title>ndb.variables:variablecontextid&#45;&gt;ndb.variablecontexts:variablecontextid</title>
<path fill="none" stroke="black" d="M1431.98,-740.08C1296.68,-736.99 1252.98,-672.14 1179.21,-553.2 1138.81,-488.07 1201.75,-212.6 1125.11,-212.6"/>
<polygon fill="black" stroke="black" points="1431.97,-740.08 1441.92,-744.7 1437.31,-740.14 1441.64,-740.19 1441.64,-740.19 1441.64,-740.19 1437.31,-740.14 1442.02,-735.7 1431.97,-740.08"/>
<text text-anchor="start" x="812.33" y="-750.2" font-family="Arial" font-size="10.00">FOREIGN KEY (variablecontextid) REFERENCES ndb.variablecontexts(variablecontextid) ON UPDATE CASCADE ON DELETE CASCADE</text>
</g>
<!-- ndb.taxa -->
<g id="node5" class="node">
<title>ndb.taxa</title>
<polygon fill="#efefef" stroke="none" points="1231.31,-474.4 1231.31,-510 1551.11,-510 1551.11,-474.4 1231.31,-474.4"/>
<polygon fill="none" stroke="black" points="1231.31,-474.4 1231.31,-510 1551.11,-510 1551.11,-474.4 1231.31,-474.4"/>
<text text-anchor="start" x="1298.22" y="-487.8" font-family="Arial Bold" font-size="18.00">ndb.taxa</text>
<text text-anchor="start" x="1359.7" y="-487.8" font-family="Arial" font-size="14.00">    </text>
<text text-anchor="start" x="1390.82" y="-487.8" font-family="Arial" font-size="14.00" fill="#666666">[BASE TABLE]</text>
<polygon fill="none" stroke="black" points="1231.31,-443.6 1231.31,-474.4 1551.11,-474.4 1551.11,-443.6 1231.31,-443.6"/>
<text text-anchor="start" x="1238.31" y="-455.8" font-family="Arial" font-size="14.00">author </text>
<text text-anchor="start" x="1281.89" y="-455.8" font-family="Arial" font-size="14.00" fill="#666666">[varchar(128)]</text>
<polygon fill="none" stroke="black" points="1231.31,-412.8 1231.31,-443.6 1551.11,-443.6 1551.11,-412.8 1231.31,-412.8"/>
<text text-anchor="start" x="1238.31" y="-425" font-family="Arial" font-size="14.00">extinct </text>
<text text-anchor="start" x="1282.66" y="-425" font-family="Arial" font-size="14.00" fill="#666666">[boolean]</text>
<polygon fill="none" stroke="black" points="1231.31,-382 1231.31,-412.8 1551.11,-412.8 1551.11,-382 1231.31,-382"/>
<text text-anchor="start" x="1238.31" y="-394.2" font-family="Arial" font-size="14.00">highertaxonid </text>
<text text-anchor="start" x="1326.26" y="-394.2" font-family="Arial" font-size="14.00" fill="#666666">[integer]</text>
<polygon fill="none" stroke="black" points="1231.31,-351.2 1231.31,-382 1551.11,-382 1551.11,-351.2 1231.31,-351.2"/>
<text text-anchor="start" x="1238.31" y="-363.4" font-family="Arial" font-size="14.00">notes </text>
<text text-anchor="start" x="1276.45" y="-363.4" font-family="Arial" font-size="14.00" fill="#666666">[text]</text>
<polygon fill="none" stroke="black" points="1231.31,-320.4 1231.31,-351.2 1551.11,-351.2 1551.11,-320.4 1231.31,-320.4"/>
<text text-anchor="start" x="1238.31" y="-332.6" font-family="Arial" font-size="14.00">publicationid </text>
<text text-anchor="start" x="1320.03" y="-332.6" font-family="Arial" font-size="14.00" fill="#666666">[integer]</text>
<polygon fill="none" stroke="black" points="1231.31,-289.6 1231.31,-320.4 1551.11,-320.4 1551.11,-289.6 1231.31,-289.6"/>
<text text-anchor="start" x="1238.31" y="-301.8" font-family="Arial" font-size="14.00">recdatecreated </text>
<text text-anchor="start" x="1335.59" y="-301.8" font-family="Arial" font-size="14.00" fill="#666666">[timestamp(0) without time zone]</text>
<polygon fill="none" stroke="black" points="1231.31,-258.8 1231.31,-289.6 1551.11,-289.6 1551.11,-258.8 1231.31,-258.8"/>
<text text-anchor="start" x="1238.31" y="-271" font-family="Arial" font-size="14.00">recdatemodified </text>
<text text-anchor="start" x="1341.81" y="-271" font-family="Arial" font-size="14.00" fill="#666666">[timestamp(0) without time zone]</text>
<polygon fill="none" stroke="black" points="1231.31,-228 1231.31,-258.8 1551.11,-258.8 1551.11,-228 1231.31,-228"/>
<text text-anchor="start" x="1238.31" y="-240.2" font-family="Arial" font-size="14.00">taxagroupid </text>
<text text-anchor="start" x="1315.36" y="-240.2" font-family="Arial" font-size="14.00" fill="#666666">[varchar(3)]</text>
<polygon fill="none" stroke="black" points="1231.31,-197.2 1231.31,-228 1551.11,-228 1551.11,-197.2 1231.31,-197.2"/>
<text text-anchor="start" x="1238.31" y="-209.4" font-family="Arial" font-size="14.00">taxoncode </text>
<text text-anchor="start" x="1306.8" y="-209.4" font-family="Arial" font-size="14.00" fill="#666666">[varchar(64)]</text>
<polygon fill="none" stroke="black" points="1231.31,-166.4 1231.31,-197.2 1551.11,-197.2 1551.11,-166.4 1231.31,-166.4"/>
<text text-anchor="start" x="1238.31" y="-178.6" font-family="Arial" font-size="14.00">taxonid </text>
<text text-anchor="start" x="1287.34" y="-178.6" font-family="Arial" font-size="14.00" fill="#666666">[integer]</text>
<polygon fill="none" stroke="black" points="1231.31,-135.6 1231.31,-166.4 1551.11,-166.4 1551.11,-135.6 1231.31,-135.6"/>
<text text-anchor="start" x="1238.31" y="-147.8" font-family="Arial" font-size="14.00">taxonname </text>
<text text-anchor="start" x="1311.47" y="-147.8" font-family="Arial" font-size="14.00" fill="#666666">[text]</text>
<polygon fill="none" stroke="black" points="1231.31,-104.8 1231.31,-135.6 1551.11,-135.6 1551.11,-104.8 1231.31,-104.8"/>
<text text-anchor="start" x="1238.31" y="-117" font-family="Arial" font-size="14.00">valid </text>
<text text-anchor="start" x="1270.99" y="-117" font-family="Arial" font-size="14.00" fill="#666666">[boolean]</text>
<polygon fill="none" stroke="black" points="1231.31,-74 1231.31,-104.8 1551.11,-104.8 1551.11,-74 1231.31,-74"/>
<text text-anchor="start" x="1238.31" y="-86.2" font-family="Arial" font-size="14.00">validatedate </text>
<text text-anchor="start" x="1317.7" y="-86.2" font-family="Arial" font-size="14.00" fill="#666666">[date]</text>
<polygon fill="none" stroke="black" points="1231.31,-43.2 1231.31,-74 1551.11,-74 1551.11,-43.2 1231.31,-43.2"/>
<text text-anchor="start" x="1238.31" y="-55.4" font-family="Arial" font-size="14.00">validatorid </text>
<text text-anchor="start" x="1306.01" y="-55.4" font-family="Arial" font-size="14.00" fill="#666666">[integer]</text>
</g>
<!-- ndb.variables&#45;&gt;ndb.taxa -->
<g id="edge4" class="edge">
<title>ndb.variables:taxonid&#45;&gt;ndb.taxa:taxonid</title>
<path fill="none" stroke="black" d="M1432.11,-770.31C1364.62,-760.65 1398.03,-651.69 1443.31,-589.2 1472.94,-548.3 1521.53,-594.15 1551.11,-553.2 1599.44,-486.3 1634.64,-181.8 1552.11,-181.8"/>
<polygon fill="black" stroke="black" points="1432,-770.3 1441.67,-775.47 1437.32,-770.66 1441.64,-770.95 1441.64,-770.95 1441.64,-770.95 1437.32,-770.66 1442.28,-766.49 1432,-770.3"/>
<text text-anchor="start" x="951.29" y="-781" font-family="Arial" font-size="10.00">FOREIGN KEY (taxonid) REFERENCES ndb.taxa(taxonid) ON UPDATE CASCADE ON DELETE CASCADE</text>
</g>
<!-- ndb.variableelements -->
<g id="node6" class="node">
<title>ndb.variableelements</title>
<polygon fill="#efefef" stroke="none" points="1655.31,-382 1655.31,-417.6 1975.11,-417.6 1975.11,-382 1655.31,-382"/>
<polygon fill="none" stroke="black" points="1655.31,-382 1655.31,-417.6 1975.11,-417.6 1975.11,-382 1655.31,-382"/>
<text text-anchor="start" x="1676.24" y="-395.4" font-family="Arial Bold" font-size="18.00">ndb.variableelements</text>
<text text-anchor="start" x="1829.68" y="-395.4" font-family="Arial" font-size="14.00">    </text>
<text text-anchor="start" x="1860.8" y="-395.4" font-family="Arial" font-size="14.00" fill="#666666">[BASE TABLE]</text>
<polygon fill="none" stroke="black" points="1655.31,-351.2 1655.31,-382 1975.11,-382 1975.11,-351.2 1655.31,-351.2"/>
<text text-anchor="start" x="1662.31" y="-363.4" font-family="Arial" font-size="14.00">elementtypeid </text>
<text text-anchor="start" x="1753.36" y="-363.4" font-family="Arial" font-size="14.00" fill="#666666">[integer]</text>
<polygon fill="none" stroke="black" points="1655.31,-320.4 1655.31,-351.2 1975.11,-351.2 1975.11,-320.4 1655.31,-320.4"/>
<text text-anchor="start" x="1662.31" y="-332.6" font-family="Arial" font-size="14.00">maturityid </text>
<text text-anchor="start" x="1726.88" y="-332.6" font-family="Arial" font-size="14.00" fill="#666666">[integer]</text>
<polygon fill="none" stroke="black" points="1655.31,-289.6 1655.31,-320.4 1975.11,-320.4 1975.11,-289.6 1655.31,-289.6"/>
<text text-anchor="start" x="1662.31" y="-301.8" font-family="Arial" font-size="14.00">portionid </text>
<text text-anchor="start" x="1719.9" y="-301.8" font-family="Arial" font-size="14.00" fill="#666666">[integer]</text>
<polygon fill="none" stroke="black" points="1655.31,-258.8 1655.31,-289.6 1975.11,-289.6 1975.11,-258.8 1655.31,-258.8"/>
<text text-anchor="start" x="1662.31" y="-271" font-family="Arial" font-size="14.00">recdatecreated </text>
<text text-anchor="start" x="1759.59" y="-271" font-family="Arial" font-size="14.00" fill="#666666">[timestamp(0) without time zone]</text>
<polygon fill="none" stroke="black" points="1655.31,-228 1655.31,-258.8 1975.11,-258.8 1975.11,-228 1655.31,-228"/>
<text text-anchor="start" x="1662.31" y="-240.2" font-family="Arial" font-size="14.00">recdatemodified </text>
<text text-anchor="start" x="1765.81" y="-240.2" font-family="Arial" font-size="14.00" fill="#666666">[timestamp(0) without time zone]</text>
<polygon fill="none" stroke="black" points="1655.31,-197.2 1655.31,-228 1975.11,-228 1975.11,-197.2 1655.31,-197.2"/>
<text text-anchor="start" x="1662.31" y="-209.4" font-family="Arial" font-size="14.00">symmetryid </text>
<text text-anchor="start" x="1737.76" y="-209.4" font-family="Arial" font-size="14.00" fill="#666666">[integer]</text>
<polygon fill="none" stroke="black" points="1655.31,-166.4 1655.31,-197.2 1975.11,-197.2 1975.11,-166.4 1655.31,-166.4"/>
<text text-anchor="start" x="1662.31" y="-178.6" font-family="Arial" font-size="14.00">variableelement </text>
<text text-anchor="start" x="1765.03" y="-178.6" font-family="Arial" font-size="14.00" fill="#666666">[varchar(255)]</text>
<polygon fill="none" stroke="black" points="1655.31,-135.6 1655.31,-166.4 1975.11,-166.4 1975.11,-135.6 1655.31,-135.6"/>
<text text-anchor="start" x="1662.31" y="-147.8" font-family="Arial" font-size="14.00">variableelementid </text>
<text text-anchor="start" x="1775.93" y="-147.8" font-family="Arial" font-size="14.00" fill="#666666">[integer]</text>
</g>
<!-- ndb.variables&#45;&gt;ndb.variableelements -->
<g id="edge5" class="edge">
<title>ndb.variables:variableelementid&#45;&gt;ndb.variableelements:variableelementid</title>
<path fill="none" stroke="black" d="M1774.09,-708.39C1812.56,-699.64 1780.29,-635.8 1763.11,-589.2 1737.32,-519.29 1680.92,-530.77 1655.31,-460.8 1631.65,-396.15 1585.46,-151 1654.31,-151"/>
<polygon fill="black" stroke="black" points="1774.39,-708.36 1763.99,-704.89 1769.08,-708.9 1764.77,-709.33 1764.77,-709.33 1764.77,-709.33 1769.08,-708.9 1764.89,-713.84 1774.39,-708.36"/>
<text text-anchor="start" x="1771.11" y="-719.4" font-family="Arial" font-size="10.00">FOREIGN KEY (variableelementid) REFERENCES ndb.variableelements(variableelementid) ON UPDATE CASCADE ON DELETE CASCADE</text>
</g>
<!-- ndb.variableunits -->
<g id="node13" class="node">
<title>ndb.variableunits</title>
<polygon fill="#efefef" stroke="none" points="2079.31,-320.4 2079.31,-356 2399.11,-356 2399.11,-320.4 2079.31,-320.4"/>
<polygon fill="none" stroke="black" points="2079.31,-320.4 2079.31,-356 2399.11,-356 2399.11,-320.4 2079.31,-320.4"/>
<text text-anchor="start" x="2114.73" y="-333.8" font-family="Arial Bold" font-size="18.00">ndb.variableunits</text>
<text text-anchor="start" x="2239.2" y="-333.8" font-family="Arial" font-size="14.00">    </text>
<text text-anchor="start" x="2270.32" y="-333.8" font-family="Arial" font-size="14.00" fill="#666666">[BASE TABLE]</text>
<polygon fill="none" stroke="black" points="2079.31,-289.6 2079.31,-320.4 2399.11,-320.4 2399.11,-289.6 2079.31,-289.6"/>
<text text-anchor="start" x="2086.31" y="-301.8" font-family="Arial" font-size="14.00">recdatecreated </text>
<text text-anchor="start" x="2183.59" y="-301.8" font-family="Arial" font-size="14.00" fill="#666666">[timestamp(0) without time zone]</text>
<polygon fill="none" stroke="black" points="2079.31,-258.8 2079.31,-289.6 2399.11,-289.6 2399.11,-258.8 2079.31,-258.8"/>
<text text-anchor="start" x="2086.31" y="-271" font-family="Arial" font-size="14.00">recdatemodified </text>
<text text-anchor="start" x="2189.81" y="-271" font-family="Arial" font-size="14.00" fill="#666666">[timestamp(0) without time zone]</text>
<polygon fill="none" stroke="black" points="2079.31,-228 2079.31,-258.8 2399.11,-258.8 2399.11,-228 2079.31,-228"/>
<text text-anchor="start" x="2086.31" y="-240.2" font-family="Arial" font-size="14.00">variableunits </text>
<text text-anchor="start" x="2168.8" y="-240.2" font-family="Arial" font-size="14.00" fill="#666666">[varchar(64)]</text>
<polygon fill="none" stroke="black" points="2079.31,-197.2 2079.31,-228 2399.11,-228 2399.11,-197.2 2079.31,-197.2"/>
<text text-anchor="start" x="2086.31" y="-209.4" font-family="Arial" font-size="14.00">variableunitsid </text>
<text text-anchor="start" x="2179.69" y="-209.4" font-family="Arial" font-size="14.00" fill="#666666">[integer]</text>
</g>
<!-- ndb.variables&#45;&gt;ndb.variableunits -->
<g id="edge12" class="edge">
<title>ndb.variables:variableunitsid&#45;&gt;ndb.variableunits:variableunitsid</title>
<path fill="none" stroke="black" d="M1774.31,-647.45C1842.33,-643.07 1989.79,-598.79 2027.21,-553.2 2075.77,-494.04 2001.77,-212.6 2078.31,-212.6"/>
<polygon fill="black" stroke="black" points="1774.44,-647.44 1764.29,-643.29 1769.1,-647.63 1764.78,-647.78 1764.78,-647.78 1764.78,-647.78 1769.1,-647.63 1764.6,-652.29 1774.44,-647.44"/>
<text text-anchor="start" x="1771.11" y="-657.8" font-family="Arial" font-size="10.00">FOREIGN KEY (variableunitsid) REFERENCES ndb.variableunits(variableunitsid) ON UPDATE CASCADE ON DELETE CASCADE</text>
</g>
<!-- ndb.data -->
<g id="node7" class="node">
<title>ndb.data</title>
<polygon fill="#efefef" stroke="none" points="383.31,-1252.4 383.31,-1288 703.11,-1288 703.11,-1252.4 383.31,-1252.4"/>
<polygon fill="none" stroke="black" points="383.31,-1252.4 383.31,-1288 703.11,-1288 703.11,-1252.4 383.31,-1252.4"/>
<text text-anchor="start" x="450.22" y="-1265.8" font-family="Arial Bold" font-size="18.00">ndb.data</text>
<text text-anchor="start" x="511.7" y="-1265.8" font-family="Arial" font-size="14.00">    </text>
<text text-anchor="start" x="542.82" y="-1265.8" font-family="Arial" font-size="14.00" fill="#666666">[BASE TABLE]</text>
<polygon fill="none" stroke="black" points="383.31,-1221.6 383.31,-1252.4 703.11,-1252.4 703.11,-1221.6 383.31,-1221.6"/>
<text text-anchor="start" x="390.31" y="-1233.8" font-family="Arial" font-size="14.00">dataid </text>
<text text-anchor="start" x="432.34" y="-1233.8" font-family="Arial" font-size="14.00" fill="#666666">[integer]</text>
<polygon fill="none" stroke="black" points="383.31,-1190.8 383.31,-1221.6 703.11,-1221.6 703.11,-1190.8 383.31,-1190.8"/>
<text text-anchor="start" x="390.31" y="-1203" font-family="Arial" font-size="14.00">recdatecreated </text>
<text text-anchor="start" x="487.59" y="-1203" font-family="Arial" font-size="14.00" fill="#666666">[timestamp(0) without time zone]</text>
<polygon fill="none" stroke="black" points="383.31,-1160 383.31,-1190.8 703.11,-1190.8 703.11,-1160 383.31,-1160"/>
<text text-anchor="start" x="390.31" y="-1172.2" font-family="Arial" font-size="14.00">recdatemodified </text>
<text text-anchor="start" x="493.81" y="-1172.2" font-family="Arial" font-size="14.00" fill="#666666">[timestamp(0) without time zone]</text>
<polygon fill="none" stroke="black" points="383.31,-1129.2 383.31,-1160 703.11,-1160 703.11,-1129.2 383.31,-1129.2"/>
<text text-anchor="start" x="390.31" y="-1141.4" font-family="Arial" font-size="14.00">sampleid </text>
<text text-anchor="start" x="450.23" y="-1141.4" font-family="Arial" font-size="14.00" fill="#666666">[integer]</text>
<polygon fill="none" stroke="black" points="383.31,-1098.4 383.31,-1129.2 703.11,-1129.2 703.11,-1098.4 383.31,-1098.4"/>
<text text-anchor="start" x="390.31" y="-1110.6" font-family="Arial" font-size="14.00">value </text>
<text text-anchor="start" x="427.67" y="-1110.6" font-family="Arial" font-size="14.00" fill="#666666">[double precision]</text>
<polygon fill="none" stroke="black" points="383.31,-1067.6 383.31,-1098.4 703.11,-1098.4 703.11,-1067.6 383.31,-1067.6"/>
<text text-anchor="start" x="390.31" y="-1079.8" font-family="Arial" font-size="14.00">variableid </text>
<text text-anchor="start" x="454.12" y="-1079.8" font-family="Arial" font-size="14.00" fill="#666666">[integer]</text>
</g>
<!-- ndb.data&#45;&gt;ndb.variables -->
<g id="edge6" class="edge">
<title>ndb.data:variableid&#45;&gt;ndb.variables:variableid</title>
<path fill="none" stroke="black" d="M714.27,-1081.93C755.62,-1072.04 712.73,-996.46 755.21,-962.8 828.74,-904.53 874.29,-956.73 963.21,-926.8 1190.49,-850.3 1202.5,-678.6 1442.31,-678.6"/>
<polygon fill="black" stroke="black" points="714.38,-1081.91 703.97,-1078.49 709.08,-1082.47 704.77,-1082.93 704.77,-1082.93 704.77,-1082.93 709.08,-1082.47 704.91,-1087.44 714.38,-1081.91"/>
<text text-anchor="start" x="170.85" y="-1093" font-family="Arial" font-size="10.00">FOREIGN KEY (variableid) REFERENCES ndb.variables(variableid) ON UPDATE CASCADE ON DELETE CASCADE</text>
</g>
<!-- ndb.datasetvariables -->
<g id="node8" class="node">
<title>ndb.datasetvariables</title>
<polygon fill="#efefef" stroke="none" points="807.31,-1237 807.31,-1272.6 1127.11,-1272.6 1127.11,-1237 807.31,-1237"/>
<polygon fill="none" stroke="black" points="807.31,-1237 807.31,-1272.6 1127.11,-1272.6 1127.11,-1237 807.31,-1237"/>
<text text-anchor="start" x="831.74" y="-1250.4" font-family="Arial Bold" font-size="18.00">ndb.datasetvariables</text>
<text text-anchor="start" x="978.19" y="-1250.4" font-family="Arial" font-size="14.00">    </text>
<text text-anchor="start" x="1009.3" y="-1250.4" font-family="Arial" font-size="14.00" fill="#666666">[BASE TABLE]</text>
<polygon fill="none" stroke="black" points="807.31,-1206.2 807.31,-1237 1127.11,-1237 1127.11,-1206.2 807.31,-1206.2"/>
<text text-anchor="start" x="814.31" y="-1218.4" font-family="Arial" font-size="14.00">datasetid </text>
<text text-anchor="start" x="875.02" y="-1218.4" font-family="Arial" font-size="14.00" fill="#666666">[integer]</text>
<polygon fill="none" stroke="black" points="807.31,-1175.4 807.31,-1206.2 1127.11,-1206.2 1127.11,-1175.4 807.31,-1175.4"/>
<text text-anchor="start" x="814.31" y="-1187.6" font-family="Arial" font-size="14.00">datasetvariableid </text>
<text text-anchor="start" x="924.05" y="-1187.6" font-family="Arial" font-size="14.00" fill="#666666">[integer]</text>
<polygon fill="none" stroke="black" points="807.31,-1144.6 807.31,-1175.4 1127.11,-1175.4 1127.11,-1144.6 807.31,-1144.6"/>
<text text-anchor="start" x="814.31" y="-1156.8" font-family="Arial" font-size="14.00">recdatecreated </text>
<text text-anchor="start" x="911.59" y="-1156.8" font-family="Arial" font-size="14.00" fill="#666666">[timestamp(0) without time zone]</text>
<polygon fill="none" stroke="black" points="807.31,-1113.8 807.31,-1144.6 1127.11,-1144.6 1127.11,-1113.8 807.31,-1113.8"/>
<text text-anchor="start" x="814.31" y="-1126" font-family="Arial" font-size="14.00">recdatemodified </text>
<text text-anchor="start" x="917.81" y="-1126" font-family="Arial" font-size="14.00" fill="#666666">[timestamp(0) without time zone]</text>
<polygon fill="none" stroke="black" points="807.31,-1083 807.31,-1113.8 1127.11,-1113.8 1127.11,-1083 807.31,-1083"/>
<text text-anchor="start" x="814.31" y="-1095.2" font-family="Arial" font-size="14.00">variableid </text>
<text text-anchor="start" x="878.12" y="-1095.2" font-family="Arial" font-size="14.00" fill="#666666">[integer]</text>
</g>
<!-- ndb.datasetvariables&#45;&gt;ndb.variables -->
<g id="edge7" class="edge">
<title>ndb.datasetvariables:variableid&#45;&gt;ndb.variables:variableid</title>
<path fill="none" stroke="black" d="M1138.32,-1097.59C1187.26,-1089.02 1147.33,-1014.37 1179.21,-962.8 1269.71,-816.38 1270.18,-678.6 1442.31,-678.6"/>
<polygon fill="black" stroke="black" points="1138.41,-1097.58 1128.08,-1093.89 1133.09,-1098 1128.77,-1098.35 1128.77,-1098.35 1128.77,-1098.35 1133.09,-1098 1128.8,-1102.86 1138.41,-1097.58"/>
<text text-anchor="start" x="1135.11" y="-1108.4" font-family="Arial" font-size="10.00">FOREIGN KEY (variableid) REFERENCES ndb.variables(variableid) ON UPDATE CASCADE ON DELETE CASCADE</text>
</g>
<!-- ndb.isoinstrumentation -->
<g id="node9" class="node">
<title>ndb.isoinstrumentation</title>
<polygon fill="#efefef" stroke="none" points="1231.31,-1314 1231.31,-1349.6 1551.11,-1349.6 1551.11,-1314 1231.31,-1314"/>
<polygon fill="none" stroke="black" points="1231.31,-1314 1231.31,-1349.6 1551.11,-1349.6 1551.11,-1314 1231.31,-1314"/>
<text text-anchor="start" x="1246.22" y="-1327.4" font-family="Arial Bold" font-size="18.00">ndb.isoinstrumentation</text>
<text text-anchor="start" x="1411.71" y="-1327.4" font-family="Arial" font-size="14.00">    </text>
<text text-anchor="start" x="1442.83" y="-1327.4" font-family="Arial" font-size="14.00" fill="#666666">[BASE TABLE]</text>
<polygon fill="none" stroke="black" points="1231.31,-1283.2 1231.31,-1314 1551.11,-1314 1551.11,-1283.2 1231.31,-1283.2"/>
<text text-anchor="start" x="1238.31" y="-1295.4" font-family="Arial" font-size="14.00">datasetid </text>
<text text-anchor="start" x="1299.02" y="-1295.4" font-family="Arial" font-size="14.00" fill="#666666">[integer]</text>
<polygon fill="none" stroke="black" points="1231.31,-1252.4 1231.31,-1283.2 1551.11,-1283.2 1551.11,-1252.4 1231.31,-1252.4"/>
<text text-anchor="start" x="1238.31" y="-1264.6" font-family="Arial" font-size="14.00">insterrorlongtermpercent </text>
<text text-anchor="start" x="1394.71" y="-1264.6" font-family="Arial" font-size="14.00" fill="#666666">[double precision]</text>
<polygon fill="none" stroke="black" points="1231.31,-1221.6 1231.31,-1252.4 1551.11,-1252.4 1551.11,-1221.6 1231.31,-1221.6"/>
<text text-anchor="start" x="1238.31" y="-1233.8" font-family="Arial" font-size="14.00">insterrorpercent </text>
<text text-anchor="start" x="1340.24" y="-1233.8" font-family="Arial" font-size="14.00" fill="#666666">[double precision]</text>
<polygon fill="none" stroke="black" points="1231.31,-1190.8 1231.31,-1221.6 1551.11,-1221.6 1551.11,-1190.8 1231.31,-1190.8"/>
<text text-anchor="start" x="1238.31" y="-1203" font-family="Arial" font-size="14.00">insterrorrunsd </text>
<text text-anchor="start" x="1328.56" y="-1203" font-family="Arial" font-size="14.00" fill="#666666">[double precision]</text>
<polygon fill="none" stroke="black" points="1231.31,-1160 1231.31,-1190.8 1551.11,-1190.8 1551.11,-1160 1231.31,-1160"/>
<text text-anchor="start" x="1238.31" y="-1172.2" font-family="Arial" font-size="14.00">isoinstrumentationtypeid </text>
<text text-anchor="start" x="1393.17" y="-1172.2" font-family="Arial" font-size="14.00" fill="#666666">[integer]</text>
<polygon fill="none" stroke="black" points="1231.31,-1129.2 1231.31,-1160 1551.11,-1160 1551.11,-1129.2 1231.31,-1129.2"/>
<text text-anchor="start" x="1238.31" y="-1141.4" font-family="Arial" font-size="14.00">isosampleintrosystemtypeid </text>
<text text-anchor="start" x="1414.16" y="-1141.4" font-family="Arial" font-size="14.00" fill="#666666">[integer]</text>
<polygon fill="none" stroke="black" points="1231.31,-1098.4 1231.31,-1129.2 1551.11,-1129.2 1551.11,-1098.4 1231.31,-1098.4"/>
<text text-anchor="start" x="1238.31" y="-1110.6" font-family="Arial" font-size="14.00">notes </text>
<text text-anchor="start" x="1276.45" y="-1110.6" font-family="Arial" font-size="14.00" fill="#666666">[text]</text>
<polygon fill="none" stroke="black" points="1231.31,-1067.6 1231.31,-1098.4 1551.11,-1098.4 1551.11,-1067.6 1231.31,-1067.6"/>
<text text-anchor="start" x="1238.31" y="-1079.8" font-family="Arial" font-size="14.00">recdatecreated </text>
<text text-anchor="start" x="1335.59" y="-1079.8" font-family="Arial" font-size="14.00" fill="#666666">[timestamp(0) without time zone]</text>
<polygon fill="none" stroke="black" points="1231.31,-1036.8 1231.31,-1067.6 1551.11,-1067.6 1551.11,-1036.8 1231.31,-1036.8"/>
<text text-anchor="start" x="1238.31" y="-1049" font-family="Arial" font-size="14.00">recdatemodified </text>
<text text-anchor="start" x="1341.81" y="-1049" font-family="Arial" font-size="14.00" fill="#666666">[timestamp(0) without time zone]</text>
<polygon fill="none" stroke="black" points="1231.31,-1006 1231.31,-1036.8 1551.11,-1036.8 1551.11,-1006 1231.31,-1006"/>
<text text-anchor="start" x="1238.31" y="-1018.2" font-family="Arial" font-size="14.00">variableid </text>
<text text-anchor="start" x="1302.12" y="-1018.2" font-family="Arial" font-size="14.00" fill="#666666">[integer]</text>
</g>
<!-- ndb.isoinstrumentation&#45;&gt;ndb.variables -->
<g id="edge8" class="edge">
<title>ndb.isoinstrumentation:variableid&#45;&gt;ndb.variables:variableid</title>
<path fill="none" stroke="black" d="M1562.03,-1018.6C1574.23,-1009.51 1563.98,-980.36 1551.11,-962.8 1521.24,-922.07 1472.91,-967.73 1443.31,-926.8 1378.65,-837.42 1332,-678.6 1442.31,-678.6"/>
<polygon fill="black" stroke="black" points="1562.05,-1018.6 1551.21,-1016.98 1556.92,-1020.04 1552.75,-1021.22 1552.75,-1021.22 1552.75,-1021.22 1556.92,-1020.04 1553.65,-1025.64 1562.05,-1018.6"/>
<text text-anchor="start" x="1559.11" y="-1005.4" font-family="Arial" font-size="10.00">FOREIGN KEY (variableid) REFERENCES ndb.variables(variableid) ON UPDATE CASCADE ON DELETE CASCADE</text>
</g>
<!-- ndb.isosrmetadata -->
<g id="node10" class="node">
<title>ndb.isosrmetadata</title>
<polygon fill="#efefef" stroke="none" points="1655.31,-1252.4 1655.31,-1288 1975.11,-1288 1975.11,-1252.4 1655.31,-1252.4"/>
<polygon fill="none" stroke="black" points="1655.31,-1252.4 1655.31,-1288 1975.11,-1288 1975.11,-1252.4 1655.31,-1252.4"/>
<text text-anchor="start" x="1687.73" y="-1265.8" font-family="Arial Bold" font-size="18.00">ndb.isosrmetadata</text>
<text text-anchor="start" x="1818.2" y="-1265.8" font-family="Arial" font-size="14.00">    </text>
<text text-anchor="start" x="1849.31" y="-1265.8" font-family="Arial" font-size="14.00" fill="#666666">[BASE TABLE]</text>
<polygon fill="none" stroke="black" points="1655.31,-1221.6 1655.31,-1252.4 1975.11,-1252.4 1975.11,-1221.6 1655.31,-1221.6"/>
<text text-anchor="start" x="1662.31" y="-1233.8" font-family="Arial" font-size="14.00">datasetid </text>
<text text-anchor="start" x="1723.02" y="-1233.8" font-family="Arial" font-size="14.00" fill="#666666">[integer]</text>
<polygon fill="none" stroke="black" points="1655.31,-1190.8 1655.31,-1221.6 1975.11,-1221.6 1975.11,-1190.8 1655.31,-1190.8"/>
<text text-anchor="start" x="1662.31" y="-1203" font-family="Arial" font-size="14.00">recdatecreated </text>
<text text-anchor="start" x="1759.59" y="-1203" font-family="Arial" font-size="14.00" fill="#666666">[timestamp(0) without time zone]</text>
<polygon fill="none" stroke="black" points="1655.31,-1160 1655.31,-1190.8 1975.11,-1190.8 1975.11,-1160 1655.31,-1160"/>
<text text-anchor="start" x="1662.31" y="-1172.2" font-family="Arial" font-size="14.00">recdatemodified </text>
<text text-anchor="start" x="1765.81" y="-1172.2" font-family="Arial" font-size="14.00" fill="#666666">[timestamp(0) without time zone]</text>
<polygon fill="none" stroke="black" points="1655.31,-1129.2 1655.31,-1160 1975.11,-1160 1975.11,-1129.2 1655.31,-1129.2"/>
<text text-anchor="start" x="1662.31" y="-1141.4" font-family="Arial" font-size="14.00">srlocalgeolcontext </text>
<text text-anchor="start" x="1778.26" y="-1141.4" font-family="Arial" font-size="14.00" fill="#666666">[text]</text>
<polygon fill="none" stroke="black" points="1655.31,-1098.4 1655.31,-1129.2 1975.11,-1129.2 1975.11,-1098.4 1655.31,-1098.4"/>
<text text-anchor="start" x="1662.31" y="-1110.6" font-family="Arial" font-size="14.00">srlocalvalue </text>
<text text-anchor="start" x="1740.12" y="-1110.6" font-family="Arial" font-size="14.00" fill="#666666">[double precision]</text>
<polygon fill="none" stroke="black" points="1655.31,-1067.6 1655.31,-1098.4 1975.11,-1098.4 1975.11,-1067.6 1655.31,-1067.6"/>
<text text-anchor="start" x="1662.31" y="-1079.8" font-family="Arial" font-size="14.00">variableid </text>
<text text-anchor="start" x="1726.12" y="-1079.8" font-family="Arial" font-size="14.00" fill="#666666">[integer]</text>
</g>
<!-- ndb.isosrmetadata&#45;&gt;ndb.variables -->
<g id="edge9" class="edge">
<title>ndb.isosrmetadata:variableid&#45;&gt;ndb.variables:variableid</title>
<path fill="none" stroke="black" d="M1644.39,-1080.14C1633.69,-1071.34 1646.39,-1044.04 1655.31,-1024.4 1682.02,-965.55 1736.78,-985.83 1763.11,-926.8 1808.04,-826.05 1874.42,-678.6 1764.11,-678.6"/>
<polygon fill="black" stroke="black" points="1644.38,-1080.14 1652.74,-1087.23 1649.5,-1081.62 1653.67,-1082.81 1653.67,-1082.81 1653.67,-1082.81 1649.5,-1081.62 1655.23,-1078.58 1644.38,-1080.14"/>
<text text-anchor="start" x="1256.12" y="-1067" font-family="Arial" font-size="10.00">FOREIGN KEY (variableid) REFERENCES ndb.variables(variableid) ON UPDATE CASCADE ON DELETE CASCADE</text>
</g>
<!-- ndb.isostandards -->
<g id="node11" class="node">
<title>ndb.isostandards</title>
<polygon fill="#efefef" stroke="none" points="2079.31,-1252.4 2079.31,-1288 2399.11,-1288 2399.11,-1252.4 2079.31,-1252.4"/>
<polygon fill="none" stroke="black" points="2079.31,-1252.4 2079.31,-1288 2399.11,-1288 2399.11,-1252.4 2079.31,-1252.4"/>
<text text-anchor="start" x="2116.72" y="-1265.8" font-family="Arial Bold" font-size="18.00">ndb.isostandards</text>
<text text-anchor="start" x="2237.21" y="-1265.8" font-family="Arial" font-size="14.00">    </text>
<text text-anchor="start" x="2268.33" y="-1265.8" font-family="Arial" font-size="14.00" fill="#666666">[BASE TABLE]</text>
<polygon fill="none" stroke="black" points="2079.31,-1221.6 2079.31,-1252.4 2399.11,-1252.4 2399.11,-1221.6 2079.31,-1221.6"/>
<text text-anchor="start" x="2086.31" y="-1233.8" font-family="Arial" font-size="14.00">datasetid </text>
<text text-anchor="start" x="2147.02" y="-1233.8" font-family="Arial" font-size="14.00" fill="#666666">[integer]</text>
<polygon fill="none" stroke="black" points="2079.31,-1190.8 2079.31,-1221.6 2399.11,-1221.6 2399.11,-1190.8 2079.31,-1190.8"/>
<text text-anchor="start" x="2086.31" y="-1203" font-family="Arial" font-size="14.00">isostandardid </text>
<text text-anchor="start" x="2173.47" y="-1203" font-family="Arial" font-size="14.00" fill="#666666">[integer]</text>
<polygon fill="none" stroke="black" points="2079.31,-1160 2079.31,-1190.8 2399.11,-1190.8 2399.11,-1160 2079.31,-1160"/>
<text text-anchor="start" x="2086.31" y="-1172.2" font-family="Arial" font-size="14.00">recdatecreated </text>
<text text-anchor="start" x="2183.59" y="-1172.2" font-family="Arial" font-size="14.00" fill="#666666">[timestamp(0) without time zone]</text>
<polygon fill="none" stroke="black" points="2079.31,-1129.2 2079.31,-1160 2399.11,-1160 2399.11,-1129.2 2079.31,-1129.2"/>
<text text-anchor="start" x="2086.31" y="-1141.4" font-family="Arial" font-size="14.00">recdatemodified </text>
<text text-anchor="start" x="2189.81" y="-1141.4" font-family="Arial" font-size="14.00" fill="#666666">[timestamp(0) without time zone]</text>
<polygon fill="none" stroke="black" points="2079.31,-1098.4 2079.31,-1129.2 2399.11,-1129.2 2399.11,-1098.4 2079.31,-1098.4"/>
<text text-anchor="start" x="2086.31" y="-1110.6" font-family="Arial" font-size="14.00">value </text>
<text text-anchor="start" x="2123.67" y="-1110.6" font-family="Arial" font-size="14.00" fill="#666666">[double precision]</text>
<polygon fill="none" stroke="black" points="2079.31,-1067.6 2079.31,-1098.4 2399.11,-1098.4 2399.11,-1067.6 2079.31,-1067.6"/>
<text text-anchor="start" x="2086.31" y="-1079.8" font-family="Arial" font-size="14.00">variableid </text>
<text text-anchor="start" x="2150.12" y="-1079.8" font-family="Arial" font-size="14.00" fill="#666666">[integer]</text>
</g>
<!-- ndb.isostandards&#45;&gt;ndb.variables -->
<g id="edge10" class="edge">
<title>ndb.isostandards:variableid&#45;&gt;ndb.variables:variableid</title>
<path fill="none" stroke="black" d="M2067.97,-1082.08C2025.06,-1073.61 2056.65,-1008.3 2027.21,-962.8 1933.68,-818.3 1936.24,-678.6 1764.11,-678.6"/>
<polygon fill="black" stroke="black" points="2068.01,-1082.09 2077.58,-1087.45 2073.33,-1082.56 2077.64,-1082.94 2077.64,-1082.94 2077.64,-1082.94 2073.33,-1082.56 2078.37,-1078.49 2068.01,-1082.09"/>
<text text-anchor="start" x="2085.31" y="-1093" font-family="Arial" font-size="10.00">FOREIGN KEY (variableid) REFERENCES ndb.variables(variableid) ON UPDATE CASCADE ON DELETE CASCADE</text>
</g>
<!-- ndb.isovariablescaletypes -->
<g id="node12" class="node">
<title>ndb.isovariablescaletypes</title>
<polygon fill="#efefef" stroke="none" points="2503.74,-1221.6 2503.74,-1257.2 2826.67,-1257.2 2826.67,-1221.6 2503.74,-1221.6"/>
<polygon fill="none" stroke="black" points="2503.74,-1221.6 2503.74,-1257.2 2826.67,-1257.2 2826.67,-1221.6 2503.74,-1221.6"/>
<text text-anchor="start" x="2510.74" y="-1235" font-family="Arial Bold" font-size="18.00">ndb.isovariablescaletypes</text>
<text text-anchor="start" x="2695.18" y="-1235" font-family="Arial" font-size="14.00">    </text>
<text text-anchor="start" x="2726.3" y="-1235" font-family="Arial" font-size="14.00" fill="#666666">[BASE TABLE]</text>
<polygon fill="none" stroke="black" points="2503.74,-1190.8 2503.74,-1221.6 2826.67,-1221.6 2826.67,-1190.8 2503.74,-1190.8"/>
<text text-anchor="start" x="2510.74" y="-1203" font-family="Arial" font-size="14.00">isoscaletypeid </text>
<text text-anchor="start" x="2602.57" y="-1203" font-family="Arial" font-size="14.00" fill="#666666">[integer]</text>
<polygon fill="none" stroke="black" points="2503.74,-1160 2503.74,-1190.8 2826.67,-1190.8 2826.67,-1160 2503.74,-1160"/>
<text text-anchor="start" x="2510.74" y="-1172.2" font-family="Arial" font-size="14.00">recdatecreated </text>
<text text-anchor="start" x="2608.03" y="-1172.2" font-family="Arial" font-size="14.00" fill="#666666">[timestamp(0) without time zone]</text>
<polygon fill="none" stroke="black" points="2503.74,-1129.2 2503.74,-1160 2826.67,-1160 2826.67,-1129.2 2503.74,-1129.2"/>
<text text-anchor="start" x="2510.74" y="-1141.4" font-family="Arial" font-size="14.00">recdatemodified </text>
<text text-anchor="start" x="2614.25" y="-1141.4" font-family="Arial" font-size="14.00" fill="#666666">[timestamp(0) without time zone]</text>
<polygon fill="none" stroke="black" points="2503.74,-1098.4 2503.74,-1129.2 2826.67,-1129.2 2826.67,-1098.4 2503.74,-1098.4"/>
<text text-anchor="start" x="2510.74" y="-1110.6" font-family="Arial" font-size="14.00">variableid </text>
<text text-anchor="start" x="2574.56" y="-1110.6" font-family="Arial" font-size="14.00" fill="#666666">[integer]</text>
</g>
<!-- ndb.isovariablescaletypes&#45;&gt;ndb.variables -->
<g id="edge11" class="edge">
<title>ndb.isovariablescaletypes:variableid&#45;&gt;ndb.variables:variableid</title>
<path fill="none" stroke="black" d="M2492.65,-1112.99C2438.67,-1103.46 2497.18,-1011.78 2451.21,-962.8 2225.04,-721.85 2094.58,-678.6 1764.11,-678.6"/>
<polygon fill="black" stroke="black" points="2492.44,-1112.98 2502.05,-1118.26 2497.76,-1113.4 2502.08,-1113.75 2502.08,-1113.75 2502.08,-1113.75 2497.76,-1113.4 2502.77,-1109.29 2492.44,-1112.98"/>
<text text-anchor="start" x="2509.74" y="-1123.8" font-family="Arial" font-size="10.00">FOREIGN KEY (variableid) REFERENCES ndb.variables(variableid) ON UPDATE CASCADE ON DELETE CASCADE</text>
</g>
</g>
</svg>
