<?xml version="1.0" encoding="UTF-8" standalone="no"?>
<!DOCTYPE svg PUBLIC "-//W3C//DTD SVG 1.1//EN"
 "http://www.w3.org/Graphics/SVG/1.1/DTD/svg11.dtd">
<!-- Generated by graphviz version 12.1.2 (20240928.0832)
 -->
<!-- Title: ndb.specimensextypes Pages: 1 -->
<svg width="3454pt" height="1462pt"
 viewBox="0.00 0.00 3453.79 1462.40" xmlns="http://www.w3.org/2000/svg" xmlns:xlink="http://www.w3.org/1999/xlink">
<g id="graph0" class="graph" transform="scale(1 1) rotate(0) translate(4 1458.4)">
<title>ndb.specimensextypes</title>
<polygon fill="white" stroke="none" points="-4,4 -4,-1458.4 3449.79,-1458.4 3449.79,4 -4,4"/>
<!-- ndb.specimensextypes -->
<g id="node1" class="node">
<title>ndb.specimensextypes</title>
<polygon fill="#efefef" stroke="none" points="46.2,-197.2 46.2,-232.8 366,-232.8 366,-197.2 46.2,-197.2"/>
<polygon fill="none" stroke="black" points="46.2,-197.2 46.2,-232.8 366,-232.8 366,-197.2 46.2,-197.2"/>
<text text-anchor="start" x="63.12" y="-210.6" font-family="Arial Bold" font-size="18.00">ndb.specimensextypes</text>
<text text-anchor="start" x="224.59" y="-210.6" font-family="Arial" font-size="14.00">    </text>
<text text-anchor="start" x="255.7" y="-210.6" font-family="Arial" font-size="14.00" fill="#666666">[BASE TABLE]</text>
<polygon fill="none" stroke="black" points="46.2,-166.4 46.2,-197.2 366,-197.2 366,-166.4 46.2,-166.4"/>
<text text-anchor="start" x="53.2" y="-178.6" font-family="Arial" font-size="14.00">sexid </text>
<text text-anchor="start" x="89.77" y="-178.6" font-family="Arial" font-size="14.00" fill="#666666">[integer]</text>
<polygon fill="none" stroke="black" points="46.2,-135.6 46.2,-166.4 366,-166.4 366,-135.6 46.2,-135.6"/>
<text text-anchor="start" x="53.2" y="-147.8" font-family="Arial" font-size="14.00">sex </text>
<text text-anchor="start" x="78.88" y="-147.8" font-family="Arial" font-size="14.00" fill="#666666">[varchar(24)]</text>
<polygon fill="none" stroke="black" points="46.2,-104.8 46.2,-135.6 366,-135.6 366,-104.8 46.2,-104.8"/>
<text text-anchor="start" x="53.2" y="-117" font-family="Arial" font-size="14.00">recdatecreated </text>
<text text-anchor="start" x="150.48" y="-117" font-family="Arial" font-size="14.00" fill="#666666">[timestamp(0) without time zone]</text>
<polygon fill="none" stroke="black" points="46.2,-74 46.2,-104.8 366,-104.8 366,-74 46.2,-74"/>
<text text-anchor="start" x="53.2" y="-86.2" font-family="Arial" font-size="14.00">recdatemodified </text>
<text text-anchor="start" x="156.7" y="-86.2" font-family="Arial" font-size="14.00" fill="#666666">[timestamp(0) without time zone]</text>
<polygon fill="none" stroke="black" stroke-width="3" points="44.7,-72.5 44.7,-234.3 367.5,-234.3 367.5,-72.5 44.7,-72.5"/>
</g>
<!-- ndb.specimens -->
<g id="node2" class="node">
<title>ndb.specimens</title>
<polygon fill="#efefef" stroke="none" points="1533.2,-909.6 1533.2,-945.2 1853,-945.2 1853,-909.6 1533.2,-909.6"/>
<polygon fill="none" stroke="black" points="1533.2,-909.6 1533.2,-945.2 1853,-945.2 1853,-909.6 1533.2,-909.6"/>
<text text-anchor="start" x="1577.62" y="-923" font-family="Arial Bold" font-size="18.00">ndb.specimens</text>
<text text-anchor="start" x="1684.09" y="-923" font-family="Arial" font-size="14.00">    </text>
<text text-anchor="start" x="1715.21" y="-923" font-family="Arial" font-size="14.00" fill="#666666">[BASE TABLE]</text>
<polygon fill="none" stroke="black" points="1533.2,-878.8 1533.2,-909.6 1853,-909.6 1853,-878.8 1533.2,-878.8"/>
<text text-anchor="start" x="1540.2" y="-891" font-family="Arial" font-size="14.00">specimenid </text>
<text text-anchor="start" x="1614.9" y="-891" font-family="Arial" font-size="14.00" fill="#666666">[integer]</text>
<polygon fill="none" stroke="black" points="1533.2,-848 1533.2,-878.8 1853,-878.8 1853,-848 1533.2,-848"/>
<text text-anchor="start" x="1540.2" y="-860.2" font-family="Arial" font-size="14.00">dataid </text>
<text text-anchor="start" x="1582.23" y="-860.2" font-family="Arial" font-size="14.00" fill="#666666">[integer]</text>
<polygon fill="none" stroke="black" points="1533.2,-817.2 1533.2,-848 1853,-848 1853,-817.2 1533.2,-817.2"/>
<text text-anchor="start" x="1540.2" y="-829.4" font-family="Arial" font-size="14.00">elementtypeid </text>
<text text-anchor="start" x="1631.25" y="-829.4" font-family="Arial" font-size="14.00" fill="#666666">[integer]</text>
<polygon fill="none" stroke="black" points="1533.2,-786.4 1533.2,-817.2 1853,-817.2 1853,-786.4 1533.2,-786.4"/>
<text text-anchor="start" x="1540.2" y="-798.6" font-family="Arial" font-size="14.00">symmetryid </text>
<text text-anchor="start" x="1615.65" y="-798.6" font-family="Arial" font-size="14.00" fill="#666666">[integer]</text>
<polygon fill="none" stroke="black" points="1533.2,-755.6 1533.2,-786.4 1853,-786.4 1853,-755.6 1533.2,-755.6"/>
<text text-anchor="start" x="1540.2" y="-767.8" font-family="Arial" font-size="14.00">portionid </text>
<text text-anchor="start" x="1597.79" y="-767.8" font-family="Arial" font-size="14.00" fill="#666666">[integer]</text>
<polygon fill="none" stroke="black" points="1533.2,-724.8 1533.2,-755.6 1853,-755.6 1853,-724.8 1533.2,-724.8"/>
<text text-anchor="start" x="1540.2" y="-737" font-family="Arial" font-size="14.00">maturityid </text>
<text text-anchor="start" x="1604.77" y="-737" font-family="Arial" font-size="14.00" fill="#666666">[integer]</text>
<polygon fill="none" stroke="black" points="1533.2,-694 1533.2,-724.8 1853,-724.8 1853,-694 1533.2,-694"/>
<text text-anchor="start" x="1540.2" y="-706.2" font-family="Arial" font-size="14.00">sexid </text>
<text text-anchor="start" x="1576.77" y="-706.2" font-family="Arial" font-size="14.00" fill="#666666">[integer]</text>
<polygon fill="none" stroke="black" points="1533.2,-663.2 1533.2,-694 1853,-694 1853,-663.2 1533.2,-663.2"/>
<text text-anchor="start" x="1540.2" y="-675.4" font-family="Arial" font-size="14.00">domesticstatusid </text>
<text text-anchor="start" x="1648.36" y="-675.4" font-family="Arial" font-size="14.00" fill="#666666">[integer]</text>
<polygon fill="none" stroke="black" points="1533.2,-632.4 1533.2,-663.2 1853,-663.2 1853,-632.4 1533.2,-632.4"/>
<text text-anchor="start" x="1540.2" y="-644.6" font-family="Arial" font-size="14.00">preservative </text>
<text text-anchor="start" x="1620.34" y="-644.6" font-family="Arial" font-size="14.00" fill="#666666">[varchar(256)]</text>
<polygon fill="none" stroke="black" points="1533.2,-601.6 1533.2,-632.4 1853,-632.4 1853,-601.6 1533.2,-601.6"/>
<text text-anchor="start" x="1540.2" y="-613.8" font-family="Arial" font-size="14.00">nisp </text>
<text text-anchor="start" x="1569.77" y="-613.8" font-family="Arial" font-size="14.00" fill="#666666">[double precision]</text>
<polygon fill="none" stroke="black" points="1533.2,-570.8 1533.2,-601.6 1853,-601.6 1853,-570.8 1533.2,-570.8"/>
<text text-anchor="start" x="1540.2" y="-583" font-family="Arial" font-size="14.00">repositoryid </text>
<text text-anchor="start" x="1616.45" y="-583" font-family="Arial" font-size="14.00" fill="#666666">[integer]</text>
<polygon fill="none" stroke="black" points="1533.2,-540 1533.2,-570.8 1853,-570.8 1853,-540 1533.2,-540"/>
<text text-anchor="start" x="1540.2" y="-552.2" font-family="Arial" font-size="14.00">specimennr </text>
<text text-anchor="start" x="1616.45" y="-552.2" font-family="Arial" font-size="14.00" fill="#666666">[varchar(50)]</text>
<polygon fill="none" stroke="black" points="1533.2,-509.2 1533.2,-540 1853,-540 1853,-509.2 1533.2,-509.2"/>
<text text-anchor="start" x="1540.2" y="-521.4" font-family="Arial" font-size="14.00">fieldnr </text>
<text text-anchor="start" x="1582.22" y="-521.4" font-family="Arial" font-size="14.00" fill="#666666">[varchar(50)]</text>
<polygon fill="none" stroke="black" points="1533.2,-478.4 1533.2,-509.2 1853,-509.2 1853,-478.4 1533.2,-478.4"/>
<text text-anchor="start" x="1540.2" y="-490.6" font-family="Arial" font-size="14.00">arctosnr </text>
<text text-anchor="start" x="1594.66" y="-490.6" font-family="Arial" font-size="14.00" fill="#666666">[varchar(50)]</text>
<polygon fill="none" stroke="black" points="1533.2,-447.6 1533.2,-478.4 1853,-478.4 1853,-447.6 1533.2,-447.6"/>
<text text-anchor="start" x="1540.2" y="-459.8" font-family="Arial" font-size="14.00">notes </text>
<text text-anchor="start" x="1578.34" y="-459.8" font-family="Arial" font-size="14.00" fill="#666666">[text]</text>
<polygon fill="none" stroke="black" points="1533.2,-416.8 1533.2,-447.6 1853,-447.6 1853,-416.8 1533.2,-416.8"/>
<text text-anchor="start" x="1540.2" y="-429" font-family="Arial" font-size="14.00">recdatecreated </text>
<text text-anchor="start" x="1637.48" y="-429" font-family="Arial" font-size="14.00" fill="#666666">[timestamp(0) without time zone]</text>
<polygon fill="none" stroke="black" points="1533.2,-386 1533.2,-416.8 1853,-416.8 1853,-386 1533.2,-386"/>
<text text-anchor="start" x="1540.2" y="-398.2" font-family="Arial" font-size="14.00">recdatemodified </text>
<text text-anchor="start" x="1643.7" y="-398.2" font-family="Arial" font-size="14.00" fill="#666666">[timestamp(0) without time zone]</text>
</g>
<!-- ndb.specimens&#45;&gt;ndb.specimensextypes -->
<g id="edge1" class="edge">
<title>ndb.specimens:sexid&#45;&gt;ndb.specimensextypes:sexid</title>
<path fill="none" stroke="black" d="M1521.85,-709.39C1004.27,-708.82 801.1,-664.36 421.1,-306.8 377.01,-265.32 427.53,-181.8 367,-181.8"/>
<polygon fill="black" stroke="black" points="1521.87,-709.39 1531.86,-713.9 1527.2,-709.4 1531.53,-709.4 1531.53,-709.4 1531.53,-709.4 1527.2,-709.4 1531.87,-704.9 1521.87,-709.39"/>
<text text-anchor="start" x="995.62" y="-719.4" font-family="Arial" font-size="10.00">FOREIGN KEY (sexid) REFERENCES ndb.specimensextypes(sexid) ON UPDATE CASCADE ON DELETE CASCADE</text>
</g>
<!-- ndb.data -->
<g id="node7" class="node">
<title>ndb.data</title>
<polygon fill="#efefef" stroke="none" points="473.2,-228 473.2,-263.6 793,-263.6 793,-228 473.2,-228"/>
<polygon fill="none" stroke="black" points="473.2,-228 473.2,-263.6 793,-263.6 793,-228 473.2,-228"/>
<text text-anchor="start" x="540.12" y="-241.4" font-family="Arial Bold" font-size="18.00">ndb.data</text>
<text text-anchor="start" x="601.59" y="-241.4" font-family="Arial" font-size="14.00">    </text>
<text text-anchor="start" x="632.71" y="-241.4" font-family="Arial" font-size="14.00" fill="#666666">[BASE TABLE]</text>
<polygon fill="none" stroke="black" points="473.2,-197.2 473.2,-228 793,-228 793,-197.2 473.2,-197.2"/>
<text text-anchor="start" x="480.2" y="-209.4" font-family="Arial" font-size="14.00">dataid </text>
<text text-anchor="start" x="522.23" y="-209.4" font-family="Arial" font-size="14.00" fill="#666666">[integer]</text>
<polygon fill="none" stroke="black" points="473.2,-166.4 473.2,-197.2 793,-197.2 793,-166.4 473.2,-166.4"/>
<text text-anchor="start" x="480.2" y="-178.6" font-family="Arial" font-size="14.00">sampleid </text>
<text text-anchor="start" x="540.12" y="-178.6" font-family="Arial" font-size="14.00" fill="#666666">[integer]</text>
<polygon fill="none" stroke="black" points="473.2,-135.6 473.2,-166.4 793,-166.4 793,-135.6 473.2,-135.6"/>
<text text-anchor="start" x="480.2" y="-147.8" font-family="Arial" font-size="14.00">variableid </text>
<text text-anchor="start" x="544.01" y="-147.8" font-family="Arial" font-size="14.00" fill="#666666">[integer]</text>
<polygon fill="none" stroke="black" points="473.2,-104.8 473.2,-135.6 793,-135.6 793,-104.8 473.2,-104.8"/>
<text text-anchor="start" x="480.2" y="-117" font-family="Arial" font-size="14.00">value </text>
<text text-anchor="start" x="517.56" y="-117" font-family="Arial" font-size="14.00" fill="#666666">[double precision]</text>
<polygon fill="none" stroke="black" points="473.2,-74 473.2,-104.8 793,-104.8 793,-74 473.2,-74"/>
<text text-anchor="start" x="480.2" y="-86.2" font-family="Arial" font-size="14.00">recdatecreated </text>
<text text-anchor="start" x="577.48" y="-86.2" font-family="Arial" font-size="14.00" fill="#666666">[timestamp(0) without time zone]</text>
<polygon fill="none" stroke="black" points="473.2,-43.2 473.2,-74 793,-74 793,-43.2 473.2,-43.2"/>
<text text-anchor="start" x="480.2" y="-55.4" font-family="Arial" font-size="14.00">recdatemodified </text>
<text text-anchor="start" x="583.7" y="-55.4" font-family="Arial" font-size="14.00" fill="#666666">[timestamp(0) without time zone]</text>
</g>
<!-- ndb.specimens&#45;&gt;ndb.data -->
<g id="edge6" class="edge">
<title>ndb.specimens:dataid&#45;&gt;ndb.data:dataid</title>
<path fill="none" stroke="black" d="M1521.92,-863.34C1138.43,-858.92 1094.11,-606.37 845.1,-306.8 814.65,-270.17 841.63,-212.6 794,-212.6"/>
<polygon fill="black" stroke="black" points="1521.87,-863.34 1531.84,-867.9 1527.2,-863.37 1531.53,-863.4 1531.53,-863.4 1531.53,-863.4 1527.2,-863.37 1531.89,-858.9 1521.87,-863.34"/>
<text text-anchor="start" x="1050.62" y="-873.4" font-family="Arial" font-size="10.00">FOREIGN KEY (dataid) REFERENCES ndb.data(dataid) ON UPDATE CASCADE ON DELETE CASCADE</text>
</g>
<!-- ndb.elementtypes -->
<g id="node8" class="node">
<title>ndb.elementtypes</title>
<polygon fill="#efefef" stroke="none" points="897.2,-197.2 897.2,-232.8 1217,-232.8 1217,-197.2 897.2,-197.2"/>
<polygon fill="none" stroke="black" points="897.2,-197.2 897.2,-232.8 1217,-232.8 1217,-197.2 897.2,-197.2"/>
<text text-anchor="start" x="931.62" y="-210.6" font-family="Arial Bold" font-size="18.00">ndb.elementtypes</text>
<text text-anchor="start" x="1058.09" y="-210.6" font-family="Arial" font-size="14.00">    </text>
<text text-anchor="start" x="1089.2" y="-210.6" font-family="Arial" font-size="14.00" fill="#666666">[BASE TABLE]</text>
<polygon fill="none" stroke="black" points="897.2,-166.4 897.2,-197.2 1217,-197.2 1217,-166.4 897.2,-166.4"/>
<text text-anchor="start" x="904.2" y="-178.6" font-family="Arial" font-size="14.00">elementtypeid </text>
<text text-anchor="start" x="995.25" y="-178.6" font-family="Arial" font-size="14.00" fill="#666666">[integer]</text>
<polygon fill="none" stroke="black" points="897.2,-135.6 897.2,-166.4 1217,-166.4 1217,-135.6 897.2,-135.6"/>
<text text-anchor="start" x="904.2" y="-147.8" font-family="Arial" font-size="14.00">elementtype </text>
<text text-anchor="start" x="984.36" y="-147.8" font-family="Arial" font-size="14.00" fill="#666666">[varchar(64)]</text>
<polygon fill="none" stroke="black" points="897.2,-104.8 897.2,-135.6 1217,-135.6 1217,-104.8 897.2,-104.8"/>
<text text-anchor="start" x="904.2" y="-117" font-family="Arial" font-size="14.00">recdatecreated </text>
<text text-anchor="start" x="1001.48" y="-117" font-family="Arial" font-size="14.00" fill="#666666">[timestamp(0) without time zone]</text>
<polygon fill="none" stroke="black" points="897.2,-74 897.2,-104.8 1217,-104.8 1217,-74 897.2,-74"/>
<text text-anchor="start" x="904.2" y="-86.2" font-family="Arial" font-size="14.00">recdatemodified </text>
<text text-anchor="start" x="1007.7" y="-86.2" font-family="Arial" font-size="14.00" fill="#666666">[timestamp(0) without time zone]</text>
</g>
<!-- ndb.specimens&#45;&gt;ndb.elementtypes -->
<g id="edge7" class="edge">
<title>ndb.specimens:elementtypeid&#45;&gt;ndb.elementtypes:elementtypeid</title>
<path fill="none" stroke="black" d="M1522.06,-832.45C1273.65,-825.02 1375.66,-541.62 1269.1,-306.8 1244.3,-252.15 1278.02,-181.8 1218,-181.8"/>
<polygon fill="black" stroke="black" points="1521.87,-832.45 1531.8,-837.09 1527.2,-832.53 1531.53,-832.59 1531.53,-832.59 1531.53,-832.59 1527.2,-832.53 1531.93,-828.1 1521.87,-832.45"/>
<text text-anchor="start" x="940.57" y="-842.6" font-family="Arial" font-size="10.00">FOREIGN KEY (elementtypeid) REFERENCES ndb.elementtypes(elementtypeid) ON UPDATE CASCADE ON DELETE CASCADE</text>
</g>
<!-- ndb.elementsymmetries -->
<g id="node9" class="node">
<title>ndb.elementsymmetries</title>
<polygon fill="#efefef" stroke="none" points="1321.2,-197.2 1321.2,-232.8 1641,-232.8 1641,-197.2 1321.2,-197.2"/>
<polygon fill="none" stroke="black" points="1321.2,-197.2 1321.2,-232.8 1641,-232.8 1641,-197.2 1321.2,-197.2"/>
<text text-anchor="start" x="1333.13" y="-210.6" font-family="Arial Bold" font-size="18.00">ndb.elementsymmetries</text>
<text text-anchor="start" x="1504.58" y="-210.6" font-family="Arial" font-size="14.00">    </text>
<text text-anchor="start" x="1535.7" y="-210.6" font-family="Arial" font-size="14.00" fill="#666666">[BASE TABLE]</text>
<polygon fill="none" stroke="black" points="1321.2,-166.4 1321.2,-197.2 1641,-197.2 1641,-166.4 1321.2,-166.4"/>
<text text-anchor="start" x="1328.2" y="-178.6" font-family="Arial" font-size="14.00">symmetryid </text>
<text text-anchor="start" x="1403.65" y="-178.6" font-family="Arial" font-size="14.00" fill="#666666">[integer]</text>
<polygon fill="none" stroke="black" points="1321.2,-135.6 1321.2,-166.4 1641,-166.4 1641,-135.6 1321.2,-135.6"/>
<text text-anchor="start" x="1328.2" y="-147.8" font-family="Arial" font-size="14.00">symmetry </text>
<text text-anchor="start" x="1392.75" y="-147.8" font-family="Arial" font-size="14.00" fill="#666666">[varchar(24)]</text>
<polygon fill="none" stroke="black" points="1321.2,-104.8 1321.2,-135.6 1641,-135.6 1641,-104.8 1321.2,-104.8"/>
<text text-anchor="start" x="1328.2" y="-117" font-family="Arial" font-size="14.00">recdatecreated </text>
<text text-anchor="start" x="1425.48" y="-117" font-family="Arial" font-size="14.00" fill="#666666">[timestamp(0) without time zone]</text>
<polygon fill="none" stroke="black" points="1321.2,-74 1321.2,-104.8 1641,-104.8 1641,-74 1321.2,-74"/>
<text text-anchor="start" x="1328.2" y="-86.2" font-family="Arial" font-size="14.00">recdatemodified </text>
<text text-anchor="start" x="1431.7" y="-86.2" font-family="Arial" font-size="14.00" fill="#666666">[timestamp(0) without time zone]</text>
</g>
<!-- ndb.specimens&#45;&gt;ndb.elementsymmetries -->
<g id="edge8" class="edge">
<title>ndb.specimens:symmetryid&#45;&gt;ndb.elementsymmetries:symmetryid</title>
<path fill="none" stroke="black" d="M1522.01,-801.56C1331.81,-792.23 1435.47,-517.88 1533.2,-342.8 1560.67,-293.58 1613.32,-325.1 1641,-276 1661.56,-239.53 1683.87,-181.8 1642,-181.8"/>
<polygon fill="black" stroke="black" points="1521.87,-801.55 1531.76,-806.29 1527.2,-801.68 1531.53,-801.78 1531.53,-801.78 1531.53,-801.78 1527.2,-801.68 1531.97,-797.29 1521.87,-801.55"/>
<text text-anchor="start" x="1158.48" y="-811.8" font-family="Arial" font-size="10.00">FOREIGN KEY (symmetryid) REFERENCES ndb.elementsymmetries(symmetryid)</text>
</g>
<!-- ndb.elementportions -->
<g id="node10" class="node">
<title>ndb.elementportions</title>
<polygon fill="#efefef" stroke="none" points="1745.2,-197.2 1745.2,-232.8 2065,-232.8 2065,-197.2 1745.2,-197.2"/>
<polygon fill="none" stroke="black" points="1745.2,-197.2 1745.2,-232.8 2065,-232.8 2065,-197.2 1745.2,-197.2"/>
<text text-anchor="start" x="1769.12" y="-210.6" font-family="Arial Bold" font-size="18.00">ndb.elementportions</text>
<text text-anchor="start" x="1916.59" y="-210.6" font-family="Arial" font-size="14.00">    </text>
<text text-anchor="start" x="1947.71" y="-210.6" font-family="Arial" font-size="14.00" fill="#666666">[BASE TABLE]</text>
<polygon fill="none" stroke="black" points="1745.2,-166.4 1745.2,-197.2 2065,-197.2 2065,-166.4 1745.2,-166.4"/>
<text text-anchor="start" x="1752.2" y="-178.6" font-family="Arial" font-size="14.00">portionid </text>
<text text-anchor="start" x="1809.79" y="-178.6" font-family="Arial" font-size="14.00" fill="#666666">[integer]</text>
<polygon fill="none" stroke="black" points="1745.2,-135.6 1745.2,-166.4 2065,-166.4 2065,-135.6 1745.2,-135.6"/>
<text text-anchor="start" x="1752.2" y="-147.8" font-family="Arial" font-size="14.00">portion </text>
<text text-anchor="start" x="1798.9" y="-147.8" font-family="Arial" font-size="14.00" fill="#666666">[varchar(48)]</text>
<polygon fill="none" stroke="black" points="1745.2,-104.8 1745.2,-135.6 2065,-135.6 2065,-104.8 1745.2,-104.8"/>
<text text-anchor="start" x="1752.2" y="-117" font-family="Arial" font-size="14.00">recdatecreated </text>
<text text-anchor="start" x="1849.48" y="-117" font-family="Arial" font-size="14.00" fill="#666666">[timestamp(0) without time zone]</text>
<polygon fill="none" stroke="black" points="1745.2,-74 1745.2,-104.8 2065,-104.8 2065,-74 1745.2,-74"/>
<text text-anchor="start" x="1752.2" y="-86.2" font-family="Arial" font-size="14.00">recdatemodified </text>
<text text-anchor="start" x="1855.7" y="-86.2" font-family="Arial" font-size="14.00" fill="#666666">[timestamp(0) without time zone]</text>
</g>
<!-- ndb.specimens&#45;&gt;ndb.elementportions -->
<g id="edge9" class="edge">
<title>ndb.specimens:portionid&#45;&gt;ndb.elementportions:portionid</title>
<path fill="none" stroke="black" d="M1864.3,-770.73C2040.66,-761.31 1944.05,-505.89 1853,-342.8 1825.52,-293.59 1772.88,-325.1 1745.2,-276 1724.64,-239.53 1702.33,-181.8 1744.2,-181.8"/>
<polygon fill="black" stroke="black" points="1864.33,-770.73 1854.22,-766.49 1859,-770.87 1854.67,-770.98 1854.67,-770.98 1854.67,-770.98 1859,-770.87 1854.45,-775.49 1864.33,-770.73"/>
<text text-anchor="start" x="1861" y="-781" font-family="Arial" font-size="10.00">FOREIGN KEY (portionid) REFERENCES ndb.elementportions(portionid)</text>
</g>
<!-- ndb.elementmaturities -->
<g id="node11" class="node">
<title>ndb.elementmaturities</title>
<polygon fill="#efefef" stroke="none" points="2169.2,-197.2 2169.2,-232.8 2489,-232.8 2489,-197.2 2169.2,-197.2"/>
<polygon fill="none" stroke="black" points="2169.2,-197.2 2169.2,-232.8 2489,-232.8 2489,-197.2 2169.2,-197.2"/>
<text text-anchor="start" x="2186.63" y="-210.6" font-family="Arial Bold" font-size="18.00">ndb.elementmaturities</text>
<text text-anchor="start" x="2347.08" y="-210.6" font-family="Arial" font-size="14.00">    </text>
<text text-anchor="start" x="2378.2" y="-210.6" font-family="Arial" font-size="14.00" fill="#666666">[BASE TABLE]</text>
<polygon fill="none" stroke="black" points="2169.2,-166.4 2169.2,-197.2 2489,-197.2 2489,-166.4 2169.2,-166.4"/>
<text text-anchor="start" x="2176.2" y="-178.6" font-family="Arial" font-size="14.00">maturityid </text>
<text text-anchor="start" x="2240.77" y="-178.6" font-family="Arial" font-size="14.00" fill="#666666">[integer]</text>
<polygon fill="none" stroke="black" points="2169.2,-135.6 2169.2,-166.4 2489,-166.4 2489,-135.6 2169.2,-135.6"/>
<text text-anchor="start" x="2176.2" y="-147.8" font-family="Arial" font-size="14.00">maturity </text>
<text text-anchor="start" x="2229.88" y="-147.8" font-family="Arial" font-size="14.00" fill="#666666">[varchar(36)]</text>
<polygon fill="none" stroke="black" points="2169.2,-104.8 2169.2,-135.6 2489,-135.6 2489,-104.8 2169.2,-104.8"/>
<text text-anchor="start" x="2176.2" y="-117" font-family="Arial" font-size="14.00">recdatecreated </text>
<text text-anchor="start" x="2273.48" y="-117" font-family="Arial" font-size="14.00" fill="#666666">[timestamp(0) without time zone]</text>
<polygon fill="none" stroke="black" points="2169.2,-74 2169.2,-104.8 2489,-104.8 2489,-74 2169.2,-74"/>
<text text-anchor="start" x="2176.2" y="-86.2" font-family="Arial" font-size="14.00">recdatemodified </text>
<text text-anchor="start" x="2279.7" y="-86.2" font-family="Arial" font-size="14.00" fill="#666666">[timestamp(0) without time zone]</text>
</g>
<!-- ndb.specimens&#45;&gt;ndb.elementmaturities -->
<g id="edge10" class="edge">
<title>ndb.specimens:maturityid&#45;&gt;ndb.elementmaturities:maturityid</title>
<path fill="none" stroke="black" d="M1864.35,-740.03C2077.39,-732.95 2017.27,-504.88 2117.1,-306.8 2144.11,-253.2 2108.18,-181.8 2168.2,-181.8"/>
<polygon fill="black" stroke="black" points="1864.33,-740.03 1854.26,-735.7 1859,-740.12 1854.67,-740.19 1854.67,-740.19 1854.67,-740.19 1859,-740.12 1854.41,-744.69 1864.33,-740.03"/>
<text text-anchor="start" x="1861" y="-750.2" font-family="Arial" font-size="10.00">FOREIGN KEY (maturityid) REFERENCES ndb.elementmaturities(maturityid)</text>
</g>
<!-- ndb.specimendomesticstatustypes -->
<g id="node12" class="node">
<title>ndb.specimendomesticstatustypes</title>
<polygon fill="#efefef" stroke="none" points="2593.13,-197.2 2593.13,-232.8 2975.07,-232.8 2975.07,-197.2 2593.13,-197.2"/>
<polygon fill="none" stroke="black" points="2593.13,-197.2 2593.13,-232.8 2975.07,-232.8 2975.07,-197.2 2593.13,-197.2"/>
<text text-anchor="start" x="2600.13" y="-210.6" font-family="Arial Bold" font-size="18.00">ndb.specimendomesticstatustypes</text>
<text text-anchor="start" x="2843.58" y="-210.6" font-family="Arial" font-size="14.00">    </text>
<text text-anchor="start" x="2874.7" y="-210.6" font-family="Arial" font-size="14.00" fill="#666666">[BASE TABLE]</text>
<polygon fill="none" stroke="black" points="2593.13,-166.4 2593.13,-197.2 2975.07,-197.2 2975.07,-166.4 2593.13,-166.4"/>
<text text-anchor="start" x="2600.13" y="-178.6" font-family="Arial" font-size="14.00">domesticstatusid </text>
<text text-anchor="start" x="2708.28" y="-178.6" font-family="Arial" font-size="14.00" fill="#666666">[integer]</text>
<polygon fill="none" stroke="black" points="2593.13,-135.6 2593.13,-166.4 2975.07,-166.4 2975.07,-135.6 2593.13,-135.6"/>
<text text-anchor="start" x="2600.13" y="-147.8" font-family="Arial" font-size="14.00">domesticstatus </text>
<text text-anchor="start" x="2697.39" y="-147.8" font-family="Arial" font-size="14.00" fill="#666666">[varchar(24)]</text>
<polygon fill="none" stroke="black" points="2593.13,-104.8 2593.13,-135.6 2975.07,-135.6 2975.07,-104.8 2593.13,-104.8"/>
<text text-anchor="start" x="2600.13" y="-117" font-family="Arial" font-size="14.00">recdatecreated </text>
<text text-anchor="start" x="2697.41" y="-117" font-family="Arial" font-size="14.00" fill="#666666">[timestamp(0) without time zone]</text>
<polygon fill="none" stroke="black" points="2593.13,-74 2593.13,-104.8 2975.07,-104.8 2975.07,-74 2593.13,-74"/>
<text text-anchor="start" x="2600.13" y="-86.2" font-family="Arial" font-size="14.00">recdatemodified </text>
<text text-anchor="start" x="2703.63" y="-86.2" font-family="Arial" font-size="14.00" fill="#666666">[timestamp(0) without time zone]</text>
</g>
<!-- ndb.specimens&#45;&gt;ndb.specimendomesticstatustypes -->
<g id="edge11" class="edge">
<title>ndb.specimens:domesticstatusid&#45;&gt;ndb.specimendomesticstatustypes:domesticstatusid</title>
<path fill="none" stroke="black" d="M1864.35,-678.57C2203.39,-676.32 2311.56,-562.68 2541.1,-306.8 2581.17,-262.13 2532.12,-181.8 2592.13,-181.8"/>
<polygon fill="black" stroke="black" points="1864.33,-678.57 1854.32,-674.1 1859,-678.58 1854.67,-678.6 1854.67,-678.6 1854.67,-678.6 1859,-678.58 1854.35,-683.1 1864.33,-678.57"/>
<text text-anchor="start" x="1861" y="-688.6" font-family="Arial" font-size="10.00">FOREIGN KEY (domesticstatusid) REFERENCES ndb.specimendomesticstatustypes(domesticstatusid) ON UPDATE CASCADE ON DELETE CASCADE</text>
</g>
<!-- ndb.repositoryinstitutions -->
<g id="node13" class="node">
<title>ndb.repositoryinstitutions</title>
<polygon fill="#efefef" stroke="none" points="3079.6,-228 3079.6,-263.6 3402.59,-263.6 3402.59,-228 3079.6,-228"/>
<polygon fill="none" stroke="black" points="3079.6,-228 3079.6,-263.6 3402.59,-263.6 3402.59,-228 3079.6,-228"/>
<text text-anchor="start" x="3086.6" y="-241.4" font-family="Arial Bold" font-size="18.00">ndb.repositoryinstitutions</text>
<text text-anchor="start" x="3271.1" y="-241.4" font-family="Arial" font-size="14.00">    </text>
<text text-anchor="start" x="3302.22" y="-241.4" font-family="Arial" font-size="14.00" fill="#666666">[BASE TABLE]</text>
<polygon fill="none" stroke="black" points="3079.6,-197.2 3079.6,-228 3402.59,-228 3402.59,-197.2 3079.6,-197.2"/>
<text text-anchor="start" x="3086.6" y="-209.4" font-family="Arial" font-size="14.00">repositoryid </text>
<text text-anchor="start" x="3162.86" y="-209.4" font-family="Arial" font-size="14.00" fill="#666666">[integer]</text>
<polygon fill="none" stroke="black" points="3079.6,-166.4 3079.6,-197.2 3402.59,-197.2 3402.59,-166.4 3079.6,-166.4"/>
<text text-anchor="start" x="3086.6" y="-178.6" font-family="Arial" font-size="14.00">acronym </text>
<text text-anchor="start" x="3144.18" y="-178.6" font-family="Arial" font-size="14.00" fill="#666666">[varchar(64)]</text>
<polygon fill="none" stroke="black" points="3079.6,-135.6 3079.6,-166.4 3402.59,-166.4 3402.59,-135.6 3079.6,-135.6"/>
<text text-anchor="start" x="3086.6" y="-147.8" font-family="Arial" font-size="14.00">repository </text>
<text text-anchor="start" x="3151.96" y="-147.8" font-family="Arial" font-size="14.00" fill="#666666">[varchar(128)]</text>
<polygon fill="none" stroke="black" points="3079.6,-104.8 3079.6,-135.6 3402.59,-135.6 3402.59,-104.8 3079.6,-104.8"/>
<text text-anchor="start" x="3086.6" y="-117" font-family="Arial" font-size="14.00">notes </text>
<text text-anchor="start" x="3124.74" y="-117" font-family="Arial" font-size="14.00" fill="#666666">[text]</text>
<polygon fill="none" stroke="black" points="3079.6,-74 3079.6,-104.8 3402.59,-104.8 3402.59,-74 3079.6,-74"/>
<text text-anchor="start" x="3086.6" y="-86.2" font-family="Arial" font-size="14.00">recdatecreated </text>
<text text-anchor="start" x="3183.89" y="-86.2" font-family="Arial" font-size="14.00" fill="#666666">[timestamp(0) without time zone]</text>
<polygon fill="none" stroke="black" points="3079.6,-43.2 3079.6,-74 3402.59,-74 3402.59,-43.2 3079.6,-43.2"/>
<text text-anchor="start" x="3086.6" y="-55.4" font-family="Arial" font-size="14.00">recdatemodified </text>
<text text-anchor="start" x="3190.11" y="-55.4" font-family="Arial" font-size="14.00" fill="#666666">[timestamp(0) without time zone]</text>
</g>
<!-- ndb.specimens&#45;&gt;ndb.repositoryinstitutions -->
<g id="edge12" class="edge">
<title>ndb.specimens:repositoryid&#45;&gt;ndb.repositoryinstitutions:repositoryid</title>
<path fill="none" stroke="black" d="M1864.41,-586.14C2139.48,-583.23 2816.81,-467.37 3027.1,-306.8 3065.02,-277.84 3030.89,-212.6 3078.6,-212.6"/>
<polygon fill="black" stroke="black" points="1864.33,-586.14 1854.31,-581.7 1859,-586.17 1854.67,-586.2 1854.67,-586.2 1854.67,-586.2 1859,-586.17 1854.36,-590.7 1864.33,-586.14"/>
<text text-anchor="start" x="1861" y="-596.2" font-family="Arial" font-size="10.00">FOREIGN KEY (repositoryid) REFERENCES ndb.repositoryinstitutions(repositoryid) ON UPDATE CASCADE ON DELETE CASCADE</text>
</g>
<!-- ndb.isospecimendata -->
<g id="node3" class="node">
<title>ndb.isospecimendata</title>
<polygon fill="#efefef" stroke="none" points="902.2,-1314 902.2,-1349.6 1222,-1349.6 1222,-1314 902.2,-1314"/>
<polygon fill="none" stroke="black" points="902.2,-1314 902.2,-1349.6 1222,-1349.6 1222,-1314 902.2,-1314"/>
<text text-anchor="start" x="924.62" y="-1327.4" font-family="Arial Bold" font-size="18.00">ndb.isospecimendata</text>
<text text-anchor="start" x="1075.08" y="-1327.4" font-family="Arial" font-size="14.00">    </text>
<text text-anchor="start" x="1106.2" y="-1327.4" font-family="Arial" font-size="14.00" fill="#666666">[BASE TABLE]</text>
<polygon fill="none" stroke="black" points="902.2,-1283.2 902.2,-1314 1222,-1314 1222,-1283.2 902.2,-1283.2"/>
<text text-anchor="start" x="909.2" y="-1295.4" font-family="Arial" font-size="14.00">isospecimendataid </text>
<text text-anchor="start" x="1029.05" y="-1295.4" font-family="Arial" font-size="14.00" fill="#666666">[integer]</text>
<polygon fill="none" stroke="black" points="902.2,-1252.4 902.2,-1283.2 1222,-1283.2 1222,-1252.4 902.2,-1252.4"/>
<text text-anchor="start" x="909.2" y="-1264.6" font-family="Arial" font-size="14.00">dataid </text>
<text text-anchor="start" x="951.23" y="-1264.6" font-family="Arial" font-size="14.00" fill="#666666">[integer]</text>
<polygon fill="none" stroke="black" points="902.2,-1221.6 902.2,-1252.4 1222,-1252.4 1222,-1221.6 902.2,-1221.6"/>
<text text-anchor="start" x="909.2" y="-1233.8" font-family="Arial" font-size="14.00">specimenid </text>
<text text-anchor="start" x="983.9" y="-1233.8" font-family="Arial" font-size="14.00" fill="#666666">[integer]</text>
<polygon fill="none" stroke="black" points="902.2,-1190.8 902.2,-1221.6 1222,-1221.6 1222,-1190.8 902.2,-1190.8"/>
<text text-anchor="start" x="909.2" y="-1203" font-family="Arial" font-size="14.00">sd </text>
<text text-anchor="start" x="927.88" y="-1203" font-family="Arial" font-size="14.00" fill="#666666">[double precision]</text>
<polygon fill="none" stroke="black" points="902.2,-1160 902.2,-1190.8 1222,-1190.8 1222,-1160 902.2,-1160"/>
<text text-anchor="start" x="909.2" y="-1172.2" font-family="Arial" font-size="14.00">recdatecreated </text>
<text text-anchor="start" x="1006.48" y="-1172.2" font-family="Arial" font-size="14.00" fill="#666666">[timestamp(0) without time zone]</text>
<polygon fill="none" stroke="black" points="902.2,-1129.2 902.2,-1160 1222,-1160 1222,-1129.2 902.2,-1129.2"/>
<text text-anchor="start" x="909.2" y="-1141.4" font-family="Arial" font-size="14.00">recdatemodified </text>
<text text-anchor="start" x="1012.7" y="-1141.4" font-family="Arial" font-size="14.00" fill="#666666">[timestamp(0) without time zone]</text>
</g>
<!-- ndb.isospecimendata&#45;&gt;ndb.specimens -->
<g id="edge2" class="edge">
<title>ndb.isospecimendata:specimenid&#45;&gt;ndb.specimens:specimenid</title>
<path fill="none" stroke="black" d="M1233,-1236.45C1312.51,-1226.96 1216.01,-1097.76 1274.1,-1024.4 1353.86,-923.67 1403.72,-894.2 1532.2,-894.2"/>
<polygon fill="black" stroke="black" points="1233.32,-1236.43 1223.08,-1232.49 1227.99,-1236.72 1223.67,-1236.96 1223.67,-1236.96 1223.67,-1236.96 1227.99,-1236.72 1223.58,-1241.47 1233.32,-1236.43"/>
<text text-anchor="start" x="778.65" y="-1247" font-family="Arial" font-size="10.00">FOREIGN KEY (specimenid) REFERENCES ndb.specimens(specimenid) ON DELETE CASCADE</text>
</g>
<!-- ndb.specimendates -->
<g id="node4" class="node">
<title>ndb.specimendates</title>
<polygon fill="#efefef" stroke="none" points="1326.2,-1375.6 1326.2,-1411.2 1646,-1411.2 1646,-1375.6 1326.2,-1375.6"/>
<polygon fill="none" stroke="black" points="1326.2,-1375.6 1326.2,-1411.2 1646,-1411.2 1646,-1375.6 1326.2,-1375.6"/>
<text text-anchor="start" x="1355.63" y="-1389" font-family="Arial Bold" font-size="18.00">ndb.specimendates</text>
<text text-anchor="start" x="1492.08" y="-1389" font-family="Arial" font-size="14.00">    </text>
<text text-anchor="start" x="1523.2" y="-1389" font-family="Arial" font-size="14.00" fill="#666666">[BASE TABLE]</text>
<polygon fill="none" stroke="black" points="1326.2,-1344.8 1326.2,-1375.6 1646,-1375.6 1646,-1344.8 1326.2,-1344.8"/>
<text text-anchor="start" x="1333.2" y="-1357" font-family="Arial" font-size="14.00">specimendateid </text>
<text text-anchor="start" x="1435.15" y="-1357" font-family="Arial" font-size="14.00" fill="#666666">[integer]</text>
<polygon fill="none" stroke="black" points="1326.2,-1314 1326.2,-1344.8 1646,-1344.8 1646,-1314 1326.2,-1314"/>
<text text-anchor="start" x="1333.2" y="-1326.2" font-family="Arial" font-size="14.00">geochronid </text>
<text text-anchor="start" x="1406.37" y="-1326.2" font-family="Arial" font-size="14.00" fill="#666666">[integer]</text>
<polygon fill="none" stroke="black" points="1326.2,-1283.2 1326.2,-1314 1646,-1314 1646,-1283.2 1326.2,-1283.2"/>
<text text-anchor="start" x="1333.2" y="-1295.4" font-family="Arial" font-size="14.00">taxonid </text>
<text text-anchor="start" x="1382.23" y="-1295.4" font-family="Arial" font-size="14.00" fill="#666666">[integer]</text>
<polygon fill="none" stroke="black" points="1326.2,-1252.4 1326.2,-1283.2 1646,-1283.2 1646,-1252.4 1326.2,-1252.4"/>
<text text-anchor="start" x="1333.2" y="-1264.6" font-family="Arial" font-size="14.00">fractionid </text>
<text text-anchor="start" x="1393.9" y="-1264.6" font-family="Arial" font-size="14.00" fill="#666666">[integer]</text>
<polygon fill="none" stroke="black" points="1326.2,-1221.6 1326.2,-1252.4 1646,-1252.4 1646,-1221.6 1326.2,-1221.6"/>
<text text-anchor="start" x="1333.2" y="-1233.8" font-family="Arial" font-size="14.00">sampleid </text>
<text text-anchor="start" x="1393.12" y="-1233.8" font-family="Arial" font-size="14.00" fill="#666666">[integer]</text>
<polygon fill="none" stroke="black" points="1326.2,-1190.8 1326.2,-1221.6 1646,-1221.6 1646,-1190.8 1326.2,-1190.8"/>
<text text-anchor="start" x="1333.2" y="-1203" font-family="Arial" font-size="14.00">notes </text>
<text text-anchor="start" x="1371.34" y="-1203" font-family="Arial" font-size="14.00" fill="#666666">[text]</text>
<polygon fill="none" stroke="black" points="1326.2,-1160 1326.2,-1190.8 1646,-1190.8 1646,-1160 1326.2,-1160"/>
<text text-anchor="start" x="1333.2" y="-1172.2" font-family="Arial" font-size="14.00">elementtypeid </text>
<text text-anchor="start" x="1424.25" y="-1172.2" font-family="Arial" font-size="14.00" fill="#666666">[integer]</text>
<polygon fill="none" stroke="black" points="1326.2,-1129.2 1326.2,-1160 1646,-1160 1646,-1129.2 1326.2,-1129.2"/>
<text text-anchor="start" x="1333.2" y="-1141.4" font-family="Arial" font-size="14.00">recdatecreated </text>
<text text-anchor="start" x="1430.48" y="-1141.4" font-family="Arial" font-size="14.00" fill="#666666">[timestamp(0) without time zone]</text>
<polygon fill="none" stroke="black" points="1326.2,-1098.4 1326.2,-1129.2 1646,-1129.2 1646,-1098.4 1326.2,-1098.4"/>
<text text-anchor="start" x="1333.2" y="-1110.6" font-family="Arial" font-size="14.00">recdatemodified </text>
<text text-anchor="start" x="1436.7" y="-1110.6" font-family="Arial" font-size="14.00" fill="#666666">[timestamp(0) without time zone]</text>
<polygon fill="none" stroke="black" points="1326.2,-1067.6 1326.2,-1098.4 1646,-1098.4 1646,-1067.6 1326.2,-1067.6"/>
<text text-anchor="start" x="1333.2" y="-1079.8" font-family="Arial" font-size="14.00">specimenid </text>
<text text-anchor="start" x="1407.9" y="-1079.8" font-family="Arial" font-size="14.00" fill="#666666">[integer]</text>
</g>
<!-- ndb.specimendates&#45;&gt;ndb.specimens -->
<g id="edge3" class="edge">
<title>ndb.specimendates:specimenid&#45;&gt;ndb.specimens:specimenid</title>
<path fill="none" stroke="black" d="M1656.94,-1080.2C1669.16,-1071.08 1658.99,-1041.87 1646,-1024.4 1614.59,-982.17 1564.47,-1030.73 1533.2,-988.4 1508.32,-954.72 1490.33,-894.2 1532.2,-894.2"/>
<polygon fill="black" stroke="black" points="1656.95,-1080.19 1646.1,-1078.58 1651.81,-1081.64 1647.64,-1082.82 1647.64,-1082.82 1647.64,-1082.82 1651.81,-1081.64 1648.54,-1087.24 1656.95,-1080.19"/>
<text text-anchor="start" x="1654" y="-1093" font-family="Arial" font-size="10.00">FOREIGN KEY (specimenid) REFERENCES ndb.specimens(specimenid) ON UPDATE CASCADE ON DELETE CASCADE</text>
</g>
<!-- ndb.specimengenbank -->
<g id="node5" class="node">
<title>ndb.specimengenbank</title>
<polygon fill="#efefef" stroke="none" points="1750.63,-1252.4 1750.63,-1288 2049.57,-1288 2049.57,-1252.4 1750.63,-1252.4"/>
<polygon fill="none" stroke="black" points="1750.63,-1252.4 1750.63,-1288 2049.57,-1288 2049.57,-1252.4 1750.63,-1252.4"/>
<text text-anchor="start" x="1757.63" y="-1265.8" font-family="Arial Bold" font-size="18.00">ndb.specimengenbank</text>
<text text-anchor="start" x="1918.08" y="-1265.8" font-family="Arial" font-size="14.00">    </text>
<text text-anchor="start" x="1949.2" y="-1265.8" font-family="Arial" font-size="14.00" fill="#666666">[BASE TABLE]</text>
<polygon fill="none" stroke="black" points="1750.63,-1221.6 1750.63,-1252.4 2049.57,-1252.4 2049.57,-1221.6 1750.63,-1221.6"/>
<text text-anchor="start" x="1757.63" y="-1233.8" font-family="Arial" font-size="14.00">specimenid </text>
<text text-anchor="start" x="1832.33" y="-1233.8" font-family="Arial" font-size="14.00" fill="#666666">[integer]</text>
<polygon fill="none" stroke="black" points="1750.63,-1190.8 1750.63,-1221.6 2049.57,-1221.6 2049.57,-1190.8 1750.63,-1190.8"/>
<text text-anchor="start" x="1757.63" y="-1203" font-family="Arial" font-size="14.00">genbanknr </text>
<text text-anchor="start" x="1827.68" y="-1203" font-family="Arial" font-size="14.00" fill="#666666">[varchar(50)]</text>
</g>
<!-- ndb.specimengenbank&#45;&gt;ndb.specimens -->
<g id="edge4" class="edge">
<title>ndb.specimengenbank:specimenid&#45;&gt;ndb.specimens:specimenid</title>
<path fill="none" stroke="black" d="M1739.37,-1236.44C1609.87,-1221.12 2009.53,-894.2 1854,-894.2"/>
<polygon fill="black" stroke="black" points="1739.31,-1236.44 1749.05,-1241.48 1744.64,-1236.73 1748.96,-1236.96 1748.96,-1236.96 1748.96,-1236.96 1744.64,-1236.73 1749.54,-1232.49 1739.31,-1236.44"/>
<text text-anchor="start" x="1756.63" y="-1247" font-family="Arial" font-size="10.00">FOREIGN KEY (specimenid) REFERENCES ndb.specimens(specimenid) ON UPDATE CASCADE ON DELETE CASCADE</text>
</g>
<!-- ndb.specimentaphonomy -->
<g id="node6" class="node">
<title>ndb.specimentaphonomy</title>
<polygon fill="#efefef" stroke="none" points="2154.2,-1283.2 2154.2,-1318.8 2474,-1318.8 2474,-1283.2 2154.2,-1283.2"/>
<polygon fill="none" stroke="black" points="2154.2,-1283.2 2154.2,-1318.8 2474,-1318.8 2474,-1283.2 2154.2,-1283.2"/>
<text text-anchor="start" x="2161.62" y="-1296.6" font-family="Arial Bold" font-size="18.00">ndb.specimentaphonomy</text>
<text text-anchor="start" x="2342.09" y="-1296.6" font-family="Arial" font-size="14.00">    </text>
<text text-anchor="start" x="2373.2" y="-1296.6" font-family="Arial" font-size="14.00" fill="#666666">[BASE TABLE]</text>
<polygon fill="none" stroke="black" points="2154.2,-1252.4 2154.2,-1283.2 2474,-1283.2 2474,-1252.4 2154.2,-1252.4"/>
<text text-anchor="start" x="2161.2" y="-1264.6" font-family="Arial" font-size="14.00">specimenid </text>
<text text-anchor="start" x="2235.9" y="-1264.6" font-family="Arial" font-size="14.00" fill="#666666">[integer]</text>
<polygon fill="none" stroke="black" points="2154.2,-1221.6 2154.2,-1252.4 2474,-1252.4 2474,-1221.6 2154.2,-1221.6"/>
<text text-anchor="start" x="2161.2" y="-1233.8" font-family="Arial" font-size="14.00">taphonomictypeid </text>
<text text-anchor="start" x="2274.83" y="-1233.8" font-family="Arial" font-size="14.00" fill="#666666">[integer]</text>
<polygon fill="none" stroke="black" points="2154.2,-1190.8 2154.2,-1221.6 2474,-1221.6 2474,-1190.8 2154.2,-1190.8"/>
<text text-anchor="start" x="2161.2" y="-1203" font-family="Arial" font-size="14.00">recdatecreated </text>
<text text-anchor="start" x="2258.48" y="-1203" font-family="Arial" font-size="14.00" fill="#666666">[timestamp(0) without time zone]</text>
<polygon fill="none" stroke="black" points="2154.2,-1160 2154.2,-1190.8 2474,-1190.8 2474,-1160 2154.2,-1160"/>
<text text-anchor="start" x="2161.2" y="-1172.2" font-family="Arial" font-size="14.00">recdatemodified </text>
<text text-anchor="start" x="2264.7" y="-1172.2" font-family="Arial" font-size="14.00" fill="#666666">[timestamp(0) without time zone]</text>
</g>
<!-- ndb.specimentaphonomy&#45;&gt;ndb.specimens -->
<g id="edge5" class="edge">
<title>ndb.specimentaphonomy:specimenid&#45;&gt;ndb.specimens:specimenid</title>
<path fill="none" stroke="black" d="M2142.96,-1267.29C2050.82,-1257.57 2166.54,-1109.65 2102.1,-1024.4 2027.01,-925.06 1978.53,-894.2 1854,-894.2"/>
<polygon fill="black" stroke="black" points="2142.88,-1267.29 2152.64,-1272.28 2148.21,-1267.55 2152.53,-1267.77 2152.53,-1267.77 2152.53,-1267.77 2148.21,-1267.55 2153.09,-1263.29 2142.88,-1267.29"/>
<text text-anchor="start" x="2160.2" y="-1277.8" font-family="Arial" font-size="10.00">FOREIGN KEY (specimenid) REFERENCES ndb.specimens(specimenid) ON UPDATE CASCADE ON DELETE CASCADE</text>
</g>
</g>
</svg>
