<?xml version="1.0" encoding="UTF-8" standalone="no"?>
<!DOCTYPE svg PUBLIC "-//W3C//DTD SVG 1.1//EN"
 "http://www.w3.org/Graphics/SVG/1.1/DTD/svg11.dtd">
<!-- Generated by graphviz version 12.1.2 (20240928.0832)
 -->
<!-- Title: ndb.aggregateordertypes Pages: 1 -->
<svg width="1875pt" height="1099pt"
 viewBox="0.00 0.00 1875.08 1098.80" xmlns="http://www.w3.org/2000/svg" xmlns:xlink="http://www.w3.org/1999/xlink">
<g id="graph0" class="graph" transform="scale(1 1) rotate(0) translate(4 1094.8)">
<title>ndb.aggregateordertypes</title>
<polygon fill="white" stroke="none" points="-4,4 -4,-1094.8 1871.08,-1094.8 1871.08,4 -4,4"/>
<!-- ndb.aggregateordertypes -->
<g id="node1" class="node">
<title>ndb.aggregateordertypes</title>
<polygon fill="#efefef" stroke="none" points="773.36,-200.2 773.36,-235.8 1093.16,-235.8 1093.16,-200.2 773.36,-200.2"/>
<polygon fill="none" stroke="black" points="773.36,-200.2 773.36,-235.8 1093.16,-235.8 1093.16,-200.2 773.36,-200.2"/>
<text text-anchor="start" x="782.3" y="-213.6" font-family="Arial Bold" font-size="18.00">ndb.aggregateordertypes</text>
<text text-anchor="start" x="959.73" y="-213.6" font-family="Arial" font-size="14.00">    </text>
<text text-anchor="start" x="990.85" y="-213.6" font-family="Arial" font-size="14.00" fill="#666666">[BASE TABLE]</text>
<polygon fill="none" stroke="black" points="773.36,-169.4 773.36,-200.2 1093.16,-200.2 1093.16,-169.4 773.36,-169.4"/>
<text text-anchor="start" x="780.36" y="-181.6" font-family="Arial" font-size="14.00">aggregateordertypeid </text>
<text text-anchor="start" x="917.35" y="-181.6" font-family="Arial" font-size="14.00" fill="#666666">[integer]</text>
<polygon fill="none" stroke="black" points="773.36,-138.6 773.36,-169.4 1093.16,-169.4 1093.16,-138.6 773.36,-138.6"/>
<text text-anchor="start" x="780.36" y="-150.8" font-family="Arial" font-size="14.00">aggregateordertype </text>
<text text-anchor="start" x="906.45" y="-150.8" font-family="Arial" font-size="14.00" fill="#666666">[varchar(64)]</text>
<polygon fill="none" stroke="black" points="773.36,-107.8 773.36,-138.6 1093.16,-138.6 1093.16,-107.8 773.36,-107.8"/>
<text text-anchor="start" x="780.36" y="-120" font-family="Arial" font-size="14.00">notes </text>
<text text-anchor="start" x="818.5" y="-120" font-family="Arial" font-size="14.00" fill="#666666">[text]</text>
<polygon fill="none" stroke="black" points="773.36,-77 773.36,-107.8 1093.16,-107.8 1093.16,-77 773.36,-77"/>
<text text-anchor="start" x="780.36" y="-89.2" font-family="Arial" font-size="14.00">recdatecreated </text>
<text text-anchor="start" x="877.64" y="-89.2" font-family="Arial" font-size="14.00" fill="#666666">[timestamp(0) without time zone]</text>
<polygon fill="none" stroke="black" points="773.36,-46.2 773.36,-77 1093.16,-77 1093.16,-46.2 773.36,-46.2"/>
<text text-anchor="start" x="780.36" y="-58.4" font-family="Arial" font-size="14.00">recdatemodified </text>
<text text-anchor="start" x="883.86" y="-58.4" font-family="Arial" font-size="14.00" fill="#666666">[timestamp(0) without time zone]</text>
<polygon fill="none" stroke="black" stroke-width="3" points="771.86,-44.7 771.86,-237.3 1094.66,-237.3 1094.66,-44.7 771.86,-44.7"/>
</g>
<!-- ndb.aggregatedatasets -->
<g id="node2" class="node">
<title>ndb.aggregatedatasets</title>
<polygon fill="#efefef" stroke="none" points="773.36,-546 773.36,-581.6 1093.16,-581.6 1093.16,-546 773.36,-546"/>
<polygon fill="none" stroke="black" points="773.36,-546 773.36,-581.6 1093.16,-581.6 1093.16,-546 773.36,-546"/>
<text text-anchor="start" x="791.8" y="-559.4" font-family="Arial Bold" font-size="18.00">ndb.aggregatedatasets</text>
<text text-anchor="start" x="950.23" y="-559.4" font-family="Arial" font-size="14.00">    </text>
<text text-anchor="start" x="981.35" y="-559.4" font-family="Arial" font-size="14.00" fill="#666666">[BASE TABLE]</text>
<polygon fill="none" stroke="black" points="773.36,-515.2 773.36,-546 1093.16,-546 1093.16,-515.2 773.36,-515.2"/>
<text text-anchor="start" x="780.36" y="-527.4" font-family="Arial" font-size="14.00">aggregatedatasetid </text>
<text text-anchor="start" x="904.13" y="-527.4" font-family="Arial" font-size="14.00" fill="#666666">[integer]</text>
<polygon fill="none" stroke="black" points="773.36,-484.4 773.36,-515.2 1093.16,-515.2 1093.16,-484.4 773.36,-484.4"/>
<text text-anchor="start" x="780.36" y="-496.6" font-family="Arial" font-size="14.00">aggregatedatasetname </text>
<text text-anchor="start" x="928.25" y="-496.6" font-family="Arial" font-size="14.00" fill="#666666">[varchar(255)]</text>
<polygon fill="none" stroke="black" points="773.36,-453.6 773.36,-484.4 1093.16,-484.4 1093.16,-453.6 773.36,-453.6"/>
<text text-anchor="start" x="780.36" y="-465.8" font-family="Arial" font-size="14.00">aggregateordertypeid </text>
<text text-anchor="start" x="917.35" y="-465.8" font-family="Arial" font-size="14.00" fill="#666666">[integer]</text>
<polygon fill="none" stroke="black" points="773.36,-422.8 773.36,-453.6 1093.16,-453.6 1093.16,-422.8 773.36,-422.8"/>
<text text-anchor="start" x="780.36" y="-435" font-family="Arial" font-size="14.00">notes </text>
<text text-anchor="start" x="818.5" y="-435" font-family="Arial" font-size="14.00" fill="#666666">[text]</text>
<polygon fill="none" stroke="black" points="773.36,-392 773.36,-422.8 1093.16,-422.8 1093.16,-392 773.36,-392"/>
<text text-anchor="start" x="780.36" y="-404.2" font-family="Arial" font-size="14.00">recdatecreated </text>
<text text-anchor="start" x="877.64" y="-404.2" font-family="Arial" font-size="14.00" fill="#666666">[timestamp(0) without time zone]</text>
<polygon fill="none" stroke="black" points="773.36,-361.2 773.36,-392 1093.16,-392 1093.16,-361.2 773.36,-361.2"/>
<text text-anchor="start" x="780.36" y="-373.4" font-family="Arial" font-size="14.00">recdatemodified </text>
<text text-anchor="start" x="883.86" y="-373.4" font-family="Arial" font-size="14.00" fill="#666666">[timestamp(0) without time zone]</text>
</g>
<!-- ndb.aggregatedatasets&#45;&gt;ndb.aggregateordertypes -->
<g id="edge1" class="edge">
<title>ndb.aggregatedatasets:aggregateordertypeid&#45;&gt;ndb.aggregateordertypes:aggregateordertypeid</title>
<path fill="none" stroke="black" d="M1104.24,-468.37C1220.38,-453.67 1217.02,-184.8 1094.16,-184.8"/>
<polygon fill="black" stroke="black" points="1104.48,-468.36 1094.22,-464.49 1099.15,-468.69 1094.83,-468.96 1094.83,-468.96 1094.83,-468.96 1099.15,-468.69 1094.77,-473.47 1104.48,-468.36"/>
<text text-anchor="start" x="1101.16" y="-479" font-family="Arial" font-size="10.00">FOREIGN KEY (aggregateordertypeid) REFERENCES ndb.aggregateordertypes(aggregateordertypeid) ON UPDATE CASCADE ON DELETE CASCADE</text>
</g>
<!-- ndb.aggregatechronologies -->
<g id="node3" class="node">
<title>ndb.aggregatechronologies</title>
<polygon fill="#efefef" stroke="none" points="334.8,-1012 334.8,-1047.6 667.72,-1047.6 667.72,-1012 334.8,-1012"/>
<polygon fill="none" stroke="black" points="334.8,-1012 334.8,-1047.6 667.72,-1047.6 667.72,-1012 334.8,-1012"/>
<text text-anchor="start" x="341.8" y="-1025.4" font-family="Arial Bold" font-size="18.00">ndb.aggregatechronologies</text>
<text text-anchor="start" x="536.23" y="-1025.4" font-family="Arial" font-size="14.00">    </text>
<text text-anchor="start" x="567.35" y="-1025.4" font-family="Arial" font-size="14.00" fill="#666666">[BASE TABLE]</text>
<polygon fill="none" stroke="black" points="334.8,-981.2 334.8,-1012 667.72,-1012 667.72,-981.2 334.8,-981.2"/>
<text text-anchor="start" x="341.8" y="-993.4" font-family="Arial" font-size="14.00">aggregatechronid </text>
<text text-anchor="start" x="454.66" y="-993.4" font-family="Arial" font-size="14.00" fill="#666666">[integer]</text>
<polygon fill="none" stroke="black" points="334.8,-950.4 334.8,-981.2 667.72,-981.2 667.72,-950.4 334.8,-950.4"/>
<text text-anchor="start" x="341.8" y="-962.6" font-family="Arial" font-size="14.00">aggregatedatasetid </text>
<text text-anchor="start" x="465.57" y="-962.6" font-family="Arial" font-size="14.00" fill="#666666">[integer]</text>
<polygon fill="none" stroke="black" points="334.8,-919.6 334.8,-950.4 667.72,-950.4 667.72,-919.6 334.8,-919.6"/>
<text text-anchor="start" x="341.8" y="-931.8" font-family="Arial" font-size="14.00">agetypeid </text>
<text text-anchor="start" x="406.41" y="-931.8" font-family="Arial" font-size="14.00" fill="#666666">[integer]</text>
<polygon fill="none" stroke="black" points="334.8,-888.8 334.8,-919.6 667.72,-919.6 667.72,-888.8 334.8,-888.8"/>
<text text-anchor="start" x="341.8" y="-901" font-family="Arial" font-size="14.00">isdefault </text>
<text text-anchor="start" x="397.83" y="-901" font-family="Arial" font-size="14.00" fill="#666666">[boolean]</text>
<polygon fill="none" stroke="black" points="334.8,-858 334.8,-888.8 667.72,-888.8 667.72,-858 334.8,-858"/>
<text text-anchor="start" x="341.8" y="-870.2" font-family="Arial" font-size="14.00">chronologyname </text>
<text text-anchor="start" x="449.2" y="-870.2" font-family="Arial" font-size="14.00" fill="#666666">[varchar(80)]</text>
<polygon fill="none" stroke="black" points="334.8,-827.2 334.8,-858 667.72,-858 667.72,-827.2 334.8,-827.2"/>
<text text-anchor="start" x="341.8" y="-839.4" font-family="Arial" font-size="14.00">ageboundyounger </text>
<text text-anchor="start" x="458.57" y="-839.4" font-family="Arial" font-size="14.00" fill="#666666">[integer]</text>
<polygon fill="none" stroke="black" points="334.8,-796.4 334.8,-827.2 667.72,-827.2 667.72,-796.4 334.8,-796.4"/>
<text text-anchor="start" x="341.8" y="-808.6" font-family="Arial" font-size="14.00">ageboundolder </text>
<text text-anchor="start" x="439.11" y="-808.6" font-family="Arial" font-size="14.00" fill="#666666">[integer]</text>
<polygon fill="none" stroke="black" points="334.8,-765.6 334.8,-796.4 667.72,-796.4 667.72,-765.6 334.8,-765.6"/>
<text text-anchor="start" x="341.8" y="-777.8" font-family="Arial" font-size="14.00">notes </text>
<text text-anchor="start" x="379.94" y="-777.8" font-family="Arial" font-size="14.00" fill="#666666">[text]</text>
<polygon fill="none" stroke="black" points="334.8,-734.8 334.8,-765.6 667.72,-765.6 667.72,-734.8 334.8,-734.8"/>
<text text-anchor="start" x="341.8" y="-747" font-family="Arial" font-size="14.00">recdatecreated </text>
<text text-anchor="start" x="439.08" y="-747" font-family="Arial" font-size="14.00" fill="#666666">[timestamp(0) without time zone]</text>
<polygon fill="none" stroke="black" points="334.8,-704 334.8,-734.8 667.72,-734.8 667.72,-704 334.8,-704"/>
<text text-anchor="start" x="341.8" y="-716.2" font-family="Arial" font-size="14.00">recdatemodified </text>
<text text-anchor="start" x="445.3" y="-716.2" font-family="Arial" font-size="14.00" fill="#666666">[timestamp(0) without time zone]</text>
</g>
<!-- ndb.aggregatechronologies&#45;&gt;ndb.aggregatedatasets -->
<g id="edge2" class="edge">
<title>ndb.aggregatechronologies:aggregatedatasetid&#45;&gt;ndb.aggregatedatasets:aggregatedatasetid</title>
<path fill="none" stroke="black" d="M678.73,-963.87C733.69,-941.08 701.54,-723.42 719.26,-660.8 736.28,-600.67 709.87,-530.6 772.36,-530.6"/>
<polygon fill="black" stroke="black" points="678.87,-963.84 668.2,-961.32 673.63,-964.85 669.38,-965.67 669.38,-965.67 669.38,-965.67 673.63,-964.85 669.9,-970.16 678.87,-963.84"/>
<text text-anchor="start" x="7" y="-975.8" font-family="Arial" font-size="10.00">FOREIGN KEY (aggregatedatasetid) REFERENCES ndb.aggregatedatasets(aggregatedatasetid) ON UPDATE CASCADE ON DELETE CASCADE</text>
</g>
<!-- ndb.aggregatesampleages -->
<g id="node4" class="node">
<title>ndb.aggregatesampleages</title>
<polygon fill="#efefef" stroke="none" points="771.81,-935 771.81,-970.6 1094.72,-970.6 1094.72,-935 771.81,-935"/>
<polygon fill="none" stroke="black" points="771.81,-935 771.81,-970.6 1094.72,-970.6 1094.72,-935 771.81,-935"/>
<text text-anchor="start" x="778.81" y="-948.4" font-family="Arial Bold" font-size="18.00">ndb.aggregatesampleages</text>
<text text-anchor="start" x="963.23" y="-948.4" font-family="Arial" font-size="14.00">    </text>
<text text-anchor="start" x="994.34" y="-948.4" font-family="Arial" font-size="14.00" fill="#666666">[BASE TABLE]</text>
<polygon fill="none" stroke="black" points="771.81,-904.2 771.81,-935 1094.72,-935 1094.72,-904.2 771.81,-904.2"/>
<text text-anchor="start" x="778.81" y="-916.4" font-family="Arial" font-size="14.00">aggregatedatasetid </text>
<text text-anchor="start" x="902.57" y="-916.4" font-family="Arial" font-size="14.00" fill="#666666">[integer]</text>
<polygon fill="none" stroke="black" points="771.81,-873.4 771.81,-904.2 1094.72,-904.2 1094.72,-873.4 771.81,-873.4"/>
<text text-anchor="start" x="778.81" y="-885.6" font-family="Arial" font-size="14.00">aggregatechronid </text>
<text text-anchor="start" x="891.67" y="-885.6" font-family="Arial" font-size="14.00" fill="#666666">[integer]</text>
<polygon fill="none" stroke="black" points="771.81,-842.6 771.81,-873.4 1094.72,-873.4 1094.72,-842.6 771.81,-842.6"/>
<text text-anchor="start" x="778.81" y="-854.8" font-family="Arial" font-size="14.00">sampleageid </text>
<text text-anchor="start" x="862.08" y="-854.8" font-family="Arial" font-size="14.00" fill="#666666">[integer]</text>
<polygon fill="none" stroke="black" points="771.81,-811.8 771.81,-842.6 1094.72,-842.6 1094.72,-811.8 771.81,-811.8"/>
<text text-anchor="start" x="778.81" y="-824" font-family="Arial" font-size="14.00">recdatecreated </text>
<text text-anchor="start" x="876.09" y="-824" font-family="Arial" font-size="14.00" fill="#666666">[timestamp(0) without time zone]</text>
<polygon fill="none" stroke="black" points="771.81,-781 771.81,-811.8 1094.72,-811.8 1094.72,-781 771.81,-781"/>
<text text-anchor="start" x="778.81" y="-793.2" font-family="Arial" font-size="14.00">recdatemodified </text>
<text text-anchor="start" x="882.31" y="-793.2" font-family="Arial" font-size="14.00" fill="#666666">[timestamp(0) without time zone]</text>
</g>
<!-- ndb.aggregatesampleages&#45;&gt;ndb.aggregatedatasets -->
<g id="edge3" class="edge">
<title>ndb.aggregatesampleages:aggregatedatasetid&#45;&gt;ndb.aggregatedatasets:aggregatedatasetid</title>
<path fill="none" stroke="black" d="M1104.39,-913.8C1138.5,-865.41 1134.26,-530.6 1094.16,-530.6"/>
<polygon fill="black" stroke="black" points="1104.31,-913.85 1093.49,-915.67 1099.87,-916.82 1096.27,-919.23 1096.27,-919.23 1096.27,-919.23 1099.87,-916.82 1098.5,-923.15 1104.31,-913.85"/>
<text text-anchor="start" x="1102.72" y="-929.6" font-family="Arial" font-size="10.00">FOREIGN KEY (aggregatedatasetid) REFERENCES ndb.aggregatedatasets(aggregatedatasetid) ON UPDATE CASCADE ON DELETE CASCADE</text>
</g>
<!-- ndb.aggregatesamples -->
<g id="node5" class="node">
<title>ndb.aggregatesamples</title>
<polygon fill="#efefef" stroke="none" points="1199.36,-919.6 1199.36,-955.2 1519.16,-955.2 1519.16,-919.6 1199.36,-919.6"/>
<polygon fill="none" stroke="black" points="1199.36,-919.6 1199.36,-955.2 1519.16,-955.2 1519.16,-919.6 1199.36,-919.6"/>
<text text-anchor="start" x="1217.3" y="-933" font-family="Arial Bold" font-size="18.00">ndb.aggregatesamples</text>
<text text-anchor="start" x="1376.74" y="-933" font-family="Arial" font-size="14.00">    </text>
<text text-anchor="start" x="1407.85" y="-933" font-family="Arial" font-size="14.00" fill="#666666">[BASE TABLE]</text>
<polygon fill="none" stroke="black" points="1199.36,-888.8 1199.36,-919.6 1519.16,-919.6 1519.16,-888.8 1199.36,-888.8"/>
<text text-anchor="start" x="1206.36" y="-901" font-family="Arial" font-size="14.00">aggregatedatasetid </text>
<text text-anchor="start" x="1330.13" y="-901" font-family="Arial" font-size="14.00" fill="#666666">[integer]</text>
<polygon fill="none" stroke="black" points="1199.36,-858 1199.36,-888.8 1519.16,-888.8 1519.16,-858 1199.36,-858"/>
<text text-anchor="start" x="1206.36" y="-870.2" font-family="Arial" font-size="14.00">sampleid </text>
<text text-anchor="start" x="1266.28" y="-870.2" font-family="Arial" font-size="14.00" fill="#666666">[integer]</text>
<polygon fill="none" stroke="black" points="1199.36,-827.2 1199.36,-858 1519.16,-858 1519.16,-827.2 1199.36,-827.2"/>
<text text-anchor="start" x="1206.36" y="-839.4" font-family="Arial" font-size="14.00">recdatecreated </text>
<text text-anchor="start" x="1303.64" y="-839.4" font-family="Arial" font-size="14.00" fill="#666666">[timestamp(0) without time zone]</text>
<polygon fill="none" stroke="black" points="1199.36,-796.4 1199.36,-827.2 1519.16,-827.2 1519.16,-796.4 1199.36,-796.4"/>
<text text-anchor="start" x="1206.36" y="-808.6" font-family="Arial" font-size="14.00">recdatemodified </text>
<text text-anchor="start" x="1309.86" y="-808.6" font-family="Arial" font-size="14.00" fill="#666666">[timestamp(0) without time zone]</text>
</g>
<!-- ndb.aggregatesamples&#45;&gt;ndb.aggregatedatasets -->
<g id="edge4" class="edge">
<title>ndb.aggregatesamples:aggregatedatasetid&#45;&gt;ndb.aggregatedatasets:aggregatedatasetid</title>
<path fill="none" stroke="black" d="M1188.32,-901.78C1145.63,-879.5 1162.37,-710.14 1147.26,-660.8 1128.97,-601.04 1156.65,-530.6 1094.16,-530.6"/>
<polygon fill="black" stroke="black" points="1188.32,-901.77 1196.98,-908.5 1193.5,-903.03 1197.71,-904.04 1197.71,-904.04 1197.71,-904.04 1193.5,-903.03 1199.09,-899.75 1188.32,-901.77"/>
<text text-anchor="start" x="1205.36" y="-888.2" font-family="Arial" font-size="10.00">FOREIGN KEY (aggregatedatasetid) REFERENCES ndb.aggregatedatasets(aggregatedatasetid) ON UPDATE CASCADE ON DELETE CASCADE</text>
</g>
</g>
</svg>
