<?xml version="1.0" encoding="UTF-8" standalone="no"?>
<!DOCTYPE svg PUBLIC "-//W3C//DTD SVG 1.1//EN"
 "http://www.w3.org/Graphics/SVG/1.1/DTD/svg11.dtd">
<!-- Generated by graphviz version 12.1.2 (20240928.0832)
 -->
<!-- Title: ndb.speleothementitystatuses Pages: 1 -->
<svg width="1101pt" height="627pt"
 viewBox="0.00 0.00 1100.53 626.80" xmlns="http://www.w3.org/2000/svg" xmlns:xlink="http://www.w3.org/1999/xlink">
<g id="graph0" class="graph" transform="scale(1 1) rotate(0) translate(4 622.8)">
<title>ndb.speleothementitystatuses</title>
<polygon fill="white" stroke="none" points="-4,4 -4,-622.8 1096.53,-622.8 1096.53,4 -4,4"/>
<!-- ndb.speleothementitystatuses -->
<g id="node1" class="node">
<title>ndb.speleothementitystatuses</title>
<polygon fill="#efefef" stroke="none" points="46.2,-197.2 46.2,-232.8 395.15,-232.8 395.15,-197.2 46.2,-197.2"/>
<polygon fill="none" stroke="black" points="46.2,-197.2 46.2,-232.8 395.15,-232.8 395.15,-197.2 46.2,-197.2"/>
<text text-anchor="start" x="53.2" y="-210.6" font-family="Arial Bold" font-size="18.00">ndb.speleothementitystatuses</text>
<text text-anchor="start" x="263.66" y="-210.6" font-family="Arial" font-size="14.00">    </text>
<text text-anchor="start" x="294.78" y="-210.6" font-family="Arial" font-size="14.00" fill="#666666">[BASE TABLE]</text>
<polygon fill="none" stroke="black" points="46.2,-166.4 46.2,-197.2 395.15,-197.2 395.15,-166.4 46.2,-166.4"/>
<text text-anchor="start" x="53.2" y="-178.6" font-family="Arial" font-size="14.00">entitystatusid </text>
<text text-anchor="start" x="138.8" y="-178.6" font-family="Arial" font-size="14.00" fill="#666666">[integer]</text>
<polygon fill="none" stroke="black" points="46.2,-135.6 46.2,-166.4 395.15,-166.4 395.15,-135.6 46.2,-135.6"/>
<text text-anchor="start" x="53.2" y="-147.8" font-family="Arial" font-size="14.00">entitystatus </text>
<text text-anchor="start" x="127.9" y="-147.8" font-family="Arial" font-size="14.00" fill="#666666">[text]</text>
<polygon fill="none" stroke="black" stroke-width="3" points="44.7,-134.1 44.7,-234.3 396.65,-234.3 396.65,-134.1 44.7,-134.1"/>
</g>
<!-- ndb.entityrelationship -->
<g id="node2" class="node">
<title>ndb.entityrelationship</title>
<polygon fill="#efefef" stroke="none" points="483.69,-540 483.69,-575.6 779.66,-575.6 779.66,-540 483.69,-540"/>
<polygon fill="none" stroke="black" points="483.69,-540 483.69,-575.6 779.66,-575.6 779.66,-540 483.69,-540"/>
<text text-anchor="start" x="490.69" y="-553.4" font-family="Arial Bold" font-size="18.00">ndb.entityrelationship</text>
<text text-anchor="start" x="648.17" y="-553.4" font-family="Arial" font-size="14.00">    </text>
<text text-anchor="start" x="679.29" y="-553.4" font-family="Arial" font-size="14.00" fill="#666666">[BASE TABLE]</text>
<polygon fill="none" stroke="black" points="483.69,-509.2 483.69,-540 779.66,-540 779.66,-509.2 483.69,-509.2"/>
<text text-anchor="start" x="490.69" y="-521.4" font-family="Arial" font-size="14.00">entityid </text>
<text text-anchor="start" x="538.94" y="-521.4" font-family="Arial" font-size="14.00" fill="#666666">[integer]</text>
<polygon fill="none" stroke="black" points="483.69,-478.4 483.69,-509.2 779.66,-509.2 779.66,-478.4 483.69,-478.4"/>
<text text-anchor="start" x="490.69" y="-490.6" font-family="Arial" font-size="14.00">entitystatusid </text>
<text text-anchor="start" x="576.29" y="-490.6" font-family="Arial" font-size="14.00" fill="#666666">[integer]</text>
<polygon fill="none" stroke="black" points="483.69,-447.6 483.69,-478.4 779.66,-478.4 779.66,-447.6 483.69,-447.6"/>
<text text-anchor="start" x="490.69" y="-459.8" font-family="Arial" font-size="14.00">referenceentityid </text>
<text text-anchor="start" x="598.09" y="-459.8" font-family="Arial" font-size="14.00" fill="#666666">[integer]</text>
</g>
<!-- ndb.entityrelationship&#45;&gt;ndb.speleothementitystatuses -->
<g id="edge1" class="edge">
<title>ndb.entityrelationship:entitystatusid&#45;&gt;ndb.speleothementitystatuses:entitystatusid</title>
<path fill="none" stroke="black" d="M472.7,-491.47C416.24,-462.92 464.45,-181.8 396.15,-181.8"/>
<polygon fill="black" stroke="black" points="472.63,-491.45 481.35,-498.11 477.83,-492.66 482.04,-493.65 482.04,-493.65 482.04,-493.65 477.83,-492.66 483.39,-489.34 472.63,-491.45"/>
<text text-anchor="start" x="68.32" y="-503.8" font-family="Arial" font-size="10.00">FOREIGN KEY (entitystatusid) REFERENCES ndb.speleothementitystatuses(entitystatusid)</text>
</g>
<!-- ndb.speleothems -->
<g id="node3" class="node">
<title>ndb.speleothems</title>
<polygon fill="#efefef" stroke="none" points="502.19,-289.6 502.19,-325.2 761.16,-325.2 761.16,-289.6 502.19,-289.6"/>
<polygon fill="none" stroke="black" points="502.19,-289.6 502.19,-325.2 761.16,-325.2 761.16,-289.6 502.19,-289.6"/>
<text text-anchor="start" x="509.19" y="-303" font-family="Arial Bold" font-size="18.00">ndb.speleothems</text>
<text text-anchor="start" x="629.67" y="-303" font-family="Arial" font-size="14.00">    </text>
<text text-anchor="start" x="660.79" y="-303" font-family="Arial" font-size="14.00" fill="#666666">[BASE TABLE]</text>
<polygon fill="none" stroke="black" points="502.19,-258.8 502.19,-289.6 761.16,-289.6 761.16,-258.8 502.19,-258.8"/>
<text text-anchor="start" x="509.19" y="-271" font-family="Arial" font-size="14.00">siteid </text>
<text text-anchor="start" x="545.76" y="-271" font-family="Arial" font-size="14.00" fill="#666666">[integer]</text>
<polygon fill="none" stroke="black" points="502.19,-228 502.19,-258.8 761.16,-258.8 761.16,-228 502.19,-228"/>
<text text-anchor="start" x="509.19" y="-240.2" font-family="Arial" font-size="14.00">entityid </text>
<text text-anchor="start" x="557.44" y="-240.2" font-family="Arial" font-size="14.00" fill="#666666">[integer]</text>
<polygon fill="none" stroke="black" points="502.19,-197.2 502.19,-228 761.16,-228 761.16,-197.2 502.19,-197.2"/>
<text text-anchor="start" x="509.19" y="-209.4" font-family="Arial" font-size="14.00">entityname </text>
<text text-anchor="start" x="581.56" y="-209.4" font-family="Arial" font-size="14.00" fill="#666666">[text]</text>
<polygon fill="none" stroke="black" points="502.19,-166.4 502.19,-197.2 761.16,-197.2 761.16,-166.4 502.19,-166.4"/>
<text text-anchor="start" x="509.19" y="-178.6" font-family="Arial" font-size="14.00">monitoring </text>
<text text-anchor="start" x="578.45" y="-178.6" font-family="Arial" font-size="14.00" fill="#666666">[boolean]</text>
<polygon fill="none" stroke="black" points="502.19,-135.6 502.19,-166.4 761.16,-166.4 761.16,-135.6 502.19,-135.6"/>
<text text-anchor="start" x="509.19" y="-147.8" font-family="Arial" font-size="14.00">rockageid </text>
<text text-anchor="start" x="573.78" y="-147.8" font-family="Arial" font-size="14.00" fill="#666666">[integer]</text>
<polygon fill="none" stroke="black" points="502.19,-104.8 502.19,-135.6 761.16,-135.6 761.16,-104.8 502.19,-104.8"/>
<text text-anchor="start" x="509.19" y="-117" font-family="Arial" font-size="14.00">entrancedistance </text>
<text text-anchor="start" x="619.71" y="-117" font-family="Arial" font-size="14.00" fill="#666666">[real]</text>
<polygon fill="none" stroke="black" points="502.19,-74 502.19,-104.8 761.16,-104.8 761.16,-74 502.19,-74"/>
<text text-anchor="start" x="509.19" y="-86.2" font-family="Arial" font-size="14.00">entrancedistanceunits </text>
<text text-anchor="start" x="649.28" y="-86.2" font-family="Arial" font-size="14.00" fill="#666666">[integer]</text>
<polygon fill="none" stroke="black" points="502.19,-43.2 502.19,-74 761.16,-74 761.16,-43.2 502.19,-43.2"/>
<text text-anchor="start" x="509.19" y="-55.4" font-family="Arial" font-size="14.00">speleothemtypeid </text>
<text text-anchor="start" x="622.82" y="-55.4" font-family="Arial" font-size="14.00" fill="#666666">[integer]</text>
</g>
<!-- ndb.entityrelationship&#45;&gt;ndb.speleothems -->
<g id="edge2" class="edge">
<title>ndb.entityrelationship:entityid&#45;&gt;ndb.speleothems:entityid</title>
<path fill="none" stroke="black" d="M790.52,-522C841.04,-493.65 821.24,-243.4 762.16,-243.4"/>
<polygon fill="black" stroke="black" points="790.65,-521.96 779.83,-520.16 785.49,-523.32 781.3,-524.43 781.3,-524.43 781.3,-524.43 785.49,-523.32 782.13,-528.87 790.65,-521.96"/>
<text text-anchor="start" x="787.66" y="-534.6" font-family="Arial" font-size="10.00">FOREIGN KEY (entityid) REFERENCES ndb.speleothems(entityid)</text>
</g>
<!-- ndb.entityrelationship&#45;&gt;ndb.speleothems -->
<g id="edge3" class="edge">
<title>ndb.entityrelationship:referenceentityid&#45;&gt;ndb.speleothems:entityid</title>
<path fill="none" stroke="black" d="M632.57,-436.24C642.37,-384.41 729.77,-423.51 761.16,-368.4 788.66,-320.12 817.72,-243.4 762.16,-243.4"/>
<polygon fill="black" stroke="black" points="632.57,-436.3 627.22,-445.88 632.11,-441.62 631.73,-445.93 631.73,-445.93 631.73,-445.93 632.11,-441.62 636.19,-446.65 632.57,-436.3"/>
<text text-anchor="start" x="284.55" y="-456.6" font-family="Arial" font-size="10.00">FOREIGN KEY (referenceentityid) REFERENCES ndb.speleothems(entityid)</text>
</g>
</g>
</svg>
