<?xml version="1.0" encoding="UTF-8" standalone="no"?>
<!DOCTYPE svg PUBLIC "-//W3C//DTD SVG 1.1//EN"
 "http://www.w3.org/Graphics/SVG/1.1/DTD/svg11.dtd">
<!-- Generated by graphviz version 12.1.2 (20240928.0832)
 -->
<!-- Title: ndb.aggregatesampleages Pages: 1 -->
<svg width="2152pt" height="1626pt"
 viewBox="0.00 0.00 2151.79 1626.40" xmlns="http://www.w3.org/2000/svg" xmlns:xlink="http://www.w3.org/1999/xlink">
<g id="graph0" class="graph" transform="scale(1 1) rotate(0) translate(4 1622.4)">
<title>ndb.aggregatesampleages</title>
<polygon fill="white" stroke="none" points="-4,4 -4,-1622.4 2147.79,-1622.4 2147.79,4 -4,4"/>
<!-- ndb.aggregatesampleages -->
<g id="node1" class="node">
<title>ndb.aggregatesampleages</title>
<polygon fill="#efefef" stroke="none" points="805.7,-1536.6 805.7,-1572.2 1128.61,-1572.2 1128.61,-1536.6 805.7,-1536.6"/>
<polygon fill="none" stroke="black" points="805.7,-1536.6 805.7,-1572.2 1128.61,-1572.2 1128.61,-1536.6 805.7,-1536.6"/>
<text text-anchor="start" x="812.7" y="-1550" font-family="Arial Bold" font-size="18.00">ndb.aggregatesampleages</text>
<text text-anchor="start" x="997.12" y="-1550" font-family="Arial" font-size="14.00">    </text>
<text text-anchor="start" x="1028.24" y="-1550" font-family="Arial" font-size="14.00" fill="#666666">[BASE TABLE]</text>
<polygon fill="none" stroke="black" points="805.7,-1505.8 805.7,-1536.6 1128.61,-1536.6 1128.61,-1505.8 805.7,-1505.8"/>
<text text-anchor="start" x="812.7" y="-1518" font-family="Arial" font-size="14.00">aggregatedatasetid </text>
<text text-anchor="start" x="936.46" y="-1518" font-family="Arial" font-size="14.00" fill="#666666">[integer]</text>
<polygon fill="none" stroke="black" points="805.7,-1475 805.7,-1505.8 1128.61,-1505.8 1128.61,-1475 805.7,-1475"/>
<text text-anchor="start" x="812.7" y="-1487.2" font-family="Arial" font-size="14.00">aggregatechronid </text>
<text text-anchor="start" x="925.56" y="-1487.2" font-family="Arial" font-size="14.00" fill="#666666">[integer]</text>
<polygon fill="none" stroke="black" points="805.7,-1444.2 805.7,-1475 1128.61,-1475 1128.61,-1444.2 805.7,-1444.2"/>
<text text-anchor="start" x="812.7" y="-1456.4" font-family="Arial" font-size="14.00">sampleageid </text>
<text text-anchor="start" x="895.97" y="-1456.4" font-family="Arial" font-size="14.00" fill="#666666">[integer]</text>
<polygon fill="none" stroke="black" points="805.7,-1413.4 805.7,-1444.2 1128.61,-1444.2 1128.61,-1413.4 805.7,-1413.4"/>
<text text-anchor="start" x="812.7" y="-1425.6" font-family="Arial" font-size="14.00">recdatecreated </text>
<text text-anchor="start" x="909.98" y="-1425.6" font-family="Arial" font-size="14.00" fill="#666666">[timestamp(0) without time zone]</text>
<polygon fill="none" stroke="black" points="805.7,-1382.6 805.7,-1413.4 1128.61,-1413.4 1128.61,-1382.6 805.7,-1382.6"/>
<text text-anchor="start" x="812.7" y="-1394.8" font-family="Arial" font-size="14.00">recdatemodified </text>
<text text-anchor="start" x="916.2" y="-1394.8" font-family="Arial" font-size="14.00" fill="#666666">[timestamp(0) without time zone]</text>
<polygon fill="none" stroke="black" stroke-width="3" points="804.2,-1381.1 804.2,-1573.7 1130.11,-1573.7 1130.11,-1381.1 804.2,-1381.1"/>
</g>
<!-- ndb.aggregatedatasets -->
<g id="node2" class="node">
<title>ndb.aggregatedatasets</title>
<polygon fill="#efefef" stroke="none" points="376.25,-647.8 376.25,-683.4 696.05,-683.4 696.05,-647.8 376.25,-647.8"/>
<polygon fill="none" stroke="black" points="376.25,-647.8 376.25,-683.4 696.05,-683.4 696.05,-647.8 376.25,-647.8"/>
<text text-anchor="start" x="394.69" y="-661.2" font-family="Arial Bold" font-size="18.00">ndb.aggregatedatasets</text>
<text text-anchor="start" x="553.12" y="-661.2" font-family="Arial" font-size="14.00">    </text>
<text text-anchor="start" x="584.24" y="-661.2" font-family="Arial" font-size="14.00" fill="#666666">[BASE TABLE]</text>
<polygon fill="none" stroke="black" points="376.25,-617 376.25,-647.8 696.05,-647.8 696.05,-617 376.25,-617"/>
<text text-anchor="start" x="383.25" y="-629.2" font-family="Arial" font-size="14.00">aggregatedatasetid </text>
<text text-anchor="start" x="507.02" y="-629.2" font-family="Arial" font-size="14.00" fill="#666666">[integer]</text>
<polygon fill="none" stroke="black" points="376.25,-586.2 376.25,-617 696.05,-617 696.05,-586.2 376.25,-586.2"/>
<text text-anchor="start" x="383.25" y="-598.4" font-family="Arial" font-size="14.00">aggregatedatasetname </text>
<text text-anchor="start" x="531.14" y="-598.4" font-family="Arial" font-size="14.00" fill="#666666">[varchar(255)]</text>
<polygon fill="none" stroke="black" points="376.25,-555.4 376.25,-586.2 696.05,-586.2 696.05,-555.4 376.25,-555.4"/>
<text text-anchor="start" x="383.25" y="-567.6" font-family="Arial" font-size="14.00">aggregateordertypeid </text>
<text text-anchor="start" x="520.24" y="-567.6" font-family="Arial" font-size="14.00" fill="#666666">[integer]</text>
<polygon fill="none" stroke="black" points="376.25,-524.6 376.25,-555.4 696.05,-555.4 696.05,-524.6 376.25,-524.6"/>
<text text-anchor="start" x="383.25" y="-536.8" font-family="Arial" font-size="14.00">notes </text>
<text text-anchor="start" x="421.39" y="-536.8" font-family="Arial" font-size="14.00" fill="#666666">[text]</text>
<polygon fill="none" stroke="black" points="376.25,-493.8 376.25,-524.6 696.05,-524.6 696.05,-493.8 376.25,-493.8"/>
<text text-anchor="start" x="383.25" y="-506" font-family="Arial" font-size="14.00">recdatecreated </text>
<text text-anchor="start" x="480.54" y="-506" font-family="Arial" font-size="14.00" fill="#666666">[timestamp(0) without time zone]</text>
<polygon fill="none" stroke="black" points="376.25,-463 376.25,-493.8 696.05,-493.8 696.05,-463 376.25,-463"/>
<text text-anchor="start" x="383.25" y="-475.2" font-family="Arial" font-size="14.00">recdatemodified </text>
<text text-anchor="start" x="486.76" y="-475.2" font-family="Arial" font-size="14.00" fill="#666666">[timestamp(0) without time zone]</text>
</g>
<!-- ndb.aggregatesampleages&#45;&gt;ndb.aggregatedatasets -->
<g id="edge1" class="edge">
<title>ndb.aggregatesampleages:aggregatedatasetid&#45;&gt;ndb.aggregatedatasets:aggregatedatasetid</title>
<path fill="none" stroke="black" d="M794.44,-1521.18C566.18,-1520.49 449.14,-1495.38 324.15,-1300.4 243.81,-1175.06 226.37,-632.4 375.25,-632.4"/>
<polygon fill="black" stroke="black" points="794.36,-1521.18 804.36,-1525.7 799.7,-1521.19 804.03,-1521.2 804.03,-1521.2 804.03,-1521.2 799.7,-1521.19 804.37,-1516.7 794.36,-1521.18"/>
<text text-anchor="start" x="142.98" y="-1531.2" font-family="Arial" font-size="10.00">FOREIGN KEY (aggregatedatasetid) REFERENCES ndb.aggregatedatasets(aggregatedatasetid) ON UPDATE CASCADE ON DELETE CASCADE</text>
</g>
<!-- ndb.aggregatechronologies -->
<g id="node3" class="node">
<title>ndb.aggregatechronologies</title>
<polygon fill="#efefef" stroke="none" points="800.69,-1221.6 800.69,-1257.2 1133.61,-1257.2 1133.61,-1221.6 800.69,-1221.6"/>
<polygon fill="none" stroke="black" points="800.69,-1221.6 800.69,-1257.2 1133.61,-1257.2 1133.61,-1221.6 800.69,-1221.6"/>
<text text-anchor="start" x="807.69" y="-1235" font-family="Arial Bold" font-size="18.00">ndb.aggregatechronologies</text>
<text text-anchor="start" x="1002.12" y="-1235" font-family="Arial" font-size="14.00">    </text>
<text text-anchor="start" x="1033.24" y="-1235" font-family="Arial" font-size="14.00" fill="#666666">[BASE TABLE]</text>
<polygon fill="none" stroke="black" points="800.69,-1190.8 800.69,-1221.6 1133.61,-1221.6 1133.61,-1190.8 800.69,-1190.8"/>
<text text-anchor="start" x="807.69" y="-1203" font-family="Arial" font-size="14.00">aggregatechronid </text>
<text text-anchor="start" x="920.55" y="-1203" font-family="Arial" font-size="14.00" fill="#666666">[integer]</text>
<polygon fill="none" stroke="black" points="800.69,-1160 800.69,-1190.8 1133.61,-1190.8 1133.61,-1160 800.69,-1160"/>
<text text-anchor="start" x="807.69" y="-1172.2" font-family="Arial" font-size="14.00">aggregatedatasetid </text>
<text text-anchor="start" x="931.46" y="-1172.2" font-family="Arial" font-size="14.00" fill="#666666">[integer]</text>
<polygon fill="none" stroke="black" points="800.69,-1129.2 800.69,-1160 1133.61,-1160 1133.61,-1129.2 800.69,-1129.2"/>
<text text-anchor="start" x="807.69" y="-1141.4" font-family="Arial" font-size="14.00">agetypeid </text>
<text text-anchor="start" x="872.3" y="-1141.4" font-family="Arial" font-size="14.00" fill="#666666">[integer]</text>
<polygon fill="none" stroke="black" points="800.69,-1098.4 800.69,-1129.2 1133.61,-1129.2 1133.61,-1098.4 800.69,-1098.4"/>
<text text-anchor="start" x="807.69" y="-1110.6" font-family="Arial" font-size="14.00">isdefault </text>
<text text-anchor="start" x="863.73" y="-1110.6" font-family="Arial" font-size="14.00" fill="#666666">[boolean]</text>
<polygon fill="none" stroke="black" points="800.69,-1067.6 800.69,-1098.4 1133.61,-1098.4 1133.61,-1067.6 800.69,-1067.6"/>
<text text-anchor="start" x="807.69" y="-1079.8" font-family="Arial" font-size="14.00">chronologyname </text>
<text text-anchor="start" x="915.09" y="-1079.8" font-family="Arial" font-size="14.00" fill="#666666">[varchar(80)]</text>
<polygon fill="none" stroke="black" points="800.69,-1036.8 800.69,-1067.6 1133.61,-1067.6 1133.61,-1036.8 800.69,-1036.8"/>
<text text-anchor="start" x="807.69" y="-1049" font-family="Arial" font-size="14.00">ageboundyounger </text>
<text text-anchor="start" x="924.46" y="-1049" font-family="Arial" font-size="14.00" fill="#666666">[integer]</text>
<polygon fill="none" stroke="black" points="800.69,-1006 800.69,-1036.8 1133.61,-1036.8 1133.61,-1006 800.69,-1006"/>
<text text-anchor="start" x="807.69" y="-1018.2" font-family="Arial" font-size="14.00">ageboundolder </text>
<text text-anchor="start" x="905" y="-1018.2" font-family="Arial" font-size="14.00" fill="#666666">[integer]</text>
<polygon fill="none" stroke="black" points="800.69,-975.2 800.69,-1006 1133.61,-1006 1133.61,-975.2 800.69,-975.2"/>
<text text-anchor="start" x="807.69" y="-987.4" font-family="Arial" font-size="14.00">notes </text>
<text text-anchor="start" x="845.83" y="-987.4" font-family="Arial" font-size="14.00" fill="#666666">[text]</text>
<polygon fill="none" stroke="black" points="800.69,-944.4 800.69,-975.2 1133.61,-975.2 1133.61,-944.4 800.69,-944.4"/>
<text text-anchor="start" x="807.69" y="-956.6" font-family="Arial" font-size="14.00">recdatecreated </text>
<text text-anchor="start" x="904.97" y="-956.6" font-family="Arial" font-size="14.00" fill="#666666">[timestamp(0) without time zone]</text>
<polygon fill="none" stroke="black" points="800.69,-913.6 800.69,-944.4 1133.61,-944.4 1133.61,-913.6 800.69,-913.6"/>
<text text-anchor="start" x="807.69" y="-925.8" font-family="Arial" font-size="14.00">recdatemodified </text>
<text text-anchor="start" x="911.19" y="-925.8" font-family="Arial" font-size="14.00" fill="#666666">[timestamp(0) without time zone]</text>
</g>
<!-- ndb.aggregatesampleages&#45;&gt;ndb.aggregatechronologies -->
<g id="edge5" class="edge">
<title>ndb.aggregatesampleages:aggregatechronid&#45;&gt;ndb.aggregatechronologies:aggregatechronid</title>
<path fill="none" stroke="black" d="M1139.45,-1487.94C1193.12,-1460.17 1194.32,-1206.2 1134.61,-1206.2"/>
<polygon fill="black" stroke="black" points="1139.63,-1487.9 1128.84,-1485.95 1134.46,-1489.19 1130.26,-1490.24 1130.26,-1490.24 1130.26,-1490.24 1134.46,-1489.19 1131.02,-1494.68 1139.63,-1487.9"/>
<text text-anchor="start" x="1136.61" y="-1500.4" font-family="Arial" font-size="10.00">FOREIGN KEY (aggregatechronid) REFERENCES ndb.aggregatechronologies(aggregatechronid)</text>
</g>
<!-- ndb.sampleages -->
<g id="node7" class="node">
<title>ndb.sampleages</title>
<polygon fill="#efefef" stroke="none" points="1238.25,-1190.8 1238.25,-1226.4 1558.05,-1226.4 1558.05,-1190.8 1238.25,-1190.8"/>
<polygon fill="none" stroke="black" points="1238.25,-1190.8 1238.25,-1226.4 1558.05,-1226.4 1558.05,-1190.8 1238.25,-1190.8"/>
<text text-anchor="start" x="1278.67" y="-1204.2" font-family="Arial Bold" font-size="18.00">ndb.sampleages</text>
<text text-anchor="start" x="1393.14" y="-1204.2" font-family="Arial" font-size="14.00">    </text>
<text text-anchor="start" x="1424.26" y="-1204.2" font-family="Arial" font-size="14.00" fill="#666666">[BASE TABLE]</text>
<polygon fill="none" stroke="black" points="1238.25,-1160 1238.25,-1190.8 1558.05,-1190.8 1558.05,-1160 1238.25,-1160"/>
<text text-anchor="start" x="1245.25" y="-1172.2" font-family="Arial" font-size="14.00">sampleageid </text>
<text text-anchor="start" x="1328.53" y="-1172.2" font-family="Arial" font-size="14.00" fill="#666666">[integer]</text>
<polygon fill="none" stroke="black" points="1238.25,-1129.2 1238.25,-1160 1558.05,-1160 1558.05,-1129.2 1238.25,-1129.2"/>
<text text-anchor="start" x="1245.25" y="-1141.4" font-family="Arial" font-size="14.00">sampleid </text>
<text text-anchor="start" x="1305.17" y="-1141.4" font-family="Arial" font-size="14.00" fill="#666666">[integer]</text>
<polygon fill="none" stroke="black" points="1238.25,-1098.4 1238.25,-1129.2 1558.05,-1129.2 1558.05,-1098.4 1238.25,-1098.4"/>
<text text-anchor="start" x="1245.25" y="-1110.6" font-family="Arial" font-size="14.00">chronologyid </text>
<text text-anchor="start" x="1328.53" y="-1110.6" font-family="Arial" font-size="14.00" fill="#666666">[integer]</text>
<polygon fill="none" stroke="black" points="1238.25,-1067.6 1238.25,-1098.4 1558.05,-1098.4 1558.05,-1067.6 1238.25,-1067.6"/>
<text text-anchor="start" x="1245.25" y="-1079.8" font-family="Arial" font-size="14.00">age </text>
<text text-anchor="start" x="1272.5" y="-1079.8" font-family="Arial" font-size="14.00" fill="#666666">[double precision]</text>
<polygon fill="none" stroke="black" points="1238.25,-1036.8 1238.25,-1067.6 1558.05,-1067.6 1558.05,-1036.8 1238.25,-1036.8"/>
<text text-anchor="start" x="1245.25" y="-1049" font-family="Arial" font-size="14.00">ageyounger </text>
<text text-anchor="start" x="1323.09" y="-1049" font-family="Arial" font-size="14.00" fill="#666666">[double precision]</text>
<polygon fill="none" stroke="black" points="1238.25,-1006 1238.25,-1036.8 1558.05,-1036.8 1558.05,-1006 1238.25,-1006"/>
<text text-anchor="start" x="1245.25" y="-1018.2" font-family="Arial" font-size="14.00">ageolder </text>
<text text-anchor="start" x="1303.63" y="-1018.2" font-family="Arial" font-size="14.00" fill="#666666">[double precision]</text>
<polygon fill="none" stroke="black" points="1238.25,-975.2 1238.25,-1006 1558.05,-1006 1558.05,-975.2 1238.25,-975.2"/>
<text text-anchor="start" x="1245.25" y="-987.4" font-family="Arial" font-size="14.00">recdatecreated </text>
<text text-anchor="start" x="1342.54" y="-987.4" font-family="Arial" font-size="14.00" fill="#666666">[timestamp(0) without time zone]</text>
<polygon fill="none" stroke="black" points="1238.25,-944.4 1238.25,-975.2 1558.05,-975.2 1558.05,-944.4 1238.25,-944.4"/>
<text text-anchor="start" x="1245.25" y="-956.6" font-family="Arial" font-size="14.00">recdatemodified </text>
<text text-anchor="start" x="1348.76" y="-956.6" font-family="Arial" font-size="14.00" fill="#666666">[timestamp(0) without time zone]</text>
</g>
<!-- ndb.aggregatesampleages&#45;&gt;ndb.sampleages -->
<g id="edge7" class="edge">
<title>ndb.aggregatesampleages:sampleageid&#45;&gt;ndb.sampleages:sampleageid</title>
<path fill="none" stroke="black" d="M1138.24,-1453.92C1170.07,-1413.87 1206.32,-1175.4 1237.25,-1175.4"/>
<polygon fill="black" stroke="black" points="1138.24,-1453.92 1127.41,-1455.66 1133.79,-1456.85 1130.17,-1459.23 1130.17,-1459.23 1130.17,-1459.23 1133.79,-1456.85 1132.36,-1463.18 1138.24,-1453.92"/>
<text text-anchor="start" x="1136.61" y="-1469.6" font-family="Arial" font-size="10.00">FOREIGN KEY (sampleageid) REFERENCES ndb.sampleages(sampleageid) ON UPDATE CASCADE ON DELETE CASCADE</text>
</g>
<!-- ndb.aggregateordertypes -->
<g id="node5" class="node">
<title>ndb.aggregateordertypes</title>
<polygon fill="#efefef" stroke="none" points="376.25,-197.2 376.25,-232.8 696.05,-232.8 696.05,-197.2 376.25,-197.2"/>
<polygon fill="none" stroke="black" points="376.25,-197.2 376.25,-232.8 696.05,-232.8 696.05,-197.2 376.25,-197.2"/>
<text text-anchor="start" x="385.2" y="-210.6" font-family="Arial Bold" font-size="18.00">ndb.aggregateordertypes</text>
<text text-anchor="start" x="562.62" y="-210.6" font-family="Arial" font-size="14.00">    </text>
<text text-anchor="start" x="593.74" y="-210.6" font-family="Arial" font-size="14.00" fill="#666666">[BASE TABLE]</text>
<polygon fill="none" stroke="black" points="376.25,-166.4 376.25,-197.2 696.05,-197.2 696.05,-166.4 376.25,-166.4"/>
<text text-anchor="start" x="383.25" y="-178.6" font-family="Arial" font-size="14.00">aggregateordertypeid </text>
<text text-anchor="start" x="520.24" y="-178.6" font-family="Arial" font-size="14.00" fill="#666666">[integer]</text>
<polygon fill="none" stroke="black" points="376.25,-135.6 376.25,-166.4 696.05,-166.4 696.05,-135.6 376.25,-135.6"/>
<text text-anchor="start" x="383.25" y="-147.8" font-family="Arial" font-size="14.00">aggregateordertype </text>
<text text-anchor="start" x="509.34" y="-147.8" font-family="Arial" font-size="14.00" fill="#666666">[varchar(64)]</text>
<polygon fill="none" stroke="black" points="376.25,-104.8 376.25,-135.6 696.05,-135.6 696.05,-104.8 376.25,-104.8"/>
<text text-anchor="start" x="383.25" y="-117" font-family="Arial" font-size="14.00">notes </text>
<text text-anchor="start" x="421.39" y="-117" font-family="Arial" font-size="14.00" fill="#666666">[text]</text>
<polygon fill="none" stroke="black" points="376.25,-74 376.25,-104.8 696.05,-104.8 696.05,-74 376.25,-74"/>
<text text-anchor="start" x="383.25" y="-86.2" font-family="Arial" font-size="14.00">recdatecreated </text>
<text text-anchor="start" x="480.54" y="-86.2" font-family="Arial" font-size="14.00" fill="#666666">[timestamp(0) without time zone]</text>
<polygon fill="none" stroke="black" points="376.25,-43.2 376.25,-74 696.05,-74 696.05,-43.2 376.25,-43.2"/>
<text text-anchor="start" x="383.25" y="-55.4" font-family="Arial" font-size="14.00">recdatemodified </text>
<text text-anchor="start" x="486.76" y="-55.4" font-family="Arial" font-size="14.00" fill="#666666">[timestamp(0) without time zone]</text>
</g>
<!-- ndb.aggregatedatasets&#45;&gt;ndb.aggregateordertypes -->
<g id="edge4" class="edge">
<title>ndb.aggregatedatasets:aggregateordertypeid&#45;&gt;ndb.aggregateordertypes:aggregateordertypeid</title>
<path fill="none" stroke="black" d="M705.53,-565.3C740.06,-518.02 737.23,-181.8 697.05,-181.8"/>
<polygon fill="black" stroke="black" points="705.72,-565.18 694.88,-566.84 701.25,-568.08 697.61,-570.44 697.61,-570.44 697.61,-570.44 701.25,-568.08 699.78,-574.39 705.72,-565.18"/>
<text text-anchor="start" x="7" y="-580.8" font-family="Arial" font-size="10.00">FOREIGN KEY (aggregateordertypeid) REFERENCES ndb.aggregateordertypes(aggregateordertypeid) ON UPDATE CASCADE ON DELETE CASCADE</text>
</g>
<!-- ndb.aggregatechronologies&#45;&gt;ndb.aggregatedatasets -->
<g id="edge2" class="edge">
<title>ndb.aggregatechronologies:aggregatedatasetid&#45;&gt;ndb.aggregatedatasets:aggregatedatasetid</title>
<path fill="none" stroke="black" d="M789.62,-1173.48C734.01,-1150.82 760.41,-934.35 748.15,-870.4 737.97,-817.27 751.15,-632.4 697.05,-632.4"/>
<polygon fill="black" stroke="black" points="789.54,-1173.46 798.52,-1179.76 794.78,-1174.46 799.03,-1175.27 799.03,-1175.27 799.03,-1175.27 794.78,-1174.46 800.21,-1170.92 789.54,-1173.46"/>
<text text-anchor="start" x="137.97" y="-1185.4" font-family="Arial" font-size="10.00">FOREIGN KEY (aggregatedatasetid) REFERENCES ndb.aggregatedatasets(aggregatedatasetid) ON UPDATE CASCADE ON DELETE CASCADE</text>
</g>
<!-- ndb.agetypes -->
<g id="node6" class="node">
<title>ndb.agetypes</title>
<polygon fill="#efefef" stroke="none" points="807.25,-647.8 807.25,-683.4 1127.05,-683.4 1127.05,-647.8 807.25,-647.8"/>
<polygon fill="none" stroke="black" points="807.25,-647.8 807.25,-683.4 1127.05,-683.4 1127.05,-647.8 807.25,-647.8"/>
<text text-anchor="start" x="857.67" y="-661.2" font-family="Arial Bold" font-size="18.00">ndb.agetypes</text>
<text text-anchor="start" x="952.14" y="-661.2" font-family="Arial" font-size="14.00">    </text>
<text text-anchor="start" x="983.26" y="-661.2" font-family="Arial" font-size="14.00" fill="#666666">[BASE TABLE]</text>
<polygon fill="none" stroke="black" points="807.25,-617 807.25,-647.8 1127.05,-647.8 1127.05,-617 807.25,-617"/>
<text text-anchor="start" x="814.25" y="-629.2" font-family="Arial" font-size="14.00">agetypeid </text>
<text text-anchor="start" x="878.86" y="-629.2" font-family="Arial" font-size="14.00" fill="#666666">[integer]</text>
<polygon fill="none" stroke="black" points="807.25,-586.2 807.25,-617 1127.05,-617 1127.05,-586.2 807.25,-586.2"/>
<text text-anchor="start" x="814.25" y="-598.4" font-family="Arial" font-size="14.00">agetype </text>
<text text-anchor="start" x="867.96" y="-598.4" font-family="Arial" font-size="14.00" fill="#666666">[varchar(64)]</text>
<polygon fill="none" stroke="black" points="807.25,-555.4 807.25,-586.2 1127.05,-586.2 1127.05,-555.4 807.25,-555.4"/>
<text text-anchor="start" x="814.25" y="-567.6" font-family="Arial" font-size="14.00">precedence </text>
<text text-anchor="start" x="891.31" y="-567.6" font-family="Arial" font-size="14.00" fill="#666666">[integer]</text>
<polygon fill="none" stroke="black" points="807.25,-524.6 807.25,-555.4 1127.05,-555.4 1127.05,-524.6 807.25,-524.6"/>
<text text-anchor="start" x="814.25" y="-536.8" font-family="Arial" font-size="14.00">shortagetype </text>
<text text-anchor="start" x="899.09" y="-536.8" font-family="Arial" font-size="14.00" fill="#666666">[varchar(32)]</text>
<polygon fill="none" stroke="black" points="807.25,-493.8 807.25,-524.6 1127.05,-524.6 1127.05,-493.8 807.25,-493.8"/>
<text text-anchor="start" x="814.25" y="-506" font-family="Arial" font-size="14.00">recdatecreated </text>
<text text-anchor="start" x="911.54" y="-506" font-family="Arial" font-size="14.00" fill="#666666">[timestamp(0) without time zone]</text>
<polygon fill="none" stroke="black" points="807.25,-463 807.25,-493.8 1127.05,-493.8 1127.05,-463 807.25,-463"/>
<text text-anchor="start" x="814.25" y="-475.2" font-family="Arial" font-size="14.00">recdatemodified </text>
<text text-anchor="start" x="917.76" y="-475.2" font-family="Arial" font-size="14.00" fill="#666666">[timestamp(0) without time zone]</text>
</g>
<!-- ndb.aggregatechronologies&#45;&gt;ndb.agetypes -->
<g id="edge6" class="edge">
<title>ndb.aggregatechronologies:agetypeid&#45;&gt;ndb.agetypes:agetypeid</title>
<path fill="none" stroke="black" d="M1143.68,-1139.86C1190.62,-1088.22 1181.74,-632.4 1128.05,-632.4"/>
<polygon fill="black" stroke="black" points="1143.77,-1139.81 1132.82,-1140.46 1139.04,-1142.28 1135.21,-1144.29 1135.21,-1144.29 1135.21,-1144.29 1139.04,-1142.28 1137,-1148.43 1143.77,-1139.81"/>
<text text-anchor="start" x="870.64" y="-1128.6" font-family="Arial" font-size="10.00">FOREIGN KEY (agetypeid) REFERENCES ndb.agetypes(agetypeid) ON UPDATE CASCADE ON DELETE CASCADE</text>
</g>
<!-- ndb.aggregatesamples -->
<g id="node4" class="node">
<title>ndb.aggregatesamples</title>
<polygon fill="#efefef" stroke="none" points="376.25,-1129.2 376.25,-1164.8 696.05,-1164.8 696.05,-1129.2 376.25,-1129.2"/>
<polygon fill="none" stroke="black" points="376.25,-1129.2 376.25,-1164.8 696.05,-1164.8 696.05,-1129.2 376.25,-1129.2"/>
<text text-anchor="start" x="394.19" y="-1142.6" font-family="Arial Bold" font-size="18.00">ndb.aggregatesamples</text>
<text text-anchor="start" x="553.63" y="-1142.6" font-family="Arial" font-size="14.00">    </text>
<text text-anchor="start" x="584.75" y="-1142.6" font-family="Arial" font-size="14.00" fill="#666666">[BASE TABLE]</text>
<polygon fill="none" stroke="black" points="376.25,-1098.4 376.25,-1129.2 696.05,-1129.2 696.05,-1098.4 376.25,-1098.4"/>
<text text-anchor="start" x="383.25" y="-1110.6" font-family="Arial" font-size="14.00">aggregatedatasetid </text>
<text text-anchor="start" x="507.02" y="-1110.6" font-family="Arial" font-size="14.00" fill="#666666">[integer]</text>
<polygon fill="none" stroke="black" points="376.25,-1067.6 376.25,-1098.4 696.05,-1098.4 696.05,-1067.6 376.25,-1067.6"/>
<text text-anchor="start" x="383.25" y="-1079.8" font-family="Arial" font-size="14.00">sampleid </text>
<text text-anchor="start" x="443.17" y="-1079.8" font-family="Arial" font-size="14.00" fill="#666666">[integer]</text>
<polygon fill="none" stroke="black" points="376.25,-1036.8 376.25,-1067.6 696.05,-1067.6 696.05,-1036.8 376.25,-1036.8"/>
<text text-anchor="start" x="383.25" y="-1049" font-family="Arial" font-size="14.00">recdatecreated </text>
<text text-anchor="start" x="480.54" y="-1049" font-family="Arial" font-size="14.00" fill="#666666">[timestamp(0) without time zone]</text>
<polygon fill="none" stroke="black" points="376.25,-1006 376.25,-1036.8 696.05,-1036.8 696.05,-1006 376.25,-1006"/>
<text text-anchor="start" x="383.25" y="-1018.2" font-family="Arial" font-size="14.00">recdatemodified </text>
<text text-anchor="start" x="486.76" y="-1018.2" font-family="Arial" font-size="14.00" fill="#666666">[timestamp(0) without time zone]</text>
</g>
<!-- ndb.aggregatesamples&#45;&gt;ndb.aggregatedatasets -->
<g id="edge3" class="edge">
<title>ndb.aggregatesamples:aggregatedatasetid&#45;&gt;ndb.aggregatedatasets:aggregatedatasetid</title>
<path fill="none" stroke="black" d="M705.9,-1109.04C750.36,-1059.04 747.41,-632.4 697.05,-632.4"/>
<polygon fill="black" stroke="black" points="706.15,-1108.9 695.21,-1109.68 701.45,-1111.43 697.64,-1113.48 697.64,-1113.48 697.64,-1113.48 701.45,-1111.43 699.48,-1117.6 706.15,-1108.9"/>
<text text-anchor="start" x="35.33" y="-1123.8" font-family="Arial" font-size="10.00">FOREIGN KEY (aggregatedatasetid) REFERENCES ndb.aggregatedatasets(aggregatedatasetid) ON UPDATE CASCADE ON DELETE CASCADE</text>
</g>
<!-- ndb.samples -->
<g id="node8" class="node">
<title>ndb.samples</title>
<polygon fill="#efefef" stroke="none" points="1234.25,-740.2 1234.25,-775.8 1554.05,-775.8 1554.05,-740.2 1234.25,-740.2"/>
<polygon fill="none" stroke="black" points="1234.25,-740.2 1234.25,-775.8 1554.05,-775.8 1554.05,-740.2 1234.25,-740.2"/>
<text text-anchor="start" x="1287.16" y="-753.6" font-family="Arial Bold" font-size="18.00">ndb.samples</text>
<text text-anchor="start" x="1376.65" y="-753.6" font-family="Arial" font-size="14.00">    </text>
<text text-anchor="start" x="1407.77" y="-753.6" font-family="Arial" font-size="14.00" fill="#666666">[BASE TABLE]</text>
<polygon fill="none" stroke="black" points="1234.25,-709.4 1234.25,-740.2 1554.05,-740.2 1554.05,-709.4 1234.25,-709.4"/>
<text text-anchor="start" x="1241.25" y="-721.6" font-family="Arial" font-size="14.00">sampleid </text>
<text text-anchor="start" x="1301.17" y="-721.6" font-family="Arial" font-size="14.00" fill="#666666">[integer]</text>
<polygon fill="none" stroke="black" points="1234.25,-678.6 1234.25,-709.4 1554.05,-709.4 1554.05,-678.6 1234.25,-678.6"/>
<text text-anchor="start" x="1241.25" y="-690.8" font-family="Arial" font-size="14.00">analysisunitid </text>
<text text-anchor="start" x="1329.19" y="-690.8" font-family="Arial" font-size="14.00" fill="#666666">[integer]</text>
<polygon fill="none" stroke="black" points="1234.25,-647.8 1234.25,-678.6 1554.05,-678.6 1554.05,-647.8 1234.25,-647.8"/>
<text text-anchor="start" x="1241.25" y="-660" font-family="Arial" font-size="14.00">datasetid </text>
<text text-anchor="start" x="1301.96" y="-660" font-family="Arial" font-size="14.00" fill="#666666">[integer]</text>
<polygon fill="none" stroke="black" points="1234.25,-617 1234.25,-647.8 1554.05,-647.8 1554.05,-617 1234.25,-617"/>
<text text-anchor="start" x="1241.25" y="-629.2" font-family="Arial" font-size="14.00">samplename </text>
<text text-anchor="start" x="1325.29" y="-629.2" font-family="Arial" font-size="14.00" fill="#666666">[varchar(80)]</text>
<polygon fill="none" stroke="black" points="1234.25,-586.2 1234.25,-617 1554.05,-617 1554.05,-586.2 1234.25,-586.2"/>
<text text-anchor="start" x="1241.25" y="-598.4" font-family="Arial" font-size="14.00">analysisdate </text>
<text text-anchor="start" x="1322.97" y="-598.4" font-family="Arial" font-size="14.00" fill="#666666">[date]</text>
<polygon fill="none" stroke="black" points="1234.25,-555.4 1234.25,-586.2 1554.05,-586.2 1554.05,-555.4 1234.25,-555.4"/>
<text text-anchor="start" x="1241.25" y="-567.6" font-family="Arial" font-size="14.00">labnumber </text>
<text text-anchor="start" x="1311.29" y="-567.6" font-family="Arial" font-size="14.00" fill="#666666">[varchar(40)]</text>
<polygon fill="none" stroke="black" points="1234.25,-524.6 1234.25,-555.4 1554.05,-555.4 1554.05,-524.6 1234.25,-524.6"/>
<text text-anchor="start" x="1241.25" y="-536.8" font-family="Arial" font-size="14.00">preparationmethod </text>
<text text-anchor="start" x="1362.67" y="-536.8" font-family="Arial" font-size="14.00" fill="#666666">[text]</text>
<polygon fill="none" stroke="black" points="1234.25,-493.8 1234.25,-524.6 1554.05,-524.6 1554.05,-493.8 1234.25,-493.8"/>
<text text-anchor="start" x="1241.25" y="-506" font-family="Arial" font-size="14.00">notes </text>
<text text-anchor="start" x="1279.39" y="-506" font-family="Arial" font-size="14.00" fill="#666666">[text]</text>
<polygon fill="none" stroke="black" points="1234.25,-463 1234.25,-493.8 1554.05,-493.8 1554.05,-463 1234.25,-463"/>
<text text-anchor="start" x="1241.25" y="-475.2" font-family="Arial" font-size="14.00">recdatecreated </text>
<text text-anchor="start" x="1338.54" y="-475.2" font-family="Arial" font-size="14.00" fill="#666666">[timestamp(0) without time zone]</text>
<polygon fill="none" stroke="black" points="1234.25,-432.2 1234.25,-463 1554.05,-463 1554.05,-432.2 1234.25,-432.2"/>
<text text-anchor="start" x="1241.25" y="-444.4" font-family="Arial" font-size="14.00">recdatemodified </text>
<text text-anchor="start" x="1344.76" y="-444.4" font-family="Arial" font-size="14.00" fill="#666666">[timestamp(0) without time zone]</text>
<polygon fill="none" stroke="black" points="1234.25,-401.4 1234.25,-432.2 1554.05,-432.2 1554.05,-401.4 1234.25,-401.4"/>
<text text-anchor="start" x="1241.25" y="-413.6" font-family="Arial" font-size="14.00">sampledate </text>
<text text-anchor="start" x="1317.52" y="-413.6" font-family="Arial" font-size="14.00" fill="#666666">[date]</text>
<polygon fill="none" stroke="black" points="1234.25,-370.6 1234.25,-401.4 1554.05,-401.4 1554.05,-370.6 1234.25,-370.6"/>
<text text-anchor="start" x="1241.25" y="-382.8" font-family="Arial" font-size="14.00">taxonid </text>
<text text-anchor="start" x="1290.29" y="-382.8" font-family="Arial" font-size="14.00" fill="#666666">[integer]</text>
</g>
<!-- ndb.sampleages&#45;&gt;ndb.samples -->
<g id="edge8" class="edge">
<title>ndb.sampleages:sampleid&#45;&gt;ndb.samples:sampleid</title>
<path fill="none" stroke="black" d="M1227.21,-1141.9C1186.21,-1117.9 1207.35,-941.01 1238.25,-901.2 1327.19,-786.64 1464.74,-933.27 1554.05,-819 1579.83,-786.01 1596.92,-724.8 1555.05,-724.8"/>
<polygon fill="black" stroke="black" points="1227.27,-1141.92 1235.76,-1148.86 1232.42,-1143.3 1236.61,-1144.43 1236.61,-1144.43 1236.61,-1144.43 1232.42,-1143.3 1238.1,-1140.17 1227.27,-1141.92"/>
<text text-anchor="start" x="1244.25" y="-1154.6" font-family="Arial" font-size="10.00">FOREIGN KEY (sampleid) REFERENCES ndb.samples(sampleid) ON UPDATE CASCADE ON DELETE CASCADE</text>
</g>
<!-- ndb.chronologies -->
<g id="node9" class="node">
<title>ndb.chronologies</title>
<polygon fill="#efefef" stroke="none" points="1658.25,-755.6 1658.25,-791.2 1978.05,-791.2 1978.05,-755.6 1658.25,-755.6"/>
<polygon fill="none" stroke="black" points="1658.25,-755.6 1658.25,-791.2 1978.05,-791.2 1978.05,-755.6 1658.25,-755.6"/>
<text text-anchor="start" x="1693.67" y="-769" font-family="Arial Bold" font-size="18.00">ndb.chronologies</text>
<text text-anchor="start" x="1818.15" y="-769" font-family="Arial" font-size="14.00">    </text>
<text text-anchor="start" x="1849.26" y="-769" font-family="Arial" font-size="14.00" fill="#666666">[BASE TABLE]</text>
<polygon fill="none" stroke="black" points="1658.25,-724.8 1658.25,-755.6 1978.05,-755.6 1978.05,-724.8 1658.25,-724.8"/>
<text text-anchor="start" x="1665.25" y="-737" font-family="Arial" font-size="14.00">chronologyid </text>
<text text-anchor="start" x="1748.53" y="-737" font-family="Arial" font-size="14.00" fill="#666666">[integer]</text>
<polygon fill="none" stroke="black" points="1658.25,-694 1658.25,-724.8 1978.05,-724.8 1978.05,-694 1658.25,-694"/>
<text text-anchor="start" x="1665.25" y="-706.2" font-family="Arial" font-size="14.00">collectionunitid </text>
<text text-anchor="start" x="1760.98" y="-706.2" font-family="Arial" font-size="14.00" fill="#666666">[integer]</text>
<polygon fill="none" stroke="black" points="1658.25,-663.2 1658.25,-694 1978.05,-694 1978.05,-663.2 1658.25,-663.2"/>
<text text-anchor="start" x="1665.25" y="-675.4" font-family="Arial" font-size="14.00">agetypeid </text>
<text text-anchor="start" x="1729.86" y="-675.4" font-family="Arial" font-size="14.00" fill="#666666">[integer]</text>
<polygon fill="none" stroke="black" points="1658.25,-632.4 1658.25,-663.2 1978.05,-663.2 1978.05,-632.4 1658.25,-632.4"/>
<text text-anchor="start" x="1665.25" y="-644.6" font-family="Arial" font-size="14.00">contactid </text>
<text text-anchor="start" x="1725.18" y="-644.6" font-family="Arial" font-size="14.00" fill="#666666">[integer]</text>
<polygon fill="none" stroke="black" points="1658.25,-601.6 1658.25,-632.4 1978.05,-632.4 1978.05,-601.6 1658.25,-601.6"/>
<text text-anchor="start" x="1665.25" y="-613.8" font-family="Arial" font-size="14.00">isdefault </text>
<text text-anchor="start" x="1721.29" y="-613.8" font-family="Arial" font-size="14.00" fill="#666666">[boolean]</text>
<polygon fill="none" stroke="black" points="1658.25,-570.8 1658.25,-601.6 1978.05,-601.6 1978.05,-570.8 1658.25,-570.8"/>
<text text-anchor="start" x="1665.25" y="-583" font-family="Arial" font-size="14.00">chronologyname </text>
<text text-anchor="start" x="1772.65" y="-583" font-family="Arial" font-size="14.00" fill="#666666">[varchar(80)]</text>
<polygon fill="none" stroke="black" points="1658.25,-540 1658.25,-570.8 1978.05,-570.8 1978.05,-540 1658.25,-540"/>
<text text-anchor="start" x="1665.25" y="-552.2" font-family="Arial" font-size="14.00">dateprepared </text>
<text text-anchor="start" x="1752.43" y="-552.2" font-family="Arial" font-size="14.00" fill="#666666">[date]</text>
<polygon fill="none" stroke="black" points="1658.25,-509.2 1658.25,-540 1978.05,-540 1978.05,-509.2 1658.25,-509.2"/>
<text text-anchor="start" x="1665.25" y="-521.4" font-family="Arial" font-size="14.00">agemodel </text>
<text text-anchor="start" x="1730.63" y="-521.4" font-family="Arial" font-size="14.00" fill="#666666">[varchar(80)]</text>
<polygon fill="none" stroke="black" points="1658.25,-478.4 1658.25,-509.2 1978.05,-509.2 1978.05,-478.4 1658.25,-478.4"/>
<text text-anchor="start" x="1665.25" y="-490.6" font-family="Arial" font-size="14.00">ageboundyounger </text>
<text text-anchor="start" x="1782.02" y="-490.6" font-family="Arial" font-size="14.00" fill="#666666">[integer]</text>
<polygon fill="none" stroke="black" points="1658.25,-447.6 1658.25,-478.4 1978.05,-478.4 1978.05,-447.6 1658.25,-447.6"/>
<text text-anchor="start" x="1665.25" y="-459.8" font-family="Arial" font-size="14.00">ageboundolder </text>
<text text-anchor="start" x="1762.56" y="-459.8" font-family="Arial" font-size="14.00" fill="#666666">[integer]</text>
<polygon fill="none" stroke="black" points="1658.25,-416.8 1658.25,-447.6 1978.05,-447.6 1978.05,-416.8 1658.25,-416.8"/>
<text text-anchor="start" x="1665.25" y="-429" font-family="Arial" font-size="14.00">notes </text>
<text text-anchor="start" x="1703.39" y="-429" font-family="Arial" font-size="14.00" fill="#666666">[text]</text>
<polygon fill="none" stroke="black" points="1658.25,-386 1658.25,-416.8 1978.05,-416.8 1978.05,-386 1658.25,-386"/>
<text text-anchor="start" x="1665.25" y="-398.2" font-family="Arial" font-size="14.00">recdatecreated </text>
<text text-anchor="start" x="1762.54" y="-398.2" font-family="Arial" font-size="14.00" fill="#666666">[timestamp(0) without time zone]</text>
<polygon fill="none" stroke="black" points="1658.25,-355.2 1658.25,-386 1978.05,-386 1978.05,-355.2 1658.25,-355.2"/>
<text text-anchor="start" x="1665.25" y="-367.4" font-family="Arial" font-size="14.00">recdatemodified </text>
<text text-anchor="start" x="1768.76" y="-367.4" font-family="Arial" font-size="14.00" fill="#666666">[timestamp(0) without time zone]</text>
</g>
<!-- ndb.sampleages&#45;&gt;ndb.chronologies -->
<g id="edge9" class="edge">
<title>ndb.sampleages:chronologyid&#45;&gt;ndb.chronologies:chronologyid</title>
<path fill="none" stroke="black" d="M1569.26,-1111.79C1638.87,-1082.38 1575.1,-740.2 1657.25,-740.2"/>
<polygon fill="black" stroke="black" points="1569.19,-1111.8 1558.51,-1109.32 1563.96,-1112.83 1559.71,-1113.67 1559.71,-1113.67 1559.71,-1113.67 1563.96,-1112.83 1560.25,-1118.15 1569.19,-1111.8"/>
<text text-anchor="start" x="1566.05" y="-1123.8" font-family="Arial" font-size="10.00">FOREIGN KEY (chronologyid) REFERENCES ndb.chronologies(chronologyid) ON UPDATE CASCADE ON DELETE CASCADE</text>
</g>
</g>
</svg>
