<?xml version="1.0" encoding="UTF-8" standalone="no"?>
<!DOCTYPE svg PUBLIC "-//W3C//DTD SVG 1.1//EN"
 "http://www.w3.org/Graphics/SVG/1.1/DTD/svg11.dtd">
<!-- Generated by graphviz version 12.1.2 (20240928.0832)
 -->
<!-- Title: ndb.chroncontrolaccuracyranks Pages: 1 -->
<svg width="2382pt" height="966pt"
 viewBox="0.00 0.00 2382.31 965.60" xmlns="http://www.w3.org/2000/svg" xmlns:xlink="http://www.w3.org/1999/xlink">
<g id="graph0" class="graph" transform="scale(1 1) rotate(0) translate(4 961.6)">
<title>ndb.chroncontrolaccuracyranks</title>
<polygon fill="white" stroke="none" points="-4,4 -4,-961.6 2378.31,-961.6 2378.31,4 -4,4"/>
<!-- ndb.chroncontrolaccuracyranks -->
<g id="node1" class="node">
<title>ndb.chroncontrolaccuracyranks</title>
<polygon fill="#efefef" stroke="none" points="46.2,-305 46.2,-340.6 411.09,-340.6 411.09,-305 46.2,-305"/>
<polygon fill="none" stroke="black" points="46.2,-305 46.2,-340.6 411.09,-340.6 411.09,-305 46.2,-305"/>
<text text-anchor="start" x="53.2" y="-318.4" font-family="Arial Bold" font-size="18.00">ndb.chroncontrolaccuracyranks</text>
<text text-anchor="start" x="279.6" y="-318.4" font-family="Arial" font-size="14.00">    </text>
<text text-anchor="start" x="310.71" y="-318.4" font-family="Arial" font-size="14.00" fill="#666666">[BASE TABLE]</text>
<polygon fill="none" stroke="black" points="46.2,-274.2 46.2,-305 411.09,-305 411.09,-274.2 46.2,-274.2"/>
<text text-anchor="start" x="53.2" y="-286.4" font-family="Arial" font-size="14.00">accuracyrank </text>
<text text-anchor="start" x="140.34" y="-286.4" font-family="Arial" font-size="14.00" fill="#666666">[varchar(255)]</text>
<polygon fill="none" stroke="black" points="46.2,-243.4 46.2,-274.2 411.09,-274.2 411.09,-243.4 46.2,-243.4"/>
<text text-anchor="start" x="53.2" y="-255.6" font-family="Arial" font-size="14.00">accuracyrankid </text>
<text text-anchor="start" x="151.24" y="-255.6" font-family="Arial" font-size="14.00" fill="#666666">[integer]</text>
<polygon fill="none" stroke="black" points="46.2,-212.6 46.2,-243.4 411.09,-243.4 411.09,-212.6 46.2,-212.6"/>
<text text-anchor="start" x="53.2" y="-224.8" font-family="Arial" font-size="14.00">recdatecreated </text>
<text text-anchor="start" x="150.48" y="-224.8" font-family="Arial" font-size="14.00" fill="#666666">[timestamp(0) without time zone]</text>
<polygon fill="none" stroke="black" points="46.2,-181.8 46.2,-212.6 411.09,-212.6 411.09,-181.8 46.2,-181.8"/>
<text text-anchor="start" x="53.2" y="-194" font-family="Arial" font-size="14.00">recdatemodified </text>
<text text-anchor="start" x="156.7" y="-194" font-family="Arial" font-size="14.00" fill="#666666">[timestamp(0) without time zone]</text>
<polygon fill="none" stroke="black" stroke-width="3" points="44.7,-180.3 44.7,-342.1 412.59,-342.1 412.59,-180.3 44.7,-180.3"/>
</g>
<!-- ndb.chroncontrolranks -->
<g id="node2" class="node">
<title>ndb.chroncontrolranks</title>
<polygon fill="#efefef" stroke="none" points="1067.74,-878.8 1067.74,-914.4 1387.54,-914.4 1387.54,-878.8 1067.74,-878.8"/>
<polygon fill="none" stroke="black" points="1067.74,-878.8 1067.74,-914.4 1387.54,-914.4 1387.54,-878.8 1067.74,-878.8"/>
<text text-anchor="start" x="1084.17" y="-892.2" font-family="Arial Bold" font-size="18.00">ndb.chroncontrolranks</text>
<text text-anchor="start" x="1246.63" y="-892.2" font-family="Arial" font-size="14.00">    </text>
<text text-anchor="start" x="1277.74" y="-892.2" font-family="Arial" font-size="14.00" fill="#666666">[BASE TABLE]</text>
<polygon fill="none" stroke="black" points="1067.74,-848 1067.74,-878.8 1387.54,-878.8 1387.54,-848 1067.74,-848"/>
<text text-anchor="start" x="1074.74" y="-860.2" font-family="Arial" font-size="14.00">accuracydirectionid </text>
<text text-anchor="start" x="1198.47" y="-860.2" font-family="Arial" font-size="14.00" fill="#666666">[integer]</text>
<polygon fill="none" stroke="black" points="1067.74,-817.2 1067.74,-848 1387.54,-848 1387.54,-817.2 1067.74,-817.2"/>
<text text-anchor="start" x="1074.74" y="-829.4" font-family="Arial" font-size="14.00">accuracydistributionid </text>
<text text-anchor="start" x="1213.25" y="-829.4" font-family="Arial" font-size="14.00" fill="#666666">[integer]</text>
<polygon fill="none" stroke="black" points="1067.74,-786.4 1067.74,-817.2 1387.54,-817.2 1387.54,-786.4 1067.74,-786.4"/>
<text text-anchor="start" x="1074.74" y="-798.6" font-family="Arial" font-size="14.00">accuracyrankid </text>
<text text-anchor="start" x="1172.78" y="-798.6" font-family="Arial" font-size="14.00" fill="#666666">[integer]</text>
<polygon fill="none" stroke="black" points="1067.74,-755.6 1067.74,-786.4 1387.54,-786.4 1387.54,-755.6 1067.74,-755.6"/>
<text text-anchor="start" x="1074.74" y="-767.8" font-family="Arial" font-size="14.00">chroncontrolid </text>
<text text-anchor="start" x="1166.57" y="-767.8" font-family="Arial" font-size="14.00" fill="#666666">[integer]</text>
<polygon fill="none" stroke="black" points="1067.74,-724.8 1067.74,-755.6 1387.54,-755.6 1387.54,-724.8 1067.74,-724.8"/>
<text text-anchor="start" x="1074.74" y="-737" font-family="Arial" font-size="14.00">chroncontrolrankid </text>
<text text-anchor="start" x="1193.81" y="-737" font-family="Arial" font-size="14.00" fill="#666666">[integer]</text>
<polygon fill="none" stroke="black" points="1067.74,-694 1067.74,-724.8 1387.54,-724.8 1387.54,-694 1067.74,-694"/>
<text text-anchor="start" x="1074.74" y="-706.2" font-family="Arial" font-size="14.00">outlier </text>
<text text-anchor="start" x="1116.76" y="-706.2" font-family="Arial" font-size="14.00" fill="#666666">[boolean]</text>
<polygon fill="none" stroke="black" points="1067.74,-663.2 1067.74,-694 1387.54,-694 1387.54,-663.2 1067.74,-663.2"/>
<text text-anchor="start" x="1074.74" y="-675.4" font-family="Arial" font-size="14.00">precisionrankid </text>
<text text-anchor="start" x="1172.79" y="-675.4" font-family="Arial" font-size="14.00" fill="#666666">[integer]</text>
<polygon fill="none" stroke="black" points="1067.74,-632.4 1067.74,-663.2 1387.54,-663.2 1387.54,-632.4 1067.74,-632.4"/>
<text text-anchor="start" x="1074.74" y="-644.6" font-family="Arial" font-size="14.00">recdatecreated </text>
<text text-anchor="start" x="1172.03" y="-644.6" font-family="Arial" font-size="14.00" fill="#666666">[timestamp(0) without time zone]</text>
<polygon fill="none" stroke="black" points="1067.74,-601.6 1067.74,-632.4 1387.54,-632.4 1387.54,-601.6 1067.74,-601.6"/>
<text text-anchor="start" x="1074.74" y="-613.8" font-family="Arial" font-size="14.00">recdatemodified </text>
<text text-anchor="start" x="1178.25" y="-613.8" font-family="Arial" font-size="14.00" fill="#666666">[timestamp(0) without time zone]</text>
</g>
<!-- ndb.chroncontrolranks&#45;&gt;ndb.chroncontrolaccuracyranks -->
<g id="edge1" class="edge">
<title>ndb.chroncontrolranks:accuracyrankid&#45;&gt;ndb.chroncontrolaccuracyranks:accuracyrankid</title>
<path fill="none" stroke="black" d="M1056.46,-801.78C769.22,-800.65 646,-750.96 465.64,-522.4 391.59,-428.55 531.64,-258.8 412.09,-258.8"/>
<polygon fill="black" stroke="black" points="1056.41,-801.78 1066.4,-806.3 1061.74,-801.79 1066.07,-801.8 1066.07,-801.8 1066.07,-801.8 1061.74,-801.79 1066.42,-797.3 1056.41,-801.78"/>
<text text-anchor="start" x="405.12" y="-811.8" font-family="Arial" font-size="10.00">FOREIGN KEY (accuracyrankid) REFERENCES ndb.chroncontrolaccuracyranks(accuracyrankid) ON UPDATE CASCADE ON DELETE CASCADE</text>
</g>
<!-- ndb.chroncontrolaccuracydirections -->
<g id="node3" class="node">
<title>ndb.chroncontrolaccuracydirections</title>
<polygon fill="#efefef" stroke="none" points="518.2,-305 518.2,-340.6 915.08,-340.6 915.08,-305 518.2,-305"/>
<polygon fill="none" stroke="black" points="518.2,-305 518.2,-340.6 915.08,-340.6 915.08,-305 518.2,-305"/>
<text text-anchor="start" x="525.2" y="-318.4" font-family="Arial Bold" font-size="18.00">ndb.chroncontrolaccuracydirections</text>
<text text-anchor="start" x="783.59" y="-318.4" font-family="Arial" font-size="14.00">    </text>
<text text-anchor="start" x="814.71" y="-318.4" font-family="Arial" font-size="14.00" fill="#666666">[BASE TABLE]</text>
<polygon fill="none" stroke="black" points="518.2,-274.2 518.2,-305 915.08,-305 915.08,-274.2 518.2,-274.2"/>
<text text-anchor="start" x="525.2" y="-286.4" font-family="Arial" font-size="14.00">accuracydirection </text>
<text text-anchor="start" x="638.03" y="-286.4" font-family="Arial" font-size="14.00" fill="#666666">[varchar(80)]</text>
<polygon fill="none" stroke="black" points="518.2,-243.4 518.2,-274.2 915.08,-274.2 915.08,-243.4 518.2,-243.4"/>
<text text-anchor="start" x="525.2" y="-255.6" font-family="Arial" font-size="14.00">accuracydirectionid </text>
<text text-anchor="start" x="648.93" y="-255.6" font-family="Arial" font-size="14.00" fill="#666666">[integer]</text>
<polygon fill="none" stroke="black" points="518.2,-212.6 518.2,-243.4 915.08,-243.4 915.08,-212.6 518.2,-212.6"/>
<text text-anchor="start" x="525.2" y="-224.8" font-family="Arial" font-size="14.00">recdatecreated </text>
<text text-anchor="start" x="622.49" y="-224.8" font-family="Arial" font-size="14.00" fill="#666666">[timestamp(0) without time zone]</text>
<polygon fill="none" stroke="black" points="518.2,-181.8 518.2,-212.6 915.08,-212.6 915.08,-181.8 518.2,-181.8"/>
<text text-anchor="start" x="525.2" y="-194" font-family="Arial" font-size="14.00">recdatemodified </text>
<text text-anchor="start" x="628.71" y="-194" font-family="Arial" font-size="14.00" fill="#666666">[timestamp(0) without time zone]</text>
</g>
<!-- ndb.chroncontrolranks&#45;&gt;ndb.chroncontrolaccuracydirections -->
<g id="edge2" class="edge">
<title>ndb.chroncontrolranks:accuracydirectionid&#45;&gt;ndb.chroncontrolaccuracydirections:accuracydirectionid</title>
<path fill="none" stroke="black" d="M1056.49,-863.12C913.16,-854.99 1004.02,-672.33 967.64,-522.4 953.57,-464.39 975.77,-258.8 916.08,-258.8"/>
<polygon fill="black" stroke="black" points="1056.41,-863.12 1066.29,-867.89 1061.75,-863.26 1066.08,-863.38 1066.08,-863.38 1066.08,-863.38 1061.75,-863.26 1066.53,-858.89 1056.41,-863.12"/>
<text text-anchor="start" x="350.08" y="-873.4" font-family="Arial" font-size="10.00">FOREIGN KEY (accuracydirectionid) REFERENCES ndb.chroncontrolaccuracydirections(accuracydirectionid) ON UPDATE CASCADE ON DELETE CASCADE</text>
</g>
<!-- ndb.chroncontrolaccuracydistributions -->
<g id="node4" class="node">
<title>ndb.chroncontrolaccuracydistributions</title>
<polygon fill="#efefef" stroke="none" points="1019.69,-305 1019.69,-340.6 1435.6,-340.6 1435.6,-305 1019.69,-305"/>
<polygon fill="none" stroke="black" points="1019.69,-305 1019.69,-340.6 1435.6,-340.6 1435.6,-305 1019.69,-305"/>
<text text-anchor="start" x="1026.69" y="-318.4" font-family="Arial Bold" font-size="18.00">ndb.chroncontrolaccuracydistributions</text>
<text text-anchor="start" x="1304.11" y="-318.4" font-family="Arial" font-size="14.00">    </text>
<text text-anchor="start" x="1335.22" y="-318.4" font-family="Arial" font-size="14.00" fill="#666666">[BASE TABLE]</text>
<polygon fill="none" stroke="black" points="1019.69,-274.2 1019.69,-305 1435.6,-305 1435.6,-274.2 1019.69,-274.2"/>
<text text-anchor="start" x="1026.69" y="-286.4" font-family="Arial" font-size="14.00">accuracydistribution </text>
<text text-anchor="start" x="1154.3" y="-286.4" font-family="Arial" font-size="14.00" fill="#666666">[varchar(40)]</text>
<polygon fill="none" stroke="black" points="1019.69,-243.4 1019.69,-274.2 1435.6,-274.2 1435.6,-243.4 1019.69,-243.4"/>
<text text-anchor="start" x="1026.69" y="-255.6" font-family="Arial" font-size="14.00">accuracydistributionid </text>
<text text-anchor="start" x="1165.2" y="-255.6" font-family="Arial" font-size="14.00" fill="#666666">[integer]</text>
<polygon fill="none" stroke="black" points="1019.69,-212.6 1019.69,-243.4 1435.6,-243.4 1435.6,-212.6 1019.69,-212.6"/>
<text text-anchor="start" x="1026.69" y="-224.8" font-family="Arial" font-size="14.00">recdatecreated </text>
<text text-anchor="start" x="1123.97" y="-224.8" font-family="Arial" font-size="14.00" fill="#666666">[timestamp(0) without time zone]</text>
<polygon fill="none" stroke="black" points="1019.69,-181.8 1019.69,-212.6 1435.6,-212.6 1435.6,-181.8 1019.69,-181.8"/>
<text text-anchor="start" x="1026.69" y="-194" font-family="Arial" font-size="14.00">recdatemodified </text>
<text text-anchor="start" x="1130.19" y="-194" font-family="Arial" font-size="14.00" fill="#666666">[timestamp(0) without time zone]</text>
</g>
<!-- ndb.chroncontrolranks&#45;&gt;ndb.chroncontrolaccuracydistributions -->
<g id="edge3" class="edge">
<title>ndb.chroncontrolranks:accuracydistributionid&#45;&gt;ndb.chroncontrolaccuracydistributions:accuracydistributionid</title>
<path fill="none" stroke="black" d="M1397.79,-828.63C1456.95,-777.93 1497.45,-258.8 1436.6,-258.8"/>
<polygon fill="black" stroke="black" points="1398.04,-828.52 1387.07,-828.33 1393.14,-830.63 1389.16,-832.34 1389.16,-832.34 1389.16,-832.34 1393.14,-830.63 1390.63,-836.6 1398.04,-828.52"/>
<text text-anchor="start" x="1395.54" y="-842.6" font-family="Arial" font-size="10.00">FOREIGN KEY (accuracydistributionid) REFERENCES ndb.chroncontrolaccuracydistributions(accuracydistributionid) ON UPDATE CASCADE ON DELETE CASCADE</text>
</g>
<!-- ndb.chroncontrols -->
<g id="node5" class="node">
<title>ndb.chroncontrols</title>
<polygon fill="#efefef" stroke="none" points="1539.74,-443.6 1539.74,-479.2 1859.54,-479.2 1859.54,-443.6 1539.74,-443.6"/>
<polygon fill="none" stroke="black" points="1539.74,-443.6 1539.74,-479.2 1859.54,-479.2 1859.54,-443.6 1539.74,-443.6"/>
<text text-anchor="start" x="1572.16" y="-457" font-family="Arial Bold" font-size="18.00">ndb.chroncontrols</text>
<text text-anchor="start" x="1702.64" y="-457" font-family="Arial" font-size="14.00">    </text>
<text text-anchor="start" x="1733.75" y="-457" font-family="Arial" font-size="14.00" fill="#666666">[BASE TABLE]</text>
<polygon fill="none" stroke="black" points="1539.74,-412.8 1539.74,-443.6 1859.54,-443.6 1859.54,-412.8 1539.74,-412.8"/>
<text text-anchor="start" x="1546.74" y="-425" font-family="Arial" font-size="14.00">age </text>
<text text-anchor="start" x="1573.99" y="-425" font-family="Arial" font-size="14.00" fill="#666666">[double precision]</text>
<polygon fill="none" stroke="black" points="1539.74,-382 1539.74,-412.8 1859.54,-412.8 1859.54,-382 1539.74,-382"/>
<text text-anchor="start" x="1546.74" y="-394.2" font-family="Arial" font-size="14.00">agelimitolder </text>
<text text-anchor="start" x="1630.01" y="-394.2" font-family="Arial" font-size="14.00" fill="#666666">[double precision]</text>
<polygon fill="none" stroke="black" points="1539.74,-351.2 1539.74,-382 1859.54,-382 1859.54,-351.2 1539.74,-351.2"/>
<text text-anchor="start" x="1546.74" y="-363.4" font-family="Arial" font-size="14.00">agelimityounger </text>
<text text-anchor="start" x="1649.47" y="-363.4" font-family="Arial" font-size="14.00" fill="#666666">[double precision]</text>
<polygon fill="none" stroke="black" points="1539.74,-320.4 1539.74,-351.2 1859.54,-351.2 1859.54,-320.4 1539.74,-320.4"/>
<text text-anchor="start" x="1546.74" y="-332.6" font-family="Arial" font-size="14.00">agetypeid </text>
<text text-anchor="start" x="1611.35" y="-332.6" font-family="Arial" font-size="14.00" fill="#666666">[integer]</text>
<polygon fill="none" stroke="black" points="1539.74,-289.6 1539.74,-320.4 1859.54,-320.4 1859.54,-289.6 1539.74,-289.6"/>
<text text-anchor="start" x="1546.74" y="-301.8" font-family="Arial" font-size="14.00">analysisunitid </text>
<text text-anchor="start" x="1634.68" y="-301.8" font-family="Arial" font-size="14.00" fill="#666666">[integer]</text>
<polygon fill="none" stroke="black" points="1539.74,-258.8 1539.74,-289.6 1859.54,-289.6 1859.54,-258.8 1539.74,-258.8"/>
<text text-anchor="start" x="1546.74" y="-271" font-family="Arial" font-size="14.00">chroncontrolid </text>
<text text-anchor="start" x="1638.57" y="-271" font-family="Arial" font-size="14.00" fill="#666666">[integer]</text>
<polygon fill="none" stroke="black" points="1539.74,-228 1539.74,-258.8 1859.54,-258.8 1859.54,-228 1539.74,-228"/>
<text text-anchor="start" x="1546.74" y="-240.2" font-family="Arial" font-size="14.00">chroncontroltypeid </text>
<text text-anchor="start" x="1665.03" y="-240.2" font-family="Arial" font-size="14.00" fill="#666666">[integer]</text>
<polygon fill="none" stroke="black" points="1539.74,-197.2 1539.74,-228 1859.54,-228 1859.54,-197.2 1539.74,-197.2"/>
<text text-anchor="start" x="1546.74" y="-209.4" font-family="Arial" font-size="14.00">chronologyid </text>
<text text-anchor="start" x="1630.02" y="-209.4" font-family="Arial" font-size="14.00" fill="#666666">[integer]</text>
<polygon fill="none" stroke="black" points="1539.74,-166.4 1539.74,-197.2 1859.54,-197.2 1859.54,-166.4 1539.74,-166.4"/>
<text text-anchor="start" x="1546.74" y="-178.6" font-family="Arial" font-size="14.00">depth </text>
<text text-anchor="start" x="1585.67" y="-178.6" font-family="Arial" font-size="14.00" fill="#666666">[double precision]</text>
<polygon fill="none" stroke="black" points="1539.74,-135.6 1539.74,-166.4 1859.54,-166.4 1859.54,-135.6 1539.74,-135.6"/>
<text text-anchor="start" x="1546.74" y="-147.8" font-family="Arial" font-size="14.00">notes </text>
<text text-anchor="start" x="1584.88" y="-147.8" font-family="Arial" font-size="14.00" fill="#666666">[text]</text>
<polygon fill="none" stroke="black" points="1539.74,-104.8 1539.74,-135.6 1859.54,-135.6 1859.54,-104.8 1539.74,-104.8"/>
<text text-anchor="start" x="1546.74" y="-117" font-family="Arial" font-size="14.00">recdatecreated </text>
<text text-anchor="start" x="1644.03" y="-117" font-family="Arial" font-size="14.00" fill="#666666">[timestamp(0) without time zone]</text>
<polygon fill="none" stroke="black" points="1539.74,-74 1539.74,-104.8 1859.54,-104.8 1859.54,-74 1539.74,-74"/>
<text text-anchor="start" x="1546.74" y="-86.2" font-family="Arial" font-size="14.00">recdatemodified </text>
<text text-anchor="start" x="1650.25" y="-86.2" font-family="Arial" font-size="14.00" fill="#666666">[timestamp(0) without time zone]</text>
<polygon fill="none" stroke="black" points="1539.74,-43.2 1539.74,-74 1859.54,-74 1859.54,-43.2 1539.74,-43.2"/>
<text text-anchor="start" x="1546.74" y="-55.4" font-family="Arial" font-size="14.00">thickness </text>
<text text-anchor="start" x="1608.99" y="-55.4" font-family="Arial" font-size="14.00" fill="#666666">[double precision]</text>
</g>
<!-- ndb.chroncontrolranks&#45;&gt;ndb.chroncontrols -->
<g id="edge4" class="edge">
<title>ndb.chroncontrolranks:chroncontrolid&#45;&gt;ndb.chroncontrols:chroncontrolid</title>
<path fill="none" stroke="black" d="M1398.88,-770.63C1504.3,-762.87 1454.53,-632.89 1487.64,-522.4 1503.81,-468.46 1482.43,-274.2 1538.74,-274.2"/>
<polygon fill="black" stroke="black" points="1398.87,-770.63 1388.72,-766.49 1393.54,-770.82 1389.21,-770.98 1389.21,-770.98 1389.21,-770.98 1393.54,-770.82 1389.04,-775.49 1398.87,-770.63"/>
<text text-anchor="start" x="1395.54" y="-781" font-family="Arial" font-size="10.00">FOREIGN KEY (chroncontrolid) REFERENCES ndb.chroncontrols(chroncontrolid) ON UPDATE CASCADE ON DELETE CASCADE</text>
</g>
<!-- ndb.chroncontrolprecisionranks -->
<g id="node6" class="node">
<title>ndb.chroncontrolprecisionranks</title>
<polygon fill="#efefef" stroke="none" points="1964.18,-305 1964.18,-340.6 2331.11,-340.6 2331.11,-305 1964.18,-305"/>
<polygon fill="none" stroke="black" points="1964.18,-305 1964.18,-340.6 2331.11,-340.6 2331.11,-305 1964.18,-305"/>
<text text-anchor="start" x="1971.18" y="-318.4" font-family="Arial Bold" font-size="18.00">ndb.chroncontrolprecisionranks</text>
<text text-anchor="start" x="2199.62" y="-318.4" font-family="Arial" font-size="14.00">    </text>
<text text-anchor="start" x="2230.73" y="-318.4" font-family="Arial" font-size="14.00" fill="#666666">[BASE TABLE]</text>
<polygon fill="none" stroke="black" points="1964.18,-274.2 1964.18,-305 2331.11,-305 2331.11,-274.2 1964.18,-274.2"/>
<text text-anchor="start" x="1971.18" y="-286.4" font-family="Arial" font-size="14.00">precisionrank </text>
<text text-anchor="start" x="2058.33" y="-286.4" font-family="Arial" font-size="14.00" fill="#666666">[varchar(255)]</text>
<polygon fill="none" stroke="black" points="1964.18,-243.4 1964.18,-274.2 2331.11,-274.2 2331.11,-243.4 1964.18,-243.4"/>
<text text-anchor="start" x="1971.18" y="-255.6" font-family="Arial" font-size="14.00">precisionrankid </text>
<text text-anchor="start" x="2069.23" y="-255.6" font-family="Arial" font-size="14.00" fill="#666666">[integer]</text>
<polygon fill="none" stroke="black" points="1964.18,-212.6 1964.18,-243.4 2331.11,-243.4 2331.11,-212.6 1964.18,-212.6"/>
<text text-anchor="start" x="1971.18" y="-224.8" font-family="Arial" font-size="14.00">recdatecreated </text>
<text text-anchor="start" x="2068.46" y="-224.8" font-family="Arial" font-size="14.00" fill="#666666">[timestamp(0) without time zone]</text>
<polygon fill="none" stroke="black" points="1964.18,-181.8 1964.18,-212.6 2331.11,-212.6 2331.11,-181.8 1964.18,-181.8"/>
<text text-anchor="start" x="1971.18" y="-194" font-family="Arial" font-size="14.00">recdatemodified </text>
<text text-anchor="start" x="2074.68" y="-194" font-family="Arial" font-size="14.00" fill="#666666">[timestamp(0) without time zone]</text>
</g>
<!-- ndb.chroncontrolranks&#45;&gt;ndb.chroncontrolprecisionranks -->
<g id="edge5" class="edge">
<title>ndb.chroncontrolranks:precisionrankid&#45;&gt;ndb.chroncontrolprecisionranks:precisionrankid</title>
<path fill="none" stroke="black" d="M1398.93,-678.45C1527.2,-674.95 1832.35,-609.79 1911.64,-522.4 1991.86,-433.99 1843.81,-258.8 1963.18,-258.8"/>
<polygon fill="black" stroke="black" points="1398.88,-678.45 1388.81,-674.1 1393.54,-678.53 1389.21,-678.59 1389.21,-678.59 1389.21,-678.59 1393.54,-678.53 1388.94,-683.09 1398.88,-678.45"/>
<text text-anchor="start" x="1395.54" y="-688.6" font-family="Arial" font-size="10.00">FOREIGN KEY (precisionrankid) REFERENCES ndb.chroncontrolprecisionranks(precisionrankid) ON UPDATE CASCADE ON DELETE CASCADE</text>
</g>
</g>
</svg>
