<?xml version="1.0" encoding="UTF-8" standalone="no"?>
<!DOCTYPE svg PUBLIC "-//W3C//DTD SVG 1.1//EN"
 "http://www.w3.org/Graphics/SVG/1.1/DTD/svg11.dtd">
<!-- Generated by graphviz version 12.1.2 (20240928.0832)
 -->
<!-- Title: ndb.lakeparametertypes Pages: 1 -->
<svg width="1458pt" height="842pt"
 viewBox="0.00 0.00 1457.54 842.40" xmlns="http://www.w3.org/2000/svg" xmlns:xlink="http://www.w3.org/1999/xlink">
<g id="graph0" class="graph" transform="scale(1 1) rotate(0) translate(4 838.4)">
<title>ndb.lakeparametertypes</title>
<polygon fill="white" stroke="none" points="-4,4 -4,-838.4 1453.54,-838.4 1453.54,4 -4,4"/>
<!-- ndb.lakeparametertypes -->
<g id="node1" class="node">
<title>ndb.lakeparametertypes</title>
<polygon fill="#efefef" stroke="none" points="433.86,-335.8 433.86,-371.4 753.66,-371.4 753.66,-335.8 433.86,-335.8"/>
<polygon fill="none" stroke="black" points="433.86,-335.8 433.86,-371.4 753.66,-371.4 753.66,-335.8 433.86,-335.8"/>
<text text-anchor="start" x="445.8" y="-349.2" font-family="Arial Bold" font-size="18.00">ndb.lakeparametertypes</text>
<text text-anchor="start" x="617.23" y="-349.2" font-family="Arial" font-size="14.00">    </text>
<text text-anchor="start" x="648.34" y="-349.2" font-family="Arial" font-size="14.00" fill="#666666">[BASE TABLE]</text>
<polygon fill="none" stroke="black" points="433.86,-305 433.86,-335.8 753.66,-335.8 753.66,-305 433.86,-305"/>
<text text-anchor="start" x="440.86" y="-317.2" font-family="Arial" font-size="14.00">lakeparameter </text>
<text text-anchor="start" x="534.24" y="-317.2" font-family="Arial" font-size="14.00" fill="#666666">[varchar(80)]</text>
<polygon fill="none" stroke="black" points="433.86,-274.2 433.86,-305 753.66,-305 753.66,-274.2 433.86,-274.2"/>
<text text-anchor="start" x="440.86" y="-286.4" font-family="Arial" font-size="14.00">lakeparametercode </text>
<text text-anchor="start" x="564.6" y="-286.4" font-family="Arial" font-size="14.00" fill="#666666">[varchar(20)]</text>
<polygon fill="none" stroke="black" points="433.86,-243.4 433.86,-274.2 753.66,-274.2 753.66,-243.4 433.86,-243.4"/>
<text text-anchor="start" x="440.86" y="-255.6" font-family="Arial" font-size="14.00">lakeparameterid </text>
<text text-anchor="start" x="545.14" y="-255.6" font-family="Arial" font-size="14.00" fill="#666666">[integer]</text>
<polygon fill="none" stroke="black" points="433.86,-212.6 433.86,-243.4 753.66,-243.4 753.66,-212.6 433.86,-212.6"/>
<text text-anchor="start" x="440.86" y="-224.8" font-family="Arial" font-size="14.00">lakeparametershortname </text>
<text text-anchor="start" x="600.38" y="-224.8" font-family="Arial" font-size="14.00" fill="#666666">[varchar(40)]</text>
<polygon fill="none" stroke="black" points="433.86,-181.8 433.86,-212.6 753.66,-212.6 753.66,-181.8 433.86,-181.8"/>
<text text-anchor="start" x="440.86" y="-194" font-family="Arial" font-size="14.00">recdatecreated </text>
<text text-anchor="start" x="538.14" y="-194" font-family="Arial" font-size="14.00" fill="#666666">[timestamp(0) without time zone]</text>
<polygon fill="none" stroke="black" points="433.86,-151 433.86,-181.8 753.66,-181.8 753.66,-151 433.86,-151"/>
<text text-anchor="start" x="440.86" y="-163.2" font-family="Arial" font-size="14.00">recdatemodified </text>
<text text-anchor="start" x="544.36" y="-163.2" font-family="Arial" font-size="14.00" fill="#666666">[timestamp(0) without time zone]</text>
<polygon fill="none" stroke="black" stroke-width="3" points="432.36,-149.5 432.36,-372.9 755.16,-372.9 755.16,-149.5 432.36,-149.5"/>
</g>
<!-- ndb.lakeparameters -->
<g id="node2" class="node">
<title>ndb.lakeparameters</title>
<polygon fill="#efefef" stroke="none" points="646.86,-755.6 646.86,-791.2 966.66,-791.2 966.66,-755.6 646.86,-755.6"/>
<polygon fill="none" stroke="black" points="646.86,-755.6 646.86,-791.2 966.66,-791.2 966.66,-755.6 646.86,-755.6"/>
<text text-anchor="start" x="674.3" y="-769" font-family="Arial Bold" font-size="18.00">ndb.lakeparameters</text>
<text text-anchor="start" x="814.73" y="-769" font-family="Arial" font-size="14.00">    </text>
<text text-anchor="start" x="845.85" y="-769" font-family="Arial" font-size="14.00" fill="#666666">[BASE TABLE]</text>
<polygon fill="none" stroke="black" points="646.86,-724.8 646.86,-755.6 966.66,-755.6 966.66,-724.8 646.86,-724.8"/>
<text text-anchor="start" x="653.86" y="-737" font-family="Arial" font-size="14.00">lakeparameterid </text>
<text text-anchor="start" x="758.14" y="-737" font-family="Arial" font-size="14.00" fill="#666666">[integer]</text>
<polygon fill="none" stroke="black" points="646.86,-694 646.86,-724.8 966.66,-724.8 966.66,-694 646.86,-694"/>
<text text-anchor="start" x="653.86" y="-706.2" font-family="Arial" font-size="14.00">recdatecreated </text>
<text text-anchor="start" x="751.14" y="-706.2" font-family="Arial" font-size="14.00" fill="#666666">[timestamp(0) without time zone]</text>
<polygon fill="none" stroke="black" points="646.86,-663.2 646.86,-694 966.66,-694 966.66,-663.2 646.86,-663.2"/>
<text text-anchor="start" x="653.86" y="-675.4" font-family="Arial" font-size="14.00">recdatemodified </text>
<text text-anchor="start" x="757.36" y="-675.4" font-family="Arial" font-size="14.00" fill="#666666">[timestamp(0) without time zone]</text>
<polygon fill="none" stroke="black" points="646.86,-632.4 646.86,-663.2 966.66,-663.2 966.66,-632.4 646.86,-632.4"/>
<text text-anchor="start" x="653.86" y="-644.6" font-family="Arial" font-size="14.00">siteid </text>
<text text-anchor="start" x="690.43" y="-644.6" font-family="Arial" font-size="14.00" fill="#666666">[integer]</text>
<polygon fill="none" stroke="black" points="646.86,-601.6 646.86,-632.4 966.66,-632.4 966.66,-601.6 646.86,-601.6"/>
<text text-anchor="start" x="653.86" y="-613.8" font-family="Arial" font-size="14.00">value </text>
<text text-anchor="start" x="691.22" y="-613.8" font-family="Arial" font-size="14.00" fill="#666666">[double precision]</text>
</g>
<!-- ndb.lakeparameters&#45;&gt;ndb.lakeparametertypes -->
<g id="edge1" class="edge">
<title>ndb.lakeparameters:lakeparameterid&#45;&gt;ndb.lakeparametertypes:lakeparameterid</title>
<path fill="none" stroke="black" d="M635.53,-739.98C439.96,-731.53 733.65,-476.47 753.66,-417.6 776.37,-350.77 825.24,-258.8 754.66,-258.8"/>
<polygon fill="black" stroke="black" points="635.53,-739.98 645.43,-744.69 640.86,-740.1 645.19,-740.19 645.19,-740.19 645.19,-740.19 640.86,-740.1 645.62,-735.69 635.53,-739.98"/>
<text text-anchor="start" x="7" y="-750.2" font-family="Arial" font-size="10.00">FOREIGN KEY (lakeparameterid) REFERENCES ndb.lakeparametertypes(lakeparameterid) ON UPDATE CASCADE ON DELETE CASCADE</text>
</g>
<!-- ndb.sites -->
<g id="node3" class="node">
<title>ndb.sites</title>
<polygon fill="#efefef" stroke="none" points="860.86,-443.6 860.86,-479.2 1180.66,-479.2 1180.66,-443.6 860.86,-443.6"/>
<polygon fill="none" stroke="black" points="860.86,-443.6 860.86,-479.2 1180.66,-479.2 1180.66,-443.6 860.86,-443.6"/>
<text text-anchor="start" x="926.76" y="-457" font-family="Arial Bold" font-size="18.00">ndb.sites</text>
<text text-anchor="start" x="990.27" y="-457" font-family="Arial" font-size="14.00">    </text>
<text text-anchor="start" x="1021.38" y="-457" font-family="Arial" font-size="14.00" fill="#666666">[BASE TABLE]</text>
<polygon fill="none" stroke="black" points="860.86,-412.8 860.86,-443.6 1180.66,-443.6 1180.66,-412.8 860.86,-412.8"/>
<text text-anchor="start" x="867.86" y="-425" font-family="Arial" font-size="14.00">altitude </text>
<text text-anchor="start" x="916.89" y="-425" font-family="Arial" font-size="14.00" fill="#666666">[double precision]</text>
<polygon fill="none" stroke="black" points="860.86,-382 860.86,-412.8 1180.66,-412.8 1180.66,-382 860.86,-382"/>
<text text-anchor="start" x="867.86" y="-394.2" font-family="Arial" font-size="14.00">area </text>
<text text-anchor="start" x="899.77" y="-394.2" font-family="Arial" font-size="14.00" fill="#666666">[double precision]</text>
<polygon fill="none" stroke="black" points="860.86,-351.2 860.86,-382 1180.66,-382 1180.66,-351.2 860.86,-351.2"/>
<text text-anchor="start" x="867.86" y="-363.4" font-family="Arial" font-size="14.00">geog </text>
<text text-anchor="start" x="902.89" y="-363.4" font-family="Arial" font-size="14.00" fill="#666666">[geography]</text>
<polygon fill="none" stroke="black" points="860.86,-320.4 860.86,-351.2 1180.66,-351.2 1180.66,-320.4 860.86,-320.4"/>
<text text-anchor="start" x="867.86" y="-332.6" font-family="Arial" font-size="14.00">latitudenorth </text>
<text text-anchor="start" x="948.8" y="-332.6" font-family="Arial" font-size="14.00" fill="#666666">[double precision]</text>
<polygon fill="none" stroke="black" points="860.86,-289.6 860.86,-320.4 1180.66,-320.4 1180.66,-289.6 860.86,-289.6"/>
<text text-anchor="start" x="867.86" y="-301.8" font-family="Arial" font-size="14.00">latitudesouth </text>
<text text-anchor="start" x="951.14" y="-301.8" font-family="Arial" font-size="14.00" fill="#666666">[double precision]</text>
<polygon fill="none" stroke="black" points="860.86,-258.8 860.86,-289.6 1180.66,-289.6 1180.66,-258.8 860.86,-258.8"/>
<text text-anchor="start" x="867.86" y="-271" font-family="Arial" font-size="14.00">longitudeeast </text>
<text text-anchor="start" x="955.04" y="-271" font-family="Arial" font-size="14.00" fill="#666666">[double precision]</text>
<polygon fill="none" stroke="black" points="860.86,-228 860.86,-258.8 1180.66,-258.8 1180.66,-228 860.86,-228"/>
<text text-anchor="start" x="867.86" y="-240.2" font-family="Arial" font-size="14.00">longitudewest </text>
<text text-anchor="start" x="957.36" y="-240.2" font-family="Arial" font-size="14.00" fill="#666666">[double precision]</text>
<polygon fill="none" stroke="black" points="860.86,-197.2 860.86,-228 1180.66,-228 1180.66,-197.2 860.86,-197.2"/>
<text text-anchor="start" x="867.86" y="-209.4" font-family="Arial" font-size="14.00">notes </text>
<text text-anchor="start" x="906" y="-209.4" font-family="Arial" font-size="14.00" fill="#666666">[text]</text>
<polygon fill="none" stroke="black" points="860.86,-166.4 860.86,-197.2 1180.66,-197.2 1180.66,-166.4 860.86,-166.4"/>
<text text-anchor="start" x="867.86" y="-178.6" font-family="Arial" font-size="14.00">recdatecreated </text>
<text text-anchor="start" x="965.14" y="-178.6" font-family="Arial" font-size="14.00" fill="#666666">[timestamp(0) without time zone]</text>
<polygon fill="none" stroke="black" points="860.86,-135.6 860.86,-166.4 1180.66,-166.4 1180.66,-135.6 860.86,-135.6"/>
<text text-anchor="start" x="867.86" y="-147.8" font-family="Arial" font-size="14.00">recdatemodified </text>
<text text-anchor="start" x="971.36" y="-147.8" font-family="Arial" font-size="14.00" fill="#666666">[timestamp(0) without time zone]</text>
<polygon fill="none" stroke="black" points="860.86,-104.8 860.86,-135.6 1180.66,-135.6 1180.66,-104.8 860.86,-104.8"/>
<text text-anchor="start" x="867.86" y="-117" font-family="Arial" font-size="14.00">sitedescription </text>
<text text-anchor="start" x="961.24" y="-117" font-family="Arial" font-size="14.00" fill="#666666">[text]</text>
<polygon fill="none" stroke="black" points="860.86,-74 860.86,-104.8 1180.66,-104.8 1180.66,-74 860.86,-74"/>
<text text-anchor="start" x="867.86" y="-86.2" font-family="Arial" font-size="14.00">siteid </text>
<text text-anchor="start" x="904.43" y="-86.2" font-family="Arial" font-size="14.00" fill="#666666">[integer]</text>
<polygon fill="none" stroke="black" points="860.86,-43.2 860.86,-74 1180.66,-74 1180.66,-43.2 860.86,-43.2"/>
<text text-anchor="start" x="867.86" y="-55.4" font-family="Arial" font-size="14.00">sitename </text>
<text text-anchor="start" x="928.56" y="-55.4" font-family="Arial" font-size="14.00" fill="#666666">[varchar(128)]</text>
</g>
<!-- ndb.lakeparameters&#45;&gt;ndb.sites -->
<g id="edge2" class="edge">
<title>ndb.lakeparameters:siteid&#45;&gt;ndb.sites:siteid</title>
<path fill="none" stroke="black" d="M977.71,-646.24C1003.94,-636.86 987.7,-587.44 966.66,-558.4 937.52,-518.18 889.82,-562.75 860.86,-522.4 832.81,-483.32 811.75,-89.4 859.86,-89.4"/>
<polygon fill="black" stroke="black" points="977.87,-646.21 967.3,-643.3 972.6,-647.03 968.32,-647.7 968.32,-647.7 968.32,-647.7 972.6,-647.03 968.68,-652.2 977.87,-646.21"/>
<text text-anchor="start" x="974.66" y="-657.8" font-family="Arial" font-size="10.00">FOREIGN KEY (siteid) REFERENCES ndb.sites(siteid) ON UPDATE CASCADE ON DELETE CASCADE</text>
</g>
</g>
</svg>
