<?xml version="1.0" encoding="UTF-8" standalone="no"?>
<!DOCTYPE svg PUBLIC "-//W3C//DTD SVG 1.1//EN"
 "http://www.w3.org/Graphics/SVG/1.1/DTD/svg11.dtd">
<!-- Generated by graphviz version 12.1.2 (20240928.0832)
 -->
<!-- Title: ndb.entityrelationship Pages: 1 -->
<svg width="3730pt" height="1216pt"
 viewBox="0.00 0.00 3730.33 1216.00" xmlns="http://www.w3.org/2000/svg" xmlns:xlink="http://www.w3.org/1999/xlink">
<g id="graph0" class="graph" transform="scale(1 1) rotate(0) translate(4 1212)">
<title>ndb.entityrelationship</title>
<polygon fill="white" stroke="none" points="-4,4 -4,-1212 3726.33,-1212 3726.33,4 -4,4"/>
<!-- ndb.entityrelationship -->
<g id="node1" class="node">
<title>ndb.entityrelationship</title>
<polygon fill="#efefef" stroke="none" points="3003.99,-1113.8 3003.99,-1149.4 3299.95,-1149.4 3299.95,-1113.8 3003.99,-1113.8"/>
<polygon fill="none" stroke="black" points="3003.99,-1113.8 3003.99,-1149.4 3299.95,-1149.4 3299.95,-1113.8 3003.99,-1113.8"/>
<text text-anchor="start" x="3010.99" y="-1127.2" font-family="Arial Bold" font-size="18.00">ndb.entityrelationship</text>
<text text-anchor="start" x="3168.47" y="-1127.2" font-family="Arial" font-size="14.00">    </text>
<text text-anchor="start" x="3199.58" y="-1127.2" font-family="Arial" font-size="14.00" fill="#666666">[BASE TABLE]</text>
<polygon fill="none" stroke="black" points="3003.99,-1083 3003.99,-1113.8 3299.95,-1113.8 3299.95,-1083 3003.99,-1083"/>
<text text-anchor="start" x="3010.99" y="-1095.2" font-family="Arial" font-size="14.00">entityid </text>
<text text-anchor="start" x="3059.24" y="-1095.2" font-family="Arial" font-size="14.00" fill="#666666">[integer]</text>
<polygon fill="none" stroke="black" points="3003.99,-1052.2 3003.99,-1083 3299.95,-1083 3299.95,-1052.2 3003.99,-1052.2"/>
<text text-anchor="start" x="3010.99" y="-1064.4" font-family="Arial" font-size="14.00">entitystatusid </text>
<text text-anchor="start" x="3096.59" y="-1064.4" font-family="Arial" font-size="14.00" fill="#666666">[integer]</text>
<polygon fill="none" stroke="black" points="3003.99,-1021.4 3003.99,-1052.2 3299.95,-1052.2 3299.95,-1021.4 3003.99,-1021.4"/>
<text text-anchor="start" x="3010.99" y="-1033.6" font-family="Arial" font-size="14.00">referenceentityid </text>
<text text-anchor="start" x="3118.38" y="-1033.6" font-family="Arial" font-size="14.00" fill="#666666">[integer]</text>
<polygon fill="none" stroke="black" stroke-width="3" points="3002.49,-1019.9 3002.49,-1150.9 3301.45,-1150.9 3301.45,-1019.9 3002.49,-1019.9"/>
</g>
<!-- ndb.speleothems -->
<g id="node2" class="node">
<title>ndb.speleothems</title>
<polygon fill="#efefef" stroke="none" points="1768.49,-848 1768.49,-883.6 2027.46,-883.6 2027.46,-848 1768.49,-848"/>
<polygon fill="none" stroke="black" points="1768.49,-848 1768.49,-883.6 2027.46,-883.6 2027.46,-848 1768.49,-848"/>
<text text-anchor="start" x="1775.49" y="-861.4" font-family="Arial Bold" font-size="18.00">ndb.speleothems</text>
<text text-anchor="start" x="1895.97" y="-861.4" font-family="Arial" font-size="14.00">    </text>
<text text-anchor="start" x="1927.09" y="-861.4" font-family="Arial" font-size="14.00" fill="#666666">[BASE TABLE]</text>
<polygon fill="none" stroke="black" points="1768.49,-817.2 1768.49,-848 2027.46,-848 2027.46,-817.2 1768.49,-817.2"/>
<text text-anchor="start" x="1775.49" y="-829.4" font-family="Arial" font-size="14.00">siteid </text>
<text text-anchor="start" x="1812.06" y="-829.4" font-family="Arial" font-size="14.00" fill="#666666">[integer]</text>
<polygon fill="none" stroke="black" points="1768.49,-786.4 1768.49,-817.2 2027.46,-817.2 2027.46,-786.4 1768.49,-786.4"/>
<text text-anchor="start" x="1775.49" y="-798.6" font-family="Arial" font-size="14.00">entityid </text>
<text text-anchor="start" x="1823.74" y="-798.6" font-family="Arial" font-size="14.00" fill="#666666">[integer]</text>
<polygon fill="none" stroke="black" points="1768.49,-755.6 1768.49,-786.4 2027.46,-786.4 2027.46,-755.6 1768.49,-755.6"/>
<text text-anchor="start" x="1775.49" y="-767.8" font-family="Arial" font-size="14.00">entityname </text>
<text text-anchor="start" x="1847.86" y="-767.8" font-family="Arial" font-size="14.00" fill="#666666">[text]</text>
<polygon fill="none" stroke="black" points="1768.49,-724.8 1768.49,-755.6 2027.46,-755.6 2027.46,-724.8 1768.49,-724.8"/>
<text text-anchor="start" x="1775.49" y="-737" font-family="Arial" font-size="14.00">monitoring </text>
<text text-anchor="start" x="1844.74" y="-737" font-family="Arial" font-size="14.00" fill="#666666">[boolean]</text>
<polygon fill="none" stroke="black" points="1768.49,-694 1768.49,-724.8 2027.46,-724.8 2027.46,-694 1768.49,-694"/>
<text text-anchor="start" x="1775.49" y="-706.2" font-family="Arial" font-size="14.00">rockageid </text>
<text text-anchor="start" x="1840.08" y="-706.2" font-family="Arial" font-size="14.00" fill="#666666">[integer]</text>
<polygon fill="none" stroke="black" points="1768.49,-663.2 1768.49,-694 2027.46,-694 2027.46,-663.2 1768.49,-663.2"/>
<text text-anchor="start" x="1775.49" y="-675.4" font-family="Arial" font-size="14.00">entrancedistance </text>
<text text-anchor="start" x="1886" y="-675.4" font-family="Arial" font-size="14.00" fill="#666666">[real]</text>
<polygon fill="none" stroke="black" points="1768.49,-632.4 1768.49,-663.2 2027.46,-663.2 2027.46,-632.4 1768.49,-632.4"/>
<text text-anchor="start" x="1775.49" y="-644.6" font-family="Arial" font-size="14.00">entrancedistanceunits </text>
<text text-anchor="start" x="1915.58" y="-644.6" font-family="Arial" font-size="14.00" fill="#666666">[integer]</text>
<polygon fill="none" stroke="black" points="1768.49,-601.6 1768.49,-632.4 2027.46,-632.4 2027.46,-601.6 1768.49,-601.6"/>
<text text-anchor="start" x="1775.49" y="-613.8" font-family="Arial" font-size="14.00">speleothemtypeid </text>
<text text-anchor="start" x="1889.12" y="-613.8" font-family="Arial" font-size="14.00" fill="#666666">[integer]</text>
</g>
<!-- ndb.entityrelationship&#45;&gt;ndb.speleothems -->
<g id="edge1" class="edge">
<title>ndb.entityrelationship:entityid&#45;&gt;ndb.speleothems:entityid</title>
<path fill="none" stroke="black" d="M2992.84,-1097.45C2944.91,-1087.49 2996.37,-1001.32 2948.97,-962.8 2787.82,-831.83 2236.12,-801.8 2028.46,-801.8"/>
<polygon fill="black" stroke="black" points="2992.7,-1097.44 3002.24,-1102.85 2998.01,-1097.94 3002.33,-1098.34 3002.33,-1098.34 3002.33,-1098.34 2998.01,-1097.94 3003.08,-1093.89 2992.7,-1097.44"/>
<text text-anchor="start" x="2776.08" y="-1082.4" font-family="Arial" font-size="10.00">FOREIGN KEY (entityid) REFERENCES ndb.speleothems(entityid)</text>
</g>
<!-- ndb.entityrelationship&#45;&gt;ndb.speleothems -->
<g id="edge3" class="edge">
<title>ndb.entityrelationship:referenceentityid&#45;&gt;ndb.speleothems:entityid</title>
<path fill="none" stroke="black" d="M2992.73,-1035.38C2965.89,-1026.84 2980.17,-982.21 2948.97,-962.8 2772.66,-853.07 2236.12,-801.8 2028.46,-801.8"/>
<polygon fill="black" stroke="black" points="2992.76,-1035.38 3002.04,-1041.21 2998.04,-1036.11 3002.33,-1036.71 3002.33,-1036.71 3002.33,-1036.71 2998.04,-1036.11 3003.28,-1032.3 2992.76,-1035.38"/>
<text text-anchor="start" x="2744.4" y="-1020.8" font-family="Arial" font-size="10.00">FOREIGN KEY (referenceentityid) REFERENCES ndb.speleothems(entityid)</text>
</g>
<!-- ndb.speleothementitystatuses -->
<g id="node14" class="node">
<title>ndb.speleothementitystatuses</title>
<polygon fill="#efefef" stroke="none" points="2977.5,-755.6 2977.5,-791.2 3326.45,-791.2 3326.45,-755.6 2977.5,-755.6"/>
<polygon fill="none" stroke="black" points="2977.5,-755.6 2977.5,-791.2 3326.45,-791.2 3326.45,-755.6 2977.5,-755.6"/>
<text text-anchor="start" x="2984.5" y="-769" font-family="Arial Bold" font-size="18.00">ndb.speleothementitystatuses</text>
<text text-anchor="start" x="3194.96" y="-769" font-family="Arial" font-size="14.00">    </text>
<text text-anchor="start" x="3226.08" y="-769" font-family="Arial" font-size="14.00" fill="#666666">[BASE TABLE]</text>
<polygon fill="none" stroke="black" points="2977.5,-724.8 2977.5,-755.6 3326.45,-755.6 3326.45,-724.8 2977.5,-724.8"/>
<text text-anchor="start" x="2984.5" y="-737" font-family="Arial" font-size="14.00">entitystatusid </text>
<text text-anchor="start" x="3070.1" y="-737" font-family="Arial" font-size="14.00" fill="#666666">[integer]</text>
<polygon fill="none" stroke="black" points="2977.5,-694 2977.5,-724.8 3326.45,-724.8 3326.45,-694 2977.5,-694"/>
<text text-anchor="start" x="2984.5" y="-706.2" font-family="Arial" font-size="14.00">entitystatus </text>
<text text-anchor="start" x="3059.2" y="-706.2" font-family="Arial" font-size="14.00" fill="#666666">[text]</text>
</g>
<!-- ndb.entityrelationship&#45;&gt;ndb.speleothementitystatuses -->
<g id="edge14" class="edge">
<title>ndb.entityrelationship:entitystatusid&#45;&gt;ndb.speleothementitystatuses:entitystatusid</title>
<path fill="none" stroke="black" d="M3310.91,-1065.51C3376.21,-1037.63 3397.02,-740.2 3327.45,-740.2"/>
<polygon fill="black" stroke="black" points="3311.07,-1065.48 3300.36,-1063.13 3305.85,-1066.57 3301.61,-1067.46 3301.61,-1067.46 3301.61,-1067.46 3305.85,-1066.57 3302.21,-1071.94 3311.07,-1065.48"/>
<text text-anchor="start" x="3307.95" y="-1077.6" font-family="Arial" font-size="10.00">FOREIGN KEY (entitystatusid) REFERENCES ndb.speleothementitystatuses(entitystatusid)</text>
</g>
<!-- ndb.sites -->
<g id="node3" class="node">
<title>ndb.sites</title>
<polygon fill="#efefef" stroke="none" points="1102.07,-443.6 1102.07,-479.2 1421.87,-479.2 1421.87,-443.6 1102.07,-443.6"/>
<polygon fill="none" stroke="black" points="1102.07,-443.6 1102.07,-479.2 1421.87,-479.2 1421.87,-443.6 1102.07,-443.6"/>
<text text-anchor="start" x="1167.98" y="-457" font-family="Arial Bold" font-size="18.00">ndb.sites</text>
<text text-anchor="start" x="1231.48" y="-457" font-family="Arial" font-size="14.00">    </text>
<text text-anchor="start" x="1262.6" y="-457" font-family="Arial" font-size="14.00" fill="#666666">[BASE TABLE]</text>
<polygon fill="none" stroke="black" points="1102.07,-412.8 1102.07,-443.6 1421.87,-443.6 1421.87,-412.8 1102.07,-412.8"/>
<text text-anchor="start" x="1109.07" y="-425" font-family="Arial" font-size="14.00">siteid </text>
<text text-anchor="start" x="1145.65" y="-425" font-family="Arial" font-size="14.00" fill="#666666">[integer]</text>
<polygon fill="none" stroke="black" points="1102.07,-382 1102.07,-412.8 1421.87,-412.8 1421.87,-382 1102.07,-382"/>
<text text-anchor="start" x="1109.07" y="-394.2" font-family="Arial" font-size="14.00">sitename </text>
<text text-anchor="start" x="1169.77" y="-394.2" font-family="Arial" font-size="14.00" fill="#666666">[varchar(128)]</text>
<polygon fill="none" stroke="black" points="1102.07,-351.2 1102.07,-382 1421.87,-382 1421.87,-351.2 1102.07,-351.2"/>
<text text-anchor="start" x="1109.07" y="-363.4" font-family="Arial" font-size="14.00">longitudeeast </text>
<text text-anchor="start" x="1196.25" y="-363.4" font-family="Arial" font-size="14.00" fill="#666666">[double precision]</text>
<polygon fill="none" stroke="black" points="1102.07,-320.4 1102.07,-351.2 1421.87,-351.2 1421.87,-320.4 1102.07,-320.4"/>
<text text-anchor="start" x="1109.07" y="-332.6" font-family="Arial" font-size="14.00">latitudenorth </text>
<text text-anchor="start" x="1190.02" y="-332.6" font-family="Arial" font-size="14.00" fill="#666666">[double precision]</text>
<polygon fill="none" stroke="black" points="1102.07,-289.6 1102.07,-320.4 1421.87,-320.4 1421.87,-289.6 1102.07,-289.6"/>
<text text-anchor="start" x="1109.07" y="-301.8" font-family="Arial" font-size="14.00">longitudewest </text>
<text text-anchor="start" x="1198.58" y="-301.8" font-family="Arial" font-size="14.00" fill="#666666">[double precision]</text>
<polygon fill="none" stroke="black" points="1102.07,-258.8 1102.07,-289.6 1421.87,-289.6 1421.87,-258.8 1102.07,-258.8"/>
<text text-anchor="start" x="1109.07" y="-271" font-family="Arial" font-size="14.00">latitudesouth </text>
<text text-anchor="start" x="1192.36" y="-271" font-family="Arial" font-size="14.00" fill="#666666">[double precision]</text>
<polygon fill="none" stroke="black" points="1102.07,-228 1102.07,-258.8 1421.87,-258.8 1421.87,-228 1102.07,-228"/>
<text text-anchor="start" x="1109.07" y="-240.2" font-family="Arial" font-size="14.00">altitude </text>
<text text-anchor="start" x="1158.11" y="-240.2" font-family="Arial" font-size="14.00" fill="#666666">[double precision]</text>
<polygon fill="none" stroke="black" points="1102.07,-197.2 1102.07,-228 1421.87,-228 1421.87,-197.2 1102.07,-197.2"/>
<text text-anchor="start" x="1109.07" y="-209.4" font-family="Arial" font-size="14.00">area </text>
<text text-anchor="start" x="1140.98" y="-209.4" font-family="Arial" font-size="14.00" fill="#666666">[double precision]</text>
<polygon fill="none" stroke="black" points="1102.07,-166.4 1102.07,-197.2 1421.87,-197.2 1421.87,-166.4 1102.07,-166.4"/>
<text text-anchor="start" x="1109.07" y="-178.6" font-family="Arial" font-size="14.00">sitedescription </text>
<text text-anchor="start" x="1202.45" y="-178.6" font-family="Arial" font-size="14.00" fill="#666666">[text]</text>
<polygon fill="none" stroke="black" points="1102.07,-135.6 1102.07,-166.4 1421.87,-166.4 1421.87,-135.6 1102.07,-135.6"/>
<text text-anchor="start" x="1109.07" y="-147.8" font-family="Arial" font-size="14.00">notes </text>
<text text-anchor="start" x="1147.21" y="-147.8" font-family="Arial" font-size="14.00" fill="#666666">[text]</text>
<polygon fill="none" stroke="black" points="1102.07,-104.8 1102.07,-135.6 1421.87,-135.6 1421.87,-104.8 1102.07,-104.8"/>
<text text-anchor="start" x="1109.07" y="-117" font-family="Arial" font-size="14.00">recdatecreated </text>
<text text-anchor="start" x="1206.36" y="-117" font-family="Arial" font-size="14.00" fill="#666666">[timestamp(0) without time zone]</text>
<polygon fill="none" stroke="black" points="1102.07,-74 1102.07,-104.8 1421.87,-104.8 1421.87,-74 1102.07,-74"/>
<text text-anchor="start" x="1109.07" y="-86.2" font-family="Arial" font-size="14.00">recdatemodified </text>
<text text-anchor="start" x="1212.58" y="-86.2" font-family="Arial" font-size="14.00" fill="#666666">[timestamp(0) without time zone]</text>
<polygon fill="none" stroke="black" points="1102.07,-43.2 1102.07,-74 1421.87,-74 1421.87,-43.2 1102.07,-43.2"/>
<text text-anchor="start" x="1109.07" y="-55.4" font-family="Arial" font-size="14.00">geog </text>
<text text-anchor="start" x="1144.11" y="-55.4" font-family="Arial" font-size="14.00" fill="#666666">[geography]</text>
</g>
<!-- ndb.speleothems&#45;&gt;ndb.sites -->
<g id="edge2" class="edge">
<title>ndb.speleothems:siteid&#45;&gt;ndb.sites:siteid</title>
<path fill="none" stroke="black" d="M1757.13,-832.44C1577.93,-826.79 1583.33,-673.2 1473.97,-522.4 1446.01,-483.84 1470.5,-428.2 1422.87,-428.2"/>
<polygon fill="black" stroke="black" points="1757.16,-832.44 1767.08,-837.09 1762.49,-832.52 1766.82,-832.59 1766.82,-832.59 1766.82,-832.59 1762.49,-832.52 1767.22,-828.1 1757.16,-832.44"/>
<text text-anchor="start" x="1404.85" y="-842.6" font-family="Arial" font-size="10.00">FOREIGN KEY (siteid) REFERENCES ndb.sites(siteid) ON DELETE CASCADE</text>
</g>
<!-- ndb.relativeages -->
<g id="node11" class="node">
<title>ndb.relativeages</title>
<polygon fill="#efefef" stroke="none" points="1526.07,-412.8 1526.07,-448.4 1845.87,-448.4 1845.87,-412.8 1526.07,-412.8"/>
<polygon fill="none" stroke="black" points="1526.07,-412.8 1526.07,-448.4 1845.87,-448.4 1845.87,-412.8 1526.07,-412.8"/>
<text text-anchor="start" x="1565" y="-426.2" font-family="Arial Bold" font-size="18.00">ndb.relativeages</text>
<text text-anchor="start" x="1682.45" y="-426.2" font-family="Arial" font-size="14.00">    </text>
<text text-anchor="start" x="1713.57" y="-426.2" font-family="Arial" font-size="14.00" fill="#666666">[BASE TABLE]</text>
<polygon fill="none" stroke="black" points="1526.07,-382 1526.07,-412.8 1845.87,-412.8 1845.87,-382 1526.07,-382"/>
<text text-anchor="start" x="1533.07" y="-394.2" font-family="Arial" font-size="14.00">relativeageid </text>
<text text-anchor="start" x="1616.35" y="-394.2" font-family="Arial" font-size="14.00" fill="#666666">[integer]</text>
<polygon fill="none" stroke="black" points="1526.07,-351.2 1526.07,-382 1845.87,-382 1845.87,-351.2 1526.07,-351.2"/>
<text text-anchor="start" x="1533.07" y="-363.4" font-family="Arial" font-size="14.00">relativeageunitid </text>
<text text-anchor="start" x="1638.92" y="-363.4" font-family="Arial" font-size="14.00" fill="#666666">[integer]</text>
<polygon fill="none" stroke="black" points="1526.07,-320.4 1526.07,-351.2 1845.87,-351.2 1845.87,-320.4 1526.07,-320.4"/>
<text text-anchor="start" x="1533.07" y="-332.6" font-family="Arial" font-size="14.00">relativeagescaleid </text>
<text text-anchor="start" x="1649.03" y="-332.6" font-family="Arial" font-size="14.00" fill="#666666">[integer]</text>
<polygon fill="none" stroke="black" points="1526.07,-289.6 1526.07,-320.4 1845.87,-320.4 1845.87,-289.6 1526.07,-289.6"/>
<text text-anchor="start" x="1533.07" y="-301.8" font-family="Arial" font-size="14.00">relativeage </text>
<text text-anchor="start" x="1605.45" y="-301.8" font-family="Arial" font-size="14.00" fill="#666666">[varchar(64)]</text>
<polygon fill="none" stroke="black" points="1526.07,-258.8 1526.07,-289.6 1845.87,-289.6 1845.87,-258.8 1526.07,-258.8"/>
<text text-anchor="start" x="1533.07" y="-271" font-family="Arial" font-size="14.00">c14ageyounger </text>
<text text-anchor="start" x="1633.49" y="-271" font-family="Arial" font-size="14.00" fill="#666666">[double precision]</text>
<polygon fill="none" stroke="black" points="1526.07,-228 1526.07,-258.8 1845.87,-258.8 1845.87,-228 1526.07,-228"/>
<text text-anchor="start" x="1533.07" y="-240.2" font-family="Arial" font-size="14.00">c14ageolder </text>
<text text-anchor="start" x="1614.02" y="-240.2" font-family="Arial" font-size="14.00" fill="#666666">[double precision]</text>
<polygon fill="none" stroke="black" points="1526.07,-197.2 1526.07,-228 1845.87,-228 1845.87,-197.2 1526.07,-197.2"/>
<text text-anchor="start" x="1533.07" y="-209.4" font-family="Arial" font-size="14.00">calageyounger </text>
<text text-anchor="start" x="1628.81" y="-209.4" font-family="Arial" font-size="14.00" fill="#666666">[double precision]</text>
<polygon fill="none" stroke="black" points="1526.07,-166.4 1526.07,-197.2 1845.87,-197.2 1845.87,-166.4 1526.07,-166.4"/>
<text text-anchor="start" x="1533.07" y="-178.6" font-family="Arial" font-size="14.00">calageolder </text>
<text text-anchor="start" x="1609.35" y="-178.6" font-family="Arial" font-size="14.00" fill="#666666">[double precision]</text>
<polygon fill="none" stroke="black" points="1526.07,-135.6 1526.07,-166.4 1845.87,-166.4 1845.87,-135.6 1526.07,-135.6"/>
<text text-anchor="start" x="1533.07" y="-147.8" font-family="Arial" font-size="14.00">notes </text>
<text text-anchor="start" x="1571.21" y="-147.8" font-family="Arial" font-size="14.00" fill="#666666">[text]</text>
<polygon fill="none" stroke="black" points="1526.07,-104.8 1526.07,-135.6 1845.87,-135.6 1845.87,-104.8 1526.07,-104.8"/>
<text text-anchor="start" x="1533.07" y="-117" font-family="Arial" font-size="14.00">recdatecreated </text>
<text text-anchor="start" x="1630.36" y="-117" font-family="Arial" font-size="14.00" fill="#666666">[timestamp(0) without time zone]</text>
<polygon fill="none" stroke="black" points="1526.07,-74 1526.07,-104.8 1845.87,-104.8 1845.87,-74 1526.07,-74"/>
<text text-anchor="start" x="1533.07" y="-86.2" font-family="Arial" font-size="14.00">recdatemodified </text>
<text text-anchor="start" x="1636.58" y="-86.2" font-family="Arial" font-size="14.00" fill="#666666">[timestamp(0) without time zone]</text>
</g>
<!-- ndb.speleothems&#45;&gt;ndb.relativeages -->
<g id="edge11" class="edge">
<title>ndb.speleothems:rockageid&#45;&gt;ndb.relativeages:relativeageid</title>
<path fill="none" stroke="black" d="M1757.09,-708.55C1704.87,-699.29 1741.94,-615.88 1768.49,-558.4 1787.54,-517.15 1826.74,-532.81 1845.87,-491.6 1863.5,-453.62 1888.74,-397.4 1846.87,-397.4"/>
<polygon fill="black" stroke="black" points="1757.19,-708.56 1766.79,-713.86 1762.5,-708.99 1766.82,-709.35 1766.82,-709.35 1766.82,-709.35 1762.5,-708.99 1767.52,-704.89 1757.19,-708.56"/>
<text text-anchor="start" x="1428.7" y="-719.4" font-family="Arial" font-size="10.00">FOREIGN KEY (rockageid) REFERENCES ndb.relativeages(relativeageid)</text>
</g>
<!-- ndb.variableunits -->
<g id="node12" class="node">
<title>ndb.variableunits</title>
<polygon fill="#efefef" stroke="none" points="1950.07,-305 1950.07,-340.6 2269.87,-340.6 2269.87,-305 1950.07,-305"/>
<polygon fill="none" stroke="black" points="1950.07,-305 1950.07,-340.6 2269.87,-340.6 2269.87,-305 1950.07,-305"/>
<text text-anchor="start" x="1985.49" y="-318.4" font-family="Arial Bold" font-size="18.00">ndb.variableunits</text>
<text text-anchor="start" x="2109.96" y="-318.4" font-family="Arial" font-size="14.00">    </text>
<text text-anchor="start" x="2141.08" y="-318.4" font-family="Arial" font-size="14.00" fill="#666666">[BASE TABLE]</text>
<polygon fill="none" stroke="black" points="1950.07,-274.2 1950.07,-305 2269.87,-305 2269.87,-274.2 1950.07,-274.2"/>
<text text-anchor="start" x="1957.07" y="-286.4" font-family="Arial" font-size="14.00">variableunitsid </text>
<text text-anchor="start" x="2050.46" y="-286.4" font-family="Arial" font-size="14.00" fill="#666666">[integer]</text>
<polygon fill="none" stroke="black" points="1950.07,-243.4 1950.07,-274.2 2269.87,-274.2 2269.87,-243.4 1950.07,-243.4"/>
<text text-anchor="start" x="1957.07" y="-255.6" font-family="Arial" font-size="14.00">variableunits </text>
<text text-anchor="start" x="2039.56" y="-255.6" font-family="Arial" font-size="14.00" fill="#666666">[varchar(64)]</text>
<polygon fill="none" stroke="black" points="1950.07,-212.6 1950.07,-243.4 2269.87,-243.4 2269.87,-212.6 1950.07,-212.6"/>
<text text-anchor="start" x="1957.07" y="-224.8" font-family="Arial" font-size="14.00">recdatecreated </text>
<text text-anchor="start" x="2054.36" y="-224.8" font-family="Arial" font-size="14.00" fill="#666666">[timestamp(0) without time zone]</text>
<polygon fill="none" stroke="black" points="1950.07,-181.8 1950.07,-212.6 2269.87,-212.6 2269.87,-181.8 1950.07,-181.8"/>
<text text-anchor="start" x="1957.07" y="-194" font-family="Arial" font-size="14.00">recdatemodified </text>
<text text-anchor="start" x="2060.58" y="-194" font-family="Arial" font-size="14.00" fill="#666666">[timestamp(0) without time zone]</text>
</g>
<!-- ndb.speleothems&#45;&gt;ndb.variableunits -->
<g id="edge12" class="edge">
<title>ndb.speleothems:entrancedistanceunits&#45;&gt;ndb.variableunits:variableunitsid</title>
<path fill="none" stroke="black" d="M2038.6,-647.27C2173.59,-631.89 1789.67,-289.6 1949.07,-289.6"/>
<polygon fill="black" stroke="black" points="2038.78,-647.26 2028.56,-643.29 2033.45,-647.54 2029.13,-647.76 2029.13,-647.76 2029.13,-647.76 2033.45,-647.54 2029.03,-652.28 2038.78,-647.26"/>
<text text-anchor="start" x="2035.46" y="-657.8" font-family="Arial" font-size="10.00">FOREIGN KEY (entrancedistanceunits) REFERENCES ndb.variableunits(variableunitsid)</text>
</g>
<!-- ndb.speleothemtypes -->
<g id="node13" class="node">
<title>ndb.speleothemtypes</title>
<polygon fill="#efefef" stroke="none" points="2373.99,-305 2373.99,-340.6 2663.95,-340.6 2663.95,-305 2373.99,-305"/>
<polygon fill="none" stroke="black" points="2373.99,-305 2373.99,-340.6 2663.95,-340.6 2663.95,-305 2373.99,-305"/>
<text text-anchor="start" x="2380.99" y="-318.4" font-family="Arial Bold" font-size="18.00">ndb.speleothemtypes</text>
<text text-anchor="start" x="2532.46" y="-318.4" font-family="Arial" font-size="14.00">    </text>
<text text-anchor="start" x="2563.58" y="-318.4" font-family="Arial" font-size="14.00" fill="#666666">[BASE TABLE]</text>
<polygon fill="none" stroke="black" points="2373.99,-274.2 2373.99,-305 2663.95,-305 2663.95,-274.2 2373.99,-274.2"/>
<text text-anchor="start" x="2380.99" y="-286.4" font-family="Arial" font-size="14.00">speleothemtypeid </text>
<text text-anchor="start" x="2494.62" y="-286.4" font-family="Arial" font-size="14.00" fill="#666666">[integer]</text>
<polygon fill="none" stroke="black" points="2373.99,-243.4 2373.99,-274.2 2663.95,-274.2 2663.95,-243.4 2373.99,-243.4"/>
<text text-anchor="start" x="2380.99" y="-255.6" font-family="Arial" font-size="14.00">speleothemtype </text>
<text text-anchor="start" x="2483.72" y="-255.6" font-family="Arial" font-size="14.00" fill="#666666">[varchar(50)]</text>
<polygon fill="none" stroke="black" points="2373.99,-212.6 2373.99,-243.4 2663.95,-243.4 2663.95,-212.6 2373.99,-212.6"/>
<text text-anchor="start" x="2380.99" y="-224.8" font-family="Arial" font-size="14.00">speleothemtypenotes </text>
<text text-anchor="start" x="2517.97" y="-224.8" font-family="Arial" font-size="14.00" fill="#666666">[text]</text>
<polygon fill="none" stroke="black" points="2373.99,-181.8 2373.99,-212.6 2663.95,-212.6 2663.95,-181.8 2373.99,-181.8"/>
<text text-anchor="start" x="2380.99" y="-194" font-family="Arial" font-size="14.00">speleothemtypepublicationid </text>
<text text-anchor="start" x="2561.56" y="-194" font-family="Arial" font-size="14.00" fill="#666666">[integer]</text>
</g>
<!-- ndb.speleothems&#45;&gt;ndb.speleothemtypes -->
<g id="edge13" class="edge">
<title>ndb.speleothems:speleothemtypeid&#45;&gt;ndb.speleothemtypes:speleothemtypeid</title>
<path fill="none" stroke="black" d="M2038.8,-616.71C2113.47,-612.87 2278.06,-570.75 2321.97,-522.4 2393.19,-443.99 2267.07,-289.6 2372.99,-289.6"/>
<polygon fill="black" stroke="black" points="2038.79,-616.71 2028.67,-612.49 2033.46,-616.86 2029.13,-616.98 2029.13,-616.98 2029.13,-616.98 2033.46,-616.86 2028.92,-621.49 2038.79,-616.71"/>
<text text-anchor="start" x="2035.46" y="-627" font-family="Arial" font-size="10.00">FOREIGN KEY (speleothemtypeid) REFERENCES ndb.speleothemtypes(speleothemtypeid)</text>
</g>
<!-- ndb.entitydripheight -->
<g id="node4" class="node">
<title>ndb.entitydripheight</title>
<polygon fill="#efefef" stroke="none" points="136.49,-1129.2 136.49,-1164.8 421.46,-1164.8 421.46,-1129.2 136.49,-1129.2"/>
<polygon fill="none" stroke="black" points="136.49,-1129.2 136.49,-1164.8 421.46,-1164.8 421.46,-1129.2 136.49,-1129.2"/>
<text text-anchor="start" x="143.49" y="-1142.6" font-family="Arial Bold" font-size="18.00">ndb.entitydripheight</text>
<text text-anchor="start" x="289.97" y="-1142.6" font-family="Arial" font-size="14.00">    </text>
<text text-anchor="start" x="321.08" y="-1142.6" font-family="Arial" font-size="14.00" fill="#666666">[BASE TABLE]</text>
<polygon fill="none" stroke="black" points="136.49,-1098.4 136.49,-1129.2 421.46,-1129.2 421.46,-1098.4 136.49,-1098.4"/>
<text text-anchor="start" x="143.49" y="-1110.6" font-family="Arial" font-size="14.00">entityid </text>
<text text-anchor="start" x="191.74" y="-1110.6" font-family="Arial" font-size="14.00" fill="#666666">[integer]</text>
<polygon fill="none" stroke="black" points="136.49,-1067.6 136.49,-1098.4 421.46,-1098.4 421.46,-1067.6 136.49,-1067.6"/>
<text text-anchor="start" x="143.49" y="-1079.8" font-family="Arial" font-size="14.00">speleothemdriptypeid </text>
<text text-anchor="start" x="280.46" y="-1079.8" font-family="Arial" font-size="14.00" fill="#666666">[integer]</text>
<polygon fill="none" stroke="black" points="136.49,-1036.8 136.49,-1067.6 421.46,-1067.6 421.46,-1036.8 136.49,-1036.8"/>
<text text-anchor="start" x="143.49" y="-1049" font-family="Arial" font-size="14.00">entitydripheight </text>
<text text-anchor="start" x="242.33" y="-1049" font-family="Arial" font-size="14.00" fill="#666666">[real]</text>
<polygon fill="none" stroke="black" points="136.49,-1006 136.49,-1036.8 421.46,-1036.8 421.46,-1006 136.49,-1006"/>
<text text-anchor="start" x="143.49" y="-1018.2" font-family="Arial" font-size="14.00">entitydripheightunit </text>
<text text-anchor="start" x="264.9" y="-1018.2" font-family="Arial" font-size="14.00" fill="#666666">[integer]</text>
</g>
<!-- ndb.entitydripheight&#45;&gt;ndb.speleothems -->
<g id="edge4" class="edge">
<title>ndb.entitydripheight:entityid&#45;&gt;ndb.speleothems:entityid</title>
<path fill="none" stroke="black" d="M432.83,-1112.87C485.62,-1102.36 421.97,-1005.1 473.97,-962.8 586.32,-871.4 1622.66,-801.8 1767.49,-801.8"/>
<polygon fill="black" stroke="black" points="432.75,-1112.88 422.39,-1109.29 427.44,-1113.36 423.12,-1113.74 423.12,-1113.74 423.12,-1113.74 427.44,-1113.36 423.19,-1118.25 432.75,-1112.88"/>
<text text-anchor="start" x="7" y="-1123.8" font-family="Arial" font-size="10.00">FOREIGN KEY (entityid) REFERENCES ndb.speleothems(entityid) ON DELETE CASCADE</text>
</g>
<!-- ndb.entityvegetationcover -->
<g id="node5" class="node">
<title>ndb.entityvegetationcover</title>
<polygon fill="#efefef" stroke="none" points="526.01,-1129.2 526.01,-1164.8 851.94,-1164.8 851.94,-1129.2 526.01,-1129.2"/>
<polygon fill="none" stroke="black" points="526.01,-1129.2 526.01,-1164.8 851.94,-1164.8 851.94,-1129.2 526.01,-1129.2"/>
<text text-anchor="start" x="533.01" y="-1142.6" font-family="Arial Bold" font-size="18.00">ndb.entityvegetationcover</text>
<text text-anchor="start" x="720.45" y="-1142.6" font-family="Arial" font-size="14.00">    </text>
<text text-anchor="start" x="751.56" y="-1142.6" font-family="Arial" font-size="14.00" fill="#666666">[BASE TABLE]</text>
<polygon fill="none" stroke="black" points="526.01,-1098.4 526.01,-1129.2 851.94,-1129.2 851.94,-1098.4 526.01,-1098.4"/>
<text text-anchor="start" x="533.01" y="-1110.6" font-family="Arial" font-size="14.00">entityid </text>
<text text-anchor="start" x="581.26" y="-1110.6" font-family="Arial" font-size="14.00" fill="#666666">[integer]</text>
<polygon fill="none" stroke="black" points="526.01,-1067.6 526.01,-1098.4 851.94,-1098.4 851.94,-1067.6 526.01,-1067.6"/>
<text text-anchor="start" x="533.01" y="-1079.8" font-family="Arial" font-size="14.00">vegetationcovertypeid </text>
<text text-anchor="start" x="673.1" y="-1079.8" font-family="Arial" font-size="14.00" fill="#666666">[integer]</text>
<polygon fill="none" stroke="black" points="526.01,-1036.8 526.01,-1067.6 851.94,-1067.6 851.94,-1036.8 526.01,-1036.8"/>
<text text-anchor="start" x="533.01" y="-1049" font-family="Arial" font-size="14.00">vegetationcoverpercent </text>
<text text-anchor="start" x="682.44" y="-1049" font-family="Arial" font-size="14.00" fill="#666666">[integer]</text>
<polygon fill="none" stroke="black" points="526.01,-1006 526.01,-1036.8 851.94,-1036.8 851.94,-1006 526.01,-1006"/>
<text text-anchor="start" x="533.01" y="-1018.2" font-family="Arial" font-size="14.00">vegetationcovernotes </text>
<text text-anchor="start" x="669.99" y="-1018.2" font-family="Arial" font-size="14.00" fill="#666666">[text]</text>
</g>
<!-- ndb.entityvegetationcover&#45;&gt;ndb.speleothems -->
<g id="edge5" class="edge">
<title>ndb.entityvegetationcover:entityid&#45;&gt;ndb.speleothems:entityid</title>
<path fill="none" stroke="black" d="M863.31,-1112.89C916.14,-1102.54 853.39,-1006.68 903.97,-962.8 1051.42,-834.88 1572.29,-801.8 1767.49,-801.8"/>
<polygon fill="black" stroke="black" points="863.23,-1112.9 852.87,-1109.29 857.92,-1113.36 853.6,-1113.74 853.6,-1113.74 853.6,-1113.74 857.92,-1113.36 853.66,-1118.25 863.23,-1112.9"/>
<text text-anchor="start" x="648.71" y="-1097.8" font-family="Arial" font-size="10.00">FOREIGN KEY (entityid) REFERENCES ndb.speleothems(entityid) ON DELETE CASCADE</text>
</g>
<!-- ndb.entitylandusecover -->
<g id="node6" class="node">
<title>ndb.entitylandusecover</title>
<polygon fill="#efefef" stroke="none" points="956,-1129.2 956,-1164.8 1261.94,-1164.8 1261.94,-1129.2 956,-1129.2"/>
<polygon fill="none" stroke="black" points="956,-1129.2 956,-1164.8 1261.94,-1164.8 1261.94,-1129.2 956,-1129.2"/>
<text text-anchor="start" x="963" y="-1142.6" font-family="Arial Bold" font-size="18.00">ndb.entitylandusecover</text>
<text text-anchor="start" x="1130.45" y="-1142.6" font-family="Arial" font-size="14.00">    </text>
<text text-anchor="start" x="1161.57" y="-1142.6" font-family="Arial" font-size="14.00" fill="#666666">[BASE TABLE]</text>
<polygon fill="none" stroke="black" points="956,-1098.4 956,-1129.2 1261.94,-1129.2 1261.94,-1098.4 956,-1098.4"/>
<text text-anchor="start" x="963" y="-1110.6" font-family="Arial" font-size="14.00">entityid </text>
<text text-anchor="start" x="1011.25" y="-1110.6" font-family="Arial" font-size="14.00" fill="#666666">[integer]</text>
<polygon fill="none" stroke="black" points="956,-1067.6 956,-1098.4 1261.94,-1098.4 1261.94,-1067.6 956,-1067.6"/>
<text text-anchor="start" x="963" y="-1079.8" font-family="Arial" font-size="14.00">landusecovertypeid </text>
<text text-anchor="start" x="1087.53" y="-1079.8" font-family="Arial" font-size="14.00" fill="#666666">[integer]</text>
<polygon fill="none" stroke="black" points="956,-1036.8 956,-1067.6 1261.94,-1067.6 1261.94,-1036.8 956,-1036.8"/>
<text text-anchor="start" x="963" y="-1049" font-family="Arial" font-size="14.00">landusecoverpercent </text>
<text text-anchor="start" x="1096.87" y="-1049" font-family="Arial" font-size="14.00" fill="#666666">[integer]</text>
<polygon fill="none" stroke="black" points="956,-1006 956,-1036.8 1261.94,-1036.8 1261.94,-1006 956,-1006"/>
<text text-anchor="start" x="963" y="-1018.2" font-family="Arial" font-size="14.00">landusecovernotes </text>
<text text-anchor="start" x="1084.42" y="-1018.2" font-family="Arial" font-size="14.00" fill="#666666">[text]</text>
</g>
<!-- ndb.entitylandusecover&#45;&gt;ndb.speleothems -->
<g id="edge6" class="edge">
<title>ndb.entitylandusecover:entityid&#45;&gt;ndb.speleothems:entityid</title>
<path fill="none" stroke="black" d="M1273.02,-1112.98C1326.78,-1103.34 1266.89,-1010.61 1313.97,-962.8 1464.06,-810.41 1553.6,-801.8 1767.49,-801.8"/>
<polygon fill="black" stroke="black" points="1273.24,-1112.96 1262.91,-1109.29 1267.93,-1113.4 1263.61,-1113.75 1263.61,-1113.75 1263.61,-1113.75 1267.93,-1113.4 1263.64,-1118.26 1273.24,-1112.96"/>
<text text-anchor="start" x="1164.33" y="-1097.8" font-family="Arial" font-size="10.00">FOREIGN KEY (entityid) REFERENCES ndb.speleothems(entityid) ON DELETE CASCADE</text>
</g>
<!-- ndb.entitycovers -->
<g id="node7" class="node">
<title>ndb.entitycovers</title>
<polygon fill="#efefef" stroke="none" points="1365.99,-1129.2 1365.99,-1164.8 1623.95,-1164.8 1623.95,-1129.2 1365.99,-1129.2"/>
<polygon fill="none" stroke="black" points="1365.99,-1129.2 1365.99,-1164.8 1623.95,-1164.8 1623.95,-1129.2 1365.99,-1129.2"/>
<text text-anchor="start" x="1372.99" y="-1142.6" font-family="Arial Bold" font-size="18.00">ndb.entitycovers</text>
<text text-anchor="start" x="1492.46" y="-1142.6" font-family="Arial" font-size="14.00">    </text>
<text text-anchor="start" x="1523.58" y="-1142.6" font-family="Arial" font-size="14.00" fill="#666666">[BASE TABLE]</text>
<polygon fill="none" stroke="black" points="1365.99,-1098.4 1365.99,-1129.2 1623.95,-1129.2 1623.95,-1098.4 1365.99,-1098.4"/>
<text text-anchor="start" x="1372.99" y="-1110.6" font-family="Arial" font-size="14.00">entityid </text>
<text text-anchor="start" x="1421.24" y="-1110.6" font-family="Arial" font-size="14.00" fill="#666666">[integer]</text>
<polygon fill="none" stroke="black" points="1365.99,-1067.6 1365.99,-1098.4 1623.95,-1098.4 1623.95,-1067.6 1365.99,-1067.6"/>
<text text-anchor="start" x="1372.99" y="-1079.8" font-family="Arial" font-size="14.00">entitycoverid </text>
<text text-anchor="start" x="1455.48" y="-1079.8" font-family="Arial" font-size="14.00" fill="#666666">[integer]</text>
<polygon fill="none" stroke="black" points="1365.99,-1036.8 1365.99,-1067.6 1623.95,-1067.6 1623.95,-1036.8 1365.99,-1036.8"/>
<text text-anchor="start" x="1372.99" y="-1049" font-family="Arial" font-size="14.00">entitycoverthickness </text>
<text text-anchor="start" x="1502.94" y="-1049" font-family="Arial" font-size="14.00" fill="#666666">[real]</text>
<polygon fill="none" stroke="black" points="1365.99,-1006 1365.99,-1036.8 1623.95,-1036.8 1623.95,-1006 1365.99,-1006"/>
<text text-anchor="start" x="1372.99" y="-1018.2" font-family="Arial" font-size="14.00">entitycoverunits </text>
<text text-anchor="start" x="1474.15" y="-1018.2" font-family="Arial" font-size="14.00" fill="#666666">[integer]</text>
</g>
<!-- ndb.entitycovers&#45;&gt;ndb.speleothems -->
<g id="edge7" class="edge">
<title>ndb.entitycovers:entityid&#45;&gt;ndb.speleothems:entityid</title>
<path fill="none" stroke="black" d="M1635.19,-1113.1C1690.86,-1104.75 1648.53,-1024.03 1675.97,-962.8 1709.64,-887.69 1685.18,-801.8 1767.49,-801.8"/>
<polygon fill="black" stroke="black" points="1635.26,-1113.09 1624.98,-1109.29 1629.94,-1113.46 1625.62,-1113.75 1625.62,-1113.75 1625.62,-1113.75 1629.94,-1113.46 1625.6,-1118.27 1635.26,-1113.09"/>
<text text-anchor="start" x="1631.95" y="-1123.8" font-family="Arial" font-size="10.00">FOREIGN KEY (entityid) REFERENCES ndb.speleothems(entityid) ON DELETE CASCADE</text>
</g>
<!-- ndb.externalspeleothemdata -->
<g id="node8" class="node">
<title>ndb.externalspeleothemdata</title>
<polygon fill="#efefef" stroke="none" points="1728.02,-1129.2 1728.02,-1164.8 2067.93,-1164.8 2067.93,-1129.2 1728.02,-1129.2"/>
<polygon fill="none" stroke="black" points="1728.02,-1129.2 1728.02,-1164.8 2067.93,-1164.8 2067.93,-1129.2 1728.02,-1129.2"/>
<text text-anchor="start" x="1735.02" y="-1142.6" font-family="Arial Bold" font-size="18.00">ndb.externalspeleothemdata</text>
<text text-anchor="start" x="1936.44" y="-1142.6" font-family="Arial" font-size="14.00">    </text>
<text text-anchor="start" x="1967.56" y="-1142.6" font-family="Arial" font-size="14.00" fill="#666666">[BASE TABLE]</text>
<polygon fill="none" stroke="black" points="1728.02,-1098.4 1728.02,-1129.2 2067.93,-1129.2 2067.93,-1098.4 1728.02,-1098.4"/>
<text text-anchor="start" x="1735.02" y="-1110.6" font-family="Arial" font-size="14.00">entityid </text>
<text text-anchor="start" x="1783.27" y="-1110.6" font-family="Arial" font-size="14.00" fill="#666666">[integer]</text>
<polygon fill="none" stroke="black" points="1728.02,-1067.6 1728.02,-1098.4 2067.93,-1098.4 2067.93,-1067.6 1728.02,-1067.6"/>
<text text-anchor="start" x="1735.02" y="-1079.8" font-family="Arial" font-size="14.00">externalid </text>
<text text-anchor="start" x="1799.61" y="-1079.8" font-family="Arial" font-size="14.00" fill="#666666">[text]</text>
<polygon fill="none" stroke="black" points="1728.02,-1036.8 1728.02,-1067.6 2067.93,-1067.6 2067.93,-1036.8 1728.02,-1036.8"/>
<text text-anchor="start" x="1735.02" y="-1049" font-family="Arial" font-size="14.00">extdatabaseid </text>
<text text-anchor="start" x="1826.09" y="-1049" font-family="Arial" font-size="14.00" fill="#666666">[integer]</text>
<polygon fill="none" stroke="black" points="1728.02,-1006 1728.02,-1036.8 2067.93,-1036.8 2067.93,-1006 1728.02,-1006"/>
<text text-anchor="start" x="1735.02" y="-1018.2" font-family="Arial" font-size="14.00">externaldescription </text>
<text text-anchor="start" x="1856.42" y="-1018.2" font-family="Arial" font-size="14.00" fill="#666666">[text]</text>
</g>
<!-- ndb.externalspeleothemdata&#45;&gt;ndb.speleothems -->
<g id="edge8" class="edge">
<title>ndb.externalspeleothemdata:entityid&#45;&gt;ndb.speleothems:entityid</title>
<path fill="none" stroke="black" d="M2078.73,-1111.47C2134.66,-1082.92 2094.82,-801.8 2028.46,-801.8"/>
<polygon fill="black" stroke="black" points="2078.98,-1111.41 2068.21,-1109.34 2073.79,-1112.64 2069.58,-1113.65 2069.58,-1113.65 2069.58,-1113.65 2073.79,-1112.64 2070.29,-1118.1 2078.98,-1111.41"/>
<text text-anchor="start" x="1653.47" y="-1097.8" font-family="Arial" font-size="10.00">FOREIGN KEY (entityid) REFERENCES ndb.speleothems(entityid) ON DELETE CASCADE</text>
</g>
<!-- ndb.speleothemcollectionunit -->
<g id="node9" class="node">
<title>ndb.speleothemcollectionunit</title>
<polygon fill="#efefef" stroke="none" points="2172.5,-1098.4 2172.5,-1134 2523.44,-1134 2523.44,-1098.4 2172.5,-1098.4"/>
<polygon fill="none" stroke="black" points="2172.5,-1098.4 2172.5,-1134 2523.44,-1134 2523.44,-1098.4 2172.5,-1098.4"/>
<text text-anchor="start" x="2179.5" y="-1111.8" font-family="Arial Bold" font-size="18.00">ndb.speleothemcollectionunit</text>
<text text-anchor="start" x="2391.95" y="-1111.8" font-family="Arial" font-size="14.00">    </text>
<text text-anchor="start" x="2423.07" y="-1111.8" font-family="Arial" font-size="14.00" fill="#666666">[BASE TABLE]</text>
<polygon fill="none" stroke="black" points="2172.5,-1067.6 2172.5,-1098.4 2523.44,-1098.4 2523.44,-1067.6 2172.5,-1067.6"/>
<text text-anchor="start" x="2179.5" y="-1079.8" font-family="Arial" font-size="14.00">entityid </text>
<text text-anchor="start" x="2227.75" y="-1079.8" font-family="Arial" font-size="14.00" fill="#666666">[integer]</text>
<polygon fill="none" stroke="black" points="2172.5,-1036.8 2172.5,-1067.6 2523.44,-1067.6 2523.44,-1036.8 2172.5,-1036.8"/>
<text text-anchor="start" x="2179.5" y="-1049" font-family="Arial" font-size="14.00">collectionunitid </text>
<text text-anchor="start" x="2275.23" y="-1049" font-family="Arial" font-size="14.00" fill="#666666">[integer]</text>
</g>
<!-- ndb.speleothemcollectionunit&#45;&gt;ndb.speleothems -->
<g id="edge9" class="edge">
<title>ndb.speleothemcollectionunit:entityid&#45;&gt;ndb.speleothems:entityid</title>
<path fill="none" stroke="black" d="M2161.35,-1082.17C2117.32,-1074.28 2144.16,-1011.5 2119.97,-962.8 2083.36,-889.08 2110.77,-801.8 2028.46,-801.8"/>
<polygon fill="black" stroke="black" points="2161.2,-1082.16 2170.81,-1087.46 2166.52,-1082.59 2170.84,-1082.95 2170.84,-1082.95 2170.84,-1082.95 2166.52,-1082.59 2171.54,-1078.49 2161.2,-1082.16"/>
<text text-anchor="start" x="2178.5" y="-1093" font-family="Arial" font-size="10.00">FOREIGN KEY (entityid) REFERENCES ndb.speleothems(entityid) ON DELETE CASCADE</text>
</g>
<!-- ndb.entitygeology -->
<g id="node10" class="node">
<title>ndb.entitygeology</title>
<polygon fill="#efefef" stroke="none" points="2627.49,-1113.8 2627.49,-1149.4 2896.46,-1149.4 2896.46,-1113.8 2627.49,-1113.8"/>
<polygon fill="none" stroke="black" points="2627.49,-1113.8 2627.49,-1149.4 2896.46,-1149.4 2896.46,-1113.8 2627.49,-1113.8"/>
<text text-anchor="start" x="2634.49" y="-1127.2" font-family="Arial Bold" font-size="18.00">ndb.entitygeology</text>
<text text-anchor="start" x="2764.97" y="-1127.2" font-family="Arial" font-size="14.00">    </text>
<text text-anchor="start" x="2796.09" y="-1127.2" font-family="Arial" font-size="14.00" fill="#666666">[BASE TABLE]</text>
<polygon fill="none" stroke="black" points="2627.49,-1083 2627.49,-1113.8 2896.46,-1113.8 2896.46,-1083 2627.49,-1083"/>
<text text-anchor="start" x="2634.49" y="-1095.2" font-family="Arial" font-size="14.00">entityid </text>
<text text-anchor="start" x="2682.74" y="-1095.2" font-family="Arial" font-size="14.00" fill="#666666">[integer]</text>
<polygon fill="none" stroke="black" points="2627.49,-1052.2 2627.49,-1083 2896.46,-1083 2896.46,-1052.2 2627.49,-1052.2"/>
<text text-anchor="start" x="2634.49" y="-1064.4" font-family="Arial" font-size="14.00">speleothemgeologyid </text>
<text text-anchor="start" x="2770.69" y="-1064.4" font-family="Arial" font-size="14.00" fill="#666666">[integer]</text>
<polygon fill="none" stroke="black" points="2627.49,-1021.4 2627.49,-1052.2 2896.46,-1052.2 2896.46,-1021.4 2627.49,-1021.4"/>
<text text-anchor="start" x="2634.49" y="-1033.6" font-family="Arial" font-size="14.00">notes </text>
<text text-anchor="start" x="2672.62" y="-1033.6" font-family="Arial" font-size="14.00" fill="#666666">[text]</text>
</g>
<!-- ndb.entitygeology&#45;&gt;ndb.speleothems -->
<g id="edge10" class="edge">
<title>ndb.entitygeology:entityid&#45;&gt;ndb.speleothems:entityid</title>
<path fill="none" stroke="black" d="M2616.13,-1097.42C2569.15,-1087.46 2620.18,-1003.99 2575.97,-962.8 2483.19,-876.34 2155.28,-801.8 2028.46,-801.8"/>
<polygon fill="black" stroke="black" points="2616.2,-1097.43 2625.73,-1102.85 2621.51,-1097.93 2625.82,-1098.34 2625.82,-1098.34 2625.82,-1098.34 2621.51,-1097.93 2626.58,-1093.89 2616.2,-1097.43"/>
<text text-anchor="start" x="2633.49" y="-1108.4" font-family="Arial" font-size="10.00">FOREIGN KEY (entityid) REFERENCES ndb.speleothems(entityid) ON DELETE CASCADE</text>
</g>
</g>
</svg>
