<?xml version="1.0" encoding="UTF-8" standalone="no"?>
<!DOCTYPE svg PUBLIC "-//W3C//DTD SVG 1.1//EN"
 "http://www.w3.org/Graphics/SVG/1.1/DTD/svg11.dtd">
<!-- Generated by graphviz version 12.1.2 (20240928.0832)
 -->
<!-- Title: ndb.geochrontypes Pages: 1 -->
<svg width="2913pt" height="1616pt"
 viewBox="0.00 0.00 2912.83 1616.40" xmlns="http://www.w3.org/2000/svg" xmlns:xlink="http://www.w3.org/1999/xlink">
<g id="graph0" class="graph" transform="scale(1 1) rotate(0) translate(4 1612.4)">
<title>ndb.geochrontypes</title>
<polygon fill="white" stroke="none" points="-4,4 -4,-1612.4 2908.83,-1612.4 2908.83,4 -4,4"/>
<!-- ndb.geochrontypes -->
<g id="node1" class="node">
<title>ndb.geochrontypes</title>
<polygon fill="#efefef" stroke="none" points="910.26,-289.6 910.26,-325.2 1230.06,-325.2 1230.06,-289.6 910.26,-289.6"/>
<polygon fill="none" stroke="black" points="910.26,-289.6 910.26,-325.2 1230.06,-325.2 1230.06,-289.6 910.26,-289.6"/>
<text text-anchor="start" x="939.68" y="-303" font-family="Arial Bold" font-size="18.00">ndb.geochrontypes</text>
<text text-anchor="start" x="1076.15" y="-303" font-family="Arial" font-size="14.00">    </text>
<text text-anchor="start" x="1107.27" y="-303" font-family="Arial" font-size="14.00" fill="#666666">[BASE TABLE]</text>
<polygon fill="none" stroke="black" points="910.26,-258.8 910.26,-289.6 1230.06,-289.6 1230.06,-258.8 910.26,-258.8"/>
<text text-anchor="start" x="917.26" y="-271" font-family="Arial" font-size="14.00">geochrontype </text>
<text text-anchor="start" x="1005.99" y="-271" font-family="Arial" font-size="14.00" fill="#666666">[varchar(64)]</text>
<polygon fill="none" stroke="black" points="910.26,-228 910.26,-258.8 1230.06,-258.8 1230.06,-228 910.26,-228"/>
<text text-anchor="start" x="917.26" y="-240.2" font-family="Arial" font-size="14.00">geochrontypeid </text>
<text text-anchor="start" x="1016.89" y="-240.2" font-family="Arial" font-size="14.00" fill="#666666">[integer]</text>
<polygon fill="none" stroke="black" points="910.26,-197.2 910.26,-228 1230.06,-228 1230.06,-197.2 910.26,-197.2"/>
<text text-anchor="start" x="917.26" y="-209.4" font-family="Arial" font-size="14.00">recdatecreated </text>
<text text-anchor="start" x="1014.55" y="-209.4" font-family="Arial" font-size="14.00" fill="#666666">[timestamp(0) without time zone]</text>
<polygon fill="none" stroke="black" points="910.26,-166.4 910.26,-197.2 1230.06,-197.2 1230.06,-166.4 910.26,-166.4"/>
<text text-anchor="start" x="917.26" y="-178.6" font-family="Arial" font-size="14.00">recdatemodified </text>
<text text-anchor="start" x="1020.77" y="-178.6" font-family="Arial" font-size="14.00" fill="#666666">[timestamp(0) without time zone]</text>
<polygon fill="none" stroke="black" stroke-width="3" points="908.76,-164.9 908.76,-326.7 1231.56,-326.7 1231.56,-164.9 908.76,-164.9"/>
</g>
<!-- ndb.geochronology -->
<g id="node2" class="node">
<title>ndb.geochronology</title>
<polygon fill="#efefef" stroke="none" points="1337.26,-1002 1337.26,-1037.6 1657.06,-1037.6 1657.06,-1002 1337.26,-1002"/>
<polygon fill="none" stroke="black" points="1337.26,-1002 1337.26,-1037.6 1657.06,-1037.6 1657.06,-1002 1337.26,-1002"/>
<text text-anchor="start" x="1365.18" y="-1015.4" font-family="Arial Bold" font-size="18.00">ndb.geochronology</text>
<text text-anchor="start" x="1504.66" y="-1015.4" font-family="Arial" font-size="14.00">    </text>
<text text-anchor="start" x="1535.77" y="-1015.4" font-family="Arial" font-size="14.00" fill="#666666">[BASE TABLE]</text>
<polygon fill="none" stroke="black" points="1337.26,-971.2 1337.26,-1002 1657.06,-1002 1657.06,-971.2 1337.26,-971.2"/>
<text text-anchor="start" x="1344.26" y="-983.4" font-family="Arial" font-size="14.00">age </text>
<text text-anchor="start" x="1371.51" y="-983.4" font-family="Arial" font-size="14.00" fill="#666666">[double precision]</text>
<polygon fill="none" stroke="black" points="1337.26,-940.4 1337.26,-971.2 1657.06,-971.2 1657.06,-940.4 1337.26,-940.4"/>
<text text-anchor="start" x="1344.26" y="-952.6" font-family="Arial" font-size="14.00">agetypeid </text>
<text text-anchor="start" x="1408.87" y="-952.6" font-family="Arial" font-size="14.00" fill="#666666">[integer]</text>
<polygon fill="none" stroke="black" points="1337.26,-909.6 1337.26,-940.4 1657.06,-940.4 1657.06,-909.6 1337.26,-909.6"/>
<text text-anchor="start" x="1344.26" y="-921.8" font-family="Arial" font-size="14.00">delta13c </text>
<text text-anchor="start" x="1401.08" y="-921.8" font-family="Arial" font-size="14.00" fill="#666666">[double precision]</text>
<polygon fill="none" stroke="black" points="1337.26,-878.8 1337.26,-909.6 1657.06,-909.6 1657.06,-878.8 1337.26,-878.8"/>
<text text-anchor="start" x="1344.26" y="-891" font-family="Arial" font-size="14.00">errorolder </text>
<text text-anchor="start" x="1408.84" y="-891" font-family="Arial" font-size="14.00" fill="#666666">[double precision]</text>
<polygon fill="none" stroke="black" points="1337.26,-848 1337.26,-878.8 1657.06,-878.8 1657.06,-848 1337.26,-848"/>
<text text-anchor="start" x="1344.26" y="-860.2" font-family="Arial" font-size="14.00">erroryounger </text>
<text text-anchor="start" x="1428.3" y="-860.2" font-family="Arial" font-size="14.00" fill="#666666">[double precision]</text>
<polygon fill="none" stroke="black" points="1337.26,-817.2 1337.26,-848 1657.06,-848 1657.06,-817.2 1337.26,-817.2"/>
<text text-anchor="start" x="1344.26" y="-829.4" font-family="Arial" font-size="14.00">geochronid </text>
<text text-anchor="start" x="1417.43" y="-829.4" font-family="Arial" font-size="14.00" fill="#666666">[integer]</text>
<polygon fill="none" stroke="black" points="1337.26,-786.4 1337.26,-817.2 1657.06,-817.2 1657.06,-786.4 1337.26,-786.4"/>
<text text-anchor="start" x="1344.26" y="-798.6" font-family="Arial" font-size="14.00">geochrontypeid </text>
<text text-anchor="start" x="1443.89" y="-798.6" font-family="Arial" font-size="14.00" fill="#666666">[integer]</text>
<polygon fill="none" stroke="black" points="1337.26,-755.6 1337.26,-786.4 1657.06,-786.4 1657.06,-755.6 1337.26,-755.6"/>
<text text-anchor="start" x="1344.26" y="-767.8" font-family="Arial" font-size="14.00">infinite </text>
<text text-anchor="start" x="1388.62" y="-767.8" font-family="Arial" font-size="14.00" fill="#666666">[boolean]</text>
<polygon fill="none" stroke="black" points="1337.26,-724.8 1337.26,-755.6 1657.06,-755.6 1657.06,-724.8 1337.26,-724.8"/>
<text text-anchor="start" x="1344.26" y="-737" font-family="Arial" font-size="14.00">labnumber </text>
<text text-anchor="start" x="1414.3" y="-737" font-family="Arial" font-size="14.00" fill="#666666">[varchar(40)]</text>
<polygon fill="none" stroke="black" points="1337.26,-694 1337.26,-724.8 1657.06,-724.8 1657.06,-694 1337.26,-694"/>
<text text-anchor="start" x="1344.26" y="-706.2" font-family="Arial" font-size="14.00">materialdated </text>
<text text-anchor="start" x="1432.98" y="-706.2" font-family="Arial" font-size="14.00" fill="#666666">[varchar(255)]</text>
<polygon fill="none" stroke="black" points="1337.26,-663.2 1337.26,-694 1657.06,-694 1657.06,-663.2 1337.26,-663.2"/>
<text text-anchor="start" x="1344.26" y="-675.4" font-family="Arial" font-size="14.00">notes </text>
<text text-anchor="start" x="1382.4" y="-675.4" font-family="Arial" font-size="14.00" fill="#666666">[text]</text>
<polygon fill="none" stroke="black" points="1337.26,-632.4 1337.26,-663.2 1657.06,-663.2 1657.06,-632.4 1337.26,-632.4"/>
<text text-anchor="start" x="1344.26" y="-644.6" font-family="Arial" font-size="14.00">recdatecreated </text>
<text text-anchor="start" x="1441.55" y="-644.6" font-family="Arial" font-size="14.00" fill="#666666">[timestamp(0) without time zone]</text>
<polygon fill="none" stroke="black" points="1337.26,-601.6 1337.26,-632.4 1657.06,-632.4 1657.06,-601.6 1337.26,-601.6"/>
<text text-anchor="start" x="1344.26" y="-613.8" font-family="Arial" font-size="14.00">recdatemodified </text>
<text text-anchor="start" x="1447.77" y="-613.8" font-family="Arial" font-size="14.00" fill="#666666">[timestamp(0) without time zone]</text>
<polygon fill="none" stroke="black" points="1337.26,-570.8 1337.26,-601.6 1657.06,-601.6 1657.06,-570.8 1337.26,-570.8"/>
<text text-anchor="start" x="1344.26" y="-583" font-family="Arial" font-size="14.00">sampleid </text>
<text text-anchor="start" x="1404.18" y="-583" font-family="Arial" font-size="14.00" fill="#666666">[integer]</text>
</g>
<!-- ndb.geochronology&#45;&gt;ndb.geochrontypes -->
<g id="edge1" class="edge">
<title>ndb.geochronology:geochrontypeid&#45;&gt;ndb.geochrontypes:geochrontypeid</title>
<path fill="none" stroke="black" d="M1326.95,-797.31C1275.12,-744.46 1290.87,-243.4 1231.06,-243.4"/>
<polygon fill="black" stroke="black" points="1326.96,-797.31 1334.01,-805.71 1331.76,-799.63 1335.66,-801.51 1335.66,-801.51 1335.66,-801.51 1331.76,-799.63 1337.92,-797.6 1326.96,-797.31"/>
<text text-anchor="start" x="726.27" y="-811.8" font-family="Arial" font-size="10.00">FOREIGN KEY (geochrontypeid) REFERENCES ndb.geochrontypes(geochrontypeid) ON UPDATE CASCADE ON DELETE CASCADE</text>
</g>
<!-- ndb.agetypes -->
<g id="node3" class="node">
<title>ndb.agetypes</title>
<polygon fill="#efefef" stroke="none" points="1337.26,-320.4 1337.26,-356 1657.06,-356 1657.06,-320.4 1337.26,-320.4"/>
<polygon fill="none" stroke="black" points="1337.26,-320.4 1337.26,-356 1657.06,-356 1657.06,-320.4 1337.26,-320.4"/>
<text text-anchor="start" x="1387.68" y="-333.8" font-family="Arial Bold" font-size="18.00">ndb.agetypes</text>
<text text-anchor="start" x="1482.16" y="-333.8" font-family="Arial" font-size="14.00">    </text>
<text text-anchor="start" x="1513.27" y="-333.8" font-family="Arial" font-size="14.00" fill="#666666">[BASE TABLE]</text>
<polygon fill="none" stroke="black" points="1337.26,-289.6 1337.26,-320.4 1657.06,-320.4 1657.06,-289.6 1337.26,-289.6"/>
<text text-anchor="start" x="1344.26" y="-301.8" font-family="Arial" font-size="14.00">agetype </text>
<text text-anchor="start" x="1397.97" y="-301.8" font-family="Arial" font-size="14.00" fill="#666666">[varchar(64)]</text>
<polygon fill="none" stroke="black" points="1337.26,-258.8 1337.26,-289.6 1657.06,-289.6 1657.06,-258.8 1337.26,-258.8"/>
<text text-anchor="start" x="1344.26" y="-271" font-family="Arial" font-size="14.00">agetypeid </text>
<text text-anchor="start" x="1408.87" y="-271" font-family="Arial" font-size="14.00" fill="#666666">[integer]</text>
<polygon fill="none" stroke="black" points="1337.26,-228 1337.26,-258.8 1657.06,-258.8 1657.06,-228 1337.26,-228"/>
<text text-anchor="start" x="1344.26" y="-240.2" font-family="Arial" font-size="14.00">precedence </text>
<text text-anchor="start" x="1421.32" y="-240.2" font-family="Arial" font-size="14.00" fill="#666666">[integer]</text>
<polygon fill="none" stroke="black" points="1337.26,-197.2 1337.26,-228 1657.06,-228 1657.06,-197.2 1337.26,-197.2"/>
<text text-anchor="start" x="1344.26" y="-209.4" font-family="Arial" font-size="14.00">recdatecreated </text>
<text text-anchor="start" x="1441.55" y="-209.4" font-family="Arial" font-size="14.00" fill="#666666">[timestamp(0) without time zone]</text>
<polygon fill="none" stroke="black" points="1337.26,-166.4 1337.26,-197.2 1657.06,-197.2 1657.06,-166.4 1337.26,-166.4"/>
<text text-anchor="start" x="1344.26" y="-178.6" font-family="Arial" font-size="14.00">recdatemodified </text>
<text text-anchor="start" x="1447.77" y="-178.6" font-family="Arial" font-size="14.00" fill="#666666">[timestamp(0) without time zone]</text>
<polygon fill="none" stroke="black" points="1337.26,-135.6 1337.26,-166.4 1657.06,-166.4 1657.06,-135.6 1337.26,-135.6"/>
<text text-anchor="start" x="1344.26" y="-147.8" font-family="Arial" font-size="14.00">shortagetype </text>
<text text-anchor="start" x="1429.1" y="-147.8" font-family="Arial" font-size="14.00" fill="#666666">[varchar(32)]</text>
</g>
<!-- ndb.geochronology&#45;&gt;ndb.agetypes -->
<g id="edge2" class="edge">
<title>ndb.geochronology:agetypeid&#45;&gt;ndb.agetypes:agetypeid</title>
<path fill="none" stroke="black" d="M1664.72,-948.15C1695.78,-873.26 1693.56,-274.2 1658.06,-274.2"/>
<polygon fill="black" stroke="black" points="1664.84,-948 1654.89,-952.59 1661.34,-952.03 1658.5,-955.3 1658.5,-955.3 1658.5,-955.3 1661.34,-952.03 1661.68,-958.5 1664.84,-948"/>
<text text-anchor="start" x="1665.06" y="-965.8" font-family="Arial" font-size="10.00">FOREIGN KEY (agetypeid) REFERENCES ndb.agetypes(agetypeid)</text>
</g>
<!-- ndb.samples -->
<g id="node11" class="node">
<title>ndb.samples</title>
<polygon fill="#efefef" stroke="none" points="1761.26,-412.8 1761.26,-448.4 2081.06,-448.4 2081.06,-412.8 1761.26,-412.8"/>
<polygon fill="none" stroke="black" points="1761.26,-412.8 1761.26,-448.4 2081.06,-448.4 2081.06,-412.8 1761.26,-412.8"/>
<text text-anchor="start" x="1814.17" y="-426.2" font-family="Arial Bold" font-size="18.00">ndb.samples</text>
<text text-anchor="start" x="1903.66" y="-426.2" font-family="Arial" font-size="14.00">    </text>
<text text-anchor="start" x="1934.78" y="-426.2" font-family="Arial" font-size="14.00" fill="#666666">[BASE TABLE]</text>
<polygon fill="none" stroke="black" points="1761.26,-382 1761.26,-412.8 2081.06,-412.8 2081.06,-382 1761.26,-382"/>
<text text-anchor="start" x="1768.26" y="-394.2" font-family="Arial" font-size="14.00">analysisdate </text>
<text text-anchor="start" x="1849.98" y="-394.2" font-family="Arial" font-size="14.00" fill="#666666">[date]</text>
<polygon fill="none" stroke="black" points="1761.26,-351.2 1761.26,-382 2081.06,-382 2081.06,-351.2 1761.26,-351.2"/>
<text text-anchor="start" x="1768.26" y="-363.4" font-family="Arial" font-size="14.00">analysisunitid </text>
<text text-anchor="start" x="1856.2" y="-363.4" font-family="Arial" font-size="14.00" fill="#666666">[integer]</text>
<polygon fill="none" stroke="black" points="1761.26,-320.4 1761.26,-351.2 2081.06,-351.2 2081.06,-320.4 1761.26,-320.4"/>
<text text-anchor="start" x="1768.26" y="-332.6" font-family="Arial" font-size="14.00">datasetid </text>
<text text-anchor="start" x="1828.97" y="-332.6" font-family="Arial" font-size="14.00" fill="#666666">[integer]</text>
<polygon fill="none" stroke="black" points="1761.26,-289.6 1761.26,-320.4 2081.06,-320.4 2081.06,-289.6 1761.26,-289.6"/>
<text text-anchor="start" x="1768.26" y="-301.8" font-family="Arial" font-size="14.00">labnumber </text>
<text text-anchor="start" x="1838.3" y="-301.8" font-family="Arial" font-size="14.00" fill="#666666">[varchar(40)]</text>
<polygon fill="none" stroke="black" points="1761.26,-258.8 1761.26,-289.6 2081.06,-289.6 2081.06,-258.8 1761.26,-258.8"/>
<text text-anchor="start" x="1768.26" y="-271" font-family="Arial" font-size="14.00">notes </text>
<text text-anchor="start" x="1806.4" y="-271" font-family="Arial" font-size="14.00" fill="#666666">[text]</text>
<polygon fill="none" stroke="black" points="1761.26,-228 1761.26,-258.8 2081.06,-258.8 2081.06,-228 1761.26,-228"/>
<text text-anchor="start" x="1768.26" y="-240.2" font-family="Arial" font-size="14.00">preparationmethod </text>
<text text-anchor="start" x="1889.68" y="-240.2" font-family="Arial" font-size="14.00" fill="#666666">[text]</text>
<polygon fill="none" stroke="black" points="1761.26,-197.2 1761.26,-228 2081.06,-228 2081.06,-197.2 1761.26,-197.2"/>
<text text-anchor="start" x="1768.26" y="-209.4" font-family="Arial" font-size="14.00">recdatecreated </text>
<text text-anchor="start" x="1865.55" y="-209.4" font-family="Arial" font-size="14.00" fill="#666666">[timestamp(0) without time zone]</text>
<polygon fill="none" stroke="black" points="1761.26,-166.4 1761.26,-197.2 2081.06,-197.2 2081.06,-166.4 1761.26,-166.4"/>
<text text-anchor="start" x="1768.26" y="-178.6" font-family="Arial" font-size="14.00">recdatemodified </text>
<text text-anchor="start" x="1871.77" y="-178.6" font-family="Arial" font-size="14.00" fill="#666666">[timestamp(0) without time zone]</text>
<polygon fill="none" stroke="black" points="1761.26,-135.6 1761.26,-166.4 2081.06,-166.4 2081.06,-135.6 1761.26,-135.6"/>
<text text-anchor="start" x="1768.26" y="-147.8" font-family="Arial" font-size="14.00">sampledate </text>
<text text-anchor="start" x="1844.53" y="-147.8" font-family="Arial" font-size="14.00" fill="#666666">[date]</text>
<polygon fill="none" stroke="black" points="1761.26,-104.8 1761.26,-135.6 2081.06,-135.6 2081.06,-104.8 1761.26,-104.8"/>
<text text-anchor="start" x="1768.26" y="-117" font-family="Arial" font-size="14.00">sampleid </text>
<text text-anchor="start" x="1828.18" y="-117" font-family="Arial" font-size="14.00" fill="#666666">[integer]</text>
<polygon fill="none" stroke="black" points="1761.26,-74 1761.26,-104.8 2081.06,-104.8 2081.06,-74 1761.26,-74"/>
<text text-anchor="start" x="1768.26" y="-86.2" font-family="Arial" font-size="14.00">samplename </text>
<text text-anchor="start" x="1852.3" y="-86.2" font-family="Arial" font-size="14.00" fill="#666666">[varchar(80)]</text>
<polygon fill="none" stroke="black" points="1761.26,-43.2 1761.26,-74 2081.06,-74 2081.06,-43.2 1761.26,-43.2"/>
<text text-anchor="start" x="1768.26" y="-55.4" font-family="Arial" font-size="14.00">taxonid </text>
<text text-anchor="start" x="1817.3" y="-55.4" font-family="Arial" font-size="14.00" fill="#666666">[integer]</text>
</g>
<!-- ndb.geochronology&#45;&gt;ndb.samples -->
<g id="edge10" class="edge">
<title>ndb.geochronology:sampleid&#45;&gt;ndb.samples:sampleid</title>
<path fill="none" stroke="black" d="M1668.22,-585.32C1704.21,-578.54 1695.47,-533.47 1709.16,-491.6 1735.05,-412.41 1676.95,-120.2 1760.26,-120.2"/>
<polygon fill="black" stroke="black" points="1668.36,-585.31 1658.01,-581.69 1663.04,-585.77 1658.73,-586.14 1658.73,-586.14 1658.73,-586.14 1663.04,-585.77 1658.78,-590.65 1668.36,-585.31"/>
<text text-anchor="start" x="1665.06" y="-596.2" font-family="Arial" font-size="10.00">FOREIGN KEY (sampleid) REFERENCES ndb.samples(sampleid) ON UPDATE CASCADE ON DELETE CASCADE</text>
</g>
<!-- ndb.externalgeochronology -->
<g id="node4" class="node">
<title>ndb.externalgeochronology</title>
<polygon fill="#efefef" stroke="none" points="43.2,-1391 43.2,-1426.6 379.13,-1426.6 379.13,-1391 43.2,-1391"/>
<polygon fill="none" stroke="black" points="43.2,-1391 43.2,-1426.6 379.13,-1426.6 379.13,-1391 43.2,-1391"/>
<text text-anchor="start" x="50.2" y="-1404.4" font-family="Arial Bold" font-size="18.00">ndb.externalgeochronology</text>
<text text-anchor="start" x="247.64" y="-1404.4" font-family="Arial" font-size="14.00">    </text>
<text text-anchor="start" x="278.75" y="-1404.4" font-family="Arial" font-size="14.00" fill="#666666">[BASE TABLE]</text>
<polygon fill="none" stroke="black" points="43.2,-1360.2 43.2,-1391 379.13,-1391 379.13,-1360.2 43.2,-1360.2"/>
<text text-anchor="start" x="50.2" y="-1372.4" font-family="Arial" font-size="14.00">extdatabaseid </text>
<text text-anchor="start" x="141.27" y="-1372.4" font-family="Arial" font-size="14.00" fill="#666666">[integer]</text>
<polygon fill="none" stroke="black" points="43.2,-1329.4 43.2,-1360.2 379.13,-1360.2 379.13,-1329.4 43.2,-1329.4"/>
<text text-anchor="start" x="50.2" y="-1341.6" font-family="Arial" font-size="14.00">geochronid </text>
<text text-anchor="start" x="123.37" y="-1341.6" font-family="Arial" font-size="14.00" fill="#666666">[integer]</text>
<polygon fill="none" stroke="black" points="43.2,-1298.6 43.2,-1329.4 379.13,-1329.4 379.13,-1298.6 43.2,-1298.6"/>
<text text-anchor="start" x="50.2" y="-1310.8" font-family="Arial" font-size="14.00">identifier </text>
<text text-anchor="start" x="107.01" y="-1310.8" font-family="Arial" font-size="14.00" fill="#666666">[text]</text>
</g>
<!-- ndb.externalgeochronology&#45;&gt;ndb.geochronology -->
<g id="edge3" class="edge">
<title>ndb.externalgeochronology:geochronid&#45;&gt;ndb.geochronology:geochronid</title>
<path fill="none" stroke="black" d="M390.51,-1344.22C475.33,-1333.95 363.43,-1190.48 431.16,-1116.8 573.84,-961.6 1125.45,-832.6 1336.26,-832.6"/>
<polygon fill="black" stroke="black" points="390.45,-1344.22 380.21,-1340.29 385.12,-1344.52 380.79,-1344.76 380.79,-1344.76 380.79,-1344.76 385.12,-1344.52 380.71,-1349.27 390.45,-1344.22"/>
<text text-anchor="start" x="208.94" y="-1328.8" font-family="Arial" font-size="10.00">FOREIGN KEY (geochronid) REFERENCES ndb.geochronology(geochronid)</text>
</g>
<!-- ndb.geochroncontrols -->
<g id="node5" class="node">
<title>ndb.geochroncontrols</title>
<polygon fill="#efefef" stroke="none" points="483.26,-1406.4 483.26,-1442 803.06,-1442 803.06,-1406.4 483.26,-1406.4"/>
<polygon fill="none" stroke="black" points="483.26,-1406.4 483.26,-1442 803.06,-1442 803.06,-1406.4 483.26,-1406.4"/>
<text text-anchor="start" x="502.69" y="-1419.8" font-family="Arial Bold" font-size="18.00">ndb.geochroncontrols</text>
<text text-anchor="start" x="659.15" y="-1419.8" font-family="Arial" font-size="14.00">    </text>
<text text-anchor="start" x="690.27" y="-1419.8" font-family="Arial" font-size="14.00" fill="#666666">[BASE TABLE]</text>
<polygon fill="none" stroke="black" points="483.26,-1375.6 483.26,-1406.4 803.06,-1406.4 803.06,-1375.6 483.26,-1375.6"/>
<text text-anchor="start" x="490.26" y="-1387.8" font-family="Arial" font-size="14.00">chroncontrolid </text>
<text text-anchor="start" x="582.09" y="-1387.8" font-family="Arial" font-size="14.00" fill="#666666">[integer]</text>
<polygon fill="none" stroke="black" points="483.26,-1344.8 483.26,-1375.6 803.06,-1375.6 803.06,-1344.8 483.26,-1344.8"/>
<text text-anchor="start" x="490.26" y="-1357" font-family="Arial" font-size="14.00">geochronid </text>
<text text-anchor="start" x="563.43" y="-1357" font-family="Arial" font-size="14.00" fill="#666666">[integer]</text>
<polygon fill="none" stroke="black" points="483.26,-1314 483.26,-1344.8 803.06,-1344.8 803.06,-1314 483.26,-1314"/>
<text text-anchor="start" x="490.26" y="-1326.2" font-family="Arial" font-size="14.00">recdatecreated </text>
<text text-anchor="start" x="587.55" y="-1326.2" font-family="Arial" font-size="14.00" fill="#666666">[timestamp(0) without time zone]</text>
<polygon fill="none" stroke="black" points="483.26,-1283.2 483.26,-1314 803.06,-1314 803.06,-1283.2 483.26,-1283.2"/>
<text text-anchor="start" x="490.26" y="-1295.4" font-family="Arial" font-size="14.00">recdatemodified </text>
<text text-anchor="start" x="593.77" y="-1295.4" font-family="Arial" font-size="14.00" fill="#666666">[timestamp(0) without time zone]</text>
</g>
<!-- ndb.geochroncontrols&#45;&gt;ndb.geochronology -->
<g id="edge4" class="edge">
<title>ndb.geochroncontrols:geochronid&#45;&gt;ndb.geochronology:geochronid</title>
<path fill="none" stroke="black" d="M814.31,-1359.7C906.58,-1350.07 792.89,-1203.65 855.16,-1116.8 999.88,-914.98 1087.92,-832.6 1336.26,-832.6"/>
<polygon fill="black" stroke="black" points="814.39,-1359.7 804.18,-1355.69 809.06,-1359.96 804.73,-1360.17 804.73,-1360.17 804.73,-1360.17 809.06,-1359.96 804.62,-1364.68 814.39,-1359.7"/>
<text text-anchor="start" x="231.86" y="-1370.2" font-family="Arial" font-size="10.00">FOREIGN KEY (geochronid) REFERENCES ndb.geochronology(geochronid) ON UPDATE CASCADE ON DELETE CASCADE</text>
</g>
<!-- ndb.geochronpublications -->
<g id="node6" class="node">
<title>ndb.geochronpublications</title>
<polygon fill="#efefef" stroke="none" points="907.69,-1406.4 907.69,-1442 1232.64,-1442 1232.64,-1406.4 907.69,-1406.4"/>
<polygon fill="none" stroke="black" points="907.69,-1406.4 907.69,-1442 1232.64,-1442 1232.64,-1406.4 907.69,-1406.4"/>
<text text-anchor="start" x="914.69" y="-1419.8" font-family="Arial Bold" font-size="18.00">ndb.geochronpublications</text>
<text text-anchor="start" x="1101.15" y="-1419.8" font-family="Arial" font-size="14.00">    </text>
<text text-anchor="start" x="1132.27" y="-1419.8" font-family="Arial" font-size="14.00" fill="#666666">[BASE TABLE]</text>
<polygon fill="none" stroke="black" points="907.69,-1375.6 907.69,-1406.4 1232.64,-1406.4 1232.64,-1375.6 907.69,-1375.6"/>
<text text-anchor="start" x="914.69" y="-1387.8" font-family="Arial" font-size="14.00">geochronid </text>
<text text-anchor="start" x="987.85" y="-1387.8" font-family="Arial" font-size="14.00" fill="#666666">[integer]</text>
<polygon fill="none" stroke="black" points="907.69,-1344.8 907.69,-1375.6 1232.64,-1375.6 1232.64,-1344.8 907.69,-1344.8"/>
<text text-anchor="start" x="914.69" y="-1357" font-family="Arial" font-size="14.00">publicationid </text>
<text text-anchor="start" x="996.41" y="-1357" font-family="Arial" font-size="14.00" fill="#666666">[integer]</text>
<polygon fill="none" stroke="black" points="907.69,-1314 907.69,-1344.8 1232.64,-1344.8 1232.64,-1314 907.69,-1314"/>
<text text-anchor="start" x="914.69" y="-1326.2" font-family="Arial" font-size="14.00">recdatecreated </text>
<text text-anchor="start" x="1011.97" y="-1326.2" font-family="Arial" font-size="14.00" fill="#666666">[timestamp(0) without time zone]</text>
<polygon fill="none" stroke="black" points="907.69,-1283.2 907.69,-1314 1232.64,-1314 1232.64,-1283.2 907.69,-1283.2"/>
<text text-anchor="start" x="914.69" y="-1295.4" font-family="Arial" font-size="14.00">recdatemodified </text>
<text text-anchor="start" x="1018.19" y="-1295.4" font-family="Arial" font-size="14.00" fill="#666666">[timestamp(0) without time zone]</text>
</g>
<!-- ndb.geochronpublications&#45;&gt;ndb.geochronology -->
<g id="edge5" class="edge">
<title>ndb.geochronpublications:geochronid&#45;&gt;ndb.geochronology:geochronid</title>
<path fill="none" stroke="black" d="M1242.92,-1386.51C1294.48,-1333.66 1276.51,-832.6 1336.26,-832.6"/>
<polygon fill="black" stroke="black" points="1242.94,-1386.5 1231.98,-1386.8 1238.14,-1388.82 1234.24,-1390.71 1234.24,-1390.71 1234.24,-1390.71 1238.14,-1388.82 1235.9,-1394.9 1242.94,-1386.5"/>
<text text-anchor="start" x="951.04" y="-1375" font-family="Arial" font-size="10.00">FOREIGN KEY (geochronid) REFERENCES ndb.geochronology(geochronid) ON UPDATE CASCADE ON DELETE CASCADE</text>
</g>
<!-- ndb.radiocarbon -->
<g id="node7" class="node">
<title>ndb.radiocarbon</title>
<polygon fill="#efefef" stroke="none" points="1337.26,-1529.6 1337.26,-1565.2 1657.06,-1565.2 1657.06,-1529.6 1337.26,-1529.6"/>
<polygon fill="none" stroke="black" points="1337.26,-1529.6 1337.26,-1565.2 1657.06,-1565.2 1657.06,-1529.6 1337.26,-1529.6"/>
<text text-anchor="start" x="1376.19" y="-1543" font-family="Arial Bold" font-size="18.00">ndb.radiocarbon</text>
<text text-anchor="start" x="1493.65" y="-1543" font-family="Arial" font-size="14.00">    </text>
<text text-anchor="start" x="1524.76" y="-1543" font-family="Arial" font-size="14.00" fill="#666666">[BASE TABLE]</text>
<polygon fill="none" stroke="black" points="1337.26,-1498.8 1337.26,-1529.6 1657.06,-1529.6 1657.06,-1498.8 1337.26,-1498.8"/>
<text text-anchor="start" x="1344.26" y="-1511" font-family="Arial" font-size="14.00">cnratio </text>
<text text-anchor="start" x="1390.17" y="-1511" font-family="Arial" font-size="14.00" fill="#666666">[double precision]</text>
<polygon fill="none" stroke="black" points="1337.26,-1468 1337.26,-1498.8 1657.06,-1498.8 1657.06,-1468 1337.26,-1468"/>
<text text-anchor="start" x="1344.26" y="-1480.2" font-family="Arial" font-size="14.00">delta13c </text>
<text text-anchor="start" x="1401.08" y="-1480.2" font-family="Arial" font-size="14.00" fill="#666666">[double precision]</text>
<polygon fill="none" stroke="black" points="1337.26,-1437.2 1337.26,-1468 1657.06,-1468 1657.06,-1437.2 1337.26,-1437.2"/>
<text text-anchor="start" x="1344.26" y="-1449.4" font-family="Arial" font-size="14.00">delta15n </text>
<text text-anchor="start" x="1401.87" y="-1449.4" font-family="Arial" font-size="14.00" fill="#666666">[double precision]</text>
<polygon fill="none" stroke="black" points="1337.26,-1406.4 1337.26,-1437.2 1657.06,-1437.2 1657.06,-1406.4 1337.26,-1406.4"/>
<text text-anchor="start" x="1344.26" y="-1418.6" font-family="Arial" font-size="14.00">geochronid </text>
<text text-anchor="start" x="1417.43" y="-1418.6" font-family="Arial" font-size="14.00" fill="#666666">[integer]</text>
<polygon fill="none" stroke="black" points="1337.26,-1375.6 1337.26,-1406.4 1657.06,-1406.4 1657.06,-1375.6 1337.26,-1375.6"/>
<text text-anchor="start" x="1344.26" y="-1387.8" font-family="Arial" font-size="14.00">masscmg </text>
<text text-anchor="start" x="1408.05" y="-1387.8" font-family="Arial" font-size="14.00" fill="#666666">[double precision]</text>
<polygon fill="none" stroke="black" points="1337.26,-1344.8 1337.26,-1375.6 1657.06,-1375.6 1657.06,-1344.8 1337.26,-1344.8"/>
<text text-anchor="start" x="1344.26" y="-1357" font-family="Arial" font-size="14.00">percentc </text>
<text text-anchor="start" x="1401.85" y="-1357" font-family="Arial" font-size="14.00" fill="#666666">[double precision]</text>
<polygon fill="none" stroke="black" points="1337.26,-1314 1337.26,-1344.8 1657.06,-1344.8 1657.06,-1314 1337.26,-1314"/>
<text text-anchor="start" x="1344.26" y="-1326.2" font-family="Arial" font-size="14.00">percentcollagen </text>
<text text-anchor="start" x="1447" y="-1326.2" font-family="Arial" font-size="14.00" fill="#666666">[double precision]</text>
<polygon fill="none" stroke="black" points="1337.26,-1283.2 1337.26,-1314 1657.06,-1314 1657.06,-1283.2 1337.26,-1283.2"/>
<text text-anchor="start" x="1344.26" y="-1295.4" font-family="Arial" font-size="14.00">percentn </text>
<text text-anchor="start" x="1402.64" y="-1295.4" font-family="Arial" font-size="14.00" fill="#666666">[double precision]</text>
<polygon fill="none" stroke="black" points="1337.26,-1252.4 1337.26,-1283.2 1657.06,-1283.2 1657.06,-1252.4 1337.26,-1252.4"/>
<text text-anchor="start" x="1344.26" y="-1264.6" font-family="Arial" font-size="14.00">radiocarbonmethodid </text>
<text text-anchor="start" x="1479.68" y="-1264.6" font-family="Arial" font-size="14.00" fill="#666666">[integer]</text>
<polygon fill="none" stroke="black" points="1337.26,-1221.6 1337.26,-1252.4 1657.06,-1252.4 1657.06,-1221.6 1337.26,-1221.6"/>
<text text-anchor="start" x="1344.26" y="-1233.8" font-family="Arial" font-size="14.00">recdatecreated </text>
<text text-anchor="start" x="1441.55" y="-1233.8" font-family="Arial" font-size="14.00" fill="#666666">[timestamp(0) without time zone]</text>
<polygon fill="none" stroke="black" points="1337.26,-1190.8 1337.26,-1221.6 1657.06,-1221.6 1657.06,-1190.8 1337.26,-1190.8"/>
<text text-anchor="start" x="1344.26" y="-1203" font-family="Arial" font-size="14.00">recdatemodified </text>
<text text-anchor="start" x="1447.77" y="-1203" font-family="Arial" font-size="14.00" fill="#666666">[timestamp(0) without time zone]</text>
<polygon fill="none" stroke="black" points="1337.26,-1160 1337.26,-1190.8 1657.06,-1190.8 1657.06,-1160 1337.26,-1160"/>
<text text-anchor="start" x="1344.26" y="-1172.2" font-family="Arial" font-size="14.00">reservoir </text>
<text text-anchor="start" x="1402.61" y="-1172.2" font-family="Arial" font-size="14.00" fill="#666666">[double precision]</text>
</g>
<!-- ndb.radiocarbon&#45;&gt;ndb.geochronology -->
<g id="edge6" class="edge">
<title>ndb.radiocarbon:geochronid&#45;&gt;ndb.geochronology:geochronid</title>
<path fill="none" stroke="black" d="M1667.53,-1417.4C1723.36,-1363.48 1720.2,-832.6 1658.06,-832.6"/>
<polygon fill="black" stroke="black" points="1667.43,-1417.44 1656.47,-1417.58 1662.6,-1419.69 1658.67,-1421.52 1658.67,-1421.52 1658.67,-1421.52 1662.6,-1419.69 1660.26,-1425.74 1667.43,-1417.44"/>
<text text-anchor="start" x="1198.1" y="-1431.8" font-family="Arial" font-size="10.00">FOREIGN KEY (geochronid) REFERENCES ndb.geochronology(geochronid) ON DELETE CASCADE</text>
</g>
<!-- ndb.specimendates -->
<g id="node8" class="node">
<title>ndb.specimendates</title>
<polygon fill="#efefef" stroke="none" points="1761.26,-1498.8 1761.26,-1534.4 2081.06,-1534.4 2081.06,-1498.8 1761.26,-1498.8"/>
<polygon fill="none" stroke="black" points="1761.26,-1498.8 1761.26,-1534.4 2081.06,-1534.4 2081.06,-1498.8 1761.26,-1498.8"/>
<text text-anchor="start" x="1790.69" y="-1512.2" font-family="Arial Bold" font-size="18.00">ndb.specimendates</text>
<text text-anchor="start" x="1927.15" y="-1512.2" font-family="Arial" font-size="14.00">    </text>
<text text-anchor="start" x="1958.27" y="-1512.2" font-family="Arial" font-size="14.00" fill="#666666">[BASE TABLE]</text>
<polygon fill="none" stroke="black" points="1761.26,-1468 1761.26,-1498.8 2081.06,-1498.8 2081.06,-1468 1761.26,-1468"/>
<text text-anchor="start" x="1768.26" y="-1480.2" font-family="Arial" font-size="14.00">elementtypeid </text>
<text text-anchor="start" x="1859.32" y="-1480.2" font-family="Arial" font-size="14.00" fill="#666666">[integer]</text>
<polygon fill="none" stroke="black" points="1761.26,-1437.2 1761.26,-1468 2081.06,-1468 2081.06,-1437.2 1761.26,-1437.2"/>
<text text-anchor="start" x="1768.26" y="-1449.4" font-family="Arial" font-size="14.00">fractionid </text>
<text text-anchor="start" x="1828.96" y="-1449.4" font-family="Arial" font-size="14.00" fill="#666666">[integer]</text>
<polygon fill="none" stroke="black" points="1761.26,-1406.4 1761.26,-1437.2 2081.06,-1437.2 2081.06,-1406.4 1761.26,-1406.4"/>
<text text-anchor="start" x="1768.26" y="-1418.6" font-family="Arial" font-size="14.00">geochronid </text>
<text text-anchor="start" x="1841.43" y="-1418.6" font-family="Arial" font-size="14.00" fill="#666666">[integer]</text>
<polygon fill="none" stroke="black" points="1761.26,-1375.6 1761.26,-1406.4 2081.06,-1406.4 2081.06,-1375.6 1761.26,-1375.6"/>
<text text-anchor="start" x="1768.26" y="-1387.8" font-family="Arial" font-size="14.00">notes </text>
<text text-anchor="start" x="1806.4" y="-1387.8" font-family="Arial" font-size="14.00" fill="#666666">[text]</text>
<polygon fill="none" stroke="black" points="1761.26,-1344.8 1761.26,-1375.6 2081.06,-1375.6 2081.06,-1344.8 1761.26,-1344.8"/>
<text text-anchor="start" x="1768.26" y="-1357" font-family="Arial" font-size="14.00">recdatecreated </text>
<text text-anchor="start" x="1865.55" y="-1357" font-family="Arial" font-size="14.00" fill="#666666">[timestamp(0) without time zone]</text>
<polygon fill="none" stroke="black" points="1761.26,-1314 1761.26,-1344.8 2081.06,-1344.8 2081.06,-1314 1761.26,-1314"/>
<text text-anchor="start" x="1768.26" y="-1326.2" font-family="Arial" font-size="14.00">recdatemodified </text>
<text text-anchor="start" x="1871.77" y="-1326.2" font-family="Arial" font-size="14.00" fill="#666666">[timestamp(0) without time zone]</text>
<polygon fill="none" stroke="black" points="1761.26,-1283.2 1761.26,-1314 2081.06,-1314 2081.06,-1283.2 1761.26,-1283.2"/>
<text text-anchor="start" x="1768.26" y="-1295.4" font-family="Arial" font-size="14.00">sampleid </text>
<text text-anchor="start" x="1828.18" y="-1295.4" font-family="Arial" font-size="14.00" fill="#666666">[integer]</text>
<polygon fill="none" stroke="black" points="1761.26,-1252.4 1761.26,-1283.2 2081.06,-1283.2 2081.06,-1252.4 1761.26,-1252.4"/>
<text text-anchor="start" x="1768.26" y="-1264.6" font-family="Arial" font-size="14.00">specimendateid </text>
<text text-anchor="start" x="1870.22" y="-1264.6" font-family="Arial" font-size="14.00" fill="#666666">[integer]</text>
<polygon fill="none" stroke="black" points="1761.26,-1221.6 1761.26,-1252.4 2081.06,-1252.4 2081.06,-1221.6 1761.26,-1221.6"/>
<text text-anchor="start" x="1768.26" y="-1233.8" font-family="Arial" font-size="14.00">specimenid </text>
<text text-anchor="start" x="1842.97" y="-1233.8" font-family="Arial" font-size="14.00" fill="#666666">[integer]</text>
<polygon fill="none" stroke="black" points="1761.26,-1190.8 1761.26,-1221.6 2081.06,-1221.6 2081.06,-1190.8 1761.26,-1190.8"/>
<text text-anchor="start" x="1768.26" y="-1203" font-family="Arial" font-size="14.00">taxonid </text>
<text text-anchor="start" x="1817.3" y="-1203" font-family="Arial" font-size="14.00" fill="#666666">[integer]</text>
</g>
<!-- ndb.specimendates&#45;&gt;ndb.geochronology -->
<g id="edge7" class="edge">
<title>ndb.specimendates:geochronid&#45;&gt;ndb.geochronology:geochronid</title>
<path fill="none" stroke="black" d="M1750.19,-1419.88C1694.53,-1397.24 1720.3,-1180.94 1709.16,-1116.8 1687.2,-990.36 1786.4,-832.6 1658.06,-832.6"/>
<polygon fill="black" stroke="black" points="1750.11,-1419.87 1759.09,-1426.16 1755.35,-1420.86 1759.61,-1421.67 1759.61,-1421.67 1759.61,-1421.67 1755.35,-1420.86 1760.78,-1417.32 1750.11,-1419.87"/>
<text text-anchor="start" x="1767.26" y="-1431.8" font-family="Arial" font-size="10.00">FOREIGN KEY (geochronid) REFERENCES ndb.geochronology(geochronid) ON UPDATE CASCADE ON DELETE CASCADE</text>
</g>
<!-- ndb.uraniumseries -->
<g id="node9" class="node">
<title>ndb.uraniumseries</title>
<polygon fill="#efefef" stroke="none" points="2185.68,-1498.8 2185.68,-1534.4 2456.64,-1534.4 2456.64,-1498.8 2185.68,-1498.8"/>
<polygon fill="none" stroke="black" points="2185.68,-1498.8 2185.68,-1534.4 2456.64,-1534.4 2456.64,-1498.8 2185.68,-1498.8"/>
<text text-anchor="start" x="2192.68" y="-1512.2" font-family="Arial Bold" font-size="18.00">ndb.uraniumseries</text>
<text text-anchor="start" x="2325.15" y="-1512.2" font-family="Arial" font-size="14.00">    </text>
<text text-anchor="start" x="2356.27" y="-1512.2" font-family="Arial" font-size="14.00" fill="#666666">[BASE TABLE]</text>
<polygon fill="none" stroke="black" points="2185.68,-1468 2185.68,-1498.8 2456.64,-1498.8 2456.64,-1468 2185.68,-1468"/>
<text text-anchor="start" x="2192.68" y="-1480.2" font-family="Arial" font-size="14.00">activity230th238u </text>
<text text-anchor="start" x="2305.54" y="-1480.2" font-family="Arial" font-size="14.00" fill="#666666">[numeric]</text>
<polygon fill="none" stroke="black" points="2185.68,-1437.2 2185.68,-1468 2456.64,-1468 2456.64,-1437.2 2185.68,-1437.2"/>
<text text-anchor="start" x="2192.68" y="-1449.4" font-family="Arial" font-size="14.00">activity234u238u </text>
<text text-anchor="start" x="2301.65" y="-1449.4" font-family="Arial" font-size="14.00" fill="#666666">[numeric]</text>
<polygon fill="none" stroke="black" points="2185.68,-1406.4 2185.68,-1437.2 2456.64,-1437.2 2456.64,-1406.4 2185.68,-1406.4"/>
<text text-anchor="start" x="2192.68" y="-1418.6" font-family="Arial" font-size="14.00">activityuncertainty230th238u </text>
<text text-anchor="start" x="2374.02" y="-1418.6" font-family="Arial" font-size="14.00" fill="#666666">[numeric]</text>
<polygon fill="none" stroke="black" points="2185.68,-1375.6 2185.68,-1406.4 2456.64,-1406.4 2456.64,-1375.6 2185.68,-1375.6"/>
<text text-anchor="start" x="2192.68" y="-1387.8" font-family="Arial" font-size="14.00">activityuncertainty234u238u </text>
<text text-anchor="start" x="2370.13" y="-1387.8" font-family="Arial" font-size="14.00" fill="#666666">[numeric]</text>
<polygon fill="none" stroke="black" points="2185.68,-1344.8 2185.68,-1375.6 2456.64,-1375.6 2456.64,-1344.8 2185.68,-1344.8"/>
<text text-anchor="start" x="2192.68" y="-1357" font-family="Arial" font-size="14.00">decayconstantid </text>
<text text-anchor="start" x="2297.75" y="-1357" font-family="Arial" font-size="14.00" fill="#666666">[integer]</text>
<polygon fill="none" stroke="black" points="2185.68,-1314 2185.68,-1344.8 2456.64,-1344.8 2456.64,-1314 2185.68,-1314"/>
<text text-anchor="start" x="2192.68" y="-1326.2" font-family="Arial" font-size="14.00">geochronid </text>
<text text-anchor="start" x="2265.85" y="-1326.2" font-family="Arial" font-size="14.00" fill="#666666">[integer]</text>
<polygon fill="none" stroke="black" points="2185.68,-1283.2 2185.68,-1314 2456.64,-1314 2456.64,-1283.2 2185.68,-1283.2"/>
<text text-anchor="start" x="2192.68" y="-1295.4" font-family="Arial" font-size="14.00">iniratio230th232th </text>
<text text-anchor="start" x="2307.88" y="-1295.4" font-family="Arial" font-size="14.00" fill="#666666">[numeric]</text>
<polygon fill="none" stroke="black" points="2185.68,-1252.4 2185.68,-1283.2 2456.64,-1283.2 2456.64,-1252.4 2185.68,-1252.4"/>
<text text-anchor="start" x="2192.68" y="-1264.6" font-family="Arial" font-size="14.00">iniratiouncertainty230th232th </text>
<text text-anchor="start" x="2376.37" y="-1264.6" font-family="Arial" font-size="14.00" fill="#666666">[numeric]</text>
<polygon fill="none" stroke="black" points="2185.68,-1221.6 2185.68,-1252.4 2456.64,-1252.4 2456.64,-1221.6 2185.68,-1221.6"/>
<text text-anchor="start" x="2192.68" y="-1233.8" font-family="Arial" font-size="14.00">ratio230th232th </text>
<text text-anchor="start" x="2293.88" y="-1233.8" font-family="Arial" font-size="14.00" fill="#666666">[numeric]</text>
<polygon fill="none" stroke="black" points="2185.68,-1190.8 2185.68,-1221.6 2456.64,-1221.6 2456.64,-1190.8 2185.68,-1190.8"/>
<text text-anchor="start" x="2192.68" y="-1203" font-family="Arial" font-size="14.00">ratiouncertainty230th232th </text>
<text text-anchor="start" x="2362.36" y="-1203" font-family="Arial" font-size="14.00" fill="#666666">[numeric]</text>
</g>
<!-- ndb.uraniumseries&#45;&gt;ndb.geochronology -->
<g id="edge8" class="edge">
<title>ndb.uraniumseries:geochronid&#45;&gt;ndb.geochronology:geochronid</title>
<path fill="none" stroke="black" d="M2174.67,-1328.85C2094.91,-1319.51 2188.67,-1192.18 2133.16,-1116.8 1987.26,-918.67 1904.11,-832.6 1658.06,-832.6"/>
<polygon fill="black" stroke="black" points="2174.37,-1328.84 2184.11,-1333.88 2179.69,-1329.13 2184.02,-1329.36 2184.02,-1329.36 2184.02,-1329.36 2179.69,-1329.13 2184.6,-1324.89 2174.37,-1328.84"/>
<text text-anchor="start" x="1835.31" y="-1339.4" font-family="Arial" font-size="10.00">FOREIGN KEY (geochronid) REFERENCES ndb.geochronology(geochronid)</text>
</g>
<!-- ndb.uraniumseriesdata -->
<g id="node10" class="node">
<title>ndb.uraniumseriesdata</title>
<polygon fill="#efefef" stroke="none" points="2560.69,-1375.6 2560.69,-1411.2 2861.63,-1411.2 2861.63,-1375.6 2560.69,-1375.6"/>
<polygon fill="none" stroke="black" points="2560.69,-1375.6 2560.69,-1411.2 2861.63,-1411.2 2861.63,-1375.6 2560.69,-1375.6"/>
<text text-anchor="start" x="2567.69" y="-1389" font-family="Arial Bold" font-size="18.00">ndb.uraniumseriesdata</text>
<text text-anchor="start" x="2730.14" y="-1389" font-family="Arial" font-size="14.00">    </text>
<text text-anchor="start" x="2761.26" y="-1389" font-family="Arial" font-size="14.00" fill="#666666">[BASE TABLE]</text>
<polygon fill="none" stroke="black" points="2560.69,-1344.8 2560.69,-1375.6 2861.63,-1375.6 2861.63,-1344.8 2560.69,-1344.8"/>
<text text-anchor="start" x="2567.69" y="-1357" font-family="Arial" font-size="14.00">dataid </text>
<text text-anchor="start" x="2609.73" y="-1357" font-family="Arial" font-size="14.00" fill="#666666">[integer]</text>
<polygon fill="none" stroke="black" points="2560.69,-1314 2560.69,-1344.8 2861.63,-1344.8 2861.63,-1314 2560.69,-1314"/>
<text text-anchor="start" x="2567.69" y="-1326.2" font-family="Arial" font-size="14.00">geochronid </text>
<text text-anchor="start" x="2640.86" y="-1326.2" font-family="Arial" font-size="14.00" fill="#666666">[integer]</text>
</g>
<!-- ndb.uraniumseriesdata&#45;&gt;ndb.geochronology -->
<g id="edge9" class="edge">
<title>ndb.uraniumseriesdata:geochronid&#45;&gt;ndb.geochronology:geochronid</title>
<path fill="none" stroke="black" d="M2549.73,-1328.83C2470.65,-1319.03 2572.29,-1185.8 2509.16,-1116.8 2374.57,-969.68 1857.46,-832.6 1658.06,-832.6"/>
<polygon fill="black" stroke="black" points="2549.38,-1328.81 2559.1,-1333.87 2554.7,-1329.11 2559.03,-1329.36 2559.03,-1329.36 2559.03,-1329.36 2554.7,-1329.11 2559.62,-1324.89 2549.38,-1328.81"/>
<text text-anchor="start" x="2210.32" y="-1339.4" font-family="Arial" font-size="10.00">FOREIGN KEY (geochronid) REFERENCES ndb.geochronology(geochronid)</text>
</g>
</g>
</svg>
