<?xml version="1.0" encoding="UTF-8" standalone="no"?>
<!DOCTYPE svg PUBLIC "-//W3C//DTD SVG 1.1//EN"
 "http://www.w3.org/Graphics/SVG/1.1/DTD/svg11.dtd">
<!-- Generated by graphviz version 12.1.2 (20240928.0832)
 -->
<!-- Title: ndb.datasettaxagrouptypes Pages: 1 -->
<svg width="3741pt" height="842pt"
 viewBox="0.00 0.00 3740.51 842.40" xmlns="http://www.w3.org/2000/svg" xmlns:xlink="http://www.w3.org/1999/xlink">
<g id="graph0" class="graph" transform="scale(1 1) rotate(0) translate(4 838.4)">
<title>ndb.datasettaxagrouptypes</title>
<polygon fill="white" stroke="none" points="-4,4 -4,-838.4 3736.51,-838.4 3736.51,4 -4,4"/>
<!-- ndb.datasettaxagrouptypes -->
<g id="node1" class="node">
<title>ndb.datasettaxagrouptypes</title>
<polygon fill="#efefef" stroke="none" points="2048.44,-601.6 2048.44,-637.2 2378.38,-637.2 2378.38,-601.6 2048.44,-601.6"/>
<polygon fill="none" stroke="black" points="2048.44,-601.6 2048.44,-637.2 2378.38,-637.2 2378.38,-601.6 2048.44,-601.6"/>
<text text-anchor="start" x="2055.44" y="-615" font-family="Arial Bold" font-size="18.00">ndb.datasettaxagrouptypes</text>
<text text-anchor="start" x="2246.89" y="-615" font-family="Arial" font-size="14.00">    </text>
<text text-anchor="start" x="2278" y="-615" font-family="Arial" font-size="14.00" fill="#666666">[BASE TABLE]</text>
<polygon fill="none" stroke="black" points="2048.44,-570.8 2048.44,-601.6 2378.38,-601.6 2378.38,-570.8 2048.44,-570.8"/>
<text text-anchor="start" x="2055.44" y="-583" font-family="Arial" font-size="14.00">datasettypeid </text>
<text text-anchor="start" x="2142.61" y="-583" font-family="Arial" font-size="14.00" fill="#666666">[integer]</text>
<polygon fill="none" stroke="black" points="2048.44,-540 2048.44,-570.8 2378.38,-570.8 2378.38,-540 2048.44,-540"/>
<text text-anchor="start" x="2055.44" y="-552.2" font-family="Arial" font-size="14.00">recdatecreated </text>
<text text-anchor="start" x="2152.73" y="-552.2" font-family="Arial" font-size="14.00" fill="#666666">[timestamp(0) without time zone]</text>
<polygon fill="none" stroke="black" points="2048.44,-509.2 2048.44,-540 2378.38,-540 2378.38,-509.2 2048.44,-509.2"/>
<text text-anchor="start" x="2055.44" y="-521.4" font-family="Arial" font-size="14.00">recdatemodified </text>
<text text-anchor="start" x="2158.95" y="-521.4" font-family="Arial" font-size="14.00" fill="#666666">[timestamp(0) without time zone]</text>
<polygon fill="none" stroke="black" points="2048.44,-478.4 2048.44,-509.2 2378.38,-509.2 2378.38,-478.4 2048.44,-478.4"/>
<text text-anchor="start" x="2055.44" y="-490.6" font-family="Arial" font-size="14.00">taxagroupid </text>
<text text-anchor="start" x="2132.5" y="-490.6" font-family="Arial" font-size="14.00" fill="#666666">[varchar(3)]</text>
<polygon fill="none" stroke="black" stroke-width="3" points="2046.94,-476.9 2046.94,-638.7 2379.88,-638.7 2379.88,-476.9 2046.94,-476.9"/>
</g>
<!-- ndb.datasettypes -->
<g id="node2" class="node">
<title>ndb.datasettypes</title>
<polygon fill="#efefef" stroke="none" points="1389.51,-166.4 1389.51,-202 1709.31,-202 1709.31,-166.4 1389.51,-166.4"/>
<polygon fill="none" stroke="black" points="1389.51,-166.4 1389.51,-202 1709.31,-202 1709.31,-166.4 1389.51,-166.4"/>
<text text-anchor="start" x="1427.43" y="-179.8" font-family="Arial Bold" font-size="18.00">ndb.datasettypes</text>
<text text-anchor="start" x="1546.9" y="-179.8" font-family="Arial" font-size="14.00">    </text>
<text text-anchor="start" x="1578.02" y="-179.8" font-family="Arial" font-size="14.00" fill="#666666">[BASE TABLE]</text>
<polygon fill="none" stroke="black" points="1389.51,-135.6 1389.51,-166.4 1709.31,-166.4 1709.31,-135.6 1389.51,-135.6"/>
<text text-anchor="start" x="1396.51" y="-147.8" font-family="Arial" font-size="14.00">datasettype </text>
<text text-anchor="start" x="1472.79" y="-147.8" font-family="Arial" font-size="14.00" fill="#666666">[varchar(64)]</text>
<polygon fill="none" stroke="black" points="1389.51,-104.8 1389.51,-135.6 1709.31,-135.6 1709.31,-104.8 1389.51,-104.8"/>
<text text-anchor="start" x="1396.51" y="-117" font-family="Arial" font-size="14.00">datasettypeid </text>
<text text-anchor="start" x="1483.68" y="-117" font-family="Arial" font-size="14.00" fill="#666666">[integer]</text>
<polygon fill="none" stroke="black" points="1389.51,-74 1389.51,-104.8 1709.31,-104.8 1709.31,-74 1389.51,-74"/>
<text text-anchor="start" x="1396.51" y="-86.2" font-family="Arial" font-size="14.00">recdatecreated </text>
<text text-anchor="start" x="1493.79" y="-86.2" font-family="Arial" font-size="14.00" fill="#666666">[timestamp(0) without time zone]</text>
<polygon fill="none" stroke="black" points="1389.51,-43.2 1389.51,-74 1709.31,-74 1709.31,-43.2 1389.51,-43.2"/>
<text text-anchor="start" x="1396.51" y="-55.4" font-family="Arial" font-size="14.00">recdatemodified </text>
<text text-anchor="start" x="1500.01" y="-55.4" font-family="Arial" font-size="14.00" fill="#666666">[timestamp(0) without time zone]</text>
</g>
<!-- ndb.datasettaxagrouptypes&#45;&gt;ndb.datasettypes -->
<g id="edge1" class="edge">
<title>ndb.datasettaxagrouptypes:datasettypeid&#45;&gt;ndb.datasettypes:datasettypeid</title>
<path fill="none" stroke="black" d="M2037.55,-584.19C1984.09,-560.5 2031,-334.47 1993.41,-281.2 1909.95,-162.94 1855.05,-120.2 1710.31,-120.2"/>
<polygon fill="black" stroke="black" points="2037.32,-584.14 2046.22,-590.54 2042.54,-585.2 2046.79,-586.07 2046.79,-586.07 2046.79,-586.07 2042.54,-585.2 2048.01,-581.72 2037.32,-584.14"/>
<text text-anchor="start" x="2054.44" y="-596.2" font-family="Arial" font-size="10.00">FOREIGN KEY (datasettypeid) REFERENCES ndb.datasettypes(datasettypeid) ON UPDATE CASCADE ON DELETE CASCADE</text>
</g>
<!-- ndb.taxagrouptypes -->
<g id="node8" class="node">
<title>ndb.taxagrouptypes</title>
<polygon fill="#efefef" stroke="none" points="2724.51,-166.4 2724.51,-202 3044.31,-202 3044.31,-166.4 2724.51,-166.4"/>
<polygon fill="none" stroke="black" points="2724.51,-166.4 2724.51,-202 3044.31,-202 3044.31,-166.4 2724.51,-166.4"/>
<text text-anchor="start" x="2751.43" y="-179.8" font-family="Arial Bold" font-size="18.00">ndb.taxagrouptypes</text>
<text text-anchor="start" x="2892.9" y="-179.8" font-family="Arial" font-size="14.00">    </text>
<text text-anchor="start" x="2924.02" y="-179.8" font-family="Arial" font-size="14.00" fill="#666666">[BASE TABLE]</text>
<polygon fill="none" stroke="black" points="2724.51,-135.6 2724.51,-166.4 3044.31,-166.4 3044.31,-135.6 2724.51,-135.6"/>
<text text-anchor="start" x="2731.51" y="-147.8" font-family="Arial" font-size="14.00">recdatecreated </text>
<text text-anchor="start" x="2828.79" y="-147.8" font-family="Arial" font-size="14.00" fill="#666666">[timestamp(0) without time zone]</text>
<polygon fill="none" stroke="black" points="2724.51,-104.8 2724.51,-135.6 3044.31,-135.6 3044.31,-104.8 2724.51,-104.8"/>
<text text-anchor="start" x="2731.51" y="-117" font-family="Arial" font-size="14.00">recdatemodified </text>
<text text-anchor="start" x="2835.01" y="-117" font-family="Arial" font-size="14.00" fill="#666666">[timestamp(0) without time zone]</text>
<polygon fill="none" stroke="black" points="2724.51,-74 2724.51,-104.8 3044.31,-104.8 3044.31,-74 2724.51,-74"/>
<text text-anchor="start" x="2731.51" y="-86.2" font-family="Arial" font-size="14.00">taxagroup </text>
<text text-anchor="start" x="2797.67" y="-86.2" font-family="Arial" font-size="14.00" fill="#666666">[varchar(64)]</text>
<polygon fill="none" stroke="black" points="2724.51,-43.2 2724.51,-74 3044.31,-74 3044.31,-43.2 2724.51,-43.2"/>
<text text-anchor="start" x="2731.51" y="-55.4" font-family="Arial" font-size="14.00">taxagroupid </text>
<text text-anchor="start" x="2808.56" y="-55.4" font-family="Arial" font-size="14.00" fill="#666666">[varchar(3)]</text>
</g>
<!-- ndb.datasettaxagrouptypes&#45;&gt;ndb.taxagrouptypes -->
<g id="edge7" class="edge">
<title>ndb.datasettaxagrouptypes:taxagroupid&#45;&gt;ndb.taxagrouptypes:taxagroupid</title>
<path fill="none" stroke="black" d="M2389.44,-493.27C2469.87,-484.13 2381.76,-359.59 2433.41,-281.2 2522.82,-145.49 2560.99,-58.6 2723.51,-58.6"/>
<polygon fill="black" stroke="black" points="2389.7,-493.25 2379.47,-489.29 2384.37,-493.54 2380.04,-493.76 2380.04,-493.76 2380.04,-493.76 2384.37,-493.54 2379.95,-498.28 2389.7,-493.25"/>
<text text-anchor="start" x="2092.61" y="-477.8" font-family="Arial" font-size="10.00">FOREIGN KEY (taxagroupid) REFERENCES ndb.taxagrouptypes(taxagroupid) ON UPDATE CASCADE ON DELETE CASCADE</text>
</g>
<!-- ndb.contextsdatasettypes -->
<g id="node3" class="node">
<title>ndb.contextsdatasettypes</title>
<polygon fill="#efefef" stroke="none" points="269.51,-601.6 269.51,-637.2 589.31,-637.2 589.31,-601.6 269.51,-601.6"/>
<polygon fill="none" stroke="black" points="269.51,-601.6 269.51,-637.2 589.31,-637.2 589.31,-601.6 269.51,-601.6"/>
<text text-anchor="start" x="277.44" y="-615" font-family="Arial Bold" font-size="18.00">ndb.contextsdatasettypes</text>
<text text-anchor="start" x="456.89" y="-615" font-family="Arial" font-size="14.00">    </text>
<text text-anchor="start" x="488.01" y="-615" font-family="Arial" font-size="14.00" fill="#666666">[BASE TABLE]</text>
<polygon fill="none" stroke="black" points="269.51,-570.8 269.51,-601.6 589.31,-601.6 589.31,-570.8 269.51,-570.8"/>
<text text-anchor="start" x="276.51" y="-583" font-family="Arial" font-size="14.00">datasettypeid </text>
<text text-anchor="start" x="363.68" y="-583" font-family="Arial" font-size="14.00" fill="#666666">[integer]</text>
<polygon fill="none" stroke="black" points="269.51,-540 269.51,-570.8 589.31,-570.8 589.31,-540 269.51,-540"/>
<text text-anchor="start" x="276.51" y="-552.2" font-family="Arial" font-size="14.00">recdatecreated </text>
<text text-anchor="start" x="373.79" y="-552.2" font-family="Arial" font-size="14.00" fill="#666666">[timestamp(0) without time zone]</text>
<polygon fill="none" stroke="black" points="269.51,-509.2 269.51,-540 589.31,-540 589.31,-509.2 269.51,-509.2"/>
<text text-anchor="start" x="276.51" y="-521.4" font-family="Arial" font-size="14.00">recdatemodified </text>
<text text-anchor="start" x="380.01" y="-521.4" font-family="Arial" font-size="14.00" fill="#666666">[timestamp(0) without time zone]</text>
<polygon fill="none" stroke="black" points="269.51,-478.4 269.51,-509.2 589.31,-509.2 589.31,-478.4 269.51,-478.4"/>
<text text-anchor="start" x="276.51" y="-490.6" font-family="Arial" font-size="14.00">variablecontextid </text>
<text text-anchor="start" x="385.46" y="-490.6" font-family="Arial" font-size="14.00" fill="#666666">[integer]</text>
</g>
<!-- ndb.contextsdatasettypes&#45;&gt;ndb.datasettypes -->
<g id="edge2" class="edge">
<title>ndb.contextsdatasettypes:datasettypeid&#45;&gt;ndb.datasettypes:datasettypeid</title>
<path fill="none" stroke="black" d="M600.42,-583.98C652.25,-558.89 596.55,-328.19 641.41,-281.2 758.69,-158.36 1218.68,-120.2 1388.51,-120.2"/>
<polygon fill="black" stroke="black" points="600.4,-583.99 589.67,-581.73 595.19,-585.13 590.96,-586.06 590.96,-586.06 590.96,-586.06 595.19,-585.13 591.6,-590.52 600.4,-583.99"/>
<text text-anchor="start" x="7" y="-596.2" font-family="Arial" font-size="10.00">FOREIGN KEY (datasettypeid) REFERENCES ndb.datasettypes(datasettypeid) ON UPDATE CASCADE ON DELETE CASCADE</text>
</g>
<!-- ndb.datasets -->
<g id="node4" class="node">
<title>ndb.datasets</title>
<polygon fill="#efefef" stroke="none" points="693.51,-663.2 693.51,-698.8 1013.31,-698.8 1013.31,-663.2 693.51,-663.2"/>
<polygon fill="none" stroke="black" points="693.51,-663.2 693.51,-698.8 1013.31,-698.8 1013.31,-663.2 693.51,-663.2"/>
<text text-anchor="start" x="746.92" y="-676.6" font-family="Arial Bold" font-size="18.00">ndb.datasets</text>
<text text-anchor="start" x="835.4" y="-676.6" font-family="Arial" font-size="14.00">    </text>
<text text-anchor="start" x="866.52" y="-676.6" font-family="Arial" font-size="14.00" fill="#666666">[BASE TABLE]</text>
<polygon fill="none" stroke="black" points="693.51,-632.4 693.51,-663.2 1013.31,-663.2 1013.31,-632.4 693.51,-632.4"/>
<text text-anchor="start" x="700.51" y="-644.6" font-family="Arial" font-size="14.00">collectionunitid </text>
<text text-anchor="start" x="796.23" y="-644.6" font-family="Arial" font-size="14.00" fill="#666666">[integer]</text>
<polygon fill="none" stroke="black" points="693.51,-601.6 693.51,-632.4 1013.31,-632.4 1013.31,-601.6 693.51,-601.6"/>
<text text-anchor="start" x="700.51" y="-613.8" font-family="Arial" font-size="14.00">datasetid </text>
<text text-anchor="start" x="761.22" y="-613.8" font-family="Arial" font-size="14.00" fill="#666666">[integer]</text>
<polygon fill="none" stroke="black" points="693.51,-570.8 693.51,-601.6 1013.31,-601.6 1013.31,-570.8 693.51,-570.8"/>
<text text-anchor="start" x="700.51" y="-583" font-family="Arial" font-size="14.00">datasetname </text>
<text text-anchor="start" x="785.34" y="-583" font-family="Arial" font-size="14.00" fill="#666666">[varchar(80)]</text>
<polygon fill="none" stroke="black" points="693.51,-540 693.51,-570.8 1013.31,-570.8 1013.31,-540 693.51,-540"/>
<text text-anchor="start" x="700.51" y="-552.2" font-family="Arial" font-size="14.00">datasettypeid </text>
<text text-anchor="start" x="787.68" y="-552.2" font-family="Arial" font-size="14.00" fill="#666666">[integer]</text>
<polygon fill="none" stroke="black" points="693.51,-509.2 693.51,-540 1013.31,-540 1013.31,-509.2 693.51,-509.2"/>
<text text-anchor="start" x="700.51" y="-521.4" font-family="Arial" font-size="14.00">embargoid </text>
<text text-anchor="start" x="770.55" y="-521.4" font-family="Arial" font-size="14.00" fill="#666666">[integer]</text>
<polygon fill="none" stroke="black" points="693.51,-478.4 693.51,-509.2 1013.31,-509.2 1013.31,-478.4 693.51,-478.4"/>
<text text-anchor="start" x="700.51" y="-490.6" font-family="Arial" font-size="14.00">notes </text>
<text text-anchor="start" x="738.65" y="-490.6" font-family="Arial" font-size="14.00" fill="#666666">[text]</text>
<polygon fill="none" stroke="black" points="693.51,-447.6 693.51,-478.4 1013.31,-478.4 1013.31,-447.6 693.51,-447.6"/>
<text text-anchor="start" x="700.51" y="-459.8" font-family="Arial" font-size="14.00">recdatecreated </text>
<text text-anchor="start" x="797.79" y="-459.8" font-family="Arial" font-size="14.00" fill="#666666">[timestamp(0) without time zone]</text>
<polygon fill="none" stroke="black" points="693.51,-416.8 693.51,-447.6 1013.31,-447.6 1013.31,-416.8 693.51,-416.8"/>
<text text-anchor="start" x="700.51" y="-429" font-family="Arial" font-size="14.00">recdatemodified </text>
<text text-anchor="start" x="804.01" y="-429" font-family="Arial" font-size="14.00" fill="#666666">[timestamp(0) without time zone]</text>
</g>
<!-- ndb.datasets&#45;&gt;ndb.datasettypes -->
<g id="edge3" class="edge">
<title>ndb.datasets:datasettypeid&#45;&gt;ndb.datasettypes:datasettypeid</title>
<path fill="none" stroke="black" d="M1024.4,-553.02C1070.77,-528.83 1030.34,-327.68 1065.41,-281.2 1162.04,-153.13 1228.07,-120.2 1388.51,-120.2"/>
<polygon fill="black" stroke="black" points="1024.37,-553.02 1013.6,-550.94 1019.17,-554.25 1014.96,-555.25 1014.96,-555.25 1014.96,-555.25 1019.17,-554.25 1015.67,-559.7 1024.37,-553.02"/>
<text text-anchor="start" x="726.15" y="-539.4" font-family="Arial" font-size="10.00">FOREIGN KEY (datasettypeid) REFERENCES ndb.datasettypes(datasettypeid) ON UPDATE CASCADE ON DELETE CASCADE</text>
</g>
<!-- ndb.elementdatasettaxagroups -->
<g id="node5" class="node">
<title>ndb.elementdatasettaxagroups</title>
<polygon fill="#efefef" stroke="none" points="2485.45,-617 2485.45,-652.6 2841.37,-652.6 2841.37,-617 2485.45,-617"/>
<polygon fill="none" stroke="black" points="2485.45,-617 2485.45,-652.6 2841.37,-652.6 2841.37,-617 2485.45,-617"/>
<text text-anchor="start" x="2492.45" y="-630.4" font-family="Arial Bold" font-size="18.00">ndb.elementdatasettaxagroups</text>
<text text-anchor="start" x="2709.88" y="-630.4" font-family="Arial" font-size="14.00">    </text>
<text text-anchor="start" x="2740.99" y="-630.4" font-family="Arial" font-size="14.00" fill="#666666">[BASE TABLE]</text>
<polygon fill="none" stroke="black" points="2485.45,-586.2 2485.45,-617 2841.37,-617 2841.37,-586.2 2485.45,-586.2"/>
<text text-anchor="start" x="2492.45" y="-598.4" font-family="Arial" font-size="14.00">datasettypeid </text>
<text text-anchor="start" x="2579.62" y="-598.4" font-family="Arial" font-size="14.00" fill="#666666">[integer]</text>
<polygon fill="none" stroke="black" points="2485.45,-555.4 2485.45,-586.2 2841.37,-586.2 2841.37,-555.4 2485.45,-555.4"/>
<text text-anchor="start" x="2492.45" y="-567.6" font-family="Arial" font-size="14.00">elementtypeid </text>
<text text-anchor="start" x="2583.51" y="-567.6" font-family="Arial" font-size="14.00" fill="#666666">[integer]</text>
<polygon fill="none" stroke="black" points="2485.45,-524.6 2485.45,-555.4 2841.37,-555.4 2841.37,-524.6 2485.45,-524.6"/>
<text text-anchor="start" x="2492.45" y="-536.8" font-family="Arial" font-size="14.00">recdatecreated </text>
<text text-anchor="start" x="2589.73" y="-536.8" font-family="Arial" font-size="14.00" fill="#666666">[timestamp(0) without time zone]</text>
<polygon fill="none" stroke="black" points="2485.45,-493.8 2485.45,-524.6 2841.37,-524.6 2841.37,-493.8 2485.45,-493.8"/>
<text text-anchor="start" x="2492.45" y="-506" font-family="Arial" font-size="14.00">recdatemodified </text>
<text text-anchor="start" x="2595.96" y="-506" font-family="Arial" font-size="14.00" fill="#666666">[timestamp(0) without time zone]</text>
<polygon fill="none" stroke="black" points="2485.45,-463 2485.45,-493.8 2841.37,-493.8 2841.37,-463 2485.45,-463"/>
<text text-anchor="start" x="2492.45" y="-475.2" font-family="Arial" font-size="14.00">taxagroupid </text>
<text text-anchor="start" x="2569.51" y="-475.2" font-family="Arial" font-size="14.00" fill="#666666">[varchar(3)]</text>
</g>
<!-- ndb.elementdatasettaxagroups&#45;&gt;ndb.datasettypes -->
<g id="edge4" class="edge">
<title>ndb.elementdatasettaxagroups:datasettypeid&#45;&gt;ndb.datasettypes:datasettypeid</title>
<path fill="none" stroke="black" d="M2474.54,-599.59C2419.2,-574.95 2480.3,-331.05 2433.41,-281.2 2320.61,-161.29 1874.93,-120.2 1710.31,-120.2"/>
<polygon fill="black" stroke="black" points="2474.32,-599.55 2483.23,-605.94 2479.55,-600.61 2483.8,-601.47 2483.8,-601.47 2483.8,-601.47 2479.55,-600.61 2485.02,-597.12 2474.32,-599.55"/>
<text text-anchor="start" x="2215.84" y="-585.6" font-family="Arial" font-size="10.00">FOREIGN KEY (datasettypeid) REFERENCES ndb.datasettypes(datasettypeid)</text>
</g>
<!-- ndb.elementdatasettaxagroups&#45;&gt;ndb.taxagrouptypes -->
<g id="edge8" class="edge">
<title>ndb.elementdatasettaxagroups:taxagroupid&#45;&gt;ndb.taxagrouptypes:taxagroupid</title>
<path fill="none" stroke="black" d="M2852.35,-475.38C2861.86,-466.56 2847.75,-440.19 2841.37,-419.8 2813.46,-330.69 2751.89,-334.47 2724.51,-245.2 2700.19,-165.91 2640.58,-58.6 2723.51,-58.6"/>
<polygon fill="black" stroke="black" points="2852.26,-475.41 2841.38,-474 2847.15,-476.95 2843.01,-478.21 2843.01,-478.21 2843.01,-478.21 2847.15,-476.95 2843.99,-482.61 2852.26,-475.41"/>
<text text-anchor="start" x="2849.37" y="-488.4" font-family="Arial" font-size="10.00">FOREIGN KEY (taxagroupid) REFERENCES ndb.taxagrouptypes(taxagroupid)</text>
</g>
<!-- ndb.taphonomicsystemsdatasettypes -->
<g id="node6" class="node">
<title>ndb.taphonomicsystemsdatasettypes</title>
<polygon fill="#efefef" stroke="none" points="1117.44,-601.6 1117.44,-637.2 1517.38,-637.2 1517.38,-601.6 1117.44,-601.6"/>
<polygon fill="none" stroke="black" points="1117.44,-601.6 1117.44,-637.2 1517.38,-637.2 1517.38,-601.6 1117.44,-601.6"/>
<text text-anchor="start" x="1124.44" y="-615" font-family="Arial Bold" font-size="18.00">ndb.taphonomicsystemsdatasettypes</text>
<text text-anchor="start" x="1385.89" y="-615" font-family="Arial" font-size="14.00">    </text>
<text text-anchor="start" x="1417.01" y="-615" font-family="Arial" font-size="14.00" fill="#666666">[BASE TABLE]</text>
<polygon fill="none" stroke="black" points="1117.44,-570.8 1117.44,-601.6 1517.38,-601.6 1517.38,-570.8 1117.44,-570.8"/>
<text text-anchor="start" x="1124.44" y="-583" font-family="Arial" font-size="14.00">datasettypeid </text>
<text text-anchor="start" x="1211.61" y="-583" font-family="Arial" font-size="14.00" fill="#666666">[integer]</text>
<polygon fill="none" stroke="black" points="1117.44,-540 1117.44,-570.8 1517.38,-570.8 1517.38,-540 1117.44,-540"/>
<text text-anchor="start" x="1124.44" y="-552.2" font-family="Arial" font-size="14.00">recdatecreated </text>
<text text-anchor="start" x="1221.72" y="-552.2" font-family="Arial" font-size="14.00" fill="#666666">[timestamp(0) without time zone]</text>
<polygon fill="none" stroke="black" points="1117.44,-509.2 1117.44,-540 1517.38,-540 1517.38,-509.2 1117.44,-509.2"/>
<text text-anchor="start" x="1124.44" y="-521.4" font-family="Arial" font-size="14.00">recdatemodified </text>
<text text-anchor="start" x="1227.94" y="-521.4" font-family="Arial" font-size="14.00" fill="#666666">[timestamp(0) without time zone]</text>
<polygon fill="none" stroke="black" points="1117.44,-478.4 1117.44,-509.2 1517.38,-509.2 1517.38,-478.4 1117.44,-478.4"/>
<text text-anchor="start" x="1124.44" y="-490.6" font-family="Arial" font-size="14.00">taphonomicsystemid </text>
<text text-anchor="start" x="1255.94" y="-490.6" font-family="Arial" font-size="14.00" fill="#666666">[integer]</text>
</g>
<!-- ndb.taphonomicsystemsdatasettypes&#45;&gt;ndb.datasettypes -->
<g id="edge5" class="edge">
<title>ndb.taphonomicsystemsdatasettypes:datasettypeid&#45;&gt;ndb.datasettypes:datasettypeid</title>
<path fill="none" stroke="black" d="M1528.7,-585.38C1580.11,-576.43 1536.06,-495.69 1517.38,-435.2 1487.35,-337.94 1419.61,-342.44 1389.51,-245.2 1373.08,-192.13 1332.95,-120.2 1388.51,-120.2"/>
<polygon fill="black" stroke="black" points="1528.68,-585.39 1518.36,-581.69 1523.37,-585.81 1519.05,-586.15 1519.05,-586.15 1519.05,-586.15 1523.37,-585.81 1519.07,-590.66 1528.68,-585.39"/>
<text text-anchor="start" x="1525.38" y="-596.2" font-family="Arial" font-size="10.00">FOREIGN KEY (datasettypeid) REFERENCES ndb.datasettypes(datasettypeid) ON UPDATE CASCADE ON DELETE CASCADE</text>
</g>
<!-- ndb.unitsdatasettypes -->
<g id="node7" class="node">
<title>ndb.unitsdatasettypes</title>
<polygon fill="#efefef" stroke="none" points="1621.51,-601.6 1621.51,-637.2 1941.31,-637.2 1941.31,-601.6 1621.51,-601.6"/>
<polygon fill="none" stroke="black" points="1621.51,-601.6 1621.51,-637.2 1941.31,-637.2 1941.31,-601.6 1621.51,-601.6"/>
<text text-anchor="start" x="1641.93" y="-615" font-family="Arial Bold" font-size="18.00">ndb.unitsdatasettypes</text>
<text text-anchor="start" x="1796.4" y="-615" font-family="Arial" font-size="14.00">    </text>
<text text-anchor="start" x="1827.52" y="-615" font-family="Arial" font-size="14.00" fill="#666666">[BASE TABLE]</text>
<polygon fill="none" stroke="black" points="1621.51,-570.8 1621.51,-601.6 1941.31,-601.6 1941.31,-570.8 1621.51,-570.8"/>
<text text-anchor="start" x="1628.51" y="-583" font-family="Arial" font-size="14.00">datasettypeid </text>
<text text-anchor="start" x="1715.68" y="-583" font-family="Arial" font-size="14.00" fill="#666666">[integer]</text>
<polygon fill="none" stroke="black" points="1621.51,-540 1621.51,-570.8 1941.31,-570.8 1941.31,-540 1621.51,-540"/>
<text text-anchor="start" x="1628.51" y="-552.2" font-family="Arial" font-size="14.00">recdatecreated </text>
<text text-anchor="start" x="1725.79" y="-552.2" font-family="Arial" font-size="14.00" fill="#666666">[timestamp(0) without time zone]</text>
<polygon fill="none" stroke="black" points="1621.51,-509.2 1621.51,-540 1941.31,-540 1941.31,-509.2 1621.51,-509.2"/>
<text text-anchor="start" x="1628.51" y="-521.4" font-family="Arial" font-size="14.00">recdatemodified </text>
<text text-anchor="start" x="1732.01" y="-521.4" font-family="Arial" font-size="14.00" fill="#666666">[timestamp(0) without time zone]</text>
<polygon fill="none" stroke="black" points="1621.51,-478.4 1621.51,-509.2 1941.31,-509.2 1941.31,-478.4 1621.51,-478.4"/>
<text text-anchor="start" x="1628.51" y="-490.6" font-family="Arial" font-size="14.00">variableunitsid </text>
<text text-anchor="start" x="1721.9" y="-490.6" font-family="Arial" font-size="14.00" fill="#666666">[integer]</text>
</g>
<!-- ndb.unitsdatasettypes&#45;&gt;ndb.datasettypes -->
<g id="edge6" class="edge">
<title>ndb.unitsdatasettypes:datasettypeid&#45;&gt;ndb.datasettypes:datasettypeid</title>
<path fill="none" stroke="black" d="M1610.33,-585.49C1513.99,-570.9 1688.96,-336.02 1709.31,-245.2 1721.46,-190.99 1765.87,-120.2 1710.31,-120.2"/>
<polygon fill="black" stroke="black" points="1610.2,-585.48 1619.86,-590.67 1615.52,-585.85 1619.84,-586.15 1619.84,-586.15 1619.84,-586.15 1615.52,-585.85 1620.49,-581.69 1610.2,-585.48"/>
<text text-anchor="start" x="1627.51" y="-570.2" font-family="Arial" font-size="10.00">FOREIGN KEY (datasettypeid) REFERENCES ndb.datasettypes(datasettypeid) ON UPDATE CASCADE ON DELETE CASCADE</text>
</g>
<!-- ndb.elementtaxagroups -->
<g id="node9" class="node">
<title>ndb.elementtaxagroups</title>
<polygon fill="#efefef" stroke="none" points="2945.51,-617 2945.51,-652.6 3265.31,-652.6 3265.31,-617 2945.51,-617"/>
<polygon fill="none" stroke="black" points="2945.51,-617 2945.51,-652.6 3265.31,-652.6 3265.31,-617 2945.51,-617"/>
<text text-anchor="start" x="2959.44" y="-630.4" font-family="Arial Bold" font-size="18.00">ndb.elementtaxagroups</text>
<text text-anchor="start" x="3126.89" y="-630.4" font-family="Arial" font-size="14.00">    </text>
<text text-anchor="start" x="3158.01" y="-630.4" font-family="Arial" font-size="14.00" fill="#666666">[BASE TABLE]</text>
<polygon fill="none" stroke="black" points="2945.51,-586.2 2945.51,-617 3265.31,-617 3265.31,-586.2 2945.51,-586.2"/>
<text text-anchor="start" x="2952.51" y="-598.4" font-family="Arial" font-size="14.00">elementtaxagroupid </text>
<text text-anchor="start" x="3079.37" y="-598.4" font-family="Arial" font-size="14.00" fill="#666666">[integer]</text>
<polygon fill="none" stroke="black" points="2945.51,-555.4 2945.51,-586.2 3265.31,-586.2 3265.31,-555.4 2945.51,-555.4"/>
<text text-anchor="start" x="2952.51" y="-567.6" font-family="Arial" font-size="14.00">elementtypeid </text>
<text text-anchor="start" x="3043.56" y="-567.6" font-family="Arial" font-size="14.00" fill="#666666">[integer]</text>
<polygon fill="none" stroke="black" points="2945.51,-524.6 2945.51,-555.4 3265.31,-555.4 3265.31,-524.6 2945.51,-524.6"/>
<text text-anchor="start" x="2952.51" y="-536.8" font-family="Arial" font-size="14.00">recdatecreated </text>
<text text-anchor="start" x="3049.79" y="-536.8" font-family="Arial" font-size="14.00" fill="#666666">[timestamp(0) without time zone]</text>
<polygon fill="none" stroke="black" points="2945.51,-493.8 2945.51,-524.6 3265.31,-524.6 3265.31,-493.8 2945.51,-493.8"/>
<text text-anchor="start" x="2952.51" y="-506" font-family="Arial" font-size="14.00">recdatemodified </text>
<text text-anchor="start" x="3056.01" y="-506" font-family="Arial" font-size="14.00" fill="#666666">[timestamp(0) without time zone]</text>
<polygon fill="none" stroke="black" points="2945.51,-463 2945.51,-493.8 3265.31,-493.8 3265.31,-463 2945.51,-463"/>
<text text-anchor="start" x="2952.51" y="-475.2" font-family="Arial" font-size="14.00">taxagroupid </text>
<text text-anchor="start" x="3029.56" y="-475.2" font-family="Arial" font-size="14.00" fill="#666666">[varchar(3)]</text>
</g>
<!-- ndb.elementtaxagroups&#45;&gt;ndb.taxagrouptypes -->
<g id="edge9" class="edge">
<title>ndb.elementtaxagroups:taxagroupid&#45;&gt;ndb.taxagrouptypes:taxagroupid</title>
<path fill="none" stroke="black" d="M2934.6,-475.4C2925.29,-466.64 2939.89,-440.42 2945.51,-419.8 2968.95,-333.77 3021.37,-331.36 3044.31,-245.2 3065.64,-165.06 3128.24,-58.6 3045.31,-58.6"/>
<polygon fill="black" stroke="black" points="2934.62,-475.41 2942.89,-482.61 2939.72,-476.95 2943.87,-478.21 2943.87,-478.21 2943.87,-478.21 2939.72,-476.95 2945.49,-474 2934.62,-475.41"/>
<text text-anchor="start" x="2951.51" y="-462.4" font-family="Arial" font-size="10.00">FOREIGN KEY (taxagroupid) REFERENCES ndb.taxagrouptypes(taxagroupid) ON UPDATE CASCADE ON DELETE CASCADE</text>
</g>
<!-- ndb.taxa -->
<g id="node10" class="node">
<title>ndb.taxa</title>
<polygon fill="#efefef" stroke="none" points="3369.51,-755.6 3369.51,-791.2 3689.31,-791.2 3689.31,-755.6 3369.51,-755.6"/>
<polygon fill="none" stroke="black" points="3369.51,-755.6 3369.51,-791.2 3689.31,-791.2 3689.31,-755.6 3369.51,-755.6"/>
<text text-anchor="start" x="3436.42" y="-769" font-family="Arial Bold" font-size="18.00">ndb.taxa</text>
<text text-anchor="start" x="3497.9" y="-769" font-family="Arial" font-size="14.00">    </text>
<text text-anchor="start" x="3529.02" y="-769" font-family="Arial" font-size="14.00" fill="#666666">[BASE TABLE]</text>
<polygon fill="none" stroke="black" points="3369.51,-724.8 3369.51,-755.6 3689.31,-755.6 3689.31,-724.8 3369.51,-724.8"/>
<text text-anchor="start" x="3376.51" y="-737" font-family="Arial" font-size="14.00">author </text>
<text text-anchor="start" x="3420.1" y="-737" font-family="Arial" font-size="14.00" fill="#666666">[varchar(128)]</text>
<polygon fill="none" stroke="black" points="3369.51,-694 3369.51,-724.8 3689.31,-724.8 3689.31,-694 3369.51,-694"/>
<text text-anchor="start" x="3376.51" y="-706.2" font-family="Arial" font-size="14.00">extinct </text>
<text text-anchor="start" x="3420.86" y="-706.2" font-family="Arial" font-size="14.00" fill="#666666">[boolean]</text>
<polygon fill="none" stroke="black" points="3369.51,-663.2 3369.51,-694 3689.31,-694 3689.31,-663.2 3369.51,-663.2"/>
<text text-anchor="start" x="3376.51" y="-675.4" font-family="Arial" font-size="14.00">highertaxonid </text>
<text text-anchor="start" x="3464.46" y="-675.4" font-family="Arial" font-size="14.00" fill="#666666">[integer]</text>
<polygon fill="none" stroke="black" points="3369.51,-632.4 3369.51,-663.2 3689.31,-663.2 3689.31,-632.4 3369.51,-632.4"/>
<text text-anchor="start" x="3376.51" y="-644.6" font-family="Arial" font-size="14.00">notes </text>
<text text-anchor="start" x="3414.65" y="-644.6" font-family="Arial" font-size="14.00" fill="#666666">[text]</text>
<polygon fill="none" stroke="black" points="3369.51,-601.6 3369.51,-632.4 3689.31,-632.4 3689.31,-601.6 3369.51,-601.6"/>
<text text-anchor="start" x="3376.51" y="-613.8" font-family="Arial" font-size="14.00">publicationid </text>
<text text-anchor="start" x="3458.23" y="-613.8" font-family="Arial" font-size="14.00" fill="#666666">[integer]</text>
<polygon fill="none" stroke="black" points="3369.51,-570.8 3369.51,-601.6 3689.31,-601.6 3689.31,-570.8 3369.51,-570.8"/>
<text text-anchor="start" x="3376.51" y="-583" font-family="Arial" font-size="14.00">recdatecreated </text>
<text text-anchor="start" x="3473.79" y="-583" font-family="Arial" font-size="14.00" fill="#666666">[timestamp(0) without time zone]</text>
<polygon fill="none" stroke="black" points="3369.51,-540 3369.51,-570.8 3689.31,-570.8 3689.31,-540 3369.51,-540"/>
<text text-anchor="start" x="3376.51" y="-552.2" font-family="Arial" font-size="14.00">recdatemodified </text>
<text text-anchor="start" x="3480.01" y="-552.2" font-family="Arial" font-size="14.00" fill="#666666">[timestamp(0) without time zone]</text>
<polygon fill="none" stroke="black" points="3369.51,-509.2 3369.51,-540 3689.31,-540 3689.31,-509.2 3369.51,-509.2"/>
<text text-anchor="start" x="3376.51" y="-521.4" font-family="Arial" font-size="14.00">taxagroupid </text>
<text text-anchor="start" x="3453.56" y="-521.4" font-family="Arial" font-size="14.00" fill="#666666">[varchar(3)]</text>
<polygon fill="none" stroke="black" points="3369.51,-478.4 3369.51,-509.2 3689.31,-509.2 3689.31,-478.4 3369.51,-478.4"/>
<text text-anchor="start" x="3376.51" y="-490.6" font-family="Arial" font-size="14.00">taxoncode </text>
<text text-anchor="start" x="3445.01" y="-490.6" font-family="Arial" font-size="14.00" fill="#666666">[varchar(64)]</text>
<polygon fill="none" stroke="black" points="3369.51,-447.6 3369.51,-478.4 3689.31,-478.4 3689.31,-447.6 3369.51,-447.6"/>
<text text-anchor="start" x="3376.51" y="-459.8" font-family="Arial" font-size="14.00">taxonid </text>
<text text-anchor="start" x="3425.54" y="-459.8" font-family="Arial" font-size="14.00" fill="#666666">[integer]</text>
<polygon fill="none" stroke="black" points="3369.51,-416.8 3369.51,-447.6 3689.31,-447.6 3689.31,-416.8 3369.51,-416.8"/>
<text text-anchor="start" x="3376.51" y="-429" font-family="Arial" font-size="14.00">taxonname </text>
<text text-anchor="start" x="3449.67" y="-429" font-family="Arial" font-size="14.00" fill="#666666">[text]</text>
<polygon fill="none" stroke="black" points="3369.51,-386 3369.51,-416.8 3689.31,-416.8 3689.31,-386 3369.51,-386"/>
<text text-anchor="start" x="3376.51" y="-398.2" font-family="Arial" font-size="14.00">valid </text>
<text text-anchor="start" x="3409.19" y="-398.2" font-family="Arial" font-size="14.00" fill="#666666">[boolean]</text>
<polygon fill="none" stroke="black" points="3369.51,-355.2 3369.51,-386 3689.31,-386 3689.31,-355.2 3369.51,-355.2"/>
<text text-anchor="start" x="3376.51" y="-367.4" font-family="Arial" font-size="14.00">validatedate </text>
<text text-anchor="start" x="3455.9" y="-367.4" font-family="Arial" font-size="14.00" fill="#666666">[date]</text>
<polygon fill="none" stroke="black" points="3369.51,-324.4 3369.51,-355.2 3689.31,-355.2 3689.31,-324.4 3369.51,-324.4"/>
<text text-anchor="start" x="3376.51" y="-336.6" font-family="Arial" font-size="14.00">validatorid </text>
<text text-anchor="start" x="3444.21" y="-336.6" font-family="Arial" font-size="14.00" fill="#666666">[integer]</text>
</g>
<!-- ndb.taxa&#45;&gt;ndb.taxagrouptypes -->
<g id="edge10" class="edge">
<title>ndb.taxa:taxagroupid&#45;&gt;ndb.taxagrouptypes:taxagroupid</title>
<path fill="none" stroke="black" d="M3358.24,-524.11C3265.54,-514.77 3372.9,-372.53 3317.41,-281.2 3236.27,-147.67 3201.55,-58.6 3045.31,-58.6"/>
<polygon fill="black" stroke="black" points="3358.19,-524.11 3367.96,-529.08 3363.52,-524.36 3367.84,-524.57 3367.84,-524.57 3367.84,-524.57 3363.52,-524.36 3368.39,-520.09 3358.19,-524.11"/>
<text text-anchor="start" x="3010.8" y="-534.6" font-family="Arial" font-size="10.00">FOREIGN KEY (taxagroupid) REFERENCES ndb.taxagrouptypes(taxagroupid)</text>
</g>
</g>
</svg>
