<?xml version="1.0" encoding="UTF-8" standalone="no"?>
<!DOCTYPE svg PUBLIC "-//W3C//DTD SVG 1.1//EN"
 "http://www.w3.org/Graphics/SVG/1.1/DTD/svg11.dtd">
<!-- Generated by graphviz version 12.1.2 (20240928.0832)
 -->
<!-- Title: ndb.isoinstrumentationtypes Pages: 1 -->
<svg width="1845pt" height="842pt"
 viewBox="0.00 0.00 1845.48 842.40" xmlns="http://www.w3.org/2000/svg" xmlns:xlink="http://www.w3.org/1999/xlink">
<g id="graph0" class="graph" transform="scale(1 1) rotate(0) translate(4 838.4)">
<title>ndb.isoinstrumentationtypes</title>
<polygon fill="white" stroke="none" points="-4,4 -4,-838.4 1841.48,-838.4 1841.48,4 -4,4"/>
<!-- ndb.isoinstrumentationtypes -->
<g id="node1" class="node">
<title>ndb.isoinstrumentationtypes</title>
<polygon fill="#efefef" stroke="none" points="64.27,-228 64.27,-263.6 406.24,-263.6 406.24,-228 64.27,-228"/>
<polygon fill="none" stroke="black" points="64.27,-228 64.27,-263.6 406.24,-263.6 406.24,-228 64.27,-228"/>
<text text-anchor="start" x="71.27" y="-241.4" font-family="Arial Bold" font-size="18.00">ndb.isoinstrumentationtypes</text>
<text text-anchor="start" x="274.75" y="-241.4" font-family="Arial" font-size="14.00">    </text>
<text text-anchor="start" x="305.87" y="-241.4" font-family="Arial" font-size="14.00" fill="#666666">[BASE TABLE]</text>
<polygon fill="none" stroke="black" points="64.27,-197.2 64.27,-228 406.24,-228 406.24,-197.2 64.27,-197.2"/>
<text text-anchor="start" x="71.27" y="-209.4" font-family="Arial" font-size="14.00">isoinstrumentationtype </text>
<text text-anchor="start" x="215.23" y="-209.4" font-family="Arial" font-size="14.00" fill="#666666">[varchar(256)]</text>
<polygon fill="none" stroke="black" points="64.27,-166.4 64.27,-197.2 406.24,-197.2 406.24,-166.4 64.27,-166.4"/>
<text text-anchor="start" x="71.27" y="-178.6" font-family="Arial" font-size="14.00">isoinstrumentationtypeid </text>
<text text-anchor="start" x="226.13" y="-178.6" font-family="Arial" font-size="14.00" fill="#666666">[integer]</text>
<polygon fill="none" stroke="black" points="64.27,-135.6 64.27,-166.4 406.24,-166.4 406.24,-135.6 64.27,-135.6"/>
<text text-anchor="start" x="71.27" y="-147.8" font-family="Arial" font-size="14.00">recdatecreated </text>
<text text-anchor="start" x="168.55" y="-147.8" font-family="Arial" font-size="14.00" fill="#666666">[timestamp(0) without time zone]</text>
<polygon fill="none" stroke="black" points="64.27,-104.8 64.27,-135.6 406.24,-135.6 406.24,-104.8 64.27,-104.8"/>
<text text-anchor="start" x="71.27" y="-117" font-family="Arial" font-size="14.00">recdatemodified </text>
<text text-anchor="start" x="174.77" y="-117" font-family="Arial" font-size="14.00" fill="#666666">[timestamp(0) without time zone]</text>
<polygon fill="none" stroke="black" stroke-width="3" points="62.77,-103.3 62.77,-265.1 407.74,-265.1 407.74,-103.3 62.77,-103.3"/>
</g>
<!-- ndb.isoinstrumentation -->
<g id="node2" class="node">
<title>ndb.isoinstrumentation</title>
<polygon fill="#efefef" stroke="none" points="736.36,-755.6 736.36,-791.2 1056.16,-791.2 1056.16,-755.6 736.36,-755.6"/>
<polygon fill="none" stroke="black" points="736.36,-755.6 736.36,-791.2 1056.16,-791.2 1056.16,-755.6 736.36,-755.6"/>
<text text-anchor="start" x="751.27" y="-769" font-family="Arial Bold" font-size="18.00">ndb.isoinstrumentation</text>
<text text-anchor="start" x="916.76" y="-769" font-family="Arial" font-size="14.00">    </text>
<text text-anchor="start" x="947.87" y="-769" font-family="Arial" font-size="14.00" fill="#666666">[BASE TABLE]</text>
<polygon fill="none" stroke="black" points="736.36,-724.8 736.36,-755.6 1056.16,-755.6 1056.16,-724.8 736.36,-724.8"/>
<text text-anchor="start" x="743.36" y="-737" font-family="Arial" font-size="14.00">datasetid </text>
<text text-anchor="start" x="804.07" y="-737" font-family="Arial" font-size="14.00" fill="#666666">[integer]</text>
<polygon fill="none" stroke="black" points="736.36,-694 736.36,-724.8 1056.16,-724.8 1056.16,-694 736.36,-694"/>
<text text-anchor="start" x="743.36" y="-706.2" font-family="Arial" font-size="14.00">insterrorlongtermpercent </text>
<text text-anchor="start" x="899.76" y="-706.2" font-family="Arial" font-size="14.00" fill="#666666">[double precision]</text>
<polygon fill="none" stroke="black" points="736.36,-663.2 736.36,-694 1056.16,-694 1056.16,-663.2 736.36,-663.2"/>
<text text-anchor="start" x="743.36" y="-675.4" font-family="Arial" font-size="14.00">insterrorpercent </text>
<text text-anchor="start" x="845.29" y="-675.4" font-family="Arial" font-size="14.00" fill="#666666">[double precision]</text>
<polygon fill="none" stroke="black" points="736.36,-632.4 736.36,-663.2 1056.16,-663.2 1056.16,-632.4 736.36,-632.4"/>
<text text-anchor="start" x="743.36" y="-644.6" font-family="Arial" font-size="14.00">insterrorrunsd </text>
<text text-anchor="start" x="833.61" y="-644.6" font-family="Arial" font-size="14.00" fill="#666666">[double precision]</text>
<polygon fill="none" stroke="black" points="736.36,-601.6 736.36,-632.4 1056.16,-632.4 1056.16,-601.6 736.36,-601.6"/>
<text text-anchor="start" x="743.36" y="-613.8" font-family="Arial" font-size="14.00">isoinstrumentationtypeid </text>
<text text-anchor="start" x="898.22" y="-613.8" font-family="Arial" font-size="14.00" fill="#666666">[integer]</text>
<polygon fill="none" stroke="black" points="736.36,-570.8 736.36,-601.6 1056.16,-601.6 1056.16,-570.8 736.36,-570.8"/>
<text text-anchor="start" x="743.36" y="-583" font-family="Arial" font-size="14.00">isosampleintrosystemtypeid </text>
<text text-anchor="start" x="919.21" y="-583" font-family="Arial" font-size="14.00" fill="#666666">[integer]</text>
<polygon fill="none" stroke="black" points="736.36,-540 736.36,-570.8 1056.16,-570.8 1056.16,-540 736.36,-540"/>
<text text-anchor="start" x="743.36" y="-552.2" font-family="Arial" font-size="14.00">notes </text>
<text text-anchor="start" x="781.5" y="-552.2" font-family="Arial" font-size="14.00" fill="#666666">[text]</text>
<polygon fill="none" stroke="black" points="736.36,-509.2 736.36,-540 1056.16,-540 1056.16,-509.2 736.36,-509.2"/>
<text text-anchor="start" x="743.36" y="-521.4" font-family="Arial" font-size="14.00">recdatecreated </text>
<text text-anchor="start" x="840.64" y="-521.4" font-family="Arial" font-size="14.00" fill="#666666">[timestamp(0) without time zone]</text>
<polygon fill="none" stroke="black" points="736.36,-478.4 736.36,-509.2 1056.16,-509.2 1056.16,-478.4 736.36,-478.4"/>
<text text-anchor="start" x="743.36" y="-490.6" font-family="Arial" font-size="14.00">recdatemodified </text>
<text text-anchor="start" x="846.86" y="-490.6" font-family="Arial" font-size="14.00" fill="#666666">[timestamp(0) without time zone]</text>
<polygon fill="none" stroke="black" points="736.36,-447.6 736.36,-478.4 1056.16,-478.4 1056.16,-447.6 736.36,-447.6"/>
<text text-anchor="start" x="743.36" y="-459.8" font-family="Arial" font-size="14.00">variableid </text>
<text text-anchor="start" x="807.17" y="-459.8" font-family="Arial" font-size="14.00" fill="#666666">[integer]</text>
</g>
<!-- ndb.isoinstrumentation&#45;&gt;ndb.isoinstrumentationtypes -->
<g id="edge1" class="edge">
<title>ndb.isoinstrumentation:isoinstrumentationtypeid&#45;&gt;ndb.isoinstrumentationtypes:isoinstrumentationtypeid</title>
<path fill="none" stroke="black" d="M724.95,-616.85C569.89,-612.3 546.46,-504.92 461.26,-368.4 415.55,-295.16 493.58,-181.8 407.24,-181.8"/>
<polygon fill="black" stroke="black" points="725.02,-616.85 734.96,-621.49 730.36,-616.93 734.69,-616.99 734.69,-616.99 734.69,-616.99 730.36,-616.93 735.09,-612.5 725.02,-616.85"/>
<text text-anchor="start" x="7" y="-627" font-family="Arial" font-size="10.00">FOREIGN KEY (isoinstrumentationtypeid) REFERENCES ndb.isoinstrumentationtypes(isoinstrumentationtypeid) ON UPDATE CASCADE ON DELETE CASCADE</text>
</g>
<!-- ndb.datasets -->
<g id="node3" class="node">
<title>ndb.datasets</title>
<polygon fill="#efefef" stroke="none" points="513.36,-289.6 513.36,-325.2 833.16,-325.2 833.16,-289.6 513.36,-289.6"/>
<polygon fill="none" stroke="black" points="513.36,-289.6 513.36,-325.2 833.16,-325.2 833.16,-289.6 513.36,-289.6"/>
<text text-anchor="start" x="566.77" y="-303" font-family="Arial Bold" font-size="18.00">ndb.datasets</text>
<text text-anchor="start" x="655.25" y="-303" font-family="Arial" font-size="14.00">    </text>
<text text-anchor="start" x="686.37" y="-303" font-family="Arial" font-size="14.00" fill="#666666">[BASE TABLE]</text>
<polygon fill="none" stroke="black" points="513.36,-258.8 513.36,-289.6 833.16,-289.6 833.16,-258.8 513.36,-258.8"/>
<text text-anchor="start" x="520.36" y="-271" font-family="Arial" font-size="14.00">collectionunitid </text>
<text text-anchor="start" x="616.08" y="-271" font-family="Arial" font-size="14.00" fill="#666666">[integer]</text>
<polygon fill="none" stroke="black" points="513.36,-228 513.36,-258.8 833.16,-258.8 833.16,-228 513.36,-228"/>
<text text-anchor="start" x="520.36" y="-240.2" font-family="Arial" font-size="14.00">datasetid </text>
<text text-anchor="start" x="581.07" y="-240.2" font-family="Arial" font-size="14.00" fill="#666666">[integer]</text>
<polygon fill="none" stroke="black" points="513.36,-197.2 513.36,-228 833.16,-228 833.16,-197.2 513.36,-197.2"/>
<text text-anchor="start" x="520.36" y="-209.4" font-family="Arial" font-size="14.00">datasetname </text>
<text text-anchor="start" x="605.19" y="-209.4" font-family="Arial" font-size="14.00" fill="#666666">[varchar(80)]</text>
<polygon fill="none" stroke="black" points="513.36,-166.4 513.36,-197.2 833.16,-197.2 833.16,-166.4 513.36,-166.4"/>
<text text-anchor="start" x="520.36" y="-178.6" font-family="Arial" font-size="14.00">datasettypeid </text>
<text text-anchor="start" x="607.53" y="-178.6" font-family="Arial" font-size="14.00" fill="#666666">[integer]</text>
<polygon fill="none" stroke="black" points="513.36,-135.6 513.36,-166.4 833.16,-166.4 833.16,-135.6 513.36,-135.6"/>
<text text-anchor="start" x="520.36" y="-147.8" font-family="Arial" font-size="14.00">embargoid </text>
<text text-anchor="start" x="590.4" y="-147.8" font-family="Arial" font-size="14.00" fill="#666666">[integer]</text>
<polygon fill="none" stroke="black" points="513.36,-104.8 513.36,-135.6 833.16,-135.6 833.16,-104.8 513.36,-104.8"/>
<text text-anchor="start" x="520.36" y="-117" font-family="Arial" font-size="14.00">notes </text>
<text text-anchor="start" x="558.5" y="-117" font-family="Arial" font-size="14.00" fill="#666666">[text]</text>
<polygon fill="none" stroke="black" points="513.36,-74 513.36,-104.8 833.16,-104.8 833.16,-74 513.36,-74"/>
<text text-anchor="start" x="520.36" y="-86.2" font-family="Arial" font-size="14.00">recdatecreated </text>
<text text-anchor="start" x="617.64" y="-86.2" font-family="Arial" font-size="14.00" fill="#666666">[timestamp(0) without time zone]</text>
<polygon fill="none" stroke="black" points="513.36,-43.2 513.36,-74 833.16,-74 833.16,-43.2 513.36,-43.2"/>
<text text-anchor="start" x="520.36" y="-55.4" font-family="Arial" font-size="14.00">recdatemodified </text>
<text text-anchor="start" x="623.86" y="-55.4" font-family="Arial" font-size="14.00" fill="#666666">[timestamp(0) without time zone]</text>
</g>
<!-- ndb.isoinstrumentation&#45;&gt;ndb.datasets -->
<g id="edge2" class="edge">
<title>ndb.isoinstrumentation:datasetid&#45;&gt;ndb.datasets:datasetid</title>
<path fill="none" stroke="black" d="M725.21,-739.85C589.17,-730.25 653,-523.96 736.36,-404.4 762.61,-366.75 806.81,-405.99 833.16,-368.4 865.05,-322.91 889.71,-243.4 834.16,-243.4"/>
<polygon fill="black" stroke="black" points="725.03,-739.85 734.87,-744.69 730.36,-740.03 734.69,-740.18 734.69,-740.18 734.69,-740.18 730.36,-740.03 735.18,-735.69 725.03,-739.85"/>
<text text-anchor="start" x="208.75" y="-750.2" font-family="Arial" font-size="10.00">FOREIGN KEY (datasetid) REFERENCES ndb.datasets(datasetid) ON UPDATE CASCADE ON DELETE CASCADE</text>
</g>
<!-- ndb.isosampleintrosystemtypes -->
<g id="node4" class="node">
<title>ndb.isosampleintrosystemtypes</title>
<polygon fill="#efefef" stroke="none" points="937.27,-228 937.27,-263.6 1301.24,-263.6 1301.24,-228 937.27,-228"/>
<polygon fill="none" stroke="black" points="937.27,-228 937.27,-263.6 1301.24,-263.6 1301.24,-228 937.27,-228"/>
<text text-anchor="start" x="944.27" y="-241.4" font-family="Arial Bold" font-size="18.00">ndb.isosampleintrosystemtypes</text>
<text text-anchor="start" x="1169.75" y="-241.4" font-family="Arial" font-size="14.00">    </text>
<text text-anchor="start" x="1200.87" y="-241.4" font-family="Arial" font-size="14.00" fill="#666666">[BASE TABLE]</text>
<polygon fill="none" stroke="black" points="937.27,-197.2 937.27,-228 1301.24,-228 1301.24,-197.2 937.27,-197.2"/>
<text text-anchor="start" x="944.27" y="-209.4" font-family="Arial" font-size="14.00">isosampleintrosystemtype </text>
<text text-anchor="start" x="1109.22" y="-209.4" font-family="Arial" font-size="14.00" fill="#666666">[varchar(256)]</text>
<polygon fill="none" stroke="black" points="937.27,-166.4 937.27,-197.2 1301.24,-197.2 1301.24,-166.4 937.27,-166.4"/>
<text text-anchor="start" x="944.27" y="-178.6" font-family="Arial" font-size="14.00">isosampleintrosystemtypeid </text>
<text text-anchor="start" x="1120.12" y="-178.6" font-family="Arial" font-size="14.00" fill="#666666">[integer]</text>
<polygon fill="none" stroke="black" points="937.27,-135.6 937.27,-166.4 1301.24,-166.4 1301.24,-135.6 937.27,-135.6"/>
<text text-anchor="start" x="944.27" y="-147.8" font-family="Arial" font-size="14.00">recdatecreated </text>
<text text-anchor="start" x="1041.55" y="-147.8" font-family="Arial" font-size="14.00" fill="#666666">[timestamp(0) without time zone]</text>
<polygon fill="none" stroke="black" points="937.27,-104.8 937.27,-135.6 1301.24,-135.6 1301.24,-104.8 937.27,-104.8"/>
<text text-anchor="start" x="944.27" y="-117" font-family="Arial" font-size="14.00">recdatemodified </text>
<text text-anchor="start" x="1047.77" y="-117" font-family="Arial" font-size="14.00" fill="#666666">[timestamp(0) without time zone]</text>
</g>
<!-- ndb.isoinstrumentation&#45;&gt;ndb.isosampleintrosystemtypes -->
<g id="edge3" class="edge">
<title>ndb.isoinstrumentation:isosampleintrosystemtypeid&#45;&gt;ndb.isosampleintrosystemtypes:isosampleintrosystemtypeid</title>
<path fill="none" stroke="black" d="M1067.28,-585.55C1133.75,-576.49 1089.34,-474.07 1056.16,-404.4 1026.76,-342.68 966.74,-368.48 937.27,-306.8 913.32,-256.67 880.71,-181.8 936.27,-181.8"/>
<polygon fill="black" stroke="black" points="1067.47,-585.54 1057.2,-581.69 1062.15,-585.88 1057.82,-586.16 1057.82,-586.16 1057.82,-586.16 1062.15,-585.88 1057.78,-590.67 1067.47,-585.54"/>
<text text-anchor="start" x="1064.16" y="-596.2" font-family="Arial" font-size="10.00">FOREIGN KEY (isosampleintrosystemtypeid) REFERENCES ndb.isosampleintrosystemtypes(isosampleintrosystemtypeid) ON UPDATE CASCADE ON DELETE CASCADE</text>
</g>
<!-- ndb.variables -->
<g id="node5" class="node">
<title>ndb.variables</title>
<polygon fill="#efefef" stroke="none" points="1405.36,-274.2 1405.36,-309.8 1725.16,-309.8 1725.16,-274.2 1405.36,-274.2"/>
<polygon fill="none" stroke="black" points="1405.36,-274.2 1405.36,-309.8 1725.16,-309.8 1725.16,-274.2 1405.36,-274.2"/>
<text text-anchor="start" x="1454.78" y="-287.6" font-family="Arial Bold" font-size="18.00">ndb.variables</text>
<text text-anchor="start" x="1551.25" y="-287.6" font-family="Arial" font-size="14.00">    </text>
<text text-anchor="start" x="1582.36" y="-287.6" font-family="Arial" font-size="14.00" fill="#666666">[BASE TABLE]</text>
<polygon fill="none" stroke="black" points="1405.36,-243.4 1405.36,-274.2 1725.16,-274.2 1725.16,-243.4 1405.36,-243.4"/>
<text text-anchor="start" x="1412.36" y="-255.6" font-family="Arial" font-size="14.00">recdatecreated </text>
<text text-anchor="start" x="1509.64" y="-255.6" font-family="Arial" font-size="14.00" fill="#666666">[timestamp(0) without time zone]</text>
<polygon fill="none" stroke="black" points="1405.36,-212.6 1405.36,-243.4 1725.16,-243.4 1725.16,-212.6 1405.36,-212.6"/>
<text text-anchor="start" x="1412.36" y="-224.8" font-family="Arial" font-size="14.00">recdatemodified </text>
<text text-anchor="start" x="1515.86" y="-224.8" font-family="Arial" font-size="14.00" fill="#666666">[timestamp(0) without time zone]</text>
<polygon fill="none" stroke="black" points="1405.36,-181.8 1405.36,-212.6 1725.16,-212.6 1725.16,-181.8 1405.36,-181.8"/>
<text text-anchor="start" x="1412.36" y="-194" font-family="Arial" font-size="14.00">taxonid </text>
<text text-anchor="start" x="1461.39" y="-194" font-family="Arial" font-size="14.00" fill="#666666">[integer]</text>
<polygon fill="none" stroke="black" points="1405.36,-151 1405.36,-181.8 1725.16,-181.8 1725.16,-151 1405.36,-151"/>
<text text-anchor="start" x="1412.36" y="-163.2" font-family="Arial" font-size="14.00">variablecontextid </text>
<text text-anchor="start" x="1521.31" y="-163.2" font-family="Arial" font-size="14.00" fill="#666666">[integer]</text>
<polygon fill="none" stroke="black" points="1405.36,-120.2 1405.36,-151 1725.16,-151 1725.16,-120.2 1405.36,-120.2"/>
<text text-anchor="start" x="1412.36" y="-132.4" font-family="Arial" font-size="14.00">variableelementid </text>
<text text-anchor="start" x="1525.98" y="-132.4" font-family="Arial" font-size="14.00" fill="#666666">[integer]</text>
<polygon fill="none" stroke="black" points="1405.36,-89.4 1405.36,-120.2 1725.16,-120.2 1725.16,-89.4 1405.36,-89.4"/>
<text text-anchor="start" x="1412.36" y="-101.6" font-family="Arial" font-size="14.00">variableid </text>
<text text-anchor="start" x="1476.17" y="-101.6" font-family="Arial" font-size="14.00" fill="#666666">[integer]</text>
<polygon fill="none" stroke="black" points="1405.36,-58.6 1405.36,-89.4 1725.16,-89.4 1725.16,-58.6 1405.36,-58.6"/>
<text text-anchor="start" x="1412.36" y="-70.8" font-family="Arial" font-size="14.00">variableunitsid </text>
<text text-anchor="start" x="1505.74" y="-70.8" font-family="Arial" font-size="14.00" fill="#666666">[integer]</text>
</g>
<!-- ndb.isoinstrumentation&#45;&gt;ndb.variables -->
<g id="edge4" class="edge">
<title>ndb.isoinstrumentation:variableid&#45;&gt;ndb.variables:variableid</title>
<path fill="none" stroke="black" d="M1067.58,-462.72C1142.92,-458.95 1309.52,-417.61 1353.26,-368.4 1432.53,-279.2 1285.02,-104.8 1404.36,-104.8"/>
<polygon fill="black" stroke="black" points="1067.49,-462.72 1057.37,-458.49 1062.15,-462.87 1057.82,-462.98 1057.82,-462.98 1057.82,-462.98 1062.15,-462.87 1057.61,-467.49 1067.49,-462.72"/>
<text text-anchor="start" x="1064.16" y="-473" font-family="Arial" font-size="10.00">FOREIGN KEY (variableid) REFERENCES ndb.variables(variableid) ON UPDATE CASCADE ON DELETE CASCADE</text>
</g>
</g>
</svg>
