<?xml version="1.0" encoding="UTF-8" standalone="no"?>
<!DOCTYPE svg PUBLIC "-//W3C//DTD SVG 1.1//EN"
 "http://www.w3.org/Graphics/SVG/1.1/DTD/svg11.dtd">
<!-- Generated by graphviz version 12.1.2 (20240928.0832)
 -->
<!-- Title: ndb.geopaths Pages: 1 -->
<svg width="837pt" height="688pt"
 viewBox="0.00 0.00 836.96 688.40" xmlns="http://www.w3.org/2000/svg" xmlns:xlink="http://www.w3.org/1999/xlink">
<g id="graph0" class="graph" transform="scale(1 1) rotate(0) translate(4 684.4)">
<title>ndb.geopaths</title>
<polygon fill="white" stroke="none" points="-4,4 -4,-684.4 832.96,-684.4 832.96,4 -4,4"/>
<!-- ndb.geopaths -->
<g id="node1" class="node">
<title>ndb.geopaths</title>
<polygon fill="#efefef" stroke="none" points="110.28,-540 110.28,-575.6 344.25,-575.6 344.25,-540 110.28,-540"/>
<polygon fill="none" stroke="black" points="110.28,-540 110.28,-575.6 344.25,-575.6 344.25,-540 110.28,-540"/>
<text text-anchor="start" x="117.28" y="-553.4" font-family="Arial Bold" font-size="18.00">ndb.geopaths</text>
<text text-anchor="start" x="212.76" y="-553.4" font-family="Arial" font-size="14.00">    </text>
<text text-anchor="start" x="243.88" y="-553.4" font-family="Arial" font-size="14.00" fill="#666666">[BASE TABLE]</text>
<polygon fill="none" stroke="black" points="110.28,-509.2 110.28,-540 344.25,-540 344.25,-509.2 110.28,-509.2"/>
<text text-anchor="start" x="117.28" y="-521.4" font-family="Arial" font-size="14.00">geoin </text>
<text text-anchor="start" x="155.42" y="-521.4" font-family="Arial" font-size="14.00" fill="#666666">[bigint]</text>
<polygon fill="none" stroke="black" points="110.28,-478.4 110.28,-509.2 344.25,-509.2 344.25,-478.4 110.28,-478.4"/>
<text text-anchor="start" x="117.28" y="-490.6" font-family="Arial" font-size="14.00">geoout </text>
<text text-anchor="start" x="163.99" y="-490.6" font-family="Arial" font-size="14.00" fill="#666666">[integer[]]</text>
<polygon fill="none" stroke="black" stroke-width="3" points="108.78,-476.9 108.78,-577.1 345.75,-577.1 345.75,-476.9 108.78,-476.9"/>
</g>
<!-- ndb.geopoliticalunits -->
<g id="node2" class="node">
<title>ndb.geopoliticalunits</title>
<polygon fill="#efefef" stroke="none" points="259.36,-258.8 259.36,-294.4 579.16,-294.4 579.16,-258.8 259.36,-258.8"/>
<polygon fill="none" stroke="black" points="259.36,-258.8 259.36,-294.4 579.16,-294.4 579.16,-258.8 259.36,-258.8"/>
<text text-anchor="start" x="281.28" y="-272.2" font-family="Arial Bold" font-size="18.00">ndb.geopoliticalunits</text>
<text text-anchor="start" x="432.76" y="-272.2" font-family="Arial" font-size="14.00">    </text>
<text text-anchor="start" x="463.88" y="-272.2" font-family="Arial" font-size="14.00" fill="#666666">[BASE TABLE]</text>
<polygon fill="none" stroke="black" points="259.36,-228 259.36,-258.8 579.16,-258.8 579.16,-228 259.36,-228"/>
<text text-anchor="start" x="266.36" y="-240.2" font-family="Arial" font-size="14.00">geopoliticalid </text>
<text text-anchor="start" x="351.2" y="-240.2" font-family="Arial" font-size="14.00" fill="#666666">[integer]</text>
<polygon fill="none" stroke="black" points="259.36,-197.2 259.36,-228 579.16,-228 579.16,-197.2 259.36,-197.2"/>
<text text-anchor="start" x="266.36" y="-209.4" font-family="Arial" font-size="14.00">geopoliticalname </text>
<text text-anchor="start" x="375.32" y="-209.4" font-family="Arial" font-size="14.00" fill="#666666">[varchar(255)]</text>
<polygon fill="none" stroke="black" points="259.36,-166.4 259.36,-197.2 579.16,-197.2 579.16,-166.4 259.36,-166.4"/>
<text text-anchor="start" x="266.36" y="-178.6" font-family="Arial" font-size="14.00">geopoliticalunit </text>
<text text-anchor="start" x="362.87" y="-178.6" font-family="Arial" font-size="14.00" fill="#666666">[varchar(255)]</text>
<polygon fill="none" stroke="black" points="259.36,-135.6 259.36,-166.4 579.16,-166.4 579.16,-135.6 259.36,-135.6"/>
<text text-anchor="start" x="266.36" y="-147.8" font-family="Arial" font-size="14.00">highergeopoliticalid </text>
<text text-anchor="start" x="390.11" y="-147.8" font-family="Arial" font-size="14.00" fill="#666666">[integer]</text>
<polygon fill="none" stroke="black" points="259.36,-104.8 259.36,-135.6 579.16,-135.6 579.16,-104.8 259.36,-104.8"/>
<text text-anchor="start" x="266.36" y="-117" font-family="Arial" font-size="14.00">rank </text>
<text text-anchor="start" x="297.49" y="-117" font-family="Arial" font-size="14.00" fill="#666666">[integer]</text>
<polygon fill="none" stroke="black" points="259.36,-74 259.36,-104.8 579.16,-104.8 579.16,-74 259.36,-74"/>
<text text-anchor="start" x="266.36" y="-86.2" font-family="Arial" font-size="14.00">recdatecreated </text>
<text text-anchor="start" x="363.65" y="-86.2" font-family="Arial" font-size="14.00" fill="#666666">[timestamp(0) without time zone]</text>
<polygon fill="none" stroke="black" points="259.36,-43.2 259.36,-74 579.16,-74 579.16,-43.2 259.36,-43.2"/>
<text text-anchor="start" x="266.36" y="-55.4" font-family="Arial" font-size="14.00">recdatemodified </text>
<text text-anchor="start" x="369.87" y="-55.4" font-family="Arial" font-size="14.00" fill="#666666">[timestamp(0) without time zone]</text>
</g>
<!-- ndb.geopaths&#45;&gt;ndb.geopoliticalunits -->
<g id="edge1" class="edge">
<title>ndb.geopaths:geoin&#45;&gt;ndb.geopoliticalunits:geopoliticalid</title>
<path fill="none" stroke="black" d="M355.4,-523.12C381.13,-514.18 357.69,-466.74 344.25,-432.2 323.77,-379.56 279.84,-390.25 259.36,-337.6 244.19,-298.58 216.49,-243.4 258.36,-243.4"/>
<polygon fill="black" stroke="black" points="355.48,-523.11 344.93,-520.1 350.2,-523.88 345.91,-524.5 345.91,-524.5 345.91,-524.5 350.2,-523.88 346.23,-529 355.48,-523.11"/>
<text text-anchor="start" x="7" y="-534.6" font-family="Arial" font-size="10.00">FOREIGN KEY (geoin) REFERENCES ndb.geopoliticalunits(geopoliticalid)</text>
</g>
<!-- ndb.sitegeopolitical -->
<g id="node3" class="node">
<title>ndb.sitegeopolitical</title>
<polygon fill="#efefef" stroke="none" points="451.36,-601.6 451.36,-637.2 771.16,-637.2 771.16,-601.6 451.36,-601.6"/>
<polygon fill="none" stroke="black" points="451.36,-601.6 451.36,-637.2 771.16,-637.2 771.16,-601.6 451.36,-601.6"/>
<text text-anchor="start" x="478.28" y="-615" font-family="Arial Bold" font-size="18.00">ndb.sitegeopolitical</text>
<text text-anchor="start" x="619.75" y="-615" font-family="Arial" font-size="14.00">    </text>
<text text-anchor="start" x="650.87" y="-615" font-family="Arial" font-size="14.00" fill="#666666">[BASE TABLE]</text>
<polygon fill="none" stroke="black" points="451.36,-570.8 451.36,-601.6 771.16,-601.6 771.16,-570.8 451.36,-570.8"/>
<text text-anchor="start" x="458.36" y="-583" font-family="Arial" font-size="14.00">geopoliticalid </text>
<text text-anchor="start" x="543.2" y="-583" font-family="Arial" font-size="14.00" fill="#666666">[integer]</text>
<polygon fill="none" stroke="black" points="451.36,-540 451.36,-570.8 771.16,-570.8 771.16,-540 451.36,-540"/>
<text text-anchor="start" x="458.36" y="-552.2" font-family="Arial" font-size="14.00">objectid </text>
<text text-anchor="start" x="510.51" y="-552.2" font-family="Arial" font-size="14.00" fill="#666666">[integer]</text>
<polygon fill="none" stroke="black" points="451.36,-509.2 451.36,-540 771.16,-540 771.16,-509.2 451.36,-509.2"/>
<text text-anchor="start" x="458.36" y="-521.4" font-family="Arial" font-size="14.00">recdatecreated </text>
<text text-anchor="start" x="555.65" y="-521.4" font-family="Arial" font-size="14.00" fill="#666666">[timestamp(0) without time zone]</text>
<polygon fill="none" stroke="black" points="451.36,-478.4 451.36,-509.2 771.16,-509.2 771.16,-478.4 451.36,-478.4"/>
<text text-anchor="start" x="458.36" y="-490.6" font-family="Arial" font-size="14.00">recdatemodified </text>
<text text-anchor="start" x="561.87" y="-490.6" font-family="Arial" font-size="14.00" fill="#666666">[timestamp(0) without time zone]</text>
<polygon fill="none" stroke="black" points="451.36,-447.6 451.36,-478.4 771.16,-478.4 771.16,-447.6 451.36,-447.6"/>
<text text-anchor="start" x="458.36" y="-459.8" font-family="Arial" font-size="14.00">sitegeopoliticalid </text>
<text text-anchor="start" x="564.98" y="-459.8" font-family="Arial" font-size="14.00" fill="#666666">[integer]</text>
<polygon fill="none" stroke="black" points="451.36,-416.8 451.36,-447.6 771.16,-447.6 771.16,-416.8 451.36,-416.8"/>
<text text-anchor="start" x="458.36" y="-429" font-family="Arial" font-size="14.00">siteid </text>
<text text-anchor="start" x="494.94" y="-429" font-family="Arial" font-size="14.00" fill="#666666">[integer]</text>
</g>
<!-- ndb.sitegeopolitical&#45;&gt;ndb.geopoliticalunits -->
<g id="edge2" class="edge">
<title>ndb.sitegeopolitical:geopoliticalid&#45;&gt;ndb.geopoliticalunits:geopoliticalid</title>
<path fill="none" stroke="black" d="M440.49,-583.14C406.24,-559.69 424.99,-408.26 451.36,-373.6 487.1,-326.64 543.29,-384.45 579.16,-337.6 604.61,-304.36 622.03,-243.4 580.16,-243.4"/>
<polygon fill="black" stroke="black" points="440.49,-583.15 448.71,-590.4 445.59,-584.72 449.72,-586 449.72,-586 449.72,-586 445.59,-584.72 451.37,-581.8 440.49,-583.15"/>
<text text-anchor="start" x="457.36" y="-596.2" font-family="Arial" font-size="10.00">FOREIGN KEY (geopoliticalid) REFERENCES ndb.geopoliticalunits(geopoliticalid)</text>
</g>
</g>
</svg>
