<?xml version="1.0" encoding="UTF-8" standalone="no"?>
<!DOCTYPE svg PUBLIC "-//W3C//DTD SVG 1.1//EN"
 "http://www.w3.org/Graphics/SVG/1.1/DTD/svg11.dtd">
<!-- Generated by graphviz version 12.1.2 (20240928.0832)
 -->
<!-- Title: ndb.relativeageunits Pages: 1 -->
<svg width="1666pt" height="1160pt"
 viewBox="0.00 0.00 1666.39 1160.40" xmlns="http://www.w3.org/2000/svg" xmlns:xlink="http://www.w3.org/1999/xlink">
<g id="graph0" class="graph" transform="scale(1 1) rotate(0) translate(4 1156.4)">
<title>ndb.relativeageunits</title>
<polygon fill="white" stroke="none" points="-4,4 -4,-1156.4 1662.39,-1156.4 1662.39,4 -4,4"/>
<!-- ndb.relativeageunits -->
<g id="node1" class="node">
<title>ndb.relativeageunits</title>
<polygon fill="#efefef" stroke="none" points="472.6,-169.4 472.6,-205 792.4,-205 792.4,-169.4 472.6,-169.4"/>
<polygon fill="none" stroke="black" points="472.6,-169.4 472.6,-205 792.4,-205 792.4,-169.4 472.6,-169.4"/>
<text text-anchor="start" x="497.53" y="-182.8" font-family="Arial Bold" font-size="18.00">ndb.relativeageunits</text>
<text text-anchor="start" x="642.98" y="-182.8" font-family="Arial" font-size="14.00">    </text>
<text text-anchor="start" x="674.1" y="-182.8" font-family="Arial" font-size="14.00" fill="#666666">[BASE TABLE]</text>
<polygon fill="none" stroke="black" points="472.6,-138.6 472.6,-169.4 792.4,-169.4 792.4,-138.6 472.6,-138.6"/>
<text text-anchor="start" x="479.6" y="-150.8" font-family="Arial" font-size="14.00">recdatecreated </text>
<text text-anchor="start" x="576.88" y="-150.8" font-family="Arial" font-size="14.00" fill="#666666">[timestamp(0) without time zone]</text>
<polygon fill="none" stroke="black" points="472.6,-107.8 472.6,-138.6 792.4,-138.6 792.4,-107.8 472.6,-107.8"/>
<text text-anchor="start" x="479.6" y="-120" font-family="Arial" font-size="14.00">recdatemodified </text>
<text text-anchor="start" x="583.1" y="-120" font-family="Arial" font-size="14.00" fill="#666666">[timestamp(0) without time zone]</text>
<polygon fill="none" stroke="black" points="472.6,-77 472.6,-107.8 792.4,-107.8 792.4,-77 472.6,-77"/>
<text text-anchor="start" x="479.6" y="-89.2" font-family="Arial" font-size="14.00">relativeageunit </text>
<text text-anchor="start" x="574.55" y="-89.2" font-family="Arial" font-size="14.00" fill="#666666">[varchar(64)]</text>
<polygon fill="none" stroke="black" points="472.6,-46.2 472.6,-77 792.4,-77 792.4,-46.2 472.6,-46.2"/>
<text text-anchor="start" x="479.6" y="-58.4" font-family="Arial" font-size="14.00">relativeageunitid </text>
<text text-anchor="start" x="585.45" y="-58.4" font-family="Arial" font-size="14.00" fill="#666666">[integer]</text>
<polygon fill="none" stroke="black" stroke-width="3" points="471.1,-44.7 471.1,-206.5 793.9,-206.5 793.9,-44.7 471.1,-44.7"/>
</g>
<!-- ndb.relativeages -->
<g id="node2" class="node">
<title>ndb.relativeages</title>
<polygon fill="#efefef" stroke="none" points="685.6,-669.2 685.6,-704.8 1005.4,-704.8 1005.4,-669.2 685.6,-669.2"/>
<polygon fill="none" stroke="black" points="685.6,-669.2 685.6,-704.8 1005.4,-704.8 1005.4,-669.2 685.6,-669.2"/>
<text text-anchor="start" x="724.53" y="-682.6" font-family="Arial Bold" font-size="18.00">ndb.relativeages</text>
<text text-anchor="start" x="841.98" y="-682.6" font-family="Arial" font-size="14.00">    </text>
<text text-anchor="start" x="873.1" y="-682.6" font-family="Arial" font-size="14.00" fill="#666666">[BASE TABLE]</text>
<polygon fill="none" stroke="black" points="685.6,-638.4 685.6,-669.2 1005.4,-669.2 1005.4,-638.4 685.6,-638.4"/>
<text text-anchor="start" x="692.6" y="-650.6" font-family="Arial" font-size="14.00">c14ageolder </text>
<text text-anchor="start" x="773.55" y="-650.6" font-family="Arial" font-size="14.00" fill="#666666">[double precision]</text>
<polygon fill="none" stroke="black" points="685.6,-607.6 685.6,-638.4 1005.4,-638.4 1005.4,-607.6 685.6,-607.6"/>
<text text-anchor="start" x="692.6" y="-619.8" font-family="Arial" font-size="14.00">c14ageyounger </text>
<text text-anchor="start" x="793.01" y="-619.8" font-family="Arial" font-size="14.00" fill="#666666">[double precision]</text>
<polygon fill="none" stroke="black" points="685.6,-576.8 685.6,-607.6 1005.4,-607.6 1005.4,-576.8 685.6,-576.8"/>
<text text-anchor="start" x="692.6" y="-589" font-family="Arial" font-size="14.00">calageolder </text>
<text text-anchor="start" x="768.88" y="-589" font-family="Arial" font-size="14.00" fill="#666666">[double precision]</text>
<polygon fill="none" stroke="black" points="685.6,-546 685.6,-576.8 1005.4,-576.8 1005.4,-546 685.6,-546"/>
<text text-anchor="start" x="692.6" y="-558.2" font-family="Arial" font-size="14.00">calageyounger </text>
<text text-anchor="start" x="788.34" y="-558.2" font-family="Arial" font-size="14.00" fill="#666666">[double precision]</text>
<polygon fill="none" stroke="black" points="685.6,-515.2 685.6,-546 1005.4,-546 1005.4,-515.2 685.6,-515.2"/>
<text text-anchor="start" x="692.6" y="-527.4" font-family="Arial" font-size="14.00">notes </text>
<text text-anchor="start" x="730.74" y="-527.4" font-family="Arial" font-size="14.00" fill="#666666">[text]</text>
<polygon fill="none" stroke="black" points="685.6,-484.4 685.6,-515.2 1005.4,-515.2 1005.4,-484.4 685.6,-484.4"/>
<text text-anchor="start" x="692.6" y="-496.6" font-family="Arial" font-size="14.00">recdatecreated </text>
<text text-anchor="start" x="789.88" y="-496.6" font-family="Arial" font-size="14.00" fill="#666666">[timestamp(0) without time zone]</text>
<polygon fill="none" stroke="black" points="685.6,-453.6 685.6,-484.4 1005.4,-484.4 1005.4,-453.6 685.6,-453.6"/>
<text text-anchor="start" x="692.6" y="-465.8" font-family="Arial" font-size="14.00">recdatemodified </text>
<text text-anchor="start" x="796.1" y="-465.8" font-family="Arial" font-size="14.00" fill="#666666">[timestamp(0) without time zone]</text>
<polygon fill="none" stroke="black" points="685.6,-422.8 685.6,-453.6 1005.4,-453.6 1005.4,-422.8 685.6,-422.8"/>
<text text-anchor="start" x="692.6" y="-435" font-family="Arial" font-size="14.00">relativeage </text>
<text text-anchor="start" x="764.98" y="-435" font-family="Arial" font-size="14.00" fill="#666666">[varchar(64)]</text>
<polygon fill="none" stroke="black" points="685.6,-392 685.6,-422.8 1005.4,-422.8 1005.4,-392 685.6,-392"/>
<text text-anchor="start" x="692.6" y="-404.2" font-family="Arial" font-size="14.00">relativeageid </text>
<text text-anchor="start" x="775.88" y="-404.2" font-family="Arial" font-size="14.00" fill="#666666">[integer]</text>
<polygon fill="none" stroke="black" points="685.6,-361.2 685.6,-392 1005.4,-392 1005.4,-361.2 685.6,-361.2"/>
<text text-anchor="start" x="692.6" y="-373.4" font-family="Arial" font-size="14.00">relativeagescaleid </text>
<text text-anchor="start" x="808.56" y="-373.4" font-family="Arial" font-size="14.00" fill="#666666">[integer]</text>
<polygon fill="none" stroke="black" points="685.6,-330.4 685.6,-361.2 1005.4,-361.2 1005.4,-330.4 685.6,-330.4"/>
<text text-anchor="start" x="692.6" y="-342.6" font-family="Arial" font-size="14.00">relativeageunitid </text>
<text text-anchor="start" x="798.45" y="-342.6" font-family="Arial" font-size="14.00" fill="#666666">[integer]</text>
</g>
<!-- ndb.relativeages&#45;&gt;ndb.relativeageunits -->
<g id="edge1" class="edge">
<title>ndb.relativeages:relativeageunitid&#45;&gt;ndb.relativeageunits:relativeageunitid</title>
<path fill="none" stroke="black" d="M674.67,-343C662.48,-333.92 672.75,-304.78 685.6,-287.2 715.17,-246.77 763.07,-291.81 792.4,-251.2 841.74,-182.89 877.67,-61.6 793.4,-61.6"/>
<polygon fill="black" stroke="black" points="674.65,-343 683.06,-350.04 679.79,-344.44 683.96,-345.62 683.96,-345.62 683.96,-345.62 679.79,-344.44 685.5,-341.38 674.65,-343"/>
<text text-anchor="start" x="61.27" y="-355.8" font-family="Arial" font-size="10.00">FOREIGN KEY (relativeageunitid) REFERENCES ndb.relativeageunits(relativeageunitid) ON UPDATE CASCADE ON DELETE CASCADE</text>
</g>
<!-- ndb.relativeagescales -->
<g id="node6" class="node">
<title>ndb.relativeagescales</title>
<polygon fill="#efefef" stroke="none" points="899.6,-169.4 899.6,-205 1219.4,-205 1219.4,-169.4 899.6,-169.4"/>
<polygon fill="none" stroke="black" points="899.6,-169.4 899.6,-205 1219.4,-205 1219.4,-169.4 899.6,-169.4"/>
<text text-anchor="start" x="920.54" y="-182.8" font-family="Arial Bold" font-size="18.00">ndb.relativeagescales</text>
<text text-anchor="start" x="1073.97" y="-182.8" font-family="Arial" font-size="14.00">    </text>
<text text-anchor="start" x="1105.08" y="-182.8" font-family="Arial" font-size="14.00" fill="#666666">[BASE TABLE]</text>
<polygon fill="none" stroke="black" points="899.6,-138.6 899.6,-169.4 1219.4,-169.4 1219.4,-138.6 899.6,-138.6"/>
<text text-anchor="start" x="906.6" y="-150.8" font-family="Arial" font-size="14.00">recdatecreated </text>
<text text-anchor="start" x="1003.88" y="-150.8" font-family="Arial" font-size="14.00" fill="#666666">[timestamp(0) without time zone]</text>
<polygon fill="none" stroke="black" points="899.6,-107.8 899.6,-138.6 1219.4,-138.6 1219.4,-107.8 899.6,-107.8"/>
<text text-anchor="start" x="906.6" y="-120" font-family="Arial" font-size="14.00">recdatemodified </text>
<text text-anchor="start" x="1010.1" y="-120" font-family="Arial" font-size="14.00" fill="#666666">[timestamp(0) without time zone]</text>
<polygon fill="none" stroke="black" points="899.6,-77 899.6,-107.8 1219.4,-107.8 1219.4,-77 899.6,-77"/>
<text text-anchor="start" x="906.6" y="-89.2" font-family="Arial" font-size="14.00">relativeagescale </text>
<text text-anchor="start" x="1011.66" y="-89.2" font-family="Arial" font-size="14.00" fill="#666666">[varchar(64)]</text>
<polygon fill="none" stroke="black" points="899.6,-46.2 899.6,-77 1219.4,-77 1219.4,-46.2 899.6,-46.2"/>
<text text-anchor="start" x="906.6" y="-58.4" font-family="Arial" font-size="14.00">relativeagescaleid </text>
<text text-anchor="start" x="1022.56" y="-58.4" font-family="Arial" font-size="14.00" fill="#666666">[integer]</text>
</g>
<!-- ndb.relativeages&#45;&gt;ndb.relativeagescales -->
<g id="edge5" class="edge">
<title>ndb.relativeages:relativeagescaleid&#45;&gt;ndb.relativeagescales:relativeagescaleid</title>
<path fill="none" stroke="black" d="M1016.44,-375.05C1042.6,-365.71 1026.07,-316.5 1005.4,-287.2 976.51,-246.25 928.37,-289.23 899.6,-248.2 851.99,-180.29 815.67,-61.6 898.6,-61.6"/>
<polygon fill="black" stroke="black" points="1016.61,-375.02 1006.04,-372.1 1011.34,-375.84 1007.06,-376.5 1007.06,-376.5 1007.06,-376.5 1011.34,-375.84 1007.42,-381 1016.61,-375.02"/>
<text text-anchor="start" x="1013.4" y="-386.6" font-family="Arial" font-size="10.00">FOREIGN KEY (relativeagescaleid) REFERENCES ndb.relativeagescales(relativeagescaleid) ON UPDATE CASCADE ON DELETE CASCADE</text>
</g>
<!-- ndb.relativeagepublications -->
<g id="node3" class="node">
<title>ndb.relativeagepublications</title>
<polygon fill="#efefef" stroke="none" points="244.04,-1012 244.04,-1047.6 580.96,-1047.6 580.96,-1012 244.04,-1012"/>
<polygon fill="none" stroke="black" points="244.04,-1012 244.04,-1047.6 580.96,-1047.6 580.96,-1012 244.04,-1012"/>
<text text-anchor="start" x="251.04" y="-1025.4" font-family="Arial Bold" font-size="18.00">ndb.relativeagepublications</text>
<text text-anchor="start" x="449.47" y="-1025.4" font-family="Arial" font-size="14.00">    </text>
<text text-anchor="start" x="480.59" y="-1025.4" font-family="Arial" font-size="14.00" fill="#666666">[BASE TABLE]</text>
<polygon fill="none" stroke="black" points="244.04,-981.2 244.04,-1012 580.96,-1012 580.96,-981.2 244.04,-981.2"/>
<text text-anchor="start" x="251.04" y="-993.4" font-family="Arial" font-size="14.00">publicationid </text>
<text text-anchor="start" x="332.76" y="-993.4" font-family="Arial" font-size="14.00" fill="#666666">[integer]</text>
<polygon fill="none" stroke="black" points="244.04,-950.4 244.04,-981.2 580.96,-981.2 580.96,-950.4 244.04,-950.4"/>
<text text-anchor="start" x="251.04" y="-962.6" font-family="Arial" font-size="14.00">recdatecreated </text>
<text text-anchor="start" x="348.32" y="-962.6" font-family="Arial" font-size="14.00" fill="#666666">[timestamp(0) without time zone]</text>
<polygon fill="none" stroke="black" points="244.04,-919.6 244.04,-950.4 580.96,-950.4 580.96,-919.6 244.04,-919.6"/>
<text text-anchor="start" x="251.04" y="-931.8" font-family="Arial" font-size="14.00">recdatemodified </text>
<text text-anchor="start" x="354.54" y="-931.8" font-family="Arial" font-size="14.00" fill="#666666">[timestamp(0) without time zone]</text>
<polygon fill="none" stroke="black" points="244.04,-888.8 244.04,-919.6 580.96,-919.6 580.96,-888.8 244.04,-888.8"/>
<text text-anchor="start" x="251.04" y="-901" font-family="Arial" font-size="14.00">relativeageid </text>
<text text-anchor="start" x="334.31" y="-901" font-family="Arial" font-size="14.00" fill="#666666">[integer]</text>
</g>
<!-- ndb.relativeagepublications&#45;&gt;ndb.relativeages -->
<g id="edge2" class="edge">
<title>ndb.relativeagepublications:relativeageid&#45;&gt;ndb.relativeages:relativeageid</title>
<path fill="none" stroke="black" d="M592.14,-902.69C687.02,-872.7 575.5,-407.4 684.6,-407.4"/>
<polygon fill="black" stroke="black" points="592.18,-902.68 581.63,-899.7 586.9,-903.46 582.62,-904.1 582.62,-904.1 582.62,-904.1 586.9,-903.46 582.95,-908.6 592.18,-902.68"/>
<text text-anchor="start" x="7" y="-914.2" font-family="Arial" font-size="10.00">FOREIGN KEY (relativeageid) REFERENCES ndb.relativeages(relativeageid) ON UPDATE CASCADE ON DELETE CASCADE</text>
</g>
<!-- ndb.relativechronology -->
<g id="node4" class="node">
<title>ndb.relativechronology</title>
<polygon fill="#efefef" stroke="none" points="685.6,-1058.2 685.6,-1093.8 1005.4,-1093.8 1005.4,-1058.2 685.6,-1058.2"/>
<polygon fill="none" stroke="black" points="685.6,-1058.2 685.6,-1093.8 1005.4,-1093.8 1005.4,-1058.2 685.6,-1058.2"/>
<text text-anchor="start" x="699.53" y="-1071.6" font-family="Arial Bold" font-size="18.00">ndb.relativechronology</text>
<text text-anchor="start" x="866.98" y="-1071.6" font-family="Arial" font-size="14.00">    </text>
<text text-anchor="start" x="898.1" y="-1071.6" font-family="Arial" font-size="14.00" fill="#666666">[BASE TABLE]</text>
<polygon fill="none" stroke="black" points="685.6,-1027.4 685.6,-1058.2 1005.4,-1058.2 1005.4,-1027.4 685.6,-1027.4"/>
<text text-anchor="start" x="692.6" y="-1039.6" font-family="Arial" font-size="14.00">analysisunitid </text>
<text text-anchor="start" x="780.54" y="-1039.6" font-family="Arial" font-size="14.00" fill="#666666">[integer]</text>
<polygon fill="none" stroke="black" points="685.6,-996.6 685.6,-1027.4 1005.4,-1027.4 1005.4,-996.6 685.6,-996.6"/>
<text text-anchor="start" x="692.6" y="-1008.8" font-family="Arial" font-size="14.00">chroncontrolid </text>
<text text-anchor="start" x="784.43" y="-1008.8" font-family="Arial" font-size="14.00" fill="#666666">[integer]</text>
<polygon fill="none" stroke="black" points="685.6,-965.8 685.6,-996.6 1005.4,-996.6 1005.4,-965.8 685.6,-965.8"/>
<text text-anchor="start" x="692.6" y="-978" font-family="Arial" font-size="14.00">notes </text>
<text text-anchor="start" x="730.74" y="-978" font-family="Arial" font-size="14.00" fill="#666666">[text]</text>
<polygon fill="none" stroke="black" points="685.6,-935 685.6,-965.8 1005.4,-965.8 1005.4,-935 685.6,-935"/>
<text text-anchor="start" x="692.6" y="-947.2" font-family="Arial" font-size="14.00">recdatecreated </text>
<text text-anchor="start" x="789.88" y="-947.2" font-family="Arial" font-size="14.00" fill="#666666">[timestamp(0) without time zone]</text>
<polygon fill="none" stroke="black" points="685.6,-904.2 685.6,-935 1005.4,-935 1005.4,-904.2 685.6,-904.2"/>
<text text-anchor="start" x="692.6" y="-916.4" font-family="Arial" font-size="14.00">recdatemodified </text>
<text text-anchor="start" x="796.1" y="-916.4" font-family="Arial" font-size="14.00" fill="#666666">[timestamp(0) without time zone]</text>
<polygon fill="none" stroke="black" points="685.6,-873.4 685.6,-904.2 1005.4,-904.2 1005.4,-873.4 685.6,-873.4"/>
<text text-anchor="start" x="692.6" y="-885.6" font-family="Arial" font-size="14.00">relativeageid </text>
<text text-anchor="start" x="775.88" y="-885.6" font-family="Arial" font-size="14.00" fill="#666666">[integer]</text>
<polygon fill="none" stroke="black" points="685.6,-842.6 685.6,-873.4 1005.4,-873.4 1005.4,-842.6 685.6,-842.6"/>
<text text-anchor="start" x="692.6" y="-854.8" font-family="Arial" font-size="14.00">relativechronid </text>
<text text-anchor="start" x="787.54" y="-854.8" font-family="Arial" font-size="14.00" fill="#666666">[integer]</text>
</g>
<!-- ndb.relativechronology&#45;&gt;ndb.relativeages -->
<g id="edge3" class="edge">
<title>ndb.relativechronology:relativeageid&#45;&gt;ndb.relativeages:relativeageid</title>
<path fill="none" stroke="black" d="M1015.25,-884.04C1059.7,-834.04 1056.75,-407.4 1006.4,-407.4"/>
<polygon fill="black" stroke="black" points="1015.5,-883.9 1004.56,-884.68 1010.8,-886.43 1006.99,-888.48 1006.99,-888.48 1006.99,-888.48 1010.8,-886.43 1008.83,-892.6 1015.5,-883.9"/>
<text text-anchor="start" x="1013.4" y="-898.8" font-family="Arial" font-size="10.00">FOREIGN KEY (relativeageid) REFERENCES ndb.relativeages(relativeageid) ON UPDATE CASCADE ON DELETE CASCADE</text>
</g>
<!-- ndb.speleothems -->
<g id="node5" class="node">
<title>ndb.speleothems</title>
<polygon fill="#efefef" stroke="none" points="1110.01,-1073.6 1110.01,-1109.2 1368.98,-1109.2 1368.98,-1073.6 1110.01,-1073.6"/>
<polygon fill="none" stroke="black" points="1110.01,-1073.6 1110.01,-1109.2 1368.98,-1109.2 1368.98,-1073.6 1110.01,-1073.6"/>
<text text-anchor="start" x="1117.01" y="-1087" font-family="Arial Bold" font-size="18.00">ndb.speleothems</text>
<text text-anchor="start" x="1237.49" y="-1087" font-family="Arial" font-size="14.00">    </text>
<text text-anchor="start" x="1268.61" y="-1087" font-family="Arial" font-size="14.00" fill="#666666">[BASE TABLE]</text>
<polygon fill="none" stroke="black" points="1110.01,-1042.8 1110.01,-1073.6 1368.98,-1073.6 1368.98,-1042.8 1110.01,-1042.8"/>
<text text-anchor="start" x="1117.01" y="-1055" font-family="Arial" font-size="14.00">entityid </text>
<text text-anchor="start" x="1165.26" y="-1055" font-family="Arial" font-size="14.00" fill="#666666">[integer]</text>
<polygon fill="none" stroke="black" points="1110.01,-1012 1110.01,-1042.8 1368.98,-1042.8 1368.98,-1012 1110.01,-1012"/>
<text text-anchor="start" x="1117.01" y="-1024.2" font-family="Arial" font-size="14.00">entityname </text>
<text text-anchor="start" x="1189.39" y="-1024.2" font-family="Arial" font-size="14.00" fill="#666666">[text]</text>
<polygon fill="none" stroke="black" points="1110.01,-981.2 1110.01,-1012 1368.98,-1012 1368.98,-981.2 1110.01,-981.2"/>
<text text-anchor="start" x="1117.01" y="-993.4" font-family="Arial" font-size="14.00">entrancedistance </text>
<text text-anchor="start" x="1227.53" y="-993.4" font-family="Arial" font-size="14.00" fill="#666666">[real]</text>
<polygon fill="none" stroke="black" points="1110.01,-950.4 1110.01,-981.2 1368.98,-981.2 1368.98,-950.4 1110.01,-950.4"/>
<text text-anchor="start" x="1117.01" y="-962.6" font-family="Arial" font-size="14.00">entrancedistanceunits </text>
<text text-anchor="start" x="1257.1" y="-962.6" font-family="Arial" font-size="14.00" fill="#666666">[integer]</text>
<polygon fill="none" stroke="black" points="1110.01,-919.6 1110.01,-950.4 1368.98,-950.4 1368.98,-919.6 1110.01,-919.6"/>
<text text-anchor="start" x="1117.01" y="-931.8" font-family="Arial" font-size="14.00">monitoring </text>
<text text-anchor="start" x="1186.27" y="-931.8" font-family="Arial" font-size="14.00" fill="#666666">[boolean]</text>
<polygon fill="none" stroke="black" points="1110.01,-888.8 1110.01,-919.6 1368.98,-919.6 1368.98,-888.8 1110.01,-888.8"/>
<text text-anchor="start" x="1117.01" y="-901" font-family="Arial" font-size="14.00">rockageid </text>
<text text-anchor="start" x="1181.61" y="-901" font-family="Arial" font-size="14.00" fill="#666666">[integer]</text>
<polygon fill="none" stroke="black" points="1110.01,-858 1110.01,-888.8 1368.98,-888.8 1368.98,-858 1110.01,-858"/>
<text text-anchor="start" x="1117.01" y="-870.2" font-family="Arial" font-size="14.00">siteid </text>
<text text-anchor="start" x="1153.59" y="-870.2" font-family="Arial" font-size="14.00" fill="#666666">[integer]</text>
<polygon fill="none" stroke="black" points="1110.01,-827.2 1110.01,-858 1368.98,-858 1368.98,-827.2 1110.01,-827.2"/>
<text text-anchor="start" x="1117.01" y="-839.4" font-family="Arial" font-size="14.00">speleothemtypeid </text>
<text text-anchor="start" x="1230.64" y="-839.4" font-family="Arial" font-size="14.00" fill="#666666">[integer]</text>
</g>
<!-- ndb.speleothems&#45;&gt;ndb.relativeages -->
<g id="edge4" class="edge">
<title>ndb.speleothems:rockageid&#45;&gt;ndb.relativeages:relativeageid</title>
<path fill="none" stroke="black" d="M1098.83,-902.69C1003.96,-872.7 1115.5,-407.4 1006.4,-407.4"/>
<polygon fill="black" stroke="black" points="1098.79,-902.68 1108.02,-908.6 1104.07,-903.46 1108.35,-904.1 1108.35,-904.1 1108.35,-904.1 1104.07,-903.46 1109.35,-899.7 1098.79,-902.68"/>
<text text-anchor="start" x="1116.01" y="-914.2" font-family="Arial" font-size="10.00">FOREIGN KEY (rockageid) REFERENCES ndb.relativeages(relativeageid)</text>
</g>
</g>
</svg>
