<?xml version="1.0" encoding="UTF-8" standalone="no"?>
<!DOCTYPE svg PUBLIC "-//W3C//DTD SVG 1.1//EN"
 "http://www.w3.org/Graphics/SVG/1.1/DTD/svg11.dtd">
<!-- Generated by graphviz version 12.1.2 (20240928.0832)
 -->
<!-- Title: ndb.aggregatesampleages Pages: 1 -->
<svg width="2303pt" height="1626pt"
 viewBox="0.00 0.00 2303.22 1626.40" xmlns="http://www.w3.org/2000/svg" xmlns:xlink="http://www.w3.org/1999/xlink">
<g id="graph0" class="graph" transform="scale(1 1) rotate(0) translate(4 1622.4)">
<title>ndb.aggregatesampleages</title>
<polygon fill="white" stroke="none" points="-4,4 -4,-1622.4 2299.22,-1622.4 2299.22,4 -4,4"/>
<!-- ndb.aggregatesampleages -->
<g id="node1" class="node">
<title>ndb.aggregatesampleages</title>
<polygon fill="#efefef" stroke="none" points="785.96,-1536.6 785.96,-1572.2 1108.87,-1572.2 1108.87,-1536.6 785.96,-1536.6"/>
<polygon fill="none" stroke="black" points="785.96,-1536.6 785.96,-1572.2 1108.87,-1572.2 1108.87,-1536.6 785.96,-1536.6"/>
<text text-anchor="start" x="792.96" y="-1550" font-family="Arial Bold" font-size="18.00">ndb.aggregatesampleages</text>
<text text-anchor="start" x="977.38" y="-1550" font-family="Arial" font-size="14.00">    </text>
<text text-anchor="start" x="1008.5" y="-1550" font-family="Arial" font-size="14.00" fill="#666666">[BASE TABLE]</text>
<polygon fill="none" stroke="black" points="785.96,-1505.8 785.96,-1536.6 1108.87,-1536.6 1108.87,-1505.8 785.96,-1505.8"/>
<text text-anchor="start" x="792.96" y="-1518" font-family="Arial" font-size="14.00">aggregatechronid </text>
<text text-anchor="start" x="905.82" y="-1518" font-family="Arial" font-size="14.00" fill="#666666">[integer]</text>
<polygon fill="none" stroke="black" points="785.96,-1475 785.96,-1505.8 1108.87,-1505.8 1108.87,-1475 785.96,-1475"/>
<text text-anchor="start" x="792.96" y="-1487.2" font-family="Arial" font-size="14.00">aggregatedatasetid </text>
<text text-anchor="start" x="916.72" y="-1487.2" font-family="Arial" font-size="14.00" fill="#666666">[integer]</text>
<polygon fill="none" stroke="black" points="785.96,-1444.2 785.96,-1475 1108.87,-1475 1108.87,-1444.2 785.96,-1444.2"/>
<text text-anchor="start" x="792.96" y="-1456.4" font-family="Arial" font-size="14.00">recdatecreated </text>
<text text-anchor="start" x="890.24" y="-1456.4" font-family="Arial" font-size="14.00" fill="#666666">[timestamp(0) without time zone]</text>
<polygon fill="none" stroke="black" points="785.96,-1413.4 785.96,-1444.2 1108.87,-1444.2 1108.87,-1413.4 785.96,-1413.4"/>
<text text-anchor="start" x="792.96" y="-1425.6" font-family="Arial" font-size="14.00">recdatemodified </text>
<text text-anchor="start" x="896.46" y="-1425.6" font-family="Arial" font-size="14.00" fill="#666666">[timestamp(0) without time zone]</text>
<polygon fill="none" stroke="black" points="785.96,-1382.6 785.96,-1413.4 1108.87,-1413.4 1108.87,-1382.6 785.96,-1382.6"/>
<text text-anchor="start" x="792.96" y="-1394.8" font-family="Arial" font-size="14.00">sampleageid </text>
<text text-anchor="start" x="876.23" y="-1394.8" font-family="Arial" font-size="14.00" fill="#666666">[integer]</text>
<polygon fill="none" stroke="black" stroke-width="3" points="784.46,-1381.1 784.46,-1573.7 1110.37,-1573.7 1110.37,-1381.1 784.46,-1381.1"/>
</g>
<!-- ndb.aggregatechronologies -->
<g id="node2" class="node">
<title>ndb.aggregatechronologies</title>
<polygon fill="#efefef" stroke="none" points="542.95,-1221.6 542.95,-1257.2 875.88,-1257.2 875.88,-1221.6 542.95,-1221.6"/>
<polygon fill="none" stroke="black" points="542.95,-1221.6 542.95,-1257.2 875.88,-1257.2 875.88,-1221.6 542.95,-1221.6"/>
<text text-anchor="start" x="549.95" y="-1235" font-family="Arial Bold" font-size="18.00">ndb.aggregatechronologies</text>
<text text-anchor="start" x="744.39" y="-1235" font-family="Arial" font-size="14.00">    </text>
<text text-anchor="start" x="775.5" y="-1235" font-family="Arial" font-size="14.00" fill="#666666">[BASE TABLE]</text>
<polygon fill="none" stroke="black" points="542.95,-1190.8 542.95,-1221.6 875.88,-1221.6 875.88,-1190.8 542.95,-1190.8"/>
<text text-anchor="start" x="549.95" y="-1203" font-family="Arial" font-size="14.00">ageboundolder </text>
<text text-anchor="start" x="647.26" y="-1203" font-family="Arial" font-size="14.00" fill="#666666">[integer]</text>
<polygon fill="none" stroke="black" points="542.95,-1160 542.95,-1190.8 875.88,-1190.8 875.88,-1160 542.95,-1160"/>
<text text-anchor="start" x="549.95" y="-1172.2" font-family="Arial" font-size="14.00">ageboundyounger </text>
<text text-anchor="start" x="666.73" y="-1172.2" font-family="Arial" font-size="14.00" fill="#666666">[integer]</text>
<polygon fill="none" stroke="black" points="542.95,-1129.2 542.95,-1160 875.88,-1160 875.88,-1129.2 542.95,-1129.2"/>
<text text-anchor="start" x="549.95" y="-1141.4" font-family="Arial" font-size="14.00">agetypeid </text>
<text text-anchor="start" x="614.56" y="-1141.4" font-family="Arial" font-size="14.00" fill="#666666">[integer]</text>
<polygon fill="none" stroke="black" points="542.95,-1098.4 542.95,-1129.2 875.88,-1129.2 875.88,-1098.4 542.95,-1098.4"/>
<text text-anchor="start" x="549.95" y="-1110.6" font-family="Arial" font-size="14.00">aggregatechronid </text>
<text text-anchor="start" x="662.82" y="-1110.6" font-family="Arial" font-size="14.00" fill="#666666">[integer]</text>
<polygon fill="none" stroke="black" points="542.95,-1067.6 542.95,-1098.4 875.88,-1098.4 875.88,-1067.6 542.95,-1067.6"/>
<text text-anchor="start" x="549.95" y="-1079.8" font-family="Arial" font-size="14.00">aggregatedatasetid </text>
<text text-anchor="start" x="673.72" y="-1079.8" font-family="Arial" font-size="14.00" fill="#666666">[integer]</text>
<polygon fill="none" stroke="black" points="542.95,-1036.8 542.95,-1067.6 875.88,-1067.6 875.88,-1036.8 542.95,-1036.8"/>
<text text-anchor="start" x="549.95" y="-1049" font-family="Arial" font-size="14.00">chronologyname </text>
<text text-anchor="start" x="657.35" y="-1049" font-family="Arial" font-size="14.00" fill="#666666">[varchar(80)]</text>
<polygon fill="none" stroke="black" points="542.95,-1006 542.95,-1036.8 875.88,-1036.8 875.88,-1006 542.95,-1006"/>
<text text-anchor="start" x="549.95" y="-1018.2" font-family="Arial" font-size="14.00">isdefault </text>
<text text-anchor="start" x="605.99" y="-1018.2" font-family="Arial" font-size="14.00" fill="#666666">[boolean]</text>
<polygon fill="none" stroke="black" points="542.95,-975.2 542.95,-1006 875.88,-1006 875.88,-975.2 542.95,-975.2"/>
<text text-anchor="start" x="549.95" y="-987.4" font-family="Arial" font-size="14.00">notes </text>
<text text-anchor="start" x="588.09" y="-987.4" font-family="Arial" font-size="14.00" fill="#666666">[text]</text>
<polygon fill="none" stroke="black" points="542.95,-944.4 542.95,-975.2 875.88,-975.2 875.88,-944.4 542.95,-944.4"/>
<text text-anchor="start" x="549.95" y="-956.6" font-family="Arial" font-size="14.00">recdatecreated </text>
<text text-anchor="start" x="647.24" y="-956.6" font-family="Arial" font-size="14.00" fill="#666666">[timestamp(0) without time zone]</text>
<polygon fill="none" stroke="black" points="542.95,-913.6 542.95,-944.4 875.88,-944.4 875.88,-913.6 542.95,-913.6"/>
<text text-anchor="start" x="549.95" y="-925.8" font-family="Arial" font-size="14.00">recdatemodified </text>
<text text-anchor="start" x="653.46" y="-925.8" font-family="Arial" font-size="14.00" fill="#666666">[timestamp(0) without time zone]</text>
</g>
<!-- ndb.aggregatesampleages&#45;&gt;ndb.aggregatechronologies -->
<g id="edge1" class="edge">
<title>ndb.aggregatesampleages:aggregatechronid&#45;&gt;ndb.aggregatechronologies:aggregatechronid</title>
<path fill="none" stroke="black" d="M774.6,-1520.51C706.16,-1510.8 741.82,-1401.25 785.96,-1336.4 810.18,-1300.82 851.65,-1335.98 875.88,-1300.4 922.54,-1231.84 959.81,-1113.8 876.88,-1113.8"/>
<polygon fill="black" stroke="black" points="774.65,-1520.51 784.33,-1525.67 779.97,-1520.87 784.29,-1521.16 784.29,-1521.16 784.29,-1521.16 779.97,-1520.87 784.93,-1516.69 774.65,-1520.51"/>
<text text-anchor="start" x="342.73" y="-1531.2" font-family="Arial" font-size="10.00">FOREIGN KEY (aggregatechronid) REFERENCES ndb.aggregatechronologies(aggregatechronid)</text>
</g>
<!-- ndb.aggregatedatasets -->
<g id="node4" class="node">
<title>ndb.aggregatedatasets</title>
<polygon fill="#efefef" stroke="none" points="880.52,-647.8 880.52,-683.4 1200.31,-683.4 1200.31,-647.8 880.52,-647.8"/>
<polygon fill="none" stroke="black" points="880.52,-647.8 880.52,-683.4 1200.31,-683.4 1200.31,-647.8 880.52,-647.8"/>
<text text-anchor="start" x="898.95" y="-661.2" font-family="Arial Bold" font-size="18.00">ndb.aggregatedatasets</text>
<text text-anchor="start" x="1057.39" y="-661.2" font-family="Arial" font-size="14.00">    </text>
<text text-anchor="start" x="1088.5" y="-661.2" font-family="Arial" font-size="14.00" fill="#666666">[BASE TABLE]</text>
<polygon fill="none" stroke="black" points="880.52,-617 880.52,-647.8 1200.31,-647.8 1200.31,-617 880.52,-617"/>
<text text-anchor="start" x="887.52" y="-629.2" font-family="Arial" font-size="14.00">aggregatedatasetid </text>
<text text-anchor="start" x="1011.28" y="-629.2" font-family="Arial" font-size="14.00" fill="#666666">[integer]</text>
<polygon fill="none" stroke="black" points="880.52,-586.2 880.52,-617 1200.31,-617 1200.31,-586.2 880.52,-586.2"/>
<text text-anchor="start" x="887.52" y="-598.4" font-family="Arial" font-size="14.00">aggregatedatasetname </text>
<text text-anchor="start" x="1035.4" y="-598.4" font-family="Arial" font-size="14.00" fill="#666666">[varchar(255)]</text>
<polygon fill="none" stroke="black" points="880.52,-555.4 880.52,-586.2 1200.31,-586.2 1200.31,-555.4 880.52,-555.4"/>
<text text-anchor="start" x="887.52" y="-567.6" font-family="Arial" font-size="14.00">aggregateordertypeid </text>
<text text-anchor="start" x="1024.5" y="-567.6" font-family="Arial" font-size="14.00" fill="#666666">[integer]</text>
<polygon fill="none" stroke="black" points="880.52,-524.6 880.52,-555.4 1200.31,-555.4 1200.31,-524.6 880.52,-524.6"/>
<text text-anchor="start" x="887.52" y="-536.8" font-family="Arial" font-size="14.00">notes </text>
<text text-anchor="start" x="925.65" y="-536.8" font-family="Arial" font-size="14.00" fill="#666666">[text]</text>
<polygon fill="none" stroke="black" points="880.52,-493.8 880.52,-524.6 1200.31,-524.6 1200.31,-493.8 880.52,-493.8"/>
<text text-anchor="start" x="887.52" y="-506" font-family="Arial" font-size="14.00">recdatecreated </text>
<text text-anchor="start" x="984.8" y="-506" font-family="Arial" font-size="14.00" fill="#666666">[timestamp(0) without time zone]</text>
<polygon fill="none" stroke="black" points="880.52,-463 880.52,-493.8 1200.31,-493.8 1200.31,-463 880.52,-463"/>
<text text-anchor="start" x="887.52" y="-475.2" font-family="Arial" font-size="14.00">recdatemodified </text>
<text text-anchor="start" x="991.02" y="-475.2" font-family="Arial" font-size="14.00" fill="#666666">[timestamp(0) without time zone]</text>
</g>
<!-- ndb.aggregatesampleages&#45;&gt;ndb.aggregatedatasets -->
<g id="edge4" class="edge">
<title>ndb.aggregatesampleages:aggregatedatasetid&#45;&gt;ndb.aggregatedatasets:aggregatedatasetid</title>
<path fill="none" stroke="black" d="M1120.25,-1489.53C1175.29,-1479.59 1148.79,-1387.32 1108.87,-1336.4 1068.58,-1285.01 1008.77,-1350.11 966.41,-1300.4 904.2,-1227.38 947.93,-964.32 928.41,-870.4 906.45,-764.67 771.53,-632.4 879.52,-632.4"/>
<polygon fill="black" stroke="black" points="1120.17,-1489.53 1109.83,-1485.89 1114.85,-1489.98 1110.54,-1490.34 1110.54,-1490.34 1110.54,-1490.34 1114.85,-1489.98 1110.58,-1494.86 1120.17,-1489.53"/>
<text text-anchor="start" x="1116.87" y="-1500.4" font-family="Arial" font-size="10.00">FOREIGN KEY (aggregatedatasetid) REFERENCES ndb.aggregatedatasets(aggregatedatasetid) ON UPDATE CASCADE ON DELETE CASCADE</text>
</g>
<!-- ndb.sampleages -->
<g id="node7" class="node">
<title>ndb.sampleages</title>
<polygon fill="#efefef" stroke="none" points="1442.52,-1190.8 1442.52,-1226.4 1762.31,-1226.4 1762.31,-1190.8 1442.52,-1190.8"/>
<polygon fill="none" stroke="black" points="1442.52,-1190.8 1442.52,-1226.4 1762.31,-1226.4 1762.31,-1190.8 1442.52,-1190.8"/>
<text text-anchor="start" x="1482.94" y="-1204.2" font-family="Arial Bold" font-size="18.00">ndb.sampleages</text>
<text text-anchor="start" x="1597.4" y="-1204.2" font-family="Arial" font-size="14.00">    </text>
<text text-anchor="start" x="1628.52" y="-1204.2" font-family="Arial" font-size="14.00" fill="#666666">[BASE TABLE]</text>
<polygon fill="none" stroke="black" points="1442.52,-1160 1442.52,-1190.8 1762.31,-1190.8 1762.31,-1160 1442.52,-1160"/>
<text text-anchor="start" x="1449.52" y="-1172.2" font-family="Arial" font-size="14.00">age </text>
<text text-anchor="start" x="1476.76" y="-1172.2" font-family="Arial" font-size="14.00" fill="#666666">[double precision]</text>
<polygon fill="none" stroke="black" points="1442.52,-1129.2 1442.52,-1160 1762.31,-1160 1762.31,-1129.2 1442.52,-1129.2"/>
<text text-anchor="start" x="1449.52" y="-1141.4" font-family="Arial" font-size="14.00">ageolder </text>
<text text-anchor="start" x="1507.89" y="-1141.4" font-family="Arial" font-size="14.00" fill="#666666">[double precision]</text>
<polygon fill="none" stroke="black" points="1442.52,-1098.4 1442.52,-1129.2 1762.31,-1129.2 1762.31,-1098.4 1442.52,-1098.4"/>
<text text-anchor="start" x="1449.52" y="-1110.6" font-family="Arial" font-size="14.00">ageyounger </text>
<text text-anchor="start" x="1527.36" y="-1110.6" font-family="Arial" font-size="14.00" fill="#666666">[double precision]</text>
<polygon fill="none" stroke="black" points="1442.52,-1067.6 1442.52,-1098.4 1762.31,-1098.4 1762.31,-1067.6 1442.52,-1067.6"/>
<text text-anchor="start" x="1449.52" y="-1079.8" font-family="Arial" font-size="14.00">chronologyid </text>
<text text-anchor="start" x="1532.79" y="-1079.8" font-family="Arial" font-size="14.00" fill="#666666">[integer]</text>
<polygon fill="none" stroke="black" points="1442.52,-1036.8 1442.52,-1067.6 1762.31,-1067.6 1762.31,-1036.8 1442.52,-1036.8"/>
<text text-anchor="start" x="1449.52" y="-1049" font-family="Arial" font-size="14.00">recdatecreated </text>
<text text-anchor="start" x="1546.8" y="-1049" font-family="Arial" font-size="14.00" fill="#666666">[timestamp(0) without time zone]</text>
<polygon fill="none" stroke="black" points="1442.52,-1006 1442.52,-1036.8 1762.31,-1036.8 1762.31,-1006 1442.52,-1006"/>
<text text-anchor="start" x="1449.52" y="-1018.2" font-family="Arial" font-size="14.00">recdatemodified </text>
<text text-anchor="start" x="1553.02" y="-1018.2" font-family="Arial" font-size="14.00" fill="#666666">[timestamp(0) without time zone]</text>
<polygon fill="none" stroke="black" points="1442.52,-975.2 1442.52,-1006 1762.31,-1006 1762.31,-975.2 1442.52,-975.2"/>
<text text-anchor="start" x="1449.52" y="-987.4" font-family="Arial" font-size="14.00">sampleageid </text>
<text text-anchor="start" x="1532.79" y="-987.4" font-family="Arial" font-size="14.00" fill="#666666">[integer]</text>
<polygon fill="none" stroke="black" points="1442.52,-944.4 1442.52,-975.2 1762.31,-975.2 1762.31,-944.4 1442.52,-944.4"/>
<text text-anchor="start" x="1449.52" y="-956.6" font-family="Arial" font-size="14.00">sampleid </text>
<text text-anchor="start" x="1509.43" y="-956.6" font-family="Arial" font-size="14.00" fill="#666666">[integer]</text>
</g>
<!-- ndb.aggregatesampleages&#45;&gt;ndb.sampleages -->
<g id="edge7" class="edge">
<title>ndb.aggregatesampleages:sampleageid&#45;&gt;ndb.sampleages:sampleageid</title>
<path fill="none" stroke="black" d="M1120.27,-1397.67C1192.37,-1393.39 1349.98,-1348.43 1390.41,-1300.4 1435.35,-1247.02 1371.74,-990.6 1441.52,-990.6"/>
<polygon fill="black" stroke="black" points="1120.2,-1397.67 1110.06,-1393.49 1114.87,-1397.84 1110.54,-1397.98 1110.54,-1397.98 1110.54,-1397.98 1114.87,-1397.84 1110.35,-1402.49 1120.2,-1397.67"/>
<text text-anchor="start" x="1116.87" y="-1408" font-family="Arial" font-size="10.00">FOREIGN KEY (sampleageid) REFERENCES ndb.sampleages(sampleageid) ON UPDATE CASCADE ON DELETE CASCADE</text>
</g>
<!-- ndb.agetypes -->
<g id="node3" class="node">
<title>ndb.agetypes</title>
<polygon fill="#efefef" stroke="none" points="456.52,-647.8 456.52,-683.4 776.31,-683.4 776.31,-647.8 456.52,-647.8"/>
<polygon fill="none" stroke="black" points="456.52,-647.8 456.52,-683.4 776.31,-683.4 776.31,-647.8 456.52,-647.8"/>
<text text-anchor="start" x="506.93" y="-661.2" font-family="Arial Bold" font-size="18.00">ndb.agetypes</text>
<text text-anchor="start" x="601.41" y="-661.2" font-family="Arial" font-size="14.00">    </text>
<text text-anchor="start" x="632.52" y="-661.2" font-family="Arial" font-size="14.00" fill="#666666">[BASE TABLE]</text>
<polygon fill="none" stroke="black" points="456.52,-617 456.52,-647.8 776.31,-647.8 776.31,-617 456.52,-617"/>
<text text-anchor="start" x="463.52" y="-629.2" font-family="Arial" font-size="14.00">agetype </text>
<text text-anchor="start" x="517.23" y="-629.2" font-family="Arial" font-size="14.00" fill="#666666">[varchar(64)]</text>
<polygon fill="none" stroke="black" points="456.52,-586.2 456.52,-617 776.31,-617 776.31,-586.2 456.52,-586.2"/>
<text text-anchor="start" x="463.52" y="-598.4" font-family="Arial" font-size="14.00">agetypeid </text>
<text text-anchor="start" x="528.12" y="-598.4" font-family="Arial" font-size="14.00" fill="#666666">[integer]</text>
<polygon fill="none" stroke="black" points="456.52,-555.4 456.52,-586.2 776.31,-586.2 776.31,-555.4 456.52,-555.4"/>
<text text-anchor="start" x="463.52" y="-567.6" font-family="Arial" font-size="14.00">precedence </text>
<text text-anchor="start" x="540.57" y="-567.6" font-family="Arial" font-size="14.00" fill="#666666">[integer]</text>
<polygon fill="none" stroke="black" points="456.52,-524.6 456.52,-555.4 776.31,-555.4 776.31,-524.6 456.52,-524.6"/>
<text text-anchor="start" x="463.52" y="-536.8" font-family="Arial" font-size="14.00">recdatecreated </text>
<text text-anchor="start" x="560.8" y="-536.8" font-family="Arial" font-size="14.00" fill="#666666">[timestamp(0) without time zone]</text>
<polygon fill="none" stroke="black" points="456.52,-493.8 456.52,-524.6 776.31,-524.6 776.31,-493.8 456.52,-493.8"/>
<text text-anchor="start" x="463.52" y="-506" font-family="Arial" font-size="14.00">recdatemodified </text>
<text text-anchor="start" x="567.02" y="-506" font-family="Arial" font-size="14.00" fill="#666666">[timestamp(0) without time zone]</text>
<polygon fill="none" stroke="black" points="456.52,-463 456.52,-493.8 776.31,-493.8 776.31,-463 456.52,-463"/>
<text text-anchor="start" x="463.52" y="-475.2" font-family="Arial" font-size="14.00">shortagetype </text>
<text text-anchor="start" x="548.35" y="-475.2" font-family="Arial" font-size="14.00" fill="#666666">[varchar(32)]</text>
</g>
<!-- ndb.aggregatechronologies&#45;&gt;ndb.agetypes -->
<g id="edge2" class="edge">
<title>ndb.aggregatechronologies:agetypeid&#45;&gt;ndb.agetypes:agetypeid</title>
<path fill="none" stroke="black" d="M531.72,-1144.17C423.79,-1134.81 485.09,-973.58 542.95,-870.4 602.54,-764.14 716.49,-832.73 776.31,-726.6 803.59,-678.2 832.87,-601.6 777.31,-601.6"/>
<polygon fill="black" stroke="black" points="531.63,-1144.17 541.43,-1149.08 536.96,-1144.39 541.29,-1144.57 541.29,-1144.57 541.29,-1144.57 536.96,-1144.39 541.81,-1140.09 531.63,-1144.17"/>
<text text-anchor="start" x="7" y="-1154.6" font-family="Arial" font-size="10.00">FOREIGN KEY (agetypeid) REFERENCES ndb.agetypes(agetypeid) ON UPDATE CASCADE ON DELETE CASCADE</text>
</g>
<!-- ndb.aggregatechronologies&#45;&gt;ndb.aggregatedatasets -->
<g id="edge3" class="edge">
<title>ndb.aggregatechronologies:aggregatedatasetid&#45;&gt;ndb.aggregatedatasets:aggregatedatasetid</title>
<path fill="none" stroke="black" d="M886.82,-1081.18C962.75,-1050.18 783.1,-632.4 879.52,-632.4"/>
<polygon fill="black" stroke="black" points="887.04,-1081.14 876.4,-1078.51 881.79,-1082.1 877.53,-1082.88 877.53,-1082.88 877.53,-1082.88 881.79,-1082.1 878.01,-1087.37 887.04,-1081.14"/>
<text text-anchor="start" x="215.15" y="-1093" font-family="Arial" font-size="10.00">FOREIGN KEY (aggregatedatasetid) REFERENCES ndb.aggregatedatasets(aggregatedatasetid) ON UPDATE CASCADE ON DELETE CASCADE</text>
</g>
<!-- ndb.aggregateordertypes -->
<g id="node6" class="node">
<title>ndb.aggregateordertypes</title>
<polygon fill="#efefef" stroke="none" points="880.52,-197.2 880.52,-232.8 1200.31,-232.8 1200.31,-197.2 880.52,-197.2"/>
<polygon fill="none" stroke="black" points="880.52,-197.2 880.52,-232.8 1200.31,-232.8 1200.31,-197.2 880.52,-197.2"/>
<text text-anchor="start" x="889.46" y="-210.6" font-family="Arial Bold" font-size="18.00">ndb.aggregateordertypes</text>
<text text-anchor="start" x="1066.88" y="-210.6" font-family="Arial" font-size="14.00">    </text>
<text text-anchor="start" x="1098" y="-210.6" font-family="Arial" font-size="14.00" fill="#666666">[BASE TABLE]</text>
<polygon fill="none" stroke="black" points="880.52,-166.4 880.52,-197.2 1200.31,-197.2 1200.31,-166.4 880.52,-166.4"/>
<text text-anchor="start" x="887.52" y="-178.6" font-family="Arial" font-size="14.00">aggregateordertype </text>
<text text-anchor="start" x="1013.6" y="-178.6" font-family="Arial" font-size="14.00" fill="#666666">[varchar(64)]</text>
<polygon fill="none" stroke="black" points="880.52,-135.6 880.52,-166.4 1200.31,-166.4 1200.31,-135.6 880.52,-135.6"/>
<text text-anchor="start" x="887.52" y="-147.8" font-family="Arial" font-size="14.00">aggregateordertypeid </text>
<text text-anchor="start" x="1024.5" y="-147.8" font-family="Arial" font-size="14.00" fill="#666666">[integer]</text>
<polygon fill="none" stroke="black" points="880.52,-104.8 880.52,-135.6 1200.31,-135.6 1200.31,-104.8 880.52,-104.8"/>
<text text-anchor="start" x="887.52" y="-117" font-family="Arial" font-size="14.00">notes </text>
<text text-anchor="start" x="925.65" y="-117" font-family="Arial" font-size="14.00" fill="#666666">[text]</text>
<polygon fill="none" stroke="black" points="880.52,-74 880.52,-104.8 1200.31,-104.8 1200.31,-74 880.52,-74"/>
<text text-anchor="start" x="887.52" y="-86.2" font-family="Arial" font-size="14.00">recdatecreated </text>
<text text-anchor="start" x="984.8" y="-86.2" font-family="Arial" font-size="14.00" fill="#666666">[timestamp(0) without time zone]</text>
<polygon fill="none" stroke="black" points="880.52,-43.2 880.52,-74 1200.31,-74 1200.31,-43.2 880.52,-43.2"/>
<text text-anchor="start" x="887.52" y="-55.4" font-family="Arial" font-size="14.00">recdatemodified </text>
<text text-anchor="start" x="991.02" y="-55.4" font-family="Arial" font-size="14.00" fill="#666666">[timestamp(0) without time zone]</text>
</g>
<!-- ndb.aggregatedatasets&#45;&gt;ndb.aggregateordertypes -->
<g id="edge6" class="edge">
<title>ndb.aggregatedatasets:aggregateordertypeid&#45;&gt;ndb.aggregateordertypes:aggregateordertypeid</title>
<path fill="none" stroke="black" d="M1211.57,-569.02C1294.47,-539.43 1291.05,-151 1201.31,-151"/>
<polygon fill="black" stroke="black" points="1211.5,-569.03 1200.87,-566.31 1206.24,-569.94 1201.97,-570.69 1201.97,-570.69 1201.97,-570.69 1206.24,-569.94 1202.41,-575.18 1211.5,-569.03"/>
<text text-anchor="start" x="511.26" y="-580.8" font-family="Arial" font-size="10.00">FOREIGN KEY (aggregateordertypeid) REFERENCES ndb.aggregateordertypes(aggregateordertypeid) ON UPDATE CASCADE ON DELETE CASCADE</text>
</g>
<!-- ndb.aggregatesamples -->
<g id="node5" class="node">
<title>ndb.aggregatesamples</title>
<polygon fill="#efefef" stroke="none" points="1018.52,-1129.2 1018.52,-1164.8 1338.31,-1164.8 1338.31,-1129.2 1018.52,-1129.2"/>
<polygon fill="none" stroke="black" points="1018.52,-1129.2 1018.52,-1164.8 1338.31,-1164.8 1338.31,-1129.2 1018.52,-1129.2"/>
<text text-anchor="start" x="1036.45" y="-1142.6" font-family="Arial Bold" font-size="18.00">ndb.aggregatesamples</text>
<text text-anchor="start" x="1195.89" y="-1142.6" font-family="Arial" font-size="14.00">    </text>
<text text-anchor="start" x="1227.01" y="-1142.6" font-family="Arial" font-size="14.00" fill="#666666">[BASE TABLE]</text>
<polygon fill="none" stroke="black" points="1018.52,-1098.4 1018.52,-1129.2 1338.31,-1129.2 1338.31,-1098.4 1018.52,-1098.4"/>
<text text-anchor="start" x="1025.52" y="-1110.6" font-family="Arial" font-size="14.00">aggregatedatasetid </text>
<text text-anchor="start" x="1149.28" y="-1110.6" font-family="Arial" font-size="14.00" fill="#666666">[integer]</text>
<polygon fill="none" stroke="black" points="1018.52,-1067.6 1018.52,-1098.4 1338.31,-1098.4 1338.31,-1067.6 1018.52,-1067.6"/>
<text text-anchor="start" x="1025.52" y="-1079.8" font-family="Arial" font-size="14.00">recdatecreated </text>
<text text-anchor="start" x="1122.8" y="-1079.8" font-family="Arial" font-size="14.00" fill="#666666">[timestamp(0) without time zone]</text>
<polygon fill="none" stroke="black" points="1018.52,-1036.8 1018.52,-1067.6 1338.31,-1067.6 1338.31,-1036.8 1018.52,-1036.8"/>
<text text-anchor="start" x="1025.52" y="-1049" font-family="Arial" font-size="14.00">recdatemodified </text>
<text text-anchor="start" x="1129.02" y="-1049" font-family="Arial" font-size="14.00" fill="#666666">[timestamp(0) without time zone]</text>
<polygon fill="none" stroke="black" points="1018.52,-1006 1018.52,-1036.8 1338.31,-1036.8 1338.31,-1006 1018.52,-1006"/>
<text text-anchor="start" x="1025.52" y="-1018.2" font-family="Arial" font-size="14.00">sampleid </text>
<text text-anchor="start" x="1085.43" y="-1018.2" font-family="Arial" font-size="14.00" fill="#666666">[integer]</text>
</g>
<!-- ndb.aggregatesamples&#45;&gt;ndb.aggregatedatasets -->
<g id="edge5" class="edge">
<title>ndb.aggregatesamples:aggregatedatasetid&#45;&gt;ndb.aggregatedatasets:aggregatedatasetid</title>
<path fill="none" stroke="black" d="M1007.18,-1112.98C955.57,-1103.96 997.92,-1022.67 1018.52,-962.8 1073.1,-804.11 1369.13,-632.4 1201.31,-632.4"/>
<polygon fill="black" stroke="black" points="1007.21,-1112.98 1016.82,-1118.26 1012.53,-1113.4 1016.85,-1113.75 1016.85,-1113.75 1016.85,-1113.75 1012.53,-1113.4 1017.54,-1109.29 1007.21,-1112.98"/>
<text text-anchor="start" x="355.79" y="-1123.8" font-family="Arial" font-size="10.00">FOREIGN KEY (aggregatedatasetid) REFERENCES ndb.aggregatedatasets(aggregatedatasetid) ON UPDATE CASCADE ON DELETE CASCADE</text>
</g>
<!-- ndb.chronologies -->
<g id="node8" class="node">
<title>ndb.chronologies</title>
<polygon fill="#efefef" stroke="none" points="1373.52,-755.6 1373.52,-791.2 1693.31,-791.2 1693.31,-755.6 1373.52,-755.6"/>
<polygon fill="none" stroke="black" points="1373.52,-755.6 1373.52,-791.2 1693.31,-791.2 1693.31,-755.6 1373.52,-755.6"/>
<text text-anchor="start" x="1408.93" y="-769" font-family="Arial Bold" font-size="18.00">ndb.chronologies</text>
<text text-anchor="start" x="1533.41" y="-769" font-family="Arial" font-size="14.00">    </text>
<text text-anchor="start" x="1564.53" y="-769" font-family="Arial" font-size="14.00" fill="#666666">[BASE TABLE]</text>
<polygon fill="none" stroke="black" points="1373.52,-724.8 1373.52,-755.6 1693.31,-755.6 1693.31,-724.8 1373.52,-724.8"/>
<text text-anchor="start" x="1380.52" y="-737" font-family="Arial" font-size="14.00">ageboundolder </text>
<text text-anchor="start" x="1477.82" y="-737" font-family="Arial" font-size="14.00" fill="#666666">[integer]</text>
<polygon fill="none" stroke="black" points="1373.52,-694 1373.52,-724.8 1693.31,-724.8 1693.31,-694 1373.52,-694"/>
<text text-anchor="start" x="1380.52" y="-706.2" font-family="Arial" font-size="14.00">ageboundyounger </text>
<text text-anchor="start" x="1497.29" y="-706.2" font-family="Arial" font-size="14.00" fill="#666666">[integer]</text>
<polygon fill="none" stroke="black" points="1373.52,-663.2 1373.52,-694 1693.31,-694 1693.31,-663.2 1373.52,-663.2"/>
<text text-anchor="start" x="1380.52" y="-675.4" font-family="Arial" font-size="14.00">agemodel </text>
<text text-anchor="start" x="1445.89" y="-675.4" font-family="Arial" font-size="14.00" fill="#666666">[varchar(80)]</text>
<polygon fill="none" stroke="black" points="1373.52,-632.4 1373.52,-663.2 1693.31,-663.2 1693.31,-632.4 1373.52,-632.4"/>
<text text-anchor="start" x="1380.52" y="-644.6" font-family="Arial" font-size="14.00">agetypeid </text>
<text text-anchor="start" x="1445.12" y="-644.6" font-family="Arial" font-size="14.00" fill="#666666">[integer]</text>
<polygon fill="none" stroke="black" points="1373.52,-601.6 1373.52,-632.4 1693.31,-632.4 1693.31,-601.6 1373.52,-601.6"/>
<text text-anchor="start" x="1380.52" y="-613.8" font-family="Arial" font-size="14.00">chronologyid </text>
<text text-anchor="start" x="1463.79" y="-613.8" font-family="Arial" font-size="14.00" fill="#666666">[integer]</text>
<polygon fill="none" stroke="black" points="1373.52,-570.8 1373.52,-601.6 1693.31,-601.6 1693.31,-570.8 1373.52,-570.8"/>
<text text-anchor="start" x="1380.52" y="-583" font-family="Arial" font-size="14.00">chronologyname </text>
<text text-anchor="start" x="1487.91" y="-583" font-family="Arial" font-size="14.00" fill="#666666">[varchar(80)]</text>
<polygon fill="none" stroke="black" points="1373.52,-540 1373.52,-570.8 1693.31,-570.8 1693.31,-540 1373.52,-540"/>
<text text-anchor="start" x="1380.52" y="-552.2" font-family="Arial" font-size="14.00">collectionunitid </text>
<text text-anchor="start" x="1476.24" y="-552.2" font-family="Arial" font-size="14.00" fill="#666666">[integer]</text>
<polygon fill="none" stroke="black" points="1373.52,-509.2 1373.52,-540 1693.31,-540 1693.31,-509.2 1373.52,-509.2"/>
<text text-anchor="start" x="1380.52" y="-521.4" font-family="Arial" font-size="14.00">contactid </text>
<text text-anchor="start" x="1440.44" y="-521.4" font-family="Arial" font-size="14.00" fill="#666666">[integer]</text>
<polygon fill="none" stroke="black" points="1373.52,-478.4 1373.52,-509.2 1693.31,-509.2 1693.31,-478.4 1373.52,-478.4"/>
<text text-anchor="start" x="1380.52" y="-490.6" font-family="Arial" font-size="14.00">dateprepared </text>
<text text-anchor="start" x="1467.69" y="-490.6" font-family="Arial" font-size="14.00" fill="#666666">[date]</text>
<polygon fill="none" stroke="black" points="1373.52,-447.6 1373.52,-478.4 1693.31,-478.4 1693.31,-447.6 1373.52,-447.6"/>
<text text-anchor="start" x="1380.52" y="-459.8" font-family="Arial" font-size="14.00">isdefault </text>
<text text-anchor="start" x="1436.55" y="-459.8" font-family="Arial" font-size="14.00" fill="#666666">[boolean]</text>
<polygon fill="none" stroke="black" points="1373.52,-416.8 1373.52,-447.6 1693.31,-447.6 1693.31,-416.8 1373.52,-416.8"/>
<text text-anchor="start" x="1380.52" y="-429" font-family="Arial" font-size="14.00">notes </text>
<text text-anchor="start" x="1418.65" y="-429" font-family="Arial" font-size="14.00" fill="#666666">[text]</text>
<polygon fill="none" stroke="black" points="1373.52,-386 1373.52,-416.8 1693.31,-416.8 1693.31,-386 1373.52,-386"/>
<text text-anchor="start" x="1380.52" y="-398.2" font-family="Arial" font-size="14.00">recdatecreated </text>
<text text-anchor="start" x="1477.8" y="-398.2" font-family="Arial" font-size="14.00" fill="#666666">[timestamp(0) without time zone]</text>
<polygon fill="none" stroke="black" points="1373.52,-355.2 1373.52,-386 1693.31,-386 1693.31,-355.2 1373.52,-355.2"/>
<text text-anchor="start" x="1380.52" y="-367.4" font-family="Arial" font-size="14.00">recdatemodified </text>
<text text-anchor="start" x="1484.02" y="-367.4" font-family="Arial" font-size="14.00" fill="#666666">[timestamp(0) without time zone]</text>
</g>
<!-- ndb.sampleages&#45;&gt;ndb.chronologies -->
<g id="edge8" class="edge">
<title>ndb.sampleages:chronologyid&#45;&gt;ndb.chronologies:chronologyid</title>
<path fill="none" stroke="black" d="M1431.3,-1082.3C1363.66,-1072.52 1395.32,-962.26 1442.52,-901.2 1513.06,-809.93 1622.81,-925.7 1693.31,-834.4 1722.84,-796.16 1742.63,-617 1694.31,-617"/>
<polygon fill="black" stroke="black" points="1431.2,-1082.3 1440.87,-1087.47 1436.53,-1082.66 1440.85,-1082.95 1440.85,-1082.95 1440.85,-1082.95 1436.53,-1082.66 1441.49,-1078.49 1431.2,-1082.3"/>
<text text-anchor="start" x="1448.52" y="-1093" font-family="Arial" font-size="10.00">FOREIGN KEY (chronologyid) REFERENCES ndb.chronologies(chronologyid) ON UPDATE CASCADE ON DELETE CASCADE</text>
</g>
<!-- ndb.samples -->
<g id="node9" class="node">
<title>ndb.samples</title>
<polygon fill="#efefef" stroke="none" points="1797.52,-740.2 1797.52,-775.8 2117.31,-775.8 2117.31,-740.2 1797.52,-740.2"/>
<polygon fill="none" stroke="black" points="1797.52,-740.2 1797.52,-775.8 2117.31,-775.8 2117.31,-740.2 1797.52,-740.2"/>
<text text-anchor="start" x="1850.42" y="-753.6" font-family="Arial Bold" font-size="18.00">ndb.samples</text>
<text text-anchor="start" x="1939.92" y="-753.6" font-family="Arial" font-size="14.00">    </text>
<text text-anchor="start" x="1971.03" y="-753.6" font-family="Arial" font-size="14.00" fill="#666666">[BASE TABLE]</text>
<polygon fill="none" stroke="black" points="1797.52,-709.4 1797.52,-740.2 2117.31,-740.2 2117.31,-709.4 1797.52,-709.4"/>
<text text-anchor="start" x="1804.52" y="-721.6" font-family="Arial" font-size="14.00">analysisdate </text>
<text text-anchor="start" x="1886.23" y="-721.6" font-family="Arial" font-size="14.00" fill="#666666">[date]</text>
<polygon fill="none" stroke="black" points="1797.52,-678.6 1797.52,-709.4 2117.31,-709.4 2117.31,-678.6 1797.52,-678.6"/>
<text text-anchor="start" x="1804.52" y="-690.8" font-family="Arial" font-size="14.00">analysisunitid </text>
<text text-anchor="start" x="1892.45" y="-690.8" font-family="Arial" font-size="14.00" fill="#666666">[integer]</text>
<polygon fill="none" stroke="black" points="1797.52,-647.8 1797.52,-678.6 2117.31,-678.6 2117.31,-647.8 1797.52,-647.8"/>
<text text-anchor="start" x="1804.52" y="-660" font-family="Arial" font-size="14.00">datasetid </text>
<text text-anchor="start" x="1865.23" y="-660" font-family="Arial" font-size="14.00" fill="#666666">[integer]</text>
<polygon fill="none" stroke="black" points="1797.52,-617 1797.52,-647.8 2117.31,-647.8 2117.31,-617 1797.52,-617"/>
<text text-anchor="start" x="1804.52" y="-629.2" font-family="Arial" font-size="14.00">labnumber </text>
<text text-anchor="start" x="1874.56" y="-629.2" font-family="Arial" font-size="14.00" fill="#666666">[varchar(40)]</text>
<polygon fill="none" stroke="black" points="1797.52,-586.2 1797.52,-617 2117.31,-617 2117.31,-586.2 1797.52,-586.2"/>
<text text-anchor="start" x="1804.52" y="-598.4" font-family="Arial" font-size="14.00">notes </text>
<text text-anchor="start" x="1842.65" y="-598.4" font-family="Arial" font-size="14.00" fill="#666666">[text]</text>
<polygon fill="none" stroke="black" points="1797.52,-555.4 1797.52,-586.2 2117.31,-586.2 2117.31,-555.4 1797.52,-555.4"/>
<text text-anchor="start" x="1804.52" y="-567.6" font-family="Arial" font-size="14.00">preparationmethod </text>
<text text-anchor="start" x="1925.93" y="-567.6" font-family="Arial" font-size="14.00" fill="#666666">[text]</text>
<polygon fill="none" stroke="black" points="1797.52,-524.6 1797.52,-555.4 2117.31,-555.4 2117.31,-524.6 1797.52,-524.6"/>
<text text-anchor="start" x="1804.52" y="-536.8" font-family="Arial" font-size="14.00">recdatecreated </text>
<text text-anchor="start" x="1901.8" y="-536.8" font-family="Arial" font-size="14.00" fill="#666666">[timestamp(0) without time zone]</text>
<polygon fill="none" stroke="black" points="1797.52,-493.8 1797.52,-524.6 2117.31,-524.6 2117.31,-493.8 1797.52,-493.8"/>
<text text-anchor="start" x="1804.52" y="-506" font-family="Arial" font-size="14.00">recdatemodified </text>
<text text-anchor="start" x="1908.02" y="-506" font-family="Arial" font-size="14.00" fill="#666666">[timestamp(0) without time zone]</text>
<polygon fill="none" stroke="black" points="1797.52,-463 1797.52,-493.8 2117.31,-493.8 2117.31,-463 1797.52,-463"/>
<text text-anchor="start" x="1804.52" y="-475.2" font-family="Arial" font-size="14.00">sampledate </text>
<text text-anchor="start" x="1880.78" y="-475.2" font-family="Arial" font-size="14.00" fill="#666666">[date]</text>
<polygon fill="none" stroke="black" points="1797.52,-432.2 1797.52,-463 2117.31,-463 2117.31,-432.2 1797.52,-432.2"/>
<text text-anchor="start" x="1804.52" y="-444.4" font-family="Arial" font-size="14.00">sampleid </text>
<text text-anchor="start" x="1864.43" y="-444.4" font-family="Arial" font-size="14.00" fill="#666666">[integer]</text>
<polygon fill="none" stroke="black" points="1797.52,-401.4 1797.52,-432.2 2117.31,-432.2 2117.31,-401.4 1797.52,-401.4"/>
<text text-anchor="start" x="1804.52" y="-413.6" font-family="Arial" font-size="14.00">samplename </text>
<text text-anchor="start" x="1888.56" y="-413.6" font-family="Arial" font-size="14.00" fill="#666666">[varchar(80)]</text>
<polygon fill="none" stroke="black" points="1797.52,-370.6 1797.52,-401.4 2117.31,-401.4 2117.31,-370.6 1797.52,-370.6"/>
<text text-anchor="start" x="1804.52" y="-382.8" font-family="Arial" font-size="14.00">taxonid </text>
<text text-anchor="start" x="1853.55" y="-382.8" font-family="Arial" font-size="14.00" fill="#666666">[integer]</text>
</g>
<!-- ndb.sampleages&#45;&gt;ndb.samples -->
<g id="edge9" class="edge">
<title>ndb.sampleages:sampleid&#45;&gt;ndb.samples:sampleid</title>
<path fill="none" stroke="black" d="M1773.4,-958.24C1865.13,-927.32 1686.13,-447.6 1796.52,-447.6"/>
<polygon fill="black" stroke="black" points="1773.53,-958.22 1762.96,-955.3 1768.26,-959.03 1763.98,-959.7 1763.98,-959.7 1763.98,-959.7 1768.26,-959.03 1764.33,-964.2 1773.53,-958.22"/>
<text text-anchor="start" x="1770.31" y="-969.8" font-family="Arial" font-size="10.00">FOREIGN KEY (sampleid) REFERENCES ndb.samples(sampleid) ON UPDATE CASCADE ON DELETE CASCADE</text>
</g>
</g>
</svg>
