<?xml version="1.0" encoding="UTF-8" standalone="no"?>
<!DOCTYPE svg PUBLIC "-//W3C//DTD SVG 1.1//EN"
 "http://www.w3.org/Graphics/SVG/1.1/DTD/svg11.dtd">
<!-- Generated by graphviz version 12.1.2 (20240928.0832)
 -->
<!-- Title: ndb.lithology Pages: 1 -->
<svg width="2914pt" height="1863pt"
 viewBox="0.00 0.00 2914.16 1862.80" xmlns="http://www.w3.org/2000/svg" xmlns:xlink="http://www.w3.org/1999/xlink">
<g id="graph0" class="graph" transform="scale(1 1) rotate(0) translate(4 1858.8)">
<title>ndb.lithology</title>
<polygon fill="white" stroke="none" points="-4,4 -4,-1858.8 2910.16,-1858.8 2910.16,4 -4,4"/>
<!-- ndb.lithology -->
<g id="node1" class="node">
<title>ndb.lithology</title>
<polygon fill="#efefef" stroke="none" points="287.83,-1699 287.83,-1734.6 607.63,-1734.6 607.63,-1699 287.83,-1699"/>
<polygon fill="none" stroke="black" points="287.83,-1699 287.83,-1734.6 607.63,-1734.6 607.63,-1699 287.83,-1699"/>
<text text-anchor="start" x="337.24" y="-1712.4" font-family="Arial Bold" font-size="18.00">ndb.lithology</text>
<text text-anchor="start" x="433.74" y="-1712.4" font-family="Arial" font-size="14.00">    </text>
<text text-anchor="start" x="464.86" y="-1712.4" font-family="Arial" font-size="14.00" fill="#666666">[BASE TABLE]</text>
<polygon fill="none" stroke="black" points="287.83,-1668.2 287.83,-1699 607.63,-1699 607.63,-1668.2 287.83,-1668.2"/>
<text text-anchor="start" x="294.83" y="-1680.4" font-family="Arial" font-size="14.00">collectionunitid </text>
<text text-anchor="start" x="390.56" y="-1680.4" font-family="Arial" font-size="14.00" fill="#666666">[integer]</text>
<polygon fill="none" stroke="black" points="287.83,-1637.4 287.83,-1668.2 607.63,-1668.2 607.63,-1637.4 287.83,-1637.4"/>
<text text-anchor="start" x="294.83" y="-1649.6" font-family="Arial" font-size="14.00">depthbottom </text>
<text text-anchor="start" x="376.56" y="-1649.6" font-family="Arial" font-size="14.00" fill="#666666">[double precision]</text>
<polygon fill="none" stroke="black" points="287.83,-1606.6 287.83,-1637.4 607.63,-1637.4 607.63,-1606.6 287.83,-1606.6"/>
<text text-anchor="start" x="294.83" y="-1618.8" font-family="Arial" font-size="14.00">depthtop </text>
<text text-anchor="start" x="353.22" y="-1618.8" font-family="Arial" font-size="14.00" fill="#666666">[double precision]</text>
<polygon fill="none" stroke="black" points="287.83,-1575.8 287.83,-1606.6 607.63,-1606.6 607.63,-1575.8 287.83,-1575.8"/>
<text text-anchor="start" x="294.83" y="-1588" font-family="Arial" font-size="14.00">description </text>
<text text-anchor="start" x="366.43" y="-1588" font-family="Arial" font-size="14.00" fill="#666666">[text]</text>
<polygon fill="none" stroke="black" points="287.83,-1545 287.83,-1575.8 607.63,-1575.8 607.63,-1545 287.83,-1545"/>
<text text-anchor="start" x="294.83" y="-1557.2" font-family="Arial" font-size="14.00">lithologyid </text>
<text text-anchor="start" x="360.99" y="-1557.2" font-family="Arial" font-size="14.00" fill="#666666">[integer]</text>
<polygon fill="none" stroke="black" points="287.83,-1514.2 287.83,-1545 607.63,-1545 607.63,-1514.2 287.83,-1514.2"/>
<text text-anchor="start" x="294.83" y="-1526.4" font-family="Arial" font-size="14.00">lowerboundary </text>
<text text-anchor="start" x="390.56" y="-1526.4" font-family="Arial" font-size="14.00" fill="#666666">[varchar(255)]</text>
<polygon fill="none" stroke="black" points="287.83,-1483.4 287.83,-1514.2 607.63,-1514.2 607.63,-1483.4 287.83,-1483.4"/>
<text text-anchor="start" x="294.83" y="-1495.6" font-family="Arial" font-size="14.00">recdatecreated </text>
<text text-anchor="start" x="392.12" y="-1495.6" font-family="Arial" font-size="14.00" fill="#666666">[timestamp(0) without time zone]</text>
<polygon fill="none" stroke="black" points="287.83,-1452.6 287.83,-1483.4 607.63,-1483.4 607.63,-1452.6 287.83,-1452.6"/>
<text text-anchor="start" x="294.83" y="-1464.8" font-family="Arial" font-size="14.00">recdatemodified </text>
<text text-anchor="start" x="398.34" y="-1464.8" font-family="Arial" font-size="14.00" fill="#666666">[timestamp(0) without time zone]</text>
<polygon fill="none" stroke="black" stroke-width="3" points="286.33,-1451.1 286.33,-1736.1 609.13,-1736.1 609.13,-1451.1 286.33,-1451.1"/>
</g>
<!-- ndb.collectionunits -->
<g id="node2" class="node">
<title>ndb.collectionunits</title>
<polygon fill="#efefef" stroke="none" points="1350.83,-1217.6 1350.83,-1253.2 1670.63,-1253.2 1670.63,-1217.6 1350.83,-1217.6"/>
<polygon fill="none" stroke="black" points="1350.83,-1217.6 1350.83,-1253.2 1670.63,-1253.2 1670.63,-1217.6 1350.83,-1217.6"/>
<text text-anchor="start" x="1379.75" y="-1231" font-family="Arial Bold" font-size="18.00">ndb.collectionunits</text>
<text text-anchor="start" x="1517.23" y="-1231" font-family="Arial" font-size="14.00">    </text>
<text text-anchor="start" x="1548.35" y="-1231" font-family="Arial" font-size="14.00" fill="#666666">[BASE TABLE]</text>
<polygon fill="none" stroke="black" points="1350.83,-1186.8 1350.83,-1217.6 1670.63,-1217.6 1670.63,-1186.8 1350.83,-1186.8"/>
<text text-anchor="start" x="1357.83" y="-1199" font-family="Arial" font-size="14.00">colldate </text>
<text text-anchor="start" x="1409.98" y="-1199" font-family="Arial" font-size="14.00" fill="#666666">[date]</text>
<polygon fill="none" stroke="black" points="1350.83,-1156 1350.83,-1186.8 1670.63,-1186.8 1670.63,-1156 1350.83,-1156"/>
<text text-anchor="start" x="1357.83" y="-1168.2" font-family="Arial" font-size="14.00">colldevice </text>
<text text-anchor="start" x="1423.2" y="-1168.2" font-family="Arial" font-size="14.00" fill="#666666">[varchar(255)]</text>
<polygon fill="none" stroke="black" points="1350.83,-1125.2 1350.83,-1156 1670.63,-1156 1670.63,-1125.2 1350.83,-1125.2"/>
<text text-anchor="start" x="1357.83" y="-1137.4" font-family="Arial" font-size="14.00">collectionunitid </text>
<text text-anchor="start" x="1453.56" y="-1137.4" font-family="Arial" font-size="14.00" fill="#666666">[integer]</text>
<polygon fill="none" stroke="black" points="1350.83,-1094.4 1350.83,-1125.2 1670.63,-1125.2 1670.63,-1094.4 1350.83,-1094.4"/>
<text text-anchor="start" x="1357.83" y="-1106.6" font-family="Arial" font-size="14.00">colltypeid </text>
<text text-anchor="start" x="1420.09" y="-1106.6" font-family="Arial" font-size="14.00" fill="#666666">[integer]</text>
<polygon fill="none" stroke="black" points="1350.83,-1063.6 1350.83,-1094.4 1670.63,-1094.4 1670.63,-1063.6 1350.83,-1063.6"/>
<text text-anchor="start" x="1357.83" y="-1075.8" font-family="Arial" font-size="14.00">collunitname </text>
<text text-anchor="start" x="1440.32" y="-1075.8" font-family="Arial" font-size="14.00" fill="#666666">[varchar(255)]</text>
<polygon fill="none" stroke="black" points="1350.83,-1032.8 1350.83,-1063.6 1670.63,-1063.6 1670.63,-1032.8 1350.83,-1032.8"/>
<text text-anchor="start" x="1357.83" y="-1045" font-family="Arial" font-size="14.00">depenvtid </text>
<text text-anchor="start" x="1422.44" y="-1045" font-family="Arial" font-size="14.00" fill="#666666">[integer]</text>
<polygon fill="none" stroke="black" points="1350.83,-1002 1350.83,-1032.8 1670.63,-1032.8 1670.63,-1002 1350.83,-1002"/>
<text text-anchor="start" x="1357.83" y="-1014.2" font-family="Arial" font-size="14.00">gpsaltitude </text>
<text text-anchor="start" x="1429.44" y="-1014.2" font-family="Arial" font-size="14.00" fill="#666666">[double precision]</text>
<polygon fill="none" stroke="black" points="1350.83,-971.2 1350.83,-1002 1670.63,-1002 1670.63,-971.2 1350.83,-971.2"/>
<text text-anchor="start" x="1357.83" y="-983.4" font-family="Arial" font-size="14.00">gpserror </text>
<text text-anchor="start" x="1413.86" y="-983.4" font-family="Arial" font-size="14.00" fill="#666666">[double precision]</text>
<polygon fill="none" stroke="black" points="1350.83,-940.4 1350.83,-971.2 1670.63,-971.2 1670.63,-940.4 1350.83,-940.4"/>
<text text-anchor="start" x="1357.83" y="-952.6" font-family="Arial" font-size="14.00">gpslatitude </text>
<text text-anchor="start" x="1429.44" y="-952.6" font-family="Arial" font-size="14.00" fill="#666666">[double precision]</text>
<polygon fill="none" stroke="black" points="1350.83,-909.6 1350.83,-940.4 1670.63,-940.4 1670.63,-909.6 1350.83,-909.6"/>
<text text-anchor="start" x="1357.83" y="-921.8" font-family="Arial" font-size="14.00">gpslongitude </text>
<text text-anchor="start" x="1441.12" y="-921.8" font-family="Arial" font-size="14.00" fill="#666666">[double precision]</text>
<polygon fill="none" stroke="black" points="1350.83,-878.8 1350.83,-909.6 1670.63,-909.6 1670.63,-878.8 1350.83,-878.8"/>
<text text-anchor="start" x="1357.83" y="-891" font-family="Arial" font-size="14.00">handle </text>
<text text-anchor="start" x="1403.77" y="-891" font-family="Arial" font-size="14.00" fill="#666666">[varchar(16)]</text>
<polygon fill="none" stroke="black" points="1350.83,-848 1350.83,-878.8 1670.63,-878.8 1670.63,-848 1350.83,-848"/>
<text text-anchor="start" x="1357.83" y="-860.2" font-family="Arial" font-size="14.00">location </text>
<text text-anchor="start" x="1409.98" y="-860.2" font-family="Arial" font-size="14.00" fill="#666666">[varchar(255)]</text>
<polygon fill="none" stroke="black" points="1350.83,-817.2 1350.83,-848 1670.63,-848 1670.63,-817.2 1350.83,-817.2"/>
<text text-anchor="start" x="1357.83" y="-829.4" font-family="Arial" font-size="14.00">notes </text>
<text text-anchor="start" x="1395.97" y="-829.4" font-family="Arial" font-size="14.00" fill="#666666">[text]</text>
<polygon fill="none" stroke="black" points="1350.83,-786.4 1350.83,-817.2 1670.63,-817.2 1670.63,-786.4 1350.83,-786.4"/>
<text text-anchor="start" x="1357.83" y="-798.6" font-family="Arial" font-size="14.00">recdatecreated </text>
<text text-anchor="start" x="1455.12" y="-798.6" font-family="Arial" font-size="14.00" fill="#666666">[timestamp(0) without time zone]</text>
<polygon fill="none" stroke="black" points="1350.83,-755.6 1350.83,-786.4 1670.63,-786.4 1670.63,-755.6 1350.83,-755.6"/>
<text text-anchor="start" x="1357.83" y="-767.8" font-family="Arial" font-size="14.00">recdatemodified </text>
<text text-anchor="start" x="1461.34" y="-767.8" font-family="Arial" font-size="14.00" fill="#666666">[timestamp(0) without time zone]</text>
<polygon fill="none" stroke="black" points="1350.83,-724.8 1350.83,-755.6 1670.63,-755.6 1670.63,-724.8 1350.83,-724.8"/>
<text text-anchor="start" x="1357.83" y="-737" font-family="Arial" font-size="14.00">siteid </text>
<text text-anchor="start" x="1394.41" y="-737" font-family="Arial" font-size="14.00" fill="#666666">[integer]</text>
<polygon fill="none" stroke="black" points="1350.83,-694 1350.83,-724.8 1670.63,-724.8 1670.63,-694 1350.83,-694"/>
<text text-anchor="start" x="1357.83" y="-706.2" font-family="Arial" font-size="14.00">slopeangle </text>
<text text-anchor="start" x="1429.45" y="-706.2" font-family="Arial" font-size="14.00" fill="#666666">[integer]</text>
<polygon fill="none" stroke="black" points="1350.83,-663.2 1350.83,-694 1670.63,-694 1670.63,-663.2 1350.83,-663.2"/>
<text text-anchor="start" x="1357.83" y="-675.4" font-family="Arial" font-size="14.00">slopeaspect </text>
<text text-anchor="start" x="1436.44" y="-675.4" font-family="Arial" font-size="14.00" fill="#666666">[integer]</text>
<polygon fill="none" stroke="black" points="1350.83,-632.4 1350.83,-663.2 1670.63,-663.2 1670.63,-632.4 1350.83,-632.4"/>
<text text-anchor="start" x="1357.83" y="-644.6" font-family="Arial" font-size="14.00">substrateid </text>
<text text-anchor="start" x="1430.21" y="-644.6" font-family="Arial" font-size="14.00" fill="#666666">[integer]</text>
<polygon fill="none" stroke="black" points="1350.83,-601.6 1350.83,-632.4 1670.63,-632.4 1670.63,-601.6 1350.83,-601.6"/>
<text text-anchor="start" x="1357.83" y="-613.8" font-family="Arial" font-size="14.00">waterdepth </text>
<text text-anchor="start" x="1430.99" y="-613.8" font-family="Arial" font-size="14.00" fill="#666666">[double precision]</text>
</g>
<!-- ndb.lithology&#45;&gt;ndb.collectionunits -->
<g id="edge1" class="edge">
<title>ndb.lithology:collectionunitid&#45;&gt;ndb.collectionunits:collectionunitid</title>
<path fill="none" stroke="black" d="M618.74,-1681.73C680.64,-1656.72 612.78,-1388.7 662.73,-1332.4 767.94,-1213.82 1191.31,-1140.6 1349.83,-1140.6"/>
<polygon fill="black" stroke="black" points="618.8,-1681.72 608.14,-1679.11 613.55,-1682.69 609.29,-1683.48 609.29,-1683.48 609.29,-1683.48 613.55,-1682.69 609.78,-1687.96 618.8,-1681.72"/>
<text text-anchor="start" x="7" y="-1693.6" font-family="Arial" font-size="10.00">FOREIGN KEY (collectionunitid) REFERENCES ndb.collectionunits(collectionunitid) ON UPDATE CASCADE ON DELETE CASCADE</text>
</g>
<!-- ndb.collectiontypes -->
<g id="node8" class="node">
<title>ndb.collectiontypes</title>
<polygon fill="#efefef" stroke="none" points="714.83,-305 714.83,-340.6 1034.63,-340.6 1034.63,-305 714.83,-305"/>
<polygon fill="none" stroke="black" points="714.83,-305 714.83,-340.6 1034.63,-340.6 1034.63,-305 714.83,-305"/>
<text text-anchor="start" x="742.26" y="-318.4" font-family="Arial Bold" font-size="18.00">ndb.collectiontypes</text>
<text text-anchor="start" x="882.72" y="-318.4" font-family="Arial" font-size="14.00">    </text>
<text text-anchor="start" x="913.84" y="-318.4" font-family="Arial" font-size="14.00" fill="#666666">[BASE TABLE]</text>
<polygon fill="none" stroke="black" points="714.83,-274.2 714.83,-305 1034.63,-305 1034.63,-274.2 714.83,-274.2"/>
<text text-anchor="start" x="721.83" y="-286.4" font-family="Arial" font-size="14.00">colltype </text>
<text text-anchor="start" x="773.19" y="-286.4" font-family="Arial" font-size="14.00" fill="#666666">[varchar(64)]</text>
<polygon fill="none" stroke="black" points="714.83,-243.4 714.83,-274.2 1034.63,-274.2 1034.63,-243.4 714.83,-243.4"/>
<text text-anchor="start" x="721.83" y="-255.6" font-family="Arial" font-size="14.00">colltypeid </text>
<text text-anchor="start" x="784.09" y="-255.6" font-family="Arial" font-size="14.00" fill="#666666">[integer]</text>
<polygon fill="none" stroke="black" points="714.83,-212.6 714.83,-243.4 1034.63,-243.4 1034.63,-212.6 714.83,-212.6"/>
<text text-anchor="start" x="721.83" y="-224.8" font-family="Arial" font-size="14.00">recdatecreated </text>
<text text-anchor="start" x="819.12" y="-224.8" font-family="Arial" font-size="14.00" fill="#666666">[timestamp(0) without time zone]</text>
<polygon fill="none" stroke="black" points="714.83,-181.8 714.83,-212.6 1034.63,-212.6 1034.63,-181.8 714.83,-181.8"/>
<text text-anchor="start" x="721.83" y="-194" font-family="Arial" font-size="14.00">recdatemodified </text>
<text text-anchor="start" x="825.34" y="-194" font-family="Arial" font-size="14.00" fill="#666666">[timestamp(0) without time zone]</text>
</g>
<!-- ndb.collectionunits&#45;&gt;ndb.collectiontypes -->
<g id="edge7" class="edge">
<title>ndb.collectionunits:colltypeid&#45;&gt;ndb.collectiontypes:colltypeid</title>
<path fill="none" stroke="black" d="M1339.53,-1109.66C1066.41,-1102.12 1171.94,-791.81 1086.73,-522.4 1068.74,-465.51 1095.3,-258.8 1035.63,-258.8"/>
<polygon fill="black" stroke="black" points="1339.5,-1109.66 1349.44,-1114.3 1344.84,-1109.73 1349.17,-1109.79 1349.17,-1109.79 1349.17,-1109.79 1344.84,-1109.73 1349.56,-1105.3 1339.5,-1109.66"/>
<text text-anchor="start" x="793.24" y="-1119.8" font-family="Arial" font-size="10.00">FOREIGN KEY (colltypeid) REFERENCES ndb.collectiontypes(colltypeid) ON UPDATE CASCADE ON DELETE CASCADE</text>
</g>
<!-- ndb.depenvttypes -->
<g id="node9" class="node">
<title>ndb.depenvttypes</title>
<polygon fill="#efefef" stroke="none" points="1138.83,-320.4 1138.83,-356 1458.63,-356 1458.63,-320.4 1138.83,-320.4"/>
<polygon fill="none" stroke="black" points="1138.83,-320.4 1138.83,-356 1458.63,-356 1458.63,-320.4 1138.83,-320.4"/>
<text text-anchor="start" x="1173.25" y="-333.8" font-family="Arial Bold" font-size="18.00">ndb.depenvttypes</text>
<text text-anchor="start" x="1299.73" y="-333.8" font-family="Arial" font-size="14.00">    </text>
<text text-anchor="start" x="1330.84" y="-333.8" font-family="Arial" font-size="14.00" fill="#666666">[BASE TABLE]</text>
<polygon fill="none" stroke="black" points="1138.83,-289.6 1138.83,-320.4 1458.63,-320.4 1458.63,-289.6 1138.83,-289.6"/>
<text text-anchor="start" x="1145.83" y="-301.8" font-family="Arial" font-size="14.00">depenvt </text>
<text text-anchor="start" x="1199.54" y="-301.8" font-family="Arial" font-size="14.00" fill="#666666">[varchar(255)]</text>
<polygon fill="none" stroke="black" points="1138.83,-258.8 1138.83,-289.6 1458.63,-289.6 1458.63,-258.8 1138.83,-258.8"/>
<text text-anchor="start" x="1145.83" y="-271" font-family="Arial" font-size="14.00">depenvthigherid </text>
<text text-anchor="start" x="1249.36" y="-271" font-family="Arial" font-size="14.00" fill="#666666">[integer]</text>
<polygon fill="none" stroke="black" points="1138.83,-228 1138.83,-258.8 1458.63,-258.8 1458.63,-228 1138.83,-228"/>
<text text-anchor="start" x="1145.83" y="-240.2" font-family="Arial" font-size="14.00">depenvtid </text>
<text text-anchor="start" x="1210.44" y="-240.2" font-family="Arial" font-size="14.00" fill="#666666">[integer]</text>
<polygon fill="none" stroke="black" points="1138.83,-197.2 1138.83,-228 1458.63,-228 1458.63,-197.2 1138.83,-197.2"/>
<text text-anchor="start" x="1145.83" y="-209.4" font-family="Arial" font-size="14.00">recdatecreated </text>
<text text-anchor="start" x="1243.12" y="-209.4" font-family="Arial" font-size="14.00" fill="#666666">[timestamp(0) without time zone]</text>
<polygon fill="none" stroke="black" points="1138.83,-166.4 1138.83,-197.2 1458.63,-197.2 1458.63,-166.4 1138.83,-166.4"/>
<text text-anchor="start" x="1145.83" y="-178.6" font-family="Arial" font-size="14.00">recdatemodified </text>
<text text-anchor="start" x="1249.34" y="-178.6" font-family="Arial" font-size="14.00" fill="#666666">[timestamp(0) without time zone]</text>
</g>
<!-- ndb.collectionunits&#45;&gt;ndb.depenvttypes -->
<g id="edge8" class="edge">
<title>ndb.collectionunits:depenvtid&#45;&gt;ndb.depenvttypes:depenvtid</title>
<path fill="none" stroke="black" d="M1339.6,-1047.98C1137.11,-1039.14 1287.82,-763.1 1350.83,-558.4 1375.98,-476.73 1433.31,-480.81 1458.63,-399.2 1479.15,-333.06 1528.88,-243.4 1459.63,-243.4"/>
<polygon fill="black" stroke="black" points="1339.5,-1047.98 1349.4,-1052.69 1344.84,-1048.09 1349.17,-1048.19 1349.17,-1048.19 1349.17,-1048.19 1344.84,-1048.09 1349.6,-1043.69 1339.5,-1047.98"/>
<text text-anchor="start" x="795.98" y="-1058.2" font-family="Arial" font-size="10.00">FOREIGN KEY (depenvtid) REFERENCES ndb.depenvttypes(depenvtid) ON UPDATE CASCADE ON DELETE CASCADE</text>
</g>
<!-- ndb.sites -->
<g id="node10" class="node">
<title>ndb.sites</title>
<polygon fill="#efefef" stroke="none" points="1562.83,-443.6 1562.83,-479.2 1882.63,-479.2 1882.63,-443.6 1562.83,-443.6"/>
<polygon fill="none" stroke="black" points="1562.83,-443.6 1562.83,-479.2 1882.63,-479.2 1882.63,-443.6 1562.83,-443.6"/>
<text text-anchor="start" x="1628.74" y="-457" font-family="Arial Bold" font-size="18.00">ndb.sites</text>
<text text-anchor="start" x="1692.24" y="-457" font-family="Arial" font-size="14.00">    </text>
<text text-anchor="start" x="1723.36" y="-457" font-family="Arial" font-size="14.00" fill="#666666">[BASE TABLE]</text>
<polygon fill="none" stroke="black" points="1562.83,-412.8 1562.83,-443.6 1882.63,-443.6 1882.63,-412.8 1562.83,-412.8"/>
<text text-anchor="start" x="1569.83" y="-425" font-family="Arial" font-size="14.00">altitude </text>
<text text-anchor="start" x="1618.87" y="-425" font-family="Arial" font-size="14.00" fill="#666666">[double precision]</text>
<polygon fill="none" stroke="black" points="1562.83,-382 1562.83,-412.8 1882.63,-412.8 1882.63,-382 1562.83,-382"/>
<text text-anchor="start" x="1569.83" y="-394.2" font-family="Arial" font-size="14.00">area </text>
<text text-anchor="start" x="1601.75" y="-394.2" font-family="Arial" font-size="14.00" fill="#666666">[double precision]</text>
<polygon fill="none" stroke="black" points="1562.83,-351.2 1562.83,-382 1882.63,-382 1882.63,-351.2 1562.83,-351.2"/>
<text text-anchor="start" x="1569.83" y="-363.4" font-family="Arial" font-size="14.00">geog </text>
<text text-anchor="start" x="1604.87" y="-363.4" font-family="Arial" font-size="14.00" fill="#666666">[geography]</text>
<polygon fill="none" stroke="black" points="1562.83,-320.4 1562.83,-351.2 1882.63,-351.2 1882.63,-320.4 1562.83,-320.4"/>
<text text-anchor="start" x="1569.83" y="-332.6" font-family="Arial" font-size="14.00">latitudenorth </text>
<text text-anchor="start" x="1650.78" y="-332.6" font-family="Arial" font-size="14.00" fill="#666666">[double precision]</text>
<polygon fill="none" stroke="black" points="1562.83,-289.6 1562.83,-320.4 1882.63,-320.4 1882.63,-289.6 1562.83,-289.6"/>
<text text-anchor="start" x="1569.83" y="-301.8" font-family="Arial" font-size="14.00">latitudesouth </text>
<text text-anchor="start" x="1653.12" y="-301.8" font-family="Arial" font-size="14.00" fill="#666666">[double precision]</text>
<polygon fill="none" stroke="black" points="1562.83,-258.8 1562.83,-289.6 1882.63,-289.6 1882.63,-258.8 1562.83,-258.8"/>
<text text-anchor="start" x="1569.83" y="-271" font-family="Arial" font-size="14.00">longitudeeast </text>
<text text-anchor="start" x="1657.01" y="-271" font-family="Arial" font-size="14.00" fill="#666666">[double precision]</text>
<polygon fill="none" stroke="black" points="1562.83,-228 1562.83,-258.8 1882.63,-258.8 1882.63,-228 1562.83,-228"/>
<text text-anchor="start" x="1569.83" y="-240.2" font-family="Arial" font-size="14.00">longitudewest </text>
<text text-anchor="start" x="1659.34" y="-240.2" font-family="Arial" font-size="14.00" fill="#666666">[double precision]</text>
<polygon fill="none" stroke="black" points="1562.83,-197.2 1562.83,-228 1882.63,-228 1882.63,-197.2 1562.83,-197.2"/>
<text text-anchor="start" x="1569.83" y="-209.4" font-family="Arial" font-size="14.00">notes </text>
<text text-anchor="start" x="1607.97" y="-209.4" font-family="Arial" font-size="14.00" fill="#666666">[text]</text>
<polygon fill="none" stroke="black" points="1562.83,-166.4 1562.83,-197.2 1882.63,-197.2 1882.63,-166.4 1562.83,-166.4"/>
<text text-anchor="start" x="1569.83" y="-178.6" font-family="Arial" font-size="14.00">recdatecreated </text>
<text text-anchor="start" x="1667.12" y="-178.6" font-family="Arial" font-size="14.00" fill="#666666">[timestamp(0) without time zone]</text>
<polygon fill="none" stroke="black" points="1562.83,-135.6 1562.83,-166.4 1882.63,-166.4 1882.63,-135.6 1562.83,-135.6"/>
<text text-anchor="start" x="1569.83" y="-147.8" font-family="Arial" font-size="14.00">recdatemodified </text>
<text text-anchor="start" x="1673.34" y="-147.8" font-family="Arial" font-size="14.00" fill="#666666">[timestamp(0) without time zone]</text>
<polygon fill="none" stroke="black" points="1562.83,-104.8 1562.83,-135.6 1882.63,-135.6 1882.63,-104.8 1562.83,-104.8"/>
<text text-anchor="start" x="1569.83" y="-117" font-family="Arial" font-size="14.00">sitedescription </text>
<text text-anchor="start" x="1663.21" y="-117" font-family="Arial" font-size="14.00" fill="#666666">[text]</text>
<polygon fill="none" stroke="black" points="1562.83,-74 1562.83,-104.8 1882.63,-104.8 1882.63,-74 1562.83,-74"/>
<text text-anchor="start" x="1569.83" y="-86.2" font-family="Arial" font-size="14.00">siteid </text>
<text text-anchor="start" x="1606.41" y="-86.2" font-family="Arial" font-size="14.00" fill="#666666">[integer]</text>
<polygon fill="none" stroke="black" points="1562.83,-43.2 1562.83,-74 1882.63,-74 1882.63,-43.2 1562.83,-43.2"/>
<text text-anchor="start" x="1569.83" y="-55.4" font-family="Arial" font-size="14.00">sitename </text>
<text text-anchor="start" x="1630.53" y="-55.4" font-family="Arial" font-size="14.00" fill="#666666">[varchar(128)]</text>
</g>
<!-- ndb.collectionunits&#45;&gt;ndb.sites -->
<g id="edge9" class="edge">
<title>ndb.collectionunits:siteid&#45;&gt;ndb.sites:siteid</title>
<path fill="none" stroke="black" d="M1681.83,-739.51C1749.32,-729.85 1715.91,-620.89 1670.63,-558.4 1641,-517.5 1592.41,-563.35 1562.83,-522.4 1534.67,-483.39 1513.72,-89.4 1561.83,-89.4"/>
<polygon fill="black" stroke="black" points="1681.94,-739.5 1671.66,-735.69 1676.62,-739.86 1672.3,-740.15 1672.3,-740.15 1672.3,-740.15 1676.62,-739.86 1672.27,-744.67 1681.94,-739.5"/>
<text text-anchor="start" x="1678.63" y="-750.2" font-family="Arial" font-size="10.00">FOREIGN KEY (siteid) REFERENCES ndb.sites(siteid) ON UPDATE CASCADE ON DELETE CASCADE</text>
</g>
<!-- ndb.rocktypes -->
<g id="node11" class="node">
<title>ndb.rocktypes</title>
<polygon fill="#efefef" stroke="none" points="1986.83,-335.8 1986.83,-371.4 2306.63,-371.4 2306.63,-335.8 1986.83,-335.8"/>
<polygon fill="none" stroke="black" points="1986.83,-335.8 1986.83,-371.4 2306.63,-371.4 2306.63,-335.8 1986.83,-335.8"/>
<text text-anchor="start" x="2033.75" y="-349.2" font-family="Arial Bold" font-size="18.00">ndb.rocktypes</text>
<text text-anchor="start" x="2135.23" y="-349.2" font-family="Arial" font-size="14.00">    </text>
<text text-anchor="start" x="2166.35" y="-349.2" font-family="Arial" font-size="14.00" fill="#666666">[BASE TABLE]</text>
<polygon fill="none" stroke="black" points="1986.83,-305 1986.83,-335.8 2306.63,-335.8 2306.63,-305 1986.83,-305"/>
<text text-anchor="start" x="1993.83" y="-317.2" font-family="Arial" font-size="14.00">description </text>
<text text-anchor="start" x="2065.43" y="-317.2" font-family="Arial" font-size="14.00" fill="#666666">[text]</text>
<polygon fill="none" stroke="black" points="1986.83,-274.2 1986.83,-305 2306.63,-305 2306.63,-274.2 1986.83,-274.2"/>
<text text-anchor="start" x="1993.83" y="-286.4" font-family="Arial" font-size="14.00">higherrocktypeid </text>
<text text-anchor="start" x="2100.45" y="-286.4" font-family="Arial" font-size="14.00" fill="#666666">[integer]</text>
<polygon fill="none" stroke="black" points="1986.83,-243.4 1986.83,-274.2 2306.63,-274.2 2306.63,-243.4 1986.83,-243.4"/>
<text text-anchor="start" x="1993.83" y="-255.6" font-family="Arial" font-size="14.00">recdatecreated </text>
<text text-anchor="start" x="2091.12" y="-255.6" font-family="Arial" font-size="14.00" fill="#666666">[timestamp(0) without time zone]</text>
<polygon fill="none" stroke="black" points="1986.83,-212.6 1986.83,-243.4 2306.63,-243.4 2306.63,-212.6 1986.83,-212.6"/>
<text text-anchor="start" x="1993.83" y="-224.8" font-family="Arial" font-size="14.00">recdatemodified </text>
<text text-anchor="start" x="2097.34" y="-224.8" font-family="Arial" font-size="14.00" fill="#666666">[timestamp(0) without time zone]</text>
<polygon fill="none" stroke="black" points="1986.83,-181.8 1986.83,-212.6 2306.63,-212.6 2306.63,-181.8 1986.83,-181.8"/>
<text text-anchor="start" x="1993.83" y="-194" font-family="Arial" font-size="14.00">rocktype </text>
<text text-anchor="start" x="2050.63" y="-194" font-family="Arial" font-size="14.00" fill="#666666">[varchar(64)]</text>
<polygon fill="none" stroke="black" points="1986.83,-151 1986.83,-181.8 2306.63,-181.8 2306.63,-151 1986.83,-151"/>
<text text-anchor="start" x="1993.83" y="-163.2" font-family="Arial" font-size="14.00">rocktypeid </text>
<text text-anchor="start" x="2061.53" y="-163.2" font-family="Arial" font-size="14.00" fill="#666666">[integer]</text>
</g>
<!-- ndb.collectionunits&#45;&gt;ndb.rocktypes -->
<g id="edge10" class="edge">
<title>ndb.collectionunits:substrateid&#45;&gt;ndb.rocktypes:rocktypeid</title>
<path fill="none" stroke="black" d="M1681.73,-647.75C1804.18,-646.63 1859.99,-623.99 1934.73,-522.4 1982.1,-458.02 1905.91,-166.4 1985.83,-166.4"/>
<polygon fill="black" stroke="black" points="1681.97,-647.75 1671.95,-643.3 1676.63,-647.78 1672.3,-647.8 1672.3,-647.8 1672.3,-647.8 1676.63,-647.78 1671.99,-652.3 1681.97,-647.75"/>
<text text-anchor="start" x="1678.63" y="-657.8" font-family="Arial" font-size="10.00">FOREIGN KEY (substrateid) REFERENCES ndb.rocktypes(rocktypeid) ON UPDATE CASCADE ON DELETE CASCADE</text>
</g>
<!-- ndb.analysisunits -->
<g id="node3" class="node">
<title>ndb.analysisunits</title>
<polygon fill="#efefef" stroke="none" points="714.83,-1745.2 714.83,-1780.8 1034.63,-1780.8 1034.63,-1745.2 714.83,-1745.2"/>
<polygon fill="none" stroke="black" points="714.83,-1745.2 714.83,-1780.8 1034.63,-1780.8 1034.63,-1745.2 714.83,-1745.2"/>
<text text-anchor="start" x="750.24" y="-1758.6" font-family="Arial Bold" font-size="18.00">ndb.analysisunits</text>
<text text-anchor="start" x="874.74" y="-1758.6" font-family="Arial" font-size="14.00">    </text>
<text text-anchor="start" x="905.86" y="-1758.6" font-family="Arial" font-size="14.00" fill="#666666">[BASE TABLE]</text>
<polygon fill="none" stroke="black" points="714.83,-1714.4 714.83,-1745.2 1034.63,-1745.2 1034.63,-1714.4 714.83,-1714.4"/>
<text text-anchor="start" x="721.83" y="-1726.6" font-family="Arial" font-size="14.00">analysisunitid </text>
<text text-anchor="start" x="809.77" y="-1726.6" font-family="Arial" font-size="14.00" fill="#666666">[integer]</text>
<polygon fill="none" stroke="black" points="714.83,-1683.6 714.83,-1714.4 1034.63,-1714.4 1034.63,-1683.6 714.83,-1683.6"/>
<text text-anchor="start" x="721.83" y="-1695.8" font-family="Arial" font-size="14.00">analysisunitname </text>
<text text-anchor="start" x="833.9" y="-1695.8" font-family="Arial" font-size="14.00" fill="#666666">[varchar(80)]</text>
<polygon fill="none" stroke="black" points="714.83,-1652.8 714.83,-1683.6 1034.63,-1683.6 1034.63,-1652.8 714.83,-1652.8"/>
<text text-anchor="start" x="721.83" y="-1665" font-family="Arial" font-size="14.00">collectionunitid </text>
<text text-anchor="start" x="817.56" y="-1665" font-family="Arial" font-size="14.00" fill="#666666">[integer]</text>
<polygon fill="none" stroke="black" points="714.83,-1622 714.83,-1652.8 1034.63,-1652.8 1034.63,-1622 714.83,-1622"/>
<text text-anchor="start" x="721.83" y="-1634.2" font-family="Arial" font-size="14.00">depth </text>
<text text-anchor="start" x="760.76" y="-1634.2" font-family="Arial" font-size="14.00" fill="#666666">[double precision]</text>
<polygon fill="none" stroke="black" points="714.83,-1591.2 714.83,-1622 1034.63,-1622 1034.63,-1591.2 714.83,-1591.2"/>
<text text-anchor="start" x="721.83" y="-1603.4" font-family="Arial" font-size="14.00">faciesid </text>
<text text-anchor="start" x="773.19" y="-1603.4" font-family="Arial" font-size="14.00" fill="#666666">[integer]</text>
<polygon fill="none" stroke="black" points="714.83,-1560.4 714.83,-1591.2 1034.63,-1591.2 1034.63,-1560.4 714.83,-1560.4"/>
<text text-anchor="start" x="721.83" y="-1572.6" font-family="Arial" font-size="14.00">igsn </text>
<text text-anchor="start" x="751.41" y="-1572.6" font-family="Arial" font-size="14.00" fill="#666666">[varchar(40)]</text>
<polygon fill="none" stroke="black" points="714.83,-1529.6 714.83,-1560.4 1034.63,-1560.4 1034.63,-1529.6 714.83,-1529.6"/>
<text text-anchor="start" x="721.83" y="-1541.8" font-family="Arial" font-size="14.00">mixed </text>
<text text-anchor="start" x="763.07" y="-1541.8" font-family="Arial" font-size="14.00" fill="#666666">[boolean]</text>
<polygon fill="none" stroke="black" points="714.83,-1498.8 714.83,-1529.6 1034.63,-1529.6 1034.63,-1498.8 714.83,-1498.8"/>
<text text-anchor="start" x="721.83" y="-1511" font-family="Arial" font-size="14.00">notes </text>
<text text-anchor="start" x="759.97" y="-1511" font-family="Arial" font-size="14.00" fill="#666666">[text]</text>
<polygon fill="none" stroke="black" points="714.83,-1468 714.83,-1498.8 1034.63,-1498.8 1034.63,-1468 714.83,-1468"/>
<text text-anchor="start" x="721.83" y="-1480.2" font-family="Arial" font-size="14.00">recdatecreated </text>
<text text-anchor="start" x="819.12" y="-1480.2" font-family="Arial" font-size="14.00" fill="#666666">[timestamp(0) without time zone]</text>
<polygon fill="none" stroke="black" points="714.83,-1437.2 714.83,-1468 1034.63,-1468 1034.63,-1437.2 714.83,-1437.2"/>
<text text-anchor="start" x="721.83" y="-1449.4" font-family="Arial" font-size="14.00">recdatemodified </text>
<text text-anchor="start" x="825.34" y="-1449.4" font-family="Arial" font-size="14.00" fill="#666666">[timestamp(0) without time zone]</text>
<polygon fill="none" stroke="black" points="714.83,-1406.4 714.83,-1437.2 1034.63,-1437.2 1034.63,-1406.4 714.83,-1406.4"/>
<text text-anchor="start" x="721.83" y="-1418.6" font-family="Arial" font-size="14.00">thickness </text>
<text text-anchor="start" x="784.08" y="-1418.6" font-family="Arial" font-size="14.00" fill="#666666">[double precision]</text>
</g>
<!-- ndb.analysisunits&#45;&gt;ndb.collectionunits -->
<g id="edge2" class="edge">
<title>ndb.analysisunits:collectionunitid&#45;&gt;ndb.collectionunits:collectionunitid</title>
<path fill="none" stroke="black" d="M1045.72,-1666.32C1105.15,-1642.2 1049.46,-1393.76 1086.73,-1332.4 1161.87,-1208.73 1205.13,-1140.6 1349.83,-1140.6"/>
<polygon fill="black" stroke="black" points="1045.79,-1666.3 1035.14,-1663.72 1040.55,-1667.28 1036.29,-1668.08 1036.29,-1668.08 1036.29,-1668.08 1040.55,-1667.28 1036.79,-1672.56 1045.79,-1666.3"/>
<text text-anchor="start" x="738.32" y="-1652.2" font-family="Arial" font-size="10.00">FOREIGN KEY (collectionunitid) REFERENCES ndb.collectionunits(collectionunitid) ON UPDATE CASCADE ON DELETE CASCADE</text>
</g>
<!-- ndb.chronologies -->
<g id="node4" class="node">
<title>ndb.chronologies</title>
<polygon fill="#efefef" stroke="none" points="1138.83,-1776 1138.83,-1811.6 1458.63,-1811.6 1458.63,-1776 1138.83,-1776"/>
<polygon fill="none" stroke="black" points="1138.83,-1776 1138.83,-1811.6 1458.63,-1811.6 1458.63,-1776 1138.83,-1776"/>
<text text-anchor="start" x="1174.25" y="-1789.4" font-family="Arial Bold" font-size="18.00">ndb.chronologies</text>
<text text-anchor="start" x="1298.73" y="-1789.4" font-family="Arial" font-size="14.00">    </text>
<text text-anchor="start" x="1329.85" y="-1789.4" font-family="Arial" font-size="14.00" fill="#666666">[BASE TABLE]</text>
<polygon fill="none" stroke="black" points="1138.83,-1745.2 1138.83,-1776 1458.63,-1776 1458.63,-1745.2 1138.83,-1745.2"/>
<text text-anchor="start" x="1145.83" y="-1757.4" font-family="Arial" font-size="14.00">ageboundolder </text>
<text text-anchor="start" x="1243.14" y="-1757.4" font-family="Arial" font-size="14.00" fill="#666666">[integer]</text>
<polygon fill="none" stroke="black" points="1138.83,-1714.4 1138.83,-1745.2 1458.63,-1745.2 1458.63,-1714.4 1138.83,-1714.4"/>
<text text-anchor="start" x="1145.83" y="-1726.6" font-family="Arial" font-size="14.00">ageboundyounger </text>
<text text-anchor="start" x="1262.61" y="-1726.6" font-family="Arial" font-size="14.00" fill="#666666">[integer]</text>
<polygon fill="none" stroke="black" points="1138.83,-1683.6 1138.83,-1714.4 1458.63,-1714.4 1458.63,-1683.6 1138.83,-1683.6"/>
<text text-anchor="start" x="1145.83" y="-1695.8" font-family="Arial" font-size="14.00">agemodel </text>
<text text-anchor="start" x="1211.21" y="-1695.8" font-family="Arial" font-size="14.00" fill="#666666">[varchar(80)]</text>
<polygon fill="none" stroke="black" points="1138.83,-1652.8 1138.83,-1683.6 1458.63,-1683.6 1458.63,-1652.8 1138.83,-1652.8"/>
<text text-anchor="start" x="1145.83" y="-1665" font-family="Arial" font-size="14.00">agetypeid </text>
<text text-anchor="start" x="1210.44" y="-1665" font-family="Arial" font-size="14.00" fill="#666666">[integer]</text>
<polygon fill="none" stroke="black" points="1138.83,-1622 1138.83,-1652.8 1458.63,-1652.8 1458.63,-1622 1138.83,-1622"/>
<text text-anchor="start" x="1145.83" y="-1634.2" font-family="Arial" font-size="14.00">chronologyid </text>
<text text-anchor="start" x="1229.11" y="-1634.2" font-family="Arial" font-size="14.00" fill="#666666">[integer]</text>
<polygon fill="none" stroke="black" points="1138.83,-1591.2 1138.83,-1622 1458.63,-1622 1458.63,-1591.2 1138.83,-1591.2"/>
<text text-anchor="start" x="1145.83" y="-1603.4" font-family="Arial" font-size="14.00">chronologyname </text>
<text text-anchor="start" x="1253.23" y="-1603.4" font-family="Arial" font-size="14.00" fill="#666666">[varchar(80)]</text>
<polygon fill="none" stroke="black" points="1138.83,-1560.4 1138.83,-1591.2 1458.63,-1591.2 1458.63,-1560.4 1138.83,-1560.4"/>
<text text-anchor="start" x="1145.83" y="-1572.6" font-family="Arial" font-size="14.00">collectionunitid </text>
<text text-anchor="start" x="1241.56" y="-1572.6" font-family="Arial" font-size="14.00" fill="#666666">[integer]</text>
<polygon fill="none" stroke="black" points="1138.83,-1529.6 1138.83,-1560.4 1458.63,-1560.4 1458.63,-1529.6 1138.83,-1529.6"/>
<text text-anchor="start" x="1145.83" y="-1541.8" font-family="Arial" font-size="14.00">contactid </text>
<text text-anchor="start" x="1205.76" y="-1541.8" font-family="Arial" font-size="14.00" fill="#666666">[integer]</text>
<polygon fill="none" stroke="black" points="1138.83,-1498.8 1138.83,-1529.6 1458.63,-1529.6 1458.63,-1498.8 1138.83,-1498.8"/>
<text text-anchor="start" x="1145.83" y="-1511" font-family="Arial" font-size="14.00">dateprepared </text>
<text text-anchor="start" x="1233.01" y="-1511" font-family="Arial" font-size="14.00" fill="#666666">[date]</text>
<polygon fill="none" stroke="black" points="1138.83,-1468 1138.83,-1498.8 1458.63,-1498.8 1458.63,-1468 1138.83,-1468"/>
<text text-anchor="start" x="1145.83" y="-1480.2" font-family="Arial" font-size="14.00">isdefault </text>
<text text-anchor="start" x="1201.87" y="-1480.2" font-family="Arial" font-size="14.00" fill="#666666">[boolean]</text>
<polygon fill="none" stroke="black" points="1138.83,-1437.2 1138.83,-1468 1458.63,-1468 1458.63,-1437.2 1138.83,-1437.2"/>
<text text-anchor="start" x="1145.83" y="-1449.4" font-family="Arial" font-size="14.00">notes </text>
<text text-anchor="start" x="1183.97" y="-1449.4" font-family="Arial" font-size="14.00" fill="#666666">[text]</text>
<polygon fill="none" stroke="black" points="1138.83,-1406.4 1138.83,-1437.2 1458.63,-1437.2 1458.63,-1406.4 1138.83,-1406.4"/>
<text text-anchor="start" x="1145.83" y="-1418.6" font-family="Arial" font-size="14.00">recdatecreated </text>
<text text-anchor="start" x="1243.12" y="-1418.6" font-family="Arial" font-size="14.00" fill="#666666">[timestamp(0) without time zone]</text>
<polygon fill="none" stroke="black" points="1138.83,-1375.6 1138.83,-1406.4 1458.63,-1406.4 1458.63,-1375.6 1138.83,-1375.6"/>
<text text-anchor="start" x="1145.83" y="-1387.8" font-family="Arial" font-size="14.00">recdatemodified </text>
<text text-anchor="start" x="1249.34" y="-1387.8" font-family="Arial" font-size="14.00" fill="#666666">[timestamp(0) without time zone]</text>
</g>
<!-- ndb.chronologies&#45;&gt;ndb.collectionunits -->
<g id="edge3" class="edge">
<title>ndb.chronologies:collectionunitid&#45;&gt;ndb.collectionunits:collectionunitid</title>
<path fill="none" stroke="black" d="M1469.66,-1573.12C1510.49,-1549.24 1488.17,-1373.23 1458.63,-1332.4 1429.03,-1291.48 1380.49,-1337.29 1350.83,-1296.4 1310.18,-1240.34 1280.59,-1140.6 1349.83,-1140.6"/>
<polygon fill="black" stroke="black" points="1469.62,-1573.13 1458.79,-1571.37 1464.46,-1574.51 1460.28,-1575.63 1460.28,-1575.63 1460.28,-1575.63 1464.46,-1574.51 1461.12,-1580.06 1469.62,-1573.13"/>
<text text-anchor="start" x="1466.63" y="-1585.8" font-family="Arial" font-size="10.00">FOREIGN KEY (collectionunitid) REFERENCES ndb.collectionunits(collectionunitid) ON UPDATE CASCADE ON DELETE CASCADE</text>
</g>
<!-- ndb.collectors -->
<g id="node5" class="node">
<title>ndb.collectors</title>
<polygon fill="#efefef" stroke="none" points="1562.83,-1668.2 1562.83,-1703.8 1882.63,-1703.8 1882.63,-1668.2 1562.83,-1668.2"/>
<polygon fill="none" stroke="black" points="1562.83,-1668.2 1562.83,-1703.8 1882.63,-1703.8 1882.63,-1668.2 1562.83,-1668.2"/>
<text text-anchor="start" x="1609.75" y="-1681.6" font-family="Arial Bold" font-size="18.00">ndb.collectors</text>
<text text-anchor="start" x="1711.22" y="-1681.6" font-family="Arial" font-size="14.00">    </text>
<text text-anchor="start" x="1742.34" y="-1681.6" font-family="Arial" font-size="14.00" fill="#666666">[BASE TABLE]</text>
<polygon fill="none" stroke="black" points="1562.83,-1637.4 1562.83,-1668.2 1882.63,-1668.2 1882.63,-1637.4 1562.83,-1637.4"/>
<text text-anchor="start" x="1569.83" y="-1649.6" font-family="Arial" font-size="14.00">collectionunitid </text>
<text text-anchor="start" x="1665.56" y="-1649.6" font-family="Arial" font-size="14.00" fill="#666666">[integer]</text>
<polygon fill="none" stroke="black" points="1562.83,-1606.6 1562.83,-1637.4 1882.63,-1637.4 1882.63,-1606.6 1562.83,-1606.6"/>
<text text-anchor="start" x="1569.83" y="-1618.8" font-family="Arial" font-size="14.00">collectorid </text>
<text text-anchor="start" x="1636.75" y="-1618.8" font-family="Arial" font-size="14.00" fill="#666666">[integer]</text>
<polygon fill="none" stroke="black" points="1562.83,-1575.8 1562.83,-1606.6 1882.63,-1606.6 1882.63,-1575.8 1562.83,-1575.8"/>
<text text-anchor="start" x="1569.83" y="-1588" font-family="Arial" font-size="14.00">collectororder </text>
<text text-anchor="start" x="1658.54" y="-1588" font-family="Arial" font-size="14.00" fill="#666666">[integer]</text>
<polygon fill="none" stroke="black" points="1562.83,-1545 1562.83,-1575.8 1882.63,-1575.8 1882.63,-1545 1562.83,-1545"/>
<text text-anchor="start" x="1569.83" y="-1557.2" font-family="Arial" font-size="14.00">contactid </text>
<text text-anchor="start" x="1629.76" y="-1557.2" font-family="Arial" font-size="14.00" fill="#666666">[integer]</text>
<polygon fill="none" stroke="black" points="1562.83,-1514.2 1562.83,-1545 1882.63,-1545 1882.63,-1514.2 1562.83,-1514.2"/>
<text text-anchor="start" x="1569.83" y="-1526.4" font-family="Arial" font-size="14.00">recdatecreated </text>
<text text-anchor="start" x="1667.12" y="-1526.4" font-family="Arial" font-size="14.00" fill="#666666">[timestamp(0) without time zone]</text>
<polygon fill="none" stroke="black" points="1562.83,-1483.4 1562.83,-1514.2 1882.63,-1514.2 1882.63,-1483.4 1562.83,-1483.4"/>
<text text-anchor="start" x="1569.83" y="-1495.6" font-family="Arial" font-size="14.00">recdatemodified </text>
<text text-anchor="start" x="1673.34" y="-1495.6" font-family="Arial" font-size="14.00" fill="#666666">[timestamp(0) without time zone]</text>
</g>
<!-- ndb.collectors&#45;&gt;ndb.collectionunits -->
<g id="edge4" class="edge">
<title>ndb.collectors:collectionunitid&#45;&gt;ndb.collectionunits:collectionunitid</title>
<path fill="none" stroke="black" d="M1551.48,-1652.25C1472.4,-1643.24 1533.93,-1526.27 1562.83,-1440.2 1588.26,-1364.48 1645.14,-1372.1 1670.63,-1296.4 1692.73,-1230.78 1740.88,-1140.6 1671.63,-1140.6"/>
<polygon fill="black" stroke="black" points="1551.52,-1652.25 1561.26,-1657.28 1556.84,-1652.53 1561.17,-1652.76 1561.17,-1652.76 1561.17,-1652.76 1556.84,-1652.53 1561.74,-1648.29 1551.52,-1652.25"/>
<text text-anchor="start" x="1568.83" y="-1662.8" font-family="Arial" font-size="10.00">FOREIGN KEY (collectionunitid) REFERENCES ndb.collectionunits(collectionunitid) ON UPDATE CASCADE ON DELETE CASCADE</text>
</g>
<!-- ndb.datasets -->
<g id="node6" class="node">
<title>ndb.datasets</title>
<polygon fill="#efefef" stroke="none" points="1986.83,-1699 1986.83,-1734.6 2306.63,-1734.6 2306.63,-1699 1986.83,-1699"/>
<polygon fill="none" stroke="black" points="1986.83,-1699 1986.83,-1734.6 2306.63,-1734.6 2306.63,-1699 1986.83,-1699"/>
<text text-anchor="start" x="2040.25" y="-1712.4" font-family="Arial Bold" font-size="18.00">ndb.datasets</text>
<text text-anchor="start" x="2128.73" y="-1712.4" font-family="Arial" font-size="14.00">    </text>
<text text-anchor="start" x="2159.85" y="-1712.4" font-family="Arial" font-size="14.00" fill="#666666">[BASE TABLE]</text>
<polygon fill="none" stroke="black" points="1986.83,-1668.2 1986.83,-1699 2306.63,-1699 2306.63,-1668.2 1986.83,-1668.2"/>
<text text-anchor="start" x="1993.83" y="-1680.4" font-family="Arial" font-size="14.00">collectionunitid </text>
<text text-anchor="start" x="2089.56" y="-1680.4" font-family="Arial" font-size="14.00" fill="#666666">[integer]</text>
<polygon fill="none" stroke="black" points="1986.83,-1637.4 1986.83,-1668.2 2306.63,-1668.2 2306.63,-1637.4 1986.83,-1637.4"/>
<text text-anchor="start" x="1993.83" y="-1649.6" font-family="Arial" font-size="14.00">datasetid </text>
<text text-anchor="start" x="2054.54" y="-1649.6" font-family="Arial" font-size="14.00" fill="#666666">[integer]</text>
<polygon fill="none" stroke="black" points="1986.83,-1606.6 1986.83,-1637.4 2306.63,-1637.4 2306.63,-1606.6 1986.83,-1606.6"/>
<text text-anchor="start" x="1993.83" y="-1618.8" font-family="Arial" font-size="14.00">datasetname </text>
<text text-anchor="start" x="2078.67" y="-1618.8" font-family="Arial" font-size="14.00" fill="#666666">[varchar(80)]</text>
<polygon fill="none" stroke="black" points="1986.83,-1575.8 1986.83,-1606.6 2306.63,-1606.6 2306.63,-1575.8 1986.83,-1575.8"/>
<text text-anchor="start" x="1993.83" y="-1588" font-family="Arial" font-size="14.00">datasettypeid </text>
<text text-anchor="start" x="2081.01" y="-1588" font-family="Arial" font-size="14.00" fill="#666666">[integer]</text>
<polygon fill="none" stroke="black" points="1986.83,-1545 1986.83,-1575.8 2306.63,-1575.8 2306.63,-1545 1986.83,-1545"/>
<text text-anchor="start" x="1993.83" y="-1557.2" font-family="Arial" font-size="14.00">embargoid </text>
<text text-anchor="start" x="2063.88" y="-1557.2" font-family="Arial" font-size="14.00" fill="#666666">[integer]</text>
<polygon fill="none" stroke="black" points="1986.83,-1514.2 1986.83,-1545 2306.63,-1545 2306.63,-1514.2 1986.83,-1514.2"/>
<text text-anchor="start" x="1993.83" y="-1526.4" font-family="Arial" font-size="14.00">notes </text>
<text text-anchor="start" x="2031.97" y="-1526.4" font-family="Arial" font-size="14.00" fill="#666666">[text]</text>
<polygon fill="none" stroke="black" points="1986.83,-1483.4 1986.83,-1514.2 2306.63,-1514.2 2306.63,-1483.4 1986.83,-1483.4"/>
<text text-anchor="start" x="1993.83" y="-1495.6" font-family="Arial" font-size="14.00">recdatecreated </text>
<text text-anchor="start" x="2091.12" y="-1495.6" font-family="Arial" font-size="14.00" fill="#666666">[timestamp(0) without time zone]</text>
<polygon fill="none" stroke="black" points="1986.83,-1452.6 1986.83,-1483.4 2306.63,-1483.4 2306.63,-1452.6 1986.83,-1452.6"/>
<text text-anchor="start" x="1993.83" y="-1464.8" font-family="Arial" font-size="14.00">recdatemodified </text>
<text text-anchor="start" x="2097.34" y="-1464.8" font-family="Arial" font-size="14.00" fill="#666666">[timestamp(0) without time zone]</text>
</g>
<!-- ndb.datasets&#45;&gt;ndb.collectionunits -->
<g id="edge5" class="edge">
<title>ndb.datasets:collectionunitid&#45;&gt;ndb.collectionunits:collectionunitid</title>
<path fill="none" stroke="black" d="M1975.69,-1681.78C1913.15,-1657.48 1973.55,-1396.77 1934.73,-1332.4 1860,-1208.48 1816.34,-1140.6 1671.63,-1140.6"/>
<polygon fill="black" stroke="black" points="1975.66,-1681.78 1984.71,-1687.97 1980.91,-1682.72 1985.18,-1683.48 1985.18,-1683.48 1985.18,-1683.48 1980.91,-1682.72 1986.3,-1679.11 1975.66,-1681.78"/>
<text text-anchor="start" x="1992.83" y="-1693.6" font-family="Arial" font-size="10.00">FOREIGN KEY (collectionunitid) REFERENCES ndb.collectionunits(collectionunitid) ON UPDATE CASCADE ON DELETE CASCADE</text>
</g>
<!-- ndb.speleothemcollectionunits -->
<g id="node7" class="node">
<title>ndb.speleothemcollectionunits</title>
<polygon fill="#efefef" stroke="none" points="2410.76,-1622 2410.76,-1657.6 2768.71,-1657.6 2768.71,-1622 2410.76,-1622"/>
<polygon fill="none" stroke="black" points="2410.76,-1622 2410.76,-1657.6 2768.71,-1657.6 2768.71,-1622 2410.76,-1622"/>
<text text-anchor="start" x="2417.76" y="-1635.4" font-family="Arial Bold" font-size="18.00">ndb.speleothemcollectionunits</text>
<text text-anchor="start" x="2637.22" y="-1635.4" font-family="Arial" font-size="14.00">    </text>
<text text-anchor="start" x="2668.33" y="-1635.4" font-family="Arial" font-size="14.00" fill="#666666">[BASE TABLE]</text>
<polygon fill="none" stroke="black" points="2410.76,-1591.2 2410.76,-1622 2768.71,-1622 2768.71,-1591.2 2410.76,-1591.2"/>
<text text-anchor="start" x="2417.76" y="-1603.4" font-family="Arial" font-size="14.00">collectionunitid </text>
<text text-anchor="start" x="2513.49" y="-1603.4" font-family="Arial" font-size="14.00" fill="#666666">[integer]</text>
<polygon fill="none" stroke="black" points="2410.76,-1560.4 2410.76,-1591.2 2768.71,-1591.2 2768.71,-1560.4 2410.76,-1560.4"/>
<text text-anchor="start" x="2417.76" y="-1572.6" font-family="Arial" font-size="14.00">entityid </text>
<text text-anchor="start" x="2466.01" y="-1572.6" font-family="Arial" font-size="14.00" fill="#666666">[integer]</text>
<polygon fill="none" stroke="black" points="2410.76,-1529.6 2410.76,-1560.4 2768.71,-1560.4 2768.71,-1529.6 2410.76,-1529.6"/>
<text text-anchor="start" x="2417.76" y="-1541.8" font-family="Arial" font-size="14.00">persistid </text>
<text text-anchor="start" x="2473.78" y="-1541.8" font-family="Arial" font-size="14.00" fill="#666666">[text]</text>
</g>
<!-- ndb.speleothemcollectionunits&#45;&gt;ndb.collectionunits -->
<g id="edge6" class="edge">
<title>ndb.speleothemcollectionunits:collectionunitid&#45;&gt;ndb.collectionunits:collectionunitid</title>
<path fill="none" stroke="black" d="M2399.58,-1606.14C2294.78,-1595.97 2439.98,-1421.15 2358.73,-1332.4 2251.69,-1215.47 1830.16,-1140.6 1671.63,-1140.6"/>
<polygon fill="black" stroke="black" points="2399.44,-1606.13 2409.22,-1611.08 2404.77,-1606.37 2409.09,-1606.57 2409.09,-1606.57 2409.09,-1606.57 2404.77,-1606.37 2409.63,-1602.09 2399.44,-1606.13"/>
<text text-anchor="start" x="2416.76" y="-1616.6" font-family="Arial" font-size="10.00">FOREIGN KEY (collectionunitid) REFERENCES ndb.collectionunits(collectionunitid) ON DELETE CASCADE</text>
</g>
</g>
</svg>
