<?xml version="1.0" encoding="UTF-8" standalone="no"?>
<!DOCTYPE svg PUBLIC "-//W3C//DTD SVG 1.1//EN"
 "http://www.w3.org/Graphics/SVG/1.1/DTD/svg11.dtd">
<!-- Generated by graphviz version 12.1.2 (20240928.0832)
 -->
<!-- Title: ndb.entitygeology Pages: 1 -->
<svg width="3768pt" height="1339pt"
 viewBox="0.00 0.00 3768.46 1339.20" xmlns="http://www.w3.org/2000/svg" xmlns:xlink="http://www.w3.org/1999/xlink">
<g id="graph0" class="graph" transform="scale(1 1) rotate(0) translate(4 1335.2)">
<title>ndb.entitygeology</title>
<polygon fill="white" stroke="none" points="-4,4 -4,-1335.2 3764.46,-1335.2 3764.46,4 -4,4"/>
<!-- ndb.entitygeology -->
<g id="node1" class="node">
<title>ndb.entitygeology</title>
<polygon fill="#efefef" stroke="none" points="152.49,-1175.4 152.49,-1211 421.46,-1211 421.46,-1175.4 152.49,-1175.4"/>
<polygon fill="none" stroke="black" points="152.49,-1175.4 152.49,-1211 421.46,-1211 421.46,-1175.4 152.49,-1175.4"/>
<text text-anchor="start" x="159.49" y="-1188.8" font-family="Arial Bold" font-size="18.00">ndb.entitygeology</text>
<text text-anchor="start" x="289.97" y="-1188.8" font-family="Arial" font-size="14.00">    </text>
<text text-anchor="start" x="321.08" y="-1188.8" font-family="Arial" font-size="14.00" fill="#666666">[BASE TABLE]</text>
<polygon fill="none" stroke="black" points="152.49,-1144.6 152.49,-1175.4 421.46,-1175.4 421.46,-1144.6 152.49,-1144.6"/>
<text text-anchor="start" x="159.49" y="-1156.8" font-family="Arial" font-size="14.00">entityid </text>
<text text-anchor="start" x="207.73" y="-1156.8" font-family="Arial" font-size="14.00" fill="#666666">[integer]</text>
<polygon fill="none" stroke="black" points="152.49,-1113.8 152.49,-1144.6 421.46,-1144.6 421.46,-1113.8 152.49,-1113.8"/>
<text text-anchor="start" x="159.49" y="-1126" font-family="Arial" font-size="14.00">notes </text>
<text text-anchor="start" x="197.62" y="-1126" font-family="Arial" font-size="14.00" fill="#666666">[text]</text>
<polygon fill="none" stroke="black" points="152.49,-1083 152.49,-1113.8 421.46,-1113.8 421.46,-1083 152.49,-1083"/>
<text text-anchor="start" x="159.49" y="-1095.2" font-family="Arial" font-size="14.00">speleothemgeologyid </text>
<text text-anchor="start" x="295.69" y="-1095.2" font-family="Arial" font-size="14.00" fill="#666666">[integer]</text>
<polygon fill="none" stroke="black" stroke-width="3" points="150.99,-1081.5 150.99,-1212.5 422.96,-1212.5 422.96,-1081.5 150.99,-1081.5"/>
</g>
<!-- ndb.speleothems -->
<g id="node2" class="node">
<title>ndb.speleothems</title>
<polygon fill="#efefef" stroke="none" points="1709.49,-848 1709.49,-883.6 1968.46,-883.6 1968.46,-848 1709.49,-848"/>
<polygon fill="none" stroke="black" points="1709.49,-848 1709.49,-883.6 1968.46,-883.6 1968.46,-848 1709.49,-848"/>
<text text-anchor="start" x="1716.49" y="-861.4" font-family="Arial Bold" font-size="18.00">ndb.speleothems</text>
<text text-anchor="start" x="1836.97" y="-861.4" font-family="Arial" font-size="14.00">    </text>
<text text-anchor="start" x="1868.08" y="-861.4" font-family="Arial" font-size="14.00" fill="#666666">[BASE TABLE]</text>
<polygon fill="none" stroke="black" points="1709.49,-817.2 1709.49,-848 1968.46,-848 1968.46,-817.2 1709.49,-817.2"/>
<text text-anchor="start" x="1716.49" y="-829.4" font-family="Arial" font-size="14.00">entityid </text>
<text text-anchor="start" x="1764.73" y="-829.4" font-family="Arial" font-size="14.00" fill="#666666">[integer]</text>
<polygon fill="none" stroke="black" points="1709.49,-786.4 1709.49,-817.2 1968.46,-817.2 1968.46,-786.4 1709.49,-786.4"/>
<text text-anchor="start" x="1716.49" y="-798.6" font-family="Arial" font-size="14.00">entityname </text>
<text text-anchor="start" x="1788.86" y="-798.6" font-family="Arial" font-size="14.00" fill="#666666">[text]</text>
<polygon fill="none" stroke="black" points="1709.49,-755.6 1709.49,-786.4 1968.46,-786.4 1968.46,-755.6 1709.49,-755.6"/>
<text text-anchor="start" x="1716.49" y="-767.8" font-family="Arial" font-size="14.00">entrancedistance </text>
<text text-anchor="start" x="1827" y="-767.8" font-family="Arial" font-size="14.00" fill="#666666">[real]</text>
<polygon fill="none" stroke="black" points="1709.49,-724.8 1709.49,-755.6 1968.46,-755.6 1968.46,-724.8 1709.49,-724.8"/>
<text text-anchor="start" x="1716.49" y="-737" font-family="Arial" font-size="14.00">entrancedistanceunits </text>
<text text-anchor="start" x="1856.58" y="-737" font-family="Arial" font-size="14.00" fill="#666666">[integer]</text>
<polygon fill="none" stroke="black" points="1709.49,-694 1709.49,-724.8 1968.46,-724.8 1968.46,-694 1709.49,-694"/>
<text text-anchor="start" x="1716.49" y="-706.2" font-family="Arial" font-size="14.00">monitoring </text>
<text text-anchor="start" x="1785.74" y="-706.2" font-family="Arial" font-size="14.00" fill="#666666">[boolean]</text>
<polygon fill="none" stroke="black" points="1709.49,-663.2 1709.49,-694 1968.46,-694 1968.46,-663.2 1709.49,-663.2"/>
<text text-anchor="start" x="1716.49" y="-675.4" font-family="Arial" font-size="14.00">rockageid </text>
<text text-anchor="start" x="1781.08" y="-675.4" font-family="Arial" font-size="14.00" fill="#666666">[integer]</text>
<polygon fill="none" stroke="black" points="1709.49,-632.4 1709.49,-663.2 1968.46,-663.2 1968.46,-632.4 1709.49,-632.4"/>
<text text-anchor="start" x="1716.49" y="-644.6" font-family="Arial" font-size="14.00">siteid </text>
<text text-anchor="start" x="1753.06" y="-644.6" font-family="Arial" font-size="14.00" fill="#666666">[integer]</text>
<polygon fill="none" stroke="black" points="1709.49,-601.6 1709.49,-632.4 1968.46,-632.4 1968.46,-601.6 1709.49,-601.6"/>
<text text-anchor="start" x="1716.49" y="-613.8" font-family="Arial" font-size="14.00">speleothemtypeid </text>
<text text-anchor="start" x="1830.11" y="-613.8" font-family="Arial" font-size="14.00" fill="#666666">[integer]</text>
</g>
<!-- ndb.entitygeology&#45;&gt;ndb.speleothems -->
<g id="edge1" class="edge">
<title>ndb.entitygeology:entityid&#45;&gt;ndb.speleothems:entityid</title>
<path fill="none" stroke="black" d="M432.68,-1159.32C505.01,-1148.78 410.46,-1019.19 476.97,-962.8 581.93,-873.82 1570.89,-832.6 1708.49,-832.6"/>
<polygon fill="black" stroke="black" points="432.77,-1159.31 422.49,-1155.49 427.45,-1159.67 423.12,-1159.96 423.12,-1159.96 423.12,-1159.96 427.45,-1159.67 423.09,-1164.47 432.77,-1159.31"/>
<text text-anchor="start" x="7" y="-1170" font-family="Arial" font-size="10.00">FOREIGN KEY (entityid) REFERENCES ndb.speleothems(entityid) ON DELETE CASCADE</text>
</g>
<!-- ndb.variableunits -->
<g id="node11" class="node">
<title>ndb.variableunits</title>
<polygon fill="#efefef" stroke="none" points="1043.07,-305 1043.07,-340.6 1362.87,-340.6 1362.87,-305 1043.07,-305"/>
<polygon fill="none" stroke="black" points="1043.07,-305 1043.07,-340.6 1362.87,-340.6 1362.87,-305 1043.07,-305"/>
<text text-anchor="start" x="1078.49" y="-318.4" font-family="Arial Bold" font-size="18.00">ndb.variableunits</text>
<text text-anchor="start" x="1202.96" y="-318.4" font-family="Arial" font-size="14.00">    </text>
<text text-anchor="start" x="1234.08" y="-318.4" font-family="Arial" font-size="14.00" fill="#666666">[BASE TABLE]</text>
<polygon fill="none" stroke="black" points="1043.07,-274.2 1043.07,-305 1362.87,-305 1362.87,-274.2 1043.07,-274.2"/>
<text text-anchor="start" x="1050.07" y="-286.4" font-family="Arial" font-size="14.00">recdatecreated </text>
<text text-anchor="start" x="1147.35" y="-286.4" font-family="Arial" font-size="14.00" fill="#666666">[timestamp(0) without time zone]</text>
<polygon fill="none" stroke="black" points="1043.07,-243.4 1043.07,-274.2 1362.87,-274.2 1362.87,-243.4 1043.07,-243.4"/>
<text text-anchor="start" x="1050.07" y="-255.6" font-family="Arial" font-size="14.00">recdatemodified </text>
<text text-anchor="start" x="1153.57" y="-255.6" font-family="Arial" font-size="14.00" fill="#666666">[timestamp(0) without time zone]</text>
<polygon fill="none" stroke="black" points="1043.07,-212.6 1043.07,-243.4 1362.87,-243.4 1362.87,-212.6 1043.07,-212.6"/>
<text text-anchor="start" x="1050.07" y="-224.8" font-family="Arial" font-size="14.00">variableunits </text>
<text text-anchor="start" x="1132.56" y="-224.8" font-family="Arial" font-size="14.00" fill="#666666">[varchar(64)]</text>
<polygon fill="none" stroke="black" points="1043.07,-181.8 1043.07,-212.6 1362.87,-212.6 1362.87,-181.8 1043.07,-181.8"/>
<text text-anchor="start" x="1050.07" y="-194" font-family="Arial" font-size="14.00">variableunitsid </text>
<text text-anchor="start" x="1143.46" y="-194" font-family="Arial" font-size="14.00" fill="#666666">[integer]</text>
</g>
<!-- ndb.speleothems&#45;&gt;ndb.variableunits -->
<g id="edge11" class="edge">
<title>ndb.speleothems:entrancedistanceunits&#45;&gt;ndb.variableunits:variableunitsid</title>
<path fill="none" stroke="black" d="M1698.17,-740.09C1544.01,-736.79 1497.26,-658.4 1414.97,-522.4 1377.1,-459.81 1437.02,-197.2 1363.87,-197.2"/>
<polygon fill="black" stroke="black" points="1698.15,-740.09 1708.1,-744.7 1703.49,-740.15 1707.82,-740.19 1707.82,-740.19 1707.82,-740.19 1703.49,-740.15 1708.2,-735.7 1698.15,-740.09"/>
<text text-anchor="start" x="1306.33" y="-750.2" font-family="Arial" font-size="10.00">FOREIGN KEY (entrancedistanceunits) REFERENCES ndb.variableunits(variableunitsid)</text>
</g>
<!-- ndb.relativeages -->
<g id="node12" class="node">
<title>ndb.relativeages</title>
<polygon fill="#efefef" stroke="none" points="1467.07,-412.8 1467.07,-448.4 1786.87,-448.4 1786.87,-412.8 1467.07,-412.8"/>
<polygon fill="none" stroke="black" points="1467.07,-412.8 1467.07,-448.4 1786.87,-448.4 1786.87,-412.8 1467.07,-412.8"/>
<text text-anchor="start" x="1506" y="-426.2" font-family="Arial Bold" font-size="18.00">ndb.relativeages</text>
<text text-anchor="start" x="1623.45" y="-426.2" font-family="Arial" font-size="14.00">    </text>
<text text-anchor="start" x="1654.57" y="-426.2" font-family="Arial" font-size="14.00" fill="#666666">[BASE TABLE]</text>
<polygon fill="none" stroke="black" points="1467.07,-382 1467.07,-412.8 1786.87,-412.8 1786.87,-382 1467.07,-382"/>
<text text-anchor="start" x="1474.07" y="-394.2" font-family="Arial" font-size="14.00">c14ageolder </text>
<text text-anchor="start" x="1555.02" y="-394.2" font-family="Arial" font-size="14.00" fill="#666666">[double precision]</text>
<polygon fill="none" stroke="black" points="1467.07,-351.2 1467.07,-382 1786.87,-382 1786.87,-351.2 1467.07,-351.2"/>
<text text-anchor="start" x="1474.07" y="-363.4" font-family="Arial" font-size="14.00">c14ageyounger </text>
<text text-anchor="start" x="1574.48" y="-363.4" font-family="Arial" font-size="14.00" fill="#666666">[double precision]</text>
<polygon fill="none" stroke="black" points="1467.07,-320.4 1467.07,-351.2 1786.87,-351.2 1786.87,-320.4 1467.07,-320.4"/>
<text text-anchor="start" x="1474.07" y="-332.6" font-family="Arial" font-size="14.00">calageolder </text>
<text text-anchor="start" x="1550.35" y="-332.6" font-family="Arial" font-size="14.00" fill="#666666">[double precision]</text>
<polygon fill="none" stroke="black" points="1467.07,-289.6 1467.07,-320.4 1786.87,-320.4 1786.87,-289.6 1467.07,-289.6"/>
<text text-anchor="start" x="1474.07" y="-301.8" font-family="Arial" font-size="14.00">calageyounger </text>
<text text-anchor="start" x="1569.81" y="-301.8" font-family="Arial" font-size="14.00" fill="#666666">[double precision]</text>
<polygon fill="none" stroke="black" points="1467.07,-258.8 1467.07,-289.6 1786.87,-289.6 1786.87,-258.8 1467.07,-258.8"/>
<text text-anchor="start" x="1474.07" y="-271" font-family="Arial" font-size="14.00">notes </text>
<text text-anchor="start" x="1512.21" y="-271" font-family="Arial" font-size="14.00" fill="#666666">[text]</text>
<polygon fill="none" stroke="black" points="1467.07,-228 1467.07,-258.8 1786.87,-258.8 1786.87,-228 1467.07,-228"/>
<text text-anchor="start" x="1474.07" y="-240.2" font-family="Arial" font-size="14.00">recdatecreated </text>
<text text-anchor="start" x="1571.35" y="-240.2" font-family="Arial" font-size="14.00" fill="#666666">[timestamp(0) without time zone]</text>
<polygon fill="none" stroke="black" points="1467.07,-197.2 1467.07,-228 1786.87,-228 1786.87,-197.2 1467.07,-197.2"/>
<text text-anchor="start" x="1474.07" y="-209.4" font-family="Arial" font-size="14.00">recdatemodified </text>
<text text-anchor="start" x="1577.57" y="-209.4" font-family="Arial" font-size="14.00" fill="#666666">[timestamp(0) without time zone]</text>
<polygon fill="none" stroke="black" points="1467.07,-166.4 1467.07,-197.2 1786.87,-197.2 1786.87,-166.4 1467.07,-166.4"/>
<text text-anchor="start" x="1474.07" y="-178.6" font-family="Arial" font-size="14.00">relativeage </text>
<text text-anchor="start" x="1546.45" y="-178.6" font-family="Arial" font-size="14.00" fill="#666666">[varchar(64)]</text>
<polygon fill="none" stroke="black" points="1467.07,-135.6 1467.07,-166.4 1786.87,-166.4 1786.87,-135.6 1467.07,-135.6"/>
<text text-anchor="start" x="1474.07" y="-147.8" font-family="Arial" font-size="14.00">relativeageid </text>
<text text-anchor="start" x="1557.35" y="-147.8" font-family="Arial" font-size="14.00" fill="#666666">[integer]</text>
<polygon fill="none" stroke="black" points="1467.07,-104.8 1467.07,-135.6 1786.87,-135.6 1786.87,-104.8 1467.07,-104.8"/>
<text text-anchor="start" x="1474.07" y="-117" font-family="Arial" font-size="14.00">relativeagescaleid </text>
<text text-anchor="start" x="1590.03" y="-117" font-family="Arial" font-size="14.00" fill="#666666">[integer]</text>
<polygon fill="none" stroke="black" points="1467.07,-74 1467.07,-104.8 1786.87,-104.8 1786.87,-74 1467.07,-74"/>
<text text-anchor="start" x="1474.07" y="-86.2" font-family="Arial" font-size="14.00">relativeageunitid </text>
<text text-anchor="start" x="1579.92" y="-86.2" font-family="Arial" font-size="14.00" fill="#666666">[integer]</text>
</g>
<!-- ndb.speleothems&#45;&gt;ndb.relativeages -->
<g id="edge12" class="edge">
<title>ndb.speleothems:rockageid&#45;&gt;ndb.relativeages:relativeageid</title>
<path fill="none" stroke="black" d="M1698.45,-677.57C1659.51,-668.63 1688.62,-603.47 1709.49,-558.4 1728.57,-517.17 1767.9,-532.88 1786.87,-491.6 1818.48,-422.83 1863.56,-151 1787.87,-151"/>
<polygon fill="black" stroke="black" points="1698.21,-677.54 1707.69,-683.04 1703.51,-678.09 1707.82,-678.53 1707.82,-678.53 1707.82,-678.53 1703.51,-678.09 1708.61,-674.09 1698.21,-677.54"/>
<text text-anchor="start" x="1369.69" y="-688.6" font-family="Arial" font-size="10.00">FOREIGN KEY (rockageid) REFERENCES ndb.relativeages(relativeageid)</text>
</g>
<!-- ndb.sites -->
<g id="node13" class="node">
<title>ndb.sites</title>
<polygon fill="#efefef" stroke="none" points="1891.07,-443.6 1891.07,-479.2 2210.87,-479.2 2210.87,-443.6 1891.07,-443.6"/>
<polygon fill="none" stroke="black" points="1891.07,-443.6 1891.07,-479.2 2210.87,-479.2 2210.87,-443.6 1891.07,-443.6"/>
<text text-anchor="start" x="1956.98" y="-457" font-family="Arial Bold" font-size="18.00">ndb.sites</text>
<text text-anchor="start" x="2020.48" y="-457" font-family="Arial" font-size="14.00">    </text>
<text text-anchor="start" x="2051.59" y="-457" font-family="Arial" font-size="14.00" fill="#666666">[BASE TABLE]</text>
<polygon fill="none" stroke="black" points="1891.07,-412.8 1891.07,-443.6 2210.87,-443.6 2210.87,-412.8 1891.07,-412.8"/>
<text text-anchor="start" x="1898.07" y="-425" font-family="Arial" font-size="14.00">altitude </text>
<text text-anchor="start" x="1947.11" y="-425" font-family="Arial" font-size="14.00" fill="#666666">[double precision]</text>
<polygon fill="none" stroke="black" points="1891.07,-382 1891.07,-412.8 2210.87,-412.8 2210.87,-382 1891.07,-382"/>
<text text-anchor="start" x="1898.07" y="-394.2" font-family="Arial" font-size="14.00">area </text>
<text text-anchor="start" x="1929.98" y="-394.2" font-family="Arial" font-size="14.00" fill="#666666">[double precision]</text>
<polygon fill="none" stroke="black" points="1891.07,-351.2 1891.07,-382 2210.87,-382 2210.87,-351.2 1891.07,-351.2"/>
<text text-anchor="start" x="1898.07" y="-363.4" font-family="Arial" font-size="14.00">geog </text>
<text text-anchor="start" x="1933.11" y="-363.4" font-family="Arial" font-size="14.00" fill="#666666">[geography]</text>
<polygon fill="none" stroke="black" points="1891.07,-320.4 1891.07,-351.2 2210.87,-351.2 2210.87,-320.4 1891.07,-320.4"/>
<text text-anchor="start" x="1898.07" y="-332.6" font-family="Arial" font-size="14.00">latitudenorth </text>
<text text-anchor="start" x="1979.02" y="-332.6" font-family="Arial" font-size="14.00" fill="#666666">[double precision]</text>
<polygon fill="none" stroke="black" points="1891.07,-289.6 1891.07,-320.4 2210.87,-320.4 2210.87,-289.6 1891.07,-289.6"/>
<text text-anchor="start" x="1898.07" y="-301.8" font-family="Arial" font-size="14.00">latitudesouth </text>
<text text-anchor="start" x="1981.35" y="-301.8" font-family="Arial" font-size="14.00" fill="#666666">[double precision]</text>
<polygon fill="none" stroke="black" points="1891.07,-258.8 1891.07,-289.6 2210.87,-289.6 2210.87,-258.8 1891.07,-258.8"/>
<text text-anchor="start" x="1898.07" y="-271" font-family="Arial" font-size="14.00">longitudeeast </text>
<text text-anchor="start" x="1985.25" y="-271" font-family="Arial" font-size="14.00" fill="#666666">[double precision]</text>
<polygon fill="none" stroke="black" points="1891.07,-228 1891.07,-258.8 2210.87,-258.8 2210.87,-228 1891.07,-228"/>
<text text-anchor="start" x="1898.07" y="-240.2" font-family="Arial" font-size="14.00">longitudewest </text>
<text text-anchor="start" x="1987.57" y="-240.2" font-family="Arial" font-size="14.00" fill="#666666">[double precision]</text>
<polygon fill="none" stroke="black" points="1891.07,-197.2 1891.07,-228 2210.87,-228 2210.87,-197.2 1891.07,-197.2"/>
<text text-anchor="start" x="1898.07" y="-209.4" font-family="Arial" font-size="14.00">notes </text>
<text text-anchor="start" x="1936.21" y="-209.4" font-family="Arial" font-size="14.00" fill="#666666">[text]</text>
<polygon fill="none" stroke="black" points="1891.07,-166.4 1891.07,-197.2 2210.87,-197.2 2210.87,-166.4 1891.07,-166.4"/>
<text text-anchor="start" x="1898.07" y="-178.6" font-family="Arial" font-size="14.00">recdatecreated </text>
<text text-anchor="start" x="1995.35" y="-178.6" font-family="Arial" font-size="14.00" fill="#666666">[timestamp(0) without time zone]</text>
<polygon fill="none" stroke="black" points="1891.07,-135.6 1891.07,-166.4 2210.87,-166.4 2210.87,-135.6 1891.07,-135.6"/>
<text text-anchor="start" x="1898.07" y="-147.8" font-family="Arial" font-size="14.00">recdatemodified </text>
<text text-anchor="start" x="2001.57" y="-147.8" font-family="Arial" font-size="14.00" fill="#666666">[timestamp(0) without time zone]</text>
<polygon fill="none" stroke="black" points="1891.07,-104.8 1891.07,-135.6 2210.87,-135.6 2210.87,-104.8 1891.07,-104.8"/>
<text text-anchor="start" x="1898.07" y="-117" font-family="Arial" font-size="14.00">sitedescription </text>
<text text-anchor="start" x="1991.45" y="-117" font-family="Arial" font-size="14.00" fill="#666666">[text]</text>
<polygon fill="none" stroke="black" points="1891.07,-74 1891.07,-104.8 2210.87,-104.8 2210.87,-74 1891.07,-74"/>
<text text-anchor="start" x="1898.07" y="-86.2" font-family="Arial" font-size="14.00">siteid </text>
<text text-anchor="start" x="1934.64" y="-86.2" font-family="Arial" font-size="14.00" fill="#666666">[integer]</text>
<polygon fill="none" stroke="black" points="1891.07,-43.2 1891.07,-74 2210.87,-74 2210.87,-43.2 1891.07,-43.2"/>
<text text-anchor="start" x="1898.07" y="-55.4" font-family="Arial" font-size="14.00">sitename </text>
<text text-anchor="start" x="1958.77" y="-55.4" font-family="Arial" font-size="14.00" fill="#666666">[varchar(128)]</text>
</g>
<!-- ndb.speleothems&#45;&gt;ndb.sites -->
<g id="edge13" class="edge">
<title>ndb.speleothems:siteid&#45;&gt;ndb.sites:siteid</title>
<path fill="none" stroke="black" d="M1979.46,-646.27C2005.42,-637.08 1987.9,-588.52 1968.46,-558.4 1947.88,-526.53 1911.5,-554.36 1891.07,-522.4 1865.16,-481.86 1841.96,-89.4 1890.07,-89.4"/>
<polygon fill="black" stroke="black" points="1979.67,-646.24 1969.11,-643.3 1974.4,-647.04 1970.12,-647.7 1970.12,-647.7 1970.12,-647.7 1974.4,-647.04 1970.47,-652.2 1979.67,-646.24"/>
<text text-anchor="start" x="1976.46" y="-657.8" font-family="Arial" font-size="10.00">FOREIGN KEY (siteid) REFERENCES ndb.sites(siteid) ON DELETE CASCADE</text>
</g>
<!-- ndb.speleothemtypes -->
<g id="node14" class="node">
<title>ndb.speleothemtypes</title>
<polygon fill="#efefef" stroke="none" points="2314.99,-305 2314.99,-340.6 2604.95,-340.6 2604.95,-305 2314.99,-305"/>
<polygon fill="none" stroke="black" points="2314.99,-305 2314.99,-340.6 2604.95,-340.6 2604.95,-305 2314.99,-305"/>
<text text-anchor="start" x="2321.99" y="-318.4" font-family="Arial Bold" font-size="18.00">ndb.speleothemtypes</text>
<text text-anchor="start" x="2473.46" y="-318.4" font-family="Arial" font-size="14.00">    </text>
<text text-anchor="start" x="2504.58" y="-318.4" font-family="Arial" font-size="14.00" fill="#666666">[BASE TABLE]</text>
<polygon fill="none" stroke="black" points="2314.99,-274.2 2314.99,-305 2604.95,-305 2604.95,-274.2 2314.99,-274.2"/>
<text text-anchor="start" x="2321.99" y="-286.4" font-family="Arial" font-size="14.00">speleothemtype </text>
<text text-anchor="start" x="2424.72" y="-286.4" font-family="Arial" font-size="14.00" fill="#666666">[varchar(50)]</text>
<polygon fill="none" stroke="black" points="2314.99,-243.4 2314.99,-274.2 2604.95,-274.2 2604.95,-243.4 2314.99,-243.4"/>
<text text-anchor="start" x="2321.99" y="-255.6" font-family="Arial" font-size="14.00">speleothemtypeid </text>
<text text-anchor="start" x="2435.62" y="-255.6" font-family="Arial" font-size="14.00" fill="#666666">[integer]</text>
<polygon fill="none" stroke="black" points="2314.99,-212.6 2314.99,-243.4 2604.95,-243.4 2604.95,-212.6 2314.99,-212.6"/>
<text text-anchor="start" x="2321.99" y="-224.8" font-family="Arial" font-size="14.00">speleothemtypenotes </text>
<text text-anchor="start" x="2458.97" y="-224.8" font-family="Arial" font-size="14.00" fill="#666666">[text]</text>
<polygon fill="none" stroke="black" points="2314.99,-181.8 2314.99,-212.6 2604.95,-212.6 2604.95,-181.8 2314.99,-181.8"/>
<text text-anchor="start" x="2321.99" y="-194" font-family="Arial" font-size="14.00">speleothemtypepublicationid </text>
<text text-anchor="start" x="2502.56" y="-194" font-family="Arial" font-size="14.00" fill="#666666">[integer]</text>
</g>
<!-- ndb.speleothems&#45;&gt;ndb.speleothemtypes -->
<g id="edge14" class="edge">
<title>ndb.speleothems:speleothemtypeid&#45;&gt;ndb.speleothemtypes:speleothemtypeid</title>
<path fill="none" stroke="black" d="M1979.8,-616.72C2054.52,-612.92 2219.65,-571.29 2262.97,-522.4 2342.11,-433.09 2194.66,-258.8 2313.99,-258.8"/>
<polygon fill="black" stroke="black" points="1979.79,-616.72 1969.67,-612.49 1974.45,-616.86 1970.12,-616.98 1970.12,-616.98 1970.12,-616.98 1974.45,-616.86 1969.91,-621.49 1979.79,-616.72"/>
<text text-anchor="start" x="1976.46" y="-627" font-family="Arial" font-size="10.00">FOREIGN KEY (speleothemtypeid) REFERENCES ndb.speleothemtypes(speleothemtypeid)</text>
</g>
<!-- ndb.entitycovers -->
<g id="node3" class="node">
<title>ndb.entitycovers</title>
<polygon fill="#efefef" stroke="none" points="528.99,-1190.8 528.99,-1226.4 786.95,-1226.4 786.95,-1190.8 528.99,-1190.8"/>
<polygon fill="none" stroke="black" points="528.99,-1190.8 528.99,-1226.4 786.95,-1226.4 786.95,-1190.8 528.99,-1190.8"/>
<text text-anchor="start" x="535.99" y="-1204.2" font-family="Arial Bold" font-size="18.00">ndb.entitycovers</text>
<text text-anchor="start" x="655.46" y="-1204.2" font-family="Arial" font-size="14.00">    </text>
<text text-anchor="start" x="686.58" y="-1204.2" font-family="Arial" font-size="14.00" fill="#666666">[BASE TABLE]</text>
<polygon fill="none" stroke="black" points="528.99,-1160 528.99,-1190.8 786.95,-1190.8 786.95,-1160 528.99,-1160"/>
<text text-anchor="start" x="535.99" y="-1172.2" font-family="Arial" font-size="14.00">entitycoverid </text>
<text text-anchor="start" x="618.47" y="-1172.2" font-family="Arial" font-size="14.00" fill="#666666">[integer]</text>
<polygon fill="none" stroke="black" points="528.99,-1129.2 528.99,-1160 786.95,-1160 786.95,-1129.2 528.99,-1129.2"/>
<text text-anchor="start" x="535.99" y="-1141.4" font-family="Arial" font-size="14.00">entitycoverthickness </text>
<text text-anchor="start" x="665.94" y="-1141.4" font-family="Arial" font-size="14.00" fill="#666666">[real]</text>
<polygon fill="none" stroke="black" points="528.99,-1098.4 528.99,-1129.2 786.95,-1129.2 786.95,-1098.4 528.99,-1098.4"/>
<text text-anchor="start" x="535.99" y="-1110.6" font-family="Arial" font-size="14.00">entitycoverunits </text>
<text text-anchor="start" x="637.15" y="-1110.6" font-family="Arial" font-size="14.00" fill="#666666">[integer]</text>
<polygon fill="none" stroke="black" points="528.99,-1067.6 528.99,-1098.4 786.95,-1098.4 786.95,-1067.6 528.99,-1067.6"/>
<text text-anchor="start" x="535.99" y="-1079.8" font-family="Arial" font-size="14.00">entityid </text>
<text text-anchor="start" x="584.24" y="-1079.8" font-family="Arial" font-size="14.00" fill="#666666">[integer]</text>
</g>
<!-- ndb.entitycovers&#45;&gt;ndb.speleothems -->
<g id="edge2" class="edge">
<title>ndb.entitycovers:entityid&#45;&gt;ndb.speleothems:entityid</title>
<path fill="none" stroke="black" d="M798.11,-1081.92C839.4,-1071.97 796.14,-995.98 838.97,-962.8 993.44,-843.16 1513.11,-832.6 1708.49,-832.6"/>
<polygon fill="black" stroke="black" points="798.23,-1081.91 787.81,-1078.49 792.92,-1082.47 788.62,-1082.93 788.62,-1082.93 788.62,-1082.93 792.92,-1082.47 788.76,-1087.44 798.23,-1081.91"/>
<text text-anchor="start" x="583.72" y="-1067" font-family="Arial" font-size="10.00">FOREIGN KEY (entityid) REFERENCES ndb.speleothems(entityid) ON DELETE CASCADE</text>
</g>
<!-- ndb.entitydripheight -->
<g id="node4" class="node">
<title>ndb.entitydripheight</title>
<polygon fill="#efefef" stroke="none" points="891.49,-1190.8 891.49,-1226.4 1176.46,-1226.4 1176.46,-1190.8 891.49,-1190.8"/>
<polygon fill="none" stroke="black" points="891.49,-1190.8 891.49,-1226.4 1176.46,-1226.4 1176.46,-1190.8 891.49,-1190.8"/>
<text text-anchor="start" x="898.49" y="-1204.2" font-family="Arial Bold" font-size="18.00">ndb.entitydripheight</text>
<text text-anchor="start" x="1044.97" y="-1204.2" font-family="Arial" font-size="14.00">    </text>
<text text-anchor="start" x="1076.08" y="-1204.2" font-family="Arial" font-size="14.00" fill="#666666">[BASE TABLE]</text>
<polygon fill="none" stroke="black" points="891.49,-1160 891.49,-1190.8 1176.46,-1190.8 1176.46,-1160 891.49,-1160"/>
<text text-anchor="start" x="898.49" y="-1172.2" font-family="Arial" font-size="14.00">entitydripheight </text>
<text text-anchor="start" x="997.33" y="-1172.2" font-family="Arial" font-size="14.00" fill="#666666">[real]</text>
<polygon fill="none" stroke="black" points="891.49,-1129.2 891.49,-1160 1176.46,-1160 1176.46,-1129.2 891.49,-1129.2"/>
<text text-anchor="start" x="898.49" y="-1141.4" font-family="Arial" font-size="14.00">entitydripheightunit </text>
<text text-anchor="start" x="1019.9" y="-1141.4" font-family="Arial" font-size="14.00" fill="#666666">[integer]</text>
<polygon fill="none" stroke="black" points="891.49,-1098.4 891.49,-1129.2 1176.46,-1129.2 1176.46,-1098.4 891.49,-1098.4"/>
<text text-anchor="start" x="898.49" y="-1110.6" font-family="Arial" font-size="14.00">entityid </text>
<text text-anchor="start" x="946.74" y="-1110.6" font-family="Arial" font-size="14.00" fill="#666666">[integer]</text>
<polygon fill="none" stroke="black" points="891.49,-1067.6 891.49,-1098.4 1176.46,-1098.4 1176.46,-1067.6 891.49,-1067.6"/>
<text text-anchor="start" x="898.49" y="-1079.8" font-family="Arial" font-size="14.00">speleothemdriptypeid </text>
<text text-anchor="start" x="1035.46" y="-1079.8" font-family="Arial" font-size="14.00" fill="#666666">[integer]</text>
</g>
<!-- ndb.entitydripheight&#45;&gt;ndb.speleothems -->
<g id="edge3" class="edge">
<title>ndb.entitydripheight:entityid&#45;&gt;ndb.speleothems:entityid</title>
<path fill="none" stroke="black" d="M1187.86,-1112.91C1240.95,-1102.75 1180.09,-1008.67 1228.97,-962.8 1309.49,-887.25 1598.07,-832.6 1708.49,-832.6"/>
<polygon fill="black" stroke="black" points="1187.75,-1112.92 1177.4,-1109.29 1182.44,-1113.37 1178.12,-1113.74 1178.12,-1113.74 1178.12,-1113.74 1182.44,-1113.37 1178.17,-1118.25 1187.75,-1112.92"/>
<text text-anchor="start" x="973.23" y="-1097.8" font-family="Arial" font-size="10.00">FOREIGN KEY (entityid) REFERENCES ndb.speleothems(entityid) ON DELETE CASCADE</text>
</g>
<!-- ndb.entitylandusecover -->
<g id="node5" class="node">
<title>ndb.entitylandusecover</title>
<polygon fill="#efefef" stroke="none" points="1281,-1190.8 1281,-1226.4 1586.94,-1226.4 1586.94,-1190.8 1281,-1190.8"/>
<polygon fill="none" stroke="black" points="1281,-1190.8 1281,-1226.4 1586.94,-1226.4 1586.94,-1190.8 1281,-1190.8"/>
<text text-anchor="start" x="1288" y="-1204.2" font-family="Arial Bold" font-size="18.00">ndb.entitylandusecover</text>
<text text-anchor="start" x="1455.45" y="-1204.2" font-family="Arial" font-size="14.00">    </text>
<text text-anchor="start" x="1486.57" y="-1204.2" font-family="Arial" font-size="14.00" fill="#666666">[BASE TABLE]</text>
<polygon fill="none" stroke="black" points="1281,-1160 1281,-1190.8 1586.94,-1190.8 1586.94,-1160 1281,-1160"/>
<text text-anchor="start" x="1288" y="-1172.2" font-family="Arial" font-size="14.00">entityid </text>
<text text-anchor="start" x="1336.25" y="-1172.2" font-family="Arial" font-size="14.00" fill="#666666">[integer]</text>
<polygon fill="none" stroke="black" points="1281,-1129.2 1281,-1160 1586.94,-1160 1586.94,-1129.2 1281,-1129.2"/>
<text text-anchor="start" x="1288" y="-1141.4" font-family="Arial" font-size="14.00">landusecovernotes </text>
<text text-anchor="start" x="1409.42" y="-1141.4" font-family="Arial" font-size="14.00" fill="#666666">[text]</text>
<polygon fill="none" stroke="black" points="1281,-1098.4 1281,-1129.2 1586.94,-1129.2 1586.94,-1098.4 1281,-1098.4"/>
<text text-anchor="start" x="1288" y="-1110.6" font-family="Arial" font-size="14.00">landusecoverpercent </text>
<text text-anchor="start" x="1421.86" y="-1110.6" font-family="Arial" font-size="14.00" fill="#666666">[integer]</text>
<polygon fill="none" stroke="black" points="1281,-1067.6 1281,-1098.4 1586.94,-1098.4 1586.94,-1067.6 1281,-1067.6"/>
<text text-anchor="start" x="1288" y="-1079.8" font-family="Arial" font-size="14.00">landusecovertypeid </text>
<text text-anchor="start" x="1412.53" y="-1079.8" font-family="Arial" font-size="14.00" fill="#666666">[integer]</text>
</g>
<!-- ndb.entitylandusecover&#45;&gt;ndb.speleothems -->
<g id="edge4" class="edge">
<title>ndb.entitylandusecover:entityid&#45;&gt;ndb.speleothems:entityid</title>
<path fill="none" stroke="black" d="M1598.04,-1174.9C1679.29,-1166.41 1605.75,-1050.27 1638.97,-962.8 1662.26,-901.48 1642.89,-832.6 1708.49,-832.6"/>
<polygon fill="black" stroke="black" points="1598.26,-1174.89 1588.05,-1170.89 1592.93,-1175.16 1588.61,-1175.37 1588.61,-1175.37 1588.61,-1175.37 1592.93,-1175.16 1588.49,-1179.88 1598.26,-1174.89"/>
<text text-anchor="start" x="1594.94" y="-1185.4" font-family="Arial" font-size="10.00">FOREIGN KEY (entityid) REFERENCES ndb.speleothems(entityid) ON DELETE CASCADE</text>
</g>
<!-- ndb.entityrelationship -->
<g id="node6" class="node">
<title>ndb.entityrelationship</title>
<polygon fill="#efefef" stroke="none" points="1690.99,-1175.4 1690.99,-1211 1986.95,-1211 1986.95,-1175.4 1690.99,-1175.4"/>
<polygon fill="none" stroke="black" points="1690.99,-1175.4 1690.99,-1211 1986.95,-1211 1986.95,-1175.4 1690.99,-1175.4"/>
<text text-anchor="start" x="1697.99" y="-1188.8" font-family="Arial Bold" font-size="18.00">ndb.entityrelationship</text>
<text text-anchor="start" x="1855.46" y="-1188.8" font-family="Arial" font-size="14.00">    </text>
<text text-anchor="start" x="1886.58" y="-1188.8" font-family="Arial" font-size="14.00" fill="#666666">[BASE TABLE]</text>
<polygon fill="none" stroke="black" points="1690.99,-1144.6 1690.99,-1175.4 1986.95,-1175.4 1986.95,-1144.6 1690.99,-1144.6"/>
<text text-anchor="start" x="1697.99" y="-1156.8" font-family="Arial" font-size="14.00">entityid </text>
<text text-anchor="start" x="1746.24" y="-1156.8" font-family="Arial" font-size="14.00" fill="#666666">[integer]</text>
<polygon fill="none" stroke="black" points="1690.99,-1113.8 1690.99,-1144.6 1986.95,-1144.6 1986.95,-1113.8 1690.99,-1113.8"/>
<text text-anchor="start" x="1697.99" y="-1126" font-family="Arial" font-size="14.00">entitystatusid </text>
<text text-anchor="start" x="1783.59" y="-1126" font-family="Arial" font-size="14.00" fill="#666666">[integer]</text>
<polygon fill="none" stroke="black" points="1690.99,-1083 1690.99,-1113.8 1986.95,-1113.8 1986.95,-1083 1690.99,-1083"/>
<text text-anchor="start" x="1697.99" y="-1095.2" font-family="Arial" font-size="14.00">referenceentityid </text>
<text text-anchor="start" x="1805.38" y="-1095.2" font-family="Arial" font-size="14.00" fill="#666666">[integer]</text>
</g>
<!-- ndb.entityrelationship&#45;&gt;ndb.speleothems -->
<g id="edge5" class="edge">
<title>ndb.entityrelationship:entityid&#45;&gt;ndb.speleothems:entityid</title>
<path fill="none" stroke="black" d="M1997.98,-1157.73C2058.89,-1128.81 2038.77,-832.6 1969.46,-832.6"/>
<polygon fill="black" stroke="black" points="1998.03,-1157.72 1987.29,-1155.54 1992.83,-1158.9 1988.61,-1159.85 1988.61,-1159.85 1988.61,-1159.85 1992.83,-1158.9 1989.27,-1164.32 1998.03,-1157.72"/>
<text text-anchor="start" x="1839.01" y="-1144" font-family="Arial" font-size="10.00">FOREIGN KEY (entityid) REFERENCES ndb.speleothems(entityid)</text>
</g>
<!-- ndb.entityrelationship&#45;&gt;ndb.speleothems -->
<g id="edge6" class="edge">
<title>ndb.entityrelationship:referenceentityid&#45;&gt;ndb.speleothems:entityid</title>
<path fill="none" stroke="black" d="M1839.41,-1071.96C1846.56,-993.49 1938.62,-1007.8 1968.46,-926.8 1982.93,-887.51 2011.33,-832.6 1969.46,-832.6"/>
<polygon fill="black" stroke="black" points="1839.42,-1071.68 1834.49,-1081.47 1839.19,-1077 1839,-1081.33 1839,-1081.33 1839,-1081.33 1839.19,-1077 1843.48,-1081.86 1839.42,-1071.68"/>
<text text-anchor="start" x="1491.85" y="-1092" font-family="Arial" font-size="10.00">FOREIGN KEY (referenceentityid) REFERENCES ndb.speleothems(entityid)</text>
</g>
<!-- ndb.entitysamples -->
<g id="node7" class="node">
<title>ndb.entitysamples</title>
<polygon fill="#efefef" stroke="none" points="2091.49,-1252.4 2091.49,-1288 2360.46,-1288 2360.46,-1252.4 2091.49,-1252.4"/>
<polygon fill="none" stroke="black" points="2091.49,-1252.4 2091.49,-1288 2360.46,-1288 2360.46,-1252.4 2091.49,-1252.4"/>
<text text-anchor="start" x="2098.49" y="-1265.8" font-family="Arial Bold" font-size="18.00">ndb.entitysamples</text>
<text text-anchor="start" x="2228.97" y="-1265.8" font-family="Arial" font-size="14.00">    </text>
<text text-anchor="start" x="2260.08" y="-1265.8" font-family="Arial" font-size="14.00" fill="#666666">[BASE TABLE]</text>
<polygon fill="none" stroke="black" points="2091.49,-1221.6 2091.49,-1252.4 2360.46,-1252.4 2360.46,-1221.6 2091.49,-1221.6"/>
<text text-anchor="start" x="2098.49" y="-1233.8" font-family="Arial" font-size="14.00">c14 </text>
<text text-anchor="start" x="2124.95" y="-1233.8" font-family="Arial" font-size="14.00" fill="#666666">[boolean]</text>
<polygon fill="none" stroke="black" points="2091.49,-1190.8 2091.49,-1221.6 2360.46,-1221.6 2360.46,-1190.8 2091.49,-1190.8"/>
<text text-anchor="start" x="2098.49" y="-1203" font-family="Arial" font-size="14.00">clumped_isotopes </text>
<text text-anchor="start" x="2215.22" y="-1203" font-family="Arial" font-size="14.00" fill="#666666">[boolean]</text>
<polygon fill="none" stroke="black" points="2091.49,-1160 2091.49,-1190.8 2360.46,-1190.8 2360.46,-1160 2091.49,-1160"/>
<text text-anchor="start" x="2098.49" y="-1172.2" font-family="Arial" font-size="14.00">entityid </text>
<text text-anchor="start" x="2146.73" y="-1172.2" font-family="Arial" font-size="14.00" fill="#666666">[integer]</text>
<polygon fill="none" stroke="black" points="2091.49,-1129.2 2091.49,-1160 2360.46,-1160 2360.46,-1129.2 2091.49,-1129.2"/>
<text text-anchor="start" x="2098.49" y="-1141.4" font-family="Arial" font-size="14.00">fluid_inclusions </text>
<text text-anchor="start" x="2197.32" y="-1141.4" font-family="Arial" font-size="14.00" fill="#666666">[boolean]</text>
<polygon fill="none" stroke="black" points="2091.49,-1098.4 2091.49,-1129.2 2360.46,-1129.2 2360.46,-1098.4 2091.49,-1098.4"/>
<text text-anchor="start" x="2098.49" y="-1110.6" font-family="Arial" font-size="14.00">mineralogy_petrology_fabric </text>
<text text-anchor="start" x="2278.25" y="-1110.6" font-family="Arial" font-size="14.00" fill="#666666">[boolean]</text>
<polygon fill="none" stroke="black" points="2091.49,-1067.6 2091.49,-1098.4 2360.46,-1098.4 2360.46,-1067.6 2091.49,-1067.6"/>
<text text-anchor="start" x="2098.49" y="-1079.8" font-family="Arial" font-size="14.00">noble_gas_temperatures </text>
<text text-anchor="start" x="2257.26" y="-1079.8" font-family="Arial" font-size="14.00" fill="#666666">[boolean]</text>
<polygon fill="none" stroke="black" points="2091.49,-1036.8 2091.49,-1067.6 2360.46,-1067.6 2360.46,-1036.8 2091.49,-1036.8"/>
<text text-anchor="start" x="2098.49" y="-1049" font-family="Arial" font-size="14.00">odl </text>
<text text-anchor="start" x="2121.06" y="-1049" font-family="Arial" font-size="14.00" fill="#666666">[boolean]</text>
<polygon fill="none" stroke="black" points="2091.49,-1006 2091.49,-1036.8 2360.46,-1036.8 2360.46,-1006 2091.49,-1006"/>
<text text-anchor="start" x="2098.49" y="-1018.2" font-family="Arial" font-size="14.00">organics </text>
<text text-anchor="start" x="2155.29" y="-1018.2" font-family="Arial" font-size="14.00" fill="#666666">[boolean]</text>
</g>
<!-- ndb.entitysamples&#45;&gt;ndb.speleothems -->
<g id="edge7" class="edge">
<title>ndb.entitysamples:entityid&#45;&gt;ndb.speleothems:entityid</title>
<path fill="none" stroke="black" d="M2080.38,-1174.9C1999.07,-1166.41 2072.31,-1050.28 2038.97,-962.8 2015.61,-901.5 2035.05,-832.6 1969.46,-832.6"/>
<polygon fill="black" stroke="black" points="2080.16,-1174.89 2089.93,-1179.88 2085.49,-1175.16 2089.82,-1175.37 2089.82,-1175.37 2089.82,-1175.37 2085.49,-1175.16 2090.37,-1170.89 2080.16,-1174.89"/>
<text text-anchor="start" x="2097.49" y="-1185.4" font-family="Arial" font-size="10.00">FOREIGN KEY (entityid) REFERENCES ndb.speleothems(entityid)</text>
</g>
<!-- ndb.entityvegetationcover -->
<g id="node8" class="node">
<title>ndb.entityvegetationcover</title>
<polygon fill="#efefef" stroke="none" points="2465.01,-1190.8 2465.01,-1226.4 2790.93,-1226.4 2790.93,-1190.8 2465.01,-1190.8"/>
<polygon fill="none" stroke="black" points="2465.01,-1190.8 2465.01,-1226.4 2790.93,-1226.4 2790.93,-1190.8 2465.01,-1190.8"/>
<text text-anchor="start" x="2472.01" y="-1204.2" font-family="Arial Bold" font-size="18.00">ndb.entityvegetationcover</text>
<text text-anchor="start" x="2659.44" y="-1204.2" font-family="Arial" font-size="14.00">    </text>
<text text-anchor="start" x="2690.56" y="-1204.2" font-family="Arial" font-size="14.00" fill="#666666">[BASE TABLE]</text>
<polygon fill="none" stroke="black" points="2465.01,-1160 2465.01,-1190.8 2790.93,-1190.8 2790.93,-1160 2465.01,-1160"/>
<text text-anchor="start" x="2472.01" y="-1172.2" font-family="Arial" font-size="14.00">entityid </text>
<text text-anchor="start" x="2520.26" y="-1172.2" font-family="Arial" font-size="14.00" fill="#666666">[integer]</text>
<polygon fill="none" stroke="black" points="2465.01,-1129.2 2465.01,-1160 2790.93,-1160 2790.93,-1129.2 2465.01,-1129.2"/>
<text text-anchor="start" x="2472.01" y="-1141.4" font-family="Arial" font-size="14.00">vegetationcovernotes </text>
<text text-anchor="start" x="2608.99" y="-1141.4" font-family="Arial" font-size="14.00" fill="#666666">[text]</text>
<polygon fill="none" stroke="black" points="2465.01,-1098.4 2465.01,-1129.2 2790.93,-1129.2 2790.93,-1098.4 2465.01,-1098.4"/>
<text text-anchor="start" x="2472.01" y="-1110.6" font-family="Arial" font-size="14.00">vegetationcoverpercent </text>
<text text-anchor="start" x="2621.44" y="-1110.6" font-family="Arial" font-size="14.00" fill="#666666">[integer]</text>
<polygon fill="none" stroke="black" points="2465.01,-1067.6 2465.01,-1098.4 2790.93,-1098.4 2790.93,-1067.6 2465.01,-1067.6"/>
<text text-anchor="start" x="2472.01" y="-1079.8" font-family="Arial" font-size="14.00">vegetationcovertypeid </text>
<text text-anchor="start" x="2612.1" y="-1079.8" font-family="Arial" font-size="14.00" fill="#666666">[integer]</text>
</g>
<!-- ndb.entityvegetationcover&#45;&gt;ndb.speleothems -->
<g id="edge8" class="edge">
<title>ndb.entityvegetationcover:entityid&#45;&gt;ndb.speleothems:entityid</title>
<path fill="none" stroke="black" d="M2454.04,-1174.82C2374.98,-1164.95 2477.46,-1030.59 2412.97,-962.8 2342.17,-888.38 2072.17,-832.6 1969.46,-832.6"/>
<polygon fill="black" stroke="black" points="2453.69,-1174.8 2463.42,-1179.87 2459.02,-1175.11 2463.34,-1175.36 2463.34,-1175.36 2463.34,-1175.36 2459.02,-1175.11 2463.93,-1170.89 2453.69,-1174.8"/>
<text text-anchor="start" x="2154.17" y="-1159.4" font-family="Arial" font-size="10.00">FOREIGN KEY (entityid) REFERENCES ndb.speleothems(entityid) ON DELETE CASCADE</text>
</g>
<!-- ndb.externalspeleothemdata -->
<g id="node9" class="node">
<title>ndb.externalspeleothemdata</title>
<polygon fill="#efefef" stroke="none" points="2895.02,-1190.8 2895.02,-1226.4 3234.93,-1226.4 3234.93,-1190.8 2895.02,-1190.8"/>
<polygon fill="none" stroke="black" points="2895.02,-1190.8 2895.02,-1226.4 3234.93,-1226.4 3234.93,-1190.8 2895.02,-1190.8"/>
<text text-anchor="start" x="2902.02" y="-1204.2" font-family="Arial Bold" font-size="18.00">ndb.externalspeleothemdata</text>
<text text-anchor="start" x="3103.44" y="-1204.2" font-family="Arial" font-size="14.00">    </text>
<text text-anchor="start" x="3134.55" y="-1204.2" font-family="Arial" font-size="14.00" fill="#666666">[BASE TABLE]</text>
<polygon fill="none" stroke="black" points="2895.02,-1160 2895.02,-1190.8 3234.93,-1190.8 3234.93,-1160 2895.02,-1160"/>
<text text-anchor="start" x="2902.02" y="-1172.2" font-family="Arial" font-size="14.00">entityid </text>
<text text-anchor="start" x="2950.27" y="-1172.2" font-family="Arial" font-size="14.00" fill="#666666">[integer]</text>
<polygon fill="none" stroke="black" points="2895.02,-1129.2 2895.02,-1160 3234.93,-1160 3234.93,-1129.2 2895.02,-1129.2"/>
<text text-anchor="start" x="2902.02" y="-1141.4" font-family="Arial" font-size="14.00">extdatabaseid </text>
<text text-anchor="start" x="2993.09" y="-1141.4" font-family="Arial" font-size="14.00" fill="#666666">[integer]</text>
<polygon fill="none" stroke="black" points="2895.02,-1098.4 2895.02,-1129.2 3234.93,-1129.2 3234.93,-1098.4 2895.02,-1098.4"/>
<text text-anchor="start" x="2902.02" y="-1110.6" font-family="Arial" font-size="14.00">externaldescription </text>
<text text-anchor="start" x="3023.42" y="-1110.6" font-family="Arial" font-size="14.00" fill="#666666">[text]</text>
<polygon fill="none" stroke="black" points="2895.02,-1067.6 2895.02,-1098.4 3234.93,-1098.4 3234.93,-1067.6 2895.02,-1067.6"/>
<text text-anchor="start" x="2902.02" y="-1079.8" font-family="Arial" font-size="14.00">externalid </text>
<text text-anchor="start" x="2966.61" y="-1079.8" font-family="Arial" font-size="14.00" fill="#666666">[text]</text>
</g>
<!-- ndb.externalspeleothemdata&#45;&gt;ndb.speleothems -->
<g id="edge9" class="edge">
<title>ndb.externalspeleothemdata:entityid&#45;&gt;ndb.speleothems:entityid</title>
<path fill="none" stroke="black" d="M2884.07,-1174.8C2805.32,-1164.6 2911.97,-1026 2842.97,-962.8 2770.61,-896.52 2067.59,-832.6 1969.46,-832.6"/>
<polygon fill="black" stroke="black" points="2883.7,-1174.78 2893.41,-1179.87 2889.03,-1175.1 2893.35,-1175.36 2893.35,-1175.36 2893.35,-1175.36 2889.03,-1175.1 2893.95,-1170.89 2883.7,-1174.78"/>
<text text-anchor="start" x="2901.02" y="-1185.4" font-family="Arial" font-size="10.00">FOREIGN KEY (entityid) REFERENCES ndb.speleothems(entityid) ON DELETE CASCADE</text>
</g>
<!-- ndb.speleothemcollectionunits -->
<g id="node10" class="node">
<title>ndb.speleothemcollectionunits</title>
<polygon fill="#efefef" stroke="none" points="3339,-1175.4 3339,-1211 3696.94,-1211 3696.94,-1175.4 3339,-1175.4"/>
<polygon fill="none" stroke="black" points="3339,-1175.4 3339,-1211 3696.94,-1211 3696.94,-1175.4 3339,-1175.4"/>
<text text-anchor="start" x="3346" y="-1188.8" font-family="Arial Bold" font-size="18.00">ndb.speleothemcollectionunits</text>
<text text-anchor="start" x="3565.45" y="-1188.8" font-family="Arial" font-size="14.00">    </text>
<text text-anchor="start" x="3596.57" y="-1188.8" font-family="Arial" font-size="14.00" fill="#666666">[BASE TABLE]</text>
<polygon fill="none" stroke="black" points="3339,-1144.6 3339,-1175.4 3696.94,-1175.4 3696.94,-1144.6 3339,-1144.6"/>
<text text-anchor="start" x="3346" y="-1156.8" font-family="Arial" font-size="14.00">collectionunitid </text>
<text text-anchor="start" x="3441.72" y="-1156.8" font-family="Arial" font-size="14.00" fill="#666666">[integer]</text>
<polygon fill="none" stroke="black" points="3339,-1113.8 3339,-1144.6 3696.94,-1144.6 3696.94,-1113.8 3339,-1113.8"/>
<text text-anchor="start" x="3346" y="-1126" font-family="Arial" font-size="14.00">entityid </text>
<text text-anchor="start" x="3394.25" y="-1126" font-family="Arial" font-size="14.00" fill="#666666">[integer]</text>
<polygon fill="none" stroke="black" points="3339,-1083 3339,-1113.8 3696.94,-1113.8 3696.94,-1083 3339,-1083"/>
<text text-anchor="start" x="3346" y="-1095.2" font-family="Arial" font-size="14.00">persistid </text>
<text text-anchor="start" x="3402.02" y="-1095.2" font-family="Arial" font-size="14.00" fill="#666666">[text]</text>
</g>
<!-- ndb.speleothemcollectionunits&#45;&gt;ndb.speleothems -->
<g id="edge10" class="edge">
<title>ndb.speleothemcollectionunits:entityid&#45;&gt;ndb.speleothems:entityid</title>
<path fill="none" stroke="black" d="M3327.8,-1128.38C3268.71,-1117.9 3343.91,-1009.4 3286.97,-962.8 3173.13,-869.63 2116.56,-832.6 1969.46,-832.6"/>
<polygon fill="black" stroke="black" points="3327.7,-1128.37 3337.31,-1133.66 3333.02,-1128.8 3337.33,-1129.15 3337.33,-1129.15 3337.33,-1129.15 3333.02,-1128.8 3338.03,-1124.69 3327.7,-1128.37"/>
<text text-anchor="start" x="3345" y="-1139.2" font-family="Arial" font-size="10.00">FOREIGN KEY (entityid) REFERENCES ndb.speleothems(entityid) ON DELETE CASCADE</text>
</g>
</g>
</svg>
