<?xml version="1.0" encoding="UTF-8" standalone="no"?>
<!DOCTYPE svg PUBLIC "-//W3C//DTD SVG 1.1//EN"
 "http://www.w3.org/Graphics/SVG/1.1/DTD/svg11.dtd">
<!-- Generated by graphviz version 12.1.2 (20240928.0832)
 -->
<!-- Title: ndb.isobiomarkerbandtypes Pages: 1 -->
<svg width="1057pt" height="571pt"
 viewBox="0.00 0.00 1056.77 571.20" xmlns="http://www.w3.org/2000/svg" xmlns:xlink="http://www.w3.org/1999/xlink">
<g id="graph0" class="graph" transform="scale(1 1) rotate(0) translate(4 567.2)">
<title>ndb.isobiomarkerbandtypes</title>
<polygon fill="white" stroke="none" points="-4,4 -4,-567.2 1052.77,-567.2 1052.77,4 -4,4"/>
<!-- ndb.isobiomarkerbandtypes -->
<g id="node1" class="node">
<title>ndb.isobiomarkerbandtypes</title>
<polygon fill="#efefef" stroke="none" points="46.2,-481.4 46.2,-517 384.15,-517 384.15,-481.4 46.2,-481.4"/>
<polygon fill="none" stroke="black" points="46.2,-481.4 46.2,-517 384.15,-517 384.15,-481.4 46.2,-481.4"/>
<text text-anchor="start" x="53.2" y="-494.8" font-family="Arial Bold" font-size="18.00">ndb.isobiomarkerbandtypes</text>
<text text-anchor="start" x="252.66" y="-494.8" font-family="Arial" font-size="14.00">    </text>
<text text-anchor="start" x="283.78" y="-494.8" font-family="Arial" font-size="14.00" fill="#666666">[BASE TABLE]</text>
<polygon fill="none" stroke="black" points="46.2,-450.6 46.2,-481.4 384.15,-481.4 384.15,-450.6 46.2,-450.6"/>
<text text-anchor="start" x="53.2" y="-462.8" font-family="Arial" font-size="14.00">isobiomarkerbandtype </text>
<text text-anchor="start" x="194.83" y="-462.8" font-family="Arial" font-size="14.00" fill="#666666">[varchar(50)]</text>
<polygon fill="none" stroke="black" points="46.2,-419.8 46.2,-450.6 384.15,-450.6 384.15,-419.8 46.2,-419.8"/>
<text text-anchor="start" x="53.2" y="-432" font-family="Arial" font-size="14.00">isobiomarkerbandtypeid </text>
<text text-anchor="start" x="205.73" y="-432" font-family="Arial" font-size="14.00" fill="#666666">[integer]</text>
<polygon fill="none" stroke="black" points="46.2,-389 46.2,-419.8 384.15,-419.8 384.15,-389 46.2,-389"/>
<text text-anchor="start" x="53.2" y="-401.2" font-family="Arial" font-size="14.00">isobiomarkertypeid </text>
<text text-anchor="start" x="174.59" y="-401.2" font-family="Arial" font-size="14.00" fill="#666666">[integer]</text>
<polygon fill="none" stroke="black" points="46.2,-358.2 46.2,-389 384.15,-389 384.15,-358.2 46.2,-358.2"/>
<text text-anchor="start" x="53.2" y="-370.4" font-family="Arial" font-size="14.00">recdatecreated </text>
<text text-anchor="start" x="150.48" y="-370.4" font-family="Arial" font-size="14.00" fill="#666666">[timestamp(0) without time zone]</text>
<polygon fill="none" stroke="black" points="46.2,-327.4 46.2,-358.2 384.15,-358.2 384.15,-327.4 46.2,-327.4"/>
<text text-anchor="start" x="53.2" y="-339.6" font-family="Arial" font-size="14.00">recdatemodified </text>
<text text-anchor="start" x="156.7" y="-339.6" font-family="Arial" font-size="14.00" fill="#666666">[timestamp(0) without time zone]</text>
<polygon fill="none" stroke="black" stroke-width="3" points="44.7,-325.9 44.7,-518.5 385.65,-518.5 385.65,-325.9 44.7,-325.9"/>
</g>
<!-- ndb.isobiomarkertypes -->
<g id="node2" class="node">
<title>ndb.isobiomarkertypes</title>
<polygon fill="#efefef" stroke="none" points="55.27,-166.4 55.27,-202 375.07,-202 375.07,-166.4 55.27,-166.4"/>
<polygon fill="none" stroke="black" points="55.27,-166.4 55.27,-202 375.07,-202 375.07,-166.4 55.27,-166.4"/>
<text text-anchor="start" x="70.69" y="-179.8" font-family="Arial Bold" font-size="18.00">ndb.isobiomarkertypes</text>
<text text-anchor="start" x="235.16" y="-179.8" font-family="Arial" font-size="14.00">    </text>
<text text-anchor="start" x="266.28" y="-179.8" font-family="Arial" font-size="14.00" fill="#666666">[BASE TABLE]</text>
<polygon fill="none" stroke="black" points="55.27,-135.6 55.27,-166.4 375.07,-166.4 375.07,-135.6 55.27,-135.6"/>
<text text-anchor="start" x="62.27" y="-147.8" font-family="Arial" font-size="14.00">isobiomarkertype </text>
<text text-anchor="start" x="172.76" y="-147.8" font-family="Arial" font-size="14.00" fill="#666666">[varchar(50)]</text>
<polygon fill="none" stroke="black" points="55.27,-104.8 55.27,-135.6 375.07,-135.6 375.07,-104.8 55.27,-104.8"/>
<text text-anchor="start" x="62.27" y="-117" font-family="Arial" font-size="14.00">isobiomarkertypeid </text>
<text text-anchor="start" x="183.66" y="-117" font-family="Arial" font-size="14.00" fill="#666666">[integer]</text>
<polygon fill="none" stroke="black" points="55.27,-74 55.27,-104.8 375.07,-104.8 375.07,-74 55.27,-74"/>
<text text-anchor="start" x="62.27" y="-86.2" font-family="Arial" font-size="14.00">recdatecreated </text>
<text text-anchor="start" x="159.56" y="-86.2" font-family="Arial" font-size="14.00" fill="#666666">[timestamp(0) without time zone]</text>
<polygon fill="none" stroke="black" points="55.27,-43.2 55.27,-74 375.07,-74 375.07,-43.2 55.27,-43.2"/>
<text text-anchor="start" x="62.27" y="-55.4" font-family="Arial" font-size="14.00">recdatemodified </text>
<text text-anchor="start" x="165.78" y="-55.4" font-family="Arial" font-size="14.00" fill="#666666">[timestamp(0) without time zone]</text>
</g>
<!-- ndb.isobiomarkerbandtypes&#45;&gt;ndb.isobiomarkertypes -->
<g id="edge1" class="edge">
<title>ndb.isobiomarkerbandtypes:isobiomarkertypeid&#45;&gt;ndb.isobiomarkertypes:isobiomarkertypeid</title>
<path fill="none" stroke="black" d="M395.19,-401.77C447.13,-373.12 435.68,-120.2 376.07,-120.2"/>
<polygon fill="black" stroke="black" points="395.15,-401.78 384.33,-399.96 389.98,-403.13 385.8,-404.23 385.8,-404.23 385.8,-404.23 389.98,-403.13 386.61,-408.67 395.15,-401.78"/>
<text text-anchor="start" x="392.15" y="-414.4" font-family="Arial" font-size="10.00">FOREIGN KEY (isobiomarkertypeid) REFERENCES ndb.isobiomarkertypes(isobiomarkertypeid) ON UPDATE CASCADE ON DELETE CASCADE</text>
</g>
</g>
</svg>
