<?xml version="1.0" encoding="UTF-8" standalone="no"?>
<!DOCTYPE svg PUBLIC "-//W3C//DTD SVG 1.1//EN"
 "http://www.w3.org/Graphics/SVG/1.1/DTD/svg11.dtd">
<!-- Generated by graphviz version 12.1.2 (20240928.0832)
 -->
<!-- Title: ndb.geopoliticalunits Pages: 1 -->
<svg width="1423pt" height="2198pt"
 viewBox="0.00 0.00 1423.03 2197.60" xmlns="http://www.w3.org/2000/svg" xmlns:xlink="http://www.w3.org/1999/xlink">
<g id="graph0" class="graph" transform="scale(1 1) rotate(0) translate(4 2193.6)">
<title>ndb.geopoliticalunits</title>
<polygon fill="white" stroke="none" points="-4,4 -4,-2193.6 1419.03,-2193.6 1419.03,4 -4,4"/>
<!-- ndb.geopoliticalunits -->
<g id="node1" class="node">
<title>ndb.geopoliticalunits</title>
<polygon fill="#efefef" stroke="none" points="185.35,-1013.4 185.35,-1049 505.15,-1049 505.15,-1013.4 185.35,-1013.4"/>
<polygon fill="none" stroke="black" points="185.35,-1013.4 185.35,-1049 505.15,-1049 505.15,-1013.4 185.35,-1013.4"/>
<text text-anchor="start" x="207.27" y="-1026.8" font-family="Arial Bold" font-size="18.00">ndb.geopoliticalunits</text>
<text text-anchor="start" x="358.75" y="-1026.8" font-family="Arial" font-size="14.00">    </text>
<text text-anchor="start" x="389.86" y="-1026.8" font-family="Arial" font-size="14.00" fill="#666666">[BASE TABLE]</text>
<polygon fill="none" stroke="black" points="185.35,-982.6 185.35,-1013.4 505.15,-1013.4 505.15,-982.6 185.35,-982.6"/>
<text text-anchor="start" x="192.35" y="-994.8" font-family="Arial" font-size="14.00">geopoliticalid </text>
<text text-anchor="start" x="277.18" y="-994.8" font-family="Arial" font-size="14.00" fill="#666666">[integer]</text>
<polygon fill="none" stroke="black" points="185.35,-951.8 185.35,-982.6 505.15,-982.6 505.15,-951.8 185.35,-951.8"/>
<text text-anchor="start" x="192.35" y="-964" font-family="Arial" font-size="14.00">geopoliticalname </text>
<text text-anchor="start" x="301.31" y="-964" font-family="Arial" font-size="14.00" fill="#666666">[varchar(255)]</text>
<polygon fill="none" stroke="black" points="185.35,-921 185.35,-951.8 505.15,-951.8 505.15,-921 185.35,-921"/>
<text text-anchor="start" x="192.35" y="-933.2" font-family="Arial" font-size="14.00">geopoliticalunit </text>
<text text-anchor="start" x="288.86" y="-933.2" font-family="Arial" font-size="14.00" fill="#666666">[varchar(255)]</text>
<polygon fill="none" stroke="black" points="185.35,-890.2 185.35,-921 505.15,-921 505.15,-890.2 185.35,-890.2"/>
<text text-anchor="start" x="192.35" y="-902.4" font-family="Arial" font-size="14.00">rank </text>
<text text-anchor="start" x="223.47" y="-902.4" font-family="Arial" font-size="14.00" fill="#666666">[integer]</text>
<polygon fill="none" stroke="black" points="185.35,-859.4 185.35,-890.2 505.15,-890.2 505.15,-859.4 185.35,-859.4"/>
<text text-anchor="start" x="192.35" y="-871.6" font-family="Arial" font-size="14.00">highergeopoliticalid </text>
<text text-anchor="start" x="316.1" y="-871.6" font-family="Arial" font-size="14.00" fill="#666666">[integer]</text>
<polygon fill="none" stroke="black" points="185.35,-828.6 185.35,-859.4 505.15,-859.4 505.15,-828.6 185.35,-828.6"/>
<text text-anchor="start" x="192.35" y="-840.8" font-family="Arial" font-size="14.00">recdatecreated </text>
<text text-anchor="start" x="289.63" y="-840.8" font-family="Arial" font-size="14.00" fill="#666666">[timestamp(0) without time zone]</text>
<polygon fill="none" stroke="black" points="185.35,-797.8 185.35,-828.6 505.15,-828.6 505.15,-797.8 185.35,-797.8"/>
<text text-anchor="start" x="192.35" y="-810" font-family="Arial" font-size="14.00">recdatemodified </text>
<text text-anchor="start" x="295.85" y="-810" font-family="Arial" font-size="14.00" fill="#666666">[timestamp(0) without time zone]</text>
<polygon fill="none" stroke="black" stroke-width="3" points="183.85,-796.3 183.85,-1050.5 506.65,-1050.5 506.65,-796.3 183.85,-796.3"/>
</g>
<!-- ndb.sitegeopolitical -->
<g id="node2" class="node">
<title>ndb.sitegeopolitical</title>
<polygon fill="#efefef" stroke="none" points="612.35,-2110.8 612.35,-2146.4 932.15,-2146.4 932.15,-2110.8 612.35,-2110.8"/>
<polygon fill="none" stroke="black" points="612.35,-2110.8 612.35,-2146.4 932.15,-2146.4 932.15,-2110.8 612.35,-2110.8"/>
<text text-anchor="start" x="639.27" y="-2124.2" font-family="Arial Bold" font-size="18.00">ndb.sitegeopolitical</text>
<text text-anchor="start" x="780.74" y="-2124.2" font-family="Arial" font-size="14.00">    </text>
<text text-anchor="start" x="811.86" y="-2124.2" font-family="Arial" font-size="14.00" fill="#666666">[BASE TABLE]</text>
<polygon fill="none" stroke="black" points="612.35,-2080 612.35,-2110.8 932.15,-2110.8 932.15,-2080 612.35,-2080"/>
<text text-anchor="start" x="619.35" y="-2092.2" font-family="Arial" font-size="14.00">sitegeopoliticalid </text>
<text text-anchor="start" x="725.97" y="-2092.2" font-family="Arial" font-size="14.00" fill="#666666">[integer]</text>
<polygon fill="none" stroke="black" points="612.35,-2049.2 612.35,-2080 932.15,-2080 932.15,-2049.2 612.35,-2049.2"/>
<text text-anchor="start" x="619.35" y="-2061.4" font-family="Arial" font-size="14.00">siteid </text>
<text text-anchor="start" x="655.92" y="-2061.4" font-family="Arial" font-size="14.00" fill="#666666">[integer]</text>
<polygon fill="none" stroke="black" points="612.35,-2018.4 612.35,-2049.2 932.15,-2049.2 932.15,-2018.4 612.35,-2018.4"/>
<text text-anchor="start" x="619.35" y="-2030.6" font-family="Arial" font-size="14.00">geopoliticalid </text>
<text text-anchor="start" x="704.18" y="-2030.6" font-family="Arial" font-size="14.00" fill="#666666">[integer]</text>
<polygon fill="none" stroke="black" points="612.35,-1987.6 612.35,-2018.4 932.15,-2018.4 932.15,-1987.6 612.35,-1987.6"/>
<text text-anchor="start" x="619.35" y="-1999.8" font-family="Arial" font-size="14.00">recdatecreated </text>
<text text-anchor="start" x="716.63" y="-1999.8" font-family="Arial" font-size="14.00" fill="#666666">[timestamp(0) without time zone]</text>
<polygon fill="none" stroke="black" points="612.35,-1956.8 612.35,-1987.6 932.15,-1987.6 932.15,-1956.8 612.35,-1956.8"/>
<text text-anchor="start" x="619.35" y="-1969" font-family="Arial" font-size="14.00">recdatemodified </text>
<text text-anchor="start" x="722.85" y="-1969" font-family="Arial" font-size="14.00" fill="#666666">[timestamp(0) without time zone]</text>
<polygon fill="none" stroke="black" points="612.35,-1926 612.35,-1956.8 932.15,-1956.8 932.15,-1926 612.35,-1926"/>
<text text-anchor="start" x="619.35" y="-1938.2" font-family="Arial" font-size="14.00">objectid </text>
<text text-anchor="start" x="671.5" y="-1938.2" font-family="Arial" font-size="14.00" fill="#666666">[integer]</text>
</g>
<!-- ndb.sitegeopolitical&#45;&gt;ndb.geopoliticalunits -->
<g id="edge1" class="edge">
<title>ndb.sitegeopolitical:geopoliticalid&#45;&gt;ndb.geopoliticalunits:geopoliticalid</title>
<path fill="none" stroke="black" d="M600.98,-2033.24C529.31,-2025.06 573.81,-1928.13 560.25,-1846.8 552.48,-1800.19 553.4,-998 506.15,-998"/>
<polygon fill="black" stroke="black" points="601.03,-2033.25 610.78,-2038.28 606.36,-2033.53 610.68,-2033.76 610.68,-2033.76 610.68,-2033.76 606.36,-2033.53 611.26,-2029.29 601.03,-2033.25"/>
<text text-anchor="start" x="523.7" y="-2017.8" font-family="Arial" font-size="10.00">FOREIGN KEY (geopoliticalid) REFERENCES ndb.geopoliticalunits(geopoliticalid)</text>
</g>
<!-- ndb.sites -->
<g id="node3" class="node">
<title>ndb.sites</title>
<polygon fill="#efefef" stroke="none" points="612.35,-1105.8 612.35,-1141.4 932.15,-1141.4 932.15,-1105.8 612.35,-1105.8"/>
<polygon fill="none" stroke="black" points="612.35,-1105.8 612.35,-1141.4 932.15,-1141.4 932.15,-1105.8 612.35,-1105.8"/>
<text text-anchor="start" x="678.25" y="-1119.2" font-family="Arial Bold" font-size="18.00">ndb.sites</text>
<text text-anchor="start" x="741.76" y="-1119.2" font-family="Arial" font-size="14.00">    </text>
<text text-anchor="start" x="772.87" y="-1119.2" font-family="Arial" font-size="14.00" fill="#666666">[BASE TABLE]</text>
<polygon fill="none" stroke="black" points="612.35,-1075 612.35,-1105.8 932.15,-1105.8 932.15,-1075 612.35,-1075"/>
<text text-anchor="start" x="619.35" y="-1087.2" font-family="Arial" font-size="14.00">siteid </text>
<text text-anchor="start" x="655.92" y="-1087.2" font-family="Arial" font-size="14.00" fill="#666666">[integer]</text>
<polygon fill="none" stroke="black" points="612.35,-1044.2 612.35,-1075 932.15,-1075 932.15,-1044.2 612.35,-1044.2"/>
<text text-anchor="start" x="619.35" y="-1056.4" font-family="Arial" font-size="14.00">sitename </text>
<text text-anchor="start" x="680.05" y="-1056.4" font-family="Arial" font-size="14.00" fill="#666666">[varchar(128)]</text>
<polygon fill="none" stroke="black" points="612.35,-1013.4 612.35,-1044.2 932.15,-1044.2 932.15,-1013.4 612.35,-1013.4"/>
<text text-anchor="start" x="619.35" y="-1025.6" font-family="Arial" font-size="14.00">longitudeeast </text>
<text text-anchor="start" x="706.53" y="-1025.6" font-family="Arial" font-size="14.00" fill="#666666">[double precision]</text>
<polygon fill="none" stroke="black" points="612.35,-982.6 612.35,-1013.4 932.15,-1013.4 932.15,-982.6 612.35,-982.6"/>
<text text-anchor="start" x="619.35" y="-994.8" font-family="Arial" font-size="14.00">latitudenorth </text>
<text text-anchor="start" x="700.29" y="-994.8" font-family="Arial" font-size="14.00" fill="#666666">[double precision]</text>
<polygon fill="none" stroke="black" points="612.35,-951.8 612.35,-982.6 932.15,-982.6 932.15,-951.8 612.35,-951.8"/>
<text text-anchor="start" x="619.35" y="-964" font-family="Arial" font-size="14.00">longitudewest </text>
<text text-anchor="start" x="708.85" y="-964" font-family="Arial" font-size="14.00" fill="#666666">[double precision]</text>
<polygon fill="none" stroke="black" points="612.35,-921 612.35,-951.8 932.15,-951.8 932.15,-921 612.35,-921"/>
<text text-anchor="start" x="619.35" y="-933.2" font-family="Arial" font-size="14.00">latitudesouth </text>
<text text-anchor="start" x="702.63" y="-933.2" font-family="Arial" font-size="14.00" fill="#666666">[double precision]</text>
<polygon fill="none" stroke="black" points="612.35,-890.2 612.35,-921 932.15,-921 932.15,-890.2 612.35,-890.2"/>
<text text-anchor="start" x="619.35" y="-902.4" font-family="Arial" font-size="14.00">altitude </text>
<text text-anchor="start" x="668.38" y="-902.4" font-family="Arial" font-size="14.00" fill="#666666">[double precision]</text>
<polygon fill="none" stroke="black" points="612.35,-859.4 612.35,-890.2 932.15,-890.2 932.15,-859.4 612.35,-859.4"/>
<text text-anchor="start" x="619.35" y="-871.6" font-family="Arial" font-size="14.00">area </text>
<text text-anchor="start" x="651.26" y="-871.6" font-family="Arial" font-size="14.00" fill="#666666">[double precision]</text>
<polygon fill="none" stroke="black" points="612.35,-828.6 612.35,-859.4 932.15,-859.4 932.15,-828.6 612.35,-828.6"/>
<text text-anchor="start" x="619.35" y="-840.8" font-family="Arial" font-size="14.00">sitedescription </text>
<text text-anchor="start" x="712.73" y="-840.8" font-family="Arial" font-size="14.00" fill="#666666">[text]</text>
<polygon fill="none" stroke="black" points="612.35,-797.8 612.35,-828.6 932.15,-828.6 932.15,-797.8 612.35,-797.8"/>
<text text-anchor="start" x="619.35" y="-810" font-family="Arial" font-size="14.00">notes </text>
<text text-anchor="start" x="657.49" y="-810" font-family="Arial" font-size="14.00" fill="#666666">[text]</text>
<polygon fill="none" stroke="black" points="612.35,-767 612.35,-797.8 932.15,-797.8 932.15,-767 612.35,-767"/>
<text text-anchor="start" x="619.35" y="-779.2" font-family="Arial" font-size="14.00">recdatecreated </text>
<text text-anchor="start" x="716.63" y="-779.2" font-family="Arial" font-size="14.00" fill="#666666">[timestamp(0) without time zone]</text>
<polygon fill="none" stroke="black" points="612.35,-736.2 612.35,-767 932.15,-767 932.15,-736.2 612.35,-736.2"/>
<text text-anchor="start" x="619.35" y="-748.4" font-family="Arial" font-size="14.00">recdatemodified </text>
<text text-anchor="start" x="722.85" y="-748.4" font-family="Arial" font-size="14.00" fill="#666666">[timestamp(0) without time zone]</text>
<polygon fill="none" stroke="black" points="612.35,-705.4 612.35,-736.2 932.15,-736.2 932.15,-705.4 612.35,-705.4"/>
<text text-anchor="start" x="619.35" y="-717.6" font-family="Arial" font-size="14.00">geog </text>
<text text-anchor="start" x="654.38" y="-717.6" font-family="Arial" font-size="14.00" fill="#666666">[geography]</text>
</g>
<!-- ndb.sitegeopolitical&#45;&gt;ndb.sites -->
<g id="edge2" class="edge">
<title>ndb.sitegeopolitical:siteid&#45;&gt;ndb.sites:siteid</title>
<path fill="none" stroke="black" d="M940.83,-2057.59C987.14,-1969.98 984.58,-1090.4 933.15,-1090.4"/>
<polygon fill="black" stroke="black" points="940.78,-2057.64 930.36,-2061.05 936.84,-2061.23 933.64,-2064.15 933.64,-2064.15 933.64,-2064.15 936.84,-2061.23 936.43,-2067.7 940.78,-2057.64"/>
<text text-anchor="start" x="940.15" y="-2074.6" font-family="Arial" font-size="10.00">FOREIGN KEY (siteid) REFERENCES ndb.sites(siteid) ON UPDATE CASCADE ON DELETE CASCADE</text>
</g>
<!-- ap.gadm -->
<g id="node4" class="node">
<title>ap.gadm</title>
<polygon fill="#efefef" stroke="none" points="1036.91,-1768 1036.91,-1803.6 1283.59,-1803.6 1283.59,-1768 1036.91,-1768"/>
<polygon fill="none" stroke="black" points="1036.91,-1768 1036.91,-1803.6 1283.59,-1803.6 1283.59,-1768 1036.91,-1768"/>
<text text-anchor="start" x="1067.27" y="-1781.4" font-family="Arial Bold" font-size="18.00">ap.gadm</text>
<text text-anchor="start" x="1128.75" y="-1781.4" font-family="Arial" font-size="14.00">    </text>
<text text-anchor="start" x="1159.86" y="-1781.4" font-family="Arial" font-size="14.00" fill="#666666">[BASE TABLE]</text>
<polygon fill="none" stroke="black" points="1036.91,-1737.2 1036.91,-1768 1283.59,-1768 1283.59,-1737.2 1036.91,-1737.2"/>
<text text-anchor="start" x="1043.91" y="-1749.4" font-family="Arial" font-size="14.00">objectid </text>
<text text-anchor="start" x="1096.05" y="-1749.4" font-family="Arial" font-size="14.00" fill="#666666">[integer]</text>
<polygon fill="none" stroke="black" points="1036.91,-1706.4 1036.91,-1737.2 1283.59,-1737.2 1283.59,-1706.4 1036.91,-1706.4"/>
<text text-anchor="start" x="1043.91" y="-1718.6" font-family="Arial" font-size="14.00">uid </text>
<text text-anchor="start" x="1066.48" y="-1718.6" font-family="Arial" font-size="14.00" fill="#666666">[integer]</text>
<polygon fill="none" stroke="black" points="1036.91,-1675.6 1036.91,-1706.4 1283.59,-1706.4 1283.59,-1675.6 1036.91,-1675.6"/>
<text text-anchor="start" x="1043.91" y="-1687.8" font-family="Arial" font-size="14.00">gid_0 </text>
<text text-anchor="start" x="1082.05" y="-1687.8" font-family="Arial" font-size="14.00" fill="#666666">[varchar(3)]</text>
<polygon fill="none" stroke="black" points="1036.91,-1644.8 1036.91,-1675.6 1283.59,-1675.6 1283.59,-1644.8 1036.91,-1644.8"/>
<text text-anchor="start" x="1043.91" y="-1657" font-family="Arial" font-size="14.00">name_0 </text>
<text text-anchor="start" x="1098.39" y="-1657" font-family="Arial" font-size="14.00" fill="#666666">[varchar(44)]</text>
<polygon fill="none" stroke="black" points="1036.91,-1614 1036.91,-1644.8 1283.59,-1644.8 1283.59,-1614 1036.91,-1614"/>
<text text-anchor="start" x="1043.91" y="-1626.2" font-family="Arial" font-size="14.00">varname_0 </text>
<text text-anchor="start" x="1117.84" y="-1626.2" font-family="Arial" font-size="14.00" fill="#666666">[varchar(29)]</text>
<polygon fill="none" stroke="black" points="1036.91,-1583.2 1036.91,-1614 1283.59,-1614 1283.59,-1583.2 1036.91,-1583.2"/>
<text text-anchor="start" x="1043.91" y="-1595.4" font-family="Arial" font-size="14.00">gid_1 </text>
<text text-anchor="start" x="1082.05" y="-1595.4" font-family="Arial" font-size="14.00" fill="#666666">[varchar(8)]</text>
<polygon fill="none" stroke="black" points="1036.91,-1552.4 1036.91,-1583.2 1283.59,-1583.2 1283.59,-1552.4 1036.91,-1552.4"/>
<text text-anchor="start" x="1043.91" y="-1564.6" font-family="Arial" font-size="14.00">name_1 </text>
<text text-anchor="start" x="1098.39" y="-1564.6" font-family="Arial" font-size="14.00" fill="#666666">[varchar(50)]</text>
<polygon fill="none" stroke="black" points="1036.91,-1521.6 1036.91,-1552.4 1283.59,-1552.4 1283.59,-1521.6 1036.91,-1521.6"/>
<text text-anchor="start" x="1043.91" y="-1533.8" font-family="Arial" font-size="14.00">varname_1 </text>
<text text-anchor="start" x="1117.84" y="-1533.8" font-family="Arial" font-size="14.00" fill="#666666">[varchar(129)]</text>
<polygon fill="none" stroke="black" points="1036.91,-1490.8 1036.91,-1521.6 1283.59,-1521.6 1283.59,-1490.8 1036.91,-1490.8"/>
<text text-anchor="start" x="1043.91" y="-1503" font-family="Arial" font-size="14.00">nl_name_1 </text>
<text text-anchor="start" x="1117.07" y="-1503" font-family="Arial" font-size="14.00" fill="#666666">[varchar(87)]</text>
<polygon fill="none" stroke="black" points="1036.91,-1460 1036.91,-1490.8 1283.59,-1490.8 1283.59,-1460 1036.91,-1460"/>
<text text-anchor="start" x="1043.91" y="-1472.2" font-family="Arial" font-size="14.00">iso_1 </text>
<text text-anchor="start" x="1081.27" y="-1472.2" font-family="Arial" font-size="14.00" fill="#666666">[varchar(8)]</text>
<polygon fill="none" stroke="black" points="1036.91,-1429.2 1036.91,-1460 1283.59,-1460 1283.59,-1429.2 1036.91,-1429.2"/>
<text text-anchor="start" x="1043.91" y="-1441.4" font-family="Arial" font-size="14.00">hasc_1 </text>
<text text-anchor="start" x="1092.94" y="-1441.4" font-family="Arial" font-size="14.00" fill="#666666">[varchar(10)]</text>
<polygon fill="none" stroke="black" points="1036.91,-1398.4 1036.91,-1429.2 1283.59,-1429.2 1283.59,-1398.4 1036.91,-1398.4"/>
<text text-anchor="start" x="1043.91" y="-1410.6" font-family="Arial" font-size="14.00">cc_1 </text>
<text text-anchor="start" x="1077.37" y="-1410.6" font-family="Arial" font-size="14.00" fill="#666666">[varchar(9)]</text>
<polygon fill="none" stroke="black" points="1036.91,-1367.6 1036.91,-1398.4 1283.59,-1398.4 1283.59,-1367.6 1036.91,-1367.6"/>
<text text-anchor="start" x="1043.91" y="-1379.8" font-family="Arial" font-size="14.00">type_1 </text>
<text text-anchor="start" x="1089.83" y="-1379.8" font-family="Arial" font-size="14.00" fill="#666666">[varchar(37)]</text>
<polygon fill="none" stroke="black" points="1036.91,-1336.8 1036.91,-1367.6 1283.59,-1367.6 1283.59,-1336.8 1036.91,-1336.8"/>
<text text-anchor="start" x="1043.91" y="-1349" font-family="Arial" font-size="14.00">engtype_1 </text>
<text text-anchor="start" x="1113.19" y="-1349" font-family="Arial" font-size="14.00" fill="#666666">[varchar(37)]</text>
<polygon fill="none" stroke="black" points="1036.91,-1306 1036.91,-1336.8 1283.59,-1336.8 1283.59,-1306 1036.91,-1306"/>
<text text-anchor="start" x="1043.91" y="-1318.2" font-family="Arial" font-size="14.00">validfr_1 </text>
<text text-anchor="start" x="1100.72" y="-1318.2" font-family="Arial" font-size="14.00" fill="#666666">[varchar(15)]</text>
<polygon fill="none" stroke="black" points="1036.91,-1275.2 1036.91,-1306 1283.59,-1306 1283.59,-1275.2 1036.91,-1275.2"/>
<text text-anchor="start" x="1043.91" y="-1287.4" font-family="Arial" font-size="14.00">gid_2 </text>
<text text-anchor="start" x="1082.05" y="-1287.4" font-family="Arial" font-size="14.00" fill="#666666">[varchar(12)]</text>
<polygon fill="none" stroke="black" points="1036.91,-1244.4 1036.91,-1275.2 1283.59,-1275.2 1283.59,-1244.4 1036.91,-1244.4"/>
<text text-anchor="start" x="1043.91" y="-1256.6" font-family="Arial" font-size="14.00">name_2 </text>
<text text-anchor="start" x="1098.39" y="-1256.6" font-family="Arial" font-size="14.00" fill="#666666">[varchar(51)]</text>
<polygon fill="none" stroke="black" points="1036.91,-1213.6 1036.91,-1244.4 1283.59,-1244.4 1283.59,-1213.6 1036.91,-1213.6"/>
<text text-anchor="start" x="1043.91" y="-1225.8" font-family="Arial" font-size="14.00">varname_2 </text>
<text text-anchor="start" x="1117.84" y="-1225.8" font-family="Arial" font-size="14.00" fill="#666666">[varchar(116)]</text>
<polygon fill="none" stroke="black" points="1036.91,-1182.8 1036.91,-1213.6 1283.59,-1213.6 1283.59,-1182.8 1036.91,-1182.8"/>
<text text-anchor="start" x="1043.91" y="-1195" font-family="Arial" font-size="14.00">nl_name_2 </text>
<text text-anchor="start" x="1117.07" y="-1195" font-family="Arial" font-size="14.00" fill="#666666">[varchar(75)]</text>
<polygon fill="none" stroke="black" points="1036.91,-1152 1036.91,-1182.8 1283.59,-1182.8 1283.59,-1152 1036.91,-1152"/>
<text text-anchor="start" x="1043.91" y="-1164.2" font-family="Arial" font-size="14.00">hasc_2 </text>
<text text-anchor="start" x="1092.94" y="-1164.2" font-family="Arial" font-size="14.00" fill="#666666">[varchar(15)]</text>
<polygon fill="none" stroke="black" points="1036.91,-1121.2 1036.91,-1152 1283.59,-1152 1283.59,-1121.2 1036.91,-1121.2"/>
<text text-anchor="start" x="1043.91" y="-1133.4" font-family="Arial" font-size="14.00">cc_2 </text>
<text text-anchor="start" x="1077.37" y="-1133.4" font-family="Arial" font-size="14.00" fill="#666666">[varchar(12)]</text>
<polygon fill="none" stroke="black" points="1036.91,-1090.4 1036.91,-1121.2 1283.59,-1121.2 1283.59,-1090.4 1036.91,-1090.4"/>
<text text-anchor="start" x="1043.91" y="-1102.6" font-family="Arial" font-size="14.00">type_2 </text>
<text text-anchor="start" x="1089.83" y="-1102.6" font-family="Arial" font-size="14.00" fill="#666666">[varchar(43)]</text>
<polygon fill="none" stroke="black" points="1036.91,-1059.6 1036.91,-1090.4 1283.59,-1090.4 1283.59,-1059.6 1036.91,-1059.6"/>
<text text-anchor="start" x="1043.91" y="-1071.8" font-family="Arial" font-size="14.00">engtype_2 </text>
<text text-anchor="start" x="1113.19" y="-1071.8" font-family="Arial" font-size="14.00" fill="#666666">[varchar(34)]</text>
<polygon fill="none" stroke="black" points="1036.91,-1028.8 1036.91,-1059.6 1283.59,-1059.6 1283.59,-1028.8 1036.91,-1028.8"/>
<text text-anchor="start" x="1043.91" y="-1041" font-family="Arial" font-size="14.00">validfr_2 </text>
<text text-anchor="start" x="1100.72" y="-1041" font-family="Arial" font-size="14.00" fill="#666666">[varchar(15)]</text>
<polygon fill="none" stroke="black" points="1036.91,-998 1036.91,-1028.8 1283.59,-1028.8 1283.59,-998 1036.91,-998"/>
<text text-anchor="start" x="1043.91" y="-1010.2" font-family="Arial" font-size="14.00">gid_3 </text>
<text text-anchor="start" x="1082.05" y="-1010.2" font-family="Arial" font-size="14.00" fill="#666666">[varchar(15)]</text>
<polygon fill="none" stroke="black" points="1036.91,-967.2 1036.91,-998 1283.59,-998 1283.59,-967.2 1036.91,-967.2"/>
<text text-anchor="start" x="1043.91" y="-979.4" font-family="Arial" font-size="14.00">name_3 </text>
<text text-anchor="start" x="1098.39" y="-979.4" font-family="Arial" font-size="14.00" fill="#666666">[varchar(64)]</text>
<polygon fill="none" stroke="black" points="1036.91,-936.4 1036.91,-967.2 1283.59,-967.2 1283.59,-936.4 1036.91,-936.4"/>
<text text-anchor="start" x="1043.91" y="-948.6" font-family="Arial" font-size="14.00">varname_3 </text>
<text text-anchor="start" x="1117.84" y="-948.6" font-family="Arial" font-size="14.00" fill="#666666">[varchar(54)]</text>
<polygon fill="none" stroke="black" points="1036.91,-905.6 1036.91,-936.4 1283.59,-936.4 1283.59,-905.6 1036.91,-905.6"/>
<text text-anchor="start" x="1043.91" y="-917.8" font-family="Arial" font-size="14.00">nl_name_3 </text>
<text text-anchor="start" x="1117.07" y="-917.8" font-family="Arial" font-size="14.00" fill="#666666">[varchar(56)]</text>
<polygon fill="none" stroke="black" points="1036.91,-874.8 1036.91,-905.6 1283.59,-905.6 1283.59,-874.8 1036.91,-874.8"/>
<text text-anchor="start" x="1043.91" y="-887" font-family="Arial" font-size="14.00">hasc_3 </text>
<text text-anchor="start" x="1092.94" y="-887" font-family="Arial" font-size="14.00" fill="#666666">[varchar(27)]</text>
<polygon fill="none" stroke="black" points="1036.91,-844 1036.91,-874.8 1283.59,-874.8 1283.59,-844 1036.91,-844"/>
<text text-anchor="start" x="1043.91" y="-856.2" font-family="Arial" font-size="14.00">cc_3 </text>
<text text-anchor="start" x="1077.37" y="-856.2" font-family="Arial" font-size="14.00" fill="#666666">[varchar(9)]</text>
<polygon fill="none" stroke="black" points="1036.91,-813.2 1036.91,-844 1283.59,-844 1283.59,-813.2 1036.91,-813.2"/>
<text text-anchor="start" x="1043.91" y="-825.4" font-family="Arial" font-size="14.00">type_3 </text>
<text text-anchor="start" x="1089.83" y="-825.4" font-family="Arial" font-size="14.00" fill="#666666">[varchar(34)]</text>
<polygon fill="none" stroke="black" points="1036.91,-782.4 1036.91,-813.2 1283.59,-813.2 1283.59,-782.4 1036.91,-782.4"/>
<text text-anchor="start" x="1043.91" y="-794.6" font-family="Arial" font-size="14.00">engtype_3 </text>
<text text-anchor="start" x="1113.19" y="-794.6" font-family="Arial" font-size="14.00" fill="#666666">[varchar(34)]</text>
<polygon fill="none" stroke="black" points="1036.91,-751.6 1036.91,-782.4 1283.59,-782.4 1283.59,-751.6 1036.91,-751.6"/>
<text text-anchor="start" x="1043.91" y="-763.8" font-family="Arial" font-size="14.00">validfr_3 </text>
<text text-anchor="start" x="1100.72" y="-763.8" font-family="Arial" font-size="14.00" fill="#666666">[varchar(10)]</text>
<polygon fill="none" stroke="black" points="1036.91,-720.8 1036.91,-751.6 1283.59,-751.6 1283.59,-720.8 1036.91,-720.8"/>
<text text-anchor="start" x="1043.91" y="-733" font-family="Arial" font-size="14.00">gid_4 </text>
<text text-anchor="start" x="1082.05" y="-733" font-family="Arial" font-size="14.00" fill="#666666">[varchar(18)]</text>
<polygon fill="none" stroke="black" points="1036.91,-690 1036.91,-720.8 1283.59,-720.8 1283.59,-690 1036.91,-690"/>
<text text-anchor="start" x="1043.91" y="-702.2" font-family="Arial" font-size="14.00">name_4 </text>
<text text-anchor="start" x="1098.39" y="-702.2" font-family="Arial" font-size="14.00" fill="#666666">[varchar(98)]</text>
<polygon fill="none" stroke="black" points="1036.91,-659.2 1036.91,-690 1283.59,-690 1283.59,-659.2 1036.91,-659.2"/>
<text text-anchor="start" x="1043.91" y="-671.4" font-family="Arial" font-size="14.00">varname_4 </text>
<text text-anchor="start" x="1117.84" y="-671.4" font-family="Arial" font-size="14.00" fill="#666666">[varchar(54)]</text>
<polygon fill="none" stroke="black" points="1036.91,-628.4 1036.91,-659.2 1283.59,-659.2 1283.59,-628.4 1036.91,-628.4"/>
<text text-anchor="start" x="1043.91" y="-640.6" font-family="Arial" font-size="14.00">cc_4 </text>
<text text-anchor="start" x="1077.37" y="-640.6" font-family="Arial" font-size="14.00" fill="#666666">[varchar(12)]</text>
<polygon fill="none" stroke="black" points="1036.91,-597.6 1036.91,-628.4 1283.59,-628.4 1283.59,-597.6 1036.91,-597.6"/>
<text text-anchor="start" x="1043.91" y="-609.8" font-family="Arial" font-size="14.00">type_4 </text>
<text text-anchor="start" x="1089.83" y="-609.8" font-family="Arial" font-size="14.00" fill="#666666">[varchar(29)]</text>
<polygon fill="none" stroke="black" points="1036.91,-566.8 1036.91,-597.6 1283.59,-597.6 1283.59,-566.8 1036.91,-566.8"/>
<text text-anchor="start" x="1043.91" y="-579" font-family="Arial" font-size="14.00">engtype_4 </text>
<text text-anchor="start" x="1113.19" y="-579" font-family="Arial" font-size="14.00" fill="#666666">[varchar(29)]</text>
<polygon fill="none" stroke="black" points="1036.91,-536 1036.91,-566.8 1283.59,-566.8 1283.59,-536 1036.91,-536"/>
<text text-anchor="start" x="1043.91" y="-548.2" font-family="Arial" font-size="14.00">validfr_4 </text>
<text text-anchor="start" x="1100.72" y="-548.2" font-family="Arial" font-size="14.00" fill="#666666">[varchar(7)]</text>
<polygon fill="none" stroke="black" points="1036.91,-505.2 1036.91,-536 1283.59,-536 1283.59,-505.2 1036.91,-505.2"/>
<text text-anchor="start" x="1043.91" y="-517.4" font-family="Arial" font-size="14.00">gid_5 </text>
<text text-anchor="start" x="1082.05" y="-517.4" font-family="Arial" font-size="14.00" fill="#666666">[varchar(19)]</text>
<polygon fill="none" stroke="black" points="1036.91,-474.4 1036.91,-505.2 1283.59,-505.2 1283.59,-474.4 1036.91,-474.4"/>
<text text-anchor="start" x="1043.91" y="-486.6" font-family="Arial" font-size="14.00">name_5 </text>
<text text-anchor="start" x="1098.39" y="-486.6" font-family="Arial" font-size="14.00" fill="#666666">[varchar(45)]</text>
<polygon fill="none" stroke="black" points="1036.91,-443.6 1036.91,-474.4 1283.59,-474.4 1283.59,-443.6 1036.91,-443.6"/>
<text text-anchor="start" x="1043.91" y="-455.8" font-family="Arial" font-size="14.00">cc_5 </text>
<text text-anchor="start" x="1077.37" y="-455.8" font-family="Arial" font-size="14.00" fill="#666666">[varchar(15)]</text>
<polygon fill="none" stroke="black" points="1036.91,-412.8 1036.91,-443.6 1283.59,-443.6 1283.59,-412.8 1036.91,-412.8"/>
<text text-anchor="start" x="1043.91" y="-425" font-family="Arial" font-size="14.00">type_5 </text>
<text text-anchor="start" x="1089.83" y="-425" font-family="Arial" font-size="14.00" fill="#666666">[varchar(22)]</text>
<polygon fill="none" stroke="black" points="1036.91,-382 1036.91,-412.8 1283.59,-412.8 1283.59,-382 1036.91,-382"/>
<text text-anchor="start" x="1043.91" y="-394.2" font-family="Arial" font-size="14.00">engtype_5 </text>
<text text-anchor="start" x="1113.19" y="-394.2" font-family="Arial" font-size="14.00" fill="#666666">[varchar(255)]</text>
<polygon fill="none" stroke="black" points="1036.91,-351.2 1036.91,-382 1283.59,-382 1283.59,-351.2 1036.91,-351.2"/>
<text text-anchor="start" x="1043.91" y="-363.4" font-family="Arial" font-size="14.00">governedby </text>
<text text-anchor="start" x="1120.96" y="-363.4" font-family="Arial" font-size="14.00" fill="#666666">[varchar(17)]</text>
<polygon fill="none" stroke="black" points="1036.91,-320.4 1036.91,-351.2 1283.59,-351.2 1283.59,-320.4 1036.91,-320.4"/>
<text text-anchor="start" x="1043.91" y="-332.6" font-family="Arial" font-size="14.00">sovereign </text>
<text text-anchor="start" x="1108.5" y="-332.6" font-family="Arial" font-size="14.00" fill="#666666">[varchar(32)]</text>
<polygon fill="none" stroke="black" points="1036.91,-289.6 1036.91,-320.4 1283.59,-320.4 1283.59,-289.6 1036.91,-289.6"/>
<text text-anchor="start" x="1043.91" y="-301.8" font-family="Arial" font-size="14.00">disputedby </text>
<text text-anchor="start" x="1115.52" y="-301.8" font-family="Arial" font-size="14.00" fill="#666666">[varchar(57)]</text>
<polygon fill="none" stroke="black" points="1036.91,-258.8 1036.91,-289.6 1283.59,-289.6 1283.59,-258.8 1036.91,-258.8"/>
<text text-anchor="start" x="1043.91" y="-271" font-family="Arial" font-size="14.00">region </text>
<text text-anchor="start" x="1086.72" y="-271" font-family="Arial" font-size="14.00" fill="#666666">[varchar(36)]</text>
<polygon fill="none" stroke="black" points="1036.91,-228 1036.91,-258.8 1283.59,-258.8 1283.59,-228 1036.91,-228"/>
<text text-anchor="start" x="1043.91" y="-240.2" font-family="Arial" font-size="14.00">varregion </text>
<text text-anchor="start" x="1106.16" y="-240.2" font-family="Arial" font-size="14.00" fill="#666666">[varchar(56)]</text>
<polygon fill="none" stroke="black" points="1036.91,-197.2 1036.91,-228 1283.59,-228 1283.59,-197.2 1036.91,-197.2"/>
<text text-anchor="start" x="1043.91" y="-209.4" font-family="Arial" font-size="14.00">country </text>
<text text-anchor="start" x="1093.71" y="-209.4" font-family="Arial" font-size="14.00" fill="#666666">[varchar(60)]</text>
<polygon fill="none" stroke="black" points="1036.91,-166.4 1036.91,-197.2 1283.59,-197.2 1283.59,-166.4 1036.91,-166.4"/>
<text text-anchor="start" x="1043.91" y="-178.6" font-family="Arial" font-size="14.00">continent </text>
<text text-anchor="start" x="1104.62" y="-178.6" font-family="Arial" font-size="14.00" fill="#666666">[varchar(15)]</text>
<polygon fill="none" stroke="black" points="1036.91,-135.6 1036.91,-166.4 1283.59,-166.4 1283.59,-135.6 1036.91,-135.6"/>
<text text-anchor="start" x="1043.91" y="-147.8" font-family="Arial" font-size="14.00">subcont </text>
<text text-anchor="start" x="1096.83" y="-147.8" font-family="Arial" font-size="14.00" fill="#666666">[varchar(25)]</text>
<polygon fill="none" stroke="black" points="1036.91,-104.8 1036.91,-135.6 1283.59,-135.6 1283.59,-104.8 1036.91,-104.8"/>
<text text-anchor="start" x="1043.91" y="-117" font-family="Arial" font-size="14.00">shape_length </text>
<text text-anchor="start" x="1131.87" y="-117" font-family="Arial" font-size="14.00" fill="#666666">[double precision]</text>
<polygon fill="none" stroke="black" points="1036.91,-74 1036.91,-104.8 1283.59,-104.8 1283.59,-74 1036.91,-74"/>
<text text-anchor="start" x="1043.91" y="-86.2" font-family="Arial" font-size="14.00">shape_area </text>
<text text-anchor="start" x="1121.75" y="-86.2" font-family="Arial" font-size="14.00" fill="#666666">[double precision]</text>
<polygon fill="none" stroke="black" points="1036.91,-43.2 1036.91,-74 1283.59,-74 1283.59,-43.2 1036.91,-43.2"/>
<text text-anchor="start" x="1043.91" y="-55.4" font-family="Arial" font-size="14.00">shape </text>
<text text-anchor="start" x="1085.94" y="-55.4" font-family="Arial" font-size="14.00" fill="#666666">[geometry(MultiPolygon,4326)]</text>
</g>
<!-- ndb.sitegeopolitical&#45;&gt;ap.gadm -->
<g id="edge3" class="edge">
<title>ndb.sitegeopolitical:objectid&#45;&gt;ap.gadm:objectid</title>
<path fill="none" stroke="black" d="M943.53,-1940.56C1022.07,-1926.94 944.11,-1752.6 1035.91,-1752.6"/>
<polygon fill="black" stroke="black" points="943.45,-1940.56 933.12,-1936.89 938.13,-1941 933.82,-1941.35 933.82,-1941.35 933.82,-1941.35 938.13,-1941 933.85,-1945.86 943.45,-1940.56"/>
<text text-anchor="start" x="940.15" y="-1951.4" font-family="Arial" font-size="10.00">FOREIGN KEY (objectid) REFERENCES ap.gadm(objectid)</text>
</g>
<!-- ndb.geopaths -->
<g id="node5" class="node">
<title>ndb.geopaths</title>
<polygon fill="#efefef" stroke="none" points="228.26,-2049.2 228.26,-2084.8 462.24,-2084.8 462.24,-2049.2 228.26,-2049.2"/>
<polygon fill="none" stroke="black" points="228.26,-2049.2 228.26,-2084.8 462.24,-2084.8 462.24,-2049.2 228.26,-2049.2"/>
<text text-anchor="start" x="235.26" y="-2062.6" font-family="Arial Bold" font-size="18.00">ndb.geopaths</text>
<text text-anchor="start" x="330.75" y="-2062.6" font-family="Arial" font-size="14.00">    </text>
<text text-anchor="start" x="361.86" y="-2062.6" font-family="Arial" font-size="14.00" fill="#666666">[BASE TABLE]</text>
<polygon fill="none" stroke="black" points="228.26,-2018.4 228.26,-2049.2 462.24,-2049.2 462.24,-2018.4 228.26,-2018.4"/>
<text text-anchor="start" x="235.26" y="-2030.6" font-family="Arial" font-size="14.00">geoout </text>
<text text-anchor="start" x="281.97" y="-2030.6" font-family="Arial" font-size="14.00" fill="#666666">[integer[]]</text>
<polygon fill="none" stroke="black" points="228.26,-1987.6 228.26,-2018.4 462.24,-2018.4 462.24,-1987.6 228.26,-1987.6"/>
<text text-anchor="start" x="235.26" y="-1999.8" font-family="Arial" font-size="14.00">geoin </text>
<text text-anchor="start" x="273.41" y="-1999.8" font-family="Arial" font-size="14.00" fill="#666666">[bigint]</text>
</g>
<!-- ndb.geopaths&#45;&gt;ndb.geopoliticalunits -->
<g id="edge4" class="edge">
<title>ndb.geopaths:geoin&#45;&gt;ndb.geopoliticalunits:geopoliticalid</title>
<path fill="none" stroke="black" d="M345.81,-1976.23C359.34,-1829.66 614.5,-998 506.15,-998"/>
<polygon fill="black" stroke="black" points="345.8,-1976.28 340.77,-1986.03 345.52,-1981.61 345.29,-1985.93 345.29,-1985.93 345.29,-1985.93 345.52,-1981.61 349.76,-1986.51 345.8,-1976.28"/>
<text text-anchor="start" x="7" y="-1996.6" font-family="Arial" font-size="10.00">FOREIGN KEY (geoin) REFERENCES ndb.geopoliticalunits(geopoliticalid)</text>
</g>
</g>
</svg>
