<?xml version="1.0" encoding="UTF-8" standalone="no"?>
<!DOCTYPE svg PUBLIC "-//W3C//DTD SVG 1.1//EN"
 "http://www.w3.org/Graphics/SVG/1.1/DTD/svg11.dtd">
<!-- Generated by graphviz version 12.1.2 (20240928.0832)
 -->
<!-- Title: ndb.lakeparameters Pages: 1 -->
<svg width="3465pt" height="1304pt"
 viewBox="0.00 0.00 3464.86 1304.40" xmlns="http://www.w3.org/2000/svg" xmlns:xlink="http://www.w3.org/1999/xlink">
<g id="graph0" class="graph" transform="scale(1 1) rotate(0) translate(4 1300.4)">
<title>ndb.lakeparameters</title>
<polygon fill="white" stroke="none" points="-4,4 -4,-1300.4 3460.86,-1300.4 3460.86,4 -4,4"/>
<!-- ndb.lakeparameters -->
<g id="node1" class="node">
<title>ndb.lakeparameters</title>
<polygon fill="#efefef" stroke="none" points="2490.2,-986.6 2490.2,-1022.2 2810,-1022.2 2810,-986.6 2490.2,-986.6"/>
<polygon fill="none" stroke="black" points="2490.2,-986.6 2490.2,-1022.2 2810,-1022.2 2810,-986.6 2490.2,-986.6"/>
<text text-anchor="start" x="2517.64" y="-1000" font-family="Arial Bold" font-size="18.00">ndb.lakeparameters</text>
<text text-anchor="start" x="2658.07" y="-1000" font-family="Arial" font-size="14.00">    </text>
<text text-anchor="start" x="2689.19" y="-1000" font-family="Arial" font-size="14.00" fill="#666666">[BASE TABLE]</text>
<polygon fill="none" stroke="black" points="2490.2,-955.8 2490.2,-986.6 2810,-986.6 2810,-955.8 2490.2,-955.8"/>
<text text-anchor="start" x="2497.2" y="-968" font-family="Arial" font-size="14.00">siteid </text>
<text text-anchor="start" x="2533.77" y="-968" font-family="Arial" font-size="14.00" fill="#666666">[integer]</text>
<polygon fill="none" stroke="black" points="2490.2,-925 2490.2,-955.8 2810,-955.8 2810,-925 2490.2,-925"/>
<text text-anchor="start" x="2497.2" y="-937.2" font-family="Arial" font-size="14.00">lakeparameterid </text>
<text text-anchor="start" x="2601.48" y="-937.2" font-family="Arial" font-size="14.00" fill="#666666">[integer]</text>
<polygon fill="none" stroke="black" points="2490.2,-894.2 2490.2,-925 2810,-925 2810,-894.2 2490.2,-894.2"/>
<text text-anchor="start" x="2497.2" y="-906.4" font-family="Arial" font-size="14.00">value </text>
<text text-anchor="start" x="2534.56" y="-906.4" font-family="Arial" font-size="14.00" fill="#666666">[double precision]</text>
<polygon fill="none" stroke="black" points="2490.2,-863.4 2490.2,-894.2 2810,-894.2 2810,-863.4 2490.2,-863.4"/>
<text text-anchor="start" x="2497.2" y="-875.6" font-family="Arial" font-size="14.00">recdatecreated </text>
<text text-anchor="start" x="2594.48" y="-875.6" font-family="Arial" font-size="14.00" fill="#666666">[timestamp(0) without time zone]</text>
<polygon fill="none" stroke="black" points="2490.2,-832.6 2490.2,-863.4 2810,-863.4 2810,-832.6 2490.2,-832.6"/>
<text text-anchor="start" x="2497.2" y="-844.8" font-family="Arial" font-size="14.00">recdatemodified </text>
<text text-anchor="start" x="2600.7" y="-844.8" font-family="Arial" font-size="14.00" fill="#666666">[timestamp(0) without time zone]</text>
<polygon fill="none" stroke="black" stroke-width="3" points="2488.7,-831.1 2488.7,-1023.7 2811.5,-1023.7 2811.5,-831.1 2488.7,-831.1"/>
</g>
<!-- ndb.sites -->
<g id="node2" class="node">
<title>ndb.sites</title>
<polygon fill="#efefef" stroke="none" points="1310.2,-443.6 1310.2,-479.2 1630,-479.2 1630,-443.6 1310.2,-443.6"/>
<polygon fill="none" stroke="black" points="1310.2,-443.6 1310.2,-479.2 1630,-479.2 1630,-443.6 1310.2,-443.6"/>
<text text-anchor="start" x="1376.1" y="-457" font-family="Arial Bold" font-size="18.00">ndb.sites</text>
<text text-anchor="start" x="1439.61" y="-457" font-family="Arial" font-size="14.00">    </text>
<text text-anchor="start" x="1470.72" y="-457" font-family="Arial" font-size="14.00" fill="#666666">[BASE TABLE]</text>
<polygon fill="none" stroke="black" points="1310.2,-412.8 1310.2,-443.6 1630,-443.6 1630,-412.8 1310.2,-412.8"/>
<text text-anchor="start" x="1317.2" y="-425" font-family="Arial" font-size="14.00">siteid </text>
<text text-anchor="start" x="1353.77" y="-425" font-family="Arial" font-size="14.00" fill="#666666">[integer]</text>
<polygon fill="none" stroke="black" points="1310.2,-382 1310.2,-412.8 1630,-412.8 1630,-382 1310.2,-382"/>
<text text-anchor="start" x="1317.2" y="-394.2" font-family="Arial" font-size="14.00">sitename </text>
<text text-anchor="start" x="1377.9" y="-394.2" font-family="Arial" font-size="14.00" fill="#666666">[varchar(128)]</text>
<polygon fill="none" stroke="black" points="1310.2,-351.2 1310.2,-382 1630,-382 1630,-351.2 1310.2,-351.2"/>
<text text-anchor="start" x="1317.2" y="-363.4" font-family="Arial" font-size="14.00">longitudeeast </text>
<text text-anchor="start" x="1404.38" y="-363.4" font-family="Arial" font-size="14.00" fill="#666666">[double precision]</text>
<polygon fill="none" stroke="black" points="1310.2,-320.4 1310.2,-351.2 1630,-351.2 1630,-320.4 1310.2,-320.4"/>
<text text-anchor="start" x="1317.2" y="-332.6" font-family="Arial" font-size="14.00">latitudenorth </text>
<text text-anchor="start" x="1398.14" y="-332.6" font-family="Arial" font-size="14.00" fill="#666666">[double precision]</text>
<polygon fill="none" stroke="black" points="1310.2,-289.6 1310.2,-320.4 1630,-320.4 1630,-289.6 1310.2,-289.6"/>
<text text-anchor="start" x="1317.2" y="-301.8" font-family="Arial" font-size="14.00">longitudewest </text>
<text text-anchor="start" x="1406.7" y="-301.8" font-family="Arial" font-size="14.00" fill="#666666">[double precision]</text>
<polygon fill="none" stroke="black" points="1310.2,-258.8 1310.2,-289.6 1630,-289.6 1630,-258.8 1310.2,-258.8"/>
<text text-anchor="start" x="1317.2" y="-271" font-family="Arial" font-size="14.00">latitudesouth </text>
<text text-anchor="start" x="1400.48" y="-271" font-family="Arial" font-size="14.00" fill="#666666">[double precision]</text>
<polygon fill="none" stroke="black" points="1310.2,-228 1310.2,-258.8 1630,-258.8 1630,-228 1310.2,-228"/>
<text text-anchor="start" x="1317.2" y="-240.2" font-family="Arial" font-size="14.00">altitude </text>
<text text-anchor="start" x="1366.23" y="-240.2" font-family="Arial" font-size="14.00" fill="#666666">[double precision]</text>
<polygon fill="none" stroke="black" points="1310.2,-197.2 1310.2,-228 1630,-228 1630,-197.2 1310.2,-197.2"/>
<text text-anchor="start" x="1317.2" y="-209.4" font-family="Arial" font-size="14.00">area </text>
<text text-anchor="start" x="1349.11" y="-209.4" font-family="Arial" font-size="14.00" fill="#666666">[double precision]</text>
<polygon fill="none" stroke="black" points="1310.2,-166.4 1310.2,-197.2 1630,-197.2 1630,-166.4 1310.2,-166.4"/>
<text text-anchor="start" x="1317.2" y="-178.6" font-family="Arial" font-size="14.00">sitedescription </text>
<text text-anchor="start" x="1410.58" y="-178.6" font-family="Arial" font-size="14.00" fill="#666666">[text]</text>
<polygon fill="none" stroke="black" points="1310.2,-135.6 1310.2,-166.4 1630,-166.4 1630,-135.6 1310.2,-135.6"/>
<text text-anchor="start" x="1317.2" y="-147.8" font-family="Arial" font-size="14.00">notes </text>
<text text-anchor="start" x="1355.34" y="-147.8" font-family="Arial" font-size="14.00" fill="#666666">[text]</text>
<polygon fill="none" stroke="black" points="1310.2,-104.8 1310.2,-135.6 1630,-135.6 1630,-104.8 1310.2,-104.8"/>
<text text-anchor="start" x="1317.2" y="-117" font-family="Arial" font-size="14.00">recdatecreated </text>
<text text-anchor="start" x="1414.48" y="-117" font-family="Arial" font-size="14.00" fill="#666666">[timestamp(0) without time zone]</text>
<polygon fill="none" stroke="black" points="1310.2,-74 1310.2,-104.8 1630,-104.8 1630,-74 1310.2,-74"/>
<text text-anchor="start" x="1317.2" y="-86.2" font-family="Arial" font-size="14.00">recdatemodified </text>
<text text-anchor="start" x="1420.7" y="-86.2" font-family="Arial" font-size="14.00" fill="#666666">[timestamp(0) without time zone]</text>
<polygon fill="none" stroke="black" points="1310.2,-43.2 1310.2,-74 1630,-74 1630,-43.2 1310.2,-43.2"/>
<text text-anchor="start" x="1317.2" y="-55.4" font-family="Arial" font-size="14.00">geog </text>
<text text-anchor="start" x="1352.23" y="-55.4" font-family="Arial" font-size="14.00" fill="#666666">[geography]</text>
</g>
<!-- ndb.lakeparameters&#45;&gt;ndb.sites -->
<g id="edge1" class="edge">
<title>ndb.lakeparameters:siteid&#45;&gt;ndb.sites:siteid</title>
<path fill="none" stroke="black" d="M2479.23,-969.65C2404.46,-944.56 2497.01,-622.21 2435.1,-558.4 2309.05,-428.48 1812.02,-428.2 1631,-428.2"/>
<polygon fill="black" stroke="black" points="2478.99,-969.61 2488.18,-975.6 2484.26,-970.43 2488.54,-971.1 2488.54,-971.1 2488.54,-971.1 2484.26,-970.43 2489.56,-966.7 2478.99,-969.61"/>
<text text-anchor="start" x="2496.2" y="-981.2" font-family="Arial" font-size="10.00">FOREIGN KEY (siteid) REFERENCES ndb.sites(siteid) ON UPDATE CASCADE ON DELETE CASCADE</text>
</g>
<!-- ndb.lakeparametertypes -->
<g id="node9" class="node">
<title>ndb.lakeparametertypes</title>
<polygon fill="#efefef" stroke="none" points="2490.2,-335.8 2490.2,-371.4 2810,-371.4 2810,-335.8 2490.2,-335.8"/>
<polygon fill="none" stroke="black" points="2490.2,-335.8 2490.2,-371.4 2810,-371.4 2810,-335.8 2490.2,-335.8"/>
<text text-anchor="start" x="2502.14" y="-349.2" font-family="Arial Bold" font-size="18.00">ndb.lakeparametertypes</text>
<text text-anchor="start" x="2673.57" y="-349.2" font-family="Arial" font-size="14.00">    </text>
<text text-anchor="start" x="2704.68" y="-349.2" font-family="Arial" font-size="14.00" fill="#666666">[BASE TABLE]</text>
<polygon fill="none" stroke="black" points="2490.2,-305 2490.2,-335.8 2810,-335.8 2810,-305 2490.2,-305"/>
<text text-anchor="start" x="2497.2" y="-317.2" font-family="Arial" font-size="14.00">lakeparameterid </text>
<text text-anchor="start" x="2601.48" y="-317.2" font-family="Arial" font-size="14.00" fill="#666666">[integer]</text>
<polygon fill="none" stroke="black" points="2490.2,-274.2 2490.2,-305 2810,-305 2810,-274.2 2490.2,-274.2"/>
<text text-anchor="start" x="2497.2" y="-286.4" font-family="Arial" font-size="14.00">lakeparametercode </text>
<text text-anchor="start" x="2620.94" y="-286.4" font-family="Arial" font-size="14.00" fill="#666666">[varchar(20)]</text>
<polygon fill="none" stroke="black" points="2490.2,-243.4 2490.2,-274.2 2810,-274.2 2810,-243.4 2490.2,-243.4"/>
<text text-anchor="start" x="2497.2" y="-255.6" font-family="Arial" font-size="14.00">lakeparametershortname </text>
<text text-anchor="start" x="2656.72" y="-255.6" font-family="Arial" font-size="14.00" fill="#666666">[varchar(40)]</text>
<polygon fill="none" stroke="black" points="2490.2,-212.6 2490.2,-243.4 2810,-243.4 2810,-212.6 2490.2,-212.6"/>
<text text-anchor="start" x="2497.2" y="-224.8" font-family="Arial" font-size="14.00">lakeparameter </text>
<text text-anchor="start" x="2590.58" y="-224.8" font-family="Arial" font-size="14.00" fill="#666666">[varchar(80)]</text>
<polygon fill="none" stroke="black" points="2490.2,-181.8 2490.2,-212.6 2810,-212.6 2810,-181.8 2490.2,-181.8"/>
<text text-anchor="start" x="2497.2" y="-194" font-family="Arial" font-size="14.00">recdatecreated </text>
<text text-anchor="start" x="2594.48" y="-194" font-family="Arial" font-size="14.00" fill="#666666">[timestamp(0) without time zone]</text>
<polygon fill="none" stroke="black" points="2490.2,-151 2490.2,-181.8 2810,-181.8 2810,-151 2490.2,-151"/>
<text text-anchor="start" x="2497.2" y="-163.2" font-family="Arial" font-size="14.00">recdatemodified </text>
<text text-anchor="start" x="2600.7" y="-163.2" font-family="Arial" font-size="14.00" fill="#666666">[timestamp(0) without time zone]</text>
</g>
<!-- ndb.lakeparameters&#45;&gt;ndb.lakeparametertypes -->
<g id="edge8" class="edge">
<title>ndb.lakeparameters:lakeparameterid&#45;&gt;ndb.lakeparametertypes:lakeparameterid</title>
<path fill="none" stroke="black" d="M2820.23,-936.44C2879.74,-883.64 2876.66,-320.4 2811,-320.4"/>
<polygon fill="black" stroke="black" points="2820.5,-936.33 2809.53,-936.13 2815.59,-938.43 2811.61,-940.14 2811.61,-940.14 2811.61,-940.14 2815.59,-938.43 2813.08,-944.4 2820.5,-936.33"/>
<text text-anchor="start" x="2818" y="-950.4" font-family="Arial" font-size="10.00">FOREIGN KEY (lakeparameterid) REFERENCES ndb.lakeparametertypes(lakeparameterid) ON UPDATE CASCADE ON DELETE CASCADE</text>
</g>
<!-- ndb.collectionunits -->
<g id="node3" class="node">
<title>ndb.collectionunits</title>
<polygon fill="#efefef" stroke="none" points="43.2,-1217.6 43.2,-1253.2 363,-1253.2 363,-1217.6 43.2,-1217.6"/>
<polygon fill="none" stroke="black" points="43.2,-1217.6 43.2,-1253.2 363,-1253.2 363,-1217.6 43.2,-1217.6"/>
<text text-anchor="start" x="72.12" y="-1231" font-family="Arial Bold" font-size="18.00">ndb.collectionunits</text>
<text text-anchor="start" x="209.59" y="-1231" font-family="Arial" font-size="14.00">    </text>
<text text-anchor="start" x="240.71" y="-1231" font-family="Arial" font-size="14.00" fill="#666666">[BASE TABLE]</text>
<polygon fill="none" stroke="black" points="43.2,-1186.8 43.2,-1217.6 363,-1217.6 363,-1186.8 43.2,-1186.8"/>
<text text-anchor="start" x="50.2" y="-1199" font-family="Arial" font-size="14.00">collectionunitid </text>
<text text-anchor="start" x="145.92" y="-1199" font-family="Arial" font-size="14.00" fill="#666666">[integer]</text>
<polygon fill="none" stroke="black" points="43.2,-1156 43.2,-1186.8 363,-1186.8 363,-1156 43.2,-1156"/>
<text text-anchor="start" x="50.2" y="-1168.2" font-family="Arial" font-size="14.00">handle </text>
<text text-anchor="start" x="96.13" y="-1168.2" font-family="Arial" font-size="14.00" fill="#666666">[varchar(10)]</text>
<polygon fill="none" stroke="black" points="43.2,-1125.2 43.2,-1156 363,-1156 363,-1125.2 43.2,-1125.2"/>
<text text-anchor="start" x="50.2" y="-1137.4" font-family="Arial" font-size="14.00">siteid </text>
<text text-anchor="start" x="86.77" y="-1137.4" font-family="Arial" font-size="14.00" fill="#666666">[integer]</text>
<polygon fill="none" stroke="black" points="43.2,-1094.4 43.2,-1125.2 363,-1125.2 363,-1094.4 43.2,-1094.4"/>
<text text-anchor="start" x="50.2" y="-1106.6" font-family="Arial" font-size="14.00">colltypeid </text>
<text text-anchor="start" x="112.45" y="-1106.6" font-family="Arial" font-size="14.00" fill="#666666">[integer]</text>
<polygon fill="none" stroke="black" points="43.2,-1063.6 43.2,-1094.4 363,-1094.4 363,-1063.6 43.2,-1063.6"/>
<text text-anchor="start" x="50.2" y="-1075.8" font-family="Arial" font-size="14.00">depenvtid </text>
<text text-anchor="start" x="114.81" y="-1075.8" font-family="Arial" font-size="14.00" fill="#666666">[integer]</text>
<polygon fill="none" stroke="black" points="43.2,-1032.8 43.2,-1063.6 363,-1063.6 363,-1032.8 43.2,-1032.8"/>
<text text-anchor="start" x="50.2" y="-1045" font-family="Arial" font-size="14.00">collunitname </text>
<text text-anchor="start" x="132.69" y="-1045" font-family="Arial" font-size="14.00" fill="#666666">[varchar(255)]</text>
<polygon fill="none" stroke="black" points="43.2,-1002 43.2,-1032.8 363,-1032.8 363,-1002 43.2,-1002"/>
<text text-anchor="start" x="50.2" y="-1014.2" font-family="Arial" font-size="14.00">colldate </text>
<text text-anchor="start" x="102.34" y="-1014.2" font-family="Arial" font-size="14.00" fill="#666666">[date]</text>
<polygon fill="none" stroke="black" points="43.2,-971.2 43.2,-1002 363,-1002 363,-971.2 43.2,-971.2"/>
<text text-anchor="start" x="50.2" y="-983.4" font-family="Arial" font-size="14.00">colldevice </text>
<text text-anchor="start" x="115.57" y="-983.4" font-family="Arial" font-size="14.00" fill="#666666">[varchar(255)]</text>
<polygon fill="none" stroke="black" points="43.2,-940.4 43.2,-971.2 363,-971.2 363,-940.4 43.2,-940.4"/>
<text text-anchor="start" x="50.2" y="-952.6" font-family="Arial" font-size="14.00">gpslatitude </text>
<text text-anchor="start" x="121.81" y="-952.6" font-family="Arial" font-size="14.00" fill="#666666">[double precision]</text>
<polygon fill="none" stroke="black" points="43.2,-909.6 43.2,-940.4 363,-940.4 363,-909.6 43.2,-909.6"/>
<text text-anchor="start" x="50.2" y="-921.8" font-family="Arial" font-size="14.00">gpslongitude </text>
<text text-anchor="start" x="133.49" y="-921.8" font-family="Arial" font-size="14.00" fill="#666666">[double precision]</text>
<polygon fill="none" stroke="black" points="43.2,-878.8 43.2,-909.6 363,-909.6 363,-878.8 43.2,-878.8"/>
<text text-anchor="start" x="50.2" y="-891" font-family="Arial" font-size="14.00">gpsaltitude </text>
<text text-anchor="start" x="121.81" y="-891" font-family="Arial" font-size="14.00" fill="#666666">[double precision]</text>
<polygon fill="none" stroke="black" points="43.2,-848 43.2,-878.8 363,-878.8 363,-848 43.2,-848"/>
<text text-anchor="start" x="50.2" y="-860.2" font-family="Arial" font-size="14.00">gpserror </text>
<text text-anchor="start" x="106.22" y="-860.2" font-family="Arial" font-size="14.00" fill="#666666">[double precision]</text>
<polygon fill="none" stroke="black" points="43.2,-817.2 43.2,-848 363,-848 363,-817.2 43.2,-817.2"/>
<text text-anchor="start" x="50.2" y="-829.4" font-family="Arial" font-size="14.00">waterdepth </text>
<text text-anchor="start" x="123.36" y="-829.4" font-family="Arial" font-size="14.00" fill="#666666">[double precision]</text>
<polygon fill="none" stroke="black" points="43.2,-786.4 43.2,-817.2 363,-817.2 363,-786.4 43.2,-786.4"/>
<text text-anchor="start" x="50.2" y="-798.6" font-family="Arial" font-size="14.00">substrateid </text>
<text text-anchor="start" x="122.57" y="-798.6" font-family="Arial" font-size="14.00" fill="#666666">[integer]</text>
<polygon fill="none" stroke="black" points="43.2,-755.6 43.2,-786.4 363,-786.4 363,-755.6 43.2,-755.6"/>
<text text-anchor="start" x="50.2" y="-767.8" font-family="Arial" font-size="14.00">slopeaspect </text>
<text text-anchor="start" x="128.81" y="-767.8" font-family="Arial" font-size="14.00" fill="#666666">[integer]</text>
<polygon fill="none" stroke="black" points="43.2,-724.8 43.2,-755.6 363,-755.6 363,-724.8 43.2,-724.8"/>
<text text-anchor="start" x="50.2" y="-737" font-family="Arial" font-size="14.00">slopeangle </text>
<text text-anchor="start" x="121.81" y="-737" font-family="Arial" font-size="14.00" fill="#666666">[integer]</text>
<polygon fill="none" stroke="black" points="43.2,-694 43.2,-724.8 363,-724.8 363,-694 43.2,-694"/>
<text text-anchor="start" x="50.2" y="-706.2" font-family="Arial" font-size="14.00">location </text>
<text text-anchor="start" x="102.34" y="-706.2" font-family="Arial" font-size="14.00" fill="#666666">[varchar(255)]</text>
<polygon fill="none" stroke="black" points="43.2,-663.2 43.2,-694 363,-694 363,-663.2 43.2,-663.2"/>
<text text-anchor="start" x="50.2" y="-675.4" font-family="Arial" font-size="14.00">notes </text>
<text text-anchor="start" x="88.34" y="-675.4" font-family="Arial" font-size="14.00" fill="#666666">[text]</text>
<polygon fill="none" stroke="black" points="43.2,-632.4 43.2,-663.2 363,-663.2 363,-632.4 43.2,-632.4"/>
<text text-anchor="start" x="50.2" y="-644.6" font-family="Arial" font-size="14.00">recdatecreated </text>
<text text-anchor="start" x="147.48" y="-644.6" font-family="Arial" font-size="14.00" fill="#666666">[timestamp(0) without time zone]</text>
<polygon fill="none" stroke="black" points="43.2,-601.6 43.2,-632.4 363,-632.4 363,-601.6 43.2,-601.6"/>
<text text-anchor="start" x="50.2" y="-613.8" font-family="Arial" font-size="14.00">recdatemodified </text>
<text text-anchor="start" x="153.7" y="-613.8" font-family="Arial" font-size="14.00" fill="#666666">[timestamp(0) without time zone]</text>
</g>
<!-- ndb.collectionunits&#45;&gt;ndb.sites -->
<g id="edge2" class="edge">
<title>ndb.collectionunits:siteid&#45;&gt;ndb.sites:siteid</title>
<path fill="none" stroke="black" d="M373.28,-1136.29C423.06,-1085.53 372.86,-603.12 415.1,-558.4 484.03,-485.42 1208.81,-428.2 1309.2,-428.2"/>
<polygon fill="black" stroke="black" points="373.37,-1136.24 362.4,-1136.38 368.53,-1138.49 364.61,-1140.32 364.61,-1140.32 364.61,-1140.32 368.53,-1138.49 366.2,-1144.54 373.37,-1136.24"/>
<text text-anchor="start" x="371" y="-1150.6" font-family="Arial" font-size="10.00">FOREIGN KEY (siteid) REFERENCES ndb.sites(siteid) ON UPDATE CASCADE ON DELETE CASCADE</text>
</g>
<!-- ndb.sitegeopolitical -->
<g id="node4" class="node">
<title>ndb.sitegeopolitical</title>
<polygon fill="#efefef" stroke="none" points="467.2,-1002 467.2,-1037.6 787,-1037.6 787,-1002 467.2,-1002"/>
<polygon fill="none" stroke="black" points="467.2,-1002 467.2,-1037.6 787,-1037.6 787,-1002 467.2,-1002"/>
<text text-anchor="start" x="494.12" y="-1015.4" font-family="Arial Bold" font-size="18.00">ndb.sitegeopolitical</text>
<text text-anchor="start" x="635.59" y="-1015.4" font-family="Arial" font-size="14.00">    </text>
<text text-anchor="start" x="666.71" y="-1015.4" font-family="Arial" font-size="14.00" fill="#666666">[BASE TABLE]</text>
<polygon fill="none" stroke="black" points="467.2,-971.2 467.2,-1002 787,-1002 787,-971.2 467.2,-971.2"/>
<text text-anchor="start" x="474.2" y="-983.4" font-family="Arial" font-size="14.00">sitegeopoliticalid </text>
<text text-anchor="start" x="580.82" y="-983.4" font-family="Arial" font-size="14.00" fill="#666666">[integer]</text>
<polygon fill="none" stroke="black" points="467.2,-940.4 467.2,-971.2 787,-971.2 787,-940.4 467.2,-940.4"/>
<text text-anchor="start" x="474.2" y="-952.6" font-family="Arial" font-size="14.00">siteid </text>
<text text-anchor="start" x="510.77" y="-952.6" font-family="Arial" font-size="14.00" fill="#666666">[integer]</text>
<polygon fill="none" stroke="black" points="467.2,-909.6 467.2,-940.4 787,-940.4 787,-909.6 467.2,-909.6"/>
<text text-anchor="start" x="474.2" y="-921.8" font-family="Arial" font-size="14.00">geopoliticalid </text>
<text text-anchor="start" x="559.03" y="-921.8" font-family="Arial" font-size="14.00" fill="#666666">[integer]</text>
<polygon fill="none" stroke="black" points="467.2,-878.8 467.2,-909.6 787,-909.6 787,-878.8 467.2,-878.8"/>
<text text-anchor="start" x="474.2" y="-891" font-family="Arial" font-size="14.00">recdatecreated </text>
<text text-anchor="start" x="571.48" y="-891" font-family="Arial" font-size="14.00" fill="#666666">[timestamp(0) without time zone]</text>
<polygon fill="none" stroke="black" points="467.2,-848 467.2,-878.8 787,-878.8 787,-848 467.2,-848"/>
<text text-anchor="start" x="474.2" y="-860.2" font-family="Arial" font-size="14.00">recdatemodified </text>
<text text-anchor="start" x="577.7" y="-860.2" font-family="Arial" font-size="14.00" fill="#666666">[timestamp(0) without time zone]</text>
<polygon fill="none" stroke="black" points="467.2,-817.2 467.2,-848 787,-848 787,-817.2 467.2,-817.2"/>
<text text-anchor="start" x="474.2" y="-829.4" font-family="Arial" font-size="14.00">objectid </text>
<text text-anchor="start" x="526.34" y="-829.4" font-family="Arial" font-size="14.00" fill="#666666">[integer]</text>
</g>
<!-- ndb.sitegeopolitical&#45;&gt;ndb.sites -->
<g id="edge3" class="edge">
<title>ndb.sitegeopolitical:siteid&#45;&gt;ndb.sites:siteid</title>
<path fill="none" stroke="black" d="M798.04,-954.17C869.4,-929.16 783.17,-622.92 839.1,-558.4 910.11,-476.49 1200.8,-428.2 1309.2,-428.2"/>
<polygon fill="black" stroke="black" points="798.2,-954.15 787.61,-951.3 792.93,-955 788.66,-955.69 788.66,-955.69 788.66,-955.69 792.93,-955 789.05,-960.19 798.2,-954.15"/>
<text text-anchor="start" x="795" y="-965.8" font-family="Arial" font-size="10.00">FOREIGN KEY (siteid) REFERENCES ndb.sites(siteid) ON UPDATE CASCADE ON DELETE CASCADE</text>
</g>
<!-- ndb.siteimages -->
<g id="node5" class="node">
<title>ndb.siteimages</title>
<polygon fill="#efefef" stroke="none" points="891.2,-1048.2 891.2,-1083.8 1211,-1083.8 1211,-1048.2 891.2,-1048.2"/>
<polygon fill="none" stroke="black" points="891.2,-1048.2 891.2,-1083.8 1211,-1083.8 1211,-1048.2 891.2,-1048.2"/>
<text text-anchor="start" x="935.11" y="-1061.6" font-family="Arial Bold" font-size="18.00">ndb.siteimages</text>
<text text-anchor="start" x="1042.6" y="-1061.6" font-family="Arial" font-size="14.00">    </text>
<text text-anchor="start" x="1073.71" y="-1061.6" font-family="Arial" font-size="14.00" fill="#666666">[BASE TABLE]</text>
<polygon fill="none" stroke="black" points="891.2,-1017.4 891.2,-1048.2 1211,-1048.2 1211,-1017.4 891.2,-1017.4"/>
<text text-anchor="start" x="898.2" y="-1029.6" font-family="Arial" font-size="14.00">siteimageid </text>
<text text-anchor="start" x="972.9" y="-1029.6" font-family="Arial" font-size="14.00" fill="#666666">[integer]</text>
<polygon fill="none" stroke="black" points="891.2,-986.6 891.2,-1017.4 1211,-1017.4 1211,-986.6 891.2,-986.6"/>
<text text-anchor="start" x="898.2" y="-998.8" font-family="Arial" font-size="14.00">siteid </text>
<text text-anchor="start" x="934.77" y="-998.8" font-family="Arial" font-size="14.00" fill="#666666">[integer]</text>
<polygon fill="none" stroke="black" points="891.2,-955.8 891.2,-986.6 1211,-986.6 1211,-955.8 891.2,-955.8"/>
<text text-anchor="start" x="898.2" y="-968" font-family="Arial" font-size="14.00">contactid </text>
<text text-anchor="start" x="958.12" y="-968" font-family="Arial" font-size="14.00" fill="#666666">[integer]</text>
<polygon fill="none" stroke="black" points="891.2,-925 891.2,-955.8 1211,-955.8 1211,-925 891.2,-925"/>
<text text-anchor="start" x="898.2" y="-937.2" font-family="Arial" font-size="14.00">caption </text>
<text text-anchor="start" x="947.23" y="-937.2" font-family="Arial" font-size="14.00" fill="#666666">[text]</text>
<polygon fill="none" stroke="black" points="891.2,-894.2 891.2,-925 1211,-925 1211,-894.2 891.2,-894.2"/>
<text text-anchor="start" x="898.2" y="-906.4" font-family="Arial" font-size="14.00">credit </text>
<text text-anchor="start" x="936.32" y="-906.4" font-family="Arial" font-size="14.00" fill="#666666">[varchar(255)]</text>
<polygon fill="none" stroke="black" points="891.2,-863.4 891.2,-894.2 1211,-894.2 1211,-863.4 891.2,-863.4"/>
<text text-anchor="start" x="898.2" y="-875.6" font-family="Arial" font-size="14.00">date </text>
<text text-anchor="start" x="929.34" y="-875.6" font-family="Arial" font-size="14.00" fill="#666666">[date]</text>
<polygon fill="none" stroke="black" points="891.2,-832.6 891.2,-863.4 1211,-863.4 1211,-832.6 891.2,-832.6"/>
<text text-anchor="start" x="898.2" y="-844.8" font-family="Arial" font-size="14.00">siteimage </text>
<text text-anchor="start" x="962.01" y="-844.8" font-family="Arial" font-size="14.00" fill="#666666">[text]</text>
<polygon fill="none" stroke="black" points="891.2,-801.8 891.2,-832.6 1211,-832.6 1211,-801.8 891.2,-801.8"/>
<text text-anchor="start" x="898.2" y="-814" font-family="Arial" font-size="14.00">recdatecreated </text>
<text text-anchor="start" x="995.48" y="-814" font-family="Arial" font-size="14.00" fill="#666666">[timestamp(0) without time zone]</text>
<polygon fill="none" stroke="black" points="891.2,-771 891.2,-801.8 1211,-801.8 1211,-771 891.2,-771"/>
<text text-anchor="start" x="898.2" y="-783.2" font-family="Arial" font-size="14.00">recdatemodified </text>
<text text-anchor="start" x="1001.7" y="-783.2" font-family="Arial" font-size="14.00" fill="#666666">[timestamp(0) without time zone]</text>
</g>
<!-- ndb.siteimages&#45;&gt;ndb.sites -->
<g id="edge4" class="edge">
<title>ndb.siteimages:siteid&#45;&gt;ndb.sites:siteid</title>
<path fill="none" stroke="black" d="M1221.12,-996.99C1260.42,-951.03 1252.65,-603.53 1263.1,-558.4 1276.94,-498.59 1247.81,-428.2 1309.2,-428.2"/>
<polygon fill="black" stroke="black" points="1221.06,-997.02 1210.13,-997.89 1216.38,-999.59 1212.59,-1001.68 1212.59,-1001.68 1212.59,-1001.68 1216.38,-999.59 1214.46,-1005.78 1221.06,-997.02"/>
<text text-anchor="start" x="737.12" y="-1012" font-family="Arial" font-size="10.00">FOREIGN KEY (siteid) REFERENCES ndb.sites(siteid) ON UPDATE CASCADE ON DELETE CASCADE</text>
</g>
<!-- ndb.sitevegetationcover -->
<g id="node6" class="node">
<title>ndb.sitevegetationcover</title>
<polygon fill="#efefef" stroke="none" points="1315.14,-971.2 1315.14,-1006.8 1625.06,-1006.8 1625.06,-971.2 1315.14,-971.2"/>
<polygon fill="none" stroke="black" points="1315.14,-971.2 1315.14,-1006.8 1625.06,-1006.8 1625.06,-971.2 1315.14,-971.2"/>
<text text-anchor="start" x="1322.14" y="-984.6" font-family="Arial Bold" font-size="18.00">ndb.sitevegetationcover</text>
<text text-anchor="start" x="1493.57" y="-984.6" font-family="Arial" font-size="14.00">    </text>
<text text-anchor="start" x="1524.69" y="-984.6" font-family="Arial" font-size="14.00" fill="#666666">[BASE TABLE]</text>
<polygon fill="none" stroke="black" points="1315.14,-940.4 1315.14,-971.2 1625.06,-971.2 1625.06,-940.4 1315.14,-940.4"/>
<text text-anchor="start" x="1322.14" y="-952.6" font-family="Arial" font-size="14.00">siteid </text>
<text text-anchor="start" x="1358.71" y="-952.6" font-family="Arial" font-size="14.00" fill="#666666">[integer]</text>
<polygon fill="none" stroke="black" points="1315.14,-909.6 1315.14,-940.4 1625.06,-940.4 1625.06,-909.6 1315.14,-909.6"/>
<text text-anchor="start" x="1322.14" y="-921.8" font-family="Arial" font-size="14.00">vegetationcovertypeid </text>
<text text-anchor="start" x="1462.22" y="-921.8" font-family="Arial" font-size="14.00" fill="#666666">[integer]</text>
<polygon fill="none" stroke="black" points="1315.14,-878.8 1315.14,-909.6 1625.06,-909.6 1625.06,-878.8 1315.14,-878.8"/>
<text text-anchor="start" x="1322.14" y="-891" font-family="Arial" font-size="14.00">vegetationcoverpercent </text>
<text text-anchor="start" x="1471.56" y="-891" font-family="Arial" font-size="14.00" fill="#666666">[integer]</text>
<polygon fill="none" stroke="black" points="1315.14,-848 1315.14,-878.8 1625.06,-878.8 1625.06,-848 1315.14,-848"/>
<text text-anchor="start" x="1322.14" y="-860.2" font-family="Arial" font-size="14.00">vegetationcovernotes </text>
<text text-anchor="start" x="1459.11" y="-860.2" font-family="Arial" font-size="14.00" fill="#666666">[text]</text>
</g>
<!-- ndb.sitevegetationcover&#45;&gt;ndb.sites -->
<g id="edge5" class="edge">
<title>ndb.sitevegetationcover:siteid&#45;&gt;ndb.sites:siteid</title>
<path fill="none" stroke="black" d="M1635.2,-951.24C1685.04,-899.67 1686.42,-428.2 1631,-428.2"/>
<polygon fill="black" stroke="black" points="1635.31,-951.18 1624.35,-951.62 1630.54,-953.57 1626.66,-955.5 1626.66,-955.5 1626.66,-955.5 1630.54,-953.57 1628.37,-959.68 1635.31,-951.18"/>
<text text-anchor="start" x="1263.42" y="-939.8" font-family="Arial" font-size="10.00">FOREIGN KEY (siteid) REFERENCES ndb.sites(siteid) ON DELETE CASCADE</text>
</g>
<!-- ndb.sitelandusecover -->
<g id="node7" class="node">
<title>ndb.sitelandusecover</title>
<polygon fill="#efefef" stroke="none" points="1729.13,-971.2 1729.13,-1006.8 2019.07,-1006.8 2019.07,-971.2 1729.13,-971.2"/>
<polygon fill="none" stroke="black" points="1729.13,-971.2 1729.13,-1006.8 2019.07,-1006.8 2019.07,-971.2 1729.13,-971.2"/>
<text text-anchor="start" x="1736.13" y="-984.6" font-family="Arial Bold" font-size="18.00">ndb.sitelandusecover</text>
<text text-anchor="start" x="1887.58" y="-984.6" font-family="Arial" font-size="14.00">    </text>
<text text-anchor="start" x="1918.7" y="-984.6" font-family="Arial" font-size="14.00" fill="#666666">[BASE TABLE]</text>
<polygon fill="none" stroke="black" points="1729.13,-940.4 1729.13,-971.2 2019.07,-971.2 2019.07,-940.4 1729.13,-940.4"/>
<text text-anchor="start" x="1736.13" y="-952.6" font-family="Arial" font-size="14.00">siteid </text>
<text text-anchor="start" x="1772.7" y="-952.6" font-family="Arial" font-size="14.00" fill="#666666">[integer]</text>
<polygon fill="none" stroke="black" points="1729.13,-909.6 1729.13,-940.4 2019.07,-940.4 2019.07,-909.6 1729.13,-909.6"/>
<text text-anchor="start" x="1736.13" y="-921.8" font-family="Arial" font-size="14.00">landusecovertypeid </text>
<text text-anchor="start" x="1860.65" y="-921.8" font-family="Arial" font-size="14.00" fill="#666666">[integer]</text>
<polygon fill="none" stroke="black" points="1729.13,-878.8 1729.13,-909.6 2019.07,-909.6 2019.07,-878.8 1729.13,-878.8"/>
<text text-anchor="start" x="1736.13" y="-891" font-family="Arial" font-size="14.00">landusecoverpercent </text>
<text text-anchor="start" x="1869.99" y="-891" font-family="Arial" font-size="14.00" fill="#666666">[integer]</text>
<polygon fill="none" stroke="black" points="1729.13,-848 1729.13,-878.8 2019.07,-878.8 2019.07,-848 1729.13,-848"/>
<text text-anchor="start" x="1736.13" y="-860.2" font-family="Arial" font-size="14.00">landusecovernotes </text>
<text text-anchor="start" x="1857.54" y="-860.2" font-family="Arial" font-size="14.00" fill="#666666">[text]</text>
</g>
<!-- ndb.sitelandusecover&#45;&gt;ndb.sites -->
<g id="edge6" class="edge">
<title>ndb.sitelandusecover:siteid&#45;&gt;ndb.sites:siteid</title>
<path fill="none" stroke="black" d="M1719.21,-950.5C1684.09,-906.25 1686.68,-598.58 1677.1,-558.4 1662.87,-498.69 1692.39,-428.2 1631,-428.2"/>
<polygon fill="black" stroke="black" points="1719.24,-950.52 1725.54,-959.5 1723.83,-953.25 1727.55,-955.46 1727.55,-955.46 1727.55,-955.46 1723.83,-953.25 1730.14,-951.76 1719.24,-950.52"/>
<text text-anchor="start" x="1365.49" y="-965.8" font-family="Arial" font-size="10.00">FOREIGN KEY (siteid) REFERENCES ndb.sites(siteid) ON DELETE CASCADE</text>
</g>
<!-- ndb.speleothems -->
<g id="node8" class="node">
<title>ndb.speleothems</title>
<polygon fill="#efefef" stroke="none" points="2123.61,-1032.8 2123.61,-1068.4 2382.58,-1068.4 2382.58,-1032.8 2123.61,-1032.8"/>
<polygon fill="none" stroke="black" points="2123.61,-1032.8 2123.61,-1068.4 2382.58,-1068.4 2382.58,-1032.8 2123.61,-1032.8"/>
<text text-anchor="start" x="2130.61" y="-1046.2" font-family="Arial Bold" font-size="18.00">ndb.speleothems</text>
<text text-anchor="start" x="2251.1" y="-1046.2" font-family="Arial" font-size="14.00">    </text>
<text text-anchor="start" x="2282.21" y="-1046.2" font-family="Arial" font-size="14.00" fill="#666666">[BASE TABLE]</text>
<polygon fill="none" stroke="black" points="2123.61,-1002 2123.61,-1032.8 2382.58,-1032.8 2382.58,-1002 2123.61,-1002"/>
<text text-anchor="start" x="2130.61" y="-1014.2" font-family="Arial" font-size="14.00">siteid </text>
<text text-anchor="start" x="2167.19" y="-1014.2" font-family="Arial" font-size="14.00" fill="#666666">[integer]</text>
<polygon fill="none" stroke="black" points="2123.61,-971.2 2123.61,-1002 2382.58,-1002 2382.58,-971.2 2123.61,-971.2"/>
<text text-anchor="start" x="2130.61" y="-983.4" font-family="Arial" font-size="14.00">entityid </text>
<text text-anchor="start" x="2178.86" y="-983.4" font-family="Arial" font-size="14.00" fill="#666666">[integer]</text>
<polygon fill="none" stroke="black" points="2123.61,-940.4 2123.61,-971.2 2382.58,-971.2 2382.58,-940.4 2123.61,-940.4"/>
<text text-anchor="start" x="2130.61" y="-952.6" font-family="Arial" font-size="14.00">entityname </text>
<text text-anchor="start" x="2202.99" y="-952.6" font-family="Arial" font-size="14.00" fill="#666666">[text]</text>
<polygon fill="none" stroke="black" points="2123.61,-909.6 2123.61,-940.4 2382.58,-940.4 2382.58,-909.6 2123.61,-909.6"/>
<text text-anchor="start" x="2130.61" y="-921.8" font-family="Arial" font-size="14.00">monitoring </text>
<text text-anchor="start" x="2199.87" y="-921.8" font-family="Arial" font-size="14.00" fill="#666666">[boolean]</text>
<polygon fill="none" stroke="black" points="2123.61,-878.8 2123.61,-909.6 2382.58,-909.6 2382.58,-878.8 2123.61,-878.8"/>
<text text-anchor="start" x="2130.61" y="-891" font-family="Arial" font-size="14.00">rockageid </text>
<text text-anchor="start" x="2195.21" y="-891" font-family="Arial" font-size="14.00" fill="#666666">[integer]</text>
<polygon fill="none" stroke="black" points="2123.61,-848 2123.61,-878.8 2382.58,-878.8 2382.58,-848 2123.61,-848"/>
<text text-anchor="start" x="2130.61" y="-860.2" font-family="Arial" font-size="14.00">entrancedistance </text>
<text text-anchor="start" x="2241.13" y="-860.2" font-family="Arial" font-size="14.00" fill="#666666">[real]</text>
<polygon fill="none" stroke="black" points="2123.61,-817.2 2123.61,-848 2382.58,-848 2382.58,-817.2 2123.61,-817.2"/>
<text text-anchor="start" x="2130.61" y="-829.4" font-family="Arial" font-size="14.00">entrancedistanceunits </text>
<text text-anchor="start" x="2270.7" y="-829.4" font-family="Arial" font-size="14.00" fill="#666666">[integer]</text>
<polygon fill="none" stroke="black" points="2123.61,-786.4 2123.61,-817.2 2382.58,-817.2 2382.58,-786.4 2123.61,-786.4"/>
<text text-anchor="start" x="2130.61" y="-798.6" font-family="Arial" font-size="14.00">speleothemtypeid </text>
<text text-anchor="start" x="2244.24" y="-798.6" font-family="Arial" font-size="14.00" fill="#666666">[integer]</text>
</g>
<!-- ndb.speleothems&#45;&gt;ndb.sites -->
<g id="edge7" class="edge">
<title>ndb.speleothems:siteid&#45;&gt;ndb.sites:siteid</title>
<path fill="none" stroke="black" d="M2112.33,-1015.94C2028.19,-990.31 2134.64,-634.23 2071.1,-558.4 2005.59,-480.23 1732.99,-428.2 1631,-428.2"/>
<polygon fill="black" stroke="black" points="2112.38,-1015.95 2121.65,-1021.81 2117.66,-1016.7 2121.95,-1017.31 2121.95,-1017.31 2121.95,-1017.31 2117.66,-1016.7 2122.91,-1012.9 2112.38,-1015.95"/>
<text text-anchor="start" x="2129.61" y="-1027.4" font-family="Arial" font-size="10.00">FOREIGN KEY (siteid) REFERENCES ndb.sites(siteid) ON DELETE CASCADE</text>
</g>
</g>
</svg>
