<?xml version="1.0" encoding="UTF-8" standalone="no"?>
<!DOCTYPE svg PUBLIC "-//W3C//DTD SVG 1.1//EN"
 "http://www.w3.org/Graphics/SVG/1.1/DTD/svg11.dtd">
<!-- Generated by graphviz version 12.1.2 (20240928.0832)
 -->
<!-- Title: ndb.leadmodelbasis Pages: 1 -->
<svg width="977pt" height="719pt"
 viewBox="0.00 0.00 976.89 719.20" xmlns="http://www.w3.org/2000/svg" xmlns:xlink="http://www.w3.org/1999/xlink">
<g id="graph0" class="graph" transform="scale(1 1) rotate(0) translate(4 715.2)">
<title>ndb.leadmodelbasis</title>
<polygon fill="white" stroke="none" points="-4,4 -4,-715.2 972.89,-715.2 972.89,4 -4,4"/>
<!-- ndb.leadmodelbasis -->
<g id="node1" class="node">
<title>ndb.leadmodelbasis</title>
<polygon fill="#efefef" stroke="none" points="128.3,-243.4 128.3,-279 409.26,-279 409.26,-243.4 128.3,-243.4"/>
<polygon fill="none" stroke="black" points="128.3,-243.4 128.3,-279 409.26,-279 409.26,-243.4 128.3,-243.4"/>
<text text-anchor="start" x="135.3" y="-256.8" font-family="Arial Bold" font-size="18.00">ndb.leadmodelbasis</text>
<text text-anchor="start" x="277.77" y="-256.8" font-family="Arial" font-size="14.00">    </text>
<text text-anchor="start" x="308.89" y="-256.8" font-family="Arial" font-size="14.00" fill="#666666">[BASE TABLE]</text>
<polygon fill="none" stroke="black" points="128.3,-212.6 128.3,-243.4 409.26,-243.4 409.26,-212.6 128.3,-212.6"/>
<text text-anchor="start" x="135.3" y="-224.8" font-family="Arial" font-size="14.00">pbbasisid </text>
<text text-anchor="start" x="198.34" y="-224.8" font-family="Arial" font-size="14.00" fill="#666666">[integer]</text>
<polygon fill="none" stroke="black" points="128.3,-181.8 128.3,-212.6 409.26,-212.6 409.26,-181.8 128.3,-181.8"/>
<text text-anchor="start" x="135.3" y="-194" font-family="Arial" font-size="14.00">pbbasis </text>
<text text-anchor="start" x="187.44" y="-194" font-family="Arial" font-size="14.00" fill="#666666">[text]</text>
<polygon fill="none" stroke="black" stroke-width="3" points="126.8,-180.3 126.8,-280.5 410.76,-280.5 410.76,-180.3 126.8,-180.3"/>
</g>
<!-- ndb.leadmodels -->
<g id="node2" class="node">
<title>ndb.leadmodels</title>
<polygon fill="#efefef" stroke="none" points="346.8,-632.4 346.8,-668 598.76,-668 598.76,-632.4 346.8,-632.4"/>
<polygon fill="none" stroke="black" points="346.8,-632.4 346.8,-668 598.76,-668 598.76,-632.4 346.8,-632.4"/>
<text text-anchor="start" x="353.8" y="-645.8" font-family="Arial Bold" font-size="18.00">ndb.leadmodels</text>
<text text-anchor="start" x="467.27" y="-645.8" font-family="Arial" font-size="14.00">    </text>
<text text-anchor="start" x="498.39" y="-645.8" font-family="Arial" font-size="14.00" fill="#666666">[BASE TABLE]</text>
<polygon fill="none" stroke="black" points="346.8,-601.6 346.8,-632.4 598.76,-632.4 598.76,-601.6 346.8,-601.6"/>
<text text-anchor="start" x="353.8" y="-613.8" font-family="Arial" font-size="14.00">pbbasisid </text>
<text text-anchor="start" x="416.84" y="-613.8" font-family="Arial" font-size="14.00" fill="#666666">[integer]</text>
<polygon fill="none" stroke="black" points="346.8,-570.8 346.8,-601.6 598.76,-601.6 598.76,-570.8 346.8,-570.8"/>
<text text-anchor="start" x="353.8" y="-583" font-family="Arial" font-size="14.00">analysisunitid </text>
<text text-anchor="start" x="441.73" y="-583" font-family="Arial" font-size="14.00" fill="#666666">[integer]</text>
<polygon fill="none" stroke="black" points="346.8,-540 346.8,-570.8 598.76,-570.8 598.76,-540 346.8,-540"/>
<text text-anchor="start" x="353.8" y="-552.2" font-family="Arial" font-size="14.00">cumulativeinventory </text>
<text text-anchor="start" x="481.41" y="-552.2" font-family="Arial" font-size="14.00" fill="#666666">[numeric]</text>
</g>
<!-- ndb.leadmodels&#45;&gt;ndb.leadmodelbasis -->
<g id="edge1" class="edge">
<title>ndb.leadmodels:pbbasisid&#45;&gt;ndb.leadmodelbasis:pbbasisid</title>
<path fill="none" stroke="black" d="M335.75,-616.52C187.32,-601.21 581.91,-228 410.26,-228"/>
<polygon fill="black" stroke="black" points="335.47,-616.5 345.25,-621.48 340.8,-616.76 345.13,-616.97 345.13,-616.97 345.13,-616.97 340.8,-616.76 345.68,-612.49 335.47,-616.5"/>
<text text-anchor="start" x="7" y="-627" font-family="Arial" font-size="10.00">FOREIGN KEY (pbbasisid) REFERENCES ndb.leadmodelbasis(pbbasisid)</text>
</g>
<!-- ndb.analysisunits -->
<g id="node3" class="node">
<title>ndb.analysisunits</title>
<polygon fill="#efefef" stroke="none" points="516.88,-382 516.88,-417.6 836.68,-417.6 836.68,-382 516.88,-382"/>
<polygon fill="none" stroke="black" points="516.88,-382 516.88,-417.6 836.68,-417.6 836.68,-382 516.88,-382"/>
<text text-anchor="start" x="552.29" y="-395.4" font-family="Arial Bold" font-size="18.00">ndb.analysisunits</text>
<text text-anchor="start" x="676.78" y="-395.4" font-family="Arial" font-size="14.00">    </text>
<text text-anchor="start" x="707.9" y="-395.4" font-family="Arial" font-size="14.00" fill="#666666">[BASE TABLE]</text>
<polygon fill="none" stroke="black" points="516.88,-351.2 516.88,-382 836.68,-382 836.68,-351.2 516.88,-351.2"/>
<text text-anchor="start" x="523.88" y="-363.4" font-family="Arial" font-size="14.00">analysisunitid </text>
<text text-anchor="start" x="611.82" y="-363.4" font-family="Arial" font-size="14.00" fill="#666666">[integer]</text>
<polygon fill="none" stroke="black" points="516.88,-320.4 516.88,-351.2 836.68,-351.2 836.68,-320.4 516.88,-320.4"/>
<text text-anchor="start" x="523.88" y="-332.6" font-family="Arial" font-size="14.00">collectionunitid </text>
<text text-anchor="start" x="619.6" y="-332.6" font-family="Arial" font-size="14.00" fill="#666666">[integer]</text>
<polygon fill="none" stroke="black" points="516.88,-289.6 516.88,-320.4 836.68,-320.4 836.68,-289.6 516.88,-289.6"/>
<text text-anchor="start" x="523.88" y="-301.8" font-family="Arial" font-size="14.00">analysisunitname </text>
<text text-anchor="start" x="635.94" y="-301.8" font-family="Arial" font-size="14.00" fill="#666666">[varchar(80)]</text>
<polygon fill="none" stroke="black" points="516.88,-258.8 516.88,-289.6 836.68,-289.6 836.68,-258.8 516.88,-258.8"/>
<text text-anchor="start" x="523.88" y="-271" font-family="Arial" font-size="14.00">depth </text>
<text text-anchor="start" x="562.8" y="-271" font-family="Arial" font-size="14.00" fill="#666666">[double precision]</text>
<polygon fill="none" stroke="black" points="516.88,-228 516.88,-258.8 836.68,-258.8 836.68,-228 516.88,-228"/>
<text text-anchor="start" x="523.88" y="-240.2" font-family="Arial" font-size="14.00">thickness </text>
<text text-anchor="start" x="586.13" y="-240.2" font-family="Arial" font-size="14.00" fill="#666666">[double precision]</text>
<polygon fill="none" stroke="black" points="516.88,-197.2 516.88,-228 836.68,-228 836.68,-197.2 516.88,-197.2"/>
<text text-anchor="start" x="523.88" y="-209.4" font-family="Arial" font-size="14.00">faciesid </text>
<text text-anchor="start" x="575.24" y="-209.4" font-family="Arial" font-size="14.00" fill="#666666">[integer]</text>
<polygon fill="none" stroke="black" points="516.88,-166.4 516.88,-197.2 836.68,-197.2 836.68,-166.4 516.88,-166.4"/>
<text text-anchor="start" x="523.88" y="-178.6" font-family="Arial" font-size="14.00">mixed </text>
<text text-anchor="start" x="565.11" y="-178.6" font-family="Arial" font-size="14.00" fill="#666666">[boolean]</text>
<polygon fill="none" stroke="black" points="516.88,-135.6 516.88,-166.4 836.68,-166.4 836.68,-135.6 516.88,-135.6"/>
<text text-anchor="start" x="523.88" y="-147.8" font-family="Arial" font-size="14.00">igsn </text>
<text text-anchor="start" x="553.45" y="-147.8" font-family="Arial" font-size="14.00" fill="#666666">[varchar(40)]</text>
<polygon fill="none" stroke="black" points="516.88,-104.8 516.88,-135.6 836.68,-135.6 836.68,-104.8 516.88,-104.8"/>
<text text-anchor="start" x="523.88" y="-117" font-family="Arial" font-size="14.00">notes </text>
<text text-anchor="start" x="562.02" y="-117" font-family="Arial" font-size="14.00" fill="#666666">[text]</text>
<polygon fill="none" stroke="black" points="516.88,-74 516.88,-104.8 836.68,-104.8 836.68,-74 516.88,-74"/>
<text text-anchor="start" x="523.88" y="-86.2" font-family="Arial" font-size="14.00">recdatecreated </text>
<text text-anchor="start" x="621.16" y="-86.2" font-family="Arial" font-size="14.00" fill="#666666">[timestamp(0) without time zone]</text>
<polygon fill="none" stroke="black" points="516.88,-43.2 516.88,-74 836.68,-74 836.68,-43.2 516.88,-43.2"/>
<text text-anchor="start" x="523.88" y="-55.4" font-family="Arial" font-size="14.00">recdatemodified </text>
<text text-anchor="start" x="627.38" y="-55.4" font-family="Arial" font-size="14.00" fill="#666666">[timestamp(0) without time zone]</text>
</g>
<!-- ndb.leadmodels&#45;&gt;ndb.analysisunits -->
<g id="edge2" class="edge">
<title>ndb.leadmodels:analysisunitid&#45;&gt;ndb.analysisunits:analysisunitid</title>
<path fill="none" stroke="black" d="M609.78,-584.66C635.79,-575.43 618.53,-526.72 598.76,-496.8 576.85,-463.63 538.79,-493.97 516.88,-460.8 493.81,-425.86 474.01,-366.6 515.88,-366.6"/>
<polygon fill="black" stroke="black" points="609.98,-584.63 599.41,-581.7 604.7,-585.44 600.42,-586.1 600.42,-586.1 600.42,-586.1 604.7,-585.44 600.77,-590.6 609.98,-584.63"/>
<text text-anchor="start" x="606.76" y="-596.2" font-family="Arial" font-size="10.00">FOREIGN KEY (analysisunitid) REFERENCES ndb.analysisunits(analysisunitid)</text>
</g>
</g>
</svg>
