<?xml version="1.0" encoding="UTF-8" standalone="no"?>
<!DOCTYPE svg PUBLIC "-//W3C//DTD SVG 1.1//EN"
 "http://www.w3.org/Graphics/SVG/1.1/DTD/svg11.dtd">
<!-- Generated by graphviz version 12.1.2 (20240928.0832)
 -->
<!-- Title: ndb.sysdiagrams Pages: 1 -->
<svg width="359pt" height="290pt"
 viewBox="0.00 0.00 359.38 290.00" xmlns="http://www.w3.org/2000/svg" xmlns:xlink="http://www.w3.org/1999/xlink">
<g id="graph0" class="graph" transform="scale(1 1) rotate(0) translate(4 286)">
<title>ndb.sysdiagrams</title>
<polygon fill="white" stroke="none" points="-4,4 -4,-286 355.38,-286 355.38,4 -4,4"/>
<!-- ndb.sysdiagrams -->
<g id="node1" class="node">
<title>ndb.sysdiagrams</title>
<polygon fill="#efefef" stroke="none" points="46.2,-200.2 46.2,-235.8 305.18,-235.8 305.18,-200.2 46.2,-200.2"/>
<polygon fill="none" stroke="black" points="46.2,-200.2 46.2,-235.8 305.18,-235.8 305.18,-200.2 46.2,-200.2"/>
<text text-anchor="start" x="53.2" y="-213.6" font-family="Arial Bold" font-size="18.00">ndb.sysdiagrams</text>
<text text-anchor="start" x="173.69" y="-213.6" font-family="Arial" font-size="14.00">    </text>
<text text-anchor="start" x="204.81" y="-213.6" font-family="Arial" font-size="14.00" fill="#666666">[BASE TABLE]</text>
<polygon fill="none" stroke="black" points="46.2,-169.4 46.2,-200.2 305.18,-200.2 305.18,-169.4 46.2,-169.4"/>
<text text-anchor="start" x="53.2" y="-181.6" font-family="Arial" font-size="14.00">name </text>
<text text-anchor="start" x="92.11" y="-181.6" font-family="Arial" font-size="14.00" fill="#666666">[varchar]</text>
<polygon fill="none" stroke="black" points="46.2,-138.6 46.2,-169.4 305.18,-169.4 305.18,-138.6 46.2,-138.6"/>
<text text-anchor="start" x="53.2" y="-150.8" font-family="Arial" font-size="14.00">principal_id </text>
<text text-anchor="start" x="127.91" y="-150.8" font-family="Arial" font-size="14.00" fill="#666666">[integer]</text>
<polygon fill="none" stroke="black" points="46.2,-107.8 46.2,-138.6 305.18,-138.6 305.18,-107.8 46.2,-107.8"/>
<text text-anchor="start" x="53.2" y="-120" font-family="Arial" font-size="14.00">diagram_id </text>
<text text-anchor="start" x="126.35" y="-120" font-family="Arial" font-size="14.00" fill="#666666">[integer]</text>
<polygon fill="none" stroke="black" points="46.2,-77 46.2,-107.8 305.18,-107.8 305.18,-77 46.2,-77"/>
<text text-anchor="start" x="53.2" y="-89.2" font-family="Arial" font-size="14.00">version </text>
<text text-anchor="start" x="102.22" y="-89.2" font-family="Arial" font-size="14.00" fill="#666666">[integer]</text>
<polygon fill="none" stroke="black" points="46.2,-46.2 46.2,-77 305.18,-77 305.18,-46.2 46.2,-46.2"/>
<text text-anchor="start" x="53.2" y="-58.4" font-family="Arial" font-size="14.00">definition </text>
<text text-anchor="start" x="113.13" y="-58.4" font-family="Arial" font-size="14.00" fill="#666666">[bytea]</text>
<polygon fill="none" stroke="black" stroke-width="3" points="44.7,-44.7 44.7,-237.3 306.68,-237.3 306.68,-44.7 44.7,-44.7"/>
</g>
</g>
</svg>
