<?xml version="1.0" encoding="UTF-8" standalone="no"?>
<!DOCTYPE svg PUBLIC "-//W3C//DTD SVG 1.1//EN"
 "http://www.w3.org/Graphics/SVG/1.1/DTD/svg11.dtd">
<!-- Generated by graphviz version 12.1.2 (20240928.0832)
 -->
<!-- Title: ndb.radiocarbon Pages: 1 -->
<svg width="3345pt" height="1622pt"
 viewBox="0.00 0.00 3344.94 1622.40" xmlns="http://www.w3.org/2000/svg" xmlns:xlink="http://www.w3.org/1999/xlink">
<g id="graph0" class="graph" transform="scale(1 1) rotate(0) translate(4 1618.4)">
<title>ndb.radiocarbon</title>
<polygon fill="white" stroke="none" points="-4,4 -4,-1618.4 3340.94,-1618.4 3340.94,4 -4,4"/>
<!-- ndb.radiocarbon -->
<g id="node1" class="node">
<title>ndb.radiocarbon</title>
<polygon fill="#efefef" stroke="none" points="2545.26,-1532.6 2545.26,-1568.2 2865.06,-1568.2 2865.06,-1532.6 2545.26,-1532.6"/>
<polygon fill="none" stroke="black" points="2545.26,-1532.6 2545.26,-1568.2 2865.06,-1568.2 2865.06,-1532.6 2545.26,-1532.6"/>
<text text-anchor="start" x="2584.19" y="-1546" font-family="Arial Bold" font-size="18.00">ndb.radiocarbon</text>
<text text-anchor="start" x="2701.65" y="-1546" font-family="Arial" font-size="14.00">    </text>
<text text-anchor="start" x="2732.76" y="-1546" font-family="Arial" font-size="14.00" fill="#666666">[BASE TABLE]</text>
<polygon fill="none" stroke="black" points="2545.26,-1501.8 2545.26,-1532.6 2865.06,-1532.6 2865.06,-1501.8 2545.26,-1501.8"/>
<text text-anchor="start" x="2552.26" y="-1514" font-family="Arial" font-size="14.00">cnratio </text>
<text text-anchor="start" x="2598.17" y="-1514" font-family="Arial" font-size="14.00" fill="#666666">[double precision]</text>
<polygon fill="none" stroke="black" points="2545.26,-1471 2545.26,-1501.8 2865.06,-1501.8 2865.06,-1471 2545.26,-1471"/>
<text text-anchor="start" x="2552.26" y="-1483.2" font-family="Arial" font-size="14.00">delta13c </text>
<text text-anchor="start" x="2609.08" y="-1483.2" font-family="Arial" font-size="14.00" fill="#666666">[double precision]</text>
<polygon fill="none" stroke="black" points="2545.26,-1440.2 2545.26,-1471 2865.06,-1471 2865.06,-1440.2 2545.26,-1440.2"/>
<text text-anchor="start" x="2552.26" y="-1452.4" font-family="Arial" font-size="14.00">delta15n </text>
<text text-anchor="start" x="2609.87" y="-1452.4" font-family="Arial" font-size="14.00" fill="#666666">[double precision]</text>
<polygon fill="none" stroke="black" points="2545.26,-1409.4 2545.26,-1440.2 2865.06,-1440.2 2865.06,-1409.4 2545.26,-1409.4"/>
<text text-anchor="start" x="2552.26" y="-1421.6" font-family="Arial" font-size="14.00">geochronid </text>
<text text-anchor="start" x="2625.43" y="-1421.6" font-family="Arial" font-size="14.00" fill="#666666">[integer]</text>
<polygon fill="none" stroke="black" points="2545.26,-1378.6 2545.26,-1409.4 2865.06,-1409.4 2865.06,-1378.6 2545.26,-1378.6"/>
<text text-anchor="start" x="2552.26" y="-1390.8" font-family="Arial" font-size="14.00">masscmg </text>
<text text-anchor="start" x="2616.05" y="-1390.8" font-family="Arial" font-size="14.00" fill="#666666">[double precision]</text>
<polygon fill="none" stroke="black" points="2545.26,-1347.8 2545.26,-1378.6 2865.06,-1378.6 2865.06,-1347.8 2545.26,-1347.8"/>
<text text-anchor="start" x="2552.26" y="-1360" font-family="Arial" font-size="14.00">percentc </text>
<text text-anchor="start" x="2609.85" y="-1360" font-family="Arial" font-size="14.00" fill="#666666">[double precision]</text>
<polygon fill="none" stroke="black" points="2545.26,-1317 2545.26,-1347.8 2865.06,-1347.8 2865.06,-1317 2545.26,-1317"/>
<text text-anchor="start" x="2552.26" y="-1329.2" font-family="Arial" font-size="14.00">percentcollagen </text>
<text text-anchor="start" x="2655" y="-1329.2" font-family="Arial" font-size="14.00" fill="#666666">[double precision]</text>
<polygon fill="none" stroke="black" points="2545.26,-1286.2 2545.26,-1317 2865.06,-1317 2865.06,-1286.2 2545.26,-1286.2"/>
<text text-anchor="start" x="2552.26" y="-1298.4" font-family="Arial" font-size="14.00">percentn </text>
<text text-anchor="start" x="2610.64" y="-1298.4" font-family="Arial" font-size="14.00" fill="#666666">[double precision]</text>
<polygon fill="none" stroke="black" points="2545.26,-1255.4 2545.26,-1286.2 2865.06,-1286.2 2865.06,-1255.4 2545.26,-1255.4"/>
<text text-anchor="start" x="2552.26" y="-1267.6" font-family="Arial" font-size="14.00">radiocarbonmethodid </text>
<text text-anchor="start" x="2687.68" y="-1267.6" font-family="Arial" font-size="14.00" fill="#666666">[integer]</text>
<polygon fill="none" stroke="black" points="2545.26,-1224.6 2545.26,-1255.4 2865.06,-1255.4 2865.06,-1224.6 2545.26,-1224.6"/>
<text text-anchor="start" x="2552.26" y="-1236.8" font-family="Arial" font-size="14.00">recdatecreated </text>
<text text-anchor="start" x="2649.55" y="-1236.8" font-family="Arial" font-size="14.00" fill="#666666">[timestamp(0) without time zone]</text>
<polygon fill="none" stroke="black" points="2545.26,-1193.8 2545.26,-1224.6 2865.06,-1224.6 2865.06,-1193.8 2545.26,-1193.8"/>
<text text-anchor="start" x="2552.26" y="-1206" font-family="Arial" font-size="14.00">recdatemodified </text>
<text text-anchor="start" x="2655.77" y="-1206" font-family="Arial" font-size="14.00" fill="#666666">[timestamp(0) without time zone]</text>
<polygon fill="none" stroke="black" points="2545.26,-1163 2545.26,-1193.8 2865.06,-1193.8 2865.06,-1163 2545.26,-1163"/>
<text text-anchor="start" x="2552.26" y="-1175.2" font-family="Arial" font-size="14.00">reservoir </text>
<text text-anchor="start" x="2610.61" y="-1175.2" font-family="Arial" font-size="14.00" fill="#666666">[double precision]</text>
<polygon fill="none" stroke="black" stroke-width="3" points="2543.76,-1161.5 2543.76,-1569.7 2866.56,-1569.7 2866.56,-1161.5 2543.76,-1161.5"/>
</g>
<!-- ndb.geochronology -->
<g id="node2" class="node">
<title>ndb.geochronology</title>
<polygon fill="#efefef" stroke="none" points="1337.26,-1002 1337.26,-1037.6 1657.06,-1037.6 1657.06,-1002 1337.26,-1002"/>
<polygon fill="none" stroke="black" points="1337.26,-1002 1337.26,-1037.6 1657.06,-1037.6 1657.06,-1002 1337.26,-1002"/>
<text text-anchor="start" x="1365.18" y="-1015.4" font-family="Arial Bold" font-size="18.00">ndb.geochronology</text>
<text text-anchor="start" x="1504.66" y="-1015.4" font-family="Arial" font-size="14.00">    </text>
<text text-anchor="start" x="1535.77" y="-1015.4" font-family="Arial" font-size="14.00" fill="#666666">[BASE TABLE]</text>
<polygon fill="none" stroke="black" points="1337.26,-971.2 1337.26,-1002 1657.06,-1002 1657.06,-971.2 1337.26,-971.2"/>
<text text-anchor="start" x="1344.26" y="-983.4" font-family="Arial" font-size="14.00">age </text>
<text text-anchor="start" x="1371.51" y="-983.4" font-family="Arial" font-size="14.00" fill="#666666">[double precision]</text>
<polygon fill="none" stroke="black" points="1337.26,-940.4 1337.26,-971.2 1657.06,-971.2 1657.06,-940.4 1337.26,-940.4"/>
<text text-anchor="start" x="1344.26" y="-952.6" font-family="Arial" font-size="14.00">agetypeid </text>
<text text-anchor="start" x="1408.87" y="-952.6" font-family="Arial" font-size="14.00" fill="#666666">[integer]</text>
<polygon fill="none" stroke="black" points="1337.26,-909.6 1337.26,-940.4 1657.06,-940.4 1657.06,-909.6 1337.26,-909.6"/>
<text text-anchor="start" x="1344.26" y="-921.8" font-family="Arial" font-size="14.00">delta13c </text>
<text text-anchor="start" x="1401.08" y="-921.8" font-family="Arial" font-size="14.00" fill="#666666">[double precision]</text>
<polygon fill="none" stroke="black" points="1337.26,-878.8 1337.26,-909.6 1657.06,-909.6 1657.06,-878.8 1337.26,-878.8"/>
<text text-anchor="start" x="1344.26" y="-891" font-family="Arial" font-size="14.00">errorolder </text>
<text text-anchor="start" x="1408.84" y="-891" font-family="Arial" font-size="14.00" fill="#666666">[double precision]</text>
<polygon fill="none" stroke="black" points="1337.26,-848 1337.26,-878.8 1657.06,-878.8 1657.06,-848 1337.26,-848"/>
<text text-anchor="start" x="1344.26" y="-860.2" font-family="Arial" font-size="14.00">erroryounger </text>
<text text-anchor="start" x="1428.3" y="-860.2" font-family="Arial" font-size="14.00" fill="#666666">[double precision]</text>
<polygon fill="none" stroke="black" points="1337.26,-817.2 1337.26,-848 1657.06,-848 1657.06,-817.2 1337.26,-817.2"/>
<text text-anchor="start" x="1344.26" y="-829.4" font-family="Arial" font-size="14.00">geochronid </text>
<text text-anchor="start" x="1417.43" y="-829.4" font-family="Arial" font-size="14.00" fill="#666666">[integer]</text>
<polygon fill="none" stroke="black" points="1337.26,-786.4 1337.26,-817.2 1657.06,-817.2 1657.06,-786.4 1337.26,-786.4"/>
<text text-anchor="start" x="1344.26" y="-798.6" font-family="Arial" font-size="14.00">geochrontypeid </text>
<text text-anchor="start" x="1443.89" y="-798.6" font-family="Arial" font-size="14.00" fill="#666666">[integer]</text>
<polygon fill="none" stroke="black" points="1337.26,-755.6 1337.26,-786.4 1657.06,-786.4 1657.06,-755.6 1337.26,-755.6"/>
<text text-anchor="start" x="1344.26" y="-767.8" font-family="Arial" font-size="14.00">infinite </text>
<text text-anchor="start" x="1388.62" y="-767.8" font-family="Arial" font-size="14.00" fill="#666666">[boolean]</text>
<polygon fill="none" stroke="black" points="1337.26,-724.8 1337.26,-755.6 1657.06,-755.6 1657.06,-724.8 1337.26,-724.8"/>
<text text-anchor="start" x="1344.26" y="-737" font-family="Arial" font-size="14.00">labnumber </text>
<text text-anchor="start" x="1414.3" y="-737" font-family="Arial" font-size="14.00" fill="#666666">[varchar(40)]</text>
<polygon fill="none" stroke="black" points="1337.26,-694 1337.26,-724.8 1657.06,-724.8 1657.06,-694 1337.26,-694"/>
<text text-anchor="start" x="1344.26" y="-706.2" font-family="Arial" font-size="14.00">materialdated </text>
<text text-anchor="start" x="1432.98" y="-706.2" font-family="Arial" font-size="14.00" fill="#666666">[varchar(255)]</text>
<polygon fill="none" stroke="black" points="1337.26,-663.2 1337.26,-694 1657.06,-694 1657.06,-663.2 1337.26,-663.2"/>
<text text-anchor="start" x="1344.26" y="-675.4" font-family="Arial" font-size="14.00">notes </text>
<text text-anchor="start" x="1382.4" y="-675.4" font-family="Arial" font-size="14.00" fill="#666666">[text]</text>
<polygon fill="none" stroke="black" points="1337.26,-632.4 1337.26,-663.2 1657.06,-663.2 1657.06,-632.4 1337.26,-632.4"/>
<text text-anchor="start" x="1344.26" y="-644.6" font-family="Arial" font-size="14.00">recdatecreated </text>
<text text-anchor="start" x="1441.55" y="-644.6" font-family="Arial" font-size="14.00" fill="#666666">[timestamp(0) without time zone]</text>
<polygon fill="none" stroke="black" points="1337.26,-601.6 1337.26,-632.4 1657.06,-632.4 1657.06,-601.6 1337.26,-601.6"/>
<text text-anchor="start" x="1344.26" y="-613.8" font-family="Arial" font-size="14.00">recdatemodified </text>
<text text-anchor="start" x="1447.77" y="-613.8" font-family="Arial" font-size="14.00" fill="#666666">[timestamp(0) without time zone]</text>
<polygon fill="none" stroke="black" points="1337.26,-570.8 1337.26,-601.6 1657.06,-601.6 1657.06,-570.8 1337.26,-570.8"/>
<text text-anchor="start" x="1344.26" y="-583" font-family="Arial" font-size="14.00">sampleid </text>
<text text-anchor="start" x="1404.18" y="-583" font-family="Arial" font-size="14.00" fill="#666666">[integer]</text>
</g>
<!-- ndb.radiocarbon&#45;&gt;ndb.geochronology -->
<g id="edge1" class="edge">
<title>ndb.radiocarbon:geochronid&#45;&gt;ndb.geochronology:geochronid</title>
<path fill="none" stroke="black" d="M2534.32,-1422.74C2480.87,-1398.45 2532.96,-1166.82 2490.16,-1116.8 2363.13,-968.33 1853.46,-832.6 1658.06,-832.6"/>
<polygon fill="black" stroke="black" points="2534.14,-1422.7 2543.02,-1429.14 2539.37,-1423.78 2543.61,-1424.66 2543.61,-1424.66 2543.61,-1424.66 2539.37,-1423.78 2544.85,-1420.33 2534.14,-1422.7"/>
<text text-anchor="start" x="2551.26" y="-1434.8" font-family="Arial" font-size="10.00">FOREIGN KEY (geochronid) REFERENCES ndb.geochronology(geochronid) ON DELETE CASCADE</text>
</g>
<!-- ndb.radiocarbonmethods -->
<g id="node12" class="node">
<title>ndb.radiocarbonmethods</title>
<polygon fill="#efefef" stroke="none" points="2545.26,-848 2545.26,-883.6 2865.06,-883.6 2865.06,-848 2545.26,-848"/>
<polygon fill="none" stroke="black" points="2545.26,-848 2545.26,-883.6 2865.06,-883.6 2865.06,-848 2545.26,-848"/>
<text text-anchor="start" x="2553.69" y="-861.4" font-family="Arial Bold" font-size="18.00">ndb.radiocarbonmethods</text>
<text text-anchor="start" x="2732.15" y="-861.4" font-family="Arial" font-size="14.00">    </text>
<text text-anchor="start" x="2763.26" y="-861.4" font-family="Arial" font-size="14.00" fill="#666666">[BASE TABLE]</text>
<polygon fill="none" stroke="black" points="2545.26,-817.2 2545.26,-848 2865.06,-848 2865.06,-817.2 2545.26,-817.2"/>
<text text-anchor="start" x="2552.26" y="-829.4" font-family="Arial" font-size="14.00">radiocarbonmethod </text>
<text text-anchor="start" x="2676.79" y="-829.4" font-family="Arial" font-size="14.00" fill="#666666">[varchar(64)]</text>
<polygon fill="none" stroke="black" points="2545.26,-786.4 2545.26,-817.2 2865.06,-817.2 2865.06,-786.4 2545.26,-786.4"/>
<text text-anchor="start" x="2552.26" y="-798.6" font-family="Arial" font-size="14.00">radiocarbonmethodid </text>
<text text-anchor="start" x="2687.68" y="-798.6" font-family="Arial" font-size="14.00" fill="#666666">[integer]</text>
<polygon fill="none" stroke="black" points="2545.26,-755.6 2545.26,-786.4 2865.06,-786.4 2865.06,-755.6 2545.26,-755.6"/>
<text text-anchor="start" x="2552.26" y="-767.8" font-family="Arial" font-size="14.00">recdatecreated </text>
<text text-anchor="start" x="2649.55" y="-767.8" font-family="Arial" font-size="14.00" fill="#666666">[timestamp(0) without time zone]</text>
<polygon fill="none" stroke="black" points="2545.26,-724.8 2545.26,-755.6 2865.06,-755.6 2865.06,-724.8 2545.26,-724.8"/>
<text text-anchor="start" x="2552.26" y="-737" font-family="Arial" font-size="14.00">recdatemodified </text>
<text text-anchor="start" x="2655.77" y="-737" font-family="Arial" font-size="14.00" fill="#666666">[timestamp(0) without time zone]</text>
</g>
<!-- ndb.radiocarbon&#45;&gt;ndb.radiocarbonmethods -->
<g id="edge11" class="edge">
<title>ndb.radiocarbon:radiocarbonmethodid&#45;&gt;ndb.radiocarbonmethods:radiocarbonmethodid</title>
<path fill="none" stroke="black" d="M2876.1,-1269.28C2970.17,-1240.17 2966.82,-801.8 2866.06,-801.8"/>
<polygon fill="black" stroke="black" points="2876.28,-1269.26 2865.72,-1266.3 2871.01,-1270.05 2866.72,-1270.7 2866.72,-1270.7 2866.72,-1270.7 2871.01,-1270.05 2867.07,-1275.2 2876.28,-1269.26"/>
<text text-anchor="start" x="2873.06" y="-1280.8" font-family="Arial" font-size="10.00">FOREIGN KEY (radiocarbonmethodid) REFERENCES ndb.radiocarbonmethods(radiocarbonmethodid)</text>
</g>
<!-- ndb.agetypes -->
<g id="node3" class="node">
<title>ndb.agetypes</title>
<polygon fill="#efefef" stroke="none" points="913.26,-320.4 913.26,-356 1233.06,-356 1233.06,-320.4 913.26,-320.4"/>
<polygon fill="none" stroke="black" points="913.26,-320.4 913.26,-356 1233.06,-356 1233.06,-320.4 913.26,-320.4"/>
<text text-anchor="start" x="963.68" y="-333.8" font-family="Arial Bold" font-size="18.00">ndb.agetypes</text>
<text text-anchor="start" x="1058.16" y="-333.8" font-family="Arial" font-size="14.00">    </text>
<text text-anchor="start" x="1089.27" y="-333.8" font-family="Arial" font-size="14.00" fill="#666666">[BASE TABLE]</text>
<polygon fill="none" stroke="black" points="913.26,-289.6 913.26,-320.4 1233.06,-320.4 1233.06,-289.6 913.26,-289.6"/>
<text text-anchor="start" x="920.26" y="-301.8" font-family="Arial" font-size="14.00">agetype </text>
<text text-anchor="start" x="973.97" y="-301.8" font-family="Arial" font-size="14.00" fill="#666666">[varchar(64)]</text>
<polygon fill="none" stroke="black" points="913.26,-258.8 913.26,-289.6 1233.06,-289.6 1233.06,-258.8 913.26,-258.8"/>
<text text-anchor="start" x="920.26" y="-271" font-family="Arial" font-size="14.00">agetypeid </text>
<text text-anchor="start" x="984.87" y="-271" font-family="Arial" font-size="14.00" fill="#666666">[integer]</text>
<polygon fill="none" stroke="black" points="913.26,-228 913.26,-258.8 1233.06,-258.8 1233.06,-228 913.26,-228"/>
<text text-anchor="start" x="920.26" y="-240.2" font-family="Arial" font-size="14.00">precedence </text>
<text text-anchor="start" x="997.32" y="-240.2" font-family="Arial" font-size="14.00" fill="#666666">[integer]</text>
<polygon fill="none" stroke="black" points="913.26,-197.2 913.26,-228 1233.06,-228 1233.06,-197.2 913.26,-197.2"/>
<text text-anchor="start" x="920.26" y="-209.4" font-family="Arial" font-size="14.00">recdatecreated </text>
<text text-anchor="start" x="1017.55" y="-209.4" font-family="Arial" font-size="14.00" fill="#666666">[timestamp(0) without time zone]</text>
<polygon fill="none" stroke="black" points="913.26,-166.4 913.26,-197.2 1233.06,-197.2 1233.06,-166.4 913.26,-166.4"/>
<text text-anchor="start" x="920.26" y="-178.6" font-family="Arial" font-size="14.00">recdatemodified </text>
<text text-anchor="start" x="1023.77" y="-178.6" font-family="Arial" font-size="14.00" fill="#666666">[timestamp(0) without time zone]</text>
<polygon fill="none" stroke="black" points="913.26,-135.6 913.26,-166.4 1233.06,-166.4 1233.06,-135.6 913.26,-135.6"/>
<text text-anchor="start" x="920.26" y="-147.8" font-family="Arial" font-size="14.00">shortagetype </text>
<text text-anchor="start" x="1005.1" y="-147.8" font-family="Arial" font-size="14.00" fill="#666666">[varchar(32)]</text>
</g>
<!-- ndb.geochronology&#45;&gt;ndb.agetypes -->
<g id="edge2" class="edge">
<title>ndb.geochronology:agetypeid&#45;&gt;ndb.agetypes:agetypeid</title>
<path fill="none" stroke="black" d="M1326.69,-951.8C1264,-895.94 1307.2,-274.2 1234.06,-274.2"/>
<polygon fill="black" stroke="black" points="1326.73,-951.81 1334.22,-959.82 1331.65,-953.87 1335.65,-955.54 1335.65,-955.54 1335.65,-955.54 1331.65,-953.87 1337.69,-951.52 1326.73,-951.81"/>
<text text-anchor="start" x="1024.13" y="-965.8" font-family="Arial" font-size="10.00">FOREIGN KEY (agetypeid) REFERENCES ndb.agetypes(agetypeid)</text>
</g>
<!-- ndb.geochrontypes -->
<g id="node10" class="node">
<title>ndb.geochrontypes</title>
<polygon fill="#efefef" stroke="none" points="1337.26,-289.6 1337.26,-325.2 1657.06,-325.2 1657.06,-289.6 1337.26,-289.6"/>
<polygon fill="none" stroke="black" points="1337.26,-289.6 1337.26,-325.2 1657.06,-325.2 1657.06,-289.6 1337.26,-289.6"/>
<text text-anchor="start" x="1366.68" y="-303" font-family="Arial Bold" font-size="18.00">ndb.geochrontypes</text>
<text text-anchor="start" x="1503.15" y="-303" font-family="Arial" font-size="14.00">    </text>
<text text-anchor="start" x="1534.27" y="-303" font-family="Arial" font-size="14.00" fill="#666666">[BASE TABLE]</text>
<polygon fill="none" stroke="black" points="1337.26,-258.8 1337.26,-289.6 1657.06,-289.6 1657.06,-258.8 1337.26,-258.8"/>
<text text-anchor="start" x="1344.26" y="-271" font-family="Arial" font-size="14.00">geochrontype </text>
<text text-anchor="start" x="1432.99" y="-271" font-family="Arial" font-size="14.00" fill="#666666">[varchar(64)]</text>
<polygon fill="none" stroke="black" points="1337.26,-228 1337.26,-258.8 1657.06,-258.8 1657.06,-228 1337.26,-228"/>
<text text-anchor="start" x="1344.26" y="-240.2" font-family="Arial" font-size="14.00">geochrontypeid </text>
<text text-anchor="start" x="1443.89" y="-240.2" font-family="Arial" font-size="14.00" fill="#666666">[integer]</text>
<polygon fill="none" stroke="black" points="1337.26,-197.2 1337.26,-228 1657.06,-228 1657.06,-197.2 1337.26,-197.2"/>
<text text-anchor="start" x="1344.26" y="-209.4" font-family="Arial" font-size="14.00">recdatecreated </text>
<text text-anchor="start" x="1441.55" y="-209.4" font-family="Arial" font-size="14.00" fill="#666666">[timestamp(0) without time zone]</text>
<polygon fill="none" stroke="black" points="1337.26,-166.4 1337.26,-197.2 1657.06,-197.2 1657.06,-166.4 1337.26,-166.4"/>
<text text-anchor="start" x="1344.26" y="-178.6" font-family="Arial" font-size="14.00">recdatemodified </text>
<text text-anchor="start" x="1447.77" y="-178.6" font-family="Arial" font-size="14.00" fill="#666666">[timestamp(0) without time zone]</text>
</g>
<!-- ndb.geochronology&#45;&gt;ndb.geochrontypes -->
<g id="edge9" class="edge">
<title>ndb.geochronology:geochrontypeid&#45;&gt;ndb.geochrontypes:geochrontypeid</title>
<path fill="none" stroke="black" d="M1667.36,-797.31C1719.93,-744.46 1716.84,-243.4 1658.06,-243.4"/>
<polygon fill="black" stroke="black" points="1667.37,-797.3 1656.41,-797.6 1662.56,-799.62 1658.67,-801.51 1658.67,-801.51 1658.67,-801.51 1662.56,-799.62 1660.32,-805.71 1667.37,-797.3"/>
<text text-anchor="start" x="1665.06" y="-811.8" font-family="Arial" font-size="10.00">FOREIGN KEY (geochrontypeid) REFERENCES ndb.geochrontypes(geochrontypeid) ON UPDATE CASCADE ON DELETE CASCADE</text>
</g>
<!-- ndb.samples -->
<g id="node11" class="node">
<title>ndb.samples</title>
<polygon fill="#efefef" stroke="none" points="1761.26,-412.8 1761.26,-448.4 2081.06,-448.4 2081.06,-412.8 1761.26,-412.8"/>
<polygon fill="none" stroke="black" points="1761.26,-412.8 1761.26,-448.4 2081.06,-448.4 2081.06,-412.8 1761.26,-412.8"/>
<text text-anchor="start" x="1814.17" y="-426.2" font-family="Arial Bold" font-size="18.00">ndb.samples</text>
<text text-anchor="start" x="1903.66" y="-426.2" font-family="Arial" font-size="14.00">    </text>
<text text-anchor="start" x="1934.78" y="-426.2" font-family="Arial" font-size="14.00" fill="#666666">[BASE TABLE]</text>
<polygon fill="none" stroke="black" points="1761.26,-382 1761.26,-412.8 2081.06,-412.8 2081.06,-382 1761.26,-382"/>
<text text-anchor="start" x="1768.26" y="-394.2" font-family="Arial" font-size="14.00">analysisdate </text>
<text text-anchor="start" x="1849.98" y="-394.2" font-family="Arial" font-size="14.00" fill="#666666">[date]</text>
<polygon fill="none" stroke="black" points="1761.26,-351.2 1761.26,-382 2081.06,-382 2081.06,-351.2 1761.26,-351.2"/>
<text text-anchor="start" x="1768.26" y="-363.4" font-family="Arial" font-size="14.00">analysisunitid </text>
<text text-anchor="start" x="1856.2" y="-363.4" font-family="Arial" font-size="14.00" fill="#666666">[integer]</text>
<polygon fill="none" stroke="black" points="1761.26,-320.4 1761.26,-351.2 2081.06,-351.2 2081.06,-320.4 1761.26,-320.4"/>
<text text-anchor="start" x="1768.26" y="-332.6" font-family="Arial" font-size="14.00">datasetid </text>
<text text-anchor="start" x="1828.97" y="-332.6" font-family="Arial" font-size="14.00" fill="#666666">[integer]</text>
<polygon fill="none" stroke="black" points="1761.26,-289.6 1761.26,-320.4 2081.06,-320.4 2081.06,-289.6 1761.26,-289.6"/>
<text text-anchor="start" x="1768.26" y="-301.8" font-family="Arial" font-size="14.00">labnumber </text>
<text text-anchor="start" x="1838.3" y="-301.8" font-family="Arial" font-size="14.00" fill="#666666">[varchar(40)]</text>
<polygon fill="none" stroke="black" points="1761.26,-258.8 1761.26,-289.6 2081.06,-289.6 2081.06,-258.8 1761.26,-258.8"/>
<text text-anchor="start" x="1768.26" y="-271" font-family="Arial" font-size="14.00">notes </text>
<text text-anchor="start" x="1806.4" y="-271" font-family="Arial" font-size="14.00" fill="#666666">[text]</text>
<polygon fill="none" stroke="black" points="1761.26,-228 1761.26,-258.8 2081.06,-258.8 2081.06,-228 1761.26,-228"/>
<text text-anchor="start" x="1768.26" y="-240.2" font-family="Arial" font-size="14.00">preparationmethod </text>
<text text-anchor="start" x="1889.68" y="-240.2" font-family="Arial" font-size="14.00" fill="#666666">[text]</text>
<polygon fill="none" stroke="black" points="1761.26,-197.2 1761.26,-228 2081.06,-228 2081.06,-197.2 1761.26,-197.2"/>
<text text-anchor="start" x="1768.26" y="-209.4" font-family="Arial" font-size="14.00">recdatecreated </text>
<text text-anchor="start" x="1865.55" y="-209.4" font-family="Arial" font-size="14.00" fill="#666666">[timestamp(0) without time zone]</text>
<polygon fill="none" stroke="black" points="1761.26,-166.4 1761.26,-197.2 2081.06,-197.2 2081.06,-166.4 1761.26,-166.4"/>
<text text-anchor="start" x="1768.26" y="-178.6" font-family="Arial" font-size="14.00">recdatemodified </text>
<text text-anchor="start" x="1871.77" y="-178.6" font-family="Arial" font-size="14.00" fill="#666666">[timestamp(0) without time zone]</text>
<polygon fill="none" stroke="black" points="1761.26,-135.6 1761.26,-166.4 2081.06,-166.4 2081.06,-135.6 1761.26,-135.6"/>
<text text-anchor="start" x="1768.26" y="-147.8" font-family="Arial" font-size="14.00">sampledate </text>
<text text-anchor="start" x="1844.53" y="-147.8" font-family="Arial" font-size="14.00" fill="#666666">[date]</text>
<polygon fill="none" stroke="black" points="1761.26,-104.8 1761.26,-135.6 2081.06,-135.6 2081.06,-104.8 1761.26,-104.8"/>
<text text-anchor="start" x="1768.26" y="-117" font-family="Arial" font-size="14.00">sampleid </text>
<text text-anchor="start" x="1828.18" y="-117" font-family="Arial" font-size="14.00" fill="#666666">[integer]</text>
<polygon fill="none" stroke="black" points="1761.26,-74 1761.26,-104.8 2081.06,-104.8 2081.06,-74 1761.26,-74"/>
<text text-anchor="start" x="1768.26" y="-86.2" font-family="Arial" font-size="14.00">samplename </text>
<text text-anchor="start" x="1852.3" y="-86.2" font-family="Arial" font-size="14.00" fill="#666666">[varchar(80)]</text>
<polygon fill="none" stroke="black" points="1761.26,-43.2 1761.26,-74 2081.06,-74 2081.06,-43.2 1761.26,-43.2"/>
<text text-anchor="start" x="1768.26" y="-55.4" font-family="Arial" font-size="14.00">taxonid </text>
<text text-anchor="start" x="1817.3" y="-55.4" font-family="Arial" font-size="14.00" fill="#666666">[integer]</text>
</g>
<!-- ndb.geochronology&#45;&gt;ndb.samples -->
<g id="edge10" class="edge">
<title>ndb.geochronology:sampleid&#45;&gt;ndb.samples:sampleid</title>
<path fill="none" stroke="black" d="M1668.22,-585.32C1704.21,-578.54 1695.47,-533.47 1709.16,-491.6 1735.05,-412.41 1676.95,-120.2 1760.26,-120.2"/>
<polygon fill="black" stroke="black" points="1668.36,-585.31 1658.01,-581.69 1663.04,-585.77 1658.73,-586.14 1658.73,-586.14 1658.73,-586.14 1663.04,-585.77 1658.78,-590.65 1668.36,-585.31"/>
<text text-anchor="start" x="1665.06" y="-596.2" font-family="Arial" font-size="10.00">FOREIGN KEY (sampleid) REFERENCES ndb.samples(sampleid) ON UPDATE CASCADE ON DELETE CASCADE</text>
</g>
<!-- ndb.externalgeochronology -->
<g id="node4" class="node">
<title>ndb.externalgeochronology</title>
<polygon fill="#efefef" stroke="none" points="43.2,-1394 43.2,-1429.6 379.13,-1429.6 379.13,-1394 43.2,-1394"/>
<polygon fill="none" stroke="black" points="43.2,-1394 43.2,-1429.6 379.13,-1429.6 379.13,-1394 43.2,-1394"/>
<text text-anchor="start" x="50.2" y="-1407.4" font-family="Arial Bold" font-size="18.00">ndb.externalgeochronology</text>
<text text-anchor="start" x="247.64" y="-1407.4" font-family="Arial" font-size="14.00">    </text>
<text text-anchor="start" x="278.75" y="-1407.4" font-family="Arial" font-size="14.00" fill="#666666">[BASE TABLE]</text>
<polygon fill="none" stroke="black" points="43.2,-1363.2 43.2,-1394 379.13,-1394 379.13,-1363.2 43.2,-1363.2"/>
<text text-anchor="start" x="50.2" y="-1375.4" font-family="Arial" font-size="14.00">extdatabaseid </text>
<text text-anchor="start" x="141.27" y="-1375.4" font-family="Arial" font-size="14.00" fill="#666666">[integer]</text>
<polygon fill="none" stroke="black" points="43.2,-1332.4 43.2,-1363.2 379.13,-1363.2 379.13,-1332.4 43.2,-1332.4"/>
<text text-anchor="start" x="50.2" y="-1344.6" font-family="Arial" font-size="14.00">geochronid </text>
<text text-anchor="start" x="123.37" y="-1344.6" font-family="Arial" font-size="14.00" fill="#666666">[integer]</text>
<polygon fill="none" stroke="black" points="43.2,-1301.6 43.2,-1332.4 379.13,-1332.4 379.13,-1301.6 43.2,-1301.6"/>
<text text-anchor="start" x="50.2" y="-1313.8" font-family="Arial" font-size="14.00">identifier </text>
<text text-anchor="start" x="107.01" y="-1313.8" font-family="Arial" font-size="14.00" fill="#666666">[text]</text>
</g>
<!-- ndb.externalgeochronology&#45;&gt;ndb.geochronology -->
<g id="edge3" class="edge">
<title>ndb.externalgeochronology:geochronid&#45;&gt;ndb.geochronology:geochronid</title>
<path fill="none" stroke="black" d="M390.38,-1347.24C476.71,-1337.1 362.61,-1191.58 431.16,-1116.8 573.62,-961.4 1125.45,-832.6 1336.26,-832.6"/>
<polygon fill="black" stroke="black" points="390.45,-1347.24 380.22,-1343.29 385.12,-1347.53 380.79,-1347.76 380.79,-1347.76 380.79,-1347.76 385.12,-1347.53 380.71,-1352.28 390.45,-1347.24"/>
<text text-anchor="start" x="208.94" y="-1331.8" font-family="Arial" font-size="10.00">FOREIGN KEY (geochronid) REFERENCES ndb.geochronology(geochronid)</text>
</g>
<!-- ndb.geochroncontrols -->
<g id="node5" class="node">
<title>ndb.geochroncontrols</title>
<polygon fill="#efefef" stroke="none" points="483.26,-1409.4 483.26,-1445 803.06,-1445 803.06,-1409.4 483.26,-1409.4"/>
<polygon fill="none" stroke="black" points="483.26,-1409.4 483.26,-1445 803.06,-1445 803.06,-1409.4 483.26,-1409.4"/>
<text text-anchor="start" x="502.69" y="-1422.8" font-family="Arial Bold" font-size="18.00">ndb.geochroncontrols</text>
<text text-anchor="start" x="659.15" y="-1422.8" font-family="Arial" font-size="14.00">    </text>
<text text-anchor="start" x="690.27" y="-1422.8" font-family="Arial" font-size="14.00" fill="#666666">[BASE TABLE]</text>
<polygon fill="none" stroke="black" points="483.26,-1378.6 483.26,-1409.4 803.06,-1409.4 803.06,-1378.6 483.26,-1378.6"/>
<text text-anchor="start" x="490.26" y="-1390.8" font-family="Arial" font-size="14.00">chroncontrolid </text>
<text text-anchor="start" x="582.09" y="-1390.8" font-family="Arial" font-size="14.00" fill="#666666">[integer]</text>
<polygon fill="none" stroke="black" points="483.26,-1347.8 483.26,-1378.6 803.06,-1378.6 803.06,-1347.8 483.26,-1347.8"/>
<text text-anchor="start" x="490.26" y="-1360" font-family="Arial" font-size="14.00">geochronid </text>
<text text-anchor="start" x="563.43" y="-1360" font-family="Arial" font-size="14.00" fill="#666666">[integer]</text>
<polygon fill="none" stroke="black" points="483.26,-1317 483.26,-1347.8 803.06,-1347.8 803.06,-1317 483.26,-1317"/>
<text text-anchor="start" x="490.26" y="-1329.2" font-family="Arial" font-size="14.00">recdatecreated </text>
<text text-anchor="start" x="587.55" y="-1329.2" font-family="Arial" font-size="14.00" fill="#666666">[timestamp(0) without time zone]</text>
<polygon fill="none" stroke="black" points="483.26,-1286.2 483.26,-1317 803.06,-1317 803.06,-1286.2 483.26,-1286.2"/>
<text text-anchor="start" x="490.26" y="-1298.4" font-family="Arial" font-size="14.00">recdatemodified </text>
<text text-anchor="start" x="593.77" y="-1298.4" font-family="Arial" font-size="14.00" fill="#666666">[timestamp(0) without time zone]</text>
</g>
<!-- ndb.geochroncontrols&#45;&gt;ndb.geochronology -->
<g id="edge4" class="edge">
<title>ndb.geochroncontrols:geochronid&#45;&gt;ndb.geochronology:geochronid</title>
<path fill="none" stroke="black" d="M814.43,-1362.69C907.76,-1352.95 792.26,-1204.75 855.16,-1116.8 999.63,-914.8 1087.92,-832.6 1336.26,-832.6"/>
<polygon fill="black" stroke="black" points="814.38,-1362.7 804.18,-1358.69 809.06,-1362.96 804.73,-1363.17 804.73,-1363.17 804.73,-1363.17 809.06,-1362.96 804.62,-1367.68 814.38,-1362.7"/>
<text text-anchor="start" x="231.86" y="-1373.2" font-family="Arial" font-size="10.00">FOREIGN KEY (geochronid) REFERENCES ndb.geochronology(geochronid) ON UPDATE CASCADE ON DELETE CASCADE</text>
</g>
<!-- ndb.geochronpublications -->
<g id="node6" class="node">
<title>ndb.geochronpublications</title>
<polygon fill="#efefef" stroke="none" points="907.69,-1409.4 907.69,-1445 1232.64,-1445 1232.64,-1409.4 907.69,-1409.4"/>
<polygon fill="none" stroke="black" points="907.69,-1409.4 907.69,-1445 1232.64,-1445 1232.64,-1409.4 907.69,-1409.4"/>
<text text-anchor="start" x="914.69" y="-1422.8" font-family="Arial Bold" font-size="18.00">ndb.geochronpublications</text>
<text text-anchor="start" x="1101.15" y="-1422.8" font-family="Arial" font-size="14.00">    </text>
<text text-anchor="start" x="1132.27" y="-1422.8" font-family="Arial" font-size="14.00" fill="#666666">[BASE TABLE]</text>
<polygon fill="none" stroke="black" points="907.69,-1378.6 907.69,-1409.4 1232.64,-1409.4 1232.64,-1378.6 907.69,-1378.6"/>
<text text-anchor="start" x="914.69" y="-1390.8" font-family="Arial" font-size="14.00">geochronid </text>
<text text-anchor="start" x="987.85" y="-1390.8" font-family="Arial" font-size="14.00" fill="#666666">[integer]</text>
<polygon fill="none" stroke="black" points="907.69,-1347.8 907.69,-1378.6 1232.64,-1378.6 1232.64,-1347.8 907.69,-1347.8"/>
<text text-anchor="start" x="914.69" y="-1360" font-family="Arial" font-size="14.00">publicationid </text>
<text text-anchor="start" x="996.41" y="-1360" font-family="Arial" font-size="14.00" fill="#666666">[integer]</text>
<polygon fill="none" stroke="black" points="907.69,-1317 907.69,-1347.8 1232.64,-1347.8 1232.64,-1317 907.69,-1317"/>
<text text-anchor="start" x="914.69" y="-1329.2" font-family="Arial" font-size="14.00">recdatecreated </text>
<text text-anchor="start" x="1011.97" y="-1329.2" font-family="Arial" font-size="14.00" fill="#666666">[timestamp(0) without time zone]</text>
<polygon fill="none" stroke="black" points="907.69,-1286.2 907.69,-1317 1232.64,-1317 1232.64,-1286.2 907.69,-1286.2"/>
<text text-anchor="start" x="914.69" y="-1298.4" font-family="Arial" font-size="14.00">recdatemodified </text>
<text text-anchor="start" x="1018.19" y="-1298.4" font-family="Arial" font-size="14.00" fill="#666666">[timestamp(0) without time zone]</text>
</g>
<!-- ndb.geochronpublications&#45;&gt;ndb.geochronology -->
<g id="edge5" class="edge">
<title>ndb.geochronpublications:geochronid&#45;&gt;ndb.geochronology:geochronid</title>
<path fill="none" stroke="black" d="M1242.96,-1389.48C1294.74,-1336.35 1276.2,-832.6 1336.26,-832.6"/>
<polygon fill="black" stroke="black" points="1242.94,-1389.49 1231.98,-1389.8 1238.14,-1391.82 1234.24,-1393.71 1234.24,-1393.71 1234.24,-1393.71 1238.14,-1391.82 1235.9,-1397.9 1242.94,-1389.49"/>
<text text-anchor="start" x="951.04" y="-1378" font-family="Arial" font-size="10.00">FOREIGN KEY (geochronid) REFERENCES ndb.geochronology(geochronid) ON UPDATE CASCADE ON DELETE CASCADE</text>
</g>
<!-- ndb.specimendates -->
<g id="node7" class="node">
<title>ndb.specimendates</title>
<polygon fill="#efefef" stroke="none" points="1337.26,-1501.8 1337.26,-1537.4 1657.06,-1537.4 1657.06,-1501.8 1337.26,-1501.8"/>
<polygon fill="none" stroke="black" points="1337.26,-1501.8 1337.26,-1537.4 1657.06,-1537.4 1657.06,-1501.8 1337.26,-1501.8"/>
<text text-anchor="start" x="1366.69" y="-1515.2" font-family="Arial Bold" font-size="18.00">ndb.specimendates</text>
<text text-anchor="start" x="1503.15" y="-1515.2" font-family="Arial" font-size="14.00">    </text>
<text text-anchor="start" x="1534.27" y="-1515.2" font-family="Arial" font-size="14.00" fill="#666666">[BASE TABLE]</text>
<polygon fill="none" stroke="black" points="1337.26,-1471 1337.26,-1501.8 1657.06,-1501.8 1657.06,-1471 1337.26,-1471"/>
<text text-anchor="start" x="1344.26" y="-1483.2" font-family="Arial" font-size="14.00">elementtypeid </text>
<text text-anchor="start" x="1435.32" y="-1483.2" font-family="Arial" font-size="14.00" fill="#666666">[integer]</text>
<polygon fill="none" stroke="black" points="1337.26,-1440.2 1337.26,-1471 1657.06,-1471 1657.06,-1440.2 1337.26,-1440.2"/>
<text text-anchor="start" x="1344.26" y="-1452.4" font-family="Arial" font-size="14.00">fractionid </text>
<text text-anchor="start" x="1404.96" y="-1452.4" font-family="Arial" font-size="14.00" fill="#666666">[integer]</text>
<polygon fill="none" stroke="black" points="1337.26,-1409.4 1337.26,-1440.2 1657.06,-1440.2 1657.06,-1409.4 1337.26,-1409.4"/>
<text text-anchor="start" x="1344.26" y="-1421.6" font-family="Arial" font-size="14.00">geochronid </text>
<text text-anchor="start" x="1417.43" y="-1421.6" font-family="Arial" font-size="14.00" fill="#666666">[integer]</text>
<polygon fill="none" stroke="black" points="1337.26,-1378.6 1337.26,-1409.4 1657.06,-1409.4 1657.06,-1378.6 1337.26,-1378.6"/>
<text text-anchor="start" x="1344.26" y="-1390.8" font-family="Arial" font-size="14.00">notes </text>
<text text-anchor="start" x="1382.4" y="-1390.8" font-family="Arial" font-size="14.00" fill="#666666">[text]</text>
<polygon fill="none" stroke="black" points="1337.26,-1347.8 1337.26,-1378.6 1657.06,-1378.6 1657.06,-1347.8 1337.26,-1347.8"/>
<text text-anchor="start" x="1344.26" y="-1360" font-family="Arial" font-size="14.00">recdatecreated </text>
<text text-anchor="start" x="1441.55" y="-1360" font-family="Arial" font-size="14.00" fill="#666666">[timestamp(0) without time zone]</text>
<polygon fill="none" stroke="black" points="1337.26,-1317 1337.26,-1347.8 1657.06,-1347.8 1657.06,-1317 1337.26,-1317"/>
<text text-anchor="start" x="1344.26" y="-1329.2" font-family="Arial" font-size="14.00">recdatemodified </text>
<text text-anchor="start" x="1447.77" y="-1329.2" font-family="Arial" font-size="14.00" fill="#666666">[timestamp(0) without time zone]</text>
<polygon fill="none" stroke="black" points="1337.26,-1286.2 1337.26,-1317 1657.06,-1317 1657.06,-1286.2 1337.26,-1286.2"/>
<text text-anchor="start" x="1344.26" y="-1298.4" font-family="Arial" font-size="14.00">sampleid </text>
<text text-anchor="start" x="1404.18" y="-1298.4" font-family="Arial" font-size="14.00" fill="#666666">[integer]</text>
<polygon fill="none" stroke="black" points="1337.26,-1255.4 1337.26,-1286.2 1657.06,-1286.2 1657.06,-1255.4 1337.26,-1255.4"/>
<text text-anchor="start" x="1344.26" y="-1267.6" font-family="Arial" font-size="14.00">specimendateid </text>
<text text-anchor="start" x="1446.22" y="-1267.6" font-family="Arial" font-size="14.00" fill="#666666">[integer]</text>
<polygon fill="none" stroke="black" points="1337.26,-1224.6 1337.26,-1255.4 1657.06,-1255.4 1657.06,-1224.6 1337.26,-1224.6"/>
<text text-anchor="start" x="1344.26" y="-1236.8" font-family="Arial" font-size="14.00">specimenid </text>
<text text-anchor="start" x="1418.97" y="-1236.8" font-family="Arial" font-size="14.00" fill="#666666">[integer]</text>
<polygon fill="none" stroke="black" points="1337.26,-1193.8 1337.26,-1224.6 1657.06,-1224.6 1657.06,-1193.8 1337.26,-1193.8"/>
<text text-anchor="start" x="1344.26" y="-1206" font-family="Arial" font-size="14.00">taxonid </text>
<text text-anchor="start" x="1393.3" y="-1206" font-family="Arial" font-size="14.00" fill="#666666">[integer]</text>
</g>
<!-- ndb.specimendates&#45;&gt;ndb.geochronology -->
<g id="edge6" class="edge">
<title>ndb.specimendates:geochronid&#45;&gt;ndb.geochronology:geochronid</title>
<path fill="none" stroke="black" d="M1667.23,-1420.7C1723.71,-1368.38 1720.65,-832.6 1658.06,-832.6"/>
<polygon fill="black" stroke="black" points="1667.5,-1420.58 1656.53,-1420.56 1662.63,-1422.76 1658.67,-1424.53 1658.67,-1424.53 1658.67,-1424.53 1662.63,-1422.76 1660.2,-1428.77 1667.5,-1420.58"/>
<text text-anchor="start" x="1085.86" y="-1434.8" font-family="Arial" font-size="10.00">FOREIGN KEY (geochronid) REFERENCES ndb.geochronology(geochronid) ON UPDATE CASCADE ON DELETE CASCADE</text>
</g>
<!-- ndb.uraniumseries -->
<g id="node8" class="node">
<title>ndb.uraniumseries</title>
<polygon fill="#efefef" stroke="none" points="1761.68,-1501.8 1761.68,-1537.4 2032.64,-1537.4 2032.64,-1501.8 1761.68,-1501.8"/>
<polygon fill="none" stroke="black" points="1761.68,-1501.8 1761.68,-1537.4 2032.64,-1537.4 2032.64,-1501.8 1761.68,-1501.8"/>
<text text-anchor="start" x="1768.68" y="-1515.2" font-family="Arial Bold" font-size="18.00">ndb.uraniumseries</text>
<text text-anchor="start" x="1901.15" y="-1515.2" font-family="Arial" font-size="14.00">    </text>
<text text-anchor="start" x="1932.27" y="-1515.2" font-family="Arial" font-size="14.00" fill="#666666">[BASE TABLE]</text>
<polygon fill="none" stroke="black" points="1761.68,-1471 1761.68,-1501.8 2032.64,-1501.8 2032.64,-1471 1761.68,-1471"/>
<text text-anchor="start" x="1768.68" y="-1483.2" font-family="Arial" font-size="14.00">activity230th238u </text>
<text text-anchor="start" x="1881.54" y="-1483.2" font-family="Arial" font-size="14.00" fill="#666666">[numeric]</text>
<polygon fill="none" stroke="black" points="1761.68,-1440.2 1761.68,-1471 2032.64,-1471 2032.64,-1440.2 1761.68,-1440.2"/>
<text text-anchor="start" x="1768.68" y="-1452.4" font-family="Arial" font-size="14.00">activity234u238u </text>
<text text-anchor="start" x="1877.65" y="-1452.4" font-family="Arial" font-size="14.00" fill="#666666">[numeric]</text>
<polygon fill="none" stroke="black" points="1761.68,-1409.4 1761.68,-1440.2 2032.64,-1440.2 2032.64,-1409.4 1761.68,-1409.4"/>
<text text-anchor="start" x="1768.68" y="-1421.6" font-family="Arial" font-size="14.00">activityuncertainty230th238u </text>
<text text-anchor="start" x="1950.02" y="-1421.6" font-family="Arial" font-size="14.00" fill="#666666">[numeric]</text>
<polygon fill="none" stroke="black" points="1761.68,-1378.6 1761.68,-1409.4 2032.64,-1409.4 2032.64,-1378.6 1761.68,-1378.6"/>
<text text-anchor="start" x="1768.68" y="-1390.8" font-family="Arial" font-size="14.00">activityuncertainty234u238u </text>
<text text-anchor="start" x="1946.13" y="-1390.8" font-family="Arial" font-size="14.00" fill="#666666">[numeric]</text>
<polygon fill="none" stroke="black" points="1761.68,-1347.8 1761.68,-1378.6 2032.64,-1378.6 2032.64,-1347.8 1761.68,-1347.8"/>
<text text-anchor="start" x="1768.68" y="-1360" font-family="Arial" font-size="14.00">decayconstantid </text>
<text text-anchor="start" x="1873.75" y="-1360" font-family="Arial" font-size="14.00" fill="#666666">[integer]</text>
<polygon fill="none" stroke="black" points="1761.68,-1317 1761.68,-1347.8 2032.64,-1347.8 2032.64,-1317 1761.68,-1317"/>
<text text-anchor="start" x="1768.68" y="-1329.2" font-family="Arial" font-size="14.00">geochronid </text>
<text text-anchor="start" x="1841.85" y="-1329.2" font-family="Arial" font-size="14.00" fill="#666666">[integer]</text>
<polygon fill="none" stroke="black" points="1761.68,-1286.2 1761.68,-1317 2032.64,-1317 2032.64,-1286.2 1761.68,-1286.2"/>
<text text-anchor="start" x="1768.68" y="-1298.4" font-family="Arial" font-size="14.00">iniratio230th232th </text>
<text text-anchor="start" x="1883.88" y="-1298.4" font-family="Arial" font-size="14.00" fill="#666666">[numeric]</text>
<polygon fill="none" stroke="black" points="1761.68,-1255.4 1761.68,-1286.2 2032.64,-1286.2 2032.64,-1255.4 1761.68,-1255.4"/>
<text text-anchor="start" x="1768.68" y="-1267.6" font-family="Arial" font-size="14.00">iniratiouncertainty230th232th </text>
<text text-anchor="start" x="1952.37" y="-1267.6" font-family="Arial" font-size="14.00" fill="#666666">[numeric]</text>
<polygon fill="none" stroke="black" points="1761.68,-1224.6 1761.68,-1255.4 2032.64,-1255.4 2032.64,-1224.6 1761.68,-1224.6"/>
<text text-anchor="start" x="1768.68" y="-1236.8" font-family="Arial" font-size="14.00">ratio230th232th </text>
<text text-anchor="start" x="1869.88" y="-1236.8" font-family="Arial" font-size="14.00" fill="#666666">[numeric]</text>
<polygon fill="none" stroke="black" points="1761.68,-1193.8 1761.68,-1224.6 2032.64,-1224.6 2032.64,-1193.8 1761.68,-1193.8"/>
<text text-anchor="start" x="1768.68" y="-1206" font-family="Arial" font-size="14.00">ratiouncertainty230th232th </text>
<text text-anchor="start" x="1938.36" y="-1206" font-family="Arial" font-size="14.00" fill="#666666">[numeric]</text>
</g>
<!-- ndb.uraniumseries&#45;&gt;ndb.geochronology -->
<g id="edge7" class="edge">
<title>ndb.uraniumseries:geochronid&#45;&gt;ndb.geochronology:geochronid</title>
<path fill="none" stroke="black" d="M1751.68,-1327.77C1705,-1277.39 1711.54,-832.6 1658.06,-832.6"/>
<polygon fill="black" stroke="black" points="1751.49,-1327.68 1758.33,-1336.25 1756.24,-1330.11 1760.09,-1332.09 1760.09,-1332.09 1760.09,-1332.09 1756.24,-1330.11 1762.44,-1328.24 1751.49,-1327.68"/>
<text text-anchor="start" x="1767.68" y="-1342.4" font-family="Arial" font-size="10.00">FOREIGN KEY (geochronid) REFERENCES ndb.geochronology(geochronid)</text>
</g>
<!-- ndb.uraniumseriesdata -->
<g id="node9" class="node">
<title>ndb.uraniumseriesdata</title>
<polygon fill="#efefef" stroke="none" points="2136.69,-1378.6 2136.69,-1414.2 2437.63,-1414.2 2437.63,-1378.6 2136.69,-1378.6"/>
<polygon fill="none" stroke="black" points="2136.69,-1378.6 2136.69,-1414.2 2437.63,-1414.2 2437.63,-1378.6 2136.69,-1378.6"/>
<text text-anchor="start" x="2143.69" y="-1392" font-family="Arial Bold" font-size="18.00">ndb.uraniumseriesdata</text>
<text text-anchor="start" x="2306.14" y="-1392" font-family="Arial" font-size="14.00">    </text>
<text text-anchor="start" x="2337.26" y="-1392" font-family="Arial" font-size="14.00" fill="#666666">[BASE TABLE]</text>
<polygon fill="none" stroke="black" points="2136.69,-1347.8 2136.69,-1378.6 2437.63,-1378.6 2437.63,-1347.8 2136.69,-1347.8"/>
<text text-anchor="start" x="2143.69" y="-1360" font-family="Arial" font-size="14.00">dataid </text>
<text text-anchor="start" x="2185.73" y="-1360" font-family="Arial" font-size="14.00" fill="#666666">[integer]</text>
<polygon fill="none" stroke="black" points="2136.69,-1317 2136.69,-1347.8 2437.63,-1347.8 2437.63,-1317 2136.69,-1317"/>
<text text-anchor="start" x="2143.69" y="-1329.2" font-family="Arial" font-size="14.00">geochronid </text>
<text text-anchor="start" x="2216.86" y="-1329.2" font-family="Arial" font-size="14.00" fill="#666666">[integer]</text>
</g>
<!-- ndb.uraniumseriesdata&#45;&gt;ndb.geochronology -->
<g id="edge8" class="edge">
<title>ndb.uraniumseriesdata:geochronid&#45;&gt;ndb.geochronology:geochronid</title>
<path fill="none" stroke="black" d="M2125.56,-1331.85C2044.78,-1322.47 2139.21,-1194.64 2085.16,-1116.8 1955.12,-929.52 1886.07,-832.6 1658.06,-832.6"/>
<polygon fill="black" stroke="black" points="2125.38,-1331.84 2135.12,-1336.88 2130.7,-1332.13 2135.03,-1332.36 2135.03,-1332.36 2135.03,-1332.36 2130.7,-1332.13 2135.6,-1327.89 2125.38,-1331.84"/>
<text text-anchor="start" x="1786.32" y="-1316.4" font-family="Arial" font-size="10.00">FOREIGN KEY (geochronid) REFERENCES ndb.geochronology(geochronid)</text>
</g>
</g>
</svg>
