<?xml version="1.0" encoding="UTF-8" standalone="no"?>
<!DOCTYPE svg PUBLIC "-//W3C//DTD SVG 1.1//EN"
 "http://www.w3.org/Graphics/SVG/1.1/DTD/svg11.dtd">
<!-- Generated by graphviz version 12.1.2 (20240928.0832)
 -->
<!-- Title: ti.dslinks Pages: 1 -->
<svg width="261pt" height="228pt"
 viewBox="0.00 0.00 260.71 228.40" xmlns="http://www.w3.org/2000/svg" xmlns:xlink="http://www.w3.org/1999/xlink">
<g id="graph0" class="graph" transform="scale(1 1) rotate(0) translate(4 224.4)">
<title>ti.dslinks</title>
<polygon fill="white" stroke="none" points="-4,4 -4,-224.4 256.71,-224.4 256.71,4 -4,4"/>
<!-- ti.dslinks -->
<g id="node1" class="node">
<title>ti.dslinks</title>
<polygon fill="#efefef" stroke="none" points="46.2,-138.6 46.2,-174.2 206.51,-174.2 206.51,-138.6 46.2,-138.6"/>
<polygon fill="none" stroke="black" points="46.2,-138.6 46.2,-174.2 206.51,-174.2 206.51,-138.6 46.2,-138.6"/>
<text text-anchor="start" x="56.26" y="-152" font-family="Arial Bold" font-size="18.00">ti.dslinks</text>
<text text-anchor="start" x="121.77" y="-152" font-family="Arial" font-size="14.00">    </text>
<text text-anchor="start" x="152.89" y="-152" font-family="Arial" font-size="14.00" fill="#666666">[VIEW]</text>
<polygon fill="none" stroke="black" points="46.2,-107.8 46.2,-138.6 206.51,-138.6 206.51,-107.8 46.2,-107.8"/>
<text text-anchor="start" x="53.2" y="-120" font-family="Arial" font-size="14.00">siteid </text>
<text text-anchor="start" x="89.77" y="-120" font-family="Arial" font-size="14.00" fill="#666666">[integer]</text>
<polygon fill="none" stroke="black" points="46.2,-77 46.2,-107.8 206.51,-107.8 206.51,-77 46.2,-77"/>
<text text-anchor="start" x="53.2" y="-89.2" font-family="Arial" font-size="14.00">collectionunitid </text>
<text text-anchor="start" x="148.92" y="-89.2" font-family="Arial" font-size="14.00" fill="#666666">[integer]</text>
<polygon fill="none" stroke="black" points="46.2,-46.2 46.2,-77 206.51,-77 206.51,-46.2 46.2,-46.2"/>
<text text-anchor="start" x="53.2" y="-58.4" font-family="Arial" font-size="14.00">datasetid </text>
<text text-anchor="start" x="113.91" y="-58.4" font-family="Arial" font-size="14.00" fill="#666666">[integer]</text>
<polygon fill="none" stroke="black" stroke-width="3" points="44.7,-44.7 44.7,-175.7 208.01,-175.7 208.01,-44.7 44.7,-44.7"/>
</g>
</g>
</svg>
