<?xml version="1.0" encoding="UTF-8" standalone="no"?>
<!DOCTYPE svg PUBLIC "-//W3C//DTD SVG 1.1//EN"
 "http://www.w3.org/Graphics/SVG/1.1/DTD/svg11.dtd">
<!-- Generated by graphviz version 12.1.2 (20240928.0832)
 -->
<!-- Title: ti.geopol3 Pages: 1 -->
<svg width="290pt" height="198pt"
 viewBox="0.00 0.00 290.28 197.60" xmlns="http://www.w3.org/2000/svg" xmlns:xlink="http://www.w3.org/1999/xlink">
<g id="graph0" class="graph" transform="scale(1 1) rotate(0) translate(4 193.6)">
<title>ti.geopol3</title>
<polygon fill="white" stroke="none" points="-4,4 -4,-193.6 286.28,-193.6 286.28,4 -4,4"/>
<!-- ti.geopol3 -->
<g id="node1" class="node">
<title>ti.geopol3</title>
<polygon fill="#efefef" stroke="none" points="46.2,-107.8 46.2,-143.4 236.08,-143.4 236.08,-107.8 46.2,-107.8"/>
<polygon fill="none" stroke="black" points="46.2,-107.8 46.2,-143.4 236.08,-143.4 236.08,-107.8 46.2,-107.8"/>
<text text-anchor="start" x="67.56" y="-121.2" font-family="Arial Bold" font-size="18.00">ti.geopol3</text>
<text text-anchor="start" x="140.05" y="-121.2" font-family="Arial" font-size="14.00">    </text>
<text text-anchor="start" x="171.17" y="-121.2" font-family="Arial" font-size="14.00" fill="#666666">[VIEW]</text>
<polygon fill="none" stroke="black" points="46.2,-77 46.2,-107.8 236.08,-107.8 236.08,-77 46.2,-77"/>
<text text-anchor="start" x="53.2" y="-89.2" font-family="Arial" font-size="14.00">siteid </text>
<text text-anchor="start" x="89.77" y="-89.2" font-family="Arial" font-size="14.00" fill="#666666">[integer]</text>
<polygon fill="none" stroke="black" points="46.2,-46.2 46.2,-77 236.08,-77 236.08,-46.2 46.2,-46.2"/>
<text text-anchor="start" x="53.2" y="-58.4" font-family="Arial" font-size="14.00">geopolname3 </text>
<text text-anchor="start" x="141.94" y="-58.4" font-family="Arial" font-size="14.00" fill="#666666">[varchar(255)]</text>
<polygon fill="none" stroke="black" stroke-width="3" points="44.7,-44.7 44.7,-144.9 237.58,-144.9 237.58,-44.7 44.7,-44.7"/>
</g>
</g>
</svg>
