<?xml version="1.0" encoding="UTF-8" standalone="no"?>
<!DOCTYPE svg PUBLIC "-//W3C//DTD SVG 1.1//EN"
 "http://www.w3.org/Graphics/SVG/1.1/DTD/svg11.dtd">
<!-- Generated by graphviz version 12.1.2 (20240928.0832)
 -->
<!-- Title: ti.stewarddatabases Pages: 1 -->
<svg width="1822pt" height="1462pt"
 viewBox="0.00 0.00 1821.66 1462.40" xmlns="http://www.w3.org/2000/svg" xmlns:xlink="http://www.w3.org/1999/xlink">
<g id="graph0" class="graph" transform="scale(1 1) rotate(0) translate(4 1458.4)">
<title>ti.stewarddatabases</title>
<polygon fill="white" stroke="none" points="-4,4 -4,-1458.4 1817.66,-1458.4 1817.66,4 -4,4"/>
<!-- ti.stewarddatabases -->
<g id="node1" class="node">
<title>ti.stewarddatabases</title>
<polygon fill="#efefef" stroke="none" points="1146.14,-1267.8 1146.14,-1303.4 1424.07,-1303.4 1424.07,-1267.8 1146.14,-1267.8"/>
<polygon fill="none" stroke="black" points="1146.14,-1267.8 1146.14,-1303.4 1424.07,-1303.4 1424.07,-1267.8 1146.14,-1267.8"/>
<text text-anchor="start" x="1153.14" y="-1281.2" font-family="Arial Bold" font-size="18.00">ti.stewarddatabases</text>
<text text-anchor="start" x="1292.58" y="-1281.2" font-family="Arial" font-size="14.00">    </text>
<text text-anchor="start" x="1323.7" y="-1281.2" font-family="Arial" font-size="14.00" fill="#666666">[BASE TABLE]</text>
<polygon fill="none" stroke="black" points="1146.14,-1237 1146.14,-1267.8 1424.07,-1267.8 1424.07,-1237 1146.14,-1237"/>
<text text-anchor="start" x="1153.14" y="-1249.2" font-family="Arial" font-size="14.00">databaseid </text>
<text text-anchor="start" x="1225.53" y="-1249.2" font-family="Arial" font-size="14.00" fill="#666666">[integer]</text>
<polygon fill="none" stroke="black" points="1146.14,-1206.2 1146.14,-1237 1424.07,-1237 1424.07,-1206.2 1146.14,-1206.2"/>
<text text-anchor="start" x="1153.14" y="-1218.4" font-family="Arial" font-size="14.00">stewardid </text>
<text text-anchor="start" x="1216.94" y="-1218.4" font-family="Arial" font-size="14.00" fill="#666666">[integer]</text>
<polygon fill="none" stroke="black" stroke-width="3" points="1144.64,-1204.7 1144.64,-1304.9 1425.57,-1304.9 1425.57,-1204.7 1144.64,-1204.7"/>
</g>
<!-- ndb.constituentdatabases -->
<g id="node2" class="node">
<title>ndb.constituentdatabases</title>
<polygon fill="#efefef" stroke="none" points="705.2,-940.4 705.2,-976 1025,-976 1025,-940.4 705.2,-940.4"/>
<polygon fill="none" stroke="black" points="705.2,-940.4 705.2,-976 1025,-976 1025,-940.4 705.2,-940.4"/>
<text text-anchor="start" x="713.13" y="-953.8" font-family="Arial Bold" font-size="18.00">ndb.constituentdatabases</text>
<text text-anchor="start" x="892.59" y="-953.8" font-family="Arial" font-size="14.00">    </text>
<text text-anchor="start" x="923.7" y="-953.8" font-family="Arial" font-size="14.00" fill="#666666">[BASE TABLE]</text>
<polygon fill="none" stroke="black" points="705.2,-909.6 705.2,-940.4 1025,-940.4 1025,-909.6 705.2,-909.6"/>
<text text-anchor="start" x="712.2" y="-921.8" font-family="Arial" font-size="14.00">contactid </text>
<text text-anchor="start" x="772.13" y="-921.8" font-family="Arial" font-size="14.00" fill="#666666">[integer]</text>
<polygon fill="none" stroke="black" points="705.2,-878.8 705.2,-909.6 1025,-909.6 1025,-878.8 705.2,-878.8"/>
<text text-anchor="start" x="712.2" y="-891" font-family="Arial" font-size="14.00">databaseid </text>
<text text-anchor="start" x="784.6" y="-891" font-family="Arial" font-size="14.00" fill="#666666">[integer]</text>
<polygon fill="none" stroke="black" points="705.2,-848 705.2,-878.8 1025,-878.8 1025,-848 705.2,-848"/>
<text text-anchor="start" x="712.2" y="-860.2" font-family="Arial" font-size="14.00">databasename </text>
<text text-anchor="start" x="808.72" y="-860.2" font-family="Arial" font-size="14.00" fill="#666666">[varchar(80)]</text>
<polygon fill="none" stroke="black" points="705.2,-817.2 705.2,-848 1025,-848 1025,-817.2 705.2,-817.2"/>
<text text-anchor="start" x="712.2" y="-829.4" font-family="Arial" font-size="14.00">description </text>
<text text-anchor="start" x="783.8" y="-829.4" font-family="Arial" font-size="14.00" fill="#666666">[text]</text>
<polygon fill="none" stroke="black" points="705.2,-786.4 705.2,-817.2 1025,-817.2 1025,-786.4 705.2,-786.4"/>
<text text-anchor="start" x="712.2" y="-798.6" font-family="Arial" font-size="14.00">recdatecreated </text>
<text text-anchor="start" x="809.49" y="-798.6" font-family="Arial" font-size="14.00" fill="#666666">[timestamp(0) without time zone]</text>
<polygon fill="none" stroke="black" points="705.2,-755.6 705.2,-786.4 1025,-786.4 1025,-755.6 705.2,-755.6"/>
<text text-anchor="start" x="712.2" y="-767.8" font-family="Arial" font-size="14.00">recdatemodified </text>
<text text-anchor="start" x="815.71" y="-767.8" font-family="Arial" font-size="14.00" fill="#666666">[timestamp(0) without time zone]</text>
<polygon fill="none" stroke="black" points="705.2,-724.8 705.2,-755.6 1025,-755.6 1025,-724.8 705.2,-724.8"/>
<text text-anchor="start" x="712.2" y="-737" font-family="Arial" font-size="14.00">url </text>
<text text-anchor="start" x="731.65" y="-737" font-family="Arial" font-size="14.00" fill="#666666">[varchar(128)]</text>
</g>
<!-- ti.stewarddatabases&#45;&gt;ndb.constituentdatabases -->
<g id="edge1" class="edge">
<title>ti.stewarddatabases:databaseid&#45;&gt;ndb.constituentdatabases:databaseid</title>
<path fill="none" stroke="black" d="M1135.03,-1251.9C1057.53,-1243.85 1110.11,-1139.06 1082.1,-1055.2 1058.1,-983.33 1101.78,-894.2 1026,-894.2"/>
<polygon fill="black" stroke="black" points="1134.81,-1251.89 1144.58,-1256.88 1140.14,-1252.16 1144.47,-1252.37 1144.47,-1252.37 1144.47,-1252.37 1140.14,-1252.16 1145.02,-1247.89 1134.81,-1251.89"/>
<text text-anchor="start" x="1152.14" y="-1262.4" font-family="Arial" font-size="10.00">FOREIGN KEY (databaseid) REFERENCES ndb.constituentdatabases(databaseid) ON UPDATE CASCADE ON DELETE CASCADE</text>
</g>
<!-- ti.stewards -->
<g id="node6" class="node">
<title>ti.stewards</title>
<polygon fill="#efefef" stroke="none" points="1129.2,-940.4 1129.2,-976 1449,-976 1449,-940.4 1129.2,-940.4"/>
<polygon fill="none" stroke="black" points="1129.2,-940.4 1129.2,-976 1449,-976 1449,-940.4 1129.2,-940.4"/>
<text text-anchor="start" x="1188.12" y="-953.8" font-family="Arial Bold" font-size="18.00">ti.stewards</text>
<text text-anchor="start" x="1265.6" y="-953.8" font-family="Arial" font-size="14.00">    </text>
<text text-anchor="start" x="1296.72" y="-953.8" font-family="Arial" font-size="14.00" fill="#666666">[BASE TABLE]</text>
<polygon fill="none" stroke="black" points="1129.2,-909.6 1129.2,-940.4 1449,-940.4 1449,-909.6 1129.2,-909.6"/>
<text text-anchor="start" x="1136.2" y="-921.8" font-family="Arial" font-size="14.00">contactid </text>
<text text-anchor="start" x="1196.13" y="-921.8" font-family="Arial" font-size="14.00" fill="#666666">[integer]</text>
<polygon fill="none" stroke="black" points="1129.2,-878.8 1129.2,-909.6 1449,-909.6 1449,-878.8 1129.2,-878.8"/>
<text text-anchor="start" x="1136.2" y="-891" font-family="Arial" font-size="14.00">pwd </text>
<text text-anchor="start" x="1165.78" y="-891" font-family="Arial" font-size="14.00" fill="#666666">[varchar(15)]</text>
<polygon fill="none" stroke="black" points="1129.2,-848 1129.2,-878.8 1449,-878.8 1449,-848 1129.2,-848"/>
<text text-anchor="start" x="1136.2" y="-860.2" font-family="Arial" font-size="14.00">recdatecreated </text>
<text text-anchor="start" x="1233.49" y="-860.2" font-family="Arial" font-size="14.00" fill="#666666">[timestamp(0) without time zone]</text>
<polygon fill="none" stroke="black" points="1129.2,-817.2 1129.2,-848 1449,-848 1449,-817.2 1129.2,-817.2"/>
<text text-anchor="start" x="1136.2" y="-829.4" font-family="Arial" font-size="14.00">recdatemodified </text>
<text text-anchor="start" x="1239.71" y="-829.4" font-family="Arial" font-size="14.00" fill="#666666">[timestamp(0) without time zone]</text>
<polygon fill="none" stroke="black" points="1129.2,-786.4 1129.2,-817.2 1449,-817.2 1449,-786.4 1129.2,-786.4"/>
<text text-anchor="start" x="1136.2" y="-798.6" font-family="Arial" font-size="14.00">stewardid </text>
<text text-anchor="start" x="1200.01" y="-798.6" font-family="Arial" font-size="14.00" fill="#666666">[integer]</text>
<polygon fill="none" stroke="black" points="1129.2,-755.6 1129.2,-786.4 1449,-786.4 1449,-755.6 1129.2,-755.6"/>
<text text-anchor="start" x="1136.2" y="-767.8" font-family="Arial" font-size="14.00">taxonomyexpert </text>
<text text-anchor="start" x="1239.7" y="-767.8" font-family="Arial" font-size="14.00" fill="#666666">[boolean]</text>
<polygon fill="none" stroke="black" points="1129.2,-724.8 1129.2,-755.6 1449,-755.6 1449,-724.8 1129.2,-724.8"/>
<text text-anchor="start" x="1136.2" y="-737" font-family="Arial" font-size="14.00">username </text>
<text text-anchor="start" x="1202.35" y="-737" font-family="Arial" font-size="14.00" fill="#666666">[varchar(15)]</text>
</g>
<!-- ti.stewarddatabases&#45;&gt;ti.stewards -->
<g id="edge5" class="edge">
<title>ti.stewarddatabases:stewardid&#45;&gt;ti.stewards:stewardid</title>
<path fill="none" stroke="black" d="M1284.72,-1194.88C1277.3,-1098.74 1165.07,-1117.12 1129.2,-1019.2 1095.97,-928.47 1031.58,-801.8 1128.2,-801.8"/>
<polygon fill="black" stroke="black" points="1284.72,-1194.87 1280.59,-1205.03 1284.92,-1200.2 1285.08,-1204.53 1285.08,-1204.53 1285.08,-1204.53 1284.92,-1200.2 1289.59,-1204.7 1284.72,-1194.87"/>
<text text-anchor="start" x="1292.1" y="-1215.2" font-family="Arial" font-size="10.00">FOREIGN KEY (stewardid) REFERENCES ti.stewards(stewardid) ON UPDATE CASCADE ON DELETE CASCADE</text>
</g>
<!-- ndb.contacts -->
<g id="node3" class="node">
<title>ndb.contacts</title>
<polygon fill="#efefef" stroke="none" points="917.2,-566.8 917.2,-602.4 1237,-602.4 1237,-566.8 917.2,-566.8"/>
<polygon fill="none" stroke="black" points="917.2,-566.8 917.2,-602.4 1237,-602.4 1237,-566.8 917.2,-566.8"/>
<text text-anchor="start" x="969.62" y="-580.2" font-family="Arial Bold" font-size="18.00">ndb.contacts</text>
<text text-anchor="start" x="1060.1" y="-580.2" font-family="Arial" font-size="14.00">    </text>
<text text-anchor="start" x="1091.21" y="-580.2" font-family="Arial" font-size="14.00" fill="#666666">[BASE TABLE]</text>
<polygon fill="none" stroke="black" points="917.2,-536 917.2,-566.8 1237,-566.8 1237,-536 917.2,-536"/>
<text text-anchor="start" x="924.2" y="-548.2" font-family="Arial" font-size="14.00">address </text>
<text text-anchor="start" x="977.9" y="-548.2" font-family="Arial" font-size="14.00" fill="#666666">[text]</text>
<polygon fill="none" stroke="black" points="917.2,-505.2 917.2,-536 1237,-536 1237,-505.2 917.2,-505.2"/>
<text text-anchor="start" x="924.2" y="-517.4" font-family="Arial" font-size="14.00">aliasid </text>
<text text-anchor="start" x="967.78" y="-517.4" font-family="Arial" font-size="14.00" fill="#666666">[integer]</text>
<polygon fill="none" stroke="black" points="917.2,-474.4 917.2,-505.2 1237,-505.2 1237,-474.4 917.2,-474.4"/>
<text text-anchor="start" x="924.2" y="-486.6" font-family="Arial" font-size="14.00">contactid </text>
<text text-anchor="start" x="984.13" y="-486.6" font-family="Arial" font-size="14.00" fill="#666666">[integer]</text>
<polygon fill="none" stroke="black" points="917.2,-443.6 917.2,-474.4 1237,-474.4 1237,-443.6 917.2,-443.6"/>
<text text-anchor="start" x="924.2" y="-455.8" font-family="Arial" font-size="14.00">contactname </text>
<text text-anchor="start" x="1008.25" y="-455.8" font-family="Arial" font-size="14.00" fill="#666666">[varchar(80)]</text>
<polygon fill="none" stroke="black" points="917.2,-412.8 917.2,-443.6 1237,-443.6 1237,-412.8 917.2,-412.8"/>
<text text-anchor="start" x="924.2" y="-425" font-family="Arial" font-size="14.00">contactstatusid </text>
<text text-anchor="start" x="1021.48" y="-425" font-family="Arial" font-size="14.00" fill="#666666">[integer]</text>
<polygon fill="none" stroke="black" points="917.2,-382 917.2,-412.8 1237,-412.8 1237,-382 917.2,-382"/>
<text text-anchor="start" x="924.2" y="-394.2" font-family="Arial" font-size="14.00">email </text>
<text text-anchor="start" x="961.55" y="-394.2" font-family="Arial" font-size="14.00" fill="#666666">[varchar(64)]</text>
<polygon fill="none" stroke="black" points="917.2,-351.2 917.2,-382 1237,-382 1237,-351.2 917.2,-351.2"/>
<text text-anchor="start" x="924.2" y="-363.4" font-family="Arial" font-size="14.00">familyname </text>
<text text-anchor="start" x="999.67" y="-363.4" font-family="Arial" font-size="14.00" fill="#666666">[varchar(80)]</text>
<polygon fill="none" stroke="black" points="917.2,-320.4 917.2,-351.2 1237,-351.2 1237,-320.4 917.2,-320.4"/>
<text text-anchor="start" x="924.2" y="-332.6" font-family="Arial" font-size="14.00">fax </text>
<text text-anchor="start" x="946.77" y="-332.6" font-family="Arial" font-size="14.00" fill="#666666">[varchar(64)]</text>
<polygon fill="none" stroke="black" points="917.2,-289.6 917.2,-320.4 1237,-320.4 1237,-289.6 917.2,-289.6"/>
<text text-anchor="start" x="924.2" y="-301.8" font-family="Arial" font-size="14.00">givennames </text>
<text text-anchor="start" x="1003.58" y="-301.8" font-family="Arial" font-size="14.00" fill="#666666">[varchar(80)]</text>
<polygon fill="none" stroke="black" points="917.2,-258.8 917.2,-289.6 1237,-289.6 1237,-258.8 917.2,-258.8"/>
<text text-anchor="start" x="924.2" y="-271" font-family="Arial" font-size="14.00">leadinginitials </text>
<text text-anchor="start" x="1012.15" y="-271" font-family="Arial" font-size="14.00" fill="#666666">[varchar(16)]</text>
<polygon fill="none" stroke="black" points="917.2,-228 917.2,-258.8 1237,-258.8 1237,-228 917.2,-228"/>
<text text-anchor="start" x="924.2" y="-240.2" font-family="Arial" font-size="14.00">notes </text>
<text text-anchor="start" x="962.34" y="-240.2" font-family="Arial" font-size="14.00" fill="#666666">[text]</text>
<polygon fill="none" stroke="black" points="917.2,-197.2 917.2,-228 1237,-228 1237,-197.2 917.2,-197.2"/>
<text text-anchor="start" x="924.2" y="-209.4" font-family="Arial" font-size="14.00">phone </text>
<text text-anchor="start" x="967.02" y="-209.4" font-family="Arial" font-size="14.00" fill="#666666">[varchar(64)]</text>
<polygon fill="none" stroke="black" points="917.2,-166.4 917.2,-197.2 1237,-197.2 1237,-166.4 917.2,-166.4"/>
<text text-anchor="start" x="924.2" y="-178.6" font-family="Arial" font-size="14.00">recdatecreated </text>
<text text-anchor="start" x="1021.49" y="-178.6" font-family="Arial" font-size="14.00" fill="#666666">[timestamp(0) without time zone]</text>
<polygon fill="none" stroke="black" points="917.2,-135.6 917.2,-166.4 1237,-166.4 1237,-135.6 917.2,-135.6"/>
<text text-anchor="start" x="924.2" y="-147.8" font-family="Arial" font-size="14.00">recdatemodified </text>
<text text-anchor="start" x="1027.71" y="-147.8" font-family="Arial" font-size="14.00" fill="#666666">[timestamp(0) without time zone]</text>
<polygon fill="none" stroke="black" points="917.2,-104.8 917.2,-135.6 1237,-135.6 1237,-104.8 917.2,-104.8"/>
<text text-anchor="start" x="924.2" y="-117" font-family="Arial" font-size="14.00">suffix </text>
<text text-anchor="start" x="960.77" y="-117" font-family="Arial" font-size="14.00" fill="#666666">[varchar(16)]</text>
<polygon fill="none" stroke="black" points="917.2,-74 917.2,-104.8 1237,-104.8 1237,-74 917.2,-74"/>
<text text-anchor="start" x="924.2" y="-86.2" font-family="Arial" font-size="14.00">title </text>
<text text-anchor="start" x="949.88" y="-86.2" font-family="Arial" font-size="14.00" fill="#666666">[varchar(16)]</text>
<polygon fill="none" stroke="black" points="917.2,-43.2 917.2,-74 1237,-74 1237,-43.2 917.2,-43.2"/>
<text text-anchor="start" x="924.2" y="-55.4" font-family="Arial" font-size="14.00">url </text>
<text text-anchor="start" x="943.65" y="-55.4" font-family="Arial" font-size="14.00" fill="#666666">[varchar(255)]</text>
</g>
<!-- ndb.constituentdatabases&#45;&gt;ndb.contacts -->
<g id="edge2" class="edge">
<title>ndb.constituentdatabases:contactid&#45;&gt;ndb.contacts:contactid</title>
<path fill="none" stroke="black" d="M1036.03,-922.32C1076.86,-898.44 1054.54,-722.43 1025,-681.6 995.4,-640.68 946.86,-686.49 917.2,-645.6 876.55,-589.54 846.96,-489.8 916.2,-489.8"/>
<polygon fill="black" stroke="black" points="1035.99,-922.33 1025.16,-920.57 1030.83,-923.71 1026.65,-924.83 1026.65,-924.83 1026.65,-924.83 1030.83,-923.71 1027.49,-929.26 1035.99,-922.33"/>
<text text-anchor="start" x="1033" y="-935" font-family="Arial" font-size="10.00">FOREIGN KEY (contactid) REFERENCES ndb.contacts(contactid)</text>
</g>
<!-- ndb.datasetdatabases -->
<g id="node4" class="node">
<title>ndb.datasetdatabases</title>
<polygon fill="#efefef" stroke="none" points="286.2,-1298.6 286.2,-1334.2 606,-1334.2 606,-1298.6 286.2,-1298.6"/>
<polygon fill="none" stroke="black" points="286.2,-1298.6 286.2,-1334.2 606,-1334.2 606,-1298.6 286.2,-1298.6"/>
<text text-anchor="start" x="308.64" y="-1312" font-family="Arial Bold" font-size="18.00">ndb.datasetdatabases</text>
<text text-anchor="start" x="459.08" y="-1312" font-family="Arial" font-size="14.00">    </text>
<text text-anchor="start" x="490.2" y="-1312" font-family="Arial" font-size="14.00" fill="#666666">[BASE TABLE]</text>
<polygon fill="none" stroke="black" points="286.2,-1267.8 286.2,-1298.6 606,-1298.6 606,-1267.8 286.2,-1267.8"/>
<text text-anchor="start" x="293.2" y="-1280" font-family="Arial" font-size="14.00">databaseid </text>
<text text-anchor="start" x="365.6" y="-1280" font-family="Arial" font-size="14.00" fill="#666666">[integer]</text>
<polygon fill="none" stroke="black" points="286.2,-1237 286.2,-1267.8 606,-1267.8 606,-1237 286.2,-1237"/>
<text text-anchor="start" x="293.2" y="-1249.2" font-family="Arial" font-size="14.00">datasetid </text>
<text text-anchor="start" x="353.91" y="-1249.2" font-family="Arial" font-size="14.00" fill="#666666">[integer]</text>
<polygon fill="none" stroke="black" points="286.2,-1206.2 286.2,-1237 606,-1237 606,-1206.2 286.2,-1206.2"/>
<text text-anchor="start" x="293.2" y="-1218.4" font-family="Arial" font-size="14.00">recdatecreated </text>
<text text-anchor="start" x="390.49" y="-1218.4" font-family="Arial" font-size="14.00" fill="#666666">[timestamp(0) without time zone]</text>
<polygon fill="none" stroke="black" points="286.2,-1175.4 286.2,-1206.2 606,-1206.2 606,-1175.4 286.2,-1175.4"/>
<text text-anchor="start" x="293.2" y="-1187.6" font-family="Arial" font-size="14.00">recdatemodified </text>
<text text-anchor="start" x="396.71" y="-1187.6" font-family="Arial" font-size="14.00" fill="#666666">[timestamp(0) without time zone]</text>
</g>
<!-- ndb.datasetdatabases&#45;&gt;ndb.constituentdatabases -->
<g id="edge3" class="edge">
<title>ndb.datasetdatabases:databaseid&#45;&gt;ndb.constituentdatabases:databaseid</title>
<path fill="none" stroke="black" d="M617.13,-1281.29C689.75,-1251.94 618.76,-894.2 704.2,-894.2"/>
<polygon fill="black" stroke="black" points="617.16,-1281.29 606.5,-1278.72 611.92,-1282.27 607.66,-1283.08 607.66,-1283.08 607.66,-1283.08 611.92,-1282.27 608.17,-1287.56 617.16,-1281.29"/>
<text text-anchor="start" x="7" y="-1293.2" font-family="Arial" font-size="10.00">FOREIGN KEY (databaseid) REFERENCES ndb.constituentdatabases(databaseid) ON UPDATE CASCADE ON DELETE CASCADE</text>
</g>
<!-- ndb.datasetsubmissions -->
<g id="node5" class="node">
<title>ndb.datasetsubmissions</title>
<polygon fill="#efefef" stroke="none" points="710.2,-1375.6 710.2,-1411.2 1030,-1411.2 1030,-1375.6 710.2,-1375.6"/>
<polygon fill="none" stroke="black" points="710.2,-1375.6 710.2,-1411.2 1030,-1411.2 1030,-1375.6 710.2,-1375.6"/>
<text text-anchor="start" x="723.11" y="-1389" font-family="Arial Bold" font-size="18.00">ndb.datasetsubmissions</text>
<text text-anchor="start" x="892.61" y="-1389" font-family="Arial" font-size="14.00">    </text>
<text text-anchor="start" x="923.72" y="-1389" font-family="Arial" font-size="14.00" fill="#666666">[BASE TABLE]</text>
<polygon fill="none" stroke="black" points="710.2,-1344.8 710.2,-1375.6 1030,-1375.6 1030,-1344.8 710.2,-1344.8"/>
<text text-anchor="start" x="717.2" y="-1357" font-family="Arial" font-size="14.00">contactid </text>
<text text-anchor="start" x="777.13" y="-1357" font-family="Arial" font-size="14.00" fill="#666666">[integer]</text>
<polygon fill="none" stroke="black" points="710.2,-1314 710.2,-1344.8 1030,-1344.8 1030,-1314 710.2,-1314"/>
<text text-anchor="start" x="717.2" y="-1326.2" font-family="Arial" font-size="14.00">databaseid </text>
<text text-anchor="start" x="789.6" y="-1326.2" font-family="Arial" font-size="14.00" fill="#666666">[integer]</text>
<polygon fill="none" stroke="black" points="710.2,-1283.2 710.2,-1314 1030,-1314 1030,-1283.2 710.2,-1283.2"/>
<text text-anchor="start" x="717.2" y="-1295.4" font-family="Arial" font-size="14.00">datasetid </text>
<text text-anchor="start" x="777.91" y="-1295.4" font-family="Arial" font-size="14.00" fill="#666666">[integer]</text>
<polygon fill="none" stroke="black" points="710.2,-1252.4 710.2,-1283.2 1030,-1283.2 1030,-1252.4 710.2,-1252.4"/>
<text text-anchor="start" x="717.2" y="-1264.6" font-family="Arial" font-size="14.00">notes </text>
<text text-anchor="start" x="755.34" y="-1264.6" font-family="Arial" font-size="14.00" fill="#666666">[text]</text>
<polygon fill="none" stroke="black" points="710.2,-1221.6 710.2,-1252.4 1030,-1252.4 1030,-1221.6 710.2,-1221.6"/>
<text text-anchor="start" x="717.2" y="-1233.8" font-family="Arial" font-size="14.00">recdatecreated </text>
<text text-anchor="start" x="814.49" y="-1233.8" font-family="Arial" font-size="14.00" fill="#666666">[timestamp(0) without time zone]</text>
<polygon fill="none" stroke="black" points="710.2,-1190.8 710.2,-1221.6 1030,-1221.6 1030,-1190.8 710.2,-1190.8"/>
<text text-anchor="start" x="717.2" y="-1203" font-family="Arial" font-size="14.00">recdatemodified </text>
<text text-anchor="start" x="820.71" y="-1203" font-family="Arial" font-size="14.00" fill="#666666">[timestamp(0) without time zone]</text>
<polygon fill="none" stroke="black" points="710.2,-1160 710.2,-1190.8 1030,-1190.8 1030,-1160 710.2,-1160"/>
<text text-anchor="start" x="717.2" y="-1172.2" font-family="Arial" font-size="14.00">submissiondate </text>
<text text-anchor="start" x="818.37" y="-1172.2" font-family="Arial" font-size="14.00" fill="#666666">[date]</text>
<polygon fill="none" stroke="black" points="710.2,-1129.2 710.2,-1160 1030,-1160 1030,-1129.2 710.2,-1129.2"/>
<text text-anchor="start" x="717.2" y="-1141.4" font-family="Arial" font-size="14.00">submissionid </text>
<text text-anchor="start" x="802.02" y="-1141.4" font-family="Arial" font-size="14.00" fill="#666666">[integer]</text>
<polygon fill="none" stroke="black" points="710.2,-1098.4 710.2,-1129.2 1030,-1129.2 1030,-1098.4 710.2,-1098.4"/>
<text text-anchor="start" x="717.2" y="-1110.6" font-family="Arial" font-size="14.00">submissiontypeid </text>
<text text-anchor="start" x="828.48" y="-1110.6" font-family="Arial" font-size="14.00" fill="#666666">[integer]</text>
</g>
<!-- ndb.datasetsubmissions&#45;&gt;ndb.constituentdatabases -->
<g id="edge4" class="edge">
<title>ndb.datasetsubmissions:databaseid&#45;&gt;ndb.constituentdatabases:databaseid</title>
<path fill="none" stroke="black" d="M699.33,-1327.13C650.83,-1303.22 671.94,-1097.93 710.2,-1055.2 804.14,-950.29 930.83,-1123.91 1025,-1019.2 1062.15,-977.89 1081.56,-894.2 1026,-894.2"/>
<polygon fill="black" stroke="black" points="699.13,-1327.08 707.87,-1333.71 704.33,-1328.28 708.55,-1329.25 708.55,-1329.25 708.55,-1329.25 704.33,-1328.28 709.89,-1324.94 699.13,-1327.08"/>
<text text-anchor="start" x="716.2" y="-1339.4" font-family="Arial" font-size="10.00">FOREIGN KEY (databaseid) REFERENCES ndb.constituentdatabases(databaseid) ON UPDATE CASCADE ON DELETE CASCADE</text>
</g>
<!-- ti.stewards&#45;&gt;ndb.contacts -->
<g id="edge6" class="edge">
<title>ti.stewards:contactid&#45;&gt;ndb.contacts:contactid</title>
<path fill="none" stroke="black" d="M1118.18,-922.32C1077.35,-898.44 1099.67,-722.43 1129.2,-681.6 1158.81,-640.68 1207.35,-686.49 1237,-645.6 1277.66,-589.54 1307.25,-489.8 1238,-489.8"/>
<polygon fill="black" stroke="black" points="1118.22,-922.33 1126.72,-929.26 1123.37,-923.71 1127.56,-924.83 1127.56,-924.83 1127.56,-924.83 1123.37,-923.71 1129.04,-920.57 1118.22,-922.33"/>
<text text-anchor="start" x="1135.2" y="-909" font-family="Arial" font-size="10.00">FOREIGN KEY (contactid) REFERENCES ndb.contacts(contactid) ON UPDATE CASCADE</text>
</g>
</g>
</svg>
