<?xml version="1.0" encoding="UTF-8" standalone="no"?>
<!DOCTYPE svg PUBLIC "-//W3C//DTD SVG 1.1//EN"
 "http://www.w3.org/Graphics/SVG/1.1/DTD/svg11.dtd">
<!-- Generated by graphviz version 12.1.2 (20240928.0832)
 -->
<!-- Title: ti.stewarddatabases Pages: 1 -->
<svg width="1957pt" height="1462pt"
 viewBox="0.00 0.00 1956.63 1462.40" xmlns="http://www.w3.org/2000/svg" xmlns:xlink="http://www.w3.org/1999/xlink">
<g id="graph0" class="graph" transform="scale(1 1) rotate(0) translate(4 1458.4)">
<title>ti.stewarddatabases</title>
<polygon fill="white" stroke="none" points="-4,4 -4,-1458.4 1952.63,-1458.4 1952.63,4 -4,4"/>
<!-- ti.stewarddatabases -->
<g id="node1" class="node">
<title>ti.stewarddatabases</title>
<polygon fill="#efefef" stroke="none" points="529.56,-1267.8 529.56,-1303.4 807.49,-1303.4 807.49,-1267.8 529.56,-1267.8"/>
<polygon fill="none" stroke="black" points="529.56,-1267.8 529.56,-1303.4 807.49,-1303.4 807.49,-1267.8 529.56,-1267.8"/>
<text text-anchor="start" x="536.56" y="-1281.2" font-family="Arial Bold" font-size="18.00">ti.stewarddatabases</text>
<text text-anchor="start" x="676" y="-1281.2" font-family="Arial" font-size="14.00">    </text>
<text text-anchor="start" x="707.12" y="-1281.2" font-family="Arial" font-size="14.00" fill="#666666">[BASE TABLE]</text>
<polygon fill="none" stroke="black" points="529.56,-1237 529.56,-1267.8 807.49,-1267.8 807.49,-1237 529.56,-1237"/>
<text text-anchor="start" x="536.56" y="-1249.2" font-family="Arial" font-size="14.00">stewardid </text>
<text text-anchor="start" x="600.36" y="-1249.2" font-family="Arial" font-size="14.00" fill="#666666">[integer]</text>
<polygon fill="none" stroke="black" points="529.56,-1206.2 529.56,-1237 807.49,-1237 807.49,-1206.2 529.56,-1206.2"/>
<text text-anchor="start" x="536.56" y="-1218.4" font-family="Arial" font-size="14.00">databaseid </text>
<text text-anchor="start" x="608.95" y="-1218.4" font-family="Arial" font-size="14.00" fill="#666666">[integer]</text>
<polygon fill="none" stroke="black" stroke-width="3" points="528.06,-1204.7 528.06,-1304.9 808.99,-1304.9 808.99,-1204.7 528.06,-1204.7"/>
</g>
<!-- ti.stewards -->
<g id="node2" class="node">
<title>ti.stewards</title>
<polygon fill="#efefef" stroke="none" points="499.62,-940.4 499.62,-976 819.42,-976 819.42,-940.4 499.62,-940.4"/>
<polygon fill="none" stroke="black" points="499.62,-940.4 499.62,-976 819.42,-976 819.42,-940.4 499.62,-940.4"/>
<text text-anchor="start" x="558.54" y="-953.8" font-family="Arial Bold" font-size="18.00">ti.stewards</text>
<text text-anchor="start" x="636.02" y="-953.8" font-family="Arial" font-size="14.00">    </text>
<text text-anchor="start" x="667.14" y="-953.8" font-family="Arial" font-size="14.00" fill="#666666">[BASE TABLE]</text>
<polygon fill="none" stroke="black" points="499.62,-909.6 499.62,-940.4 819.42,-940.4 819.42,-909.6 499.62,-909.6"/>
<text text-anchor="start" x="506.62" y="-921.8" font-family="Arial" font-size="14.00">stewardid </text>
<text text-anchor="start" x="570.43" y="-921.8" font-family="Arial" font-size="14.00" fill="#666666">[integer]</text>
<polygon fill="none" stroke="black" points="499.62,-878.8 499.62,-909.6 819.42,-909.6 819.42,-878.8 499.62,-878.8"/>
<text text-anchor="start" x="506.62" y="-891" font-family="Arial" font-size="14.00">contactid </text>
<text text-anchor="start" x="566.55" y="-891" font-family="Arial" font-size="14.00" fill="#666666">[integer]</text>
<polygon fill="none" stroke="black" points="499.62,-848 499.62,-878.8 819.42,-878.8 819.42,-848 499.62,-848"/>
<text text-anchor="start" x="506.62" y="-860.2" font-family="Arial" font-size="14.00">username </text>
<text text-anchor="start" x="572.77" y="-860.2" font-family="Arial" font-size="14.00" fill="#666666">[varchar(15)]</text>
<polygon fill="none" stroke="black" points="499.62,-817.2 499.62,-848 819.42,-848 819.42,-817.2 499.62,-817.2"/>
<text text-anchor="start" x="506.62" y="-829.4" font-family="Arial" font-size="14.00">pwd </text>
<text text-anchor="start" x="536.2" y="-829.4" font-family="Arial" font-size="14.00" fill="#666666">[varchar(15)]</text>
<polygon fill="none" stroke="black" points="499.62,-786.4 499.62,-817.2 819.42,-817.2 819.42,-786.4 499.62,-786.4"/>
<text text-anchor="start" x="506.62" y="-798.6" font-family="Arial" font-size="14.00">taxonomyexpert </text>
<text text-anchor="start" x="610.12" y="-798.6" font-family="Arial" font-size="14.00" fill="#666666">[boolean]</text>
<polygon fill="none" stroke="black" points="499.62,-755.6 499.62,-786.4 819.42,-786.4 819.42,-755.6 499.62,-755.6"/>
<text text-anchor="start" x="506.62" y="-767.8" font-family="Arial" font-size="14.00">recdatecreated </text>
<text text-anchor="start" x="603.91" y="-767.8" font-family="Arial" font-size="14.00" fill="#666666">[timestamp(0) without time zone]</text>
<polygon fill="none" stroke="black" points="499.62,-724.8 499.62,-755.6 819.42,-755.6 819.42,-724.8 499.62,-724.8"/>
<text text-anchor="start" x="506.62" y="-737" font-family="Arial" font-size="14.00">recdatemodified </text>
<text text-anchor="start" x="610.13" y="-737" font-family="Arial" font-size="14.00" fill="#666666">[timestamp(0) without time zone]</text>
</g>
<!-- ti.stewarddatabases&#45;&gt;ti.stewards -->
<g id="edge1" class="edge">
<title>ti.stewarddatabases:stewardid&#45;&gt;ti.stewards:stewardid</title>
<path fill="none" stroke="black" d="M518.57,-1250.94C491.27,-1241.78 509.64,-1191.44 529.56,-1160 606.21,-1039.01 742.78,-1140.19 819.42,-1019.2 841.83,-983.83 862.29,-925 820.42,-925"/>
<polygon fill="black" stroke="black" points="518.33,-1250.91 527.58,-1256.8 523.61,-1251.68 527.89,-1252.3 527.89,-1252.3 527.89,-1252.3 523.61,-1251.68 528.87,-1247.9 518.33,-1250.91"/>
<text text-anchor="start" x="7" y="-1262.4" font-family="Arial" font-size="10.00">FOREIGN KEY (stewardid) REFERENCES ti.stewards(stewardid) ON UPDATE CASCADE ON DELETE CASCADE</text>
</g>
<!-- ndb.constituentdatabases -->
<g id="node4" class="node">
<title>ndb.constituentdatabases</title>
<polygon fill="#efefef" stroke="none" points="923.62,-940.4 923.62,-976 1243.42,-976 1243.42,-940.4 923.62,-940.4"/>
<polygon fill="none" stroke="black" points="923.62,-940.4 923.62,-976 1243.42,-976 1243.42,-940.4 923.62,-940.4"/>
<text text-anchor="start" x="931.55" y="-953.8" font-family="Arial Bold" font-size="18.00">ndb.constituentdatabases</text>
<text text-anchor="start" x="1111.01" y="-953.8" font-family="Arial" font-size="14.00">    </text>
<text text-anchor="start" x="1142.12" y="-953.8" font-family="Arial" font-size="14.00" fill="#666666">[BASE TABLE]</text>
<polygon fill="none" stroke="black" points="923.62,-909.6 923.62,-940.4 1243.42,-940.4 1243.42,-909.6 923.62,-909.6"/>
<text text-anchor="start" x="930.62" y="-921.8" font-family="Arial" font-size="14.00">databaseid </text>
<text text-anchor="start" x="1003.02" y="-921.8" font-family="Arial" font-size="14.00" fill="#666666">[integer]</text>
<polygon fill="none" stroke="black" points="923.62,-878.8 923.62,-909.6 1243.42,-909.6 1243.42,-878.8 923.62,-878.8"/>
<text text-anchor="start" x="930.62" y="-891" font-family="Arial" font-size="14.00">databasename </text>
<text text-anchor="start" x="1027.14" y="-891" font-family="Arial" font-size="14.00" fill="#666666">[varchar(80)]</text>
<polygon fill="none" stroke="black" points="923.62,-848 923.62,-878.8 1243.42,-878.8 1243.42,-848 923.62,-848"/>
<text text-anchor="start" x="930.62" y="-860.2" font-family="Arial" font-size="14.00">contactid </text>
<text text-anchor="start" x="990.55" y="-860.2" font-family="Arial" font-size="14.00" fill="#666666">[integer]</text>
<polygon fill="none" stroke="black" points="923.62,-817.2 923.62,-848 1243.42,-848 1243.42,-817.2 923.62,-817.2"/>
<text text-anchor="start" x="930.62" y="-829.4" font-family="Arial" font-size="14.00">url </text>
<text text-anchor="start" x="950.07" y="-829.4" font-family="Arial" font-size="14.00" fill="#666666">[varchar(128)]</text>
<polygon fill="none" stroke="black" points="923.62,-786.4 923.62,-817.2 1243.42,-817.2 1243.42,-786.4 923.62,-786.4"/>
<text text-anchor="start" x="930.62" y="-798.6" font-family="Arial" font-size="14.00">recdatecreated </text>
<text text-anchor="start" x="1027.91" y="-798.6" font-family="Arial" font-size="14.00" fill="#666666">[timestamp(0) without time zone]</text>
<polygon fill="none" stroke="black" points="923.62,-755.6 923.62,-786.4 1243.42,-786.4 1243.42,-755.6 923.62,-755.6"/>
<text text-anchor="start" x="930.62" y="-767.8" font-family="Arial" font-size="14.00">recdatemodified </text>
<text text-anchor="start" x="1034.13" y="-767.8" font-family="Arial" font-size="14.00" fill="#666666">[timestamp(0) without time zone]</text>
<polygon fill="none" stroke="black" points="923.62,-724.8 923.62,-755.6 1243.42,-755.6 1243.42,-724.8 923.62,-724.8"/>
<text text-anchor="start" x="930.62" y="-737" font-family="Arial" font-size="14.00">description </text>
<text text-anchor="start" x="1002.22" y="-737" font-family="Arial" font-size="14.00" fill="#666666">[text]</text>
</g>
<!-- ti.stewarddatabases&#45;&gt;ndb.constituentdatabases -->
<g id="edge3" class="edge">
<title>ti.stewarddatabases:databaseid&#45;&gt;ndb.constituentdatabases:databaseid</title>
<path fill="none" stroke="black" d="M818.69,-1221C882.42,-1212.89 839.44,-1124.77 866.52,-1055.2 889.38,-996.48 859.61,-925 922.62,-925"/>
<polygon fill="black" stroke="black" points="818.81,-1220.99 808.56,-1217.09 813.48,-1221.3 809.16,-1221.56 809.16,-1221.56 809.16,-1221.56 813.48,-1221.3 809.09,-1226.07 818.81,-1220.99"/>
<text text-anchor="start" x="208.49" y="-1231.6" font-family="Arial" font-size="10.00">FOREIGN KEY (databaseid) REFERENCES ndb.constituentdatabases(databaseid) ON UPDATE CASCADE ON DELETE CASCADE</text>
</g>
<!-- ndb.contacts -->
<g id="node3" class="node">
<title>ndb.contacts</title>
<polygon fill="#efefef" stroke="none" points="711.62,-566.8 711.62,-602.4 1031.42,-602.4 1031.42,-566.8 711.62,-566.8"/>
<polygon fill="none" stroke="black" points="711.62,-566.8 711.62,-602.4 1031.42,-602.4 1031.42,-566.8 711.62,-566.8"/>
<text text-anchor="start" x="764.04" y="-580.2" font-family="Arial Bold" font-size="18.00">ndb.contacts</text>
<text text-anchor="start" x="854.52" y="-580.2" font-family="Arial" font-size="14.00">    </text>
<text text-anchor="start" x="885.63" y="-580.2" font-family="Arial" font-size="14.00" fill="#666666">[BASE TABLE]</text>
<polygon fill="none" stroke="black" points="711.62,-536 711.62,-566.8 1031.42,-566.8 1031.42,-536 711.62,-536"/>
<text text-anchor="start" x="718.62" y="-548.2" font-family="Arial" font-size="14.00">contactid </text>
<text text-anchor="start" x="778.55" y="-548.2" font-family="Arial" font-size="14.00" fill="#666666">[integer]</text>
<polygon fill="none" stroke="black" points="711.62,-505.2 711.62,-536 1031.42,-536 1031.42,-505.2 711.62,-505.2"/>
<text text-anchor="start" x="718.62" y="-517.4" font-family="Arial" font-size="14.00">aliasid </text>
<text text-anchor="start" x="762.2" y="-517.4" font-family="Arial" font-size="14.00" fill="#666666">[integer]</text>
<polygon fill="none" stroke="black" points="711.62,-474.4 711.62,-505.2 1031.42,-505.2 1031.42,-474.4 711.62,-474.4"/>
<text text-anchor="start" x="718.62" y="-486.6" font-family="Arial" font-size="14.00">contactname </text>
<text text-anchor="start" x="802.67" y="-486.6" font-family="Arial" font-size="14.00" fill="#666666">[varchar(80)]</text>
<polygon fill="none" stroke="black" points="711.62,-443.6 711.62,-474.4 1031.42,-474.4 1031.42,-443.6 711.62,-443.6"/>
<text text-anchor="start" x="718.62" y="-455.8" font-family="Arial" font-size="14.00">contactstatusid </text>
<text text-anchor="start" x="815.9" y="-455.8" font-family="Arial" font-size="14.00" fill="#666666">[integer]</text>
<polygon fill="none" stroke="black" points="711.62,-412.8 711.62,-443.6 1031.42,-443.6 1031.42,-412.8 711.62,-412.8"/>
<text text-anchor="start" x="718.62" y="-425" font-family="Arial" font-size="14.00">familyname </text>
<text text-anchor="start" x="794.09" y="-425" font-family="Arial" font-size="14.00" fill="#666666">[varchar(80)]</text>
<polygon fill="none" stroke="black" points="711.62,-382 711.62,-412.8 1031.42,-412.8 1031.42,-382 711.62,-382"/>
<text text-anchor="start" x="718.62" y="-394.2" font-family="Arial" font-size="14.00">leadinginitials </text>
<text text-anchor="start" x="806.57" y="-394.2" font-family="Arial" font-size="14.00" fill="#666666">[varchar(16)]</text>
<polygon fill="none" stroke="black" points="711.62,-351.2 711.62,-382 1031.42,-382 1031.42,-351.2 711.62,-351.2"/>
<text text-anchor="start" x="718.62" y="-363.4" font-family="Arial" font-size="14.00">givennames </text>
<text text-anchor="start" x="798" y="-363.4" font-family="Arial" font-size="14.00" fill="#666666">[varchar(80)]</text>
<polygon fill="none" stroke="black" points="711.62,-320.4 711.62,-351.2 1031.42,-351.2 1031.42,-320.4 711.62,-320.4"/>
<text text-anchor="start" x="718.62" y="-332.6" font-family="Arial" font-size="14.00">suffix </text>
<text text-anchor="start" x="755.19" y="-332.6" font-family="Arial" font-size="14.00" fill="#666666">[varchar(16)]</text>
<polygon fill="none" stroke="black" points="711.62,-289.6 711.62,-320.4 1031.42,-320.4 1031.42,-289.6 711.62,-289.6"/>
<text text-anchor="start" x="718.62" y="-301.8" font-family="Arial" font-size="14.00">title </text>
<text text-anchor="start" x="744.3" y="-301.8" font-family="Arial" font-size="14.00" fill="#666666">[varchar(16)]</text>
<polygon fill="none" stroke="black" points="711.62,-258.8 711.62,-289.6 1031.42,-289.6 1031.42,-258.8 711.62,-258.8"/>
<text text-anchor="start" x="718.62" y="-271" font-family="Arial" font-size="14.00">phone </text>
<text text-anchor="start" x="761.44" y="-271" font-family="Arial" font-size="14.00" fill="#666666">[varchar(64)]</text>
<polygon fill="none" stroke="black" points="711.62,-228 711.62,-258.8 1031.42,-258.8 1031.42,-228 711.62,-228"/>
<text text-anchor="start" x="718.62" y="-240.2" font-family="Arial" font-size="14.00">fax </text>
<text text-anchor="start" x="741.19" y="-240.2" font-family="Arial" font-size="14.00" fill="#666666">[varchar(64)]</text>
<polygon fill="none" stroke="black" points="711.62,-197.2 711.62,-228 1031.42,-228 1031.42,-197.2 711.62,-197.2"/>
<text text-anchor="start" x="718.62" y="-209.4" font-family="Arial" font-size="14.00">email </text>
<text text-anchor="start" x="755.97" y="-209.4" font-family="Arial" font-size="14.00" fill="#666666">[varchar(64)]</text>
<polygon fill="none" stroke="black" points="711.62,-166.4 711.62,-197.2 1031.42,-197.2 1031.42,-166.4 711.62,-166.4"/>
<text text-anchor="start" x="718.62" y="-178.6" font-family="Arial" font-size="14.00">url </text>
<text text-anchor="start" x="738.07" y="-178.6" font-family="Arial" font-size="14.00" fill="#666666">[varchar(255)]</text>
<polygon fill="none" stroke="black" points="711.62,-135.6 711.62,-166.4 1031.42,-166.4 1031.42,-135.6 711.62,-135.6"/>
<text text-anchor="start" x="718.62" y="-147.8" font-family="Arial" font-size="14.00">address </text>
<text text-anchor="start" x="772.32" y="-147.8" font-family="Arial" font-size="14.00" fill="#666666">[text]</text>
<polygon fill="none" stroke="black" points="711.62,-104.8 711.62,-135.6 1031.42,-135.6 1031.42,-104.8 711.62,-104.8"/>
<text text-anchor="start" x="718.62" y="-117" font-family="Arial" font-size="14.00">notes </text>
<text text-anchor="start" x="756.76" y="-117" font-family="Arial" font-size="14.00" fill="#666666">[text]</text>
<polygon fill="none" stroke="black" points="711.62,-74 711.62,-104.8 1031.42,-104.8 1031.42,-74 711.62,-74"/>
<text text-anchor="start" x="718.62" y="-86.2" font-family="Arial" font-size="14.00">recdatecreated </text>
<text text-anchor="start" x="815.91" y="-86.2" font-family="Arial" font-size="14.00" fill="#666666">[timestamp(0) without time zone]</text>
<polygon fill="none" stroke="black" points="711.62,-43.2 711.62,-74 1031.42,-74 1031.42,-43.2 711.62,-43.2"/>
<text text-anchor="start" x="718.62" y="-55.4" font-family="Arial" font-size="14.00">recdatemodified </text>
<text text-anchor="start" x="822.13" y="-55.4" font-family="Arial" font-size="14.00" fill="#666666">[timestamp(0) without time zone]</text>
</g>
<!-- ti.stewards&#45;&gt;ndb.contacts -->
<g id="edge2" class="edge">
<title>ti.stewards:contactid&#45;&gt;ndb.contacts:contactid</title>
<path fill="none" stroke="black" d="M830.28,-891.16C864.42,-867.79 844.96,-716.88 819.42,-681.6 789.8,-640.68 741.36,-686.43 711.62,-645.6 686.97,-611.76 668.76,-551.4 710.62,-551.4"/>
<polygon fill="black" stroke="black" points="830.3,-891.15 819.42,-889.8 825.2,-892.73 821.06,-894 821.06,-894 821.06,-894 825.2,-892.73 822.07,-898.4 830.3,-891.15"/>
<text text-anchor="start" x="406.08" y="-904.2" font-family="Arial" font-size="10.00">FOREIGN KEY (contactid) REFERENCES ndb.contacts(contactid) ON UPDATE CASCADE</text>
</g>
<!-- ndb.constituentdatabases&#45;&gt;ndb.contacts -->
<g id="edge6" class="edge">
<title>ndb.constituentdatabases:contactid&#45;&gt;ndb.contacts:contactid</title>
<path fill="none" stroke="black" d="M912.42,-862.71C844.94,-853.05 878.35,-744.09 923.62,-681.6 953.26,-640.7 1001.68,-686.43 1031.42,-645.6 1056.08,-611.76 1074.29,-551.4 1032.42,-551.4"/>
<polygon fill="black" stroke="black" points="912.31,-862.7 921.99,-867.87 917.64,-863.06 921.96,-863.35 921.96,-863.35 921.96,-863.35 917.64,-863.06 922.59,-858.89 912.31,-862.7"/>
<text text-anchor="start" x="929.62" y="-873.4" font-family="Arial" font-size="10.00">FOREIGN KEY (contactid) REFERENCES ndb.contacts(contactid)</text>
</g>
<!-- ndb.datasetdatabases -->
<g id="node5" class="node">
<title>ndb.datasetdatabases</title>
<polygon fill="#efefef" stroke="none" points="918.62,-1298.6 918.62,-1334.2 1238.42,-1334.2 1238.42,-1298.6 918.62,-1298.6"/>
<polygon fill="none" stroke="black" points="918.62,-1298.6 918.62,-1334.2 1238.42,-1334.2 1238.42,-1298.6 918.62,-1298.6"/>
<text text-anchor="start" x="941.06" y="-1312" font-family="Arial Bold" font-size="18.00">ndb.datasetdatabases</text>
<text text-anchor="start" x="1091.5" y="-1312" font-family="Arial" font-size="14.00">    </text>
<text text-anchor="start" x="1122.62" y="-1312" font-family="Arial" font-size="14.00" fill="#666666">[BASE TABLE]</text>
<polygon fill="none" stroke="black" points="918.62,-1267.8 918.62,-1298.6 1238.42,-1298.6 1238.42,-1267.8 918.62,-1267.8"/>
<text text-anchor="start" x="925.62" y="-1280" font-family="Arial" font-size="14.00">datasetid </text>
<text text-anchor="start" x="986.33" y="-1280" font-family="Arial" font-size="14.00" fill="#666666">[integer]</text>
<polygon fill="none" stroke="black" points="918.62,-1237 918.62,-1267.8 1238.42,-1267.8 1238.42,-1237 918.62,-1237"/>
<text text-anchor="start" x="925.62" y="-1249.2" font-family="Arial" font-size="14.00">databaseid </text>
<text text-anchor="start" x="998.02" y="-1249.2" font-family="Arial" font-size="14.00" fill="#666666">[integer]</text>
<polygon fill="none" stroke="black" points="918.62,-1206.2 918.62,-1237 1238.42,-1237 1238.42,-1206.2 918.62,-1206.2"/>
<text text-anchor="start" x="925.62" y="-1218.4" font-family="Arial" font-size="14.00">recdatecreated </text>
<text text-anchor="start" x="1022.91" y="-1218.4" font-family="Arial" font-size="14.00" fill="#666666">[timestamp(0) without time zone]</text>
<polygon fill="none" stroke="black" points="918.62,-1175.4 918.62,-1206.2 1238.42,-1206.2 1238.42,-1175.4 918.62,-1175.4"/>
<text text-anchor="start" x="925.62" y="-1187.6" font-family="Arial" font-size="14.00">recdatemodified </text>
<text text-anchor="start" x="1029.13" y="-1187.6" font-family="Arial" font-size="14.00" fill="#666666">[timestamp(0) without time zone]</text>
</g>
<!-- ndb.datasetdatabases&#45;&gt;ndb.constituentdatabases -->
<g id="edge4" class="edge">
<title>ndb.datasetdatabases:databaseid&#45;&gt;ndb.constituentdatabases:databaseid</title>
<path fill="none" stroke="black" d="M1249.58,-1251.3C1289.51,-1241.79 1267.17,-1172.7 1238.42,-1132.2 1152.39,-1010.98 1009.8,-1140.32 923.62,-1019.2 899.35,-985.08 880.76,-925 922.62,-925"/>
<polygon fill="black" stroke="black" points="1249.7,-1251.29 1239.27,-1247.89 1244.39,-1251.86 1240.09,-1252.33 1240.09,-1252.33 1240.09,-1252.33 1244.39,-1251.86 1240.24,-1256.84 1249.7,-1251.29"/>
<text text-anchor="start" x="942.92" y="-1236.4" font-family="Arial" font-size="10.00">FOREIGN KEY (databaseid) REFERENCES ndb.constituentdatabases(databaseid) ON UPDATE CASCADE ON DELETE CASCADE</text>
</g>
<!-- ndb.datasetsubmissions -->
<g id="node6" class="node">
<title>ndb.datasetsubmissions</title>
<polygon fill="#efefef" stroke="none" points="1342.62,-1375.6 1342.62,-1411.2 1662.42,-1411.2 1662.42,-1375.6 1342.62,-1375.6"/>
<polygon fill="none" stroke="black" points="1342.62,-1375.6 1342.62,-1411.2 1662.42,-1411.2 1662.42,-1375.6 1342.62,-1375.6"/>
<text text-anchor="start" x="1355.53" y="-1389" font-family="Arial Bold" font-size="18.00">ndb.datasetsubmissions</text>
<text text-anchor="start" x="1525.03" y="-1389" font-family="Arial" font-size="14.00">    </text>
<text text-anchor="start" x="1556.15" y="-1389" font-family="Arial" font-size="14.00" fill="#666666">[BASE TABLE]</text>
<polygon fill="none" stroke="black" points="1342.62,-1344.8 1342.62,-1375.6 1662.42,-1375.6 1662.42,-1344.8 1342.62,-1344.8"/>
<text text-anchor="start" x="1349.62" y="-1357" font-family="Arial" font-size="14.00">submissionid </text>
<text text-anchor="start" x="1434.44" y="-1357" font-family="Arial" font-size="14.00" fill="#666666">[integer]</text>
<polygon fill="none" stroke="black" points="1342.62,-1314 1342.62,-1344.8 1662.42,-1344.8 1662.42,-1314 1342.62,-1314"/>
<text text-anchor="start" x="1349.62" y="-1326.2" font-family="Arial" font-size="14.00">datasetid </text>
<text text-anchor="start" x="1410.33" y="-1326.2" font-family="Arial" font-size="14.00" fill="#666666">[integer]</text>
<polygon fill="none" stroke="black" points="1342.62,-1283.2 1342.62,-1314 1662.42,-1314 1662.42,-1283.2 1342.62,-1283.2"/>
<text text-anchor="start" x="1349.62" y="-1295.4" font-family="Arial" font-size="14.00">databaseid </text>
<text text-anchor="start" x="1422.02" y="-1295.4" font-family="Arial" font-size="14.00" fill="#666666">[integer]</text>
<polygon fill="none" stroke="black" points="1342.62,-1252.4 1342.62,-1283.2 1662.42,-1283.2 1662.42,-1252.4 1342.62,-1252.4"/>
<text text-anchor="start" x="1349.62" y="-1264.6" font-family="Arial" font-size="14.00">contactid </text>
<text text-anchor="start" x="1409.55" y="-1264.6" font-family="Arial" font-size="14.00" fill="#666666">[integer]</text>
<polygon fill="none" stroke="black" points="1342.62,-1221.6 1342.62,-1252.4 1662.42,-1252.4 1662.42,-1221.6 1342.62,-1221.6"/>
<text text-anchor="start" x="1349.62" y="-1233.8" font-family="Arial" font-size="14.00">submissiontypeid </text>
<text text-anchor="start" x="1460.9" y="-1233.8" font-family="Arial" font-size="14.00" fill="#666666">[integer]</text>
<polygon fill="none" stroke="black" points="1342.62,-1190.8 1342.62,-1221.6 1662.42,-1221.6 1662.42,-1190.8 1342.62,-1190.8"/>
<text text-anchor="start" x="1349.62" y="-1203" font-family="Arial" font-size="14.00">submissiondate </text>
<text text-anchor="start" x="1450.79" y="-1203" font-family="Arial" font-size="14.00" fill="#666666">[date]</text>
<polygon fill="none" stroke="black" points="1342.62,-1160 1342.62,-1190.8 1662.42,-1190.8 1662.42,-1160 1342.62,-1160"/>
<text text-anchor="start" x="1349.62" y="-1172.2" font-family="Arial" font-size="14.00">notes </text>
<text text-anchor="start" x="1387.76" y="-1172.2" font-family="Arial" font-size="14.00" fill="#666666">[text]</text>
<polygon fill="none" stroke="black" points="1342.62,-1129.2 1342.62,-1160 1662.42,-1160 1662.42,-1129.2 1342.62,-1129.2"/>
<text text-anchor="start" x="1349.62" y="-1141.4" font-family="Arial" font-size="14.00">recdatecreated </text>
<text text-anchor="start" x="1446.91" y="-1141.4" font-family="Arial" font-size="14.00" fill="#666666">[timestamp(0) without time zone]</text>
<polygon fill="none" stroke="black" points="1342.62,-1098.4 1342.62,-1129.2 1662.42,-1129.2 1662.42,-1098.4 1342.62,-1098.4"/>
<text text-anchor="start" x="1349.62" y="-1110.6" font-family="Arial" font-size="14.00">recdatemodified </text>
<text text-anchor="start" x="1453.13" y="-1110.6" font-family="Arial" font-size="14.00" fill="#666666">[timestamp(0) without time zone]</text>
</g>
<!-- ndb.datasetsubmissions&#45;&gt;ndb.constituentdatabases -->
<g id="edge5" class="edge">
<title>ndb.datasetsubmissions:databaseid&#45;&gt;ndb.constituentdatabases:databaseid</title>
<path fill="none" stroke="black" d="M1331.43,-1296.59C1261.93,-1267.18 1326.52,-925 1244.42,-925"/>
<polygon fill="black" stroke="black" points="1331.49,-1296.6 1340.43,-1302.95 1336.72,-1297.63 1340.97,-1298.47 1340.97,-1298.47 1340.97,-1298.47 1336.72,-1297.63 1342.17,-1294.12 1331.49,-1296.6"/>
<text text-anchor="start" x="1348.62" y="-1308.6" font-family="Arial" font-size="10.00">FOREIGN KEY (databaseid) REFERENCES ndb.constituentdatabases(databaseid) ON UPDATE CASCADE ON DELETE CASCADE</text>
</g>
</g>
</svg>
