<?xml version="1.0" encoding="UTF-8" standalone="no"?>
<!DOCTYPE svg PUBLIC "-//W3C//DTD SVG 1.1//EN"
 "http://www.w3.org/Graphics/SVG/1.1/DTD/svg11.dtd">
<!-- Generated by graphviz version 12.1.2 (20240928.0832)
 -->
<!-- Title: ts.stewardauthorization Pages: 1 -->
<svg width="357pt" height="321pt"
 viewBox="0.00 0.00 356.52 320.80" xmlns="http://www.w3.org/2000/svg" xmlns:xlink="http://www.w3.org/1999/xlink">
<g id="graph0" class="graph" transform="scale(1 1) rotate(0) translate(4 316.8)">
<title>ts.stewardauthorization</title>
<polygon fill="white" stroke="none" points="-4,4 -4,-316.8 352.52,-316.8 352.52,4 -4,4"/>
<!-- ts.stewardauthorization -->
<g id="node1" class="node">
<title>ts.stewardauthorization</title>
<polygon fill="#efefef" stroke="none" points="46.2,-231 46.2,-266.6 302.32,-266.6 302.32,-231 46.2,-231"/>
<polygon fill="none" stroke="black" points="46.2,-231 46.2,-266.6 302.32,-266.6 302.32,-231 46.2,-231"/>
<text text-anchor="start" x="53.2" y="-244.4" font-family="Arial Bold" font-size="18.00">ts.stewardauthorization</text>
<text text-anchor="start" x="220.65" y="-244.4" font-family="Arial" font-size="14.00">    </text>
<text text-anchor="start" x="251.77" y="-244.4" font-family="Arial" font-size="14.00" fill="#666666">[VIEW]</text>
<polygon fill="none" stroke="black" points="46.2,-200.2 46.2,-231 302.32,-231 302.32,-200.2 46.2,-200.2"/>
<text text-anchor="start" x="53.2" y="-212.4" font-family="Arial" font-size="14.00">stewardid </text>
<text text-anchor="start" x="117.01" y="-212.4" font-family="Arial" font-size="14.00" fill="#666666">[integer]</text>
<polygon fill="none" stroke="black" points="46.2,-169.4 46.2,-200.2 302.32,-200.2 302.32,-169.4 46.2,-169.4"/>
<text text-anchor="start" x="53.2" y="-181.6" font-family="Arial" font-size="14.00">firstname </text>
<text text-anchor="start" x="114.66" y="-181.6" font-family="Arial" font-size="14.00" fill="#666666">[varchar(80)]</text>
<polygon fill="none" stroke="black" points="46.2,-138.6 46.2,-169.4 302.32,-169.4 302.32,-138.6 46.2,-138.6"/>
<text text-anchor="start" x="53.2" y="-150.8" font-family="Arial" font-size="14.00">lastname </text>
<text text-anchor="start" x="113.9" y="-150.8" font-family="Arial" font-size="14.00" fill="#666666">[varchar(80)]</text>
<polygon fill="none" stroke="black" points="46.2,-107.8 46.2,-138.6 302.32,-138.6 302.32,-107.8 46.2,-107.8"/>
<text text-anchor="start" x="53.2" y="-120" font-family="Arial" font-size="14.00">username </text>
<text text-anchor="start" x="119.34" y="-120" font-family="Arial" font-size="14.00" fill="#666666">[varchar(15)]</text>
<polygon fill="none" stroke="black" points="46.2,-77 46.2,-107.8 302.32,-107.8 302.32,-77 46.2,-77"/>
<text text-anchor="start" x="53.2" y="-89.2" font-family="Arial" font-size="14.00">pwd </text>
<text text-anchor="start" x="82.77" y="-89.2" font-family="Arial" font-size="14.00" fill="#666666">[varchar(15)]</text>
<polygon fill="none" stroke="black" points="46.2,-46.2 46.2,-77 302.32,-77 302.32,-46.2 46.2,-46.2"/>
<text text-anchor="start" x="53.2" y="-58.4" font-family="Arial" font-size="14.00">authorized </text>
<text text-anchor="start" x="122.47" y="-58.4" font-family="Arial" font-size="14.00" fill="#666666">[integer]</text>
<polygon fill="none" stroke="black" stroke-width="3" points="44.7,-44.7 44.7,-268.1 303.82,-268.1 303.82,-44.7 44.7,-44.7"/>
</g>
</g>
</svg>
