<?xml version="1.0" encoding="UTF-8" standalone="no"?>
<!DOCTYPE svg PUBLIC "-//W3C//DTD SVG 1.1//EN"
 "http://www.w3.org/Graphics/SVG/1.1/DTD/svg11.dtd">
<!-- Generated by graphviz version 12.1.2 (20240928.0832)
 -->
<!-- Title: Controlled Vocabularies Pages: 1 -->
<svg width="6894pt" height="798pt"
 viewBox="0.00 0.00 6894.27 798.20" xmlns="http://www.w3.org/2000/svg" xmlns:xlink="http://www.w3.org/1999/xlink">
<g id="graph0" class="graph" transform="scale(1 1) rotate(0) translate(4 794.2)">
<title>Controlled Vocabularies</title>
<polygon fill="white" stroke="none" points="-4,4 -4,-794.2 6890.27,-794.2 6890.27,4 -4,4"/>
<!-- ndb.agetypes -->
<g id="node1" class="node">
<title>ndb.agetypes</title>
<polygon fill="#efefef" stroke="none" points="43.2,-555.4 43.2,-591 363,-591 363,-555.4 43.2,-555.4"/>
<polygon fill="none" stroke="black" points="43.2,-555.4 43.2,-591 363,-591 363,-555.4 43.2,-555.4"/>
<text text-anchor="start" x="93.62" y="-568.8" font-family="Arial Bold" font-size="18.00">ndb.agetypes</text>
<text text-anchor="start" x="188.09" y="-568.8" font-family="Arial" font-size="14.00">    </text>
<text text-anchor="start" x="219.21" y="-568.8" font-family="Arial" font-size="14.00" fill="#666666">[BASE TABLE]</text>
<polygon fill="none" stroke="black" points="43.2,-524.6 43.2,-555.4 363,-555.4 363,-524.6 43.2,-524.6"/>
<text text-anchor="start" x="50.2" y="-536.8" font-family="Arial" font-size="14.00">agetypeid </text>
<text text-anchor="start" x="114.81" y="-536.8" font-family="Arial" font-size="14.00" fill="#666666">[integer]</text>
<polygon fill="none" stroke="black" points="43.2,-493.8 43.2,-524.6 363,-524.6 363,-493.8 43.2,-493.8"/>
<text text-anchor="start" x="50.2" y="-506" font-family="Arial" font-size="14.00">agetype </text>
<text text-anchor="start" x="103.91" y="-506" font-family="Arial" font-size="14.00" fill="#666666">[varchar(64)]</text>
<polygon fill="none" stroke="black" points="43.2,-463 43.2,-493.8 363,-493.8 363,-463 43.2,-463"/>
<text text-anchor="start" x="50.2" y="-475.2" font-family="Arial" font-size="14.00">precedence </text>
<text text-anchor="start" x="127.25" y="-475.2" font-family="Arial" font-size="14.00" fill="#666666">[integer]</text>
<polygon fill="none" stroke="black" points="43.2,-432.2 43.2,-463 363,-463 363,-432.2 43.2,-432.2"/>
<text text-anchor="start" x="50.2" y="-444.4" font-family="Arial" font-size="14.00">shortagetype </text>
<text text-anchor="start" x="135.03" y="-444.4" font-family="Arial" font-size="14.00" fill="#666666">[varchar(32)]</text>
<polygon fill="none" stroke="black" points="43.2,-401.4 43.2,-432.2 363,-432.2 363,-401.4 43.2,-401.4"/>
<text text-anchor="start" x="50.2" y="-413.6" font-family="Arial" font-size="14.00">recdatecreated </text>
<text text-anchor="start" x="147.48" y="-413.6" font-family="Arial" font-size="14.00" fill="#666666">[timestamp(0) without time zone]</text>
<polygon fill="none" stroke="black" points="43.2,-370.6 43.2,-401.4 363,-401.4 363,-370.6 43.2,-370.6"/>
<text text-anchor="start" x="50.2" y="-382.8" font-family="Arial" font-size="14.00">recdatemodified </text>
<text text-anchor="start" x="153.7" y="-382.8" font-family="Arial" font-size="14.00" fill="#666666">[timestamp(0) without time zone]</text>
</g>
<!-- ndb.lakeparametertypes -->
<g id="node2" class="node">
<title>ndb.lakeparametertypes</title>
<polygon fill="#efefef" stroke="none" points="467.2,-555.4 467.2,-591 787,-591 787,-555.4 467.2,-555.4"/>
<polygon fill="none" stroke="black" points="467.2,-555.4 467.2,-591 787,-591 787,-555.4 467.2,-555.4"/>
<text text-anchor="start" x="479.14" y="-568.8" font-family="Arial Bold" font-size="18.00">ndb.lakeparametertypes</text>
<text text-anchor="start" x="650.57" y="-568.8" font-family="Arial" font-size="14.00">    </text>
<text text-anchor="start" x="681.68" y="-568.8" font-family="Arial" font-size="14.00" fill="#666666">[BASE TABLE]</text>
<polygon fill="none" stroke="black" points="467.2,-524.6 467.2,-555.4 787,-555.4 787,-524.6 467.2,-524.6"/>
<text text-anchor="start" x="474.2" y="-536.8" font-family="Arial" font-size="14.00">lakeparameterid </text>
<text text-anchor="start" x="578.48" y="-536.8" font-family="Arial" font-size="14.00" fill="#666666">[integer]</text>
<polygon fill="none" stroke="black" points="467.2,-493.8 467.2,-524.6 787,-524.6 787,-493.8 467.2,-493.8"/>
<text text-anchor="start" x="474.2" y="-506" font-family="Arial" font-size="14.00">lakeparametercode </text>
<text text-anchor="start" x="597.94" y="-506" font-family="Arial" font-size="14.00" fill="#666666">[varchar(20)]</text>
<polygon fill="none" stroke="black" points="467.2,-463 467.2,-493.8 787,-493.8 787,-463 467.2,-463"/>
<text text-anchor="start" x="474.2" y="-475.2" font-family="Arial" font-size="14.00">lakeparametershortname </text>
<text text-anchor="start" x="633.72" y="-475.2" font-family="Arial" font-size="14.00" fill="#666666">[varchar(40)]</text>
<polygon fill="none" stroke="black" points="467.2,-432.2 467.2,-463 787,-463 787,-432.2 467.2,-432.2"/>
<text text-anchor="start" x="474.2" y="-444.4" font-family="Arial" font-size="14.00">lakeparameter </text>
<text text-anchor="start" x="567.58" y="-444.4" font-family="Arial" font-size="14.00" fill="#666666">[varchar(80)]</text>
<polygon fill="none" stroke="black" points="467.2,-401.4 467.2,-432.2 787,-432.2 787,-401.4 467.2,-401.4"/>
<text text-anchor="start" x="474.2" y="-413.6" font-family="Arial" font-size="14.00">recdatecreated </text>
<text text-anchor="start" x="571.48" y="-413.6" font-family="Arial" font-size="14.00" fill="#666666">[timestamp(0) without time zone]</text>
<polygon fill="none" stroke="black" points="467.2,-370.6 467.2,-401.4 787,-401.4 787,-370.6 467.2,-370.6"/>
<text text-anchor="start" x="474.2" y="-382.8" font-family="Arial" font-size="14.00">recdatemodified </text>
<text text-anchor="start" x="577.7" y="-382.8" font-family="Arial" font-size="14.00" fill="#666666">[timestamp(0) without time zone]</text>
</g>
<!-- ndb.datasettaxagrouptypes -->
<g id="node3" class="node">
<title>ndb.datasettaxagrouptypes</title>
<polygon fill="#efefef" stroke="none" points="891.13,-524.6 891.13,-560.2 1221.07,-560.2 1221.07,-524.6 891.13,-524.6"/>
<polygon fill="none" stroke="black" points="891.13,-524.6 891.13,-560.2 1221.07,-560.2 1221.07,-524.6 891.13,-524.6"/>
<text text-anchor="start" x="898.13" y="-538" font-family="Arial Bold" font-size="18.00">ndb.datasettaxagrouptypes</text>
<text text-anchor="start" x="1089.58" y="-538" font-family="Arial" font-size="14.00">    </text>
<text text-anchor="start" x="1120.69" y="-538" font-family="Arial" font-size="14.00" fill="#666666">[BASE TABLE]</text>
<polygon fill="none" stroke="black" points="891.13,-493.8 891.13,-524.6 1221.07,-524.6 1221.07,-493.8 891.13,-493.8"/>
<text text-anchor="start" x="898.13" y="-506" font-family="Arial" font-size="14.00">datasettypeid </text>
<text text-anchor="start" x="985.3" y="-506" font-family="Arial" font-size="14.00" fill="#666666">[integer]</text>
<polygon fill="none" stroke="black" points="891.13,-463 891.13,-493.8 1221.07,-493.8 1221.07,-463 891.13,-463"/>
<text text-anchor="start" x="898.13" y="-475.2" font-family="Arial" font-size="14.00">taxagroupid </text>
<text text-anchor="start" x="975.19" y="-475.2" font-family="Arial" font-size="14.00" fill="#666666">[varchar(3)]</text>
<polygon fill="none" stroke="black" points="891.13,-432.2 891.13,-463 1221.07,-463 1221.07,-432.2 891.13,-432.2"/>
<text text-anchor="start" x="898.13" y="-444.4" font-family="Arial" font-size="14.00">recdatecreated </text>
<text text-anchor="start" x="995.42" y="-444.4" font-family="Arial" font-size="14.00" fill="#666666">[timestamp(0) without time zone]</text>
<polygon fill="none" stroke="black" points="891.13,-401.4 891.13,-432.2 1221.07,-432.2 1221.07,-401.4 891.13,-401.4"/>
<text text-anchor="start" x="898.13" y="-413.6" font-family="Arial" font-size="14.00">recdatemodified </text>
<text text-anchor="start" x="1001.64" y="-413.6" font-family="Arial" font-size="14.00" fill="#666666">[timestamp(0) without time zone]</text>
</g>
<!-- ndb.analysisunitaltdepthscales -->
<g id="node4" class="node">
<title>ndb.analysisunitaltdepthscales</title>
<polygon fill="#efefef" stroke="none" points="1325.63,-570.8 1325.63,-606.4 1682.57,-606.4 1682.57,-570.8 1325.63,-570.8"/>
<polygon fill="none" stroke="black" points="1325.63,-570.8 1325.63,-606.4 1682.57,-606.4 1682.57,-570.8 1325.63,-570.8"/>
<text text-anchor="start" x="1332.63" y="-584.2" font-family="Arial Bold" font-size="18.00">ndb.analysisunitaltdepthscales</text>
<text text-anchor="start" x="1551.08" y="-584.2" font-family="Arial" font-size="14.00">    </text>
<text text-anchor="start" x="1582.2" y="-584.2" font-family="Arial" font-size="14.00" fill="#666666">[BASE TABLE]</text>
<polygon fill="none" stroke="black" points="1325.63,-540 1325.63,-570.8 1682.57,-570.8 1682.57,-540 1325.63,-540"/>
<text text-anchor="start" x="1332.63" y="-552.2" font-family="Arial" font-size="14.00">altdepthscaleid </text>
<text text-anchor="start" x="1429.92" y="-552.2" font-family="Arial" font-size="14.00" fill="#666666">[integer]</text>
<polygon fill="none" stroke="black" points="1325.63,-509.2 1325.63,-540 1682.57,-540 1682.57,-509.2 1325.63,-509.2"/>
<text text-anchor="start" x="1332.63" y="-521.4" font-family="Arial" font-size="14.00">altdepthid </text>
<text text-anchor="start" x="1397.24" y="-521.4" font-family="Arial" font-size="14.00" fill="#666666">[integer]</text>
<polygon fill="none" stroke="black" points="1325.63,-478.4 1325.63,-509.2 1682.57,-509.2 1682.57,-478.4 1325.63,-478.4"/>
<text text-anchor="start" x="1332.63" y="-490.6" font-family="Arial" font-size="14.00">altdepthname </text>
<text text-anchor="start" x="1421.36" y="-490.6" font-family="Arial" font-size="14.00" fill="#666666">[varchar(80)]</text>
<polygon fill="none" stroke="black" points="1325.63,-447.6 1325.63,-478.4 1682.57,-478.4 1682.57,-447.6 1325.63,-447.6"/>
<text text-anchor="start" x="1332.63" y="-459.8" font-family="Arial" font-size="14.00">variableunitsid </text>
<text text-anchor="start" x="1426.01" y="-459.8" font-family="Arial" font-size="14.00" fill="#666666">[integer]</text>
<polygon fill="none" stroke="black" points="1325.63,-416.8 1325.63,-447.6 1682.57,-447.6 1682.57,-416.8 1325.63,-416.8"/>
<text text-anchor="start" x="1332.63" y="-429" font-family="Arial" font-size="14.00">notes </text>
<text text-anchor="start" x="1370.77" y="-429" font-family="Arial" font-size="14.00" fill="#666666">[text]</text>
<polygon fill="none" stroke="black" points="1325.63,-386 1325.63,-416.8 1682.57,-416.8 1682.57,-386 1325.63,-386"/>
<text text-anchor="start" x="1332.63" y="-398.2" font-family="Arial" font-size="14.00">recdatecreated </text>
<text text-anchor="start" x="1429.91" y="-398.2" font-family="Arial" font-size="14.00" fill="#666666">[timestamp(0) without time zone]</text>
<polygon fill="none" stroke="black" points="1325.63,-355.2 1325.63,-386 1682.57,-386 1682.57,-355.2 1325.63,-355.2"/>
<text text-anchor="start" x="1332.63" y="-367.4" font-family="Arial" font-size="14.00">recdatemodified </text>
<text text-anchor="start" x="1436.13" y="-367.4" font-family="Arial" font-size="14.00" fill="#666666">[timestamp(0) without time zone]</text>
</g>
<!-- ndb.calibrationcurves -->
<g id="node5" class="node">
<title>ndb.calibrationcurves</title>
<polygon fill="#efefef" stroke="none" points="1787.2,-540 1787.2,-575.6 2107,-575.6 2107,-540 1787.2,-540"/>
<polygon fill="none" stroke="black" points="1787.2,-540 1787.2,-575.6 2107,-575.6 2107,-540 1787.2,-540"/>
<text text-anchor="start" x="1807.13" y="-553.4" font-family="Arial Bold" font-size="18.00">ndb.calibrationcurves</text>
<text text-anchor="start" x="1962.58" y="-553.4" font-family="Arial" font-size="14.00">    </text>
<text text-anchor="start" x="1993.69" y="-553.4" font-family="Arial" font-size="14.00" fill="#666666">[BASE TABLE]</text>
<polygon fill="none" stroke="black" points="1787.2,-509.2 1787.2,-540 2107,-540 2107,-509.2 1787.2,-509.2"/>
<text text-anchor="start" x="1794.2" y="-521.4" font-family="Arial" font-size="14.00">calibrationcurveid </text>
<text text-anchor="start" x="1907.03" y="-521.4" font-family="Arial" font-size="14.00" fill="#666666">[integer]</text>
<polygon fill="none" stroke="black" points="1787.2,-478.4 1787.2,-509.2 2107,-509.2 2107,-478.4 1787.2,-478.4"/>
<text text-anchor="start" x="1794.2" y="-490.6" font-family="Arial" font-size="14.00">calibrationcurve </text>
<text text-anchor="start" x="1896.14" y="-490.6" font-family="Arial" font-size="14.00" fill="#666666">[varchar(24)]</text>
<polygon fill="none" stroke="black" points="1787.2,-447.6 1787.2,-478.4 2107,-478.4 2107,-447.6 1787.2,-447.6"/>
<text text-anchor="start" x="1794.2" y="-459.8" font-family="Arial" font-size="14.00">publicationid </text>
<text text-anchor="start" x="1875.92" y="-459.8" font-family="Arial" font-size="14.00" fill="#666666">[integer]</text>
<polygon fill="none" stroke="black" points="1787.2,-416.8 1787.2,-447.6 2107,-447.6 2107,-416.8 1787.2,-416.8"/>
<text text-anchor="start" x="1794.2" y="-429" font-family="Arial" font-size="14.00">recdatecreated </text>
<text text-anchor="start" x="1891.48" y="-429" font-family="Arial" font-size="14.00" fill="#666666">[timestamp(0) without time zone]</text>
<polygon fill="none" stroke="black" points="1787.2,-386 1787.2,-416.8 2107,-416.8 2107,-386 1787.2,-386"/>
<text text-anchor="start" x="1794.2" y="-398.2" font-family="Arial" font-size="14.00">recdatemodified </text>
<text text-anchor="start" x="1897.7" y="-398.2" font-family="Arial" font-size="14.00" fill="#666666">[timestamp(0) without time zone]</text>
</g>
<!-- ndb.calibrationprograms -->
<g id="node6" class="node">
<title>ndb.calibrationprograms</title>
<polygon fill="#efefef" stroke="none" points="2211.2,-540 2211.2,-575.6 2531,-575.6 2531,-540 2211.2,-540"/>
<polygon fill="none" stroke="black" points="2211.2,-540 2211.2,-575.6 2531,-575.6 2531,-540 2211.2,-540"/>
<text text-anchor="start" x="2220.63" y="-553.4" font-family="Arial Bold" font-size="18.00">ndb.calibrationprograms</text>
<text text-anchor="start" x="2397.08" y="-553.4" font-family="Arial" font-size="14.00">    </text>
<text text-anchor="start" x="2428.2" y="-553.4" font-family="Arial" font-size="14.00" fill="#666666">[BASE TABLE]</text>
<polygon fill="none" stroke="black" points="2211.2,-509.2 2211.2,-540 2531,-540 2531,-509.2 2211.2,-509.2"/>
<text text-anchor="start" x="2218.2" y="-521.4" font-family="Arial" font-size="14.00">calibrationprogramid </text>
<text text-anchor="start" x="2348.93" y="-521.4" font-family="Arial" font-size="14.00" fill="#666666">[integer]</text>
<polygon fill="none" stroke="black" points="2211.2,-478.4 2211.2,-509.2 2531,-509.2 2531,-478.4 2211.2,-478.4"/>
<text text-anchor="start" x="2218.2" y="-490.6" font-family="Arial" font-size="14.00">calibrationprogram </text>
<text text-anchor="start" x="2338.03" y="-490.6" font-family="Arial" font-size="14.00" fill="#666666">[varchar(24)]</text>
<polygon fill="none" stroke="black" points="2211.2,-447.6 2211.2,-478.4 2531,-478.4 2531,-447.6 2211.2,-447.6"/>
<text text-anchor="start" x="2218.2" y="-459.8" font-family="Arial" font-size="14.00">version </text>
<text text-anchor="start" x="2267.22" y="-459.8" font-family="Arial" font-size="14.00" fill="#666666">[varchar(24)]</text>
<polygon fill="none" stroke="black" points="2211.2,-416.8 2211.2,-447.6 2531,-447.6 2531,-416.8 2211.2,-416.8"/>
<text text-anchor="start" x="2218.2" y="-429" font-family="Arial" font-size="14.00">recdatecreated </text>
<text text-anchor="start" x="2315.48" y="-429" font-family="Arial" font-size="14.00" fill="#666666">[timestamp(0) without time zone]</text>
<polygon fill="none" stroke="black" points="2211.2,-386 2211.2,-416.8 2531,-416.8 2531,-386 2211.2,-386"/>
<text text-anchor="start" x="2218.2" y="-398.2" font-family="Arial" font-size="14.00">recdatemodified </text>
<text text-anchor="start" x="2321.7" y="-398.2" font-family="Arial" font-size="14.00" fill="#666666">[timestamp(0) without time zone]</text>
</g>
<!-- ndb.chroncontroltypes -->
<g id="node7" class="node">
<title>ndb.chroncontroltypes</title>
<polygon fill="#efefef" stroke="none" points="2635.2,-197.2 2635.2,-232.8 2955,-232.8 2955,-197.2 2635.2,-197.2"/>
<polygon fill="none" stroke="black" points="2635.2,-197.2 2635.2,-232.8 2955,-232.8 2955,-197.2 2635.2,-197.2"/>
<text text-anchor="start" x="2652.12" y="-210.6" font-family="Arial Bold" font-size="18.00">ndb.chroncontroltypes</text>
<text text-anchor="start" x="2813.59" y="-210.6" font-family="Arial" font-size="14.00">    </text>
<text text-anchor="start" x="2844.7" y="-210.6" font-family="Arial" font-size="14.00" fill="#666666">[BASE TABLE]</text>
<polygon fill="none" stroke="black" points="2635.2,-166.4 2635.2,-197.2 2955,-197.2 2955,-166.4 2635.2,-166.4"/>
<text text-anchor="start" x="2642.2" y="-178.6" font-family="Arial" font-size="14.00">chroncontroltypeid </text>
<text text-anchor="start" x="2760.49" y="-178.6" font-family="Arial" font-size="14.00" fill="#666666">[integer]</text>
<polygon fill="none" stroke="black" points="2635.2,-135.6 2635.2,-166.4 2955,-166.4 2955,-135.6 2635.2,-135.6"/>
<text text-anchor="start" x="2642.2" y="-147.8" font-family="Arial" font-size="14.00">chroncontroltype </text>
<text text-anchor="start" x="2749.59" y="-147.8" font-family="Arial" font-size="14.00" fill="#666666">[varchar(64)]</text>
<polygon fill="none" stroke="black" points="2635.2,-104.8 2635.2,-135.6 2955,-135.6 2955,-104.8 2635.2,-104.8"/>
<text text-anchor="start" x="2642.2" y="-117" font-family="Arial" font-size="14.00">higherchroncontroltypeid </text>
<text text-anchor="start" x="2799.41" y="-117" font-family="Arial" font-size="14.00" fill="#666666">[integer]</text>
<polygon fill="none" stroke="black" points="2635.2,-74 2635.2,-104.8 2955,-104.8 2955,-74 2635.2,-74"/>
<text text-anchor="start" x="2642.2" y="-86.2" font-family="Arial" font-size="14.00">recdatecreated </text>
<text text-anchor="start" x="2739.48" y="-86.2" font-family="Arial" font-size="14.00" fill="#666666">[timestamp(0) without time zone]</text>
<polygon fill="none" stroke="black" points="2635.2,-43.2 2635.2,-74 2955,-74 2955,-43.2 2635.2,-43.2"/>
<text text-anchor="start" x="2642.2" y="-55.4" font-family="Arial" font-size="14.00">recdatemodified </text>
<text text-anchor="start" x="2745.7" y="-55.4" font-family="Arial" font-size="14.00" fill="#666666">[timestamp(0) without time zone]</text>
</g>
<!-- ndb.chroncontroltypes&#45;&gt;ndb.chroncontroltypes -->
<g id="edge1" class="edge">
<title>ndb.chroncontroltypes:higherchroncontroltypeid&#45;&gt;ndb.chroncontroltypes:chroncontroltypeid</title>
<path fill="none" stroke="black" d="M2796.99,-145.56C2804.05,-255.99 2803.42,-447.4 2795.1,-447.4 2786.53,-447.4 2786.12,-300.11 2793.87,-196.99"/>
<polygon fill="black" stroke="black" points="2797,-145.78 2800.82,-135.49 2796.64,-140.45 2796.35,-136.13 2796.35,-136.13 2796.35,-136.13 2796.64,-140.45 2791.84,-136.1 2797,-145.78"/>
<text text-anchor="start" x="2803.31" y="-145.46" font-family="Arial" font-size="10.00">FOREIGN KEY (higherchroncontroltypeid) REFERENCES ndb.chroncontroltypes(chroncontroltypeid)</text>
</g>
<!-- ndb.depenvttypes -->
<g id="node8" class="node">
<title>ndb.depenvttypes</title>
<polygon fill="#efefef" stroke="none" points="3059.2,-540 3059.2,-575.6 3379,-575.6 3379,-540 3059.2,-540"/>
<polygon fill="none" stroke="black" points="3059.2,-540 3059.2,-575.6 3379,-575.6 3379,-540 3059.2,-540"/>
<text text-anchor="start" x="3093.62" y="-553.4" font-family="Arial Bold" font-size="18.00">ndb.depenvttypes</text>
<text text-anchor="start" x="3220.09" y="-553.4" font-family="Arial" font-size="14.00">    </text>
<text text-anchor="start" x="3251.21" y="-553.4" font-family="Arial" font-size="14.00" fill="#666666">[BASE TABLE]</text>
<polygon fill="none" stroke="black" points="3059.2,-509.2 3059.2,-540 3379,-540 3379,-509.2 3059.2,-509.2"/>
<text text-anchor="start" x="3066.2" y="-521.4" font-family="Arial" font-size="14.00">depenvtid </text>
<text text-anchor="start" x="3130.81" y="-521.4" font-family="Arial" font-size="14.00" fill="#666666">[integer]</text>
<polygon fill="none" stroke="black" points="3059.2,-478.4 3059.2,-509.2 3379,-509.2 3379,-478.4 3059.2,-478.4"/>
<text text-anchor="start" x="3066.2" y="-490.6" font-family="Arial" font-size="14.00">depenvt </text>
<text text-anchor="start" x="3119.91" y="-490.6" font-family="Arial" font-size="14.00" fill="#666666">[varchar(255)]</text>
<polygon fill="none" stroke="black" points="3059.2,-447.6 3059.2,-478.4 3379,-478.4 3379,-447.6 3059.2,-447.6"/>
<text text-anchor="start" x="3066.2" y="-459.8" font-family="Arial" font-size="14.00">depenvthigherid </text>
<text text-anchor="start" x="3169.72" y="-459.8" font-family="Arial" font-size="14.00" fill="#666666">[integer]</text>
<polygon fill="none" stroke="black" points="3059.2,-416.8 3059.2,-447.6 3379,-447.6 3379,-416.8 3059.2,-416.8"/>
<text text-anchor="start" x="3066.2" y="-429" font-family="Arial" font-size="14.00">recdatecreated </text>
<text text-anchor="start" x="3163.48" y="-429" font-family="Arial" font-size="14.00" fill="#666666">[timestamp(0) without time zone]</text>
<polygon fill="none" stroke="black" points="3059.2,-386 3059.2,-416.8 3379,-416.8 3379,-386 3059.2,-386"/>
<text text-anchor="start" x="3066.2" y="-398.2" font-family="Arial" font-size="14.00">recdatemodified </text>
<text text-anchor="start" x="3169.7" y="-398.2" font-family="Arial" font-size="14.00" fill="#666666">[timestamp(0) without time zone]</text>
</g>
<!-- ndb.depenvttypes&#45;&gt;ndb.depenvttypes -->
<g id="edge2" class="edge">
<title>ndb.depenvttypes:depenvthigherid&#45;&gt;ndb.depenvttypes:depenvtid</title>
<path fill="none" stroke="black" d="M3220.99,-488.36C3228.05,-598.79 3227.42,-790.2 3219.1,-790.2 3210.53,-790.2 3210.12,-642.91 3217.87,-539.79"/>
<polygon fill="black" stroke="black" points="3221,-488.58 3224.82,-478.29 3220.64,-483.25 3220.35,-478.93 3220.35,-478.93 3220.35,-478.93 3220.64,-483.25 3215.84,-478.9 3221,-488.58"/>
<text text-anchor="start" x="3044.39" y="-462.26" font-family="Arial" font-size="10.00">FOREIGN KEY (depenvthigherid) REFERENCES ndb.depenvttypes(depenvtid)</text>
</g>
<!-- ndb.elementmaturities -->
<g id="node9" class="node">
<title>ndb.elementmaturities</title>
<polygon fill="#efefef" stroke="none" points="3483.2,-524.6 3483.2,-560.2 3803,-560.2 3803,-524.6 3483.2,-524.6"/>
<polygon fill="none" stroke="black" points="3483.2,-524.6 3483.2,-560.2 3803,-560.2 3803,-524.6 3483.2,-524.6"/>
<text text-anchor="start" x="3500.63" y="-538" font-family="Arial Bold" font-size="18.00">ndb.elementmaturities</text>
<text text-anchor="start" x="3661.08" y="-538" font-family="Arial" font-size="14.00">    </text>
<text text-anchor="start" x="3692.2" y="-538" font-family="Arial" font-size="14.00" fill="#666666">[BASE TABLE]</text>
<polygon fill="none" stroke="black" points="3483.2,-493.8 3483.2,-524.6 3803,-524.6 3803,-493.8 3483.2,-493.8"/>
<text text-anchor="start" x="3490.2" y="-506" font-family="Arial" font-size="14.00">maturityid </text>
<text text-anchor="start" x="3554.77" y="-506" font-family="Arial" font-size="14.00" fill="#666666">[integer]</text>
<polygon fill="none" stroke="black" points="3483.2,-463 3483.2,-493.8 3803,-493.8 3803,-463 3483.2,-463"/>
<text text-anchor="start" x="3490.2" y="-475.2" font-family="Arial" font-size="14.00">maturity </text>
<text text-anchor="start" x="3543.88" y="-475.2" font-family="Arial" font-size="14.00" fill="#666666">[varchar(36)]</text>
<polygon fill="none" stroke="black" points="3483.2,-432.2 3483.2,-463 3803,-463 3803,-432.2 3483.2,-432.2"/>
<text text-anchor="start" x="3490.2" y="-444.4" font-family="Arial" font-size="14.00">recdatecreated </text>
<text text-anchor="start" x="3587.48" y="-444.4" font-family="Arial" font-size="14.00" fill="#666666">[timestamp(0) without time zone]</text>
<polygon fill="none" stroke="black" points="3483.2,-401.4 3483.2,-432.2 3803,-432.2 3803,-401.4 3483.2,-401.4"/>
<text text-anchor="start" x="3490.2" y="-413.6" font-family="Arial" font-size="14.00">recdatemodified </text>
<text text-anchor="start" x="3593.7" y="-413.6" font-family="Arial" font-size="14.00" fill="#666666">[timestamp(0) without time zone]</text>
</g>
<!-- ndb.elementsymmetries -->
<g id="node10" class="node">
<title>ndb.elementsymmetries</title>
<polygon fill="#efefef" stroke="none" points="3907.2,-524.6 3907.2,-560.2 4227,-560.2 4227,-524.6 3907.2,-524.6"/>
<polygon fill="none" stroke="black" points="3907.2,-524.6 3907.2,-560.2 4227,-560.2 4227,-524.6 3907.2,-524.6"/>
<text text-anchor="start" x="3919.13" y="-538" font-family="Arial Bold" font-size="18.00">ndb.elementsymmetries</text>
<text text-anchor="start" x="4090.58" y="-538" font-family="Arial" font-size="14.00">    </text>
<text text-anchor="start" x="4121.7" y="-538" font-family="Arial" font-size="14.00" fill="#666666">[BASE TABLE]</text>
<polygon fill="none" stroke="black" points="3907.2,-493.8 3907.2,-524.6 4227,-524.6 4227,-493.8 3907.2,-493.8"/>
<text text-anchor="start" x="3914.2" y="-506" font-family="Arial" font-size="14.00">symmetryid </text>
<text text-anchor="start" x="3989.65" y="-506" font-family="Arial" font-size="14.00" fill="#666666">[integer]</text>
<polygon fill="none" stroke="black" points="3907.2,-463 3907.2,-493.8 4227,-493.8 4227,-463 3907.2,-463"/>
<text text-anchor="start" x="3914.2" y="-475.2" font-family="Arial" font-size="14.00">symmetry </text>
<text text-anchor="start" x="3978.75" y="-475.2" font-family="Arial" font-size="14.00" fill="#666666">[varchar(24)]</text>
<polygon fill="none" stroke="black" points="3907.2,-432.2 3907.2,-463 4227,-463 4227,-432.2 3907.2,-432.2"/>
<text text-anchor="start" x="3914.2" y="-444.4" font-family="Arial" font-size="14.00">recdatecreated </text>
<text text-anchor="start" x="4011.48" y="-444.4" font-family="Arial" font-size="14.00" fill="#666666">[timestamp(0) without time zone]</text>
<polygon fill="none" stroke="black" points="3907.2,-401.4 3907.2,-432.2 4227,-432.2 4227,-401.4 3907.2,-401.4"/>
<text text-anchor="start" x="3914.2" y="-413.6" font-family="Arial" font-size="14.00">recdatemodified </text>
<text text-anchor="start" x="4017.7" y="-413.6" font-family="Arial" font-size="14.00" fill="#666666">[timestamp(0) without time zone]</text>
</g>
<!-- ndb.elementtaxagroups -->
<g id="node11" class="node">
<title>ndb.elementtaxagroups</title>
<polygon fill="#efefef" stroke="none" points="4331.2,-540 4331.2,-575.6 4651,-575.6 4651,-540 4331.2,-540"/>
<polygon fill="none" stroke="black" points="4331.2,-540 4331.2,-575.6 4651,-575.6 4651,-540 4331.2,-540"/>
<text text-anchor="start" x="4345.13" y="-553.4" font-family="Arial Bold" font-size="18.00">ndb.elementtaxagroups</text>
<text text-anchor="start" x="4512.58" y="-553.4" font-family="Arial" font-size="14.00">    </text>
<text text-anchor="start" x="4543.7" y="-553.4" font-family="Arial" font-size="14.00" fill="#666666">[BASE TABLE]</text>
<polygon fill="none" stroke="black" points="4331.2,-509.2 4331.2,-540 4651,-540 4651,-509.2 4331.2,-509.2"/>
<text text-anchor="start" x="4338.2" y="-521.4" font-family="Arial" font-size="14.00">elementtaxagroupid </text>
<text text-anchor="start" x="4465.06" y="-521.4" font-family="Arial" font-size="14.00" fill="#666666">[integer]</text>
<polygon fill="none" stroke="black" points="4331.2,-478.4 4331.2,-509.2 4651,-509.2 4651,-478.4 4331.2,-478.4"/>
<text text-anchor="start" x="4338.2" y="-490.6" font-family="Arial" font-size="14.00">taxagroupid </text>
<text text-anchor="start" x="4415.25" y="-490.6" font-family="Arial" font-size="14.00" fill="#666666">[varchar(3)]</text>
<polygon fill="none" stroke="black" points="4331.2,-447.6 4331.2,-478.4 4651,-478.4 4651,-447.6 4331.2,-447.6"/>
<text text-anchor="start" x="4338.2" y="-459.8" font-family="Arial" font-size="14.00">elementtypeid </text>
<text text-anchor="start" x="4429.25" y="-459.8" font-family="Arial" font-size="14.00" fill="#666666">[integer]</text>
<polygon fill="none" stroke="black" points="4331.2,-416.8 4331.2,-447.6 4651,-447.6 4651,-416.8 4331.2,-416.8"/>
<text text-anchor="start" x="4338.2" y="-429" font-family="Arial" font-size="14.00">recdatecreated </text>
<text text-anchor="start" x="4435.48" y="-429" font-family="Arial" font-size="14.00" fill="#666666">[timestamp(0) without time zone]</text>
<polygon fill="none" stroke="black" points="4331.2,-386 4331.2,-416.8 4651,-416.8 4651,-386 4331.2,-386"/>
<text text-anchor="start" x="4338.2" y="-398.2" font-family="Arial" font-size="14.00">recdatemodified </text>
<text text-anchor="start" x="4441.7" y="-398.2" font-family="Arial" font-size="14.00" fill="#666666">[timestamp(0) without time zone]</text>
</g>
<!-- ndb.elementtypes -->
<g id="node12" class="node">
<title>ndb.elementtypes</title>
<polygon fill="#efefef" stroke="none" points="4331.2,-181.8 4331.2,-217.4 4651,-217.4 4651,-181.8 4331.2,-181.8"/>
<polygon fill="none" stroke="black" points="4331.2,-181.8 4331.2,-217.4 4651,-217.4 4651,-181.8 4331.2,-181.8"/>
<text text-anchor="start" x="4365.62" y="-195.2" font-family="Arial Bold" font-size="18.00">ndb.elementtypes</text>
<text text-anchor="start" x="4492.09" y="-195.2" font-family="Arial" font-size="14.00">    </text>
<text text-anchor="start" x="4523.2" y="-195.2" font-family="Arial" font-size="14.00" fill="#666666">[BASE TABLE]</text>
<polygon fill="none" stroke="black" points="4331.2,-151 4331.2,-181.8 4651,-181.8 4651,-151 4331.2,-151"/>
<text text-anchor="start" x="4338.2" y="-163.2" font-family="Arial" font-size="14.00">elementtypeid </text>
<text text-anchor="start" x="4429.25" y="-163.2" font-family="Arial" font-size="14.00" fill="#666666">[integer]</text>
<polygon fill="none" stroke="black" points="4331.2,-120.2 4331.2,-151 4651,-151 4651,-120.2 4331.2,-120.2"/>
<text text-anchor="start" x="4338.2" y="-132.4" font-family="Arial" font-size="14.00">elementtype </text>
<text text-anchor="start" x="4418.36" y="-132.4" font-family="Arial" font-size="14.00" fill="#666666">[varchar(64)]</text>
<polygon fill="none" stroke="black" points="4331.2,-89.4 4331.2,-120.2 4651,-120.2 4651,-89.4 4331.2,-89.4"/>
<text text-anchor="start" x="4338.2" y="-101.6" font-family="Arial" font-size="14.00">recdatecreated </text>
<text text-anchor="start" x="4435.48" y="-101.6" font-family="Arial" font-size="14.00" fill="#666666">[timestamp(0) without time zone]</text>
<polygon fill="none" stroke="black" points="4331.2,-58.6 4331.2,-89.4 4651,-89.4 4651,-58.6 4331.2,-58.6"/>
<text text-anchor="start" x="4338.2" y="-70.8" font-family="Arial" font-size="14.00">recdatemodified </text>
<text text-anchor="start" x="4441.7" y="-70.8" font-family="Arial" font-size="14.00" fill="#666666">[timestamp(0) without time zone]</text>
</g>
<!-- ndb.elementtaxagroups&#45;&gt;ndb.elementtypes -->
<g id="edge3" class="edge">
<title>ndb.elementtaxagroups:elementtypeid&#45;&gt;ndb.elementtypes:elementtypeid</title>
<path fill="none" stroke="black" d="M4661.88,-460.61C4717.73,-432.54 4714.43,-166.4 4652,-166.4"/>
<polygon fill="black" stroke="black" points="4662.04,-460.57 4651.27,-458.55 4656.86,-461.83 4652.65,-462.84 4652.65,-462.84 4652.65,-462.84 4656.86,-461.83 4653.38,-467.3 4662.04,-460.57"/>
<text text-anchor="start" x="4659" y="-473" font-family="Arial" font-size="10.00">FOREIGN KEY (elementtypeid) REFERENCES ndb.elementtypes(elementtypeid) ON UPDATE CASCADE ON DELETE CASCADE</text>
</g>
<!-- ndb.eventtypes -->
<g id="node13" class="node">
<title>ndb.eventtypes</title>
<polygon fill="#efefef" stroke="none" points="2635.2,-540 2635.2,-575.6 2955,-575.6 2955,-540 2635.2,-540"/>
<polygon fill="none" stroke="black" points="2635.2,-540 2635.2,-575.6 2955,-575.6 2955,-540 2635.2,-540"/>
<text text-anchor="start" x="2678.62" y="-553.4" font-family="Arial Bold" font-size="18.00">ndb.eventtypes</text>
<text text-anchor="start" x="2787.09" y="-553.4" font-family="Arial" font-size="14.00">    </text>
<text text-anchor="start" x="2818.21" y="-553.4" font-family="Arial" font-size="14.00" fill="#666666">[BASE TABLE]</text>
<polygon fill="none" stroke="black" points="2635.2,-509.2 2635.2,-540 2955,-540 2955,-509.2 2635.2,-509.2"/>
<text text-anchor="start" x="2642.2" y="-521.4" font-family="Arial" font-size="14.00">eventtypeid </text>
<text text-anchor="start" x="2717.7" y="-521.4" font-family="Arial" font-size="14.00" fill="#666666">[integer]</text>
<polygon fill="none" stroke="black" points="2635.2,-478.4 2635.2,-509.2 2955,-509.2 2955,-478.4 2635.2,-478.4"/>
<text text-anchor="start" x="2642.2" y="-490.6" font-family="Arial" font-size="14.00">eventtype </text>
<text text-anchor="start" x="2706.8" y="-490.6" font-family="Arial" font-size="14.00" fill="#666666">[varchar(40)]</text>
<polygon fill="none" stroke="black" points="2635.2,-447.6 2635.2,-478.4 2955,-478.4 2955,-447.6 2635.2,-447.6"/>
<text text-anchor="start" x="2642.2" y="-459.8" font-family="Arial" font-size="14.00">recdatecreated </text>
<text text-anchor="start" x="2739.48" y="-459.8" font-family="Arial" font-size="14.00" fill="#666666">[timestamp(0) without time zone]</text>
<polygon fill="none" stroke="black" points="2635.2,-416.8 2635.2,-447.6 2955,-447.6 2955,-416.8 2635.2,-416.8"/>
<text text-anchor="start" x="2642.2" y="-429" font-family="Arial" font-size="14.00">recdatemodified </text>
<text text-anchor="start" x="2745.7" y="-429" font-family="Arial" font-size="14.00" fill="#666666">[timestamp(0) without time zone]</text>
<polygon fill="none" stroke="black" points="2635.2,-386 2635.2,-416.8 2955,-416.8 2955,-386 2635.2,-386"/>
<text text-anchor="start" x="2642.2" y="-398.2" font-family="Arial" font-size="14.00">chroncontroltypeid </text>
<text text-anchor="start" x="2760.49" y="-398.2" font-family="Arial" font-size="14.00" fill="#666666">[integer]</text>
</g>
<!-- ndb.eventtypes&#45;&gt;ndb.chroncontroltypes -->
<g id="edge4" class="edge">
<title>ndb.eventtypes:chroncontroltypeid&#45;&gt;ndb.chroncontroltypes:chroncontroltypeid</title>
<path fill="none" stroke="black" d="M2795.74,-374.66C2805.21,-303.3 2916.15,-348.57 2955,-276 2974.76,-239.09 2997.87,-181.8 2956,-181.8"/>
<polygon fill="black" stroke="black" points="2795.74,-374.69 2790.63,-384.39 2795.41,-380.01 2795.14,-384.33 2795.14,-384.33 2795.14,-384.33 2795.41,-380.01 2799.61,-384.95 2795.74,-374.69"/>
<text text-anchor="start" x="2585.02" y="-369" font-family="Arial" font-size="10.00">FOREIGN KEY (chroncontroltypeid) REFERENCES ndb.chroncontroltypes(chroncontroltypeid)</text>
</g>
<!-- ndb.externaldatabases -->
<g id="node14" class="node">
<title>ndb.externaldatabases</title>
<polygon fill="#efefef" stroke="none" points="4755.2,-555.4 4755.2,-591 5075,-591 5075,-555.4 4755.2,-555.4"/>
<polygon fill="none" stroke="black" points="4755.2,-555.4 4755.2,-591 5075,-591 5075,-555.4 4755.2,-555.4"/>
<text text-anchor="start" x="4773.64" y="-568.8" font-family="Arial Bold" font-size="18.00">ndb.externaldatabases</text>
<text text-anchor="start" x="4932.07" y="-568.8" font-family="Arial" font-size="14.00">    </text>
<text text-anchor="start" x="4963.19" y="-568.8" font-family="Arial" font-size="14.00" fill="#666666">[BASE TABLE]</text>
<polygon fill="none" stroke="black" points="4755.2,-524.6 4755.2,-555.4 5075,-555.4 5075,-524.6 4755.2,-524.6"/>
<text text-anchor="start" x="4762.2" y="-536.8" font-family="Arial" font-size="14.00">extdatabaseid </text>
<text text-anchor="start" x="4853.27" y="-536.8" font-family="Arial" font-size="14.00" fill="#666666">[integer]</text>
<polygon fill="none" stroke="black" points="4755.2,-493.8 4755.2,-524.6 5075,-524.6 5075,-493.8 4755.2,-493.8"/>
<text text-anchor="start" x="4762.2" y="-506" font-family="Arial" font-size="14.00">extdatabasename </text>
<text text-anchor="start" x="4877.39" y="-506" font-family="Arial" font-size="14.00" fill="#666666">[varchar(80)]</text>
<polygon fill="none" stroke="black" points="4755.2,-463 4755.2,-493.8 5075,-493.8 5075,-463 4755.2,-463"/>
<text text-anchor="start" x="4762.2" y="-475.2" font-family="Arial" font-size="14.00">url </text>
<text text-anchor="start" x="4781.65" y="-475.2" font-family="Arial" font-size="14.00" fill="#666666">[varchar(128)]</text>
<polygon fill="none" stroke="black" points="4755.2,-432.2 4755.2,-463 5075,-463 5075,-432.2 4755.2,-432.2"/>
<text text-anchor="start" x="4762.2" y="-444.4" font-family="Arial" font-size="14.00">recdatecreated </text>
<text text-anchor="start" x="4859.48" y="-444.4" font-family="Arial" font-size="14.00" fill="#666666">[timestamp(0) without time zone]</text>
<polygon fill="none" stroke="black" points="4755.2,-401.4 4755.2,-432.2 5075,-432.2 5075,-401.4 4755.2,-401.4"/>
<text text-anchor="start" x="4762.2" y="-413.6" font-family="Arial" font-size="14.00">recdatemodified </text>
<text text-anchor="start" x="4865.7" y="-413.6" font-family="Arial" font-size="14.00" fill="#666666">[timestamp(0) without time zone]</text>
<polygon fill="none" stroke="black" points="4755.2,-370.6 4755.2,-401.4 5075,-401.4 5075,-370.6 4755.2,-370.6"/>
<text text-anchor="start" x="4762.2" y="-382.8" font-family="Arial" font-size="14.00">urlmask </text>
<text text-anchor="start" x="4815.1" y="-382.8" font-family="Arial" font-size="14.00" fill="#666666">[varchar(128)]</text>
</g>
<!-- ndb.isobiomarkerbandtypes -->
<g id="node15" class="node">
<title>ndb.isobiomarkerbandtypes</title>
<polygon fill="#efefef" stroke="none" points="5179.13,-540 5179.13,-575.6 5517.07,-575.6 5517.07,-540 5179.13,-540"/>
<polygon fill="none" stroke="black" points="5179.13,-540 5179.13,-575.6 5517.07,-575.6 5517.07,-540 5179.13,-540"/>
<text text-anchor="start" x="5186.13" y="-553.4" font-family="Arial Bold" font-size="18.00">ndb.isobiomarkerbandtypes</text>
<text text-anchor="start" x="5385.58" y="-553.4" font-family="Arial" font-size="14.00">    </text>
<text text-anchor="start" x="5416.7" y="-553.4" font-family="Arial" font-size="14.00" fill="#666666">[BASE TABLE]</text>
<polygon fill="none" stroke="black" points="5179.13,-509.2 5179.13,-540 5517.07,-540 5517.07,-509.2 5179.13,-509.2"/>
<text text-anchor="start" x="5186.13" y="-521.4" font-family="Arial" font-size="14.00">isobiomarkerbandtypeid </text>
<text text-anchor="start" x="5338.66" y="-521.4" font-family="Arial" font-size="14.00" fill="#666666">[integer]</text>
<polygon fill="none" stroke="black" points="5179.13,-478.4 5179.13,-509.2 5517.07,-509.2 5517.07,-478.4 5179.13,-478.4"/>
<text text-anchor="start" x="5186.13" y="-490.6" font-family="Arial" font-size="14.00">isobiomarkertypeid </text>
<text text-anchor="start" x="5307.51" y="-490.6" font-family="Arial" font-size="14.00" fill="#666666">[integer]</text>
<polygon fill="none" stroke="black" points="5179.13,-447.6 5179.13,-478.4 5517.07,-478.4 5517.07,-447.6 5179.13,-447.6"/>
<text text-anchor="start" x="5186.13" y="-459.8" font-family="Arial" font-size="14.00">isobiomarkerbandtype </text>
<text text-anchor="start" x="5327.76" y="-459.8" font-family="Arial" font-size="14.00" fill="#666666">[varchar(50)]</text>
<polygon fill="none" stroke="black" points="5179.13,-416.8 5179.13,-447.6 5517.07,-447.6 5517.07,-416.8 5179.13,-416.8"/>
<text text-anchor="start" x="5186.13" y="-429" font-family="Arial" font-size="14.00">recdatecreated </text>
<text text-anchor="start" x="5283.41" y="-429" font-family="Arial" font-size="14.00" fill="#666666">[timestamp(0) without time zone]</text>
<polygon fill="none" stroke="black" points="5179.13,-386 5179.13,-416.8 5517.07,-416.8 5517.07,-386 5179.13,-386"/>
<text text-anchor="start" x="5186.13" y="-398.2" font-family="Arial" font-size="14.00">recdatemodified </text>
<text text-anchor="start" x="5289.63" y="-398.2" font-family="Arial" font-size="14.00" fill="#666666">[timestamp(0) without time zone]</text>
</g>
<!-- ndb.isobiomarkertypes -->
<g id="node16" class="node">
<title>ndb.isobiomarkertypes</title>
<polygon fill="#efefef" stroke="none" points="5188.2,-181.8 5188.2,-217.4 5508,-217.4 5508,-181.8 5188.2,-181.8"/>
<polygon fill="none" stroke="black" points="5188.2,-181.8 5188.2,-217.4 5508,-217.4 5508,-181.8 5188.2,-181.8"/>
<text text-anchor="start" x="5203.62" y="-195.2" font-family="Arial Bold" font-size="18.00">ndb.isobiomarkertypes</text>
<text text-anchor="start" x="5368.09" y="-195.2" font-family="Arial" font-size="14.00">    </text>
<text text-anchor="start" x="5399.21" y="-195.2" font-family="Arial" font-size="14.00" fill="#666666">[BASE TABLE]</text>
<polygon fill="none" stroke="black" points="5188.2,-151 5188.2,-181.8 5508,-181.8 5508,-151 5188.2,-151"/>
<text text-anchor="start" x="5195.2" y="-163.2" font-family="Arial" font-size="14.00">isobiomarkertypeid </text>
<text text-anchor="start" x="5316.59" y="-163.2" font-family="Arial" font-size="14.00" fill="#666666">[integer]</text>
<polygon fill="none" stroke="black" points="5188.2,-120.2 5188.2,-151 5508,-151 5508,-120.2 5188.2,-120.2"/>
<text text-anchor="start" x="5195.2" y="-132.4" font-family="Arial" font-size="14.00">isobiomarkertype </text>
<text text-anchor="start" x="5305.69" y="-132.4" font-family="Arial" font-size="14.00" fill="#666666">[varchar(50)]</text>
<polygon fill="none" stroke="black" points="5188.2,-89.4 5188.2,-120.2 5508,-120.2 5508,-89.4 5188.2,-89.4"/>
<text text-anchor="start" x="5195.2" y="-101.6" font-family="Arial" font-size="14.00">recdatecreated </text>
<text text-anchor="start" x="5292.48" y="-101.6" font-family="Arial" font-size="14.00" fill="#666666">[timestamp(0) without time zone]</text>
<polygon fill="none" stroke="black" points="5188.2,-58.6 5188.2,-89.4 5508,-89.4 5508,-58.6 5188.2,-58.6"/>
<text text-anchor="start" x="5195.2" y="-70.8" font-family="Arial" font-size="14.00">recdatemodified </text>
<text text-anchor="start" x="5298.7" y="-70.8" font-family="Arial" font-size="14.00" fill="#666666">[timestamp(0) without time zone]</text>
</g>
<!-- ndb.isobiomarkerbandtypes&#45;&gt;ndb.isobiomarkertypes -->
<g id="edge5" class="edge">
<title>ndb.isobiomarkerbandtypes:isobiomarkertypeid&#45;&gt;ndb.isobiomarkertypes:isobiomarkertypeid</title>
<path fill="none" stroke="black" d="M5528.15,-491.53C5589.82,-462.61 5578.23,-166.4 5509,-166.4"/>
<polygon fill="black" stroke="black" points="5528.16,-491.53 5517.41,-489.34 5522.95,-492.7 5518.73,-493.65 5518.73,-493.65 5518.73,-493.65 5522.95,-492.7 5519.39,-498.12 5528.16,-491.53"/>
<text text-anchor="start" x="4861.45" y="-503.8" font-family="Arial" font-size="10.00">FOREIGN KEY (isobiomarkertypeid) REFERENCES ndb.isobiomarkertypes(isobiomarkertypeid) ON UPDATE CASCADE ON DELETE CASCADE</text>
</g>
<!-- ndb.isoinstrumentationtypes -->
<g id="node17" class="node">
<title>ndb.isoinstrumentationtypes</title>
<polygon fill="#efefef" stroke="none" points="5621.11,-524.6 5621.11,-560.2 5963.09,-560.2 5963.09,-524.6 5621.11,-524.6"/>
<polygon fill="none" stroke="black" points="5621.11,-524.6 5621.11,-560.2 5963.09,-560.2 5963.09,-524.6 5621.11,-524.6"/>
<text text-anchor="start" x="5628.11" y="-538" font-family="Arial Bold" font-size="18.00">ndb.isoinstrumentationtypes</text>
<text text-anchor="start" x="5831.6" y="-538" font-family="Arial" font-size="14.00">    </text>
<text text-anchor="start" x="5862.71" y="-538" font-family="Arial" font-size="14.00" fill="#666666">[BASE TABLE]</text>
<polygon fill="none" stroke="black" points="5621.11,-493.8 5621.11,-524.6 5963.09,-524.6 5963.09,-493.8 5621.11,-493.8"/>
<text text-anchor="start" x="5628.11" y="-506" font-family="Arial" font-size="14.00">isoinstrumentationtypeid </text>
<text text-anchor="start" x="5782.97" y="-506" font-family="Arial" font-size="14.00" fill="#666666">[integer]</text>
<polygon fill="none" stroke="black" points="5621.11,-463 5621.11,-493.8 5963.09,-493.8 5963.09,-463 5621.11,-463"/>
<text text-anchor="start" x="5628.11" y="-475.2" font-family="Arial" font-size="14.00">isoinstrumentationtype </text>
<text text-anchor="start" x="5772.08" y="-475.2" font-family="Arial" font-size="14.00" fill="#666666">[varchar(256)]</text>
<polygon fill="none" stroke="black" points="5621.11,-432.2 5621.11,-463 5963.09,-463 5963.09,-432.2 5621.11,-432.2"/>
<text text-anchor="start" x="5628.11" y="-444.4" font-family="Arial" font-size="14.00">recdatecreated </text>
<text text-anchor="start" x="5725.39" y="-444.4" font-family="Arial" font-size="14.00" fill="#666666">[timestamp(0) without time zone]</text>
<polygon fill="none" stroke="black" points="5621.11,-401.4 5621.11,-432.2 5963.09,-432.2 5963.09,-401.4 5621.11,-401.4"/>
<text text-anchor="start" x="5628.11" y="-413.6" font-family="Arial" font-size="14.00">recdatemodified </text>
<text text-anchor="start" x="5731.62" y="-413.6" font-family="Arial" font-size="14.00" fill="#666666">[timestamp(0) without time zone]</text>
</g>
<!-- ndb.isomaterialanalyzedtypes -->
<g id="node18" class="node">
<title>ndb.isomaterialanalyzedtypes</title>
<polygon fill="#efefef" stroke="none" points="6067.14,-524.6 6067.14,-560.2 6419.06,-560.2 6419.06,-524.6 6067.14,-524.6"/>
<polygon fill="none" stroke="black" points="6067.14,-524.6 6067.14,-560.2 6419.06,-560.2 6419.06,-524.6 6067.14,-524.6"/>
<text text-anchor="start" x="6074.14" y="-538" font-family="Arial Bold" font-size="18.00">ndb.isomaterialanalyzedtypes</text>
<text text-anchor="start" x="6287.57" y="-538" font-family="Arial" font-size="14.00">    </text>
<text text-anchor="start" x="6318.68" y="-538" font-family="Arial" font-size="14.00" fill="#666666">[BASE TABLE]</text>
<polygon fill="none" stroke="black" points="6067.14,-493.8 6067.14,-524.6 6419.06,-524.6 6419.06,-493.8 6067.14,-493.8"/>
<text text-anchor="start" x="6074.14" y="-506" font-family="Arial" font-size="14.00">isomatanaltypeid </text>
<text text-anchor="start" x="6183.09" y="-506" font-family="Arial" font-size="14.00" fill="#666666">[integer]</text>
<polygon fill="none" stroke="black" points="6067.14,-463 6067.14,-493.8 6419.06,-493.8 6419.06,-463 6067.14,-463"/>
<text text-anchor="start" x="6074.14" y="-475.2" font-family="Arial" font-size="14.00">isomaterialanalyzedtype </text>
<text text-anchor="start" x="6228.22" y="-475.2" font-family="Arial" font-size="14.00" fill="#666666">[varchar(50)]</text>
<polygon fill="none" stroke="black" points="6067.14,-432.2 6067.14,-463 6419.06,-463 6419.06,-432.2 6067.14,-432.2"/>
<text text-anchor="start" x="6074.14" y="-444.4" font-family="Arial" font-size="14.00">recdatecreated </text>
<text text-anchor="start" x="6171.42" y="-444.4" font-family="Arial" font-size="14.00" fill="#666666">[timestamp(0) without time zone]</text>
<polygon fill="none" stroke="black" points="6067.14,-401.4 6067.14,-432.2 6419.06,-432.2 6419.06,-401.4 6067.14,-401.4"/>
<text text-anchor="start" x="6074.14" y="-413.6" font-family="Arial" font-size="14.00">recdatemodified </text>
<text text-anchor="start" x="6177.65" y="-413.6" font-family="Arial" font-size="14.00" fill="#666666">[timestamp(0) without time zone]</text>
</g>
<!-- ndb.isopretreatmenttypes -->
<g id="node19" class="node">
<title>ndb.isopretreatmenttypes</title>
<polygon fill="#efefef" stroke="none" points="6523.13,-540 6523.13,-575.6 6843.07,-575.6 6843.07,-540 6523.13,-540"/>
<polygon fill="none" stroke="black" points="6523.13,-540 6523.13,-575.6 6843.07,-575.6 6843.07,-540 6523.13,-540"/>
<text text-anchor="start" x="6530.13" y="-553.4" font-family="Arial Bold" font-size="18.00">ndb.isopretreatmenttypes</text>
<text text-anchor="start" x="6711.58" y="-553.4" font-family="Arial" font-size="14.00">    </text>
<text text-anchor="start" x="6742.7" y="-553.4" font-family="Arial" font-size="14.00" fill="#666666">[BASE TABLE]</text>
<polygon fill="none" stroke="black" points="6523.13,-509.2 6523.13,-540 6843.07,-540 6843.07,-509.2 6523.13,-509.2"/>
<text text-anchor="start" x="6530.13" y="-521.4" font-family="Arial" font-size="14.00">isopretreatmenttypeid </text>
<text text-anchor="start" x="6668.65" y="-521.4" font-family="Arial" font-size="14.00" fill="#666666">[integer]</text>
<polygon fill="none" stroke="black" points="6523.13,-478.4 6523.13,-509.2 6843.07,-509.2 6843.07,-478.4 6523.13,-478.4"/>
<text text-anchor="start" x="6530.13" y="-490.6" font-family="Arial" font-size="14.00">isopretreatmenttype </text>
<text text-anchor="start" x="6657.75" y="-490.6" font-family="Arial" font-size="14.00" fill="#666666">[varchar(50)]</text>
<polygon fill="none" stroke="black" points="6523.13,-447.6 6523.13,-478.4 6843.07,-478.4 6843.07,-447.6 6523.13,-447.6"/>
<text text-anchor="start" x="6530.13" y="-459.8" font-family="Arial" font-size="14.00">isopretreatmentqualifier </text>
<text text-anchor="start" x="6680.32" y="-459.8" font-family="Arial" font-size="14.00" fill="#666666">[varchar(50)]</text>
<polygon fill="none" stroke="black" points="6523.13,-416.8 6523.13,-447.6 6843.07,-447.6 6843.07,-416.8 6523.13,-416.8"/>
<text text-anchor="start" x="6530.13" y="-429" font-family="Arial" font-size="14.00">recdatecreated </text>
<text text-anchor="start" x="6627.41" y="-429" font-family="Arial" font-size="14.00" fill="#666666">[timestamp(0) without time zone]</text>
<polygon fill="none" stroke="black" points="6523.13,-386 6523.13,-416.8 6843.07,-416.8 6843.07,-386 6523.13,-386"/>
<text text-anchor="start" x="6530.13" y="-398.2" font-family="Arial" font-size="14.00">recdatemodified </text>
<text text-anchor="start" x="6633.63" y="-398.2" font-family="Arial" font-size="14.00" fill="#666666">[timestamp(0) without time zone]</text>
</g>
</g>
</svg>
