<?xml version="1.0" encoding="UTF-8" standalone="no"?>
<!DOCTYPE svg PUBLIC "-//W3C//DTD SVG 1.1//EN"
 "http://www.w3.org/Graphics/SVG/1.1/DTD/svg11.dtd">
<!-- Generated by graphviz version 12.1.2 (20240928.0832)
 -->
<!-- Title: Controlled Vocabularies Pages: 1 -->
<svg width="6894pt" height="798pt"
 viewBox="0.00 0.00 6894.20 798.20" xmlns="http://www.w3.org/2000/svg" xmlns:xlink="http://www.w3.org/1999/xlink">
<g id="graph0" class="graph" transform="scale(1 1) rotate(0) translate(4 794.2)">
<title>Controlled Vocabularies</title>
<polygon fill="white" stroke="none" points="-4,4 -4,-794.2 6890.2,-794.2 6890.2,4 -4,4"/>
<!-- ndb.agetypes -->
<g id="node1" class="node">
<title>ndb.agetypes</title>
<polygon fill="#efefef" stroke="none" points="43.2,-555.4 43.2,-591 363,-591 363,-555.4 43.2,-555.4"/>
<polygon fill="none" stroke="black" points="43.2,-555.4 43.2,-591 363,-591 363,-555.4 43.2,-555.4"/>
<text text-anchor="start" x="93.62" y="-568.8" font-family="Arial Bold" font-size="18.00">ndb.agetypes</text>
<text text-anchor="start" x="188.09" y="-568.8" font-family="Arial" font-size="14.00">    </text>
<text text-anchor="start" x="219.21" y="-568.8" font-family="Arial" font-size="14.00" fill="#666666">[BASE TABLE]</text>
<polygon fill="none" stroke="black" points="43.2,-524.6 43.2,-555.4 363,-555.4 363,-524.6 43.2,-524.6"/>
<text text-anchor="start" x="50.2" y="-536.8" font-family="Arial" font-size="14.00">agetype </text>
<text text-anchor="start" x="103.91" y="-536.8" font-family="Arial" font-size="14.00" fill="#666666">[varchar(64)]</text>
<polygon fill="none" stroke="black" points="43.2,-493.8 43.2,-524.6 363,-524.6 363,-493.8 43.2,-493.8"/>
<text text-anchor="start" x="50.2" y="-506" font-family="Arial" font-size="14.00">agetypeid </text>
<text text-anchor="start" x="114.81" y="-506" font-family="Arial" font-size="14.00" fill="#666666">[integer]</text>
<polygon fill="none" stroke="black" points="43.2,-463 43.2,-493.8 363,-493.8 363,-463 43.2,-463"/>
<text text-anchor="start" x="50.2" y="-475.2" font-family="Arial" font-size="14.00">precedence </text>
<text text-anchor="start" x="127.25" y="-475.2" font-family="Arial" font-size="14.00" fill="#666666">[integer]</text>
<polygon fill="none" stroke="black" points="43.2,-432.2 43.2,-463 363,-463 363,-432.2 43.2,-432.2"/>
<text text-anchor="start" x="50.2" y="-444.4" font-family="Arial" font-size="14.00">recdatecreated </text>
<text text-anchor="start" x="147.48" y="-444.4" font-family="Arial" font-size="14.00" fill="#666666">[timestamp(0) without time zone]</text>
<polygon fill="none" stroke="black" points="43.2,-401.4 43.2,-432.2 363,-432.2 363,-401.4 43.2,-401.4"/>
<text text-anchor="start" x="50.2" y="-413.6" font-family="Arial" font-size="14.00">recdatemodified </text>
<text text-anchor="start" x="153.7" y="-413.6" font-family="Arial" font-size="14.00" fill="#666666">[timestamp(0) without time zone]</text>
<polygon fill="none" stroke="black" points="43.2,-370.6 43.2,-401.4 363,-401.4 363,-370.6 43.2,-370.6"/>
<text text-anchor="start" x="50.2" y="-382.8" font-family="Arial" font-size="14.00">shortagetype </text>
<text text-anchor="start" x="135.03" y="-382.8" font-family="Arial" font-size="14.00" fill="#666666">[varchar(32)]</text>
</g>
<!-- ndb.analysisunitaltdepthscales -->
<g id="node2" class="node">
<title>ndb.analysisunitaltdepthscales</title>
<polygon fill="#efefef" stroke="none" points="467.63,-570.8 467.63,-606.4 824.57,-606.4 824.57,-570.8 467.63,-570.8"/>
<polygon fill="none" stroke="black" points="467.63,-570.8 467.63,-606.4 824.57,-606.4 824.57,-570.8 467.63,-570.8"/>
<text text-anchor="start" x="474.63" y="-584.2" font-family="Arial Bold" font-size="18.00">ndb.analysisunitaltdepthscales</text>
<text text-anchor="start" x="693.08" y="-584.2" font-family="Arial" font-size="14.00">    </text>
<text text-anchor="start" x="724.2" y="-584.2" font-family="Arial" font-size="14.00" fill="#666666">[BASE TABLE]</text>
<polygon fill="none" stroke="black" points="467.63,-540 467.63,-570.8 824.57,-570.8 824.57,-540 467.63,-540"/>
<text text-anchor="start" x="474.63" y="-552.2" font-family="Arial" font-size="14.00">altdepthid </text>
<text text-anchor="start" x="539.24" y="-552.2" font-family="Arial" font-size="14.00" fill="#666666">[integer]</text>
<polygon fill="none" stroke="black" points="467.63,-509.2 467.63,-540 824.57,-540 824.57,-509.2 467.63,-509.2"/>
<text text-anchor="start" x="474.63" y="-521.4" font-family="Arial" font-size="14.00">altdepthname </text>
<text text-anchor="start" x="563.36" y="-521.4" font-family="Arial" font-size="14.00" fill="#666666">[varchar(80)]</text>
<polygon fill="none" stroke="black" points="467.63,-478.4 467.63,-509.2 824.57,-509.2 824.57,-478.4 467.63,-478.4"/>
<text text-anchor="start" x="474.63" y="-490.6" font-family="Arial" font-size="14.00">altdepthscaleid </text>
<text text-anchor="start" x="571.92" y="-490.6" font-family="Arial" font-size="14.00" fill="#666666">[integer]</text>
<polygon fill="none" stroke="black" points="467.63,-447.6 467.63,-478.4 824.57,-478.4 824.57,-447.6 467.63,-447.6"/>
<text text-anchor="start" x="474.63" y="-459.8" font-family="Arial" font-size="14.00">notes </text>
<text text-anchor="start" x="512.77" y="-459.8" font-family="Arial" font-size="14.00" fill="#666666">[text]</text>
<polygon fill="none" stroke="black" points="467.63,-416.8 467.63,-447.6 824.57,-447.6 824.57,-416.8 467.63,-416.8"/>
<text text-anchor="start" x="474.63" y="-429" font-family="Arial" font-size="14.00">recdatecreated </text>
<text text-anchor="start" x="571.91" y="-429" font-family="Arial" font-size="14.00" fill="#666666">[timestamp(0) without time zone]</text>
<polygon fill="none" stroke="black" points="467.63,-386 467.63,-416.8 824.57,-416.8 824.57,-386 467.63,-386"/>
<text text-anchor="start" x="474.63" y="-398.2" font-family="Arial" font-size="14.00">recdatemodified </text>
<text text-anchor="start" x="578.13" y="-398.2" font-family="Arial" font-size="14.00" fill="#666666">[timestamp(0) without time zone]</text>
<polygon fill="none" stroke="black" points="467.63,-355.2 467.63,-386 824.57,-386 824.57,-355.2 467.63,-355.2"/>
<text text-anchor="start" x="474.63" y="-367.4" font-family="Arial" font-size="14.00">variableunitsid </text>
<text text-anchor="start" x="568.01" y="-367.4" font-family="Arial" font-size="14.00" fill="#666666">[integer]</text>
</g>
<!-- ndb.calibrationcurves -->
<g id="node3" class="node">
<title>ndb.calibrationcurves</title>
<polygon fill="#efefef" stroke="none" points="929.2,-540 929.2,-575.6 1249,-575.6 1249,-540 929.2,-540"/>
<polygon fill="none" stroke="black" points="929.2,-540 929.2,-575.6 1249,-575.6 1249,-540 929.2,-540"/>
<text text-anchor="start" x="949.13" y="-553.4" font-family="Arial Bold" font-size="18.00">ndb.calibrationcurves</text>
<text text-anchor="start" x="1104.58" y="-553.4" font-family="Arial" font-size="14.00">    </text>
<text text-anchor="start" x="1135.69" y="-553.4" font-family="Arial" font-size="14.00" fill="#666666">[BASE TABLE]</text>
<polygon fill="none" stroke="black" points="929.2,-509.2 929.2,-540 1249,-540 1249,-509.2 929.2,-509.2"/>
<text text-anchor="start" x="936.2" y="-521.4" font-family="Arial" font-size="14.00">calibrationcurve </text>
<text text-anchor="start" x="1038.14" y="-521.4" font-family="Arial" font-size="14.00" fill="#666666">[varchar(24)]</text>
<polygon fill="none" stroke="black" points="929.2,-478.4 929.2,-509.2 1249,-509.2 1249,-478.4 929.2,-478.4"/>
<text text-anchor="start" x="936.2" y="-490.6" font-family="Arial" font-size="14.00">calibrationcurveid </text>
<text text-anchor="start" x="1049.03" y="-490.6" font-family="Arial" font-size="14.00" fill="#666666">[integer]</text>
<polygon fill="none" stroke="black" points="929.2,-447.6 929.2,-478.4 1249,-478.4 1249,-447.6 929.2,-447.6"/>
<text text-anchor="start" x="936.2" y="-459.8" font-family="Arial" font-size="14.00">publicationid </text>
<text text-anchor="start" x="1017.92" y="-459.8" font-family="Arial" font-size="14.00" fill="#666666">[integer]</text>
<polygon fill="none" stroke="black" points="929.2,-416.8 929.2,-447.6 1249,-447.6 1249,-416.8 929.2,-416.8"/>
<text text-anchor="start" x="936.2" y="-429" font-family="Arial" font-size="14.00">recdatecreated </text>
<text text-anchor="start" x="1033.48" y="-429" font-family="Arial" font-size="14.00" fill="#666666">[timestamp(0) without time zone]</text>
<polygon fill="none" stroke="black" points="929.2,-386 929.2,-416.8 1249,-416.8 1249,-386 929.2,-386"/>
<text text-anchor="start" x="936.2" y="-398.2" font-family="Arial" font-size="14.00">recdatemodified </text>
<text text-anchor="start" x="1039.7" y="-398.2" font-family="Arial" font-size="14.00" fill="#666666">[timestamp(0) without time zone]</text>
</g>
<!-- ndb.calibrationprograms -->
<g id="node4" class="node">
<title>ndb.calibrationprograms</title>
<polygon fill="#efefef" stroke="none" points="1353.2,-540 1353.2,-575.6 1673,-575.6 1673,-540 1353.2,-540"/>
<polygon fill="none" stroke="black" points="1353.2,-540 1353.2,-575.6 1673,-575.6 1673,-540 1353.2,-540"/>
<text text-anchor="start" x="1362.63" y="-553.4" font-family="Arial Bold" font-size="18.00">ndb.calibrationprograms</text>
<text text-anchor="start" x="1539.08" y="-553.4" font-family="Arial" font-size="14.00">    </text>
<text text-anchor="start" x="1570.2" y="-553.4" font-family="Arial" font-size="14.00" fill="#666666">[BASE TABLE]</text>
<polygon fill="none" stroke="black" points="1353.2,-509.2 1353.2,-540 1673,-540 1673,-509.2 1353.2,-509.2"/>
<text text-anchor="start" x="1360.2" y="-521.4" font-family="Arial" font-size="14.00">calibrationprogram </text>
<text text-anchor="start" x="1480.03" y="-521.4" font-family="Arial" font-size="14.00" fill="#666666">[varchar(24)]</text>
<polygon fill="none" stroke="black" points="1353.2,-478.4 1353.2,-509.2 1673,-509.2 1673,-478.4 1353.2,-478.4"/>
<text text-anchor="start" x="1360.2" y="-490.6" font-family="Arial" font-size="14.00">calibrationprogramid </text>
<text text-anchor="start" x="1490.93" y="-490.6" font-family="Arial" font-size="14.00" fill="#666666">[integer]</text>
<polygon fill="none" stroke="black" points="1353.2,-447.6 1353.2,-478.4 1673,-478.4 1673,-447.6 1353.2,-447.6"/>
<text text-anchor="start" x="1360.2" y="-459.8" font-family="Arial" font-size="14.00">recdatecreated </text>
<text text-anchor="start" x="1457.48" y="-459.8" font-family="Arial" font-size="14.00" fill="#666666">[timestamp(0) without time zone]</text>
<polygon fill="none" stroke="black" points="1353.2,-416.8 1353.2,-447.6 1673,-447.6 1673,-416.8 1353.2,-416.8"/>
<text text-anchor="start" x="1360.2" y="-429" font-family="Arial" font-size="14.00">recdatemodified </text>
<text text-anchor="start" x="1463.7" y="-429" font-family="Arial" font-size="14.00" fill="#666666">[timestamp(0) without time zone]</text>
<polygon fill="none" stroke="black" points="1353.2,-386 1353.2,-416.8 1673,-416.8 1673,-386 1353.2,-386"/>
<text text-anchor="start" x="1360.2" y="-398.2" font-family="Arial" font-size="14.00">version </text>
<text text-anchor="start" x="1409.22" y="-398.2" font-family="Arial" font-size="14.00" fill="#666666">[varchar(24)]</text>
</g>
<!-- ndb.chroncontroltypes -->
<g id="node5" class="node">
<title>ndb.chroncontroltypes</title>
<polygon fill="#efefef" stroke="none" points="1777.2,-197.2 1777.2,-232.8 2097,-232.8 2097,-197.2 1777.2,-197.2"/>
<polygon fill="none" stroke="black" points="1777.2,-197.2 1777.2,-232.8 2097,-232.8 2097,-197.2 1777.2,-197.2"/>
<text text-anchor="start" x="1794.12" y="-210.6" font-family="Arial Bold" font-size="18.00">ndb.chroncontroltypes</text>
<text text-anchor="start" x="1955.59" y="-210.6" font-family="Arial" font-size="14.00">    </text>
<text text-anchor="start" x="1986.7" y="-210.6" font-family="Arial" font-size="14.00" fill="#666666">[BASE TABLE]</text>
<polygon fill="none" stroke="black" points="1777.2,-166.4 1777.2,-197.2 2097,-197.2 2097,-166.4 1777.2,-166.4"/>
<text text-anchor="start" x="1784.2" y="-178.6" font-family="Arial" font-size="14.00">chroncontroltype </text>
<text text-anchor="start" x="1891.59" y="-178.6" font-family="Arial" font-size="14.00" fill="#666666">[varchar(64)]</text>
<polygon fill="none" stroke="black" points="1777.2,-135.6 1777.2,-166.4 2097,-166.4 2097,-135.6 1777.2,-135.6"/>
<text text-anchor="start" x="1784.2" y="-147.8" font-family="Arial" font-size="14.00">chroncontroltypeid </text>
<text text-anchor="start" x="1902.49" y="-147.8" font-family="Arial" font-size="14.00" fill="#666666">[integer]</text>
<polygon fill="none" stroke="black" points="1777.2,-104.8 1777.2,-135.6 2097,-135.6 2097,-104.8 1777.2,-104.8"/>
<text text-anchor="start" x="1784.2" y="-117" font-family="Arial" font-size="14.00">higherchroncontroltypeid </text>
<text text-anchor="start" x="1941.41" y="-117" font-family="Arial" font-size="14.00" fill="#666666">[integer]</text>
<polygon fill="none" stroke="black" points="1777.2,-74 1777.2,-104.8 2097,-104.8 2097,-74 1777.2,-74"/>
<text text-anchor="start" x="1784.2" y="-86.2" font-family="Arial" font-size="14.00">recdatecreated </text>
<text text-anchor="start" x="1881.48" y="-86.2" font-family="Arial" font-size="14.00" fill="#666666">[timestamp(0) without time zone]</text>
<polygon fill="none" stroke="black" points="1777.2,-43.2 1777.2,-74 2097,-74 2097,-43.2 1777.2,-43.2"/>
<text text-anchor="start" x="1784.2" y="-55.4" font-family="Arial" font-size="14.00">recdatemodified </text>
<text text-anchor="start" x="1887.7" y="-55.4" font-family="Arial" font-size="14.00" fill="#666666">[timestamp(0) without time zone]</text>
</g>
<!-- ndb.chroncontroltypes&#45;&gt;ndb.chroncontroltypes -->
<g id="edge1" class="edge">
<title>ndb.chroncontroltypes:higherchroncontroltypeid&#45;&gt;ndb.chroncontroltypes:chroncontroltypeid</title>
<path fill="none" stroke="black" d="M1938.99,-145.56C1946.05,-255.99 1945.42,-447.4 1937.1,-447.4 1928.53,-447.4 1928.12,-272.19 1935.87,-166.39"/>
<polygon fill="black" stroke="black" points="1939,-145.78 1942.82,-135.49 1938.64,-140.45 1938.35,-136.13 1938.35,-136.13 1938.35,-136.13 1938.64,-140.45 1933.84,-136.1 1939,-145.78"/>
<text text-anchor="start" x="1945.31" y="-145.46" font-family="Arial" font-size="10.00">FOREIGN KEY (higherchroncontroltypeid) REFERENCES ndb.chroncontroltypes(chroncontroltypeid)</text>
</g>
<!-- ndb.datasettaxagrouptypes -->
<g id="node6" class="node">
<title>ndb.datasettaxagrouptypes</title>
<polygon fill="#efefef" stroke="none" points="2201.13,-524.6 2201.13,-560.2 2531.07,-560.2 2531.07,-524.6 2201.13,-524.6"/>
<polygon fill="none" stroke="black" points="2201.13,-524.6 2201.13,-560.2 2531.07,-560.2 2531.07,-524.6 2201.13,-524.6"/>
<text text-anchor="start" x="2208.13" y="-538" font-family="Arial Bold" font-size="18.00">ndb.datasettaxagrouptypes</text>
<text text-anchor="start" x="2399.58" y="-538" font-family="Arial" font-size="14.00">    </text>
<text text-anchor="start" x="2430.69" y="-538" font-family="Arial" font-size="14.00" fill="#666666">[BASE TABLE]</text>
<polygon fill="none" stroke="black" points="2201.13,-493.8 2201.13,-524.6 2531.07,-524.6 2531.07,-493.8 2201.13,-493.8"/>
<text text-anchor="start" x="2208.13" y="-506" font-family="Arial" font-size="14.00">datasettypeid </text>
<text text-anchor="start" x="2295.3" y="-506" font-family="Arial" font-size="14.00" fill="#666666">[integer]</text>
<polygon fill="none" stroke="black" points="2201.13,-463 2201.13,-493.8 2531.07,-493.8 2531.07,-463 2201.13,-463"/>
<text text-anchor="start" x="2208.13" y="-475.2" font-family="Arial" font-size="14.00">recdatecreated </text>
<text text-anchor="start" x="2305.42" y="-475.2" font-family="Arial" font-size="14.00" fill="#666666">[timestamp(0) without time zone]</text>
<polygon fill="none" stroke="black" points="2201.13,-432.2 2201.13,-463 2531.07,-463 2531.07,-432.2 2201.13,-432.2"/>
<text text-anchor="start" x="2208.13" y="-444.4" font-family="Arial" font-size="14.00">recdatemodified </text>
<text text-anchor="start" x="2311.64" y="-444.4" font-family="Arial" font-size="14.00" fill="#666666">[timestamp(0) without time zone]</text>
<polygon fill="none" stroke="black" points="2201.13,-401.4 2201.13,-432.2 2531.07,-432.2 2531.07,-401.4 2201.13,-401.4"/>
<text text-anchor="start" x="2208.13" y="-413.6" font-family="Arial" font-size="14.00">taxagroupid </text>
<text text-anchor="start" x="2285.19" y="-413.6" font-family="Arial" font-size="14.00" fill="#666666">[varchar(3)]</text>
</g>
<!-- ndb.depenvttypes -->
<g id="node7" class="node">
<title>ndb.depenvttypes</title>
<polygon fill="#efefef" stroke="none" points="2635.2,-540 2635.2,-575.6 2955,-575.6 2955,-540 2635.2,-540"/>
<polygon fill="none" stroke="black" points="2635.2,-540 2635.2,-575.6 2955,-575.6 2955,-540 2635.2,-540"/>
<text text-anchor="start" x="2669.62" y="-553.4" font-family="Arial Bold" font-size="18.00">ndb.depenvttypes</text>
<text text-anchor="start" x="2796.09" y="-553.4" font-family="Arial" font-size="14.00">    </text>
<text text-anchor="start" x="2827.21" y="-553.4" font-family="Arial" font-size="14.00" fill="#666666">[BASE TABLE]</text>
<polygon fill="none" stroke="black" points="2635.2,-509.2 2635.2,-540 2955,-540 2955,-509.2 2635.2,-509.2"/>
<text text-anchor="start" x="2642.2" y="-521.4" font-family="Arial" font-size="14.00">depenvt </text>
<text text-anchor="start" x="2695.91" y="-521.4" font-family="Arial" font-size="14.00" fill="#666666">[varchar(255)]</text>
<polygon fill="none" stroke="black" points="2635.2,-478.4 2635.2,-509.2 2955,-509.2 2955,-478.4 2635.2,-478.4"/>
<text text-anchor="start" x="2642.2" y="-490.6" font-family="Arial" font-size="14.00">depenvthigherid </text>
<text text-anchor="start" x="2745.72" y="-490.6" font-family="Arial" font-size="14.00" fill="#666666">[integer]</text>
<polygon fill="none" stroke="black" points="2635.2,-447.6 2635.2,-478.4 2955,-478.4 2955,-447.6 2635.2,-447.6"/>
<text text-anchor="start" x="2642.2" y="-459.8" font-family="Arial" font-size="14.00">depenvtid </text>
<text text-anchor="start" x="2706.81" y="-459.8" font-family="Arial" font-size="14.00" fill="#666666">[integer]</text>
<polygon fill="none" stroke="black" points="2635.2,-416.8 2635.2,-447.6 2955,-447.6 2955,-416.8 2635.2,-416.8"/>
<text text-anchor="start" x="2642.2" y="-429" font-family="Arial" font-size="14.00">recdatecreated </text>
<text text-anchor="start" x="2739.48" y="-429" font-family="Arial" font-size="14.00" fill="#666666">[timestamp(0) without time zone]</text>
<polygon fill="none" stroke="black" points="2635.2,-386 2635.2,-416.8 2955,-416.8 2955,-386 2635.2,-386"/>
<text text-anchor="start" x="2642.2" y="-398.2" font-family="Arial" font-size="14.00">recdatemodified </text>
<text text-anchor="start" x="2745.7" y="-398.2" font-family="Arial" font-size="14.00" fill="#666666">[timestamp(0) without time zone]</text>
</g>
<!-- ndb.depenvttypes&#45;&gt;ndb.depenvttypes -->
<g id="edge2" class="edge">
<title>ndb.depenvttypes:depenvthigherid&#45;&gt;ndb.depenvttypes:depenvtid</title>
<path fill="none" stroke="black" d="M2797.03,-519.31C2804.05,-625.77 2803.4,-790.2 2795.1,-790.2 2786.52,-790.2 2786.12,-586.65 2793.89,-478.26"/>
<polygon fill="black" stroke="black" points="2797.05,-519.5 2800.84,-509.22 2796.68,-514.18 2796.38,-509.86 2796.38,-509.86 2796.38,-509.86 2796.68,-514.18 2791.86,-509.84 2797.05,-519.5"/>
<text text-anchor="start" x="2620.41" y="-493.19" font-family="Arial" font-size="10.00">FOREIGN KEY (depenvthigherid) REFERENCES ndb.depenvttypes(depenvtid)</text>
</g>
<!-- ndb.elementmaturities -->
<g id="node8" class="node">
<title>ndb.elementmaturities</title>
<polygon fill="#efefef" stroke="none" points="3059.2,-524.6 3059.2,-560.2 3379,-560.2 3379,-524.6 3059.2,-524.6"/>
<polygon fill="none" stroke="black" points="3059.2,-524.6 3059.2,-560.2 3379,-560.2 3379,-524.6 3059.2,-524.6"/>
<text text-anchor="start" x="3076.63" y="-538" font-family="Arial Bold" font-size="18.00">ndb.elementmaturities</text>
<text text-anchor="start" x="3237.08" y="-538" font-family="Arial" font-size="14.00">    </text>
<text text-anchor="start" x="3268.2" y="-538" font-family="Arial" font-size="14.00" fill="#666666">[BASE TABLE]</text>
<polygon fill="none" stroke="black" points="3059.2,-493.8 3059.2,-524.6 3379,-524.6 3379,-493.8 3059.2,-493.8"/>
<text text-anchor="start" x="3066.2" y="-506" font-family="Arial" font-size="14.00">maturity </text>
<text text-anchor="start" x="3119.88" y="-506" font-family="Arial" font-size="14.00" fill="#666666">[varchar(36)]</text>
<polygon fill="none" stroke="black" points="3059.2,-463 3059.2,-493.8 3379,-493.8 3379,-463 3059.2,-463"/>
<text text-anchor="start" x="3066.2" y="-475.2" font-family="Arial" font-size="14.00">maturityid </text>
<text text-anchor="start" x="3130.77" y="-475.2" font-family="Arial" font-size="14.00" fill="#666666">[integer]</text>
<polygon fill="none" stroke="black" points="3059.2,-432.2 3059.2,-463 3379,-463 3379,-432.2 3059.2,-432.2"/>
<text text-anchor="start" x="3066.2" y="-444.4" font-family="Arial" font-size="14.00">recdatecreated </text>
<text text-anchor="start" x="3163.48" y="-444.4" font-family="Arial" font-size="14.00" fill="#666666">[timestamp(0) without time zone]</text>
<polygon fill="none" stroke="black" points="3059.2,-401.4 3059.2,-432.2 3379,-432.2 3379,-401.4 3059.2,-401.4"/>
<text text-anchor="start" x="3066.2" y="-413.6" font-family="Arial" font-size="14.00">recdatemodified </text>
<text text-anchor="start" x="3169.7" y="-413.6" font-family="Arial" font-size="14.00" fill="#666666">[timestamp(0) without time zone]</text>
</g>
<!-- ndb.elementsymmetries -->
<g id="node9" class="node">
<title>ndb.elementsymmetries</title>
<polygon fill="#efefef" stroke="none" points="3483.2,-524.6 3483.2,-560.2 3803,-560.2 3803,-524.6 3483.2,-524.6"/>
<polygon fill="none" stroke="black" points="3483.2,-524.6 3483.2,-560.2 3803,-560.2 3803,-524.6 3483.2,-524.6"/>
<text text-anchor="start" x="3495.13" y="-538" font-family="Arial Bold" font-size="18.00">ndb.elementsymmetries</text>
<text text-anchor="start" x="3666.58" y="-538" font-family="Arial" font-size="14.00">    </text>
<text text-anchor="start" x="3697.7" y="-538" font-family="Arial" font-size="14.00" fill="#666666">[BASE TABLE]</text>
<polygon fill="none" stroke="black" points="3483.2,-493.8 3483.2,-524.6 3803,-524.6 3803,-493.8 3483.2,-493.8"/>
<text text-anchor="start" x="3490.2" y="-506" font-family="Arial" font-size="14.00">recdatecreated </text>
<text text-anchor="start" x="3587.48" y="-506" font-family="Arial" font-size="14.00" fill="#666666">[timestamp(0) without time zone]</text>
<polygon fill="none" stroke="black" points="3483.2,-463 3483.2,-493.8 3803,-493.8 3803,-463 3483.2,-463"/>
<text text-anchor="start" x="3490.2" y="-475.2" font-family="Arial" font-size="14.00">recdatemodified </text>
<text text-anchor="start" x="3593.7" y="-475.2" font-family="Arial" font-size="14.00" fill="#666666">[timestamp(0) without time zone]</text>
<polygon fill="none" stroke="black" points="3483.2,-432.2 3483.2,-463 3803,-463 3803,-432.2 3483.2,-432.2"/>
<text text-anchor="start" x="3490.2" y="-444.4" font-family="Arial" font-size="14.00">symmetry </text>
<text text-anchor="start" x="3554.75" y="-444.4" font-family="Arial" font-size="14.00" fill="#666666">[varchar(24)]</text>
<polygon fill="none" stroke="black" points="3483.2,-401.4 3483.2,-432.2 3803,-432.2 3803,-401.4 3483.2,-401.4"/>
<text text-anchor="start" x="3490.2" y="-413.6" font-family="Arial" font-size="14.00">symmetryid </text>
<text text-anchor="start" x="3565.65" y="-413.6" font-family="Arial" font-size="14.00" fill="#666666">[integer]</text>
</g>
<!-- ndb.elementtaxagroups -->
<g id="node10" class="node">
<title>ndb.elementtaxagroups</title>
<polygon fill="#efefef" stroke="none" points="3907.2,-540 3907.2,-575.6 4227,-575.6 4227,-540 3907.2,-540"/>
<polygon fill="none" stroke="black" points="3907.2,-540 3907.2,-575.6 4227,-575.6 4227,-540 3907.2,-540"/>
<text text-anchor="start" x="3921.13" y="-553.4" font-family="Arial Bold" font-size="18.00">ndb.elementtaxagroups</text>
<text text-anchor="start" x="4088.58" y="-553.4" font-family="Arial" font-size="14.00">    </text>
<text text-anchor="start" x="4119.7" y="-553.4" font-family="Arial" font-size="14.00" fill="#666666">[BASE TABLE]</text>
<polygon fill="none" stroke="black" points="3907.2,-509.2 3907.2,-540 4227,-540 4227,-509.2 3907.2,-509.2"/>
<text text-anchor="start" x="3914.2" y="-521.4" font-family="Arial" font-size="14.00">elementtaxagroupid </text>
<text text-anchor="start" x="4041.06" y="-521.4" font-family="Arial" font-size="14.00" fill="#666666">[integer]</text>
<polygon fill="none" stroke="black" points="3907.2,-478.4 3907.2,-509.2 4227,-509.2 4227,-478.4 3907.2,-478.4"/>
<text text-anchor="start" x="3914.2" y="-490.6" font-family="Arial" font-size="14.00">elementtypeid </text>
<text text-anchor="start" x="4005.25" y="-490.6" font-family="Arial" font-size="14.00" fill="#666666">[integer]</text>
<polygon fill="none" stroke="black" points="3907.2,-447.6 3907.2,-478.4 4227,-478.4 4227,-447.6 3907.2,-447.6"/>
<text text-anchor="start" x="3914.2" y="-459.8" font-family="Arial" font-size="14.00">recdatecreated </text>
<text text-anchor="start" x="4011.48" y="-459.8" font-family="Arial" font-size="14.00" fill="#666666">[timestamp(0) without time zone]</text>
<polygon fill="none" stroke="black" points="3907.2,-416.8 3907.2,-447.6 4227,-447.6 4227,-416.8 3907.2,-416.8"/>
<text text-anchor="start" x="3914.2" y="-429" font-family="Arial" font-size="14.00">recdatemodified </text>
<text text-anchor="start" x="4017.7" y="-429" font-family="Arial" font-size="14.00" fill="#666666">[timestamp(0) without time zone]</text>
<polygon fill="none" stroke="black" points="3907.2,-386 3907.2,-416.8 4227,-416.8 4227,-386 3907.2,-386"/>
<text text-anchor="start" x="3914.2" y="-398.2" font-family="Arial" font-size="14.00">taxagroupid </text>
<text text-anchor="start" x="3991.25" y="-398.2" font-family="Arial" font-size="14.00" fill="#666666">[varchar(3)]</text>
</g>
<!-- ndb.elementtypes -->
<g id="node11" class="node">
<title>ndb.elementtypes</title>
<polygon fill="#efefef" stroke="none" points="3907.2,-181.8 3907.2,-217.4 4227,-217.4 4227,-181.8 3907.2,-181.8"/>
<polygon fill="none" stroke="black" points="3907.2,-181.8 3907.2,-217.4 4227,-217.4 4227,-181.8 3907.2,-181.8"/>
<text text-anchor="start" x="3941.62" y="-195.2" font-family="Arial Bold" font-size="18.00">ndb.elementtypes</text>
<text text-anchor="start" x="4068.09" y="-195.2" font-family="Arial" font-size="14.00">    </text>
<text text-anchor="start" x="4099.2" y="-195.2" font-family="Arial" font-size="14.00" fill="#666666">[BASE TABLE]</text>
<polygon fill="none" stroke="black" points="3907.2,-151 3907.2,-181.8 4227,-181.8 4227,-151 3907.2,-151"/>
<text text-anchor="start" x="3914.2" y="-163.2" font-family="Arial" font-size="14.00">elementtype </text>
<text text-anchor="start" x="3994.36" y="-163.2" font-family="Arial" font-size="14.00" fill="#666666">[varchar(64)]</text>
<polygon fill="none" stroke="black" points="3907.2,-120.2 3907.2,-151 4227,-151 4227,-120.2 3907.2,-120.2"/>
<text text-anchor="start" x="3914.2" y="-132.4" font-family="Arial" font-size="14.00">elementtypeid </text>
<text text-anchor="start" x="4005.25" y="-132.4" font-family="Arial" font-size="14.00" fill="#666666">[integer]</text>
<polygon fill="none" stroke="black" points="3907.2,-89.4 3907.2,-120.2 4227,-120.2 4227,-89.4 3907.2,-89.4"/>
<text text-anchor="start" x="3914.2" y="-101.6" font-family="Arial" font-size="14.00">recdatecreated </text>
<text text-anchor="start" x="4011.48" y="-101.6" font-family="Arial" font-size="14.00" fill="#666666">[timestamp(0) without time zone]</text>
<polygon fill="none" stroke="black" points="3907.2,-58.6 3907.2,-89.4 4227,-89.4 4227,-58.6 3907.2,-58.6"/>
<text text-anchor="start" x="3914.2" y="-70.8" font-family="Arial" font-size="14.00">recdatemodified </text>
<text text-anchor="start" x="4017.7" y="-70.8" font-family="Arial" font-size="14.00" fill="#666666">[timestamp(0) without time zone]</text>
</g>
<!-- ndb.elementtaxagroups&#45;&gt;ndb.elementtypes -->
<g id="edge3" class="edge">
<title>ndb.elementtaxagroups:elementtypeid&#45;&gt;ndb.elementtypes:elementtypeid</title>
<path fill="none" stroke="black" d="M4236.4,-487.88C4267.57,-441.31 4264.77,-135.6 4228,-135.6"/>
<polygon fill="black" stroke="black" points="4236.45,-487.85 4225.68,-489.93 4232.09,-490.92 4228.55,-493.41 4228.55,-493.41 4228.55,-493.41 4232.09,-490.92 4230.86,-497.29 4236.45,-487.85"/>
<text text-anchor="start" x="3935.68" y="-477.8" font-family="Arial" font-size="10.00">FOREIGN KEY (elementtypeid) REFERENCES ndb.elementtypes(elementtypeid) ON UPDATE CASCADE ON DELETE CASCADE</text>
</g>
<!-- ndb.eventtypes -->
<g id="node12" class="node">
<title>ndb.eventtypes</title>
<polygon fill="#efefef" stroke="none" points="1777.2,-540 1777.2,-575.6 2097,-575.6 2097,-540 1777.2,-540"/>
<polygon fill="none" stroke="black" points="1777.2,-540 1777.2,-575.6 2097,-575.6 2097,-540 1777.2,-540"/>
<text text-anchor="start" x="1820.62" y="-553.4" font-family="Arial Bold" font-size="18.00">ndb.eventtypes</text>
<text text-anchor="start" x="1929.09" y="-553.4" font-family="Arial" font-size="14.00">    </text>
<text text-anchor="start" x="1960.21" y="-553.4" font-family="Arial" font-size="14.00" fill="#666666">[BASE TABLE]</text>
<polygon fill="none" stroke="black" points="1777.2,-509.2 1777.2,-540 2097,-540 2097,-509.2 1777.2,-509.2"/>
<text text-anchor="start" x="1784.2" y="-521.4" font-family="Arial" font-size="14.00">chroncontroltypeid </text>
<text text-anchor="start" x="1902.49" y="-521.4" font-family="Arial" font-size="14.00" fill="#666666">[integer]</text>
<polygon fill="none" stroke="black" points="1777.2,-478.4 1777.2,-509.2 2097,-509.2 2097,-478.4 1777.2,-478.4"/>
<text text-anchor="start" x="1784.2" y="-490.6" font-family="Arial" font-size="14.00">eventtype </text>
<text text-anchor="start" x="1848.8" y="-490.6" font-family="Arial" font-size="14.00" fill="#666666">[varchar(40)]</text>
<polygon fill="none" stroke="black" points="1777.2,-447.6 1777.2,-478.4 2097,-478.4 2097,-447.6 1777.2,-447.6"/>
<text text-anchor="start" x="1784.2" y="-459.8" font-family="Arial" font-size="14.00">eventtypeid </text>
<text text-anchor="start" x="1859.7" y="-459.8" font-family="Arial" font-size="14.00" fill="#666666">[integer]</text>
<polygon fill="none" stroke="black" points="1777.2,-416.8 1777.2,-447.6 2097,-447.6 2097,-416.8 1777.2,-416.8"/>
<text text-anchor="start" x="1784.2" y="-429" font-family="Arial" font-size="14.00">recdatecreated </text>
<text text-anchor="start" x="1881.48" y="-429" font-family="Arial" font-size="14.00" fill="#666666">[timestamp(0) without time zone]</text>
<polygon fill="none" stroke="black" points="1777.2,-386 1777.2,-416.8 2097,-416.8 2097,-386 1777.2,-386"/>
<text text-anchor="start" x="1784.2" y="-398.2" font-family="Arial" font-size="14.00">recdatemodified </text>
<text text-anchor="start" x="1887.7" y="-398.2" font-family="Arial" font-size="14.00" fill="#666666">[timestamp(0) without time zone]</text>
</g>
<!-- ndb.eventtypes&#45;&gt;ndb.chroncontroltypes -->
<g id="edge4" class="edge">
<title>ndb.eventtypes:chroncontroltypeid&#45;&gt;ndb.chroncontroltypes:chroncontroltypeid</title>
<path fill="none" stroke="black" d="M2106.56,-518.73C2139.28,-471.2 2136.43,-151 2098,-151"/>
<polygon fill="black" stroke="black" points="2106.52,-518.75 2095.73,-520.7 2102.12,-521.77 2098.55,-524.22 2098.55,-524.22 2098.55,-524.22 2102.12,-521.77 2100.82,-528.12 2106.52,-518.75"/>
<text text-anchor="start" x="2105" y="-534.6" font-family="Arial" font-size="10.00">FOREIGN KEY (chroncontroltypeid) REFERENCES ndb.chroncontroltypes(chroncontroltypeid)</text>
</g>
<!-- ndb.externaldatabases -->
<g id="node13" class="node">
<title>ndb.externaldatabases</title>
<polygon fill="#efefef" stroke="none" points="4331.2,-555.4 4331.2,-591 4651,-591 4651,-555.4 4331.2,-555.4"/>
<polygon fill="none" stroke="black" points="4331.2,-555.4 4331.2,-591 4651,-591 4651,-555.4 4331.2,-555.4"/>
<text text-anchor="start" x="4349.64" y="-568.8" font-family="Arial Bold" font-size="18.00">ndb.externaldatabases</text>
<text text-anchor="start" x="4508.07" y="-568.8" font-family="Arial" font-size="14.00">    </text>
<text text-anchor="start" x="4539.19" y="-568.8" font-family="Arial" font-size="14.00" fill="#666666">[BASE TABLE]</text>
<polygon fill="none" stroke="black" points="4331.2,-524.6 4331.2,-555.4 4651,-555.4 4651,-524.6 4331.2,-524.6"/>
<text text-anchor="start" x="4338.2" y="-536.8" font-family="Arial" font-size="14.00">extdatabaseid </text>
<text text-anchor="start" x="4429.27" y="-536.8" font-family="Arial" font-size="14.00" fill="#666666">[integer]</text>
<polygon fill="none" stroke="black" points="4331.2,-493.8 4331.2,-524.6 4651,-524.6 4651,-493.8 4331.2,-493.8"/>
<text text-anchor="start" x="4338.2" y="-506" font-family="Arial" font-size="14.00">extdatabasename </text>
<text text-anchor="start" x="4453.39" y="-506" font-family="Arial" font-size="14.00" fill="#666666">[varchar(80)]</text>
<polygon fill="none" stroke="black" points="4331.2,-463 4331.2,-493.8 4651,-493.8 4651,-463 4331.2,-463"/>
<text text-anchor="start" x="4338.2" y="-475.2" font-family="Arial" font-size="14.00">recdatecreated </text>
<text text-anchor="start" x="4435.48" y="-475.2" font-family="Arial" font-size="14.00" fill="#666666">[timestamp(0) without time zone]</text>
<polygon fill="none" stroke="black" points="4331.2,-432.2 4331.2,-463 4651,-463 4651,-432.2 4331.2,-432.2"/>
<text text-anchor="start" x="4338.2" y="-444.4" font-family="Arial" font-size="14.00">recdatemodified </text>
<text text-anchor="start" x="4441.7" y="-444.4" font-family="Arial" font-size="14.00" fill="#666666">[timestamp(0) without time zone]</text>
<polygon fill="none" stroke="black" points="4331.2,-401.4 4331.2,-432.2 4651,-432.2 4651,-401.4 4331.2,-401.4"/>
<text text-anchor="start" x="4338.2" y="-413.6" font-family="Arial" font-size="14.00">url </text>
<text text-anchor="start" x="4357.65" y="-413.6" font-family="Arial" font-size="14.00" fill="#666666">[varchar(128)]</text>
<polygon fill="none" stroke="black" points="4331.2,-370.6 4331.2,-401.4 4651,-401.4 4651,-370.6 4331.2,-370.6"/>
<text text-anchor="start" x="4338.2" y="-382.8" font-family="Arial" font-size="14.00">urlmask </text>
<text text-anchor="start" x="4391.1" y="-382.8" font-family="Arial" font-size="14.00" fill="#666666">[varchar(128)]</text>
</g>
<!-- ndb.isobiomarkerbandtypes -->
<g id="node14" class="node">
<title>ndb.isobiomarkerbandtypes</title>
<polygon fill="#efefef" stroke="none" points="4755.13,-540 4755.13,-575.6 5093.07,-575.6 5093.07,-540 4755.13,-540"/>
<polygon fill="none" stroke="black" points="4755.13,-540 4755.13,-575.6 5093.07,-575.6 5093.07,-540 4755.13,-540"/>
<text text-anchor="start" x="4762.13" y="-553.4" font-family="Arial Bold" font-size="18.00">ndb.isobiomarkerbandtypes</text>
<text text-anchor="start" x="4961.58" y="-553.4" font-family="Arial" font-size="14.00">    </text>
<text text-anchor="start" x="4992.7" y="-553.4" font-family="Arial" font-size="14.00" fill="#666666">[BASE TABLE]</text>
<polygon fill="none" stroke="black" points="4755.13,-509.2 4755.13,-540 5093.07,-540 5093.07,-509.2 4755.13,-509.2"/>
<text text-anchor="start" x="4762.13" y="-521.4" font-family="Arial" font-size="14.00">isobiomarkerbandtype </text>
<text text-anchor="start" x="4903.76" y="-521.4" font-family="Arial" font-size="14.00" fill="#666666">[varchar(50)]</text>
<polygon fill="none" stroke="black" points="4755.13,-478.4 4755.13,-509.2 5093.07,-509.2 5093.07,-478.4 4755.13,-478.4"/>
<text text-anchor="start" x="4762.13" y="-490.6" font-family="Arial" font-size="14.00">isobiomarkerbandtypeid </text>
<text text-anchor="start" x="4914.66" y="-490.6" font-family="Arial" font-size="14.00" fill="#666666">[integer]</text>
<polygon fill="none" stroke="black" points="4755.13,-447.6 4755.13,-478.4 5093.07,-478.4 5093.07,-447.6 4755.13,-447.6"/>
<text text-anchor="start" x="4762.13" y="-459.8" font-family="Arial" font-size="14.00">isobiomarkertypeid </text>
<text text-anchor="start" x="4883.51" y="-459.8" font-family="Arial" font-size="14.00" fill="#666666">[integer]</text>
<polygon fill="none" stroke="black" points="4755.13,-416.8 4755.13,-447.6 5093.07,-447.6 5093.07,-416.8 4755.13,-416.8"/>
<text text-anchor="start" x="4762.13" y="-429" font-family="Arial" font-size="14.00">recdatecreated </text>
<text text-anchor="start" x="4859.41" y="-429" font-family="Arial" font-size="14.00" fill="#666666">[timestamp(0) without time zone]</text>
<polygon fill="none" stroke="black" points="4755.13,-386 4755.13,-416.8 5093.07,-416.8 5093.07,-386 4755.13,-386"/>
<text text-anchor="start" x="4762.13" y="-398.2" font-family="Arial" font-size="14.00">recdatemodified </text>
<text text-anchor="start" x="4865.63" y="-398.2" font-family="Arial" font-size="14.00" fill="#666666">[timestamp(0) without time zone]</text>
</g>
<!-- ndb.isobiomarkertypes -->
<g id="node15" class="node">
<title>ndb.isobiomarkertypes</title>
<polygon fill="#efefef" stroke="none" points="4764.2,-181.8 4764.2,-217.4 5084,-217.4 5084,-181.8 4764.2,-181.8"/>
<polygon fill="none" stroke="black" points="4764.2,-181.8 4764.2,-217.4 5084,-217.4 5084,-181.8 4764.2,-181.8"/>
<text text-anchor="start" x="4779.62" y="-195.2" font-family="Arial Bold" font-size="18.00">ndb.isobiomarkertypes</text>
<text text-anchor="start" x="4944.09" y="-195.2" font-family="Arial" font-size="14.00">    </text>
<text text-anchor="start" x="4975.21" y="-195.2" font-family="Arial" font-size="14.00" fill="#666666">[BASE TABLE]</text>
<polygon fill="none" stroke="black" points="4764.2,-151 4764.2,-181.8 5084,-181.8 5084,-151 4764.2,-151"/>
<text text-anchor="start" x="4771.2" y="-163.2" font-family="Arial" font-size="14.00">isobiomarkertype </text>
<text text-anchor="start" x="4881.69" y="-163.2" font-family="Arial" font-size="14.00" fill="#666666">[varchar(50)]</text>
<polygon fill="none" stroke="black" points="4764.2,-120.2 4764.2,-151 5084,-151 5084,-120.2 4764.2,-120.2"/>
<text text-anchor="start" x="4771.2" y="-132.4" font-family="Arial" font-size="14.00">isobiomarkertypeid </text>
<text text-anchor="start" x="4892.59" y="-132.4" font-family="Arial" font-size="14.00" fill="#666666">[integer]</text>
<polygon fill="none" stroke="black" points="4764.2,-89.4 4764.2,-120.2 5084,-120.2 5084,-89.4 4764.2,-89.4"/>
<text text-anchor="start" x="4771.2" y="-101.6" font-family="Arial" font-size="14.00">recdatecreated </text>
<text text-anchor="start" x="4868.48" y="-101.6" font-family="Arial" font-size="14.00" fill="#666666">[timestamp(0) without time zone]</text>
<polygon fill="none" stroke="black" points="4764.2,-58.6 4764.2,-89.4 5084,-89.4 5084,-58.6 4764.2,-58.6"/>
<text text-anchor="start" x="4771.2" y="-70.8" font-family="Arial" font-size="14.00">recdatemodified </text>
<text text-anchor="start" x="4874.7" y="-70.8" font-family="Arial" font-size="14.00" fill="#666666">[timestamp(0) without time zone]</text>
</g>
<!-- ndb.isobiomarkerbandtypes&#45;&gt;ndb.isobiomarkertypes -->
<g id="edge5" class="edge">
<title>ndb.isobiomarkerbandtypes:isobiomarkertypeid&#45;&gt;ndb.isobiomarkertypes:isobiomarkertypeid</title>
<path fill="none" stroke="black" d="M5104.15,-460.73C5165.82,-431.81 5154.23,-135.6 5085,-135.6"/>
<polygon fill="black" stroke="black" points="5104.16,-460.73 5093.41,-458.54 5098.95,-461.9 5094.73,-462.85 5094.73,-462.85 5094.73,-462.85 5098.95,-461.9 5095.39,-467.32 5104.16,-460.73"/>
<text text-anchor="start" x="5101.07" y="-473" font-family="Arial" font-size="10.00">FOREIGN KEY (isobiomarkertypeid) REFERENCES ndb.isobiomarkertypes(isobiomarkertypeid) ON UPDATE CASCADE ON DELETE CASCADE</text>
</g>
<!-- ndb.isoinstrumentationtypes -->
<g id="node16" class="node">
<title>ndb.isoinstrumentationtypes</title>
<polygon fill="#efefef" stroke="none" points="5197.11,-524.6 5197.11,-560.2 5539.09,-560.2 5539.09,-524.6 5197.11,-524.6"/>
<polygon fill="none" stroke="black" points="5197.11,-524.6 5197.11,-560.2 5539.09,-560.2 5539.09,-524.6 5197.11,-524.6"/>
<text text-anchor="start" x="5204.11" y="-538" font-family="Arial Bold" font-size="18.00">ndb.isoinstrumentationtypes</text>
<text text-anchor="start" x="5407.6" y="-538" font-family="Arial" font-size="14.00">    </text>
<text text-anchor="start" x="5438.71" y="-538" font-family="Arial" font-size="14.00" fill="#666666">[BASE TABLE]</text>
<polygon fill="none" stroke="black" points="5197.11,-493.8 5197.11,-524.6 5539.09,-524.6 5539.09,-493.8 5197.11,-493.8"/>
<text text-anchor="start" x="5204.11" y="-506" font-family="Arial" font-size="14.00">isoinstrumentationtype </text>
<text text-anchor="start" x="5348.08" y="-506" font-family="Arial" font-size="14.00" fill="#666666">[varchar(256)]</text>
<polygon fill="none" stroke="black" points="5197.11,-463 5197.11,-493.8 5539.09,-493.8 5539.09,-463 5197.11,-463"/>
<text text-anchor="start" x="5204.11" y="-475.2" font-family="Arial" font-size="14.00">isoinstrumentationtypeid </text>
<text text-anchor="start" x="5358.97" y="-475.2" font-family="Arial" font-size="14.00" fill="#666666">[integer]</text>
<polygon fill="none" stroke="black" points="5197.11,-432.2 5197.11,-463 5539.09,-463 5539.09,-432.2 5197.11,-432.2"/>
<text text-anchor="start" x="5204.11" y="-444.4" font-family="Arial" font-size="14.00">recdatecreated </text>
<text text-anchor="start" x="5301.39" y="-444.4" font-family="Arial" font-size="14.00" fill="#666666">[timestamp(0) without time zone]</text>
<polygon fill="none" stroke="black" points="5197.11,-401.4 5197.11,-432.2 5539.09,-432.2 5539.09,-401.4 5197.11,-401.4"/>
<text text-anchor="start" x="5204.11" y="-413.6" font-family="Arial" font-size="14.00">recdatemodified </text>
<text text-anchor="start" x="5307.62" y="-413.6" font-family="Arial" font-size="14.00" fill="#666666">[timestamp(0) without time zone]</text>
</g>
<!-- ndb.isomaterialanalyzedtypes -->
<g id="node17" class="node">
<title>ndb.isomaterialanalyzedtypes</title>
<polygon fill="#efefef" stroke="none" points="5643.14,-524.6 5643.14,-560.2 5995.06,-560.2 5995.06,-524.6 5643.14,-524.6"/>
<polygon fill="none" stroke="black" points="5643.14,-524.6 5643.14,-560.2 5995.06,-560.2 5995.06,-524.6 5643.14,-524.6"/>
<text text-anchor="start" x="5650.14" y="-538" font-family="Arial Bold" font-size="18.00">ndb.isomaterialanalyzedtypes</text>
<text text-anchor="start" x="5863.57" y="-538" font-family="Arial" font-size="14.00">    </text>
<text text-anchor="start" x="5894.68" y="-538" font-family="Arial" font-size="14.00" fill="#666666">[BASE TABLE]</text>
<polygon fill="none" stroke="black" points="5643.14,-493.8 5643.14,-524.6 5995.06,-524.6 5995.06,-493.8 5643.14,-493.8"/>
<text text-anchor="start" x="5650.14" y="-506" font-family="Arial" font-size="14.00">isomatanaltypeid </text>
<text text-anchor="start" x="5759.09" y="-506" font-family="Arial" font-size="14.00" fill="#666666">[integer]</text>
<polygon fill="none" stroke="black" points="5643.14,-463 5643.14,-493.8 5995.06,-493.8 5995.06,-463 5643.14,-463"/>
<text text-anchor="start" x="5650.14" y="-475.2" font-family="Arial" font-size="14.00">isomaterialanalyzedtype </text>
<text text-anchor="start" x="5804.22" y="-475.2" font-family="Arial" font-size="14.00" fill="#666666">[varchar(50)]</text>
<polygon fill="none" stroke="black" points="5643.14,-432.2 5643.14,-463 5995.06,-463 5995.06,-432.2 5643.14,-432.2"/>
<text text-anchor="start" x="5650.14" y="-444.4" font-family="Arial" font-size="14.00">recdatecreated </text>
<text text-anchor="start" x="5747.42" y="-444.4" font-family="Arial" font-size="14.00" fill="#666666">[timestamp(0) without time zone]</text>
<polygon fill="none" stroke="black" points="5643.14,-401.4 5643.14,-432.2 5995.06,-432.2 5995.06,-401.4 5643.14,-401.4"/>
<text text-anchor="start" x="5650.14" y="-413.6" font-family="Arial" font-size="14.00">recdatemodified </text>
<text text-anchor="start" x="5753.65" y="-413.6" font-family="Arial" font-size="14.00" fill="#666666">[timestamp(0) without time zone]</text>
</g>
<!-- ndb.isopretreatmenttypes -->
<g id="node18" class="node">
<title>ndb.isopretreatmenttypes</title>
<polygon fill="#efefef" stroke="none" points="6099.13,-540 6099.13,-575.6 6419.07,-575.6 6419.07,-540 6099.13,-540"/>
<polygon fill="none" stroke="black" points="6099.13,-540 6099.13,-575.6 6419.07,-575.6 6419.07,-540 6099.13,-540"/>
<text text-anchor="start" x="6106.13" y="-553.4" font-family="Arial Bold" font-size="18.00">ndb.isopretreatmenttypes</text>
<text text-anchor="start" x="6287.58" y="-553.4" font-family="Arial" font-size="14.00">    </text>
<text text-anchor="start" x="6318.7" y="-553.4" font-family="Arial" font-size="14.00" fill="#666666">[BASE TABLE]</text>
<polygon fill="none" stroke="black" points="6099.13,-509.2 6099.13,-540 6419.07,-540 6419.07,-509.2 6099.13,-509.2"/>
<text text-anchor="start" x="6106.13" y="-521.4" font-family="Arial" font-size="14.00">isopretreatmentqualifier </text>
<text text-anchor="start" x="6256.32" y="-521.4" font-family="Arial" font-size="14.00" fill="#666666">[varchar(50)]</text>
<polygon fill="none" stroke="black" points="6099.13,-478.4 6099.13,-509.2 6419.07,-509.2 6419.07,-478.4 6099.13,-478.4"/>
<text text-anchor="start" x="6106.13" y="-490.6" font-family="Arial" font-size="14.00">isopretreatmenttype </text>
<text text-anchor="start" x="6233.75" y="-490.6" font-family="Arial" font-size="14.00" fill="#666666">[varchar(50)]</text>
<polygon fill="none" stroke="black" points="6099.13,-447.6 6099.13,-478.4 6419.07,-478.4 6419.07,-447.6 6099.13,-447.6"/>
<text text-anchor="start" x="6106.13" y="-459.8" font-family="Arial" font-size="14.00">isopretreatmenttypeid </text>
<text text-anchor="start" x="6244.65" y="-459.8" font-family="Arial" font-size="14.00" fill="#666666">[integer]</text>
<polygon fill="none" stroke="black" points="6099.13,-416.8 6099.13,-447.6 6419.07,-447.6 6419.07,-416.8 6099.13,-416.8"/>
<text text-anchor="start" x="6106.13" y="-429" font-family="Arial" font-size="14.00">recdatecreated </text>
<text text-anchor="start" x="6203.41" y="-429" font-family="Arial" font-size="14.00" fill="#666666">[timestamp(0) without time zone]</text>
<polygon fill="none" stroke="black" points="6099.13,-386 6099.13,-416.8 6419.07,-416.8 6419.07,-386 6099.13,-386"/>
<text text-anchor="start" x="6106.13" y="-398.2" font-family="Arial" font-size="14.00">recdatemodified </text>
<text text-anchor="start" x="6209.63" y="-398.2" font-family="Arial" font-size="14.00" fill="#666666">[timestamp(0) without time zone]</text>
</g>
<!-- ndb.lakeparametertypes -->
<g id="node19" class="node">
<title>ndb.lakeparametertypes</title>
<polygon fill="#efefef" stroke="none" points="6523.2,-555.4 6523.2,-591 6843,-591 6843,-555.4 6523.2,-555.4"/>
<polygon fill="none" stroke="black" points="6523.2,-555.4 6523.2,-591 6843,-591 6843,-555.4 6523.2,-555.4"/>
<text text-anchor="start" x="6535.14" y="-568.8" font-family="Arial Bold" font-size="18.00">ndb.lakeparametertypes</text>
<text text-anchor="start" x="6706.57" y="-568.8" font-family="Arial" font-size="14.00">    </text>
<text text-anchor="start" x="6737.68" y="-568.8" font-family="Arial" font-size="14.00" fill="#666666">[BASE TABLE]</text>
<polygon fill="none" stroke="black" points="6523.2,-524.6 6523.2,-555.4 6843,-555.4 6843,-524.6 6523.2,-524.6"/>
<text text-anchor="start" x="6530.2" y="-536.8" font-family="Arial" font-size="14.00">lakeparameter </text>
<text text-anchor="start" x="6623.58" y="-536.8" font-family="Arial" font-size="14.00" fill="#666666">[varchar(80)]</text>
<polygon fill="none" stroke="black" points="6523.2,-493.8 6523.2,-524.6 6843,-524.6 6843,-493.8 6523.2,-493.8"/>
<text text-anchor="start" x="6530.2" y="-506" font-family="Arial" font-size="14.00">lakeparametercode </text>
<text text-anchor="start" x="6653.94" y="-506" font-family="Arial" font-size="14.00" fill="#666666">[varchar(20)]</text>
<polygon fill="none" stroke="black" points="6523.2,-463 6523.2,-493.8 6843,-493.8 6843,-463 6523.2,-463"/>
<text text-anchor="start" x="6530.2" y="-475.2" font-family="Arial" font-size="14.00">lakeparameterid </text>
<text text-anchor="start" x="6634.48" y="-475.2" font-family="Arial" font-size="14.00" fill="#666666">[integer]</text>
<polygon fill="none" stroke="black" points="6523.2,-432.2 6523.2,-463 6843,-463 6843,-432.2 6523.2,-432.2"/>
<text text-anchor="start" x="6530.2" y="-444.4" font-family="Arial" font-size="14.00">lakeparametershortname </text>
<text text-anchor="start" x="6689.72" y="-444.4" font-family="Arial" font-size="14.00" fill="#666666">[varchar(40)]</text>
<polygon fill="none" stroke="black" points="6523.2,-401.4 6523.2,-432.2 6843,-432.2 6843,-401.4 6523.2,-401.4"/>
<text text-anchor="start" x="6530.2" y="-413.6" font-family="Arial" font-size="14.00">recdatecreated </text>
<text text-anchor="start" x="6627.48" y="-413.6" font-family="Arial" font-size="14.00" fill="#666666">[timestamp(0) without time zone]</text>
<polygon fill="none" stroke="black" points="6523.2,-370.6 6523.2,-401.4 6843,-401.4 6843,-370.6 6523.2,-370.6"/>
<text text-anchor="start" x="6530.2" y="-382.8" font-family="Arial" font-size="14.00">recdatemodified </text>
<text text-anchor="start" x="6633.7" y="-382.8" font-family="Arial" font-size="14.00" fill="#666666">[timestamp(0) without time zone]</text>
</g>
</g>
</svg>
