<?xml version="1.0" encoding="UTF-8" standalone="no"?>
<!DOCTYPE svg PUBLIC "-//W3C//DTD SVG 1.1//EN"
 "http://www.w3.org/Graphics/SVG/1.1/DTD/svg11.dtd">
<!-- Generated by graphviz version 12.1.2 (20240928.0832)
 -->
<!-- Title: Dataset related tables Pages: 1 -->
<svg width="3346pt" height="1432pt"
 viewBox="0.00 0.00 3345.93 1431.60" xmlns="http://www.w3.org/2000/svg" xmlns:xlink="http://www.w3.org/1999/xlink">
<g id="graph0" class="graph" transform="scale(1 1) rotate(0) translate(4 1427.6)">
<title>Dataset related tables</title>
<polygon fill="white" stroke="none" points="-4,4 -4,-1427.6 3341.93,-1427.6 3341.93,4 -4,4"/>
<!-- ap.querytable -->
<g id="node1" class="node">
<title>ap.querytable</title>
<polygon fill="#efefef" stroke="none" points="43.2,-1344.8 43.2,-1380.4 279.14,-1380.4 279.14,-1344.8 43.2,-1344.8"/>
<polygon fill="none" stroke="black" points="43.2,-1344.8 43.2,-1380.4 279.14,-1380.4 279.14,-1344.8 43.2,-1344.8"/>
<text text-anchor="start" x="50.2" y="-1358.2" font-family="Arial Bold" font-size="18.00">ap.querytable</text>
<text text-anchor="start" x="147.65" y="-1358.2" font-family="Arial" font-size="14.00">    </text>
<text text-anchor="start" x="178.77" y="-1358.2" font-family="Arial" font-size="14.00" fill="#666666">[BASE TABLE]</text>
<polygon fill="none" stroke="black" points="43.2,-1314 43.2,-1344.8 279.14,-1344.8 279.14,-1314 43.2,-1314"/>
<text text-anchor="start" x="50.2" y="-1326.2" font-family="Arial" font-size="14.00">agetype </text>
<text text-anchor="start" x="103.91" y="-1326.2" font-family="Arial" font-size="14.00" fill="#666666">[varchar(64)]</text>
<polygon fill="none" stroke="black" points="43.2,-1283.2 43.2,-1314 279.14,-1314 279.14,-1283.2 43.2,-1283.2"/>
<text text-anchor="start" x="50.2" y="-1295.4" font-family="Arial" font-size="14.00">altitude </text>
<text text-anchor="start" x="99.23" y="-1295.4" font-family="Arial" font-size="14.00" fill="#666666">[double precision]</text>
<polygon fill="none" stroke="black" points="43.2,-1252.4 43.2,-1283.2 279.14,-1283.2 279.14,-1252.4 43.2,-1252.4"/>
<text text-anchor="start" x="50.2" y="-1264.6" font-family="Arial" font-size="14.00">chronologyid </text>
<text text-anchor="start" x="133.48" y="-1264.6" font-family="Arial" font-size="14.00" fill="#666666">[integer]</text>
<polygon fill="none" stroke="black" points="43.2,-1221.6 43.2,-1252.4 279.14,-1252.4 279.14,-1221.6 43.2,-1221.6"/>
<text text-anchor="start" x="50.2" y="-1233.8" font-family="Arial" font-size="14.00">collectionunit </text>
<text text-anchor="start" x="135.03" y="-1233.8" font-family="Arial" font-size="14.00" fill="#666666">[jsonb]</text>
<polygon fill="none" stroke="black" points="43.2,-1190.8 43.2,-1221.6 279.14,-1221.6 279.14,-1190.8 43.2,-1190.8"/>
<text text-anchor="start" x="50.2" y="-1203" font-family="Arial" font-size="14.00">collectionunitid </text>
<text text-anchor="start" x="145.92" y="-1203" font-family="Arial" font-size="14.00" fill="#666666">[integer]</text>
<polygon fill="none" stroke="black" points="43.2,-1160 43.2,-1190.8 279.14,-1190.8 279.14,-1160 43.2,-1160"/>
<text text-anchor="start" x="50.2" y="-1172.2" font-family="Arial" font-size="14.00">colltype </text>
<text text-anchor="start" x="101.56" y="-1172.2" font-family="Arial" font-size="14.00" fill="#666666">[varchar(64)]</text>
<polygon fill="none" stroke="black" points="43.2,-1129.2 43.2,-1160 279.14,-1160 279.14,-1129.2 43.2,-1129.2"/>
<text text-anchor="start" x="50.2" y="-1141.4" font-family="Arial" font-size="14.00">contacts </text>
<text text-anchor="start" x="106.23" y="-1141.4" font-family="Arial" font-size="14.00" fill="#666666">[integer[]]</text>
<polygon fill="none" stroke="black" points="43.2,-1098.4 43.2,-1129.2 279.14,-1129.2 279.14,-1098.4 43.2,-1098.4"/>
<text text-anchor="start" x="50.2" y="-1110.6" font-family="Arial" font-size="14.00">databaseid </text>
<text text-anchor="start" x="122.59" y="-1110.6" font-family="Arial" font-size="14.00" fill="#666666">[integer]</text>
<polygon fill="none" stroke="black" points="43.2,-1067.6 43.2,-1098.4 279.14,-1098.4 279.14,-1067.6 43.2,-1067.6"/>
<text text-anchor="start" x="50.2" y="-1079.8" font-family="Arial" font-size="14.00">datasetid </text>
<text text-anchor="start" x="110.91" y="-1079.8" font-family="Arial" font-size="14.00" fill="#666666">[integer]</text>
<polygon fill="none" stroke="black" points="43.2,-1036.8 43.2,-1067.6 279.14,-1067.6 279.14,-1036.8 43.2,-1036.8"/>
<text text-anchor="start" x="50.2" y="-1049" font-family="Arial" font-size="14.00">datasettype </text>
<text text-anchor="start" x="126.48" y="-1049" font-family="Arial" font-size="14.00" fill="#666666">[varchar(64)]</text>
<polygon fill="none" stroke="black" points="43.2,-1006 43.2,-1036.8 279.14,-1036.8 279.14,-1006 43.2,-1006"/>
<text text-anchor="start" x="50.2" y="-1018.2" font-family="Arial" font-size="14.00">depenvt </text>
<text text-anchor="start" x="103.91" y="-1018.2" font-family="Arial" font-size="14.00" fill="#666666">[varchar(255)]</text>
<polygon fill="none" stroke="black" points="43.2,-975.2 43.2,-1006 279.14,-1006 279.14,-975.2 43.2,-975.2"/>
<text text-anchor="start" x="50.2" y="-987.4" font-family="Arial" font-size="14.00">geog </text>
<text text-anchor="start" x="85.23" y="-987.4" font-family="Arial" font-size="14.00" fill="#666666">[geography]</text>
<polygon fill="none" stroke="black" points="43.2,-944.4 43.2,-975.2 279.14,-975.2 279.14,-944.4 43.2,-944.4"/>
<text text-anchor="start" x="50.2" y="-956.6" font-family="Arial" font-size="14.00">geopol </text>
<text text-anchor="start" x="96.13" y="-956.6" font-family="Arial" font-size="14.00" fill="#666666">[integer[]]</text>
<polygon fill="none" stroke="black" points="43.2,-913.6 43.2,-944.4 279.14,-944.4 279.14,-913.6 43.2,-913.6"/>
<text text-anchor="start" x="50.2" y="-925.8" font-family="Arial" font-size="14.00">keywords </text>
<text text-anchor="start" x="113.22" y="-925.8" font-family="Arial" font-size="14.00" fill="#666666">[integer[]]</text>
<polygon fill="none" stroke="black" points="43.2,-882.8 43.2,-913.6 279.14,-913.6 279.14,-882.8 43.2,-882.8"/>
<text text-anchor="start" x="50.2" y="-895" font-family="Arial" font-size="14.00">older </text>
<text text-anchor="start" x="85.22" y="-895" font-family="Arial" font-size="14.00" fill="#666666">[double precision]</text>
<polygon fill="none" stroke="black" points="43.2,-852 43.2,-882.8 279.14,-882.8 279.14,-852 43.2,-852"/>
<text text-anchor="start" x="50.2" y="-864.2" font-family="Arial" font-size="14.00">publications </text>
<text text-anchor="start" x="128.03" y="-864.2" font-family="Arial" font-size="14.00" fill="#666666">[integer[]]</text>
<polygon fill="none" stroke="black" points="43.2,-821.2 43.2,-852 279.14,-852 279.14,-821.2 43.2,-821.2"/>
<text text-anchor="start" x="50.2" y="-833.4" font-family="Arial" font-size="14.00">siteid </text>
<text text-anchor="start" x="86.77" y="-833.4" font-family="Arial" font-size="14.00" fill="#666666">[integer]</text>
<polygon fill="none" stroke="black" points="43.2,-790.4 43.2,-821.2 279.14,-821.2 279.14,-790.4 43.2,-790.4"/>
<text text-anchor="start" x="50.2" y="-802.6" font-family="Arial" font-size="14.00">sitename </text>
<text text-anchor="start" x="110.9" y="-802.6" font-family="Arial" font-size="14.00" fill="#666666">[varchar(128)]</text>
<polygon fill="none" stroke="black" points="43.2,-759.6 43.2,-790.4 279.14,-790.4 279.14,-759.6 43.2,-759.6"/>
<text text-anchor="start" x="50.2" y="-771.8" font-family="Arial" font-size="14.00">taxa </text>
<text text-anchor="start" x="80.55" y="-771.8" font-family="Arial" font-size="14.00" fill="#666666">[integer[]]</text>
<polygon fill="none" stroke="black" points="43.2,-728.8 43.2,-759.6 279.14,-759.6 279.14,-728.8 43.2,-728.8"/>
<text text-anchor="start" x="50.2" y="-741" font-family="Arial" font-size="14.00">younger </text>
<text text-anchor="start" x="104.68" y="-741" font-family="Arial" font-size="14.00" fill="#666666">[double precision]</text>
</g>
<!-- ndb.datasetdatabases -->
<g id="node2" class="node">
<title>ndb.datasetdatabases</title>
<polygon fill="#efefef" stroke="none" points="383.27,-1098.4 383.27,-1134 703.07,-1134 703.07,-1098.4 383.27,-1098.4"/>
<polygon fill="none" stroke="black" points="383.27,-1098.4 383.27,-1134 703.07,-1134 703.07,-1098.4 383.27,-1098.4"/>
<text text-anchor="start" x="405.71" y="-1111.8" font-family="Arial Bold" font-size="18.00">ndb.datasetdatabases</text>
<text text-anchor="start" x="556.15" y="-1111.8" font-family="Arial" font-size="14.00">    </text>
<text text-anchor="start" x="587.26" y="-1111.8" font-family="Arial" font-size="14.00" fill="#666666">[BASE TABLE]</text>
<polygon fill="none" stroke="black" points="383.27,-1067.6 383.27,-1098.4 703.07,-1098.4 703.07,-1067.6 383.27,-1067.6"/>
<text text-anchor="start" x="390.27" y="-1079.8" font-family="Arial" font-size="14.00">databaseid </text>
<text text-anchor="start" x="462.66" y="-1079.8" font-family="Arial" font-size="14.00" fill="#666666">[integer]</text>
<polygon fill="none" stroke="black" points="383.27,-1036.8 383.27,-1067.6 703.07,-1067.6 703.07,-1036.8 383.27,-1036.8"/>
<text text-anchor="start" x="390.27" y="-1049" font-family="Arial" font-size="14.00">datasetid </text>
<text text-anchor="start" x="450.98" y="-1049" font-family="Arial" font-size="14.00" fill="#666666">[integer]</text>
<polygon fill="none" stroke="black" points="383.27,-1006 383.27,-1036.8 703.07,-1036.8 703.07,-1006 383.27,-1006"/>
<text text-anchor="start" x="390.27" y="-1018.2" font-family="Arial" font-size="14.00">recdatecreated </text>
<text text-anchor="start" x="487.55" y="-1018.2" font-family="Arial" font-size="14.00" fill="#666666">[timestamp(0) without time zone]</text>
<polygon fill="none" stroke="black" points="383.27,-975.2 383.27,-1006 703.07,-1006 703.07,-975.2 383.27,-975.2"/>
<text text-anchor="start" x="390.27" y="-987.4" font-family="Arial" font-size="14.00">recdatemodified </text>
<text text-anchor="start" x="493.77" y="-987.4" font-family="Arial" font-size="14.00" fill="#666666">[timestamp(0) without time zone]</text>
</g>
<!-- ndb.datasets -->
<g id="node6" class="node">
<title>ndb.datasets</title>
<polygon fill="#efefef" stroke="none" points="1433.27,-570.8 1433.27,-606.4 1753.07,-606.4 1753.07,-570.8 1433.27,-570.8"/>
<polygon fill="none" stroke="black" points="1433.27,-570.8 1433.27,-606.4 1753.07,-606.4 1753.07,-570.8 1433.27,-570.8"/>
<text text-anchor="start" x="1486.69" y="-584.2" font-family="Arial Bold" font-size="18.00">ndb.datasets</text>
<text text-anchor="start" x="1575.17" y="-584.2" font-family="Arial" font-size="14.00">    </text>
<text text-anchor="start" x="1606.28" y="-584.2" font-family="Arial" font-size="14.00" fill="#666666">[BASE TABLE]</text>
<polygon fill="none" stroke="black" points="1433.27,-540 1433.27,-570.8 1753.07,-570.8 1753.07,-540 1433.27,-540"/>
<text text-anchor="start" x="1440.27" y="-552.2" font-family="Arial" font-size="14.00">collectionunitid </text>
<text text-anchor="start" x="1536" y="-552.2" font-family="Arial" font-size="14.00" fill="#666666">[integer]</text>
<polygon fill="none" stroke="black" points="1433.27,-509.2 1433.27,-540 1753.07,-540 1753.07,-509.2 1433.27,-509.2"/>
<text text-anchor="start" x="1440.27" y="-521.4" font-family="Arial" font-size="14.00">datasetid </text>
<text text-anchor="start" x="1500.98" y="-521.4" font-family="Arial" font-size="14.00" fill="#666666">[integer]</text>
<polygon fill="none" stroke="black" points="1433.27,-478.4 1433.27,-509.2 1753.07,-509.2 1753.07,-478.4 1433.27,-478.4"/>
<text text-anchor="start" x="1440.27" y="-490.6" font-family="Arial" font-size="14.00">datasetname </text>
<text text-anchor="start" x="1525.11" y="-490.6" font-family="Arial" font-size="14.00" fill="#666666">[varchar(80)]</text>
<polygon fill="none" stroke="black" points="1433.27,-447.6 1433.27,-478.4 1753.07,-478.4 1753.07,-447.6 1433.27,-447.6"/>
<text text-anchor="start" x="1440.27" y="-459.8" font-family="Arial" font-size="14.00">datasettypeid </text>
<text text-anchor="start" x="1527.44" y="-459.8" font-family="Arial" font-size="14.00" fill="#666666">[integer]</text>
<polygon fill="none" stroke="black" points="1433.27,-416.8 1433.27,-447.6 1753.07,-447.6 1753.07,-416.8 1433.27,-416.8"/>
<text text-anchor="start" x="1440.27" y="-429" font-family="Arial" font-size="14.00">embargoid </text>
<text text-anchor="start" x="1510.31" y="-429" font-family="Arial" font-size="14.00" fill="#666666">[integer]</text>
<polygon fill="none" stroke="black" points="1433.27,-386 1433.27,-416.8 1753.07,-416.8 1753.07,-386 1433.27,-386"/>
<text text-anchor="start" x="1440.27" y="-398.2" font-family="Arial" font-size="14.00">notes </text>
<text text-anchor="start" x="1478.41" y="-398.2" font-family="Arial" font-size="14.00" fill="#666666">[text]</text>
<polygon fill="none" stroke="black" points="1433.27,-355.2 1433.27,-386 1753.07,-386 1753.07,-355.2 1433.27,-355.2"/>
<text text-anchor="start" x="1440.27" y="-367.4" font-family="Arial" font-size="14.00">recdatecreated </text>
<text text-anchor="start" x="1537.55" y="-367.4" font-family="Arial" font-size="14.00" fill="#666666">[timestamp(0) without time zone]</text>
<polygon fill="none" stroke="black" points="1433.27,-324.4 1433.27,-355.2 1753.07,-355.2 1753.07,-324.4 1433.27,-324.4"/>
<text text-anchor="start" x="1440.27" y="-336.6" font-family="Arial" font-size="14.00">recdatemodified </text>
<text text-anchor="start" x="1543.77" y="-336.6" font-family="Arial" font-size="14.00" fill="#666666">[timestamp(0) without time zone]</text>
</g>
<!-- ndb.datasetdatabases&#45;&gt;ndb.datasets -->
<g id="edge1" class="edge">
<title>ndb.datasetdatabases:datasetid&#45;&gt;ndb.datasets:datasetid</title>
<path fill="none" stroke="black" d="M714.16,-1050.4C778.84,-1025.23 702.32,-743.72 755.17,-685.6 859.22,-571.17 1277.61,-524.6 1432.27,-524.6"/>
<polygon fill="black" stroke="black" points="714.24,-1050.38 703.61,-1047.71 708.99,-1051.32 704.73,-1052.08 704.73,-1052.08 704.73,-1052.08 708.99,-1051.32 705.19,-1056.57 714.24,-1050.38"/>
<text text-anchor="start" x="444.27" y="-1036.2" font-family="Arial" font-size="10.00">FOREIGN KEY (datasetid) REFERENCES ndb.datasets(datasetid) ON UPDATE CASCADE ON DELETE CASCADE</text>
</g>
<!-- ndb.datasetdoi -->
<g id="node3" class="node">
<title>ndb.datasetdoi</title>
<polygon fill="#efefef" stroke="none" points="2927.27,-1113.8 2927.27,-1149.4 3247.07,-1149.4 3247.07,-1113.8 2927.27,-1113.8"/>
<polygon fill="none" stroke="black" points="2927.27,-1113.8 2927.27,-1149.4 3247.07,-1149.4 3247.07,-1113.8 2927.27,-1113.8"/>
<text text-anchor="start" x="2972.69" y="-1127.2" font-family="Arial Bold" font-size="18.00">ndb.datasetdoi</text>
<text text-anchor="start" x="3077.16" y="-1127.2" font-family="Arial" font-size="14.00">    </text>
<text text-anchor="start" x="3108.28" y="-1127.2" font-family="Arial" font-size="14.00" fill="#666666">[BASE TABLE]</text>
<polygon fill="none" stroke="black" points="2927.27,-1083 2927.27,-1113.8 3247.07,-1113.8 3247.07,-1083 2927.27,-1083"/>
<text text-anchor="start" x="2934.27" y="-1095.2" font-family="Arial" font-size="14.00">datasetid </text>
<text text-anchor="start" x="2994.98" y="-1095.2" font-family="Arial" font-size="14.00" fill="#666666">[integer]</text>
<polygon fill="none" stroke="black" points="2927.27,-1052.2 2927.27,-1083 3247.07,-1083 3247.07,-1052.2 2927.27,-1052.2"/>
<text text-anchor="start" x="2934.27" y="-1064.4" font-family="Arial" font-size="14.00">doi </text>
<text text-anchor="start" x="2956.84" y="-1064.4" font-family="Arial" font-size="14.00" fill="#666666">[varchar(50)]</text>
<polygon fill="none" stroke="black" points="2927.27,-1021.4 2927.27,-1052.2 3247.07,-1052.2 3247.07,-1021.4 2927.27,-1021.4"/>
<text text-anchor="start" x="2934.27" y="-1033.6" font-family="Arial" font-size="14.00">published </text>
<text text-anchor="start" x="2998.1" y="-1033.6" font-family="Arial" font-size="14.00" fill="#666666">[boolean]</text>
<polygon fill="none" stroke="black" points="2927.27,-990.6 2927.27,-1021.4 3247.07,-1021.4 3247.07,-990.6 2927.27,-990.6"/>
<text text-anchor="start" x="2934.27" y="-1002.8" font-family="Arial" font-size="14.00">recdatecreated </text>
<text text-anchor="start" x="3031.55" y="-1002.8" font-family="Arial" font-size="14.00" fill="#666666">[timestamp(0) without time zone]</text>
<polygon fill="none" stroke="black" points="2927.27,-959.8 2927.27,-990.6 3247.07,-990.6 3247.07,-959.8 2927.27,-959.8"/>
<text text-anchor="start" x="2934.27" y="-972" font-family="Arial" font-size="14.00">recdatemodified </text>
<text text-anchor="start" x="3037.77" y="-972" font-family="Arial" font-size="14.00" fill="#666666">[timestamp(0) without time zone]</text>
</g>
<!-- ndb.datasetpis -->
<g id="node4" class="node">
<title>ndb.datasetpis</title>
<polygon fill="#efefef" stroke="none" points="807.27,-1113.8 807.27,-1149.4 1127.07,-1149.4 1127.07,-1113.8 807.27,-1113.8"/>
<polygon fill="none" stroke="black" points="807.27,-1113.8 807.27,-1149.4 1127.07,-1149.4 1127.07,-1113.8 807.27,-1113.8"/>
<text text-anchor="start" x="853.69" y="-1127.2" font-family="Arial Bold" font-size="18.00">ndb.datasetpis</text>
<text text-anchor="start" x="956.17" y="-1127.2" font-family="Arial" font-size="14.00">    </text>
<text text-anchor="start" x="987.28" y="-1127.2" font-family="Arial" font-size="14.00" fill="#666666">[BASE TABLE]</text>
<polygon fill="none" stroke="black" points="807.27,-1083 807.27,-1113.8 1127.07,-1113.8 1127.07,-1083 807.27,-1083"/>
<text text-anchor="start" x="814.27" y="-1095.2" font-family="Arial" font-size="14.00">contactid </text>
<text text-anchor="start" x="874.2" y="-1095.2" font-family="Arial" font-size="14.00" fill="#666666">[integer]</text>
<polygon fill="none" stroke="black" points="807.27,-1052.2 807.27,-1083 1127.07,-1083 1127.07,-1052.2 807.27,-1052.2"/>
<text text-anchor="start" x="814.27" y="-1064.4" font-family="Arial" font-size="14.00">datasetid </text>
<text text-anchor="start" x="874.98" y="-1064.4" font-family="Arial" font-size="14.00" fill="#666666">[integer]</text>
<polygon fill="none" stroke="black" points="807.27,-1021.4 807.27,-1052.2 1127.07,-1052.2 1127.07,-1021.4 807.27,-1021.4"/>
<text text-anchor="start" x="814.27" y="-1033.6" font-family="Arial" font-size="14.00">piorder </text>
<text text-anchor="start" x="861.74" y="-1033.6" font-family="Arial" font-size="14.00" fill="#666666">[integer]</text>
<polygon fill="none" stroke="black" points="807.27,-990.6 807.27,-1021.4 1127.07,-1021.4 1127.07,-990.6 807.27,-990.6"/>
<text text-anchor="start" x="814.27" y="-1002.8" font-family="Arial" font-size="14.00">recdatecreated </text>
<text text-anchor="start" x="911.55" y="-1002.8" font-family="Arial" font-size="14.00" fill="#666666">[timestamp(0) without time zone]</text>
<polygon fill="none" stroke="black" points="807.27,-959.8 807.27,-990.6 1127.07,-990.6 1127.07,-959.8 807.27,-959.8"/>
<text text-anchor="start" x="814.27" y="-972" font-family="Arial" font-size="14.00">recdatemodified </text>
<text text-anchor="start" x="917.77" y="-972" font-family="Arial" font-size="14.00" fill="#666666">[timestamp(0) without time zone]</text>
</g>
<!-- ndb.datasetpis&#45;&gt;ndb.datasets -->
<g id="edge2" class="edge">
<title>ndb.datasetpis:datasetid&#45;&gt;ndb.datasets:datasetid</title>
<path fill="none" stroke="black" d="M1138.21,-1065.93C1207.02,-1041.41 1135.04,-754.67 1179.17,-685.6 1250.96,-573.26 1298.95,-524.6 1432.27,-524.6"/>
<polygon fill="black" stroke="black" points="1138.27,-1065.92 1127.67,-1063.11 1133,-1066.79 1128.73,-1067.49 1128.73,-1067.49 1128.73,-1067.49 1133,-1066.79 1129.13,-1071.99 1138.27,-1065.92"/>
<text text-anchor="start" x="1001.67" y="-1051.6" font-family="Arial" font-size="10.00">FOREIGN KEY (datasetid) REFERENCES ndb.datasets(datasetid) ON UPDATE CASCADE ON DELETE CASCADE</text>
</g>
<!-- ndb.datasetpublications -->
<g id="node5" class="node">
<title>ndb.datasetpublications</title>
<polygon fill="#efefef" stroke="none" points="1231.27,-1113.8 1231.27,-1149.4 1551.07,-1149.4 1551.07,-1113.8 1231.27,-1113.8"/>
<polygon fill="none" stroke="black" points="1231.27,-1113.8 1231.27,-1149.4 1551.07,-1149.4 1551.07,-1113.8 1231.27,-1113.8"/>
<text text-anchor="start" x="1244.2" y="-1127.2" font-family="Arial Bold" font-size="18.00">ndb.datasetpublications</text>
<text text-anchor="start" x="1413.66" y="-1127.2" font-family="Arial" font-size="14.00">    </text>
<text text-anchor="start" x="1444.77" y="-1127.2" font-family="Arial" font-size="14.00" fill="#666666">[BASE TABLE]</text>
<polygon fill="none" stroke="black" points="1231.27,-1083 1231.27,-1113.8 1551.07,-1113.8 1551.07,-1083 1231.27,-1083"/>
<text text-anchor="start" x="1238.27" y="-1095.2" font-family="Arial" font-size="14.00">datasetid </text>
<text text-anchor="start" x="1298.98" y="-1095.2" font-family="Arial" font-size="14.00" fill="#666666">[integer]</text>
<polygon fill="none" stroke="black" points="1231.27,-1052.2 1231.27,-1083 1551.07,-1083 1551.07,-1052.2 1231.27,-1052.2"/>
<text text-anchor="start" x="1238.27" y="-1064.4" font-family="Arial" font-size="14.00">primarypub </text>
<text text-anchor="start" x="1312.19" y="-1064.4" font-family="Arial" font-size="14.00" fill="#666666">[boolean]</text>
<polygon fill="none" stroke="black" points="1231.27,-1021.4 1231.27,-1052.2 1551.07,-1052.2 1551.07,-1021.4 1231.27,-1021.4"/>
<text text-anchor="start" x="1238.27" y="-1033.6" font-family="Arial" font-size="14.00">publicationid </text>
<text text-anchor="start" x="1320" y="-1033.6" font-family="Arial" font-size="14.00" fill="#666666">[integer]</text>
<polygon fill="none" stroke="black" points="1231.27,-990.6 1231.27,-1021.4 1551.07,-1021.4 1551.07,-990.6 1231.27,-990.6"/>
<text text-anchor="start" x="1238.27" y="-1002.8" font-family="Arial" font-size="14.00">recdatecreated </text>
<text text-anchor="start" x="1335.55" y="-1002.8" font-family="Arial" font-size="14.00" fill="#666666">[timestamp(0) without time zone]</text>
<polygon fill="none" stroke="black" points="1231.27,-959.8 1231.27,-990.6 1551.07,-990.6 1551.07,-959.8 1231.27,-959.8"/>
<text text-anchor="start" x="1238.27" y="-972" font-family="Arial" font-size="14.00">recdatemodified </text>
<text text-anchor="start" x="1341.77" y="-972" font-family="Arial" font-size="14.00" fill="#666666">[timestamp(0) without time zone]</text>
</g>
<!-- ndb.datasetpublications&#45;&gt;ndb.datasets -->
<g id="edge3" class="edge">
<title>ndb.datasetpublications:datasetid&#45;&gt;ndb.datasets:datasetid</title>
<path fill="none" stroke="black" d="M1562.1,-1097.79C1627.14,-1089.21 1567.2,-992.07 1551.07,-916.6 1523.97,-789.76 1460.53,-776.41 1433.27,-649.6 1421.6,-595.28 1376.71,-524.6 1432.27,-524.6"/>
<polygon fill="black" stroke="black" points="1562.39,-1097.77 1552.13,-1093.89 1557.06,-1098.1 1552.74,-1098.36 1552.74,-1098.36 1552.74,-1098.36 1557.06,-1098.1 1552.68,-1102.87 1562.39,-1097.77"/>
<text text-anchor="start" x="1559.07" y="-1108.4" font-family="Arial" font-size="10.00">FOREIGN KEY (datasetid) REFERENCES ndb.datasets(datasetid) ON UPDATE CASCADE ON DELETE CASCADE</text>
</g>
<!-- ndb.datasettypes -->
<g id="node11" class="node">
<title>ndb.datasettypes</title>
<polygon fill="#efefef" stroke="none" points="1647.27,-166.4 1647.27,-202 1967.07,-202 1967.07,-166.4 1647.27,-166.4"/>
<polygon fill="none" stroke="black" points="1647.27,-166.4 1647.27,-202 1967.07,-202 1967.07,-166.4 1647.27,-166.4"/>
<text text-anchor="start" x="1685.19" y="-179.8" font-family="Arial Bold" font-size="18.00">ndb.datasettypes</text>
<text text-anchor="start" x="1804.66" y="-179.8" font-family="Arial" font-size="14.00">    </text>
<text text-anchor="start" x="1835.78" y="-179.8" font-family="Arial" font-size="14.00" fill="#666666">[BASE TABLE]</text>
<polygon fill="none" stroke="black" points="1647.27,-135.6 1647.27,-166.4 1967.07,-166.4 1967.07,-135.6 1647.27,-135.6"/>
<text text-anchor="start" x="1654.27" y="-147.8" font-family="Arial" font-size="14.00">datasettype </text>
<text text-anchor="start" x="1730.55" y="-147.8" font-family="Arial" font-size="14.00" fill="#666666">[varchar(64)]</text>
<polygon fill="none" stroke="black" points="1647.27,-104.8 1647.27,-135.6 1967.07,-135.6 1967.07,-104.8 1647.27,-104.8"/>
<text text-anchor="start" x="1654.27" y="-117" font-family="Arial" font-size="14.00">datasettypeid </text>
<text text-anchor="start" x="1741.44" y="-117" font-family="Arial" font-size="14.00" fill="#666666">[integer]</text>
<polygon fill="none" stroke="black" points="1647.27,-74 1647.27,-104.8 1967.07,-104.8 1967.07,-74 1647.27,-74"/>
<text text-anchor="start" x="1654.27" y="-86.2" font-family="Arial" font-size="14.00">recdatecreated </text>
<text text-anchor="start" x="1751.55" y="-86.2" font-family="Arial" font-size="14.00" fill="#666666">[timestamp(0) without time zone]</text>
<polygon fill="none" stroke="black" points="1647.27,-43.2 1647.27,-74 1967.07,-74 1967.07,-43.2 1647.27,-43.2"/>
<text text-anchor="start" x="1654.27" y="-55.4" font-family="Arial" font-size="14.00">recdatemodified </text>
<text text-anchor="start" x="1757.77" y="-55.4" font-family="Arial" font-size="14.00" fill="#666666">[timestamp(0) without time zone]</text>
</g>
<!-- ndb.datasets&#45;&gt;ndb.datasettypes -->
<g id="edge4" class="edge">
<title>ndb.datasets:datasettypeid&#45;&gt;ndb.datasettypes:datasettypeid</title>
<path fill="none" stroke="black" d="M1764.27,-462.31C1831.74,-452.66 1798.17,-343.82 1753.07,-281.2 1724.04,-240.9 1676.35,-285.47 1647.27,-245.2 1614.75,-200.16 1590.71,-120.2 1646.27,-120.2"/>
<polygon fill="black" stroke="black" points="1764.38,-462.3 1754.1,-458.49 1759.06,-462.66 1754.74,-462.95 1754.74,-462.95 1754.74,-462.95 1759.06,-462.66 1754.71,-467.47 1764.38,-462.3"/>
<text text-anchor="start" x="1170.76" y="-473" font-family="Arial" font-size="10.00">FOREIGN KEY (datasettypeid) REFERENCES ndb.datasettypes(datasettypeid) ON UPDATE CASCADE ON DELETE CASCADE</text>
</g>
<!-- ndb.datasetsubmissions -->
<g id="node7" class="node">
<title>ndb.datasetsubmissions</title>
<polygon fill="#efefef" stroke="none" points="2503.27,-1175.4 2503.27,-1211 2823.07,-1211 2823.07,-1175.4 2503.27,-1175.4"/>
<polygon fill="none" stroke="black" points="2503.27,-1175.4 2503.27,-1211 2823.07,-1211 2823.07,-1175.4 2503.27,-1175.4"/>
<text text-anchor="start" x="2516.18" y="-1188.8" font-family="Arial Bold" font-size="18.00">ndb.datasetsubmissions</text>
<text text-anchor="start" x="2685.68" y="-1188.8" font-family="Arial" font-size="14.00">    </text>
<text text-anchor="start" x="2716.79" y="-1188.8" font-family="Arial" font-size="14.00" fill="#666666">[BASE TABLE]</text>
<polygon fill="none" stroke="black" points="2503.27,-1144.6 2503.27,-1175.4 2823.07,-1175.4 2823.07,-1144.6 2503.27,-1144.6"/>
<text text-anchor="start" x="2510.27" y="-1156.8" font-family="Arial" font-size="14.00">contactid </text>
<text text-anchor="start" x="2570.2" y="-1156.8" font-family="Arial" font-size="14.00" fill="#666666">[integer]</text>
<polygon fill="none" stroke="black" points="2503.27,-1113.8 2503.27,-1144.6 2823.07,-1144.6 2823.07,-1113.8 2503.27,-1113.8"/>
<text text-anchor="start" x="2510.27" y="-1126" font-family="Arial" font-size="14.00">databaseid </text>
<text text-anchor="start" x="2582.66" y="-1126" font-family="Arial" font-size="14.00" fill="#666666">[integer]</text>
<polygon fill="none" stroke="black" points="2503.27,-1083 2503.27,-1113.8 2823.07,-1113.8 2823.07,-1083 2503.27,-1083"/>
<text text-anchor="start" x="2510.27" y="-1095.2" font-family="Arial" font-size="14.00">datasetid </text>
<text text-anchor="start" x="2570.98" y="-1095.2" font-family="Arial" font-size="14.00" fill="#666666">[integer]</text>
<polygon fill="none" stroke="black" points="2503.27,-1052.2 2503.27,-1083 2823.07,-1083 2823.07,-1052.2 2503.27,-1052.2"/>
<text text-anchor="start" x="2510.27" y="-1064.4" font-family="Arial" font-size="14.00">notes </text>
<text text-anchor="start" x="2548.41" y="-1064.4" font-family="Arial" font-size="14.00" fill="#666666">[text]</text>
<polygon fill="none" stroke="black" points="2503.27,-1021.4 2503.27,-1052.2 2823.07,-1052.2 2823.07,-1021.4 2503.27,-1021.4"/>
<text text-anchor="start" x="2510.27" y="-1033.6" font-family="Arial" font-size="14.00">recdatecreated </text>
<text text-anchor="start" x="2607.55" y="-1033.6" font-family="Arial" font-size="14.00" fill="#666666">[timestamp(0) without time zone]</text>
<polygon fill="none" stroke="black" points="2503.27,-990.6 2503.27,-1021.4 2823.07,-1021.4 2823.07,-990.6 2503.27,-990.6"/>
<text text-anchor="start" x="2510.27" y="-1002.8" font-family="Arial" font-size="14.00">recdatemodified </text>
<text text-anchor="start" x="2613.77" y="-1002.8" font-family="Arial" font-size="14.00" fill="#666666">[timestamp(0) without time zone]</text>
<polygon fill="none" stroke="black" points="2503.27,-959.8 2503.27,-990.6 2823.07,-990.6 2823.07,-959.8 2503.27,-959.8"/>
<text text-anchor="start" x="2510.27" y="-972" font-family="Arial" font-size="14.00">submissiondate </text>
<text text-anchor="start" x="2611.44" y="-972" font-family="Arial" font-size="14.00" fill="#666666">[date]</text>
<polygon fill="none" stroke="black" points="2503.27,-929 2503.27,-959.8 2823.07,-959.8 2823.07,-929 2503.27,-929"/>
<text text-anchor="start" x="2510.27" y="-941.2" font-family="Arial" font-size="14.00">submissionid </text>
<text text-anchor="start" x="2595.09" y="-941.2" font-family="Arial" font-size="14.00" fill="#666666">[integer]</text>
<polygon fill="none" stroke="black" points="2503.27,-898.2 2503.27,-929 2823.07,-929 2823.07,-898.2 2503.27,-898.2"/>
<text text-anchor="start" x="2510.27" y="-910.4" font-family="Arial" font-size="14.00">submissiontypeid </text>
<text text-anchor="start" x="2621.55" y="-910.4" font-family="Arial" font-size="14.00" fill="#666666">[integer]</text>
</g>
<!-- ndb.datasetsubmissions&#45;&gt;ndb.datasets -->
<g id="edge5" class="edge">
<title>ndb.datasetsubmissions:datasetid&#45;&gt;ndb.datasets:datasetid</title>
<path fill="none" stroke="black" d="M2492.34,-1096.84C2418.07,-1071.52 2516.06,-746.25 2451.17,-685.6 2346.13,-587.42 1922.26,-733.05 1805.17,-649.6 1756.3,-614.77 1814.09,-524.6 1754.07,-524.6"/>
<polygon fill="black" stroke="black" points="2492.06,-1096.79 2501.24,-1102.79 2497.33,-1097.62 2501.61,-1098.3 2501.61,-1098.3 2501.61,-1098.3 2497.33,-1097.62 2502.64,-1093.9 2492.06,-1096.79"/>
<text text-anchor="start" x="2509.27" y="-1108.4" font-family="Arial" font-size="10.00">FOREIGN KEY (datasetid) REFERENCES ndb.datasets(datasetid) ON UPDATE CASCADE ON DELETE CASCADE</text>
</g>
<!-- ndb.datasetsubmissiontypes -->
<g id="node8" class="node">
<title>ndb.datasetsubmissiontypes</title>
<polygon fill="#efefef" stroke="none" points="2493.68,-509.2 2493.68,-544.8 2832.66,-544.8 2832.66,-509.2 2493.68,-509.2"/>
<polygon fill="none" stroke="black" points="2493.68,-509.2 2493.68,-544.8 2832.66,-544.8 2832.66,-509.2 2493.68,-509.2"/>
<text text-anchor="start" x="2500.68" y="-522.6" font-family="Arial Bold" font-size="18.00">ndb.datasetsubmissiontypes</text>
<text text-anchor="start" x="2701.17" y="-522.6" font-family="Arial" font-size="14.00">    </text>
<text text-anchor="start" x="2732.29" y="-522.6" font-family="Arial" font-size="14.00" fill="#666666">[BASE TABLE]</text>
<polygon fill="none" stroke="black" points="2493.68,-478.4 2493.68,-509.2 2832.66,-509.2 2832.66,-478.4 2493.68,-478.4"/>
<text text-anchor="start" x="2500.68" y="-490.6" font-family="Arial" font-size="14.00">recdatecreated </text>
<text text-anchor="start" x="2597.97" y="-490.6" font-family="Arial" font-size="14.00" fill="#666666">[timestamp(0) without time zone]</text>
<polygon fill="none" stroke="black" points="2493.68,-447.6 2493.68,-478.4 2832.66,-478.4 2832.66,-447.6 2493.68,-447.6"/>
<text text-anchor="start" x="2500.68" y="-459.8" font-family="Arial" font-size="14.00">recdatemodified </text>
<text text-anchor="start" x="2604.19" y="-459.8" font-family="Arial" font-size="14.00" fill="#666666">[timestamp(0) without time zone]</text>
<polygon fill="none" stroke="black" points="2493.68,-416.8 2493.68,-447.6 2832.66,-447.6 2832.66,-416.8 2493.68,-416.8"/>
<text text-anchor="start" x="2500.68" y="-429" font-family="Arial" font-size="14.00">submissiontype </text>
<text text-anchor="start" x="2601.06" y="-429" font-family="Arial" font-size="14.00" fill="#666666">[varchar(80)]</text>
<polygon fill="none" stroke="black" points="2493.68,-386 2493.68,-416.8 2832.66,-416.8 2832.66,-386 2493.68,-386"/>
<text text-anchor="start" x="2500.68" y="-398.2" font-family="Arial" font-size="14.00">submissiontypeid </text>
<text text-anchor="start" x="2611.96" y="-398.2" font-family="Arial" font-size="14.00" fill="#666666">[integer]</text>
</g>
<!-- ndb.datasetsubmissions&#45;&gt;ndb.datasetsubmissiontypes -->
<g id="edge6" class="edge">
<title>ndb.datasetsubmissions:submissiontypeid&#45;&gt;ndb.datasetsubmissiontypes:submissiontypeid</title>
<path fill="none" stroke="black" d="M2663.37,-887.17C2669.82,-731.02 2827.38,-744.02 2875.86,-588 2902.5,-502.27 2939.19,-449.63 2875.86,-386 2842.52,-352.5 2663.17,-337.74 2663.17,-385"/>
<polygon fill="black" stroke="black" points="2663.38,-886.87 2658.68,-896.77 2663.27,-892.2 2663.18,-896.53 2663.18,-896.53 2663.18,-896.53 2663.27,-892.2 2667.68,-896.96 2663.38,-886.87"/>
<text text-anchor="start" x="2670.17" y="-881.2" font-family="Arial" font-size="10.00">FOREIGN KEY (submissiontypeid) REFERENCES ndb.datasetsubmissiontypes(submissiontypeid) ON UPDATE CASCADE ON DELETE CASCADE</text>
</g>
<!-- ndb.datasettaxagrouptypes -->
<g id="node9" class="node">
<title>ndb.datasettaxagrouptypes</title>
<polygon fill="#efefef" stroke="none" points="1857.2,-509.2 1857.2,-544.8 2187.14,-544.8 2187.14,-509.2 1857.2,-509.2"/>
<polygon fill="none" stroke="black" points="1857.2,-509.2 1857.2,-544.8 2187.14,-544.8 2187.14,-509.2 1857.2,-509.2"/>
<text text-anchor="start" x="1864.2" y="-522.6" font-family="Arial Bold" font-size="18.00">ndb.datasettaxagrouptypes</text>
<text text-anchor="start" x="2055.65" y="-522.6" font-family="Arial" font-size="14.00">    </text>
<text text-anchor="start" x="2086.77" y="-522.6" font-family="Arial" font-size="14.00" fill="#666666">[BASE TABLE]</text>
<polygon fill="none" stroke="black" points="1857.2,-478.4 1857.2,-509.2 2187.14,-509.2 2187.14,-478.4 1857.2,-478.4"/>
<text text-anchor="start" x="1864.2" y="-490.6" font-family="Arial" font-size="14.00">datasettypeid </text>
<text text-anchor="start" x="1951.38" y="-490.6" font-family="Arial" font-size="14.00" fill="#666666">[integer]</text>
<polygon fill="none" stroke="black" points="1857.2,-447.6 1857.2,-478.4 2187.14,-478.4 2187.14,-447.6 1857.2,-447.6"/>
<text text-anchor="start" x="1864.2" y="-459.8" font-family="Arial" font-size="14.00">recdatecreated </text>
<text text-anchor="start" x="1961.49" y="-459.8" font-family="Arial" font-size="14.00" fill="#666666">[timestamp(0) without time zone]</text>
<polygon fill="none" stroke="black" points="1857.2,-416.8 1857.2,-447.6 2187.14,-447.6 2187.14,-416.8 1857.2,-416.8"/>
<text text-anchor="start" x="1864.2" y="-429" font-family="Arial" font-size="14.00">recdatemodified </text>
<text text-anchor="start" x="1967.71" y="-429" font-family="Arial" font-size="14.00" fill="#666666">[timestamp(0) without time zone]</text>
<polygon fill="none" stroke="black" points="1857.2,-386 1857.2,-416.8 2187.14,-416.8 2187.14,-386 1857.2,-386"/>
<text text-anchor="start" x="1864.2" y="-398.2" font-family="Arial" font-size="14.00">taxagroupid </text>
<text text-anchor="start" x="1941.26" y="-398.2" font-family="Arial" font-size="14.00" fill="#666666">[varchar(3)]</text>
</g>
<!-- ndb.datasettaxagrouptypes&#45;&gt;ndb.datasettypes -->
<g id="edge7" class="edge">
<title>ndb.datasettaxagrouptypes:datasettypeid&#45;&gt;ndb.datasettypes:datasettypeid</title>
<path fill="none" stroke="black" d="M1845.81,-492.96C1793.63,-483.71 1831.07,-400.47 1857.2,-342.8 1884.17,-283.31 1940.07,-304.67 1967.07,-245.2 1990.04,-194.61 2023.63,-120.2 1968.07,-120.2"/>
<polygon fill="black" stroke="black" points="1845.9,-492.96 1855.51,-498.26 1851.22,-493.4 1855.54,-493.75 1855.54,-493.75 1855.54,-493.75 1851.22,-493.4 1856.24,-489.29 1845.9,-492.96"/>
<text text-anchor="start" x="1863.2" y="-503.8" font-family="Arial" font-size="10.00">FOREIGN KEY (datasettypeid) REFERENCES ndb.datasettypes(datasettypeid) ON UPDATE CASCADE ON DELETE CASCADE</text>
</g>
<!-- ndb.datasettaxonnotes -->
<g id="node10" class="node">
<title>ndb.datasettaxonnotes</title>
<polygon fill="#efefef" stroke="none" points="1655.27,-1144.6 1655.27,-1180.2 1975.07,-1180.2 1975.07,-1144.6 1655.27,-1144.6"/>
<polygon fill="none" stroke="black" points="1655.27,-1144.6 1655.27,-1180.2 1975.07,-1180.2 1975.07,-1144.6 1655.27,-1144.6"/>
<text text-anchor="start" x="1673.2" y="-1158" font-family="Arial Bold" font-size="18.00">ndb.datasettaxonnotes</text>
<text text-anchor="start" x="1832.66" y="-1158" font-family="Arial" font-size="14.00">    </text>
<text text-anchor="start" x="1863.77" y="-1158" font-family="Arial" font-size="14.00" fill="#666666">[BASE TABLE]</text>
<polygon fill="none" stroke="black" points="1655.27,-1113.8 1655.27,-1144.6 1975.07,-1144.6 1975.07,-1113.8 1655.27,-1113.8"/>
<text text-anchor="start" x="1662.27" y="-1126" font-family="Arial" font-size="14.00">contactid </text>
<text text-anchor="start" x="1722.2" y="-1126" font-family="Arial" font-size="14.00" fill="#666666">[integer]</text>
<polygon fill="none" stroke="black" points="1655.27,-1083 1655.27,-1113.8 1975.07,-1113.8 1975.07,-1083 1655.27,-1083"/>
<text text-anchor="start" x="1662.27" y="-1095.2" font-family="Arial" font-size="14.00">datasetid </text>
<text text-anchor="start" x="1722.98" y="-1095.2" font-family="Arial" font-size="14.00" fill="#666666">[integer]</text>
<polygon fill="none" stroke="black" points="1655.27,-1052.2 1655.27,-1083 1975.07,-1083 1975.07,-1052.2 1655.27,-1052.2"/>
<text text-anchor="start" x="1662.27" y="-1064.4" font-family="Arial" font-size="14.00">date </text>
<text text-anchor="start" x="1693.41" y="-1064.4" font-family="Arial" font-size="14.00" fill="#666666">[date]</text>
<polygon fill="none" stroke="black" points="1655.27,-1021.4 1655.27,-1052.2 1975.07,-1052.2 1975.07,-1021.4 1655.27,-1021.4"/>
<text text-anchor="start" x="1662.27" y="-1033.6" font-family="Arial" font-size="14.00">notes </text>
<text text-anchor="start" x="1700.41" y="-1033.6" font-family="Arial" font-size="14.00" fill="#666666">[text]</text>
<polygon fill="none" stroke="black" points="1655.27,-990.6 1655.27,-1021.4 1975.07,-1021.4 1975.07,-990.6 1655.27,-990.6"/>
<text text-anchor="start" x="1662.27" y="-1002.8" font-family="Arial" font-size="14.00">recdatecreated </text>
<text text-anchor="start" x="1759.55" y="-1002.8" font-family="Arial" font-size="14.00" fill="#666666">[timestamp(0) without time zone]</text>
<polygon fill="none" stroke="black" points="1655.27,-959.8 1655.27,-990.6 1975.07,-990.6 1975.07,-959.8 1655.27,-959.8"/>
<text text-anchor="start" x="1662.27" y="-972" font-family="Arial" font-size="14.00">recdatemodified </text>
<text text-anchor="start" x="1765.77" y="-972" font-family="Arial" font-size="14.00" fill="#666666">[timestamp(0) without time zone]</text>
<polygon fill="none" stroke="black" points="1655.27,-929 1655.27,-959.8 1975.07,-959.8 1975.07,-929 1655.27,-929"/>
<text text-anchor="start" x="1662.27" y="-941.2" font-family="Arial" font-size="14.00">taxonid </text>
<text text-anchor="start" x="1711.31" y="-941.2" font-family="Arial" font-size="14.00" fill="#666666">[integer]</text>
</g>
<!-- ndb.datasettaxonnotes&#45;&gt;ndb.datasets -->
<g id="edge8" class="edge">
<title>ndb.datasettaxonnotes:datasetid&#45;&gt;ndb.datasets:datasetid</title>
<path fill="none" stroke="black" d="M1644.01,-1097.74C1516.17,-1080.34 1738.17,-723.01 1753.07,-649.6 1764.12,-595.15 1809.63,-524.6 1754.07,-524.6"/>
<polygon fill="black" stroke="black" points="1643.96,-1097.74 1653.65,-1102.87 1649.28,-1098.08 1653.6,-1098.36 1653.6,-1098.36 1653.6,-1098.36 1649.28,-1098.08 1654.23,-1093.89 1643.96,-1097.74"/>
<text text-anchor="start" x="1661.27" y="-1082.4" font-family="Arial" font-size="10.00">FOREIGN KEY (datasetid) REFERENCES ndb.datasets(datasetid) ON UPDATE CASCADE ON DELETE CASCADE</text>
</g>
<!-- ndb.datasetvariables -->
<g id="node12" class="node">
<title>ndb.datasetvariables</title>
<polygon fill="#efefef" stroke="none" points="2079.27,-1113.8 2079.27,-1149.4 2399.07,-1149.4 2399.07,-1113.8 2079.27,-1113.8"/>
<polygon fill="none" stroke="black" points="2079.27,-1113.8 2079.27,-1149.4 2399.07,-1149.4 2399.07,-1113.8 2079.27,-1113.8"/>
<text text-anchor="start" x="2103.7" y="-1127.2" font-family="Arial Bold" font-size="18.00">ndb.datasetvariables</text>
<text text-anchor="start" x="2250.15" y="-1127.2" font-family="Arial" font-size="14.00">    </text>
<text text-anchor="start" x="2281.27" y="-1127.2" font-family="Arial" font-size="14.00" fill="#666666">[BASE TABLE]</text>
<polygon fill="none" stroke="black" points="2079.27,-1083 2079.27,-1113.8 2399.07,-1113.8 2399.07,-1083 2079.27,-1083"/>
<text text-anchor="start" x="2086.27" y="-1095.2" font-family="Arial" font-size="14.00">datasetid </text>
<text text-anchor="start" x="2146.98" y="-1095.2" font-family="Arial" font-size="14.00" fill="#666666">[integer]</text>
<polygon fill="none" stroke="black" points="2079.27,-1052.2 2079.27,-1083 2399.07,-1083 2399.07,-1052.2 2079.27,-1052.2"/>
<text text-anchor="start" x="2086.27" y="-1064.4" font-family="Arial" font-size="14.00">datasetvariableid </text>
<text text-anchor="start" x="2196.01" y="-1064.4" font-family="Arial" font-size="14.00" fill="#666666">[integer]</text>
<polygon fill="none" stroke="black" points="2079.27,-1021.4 2079.27,-1052.2 2399.07,-1052.2 2399.07,-1021.4 2079.27,-1021.4"/>
<text text-anchor="start" x="2086.27" y="-1033.6" font-family="Arial" font-size="14.00">recdatecreated </text>
<text text-anchor="start" x="2183.55" y="-1033.6" font-family="Arial" font-size="14.00" fill="#666666">[timestamp(0) without time zone]</text>
<polygon fill="none" stroke="black" points="2079.27,-990.6 2079.27,-1021.4 2399.07,-1021.4 2399.07,-990.6 2079.27,-990.6"/>
<text text-anchor="start" x="2086.27" y="-1002.8" font-family="Arial" font-size="14.00">recdatemodified </text>
<text text-anchor="start" x="2189.77" y="-1002.8" font-family="Arial" font-size="14.00" fill="#666666">[timestamp(0) without time zone]</text>
<polygon fill="none" stroke="black" points="2079.27,-959.8 2079.27,-990.6 2399.07,-990.6 2399.07,-959.8 2079.27,-959.8"/>
<text text-anchor="start" x="2086.27" y="-972" font-family="Arial" font-size="14.00">variableid </text>
<text text-anchor="start" x="2150.09" y="-972" font-family="Arial" font-size="14.00" fill="#666666">[integer]</text>
</g>
<!-- ndb.datasetvariables&#45;&gt;ndb.datasets -->
<g id="edge9" class="edge">
<title>ndb.datasetvariables:datasetid&#45;&gt;ndb.datasets:datasetid</title>
<path fill="none" stroke="black" d="M2068.32,-1096.85C1993.82,-1071.78 2088.79,-749.58 2027.17,-685.6 1957.83,-613.6 1883.41,-711.81 1805.17,-649.6 1758.19,-612.25 1814.09,-524.6 1754.07,-524.6"/>
<polygon fill="black" stroke="black" points="2068.06,-1096.81 2077.25,-1102.8 2073.33,-1097.63 2077.61,-1098.3 2077.61,-1098.3 2077.61,-1098.3 2073.33,-1097.63 2078.63,-1093.9 2068.06,-1096.81"/>
<text text-anchor="start" x="2085.27" y="-1108.4" font-family="Arial" font-size="10.00">FOREIGN KEY (datasetid) REFERENCES ndb.datasets(datasetid) ON UPDATE CASCADE ON DELETE CASCADE</text>
</g>
</g>
</svg>
