<?xml version="1.0" encoding="UTF-8" standalone="no"?>
<!DOCTYPE svg PUBLIC "-//W3C//DTD SVG 1.1//EN"
 "http://www.w3.org/Graphics/SVG/1.1/DTD/svg11.dtd">
<!-- Generated by graphviz version 12.1.2 (20240928.0832)
 -->
<!-- Title: Taxonomic Tables Pages: 1 -->
<svg width="2376pt" height="935pt"
 viewBox="0.00 0.00 2375.76 934.80" xmlns="http://www.w3.org/2000/svg" xmlns:xlink="http://www.w3.org/1999/xlink">
<g id="graph0" class="graph" transform="scale(1 1) rotate(0) translate(4 930.8)">
<title>Taxonomic Tables</title>
<polygon fill="white" stroke="none" points="-4,4 -4,-930.8 2371.76,-930.8 2371.76,4 -4,4"/>
<!-- ndb.taxa -->
<g id="node1" class="node">
<title>ndb.taxa</title>
<polygon fill="#efefef" stroke="none" points="768.22,-474.4 768.22,-510 1088.02,-510 1088.02,-474.4 768.22,-474.4"/>
<polygon fill="none" stroke="black" points="768.22,-474.4 768.22,-510 1088.02,-510 1088.02,-474.4 768.22,-474.4"/>
<text text-anchor="start" x="835.14" y="-487.8" font-family="Arial Bold" font-size="18.00">ndb.taxa</text>
<text text-anchor="start" x="896.62" y="-487.8" font-family="Arial" font-size="14.00">    </text>
<text text-anchor="start" x="927.74" y="-487.8" font-family="Arial" font-size="14.00" fill="#666666">[BASE TABLE]</text>
<polygon fill="none" stroke="black" points="768.22,-443.6 768.22,-474.4 1088.02,-474.4 1088.02,-443.6 768.22,-443.6"/>
<text text-anchor="start" x="775.22" y="-455.8" font-family="Arial" font-size="14.00">taxonid </text>
<text text-anchor="start" x="824.26" y="-455.8" font-family="Arial" font-size="14.00" fill="#666666">[integer]</text>
<polygon fill="none" stroke="black" points="768.22,-412.8 768.22,-443.6 1088.02,-443.6 1088.02,-412.8 768.22,-412.8"/>
<text text-anchor="start" x="775.22" y="-425" font-family="Arial" font-size="14.00">taxoncode </text>
<text text-anchor="start" x="843.72" y="-425" font-family="Arial" font-size="14.00" fill="#666666">[varchar(64)]</text>
<polygon fill="none" stroke="black" points="768.22,-382 768.22,-412.8 1088.02,-412.8 1088.02,-382 768.22,-382"/>
<text text-anchor="start" x="775.22" y="-394.2" font-family="Arial" font-size="14.00">taxonname </text>
<text text-anchor="start" x="848.38" y="-394.2" font-family="Arial" font-size="14.00" fill="#666666">[text]</text>
<polygon fill="none" stroke="black" points="768.22,-351.2 768.22,-382 1088.02,-382 1088.02,-351.2 768.22,-351.2"/>
<text text-anchor="start" x="775.22" y="-363.4" font-family="Arial" font-size="14.00">author </text>
<text text-anchor="start" x="818.81" y="-363.4" font-family="Arial" font-size="14.00" fill="#666666">[varchar(128)]</text>
<polygon fill="none" stroke="black" points="768.22,-320.4 768.22,-351.2 1088.02,-351.2 1088.02,-320.4 768.22,-320.4"/>
<text text-anchor="start" x="775.22" y="-332.6" font-family="Arial" font-size="14.00">valid </text>
<text text-anchor="start" x="807.91" y="-332.6" font-family="Arial" font-size="14.00" fill="#666666">[boolean]</text>
<polygon fill="none" stroke="black" points="768.22,-289.6 768.22,-320.4 1088.02,-320.4 1088.02,-289.6 768.22,-289.6"/>
<text text-anchor="start" x="775.22" y="-301.8" font-family="Arial" font-size="14.00">highertaxonid </text>
<text text-anchor="start" x="863.18" y="-301.8" font-family="Arial" font-size="14.00" fill="#666666">[integer]</text>
<polygon fill="none" stroke="black" points="768.22,-258.8 768.22,-289.6 1088.02,-289.6 1088.02,-258.8 768.22,-258.8"/>
<text text-anchor="start" x="775.22" y="-271" font-family="Arial" font-size="14.00">extinct </text>
<text text-anchor="start" x="819.58" y="-271" font-family="Arial" font-size="14.00" fill="#666666">[boolean]</text>
<polygon fill="none" stroke="black" points="768.22,-228 768.22,-258.8 1088.02,-258.8 1088.02,-228 768.22,-228"/>
<text text-anchor="start" x="775.22" y="-240.2" font-family="Arial" font-size="14.00">taxagroupid </text>
<text text-anchor="start" x="852.28" y="-240.2" font-family="Arial" font-size="14.00" fill="#666666">[varchar(3)]</text>
<polygon fill="none" stroke="black" points="768.22,-197.2 768.22,-228 1088.02,-228 1088.02,-197.2 768.22,-197.2"/>
<text text-anchor="start" x="775.22" y="-209.4" font-family="Arial" font-size="14.00">publicationid </text>
<text text-anchor="start" x="856.95" y="-209.4" font-family="Arial" font-size="14.00" fill="#666666">[integer]</text>
<polygon fill="none" stroke="black" points="768.22,-166.4 768.22,-197.2 1088.02,-197.2 1088.02,-166.4 768.22,-166.4"/>
<text text-anchor="start" x="775.22" y="-178.6" font-family="Arial" font-size="14.00">validatorid </text>
<text text-anchor="start" x="842.93" y="-178.6" font-family="Arial" font-size="14.00" fill="#666666">[integer]</text>
<polygon fill="none" stroke="black" points="768.22,-135.6 768.22,-166.4 1088.02,-166.4 1088.02,-135.6 768.22,-135.6"/>
<text text-anchor="start" x="775.22" y="-147.8" font-family="Arial" font-size="14.00">validatedate </text>
<text text-anchor="start" x="854.62" y="-147.8" font-family="Arial" font-size="14.00" fill="#666666">[date]</text>
<polygon fill="none" stroke="black" points="768.22,-104.8 768.22,-135.6 1088.02,-135.6 1088.02,-104.8 768.22,-104.8"/>
<text text-anchor="start" x="775.22" y="-117" font-family="Arial" font-size="14.00">notes </text>
<text text-anchor="start" x="813.36" y="-117" font-family="Arial" font-size="14.00" fill="#666666">[text]</text>
<polygon fill="none" stroke="black" points="768.22,-74 768.22,-104.8 1088.02,-104.8 1088.02,-74 768.22,-74"/>
<text text-anchor="start" x="775.22" y="-86.2" font-family="Arial" font-size="14.00">recdatecreated </text>
<text text-anchor="start" x="872.51" y="-86.2" font-family="Arial" font-size="14.00" fill="#666666">[timestamp(0) without time zone]</text>
<polygon fill="none" stroke="black" points="768.22,-43.2 768.22,-74 1088.02,-74 1088.02,-43.2 768.22,-43.2"/>
<text text-anchor="start" x="775.22" y="-55.4" font-family="Arial" font-size="14.00">recdatemodified </text>
<text text-anchor="start" x="878.73" y="-55.4" font-family="Arial" font-size="14.00" fill="#666666">[timestamp(0) without time zone]</text>
</g>
<!-- ndb.taxa&#45;&gt;ndb.taxa -->
<g id="edge1" class="edge">
<title>ndb.taxa:highertaxonid&#45;&gt;ndb.taxa:taxonid</title>
<path fill="none" stroke="black" d="M929.35,-330.65C937.1,-506.95 936.69,-793.9 928.12,-793.9 919.39,-793.9 919.13,-640.97 927.34,-474.38"/>
<polygon fill="black" stroke="black" points="929.35,-330.57 933.39,-320.38 929.11,-325.25 928.91,-320.92 928.91,-320.92 928.91,-320.92 929.11,-325.25 924.4,-320.79 929.35,-330.57"/>
<text text-anchor="start" x="632.88" y="-330.25" font-family="Arial" font-size="10.00">FOREIGN KEY (highertaxonid) REFERENCES ndb.taxa(taxonid)</text>
</g>
<!-- ndb.externaltaxa -->
<g id="node2" class="node">
<title>ndb.externaltaxa</title>
<polygon fill="#efefef" stroke="none" points="177.22,-832.6 177.22,-868.2 497.02,-868.2 497.02,-832.6 177.22,-832.6"/>
<polygon fill="none" stroke="black" points="177.22,-832.6 177.22,-868.2 497.02,-868.2 497.02,-832.6 177.22,-832.6"/>
<text text-anchor="start" x="215.16" y="-846" font-family="Arial Bold" font-size="18.00">ndb.externaltaxa</text>
<text text-anchor="start" x="334.6" y="-846" font-family="Arial" font-size="14.00">    </text>
<text text-anchor="start" x="365.72" y="-846" font-family="Arial" font-size="14.00" fill="#666666">[BASE TABLE]</text>
<polygon fill="none" stroke="black" points="177.22,-801.8 177.22,-832.6 497.02,-832.6 497.02,-801.8 177.22,-801.8"/>
<text text-anchor="start" x="184.22" y="-814" font-family="Arial" font-size="14.00">taxonid </text>
<text text-anchor="start" x="233.26" y="-814" font-family="Arial" font-size="14.00" fill="#666666">[integer]</text>
<polygon fill="none" stroke="black" points="177.22,-771 177.22,-801.8 497.02,-801.8 497.02,-771 177.22,-771"/>
<text text-anchor="start" x="184.22" y="-783.2" font-family="Arial" font-size="14.00">extdatabaseid </text>
<text text-anchor="start" x="275.29" y="-783.2" font-family="Arial" font-size="14.00" fill="#666666">[integer]</text>
<polygon fill="none" stroke="black" points="177.22,-740.2 177.22,-771 497.02,-771 497.02,-740.2 177.22,-740.2"/>
<text text-anchor="start" x="184.22" y="-752.4" font-family="Arial" font-size="14.00">exttaxonid </text>
<text text-anchor="start" x="251.93" y="-752.4" font-family="Arial" font-size="14.00" fill="#666666">[varchar(64)]</text>
<polygon fill="none" stroke="black" points="177.22,-709.4 177.22,-740.2 497.02,-740.2 497.02,-709.4 177.22,-709.4"/>
<text text-anchor="start" x="184.22" y="-721.6" font-family="Arial" font-size="14.00">url </text>
<text text-anchor="start" x="203.67" y="-721.6" font-family="Arial" font-size="14.00" fill="#666666">[varchar(128)]</text>
<polygon fill="none" stroke="black" points="177.22,-678.6 177.22,-709.4 497.02,-709.4 497.02,-678.6 177.22,-678.6"/>
<text text-anchor="start" x="184.22" y="-690.8" font-family="Arial" font-size="14.00">recdatecreated </text>
<text text-anchor="start" x="281.51" y="-690.8" font-family="Arial" font-size="14.00" fill="#666666">[timestamp(0) without time zone]</text>
<polygon fill="none" stroke="black" points="177.22,-647.8 177.22,-678.6 497.02,-678.6 497.02,-647.8 177.22,-647.8"/>
<text text-anchor="start" x="184.22" y="-660" font-family="Arial" font-size="14.00">recdatemodified </text>
<text text-anchor="start" x="287.73" y="-660" font-family="Arial" font-size="14.00" fill="#666666">[timestamp(0) without time zone]</text>
</g>
<!-- ndb.externaltaxa&#45;&gt;ndb.taxa -->
<g id="edge2" class="edge">
<title>ndb.externaltaxa:taxonid&#45;&gt;ndb.taxa:taxonid</title>
<path fill="none" stroke="black" d="M508.45,-816.65C593.89,-806.88 490.43,-670.28 549.12,-589.2 615.32,-497.75 654.33,-459 767.22,-459"/>
<polygon fill="black" stroke="black" points="508.34,-816.65 498.12,-812.69 503.02,-816.93 498.69,-817.16 498.69,-817.16 498.69,-817.16 503.02,-816.93 498.6,-821.68 508.34,-816.65"/>
<text text-anchor="start" x="7" y="-827.2" font-family="Arial" font-size="10.00">FOREIGN KEY (taxonid) REFERENCES ndb.taxa(taxonid) ON UPDATE CASCADE ON DELETE CASCADE</text>
</g>
<!-- ndb.formtaxa -->
<g id="node3" class="node">
<title>ndb.formtaxa</title>
<polygon fill="#efefef" stroke="none" points="601.22,-848 601.22,-883.6 921.02,-883.6 921.02,-848 601.22,-848"/>
<polygon fill="none" stroke="black" points="601.22,-848 601.22,-883.6 921.02,-883.6 921.02,-848 601.22,-848"/>
<text text-anchor="start" x="650.65" y="-861.4" font-family="Arial Bold" font-size="18.00">ndb.formtaxa</text>
<text text-anchor="start" x="747.11" y="-861.4" font-family="Arial" font-size="14.00">    </text>
<text text-anchor="start" x="778.23" y="-861.4" font-family="Arial" font-size="14.00" fill="#666666">[BASE TABLE]</text>
<polygon fill="none" stroke="black" points="601.22,-817.2 601.22,-848 921.02,-848 921.02,-817.2 601.22,-817.2"/>
<text text-anchor="start" x="608.22" y="-829.4" font-family="Arial" font-size="14.00">formtaxonid </text>
<text text-anchor="start" x="685.26" y="-829.4" font-family="Arial" font-size="14.00" fill="#666666">[integer]</text>
<polygon fill="none" stroke="black" points="601.22,-786.4 601.22,-817.2 921.02,-817.2 921.02,-786.4 601.22,-786.4"/>
<text text-anchor="start" x="608.22" y="-798.6" font-family="Arial" font-size="14.00">taxonid </text>
<text text-anchor="start" x="657.26" y="-798.6" font-family="Arial" font-size="14.00" fill="#666666">[integer]</text>
<polygon fill="none" stroke="black" points="601.22,-755.6 601.22,-786.4 921.02,-786.4 921.02,-755.6 601.22,-755.6"/>
<text text-anchor="start" x="608.22" y="-767.8" font-family="Arial" font-size="14.00">affinityid </text>
<text text-anchor="start" x="663.47" y="-767.8" font-family="Arial" font-size="14.00" fill="#666666">[integer]</text>
<polygon fill="none" stroke="black" points="601.22,-724.8 601.22,-755.6 921.02,-755.6 921.02,-724.8 601.22,-724.8"/>
<text text-anchor="start" x="608.22" y="-737" font-family="Arial" font-size="14.00">publicationid </text>
<text text-anchor="start" x="689.95" y="-737" font-family="Arial" font-size="14.00" fill="#666666">[integer]</text>
<polygon fill="none" stroke="black" points="601.22,-694 601.22,-724.8 921.02,-724.8 921.02,-694 601.22,-694"/>
<text text-anchor="start" x="608.22" y="-706.2" font-family="Arial" font-size="14.00">systematicdescription </text>
<text text-anchor="start" x="745.94" y="-706.2" font-family="Arial" font-size="14.00" fill="#666666">[boolean]</text>
<polygon fill="none" stroke="black" points="601.22,-663.2 601.22,-694 921.02,-694 921.02,-663.2 601.22,-663.2"/>
<text text-anchor="start" x="608.22" y="-675.4" font-family="Arial" font-size="14.00">recdatecreated </text>
<text text-anchor="start" x="705.51" y="-675.4" font-family="Arial" font-size="14.00" fill="#666666">[timestamp(0) without time zone]</text>
<polygon fill="none" stroke="black" points="601.22,-632.4 601.22,-663.2 921.02,-663.2 921.02,-632.4 601.22,-632.4"/>
<text text-anchor="start" x="608.22" y="-644.6" font-family="Arial" font-size="14.00">recdatemodified </text>
<text text-anchor="start" x="711.73" y="-644.6" font-family="Arial" font-size="14.00" fill="#666666">[timestamp(0) without time zone]</text>
</g>
<!-- ndb.formtaxa&#45;&gt;ndb.taxa -->
<g id="edge3" class="edge">
<title>ndb.formtaxa:taxonid&#45;&gt;ndb.taxa:taxonid</title>
<path fill="none" stroke="black" d="M931.91,-798.73C966.26,-775.2 948.14,-623.28 921.02,-589.2 877.58,-534.6 811.82,-607.67 768.22,-553.2 742.06,-520.51 725.36,-459 767.22,-459"/>
<polygon fill="black" stroke="black" points="931.89,-798.74 921.01,-797.4 926.8,-800.32 922.66,-801.6 922.66,-801.6 922.66,-801.6 926.8,-800.32 923.68,-806 931.89,-798.74"/>
<text text-anchor="start" x="929.02" y="-811.8" font-family="Arial" font-size="10.00">FOREIGN KEY (taxonid) REFERENCES ndb.taxa(taxonid)</text>
</g>
<!-- ndb.formtaxa&#45;&gt;ndb.taxa -->
<g id="edge4" class="edge">
<title>ndb.formtaxa:affinityid&#45;&gt;ndb.taxa:taxonid</title>
<path fill="none" stroke="black" d="M932.24,-770.3C999.96,-760.46 969.09,-649.57 921.02,-589.2 877.56,-534.62 811.82,-607.67 768.22,-553.2 742.06,-520.51 725.36,-459 767.22,-459"/>
<polygon fill="black" stroke="black" points="932.33,-770.29 922.05,-766.49 927.01,-770.66 922.69,-770.95 922.69,-770.95 922.69,-770.95 927.01,-770.66 922.67,-775.47 932.33,-770.29"/>
<text text-anchor="start" x="929.02" y="-781" font-family="Arial" font-size="10.00">FOREIGN KEY (affinityid) REFERENCES ndb.taxa(taxonid) ON UPDATE CASCADE ON DELETE CASCADE</text>
</g>
<!-- ndb.taxaalthierarchy -->
<g id="node4" class="node">
<title>ndb.taxaalthierarchy</title>
<polygon fill="#efefef" stroke="none" points="1377.17,-786.4 1377.17,-822 1663.08,-822 1663.08,-786.4 1377.17,-786.4"/>
<polygon fill="none" stroke="black" points="1377.17,-786.4 1377.17,-822 1663.08,-822 1663.08,-786.4 1377.17,-786.4"/>
<text text-anchor="start" x="1384.17" y="-799.8" font-family="Arial Bold" font-size="18.00">ndb.taxaalthierarchy</text>
<text text-anchor="start" x="1531.59" y="-799.8" font-family="Arial" font-size="14.00">    </text>
<text text-anchor="start" x="1562.71" y="-799.8" font-family="Arial" font-size="14.00" fill="#666666">[BASE TABLE]</text>
<polygon fill="none" stroke="black" points="1377.17,-755.6 1377.17,-786.4 1663.08,-786.4 1663.08,-755.6 1377.17,-755.6"/>
<text text-anchor="start" x="1384.17" y="-767.8" font-family="Arial" font-size="14.00">taxaalthierarchytypeid </text>
<text text-anchor="start" x="1524.24" y="-767.8" font-family="Arial" font-size="14.00" fill="#666666">[integer]</text>
<polygon fill="none" stroke="black" points="1377.17,-724.8 1377.17,-755.6 1663.08,-755.6 1663.08,-724.8 1377.17,-724.8"/>
<text text-anchor="start" x="1384.17" y="-737" font-family="Arial" font-size="14.00">taxonid </text>
<text text-anchor="start" x="1433.2" y="-737" font-family="Arial" font-size="14.00" fill="#666666">[integer]</text>
<polygon fill="none" stroke="black" points="1377.17,-694 1377.17,-724.8 1663.08,-724.8 1663.08,-694 1377.17,-694"/>
<text text-anchor="start" x="1384.17" y="-706.2" font-family="Arial" font-size="14.00">highertaxonid </text>
<text text-anchor="start" x="1472.12" y="-706.2" font-family="Arial" font-size="14.00" fill="#666666">[integer]</text>
</g>
<!-- ndb.taxaalthierarchy&#45;&gt;ndb.taxa -->
<g id="edge5" class="edge">
<title>ndb.taxaalthierarchy:taxonid&#45;&gt;ndb.taxa:taxonid</title>
<path fill="none" stroke="black" d="M1366.06,-739.41C1311.9,-730.12 1368.17,-640.68 1325.12,-589.2 1248.26,-497.27 1208.86,-459 1089.02,-459"/>
<polygon fill="black" stroke="black" points="1365.86,-739.4 1375.48,-744.66 1371.18,-739.81 1375.5,-740.15 1375.5,-740.15 1375.5,-740.15 1371.18,-739.81 1376.18,-735.69 1365.86,-739.4"/>
<text text-anchor="start" x="1383.17" y="-750.2" font-family="Arial" font-size="10.00">FOREIGN KEY (taxonid) REFERENCES ndb.taxa(taxonid) ON UPDATE CASCADE ON DELETE CASCADE</text>
</g>
<!-- ndb.taxaalthierarchy&#45;&gt;ndb.taxa -->
<g id="edge6" class="edge">
<title>ndb.taxaalthierarchy:highertaxonid&#45;&gt;ndb.taxa:taxonid</title>
<path fill="none" stroke="black" d="M1365.92,-708.41C1323.85,-699.31 1361.43,-629.43 1325.12,-589.2 1244.84,-500.24 1208.86,-459 1089.02,-459"/>
<polygon fill="black" stroke="black" points="1365.88,-708.41 1375.4,-713.85 1371.19,-708.92 1375.5,-709.34 1375.5,-709.34 1375.5,-709.34 1371.19,-708.92 1376.26,-704.89 1365.88,-708.41"/>
<text text-anchor="start" x="1080.17" y="-719.4" font-family="Arial" font-size="10.00">FOREIGN KEY (highertaxonid) REFERENCES ndb.taxa(taxonid)</text>
</g>
<!-- ndb.taxaalthierarchytypes -->
<g id="node5" class="node">
<title>ndb.taxaalthierarchytypes</title>
<polygon fill="#efefef" stroke="none" points="1358.17,-305 1358.17,-340.6 1682.08,-340.6 1682.08,-305 1358.17,-305"/>
<polygon fill="none" stroke="black" points="1358.17,-305 1358.17,-340.6 1682.08,-340.6 1682.08,-305 1358.17,-305"/>
<text text-anchor="start" x="1365.17" y="-318.4" font-family="Arial Bold" font-size="18.00">ndb.taxaalthierarchytypes</text>
<text text-anchor="start" x="1550.59" y="-318.4" font-family="Arial" font-size="14.00">    </text>
<text text-anchor="start" x="1581.71" y="-318.4" font-family="Arial" font-size="14.00" fill="#666666">[BASE TABLE]</text>
<polygon fill="none" stroke="black" points="1358.17,-274.2 1358.17,-305 1682.08,-305 1682.08,-274.2 1358.17,-274.2"/>
<text text-anchor="start" x="1365.17" y="-286.4" font-family="Arial" font-size="14.00">taxaalthierarchytypeid </text>
<text text-anchor="start" x="1505.24" y="-286.4" font-family="Arial" font-size="14.00" fill="#666666">[integer]</text>
<polygon fill="none" stroke="black" points="1358.17,-243.4 1358.17,-274.2 1682.08,-274.2 1682.08,-243.4 1358.17,-243.4"/>
<text text-anchor="start" x="1365.17" y="-255.6" font-family="Arial" font-size="14.00">taxaalthierarchyname </text>
<text text-anchor="start" x="1502.91" y="-255.6" font-family="Arial" font-size="14.00" fill="#666666">[varchar(50)]</text>
<polygon fill="none" stroke="black" points="1358.17,-212.6 1358.17,-243.4 1682.08,-243.4 1682.08,-212.6 1358.17,-212.6"/>
<text text-anchor="start" x="1365.17" y="-224.8" font-family="Arial" font-size="14.00">taxaalthierarchydescript </text>
<text text-anchor="start" x="1516.91" y="-224.8" font-family="Arial" font-size="14.00" fill="#666666">[text]</text>
</g>
<!-- ndb.taxaalthierarchy&#45;&gt;ndb.taxaalthierarchytypes -->
<g id="edge7" class="edge">
<title>ndb.taxaalthierarchy:taxaalthierarchytypeid&#45;&gt;ndb.taxaalthierarchytypes:taxaalthierarchytypeid</title>
<path fill="none" stroke="black" d="M1673.13,-766.24C1719.59,-716.24 1733.47,-289.6 1683.08,-289.6"/>
<polygon fill="black" stroke="black" points="1673.23,-766.18 1662.28,-766.86 1668.51,-768.67 1664.67,-770.69 1664.67,-770.69 1664.67,-770.69 1668.51,-768.67 1666.48,-774.83 1673.23,-766.18"/>
<text text-anchor="start" x="1671.08" y="-781" font-family="Arial" font-size="10.00">FOREIGN KEY (taxaalthierarchytypeid) REFERENCES ndb.taxaalthierarchytypes(taxaalthierarchytypeid) ON UPDATE CASCADE ON DELETE CASCADE</text>
</g>
<!-- ndb.taxonpaths -->
<g id="node6" class="node">
<title>ndb.taxonpaths</title>
<polygon fill="#efefef" stroke="none" points="1025.14,-771 1025.14,-806.6 1273.11,-806.6 1273.11,-771 1025.14,-771"/>
<polygon fill="none" stroke="black" points="1025.14,-771 1025.14,-806.6 1273.11,-806.6 1273.11,-771 1025.14,-771"/>
<text text-anchor="start" x="1032.14" y="-784.4" font-family="Arial Bold" font-size="18.00">ndb.taxonpaths</text>
<text text-anchor="start" x="1141.62" y="-784.4" font-family="Arial" font-size="14.00">    </text>
<text text-anchor="start" x="1172.74" y="-784.4" font-family="Arial" font-size="14.00" fill="#666666">[BASE TABLE]</text>
<polygon fill="none" stroke="black" points="1025.14,-740.2 1025.14,-771 1273.11,-771 1273.11,-740.2 1025.14,-740.2"/>
<text text-anchor="start" x="1032.14" y="-752.4" font-family="Arial" font-size="14.00">taxonout </text>
<text text-anchor="start" x="1089.74" y="-752.4" font-family="Arial" font-size="14.00" fill="#666666">[integer[]]</text>
<polygon fill="none" stroke="black" points="1025.14,-709.4 1025.14,-740.2 1273.11,-740.2 1273.11,-709.4 1025.14,-709.4"/>
<text text-anchor="start" x="1032.14" y="-721.6" font-family="Arial" font-size="14.00">taxonid </text>
<text text-anchor="start" x="1081.17" y="-721.6" font-family="Arial" font-size="14.00" fill="#666666">[bigint]</text>
</g>
<!-- ndb.taxonpaths&#45;&gt;ndb.taxa -->
<g id="edge8" class="edge">
<title>ndb.taxonpaths:taxonid&#45;&gt;ndb.taxa:taxonid</title>
<path fill="none" stroke="black" d="M1014.24,-721.8C1004.94,-713.05 1019.59,-686.84 1025.14,-666.2 1040.05,-610.69 1073.29,-608.76 1088.02,-553.2 1098.76,-512.73 1130.89,-459 1089.02,-459"/>
<polygon fill="black" stroke="black" points="1014.25,-721.81 1022.51,-729.01 1019.35,-723.35 1023.5,-724.61 1023.5,-724.61 1023.5,-724.61 1019.35,-723.35 1025.12,-720.4 1014.25,-721.81"/>
<text text-anchor="start" x="1031.14" y="-734.8" font-family="Arial" font-size="10.00">FOREIGN KEY (taxonid) REFERENCES ndb.taxa(taxonid) ON DELETE CASCADE</text>
</g>
</g>
</svg>
