<?xml version="1.0" encoding="UTF-8" standalone="no"?>
<!DOCTYPE svg PUBLIC "-//W3C//DTD SVG 1.1//EN"
 "http://www.w3.org/Graphics/SVG/1.1/DTD/svg11.dtd">
<!-- Generated by graphviz version 12.1.2 (20240928.0832)
 -->
<!-- Title: Hierarchical Tables Pages: 1 -->
<svg width="2646pt" height="1137pt"
 viewBox="0.00 0.00 2645.97 1137.00" xmlns="http://www.w3.org/2000/svg" xmlns:xlink="http://www.w3.org/1999/xlink">
<g id="graph0" class="graph" transform="scale(1 1) rotate(0) translate(4 1133)">
<title>Hierarchical Tables</title>
<polygon fill="white" stroke="none" points="-4,4 -4,-1133 2641.97,-1133 2641.97,4 -4,4"/>
<!-- ndb.chroncontroltypes -->
<g id="node1" class="node">
<title>ndb.chroncontroltypes</title>
<polygon fill="#efefef" stroke="none" points="301.05,-801.8 301.05,-837.4 620.85,-837.4 620.85,-801.8 301.05,-801.8"/>
<polygon fill="none" stroke="black" points="301.05,-801.8 301.05,-837.4 620.85,-837.4 620.85,-801.8 301.05,-801.8"/>
<text text-anchor="start" x="317.97" y="-815.2" font-family="Arial Bold" font-size="18.00">ndb.chroncontroltypes</text>
<text text-anchor="start" x="479.44" y="-815.2" font-family="Arial" font-size="14.00">    </text>
<text text-anchor="start" x="510.55" y="-815.2" font-family="Arial" font-size="14.00" fill="#666666">[BASE TABLE]</text>
<polygon fill="none" stroke="black" points="301.05,-771 301.05,-801.8 620.85,-801.8 620.85,-771 301.05,-771"/>
<text text-anchor="start" x="308.05" y="-783.2" font-family="Arial" font-size="14.00">chroncontroltype </text>
<text text-anchor="start" x="415.44" y="-783.2" font-family="Arial" font-size="14.00" fill="#666666">[varchar(64)]</text>
<polygon fill="none" stroke="black" points="301.05,-740.2 301.05,-771 620.85,-771 620.85,-740.2 301.05,-740.2"/>
<text text-anchor="start" x="308.05" y="-752.4" font-family="Arial" font-size="14.00">chroncontroltypeid </text>
<text text-anchor="start" x="426.34" y="-752.4" font-family="Arial" font-size="14.00" fill="#666666">[integer]</text>
<polygon fill="none" stroke="black" points="301.05,-709.4 301.05,-740.2 620.85,-740.2 620.85,-709.4 301.05,-709.4"/>
<text text-anchor="start" x="308.05" y="-721.6" font-family="Arial" font-size="14.00">higherchroncontroltypeid </text>
<text text-anchor="start" x="465.26" y="-721.6" font-family="Arial" font-size="14.00" fill="#666666">[integer]</text>
<polygon fill="none" stroke="black" points="301.05,-678.6 301.05,-709.4 620.85,-709.4 620.85,-678.6 301.05,-678.6"/>
<text text-anchor="start" x="308.05" y="-690.8" font-family="Arial" font-size="14.00">recdatecreated </text>
<text text-anchor="start" x="405.33" y="-690.8" font-family="Arial" font-size="14.00" fill="#666666">[timestamp(0) without time zone]</text>
<polygon fill="none" stroke="black" points="301.05,-647.8 301.05,-678.6 620.85,-678.6 620.85,-647.8 301.05,-647.8"/>
<text text-anchor="start" x="308.05" y="-660" font-family="Arial" font-size="14.00">recdatemodified </text>
<text text-anchor="start" x="411.55" y="-660" font-family="Arial" font-size="14.00" fill="#666666">[timestamp(0) without time zone]</text>
</g>
<!-- ndb.chroncontroltypes&#45;&gt;ndb.chroncontroltypes -->
<g id="edge1" class="edge">
<title>ndb.chroncontroltypes:higherchroncontroltypeid&#45;&gt;ndb.chroncontroltypes:chroncontroltypeid</title>
<path fill="none" stroke="black" d="M462.56,-749.95C469.91,-881.05 469.38,-1113.6 460.95,-1113.6 452.31,-1113.6 451.96,-897.66 459.91,-770.96"/>
<polygon fill="black" stroke="black" points="462.57,-750.23 466.48,-739.98 462.26,-744.91 462,-740.58 462,-740.58 462,-740.58 462.26,-744.91 457.49,-740.51 462.57,-750.23"/>
<text text-anchor="start" x="7" y="-749.92" font-family="Arial" font-size="10.00">FOREIGN KEY (higherchroncontroltypeid) REFERENCES ndb.chroncontroltypes(chroncontroltypeid)</text>
</g>
<!-- ndb.depenvttypes -->
<g id="node2" class="node">
<title>ndb.depenvttypes</title>
<polygon fill="#efefef" stroke="none" points="725.05,-801.8 725.05,-837.4 1044.85,-837.4 1044.85,-801.8 725.05,-801.8"/>
<polygon fill="none" stroke="black" points="725.05,-801.8 725.05,-837.4 1044.85,-837.4 1044.85,-801.8 725.05,-801.8"/>
<text text-anchor="start" x="759.47" y="-815.2" font-family="Arial Bold" font-size="18.00">ndb.depenvttypes</text>
<text text-anchor="start" x="885.94" y="-815.2" font-family="Arial" font-size="14.00">    </text>
<text text-anchor="start" x="917.06" y="-815.2" font-family="Arial" font-size="14.00" fill="#666666">[BASE TABLE]</text>
<polygon fill="none" stroke="black" points="725.05,-771 725.05,-801.8 1044.85,-801.8 1044.85,-771 725.05,-771"/>
<text text-anchor="start" x="732.05" y="-783.2" font-family="Arial" font-size="14.00">depenvt </text>
<text text-anchor="start" x="785.76" y="-783.2" font-family="Arial" font-size="14.00" fill="#666666">[varchar(255)]</text>
<polygon fill="none" stroke="black" points="725.05,-740.2 725.05,-771 1044.85,-771 1044.85,-740.2 725.05,-740.2"/>
<text text-anchor="start" x="732.05" y="-752.4" font-family="Arial" font-size="14.00">depenvthigherid </text>
<text text-anchor="start" x="835.57" y="-752.4" font-family="Arial" font-size="14.00" fill="#666666">[integer]</text>
<polygon fill="none" stroke="black" points="725.05,-709.4 725.05,-740.2 1044.85,-740.2 1044.85,-709.4 725.05,-709.4"/>
<text text-anchor="start" x="732.05" y="-721.6" font-family="Arial" font-size="14.00">depenvtid </text>
<text text-anchor="start" x="796.66" y="-721.6" font-family="Arial" font-size="14.00" fill="#666666">[integer]</text>
<polygon fill="none" stroke="black" points="725.05,-678.6 725.05,-709.4 1044.85,-709.4 1044.85,-678.6 725.05,-678.6"/>
<text text-anchor="start" x="732.05" y="-690.8" font-family="Arial" font-size="14.00">recdatecreated </text>
<text text-anchor="start" x="829.33" y="-690.8" font-family="Arial" font-size="14.00" fill="#666666">[timestamp(0) without time zone]</text>
<polygon fill="none" stroke="black" points="725.05,-647.8 725.05,-678.6 1044.85,-678.6 1044.85,-647.8 725.05,-647.8"/>
<text text-anchor="start" x="732.05" y="-660" font-family="Arial" font-size="14.00">recdatemodified </text>
<text text-anchor="start" x="835.55" y="-660" font-family="Arial" font-size="14.00" fill="#666666">[timestamp(0) without time zone]</text>
</g>
<!-- ndb.depenvttypes&#45;&gt;ndb.depenvttypes -->
<g id="edge2" class="edge">
<title>ndb.depenvttypes:depenvthigherid&#45;&gt;ndb.depenvttypes:depenvtid</title>
<path fill="none" stroke="black" d="M886.6,-781.17C893.91,-908.89 893.36,-1113.6 884.95,-1113.6 876.3,-1113.6 875.96,-868.78 883.94,-739.92"/>
<polygon fill="black" stroke="black" points="886.61,-781.28 890.5,-771.03 886.29,-775.96 886.03,-771.63 886.03,-771.63 886.03,-771.63 886.29,-775.96 881.52,-771.57 886.61,-781.28"/>
<text text-anchor="start" x="527.16" y="-780.96" font-family="Arial" font-size="10.00">FOREIGN KEY (depenvthigherid) REFERENCES ndb.depenvttypes(depenvtid)</text>
</g>
<!-- ndb.lithostrat -->
<g id="node3" class="node">
<title>ndb.lithostrat</title>
<polygon fill="#efefef" stroke="none" points="1149.05,-817.2 1149.05,-852.8 1468.85,-852.8 1468.85,-817.2 1149.05,-817.2"/>
<polygon fill="none" stroke="black" points="1149.05,-817.2 1149.05,-852.8 1468.85,-852.8 1468.85,-817.2 1149.05,-817.2"/>
<text text-anchor="start" x="1198.96" y="-830.6" font-family="Arial Bold" font-size="18.00">ndb.lithostrat</text>
<text text-anchor="start" x="1294.45" y="-830.6" font-family="Arial" font-size="14.00">    </text>
<text text-anchor="start" x="1325.57" y="-830.6" font-family="Arial" font-size="14.00" fill="#666666">[BASE TABLE]</text>
<polygon fill="none" stroke="black" points="1149.05,-786.4 1149.05,-817.2 1468.85,-817.2 1468.85,-786.4 1149.05,-786.4"/>
<text text-anchor="start" x="1156.05" y="-798.6" font-family="Arial" font-size="14.00">higherlithostratid </text>
<text text-anchor="start" x="1262.66" y="-798.6" font-family="Arial" font-size="14.00" fill="#666666">[integer]</text>
<polygon fill="none" stroke="black" points="1149.05,-755.6 1149.05,-786.4 1468.85,-786.4 1468.85,-755.6 1149.05,-755.6"/>
<text text-anchor="start" x="1156.05" y="-767.8" font-family="Arial" font-size="14.00">lithostratid </text>
<text text-anchor="start" x="1223.75" y="-767.8" font-family="Arial" font-size="14.00" fill="#666666">[integer]</text>
<polygon fill="none" stroke="black" points="1149.05,-724.8 1149.05,-755.6 1468.85,-755.6 1468.85,-724.8 1149.05,-724.8"/>
<text text-anchor="start" x="1156.05" y="-737" font-family="Arial" font-size="14.00">lithostratname </text>
<text text-anchor="start" x="1247.87" y="-737" font-family="Arial" font-size="14.00" fill="#666666">[varchar(64)]</text>
<polygon fill="none" stroke="black" points="1149.05,-694 1149.05,-724.8 1468.85,-724.8 1468.85,-694 1149.05,-694"/>
<text text-anchor="start" x="1156.05" y="-706.2" font-family="Arial" font-size="14.00">lithostratunitid </text>
<text text-anchor="start" x="1246.32" y="-706.2" font-family="Arial" font-size="14.00" fill="#666666">[integer]</text>
<polygon fill="none" stroke="black" points="1149.05,-663.2 1149.05,-694 1468.85,-694 1468.85,-663.2 1149.05,-663.2"/>
<text text-anchor="start" x="1156.05" y="-675.4" font-family="Arial" font-size="14.00">recdatecreated </text>
<text text-anchor="start" x="1253.33" y="-675.4" font-family="Arial" font-size="14.00" fill="#666666">[timestamp(0) without time zone]</text>
<polygon fill="none" stroke="black" points="1149.05,-632.4 1149.05,-663.2 1468.85,-663.2 1468.85,-632.4 1149.05,-632.4"/>
<text text-anchor="start" x="1156.05" y="-644.6" font-family="Arial" font-size="14.00">recdatemodified </text>
<text text-anchor="start" x="1259.55" y="-644.6" font-family="Arial" font-size="14.00" fill="#666666">[timestamp(0) without time zone]</text>
</g>
<!-- ndb.lithostrat&#45;&gt;ndb.lithostrat -->
<g id="edge3" class="edge">
<title>ndb.lithostrat:higherlithostratid&#45;&gt;ndb.lithostrat:lithostratid</title>
<path fill="none" stroke="black" d="M1310.58,-827.48C1317.91,-955.33 1317.37,-1129 1308.95,-1129 1300.29,-1129 1299.96,-916.93 1307.96,-786.14"/>
<polygon fill="black" stroke="black" points="1310.58,-827.51 1314.48,-817.26 1310.26,-822.19 1310,-817.86 1310,-817.86 1310,-817.86 1310.26,-822.19 1305.49,-817.8 1310.58,-827.51"/>
<text text-anchor="start" x="968.41" y="-827.2" font-family="Arial" font-size="10.00">FOREIGN KEY (higherlithostratid) REFERENCES ndb.lithostrat(lithostratid)</text>
</g>
<!-- ndb.rocktypes -->
<g id="node4" class="node">
<title>ndb.rocktypes</title>
<polygon fill="#efefef" stroke="none" points="1573.05,-817.2 1573.05,-852.8 1892.85,-852.8 1892.85,-817.2 1573.05,-817.2"/>
<polygon fill="none" stroke="black" points="1573.05,-817.2 1573.05,-852.8 1892.85,-852.8 1892.85,-817.2 1573.05,-817.2"/>
<text text-anchor="start" x="1619.97" y="-830.6" font-family="Arial Bold" font-size="18.00">ndb.rocktypes</text>
<text text-anchor="start" x="1721.45" y="-830.6" font-family="Arial" font-size="14.00">    </text>
<text text-anchor="start" x="1752.56" y="-830.6" font-family="Arial" font-size="14.00" fill="#666666">[BASE TABLE]</text>
<polygon fill="none" stroke="black" points="1573.05,-786.4 1573.05,-817.2 1892.85,-817.2 1892.85,-786.4 1573.05,-786.4"/>
<text text-anchor="start" x="1580.05" y="-798.6" font-family="Arial" font-size="14.00">description </text>
<text text-anchor="start" x="1651.64" y="-798.6" font-family="Arial" font-size="14.00" fill="#666666">[text]</text>
<polygon fill="none" stroke="black" points="1573.05,-755.6 1573.05,-786.4 1892.85,-786.4 1892.85,-755.6 1573.05,-755.6"/>
<text text-anchor="start" x="1580.05" y="-767.8" font-family="Arial" font-size="14.00">higherrocktypeid </text>
<text text-anchor="start" x="1686.66" y="-767.8" font-family="Arial" font-size="14.00" fill="#666666">[integer]</text>
<polygon fill="none" stroke="black" points="1573.05,-724.8 1573.05,-755.6 1892.85,-755.6 1892.85,-724.8 1573.05,-724.8"/>
<text text-anchor="start" x="1580.05" y="-737" font-family="Arial" font-size="14.00">recdatecreated </text>
<text text-anchor="start" x="1677.33" y="-737" font-family="Arial" font-size="14.00" fill="#666666">[timestamp(0) without time zone]</text>
<polygon fill="none" stroke="black" points="1573.05,-694 1573.05,-724.8 1892.85,-724.8 1892.85,-694 1573.05,-694"/>
<text text-anchor="start" x="1580.05" y="-706.2" font-family="Arial" font-size="14.00">recdatemodified </text>
<text text-anchor="start" x="1683.55" y="-706.2" font-family="Arial" font-size="14.00" fill="#666666">[timestamp(0) without time zone]</text>
<polygon fill="none" stroke="black" points="1573.05,-663.2 1573.05,-694 1892.85,-694 1892.85,-663.2 1573.05,-663.2"/>
<text text-anchor="start" x="1580.05" y="-675.4" font-family="Arial" font-size="14.00">rocktype </text>
<text text-anchor="start" x="1636.85" y="-675.4" font-family="Arial" font-size="14.00" fill="#666666">[varchar(64)]</text>
<polygon fill="none" stroke="black" points="1573.05,-632.4 1573.05,-663.2 1892.85,-663.2 1892.85,-632.4 1573.05,-632.4"/>
<text text-anchor="start" x="1580.05" y="-644.6" font-family="Arial" font-size="14.00">rocktypeid </text>
<text text-anchor="start" x="1647.75" y="-644.6" font-family="Arial" font-size="14.00" fill="#666666">[integer]</text>
</g>
<!-- ndb.rocktypes&#45;&gt;ndb.rocktypes -->
<g id="edge4" class="edge">
<title>ndb.rocktypes:higherrocktypeid&#45;&gt;ndb.rocktypes:rocktypeid</title>
<path fill="none" stroke="black" d="M1734.53,-796.25C1741.92,-927.56 1741.39,-1129 1732.95,-1129 1724.28,-1129 1723.96,-802.27 1731.99,-663.03"/>
<polygon fill="black" stroke="black" points="1734.54,-796.45 1738.45,-786.21 1734.23,-791.13 1733.98,-786.8 1733.98,-786.8 1733.98,-786.8 1734.23,-791.13 1729.47,-786.73 1734.54,-796.45"/>
<text text-anchor="start" x="1564.16" y="-770.14" font-family="Arial" font-size="10.00">FOREIGN KEY (higherrocktypeid) REFERENCES ndb.rocktypes(rocktypeid)</text>
</g>
<!-- ndb.taxa -->
<g id="node5" class="node">
<title>ndb.taxa</title>
<polygon fill="#efefef" stroke="none" points="1980.05,-474.4 1980.05,-510 2299.85,-510 2299.85,-474.4 1980.05,-474.4"/>
<polygon fill="none" stroke="black" points="1980.05,-474.4 1980.05,-510 2299.85,-510 2299.85,-474.4 1980.05,-474.4"/>
<text text-anchor="start" x="2046.97" y="-487.8" font-family="Arial Bold" font-size="18.00">ndb.taxa</text>
<text text-anchor="start" x="2108.45" y="-487.8" font-family="Arial" font-size="14.00">    </text>
<text text-anchor="start" x="2139.56" y="-487.8" font-family="Arial" font-size="14.00" fill="#666666">[BASE TABLE]</text>
<polygon fill="none" stroke="black" points="1980.05,-443.6 1980.05,-474.4 2299.85,-474.4 2299.85,-443.6 1980.05,-443.6"/>
<text text-anchor="start" x="1987.05" y="-455.8" font-family="Arial" font-size="14.00">author </text>
<text text-anchor="start" x="2030.64" y="-455.8" font-family="Arial" font-size="14.00" fill="#666666">[varchar(128)]</text>
<polygon fill="none" stroke="black" points="1980.05,-412.8 1980.05,-443.6 2299.85,-443.6 2299.85,-412.8 1980.05,-412.8"/>
<text text-anchor="start" x="1987.05" y="-425" font-family="Arial" font-size="14.00">extinct </text>
<text text-anchor="start" x="2031.4" y="-425" font-family="Arial" font-size="14.00" fill="#666666">[boolean]</text>
<polygon fill="none" stroke="black" points="1980.05,-382 1980.05,-412.8 2299.85,-412.8 2299.85,-382 1980.05,-382"/>
<text text-anchor="start" x="1987.05" y="-394.2" font-family="Arial" font-size="14.00">highertaxonid </text>
<text text-anchor="start" x="2075" y="-394.2" font-family="Arial" font-size="14.00" fill="#666666">[integer]</text>
<polygon fill="none" stroke="black" points="1980.05,-351.2 1980.05,-382 2299.85,-382 2299.85,-351.2 1980.05,-351.2"/>
<text text-anchor="start" x="1987.05" y="-363.4" font-family="Arial" font-size="14.00">notes </text>
<text text-anchor="start" x="2025.19" y="-363.4" font-family="Arial" font-size="14.00" fill="#666666">[text]</text>
<polygon fill="none" stroke="black" points="1980.05,-320.4 1980.05,-351.2 2299.85,-351.2 2299.85,-320.4 1980.05,-320.4"/>
<text text-anchor="start" x="1987.05" y="-332.6" font-family="Arial" font-size="14.00">publicationid </text>
<text text-anchor="start" x="2068.77" y="-332.6" font-family="Arial" font-size="14.00" fill="#666666">[integer]</text>
<polygon fill="none" stroke="black" points="1980.05,-289.6 1980.05,-320.4 2299.85,-320.4 2299.85,-289.6 1980.05,-289.6"/>
<text text-anchor="start" x="1987.05" y="-301.8" font-family="Arial" font-size="14.00">recdatecreated </text>
<text text-anchor="start" x="2084.33" y="-301.8" font-family="Arial" font-size="14.00" fill="#666666">[timestamp(0) without time zone]</text>
<polygon fill="none" stroke="black" points="1980.05,-258.8 1980.05,-289.6 2299.85,-289.6 2299.85,-258.8 1980.05,-258.8"/>
<text text-anchor="start" x="1987.05" y="-271" font-family="Arial" font-size="14.00">recdatemodified </text>
<text text-anchor="start" x="2090.55" y="-271" font-family="Arial" font-size="14.00" fill="#666666">[timestamp(0) without time zone]</text>
<polygon fill="none" stroke="black" points="1980.05,-228 1980.05,-258.8 2299.85,-258.8 2299.85,-228 1980.05,-228"/>
<text text-anchor="start" x="1987.05" y="-240.2" font-family="Arial" font-size="14.00">taxagroupid </text>
<text text-anchor="start" x="2064.11" y="-240.2" font-family="Arial" font-size="14.00" fill="#666666">[varchar(3)]</text>
<polygon fill="none" stroke="black" points="1980.05,-197.2 1980.05,-228 2299.85,-228 2299.85,-197.2 1980.05,-197.2"/>
<text text-anchor="start" x="1987.05" y="-209.4" font-family="Arial" font-size="14.00">taxoncode </text>
<text text-anchor="start" x="2055.55" y="-209.4" font-family="Arial" font-size="14.00" fill="#666666">[varchar(64)]</text>
<polygon fill="none" stroke="black" points="1980.05,-166.4 1980.05,-197.2 2299.85,-197.2 2299.85,-166.4 1980.05,-166.4"/>
<text text-anchor="start" x="1987.05" y="-178.6" font-family="Arial" font-size="14.00">taxonid </text>
<text text-anchor="start" x="2036.09" y="-178.6" font-family="Arial" font-size="14.00" fill="#666666">[integer]</text>
<polygon fill="none" stroke="black" points="1980.05,-135.6 1980.05,-166.4 2299.85,-166.4 2299.85,-135.6 1980.05,-135.6"/>
<text text-anchor="start" x="1987.05" y="-147.8" font-family="Arial" font-size="14.00">taxonname </text>
<text text-anchor="start" x="2060.21" y="-147.8" font-family="Arial" font-size="14.00" fill="#666666">[text]</text>
<polygon fill="none" stroke="black" points="1980.05,-104.8 1980.05,-135.6 2299.85,-135.6 2299.85,-104.8 1980.05,-104.8"/>
<text text-anchor="start" x="1987.05" y="-117" font-family="Arial" font-size="14.00">valid </text>
<text text-anchor="start" x="2019.73" y="-117" font-family="Arial" font-size="14.00" fill="#666666">[boolean]</text>
<polygon fill="none" stroke="black" points="1980.05,-74 1980.05,-104.8 2299.85,-104.8 2299.85,-74 1980.05,-74"/>
<text text-anchor="start" x="1987.05" y="-86.2" font-family="Arial" font-size="14.00">validatedate </text>
<text text-anchor="start" x="2066.44" y="-86.2" font-family="Arial" font-size="14.00" fill="#666666">[date]</text>
<polygon fill="none" stroke="black" points="1980.05,-43.2 1980.05,-74 2299.85,-74 2299.85,-43.2 1980.05,-43.2"/>
<text text-anchor="start" x="1987.05" y="-55.4" font-family="Arial" font-size="14.00">validatorid </text>
<text text-anchor="start" x="2054.75" y="-55.4" font-family="Arial" font-size="14.00" fill="#666666">[integer]</text>
</g>
<!-- ndb.taxa&#45;&gt;ndb.taxa -->
<g id="edge5" class="edge">
<title>ndb.taxa:highertaxonid&#45;&gt;ndb.taxa:taxonid</title>
<path fill="none" stroke="black" d="M2141.23,-423.05C2148.93,-588.48 2148.5,-786.2 2139.95,-786.2 2131.21,-786.2 2130.96,-376.34 2139.19,-197.12"/>
<polygon fill="black" stroke="black" points="2141.22,-423.02 2145.24,-412.82 2140.97,-417.7 2140.76,-413.37 2140.76,-413.37 2140.76,-413.37 2140.97,-417.7 2136.25,-413.25 2141.22,-423.02"/>
<text text-anchor="start" x="2147.73" y="-422.7" font-family="Arial" font-size="10.00">FOREIGN KEY (highertaxonid) REFERENCES ndb.taxa(taxonid)</text>
</g>
<!-- ndb.taxaalthierarchy -->
<g id="node6" class="node">
<title>ndb.taxaalthierarchy</title>
<polygon fill="#efefef" stroke="none" points="1996.99,-771 1996.99,-806.6 2282.91,-806.6 2282.91,-771 1996.99,-771"/>
<polygon fill="none" stroke="black" points="1996.99,-771 1996.99,-806.6 2282.91,-806.6 2282.91,-771 1996.99,-771"/>
<text text-anchor="start" x="2003.99" y="-784.4" font-family="Arial Bold" font-size="18.00">ndb.taxaalthierarchy</text>
<text text-anchor="start" x="2151.42" y="-784.4" font-family="Arial" font-size="14.00">    </text>
<text text-anchor="start" x="2182.54" y="-784.4" font-family="Arial" font-size="14.00" fill="#666666">[BASE TABLE]</text>
<polygon fill="none" stroke="black" points="1996.99,-740.2 1996.99,-771 2282.91,-771 2282.91,-740.2 1996.99,-740.2"/>
<text text-anchor="start" x="2003.99" y="-752.4" font-family="Arial" font-size="14.00">highertaxonid </text>
<text text-anchor="start" x="2091.94" y="-752.4" font-family="Arial" font-size="14.00" fill="#666666">[integer]</text>
<polygon fill="none" stroke="black" points="1996.99,-709.4 1996.99,-740.2 2282.91,-740.2 2282.91,-709.4 1996.99,-709.4"/>
<text text-anchor="start" x="2003.99" y="-721.6" font-family="Arial" font-size="14.00">taxaalthierarchytypeid </text>
<text text-anchor="start" x="2144.07" y="-721.6" font-family="Arial" font-size="14.00" fill="#666666">[integer]</text>
<polygon fill="none" stroke="black" points="1996.99,-678.6 1996.99,-709.4 2282.91,-709.4 2282.91,-678.6 1996.99,-678.6"/>
<text text-anchor="start" x="2003.99" y="-690.8" font-family="Arial" font-size="14.00">taxonid </text>
<text text-anchor="start" x="2053.03" y="-690.8" font-family="Arial" font-size="14.00" fill="#666666">[integer]</text>
</g>
<!-- ndb.taxaalthierarchy&#45;&gt;ndb.taxa -->
<g id="edge6" class="edge">
<title>ndb.taxaalthierarchy:taxonid&#45;&gt;ndb.taxa:taxonid</title>
<path fill="none" stroke="black" d="M2140.54,-667.19C2149.68,-591.16 2261.81,-630.72 2299.85,-553.2 2336.21,-479.11 2383.38,-181.8 2300.85,-181.8"/>
<polygon fill="black" stroke="black" points="2140.54,-667.28 2135.48,-677.01 2140.23,-672.61 2139.99,-676.93 2139.99,-676.93 2139.99,-676.93 2140.23,-672.61 2144.46,-677.52 2140.54,-667.28"/>
<text text-anchor="start" x="2146.95" y="-687.6" font-family="Arial" font-size="10.00">FOREIGN KEY (taxonid) REFERENCES ndb.taxa(taxonid) ON UPDATE CASCADE ON DELETE CASCADE</text>
</g>
<!-- ndb.taxaalthierarchy&#45;&gt;ndb.taxa -->
<g id="edge7" class="edge">
<title>ndb.taxaalthierarchy:highertaxonid&#45;&gt;ndb.taxa:taxonid</title>
<path fill="none" stroke="black" d="M2293.26,-751.31C2349.2,-698.8 2361.39,-181.8 2300.85,-181.8"/>
<polygon fill="black" stroke="black" points="2293.3,-751.29 2282.34,-751.37 2288.45,-753.52 2284.52,-755.32 2284.52,-755.32 2284.52,-755.32 2288.45,-753.52 2286.09,-759.55 2293.3,-751.29"/>
<text text-anchor="start" x="2290.91" y="-765.6" font-family="Arial" font-size="10.00">FOREIGN KEY (highertaxonid) REFERENCES ndb.taxa(taxonid)</text>
</g>
</g>
</svg>
