<?xml version="1.0" encoding="UTF-8" standalone="no"?>
<!DOCTYPE svg PUBLIC "-//W3C//DTD SVG 1.1//EN"
 "http://www.w3.org/Graphics/SVG/1.1/DTD/svg11.dtd">
<!-- Generated by graphviz version 12.1.2 (20240928.0832)
 -->
<!-- Title: Hierarchical Tables Pages: 1 -->
<svg width="2396pt" height="1137pt"
 viewBox="0.00 0.00 2395.60 1137.00" xmlns="http://www.w3.org/2000/svg" xmlns:xlink="http://www.w3.org/1999/xlink">
<g id="graph0" class="graph" transform="scale(1 1) rotate(0) translate(4 1133)">
<title>Hierarchical Tables</title>
<polygon fill="white" stroke="none" points="-4,4 -4,-1133 2391.6,-1133 2391.6,4 -4,4"/>
<!-- ndb.taxa -->
<g id="node1" class="node">
<title>ndb.taxa</title>
<polygon fill="#efefef" stroke="none" points="194.17,-474.4 194.17,-510 513.96,-510 513.96,-474.4 194.17,-474.4"/>
<polygon fill="none" stroke="black" points="194.17,-474.4 194.17,-510 513.96,-510 513.96,-474.4 194.17,-474.4"/>
<text text-anchor="start" x="261.08" y="-487.8" font-family="Arial Bold" font-size="18.00">ndb.taxa</text>
<text text-anchor="start" x="322.56" y="-487.8" font-family="Arial" font-size="14.00">    </text>
<text text-anchor="start" x="353.68" y="-487.8" font-family="Arial" font-size="14.00" fill="#666666">[BASE TABLE]</text>
<polygon fill="none" stroke="black" points="194.17,-443.6 194.17,-474.4 513.96,-474.4 513.96,-443.6 194.17,-443.6"/>
<text text-anchor="start" x="201.17" y="-455.8" font-family="Arial" font-size="14.00">taxonid </text>
<text text-anchor="start" x="250.2" y="-455.8" font-family="Arial" font-size="14.00" fill="#666666">[integer]</text>
<polygon fill="none" stroke="black" points="194.17,-412.8 194.17,-443.6 513.96,-443.6 513.96,-412.8 194.17,-412.8"/>
<text text-anchor="start" x="201.17" y="-425" font-family="Arial" font-size="14.00">taxoncode </text>
<text text-anchor="start" x="269.66" y="-425" font-family="Arial" font-size="14.00" fill="#666666">[varchar(64)]</text>
<polygon fill="none" stroke="black" points="194.17,-382 194.17,-412.8 513.96,-412.8 513.96,-382 194.17,-382"/>
<text text-anchor="start" x="201.17" y="-394.2" font-family="Arial" font-size="14.00">taxonname </text>
<text text-anchor="start" x="274.32" y="-394.2" font-family="Arial" font-size="14.00" fill="#666666">[text]</text>
<polygon fill="none" stroke="black" points="194.17,-351.2 194.17,-382 513.96,-382 513.96,-351.2 194.17,-351.2"/>
<text text-anchor="start" x="201.17" y="-363.4" font-family="Arial" font-size="14.00">author </text>
<text text-anchor="start" x="244.75" y="-363.4" font-family="Arial" font-size="14.00" fill="#666666">[varchar(128)]</text>
<polygon fill="none" stroke="black" points="194.17,-320.4 194.17,-351.2 513.96,-351.2 513.96,-320.4 194.17,-320.4"/>
<text text-anchor="start" x="201.17" y="-332.6" font-family="Arial" font-size="14.00">valid </text>
<text text-anchor="start" x="233.85" y="-332.6" font-family="Arial" font-size="14.00" fill="#666666">[boolean]</text>
<polygon fill="none" stroke="black" points="194.17,-289.6 194.17,-320.4 513.96,-320.4 513.96,-289.6 194.17,-289.6"/>
<text text-anchor="start" x="201.17" y="-301.8" font-family="Arial" font-size="14.00">highertaxonid </text>
<text text-anchor="start" x="289.12" y="-301.8" font-family="Arial" font-size="14.00" fill="#666666">[integer]</text>
<polygon fill="none" stroke="black" points="194.17,-258.8 194.17,-289.6 513.96,-289.6 513.96,-258.8 194.17,-258.8"/>
<text text-anchor="start" x="201.17" y="-271" font-family="Arial" font-size="14.00">extinct </text>
<text text-anchor="start" x="245.52" y="-271" font-family="Arial" font-size="14.00" fill="#666666">[boolean]</text>
<polygon fill="none" stroke="black" points="194.17,-228 194.17,-258.8 513.96,-258.8 513.96,-228 194.17,-228"/>
<text text-anchor="start" x="201.17" y="-240.2" font-family="Arial" font-size="14.00">taxagroupid </text>
<text text-anchor="start" x="278.22" y="-240.2" font-family="Arial" font-size="14.00" fill="#666666">[varchar(3)]</text>
<polygon fill="none" stroke="black" points="194.17,-197.2 194.17,-228 513.96,-228 513.96,-197.2 194.17,-197.2"/>
<text text-anchor="start" x="201.17" y="-209.4" font-family="Arial" font-size="14.00">publicationid </text>
<text text-anchor="start" x="282.89" y="-209.4" font-family="Arial" font-size="14.00" fill="#666666">[integer]</text>
<polygon fill="none" stroke="black" points="194.17,-166.4 194.17,-197.2 513.96,-197.2 513.96,-166.4 194.17,-166.4"/>
<text text-anchor="start" x="201.17" y="-178.6" font-family="Arial" font-size="14.00">validatorid </text>
<text text-anchor="start" x="268.87" y="-178.6" font-family="Arial" font-size="14.00" fill="#666666">[integer]</text>
<polygon fill="none" stroke="black" points="194.17,-135.6 194.17,-166.4 513.96,-166.4 513.96,-135.6 194.17,-135.6"/>
<text text-anchor="start" x="201.17" y="-147.8" font-family="Arial" font-size="14.00">validatedate </text>
<text text-anchor="start" x="280.56" y="-147.8" font-family="Arial" font-size="14.00" fill="#666666">[date]</text>
<polygon fill="none" stroke="black" points="194.17,-104.8 194.17,-135.6 513.96,-135.6 513.96,-104.8 194.17,-104.8"/>
<text text-anchor="start" x="201.17" y="-117" font-family="Arial" font-size="14.00">notes </text>
<text text-anchor="start" x="239.3" y="-117" font-family="Arial" font-size="14.00" fill="#666666">[text]</text>
<polygon fill="none" stroke="black" points="194.17,-74 194.17,-104.8 513.96,-104.8 513.96,-74 194.17,-74"/>
<text text-anchor="start" x="201.17" y="-86.2" font-family="Arial" font-size="14.00">recdatecreated </text>
<text text-anchor="start" x="298.45" y="-86.2" font-family="Arial" font-size="14.00" fill="#666666">[timestamp(0) without time zone]</text>
<polygon fill="none" stroke="black" points="194.17,-43.2 194.17,-74 513.96,-74 513.96,-43.2 194.17,-43.2"/>
<text text-anchor="start" x="201.17" y="-55.4" font-family="Arial" font-size="14.00">recdatemodified </text>
<text text-anchor="start" x="304.67" y="-55.4" font-family="Arial" font-size="14.00" fill="#666666">[timestamp(0) without time zone]</text>
</g>
<!-- ndb.taxa&#45;&gt;ndb.taxa -->
<g id="edge1" class="edge">
<title>ndb.taxa:highertaxonid&#45;&gt;ndb.taxa:taxonid</title>
<path fill="none" stroke="black" d="M355.3,-330.53C363.04,-504.19 362.63,-786.2 354.06,-786.2 345.34,-786.2 345.07,-638.25 353.27,-474.39"/>
<polygon fill="black" stroke="black" points="355.31,-330.61 359.34,-320.41 355.06,-325.28 354.86,-320.95 354.86,-320.95 354.86,-320.95 355.06,-325.28 350.35,-320.82 355.31,-330.61"/>
<text text-anchor="start" x="58.83" y="-330.28" font-family="Arial" font-size="10.00">FOREIGN KEY (highertaxonid) REFERENCES ndb.taxa(taxonid)</text>
</g>
<!-- ndb.chroncontroltypes -->
<g id="node2" class="node">
<title>ndb.chroncontroltypes</title>
<polygon fill="#efefef" stroke="none" points="601.17,-801.8 601.17,-837.4 920.96,-837.4 920.96,-801.8 601.17,-801.8"/>
<polygon fill="none" stroke="black" points="601.17,-801.8 601.17,-837.4 920.96,-837.4 920.96,-801.8 601.17,-801.8"/>
<text text-anchor="start" x="618.09" y="-815.2" font-family="Arial Bold" font-size="18.00">ndb.chroncontroltypes</text>
<text text-anchor="start" x="779.55" y="-815.2" font-family="Arial" font-size="14.00">    </text>
<text text-anchor="start" x="810.67" y="-815.2" font-family="Arial" font-size="14.00" fill="#666666">[BASE TABLE]</text>
<polygon fill="none" stroke="black" points="601.17,-771 601.17,-801.8 920.96,-801.8 920.96,-771 601.17,-771"/>
<text text-anchor="start" x="608.17" y="-783.2" font-family="Arial" font-size="14.00">chroncontroltypeid </text>
<text text-anchor="start" x="726.45" y="-783.2" font-family="Arial" font-size="14.00" fill="#666666">[integer]</text>
<polygon fill="none" stroke="black" points="601.17,-740.2 601.17,-771 920.96,-771 920.96,-740.2 601.17,-740.2"/>
<text text-anchor="start" x="608.17" y="-752.4" font-family="Arial" font-size="14.00">chroncontroltype </text>
<text text-anchor="start" x="715.56" y="-752.4" font-family="Arial" font-size="14.00" fill="#666666">[varchar(64)]</text>
<polygon fill="none" stroke="black" points="601.17,-709.4 601.17,-740.2 920.96,-740.2 920.96,-709.4 601.17,-709.4"/>
<text text-anchor="start" x="608.17" y="-721.6" font-family="Arial" font-size="14.00">higherchroncontroltypeid </text>
<text text-anchor="start" x="765.37" y="-721.6" font-family="Arial" font-size="14.00" fill="#666666">[integer]</text>
<polygon fill="none" stroke="black" points="601.17,-678.6 601.17,-709.4 920.96,-709.4 920.96,-678.6 601.17,-678.6"/>
<text text-anchor="start" x="608.17" y="-690.8" font-family="Arial" font-size="14.00">recdatecreated </text>
<text text-anchor="start" x="705.45" y="-690.8" font-family="Arial" font-size="14.00" fill="#666666">[timestamp(0) without time zone]</text>
<polygon fill="none" stroke="black" points="601.17,-647.8 601.17,-678.6 920.96,-678.6 920.96,-647.8 601.17,-647.8"/>
<text text-anchor="start" x="608.17" y="-660" font-family="Arial" font-size="14.00">recdatemodified </text>
<text text-anchor="start" x="711.67" y="-660" font-family="Arial" font-size="14.00" fill="#666666">[timestamp(0) without time zone]</text>
</g>
<!-- ndb.chroncontroltypes&#45;&gt;ndb.chroncontroltypes -->
<g id="edge2" class="edge">
<title>ndb.chroncontroltypes:higherchroncontroltypeid&#45;&gt;ndb.chroncontroltypes:chroncontroltypeid</title>
<path fill="none" stroke="black" d="M762.67,-749.95C770.03,-881.05 769.49,-1113.6 761.06,-1113.6 752.43,-1113.6 752.08,-926.04 760.03,-801.62"/>
<polygon fill="black" stroke="black" points="762.69,-750.23 766.59,-739.98 762.37,-744.91 762.12,-740.58 762.12,-740.58 762.12,-740.58 762.37,-744.91 757.61,-740.51 762.69,-750.23"/>
<text text-anchor="start" x="769.08" y="-749.92" font-family="Arial" font-size="10.00">FOREIGN KEY (higherchroncontroltypeid) REFERENCES ndb.chroncontroltypes(chroncontroltypeid)</text>
</g>
<!-- ndb.depenvttypes -->
<g id="node3" class="node">
<title>ndb.depenvttypes</title>
<polygon fill="#efefef" stroke="none" points="1025.17,-801.8 1025.17,-837.4 1344.96,-837.4 1344.96,-801.8 1025.17,-801.8"/>
<polygon fill="none" stroke="black" points="1025.17,-801.8 1025.17,-837.4 1344.96,-837.4 1344.96,-801.8 1025.17,-801.8"/>
<text text-anchor="start" x="1059.58" y="-815.2" font-family="Arial Bold" font-size="18.00">ndb.depenvttypes</text>
<text text-anchor="start" x="1186.06" y="-815.2" font-family="Arial" font-size="14.00">    </text>
<text text-anchor="start" x="1217.17" y="-815.2" font-family="Arial" font-size="14.00" fill="#666666">[BASE TABLE]</text>
<polygon fill="none" stroke="black" points="1025.17,-771 1025.17,-801.8 1344.96,-801.8 1344.96,-771 1025.17,-771"/>
<text text-anchor="start" x="1032.17" y="-783.2" font-family="Arial" font-size="14.00">depenvtid </text>
<text text-anchor="start" x="1096.77" y="-783.2" font-family="Arial" font-size="14.00" fill="#666666">[integer]</text>
<polygon fill="none" stroke="black" points="1025.17,-740.2 1025.17,-771 1344.96,-771 1344.96,-740.2 1025.17,-740.2"/>
<text text-anchor="start" x="1032.17" y="-752.4" font-family="Arial" font-size="14.00">depenvt </text>
<text text-anchor="start" x="1085.88" y="-752.4" font-family="Arial" font-size="14.00" fill="#666666">[varchar(255)]</text>
<polygon fill="none" stroke="black" points="1025.17,-709.4 1025.17,-740.2 1344.96,-740.2 1344.96,-709.4 1025.17,-709.4"/>
<text text-anchor="start" x="1032.17" y="-721.6" font-family="Arial" font-size="14.00">depenvthigherid </text>
<text text-anchor="start" x="1135.69" y="-721.6" font-family="Arial" font-size="14.00" fill="#666666">[integer]</text>
<polygon fill="none" stroke="black" points="1025.17,-678.6 1025.17,-709.4 1344.96,-709.4 1344.96,-678.6 1025.17,-678.6"/>
<text text-anchor="start" x="1032.17" y="-690.8" font-family="Arial" font-size="14.00">recdatecreated </text>
<text text-anchor="start" x="1129.45" y="-690.8" font-family="Arial" font-size="14.00" fill="#666666">[timestamp(0) without time zone]</text>
<polygon fill="none" stroke="black" points="1025.17,-647.8 1025.17,-678.6 1344.96,-678.6 1344.96,-647.8 1025.17,-647.8"/>
<text text-anchor="start" x="1032.17" y="-660" font-family="Arial" font-size="14.00">recdatemodified </text>
<text text-anchor="start" x="1135.67" y="-660" font-family="Arial" font-size="14.00" fill="#666666">[timestamp(0) without time zone]</text>
</g>
<!-- ndb.depenvttypes&#45;&gt;ndb.depenvttypes -->
<g id="edge3" class="edge">
<title>ndb.depenvttypes:depenvthigherid&#45;&gt;ndb.depenvttypes:depenvtid</title>
<path fill="none" stroke="black" d="M1186.67,-749.95C1194.03,-881.05 1193.49,-1113.6 1185.06,-1113.6 1176.43,-1113.6 1176.08,-926.04 1184.03,-801.62"/>
<polygon fill="black" stroke="black" points="1186.69,-750.23 1190.59,-739.98 1186.37,-744.91 1186.12,-740.58 1186.12,-740.58 1186.12,-740.58 1186.37,-744.91 1181.61,-740.51 1186.69,-750.23"/>
<text text-anchor="start" x="827.25" y="-723.92" font-family="Arial" font-size="10.00">FOREIGN KEY (depenvthigherid) REFERENCES ndb.depenvttypes(depenvtid)</text>
</g>
<!-- ndb.lithostrat -->
<g id="node4" class="node">
<title>ndb.lithostrat</title>
<polygon fill="#efefef" stroke="none" points="1449.17,-817.2 1449.17,-852.8 1768.96,-852.8 1768.96,-817.2 1449.17,-817.2"/>
<polygon fill="none" stroke="black" points="1449.17,-817.2 1449.17,-852.8 1768.96,-852.8 1768.96,-817.2 1449.17,-817.2"/>
<text text-anchor="start" x="1499.07" y="-830.6" font-family="Arial Bold" font-size="18.00">ndb.lithostrat</text>
<text text-anchor="start" x="1594.57" y="-830.6" font-family="Arial" font-size="14.00">    </text>
<text text-anchor="start" x="1625.68" y="-830.6" font-family="Arial" font-size="14.00" fill="#666666">[BASE TABLE]</text>
<polygon fill="none" stroke="black" points="1449.17,-786.4 1449.17,-817.2 1768.96,-817.2 1768.96,-786.4 1449.17,-786.4"/>
<text text-anchor="start" x="1456.17" y="-798.6" font-family="Arial" font-size="14.00">lithostratid </text>
<text text-anchor="start" x="1523.86" y="-798.6" font-family="Arial" font-size="14.00" fill="#666666">[integer]</text>
<polygon fill="none" stroke="black" points="1449.17,-755.6 1449.17,-786.4 1768.96,-786.4 1768.96,-755.6 1449.17,-755.6"/>
<text text-anchor="start" x="1456.17" y="-767.8" font-family="Arial" font-size="14.00">lithostratunitid </text>
<text text-anchor="start" x="1546.43" y="-767.8" font-family="Arial" font-size="14.00" fill="#666666">[integer]</text>
<polygon fill="none" stroke="black" points="1449.17,-724.8 1449.17,-755.6 1768.96,-755.6 1768.96,-724.8 1449.17,-724.8"/>
<text text-anchor="start" x="1456.17" y="-737" font-family="Arial" font-size="14.00">lithostratname </text>
<text text-anchor="start" x="1547.99" y="-737" font-family="Arial" font-size="14.00" fill="#666666">[varchar(64)]</text>
<polygon fill="none" stroke="black" points="1449.17,-694 1449.17,-724.8 1768.96,-724.8 1768.96,-694 1449.17,-694"/>
<text text-anchor="start" x="1456.17" y="-706.2" font-family="Arial" font-size="14.00">higherlithostratid </text>
<text text-anchor="start" x="1562.78" y="-706.2" font-family="Arial" font-size="14.00" fill="#666666">[integer]</text>
<polygon fill="none" stroke="black" points="1449.17,-663.2 1449.17,-694 1768.96,-694 1768.96,-663.2 1449.17,-663.2"/>
<text text-anchor="start" x="1456.17" y="-675.4" font-family="Arial" font-size="14.00">recdatecreated </text>
<text text-anchor="start" x="1553.45" y="-675.4" font-family="Arial" font-size="14.00" fill="#666666">[timestamp(0) without time zone]</text>
<polygon fill="none" stroke="black" points="1449.17,-632.4 1449.17,-663.2 1768.96,-663.2 1768.96,-632.4 1449.17,-632.4"/>
<text text-anchor="start" x="1456.17" y="-644.6" font-family="Arial" font-size="14.00">recdatemodified </text>
<text text-anchor="start" x="1559.67" y="-644.6" font-family="Arial" font-size="14.00" fill="#666666">[timestamp(0) without time zone]</text>
</g>
<!-- ndb.lithostrat&#45;&gt;ndb.lithostrat -->
<g id="edge4" class="edge">
<title>ndb.lithostrat:higherlithostratid&#45;&gt;ndb.lithostrat:lithostratid</title>
<path fill="none" stroke="black" d="M1610.62,-734.93C1618.03,-872.91 1617.51,-1129 1609.06,-1129 1600.42,-1129 1600.08,-945.8 1608.05,-817.2"/>
<polygon fill="black" stroke="black" points="1610.64,-735.11 1614.57,-724.88 1610.34,-729.79 1610.09,-725.46 1610.09,-725.46 1610.09,-725.46 1610.34,-729.79 1605.58,-725.38 1610.64,-735.11"/>
<text text-anchor="start" x="1442.78" y="-708.8" font-family="Arial" font-size="10.00">FOREIGN KEY (higherlithostratid) REFERENCES ndb.lithostrat(lithostratid)</text>
</g>
<!-- ndb.rocktypes -->
<g id="node5" class="node">
<title>ndb.rocktypes</title>
<polygon fill="#efefef" stroke="none" points="1873.17,-817.2 1873.17,-852.8 2192.96,-852.8 2192.96,-817.2 1873.17,-817.2"/>
<polygon fill="none" stroke="black" points="1873.17,-817.2 1873.17,-852.8 2192.96,-852.8 2192.96,-817.2 1873.17,-817.2"/>
<text text-anchor="start" x="1920.08" y="-830.6" font-family="Arial Bold" font-size="18.00">ndb.rocktypes</text>
<text text-anchor="start" x="2021.56" y="-830.6" font-family="Arial" font-size="14.00">    </text>
<text text-anchor="start" x="2052.68" y="-830.6" font-family="Arial" font-size="14.00" fill="#666666">[BASE TABLE]</text>
<polygon fill="none" stroke="black" points="1873.17,-786.4 1873.17,-817.2 2192.96,-817.2 2192.96,-786.4 1873.17,-786.4"/>
<text text-anchor="start" x="1880.17" y="-798.6" font-family="Arial" font-size="14.00">rocktypeid </text>
<text text-anchor="start" x="1947.86" y="-798.6" font-family="Arial" font-size="14.00" fill="#666666">[integer]</text>
<polygon fill="none" stroke="black" points="1873.17,-755.6 1873.17,-786.4 2192.96,-786.4 2192.96,-755.6 1873.17,-755.6"/>
<text text-anchor="start" x="1880.17" y="-767.8" font-family="Arial" font-size="14.00">rocktype </text>
<text text-anchor="start" x="1936.97" y="-767.8" font-family="Arial" font-size="14.00" fill="#666666">[varchar(64)]</text>
<polygon fill="none" stroke="black" points="1873.17,-724.8 1873.17,-755.6 2192.96,-755.6 2192.96,-724.8 1873.17,-724.8"/>
<text text-anchor="start" x="1880.17" y="-737" font-family="Arial" font-size="14.00">higherrocktypeid </text>
<text text-anchor="start" x="1986.78" y="-737" font-family="Arial" font-size="14.00" fill="#666666">[integer]</text>
<polygon fill="none" stroke="black" points="1873.17,-694 1873.17,-724.8 2192.96,-724.8 2192.96,-694 1873.17,-694"/>
<text text-anchor="start" x="1880.17" y="-706.2" font-family="Arial" font-size="14.00">description </text>
<text text-anchor="start" x="1951.76" y="-706.2" font-family="Arial" font-size="14.00" fill="#666666">[text]</text>
<polygon fill="none" stroke="black" points="1873.17,-663.2 1873.17,-694 2192.96,-694 2192.96,-663.2 1873.17,-663.2"/>
<text text-anchor="start" x="1880.17" y="-675.4" font-family="Arial" font-size="14.00">recdatecreated </text>
<text text-anchor="start" x="1977.45" y="-675.4" font-family="Arial" font-size="14.00" fill="#666666">[timestamp(0) without time zone]</text>
<polygon fill="none" stroke="black" points="1873.17,-632.4 1873.17,-663.2 2192.96,-663.2 2192.96,-632.4 1873.17,-632.4"/>
<text text-anchor="start" x="1880.17" y="-644.6" font-family="Arial" font-size="14.00">recdatemodified </text>
<text text-anchor="start" x="1983.67" y="-644.6" font-family="Arial" font-size="14.00" fill="#666666">[timestamp(0) without time zone]</text>
</g>
<!-- ndb.rocktypes&#45;&gt;ndb.rocktypes -->
<g id="edge5" class="edge">
<title>ndb.rocktypes:higherrocktypeid&#45;&gt;ndb.rocktypes:rocktypeid</title>
<path fill="none" stroke="black" d="M2034.65,-765.8C2042.03,-900.49 2041.5,-1129 2033.06,-1129 2024.42,-1129 2024.08,-945.8 2032.05,-817.2"/>
<polygon fill="black" stroke="black" points="2034.65,-765.78 2038.57,-755.54 2034.34,-760.46 2034.09,-756.13 2034.09,-756.13 2034.09,-756.13 2034.34,-760.46 2029.58,-756.06 2034.65,-765.78"/>
<text text-anchor="start" x="2041.05" y="-765.47" font-family="Arial" font-size="10.00">FOREIGN KEY (higherrocktypeid) REFERENCES ndb.rocktypes(rocktypeid)</text>
</g>
<!-- ndb.taxaalthierarchy -->
<g id="node6" class="node">
<title>ndb.taxaalthierarchy</title>
<polygon fill="#efefef" stroke="none" points="211.11,-771 211.11,-806.6 497.02,-806.6 497.02,-771 211.11,-771"/>
<polygon fill="none" stroke="black" points="211.11,-771 211.11,-806.6 497.02,-806.6 497.02,-771 211.11,-771"/>
<text text-anchor="start" x="218.11" y="-784.4" font-family="Arial Bold" font-size="18.00">ndb.taxaalthierarchy</text>
<text text-anchor="start" x="365.53" y="-784.4" font-family="Arial" font-size="14.00">    </text>
<text text-anchor="start" x="396.65" y="-784.4" font-family="Arial" font-size="14.00" fill="#666666">[BASE TABLE]</text>
<polygon fill="none" stroke="black" points="211.11,-740.2 211.11,-771 497.02,-771 497.02,-740.2 211.11,-740.2"/>
<text text-anchor="start" x="218.11" y="-752.4" font-family="Arial" font-size="14.00">taxaalthierarchytypeid </text>
<text text-anchor="start" x="358.18" y="-752.4" font-family="Arial" font-size="14.00" fill="#666666">[integer]</text>
<polygon fill="none" stroke="black" points="211.11,-709.4 211.11,-740.2 497.02,-740.2 497.02,-709.4 211.11,-709.4"/>
<text text-anchor="start" x="218.11" y="-721.6" font-family="Arial" font-size="14.00">taxonid </text>
<text text-anchor="start" x="267.14" y="-721.6" font-family="Arial" font-size="14.00" fill="#666666">[integer]</text>
<polygon fill="none" stroke="black" points="211.11,-678.6 211.11,-709.4 497.02,-709.4 497.02,-678.6 211.11,-678.6"/>
<text text-anchor="start" x="218.11" y="-690.8" font-family="Arial" font-size="14.00">highertaxonid </text>
<text text-anchor="start" x="306.06" y="-690.8" font-family="Arial" font-size="14.00" fill="#666666">[integer]</text>
</g>
<!-- ndb.taxaalthierarchy&#45;&gt;ndb.taxa -->
<g id="edge6" class="edge">
<title>ndb.taxaalthierarchy:taxonid&#45;&gt;ndb.taxa:taxonid</title>
<path fill="none" stroke="black" d="M505.99,-718.23C530.38,-677.3 541.78,-459 514.96,-459"/>
<polygon fill="black" stroke="black" points="505.99,-718.22 495.42,-721.12 501.88,-721.62 498.54,-724.37 498.54,-724.37 498.54,-724.37 501.88,-721.62 501.15,-728.06 505.99,-718.22"/>
<text text-anchor="start" x="7" y="-734.8" font-family="Arial" font-size="10.00">FOREIGN KEY (taxonid) REFERENCES ndb.taxa(taxonid) ON UPDATE CASCADE ON DELETE CASCADE</text>
</g>
<!-- ndb.taxaalthierarchy&#45;&gt;ndb.taxa -->
<g id="edge7" class="edge">
<title>ndb.taxaalthierarchy:highertaxonid&#45;&gt;ndb.taxa:taxonid</title>
<path fill="none" stroke="black" d="M354.66,-667.19C363.77,-591.15 475.62,-630.57 513.96,-553.2 532.56,-515.69 556.83,-459 514.96,-459"/>
<polygon fill="black" stroke="black" points="354.65,-667.28 349.59,-677.01 354.35,-672.61 354.1,-676.93 354.1,-676.93 354.1,-676.93 354.35,-672.61 358.58,-677.52 354.65,-667.28"/>
<text text-anchor="start" x="58.07" y="-687.6" font-family="Arial" font-size="10.00">FOREIGN KEY (highertaxonid) REFERENCES ndb.taxa(taxonid)</text>
</g>
</g>
</svg>
